<svg xmlns="http://www.w3.org/2000/svg" xmlns:xlink="http://www.w3.org/1999/xlink" viewBox="0 0 238.8232 37.18663"><defs><style>.b873eff2-7854-4664-ade2-919384d67719,.e7e551c1-ac33-4669-960b-335ae619fc58{fill:none;}.bc9c52ee-1489-47b3-9785-093827c747d9{isolation:isolate;}.afbb60df-4253-4a0e-9392-c02d0a7499a2{clip-path:url(#a9a38f46-fec7-4a88-946c-b29f7ca79a1e);}.fe5977d5-6483-4950-aef3-c7b9ca14e187{fill:#e86978;opacity:0.8;mix-blend-mode:hard-light;}.ae5163b3-6b2e-4ed7-a7d0-d31a98aea2db{clip-path:url(#f98f012e-c1fd-4755-98c5-d2eb1401eb5f);}.b02948c4-0c3c-4cc5-8c6d-23f579b21ec6{fill:#b0ceb2;}.ade76312-6abd-4ece-b565-905e64c51248{clip-path:url(#b0f57945-784d-49ba-be30-904ae01d2791);}.b5698349-400e-411c-b90e-d23dc066eda2{fill:#eeddc4;}.a8aca82f-6864-4000-af57-efda6aa6d6d6,.b873eff2-7854-4664-ade2-919384d67719{stroke:#ee755b;stroke-miterlimit:10;}.b873eff2-7854-4664-ade2-919384d67719{stroke-width:1.94227px;}.a8aca82f-6864-4000-af57-efda6aa6d6d6{fill:#ee755b;stroke-width:1.54627px;}.bbb7be0e-8456-42bd-8489-e8da690e4f9a{fill:#fff;}</style><clipPath id="a9a38f46-fec7-4a88-946c-b29f7ca79a1e"><rect class="e7e551c1-ac33-4669-960b-335ae619fc58" x="-95.06384" y="342.39036" width="235.49085" height="29.6666"/></clipPath><clipPath id="f98f012e-c1fd-4755-98c5-d2eb1401eb5f"><rect class="e7e551c1-ac33-4669-960b-335ae619fc58" x="-93.02129" y="282.11554" width="235.49085" height="29.6666"/></clipPath><clipPath id="b0f57945-784d-49ba-be30-904ae01d2791"><rect class="e7e551c1-ac33-4669-960b-335ae619fc58" x="-93.02129" y="217.45861" width="235.49085" height="29.6666"/></clipPath></defs><title>Artboard 46</title><g class="bc9c52ee-1489-47b3-9785-093827c747d9"><g id="e66a0647-3315-4461-95a7-8a3e7002087d" data-name="Layer 1"><g class="afbb60df-4253-4a0e-9392-c02d0a7499a2"><rect class="fe5977d5-6483-4950-aef3-c7b9ca14e187" x="111.03413" y="24.17958" width="25.95366" height="82.57981" transform="translate(-9.97195 106.86456) rotate(-45)"/></g><g class="ae5163b3-6b2e-4ed7-a7d0-d31a98aea2db"><polygon class="b02948c4-0c3c-4cc5-8c6d-23f579b21ec6" points="109.712 311.782 -93.026 311.782 -92.9 8.694 -83.987 2.147 -63.156 -16.194 142.018 -16.194 142.47 285.882 109.712 311.782"/><rect class="fe5977d5-6483-4950-aef3-c7b9ca14e187" x="113.07669" y="-36.09525" width="25.95366" height="82.57981" transform="translate(33.24704 90.65478) rotate(-45)"/></g><g class="ade76312-6abd-4ece-b565-905e64c51248"><polygon class="b5698349-400e-411c-b90e-d23dc066eda2" points="109.712 247.125 -93.026 247.125 -92.9 -55.963 -83.987 -62.51 -63.156 -80.851 142.018 -80.851 142.47 221.225 109.712 247.125"/></g><path class="b873eff2-7854-4664-ade2-919384d67719" d="M238.82316,20.24329H128.67881a.74773.74773,0,0,1-.67038-.4946L122.57675,2.16041c-.5021-1.62585-1.11612-1.57877-1.36449.10462L116.77634,32.3307c-.3749,2.541-.99935,2.54265-1.38767.00366l-3.02518-21.37253s-.16211-1.3871-.3094-1.39228c-.15289-.00538-.34807,1.04421-.34807,1.04421L110.0303,19.6962a.73652.73652,0,0,1-.68439.54709H42.32412"/><rect class="a8aca82f-6864-4000-af57-efda6aa6d6d6" x="0.95797" y="3.14703" width="89.35112" height="33.26643" rx="16.6332"/><path class="bbb7be0e-8456-42bd-8489-e8da690e4f9a" d="M30.22379,15.52944v1.51269l-3.17969,8.041H25.22574L28.40543,16.923H23.28824V12.89467h1.64844v2.63477Z"/><path class="bbb7be0e-8456-42bd-8489-e8da690e4f9a" d="M32.09293,17.51869l-.20313-1.98925h1.80176l.2207,1.98925v7.56446H32.09293Z"/><path class="bbb7be0e-8456-42bd-8489-e8da690e4f9a" d="M39.23355,25.08315l-.374-2.09082a5.1132,5.1132,0,0,1-1.17285,1.43652,5.287,5.287,0,0,1-1.666.92676l-.66309-1.44531A6.72517,6.72517,0,0,0,37.32144,22.882a4.43607,4.43607,0,0,0,1.249-1.55567V18.3517a2.23575,2.23575,0,0,0-.19532-1.08008.97181.97181,0,0,0-.73926-.416l-1.07128-.15332.2373-1.377,1.68359.23828a2.06988,2.06988,0,0,1,1.45313.78222,3.09493,3.09493,0,0,1,.45117,1.81836v3.26465l.57813,3.6543Z"/><path class="bbb7be0e-8456-42bd-8489-e8da690e4f9a" d="M46.96793,18.62319a1.81285,1.81285,0,0,0-.39063-1.30078,1.5264,1.5264,0,0,0-1.13867-.39942H42.2941V15.52944h3.60351a2.87314,2.87314,0,0,1,2.125.76465,3.30272,3.30272,0,0,1,.76465,2.41406v6.375H46.96793Z"/><path class="bbb7be0e-8456-42bd-8489-e8da690e4f9a" d="M50.19839,24.08022a1.90945,1.90945,0,0,0,1.32618-.52637,2.21433,2.21433,0,0,0,.33984-1.37793V15.52944h4.58984a2.87314,2.87314,0,0,1,2.125.76465,3.30272,3.30272,0,0,1,.76465,2.41406v6.375H57.52457v-6.46a1.81285,1.81285,0,0,0-.39063-1.30078,1.5264,1.5264,0,0,0-1.13867-.39942h-2.3125V21.9728a3.30728,3.30728,0,0,1-.78125,2.44726,4.122,4.122,0,0,1-2.5332.93555Z"/><path class="bbb7be0e-8456-42bd-8489-e8da690e4f9a" d="M67.94644,15.52944v1.51269l-3.17969,8.041H62.94839L66.12808,16.923H61.01089V12.89467h1.64844v2.63477Z"/></g></g></svg>