<svg xmlns="http://www.w3.org/2000/svg" xmlns:xlink="http://www.w3.org/1999/xlink" viewBox="0 0 69.02149 41.18154"><defs><style>.a37d7b1a-fa1d-47a4-8c78-5a9f74a74b5a,.a5de0595-4a74-4c71-aefa-90acf4b55caf{fill:none;}.b2a75406-9a37-4b89-a2dd-e720114a54c1{isolation:isolate;}.bb59e656-b0d0-4f31-ae18-d7fe02ac9df6{fill:#eeb95b;}.bd493802-647e-417d-a534-9c47cee16b68{fill:#eaccca;}.a098f83b-38e1-4d37-b284-3c9ff89c1993,.b70b70ff-52e3-40ee-87ca-be3969fab3a9{fill:#a7a9ac;}.b70b70ff-52e3-40ee-87ca-be3969fab3a9{opacity:0.33;mix-blend-mode:multiply;}.b34bc79f-bacf-46b2-bbfd-7dd52ce9deb3{fill:#af2027;}.a9420cdd-a342-4217-9924-450a8ea0c2c4{fill:#ec2429;}.ad2aef15-3863-42c8-b727-5edf62655a9d,.b4aa2d2f-6dce-44f9-b2de-57941afbff85{fill:#e86978;}.e5cdf3ba-b48a-4dcc-9816-2ea5966d5a14{fill:#009ac4;}.a5de0595-4a74-4c71-aefa-90acf4b55caf{stroke:#009ac4;stroke-miterlimit:10;}.e9d574ad-e229-4562-b7d9-38aea5009e4c{clip-path:url(#aa9aa298-e65c-483c-98db-f27a0dd26966);}.aee65369-7563-4ae8-9b4d-bd328de1d3c1{fill:#eeddc4;}.a4eab227-d307-4af2-bef2-08b4a67abb35{fill:#9acfda;}.f0709b4e-7cd8-4b64-82aa-dc42e389fb25{clip-path:url(#b299a85c-e7b6-46b7-aa95-126f4331805c);}.e4c8bf60-4308-4e0e-889e-4cdec5413726{fill:#c3d7dc;}.ad2aef15-3863-42c8-b727-5edf62655a9d{opacity:0.8;mix-blend-mode:hard-light;}</style><clipPath id="aa9aa298-e65c-483c-98db-f27a0dd26966"><rect class="a37d7b1a-fa1d-47a4-8c78-5a9f74a74b5a" x="37.72786" y="295.83877" width="235.49085" height="29.6666"/></clipPath><clipPath id="b299a85c-e7b6-46b7-aa95-126f4331805c"><rect class="a37d7b1a-fa1d-47a4-8c78-5a9f74a74b5a" x="-232.3998" y="266.57515" width="235.49085" height="29.6666"/></clipPath></defs><title>Artboard 45</title><g class="b2a75406-9a37-4b89-a2dd-e720114a54c1"><g id="e94c41b3-da34-49d9-8ac4-b90ee5e38813" data-name="Layer 1"><path class="bb59e656-b0d0-4f31-ae18-d7fe02ac9df6" d="M62.2922,23.19381c0-9.93411-10.18573-17.98772-22.75043-17.98772H.01985l-.875,35.97545H39.54177C52.10647,41.18154,62.2922,33.12831,62.2922,23.19381Z"/><circle class="bd493802-647e-417d-a534-9c47cee16b68" cx="52.91266" cy="22.93295" r="3.76094"/><ellipse class="b70b70ff-52e3-40ee-87ca-be3969fab3a9" cx="57.88233" cy="26.32122" rx="2.94625" ry="6.86413" transform="translate(4.99778 61.62554) rotate(-58.17906)"/><polygon class="a098f83b-38e1-4d37-b284-3c9ff89c1993" points="58.488 15.927 52.487 22.721 56.595 14.64 58.488 15.927"/><ellipse class="b34bc79f-bacf-46b2-bbfd-7dd52ce9deb3" cx="58.79549" cy="12.85871" rx="4.95871" ry="6.17247" transform="translate(16.89565 56.06357) rotate(-58.21501)"/><path class="a9420cdd-a342-4217-9924-450a8ea0c2c4" d="M60.7309,14.13671a4.27705,4.27705,0,0,1-3.94129-2.44228l4.64021-7.48826L65.3711,6.64845Z"/><ellipse class="b4aa2d2f-6dce-44f9-b2de-57941afbff85" cx="64.19626" cy="4.20617" rx="4.00511" ry="4.98546" transform="translate(33.16662 60.5623) rotate(-64.91155)"/><path class="e5cdf3ba-b48a-4dcc-9816-2ea5966d5a14" d="M12.096,25.11858a1.23437,1.23437,0,0,0,.8584-.3418,1.4296,1.4296,0,0,0,.21973-.89062V19.58538h2.9707a1.85943,1.85943,0,0,1,1.375.49512A2.1339,2.1339,0,0,1,18.014,21.642v4.125H16.83719V21.58733a1.17725,1.17725,0,0,0-.25293-.8418.98668.98668,0,0,0-.73633-.25781H14.35184v3.2666a2.14442,2.14442,0,0,1-.50586,1.584,2.66673,2.66673,0,0,1-1.63965.60449Z"/><path class="e5cdf3ba-b48a-4dcc-9816-2ea5966d5a14" d="M22.08426,21.58733a1.17275,1.17275,0,0,0-.25293-.8418.98907.98907,0,0,0-.7373-.25781H19.05887v-.90234h2.332a1.8579,1.8579,0,0,1,1.375.49512A2.134,2.134,0,0,1,23.261,21.642v4.125H22.08426Z"/><path class="e5cdf3ba-b48a-4dcc-9816-2ea5966d5a14" d="M24.72391,20.87249l-.13184-1.28711h1.166l.14258,1.28711V25.767H24.72391Z"/><path class="e5cdf3ba-b48a-4dcc-9816-2ea5966d5a14" d="M27.012,24.86565h1.584a1.41244,1.41244,0,0,0,1.166-.47363,2.07025,2.07025,0,0,0,.38476-1.3418v-.748a2.07391,2.07391,0,0,0-.38476-1.3418,1.41772,1.41772,0,0,0-1.166-.47266H27.012v-.90234h1.87011a2.27109,2.27109,0,0,1,1.80957.72656,3.01348,3.01348,0,0,1,.63282,2.04492v.63867a3.01448,3.01448,0,0,1-.63282,2.0459,2.27364,2.27364,0,0,1-1.80957.72559H27.012Z"/><path class="e5cdf3ba-b48a-4dcc-9816-2ea5966d5a14" d="M33.12723,21.77483a2.20637,2.20637,0,0,1,.30859-1.28711H32.37918v-.90234h2.99219v.90234H34.514a1.6391,1.6391,0,0,0-.16992.56641,5.82607,5.82607,0,0,0-.03906.7207V25.767H33.12723Z"/><path class="e5cdf3ba-b48a-4dcc-9816-2ea5966d5a14" d="M36.10965,25.11858a1.23364,1.23364,0,0,0,.85742-.3418,1.42953,1.42953,0,0,0,.21973-.89062V19.58538h2.96973a1.85791,1.85791,0,0,1,1.375.49512,2.13413,2.13413,0,0,1,.49609,1.56152v4.125H40.84989V21.58733a1.1728,1.1728,0,0,0-.25293-.8418.9891.9891,0,0,0-.73731-.25781H38.36356v3.2666a2.13626,2.13626,0,0,1-.50586,1.584,2.65871,2.65871,0,0,1-1.63867.60449Z"/><line class="a5de0595-4a74-4c71-aefa-90acf4b55caf" x1="11.83131" y1="27.89735" x2="42.44634" y2="27.89735"/><g class="e9d574ad-e229-4562-b7d9-38aea5009e4c"><polygon class="aee65369-7563-4ae8-9b4d-bd328de1d3c1" points="240.461 325.505 37.723 325.505 37.849 22.417 46.762 15.87 67.593 -2.471 272.768 -2.471 273.219 299.606 240.461 325.505"/><path class="a4eab227-d307-4af2-bef2-08b4a67abb35" d="M67.59269-2.47089S36.8008,22.46674,36.8008,22.28626s26.99817,4.06389,33.85636,7.493C70.65716,29.77924,66.37536,6.5271,67.59269-2.47089Z"/></g><g class="f0709b4e-7cd8-4b64-82aa-dc42e389fb25"><polygon class="e4c8bf60-4308-4e0e-889e-4cdec5413726" points="-29.666 296.242 -232.405 296.242 -232.278 -6.847 -223.365 -13.393 -202.535 -31.735 2.64 -31.735 3.091 270.342 -29.666 296.242"/><rect class="ad2aef15-3863-42c8-b727-5edf62655a9d" x="-26.30182" y="-51.63563" width="25.95366" height="82.57981" transform="translate(3.41273 -12.45239) rotate(-45)"/></g></g></g></svg>