<?xml version="1.0" encoding="utf-8"?>
<!-- Generator: Adobe Illustrator 19.1.0, SVG Export Plug-In . SVG Version: 6.00 Build 0)  -->
<svg version="1.2" baseProfile="tiny" id="Layer_1" xmlns="http://www.w3.org/2000/svg" xmlns:xlink="http://www.w3.org/1999/xlink"
	 x="0px" y="0px" viewBox="0 0 305.6 22.5" xml:space="preserve">
<g id="XMLID_325_">
	<rect id="XMLID_337_" y="0" fill="#4D7582" width="233.8" height="15.9"/>
	<g id="XMLID_331_">
		<g>
			<path fill="#FFFFFF" d="M182.1,8.6l0.1-0.5h0.5v2.7h-0.6V8.6z M184.9,7.8c0-0.3-0.1-0.6-0.2-0.7c-0.1-0.2-0.4-0.2-0.6-0.2h-1.9
				V6.3h2c0.9,0,1.3,0.5,1.3,1.5v3h-0.6V7.8z"/>
			<path fill="#FFFFFF" d="M189.4,6.3v0.5l-1.5,3.9h-0.6l1.5-4h-2.5V5h0.6v1.3H189.4z"/>
			<path fill="#FFFFFF" d="M193.7,10.3v0.5h-1.2h-2.3v-0.5h2.3V7.8c0-0.3-0.1-0.6-0.2-0.7c-0.1-0.2-0.4-0.2-0.6-0.2h-1.4V6.3h1.6
				c0.9,0,1.3,0.5,1.3,1.5v2.5H193.7z"/>
			<path fill="#FFFFFF" d="M194.6,7.3l-0.1-0.9h0.6l0.1,0.9v3.5h-0.6V7.3z"/>
			<path fill="#FFFFFF" d="M196.3,8.6l0.1-0.5h0.5v2.7h-0.6V8.6z M199,7.8c0-0.3-0.1-0.6-0.2-0.7c-0.1-0.2-0.4-0.2-0.6-0.2h-1.9V6.3
				h2c0.9,0,1.3,0.5,1.3,1.5v3H199V7.8z"/>
			<path fill="#FFFFFF" d="M200.7,8.6l0.1-0.5h0.5v2.7h-0.6V8.6z M203.4,7.8c0-0.3-0.1-0.6-0.2-0.7c-0.1-0.2-0.4-0.2-0.6-0.2h-1.9
				V6.3h2c0.9,0,1.3,0.5,1.3,1.5v3h-0.6V7.8z"/>
			<path fill="#FFFFFF" d="M206.3,10.4c0.3,0,0.5-0.1,0.7-0.3c0.1-0.2,0.2-0.4,0.2-0.7V6.3h2c0.9,0,1.3,0.5,1.3,1.5v3h-0.6v-3
				c0-0.3-0.1-0.6-0.2-0.7c-0.1-0.2-0.4-0.2-0.6-0.2h-1.2v2.6c0,0.5-0.1,0.8-0.3,1.1c-0.2,0.2-0.6,0.4-1.1,0.4L206.3,10.4z"/>
			<path fill="#FFFFFF" d="M211.3,10.3h1.1c0.4,0,0.8-0.1,1-0.4c0.2-0.3,0.3-0.6,0.3-1.1V8.3c0-0.5-0.1-0.9-0.3-1.1
				c-0.2-0.3-0.5-0.4-1-0.4h-1.1V6.3h1.2c0.6,0,1,0.2,1.3,0.5c0.3,0.3,0.5,0.8,0.5,1.5v0.5c0,0.6-0.2,1.1-0.5,1.5
				c-0.3,0.3-0.8,0.5-1.3,0.5h-1.2V10.3z"/>
			<path fill="#FFFFFF" d="M217.4,7.8c0-0.3-0.1-0.6-0.2-0.7c-0.1-0.2-0.4-0.2-0.6-0.2h-1.4V6.3h1.6c0.9,0,1.3,0.5,1.3,1.5v3h-0.6
				V7.8z"/>
			<path fill="#FFFFFF" d="M222.4,6.3c0,1.1,0,1.9-0.1,2.5c-0.1,0.5-0.3,1-0.6,1.3c-0.3,0.3-0.8,0.5-1.5,0.7l-1.3,0.3l-0.1-0.5
				l1.4-0.3l-1-3.9h0.6l1,3.7c0.3-0.1,0.6-0.3,0.7-0.6c0.1-0.3,0.2-0.6,0.3-1.1c0-0.4,0.1-1.1,0.1-2.1H222.4z"/>
			<path fill="#FFFFFF" d="M226.7,10.3c-0.3,0.4-0.8,0.6-1.4,0.6c-0.2,0-0.4,0-0.7-0.1l0.1-0.5c0.2,0,0.4,0.1,0.5,0.1
				c0.4,0,0.8-0.2,1-0.5c0.2-0.3,0.3-0.8,0.3-1.4c0-1.2-0.4-1.7-1.1-1.7c-0.3,0-0.5,0.1-0.7,0.2c-0.2,0.2-0.3,0.4-0.4,0.6l-0.6,3.1
				h-0.6l0.6-3.1l-0.6-1.3h0.6l0.4,1c0.1-0.3,0.3-0.6,0.5-0.8c0.2-0.2,0.5-0.3,0.8-0.3c0.5,0,0.9,0.2,1.2,0.5
				c0.3,0.3,0.4,0.9,0.4,1.7C227.2,9.3,227.1,9.8,226.7,10.3z"/>
		</g>
		<g>
			<path fill="#FFFFFF" d="M182.1,8.6l0.1-0.5h0.5v2.7h-0.6V8.6z M184.9,7.8c0-0.3-0.1-0.6-0.2-0.7c-0.1-0.2-0.4-0.2-0.6-0.2h-1.9
				V6.3h2c0.9,0,1.3,0.5,1.3,1.5v3h-0.6V7.8z"/>
			<path fill="#FFFFFF" d="M189.4,6.3v0.5l-1.5,3.9h-0.6l1.5-4h-2.5V5h0.6v1.3H189.4z"/>
			<path fill="#FFFFFF" d="M193.7,10.3v0.5h-1.2h-2.3v-0.5h2.3V7.8c0-0.3-0.1-0.6-0.2-0.7c-0.1-0.2-0.4-0.2-0.6-0.2h-1.4V6.3h1.6
				c0.9,0,1.3,0.5,1.3,1.5v2.5H193.7z"/>
			<path fill="#FFFFFF" d="M194.6,7.3l-0.1-0.9h0.6l0.1,0.9v3.5h-0.6V7.3z"/>
			<path fill="#FFFFFF" d="M196.3,8.6l0.1-0.5h0.5v2.7h-0.6V8.6z M199,7.8c0-0.3-0.1-0.6-0.2-0.7c-0.1-0.2-0.4-0.2-0.6-0.2h-1.9V6.3
				h2c0.9,0,1.3,0.5,1.3,1.5v3H199V7.8z"/>
			<path fill="#FFFFFF" d="M200.7,8.6l0.1-0.5h0.5v2.7h-0.6V8.6z M203.4,7.8c0-0.3-0.1-0.6-0.2-0.7c-0.1-0.2-0.4-0.2-0.6-0.2h-1.9
				V6.3h2c0.9,0,1.3,0.5,1.3,1.5v3h-0.6V7.8z"/>
			<path fill="#FFFFFF" d="M206.3,10.4c0.3,0,0.5-0.1,0.7-0.3c0.1-0.2,0.2-0.4,0.2-0.7V6.3h2c0.9,0,1.3,0.5,1.3,1.5v3h-0.6v-3
				c0-0.3-0.1-0.6-0.2-0.7c-0.1-0.2-0.4-0.2-0.6-0.2h-1.2v2.6c0,0.5-0.1,0.8-0.3,1.1c-0.2,0.2-0.6,0.4-1.1,0.4L206.3,10.4z"/>
			<path fill="#FFFFFF" d="M211.3,10.3h1.1c0.4,0,0.8-0.1,1-0.4c0.2-0.3,0.3-0.6,0.3-1.1V8.3c0-0.5-0.1-0.9-0.3-1.1
				c-0.2-0.3-0.5-0.4-1-0.4h-1.1V6.3h1.2c0.6,0,1,0.2,1.3,0.5c0.3,0.3,0.5,0.8,0.5,1.5v0.5c0,0.6-0.2,1.1-0.5,1.5
				c-0.3,0.3-0.8,0.5-1.3,0.5h-1.2V10.3z"/>
			<path fill="#FFFFFF" d="M217.4,7.8c0-0.3-0.1-0.6-0.2-0.7c-0.1-0.2-0.4-0.2-0.6-0.2h-1.4V6.3h1.6c0.9,0,1.3,0.5,1.3,1.5v3h-0.6
				V7.8z"/>
			<path fill="#FFFFFF" d="M222.4,6.3c0,1.1,0,1.9-0.1,2.5c-0.1,0.5-0.3,1-0.6,1.3c-0.3,0.3-0.8,0.5-1.5,0.7l-1.3,0.3l-0.1-0.5
				l1.4-0.3l-1-3.9h0.6l1,3.7c0.3-0.1,0.6-0.3,0.7-0.6c0.1-0.3,0.2-0.6,0.3-1.1c0-0.4,0.1-1.1,0.1-2.1H222.4z"/>
			<path fill="#FFFFFF" d="M226.7,10.3c-0.3,0.4-0.8,0.6-1.4,0.6c-0.2,0-0.4,0-0.7-0.1l0.1-0.5c0.2,0,0.4,0.1,0.5,0.1
				c0.4,0,0.8-0.2,1-0.5c0.2-0.3,0.3-0.8,0.3-1.4c0-1.2-0.4-1.7-1.1-1.7c-0.3,0-0.5,0.1-0.7,0.2c-0.2,0.2-0.3,0.4-0.4,0.6l-0.6,3.1
				h-0.6l0.6-3.1l-0.6-1.3h0.6l0.4,1c0.1-0.3,0.3-0.6,0.5-0.8c0.2-0.2,0.5-0.3,0.8-0.3c0.5,0,0.9,0.2,1.2,0.5
				c0.3,0.3,0.4,0.9,0.4,1.7C227.2,9.3,227.1,9.8,226.7,10.3z"/>
		</g>
		<g>
			<path fill="#FFFFFF" d="M182.1,8.6l0.1-0.5h0.5v2.7h-0.6V8.6z M184.9,7.8c0-0.3-0.1-0.6-0.2-0.7c-0.1-0.2-0.4-0.2-0.6-0.2h-1.9
				V6.3h2c0.9,0,1.3,0.5,1.3,1.5v3h-0.6V7.8z"/>
			<path fill="#FFFFFF" d="M189.4,6.3v0.5l-1.5,3.9h-0.6l1.5-4h-2.5V5h0.6v1.3H189.4z"/>
			<path fill="#FFFFFF" d="M193.7,10.3v0.5h-1.2h-2.3v-0.5h2.3V7.8c0-0.3-0.1-0.6-0.2-0.7c-0.1-0.2-0.4-0.2-0.6-0.2h-1.4V6.3h1.6
				c0.9,0,1.3,0.5,1.3,1.5v2.5H193.7z"/>
			<path fill="#FFFFFF" d="M194.6,7.3l-0.1-0.9h0.6l0.1,0.9v3.5h-0.6V7.3z"/>
			<path fill="#FFFFFF" d="M196.3,8.6l0.1-0.5h0.5v2.7h-0.6V8.6z M199,7.8c0-0.3-0.1-0.6-0.2-0.7c-0.1-0.2-0.4-0.2-0.6-0.2h-1.9V6.3
				h2c0.9,0,1.3,0.5,1.3,1.5v3H199V7.8z"/>
			<path fill="#FFFFFF" d="M200.7,8.6l0.1-0.5h0.5v2.7h-0.6V8.6z M203.4,7.8c0-0.3-0.1-0.6-0.2-0.7c-0.1-0.2-0.4-0.2-0.6-0.2h-1.9
				V6.3h2c0.9,0,1.3,0.5,1.3,1.5v3h-0.6V7.8z"/>
			<path fill="#FFFFFF" d="M206.3,10.4c0.3,0,0.5-0.1,0.7-0.3c0.1-0.2,0.2-0.4,0.2-0.7V6.3h2c0.9,0,1.3,0.5,1.3,1.5v3h-0.6v-3
				c0-0.3-0.1-0.6-0.2-0.7c-0.1-0.2-0.4-0.2-0.6-0.2h-1.2v2.6c0,0.5-0.1,0.8-0.3,1.1c-0.2,0.2-0.6,0.4-1.1,0.4L206.3,10.4z"/>
			<path fill="#FFFFFF" d="M211.3,10.3h1.1c0.4,0,0.8-0.1,1-0.4c0.2-0.3,0.3-0.6,0.3-1.1V8.3c0-0.5-0.1-0.9-0.3-1.1
				c-0.2-0.3-0.5-0.4-1-0.4h-1.1V6.3h1.2c0.6,0,1,0.2,1.3,0.5c0.3,0.3,0.5,0.8,0.5,1.5v0.5c0,0.6-0.2,1.1-0.5,1.5
				c-0.3,0.3-0.8,0.5-1.3,0.5h-1.2V10.3z"/>
			<path fill="#FFFFFF" d="M217.4,7.8c0-0.3-0.1-0.6-0.2-0.7c-0.1-0.2-0.4-0.2-0.6-0.2h-1.4V6.3h1.6c0.9,0,1.3,0.5,1.3,1.5v3h-0.6
				V7.8z"/>
			<path fill="#FFFFFF" d="M222.4,6.3c0,1.1,0,1.9-0.1,2.5c-0.1,0.5-0.3,1-0.6,1.3c-0.3,0.3-0.8,0.5-1.5,0.7l-1.3,0.3l-0.1-0.5
				l1.4-0.3l-1-3.9h0.6l1,3.7c0.3-0.1,0.6-0.3,0.7-0.6c0.1-0.3,0.2-0.6,0.3-1.1c0-0.4,0.1-1.1,0.1-2.1H222.4z"/>
			<path fill="#FFFFFF" d="M226.7,10.3c-0.3,0.4-0.8,0.6-1.4,0.6c-0.2,0-0.4,0-0.7-0.1l0.1-0.5c0.2,0,0.4,0.1,0.5,0.1
				c0.4,0,0.8-0.2,1-0.5c0.2-0.3,0.3-0.8,0.3-1.4c0-1.2-0.4-1.7-1.1-1.7c-0.3,0-0.5,0.1-0.7,0.2c-0.2,0.2-0.3,0.4-0.4,0.6l-0.6,3.1
				h-0.6l0.6-3.1l-0.6-1.3h0.6l0.4,1c0.1-0.3,0.3-0.6,0.5-0.8c0.2-0.2,0.5-0.3,0.8-0.3c0.5,0,0.9,0.2,1.2,0.5
				c0.3,0.3,0.4,0.9,0.4,1.7C227.2,9.3,227.1,9.8,226.7,10.3z"/>
		</g>
		<g id="XMLID_332_">
			<path fill="#FFFFFF" d="M182.1,8.6l0.1-0.5h0.5v2.7h-0.6V8.6z M184.9,7.8c0-0.3-0.1-0.6-0.2-0.7c-0.1-0.2-0.4-0.2-0.6-0.2h-1.9
				V6.3h2c0.9,0,1.3,0.5,1.3,1.5v3h-0.6V7.8z"/>
			<path fill="#FFFFFF" d="M189.4,6.3v0.5l-1.5,3.9h-0.6l1.5-4h-2.5V5h0.6v1.3H189.4z"/>
			<path fill="#FFFFFF" d="M193.7,10.3v0.5h-1.2h-2.3v-0.5h2.3V7.8c0-0.3-0.1-0.6-0.2-0.7c-0.1-0.2-0.4-0.2-0.6-0.2h-1.4V6.3h1.6
				c0.9,0,1.3,0.5,1.3,1.5v2.5H193.7z"/>
			<path fill="#FFFFFF" d="M194.6,7.3l-0.1-0.9h0.6l0.1,0.9v3.5h-0.6V7.3z"/>
			<path fill="#FFFFFF" d="M196.3,8.6l0.1-0.5h0.5v2.7h-0.6V8.6z M199,7.8c0-0.3-0.1-0.6-0.2-0.7c-0.1-0.2-0.4-0.2-0.6-0.2h-1.9V6.3
				h2c0.9,0,1.3,0.5,1.3,1.5v3H199V7.8z"/>
			<path fill="#FFFFFF" d="M200.7,8.6l0.1-0.5h0.5v2.7h-0.6V8.6z M203.4,7.8c0-0.3-0.1-0.6-0.2-0.7c-0.1-0.2-0.4-0.2-0.6-0.2h-1.9
				V6.3h2c0.9,0,1.3,0.5,1.3,1.5v3h-0.6V7.8z"/>
			<path fill="#FFFFFF" d="M206.3,10.4c0.3,0,0.5-0.1,0.7-0.3c0.1-0.2,0.2-0.4,0.2-0.7V6.3h2c0.9,0,1.3,0.5,1.3,1.5v3h-0.6v-3
				c0-0.3-0.1-0.6-0.2-0.7c-0.1-0.2-0.4-0.2-0.6-0.2h-1.2v2.6c0,0.5-0.1,0.8-0.3,1.1c-0.2,0.2-0.6,0.4-1.1,0.4L206.3,10.4z"/>
			<path fill="#FFFFFF" d="M211.3,10.3h1.1c0.4,0,0.8-0.1,1-0.4c0.2-0.3,0.3-0.6,0.3-1.1V8.3c0-0.5-0.1-0.9-0.3-1.1
				c-0.2-0.3-0.5-0.4-1-0.4h-1.1V6.3h1.2c0.6,0,1,0.2,1.3,0.5c0.3,0.3,0.5,0.8,0.5,1.5v0.5c0,0.6-0.2,1.1-0.5,1.5
				c-0.3,0.3-0.8,0.5-1.3,0.5h-1.2V10.3z"/>
			<path fill="#FFFFFF" d="M217.4,7.8c0-0.3-0.1-0.6-0.2-0.7c-0.1-0.2-0.4-0.2-0.6-0.2h-1.4V6.3h1.6c0.9,0,1.3,0.5,1.3,1.5v3h-0.6
				V7.8z"/>
			<path fill="#FFFFFF" d="M222.4,6.3c0,1.1,0,1.9-0.1,2.5c-0.1,0.5-0.3,1-0.6,1.3c-0.3,0.3-0.8,0.5-1.5,0.7l-1.3,0.3l-0.1-0.5
				l1.4-0.3l-1-3.9h0.6l1,3.7c0.3-0.1,0.6-0.3,0.7-0.6c0.1-0.3,0.2-0.6,0.3-1.1c0-0.4,0.1-1.1,0.1-2.1H222.4z"/>
			<path fill="#FFFFFF" d="M226.7,10.3c-0.3,0.4-0.8,0.6-1.4,0.6c-0.2,0-0.4,0-0.7-0.1l0.1-0.5c0.2,0,0.4,0.1,0.5,0.1
				c0.4,0,0.8-0.2,1-0.5c0.2-0.3,0.3-0.8,0.3-1.4c0-1.2-0.4-1.7-1.1-1.7c-0.3,0-0.5,0.1-0.7,0.2c-0.2,0.2-0.3,0.4-0.4,0.6l-0.6,3.1
				h-0.6l0.6-3.1l-0.6-1.3h0.6l0.4,1c0.1-0.3,0.3-0.6,0.5-0.8c0.2-0.2,0.5-0.3,0.8-0.3c0.5,0,0.9,0.2,1.2,0.5
				c0.3,0.3,0.4,0.9,0.4,1.7C227.2,9.3,227.1,9.8,226.7,10.3z"/>
		</g>
	</g>
	<g id="XMLID_326_">
		<rect id="XMLID_330_" y="15.9" fill="#FFFFFF" width="233.3" height="6.7"/>
		<path fill="#EF5B5B" d="M194.6,15.9c-1.8,0-3.3,1.5-3.3,3.3c0,1.8,1.5,3.3,3.3,3.3h39.2v-6.7H194.6z"/>
	</g>
</g>
</svg>
