<svg id="b5aea268-9f8a-4b50-ab55-93e18fc99516" data-name="Layer 1" xmlns="http://www.w3.org/2000/svg" viewBox="0 0 94.08074 46.17997"><title>Artboard 225</title><rect x="310.67319" y="-628.9327" width="233.75906" height="493.74709" fill="none" stroke="#bcbec0" stroke-miterlimit="10"/><path d="M8.46477,13.27776a5.83688,5.83688,0,1,0,6.551,5.81493,3.58353,3.58353,0,0,0-.07361-.88328A27.00321,27.00321,0,0,1,8.46477,13.27776Z" fill="#fff"/><path d="M6.47739,11.06956a8.46872,8.46872,0,1,0,11.18822,8.244C11.11461,17.17892,6.47739,11.06956,6.47739,11.06956Z" fill="none" stroke="#fff" stroke-miterlimit="10" stroke-width="1.47213"/><path d="M35.40483,13.27776a5.80239,5.80239,0,1,1-6.551,5.74133,3.58345,3.58345,0,0,1,.07361-.88328A26.49792,26.49792,0,0,0,35.40483,13.27776Z" fill="#fff"/><path d="M37.39221,11.06956a8.46872,8.46872,0,1,1-11.18822,8.244C32.755,17.17892,37.39221,11.06956,37.39221,11.06956Z" fill="none" stroke="#fff" stroke-miterlimit="10" stroke-width="1.47213"/><path d="M6.47739,11.06956S13.1756,19.976,21.9348,19.976c7.43428,0,11.77708-5.29968,22.15563-15.97266" fill="none" stroke="#fff" stroke-miterlimit="10" stroke-width="1.47213"/><path d="M21.78759,14.38186a4.10386,4.10386,0,0,0-4.122,4.26919,1.92408,1.92408,0,0,0,.22082.58885,10.78025,10.78025,0,0,0,4.122.66247,15.20217,15.20217,0,0,0,4.19558-.58886,2.03776,2.03776,0,0,0,.07361-.66246A4.46655,4.46655,0,0,0,21.78759,14.38186Z" fill="none" stroke="#fff" stroke-miterlimit="10" stroke-width="1.47213"/><path d="M13.61724,13.27776s7.6551-7.7287,16.63512,0" fill="none" stroke="#fff" stroke-miterlimit="10" stroke-width="1.47213"/><path d="M10.673,10.11267s10.59937-10.30494,22.52366,0" fill="none" stroke="#fff" stroke-miterlimit="10" stroke-width="1.63679"/><path d="M7.6551,7.31562s13.83806-13.17561,28.265,0" fill="none" stroke="#fff" stroke-miterlimit="10" stroke-width="1.7405"/><polygon points="19.727 23.877 24.29 23.877 21.935 27.557 19.727 23.877" fill="#fff"/><path d="M42.47108,3.41446l2.87066-.88328-.58885,2.94427C44.75289,5.54906,44.09043,3.63528,42.47108,3.41446Z" fill="#fff"/><path d="M3.09148,41.46914a1.09133,1.09133,0,0,1,.07361.51524v2.72345H2.64984V41.98438q0-.88327-1.1041-.88328H.29443v-.44164c.44164,0,.88328-.0736,1.32492-.0736a3.26664,3.26664,0,0,1,.95688.14721A1.12827,1.12827,0,0,1,3.09148,41.46914ZM.80967,44.70783H.29443V42.2052H.80967Z" fill="#fff"/><path d="M4.858,40.73307c.14722,0,.29443-.07361.51525-.07361a.79693.79693,0,0,1,.44164.07361c.14721.0736.29443.0736.368.14721s.22082.14722.29443.22082.14721.22082.22082.29443.07361.22082.14721.29443a1.62062,1.62062,0,0,1,.07361.58885v1.0305a3.188,3.188,0,0,1-.07361.368,1.24338,1.24338,0,0,1-.14721.368.57468.57468,0,0,1-.29443.29443,1.6085,1.6085,0,0,1-.368.22082,1.25256,1.25256,0,0,1-.51525.07361H5.00526c-.14722,0-.22082-.07361-.29443-.07361H4.63722V44.119a3.69452,3.69452,0,0,0,.88328.14722.66357.66357,0,0,0,.368-.07361c.07361,0,.22082-.07361.22082-.14721.07361-.07361.14721-.14722.14721-.22082.07361-.07361.07361-.14722.14721-.22082a.27041.27041,0,0,0,.07361-.22082,3.18784,3.18784,0,0,1,.07361-.368V42.426a1.82743,1.82743,0,0,0-.07361-.66246c0-.07361-.07361-.14722-.14721-.22082s-.07361-.14721-.14721-.22082-.14722-.07361-.29443-.14721a1.62066,1.62066,0,0,0-.58886-.07362.93357.93357,0,0,0-.44164.07361c-.14721,0-.22082.0736-.29442.0736L4.49,41.32192v-.44164a.07209.07209,0,0,0,.07361-.07361A.76137.76137,0,0,1,4.858,40.73307Z" fill="#fff"/><path d="M7.87592,40.73307H8.612a1.435,1.435,0,0,1,.58885.0736,1.04615,1.04615,0,0,1,.44164.14722,1.01609,1.01609,0,0,1,.29443.22082,1.10693,1.10693,0,0,1,.29442.80967v2.72345H9.71609V41.98438c0-.51525-.368-.80967-1.1041-.80967H7.87592Z" fill="#fff"/><path d="M14.35331,40.73307v.368a.86587.86587,0,0,0-.66246.88328v2.72345H13.1756V41.98438a.66354.66354,0,0,1,.07361-.368c0-.07361.07361-.14721.07361-.22082q.1104-.22082.22082-.22082h-2.061v-.368h2.87066Z" fill="#fff"/><path d="M18.40168,41.46914a1.09133,1.09133,0,0,1,.07361.51524v2.72345H17.96V41.98438c0-.51524-.368-.80967-1.1041-.80967H15.60463v-.44164c.44164,0,.88328-.0736,1.32492-.0736a3.26664,3.26664,0,0,1,.95688.14721A.975.975,0,0,1,18.40168,41.46914Zm-2.28181,3.23869h-.51525V42.2052h.51525Z" fill="#fff"/><path d="M22.89169,41.46914a1.09133,1.09133,0,0,1,.07361.51524v2.72345h-.51525V41.98438c0-.51524-.368-.80967-1.1041-.80967H20.09463v-.44164c.44164,0,.88329-.0736,1.32492-.0736a3.26666,3.26666,0,0,1,.95689.14721C22.59726,40.88029,22.74448,41.17471,22.89169,41.46914Zm-2.35542,3.23869H20.021V42.2052h.51524Z" fill="#fff"/><path d="M28.33859,44.70783a.44258.44258,0,0,1-.29443-.0736v-.44164H28.265c.29443,0,.44164-.14722.44164-.51525V41.1011l-.44164.07361v-.44164a10.89478,10.89478,0,0,1,1.47213-.0736,2.74525,2.74525,0,0,1,.88329.14721.82416.82416,0,0,1,.51524.58885,1.09139,1.09139,0,0,1,.07361.51525v2.72345H30.694V41.91078c0-.51525-.368-.80967-1.1041-.80967h-.51525v2.57623a1.09889,1.09889,0,0,1-.22082.73607C28.92744,44.63422,28.633,44.70783,28.33859,44.70783Z" fill="#fff"/><path d="M32.9022,43.38291V40.80667h.51525v2.061l-.368.51525Z" fill="#fff"/><path d="M34.88959,43.38291V40.80667h.51524v2.061l-.368.51525Z" fill="#fff"/><path d="M36.58254,40.73307h.73607a1.435,1.435,0,0,1,.58885.0736,1.04615,1.04615,0,0,1,.44164.14722,1.01623,1.01623,0,0,1,.29443.22082,1.10693,1.10693,0,0,1,.29442.80967v2.72345h-.51524V41.98438c0-.51525-.368-.80967-1.1041-.80967h-.73607Z" fill="#fff"/><path d="M42.54469,44.56062v.0736h-.51525v-.0736a1.82943,1.82943,0,0,1,.0736-.58886,2.99971,2.99971,0,0,0,.14722-.51524c.0736-.22082.14721-.51525.22082-.80968l.44164-1.47213h-2.429v-.368h2.87066v.29442l-.44164,1.54574c-.07361.22082-.07361.368-.14721.44164,0,.14721-.07361.22082-.07361.368s-.07361.22082-.07361.29443-.0736.22082-.0736.29443ZM41.07255,46.18H40.5573V42.35242h.51525Z" fill="#fff"/><path d="M3.09148,41.46914a1.09133,1.09133,0,0,1,.07361.51524v2.72345H2.64984V41.98438q0-.88327-1.1041-.88328H.29443v-.44164c.44164,0,.88328-.0736,1.32492-.0736a3.26664,3.26664,0,0,1,.95688.14721A1.12827,1.12827,0,0,1,3.09148,41.46914ZM.80967,44.70783H.29443V42.2052H.80967Z" fill="#fff"/><path d="M4.858,40.73307c.14722,0,.29443-.07361.51525-.07361a.79693.79693,0,0,1,.44164.07361c.14721.0736.29443.0736.368.14721s.22082.14722.29443.22082.14721.22082.22082.29443.07361.22082.14721.29443a1.62062,1.62062,0,0,1,.07361.58885v1.0305a3.188,3.188,0,0,1-.07361.368,1.24338,1.24338,0,0,1-.14721.368.57468.57468,0,0,1-.29443.29443,1.6085,1.6085,0,0,1-.368.22082,1.25256,1.25256,0,0,1-.51525.07361H5.00526c-.14722,0-.22082-.07361-.29443-.07361H4.63722V44.119a3.69452,3.69452,0,0,0,.88328.14722.66357.66357,0,0,0,.368-.07361c.07361,0,.22082-.07361.22082-.14721.07361-.07361.14721-.14722.14721-.22082.07361-.07361.07361-.14722.14721-.22082a.27041.27041,0,0,0,.07361-.22082,3.18784,3.18784,0,0,1,.07361-.368V42.426a1.82743,1.82743,0,0,0-.07361-.66246c0-.07361-.07361-.14722-.14721-.22082s-.07361-.14721-.14721-.22082-.14722-.07361-.29443-.14721a1.62066,1.62066,0,0,0-.58886-.07362.93357.93357,0,0,0-.44164.07361c-.14721,0-.22082.0736-.29442.0736L4.49,41.32192v-.44164a.07209.07209,0,0,0,.07361-.07361A.76137.76137,0,0,1,4.858,40.73307Z" fill="#fff"/><path d="M7.87592,40.73307H8.612a1.435,1.435,0,0,1,.58885.0736,1.04615,1.04615,0,0,1,.44164.14722,1.01609,1.01609,0,0,1,.29443.22082,1.10693,1.10693,0,0,1,.29442.80967v2.72345H9.71609V41.98438c0-.51525-.368-.80967-1.1041-.80967H7.87592Z" fill="#fff"/><path d="M14.35331,40.73307v.368a.86587.86587,0,0,0-.66246.88328v2.72345H13.1756V41.98438a.66354.66354,0,0,1,.07361-.368c0-.07361.07361-.14721.07361-.22082q.1104-.22082.22082-.22082h-2.061v-.368h2.87066Z" fill="#fff"/><path d="M18.40168,41.46914a1.09133,1.09133,0,0,1,.07361.51524v2.72345H17.96V41.98438c0-.51524-.368-.80967-1.1041-.80967H15.60463v-.44164c.44164,0,.88328-.0736,1.32492-.0736a3.26664,3.26664,0,0,1,.95688.14721A.975.975,0,0,1,18.40168,41.46914Zm-2.28181,3.23869h-.51525V42.2052h.51525Z" fill="#fff"/><path d="M22.89169,41.46914a1.09133,1.09133,0,0,1,.07361.51524v2.72345h-.51525V41.98438c0-.51524-.368-.80967-1.1041-.80967H20.09463v-.44164c.44164,0,.88329-.0736,1.32492-.0736a3.26666,3.26666,0,0,1,.95689.14721C22.59726,40.88029,22.74448,41.17471,22.89169,41.46914Zm-2.35542,3.23869H20.021V42.2052h.51524Z" fill="#fff"/><path d="M28.33859,44.70783a.44258.44258,0,0,1-.29443-.0736v-.44164H28.265c.29443,0,.44164-.14722.44164-.51525V41.1011l-.44164.07361v-.44164a10.89478,10.89478,0,0,1,1.47213-.0736,2.74525,2.74525,0,0,1,.88329.14721.82416.82416,0,0,1,.51524.58885,1.09139,1.09139,0,0,1,.07361.51525v2.72345H30.694V41.91078c0-.51525-.368-.80967-1.1041-.80967h-.51525v2.57623a1.09889,1.09889,0,0,1-.22082.73607C28.92744,44.63422,28.633,44.70783,28.33859,44.70783Z" fill="#fff"/><path d="M32.9022,43.38291V40.80667h.51525v2.061l-.368.51525Z" fill="#fff"/><path d="M34.88959,43.38291V40.80667h.51524v2.061l-.368.51525Z" fill="#fff"/><path d="M36.58254,40.73307h.73607a1.435,1.435,0,0,1,.58885.0736,1.04615,1.04615,0,0,1,.44164.14722,1.01623,1.01623,0,0,1,.29443.22082,1.10693,1.10693,0,0,1,.29442.80967v2.72345h-.51524V41.98438c0-.51525-.368-.80967-1.1041-.80967h-.73607Z" fill="#fff"/><path d="M42.54469,44.56062v.0736h-.51525v-.0736a1.82943,1.82943,0,0,1,.0736-.58886,2.99971,2.99971,0,0,0,.14722-.51524c.0736-.22082.14721-.51525.22082-.80968l.44164-1.47213h-2.429v-.368h2.87066v.29442l-.44164,1.54574c-.07361.22082-.07361.368-.14721.44164,0,.14721-.07361.22082-.07361.368s-.07361.22082-.07361.29443-.0736.22082-.0736.29443ZM41.07255,46.18H40.5573V42.35242h.51525Z" fill="#fff"/><path d="M3.09148,41.46914a1.09133,1.09133,0,0,1,.07361.51524v2.72345H2.64984V41.98438q0-.88327-1.1041-.88328H.29443v-.44164c.44164,0,.88328-.0736,1.32492-.0736a3.26664,3.26664,0,0,1,.95688.14721A1.12827,1.12827,0,0,1,3.09148,41.46914ZM.80967,44.70783H.29443V42.2052H.80967Z" fill="#fff"/><path d="M4.858,40.73307c.14722,0,.29443-.07361.51525-.07361a.79693.79693,0,0,1,.44164.07361c.14721.0736.29443.0736.368.14721s.22082.14722.29443.22082.14721.22082.22082.29443.07361.22082.14721.29443a1.62062,1.62062,0,0,1,.07361.58885v1.0305a3.188,3.188,0,0,1-.07361.368,1.24338,1.24338,0,0,1-.14721.368.57468.57468,0,0,1-.29443.29443,1.6085,1.6085,0,0,1-.368.22082,1.25256,1.25256,0,0,1-.51525.07361H5.00526c-.14722,0-.22082-.07361-.29443-.07361H4.63722V44.119a3.69452,3.69452,0,0,0,.88328.14722.66357.66357,0,0,0,.368-.07361c.07361,0,.22082-.07361.22082-.14721.07361-.07361.14721-.14722.14721-.22082.07361-.07361.07361-.14722.14721-.22082a.27041.27041,0,0,0,.07361-.22082,3.18784,3.18784,0,0,1,.07361-.368V42.426a1.82743,1.82743,0,0,0-.07361-.66246c0-.07361-.07361-.14722-.14721-.22082s-.07361-.14721-.14721-.22082-.14722-.07361-.29443-.14721a1.62066,1.62066,0,0,0-.58886-.07362.93357.93357,0,0,0-.44164.07361c-.14721,0-.22082.0736-.29442.0736L4.49,41.32192v-.44164a.07209.07209,0,0,0,.07361-.07361A.76137.76137,0,0,1,4.858,40.73307Z" fill="#fff"/><path d="M7.87592,40.73307H8.612a1.435,1.435,0,0,1,.58885.0736,1.04615,1.04615,0,0,1,.44164.14722,1.01609,1.01609,0,0,1,.29443.22082,1.10693,1.10693,0,0,1,.29442.80967v2.72345H9.71609V41.98438c0-.51525-.368-.80967-1.1041-.80967H7.87592Z" fill="#fff"/><path d="M14.35331,40.73307v.368a.86587.86587,0,0,0-.66246.88328v2.72345H13.1756V41.98438a.66354.66354,0,0,1,.07361-.368c0-.07361.07361-.14721.07361-.22082q.1104-.22082.22082-.22082h-2.061v-.368h2.87066Z" fill="#fff"/><path d="M18.40168,41.46914a1.09133,1.09133,0,0,1,.07361.51524v2.72345H17.96V41.98438c0-.51524-.368-.80967-1.1041-.80967H15.60463v-.44164c.44164,0,.88328-.0736,1.32492-.0736a3.26664,3.26664,0,0,1,.95688.14721A.975.975,0,0,1,18.40168,41.46914Zm-2.28181,3.23869h-.51525V42.2052h.51525Z" fill="#fff"/><path d="M22.89169,41.46914a1.09133,1.09133,0,0,1,.07361.51524v2.72345h-.51525V41.98438c0-.51524-.368-.80967-1.1041-.80967H20.09463v-.44164c.44164,0,.88329-.0736,1.32492-.0736a3.26666,3.26666,0,0,1,.95689.14721C22.59726,40.88029,22.74448,41.17471,22.89169,41.46914Zm-2.35542,3.23869H20.021V42.2052h.51524Z" fill="#fff"/><path d="M28.33859,44.70783a.44258.44258,0,0,1-.29443-.0736v-.44164H28.265c.29443,0,.44164-.14722.44164-.51525V41.1011l-.44164.07361v-.44164a10.89478,10.89478,0,0,1,1.47213-.0736,2.74525,2.74525,0,0,1,.88329.14721.82416.82416,0,0,1,.51524.58885,1.09139,1.09139,0,0,1,.07361.51525v2.72345H30.694V41.91078c0-.51525-.368-.80967-1.1041-.80967h-.51525v2.57623a1.09889,1.09889,0,0,1-.22082.73607C28.92744,44.63422,28.633,44.70783,28.33859,44.70783Z" fill="#fff"/><path d="M32.9022,43.38291V40.80667h.51525v2.061l-.368.51525Z" fill="#fff"/><path d="M34.88959,43.38291V40.80667h.51524v2.061l-.368.51525Z" fill="#fff"/><path d="M36.58254,40.73307h.73607a1.435,1.435,0,0,1,.58885.0736,1.04615,1.04615,0,0,1,.44164.14722,1.01623,1.01623,0,0,1,.29443.22082,1.10693,1.10693,0,0,1,.29442.80967v2.72345h-.51524V41.98438c0-.51525-.368-.80967-1.1041-.80967h-.73607Z" fill="#fff"/><path d="M42.54469,44.56062v.0736h-.51525v-.0736a1.82943,1.82943,0,0,1,.0736-.58886,2.99971,2.99971,0,0,0,.14722-.51524c.0736-.22082.14721-.51525.22082-.80968l.44164-1.47213h-2.429v-.368h2.87066v.29442l-.44164,1.54574c-.07361.22082-.07361.368-.14721.44164,0,.14721-.07361.22082-.07361.368s-.07361.22082-.07361.29443-.0736.22082-.0736.29443ZM41.07255,46.18H40.5573V42.35242h.51525Z" fill="#fff"/><path d="M3.09148,41.46914a1.09133,1.09133,0,0,1,.07361.51524v2.72345H2.64984V41.98438q0-.88327-1.1041-.88328H.29443v-.44164c.44164,0,.88328-.0736,1.32492-.0736a3.26664,3.26664,0,0,1,.95688.14721A1.12827,1.12827,0,0,1,3.09148,41.46914ZM.80967,44.70783H.29443V42.2052H.80967Z" fill="#fff"/><path d="M4.858,40.73307c.14722,0,.29443-.07361.51525-.07361a.79693.79693,0,0,1,.44164.07361c.14721.0736.29443.0736.368.14721s.22082.14722.29443.22082.14721.22082.22082.29443.07361.22082.14721.29443a1.62062,1.62062,0,0,1,.07361.58885v1.0305a3.188,3.188,0,0,1-.07361.368,1.24338,1.24338,0,0,1-.14721.368.57468.57468,0,0,1-.29443.29443,1.6085,1.6085,0,0,1-.368.22082,1.25256,1.25256,0,0,1-.51525.07361H5.00526c-.14722,0-.22082-.07361-.29443-.07361H4.63722V44.119a3.69452,3.69452,0,0,0,.88328.14722.66357.66357,0,0,0,.368-.07361c.07361,0,.22082-.07361.22082-.14721.07361-.07361.14721-.14722.14721-.22082.07361-.07361.07361-.14722.14721-.22082a.27041.27041,0,0,0,.07361-.22082,3.18784,3.18784,0,0,1,.07361-.368V42.426a1.82743,1.82743,0,0,0-.07361-.66246c0-.07361-.07361-.14722-.14721-.22082s-.07361-.14721-.14721-.22082-.14722-.07361-.29443-.14721a1.62066,1.62066,0,0,0-.58886-.07362.93357.93357,0,0,0-.44164.07361c-.14721,0-.22082.0736-.29442.0736L4.49,41.32192v-.44164a.07209.07209,0,0,0,.07361-.07361A.76137.76137,0,0,1,4.858,40.73307Z" fill="#fff"/><path d="M7.87592,40.73307H8.612a1.435,1.435,0,0,1,.58885.0736,1.04615,1.04615,0,0,1,.44164.14722,1.01609,1.01609,0,0,1,.29443.22082,1.10693,1.10693,0,0,1,.29442.80967v2.72345H9.71609V41.98438c0-.51525-.368-.80967-1.1041-.80967H7.87592Z" fill="#fff"/><path d="M14.35331,40.73307v.368a.86587.86587,0,0,0-.66246.88328v2.72345H13.1756V41.98438a.66354.66354,0,0,1,.07361-.368c0-.07361.07361-.14721.07361-.22082q.1104-.22082.22082-.22082h-2.061v-.368h2.87066Z" fill="#fff"/><path d="M18.40168,41.46914a1.09133,1.09133,0,0,1,.07361.51524v2.72345H17.96V41.98438c0-.51524-.368-.80967-1.1041-.80967H15.60463v-.44164c.44164,0,.88328-.0736,1.32492-.0736a3.26664,3.26664,0,0,1,.95688.14721A.975.975,0,0,1,18.40168,41.46914Zm-2.28181,3.23869h-.51525V42.2052h.51525Z" fill="#fff"/><path d="M22.89169,41.46914a1.09133,1.09133,0,0,1,.07361.51524v2.72345h-.51525V41.98438c0-.51524-.368-.80967-1.1041-.80967H20.09463v-.44164c.44164,0,.88329-.0736,1.32492-.0736a3.26666,3.26666,0,0,1,.95689.14721C22.59726,40.88029,22.74448,41.17471,22.89169,41.46914Zm-2.35542,3.23869H20.021V42.2052h.51524Z" fill="#fff"/><path d="M28.33859,44.70783a.44258.44258,0,0,1-.29443-.0736v-.44164H28.265c.29443,0,.44164-.14722.44164-.51525V41.1011l-.44164.07361v-.44164a10.89478,10.89478,0,0,1,1.47213-.0736,2.74525,2.74525,0,0,1,.88329.14721.82416.82416,0,0,1,.51524.58885,1.09139,1.09139,0,0,1,.07361.51525v2.72345H30.694V41.91078c0-.51525-.368-.80967-1.1041-.80967h-.51525v2.57623a1.09889,1.09889,0,0,1-.22082.73607C28.92744,44.63422,28.633,44.70783,28.33859,44.70783Z" fill="#fff"/><path d="M32.9022,43.38291V40.80667h.51525v2.061l-.368.51525Z" fill="#fff"/><path d="M34.88959,43.38291V40.80667h.51524v2.061l-.368.51525Z" fill="#fff"/><path d="M36.58254,40.73307h.73607a1.435,1.435,0,0,1,.58885.0736,1.04615,1.04615,0,0,1,.44164.14722,1.01623,1.01623,0,0,1,.29443.22082,1.10693,1.10693,0,0,1,.29442.80967v2.72345h-.51524V41.98438c0-.51525-.368-.80967-1.1041-.80967h-.73607Z" fill="#fff"/><path d="M42.54469,44.56062v.0736h-.51525v-.0736a1.82943,1.82943,0,0,1,.0736-.58886,2.99971,2.99971,0,0,0,.14722-.51524c.0736-.22082.14721-.51525.22082-.80968l.44164-1.47213h-2.429v-.368h2.87066v.29442l-.44164,1.54574c-.07361.22082-.07361.368-.14721.44164,0,.14721-.07361.22082-.07361.368s-.07361.22082-.07361.29443-.0736.22082-.0736.29443ZM41.07255,46.18H40.5573V42.35242h.51525Z" fill="#fff"/><path d="M1.91377,32.85715H4.49V33.814l-.66246,2.2818h0l-.44164,1.91378H1.91377l.44164-1.98738.58886-1.98739H.368v-2.2082H1.91377Z" fill="#fff"/><path d="M6.25657,32.2683h1.1041c-.14721.80967-.29442,1.54574-.368,2.2818H5.59411v-.0736A10.1516,10.1516,0,0,1,6.25657,32.2683Zm1.98738,0h1.1041c-.14721.80967-.29442,1.54574-.368,2.2818H7.6551l-.07361-.0736Q8.02314,32.93075,8.244,32.2683Z" fill="#fff"/><path d="M10.82019,36.39027V32.93075h1.54574v2.35542l-.88328,1.1041Z" fill="#fff"/><path d="M16.26709,32.85715c.22081,0,.44164-.07361.66246-.07361a1.62062,1.62062,0,0,1,.58885.07361,3.58776,3.58776,0,0,1,.51525.22082,1.082,1.082,0,0,1,.368.44164,3.82362,3.82362,0,0,1,.29443,1.76656,3.04616,3.04616,0,0,1-.58886,1.98738,2.15424,2.15424,0,0,1-1.69295.73607,3.69444,3.69444,0,0,1-.88328-.14722,1.6028,1.6028,0,0,1-.66246-.51524,1.679,1.679,0,0,1-.44164-.88328,2.861,2.861,0,0,1-.14722-1.1041V32.85715h1.54574v2.50263c0,.95688.22082,1.47213.66246,1.47213a.55351.55351,0,0,0,.51525-.368,2.1992,2.1992,0,0,0,.14722-1.1041,3.58581,3.58581,0,0,0-.14722-1.10411.49281.49281,0,0,0-.51525-.29442h-.22081Z" fill="#fff"/><path d="M24.511,32.93076a9.88771,9.88771,0,0,1,1.39853-.07361,3.59755,3.59755,0,0,1,.95688.07361c.22082.0736.44164.0736.58886.22082a.73482.73482,0,0,1,.368.29442,1.60859,1.60859,0,0,1,.22082.368c.07361.14721.07361.29443.14721.44164v3.82755H26.64563v-3.2387c0-.51525-.29442-.73607-.80967-.73607a9.88778,9.88778,0,0,0-1.39853.07361V32.93076Z" fill="#fff"/><path d="M31.65089,38.00962H30.10515V32.85715h1.54574Z" fill="#fff"/><path d="M37.39221,32.85715v1.1041a.72837.72837,0,0,0-.51524.368,1.38668,1.38668,0,0,0-.14722.58886v3.09148H35.184V34.91814a1.05454,1.05454,0,0,1,.368-.80968H33.123v-1.1777h4.26918Z" fill="#fff"/><path d="M40.04206,32.85715a1.06392,1.06392,0,0,1,.14721.51525h.07361l.22082-.22082c.0736-.07361.22081-.14722.29442-.22082s.22082-.07361.368-.14722a1.435,1.435,0,0,1,.58885-.0736,1.38659,1.38659,0,0,1,.58885.14721,1.845,1.845,0,0,1,.51525.29443,1.18643,1.18643,0,0,1,.29443.51525,3.71014,3.71014,0,0,1,.22082,1.39853V37.936h-2.429V36.75831h.88328v-1.693a1.26534,1.26534,0,0,0-.07361-.58885c-.0736-.14722-.0736-.22082-.14721-.29443a.57306.57306,0,0,0-.51525-.22082.55649.55649,0,0,0-.29443.0736c-.0736,0-.14721.07361-.22082.14722-.14721.14721-.22082.22082-.22082.29443v.0736l-.14721,3.45951H38.64353l.29443-3.2387v-.51525a4.16814,4.16814,0,0,0-.22082-1.32492h1.32492Z" fill="#fff"/><path d="M61.2507-.8176H94.85828V46.30756H61.2507ZM62.12733,0c-.00728.164-.01836.29734-.01839.4307q-.00155,7.47563.00172,14.95126c.003,1.79489-.0349,3.59437.07724,5.38353a30.3905,30.3905,0,0,0,1.73931,8.2578,30.1695,30.1695,0,0,0,6.99355,11.24924,29.82441,29.82441,0,0,0,6.92847,5.23854.85039.85039,0,0,0,.68856-.00039,26.90406,26.90406,0,0,0,6.08577-4.41262,29.47314,29.47314,0,0,0,7.364-10.74645A27.95819,27.95819,0,0,0,94.059,20.25248c.04081-6.56932.01174-13.13908.01172-19.70865V0Z" fill="none"/><path d="M62.12733,0H94.07069V.54383c0,6.56957.02909,13.13933-.01172,19.70865a27.95819,27.95819,0,0,1-2.07143,10.09913,29.47314,29.47314,0,0,1-7.364,10.74645,26.90406,26.90406,0,0,1-6.08577,4.41262.85039.85039,0,0,1-.68856.00039,29.82441,29.82441,0,0,1-6.92847-5.23854,30.1695,30.1695,0,0,1-6.99355-11.24924,30.3905,30.3905,0,0,1-1.73931-8.2578c-.11214-1.78916-.07428-3.58864-.07724-5.38353Q62.09833,7.90634,62.10894.4307C62.109.29734,62.12005.164,62.12733,0Zm9.4519,7.24735a2.57594,2.57594,0,0,1-.43333.16318c-.24472.04649-.49566.06026-.744.08783l-.8323.12037-.0598.15174,1.76309.96659L69.965,9.595a5.82048,5.82048,0,0,0,3.5193.18167,10.51512,10.51512,0,0,1,3.42994-.367c.72308.013,1.44666-.0025,2.16985.0072a2.77363,2.77363,0,0,1,.47463.08752l-.54494.16908-.184-.0009-.0897.00272a.102.102,0,0,1-.07771.0246l-.03657.17453.00031.365c-.01.00864-.0298.01983-.02833.02547a.38014.38014,0,0,0,.02831.06384l-.00227,1.81525-.05405.20127-.19891.42025-.17931-.33731V9.72563H77.10447v2.242c-.32759-.03025-.65507-.0852-.98279-.08668q-2.81677-.01267-5.63361.00259a1.11718,1.11718,0,0,0-.37274.15288l-.81512.90427c-.04474.13889-.08949.27777-.13471.41532l-.34086.16685V28.63549c.20665,0,.36837.00394.52984-.00065q1.5813-.04488,3.1625-.09345,2.30194-.07456,4.60369-.15525v4.65855H78.187c0-1.57856,0-3.12731-.00006-4.67611l.47151.00363V33.114l1.08448-.12643c.0117-.00854.03458-.0201.03323-.0251a.43943.43943,0,0,0-.03027-.06908l-.00328-1.26506.20292-.01659a5.51251,5.51251,0,0,0,1.04769-3.15878l.10026-.02328,6.67936.21474V13.46114l-.41858-.06755.04309-.44954-.38461-.14459.052-.062-.42325-.48542-.0684-.3813H82.27243a21.14315,21.14315,0,0,0-.35188-2.4453,1.71794,1.71794,0,0,0-1.86068-1.32921c-1.44821-.03157-2.8962-.07772-4.34383-.13027a2.56278,2.56278,0,0,1-1.53814-.41968,3.45237,3.45237,0,0,0-.86785-.34056l-.18787.3145-.20067-.35536-.69705-.29716v.905l.07917.05925.18164-.00859.08979.146-.62968.00036L72.0278,7.778V6.90324ZM86.915,33.82028l-.03014-.02932a2.57512,2.57512,0,0,0-.71606-2.00646,2.21862,2.21862,0,0,0-.57667,2.56509,1.70362,1.70362,0,0,0,.63478.83458,2.09885,2.09885,0,0,0,2.70992-1.79533A2.222,2.222,0,0,0,86.915,33.82028Zm-12.61366,5.778a2.18617,2.18617,0,0,0-2.20417.25934,7.99689,7.99689,0,0,0,1.12655.98854,1.90942,1.90942,0,0,0,2.2238-.25885,2.34215,2.34215,0,0,0-.9909-3.20323,2.68323,2.68323,0,0,0-.22745.71219c-.01493.50231.03949,1.00668.06545,1.5102Zm5.53482,2.342-.00984-.24809a2.9665,2.9665,0,0,0-.68494-2.93865l.39849-.19855v-.80685l-1.00053.2694-.50591-.66613,1.511-.45488v-.83568l-2.048.57768-.64877-1.66-1.54428-.6387a5.5083,5.5083,0,0,0,2.08076,3.98806V39.194l.91544-.22858.55857.64692-1.47166.44087v.84057l1.897-.53759.25148.71771-2.58894.86744V42.617h3.06589Zm2.49123-4.53718a2.37261,2.37261,0,0,0-1.10844,2.38179,1.23539,1.23539,0,0,0,.595,1.10051,2.08769,2.08769,0,0,0,2.90556-1.155,2.17243,2.17243,0,0,0-2.09126-.10992C82.8138,38.42815,82.75933,38.01524,82.32734,37.40312Zm8.6146-12.91075a2.44661,2.44661,0,0,0-1.20088-1.87521,2.38944,2.38944,0,0,0,.609,3.21141.7263.7263,0,0,0,.28345.12454,2.19234,2.19234,0,0,0,2.1653-2.55944A2.31237,2.31237,0,0,0,90.94194,24.49237ZM62.76758,5.62122a2.3098,2.3098,0,0,0,1.66725,3.02666C65.77532,8.206,66.55535,6.62249,65.90834,5.633a2.40049,2.40049,0,0,0-1.5231,1.506C63.93213,6.18809,63.47632,5.76048,62.76758,5.62122ZM66.70019,22.812a2.60758,2.60758,0,0,0-1.151,1.92085c-.7376-.8088-1.27407-1.0717-1.91015-.958a2.191,2.191,0,0,0,2.018,2.40679.97564.97564,0,0,0,.58224-.1635A2.39853,2.39853,0,0,0,66.70019,22.812ZM84.98,36.79737a2.58705,2.58705,0,0,0-.64711-2.12405,2.36608,2.36608,0,0,0-.17652,3.3566.69859.69859,0,0,0,.24192.11271,2.14232,2.14232,0,0,0,2.67821-1.78286A2.18214,2.18214,0,0,0,84.98,36.79737Zm5.21937-24.61552A2.30213,2.30213,0,0,0,91.657,15.11647a.57652.57652,0,0,0,.22163.0051,2.303,2.303,0,0,0,1.45622-3.08381,2.48,2.48,0,0,0-1.53239,1.60544A2.35378,2.35378,0,0,0,90.19936,12.18185ZM65.947,15.85905a2.451,2.451,0,0,0-1.568,1.52344,2.35983,2.35983,0,0,0-1.60072-1.55031,2.32013,2.32013,0,0,0,1.39437,2.96923.78792.78792,0,0,0,.43522.027A2.30276,2.30276,0,0,0,65.947,15.85905ZM67.70385,26.0876a2.51641,2.51641,0,0,0-.96569,2.02,2.1784,2.1784,0,0,0-1.98947-.86776A2.16993,2.16993,0,0,0,66.45952,29.448a1.55217,1.55217,0,0,0,.91622-.06264A2.321,2.321,0,0,0,67.70385,26.0876Zm-4.923-13.714a2.33154,2.33154,0,0,0,.9856,2.78543,1.33825,1.33825,0,0,0,.799.21386,2.25033,2.25033,0,0,0,1.37436-2.95846,2.40522,2.40522,0,0,0-1.565,1.51549A2.36056,2.36056,0,0,0,62.78083,12.37363Zm27.47477,3.276a2.24775,2.24775,0,0,0,.08346,1.60112,1.5708,1.5708,0,0,0,3.09091.02472,2.23867,2.23867,0,0,0,.03509-1.79645,2.47826,2.47826,0,0,0-1.549,1.58865A2.37706,2.37706,0,0,0,90.2556,15.64959ZM71.8746,36.83393a2.19391,2.19391,0,0,0-2.0966-.359,2.12138,2.12138,0,0,0,2.75937,1.67717.6723.6723,0,0,0,.22613-.13615,2.36932,2.36932,0,0,0-.29706-3.316A2.56146,2.56146,0,0,0,71.8746,36.83393ZM62.78507,8.75937A2.30242,2.30242,0,0,0,63.659,11.4748a1.48942,1.48942,0,0,0,.91434.28008A2.22342,2.22342,0,0,0,65.95355,8.8634c-.66134.10991-1.04418.45063-1.58746,1.42659A2.436,2.436,0,0,0,62.78507,8.75937ZM87.81662,28.75562a2.40391,2.40391,0,0,0-.16525,3.28264.71133.71133,0,0,0,.2924.1949,2.1484,2.1484,0,0,0,2.6602-1.8545,2.18,2.18,0,0,0-2.0848.51152A2.54426,2.54426,0,0,0,87.81662,28.75562Zm.95769-2.8512a2.32063,2.32063,0,0,0-.1817,2.465A1.762,1.762,0,0,0,89.43,29.246c1.1753.3433,2.56094-1.00111,2.38681-2.35463a5.41612,5.41612,0,0,0-1.01905.25614,6.18179,6.18179,0,0,0-.906.61935C89.5,26.4934,89.38011,26.287,88.77431,25.90442ZM65.97872,19.70561a2.43332,2.43332,0,0,0-1.41335,1.67125,2.287,2.287,0,0,0-1.72851-1.33019,2.21719,2.21719,0,0,0,1.29143,2.63369,1.31516,1.31516,0,0,0,.77515.11377A2.27048,2.27048,0,0,0,65.97872,19.70561Zm24.0167-14.292a2.30322,2.30322,0,0,0,1.41715,2.90607A.70488.70488,0,0,0,91.764,8.317,2.30811,2.30811,0,0,0,93.14545,5.257,2.46262,2.46262,0,0,0,91.61433,6.85,2.38949,2.38949,0,0,0,89.99542,5.41364ZM66.07,30.60584a2.112,2.112,0,0,0,2.391,1.831,1.10087,1.10087,0,0,0,.62595-.297,2.37151,2.37151,0,0,0-.28809-3.24025,2.61046,2.61046,0,0,0-.64632,2.14A2.26536,2.26536,0,0,0,66.07,30.60584Zm1.72918,2.95907a2.17265,2.17265,0,0,0,1.41075,1.7168,1.59217,1.59217,0,0,0,1.52318-.08862,2.32337,2.32337,0,0,0-.20221-3.32045,2.62321,2.62321,0,0,0-.63395,2.13111A2.12485,2.12485,0,0,0,67.79916,33.56491ZM93.23432,8.44748A2.48889,2.48889,0,0,0,91.70648,9.9871c-.54691-.93287-1.03845-1.324-1.65294-1.3382A2.30832,2.30832,0,0,0,91.372,11.437a.85422.85422,0,0,0,.4371.05895A2.28112,2.28112,0,0,0,93.23432,8.44748Zm-1.3965,12.65519c-.384-.96359-.80841-1.4182-1.4616-1.59837a2.27421,2.27421,0,0,0,1.17085,3.03629.71488.71488,0,0,0,.35232.00146,2.269,2.269,0,0,0,1.6382-2.84115A2.33341,2.33341,0,0,0,91.83782,21.10267ZM78.18773,2.34663c-1.33992,1.61565-1.05125,3.42794-1.06547,5.20288h1.06547Zm1.54082,5.22225c-.02915-1.797.28022-3.61389-1.04762-5.18031V7.56888ZM64.3615,1.87244a2.25832,2.25832,0,0,0,.0318,3.38895A2.39357,2.39357,0,0,0,64.3615,1.87244ZM91.57418,5.00052a2.30693,2.30693,0,0,0-.11194-3.39068A2.373,2.373,0,0,0,91.57418,5.00052ZM76.89967,31.43768a3.18793,3.18793,0,0,0-1.57144,2.44851l1.57144-.92868ZM69.01474,9.134l1.69047-.37176-2.52414-.19833c0,.23156.07145.49507-.02118.6733-.08366.161-.34674.22867-.52139.332C68.192,9.93947,68.55663,9.83406,69.01474,9.134Zm11.42069,25.2026h-4.0286a1.59356,1.59356,0,0,0,1.29743.346,5.27821,5.27821,0,0,1,1.43017-.00083A1.59464,1.59464,0,0,0,80.43543,34.33657ZM77.3718,35.85131l2.231-.64794-.038-.16984h-2.193Zm2.98893-2.05362.02539-.19418c-.39683-.04866-.7925-.1206-1.19078-.1405a17.53567,17.53567,0,0,0-1.79147-.0203,5.04663,5.04663,0,0,0-.95154.23274l.04048.12224Z" fill="#eb2828"/><path d="M79.55875,9.50434a2.77428,2.77428,0,0,0-.47462-.08751c-.72319-.0097-1.44677.00585-2.16985-.0072a10.51512,10.51512,0,0,0-3.42994.367A5.82048,5.82048,0,0,1,69.965,9.595l1.30787-.85789-1.76309-.96659.0598-.15174.83231-.12037h.84586l.69761.47131.62967-.00036.54712-.44911.18786-.3145a3.45237,3.45237,0,0,1,.86785.34056,2.56278,2.56278,0,0,0,1.53814.41968c1.44763.05255,2.89562.0987,4.34383.13027a1.71794,1.71794,0,0,1,1.86068,1.32921,21.14548,21.14548,0,0,1,.35189,2.44529q-.96509.00556-1.93019.01112a10.07129,10.07129,0,0,0-.07277-1.37384A1.1561,1.1561,0,0,0,79.55875,9.50434Z" fill="#fef5f2"/><path d="M79.83611,41.9403l.17576.67672H76.946v-.67569l2.58894-.86744-.25148-.71771-1.897.53759V40.0532l1.47166-.44087-.55857-.64692-.91544.22858v-.86606a5.5083,5.5083,0,0,1-2.08076-3.98806l1.54428.6387.64877,1.66,2.048-.57768v.83568l-1.511.45488.50591.66613,1.00053-.2694V38.555l-.39849.19855a2.96646,2.96646,0,0,1,.685,2.93858l-.25707-.16157-.09274.10254Z" fill="#fef3f0"/><path d="M82.32734,37.40312c.432.61212.48646,1.025.30088,2.21735a2.17243,2.17243,0,0,1,2.09126.10992,2.08769,2.08769,0,0,1-2.90556,1.155,1.23539,1.23539,0,0,1-.595-1.10051A2.37261,2.37261,0,0,1,82.32734,37.40312Z" fill="#262d1a"/><path d="M90.94194,24.49237a2.31237,2.31237,0,0,1,1.85685-1.0987,2.19234,2.19234,0,0,1-2.1653,2.55944.7263.7263,0,0,1-.28345-.12454,2.38944,2.38944,0,0,1-.609-3.21141A2.44661,2.44661,0,0,1,90.94194,24.49237Z" fill="#262d1a"/><path d="M62.76758,5.62122c.70874.13926,1.16455.56687,1.61766,1.51781a2.40049,2.40049,0,0,1,1.5231-1.506c.647.98947-.133,2.573-1.47351,3.01486A2.3098,2.3098,0,0,1,62.76758,5.62122Z" fill="#262d1a"/><path d="M66.70019,22.812a2.39853,2.39853,0,0,1-.46082,3.20614.97564.97564,0,0,1-.58224.1635,2.191,2.191,0,0,1-2.018-2.40679c.63608-.1137,1.17255.1492,1.91015.958A2.60758,2.60758,0,0,1,66.70019,22.812Z" fill="#262d1a"/><path d="M84.98,36.79737a2.18214,2.18214,0,0,1,2.0965-.4376,2.14232,2.14232,0,0,1-2.67821,1.78286.69859.69859,0,0,1-.24192-.11271,2.36608,2.36608,0,0,1,.17652-3.3566A2.58705,2.58705,0,0,1,84.98,36.79737Z" fill="#262d1a"/><path d="M90.19936,12.18185a2.35378,2.35378,0,0,1,1.60313,1.46135,2.48,2.48,0,0,1,1.53239-1.60544,2.303,2.303,0,0,1-1.45622,3.08381.57652.57652,0,0,1-.22163-.0051A2.30213,2.30213,0,0,1,90.19936,12.18185Z" fill="#262d1a"/><path d="M65.947,15.85905a2.30276,2.30276,0,0,1-1.33914,2.96936.78792.78792,0,0,1-.43522-.027,2.32013,2.32013,0,0,1-1.39437-2.96923A2.35983,2.35983,0,0,1,64.379,17.38249,2.451,2.451,0,0,1,65.947,15.85905Z" fill="#262d1a"/><path d="M67.70385,26.0876a2.321,2.321,0,0,1-.32811,3.29772,1.55217,1.55217,0,0,1-.91622.06264,2.16993,2.16993,0,0,1-1.71083-2.20811,2.1784,2.1784,0,0,1,1.98947.86776A2.51641,2.51641,0,0,1,67.70385,26.0876Z" fill="#262d1a"/><path d="M74.29457,39.60647c-.026-.50352-.08038-1.00789-.06545-1.5102a2.68323,2.68323,0,0,1,.22745-.71219,2.34215,2.34215,0,0,1,.9909,3.20323,1.90942,1.90942,0,0,1-2.2238.25885,7.99689,7.99689,0,0,1-1.12655-.98854,2.18617,2.18617,0,0,1,2.20417-.25934l.02005.01774Z" fill="#262d1a"/><path d="M62.78083,12.37363A2.36056,2.36056,0,0,1,64.37473,13.93a2.40522,2.40522,0,0,1,1.565-1.51549,2.25033,2.25033,0,0,1-1.37436,2.95846,1.33825,1.33825,0,0,1-.799-.21386A2.33154,2.33154,0,0,1,62.78083,12.37363Z" fill="#262d1a"/><path d="M86.915,33.82028a2.222,2.222,0,0,1,2.02183-.43144,2.09885,2.09885,0,0,1-2.70992,1.79533,1.70362,1.70362,0,0,1-.63478-.83458,2.21862,2.21862,0,0,1,.57667-2.56509,2.57549,2.57549,0,0,1,.71613,2.00653l-.04028.06909Z" fill="#262d1a"/><path d="M90.2556,15.64959a2.37706,2.37706,0,0,1,1.6605,1.418,2.47826,2.47826,0,0,1,1.549-1.58865A2.23867,2.23867,0,0,1,93.43,17.27543a1.5708,1.5708,0,0,1-3.09091-.02472A2.24775,2.24775,0,0,1,90.2556,15.64959Z" fill="#262d1a"/><path d="M71.8746,36.83393a2.56146,2.56146,0,0,1,.59184-2.134,2.36932,2.36932,0,0,1,.29706,3.316.6723.6723,0,0,1-.22613.13615A2.12138,2.12138,0,0,1,69.778,36.47491,2.19391,2.19391,0,0,1,71.8746,36.83393Z" fill="#262d1a"/><path d="M62.78507,8.75937a2.436,2.436,0,0,1,1.581,1.53062c.54328-.976.92612-1.31668,1.58746-1.42659a2.22342,2.22342,0,0,1-1.38025,2.89148,1.48942,1.48942,0,0,1-.91434-.28008A2.30242,2.30242,0,0,1,62.78507,8.75937Z" fill="#262d1a"/><path d="M87.81662,28.75562a2.54426,2.54426,0,0,1,.70255,2.13456,2.18,2.18,0,0,1,2.0848-.51152,2.1484,2.1484,0,0,1-2.6602,1.8545.71133.71133,0,0,1-.2924-.1949A2.40391,2.40391,0,0,1,87.81662,28.75562Z" fill="#262d1a"/><path d="M88.77431,25.90442c.6058.38254.72572.589,1.11737,1.86247a6.18179,6.18179,0,0,1,.906-.61935,5.41612,5.41612,0,0,1,1.01905-.25614c.17413,1.35352-1.21151,2.69793-2.38681,2.35463a1.762,1.762,0,0,1-.83734-.87662A2.32063,2.32063,0,0,1,88.77431,25.90442Z" fill="#262d1a"/><path d="M65.97872,19.70561a2.27048,2.27048,0,0,1-1.07528,3.08852,1.31516,1.31516,0,0,1-.77515-.11377,2.21719,2.21719,0,0,1-1.29143-2.63369,2.287,2.287,0,0,1,1.72851,1.33019A2.43332,2.43332,0,0,1,65.97872,19.70561Z" fill="#262d1a"/><path d="M89.99542,5.41364A2.38949,2.38949,0,0,1,91.61433,6.85a2.46262,2.46262,0,0,1,1.53112-1.593A2.30811,2.30811,0,0,1,91.764,8.317a.70488.70488,0,0,1-.35144.00273A2.30322,2.30322,0,0,1,89.99542,5.41364Z" fill="#262d1a"/><path d="M66.07,30.60584a2.26536,2.26536,0,0,1,2.08254.4337,2.61046,2.61046,0,0,1,.64632-2.14,2.37151,2.37151,0,0,1,.28809,3.24025,1.10087,1.10087,0,0,1-.62595.297A2.112,2.112,0,0,1,66.07,30.60584Z" fill="#262d1a"/><path d="M67.79916,33.56491a2.12485,2.12485,0,0,1,2.09777.43884,2.62321,2.62321,0,0,1,.63395-2.13111,2.32337,2.32337,0,0,1,.20221,3.32045,1.59217,1.59217,0,0,1-1.52318.08862A2.17265,2.17265,0,0,1,67.79916,33.56491Z" fill="#262d1a"/><path d="M93.23432,8.44748a2.28112,2.28112,0,0,1-1.4252,3.04844.85422.85422,0,0,1-.4371-.05895A2.30832,2.30832,0,0,1,90.05354,8.6489c.61449.01416,1.106.40533,1.65294,1.3382A2.48889,2.48889,0,0,1,93.23432,8.44748Z" fill="#262d1a"/><path d="M91.83782,21.10267a2.33341,2.33341,0,0,1,1.69977-1.40177,2.269,2.269,0,0,1-1.6382,2.84115.71488.71488,0,0,1-.35232-.00146,2.27421,2.27421,0,0,1-1.17085-3.03629C91.02941,19.68447,91.4538,20.13908,91.83782,21.10267Z" fill="#262d1a"/><path d="M80.34227,11.88187l1.93017-.01116h4.30068l.0684.3813.42325.48542-.052.062.38461.14459-.04312.4497.08566.17654a3.85157,3.85157,0,0,0-.07067.52389q-.00644,6.80081-.00867,13.60161a2.40526,2.40526,0,0,1-.10194.488l-.01357-.21443-.026-.77146.00043-.65835v-.88226l0-1.1115V23.02916l0-1.11149,0-1.06349,0-1.11149-.0001-.88227v-1.1115l.00006-.42915-.00007-1.65523.00006-.42915.00907-1.74523.00057-.15744.00145-.11545.00529-.13776-.24132-.02131-.00306-.00687L86.896,13.048l-.06395-.09493-.06148-.32055a.36877.36877,0,0,0-.13576.28156q.00214,6.954.00982,13.908l-.04221.53547a.12755.12755,0,0,1-.06621-.0057l-.09067-.16546c.006-.16519.01717-.33037.0172-.49556q.00132-6.73606.00163-13.47213c.00006-.21013.01605-.42025.02463-.63038l-.00935-.44228a3.73,3.73,0,0,0-.48034-.06286q-2.7081-.01239-5.41624-.01428l-.10951.00492-.55575.04522-.18142.01732a.08844.08844,0,0,1-.08063.01144l-.18944-.08979.26161-.10217Z" fill="#ae322c"/><path d="M78.187,28.36863v4.67606H77.12067c0-1.5636,0-3.11107.00011-4.65866a.12363.12363,0,0,0,.07742-.02408Z" fill="#fef3f0"/><path d="M79.74291,32.98753l-1.08448.12643c0-1.62908,0-3.18542.00007-4.74181q.49453-.00569.989-.01127a.09735.09735,0,0,0,.064.02283l.03109,3.2446.00328,1.26506Z" fill="#fef3f0"/><path d="M78.18773,2.34663V7.54951H77.12226C77.13648,5.77457,76.84781,3.96228,78.18773,2.34663Z" fill="#fef1ed"/><path d="M79.72855,7.56888H78.68093V2.38857C80.00877,3.955,79.6994,5.77187,79.72855,7.56888Z" fill="#fef1ed"/><path d="M79.46635,12.058l.18945.08979c-.08411.031-.16688.06639-.25255.09221-.83269.251-.9291.37854-.92909,1.2352q0,6.65045.00151,13.3009c.00006.13214.02286.26426.03505.39639l.05553.27791.90489.07282-.00517.11091-.90616.0301-.08213.15166-.19478.00242c-.07721-.05859-.15065-.16082-.23231-.16787-.28289-.02443-.56863-.01574-.85329-.01966l-.00372-.10584,1.04259-.08332-.00429-.05938-.37677-.05363.41794-.21932A.19125.19125,0,0,0,78.2845,27.05q.00255-6.901.003-13.802a.89749.89749,0,0,0-.633-.894c-.15319-.05979-.30855-.114-.46292-.17079l.00872-.13551.99128.38039.17931.33731c.09172-.19378.14532-.307.19881-.42047l.09793-.0265Z" fill="#b34e40"/><path d="M64.3615,1.87244a2.39357,2.39357,0,0,1,.0318,3.38895A2.25832,2.25832,0,0,1,64.3615,1.87244Z" fill="#262d1a"/><path d="M91.57418,5.00052a2.373,2.373,0,0,1-.11194-3.39068A2.30693,2.30693,0,0,1,91.57418,5.00052Z" fill="#262d1a"/><path d="M77.1982,28.362a.12363.12363,0,0,1-.07742.02408q-2.302.07807-4.6038.15536-1.58111.05124-3.1625.09345c-.16147.00459-.32319.00065-.52984.00065V13.52287c.13629-.06672.23858-.11678.3411-.16618q.06747-.20733.13447-.416l.03695.0391.06393.06392.00122.00113-.05994.54366-.13.01153.00039.0097-.24612.01415q-.00129,7.1218.00071,14.24361a4.9281,4.9281,0,0,0,.07466.611l.18279.00435.1805-.00462.63549-.0114,6.88895-.22893.08807-.00635.17654-.0178Z" fill="#ad2c27"/><path d="M78.19161,12.42812l-.99129-.38039-.09585-.08009v-2.242h1.08714Z" fill="#fef3f0"/><path d="M79.46635,12.058l-.7987.26044-.04377-.17455.00227-1.81525,0-.08931-.00031-.365.03656-.17453a.102.102,0,0,0,.07772-.0246l.0897-.00272.184.0009.71414.05711v2.22531Z" fill="#fef1ed"/><path d="M80.99313,28.45282a5.512,5.512,0,0,1-1.04762,3.15888q-.00763-1.61387-.01519-3.22779l.33685-.00161.47936.02192Z" fill="#fef1ed"/><path d="M87.43987,13.57029l-.08566-.17654c.12973.02077.25944.0417.41861.06739V28.64438c-2.2419-.07208-4.46063-.14341-6.67934-.21452l.00313-.14174.35992-.002.54837.01336,2.07933.07863.63887.01752.26631.00849.09721.00333h2.57972c0-.15384-.0002-.31782,0-.48179q.0096-6.99222.009-13.98444C87.67518,13.81746,87.5218,13.69392,87.43987,13.57029Z" fill="#ad2c27"/><path d="M76.89967,31.43768v1.51983l-1.57144.92868A3.18793,3.18793,0,0,1,76.89967,31.43768Z" fill="#fef1ed"/><path d="M69.30021,12.9407q.40756-.45213.81527-.90412l.01829.01818.06454.26723.00573.36131a.51373.51373,0,0,0-.069-.00185q-.03762-.002-.07527-.00081l-.2441-.0813V27.61506h.84l.56838-.01608.62519.00458.00244.11467H69.65834c0-.18049,0-.3599,0-.53931q.00011-6.81705.00013-13.6341a1.01108,1.01108,0,0,0-.013-.358c-.02778-.06883-.15851-.09612-.24315-.142l-.00122-.00113-.06393-.06392Z" fill="#ad2c27"/><path d="M69.01474,9.134c-.45811.70009-.82277.8055-1.37624.43521.17465-.10333.43773-.171.52139-.332.09263-.17823.02118-.44174.02118-.6733l2.52414.19833Z" fill="#fbe5dd"/><path d="M80.43543,34.33657a1.59464,1.59464,0,0,1-1.301.34522,5.27821,5.27821,0,0,0-1.43017.00083,1.59356,1.59356,0,0,1-1.29743-.346Z" fill="#fbe5dd"/><path d="M77.3718,35.85131v-.81778h2.193l.038.16984Z" fill="#fbe5dd"/><path d="M79.728,11.95586V9.73054l-.71414-.05711.54494-.16908a1.15609,1.15609,0,0,1,.71072,1.00364,10.07129,10.07129,0,0,1,.07277,1.37384Z" fill="#ec3b32"/><path d="M80.36073,33.79769H76.49281l-.04048-.12224a5.04663,5.04663,0,0,1,.95154-.23274,17.53567,17.53567,0,0,1,1.79147.0203c.39828.0199.79395.09184,1.19078.1405Z" fill="#fbe5dd"/><path d="M77.10447,11.96764l.09585.08009-.00871.13551-.262-.04731-.40018-.04056-6.26827-.025-.12733-.01559-.01833-.01822a1.11256,1.11256,0,0,1,.37259-.153q2.81676-.01474,5.63361-.00259C76.4494,11.88244,76.77688,11.93739,77.10447,11.96764Z" fill="#ad2c27"/><path d="M79.93024,28.384l.01527,3.22773-.20292.0166q-.01554-1.62228-.0311-3.2446Z" fill="#ee4b3f"/><path d="M72.48527,7.82336l-.18165.00859-.07916-.05925v-.905l.69706.29716C73.08669,7.5901,72.784,7.70543,72.48527,7.82336Z" fill="#fbe5dd"/><path d="M77.1982,28.362l-.00381-.1482c.28416-.01188.5696-.012.85165-.043.08124-.00893.15271-.10675.22865-.16381l.20795.00163c.076.058.14779.15828.22878.16638.31156.03114.62606.03275.93946.04538l-.00343.14056q-.49445.00561-.989.01127l-.47155-.00354Z" fill="#b74e43"/><path d="M71.57923,7.24735l.44857-.34411V7.778A.458.458,0,0,1,71.57923,7.24735Z" fill="#fbe5dd"/><path d="M71.57923,7.24735a.458.458,0,0,0,.44857.53063l-.08241.19169-.6976-.47131h-.84586c.24831-.02757.49925-.04134.744-.08783A2.57594,2.57594,0,0,0,71.57923,7.24735Z" fill="#ee4b3f"/><path d="M79.64745,28.36088l.00343-.14057.36317.02553.1117.00763.60931-.00714.17865.00736.1829.03442-.00313.14175-.10031.023-.24665-.04864-.47935-.02193-.33685.00161-.21883-.00021A.09728.09728,0,0,1,79.64745,28.36088Z" fill="#a52926"/><path d="M72.48527,7.82336c.29875-.11793.60142-.23326.43625-.65852l.20067.35536-.54712.44911Z" fill="#ee4b3f"/><path d="M79.83611,41.9403l-.35963-.30719.09274-.10254.25707.16157Z" fill="#d39086"/><path d="M78.62388,12.14391l.04377.17455-.09792.0265Q78.59691,12.24466,78.62388,12.14391Z" fill="#ec3b32"/><path d="M78.66243,9.69985l-.03657.17453Z" fill="#ec3b32"/><path d="M78.82984,9.67253l-.0897.00272Z" fill="#ec3b32"/><path d="M79.74291,32.98753l.003-.09416a.43841.43841,0,0,1,.03027.06906C79.77749,32.96743,79.75461,32.979,79.74291,32.98753Z" fill="#ee4b3f"/><path d="M78.62617,10.23935l0,.08931a.38014.38014,0,0,1-.02831-.06384C78.59637,10.25918,78.61615,10.248,78.62617,10.23935Z" fill="#ec3b32"/><path d="M72.22446,7.7727l.07916.05925Z" fill="#ee4b3f"/><path d="M74.29457,39.60647l.02677.00955-.02005-.01774Z" fill="#eb2828"/><path d="M86.915,33.82028l-.07035.03984.04028-.06909Z" fill="#eb2828"/><path d="M78.51072,27.17251c-.01219-.13213-.035-.26425-.03505-.39639q-.00276-6.65044-.00151-13.3009c0-.85666.0964-.98421.92909-1.2352.08567-.02582.16844-.06125.25255-.09221a.08842.08842,0,0,0,.08062-.01144l.18142-.01732.55575-.04522.10951-.00492q2.70813.00573,5.41624.01428a3.73132,3.73132,0,0,1,.48033.06285l.00936.44229c-.00858.21013-.02457.42025-.02463.63038q-.00205,6.73607-.00163,13.47213c0,.16519-.01121.33037-.0172.49556L78.642,27.18152Zm2.8761-10.304-.024-.08489-.17468-.0068-.26481.01158-.29042.00127-.1836.06822.02132.12208.80458-.04731.11152-.0622Zm4.25224,3.62316.00068-.001.05665-.05919-.06925-.0423-.63118.00683-.00564.14458a.05986.05986,0,0,0,.05565.01634l.22031-.0116.26959-.02555Zm-2.28189,4.51606-.35494-.08274-.07924.12345Zm-2.712-9.75912L80.37682,15.23l.179.16671.448.00381.41744-.05962-.01756-.13541-.49049.04643ZM82.09257,20.4l-.24338.12047.02905.08592.21538-.03417.34886-.02257-.00137-.13266Zm1.99076-5.25424-.178.07469.01847.07916.51.05938.02475-.08685-.15773-.08946Zm.05851,5.35705.12586.03035.19167-.02721-.00183-.10759-.5433-.06853-.02431.11682ZM80.95349,26.133l.21615-.00585.25974-.05293-.05981-.14643Zm2.40024-1.5809-.37542-.11055-.03682.16678.2406-.02905Zm1.64513-6.168.26147.00349.42528-.0423-.01336-.117h-.69069Zm-3.81418-2.454.23832-.06582-.01478-.08545H80.4609l.00412.15127Zm4.43754,6.4642-.26691-.01278-.4367.02957.00966.16763.73247-.05586ZM81.0994,23.61007l.13143-.02657.18745-.07-.0196-.08056-.93282.04625-.00368.13091Zm-.20517-6.32486-.22815-.003-.20709.02316.94109.15433.00918-.21192h-.307Zm-.44312,3.14507-.00061.20085.96733-.05912-.00874-.14173Zm.96613,5.22582.00252-.13368h-.96989l.00021.13368Zm-.95671-7.84427-.00108.19317.9602-.06537-.01278-.17461Zm-.01152,3.623.00122.21208.96964-.06-.00618-.1521Zm.0118,2.51957-.01137.201.97505-.04387-.00491-.15709Zm.95985-3.93163-.01244-.17447-.9579.04344.00345.131Zm.0046,2.561-.00883-.1754-.97483.0546.00169.1208Zm-.00557-8.689-.0015-.173-.97582.04333.0009.12967Zm-.00112,2.49608-.00709-.13032H80.453l.00147.13032Zm-.956,8.10533-.00883.19961.96684-.0591-.00871-.14051Zm-.0025-3.5952,0,.13012h.95715l0-.13012Zm.96724,4.21611-.01622-.17563-.96236.05957.00918.16749ZM80.123,21.84894l-.04912-.19278-.746.17125.04595.16975Zm1.30148.19463-.01822-.17539-.94933.05793.007.16519Zm-.97008-3.76477.00267.19645.93769-.05636-.006-.14009Zm.00971.53792.002.19979.95147-.06137-.00554-.13842Zm.00388.5985-.00186.19076.95231-.057-.01046-.13377Zm-.36224,5.16234-.03416-.18334-.74419.15532.03136.15594Zm-.00228,1.07734-.03136-.18588-.72229.1573.03318.14639Zm-.75158-10.837.03871.17229.7176-.13133-.03142-.16689Zm2.06007,8.22555-.0012-.1138h-.94947l.00127.1138Zm-1.31034-8.73336-.03158-.152-.723.1479.03113.1474Zm1.31682.5889-.01372-.16661-.94509.0521.00261.11451ZM80.0969,26.17875l-.0334-.17-.718.16354.03634.147ZM84.933,23.91406l-.00653.18877.75962-.04366-.00686-.17963Zm-.006-6.14607.0028.1786.76363-.03981L85.691,17.768Zm.013-2.03229-.00357.17773.731-.05515-.01256-.16638Zm-.02012.47406.00183.12637h.76016l-.00346-.17246Zm.00125-1.48282.001.12364h.75684l-.0011-.12364Zm.76087,9.87593-.01148-.18595-.74638.0508.01414.177ZM80.46746,14.24324l.00608.1647.93359-.04231-.00526-.12239ZM84.931,14.186l.002.17883.75086-.05208-.00256-.12675Zm.75023,5.78968-.00334-.16162-.753.03959.003.122Zm-.00707-3.09823-.00233-.15628-.749.03451.00005.12177Zm-.752.35.00555.11169h.75343l-.008-.16665ZM80.098,22.37058l-.034-.164-.71675.16535.035.13954Zm5.58634.63512-.0072-.09709h-.7453l.01433.14656Zm-5.58371-7.0811-.03683-.16166-.71885.14973.03981.16518Zm-.74482,6.9657.02857.15123.72164-.12773-.02989-.159Zm5.56-7.68633.00895.17508.75372-.05676L85.67,15.15093Zm-4.81789.19748-.02984-.18163-.71049.15137.03165.14972Zm.00764,9.70243-.02977-.15466-.70561.13068.03.14431Zm5.57793.5126-.00261-.12266h-.75447l.00345.1566ZM80.0996,13.84094l-.03689-.17964-.71477.16893.03642.149ZM85.64826,19.504l.026-.17-.75447.04049L84.92,19.504Zm-5.58072-3.02221.00336-.16821-.71843.13823.02893.15416Zm-.72564,7.52384.03241.15832.73173-.13838-.03257-.16014Zm.7573-6.99294-.03652-.18072-.7011.16249.03509.14431Zm.00754,4.317-.04227-.18771-.70419.16239.03846.14364Zm4.3527-3.375.02578-.18061-.58558-.08448-.02362.17035Zm-2.00381-3.05158-.028-.19957-.5656.10208.02819.15747Zm2.46807,5.953.01133.18739.74643-.05035-.00731-.17175Zm-2.48391,2.18733-.00993-.17852-.56468.09776.02518.14425Zm-3.08182.37139.03119.17036.71381-.1421-.02828-.15077Zm5.57179,2.53159.00472.17381.74892-.05188-.01173-.16327Zm.00325-12.23.00394.17307.74386-.04907-.00758-.124Zm-1.02907,3.436-.01091.18742.572.04269.0128-.15234Zm1.02751,1.62633.00107.11266h.74424l-.00214-.11266Zm-2.492,2.2557-.00911-.17711-.57392.07587.01805.157Zm3.23075.498-.00286-.16814-.74289.04576.00908.12238Zm-.74236.34473.00321.099h.74845l-.00317-.099Zm.752,1.66809-.00475-.11327h-.74665l.00084.11327Zm-1.76681,1.305-.03618.18562.58648.083.02752-.164Zm1.75873.21425.00338-.10138h-.74689l-.00274.10138ZM79.341,19.67687l.0495.16264c.125-.02729.24981-.05545.375-.08161.11166-.02334.22379-.04447.33572-.06657l-.034-.16Zm4.56625,4.18184-.00683.16975.56963.0495.0118-.148Zm.00783,1.54787-.03251.16621.57669.07359.02062-.14962Zm.497-2.81636.06362-.16869-.57736-.09168-.03022.174Zm-2.54892-8.81667.03484.17115.5552-.08966-.02675-.16347Zm.00593.47493.02217.16583.55393-.07842-.02024-.1515Zm-2.52083,4.88268.04516.16634.70888-.14252-.02973-.15335Zm.74945-1.59007-.03422-.17817-.70246.17388.03879.14263Zm4.35473-1.14077.02819-.17387-.566-.09134-.02743.16934ZM82.44259,23.5645l-.02252-.1685-.52032.12179.02879.12123Zm-2.34884-2.78-.03637-.18156-.71327.16418.03225.13742Zm-.74773-.58165.029.17585.72083-.15758-.03035-.14258Zm5.10709-1.24852.02158-.16437-.56741-.07772-.02193.16643Zm-2.6002,6.5806.02669.17411.57376-.08352-.02126-.16112Zm2.06073-4.73835-.026.17112.56261.04834.0145-.15158Zm-1.46142.75916-.0182-.15186-.57049.0701.018.15541Zm-3.10166-2.96233.03361.16249.7136-.13837-.02812-.147Zm-.00779-.51971.03537.14547.71856-.15086-.03767-.15792Zm5.1001,3.96533.01819-.175-.56979-.06212-.01819.16664Zm-2.57621.41464.01475.17134.5714-.06808-.01163-.15Zm2.53857-.8619.06645-.16316-.55254-.09534-.03284.16588Zm.04091-2.02832.02693-.18445-.56661-.06832-.019.16336Zm-1.996,5.525-.01805-.15268-.56293.0722.01683.14474ZM82.427,26.098l-.01106-.15817-.54761.08522.02147.14109Zm.0141-10.19462-.02135-.17082-.54687.08442.02784.14616Zm-.57875,2.95245.03013.14774.55283-.09213-.03291-.15995Zm2.582,1.1728.01918-.161-.54865-.07114-.0172.14843Zm-.52619-1.8621-.02689.15122.5537.08637.02848-.15166Zm.51794-3.25148.033-.18433-.56522-.06711-.02459.16676ZM82.91348,25.47012l.02586.17134.44714-.0814L83.364,25.4159ZM82.448,22.00338l-.02279-.14388-.54453.087.02254.14321Zm-.01632-3.60612-.01507-.16661-.54016.09525.024.13953Zm-.01218-.45568.01334-.17195-.56218.06637.01315.14489Zm.96328-.60868-.03443-.17335-.429.09553.02755.13834Zm-1.51593-1.06539.03486.171.54806-.0694-.02018-.16063Zm1.04293,6.14933.02469.14773.45827-.07-.02478-.14944ZM83.89993,25.88l-.01087.18148.57.053.02108-.1412Zm.54548-8.94949.01947-.16429-.54966-.07273-.01833.15137Zm-1.07376-.61178-.0166-.17348-.44159.08083.02794.16017Zm.01309,4.16878-.0195-.14563-.44.06086.01909.14337ZM82.44341,15.367l-.01324-.15943-.54374.043.0135.16282Zm.95144,6.60757-.02043-.1616-.45905.06164.0192.15074Zm-1.53321-2.05423.02827.15451.5596-.07745-.028-.162Zm1.05059,4.00114.03558.16682.4298-.1023-.0307-.138Zm-.4607.15233-.02388-.1558-.55692.08372.02391.14678Zm1.46-9.94814-.0192.14714.55238.08252.02156-.16407Zm.00367,1.54524-.01788.1774.54792.05765.01837-.15585Zm.52892,8.96265.01471-.16622-.54178-.05357-.01.13833Zm-1.5244-3.23037.02606.172.43288-.08142-.02341-.14014Zm.01967-2.6505-.00977.16782.4472-.04769-.01246-.152Zm-.49612-1.37628-.02137-.152-.53.07614.02044.14313Zm.0005,7.24716-.02053-.17314-.54661.08815.02434.14125Zm.93385-4.67726-.01952-.13916-.43581.06217.01948.13927Zm-1.505-3.1288.02895.17288.54942-.09718-.02548-.15151ZM83.3834,20.9678l-.01993-.152-.44692.05867.01968.1493Zm-.00347-4.1167-.03648-.16687-.43076.10177.02959.14109ZM82.439,19.54643l-.018-.18463-.53156.08618.02265.14433Zm.47626-.17554.029.1733.43694-.07441-.019-.14533Zm.47249-1.51031-.0262-.1551-.44639.07519.026.15395Zm-.4623.37192.02159.16833.43078-.06631-.02-.14372Zm1.513-4.34021.01606-.17183-.53657-.05673-.01987.1344ZM83.923,22.80608l-.02126.16245.53621.076.02356-.14391Zm-1.0024-7.58832.0246.13841.42795-.071-.02621-.14638Zm1.51592,8.37272.01742-.16387-.54363-.06878-.02191.13962Zm-1.51908-8.846.02727.13728.43287-.0791-.02814-.14155Zm.4535-.93039-.023-.14123-.42389.06327.022.137Zm-.43944.36092.01.16412.442-.07335-.0222-.14122Zm-.00724,8.70267.02967.15495.42281-.08507-.02753-.1346Zm-.00979,3.0887.02418.13819.44167-.07-.02489-.14342Zm.00675-2.53891.02639.15141.43552-.07984-.02554-.14086Zm.44119-7.57794-.014-.1574-.41393.06754.01595.11808ZM80.47391,25.98386l-.00542.14474h.40674l.006-.09671Z" fill="#f8f0ed"/><path d="M81.09661,28.28812l-.1829-.03443-.17865-.00736-.60936.00718-.11165-.00767-.36317-.02553c-.3134-.01262-.6279-.01423-.93946-.04537-.081-.0081-.15277-.10842-.22878-.16638l1.52946.0311.17241.00606.1538-.01815.30175.019,2.08853.06431.71813.02048,3.81187.05241a2.40526,2.40526,0,0,0,.10194-.488q.00892-6.80079.00867-13.60161a3.85157,3.85157,0,0,1,.07067-.52389c.08193.12363.23531.24717.23547.3709q.00866,6.99221-.009,13.98444c-.00023.164,0,.32795,0,.48179H85.08662l-.09721-.00332-.26631-.00849-.63887-.01751-2.07934-.07864-.54836-.01336Z" fill="#e8c8c1"/><path d="M87.21934,18.86042l.00011.88228-.00005,1.11148q0,.53175,0,1.06349l0,1.11149,0,1.51666,0,1.11149q0,.44112,0,.88227l-.00045.65834.026.77146a3.51089,3.51089,0,0,1-.43767.0493c-.80849-.00693-1.61691-.02225-2.42535-.0347l-1.02477-.03875c-.085-.00535-.17007-.0107-.25277-.0162.22419-.06535.446-.13056.66791-.19577l.17536-.0001.23217-.0135,2.72266.02331a3.03938,3.03938,0,0,0,.08388-.50347q.00751-7.09408.005-14.18816l.00306.00686.24132.02131-.00528.13776-.00146.11545-.00057.15745-.00907,1.74522,0,.42915.00005,1.65523-.00005.42916Q87.21938,18.30468,87.21934,18.86042Z" fill="#f6eae7"/><path d="M83.94775,27.73315l-.17535.00012-.317-.19739.00254-.1463,3.07827-.03772a.12755.12755,0,0,0,.06621.0057l.04221-.53547q-.006-6.954-.00982-13.908a.36877.36877,0,0,1,.13576-.28156l.06147.32055-.01076.09735-.00683,14.50375-.00986-.00735-1.3712.038-1.25026-.00726Z" fill="#f8f0ed"/><path d="M86.81448,27.55417q.00342-7.25188.00683-14.50375.03733-.002.07472-.00242l.09537.00333q-.00064,7.0941-.005,14.18817a3.03909,3.03909,0,0,1-.08388.50346Z" fill="#b74e43"/><path d="M84.382,27.984c.80844.01245,1.61686.02777,2.42535.0347a3.51089,3.51089,0,0,0,.43767-.0493l.01357.21443-3.81186-.05241-.71814-.02048-2.08852-.06429-.30176-.01906-.1538.01815-.17241-.00606-1.52946-.0311-.20795-.00163-1.94166.02256-.76586.03777-2.858.05418-.67629.03474-.56034.00062.016-.147,1.23812-.03051.48271-.025,5.0735-.136.19478-.00242.0409.00714.04023-.01025c1.04889.03117,2.09768.06815,3.14679.08473.10694.00169.2158-.119.32364-.18274l.0174.00923c.0259.41131.35625.0738.49723.20214l.31166-.0137.24659.01671.2551.01606Z" fill="#b04136"/><path d="M86.53624,27.35186l-3.07827.03772c-.17968-.00682-.35934-.01914-.539-.01959-1.32152-.0033-2.6431-.00011-3.9645-.01378-.10472-.00108-.20829-.11383-.31239-.17469l7.80353.00488Z" fill="#b34e40"/><path d="M87.2194,15.23539l.00907-1.74522Z" fill="#d39086"/><path d="M87.21941,17.31977l-.00005-1.65523Z" fill="#d39086"/><path d="M87.21941,23.02916l0-1.11149Q87.21938,22.47342,87.21941,23.02916Z" fill="#d39086"/><path d="M87.2194,20.85418l.00005-1.11148Z" fill="#d39086"/><path d="M87.21945,25.65731l0-1.11149Q87.21943,25.10155,87.21945,25.65731Z" fill="#d39086"/><path d="M87.21934,18.86042q0-.55575,0-1.11149Z" fill="#d39086"/><path d="M87.219,27.19792l.00044-.65834Z" fill="#d39086"/><path d="M86.64466,26.82209l-.04221.53547Z" fill="#e8c8c1"/><path d="M86.489,12.58833l-.00937-.44229Z" fill="#b34e40"/><path d="M87.23578,13.07951l-.24132-.02131Z" fill="#c06b5b"/><path d="M79.91784,12.11905l-.18142.01732Z" fill="#b34e40"/><path d="M87.229,13.33272l.00146-.11545Z" fill="#d39086"/><path d="M86.896,13.048q-.03738.00039-.07472.00242l.01076-.09735Z" fill="#bc6354"/><path d="M80.5831,12.06891l-.10951.00492Z" fill="#b34e40"/><path d="M76.92959,12.13593l.262.04731c.15437.05677.30973.111.46292.17079a.89749.89749,0,0,1,.633.894q-.00017,6.901-.003,13.802a.19125.19125,0,0,1-.01145.05936c-.15037.07891-.28415.14912-.416.2195a.062.062,0,0,0-.06409.04013c-.07312-.05779-.144-.16151-.21976-.16523-.29446-.01442-.59047.00293-.8859.00846-.21093-.005-.42184-.01243-.63281-.01454q-3.00919-.03013-6.0184-.05873A2.74876,2.74876,0,0,0,70.19147,26.5c.00173-.32541-.10384-.65236-.09417-.97658.03165-1.06158.12639-2.122.13489-3.18333.00584-.73014-.12534-1.46064-.13518-2.19179-.02215-1.64533-.0027-3.29117-.00938-4.93677-.00212-.52387-.03327-1.04763-.05114-1.57144.06243-.05493.17564-.10728.17857-.16521.01332-.263-.00444-.52758-.011-.79159l-.00573-.36132.06283-.25159q3.13413.0125,6.2683.02493Zm-.53288,12.40883-.13944-.048-.29534.02345-.21678-.03379-.33189.02279.01085.127h.95362l.02-.08869ZM71.2055,20.49037l.00025.002c.188.02859.37564.06287.56477.07757.02044.00159.04971-.11023.07488-.16945a.07931.07931,0,0,0-.08008-.00616l-.18432-.00658-.36306.00094-.069.0611Zm2.63933,4.97453-.34921-.02718-.01777.088.16224.06632.26974.02036Zm-.00384-.53732-.35559.08169.43409.041Zm-.36162-7.61682.28108.06667.16549-.05589-.04055-.14987Zm1.44754,3.17073-.51045-.09734-.01551.16914.35133.01727Zm-1.16724-2.56067.17249-.08726-.05039-.1478-.40174.16829Zm-1.02773,2.57929.13771-.00569.046-.13715-.5328.05348.02032.14206Zm3.10652-5.72133-.41213-.03474-.015.1323.40752.058h.57656l-.00549-.15559Zm-.08979-.54926h-.32754l-.00858.09532.32247.05488h.65715l-.0048-.1502Zm.66039,3.77693.00067-.20277h-.992l-.00595.15208Zm.00783,6.09011-.01854-.12144h-.99044l.00689.12144Zm-.00983-7.17049-.01557-.1269h-.97326l.0023.1269Zm-.991-.6741.00031.128h.99089l-.0006-.128Zm.97891,3.76927-.001-.12572h-.97707l.001.12572Zm-.97608,4.91868-.01129.16773h1.00187l.00064-.11955Zm.97738-3.29725-.00223-.19635h-.98231l-.00127.14955Zm-.98739.7962.00013.1314h.99165l-.00015-.1314Zm.98906-1.39525-.012-.13265H75.405l.00258.13265Zm.01065-7.15558v-.12592h-.99842V13.888ZM75.338,25.51374c.53456.29849.92932.27721,1.01434,0Zm.08887-5.0781-.00036.12079h.95775l.00039-.12079Zm.00394-2.16169-.01192.12357h.968l-.00323-.12357Zm-.00893,1.15016.00276.114h.97769a2.25829,2.25829,0,0,0-.866-.15874C75.49888,19.37787,75.46008,19.40842,75.42189,19.42411Zm.966,2.66443.00574-.18218H75.4133l-.00411.13877Zm-.957-3.3042-.00856.16515.96236.05438.00846-.164Zm-3.51825.74274.00194-.12935h-.75914l.00923.12935Zm3.51571-2.2937-.0062.15517h.96945l.00047-.112Zm.96315,6.4117-.00685-.19078h-.97119l-.00263.14285Zm.37292-1.96387L76.735,21.854l.76337.13314.03167-.1826Zm-1.34068,4.28016-.01523.16111h.98222l.00072-.113ZM76.76668,24.405l-.02384.16362.75687.12524.02438-.17352ZM75.4221,22.92322l-.00415.12222h.978l-.001-.12222Zm1.34767.94778-.02787.15815.74793.13562.02992-.169Zm.00649,1.601-.03758.18461.7407.10769.02562-.16149ZM71.15091,16.2134l.00265.11549H71.92l-.00385-.11549Zm5.62381-1.52176-.03419.17091.7337.12535.0314-.15689Zm-5.60458.45541-.00993.18468.76148.03709.0069-.16468Zm5.21976.21257.00351-.11411h-.96774l-.00079.11411ZM71.15771,24.419l.00874.17015h.7556l.00046-.129Zm.74348-9.5055.01961-.1753h-.7619l-.00157.127Zm4.88284,6.2251-.03949.16677.7327.14777.03687-.15517ZM71.9114,17.94727l.00148-.17994h-.76206l-.00217.1376Zm.0107,6.10569-.00145-.11889h-.76627l.00258.11889ZM76.775,26.01847l-.0297.16273.736.128.0292-.15774Zm-5.6204-9.259v.11523h.75208v-.11523Zm6.32112,6.82972.034-.18619-.74542-.10451-.02431.15795ZM77.438,22.49963l.06148-.15266-.71151-.119-.02652.149Zm-.66066,2.44675-.03035.15648.72435.12611.02941-.147ZM71.9152,17.35054l-.0023-.11354h-.75216l.004.11354Zm-.75874-3.16391.00189.11644h.75207l-.00347-.11644Zm5.63056-.033-.03313.17031.72512.11509.0269-.1483Zm.64024,1.373.07056-.15638-.718-.14677-.03575.16065Zm.04854.542.0317-.18078-.72514-.09823-.02055.14758Zm-.02661,6.97514.04195-.16618-.72247-.11628-.02662.15876ZM71.166,22.865l-.00874.12014h.74229l-.00011-.12014Zm.00106-3.05616-.002.171h.75013l.00244-.12491Zm5.61645-6.1408-.03389.17932.72891.12107.02952-.15566Zm-.00288,6.95363-.02958.163.73437.11792.028-.15405Zm-3.81521-2.75675-.041-.19483-.57.12879.03761.16143Zm-.00088,7.6994-.03172-.16954-.58011.10108.03189.17057Zm1.44507-2.693-.00576.16883.55782.04445.01133-.15646Zm-1.442-5.56082-.03588-.17775-.58031.11269.03509.1713Zm-.62088,3.56717.04449.18508.57643-.12124-.03186-.16054Zm2.06154-6.68671-.01795.15892.56748.06732.01849-.16452Zm-2.50936-.30144.01632-.16836H71.163l-.00413.13187Zm.018,11.71436-.00577-.08832H71.1716l.01151.08832ZM74.40476,14.729l-.01859.17424.56865.05863.01824-.17389Zm-3.23526.97079.00361.155h.729l-.00439-.11586Zm5.60908,4.38589-.02169.15151.73058.11991.02294-.16634Zm-4.86944,5.99063-.00775-.11067h-.74146l.00211.11067ZM71.16,24.9419l.00065.10914h.75214l-.00059-.10914Zm6.31039-8.34535.02978-.14419-.71335-.14119-.032.15418Zm-.69112.25439-.02093.17594.7117.0951.02217-.15352Zm-5.61494,1.88884.00084.15771h.74622l.0014-.11976Zm6.32212.54663.02632-.15264-.73032-.1206-.02845.16044Zm-.00057.54682.03064-.1561-.72814-.13507-.03194.15818Zm-4.53125.12009-.02757-.1862-.57438.11023.03224.16608ZM71.90683,18.37l-.00223-.1156h-.73839l.00141.1156Zm.00127,2.66865.0025-.1641h-.749l.00037.125Zm1.02146.48126.00517-.18265-.57687.08412.02406.16622Zm-1.0226.00347.0017-.10364h-.741l-.0017.10364Zm.00332.46583-.0035-.11h-.74765l.00124.11Zm.44661.42026.02371.17872.58343-.09382-.02443-.1628Zm-.44494.13172-.00128-.11349h-.7481l0,.11349Zm-.00624,1.00486.00274-.11315h-.75392l-.00059.11315Zm.45109.38863.03413.17837.57118-.09943-.02381-.16088Zm.60059,1.11-.026-.195-.5799.10792.03007.16376Zm1.4546-6.80806.00041.17361.55172.04086.012-.15343Zm-.0088-4.51745-.00233.16019.55568.03074.00146-.16558Zm2.38108,3.66237-.02381.17149.714.12023.02834-.15088Zm-1.83567-1.415.02636-.1778-.568-.04034-.01412.15113Zm-.01227,7.671.03182-.16306-.55825-.04869-.01209.1371ZM77.475,18.75553l.03561-.17-.72932-.10049-.0201.14177Zm-4.518-2.45137-.03414-.17561-.5675.107.02986.1647Zm-.59608,8.16677.02462.179.57059-.105-.0219-.14964Zm2.04226-3.561.00146.12452h.55546L74.95831,20.91Zm.53429-5.48505.02313-.151-.5418-.06744-.022.14859Zm-.52774,5.98137-.01794.14763.56369.07672.01889-.15587Zm-1.453-2.53874-.027-.16208-.55559.08774.02687.16128Zm-.01841-.51212-.00272-.19154-.56491.09546.02559.16195Zm.02441,3.61425-.0359-.19294-.55982.11265.02871.15124Zm1.45076,3.49173-.01867.17659.57041.05842.01927-.15168Zm3.063-7.24812.02471-.16284-.71333-.10821-.02331.15306Zm-3.06134,4.1774-.0176.17258.55978.05727.0186-.14882Zm-1.46076-2.91946-.02973-.1818-.56414.11138.02967.16276Zm-.59355-4.73756.03127.18606.56417-.11105-.02439-.14654Zm2.06117,11.211-.00019.15776.53424.061.01834-.14275ZM74.419,21.84676l-.01788.169.55614.0593.01666-.15084Zm-.518-5.461.02715-.18057-.46079-.0394-.0129.14963Zm.51165,8.537-.01.17307.55693.05447.01709-.14788Zm.55014-.24471.01124-.1555-.56361-.04338-.01071.15155Zm-1.48989-2.33349-.02136.17687.46284.04175.01913-.14519Zm1.45586-4.3479.02825-.17312-.54681-.05185-.01429.14212ZM72.912,16.85906l.01855-.16583-.55661.07239.01495.15182Zm.98558,3.6976.02232-.1748-.4451-.01947-.00937.13371Zm1.79055-4.76132.00539.0982H76.387l-.00565-.0982Zm-3.31612-.04158.03545.17738L72.95939,15.8l-.03048-.13833Zm.58-1.93023-.02843-.17594-.54942.08574.02329.15637Zm-.00407,1.4718-.02859-.17561-.55244.10742.029.15472Zm-.57543-1.09149.03137.166.55145-.10665-.02806-.1493Zm2.56051,5.87826.02881-.17848-.55348-.04885-.01393.142Zm-1.02424,3.99506.017-.14634-.45657-.05559-.01708.14515ZM73.484,20.80188l-.02583.17276.45293.04924.021-.14386Zm.93457-3.58769-.02213.17282.54689.04436.01509-.15269Zm.513-.77714.02471-.176-.54924-.03858-.012.14915Zm-1.44749,4.91847-.0129.16281.44007.02976.01185-.14514Zm.42079-2.41993.01668-.144-.44345-.05273-.01707.148Zm1.03124.6601.01436-.1718-.53632-.03715-.01242.15183Zm-1.4733,2.22788-.00759.15385.46168.02186.007-.146Zm1.44788-2.81882.04771-.15253-.53539-.05789-.0155.13235Zm-.49783-2.26569-.02621.1568.56208.09205.02763-.16716Zm.52137,7.40908.03463-.17394-.55952-.04852-.01418.15143Zm-2.57076,1.8211.02533.14967.5673-.09043-.02484-.14372Zm1.52762-5.94808.02808-.15868-.4424-.04843-.01821.13288Zm-.40371,4.37611-.0301.16492.45545.05045.01676-.14264Zm.42025-7.48267.01966-.14952-.4441-.06361-.02013.1522Zm-.42293,1.27026-.01535.172.44019.02172.01153-.14356Zm-.01088,1.1459-.01343.153.44786.04383.01314-.15012Zm-.00924,6.5656-.00168.15658h.45155l.00959-.10192Zm-.51454-2.932-.02262-.14772-.54842.07783.02357.15563Zm.54226-7.82851-.02394.17227.44239.03452.01525-.13553Zm-1.11244,8.29366.03321.16088.54419-.08826-.023-.14635Zm1.10472-.07617-.01429.16928.43677.042.01908-.1322Zm.422-9.49549.0097-.1419-.43038-.03123-.00952.14151Zm-.423.26606-.01064.17088.4279.01944.01144-.13541Zm.00111,8.7019-.01876.14158.43749.05409.01823-.13772Zm-.00267-8.16142-.00974.17542.43194.02624.01364-.13427Zm.40911,1.22105.00911-.154-.41668-.03122-.01278.134Zm1.54919-.09085-.0025.08573.23905.01507.00294-.1008Z" fill="#f8f0ed"/><path d="M78.2829,27.81833l-5.07349.136-.48272.025-1.23812.03051-.269.0044-.46049.00755-.3226.00431-.21845.00358-.17446.00444-.27733.00909-.1763.01333-.09532.006-.12951-.23761.00143-.10056q.00477-6.98005.00814-13.9601a.96447.96447,0,0,0-.03227-.17571l.05994-.54366c.08464.04588.21537.07317.24315.142a1.01108,1.01108,0,0,1,.013.358q.00006,6.81705-.00013,13.6341c0,.17941,0,.35882,0,.53931h2.19342l.63341-.00293.23237.01721.26327-.00162.8762-.02668.34429-.00479.10508-.00149,2.89092-.06713c.28466.00392.5704-.00477.85329.01966C78.13225,27.65751,78.20569,27.75974,78.2829,27.81833Z" fill="#eed6ce"/><path d="M77.793,27.36894a.06206.06206,0,0,1,.0641-.04014c.12365.01771.24924.03558.37483.05346l.00429.05938-1.04259.08332-.52279-.0011-.119.00607-2.69993.02919-.52673-.0577a1.5479,1.5479,0,0,1,.41584-.12962c.9708-.01685,1.94188-.01721,2.91287-.02285Z" fill="#e8c8c1"/><path d="M78.642,27.18152c.1041.06086.20767.17361.31239.17469,1.3214.01367,2.643.01048,3.9645.01378.1797.00045.35936.01277.539.01959l-.00254.14631-1.003.02649-2.16033-.03155-.29115-.00878-.52981.0012-.90489-.07283-.05553-.27791Z" fill="#e8c8c1"/><path d="M82.02937,27.71463c-.108.0639-.21683.18459-.32377.1829-1.04911-.01658-2.0979-.05356-3.14678-.08473l.001-.14855.90616-.0301.53926.02876.36913.00516Z" fill="#f6eae7"/><path d="M76.67079,27.52386l.52279.0011.00372.10584-2.89092.06713-.10508.00149-.3443.00479-.00517-.14509,2.69994-.02918Z" fill="#ae322c"/><path d="M80.00523,27.66291l-.53926-.02876.00517-.11091q.26491-.00059.52981-.00124l.29115.00883,2.16034.03155-.00006.134-.40569.02761-.01745-.00925q-.82731-.02352-1.65488-.04672Z" fill="#ae322c"/><path d="M78.55981,27.66423l-.001.14857-.04024.01025-.0409-.00714Z" fill="#fbe5dd"/><path d="M71.47254,28.1568l.56034-.00062.67629-.03474,2.858-.05418.76587-.03777,1.94166-.02256c-.07594.05706-.14741.15488-.22865.16381-.282.031-.56749.03113-.85165.043l-.17654.01777-.08807.00638-6.88895.22893-.63549.0114-.1805.00462-.18279-.00435a4.9281,4.9281,0,0,1-.07466-.611q-.00511-7.1218-.0007-14.24363l.24611-.01413L69.21241,13.6V28.16737H70.7629l.46107-.00689Z" fill="#eed6ce"/><path d="M70.7629,28.16737H69.21241V13.6l.13-.01152a.96447.96447,0,0,1,.03227.17571q-.00248,6.98006-.00813,13.9601c-.01026.00964-.03047.02132-.029.02856a.41862.41862,0,0,0,.02755.072l.12951.2376.09532-.00594.1763-.01333.27733-.00909.17446-.00444.21845-.00358.32259-.0043Z" fill="#ae322c"/><path d="M69.40534,28.47824l.63549-.01141Z" fill="#b34e40"/><path d="M69.2128,13.60974l-.24611.01413Z" fill="#b34e40"/><path d="M69.04205,28.4785l.18279.00435Z" fill="#b34e40"/><path d="M69.33716,12.9798l.06393.06392Z" fill="#bc6354"/><path d="M76.92978,28.2379l.08807-.00638Z" fill="#b74e43"/><path d="M80.26717,28.3823l.47935.02193Z" fill="#ca7e71"/><path d="M84.08423,28.37809l.63887.01751Z" fill="#b65749"/><path d="M81.45653,28.28609l.54836.01336Z" fill="#b65749"/><path d="M84.98941,28.40409l.09721.00332Z" fill="#b65749"/><path d="M70.03649,13.6401c.01787.52381.049,1.04757.05114,1.57144.00668,1.6456-.01277,3.29144.00938,4.93677.00984.73115.141,1.46165.13518,2.19179-.0085,1.06135-.10324,2.12175-.13489,3.18333-.00967.32422.0959.65117.09417.97658a2.74994,2.74994,0,0,1-.15541.639c.13223.0766.26179.21324.39722.21934.65778.0296,1.31713.02423,1.97592.03124l-.01419.161-.54569.053-.62519-.00462-.56838.01612h-.84V12.59934l.2441.0813.00312.27379Z" fill="#e8c8c1"/><path d="M70.03649,13.6401l.02644-.68567.07215-.273a.51373.51373,0,0,1,.069.00185c.00658.264.02434.52858.011.79159C70.21213,13.53282,70.09892,13.58517,70.03649,13.6401Z" fill="#b04136"/><path d="M71.84932,27.60356l.54569-.053.1214.02812-.03125.13658-.6334.00293Z" fill="#ae322c"/><path d="M70.65575,27.61506l.56838-.01612Z" fill="#c06b5b"/><path d="M70.26114,12.07039l-.06283.25159-.06454-.26723Z" fill="#b04136"/><path d="M70.13508,12.68145l-.07215.273-.00312-.27379Q70.09746,12.67943,70.13508,12.68145Z" fill="#b74e43"/><path d="M76.92959,12.13593l-.40015-.04061Z" fill="#c06b5b"/><path d="M80.73506,28.24633l.17865.00736Z" fill="#e0b3a9"/><path d="M80.01405,28.24584l.11165.00767Z" fill="#b74e43"/><path d="M80.45111,20.43028h.958l.00874.14173-.96733.05912Z" fill="#c06b5b"/><path d="M81.41724,25.6561h-.96716l-.00021-.13368h.96989Z" fill="#b85a4b"/><path d="M80.46053,17.81183l.94634-.04681.01278.17461-.9602.06537Z" fill="#bb5e4f"/><path d="M80.449,21.43483h.96468l.00618.1521-.96964.06Z" fill="#bb5e4f"/><path d="M80.46081,23.9544h.95877l.00491.15709-.97505.04387Z" fill="#bc6354"/><path d="M81.42066,20.02277h-.96689l-.00345-.131.9579-.04344Z" fill="#bc6354"/><path d="M81.42526,22.58379h-.982l-.00169-.1208.97483-.0546Z" fill="#b55143"/><path d="M81.41969,13.89474h-.97642l-.0009-.12967.97582-.04333Z" fill="#bb5e4f"/><path d="M81.41857,16.39082h-.96413L80.453,16.2605h.95851Z" fill="#bb5e4f"/><path d="M80.4626,24.49615h.9493l.00871.14051-.96684.0591Z" fill="#bc6354"/><ellipse cx="80.93865" cy="20.96601" rx="0.67681" ry="0.09201" fill="#b65446"/><path d="M81.42734,25.11706l-.9694.05143-.00918-.16749.96236-.05957Z" fill="#b55143"/><path d="M80.123,21.84894l-.74914.14822-.04595-.16975.746-.17125Z" fill="#c06b5b"/><path d="M81.42444,22.04357l-.9605.04773-.007-.16519.94933-.05793Z" fill="#b65749"/><path d="M80.45436,18.2788h.93439l.006.14009-.93769.05636Z" fill="#b55143"/><path d="M80.46407,18.81672H81.412l.00554.13842-.95147.06137Z" fill="#b65446"/><path d="M80.468,19.41522h.94l.01046.13377-.95231.057Z" fill="#bb5e4f"/><path d="M80.10571,24.57756l-.747.12792-.03136-.15594.74419-.15532Z" fill="#bc6354"/><path d="M80.10343,25.6549l-.72047.11781-.03318-.14639.72229-.1573Z" fill="#b55143"/><path d="M79.35185,14.81788l.72489-.12593.03142.16689-.7176.13133Z" fill="#b85a4b"/><path d="M81.41192,23.04343h-.9494l-.00127-.1138h.94947Z" fill="#b65446"/><path d="M80.10158,14.31007l-.72341.14333L79.347,14.306l.723-.1479Z" fill="#b55143"/><path d="M81.4184,14.899h-.9562l-.00261-.11451.94509-.0521Z" fill="#b85a4b"/><path d="M80.0969,26.17875l-.71505.14058-.03634-.147.718-.16354Z" fill="#b65446"/><path d="M84.933,23.91406l.74623-.03452.00686.17963-.75962.04366Z" fill="#bb5e4f"/><path d="M84.92694,17.768h.764l.0024.13879-.76363.03981Z" fill="#bb5e4f"/><path d="M84.93991,15.7357l.7149-.0438.01256.16638-.731.05515Z" fill="#b85a4b"/><path d="M84.91979,16.20976l.75853-.04609.00346.17246h-.76016Z" fill="#b55143"/><path d="M84.921,14.72694h.75677l.0011.12364h-.75684Z" fill="#bb5e4f"/><path d="M85.68191,24.60287l-.74372.04184-.01414-.177.74638-.0508Z" fill="#bc6354"/><path d="M80.46746,14.24324h.93441l.00526.12239-.93359.04231Z" fill="#b65446"/><path d="M84.931,14.186h.75035l.00256.12675-.75086.05208Z" fill="#bc6354"/><path d="M85.6812,19.97571h-.75331l-.003-.122.753-.03959Z" fill="#b85a4b"/><path d="M85.67413,16.87748h-.75131l-.00005-.12177.749-.03451Z" fill="#b55143"/><path d="M84.92216,17.22747l.751-.055.008.16665h-.75343Z" fill="#bc6354"/><path d="M80.098,22.37058l-.71574.1409-.035-.13954.71675-.16535Z" fill="#b65446"/><path d="M85.6843,23.0057l-.73817.04947-.01433-.14656h.7453Z" fill="#bb5e4f"/><path d="M80.10059,15.9246l-.71587.15325-.03981-.16518.71885-.14973Z" fill="#b85a4b"/><path d="M81.10222,17.24782h.307l-.00918.21192-.94109-.15433.20709-.02316.22816.003Z" fill="#b34e40"/><path d="M79.35577,22.8903l.72032-.13547.02989.159-.72164.12773Z" fill="#b65749"/><path d="M84.91578,15.204l.75425-.053.00842.17136-.75372.05676Z" fill="#b65749"/><path d="M80.09789,15.40145l-.70868.11946-.03165-.14972.71049-.15137Z" fill="#b65446"/><path d="M80.10553,25.10388l-.70534.12033-.03-.14431.70561-.13068Z" fill="#b34e40"/><path d="M81.0994,23.61007h-.63722l.00368-.13091.93282-.04625.0196.08056-.18753.07Z" fill="#b04136"/><path d="M85.68346,25.61648l-.75363.03394-.00345-.1566h.75447Z" fill="#b65446"/><path d="M80.0996,13.84094l-.71524.13831-.03642-.149.71477-.16893Z" fill="#b65446"/><path d="M85.64826,19.504H84.92l-.00023-.12948.75447-.04049Z" fill="#b65749"/><path d="M80.06754,16.48179l-.68614.12418-.02893-.15416.71843-.13823Z" fill="#bb5e4f"/><path d="M79.3419,24.00563l.73157-.1402.03257.16014-.73173.13838Z" fill="#b65749"/><path d="M80.0992,17.01269l-.70253.12608-.03509-.14431.7011-.16249Z" fill="#b65446"/><path d="M80.10674,21.32968l-.708.11832-.03846-.14364.70419-.16239Z" fill="#b65446"/><path d="M84.45944,17.95467l-.58342-.09474.02362-.17035.58558.08448Z" fill="#bc6354"/><path d="M82.45563,14.90309l-.56538.06-.02819-.15747.5656-.10208Z" fill="#c06b5b"/><path d="M84.9237,20.85609l.75045-.03471.00731.17175-.74643.05035Z" fill="#b55143"/><path d="M82.43979,23.04342l-.54943.06349-.02518-.14425.56468-.09776Z" fill="#bc6354"/><path d="M79.358,23.41481l.71672-.12251.02828.15077-.71381.1421Z" fill="#b34e40"/><path d="M84.92976,25.9464l.74191-.04134.01173.16327-.74892.05188Z" fill="#b65446"/><path d="M84.933,13.71637h.74022l.00758.124-.74386.04907Z" fill="#b65446"/><path d="M83.90394,17.15234l.57386.07777-.0128.15234-.572-.04269Z" fill="#bc6354"/><path d="M84.93145,18.77867h.74317l.00214.11266h-.74424Z" fill="#b55143"/><path d="M82.43949,21.03437l-.565.05575-.01805-.157.57392-.07587Z" fill="#b85a4b"/><path d="M85.67024,21.53236h-.73667L84.92449,21.41l.74289-.04576Z" fill="#b65749"/><path d="M84.92788,21.87709h.74849l.00317.099h-.74845Z" fill="#b55143"/><path d="M85.67986,23.54518H84.9293l-.00084-.11327h.74665Z" fill="#b65446"/><path d="M83.91305,24.85016l.57782.10457-.02752.164-.58648-.083Z" fill="#bc6354"/><path d="M85.67178,25.06441h-.74625l.00274-.10138h.74689Z" fill="#b34e40"/><path d="M79.341,19.67687l.72622-.14554.034.16c-.11193.0221-.22406.04323-.33572.06657-.12523.02616-.25005.05432-.375.08161Z" fill="#b34e40"/><path d="M83.90726,23.85871l.5746.07122-.0118.148-.56963-.0495Z" fill="#b65749"/><path d="M83.91509,25.40658l.5648.09018-.02062.14962-.57669-.07359Z" fill="#b65749"/><path d="M84.41211,22.59022l-.544-.0864.03022-.174.57736.09168Z" fill="#b65749"/><path d="M81.86319,13.77355l.56329-.082.02675.16347-.5552.08966Z" fill="#b55143"/><path d="M81.86912,14.24848l.55586-.06409.02024.1515-.55393.07842Z" fill="#b65446"/><path d="M79.34829,19.13116l.72431-.12953.02973.15335-.70888.14252Z" fill="#b74e43"/><path d="M80.09774,17.54109l-.69789.13834-.03879-.14263.70246-.17388Z" fill="#b34e40"/><path d="M84.45247,16.40032l-.56525-.09587.02743-.16934.566.09134Z" fill="#b65446"/><path d="M82.44259,23.5645l-.514.07452-.02879-.12123.52032-.12179Z" fill="#b34e40"/><path d="M80.09375,20.78454l-.71739.12-.03225-.13742.71327-.16418Z" fill="#b65749"/><path d="M79.346,20.20289l.71947-.12431.03035.14258-.72083.15758Z" fill="#b65446"/><path d="M84.45311,18.95437l-.56776-.07566.02193-.16643.56741.07772Z" fill="#b85a4b"/><path d="M81.85291,25.535l.57919-.07053.02126.16112-.57376.08352Z" fill="#bb5e4f"/><path d="M81.18813,16.77686l.17468.0068a.11615.11615,0,0,0,.024.08489l-.00013.00193-.11149.06222-.80458.04731-.02132-.12208.18361-.06822.277.059Z" fill="#ae322c"/><path d="M83.91364,20.79662l.55112.06788-.0145.15158-.56261-.04834Z" fill="#b85a4b"/><path d="M82.45222,21.55578l-.57072.07365-.018-.15541.57049-.0701Z" fill="#b65749"/><path d="M79.35056,18.59345l.71909-.12283.02812.147-.7136.13837Z" fill="#b34e40"/><path d="M79.34277,18.07374l.71626-.16331.03767.15792-.71856.15086Z" fill="#b34e40"/><path d="M84.44287,22.03907l-.56979-.07045.01819-.16664.56979.06212Z" fill="#b65749"/><path d="M81.86666,22.45371l.57452-.04674.01163.15-.5714.06808Z" fill="#b55143"/><path d="M85.62222,22.39429l.03852.12856-.73247.05586-.00966-.16763.43669-.02957Z" fill="#b65446"/><path d="M84.40523,21.59181l-.51893-.09262.03284-.16588.55254.09534Z" fill="#bc6354"/><path d="M84.44614,19.56349l-.55866-.08941.019-.16336.56661.06832Z" fill="#b65446"/><path d="M82.45014,25.08847l-.56415.06426-.01683-.14474.56293-.0722Z" fill="#b55143"/><path d="M82.427,26.098l-.5372.06814-.02147-.14109.54761-.08522Z" fill="#b34e40"/><path d="M82.44115,15.90337l-.54038.05976-.02784-.14616.54687-.08442Z" fill="#bb5e4f"/><path d="M81.8624,18.85582l.55005-.10434.03291.15995-.55283.09213Z" fill="#b55143"/><path d="M84.44436,20.02862l-.54667-.08372.0172-.14843.54865.07114Z" fill="#b55143"/><path d="M83.91817,18.16652l.55529.08593-.02848.15166-.5537-.08637Z" fill="#b65749"/><path d="M84.43611,14.915l-.55681-.08468.02459-.16676.56522.06711Z" fill="#b65749"/><path d="M82.91348,25.47012l.45056-.05422.02244.14416-.44714.0814Z" fill="#b65749"/><path d="M81.18468,15.93009H80.465l-.00412-.15127h.63726Z" fill="#b65446"/><path d="M82.448,22.00338l-.54478.08631-.02254-.14321.54453-.087Z" fill="#b65446"/><path d="M84.99886,18.38409l-.0173-.15584h.69069l.01336.117-.42528.0423Z" fill="#bc6354"/><path d="M82.43169,18.39726l-.53125.06817-.024-.13953.54016-.09525Z" fill="#b65749"/><path d="M82.41951,17.94158l-.53569.03931-.01315-.14489.56218-.06637Z" fill="#b65446"/><path d="M83.38279,17.3329l-.43591.06052-.02755-.13834.429-.09553Z" fill="#b65446"/><path d="M81.86686,16.26751l.56274-.05906.02018.16063-.54806.0694Z" fill="#b65446"/><path d="M82.90979,22.41684l.45818-.07167.02478.14944-.45827.07Z" fill="#b65749"/><path d="M83.89993,25.88l.58022.09329-.02108.1412-.57-.053Z" fill="#b34e40"/><path d="M84.44541,16.93054l-.54852-.08565.01833-.15137.54966.07273Z" fill="#b55143"/><path d="M83.37165,16.31876l-.43025.06752-.02794-.16017.44159-.08083Z" fill="#b85a4b"/><path d="M83.38474,20.48754l-.44046.0586-.01909-.14337.44-.06086Z" fill="#b85a4b"/><path d="M82.44341,15.367l-.54348.0464-.0135-.16282.54374-.043Z" fill="#b65446"/><path d="M83.39485,21.97454l-.46028.05078-.0192-.15074.45905-.06164Z" fill="#b65749"/><path d="M81.86164,19.92031l.55987-.085.028.162-.5596.07745Z" fill="#b65446"/><path d="M82.91223,23.92145l.43468-.07352.0307.138-.4298.1023Z" fill="#b65749"/><path d="M82.45153,24.07378l-.55689.0747-.02391-.14678.55692-.08372Z" fill="#b55143"/><path d="M83.91157,14.12564l.55474.06559-.02156.16407-.55238-.08252Z" fill="#b65446"/><path d="M83.91524,15.67088l.54841.0792-.01837.15585-.54792-.05765Z" fill="#b85a4b"/><path d="M84.44416,24.63353l-.53707-.08146.01-.13833.54178.05357Z" fill="#b34e40"/><path d="M82.91976,21.40316l.43553-.04959.02341.14014-.43288.08142Z" fill="#bb5e4f"/><path d="M82.93943,18.75266l.425-.03189.01246.152-.4472.04769Z" fill="#bb5e4f"/><path d="M82.44331,17.37638l-.53095.0673-.02044-.14313.53-.07614Z" fill="#bb5e4f"/><path d="M82.44381,24.62354l-.5428.05626-.02434-.14125.54661-.08815Z" fill="#b65749"/><path d="M83.37766,19.94628l-.43585.06228-.01948-.13927.43581-.06217Z" fill="#b55143"/><path d="M81.87268,16.81748l.55289-.07581.02548.15151-.54942.09718Z" fill="#b65749"/><path d="M83.3834,20.9678l-.44717.056-.01968-.1493.44692-.05867Z" fill="#b85a4b"/><path d="M83.37993,16.8511l-.43765.076-.02959-.14109.43076-.10177Z" fill="#bb5e4f"/><path d="M82.439,19.54643l-.52691.04588-.02265-.14433.53156-.08618Z" fill="#b65749"/><path d="M82.91525,19.37089l.447-.04644.019.14533-.43694.07441Z" fill="#b65446"/><path d="M83.38774,17.86058l-.44664.074-.026-.15395.44639-.07519Z" fill="#b55143"/><path d="M83.18209,24.5793l-.2406.02905.03682-.16678.37542.11056Z" fill="#b34e40"/><path d="M80.95349,26.133l.41608-.20521.05981.14643-.25974.05293Z" fill="#b34e40"/><path d="M82.92544,18.2325l.43238-.0417.02.14372-.43078.06631Z" fill="#b85a4b"/><path d="M84.43844,13.89229l-.54038-.09416.01987-.1344.53657.05673Z" fill="#b34e40"/><path d="M83.923,22.80608l.53851.09458-.02356.14391-.53621-.076Z" fill="#b55143"/><path d="M84.996,20.39607l.63118-.00683.0126.10149-.00071.00094-.10316.02817-.26959.02555-.22031.0116a.05984.05984,0,0,1-.05565-.01635Z" fill="#b04136"/><path d="M84.14184,20.5028l-.25191-.05616.02431-.11682.5433.06853.00183.10759-.19166.02722Z" fill="#b34e40"/><path d="M82.92057,15.21776l.42634-.079.02621.14638-.42795.071Z" fill="#b55143"/><path d="M84.43649,23.59048l-.54812-.093.02191-.13962.54363.06878Z" fill="#b55143"/><path d="M80.91322,15.2519l.49049-.04643.01756.13541-.41743.05962Z" fill="#b55143"/><path d="M82.91741,14.74448l.432-.08337.02814.14155-.43287.0791Z" fill="#b34e40"/><path d="M83.37091,13.81409l-.42495.059-.022-.137.42389-.06327Z" fill="#b55143"/><path d="M82.93147,14.175l.42982-.05045.0222.14122-.442.07335Z" fill="#b55143"/><path d="M82.92423,22.87768l.425-.06472.02753.1346-.42281.08507Z" fill="#b65446"/><path d="M82.91444,25.96638l.441-.07524.02489.14342-.44167.07Z" fill="#b34e40"/><path d="M82.92119,23.42747l.43637-.06929.02554.14086-.43552.07984Z" fill="#b34e40"/><path d="M83.36238,15.84953l-.412.02822-.01595-.11808.41393-.06754Z" fill="#b74e43"/><path d="M80.47391,25.98386l.40728.048-.006.09671h-.40674Z" fill="#b85a4b"/><path d="M84.30081,15.18267l.15773.08946-.02475.08685-.51-.05938-.01847-.07916.178-.07469Z" fill="#b04136"/><path d="M82.09257,20.4l.34854.017.00137.13266-.34886.02257Z" fill="#bb5e4f"/><path d="M80.91322,15.2519l.09062.1486-.448-.00381.08937-.148Z" fill="#a52926"/><path d="M82.09257,20.4l.00105.17222-.21538.03417-.02905-.08592Z" fill="#b85a4b"/><path d="M81.18468,15.93009l-.08652-.15127h.31006l.01478.08545Z" fill="#b74e43"/><path d="M83.35717,25.00777l-.43418.04071.07924-.12346Z" fill="#c06b5b"/><path d="M83.35717,25.00777l-.35494-.08275Z" fill="#a52926"/><path d="M80.6452,15.24865l-.08937.148-.179-.16671Z" fill="#b55143"/><path d="M85.62222,22.39429l-.26692-.01277Z" fill="#a52926"/><path d="M84.99886,18.38409l.26147.00349Z" fill="#ae322c"/><path d="M81.18813,16.77686l-.27819.07193a.23416.23416,0,0,0,.01338-.06035Z" fill="#b85a4b"/><path d="M80.92332,16.78844a.23416.23416,0,0,1-.01338.06035l-.277-.05908Z" fill="#ca7e71"/><path d="M81.10222,17.24782l-.208.0374Z" fill="#ca7e71"/><path d="M83.18209,24.5793l.17164-.02717Z" fill="#ca7e71"/><path d="M80.66608,17.28225l-.20709.02316Z" fill="#ca7e71"/><path d="M85.046,20.557l.22031-.0116Z" fill="#c06b5b"/><path d="M80.95349,26.133l.21615-.00585Z" fill="#b85a4b"/><path d="M84.996,20.39607l-.00564.14457Z" fill="#c06b5b"/><path d="M84.30081,15.18267l-.21747-.03692Z" fill="#c67466"/><path d="M84.14184,20.5028l.12587.03036Z" fill="#c06b5b"/><path d="M85.63974,20.49073l-.0126-.10149.06925.0423Z" fill="#c06b5b"/><path d="M81.2752,16.9327l.11149-.06222Z" fill="#b85a4b"/><path d="M81.38682,16.86855a.11615.11615,0,0,1-.024-.08489Z" fill="#b85a4b"/><path d="M85.53587,20.51984l.10316-.02817Z" fill="#c06b5b"/><path d="M81.0994,23.61007l.13135-.02659Z" fill="#b65749"/><path d="M82.72859,28.11092l.71814.02048Z" fill="#e0b3a9"/><path d="M80.33831,28.02757l.30176.01906Z" fill="#bc6354"/><path d="M80.0121,28.03966l.17241.00606Z" fill="#e0b3a9"/><path d="M86.81448,27.55417l.08808.18879-2.72266-.0233.00326-.14213,1.25027.00725,1.37119-.038Z" fill="#a52926"/><path d="M82.45238,27.69643l.00006-.134,1.003-.02649.317.19738c-.22189.0652-.44375.13041-.66794.19576-.08454-.00543-.16674-.011-.249-.01659l-.00624-.00864Z" fill="#b34e40"/><path d="M84.382,27.984l-1.02478-.03875Z" fill="#c06b5b"/><path d="M84.18316,27.57753l-.00326.14213-.23218.0135Z" fill="#b34e40"/><path d="M86.80462,27.54682l-1.37119.038Z" fill="#ca7e71"/><path d="M82.45238,27.69643q.19843.10368.39615.2069c-.102.00729-.20335.01506-.30466.02283-.141-.12834-.47133.20917-.49723-.20214Z" fill="#f6eae7"/><path d="M76.333,28.0295l-.76587.03777Z" fill="#bc6354"/><path d="M72.70917,28.12144l-.67629.03474Z" fill="#bc6354"/><path d="M72.72669,27.97933l.48272-.025Z" fill="#bc6354"/><path d="M82.54387,27.92616c.10131-.00777.20262-.01554.30466-.02283l.007.00911Z" fill="#c06b5b"/><path d="M71.47254,28.1568l-.24857.00367-.00444-.14623.269-.0044Z" fill="#ae322c"/><path d="M72.4092,27.38961c-.65879-.007-1.31814-.00164-1.97592-.03124-.13543-.0061-.265-.14274-.39722-.21934q3.00925.029,6.01843.0586c.211.00211.42188.00956.63278.01459l-.03346.13673c-.971.00564-1.94207.006-2.91287.02285a1.54385,1.54385,0,0,0-.41585.12975l-.02453.00017Z" fill="#b04136"/><path d="M76.40906,18.00645l-.99731-.05069.00595-.15208h.992Z" fill="#bc6354"/><path d="M76.41689,24.09656H75.4148l-.00689-.12144h.99044Z" fill="#bc6354"/><path d="M76.40706,16.92607h-.98653l-.0023-.1269h.97326Z" fill="#bb5e4f"/><path d="M75.416,16.252h.9906l.0006.128h-.99089Z" fill="#bc6354"/><path d="M76.39493,20.02124h-.977l-.001-.12572h.97707Z" fill="#b85a4b"/><path d="M75.41885,24.93992l.99122.04818-.00064.11955H75.40756Z" fill="#b85a4b"/><path d="M76.39623,21.64267l-.98581-.0468.00127-.14955H76.394Z" fill="#bb5e4f"/><path d="M75.40884,22.43887h.99163l.00015.1314H75.409Z" fill="#bb5e4f"/><path d="M76.3979,21.04362h-.99032L75.405,20.911h.9809Z" fill="#b85a4b"/><ellipse cx="75.90934" cy="13.82508" rx="0.70599" ry="0.08903" fill="#bb5e4f"/><path d="M75.338,25.51374h1.01434C76.26733,25.791,75.87257,25.81223,75.338,25.51374Z" fill="#b55143"/><path d="M75.42688,20.43564h.95778l-.00039.12079h-.95775Z" fill="#b85a4b"/><path d="M75.43082,18.274h.95283l.00323.12357h-.968Z" fill="#b65446"/><path d="M75.42189,19.42411c.03819-.01569.077-.04624.11448-.04471a2.25829,2.25829,0,0,1,.866.15874h-.97769Z" fill="#b85a4b"/><path d="M76.38789,22.08854l-.9787-.04341.00411-.13877h.98033Z" fill="#bb5e4f"/><path d="M75.43088,18.78434l.96226.05551-.00846.164-.96236-.05438Z" fill="#b65446"/><path d="M71.91263,19.52708h-.748l-.00923-.12935h.75914Z" fill="#c06b5b"/><path d="M75.42834,17.23338l.96372.04321-.00047.112h-.96945Z" fill="#b65749"/><path d="M76.39149,23.64508l-.98067-.04793.00263-.14285h.97119Z" fill="#b85a4b"/><path d="M76.76441,21.68121l.76566.12328-.03167.1826L76.735,21.854Z" fill="#c06b5b"/><path d="M75.42373,25.96137l.96771.04811-.00072.113H75.4085Z" fill="#b85a4b"/><path d="M76.76668,24.405l.75741.11534-.02438.17352-.75687-.12524Z" fill="#bb5e4f"/><path d="M75.4221,22.92322H76.395l.001.12222h-.978Z" fill="#b65749"/><path d="M76.76977,23.871l.75.12479-.02992.169-.74793-.13562Z" fill="#b65749"/><path d="M76.77626,25.472l.72874.13081-.02562.16149-.7407-.10769Z" fill="#b65446"/><path d="M71.15091,16.2134h.76522l.00385.11549h-.76642Z" fill="#b65749"/><path d="M76.77472,14.69164l.73091.13937-.0314.15689-.7337-.12535Z" fill="#b85a4b"/><path d="M71.17014,15.14705l.75845.05709-.0069.16468-.76148-.03709Z" fill="#bb5e4f"/><path d="M76.3899,15.35962h-.965l.00079-.11411h.96774Z" fill="#b34e40"/><path d="M71.15771,24.419l.7648.04118-.00046.129h-.7556Z" fill="#bc6354"/><path d="M71.90119,14.91349l-.74386-.0483.00157-.127h.7619Z" fill="#bb5e4f"/><path d="M76.784,21.13859l.73008.15937-.03687.15517-.7327-.14777Z" fill="#b65446"/><path d="M71.9114,17.94727l-.76275-.04234.00217-.1376h.76206Z" fill="#bb5e4f"/><path d="M71.9221,24.053H71.157l-.00258-.11889h.76627Z" fill="#bc6354"/><path d="M76.775,26.01847l.73547.133-.0292.15774-.736-.128Z" fill="#b65749"/><ellipse cx="71.53061" cy="16.81708" rx="0.5318" ry="0.08148" fill="#b85a4b"/><path d="M77.47569,23.58918,76.74,23.45643l.02431-.15795.74542.10451Z" fill="#bb5e4f"/><path d="M77.438,22.49963l-.67655-.12264.02652-.149.71151.119Z" fill="#b65749"/><path d="M76.77732,24.94638l.72341.13559-.02941.147-.72435-.12611Z" fill="#b34e40"/><path d="M71.9152,17.35054h-.75048l-.004-.11354h.75216Z" fill="#bc6354"/><path d="M71.15646,14.18663H71.907l.00347.11644h-.75207Z" fill="#bc6354"/><path d="M76.787,14.15364l.71889.1371-.0269.1483-.72512-.11509Z" fill="#b55143"/><path d="M77.42726,15.52661l-.68322-.1425.03575-.16065.718.14677Z" fill="#b55143"/><path d="M77.4758,16.06862l-.714-.13143.02055-.14758.72514.09823Z" fill="#b85a4b"/><path d="M77.44919,23.04376l-.70714-.1237.02662-.15876.72247.11628Z" fill="#bb5e4f"/><path d="M71.166,22.865h.73344l.00011.12014h-.74229Z" fill="#bb5e4f"/><path d="M71.167,19.80881l.75056.04611-.00244.12491H71.165Z" fill="#bb5e4f"/><path d="M76.78348,13.668l.72454.14473-.02952.15566-.72891-.12107Z" fill="#b65749"/><path d="M76.7806,20.62164l.73274.12686-.028.15405-.73437-.11792Z" fill="#b65749"/><path d="M75.96193,24.52021l.29536-.02341.13943.048.001.00273-.02.08869h-.95362l-.01085-.127.33189-.02279Z" fill="#b04136"/><path d="M72.96539,17.86489l-.57342.09539-.03761-.16143.57-.12879Z" fill="#bc6354"/><path d="M72.96451,25.56429l-.57994.10211-.03189-.17057.58011-.10108Z" fill="#bc6354"/><path d="M74.40958,22.87124l.56339.05682-.01133.15646-.55782-.04445Z" fill="#b65446"/><path d="M72.96757,17.31042l-.5811.10624-.03509-.1713.58031-.11269Z" fill="#c06b5b"/><path d="M72.34669,20.87759l.58906-.0967.03186.16054-.57643.12124Z" fill="#bc6354"/><path d="M74.40823,14.19088l.568.06172-.01849.16452-.56748-.06732Z" fill="#c06b5b"/><path d="M71.89887,13.88944l-.74-.03649.00413-.13187h.75215Z" fill="#b65446"/><path d="M71.91683,25.6038h-.73372l-.01151-.08832h.73946Z" fill="#b65446"/><path d="M74.40476,14.729l.5683.059-.01824.17389-.56865-.05863Z" fill="#c06b5b"/><path d="M71.1695,15.6998l.72819.03916.00439.11586h-.729Z" fill="#b85a4b"/><path d="M76.77858,20.08569l.73183.10508-.02294.16634-.73058-.11991Z" fill="#b65749"/><path d="M71.90914,26.07632H71.162l-.00211-.11067h.74146Z" fill="#b55143"/><path d="M71.16,24.9419h.7522l.00059.10914h-.75214Z" fill="#b34e40"/><path d="M77.47038,16.59655l-.71557-.1312.032-.15418.71335.14119Z" fill="#b65749"/><path d="M76.77926,16.85094l.71294.11752L77.47,17.122l-.7117-.0951Z" fill="#b65446"/><path d="M71.16432,18.73978l.74846.03795-.0014.11976h-.74622Z" fill="#b74e43"/><path d="M77.48644,19.28641l-.73245-.1128.02845-.16044.73032.1206Z" fill="#b74e43"/><path d="M77.48587,19.83323l-.72944-.133.03194-.15818.72814.13507Z" fill="#b34e40"/><path d="M72.95462,19.95332l-.56971.09011-.03224-.16608.57438-.11023Z" fill="#c06b5b"/><path d="M71.90683,18.37h-.73921l-.00141-.1156h.73839Z" fill="#bb5e4f"/><path d="M71.9081,21.03865l-.74609-.03907-.00037-.125h.749Z" fill="#b55143"/><path d="M72.92956,21.51991l-.54764.06769-.02406-.16622.57687-.08412Z" fill="#bc6354"/><ellipse cx="71.5373" cy="21.47156" rx="0.524" ry="0.07328" fill="#b65749"/><path d="M71.91028,21.98921h-.74991l-.00124-.11h.74765Z" fill="#b55143"/><path d="M72.35689,22.40947l.58271-.0779.02443.1628-.58343.09382Z" fill="#b85a4b"/><path d="M71.912,22.54119h-.74934l0-.11349h.7481Z" fill="#b34e40"/><path d="M71.90571,23.54605h-.75177l.00059-.11315h.75392Z" fill="#b65446"/><path d="M72.3568,23.93468l.5815-.08194.02381.16088-.57118.09943Z" fill="#b65749"/><path d="M72.95739,25.04469l-.57578.07672-.03007-.16376.5799-.10792Z" fill="#bc6354"/><path d="M74.412,18.23663l.56409.061-.012.15343-.55172-.04086Z" fill="#b65749"/><path d="M74.40319,13.71918l.55481.02535-.00146.16558-.55568-.03074Z" fill="#b55143"/><path d="M76.78427,17.38155l.71848.14084-.02834.15088-.714-.12023Z" fill="#b34e40"/><path d="M74.9486,15.9666l-.55574-.067.01412-.15113.568.04034Z" fill="#bb5e4f"/><path d="M74.93633,23.63764l-.53852-.07465.01209-.1371.55825.04869Z" fill="#b34e40"/><path d="M77.475,18.75553l-.71381-.12869.0201-.14177.72932.10049Z" fill="#b65446"/><path d="M72.957,16.30416l-.57178.09613-.02986-.1647.5675-.107Z" fill="#b65446"/><path d="M72.3609,24.47093l.57331-.07567.0219.14964-.57059.105Z" fill="#b65749"/><path d="M74.40316,20.91h.55515l.00177.12452h-.55546Z" fill="#b55143"/><path d="M74.93745,15.42491l-.54062-.06988.022-.14859.5418.06744Z" fill="#b65446"/><path d="M74.40971,21.40628l.56464.06848-.01889.15587-.56369-.07672Z" fill="#b65446"/><path d="M72.95675,18.86754l-.55575.08694-.02687-.16128.55559-.08774Z" fill="#b85a4b"/><path d="M72.93834,18.35542l-.542.06587-.02559-.16195.56491-.09546Z" fill="#bc6354"/><path d="M72.96275,21.96967l-.567.07095-.02871-.15124.55982-.11265Z" fill="#b85a4b"/><path d="M74.41351,25.4614l.571.08333-.01927.15168-.57041-.05842Z" fill="#b65749"/><path d="M77.47654,18.21328l-.71193-.118.02331-.15306.71333.10821Z" fill="#b65446"/><path d="M74.4152,22.39068l.56078.081-.0186.14882-.55978-.05727Z" fill="#b34e40"/><path d="M72.95444,19.47122l-.5642.09234-.02967-.16276.56414-.11138Z" fill="#b55143"/><path d="M72.36089,14.73366l.571-.07153.02439.14654-.56417.11105Z" fill="#b65446"/><path d="M74.42206,25.9447l.55239.076-.01834.14275-.53424-.061Z" fill="#b34e40"/><path d="M74.419,21.84676l.55492.07744-.01666.15084-.55614-.0593Z" fill="#b65749"/><path d="M73.901,16.38572l-.44654-.07034.0129-.14963.46079.0394Z" fill="#b85a4b"/><path d="M74.4126,24.92269l.564.07966-.01709.14788-.55693-.05447Z" fill="#b65446"/><path d="M74.96274,24.678l-.56308-.04733.01071-.15155.56361.04338Z" fill="#b65749"/><path d="M73.47285,22.34449l.46061.07343-.01913.14519-.46284-.04175Z" fill="#b65749"/><path d="M74.92871,17.99659l-.53285-.08285.01429-.14212.54681.05185Z" fill="#b34e40"/><path d="M72.912,16.85906l-.52311.05838-.01495-.15182.55661-.07239Z" fill="#b55143"/><path d="M73.89762,20.55666l-.43215-.06056.00937-.13371.4451.01947Z" fill="#b85a4b"/><path d="M75.68817,15.79534h.69316l.00565.0982h-.69342Z" fill="#b65446"/><path d="M72.37205,15.75376l.55686-.09211.03048.13833-.55189.13116Z" fill="#bb5e4f"/><path d="M72.95206,13.82353l-.55456.06617-.02329-.15637.54942-.08574Z" fill="#b65446"/><path d="M72.948,15.29533l-.552.08653-.029-.15472.55244-.10742Z" fill="#b85a4b"/><path d="M72.37256,14.20384l.55476-.09.02806.1493-.55145.10665Z" fill="#b65749"/><path d="M74.93307,20.0821l-.5386-.08536.01393-.142.55348.04885Z" fill="#b65446"/><path d="M73.90883,24.07716l-.45666-.05678.01708-.14515.45657.05559Z" fill="#b65749"/><path d="M75.74867,14.22952h.6387l.0048.1502-.65714,0Z" fill="#b65446"/><path d="M73.484,20.80188l.44806.07814-.021.14386-.45293-.04924Z" fill="#bb5e4f"/><path d="M74.41856,17.21419l.53985.06449-.01509.15269-.54689-.04436Z" fill="#b65749"/><path d="M74.9316,16.43705l-.53655-.06538.012-.14915.54924.03858Z" fill="#b65446"/><path d="M73.48411,21.35552l.439.04743-.01185.14514-.44007-.02976Z" fill="#b85a4b"/><path d="M73.9049,18.93559l-.44384-.04864.01707-.148.44345.05273Z" fill="#b55143"/><path d="M74.93614,19.59569l-.53438-.05712.01242-.15183.53632.03715Z" fill="#b55143"/><path d="M73.46284,21.82357l.46107.02973-.007.146-.46168-.02186Z" fill="#bb5e4f"/><path d="M74.91072,19.00475l-.50318-.07807.0155-.13235.53539.05789Z" fill="#b55143"/><path d="M74.41289,16.73906l.5635.08169-.02763.16716-.56208-.09205Z" fill="#b65749"/><path d="M74.93426,24.14814l-.53907-.071.01418-.15143.55952.04852Z" fill="#b65446"/><path d="M72.3635,25.96924l.56779-.08448.02484.14372-.5673.09043Z" fill="#b34e40"/><path d="M73.89112,20.02116l-.43253-.07423.01821-.13288.4424.04843Z" fill="#b55143"/><path d="M73.48741,24.39727l.44211.07273-.01676.14264-.45545-.05045Z" fill="#b85a4b"/><path d="M73.90766,16.9146l-.44457-.06093.02013-.1522.4441.06361Z" fill="#bb5e4f"/><path d="M73.48473,18.18486l.43637.05015-.01153.14356-.44019-.02172Z" fill="#b85a4b"/><path d="M76.65381,27.349l.03346-.13673c.29546-.00558.59147-.02293.88593-.00851.07577.00372.14664.10744.21976.16523Z" fill="#b34e40"/><path d="M75.83846,14.77878h.55145l.00549.15559q-.28827,0-.57652-.00008Z" fill="#b65446"/><path d="M72.73194,20.50011l-.32881.0527-.02032-.14206.5328-.05348-.046.13714Z" fill="#b04136"/><path d="M73.47385,19.33076l.44757.04672-.01314.15012-.44786-.04383Z" fill="#b65446"/><path d="M73.46461,25.89636l.45946.05466-.00959.10192h-.45155Z" fill="#b65446"/><path d="M73.48,17.85405l.40174-.16829.05039.1478-.1725.08726Z" fill="#b55143"/><path d="M71.8454,20.40048c-.02517.05922-.05444.171-.07488.16945-.18913-.0147-.37673-.049-.56477-.07757l.37525-.10463.18431.00659Z" fill="#c06b5b"/><path d="M72.95007,22.9644l-.54747.08574-.02357-.15563.54842-.07783Z" fill="#b65446"/><path d="M73.49233,15.13589l.4337.07126-.01525.13553-.44239-.03452Z" fill="#b65749"/><path d="M74.75228,20.57056l-.35133-.01727.01551-.16914.51045.09734Z" fill="#bb5e4f"/><path d="M72.37989,23.42955l.55437-.07373.023.14635-.54419.08826Z" fill="#b55143"/><path d="M73.48461,23.35338l.44156.079-.01908.1322-.43677-.042Z" fill="#b34e40"/><path d="M73.47937,17.31076l.406-.13909.04055.14987-.16549.05589Z" fill="#b34e40"/><path d="M73.90666,13.85789l-.4302-.03162.00952-.14151.43038.03123Z" fill="#b55143"/><path d="M73.4837,14.124l.4287.05491-.01144.13541-.4279-.01944Z" fill="#b55143"/><path d="M73.48481,22.82585l.437.058-.01823.13772-.43749-.05409Z" fill="#b65446"/><path d="M73.48214,14.66443l.43584.06739-.01364.13427-.43194-.02624Z" fill="#b34e40"/><path d="M73.89125,15.88548l-.42035-.05121.01278-.134.41668.03122Z" fill="#b74e43"/><path d="M73.841,24.92759l.0785.12266-.43409-.041Z" fill="#c06b5b"/><path d="M75.83846,14.77878l-.01958.15551q-.20382-.02889-.40756-.05795l.015-.1323Z" fill="#b04136"/><path d="M73.84483,25.4649l.065.14754-.26973-.02037Z" fill="#c67466"/><path d="M73.84483,25.4649l-.20473.12717-.16225-.06631.01777-.088Z" fill="#a52926"/><path d="M75.74867,14.22952l-.01364.15016-.32248-.05484.00858-.09532Z" fill="#b04136"/><path d="M71.581,20.38774l-.37525.10462-.00018-.002.01237-.10164Z" fill="#ae322c"/><path d="M73.841,24.92758l-.35559.08169Z" fill="#a52926"/><path d="M74.75228,20.57056l.17463-.08907Z" fill="#b34e40"/><path d="M73.48,17.85405l.27963.06677Z" fill="#ca7e71"/><path d="M73.47937,17.31076l.28108.06667Z" fill="#ca7e71"/><path d="M75.44044,15.79463h.23949l-.00294.1008-.23905-.01507Z" fill="#b34e40"/><path d="M75.96193,24.52021l-.21678-.03379Z" fill="#c67466"/><path d="M72.73194,20.50011l.1377-.0057Z" fill="#c06b5b"/><path d="M71.21794,20.38868l-.01237.10164-.05661-.04054Z" fill="#c06b5b"/><path d="M76.37773,24.63617l.02-.08869Z" fill="#c67466"/><path d="M76.39671,24.54475l-.13942-.048Z" fill="#c67466"/><path d="M71.8454,20.40048l-.08009-.00616A.07933.07933,0,0,1,71.8454,20.40048Z" fill="#ae322c"/><path d="M72.4092,27.38961q.44568.05605.8908.11221-.16015.11463-.31919.22907l-.26325.00162-.20115-.15379-.1214-.02812Z" fill="#f6eae7"/><path d="M72.98081,27.73089q.15931-.11448.31919-.22907l.02509-.00027q.26338.02865.52674.05757l.00517.14509Z" fill="#c06b5b"/><path d="M71.21953,28.01424l.00444.14623-.46107.0069L70.759,28.0218Z" fill="#b04136"/><path d="M70.04353,28.03411l-.27733.0091Z" fill="#bc6354"/><path d="M70.43644,28.0261l-.21845.00358Z" fill="#bc6354"/><path d="M72.51641,27.57872l.20115.15379-.23239-.01721Z" fill="#b04136"/><path d="M74.2013,27.69942l.10508-.00149Z" fill="#c06b5b"/><path d="M69.36507,27.82488a.41862.41862,0,0,1-.02755-.072c-.00148-.00724.01873-.01892.029-.02856Z" fill="#bc6354"/><path d="M69.5899,28.05654l-.09532.00594Z" fill="#bc6354"/><path d="M76.67079,27.52386l-.119.00608Z" fill="#c67466"/><path d="M80.2921,27.53083,80.001,27.522Z" fill="#c67466"/><path d="M80.00523,27.66291l.36913.00516Z" fill="#e0b3a9"/></svg>