<?xml version="1.0" encoding="utf-8"?>
<!-- Generator: Adobe Illustrator 19.1.0, SVG Export Plug-In . SVG Version: 6.00 Build 0)  -->
<svg version="1.1" id="Layer_1" xmlns="http://www.w3.org/2000/svg" xmlns:xlink="http://www.w3.org/1999/xlink" x="0px" y="0px"
	 viewBox="0 0 237.8 237.8" enable-background="new 0 0 237.8 237.8" xml:space="preserve">
<linearGradient id="SVGID_1_" gradientUnits="userSpaceOnUse" x1="129.012" y1="76.5979" x2="136.4229" y2="83.4748">
	<stop  offset="0.3265" style="stop-color:#EE978F"/>
	<stop  offset="0.6786" style="stop-color:#EFBE78"/>
</linearGradient>
<path fill="url(#SVGID_1_)" d="M128.4,85.3l0-0.5c2-0.8,4-1.6,6-2.4c1.9-0.7,4.2-1.4,5.7-2.8c0.3-0.3,0.6-0.6,0.6-1
	c0-0.3-0.2-0.6-0.5-0.8s-0.6-0.3-0.9-0.4c-1.7-0.4-3.2-0.2-4.9-0.2c-1.9,0-3.9,0-5.8,0L128.4,85.3L128.4,85.3z"/>
<linearGradient id="SVGID_2_" gradientUnits="userSpaceOnUse" x1="31.7456" y1="38.0253" x2="204.7575" y2="198.5723">
	<stop  offset="0.3265" style="stop-color:#EE978F"/>
	<stop  offset="0.6786" style="stop-color:#EFBE78"/>
</linearGradient>
<path fill="url(#SVGID_2_)" d="M118.9,0C53.2,0,0,53.2,0,118.9s53.2,118.9,118.9,118.9s118.9-53.2,118.9-118.9S184.6,0,118.9,0z
	 M132.1,53.9v4c0,1.4-0.8,2.7-2,3.3v6.4h-1.3v0c2.6,0,5.2,0,7.8,0c2.4,0,4.8,0,7.1,0.2c0.8,0.1,1.5,0.2,2.3,0.4
	c2.9,0.7,5.7,3,6.8,5.7c1.2,2.8,0.1,6.7-1.5,9.1c-1.2,1.7-2.9,2.7-4.6,3.9c-2,1.3-3.9,2.1-6.1,2.9c-3.4,1.3-7,2.6-10.3,4.1l0,0
	c-0.7,0.3-1.3,0.6-2,0.9l-0.5,32.7c5.7,5.9,11.1,13.6,8.3,23.9c-0.9,3.4-2.7,6.4-5.5,9.5c-1.1,1.2-2.3,2.3-3.4,3.4l-0.5,27.4
	c1,1.1,1.9,2.2,2.7,3.3c1,1.2,2.3,2.9,2.9,5.2c1.3,5.3-3.4,9.1-8,12.2c0,0,0-0.1,0-0.3c-2.6,4.1-7.1,7.3-8.3,8.6
	c-0.2,0.2-0.6,0.1-0.6-0.2l-0.4-28.1c-5-6-10-13.6-7-22.4c0.2-0.6,0.4-1.1,0.6-1.6c1.2-2.8,3.6-4.5,6-6.1l-0.4-35.1
	c-8.5-8.5-12.2-19.2-7-27.8c0.4-0.6,0.8-1.2,1.2-1.8c1.4-1.9,3.2-3.6,5.4-5.1l-0.2-15.2c-2.4,0-4.7,0-7.1,0c-2.3,0-4.7,0-7,0
	c-0.7,0-1.4,0-2.1,0c-2.3,1.6-5.8,2.7-9.7,2.7c-6.9,0-12.6-3.3-12.6-7.3s5.6-7.3,12.6-7.3c3.7,0,7,0.9,9.3,2.4c4.4,0,8.9,0,13.3,0
	c1.1,0,2.1,0,3.2,0v0h-1.3v-6.4c-1.2-0.6-2-1.8-2-3.3v-4h0.2c-1.8-1-3-2.9-3-5.1V47c-9.4-4-16.8-12-19.9-21.9c0,0,25.1,1.2,33.7,1.2
	c8.2,0,33.7-1.2,33.7-1.2C151.6,35,144.3,43,134.9,47v1.8c0,2.2-1.2,4.1-3,5.1H132.1z"/>
<linearGradient id="SVGID_3_" gradientUnits="userSpaceOnUse" x1="126.9384" y1="146.7697" x2="127.7167" y2="147.492">
	<stop  offset="0.3265" style="stop-color:#EE978F"/>
	<stop  offset="0.6786" style="stop-color:#EFBE78"/>
</linearGradient>
<path fill="url(#SVGID_3_)" d="M127.3,146.3l0,1.6C127.3,147.4,127.4,146.9,127.3,146.3z"/>
</svg>
