<?xml version="1.0" encoding="utf-8"?>
<!-- Generator: Adobe Illustrator 19.1.0, SVG Export Plug-In . SVG Version: 6.00 Build 0)  -->
<svg version="1.1" id="Layer_1" xmlns="http://www.w3.org/2000/svg" xmlns:xlink="http://www.w3.org/1999/xlink" x="0px" y="0px"
	 viewBox="0 0 117.1 97.9" style="enable-background:new 0 0 117.1 97.9;" xml:space="preserve">
<style type="text/css">
	.st0{fill:#EEB95B;}
	.st1{opacity:0.33;fill:#A7A9AC;}
	.st2{fill:#A7A9AC;}
	.st3{fill:#AF2027;}
	.st4{fill:#EC2429;}
	.st5{fill:#E86978;}
</style>
<g id="XMLID_568_">
	<g id="XMLID_569_">
		<path id="XMLID_579_" class="st0" d="M95,16H22.1C9.9,16,0,25.9,0,38.1v59.9h117.1V38.1C117.1,25.9,107.2,16,95,16z M58.6,34.5
			c-2.7,0-4.9-2.2-4.9-4.9s2.2-4.9,4.9-4.9c2.7,0,4.9,2.2,4.9,4.9S61.3,34.5,58.6,34.5z"/>
		<g id="XMLID_570_">
			
				<ellipse id="XMLID_578_" transform="matrix(0.8497 0.5273 -0.5273 0.8497 28.0094 -29.7814)" class="st1" cx="66.2" cy="34.2" rx="8.9" ry="3.8"/>
			<g id="XMLID_575_">
				<polygon id="XMLID_519_" class="st2" points="67,20.7 59.2,29.6 64.6,19 				"/>
			</g>
			<g id="XMLID_571_">
				
					<ellipse id="XMLID_574_" transform="matrix(0.85 0.5267 -0.5267 0.85 18.9206 -33.0103)" class="st3" cx="67.4" cy="16.7" rx="8" ry="6.5"/>
				<path id="XMLID_573_" class="st4" d="M69.9,18.4c-2.2,0.1-4.4-1.4-5.1-3.2l6-9.7L76,8.6L69.9,18.4z"/>
				
					<ellipse id="XMLID_572_" transform="matrix(0.9057 0.424 -0.424 0.9057 9.3415 -31.0561)" class="st5" cx="74.5" cy="5.5" rx="6.5" ry="5.2"/>
			</g>
		</g>
	</g>
</g>
</svg>
