<svg xmlns="http://www.w3.org/2000/svg" viewBox="0 0 8.1968 7.11146"><defs><style>.a1eac0ff-a681-4a58-b263-49701b1fbd89{fill:#233f99;}</style></defs><title>Artboard 24</title><g id="bf95d37e-731a-4f6e-8ad6-4163032c5667" data-name="Layer 1"><path class="a1eac0ff-a681-4a58-b263-49701b1fbd89" d="M4.30343,1.80014a1.55266,1.55266,0,0,0-1.27441-.457,5.75839,5.75839,0,0,0-1.36456.33423,1.21773,1.21773,0,0,0-.85584.85034A3.2482,3.2482,0,0,0,.57913,3.83236,2.51123,2.51123,0,0,0,1.87387,5.91049,3.69254,3.69254,0,0,0,4.4133,6.305,4.63632,4.63632,0,0,0,6.81247,5.24521,2.65735,2.65735,0,0,0,7.5433,2.89047,3.17746,3.17746,0,0,0,6.16159.6788,2.6569,2.6569,0,0,0,4.89071.2,2.08218,2.08218,0,0,0,4.2001.25473c-.20618.04053-.49255.17163-.44867.43042C3.6611.42636,3.95114.222,4.16549.14682A2.19955,2.19955,0,0,1,4.89584.00131,2.942,2.942,0,0,1,6.3511.36361,3.63466,3.63466,0,0,1,8.11068,2.786,3.196,3.196,0,0,1,7.30984,5.752,5.24882,5.24882,0,0,1,4.53268,7.045,4.3642,4.3642,0,0,1,1.502,6.51327a3.06114,3.06114,0,0,1-1.49713-2.678A3.76915,3.76915,0,0,1,.37619,2.3392a2.07824,2.07824,0,0,1,.45892-.65967,1.59468,1.59468,0,0,1,.728-.35351A5.99411,5.99411,0,0,1,3.029,1.1456,1.553,1.553,0,0,1,4.30343,1.80014Z"/></g></svg>