<svg preserveAspectRatio="none" xmlns="http://www.w3.org/2000/svg" viewBox="0 0 215.64681 307.45981"><defs><style>.a97098e7-3bb2-4c9f-abf0-31c7b2bbf3ea{fill:#009ac4;}.ec025e66-5cd5-440c-a46a-6a2d329224f1{fill:#f1f2f2;}.a6e9b49c-a3ae-46dc-b5e5-2aa4cd077c8a,.b931a0eb-ccf9-4e4a-974c-da5284365bf0,.ee0e7235-8e9b-4e79-a43b-3b6705487812{fill:none;}.ee0e7235-8e9b-4e79-a43b-3b6705487812{stroke:#e6e7e8;stroke-width:2.94805px;}.a6e9b49c-a3ae-46dc-b5e5-2aa4cd077c8a,.ee0e7235-8e9b-4e79-a43b-3b6705487812{stroke-miterlimit:10;}.a8f32f6b-7d78-411d-a47f-c771a376fbe7{fill:#bcbec0;}.a6e9b49c-a3ae-46dc-b5e5-2aa4cd077c8a{stroke:#bcbec0;stroke-width:1.10552px;}.b931a0eb-ccf9-4e4a-974c-da5284365bf0{stroke:#414042;stroke-linejoin:round;stroke-width:4.42208px;}</style></defs><title>Artboard 29</title><g id="bb39a0c0-d223-4324-aa44-abfefbff9145" data-name="Layer 1"><rect class="a97098e7-3bb2-4c9f-abf0-31c7b2bbf3ea" width="215.64681" height="307.45981" rx="9.39742"/><polygon class="ec025e66-5cd5-440c-a46a-6a2d329224f1" points="203.792 293.386 47.47 293.386 10.161 255.958 10.161 15.292 203.792 15.292 203.792 293.386"/><path class="ee0e7235-8e9b-4e79-a43b-3b6705487812" d="M144.51723,19.33187V13.21623a2.35216,2.35216,0,0,0-2.35216-2.35217h-69.436a2.35217,2.35217,0,0,0-2.35217,2.35217v6.11564"/><rect class="a8f32f6b-7d78-411d-a47f-c771a376fbe7" x="72.44679" y="6.11268" width="70.18871" height="7.52694"/><polyline class="a6e9b49c-a3ae-46dc-b5e5-2aa4cd077c8a" points="77.998 27.439 98.038 27.439 99.591 26.718 114.833 26.718 115.821 27.439 142.635 27.439"/><polyline class="b931a0eb-ccf9-4e4a-974c-da5284365bf0" points="70.377 17.842 70.377 27.439 80.021 27.439"/><polyline class="b931a0eb-ccf9-4e4a-974c-da5284365bf0" points="144.517 17.842 144.517 27.439 134.873 27.439"/><rect class="ec025e66-5cd5-440c-a46a-6a2d329224f1" x="72.44679" y="6.45748" width="70.18871" height="2.25846"/></g></svg>