<svg xmlns="http://www.w3.org/2000/svg" viewBox="0 0 32.98848 8.75218"><defs><style>.e70179b0-9c55-4673-817d-d614707be388{fill:#233f99;}</style></defs><title>Artboard 27</title><g id="b8f478ab-5028-4e31-aade-8291d256bbd5" data-name="Layer 1"><path class="e70179b0-9c55-4673-817d-d614707be388" d="M12.85146,0C9.67587.47205,6.37463.77551,3.51193,2.23193A9.62117,9.62117,0,0,0,1.53241,3.52649,2.59039,2.59039,0,0,0,.47159,5.39807a1.983,1.983,0,0,0,1.303,1.58338A7.78787,7.78787,0,0,0,4.012,7.64319a50.98231,50.98231,0,0,0,9.60605.4c3.22918-.07788,6.45391-.14941,9.64973-.47265,1.59393-.18958,3.181-.44361,4.77249-.662a12.5847,12.5847,0,0,0,2.31931-.47583A2.99376,2.99376,0,0,0,32.119,5.27063a1.87357,1.87357,0,0,0-.17911-1.94336,3.98282,3.98282,0,0,0-1.79855-1.2738,17.13887,17.13887,0,0,0-4.63169-.983c-1.59549-.15966-3.20877-.218-4.82522-.32531C19.069.6366,17.463.49353,15.85577.45251A21.41324,21.41324,0,0,0,6.437,2.165,21.6034,21.6034,0,0,1,15.8606.08545c1.624,0,3.24057.11462,4.8502.18664,1.60881.07264,3.22713.09632,4.85024.22376a16.39445,16.39445,0,0,1,4.82739.958,4.61091,4.61091,0,0,1,2.09784,1.49341A2.55035,2.55035,0,0,1,32.72278,5.589a3.611,3.611,0,0,1-2.14441,1.5083,13.12276,13.12276,0,0,1-2.4158.51758c-1.60721.23169-3.20975.502-4.822.70129-3.23732.30432-6.47974.35279-9.70853.40821a47.226,47.226,0,0,1-9.72193-.516,8.31283,8.31283,0,0,1-2.37495-.762A3.61543,3.61543,0,0,1,.4989,6.66455,1.9212,1.9212,0,0,1,0,5.40991,3.00788,3.00788,0,0,1,1.25705,3.20874,9.672,9.672,0,0,1,3.35165,1.9043C6.35825.52063,9.65939.356,12.85146,0Z"/></g></svg>