<svg xmlns="http://www.w3.org/2000/svg" xmlns:xlink="http://www.w3.org/1999/xlink" viewBox="0 0 198.76596 185.44233"><defs><style>.fe3b37e1-3d86-48ab-99b5-b9b8062447d6{fill:none;}.a4e0222e-a4aa-4988-94a5-43790932e1cb{clip-path:url(#b66c4488-c2e2-4217-a8c7-b6380186bb13);}.fded7005-c1a8-4e5e-87ee-7a2ff8f228a7{fill:#f6d2ba;}.a0c99c7f-f929-4d4c-9678-190a0e3eb5ac{fill:#566345;}.a7a67406-97ae-4c3a-b707-eb1b621c2230{fill:#fff;}.fac8af33-d34d-4ca7-b047-ad9f50ac1e2b{fill:#63774e;}.fabb5714-bf63-46f1-a7c7-363151babccc{fill:#3c2415;}.fb0e9f06-5f87-495a-b9c6-62d71d1f83e9{fill:#6f825a;}.a6b58788-91c4-4c5c-bf5e-e551767a745e{fill:#231f20;}.af6fb618-aff6-4906-803b-23e6fd114897{fill:#bcbec0;}.bea6a1e0-94eb-4c7a-b641-877c3f2ac733{fill:#d1d3d4;}.b4202f9f-7a7a-407c-8d78-8095d1c230d3{fill:#e6e7e8;}</style><clipPath id="b66c4488-c2e2-4217-a8c7-b6380186bb13"><rect class="fe3b37e1-3d86-48ab-99b5-b9b8062447d6" x="-10.48632" y="-26.28035" width="218.07902" height="212.74396"/></clipPath></defs><title>Artboard 6 copy 2</title><g id="f62489d8-e95f-487c-8b70-b834fa719fed" data-name="Layer 1"><g class="a4e0222e-a4aa-4988-94a5-43790932e1cb"><path class="fded7005-c1a8-4e5e-87ee-7a2ff8f228a7" d="M38.0028,128.48686c-2.91109-2.88534-7.29093-3.70839-11.06986-5.10519.93834-5.03945-4.03088-9.63506-3.54387-14.73794.10325-1.08184.40106-2.33985-.34733-3.12785a2.16834,2.16834,0,0,0-2.66454-.07563c-2.07982,1.32436-2.15866,4.27736-2.00293,6.73813q.16791,2.65324.33581,5.30649c-5.73344-.14506-15.76459-7.023-17.76926,2.06581-.749,3.39583.12147,7.59877.48308,11.03176a8.88186,8.88186,0,0,0,.77115,3.26357c2.90926,5.49889,11.14272,4.94744,16.42032,5.00362,6.09269.06486,12.2648,1.17361,18.33414.18988,2.47-.40034,5.59656-.68,5.469-3.5888C42.30644,132.89584,39.696,130.16511,38.0028,128.48686Z"/><path class="a0c99c7f-f929-4d4c-9678-190a0e3eb5ac" d="M93.53048,107.942q.57441-.72086,1.15929-1.436c3.4503-4.21271,6.80457-8.54924,10.82523-12.24577,1.86944-1.71874,15.46136-11.2627,13.136-3.47186-1.97024,6.60105-5.59773,12.26081-7.15335,18.90942-1.79626,7.677-4.91726,16.51684-9.856,22.71381a72.118,72.118,0,0,1-8.50406,9.4677c-3.57725,3.14406-8.22877,6.27666-12.83827,7.64564-4.79449,1.42392-9.8937.35015-14.78063.31927-10.366-.06552-21.16077-2.82648-31.03413-5.86187-2.10885-.64833-7.39944-1.04087-7.17368-3.70272.3737-4.40628-.13193-9.358.85533-13.66407,1.12354-4.90049,2.69323-3.09088,7.627-2.00115,9.02291,1.99293,18.10014,3.80707,27.2815,4.90122,3.43389.40921,6.78832,1.74243,9.7276-.46909,3.03576-2.2841,6.44961-4.32925,9.11565-7.02969C86.23177,117.64723,89.72789,112.71393,93.53048,107.942Z"/><path class="fded7005-c1a8-4e5e-87ee-7a2ff8f228a7" d="M96.77431,41.33459c1.66547-11.44342,5.54479-21.4183,18.54342-25.57415,6.67812-2.13509,14.02889-1.4031,20.64889.906a25.92359,25.92359,0,0,1,9.97759,5.82823c3.54605,3.5589,5.4548,8.45908,6.44266,13.385,1.87831,9.36614,2.05468,22.91326-3.67857,31.08365-2.03229,2.89619-10.17308,3.79439-9.52883,7.27333.86378,4.66444.8878,12.3856.51827,18.31225-.0666,1.06814-1.09373,2.42878-.55992,3.35636a9.21337,9.21337,0,0,0,1.85094,1.874,8.72451,8.72451,0,0,1,2.27422,7.54936c-.78953,5.4136-5.46935,10.84993-9.12781,14.67422a17.90587,17.90587,0,0,1-7.051,4.9298,2.24732,2.24732,0,0,1-1.457.10925,2.43835,2.43835,0,0,1-1.108-1.12188,54.54956,54.54956,0,0,1-6.41374-15.12058c-.83324-3.2665-1.3762-6.75763-.42942-10.06237.7088-2.47408,2.31241-4.46275,2.64016-7.06347.48955-3.88458-.42942-11.09655-5.26787-11.74508L105.4825,78.6462c-12.569-1.68472-10.34-20.46315-9.58107-29.34078C96.13214,46.60672,96.39616,43.93281,96.77431,41.33459Z"/><path class="a7a67406-97ae-4c3a-b707-eb1b621c2230" d="M118.2886,91.93653c1.34725.10251,1.545,1.97261,1.86363,2.92556.5589,1.67163,1.47707,3.29966,2.1978,4.90951.72821,1.62656,1.69392,3.45331,3.43851,3.81719a5.4017,5.4017,0,0,0,3.84227-1.1753,68.87522,68.87522,0,0,0,8.31723-6.85172c.40778-.36015,5.69873-5.41324,5.98137-4.83375,1.90316,3.902.63438,9.05921.74747,13.25195q.18714,6.93779.26308,13.878c.10389,9.15873.07485,18.31854-.03736,27.47705-.11226,9.16321-.30851,18.32516-.53342,27.48623-.05967,2.43059.1397,27.14931-.70687,27.30885a108.57929,108.57929,0,0,1-37.02254.53735q-.26-12.09037-.05984-24.18481.5263-31.81978,4.22711-63.48122a75.59875,75.59875,0,0,1,2.77216-14.50832c.55369-1.71535,1.73877-4.96207,3.24249-6.01892A2.33182,2.33182,0,0,1,118.2886,91.93653Z"/><path class="fac8af33-d34d-4ca7-b047-ad9f50ac1e2b" d="M172.14509,94.51208a100.518,100.518,0,0,0-22.841-8.75837c-2.63949-.65719-5.75144-1.10344-7.80493.68037a8.95476,8.95476,0,0,0-2.24656,4.144c-.00009,6.80066-4.252,12.00853-8.06006,17.07475-3.33858,4.44162-5.22009,9.09875-7.41145,14.08477-1.41133-6.03818-1.92978-12.36179-2.63461-18.5191-.55678-4.8639-1.58282-10.61086-.66135-15.46726.1037-.54654-5.06153,1.56372-5.55958,2.02264a18.72,18.72,0,0,0-3.68481,5.86132,35.92824,35.92824,0,0,0-2.25684,8.57275C107.17632,115.6715,96.3601,123.12,97.974,135.56813c.65846,5.07881,3.1538,9.502,3.76372,14.54238.72933,6.02706,2.91224,11.73514,3.27388,17.86358.41244,6.98944-1.9674,12.99067-2.612,19.77715q-1.19685,12.601-1.59248,25.2613c-.06934,2.2124.03137,4.76755,1.77171,6.1353,1.64845,1.29556,4.00358.91825,6.06525.53695,11.19943-2.0713,21.88445-.31885,32.99354-1.177a184.05912,184.05912,0,0,0,26.63733-4.20171c-5.16135-24.36193.47871-48.09824,1.391-72.38178l1.75624-46.75109"/><path class="fabb5714-bf63-46f1-a7c7-363151babccc" d="M132.73913,75.52558a16.44773,16.44773,0,0,1-8.17241-7.80215c-1.569-3.25208-1.98091-9.19268.94193-11.83316,2.08065-1.87965,3.9175-4.49885,4.09507-7.43719.12007-1.98713-1.07037-4.20611-3.037-4.51591-3.00429-.4732-4.38446,2.55328-6.24513,4.17852-4.29491,3.75144-7.01395-1.56609-9.97035-3.70462a13.32143,13.32143,0,0,0-3.44265-1.59989l-8.34269-2.94673a1.013,1.013,0,0,0-1.59862.98826l-.48755,3.6086c-5.134-10.34979-3.407-24.88078,7.72621-30.46319,3.77379-1.89225,7.79887-2.45774,11.5525-4.52117,7.50146-4.12365,20.64109-1.73623,27.68852,2.65763,11.02264,6.87229,15.617,19.80643,16.28048,32.23449a55.38346,55.38346,0,0,1-.78482,11.34467c-1.00937,6.51479-2.63791,14.28531-7.21927,19.32256a8.91006,8.91006,0,0,1-8.1969,2.79118c-3.10955-.61864-6.42022-.79831-9.48531-1.80625Q133.38124,75.80421,132.73913,75.52558Z"/><path class="fb0e9f06-5f87-495a-b9c6-62d71d1f83e9" d="M123.50774,130.00426q.05889-.49848.12026-.99289c.71581-5.76713.0765-10.02055-1.15128-15.82714a4.16413,4.16413,0,0,0-1.17709-2.51638c.175,9.28451-2.144,18.08695-2.70461,27.23445-1.621,26.44992,1.23717,52.80562-1.65319,79.18316a1.013,1.013,0,0,0,.08863.68229.9738.9738,0,0,0,.68.32913,7.82306,7.82306,0,0,0,3.42745-.19616,1.3206,1.3206,0,0,0,.75156-.43389,1.39981,1.39981,0,0,0,.18731-.72749c.35045-5.38579-.40551-11.06061-.452-16.48617-.0727-8.48925-.1454-16.97921-.04419-25.46867.10216-8.56924.382-17.13536.75051-25.69707a105.16186,105.16186,0,0,1,4.08449-29.42823,18.234,18.234,0,0,0,.91727-5.02356,13.70848,13.70848,0,0,0-4.44261,7.0264,33.98061,33.98061,0,0,0-1.34566-9.838"/><path class="fded7005-c1a8-4e5e-87ee-7a2ff8f228a7" d="M138.765,183.86692c-6.32885-1.75977-12.6516.68064-19.00848-.585-4.83423-.96294-10.02571-.64112-4.62544,4.75185-.06178-.06177-4.91288,1.33917-5.62885,1.38347-2.2064.13654-4.444-.499-6.48294.74675a7.07541,7.07541,0,0,0-3.04559,6.65586c.35862,3.84423,2.92973,7.4508,6.68781,8.26849,14.44091,3.1421,28.88113-4.18144,42.30166-11.34022A14.593,14.593,0,0,0,138.765,183.86692Z"/><path class="fb0e9f06-5f87-495a-b9c6-62d71d1f83e9" d="M174.82069,98.459c11.31344,10.8567,15.72181,26.92736,18.72981,42.31611,1.8489,9.45884,3.3808,18.99211,4.504,28.56519,2.0977,17.87939-25.3787,23.52688-37.44977,26.9971-8.73537,2.51127-18.06707,2.5881-26.56425,5.87834-2.63578-5.91393-3.65205-8.10079-5.006-14.43236-.267-1.24878-.47132-2.67889.30326-3.69415a4.56566,4.56566,0,0,1,1.97609-1.26619c3.98853-1.66148,45.46323-15.38536,44.604-19.222-3.288-14.68193-9.275-28.59188-14.816-42.52028-2.95591-7.4302-10.11983-21.31878-1.12385-26.86028,11.32071-6.97351,21.381,8.63757,23.15686,17.86309"/><path class="a6b58788-91c4-4c5c-bf5e-e551767a745e" d="M158.27113,17.39955l.52435-.72762a12.29751,12.29751,0,0,0-4.97949-.61368,12.01048,12.01048,0,0,0-3.15875.32784c-3.22594.93-5.14917,4.62036-4.72467,7.95073a11.50094,11.50094,0,0,0,5.62873,7.95054,6.16193,6.16193,0,0,0,1.82684.82578c2.37659.54863,4.76026-1.37223,5.60308-3.66107s.54085-4.81964.22758-7.23852l-.67444-5.20766.00637.13306"/><path class="fabb5714-bf63-46f1-a7c7-363151babccc" d="M156.304,37.78182a33.07792,33.07792,0,0,0-.647-7.95672c-1.72732-8.39318-5.97845-18.153.60236-25.57981,5.7132-6.44766,18.96039-4.72283,24.78125.50122a26.934,26.934,0,0,1,8.74627,21.50918,29.28024,29.28024,0,0,1-3.03351,11.31136c-1.93694,3.79861-4.6591,7.6733-2.95045,12.18722,1.38839,3.66787,5.4185,5.77667,6.9849,9.37213,2.15176,4.93907-.98009,11.03347,1.2823,15.92285,1.44929,3.13216,4.89448,5.17515,5.737,8.52185.93512,3.71447-.44911,8.61337-1.02555,12.30528.22344-1.43108-5.97911-5.9481-7.30965-6.45709-2.30569-.882-5.28941-.52833-7.73168-.924-5.98495-.9695-13.256-2.55938-16.449-8.3309-2.45332-4.43451-1.628-10.15413-4.19262-14.52523-1.912-3.25884-5.51444-5.39731-6.91968-8.9046-1.8495-4.61608.97523-9.30074,1.63927-13.83943A46.71011,46.71011,0,0,0,156.304,37.78182Z"/><path class="a0c99c7f-f929-4d4c-9678-190a0e3eb5ac" d="M121.46171,151.35872a79.9522,79.9522,0,0,0,13.06654.0925c3.1842-.14157,6.45343.26431,9.56817-.6025-2.62767.73128-4.95409,2.40466-7.43322,3.42539a82.67465,82.67465,0,0,1-9.25271,3.49016c-6.0074,1.667-12.315,1.87736-18.51153,1.96938a7.29274,7.29274,0,0,1-2.63176-.28465c-2.26172-.83-3.107-3.53475-3.59457-5.89408-.41272-1.99695-.57062-4.09022-1.0976-6.05458-.52645-1.96235-1.269-3.90534-1.88564-5.84548a4.14582,4.14582,0,0,1-.24616-1.132c3.28069,3.18743,6.38459,6.96854,10.98035,8.20129a93.96,93.96,0,0,0,10.7937,2.60207Q121.34028,151.344,121.46171,151.35872Z"/><rect class="af6fb618-aff6-4906-803b-23e6fd114897" x="143.14501" y="131.83865" width="1.13045" height="0.48507" transform="translate(287.42047 264.16237) rotate(-180)"/><path class="bea6a1e0-94eb-4c7a-b641-877c3f2ac733" d="M143.24853,131.45875h.92342a.23258.23258,0,0,1,.23258.23258v.25249a0,0,0,0,1,0,0h-1.38858a0,0,0,0,1,0,0v-.25249A.23258.23258,0,0,1,143.24853,131.45875Z" transform="translate(287.42047 263.40258) rotate(-180)"/><path class="b4202f9f-7a7a-407c-8d78-8095d1c230d3" d="M143.92387,139.09437l.568-.433c-.13491-.30632-.49364-.42211-.70073-.60778-.09263-.083-.18011-.16147-.25619-.24458l-.4203.38442a4.0663,4.0663,0,0,0,.29624.28436A2.30865,2.30865,0,0,1,143.92387,139.09437Z"/><path class="b4202f9f-7a7a-407c-8d78-8095d1c230d3" d="M144.165,134.68613a.28347.28347,0,0,0,.165-.05285c.12823-.09131.2726-.3071.18136-.43526a2.8434,2.8434,0,0,0-1.14-.74039.2848.2848,0,1,0-.23672.51807,1.90367,1.90367,0,0,1,.79819.59089A.28466.28466,0,0,0,144.165,134.68613Z"/><path class="af6fb618-aff6-4906-803b-23e6fd114897" d="M143.20449,131.01819h1.0115a.36657.36657,0,0,1,.36657.36657v.1185a0,0,0,0,1,0,0h-1.74463a0,0,0,0,1,0,0v-.1185A.36657.36657,0,0,1,143.20449,131.01819Z" transform="translate(287.42047 262.52145) rotate(-180)"/><path class="bea6a1e0-94eb-4c7a-b641-877c3f2ac733" d="M143.43082,141.28164a2.40931,2.40931,0,0,0,.59938.67685.02178.02178,0,0,0,.03753-.015l.12317-9.61979h-.96133l.14641,8.70271A.67071.67071,0,0,0,143.43082,141.28164Z"/><path class="b4202f9f-7a7a-407c-8d78-8095d1c230d3" d="M143.4521,140.90131a.87561.87561,0,0,1,.13945-.18692c.06426-.08018.18166-.184.26121-.27281.3605-.4025.91787-.9824.67934-1.6778-.01238-.03582-.02559-.06954-.04019-.10244l-.38471.19942s.02584.48729-.67877,1.20071a3.57828,3.57828,0,0,0-.23922.27677.84428.84428,0,0,0-.18206.32782c-.0812.331.21553.572.50133.76932A3.99615,3.99615,0,0,1,143.4521,140.90131Z"/><path class="b4202f9f-7a7a-407c-8d78-8095d1c230d3" d="M144.1441,135.00477a1.37861,1.37861,0,0,1-.41912.67106c-.05257.05181-.10779.10389-.16384.15688a1.78387,1.78387,0,0,0-.79081,1.76425,1.428,1.428,0,0,0,.34436.59644l.21095-.18588s-.00763-.50759-.00726-.51787a.2833.2833,0,0,0,.001-.04429c-.05128-.47244.17121-.7621.6331-1.19867.05869-.05556.11655-.11029.1719-.1646a1.46416,1.46416,0,0,0,.46078-1.77141q-.03505-.05821-.07386-.11266l-.3483.24761"/><path class="b4202f9f-7a7a-407c-8d78-8095d1c230d3" d="M144.163,134.44563a5.31157,5.31157,0,0,1-.01894.55914"/><path class="b4202f9f-7a7a-407c-8d78-8095d1c230d3" d="M145.31245,132.32374h-2.57479a4.29125,4.29125,0,0,0-.44916.01415.972.972,0,0,0-.14483.02385.66038.66038,0,0,0-.42817.36156.65025.65025,0,0,0,.097.57211.95777.95777,0,0,0,.2904.24314,1.81538,1.81538,0,0,0,.38439.18173c.21627.079.44.16078.64728.25549l.1184-.25907-.00525-.31361c-.12518-.05336-.25217-.10233-.37968-.14981a1.07144,1.07144,0,0,1-.36033-.178.09089.09089,0,0,1-.03512-.0643.06913.06913,0,0,1,.03143-.05253.17285.17285,0,0,1,.0586-.02349,1.22645,1.22645,0,0,1,.3109-.01359h2.34867a.23381.23381,0,0,0,.05341,0c.005-.00132.01681.003.02088,0,.02309-.01664.01371-.10608.016-.13528.00561-.07311,0-.14889,0-.22225C145.31245,132.48385,145.31267,132.4038,145.31245,132.32374Z"/><ellipse class="b4202f9f-7a7a-407c-8d78-8095d1c230d3" cx="145.81537" cy="132.63211" rx="0.79072" ry="0.45807"/><path class="bea6a1e0-94eb-4c7a-b641-877c3f2ac733" d="M145.83373,129.64367a2.2258,2.2258,0,0,1-4.247,0s1.606.07479,2.12349.07479C144.25447,129.71846,145.83373,129.64367,145.83373,129.64367Z"/></g></g></svg>