<svg xmlns="http://www.w3.org/2000/svg" xmlns:xlink="http://www.w3.org/1999/xlink" viewBox="0 0 198.76596 185.44233"><defs><style>.b6afeaea-b337-4a77-97d3-3353072e055b{fill:none;}.ac3cc764-f982-497c-8db8-3e73bb8f1bc5{clip-path:url(#b802bcc9-f410-44c0-a0d1-ef962791e296);}.fb8c5d24-0b2a-4bde-9969-efb7a56d9388{fill:#566345;}.b495fcd3-a201-42d2-a4c4-86ba6b972a7e{fill:#f6d2ba;}.aaa91702-7e12-4591-a90c-394c73cac481{fill:#fff;}.af00d30d-175a-492d-99ee-dd938698fc17{fill:#63774e;}.a8acf6c1-55b7-4f82-b521-ee9de990da65{fill:#3c2415;}.b5408959-f160-40a3-aab6-1544c502c70f{fill:#6f825a;}.ef7a3224-6550-4188-b581-78aa369e1f26{fill:#231f20;}.b1f51aae-cb7d-4ddc-9564-20a254092fec{fill:#bcbec0;}.f1f6cfed-99ba-47e7-8eec-f2b62041188f{fill:#d1d3d4;}.f59e6718-1517-4582-a141-6a1d56217786{fill:#e6e7e8;}</style><clipPath id="b802bcc9-f410-44c0-a0d1-ef962791e296"><rect class="b6afeaea-b337-4a77-97d3-3353072e055b" x="47.0683" y="-17.90426" width="151.69766" height="204.35191"/></clipPath></defs><title>Artboard 6 copy</title><g id="ad597600-9962-49f0-9726-e8acdc3392cb" data-name="Layer 1"><g class="ac3cc764-f982-497c-8db8-3e73bb8f1bc5"><path class="fb8c5d24-0b2a-4bde-9969-efb7a56d9388" d="M85.53637,149.64673l-5.63569,40.402c3.84746,2.56239,9.35773,1.04146,12.56054-2.29183s4.57907-7.99233,5.51167-12.51992c2.41034-11.7017,2.55911-23.71392,2.04947-35.60715-.21858-5.10093-1.07209-10.18874.19945-15.17071a107.54539,107.54539,0,0,0,2.68252-13.6226c.84546-6.77594,3.85585-12.787,5.11881-19.55933.227-1.217.1652-2.87043-1.02655-3.20575a2.59138,2.59138,0,0,0-1.66533.29648c-11.40081,4.8214-13.80574,18.34294-15.33036,29.27281Z"/><path class="b495fcd3-a201-42d2-a4c4-86ba6b972a7e" d="M87.94756,41.26612C89.613,29.8227,93.49236,19.84781,106.491,15.692c6.67812-2.13509,14.02889-1.4031,20.64889.90595a25.92362,25.92362,0,0,1,9.9776,5.82823c3.546,3.55889,5.4548,8.45908,6.44265,13.385,1.87832,9.36615,2.05469,22.91327-3.67857,31.08366-2.03229,2.89618-10.17307,3.79439-9.52883,7.27333.86379,4.66444.88781,12.3856.51828,18.31225-.0666,1.06814-1.09374,2.42878-.55993,3.35636a9.21414,9.21414,0,0,0,1.85094,1.874,8.72448,8.72448,0,0,1,2.27422,7.54936c-.78953,5.4136-5.46935,10.84993-9.12781,14.67422a17.90582,17.90582,0,0,1-7.051,4.92979,2.24729,2.24729,0,0,1-1.457.10926,2.43833,2.43833,0,0,1-1.108-1.12188,54.54959,54.54959,0,0,1-6.41375-15.12058c-.83324-3.26651-1.37619-6.75763-.42942-10.06237.7088-2.47409,2.31242-4.46275,2.64017-7.06348.48954-3.88457-.42943-11.09654-5.26788-11.74507l-9.56578-1.28218c-12.569-1.68471-10.34-20.46314-9.58108-29.34077C87.3054,46.53825,87.56942,43.86433,87.94756,41.26612Z"/><path class="aaa91702-7e12-4591-a90c-394c73cac481" d="M109.46185,91.86806c1.34726.10251,1.545,1.9726,1.86363,2.92555.55891,1.67164,1.47708,3.29966,2.19781,4.90952.72821,1.62656,1.69391,3.45331,3.4385,3.81719a5.40167,5.40167,0,0,0,3.84227-1.1753,68.87445,68.87445,0,0,0,8.31723-6.85172c.40779-.36016,5.69873-5.41324,5.98138-4.83375,1.90315,3.902.63438,9.05921.74746,13.252q.18715,6.93778.26308,13.878c.10389,9.15873.07486,18.31854-.03735,27.477-.11227,9.16322-.30852,18.32517-.53342,27.48624-.05967,2.43059.13969,27.1493-.70687,27.30885a108.57954,108.57954,0,0,1-37.02254.53735q-.26-12.09039-.05985-24.18481.52632-31.81978,4.22712-63.48122a75.59844,75.59844,0,0,1,2.77215-14.50832c.5537-1.71535,1.73878-4.96207,3.24249-6.01892A2.33176,2.33176,0,0,1,109.46185,91.86806Z"/><path class="af00d30d-175a-492d-99ee-dd938698fc17" d="M163.31835,94.4436a100.518,100.518,0,0,0-22.841-8.75836c-2.63949-.65719-5.75144-1.10344-7.80493.68037a8.95465,8.95465,0,0,0-2.24655,4.144c-.00009,6.80065-4.252,12.00853-8.06006,17.07474-3.33858,4.44162-5.22009,9.09876-7.41146,14.08478-1.41133-6.03819-1.92977-12.36179-2.63461-18.5191-.55678-4.86391-1.58282-10.61086-.66134-15.46726.1037-.54654-5.06153,1.56371-5.55958,2.02263a18.72045,18.72045,0,0,0-3.68482,5.86132,35.92835,35.92835,0,0,0-2.25683,8.57275c-1.80757,11.46353-12.6238,18.91206-11.00991,31.36016.65846,5.07881,3.15379,9.502,3.76372,14.54238.72933,6.02706,2.91224,11.73514,3.27387,17.86358.41244,6.98944-1.96739,12.99066-2.612,19.77715q-1.19685,12.601-1.59247,25.26129c-.06934,2.2124.03137,4.76755,1.7717,6.13531,1.64846,1.29555,4.00358.91824,6.06525.53694,11.19943-2.0713,21.88445-.31884,32.99354-1.177a184.05733,184.05733,0,0,0,26.63733-4.20172c-5.16135-24.36193.47871-48.09823,1.391-72.38177l1.75624-46.7511"/><path class="a8acf6c1-55b7-4f82-b521-ee9de990da65" d="M123.91238,75.45711A16.44779,16.44779,0,0,1,115.74,67.655c-1.569-3.25208-1.98092-9.19269.94193-11.83317,2.08065-1.87964,3.9175-4.49884,4.09506-7.43718.12008-1.98714-1.07037-4.20612-3.037-4.51591-3.00429-.4732-4.38446,2.55328-6.24513,4.17852-4.2949,3.75144-7.01394-1.5661-9.97034-3.70463a13.322,13.322,0,0,0-3.44266-1.59988L89.7392,39.796a1.013,1.013,0,0,0-1.59862.98825L87.653,44.39284c-5.134-10.34979-3.407-24.88078,7.7262-30.46319,3.7738-1.89226,7.79887-2.45774,11.55251-4.52117,7.50145-4.12365,20.64109-1.73623,27.68852,2.65763,11.02263,6.87228,15.617,19.80643,16.28047,32.23449a55.38191,55.38191,0,0,1-.78482,11.34466c-1.00936,6.5148-2.63791,14.28531-7.21927,19.32257a8.91,8.91,0,0,1-8.19689,2.79118c-3.10955-.61864-6.42023-.79831-9.48532-1.80625Q124.55449,75.73574,123.91238,75.45711Z"/><path class="b5408959-f160-40a3-aab6-1544c502c70f" d="M114.681,129.93579q.05889-.49849.12026-.99289c.71581-5.76713.0765-10.02055-1.15129-15.82715a4.16412,4.16412,0,0,0-1.17708-2.51637c.175,9.2845-2.144,18.087-2.70461,27.23444-1.621,26.44992,1.23716,52.80563-1.65319,79.18317a1.013,1.013,0,0,0,.08863.68229.97375.97375,0,0,0,.67995.32912,7.82275,7.82275,0,0,0,3.42745-.19616,1.32051,1.32051,0,0,0,.75157-.43389,1.39975,1.39975,0,0,0,.1873-.72749c.35046-5.38578-.4055-11.06061-.452-16.48616-.0727-8.48925-.14539-16.97921-.04419-25.46867.10217-8.56924.382-17.13537.75052-25.69708a105.16215,105.16215,0,0,1,4.08448-29.42822,18.23408,18.23408,0,0,0,.91728-5.02356,13.70852,13.70852,0,0,0-4.44262,7.0264,33.98027,33.98027,0,0,0-1.34566-9.838"/><path class="b5408959-f160-40a3-aab6-1544c502c70f" d="M162.84992,95.62386c13.79766,7.44891,22.32956,21.76347,29.33,35.794,4.30289,8.624,8.32008,17.40422,11.95392,26.33173,6.78684,16.67369-18.19071,29.43961-28.90036,36.00136-7.75016,4.74848-16.72388,7.30951-24.03686,12.74532-4.11657-4.99758-5.6789-6.8345-8.67126-12.57625-.59018-1.13245-1.16822-2.45639-.69222-3.64136a4.56553,4.56553,0,0,1,1.56716-1.747c3.40148-2.66437,39.71863-26.94524,37.868-30.41414-7.082-13.27463-16.5595-25.08593-25.61216-37.03384-4.82921-6.3737-15.43545-17.85072-8.24168-25.5893,9.05277-9.73836,22.90967,2.627,27.08,11.04553"/><path class="ef7a3224-6550-4188-b581-78aa369e1f26" d="M149.44438,17.33108l.52435-.72762a12.29748,12.29748,0,0,0-4.97949-.61368,12.01057,12.01057,0,0,0-3.15875.32784c-3.22594.92995-5.14917,4.62036-4.72467,7.95072a11.501,11.501,0,0,0,5.62873,7.95054,6.162,6.162,0,0,0,1.82685.82579c2.37658.54863,4.76026-1.37223,5.60308-3.66107s.54084-4.81964.22758-7.23853l-.67444-5.20765.00637.13306"/><path class="a8acf6c1-55b7-4f82-b521-ee9de990da65" d="M147.47727,37.71335a33.07842,33.07842,0,0,0-.647-7.95672c-1.72732-8.39318-5.97845-18.153.60236-25.57981C153.14586-2.27085,166.393-.546,172.21391,4.678a26.934,26.934,0,0,1,8.74627,21.50917,29.28017,29.28017,0,0,1-3.03352,11.31137c-1.93693,3.79861-4.65909,7.6733-2.95045,12.18722,1.3884,3.66787,5.41851,5.77666,6.98491,9.37212,2.15175,4.93907-.9801,11.03347,1.28229,15.92286,1.4493,3.13216,4.89448,5.17515,5.737,8.52185.93513,3.71447-.44911,8.61336-1.02555,12.30528.22345-1.43108-5.9791-5.94811-7.30965-6.4571-2.30569-.882-5.2894-.52832-7.73167-.92394-5.985-.9695-13.256-2.55938-16.449-8.33091-2.45332-4.4345-1.628-10.15412-4.19262-14.52522-1.912-3.25884-5.51444-5.39731-6.91968-8.9046-1.84949-4.61608.97523-9.30075,1.63928-13.83943A46.70782,46.70782,0,0,0,147.47727,37.71335Z"/><path class="fb8c5d24-0b2a-4bde-9969-efb7a56d9388" d="M112.635,151.29025a79.95345,79.95345,0,0,0,13.06655.0925c3.1842-.14157,6.45342.2643,9.56816-.6025-2.62766.73127-4.95408,2.40466-7.43321,3.42539a82.67279,82.67279,0,0,1-9.25272,3.49015c-6.00739,1.667-12.315,1.87737-18.51153,1.96939a7.29269,7.29269,0,0,1-2.63175-.28465c-2.26172-.83-3.107-3.53475-3.59458-5.89409-.41272-1.99694-.57062-4.09021-1.0976-6.05457-.52644-1.96235-1.269-3.90535-1.88563-5.84548a4.14516,4.14516,0,0,1-.24616-1.132c3.28068,3.18743,6.38458,6.96854,10.98034,8.20129a93.96255,93.96255,0,0,0,10.7937,2.60207Q112.51355,151.27556,112.635,151.29025Z"/><rect class="b1f51aae-cb7d-4ddc-9564-20a254092fec" x="134.31827" y="131.77018" width="1.13045" height="0.48507" transform="translate(269.76698 264.02542) rotate(-180)"/><path class="f1f6cfed-99ba-47e7-8eec-f2b62041188f" d="M134.42178,131.39028h.92342a.23258.23258,0,0,1,.23258.23258v.25249a0,0,0,0,1,0,0H134.1892a0,0,0,0,1,0,0v-.25249a.23258.23258,0,0,1,.23258-.23258Z" transform="translate(269.76698 263.26563) rotate(-180)"/><path class="f59e6718-1517-4582-a141-6a1d56217786" d="M135.09712,139.0259l.568-.433c-.1349-.30633-.49363-.42211-.70072-.60778-.09263-.083-.18011-.16148-.25619-.24458l-.4203.38442a4.062,4.062,0,0,0,.29624.28435A2.3088,2.3088,0,0,1,135.09712,139.0259Z"/><path class="f59e6718-1517-4582-a141-6a1d56217786" d="M135.33829,134.61766a.28347.28347,0,0,0,.165-.05285c.12823-.09131.2726-.3071.18136-.43526a2.84352,2.84352,0,0,0-1.14005-.74039.28479.28479,0,1,0-.23671.51807,1.90363,1.90363,0,0,1,.79818.59089A.28471.28471,0,0,0,135.33829,134.61766Z"/><path class="b1f51aae-cb7d-4ddc-9564-20a254092fec" d="M134.37774,130.94972h1.0115a.36657.36657,0,0,1,.36657.36657v.1185a0,0,0,0,1,0,0h-1.74463a0,0,0,0,1,0,0v-.1185A.36657.36657,0,0,1,134.37774,130.94972Z" transform="translate(269.76698 262.3845) rotate(-180)"/><path class="f1f6cfed-99ba-47e7-8eec-f2b62041188f" d="M134.60407,141.21317a2.40961,2.40961,0,0,0,.59938.67685.02178.02178,0,0,0,.03754-.015l.12317-9.61979h-.96133l.14641,8.70271A.6707.6707,0,0,0,134.60407,141.21317Z"/><path class="f59e6718-1517-4582-a141-6a1d56217786" d="M134.62536,140.83284a.87591.87591,0,0,1,.13945-.18693c.06425-.08017.18166-.184.26121-.2728.3605-.4025.91786-.9824.67934-1.67781-.01238-.03581-.02559-.06954-.0402-.10243l-.3847.19942s.02584.48729-.67878,1.20071a3.57828,3.57828,0,0,0-.23922.27677.84431.84431,0,0,0-.18206.32781c-.08119.331.21554.572.50133.76933A3.99642,3.99642,0,0,1,134.62536,140.83284Z"/><path class="f59e6718-1517-4582-a141-6a1d56217786" d="M135.31735,134.93629a1.37855,1.37855,0,0,1-.41912.67107c-.05257.05181-.10778.10389-.16383.15688a1.78387,1.78387,0,0,0-.79082,1.76424,1.42805,1.42805,0,0,0,.34437.59645l.21094-.18588s-.00763-.5076-.00726-.51788a.282.282,0,0,0,.001-.04428c-.05127-.47244.17121-.7621.6331-1.19867.05869-.05557.11655-.1103.17191-.16461a1.46416,1.46416,0,0,0,.46077-1.77141q-.03505-.0582-.07385-.11265l-.3483.24761"/><path class="f59e6718-1517-4582-a141-6a1d56217786" d="M135.3363,134.37716a5.312,5.312,0,0,1-.01895.55913"/><path class="f59e6718-1517-4582-a141-6a1d56217786" d="M136.4857,132.25527h-2.57479a4.28861,4.28861,0,0,0-.44916.01415.97216.97216,0,0,0-.14483.02385.66035.66035,0,0,0-.42816.36155.65029.65029,0,0,0,.097.57212.95789.95789,0,0,0,.2904.24314,1.81522,1.81522,0,0,0,.3844.18173c.21627.079.44.16078.64728.25549l.1184-.25907-.00526-.31362c-.12518-.05335-.25217-.10233-.37968-.1498a1.07158,1.07158,0,0,1-.36032-.178.09087.09087,0,0,1-.03513-.0643.06921.06921,0,0,1,.03143-.05254.17311.17311,0,0,1,.05861-.02349,1.22683,1.22683,0,0,1,.31089-.01358h2.34867a.23447.23447,0,0,0,.05342,0c.005-.00132.0168.003.02087,0,.02309-.01664.01372-.10608.016-.13529.00561-.0731,0-.14889,0-.22224C136.4857,132.41538,136.48592,132.33533,136.4857,132.25527Z"/><ellipse class="f59e6718-1517-4582-a141-6a1d56217786" cx="136.98862" cy="132.56364" rx="0.79072" ry="0.45807"/><path class="f1f6cfed-99ba-47e7-8eec-f2b62041188f" d="M137.007,129.5752a2.2258,2.2258,0,0,1-4.247,0s1.606.07479,2.12349.07479C135.42773,129.65,137.007,129.5752,137.007,129.5752Z"/></g></g></svg>