<svg xmlns="http://www.w3.org/2000/svg" xmlns:xlink="http://www.w3.org/1999/xlink" viewBox="0 0 198.76596 185.44233"><defs><style>.e44d9b96-5f63-4278-93d1-edf5e753eddd{fill:none;}.bbae3464-aa82-4cf1-a573-0e546b377ded{clip-path:url(#f22fcede-052e-44a8-a7cd-fc3ee8181acd);}.f12cd9ec-b362-41a0-ba32-a864814c0ab7{fill:#f6d2ba;}.a098c19f-8b63-4d91-b348-d26614e19e24{fill:#566345;}.f3e3c23a-0a38-4cc2-b643-20c55c738bf8{fill:#fff;}.f8f8d944-3684-440a-9d44-414221a1d52c{fill:#63774e;}.bcce1843-a0bd-4e00-8c18-83aea570177b{fill:#3c2415;}.bd4c44d9-f1ff-4594-98f7-090ceddeddcd{fill:#6f825a;}.f58a4ae8-bde7-46da-9fdb-ff8c9bd60036{fill:#231f20;}.e84e40f1-d290-4a04-ab4a-1abf192e9d91{fill:#bcbec0;}.a475b144-4667-41ed-aa0f-24e6e4bee8f9{fill:#d1d3d4;}.e05e65f0-eea1-4744-b367-50de8c1f21a7{fill:#e6e7e8;}</style><clipPath id="f22fcede-052e-44a8-a7cd-fc3ee8181acd"><rect class="e44d9b96-5f63-4278-93d1-edf5e753eddd" x="-16.44304" y="-12.6095" width="223.65957" height="198.05183"/></clipPath></defs><title>Artboard 6</title><g id="f0663829-ddfb-4894-ba69-ca2d4c03b72c" data-name="Layer 1"><g class="bbae3464-aa82-4cf1-a573-0e546b377ded"><path class="f12cd9ec-b362-41a0-ba32-a864814c0ab7" d="M36.69575,128.24062c-2.61119-5.81389-8.35284-9.0188-11.35013-14.54723-2.279-4.20448-5.73827-7.8789-6.414-.50508.00779-.0844-4.04567-2.8357-4.52269-3.3425-1.47-1.56179-2.38323-3.62564-4.57714-4.37464a6.86473,6.86473,0,0,0-6.85522,1.85446C.33028,109.977-.76672,114.1319.95339,117.44327c6.60976,12.7244,21.02873,18.95882,34.69247,24.53448A14.15845,14.15845,0,0,0,36.69575,128.24062Z"/><path class="a098c19f-8b63-4d91-b348-d26614e19e24" d="M66.13211,145.895c-1.6553.50168-3.53763-.56025-7.07239-3.31029a269.13944,269.13944,0,0,1-27.28284-24.23847c-1.58453-1.6215-15.79249,12.48-15.29888,15.07868,1.05866,5.57336,13.85959,14.6683,18.04408,18.34165,9.51215,8.35023,30.15048,31.94664,43.68186,19.33609,8.835-8.23376,15.20518-20.099,24.86009-26.88563a12.67377,12.67377,0,0,0,3.78937-3.36484,14.20012,14.20012,0,0,0,1.59094-5.72431q1.59544-12.05964,3.10427-24.1306c.84546-6.77595,3.85585-12.787,5.11881-19.55933.227-1.217.1652-2.87043-1.02655-3.20576a2.59115,2.59115,0,0,0-1.6652.29644c-4.95067,2.0936-7.61323,5.2718-10.90278,9.3209-6.76488,8.3272-13.2953,16.849-19.463,25.629-3.77213,5.36977-7.55095,10.73722-11.49578,15.9823C69.31256,143.18578,67.8437,145.37629,66.13211,145.895Z"/><path class="f12cd9ec-b362-41a0-ba32-a864814c0ab7" d="M96.59184,41.42692c1.66548-11.44342,5.5448-21.41831,18.54342-25.57415,6.67812-2.13509,14.02889-1.40311,20.64889.90594a25.92365,25.92365,0,0,1,9.9776,5.82824c3.546,3.55889,5.4548,8.45907,6.44265,13.38495,1.87832,9.36614,2.05469,22.91327-3.67857,31.08366-2.03229,2.89618-10.17307,3.79439-9.52883,7.27333.86379,4.66444.88781,12.38559.51828,18.31225-.0666,1.06813-1.09374,2.42878-.55993,3.35636a9.21414,9.21414,0,0,0,1.85094,1.87395,8.72448,8.72448,0,0,1,2.27422,7.54936c-.78953,5.4136-5.46935,10.84993-9.12781,14.67422a17.90582,17.90582,0,0,1-7.051,4.92979,2.24735,2.24735,0,0,1-1.457.10926,2.43831,2.43831,0,0,1-1.108-1.12189,54.5494,54.5494,0,0,1-6.41375-15.12057c-.83324-3.26651-1.37619-6.75763-.42942-10.06237.7088-2.47409,2.31242-4.46275,2.64017-7.06348.48954-3.88457-.42943-11.09654-5.26788-11.74507L105.3,78.73852c-12.569-1.68471-10.34-20.46314-9.58108-29.34077C95.94968,46.69905,96.2137,44.02513,96.59184,41.42692Z"/><path class="f3e3c23a-0a38-4cc2-b643-20c55c738bf8" d="M118.10613,92.02886c1.34726.10251,1.545,1.9726,1.86363,2.92555.55891,1.67164,1.47708,3.29966,2.1978,4.90951.72822,1.62657,1.69392,3.45332,3.43851,3.8172a5.40168,5.40168,0,0,0,3.84227-1.1753,68.87539,68.87539,0,0,0,8.31723-6.85172c.40779-.36016,5.69873-5.41325,5.98138-4.83375,1.90315,3.902.63438,9.0592.74746,13.25194q.18716,6.93779.26308,13.878c.10389,9.15872.07486,18.31854-.03735,27.477-.11227,9.16322-.30852,18.32517-.53342,27.48624-.05967,2.43059.13969,27.1493-.70687,27.30885a108.57928,108.57928,0,0,1-37.02254.53734q-.26-12.09037-.05985-24.1848.52632-31.81978,4.22712-63.48122a75.59844,75.59844,0,0,1,2.77215-14.50832c.5537-1.71535,1.73878-4.96207,3.24249-6.01893A2.33174,2.33174,0,0,1,118.10613,92.02886Z"/><path class="f8f8d944-3684-440a-9d44-414221a1d52c" d="M171.96263,94.6044a100.51849,100.51849,0,0,0-22.841-8.75837c-2.63949-.65718-5.75144-1.10343-7.80493.68038a8.95462,8.95462,0,0,0-2.24655,4.144c-.00009,6.80066-4.252,12.00854-8.06006,17.07475-3.33858,4.44162-5.22009,9.09876-7.41146,14.08477-1.41133-6.03818-1.92977-12.36178-2.63461-18.51909-.55678-4.86391-1.58282-10.61086-.66134-15.46727.1037-.54653-5.06153,1.56372-5.55958,2.02264a18.72033,18.72033,0,0,0-3.68482,5.86132,35.92835,35.92835,0,0,0-2.25683,8.57275c-1.80757,11.46353-12.6238,18.91205-11.00991,31.36016.65846,5.07881,3.15379,9.502,3.76372,14.54238.72933,6.02706,2.91224,11.73514,3.27387,17.86357.41244,6.98945-1.96739,12.99067-2.612,19.77716q-1.19685,12.601-1.59247,25.26129c-.06934,2.2124.03137,4.76755,1.7717,6.13531,1.64846,1.29555,4.00358.91824,6.06525.53694,11.19943-2.0713,21.88445-.31884,32.99354-1.177a184.05733,184.05733,0,0,0,26.63733-4.20172c-5.16135-24.36193.47871-48.09823,1.391-72.38177l1.75624-46.7511"/><path class="bcce1843-a0bd-4e00-8c18-83aea570177b" d="M132.55666,75.61791a16.44779,16.44779,0,0,1-8.1724-7.80215c-1.569-3.25208-1.98092-9.19269.94193-11.83317,2.08065-1.87964,3.9175-4.49884,4.09506-7.43718.12008-1.98714-1.07037-4.20612-3.037-4.51591-3.00429-.4732-4.38446,2.55328-6.24513,4.17851-4.2949,3.75145-7.01394-1.56609-9.97035-3.70462a13.32141,13.32141,0,0,0-3.44265-1.59988l-8.34268-2.94673a1.013,1.013,0,0,0-1.59862.98825l-.48755,3.60861c-5.134-10.34979-3.407-24.88078,7.7262-30.46319,3.7738-1.89226,7.79887-2.45774,11.55251-4.52117,7.50145-4.12365,20.64109-1.73624,27.68852,2.65763,11.02263,6.87228,15.617,19.80643,16.28047,32.23449a55.38191,55.38191,0,0,1-.78482,11.34466c-1.00936,6.5148-2.63791,14.28531-7.21927,19.32257a8.91006,8.91006,0,0,1-8.19689,2.79118c-3.10955-.61864-6.42023-.79832-9.48532-1.80626Q133.19877,75.89653,132.55666,75.61791Z"/><path class="bd4c44d9-f1ff-4594-98f7-090ceddeddcd" d="M123.32528,130.09659q.05889-.49849.12026-.99289c.71581-5.76713.0765-10.02055-1.15129-15.82715a4.16412,4.16412,0,0,0-1.17708-2.51637c.175,9.2845-2.144,18.08695-2.70461,27.23444-1.621,26.44992,1.23716,52.80563-1.65319,79.18317a1.013,1.013,0,0,0,.08863.68229.97375.97375,0,0,0,.68.32912,7.8229,7.8229,0,0,0,3.42745-.19616,1.32062,1.32062,0,0,0,.75157-.43389,1.39975,1.39975,0,0,0,.1873-.72749c.35046-5.38578-.4055-11.06061-.452-16.48616-.0727-8.48925-.14539-16.97921-.04419-25.46867.10217-8.56924.382-17.13537.75052-25.69708a105.16215,105.16215,0,0,1,4.08448-29.42822,18.23415,18.23415,0,0,0,.91728-5.02357,13.70859,13.70859,0,0,0-4.44262,7.02641,33.98027,33.98027,0,0,0-1.34566-9.838"/><path class="f12cd9ec-b362-41a0-ba32-a864814c0ab7" d="M138.53737,181.21183c-6.32886-1.75977-12.6516.68064-19.00849-.585-4.83422-.96294-10.0257-.64112-4.62543,4.75185-.06178-.06177-4.91288,1.33917-5.62886,1.38347-2.2064.13654-4.444-.499-6.48293.74675a7.07541,7.07541,0,0,0-3.04559,6.65586c.35862,3.84423,2.92973,7.4508,6.6878,8.26849,14.44091,3.1421,28.88114-4.18144,42.30167-11.34022A14.593,14.593,0,0,0,138.53737,181.21183Z"/><path class="bd4c44d9-f1ff-4594-98f7-090ceddeddcd" d="M174.593,95.80392c11.31343,10.8567,15.72181,26.92736,18.72981,42.31611,1.84889,9.45884,3.3808,18.99211,4.504,28.56519,2.09769,17.87939-25.3787,23.52688-37.44977,26.9971-8.73537,2.51127-18.06707,2.5881-26.56425,5.87834-2.63578-5.91393-3.65206-8.10079-5.006-14.43236-.267-1.24878-.47133-2.67889.30326-3.69415a4.56568,4.56568,0,0,1,1.97608-1.26619c3.98854-1.66148,45.46324-15.38536,44.604-19.222-3.288-14.68193-9.275-28.59188-14.816-42.52028-2.9559-7.4302-10.11983-21.31878-1.12384-26.86028,11.3207-6.97351,21.381,8.63757,23.15686,17.86309"/><path class="f58a4ae8-bde7-46da-9fdb-ff8c9bd60036" d="M158.08866,17.49188l.52435-.72762a12.29748,12.29748,0,0,0-4.97949-.61368,12.01015,12.01015,0,0,0-3.15875.32784c-3.22594.93-5.14917,4.62036-4.72467,7.95072a11.501,11.501,0,0,0,5.62873,7.95054,6.162,6.162,0,0,0,1.82685.82579c2.37658.54863,4.76026-1.37223,5.60308-3.66107s.54084-4.81964.22758-7.23853l-.67444-5.20765.00637.133"/><path class="bcce1843-a0bd-4e00-8c18-83aea570177b" d="M156.12155,37.87415a33.07837,33.07837,0,0,0-.647-7.95672c-1.72732-8.39318-5.97845-18.153.60235-25.57981,5.71321-6.44767,18.96039-4.72283,24.78126.50122A26.934,26.934,0,0,1,189.60446,26.348a29.28007,29.28007,0,0,1-3.03352,11.31136c-1.93693,3.79862-4.65909,7.67331-2.95045,12.18722,1.3884,3.66788,5.41851,5.77667,6.98491,9.37213,2.15175,4.93907-.9801,11.03347,1.28229,15.92285,1.4493,3.13216,4.89448,5.17516,5.737,8.52186.93513,3.71446-.44911,8.61336-1.02555,12.30528.22345-1.43108-5.9791-5.94811-7.30965-6.4571-2.30569-.882-5.2894-.52833-7.73167-.924-5.985-.96949-13.256-2.55937-16.449-8.3309-2.45332-4.4345-1.628-10.15412-4.19262-14.52522-1.912-3.25885-5.51444-5.39731-6.91968-8.90461-1.84949-4.61607.97523-9.30074,1.63928-13.83942A46.70805,46.70805,0,0,0,156.12155,37.87415Z"/><path class="a098c19f-8b63-4d91-b348-d26614e19e24" d="M121.27924,151.45105a79.95344,79.95344,0,0,0,13.06655.0925c3.1842-.14157,6.45342.2643,9.56816-.60251-2.62766.73128-4.95408,2.40467-7.43321,3.4254a82.67474,82.67474,0,0,1-9.25272,3.49015c-6.00739,1.667-12.315,1.87737-18.51153,1.96939a7.29247,7.29247,0,0,1-2.63175-.28466c-2.26172-.83-3.107-3.53474-3.59458-5.89408-.41272-1.99694-.57062-4.09021-1.0976-6.05457-.52644-1.96235-1.269-3.90535-1.88563-5.84548a4.14524,4.14524,0,0,1-.24616-1.132c3.28068,3.18743,6.38458,6.96854,10.98034,8.20129a93.96255,93.96255,0,0,0,10.7937,2.60207Q121.15783,151.43636,121.27924,151.45105Z"/><rect class="e84e40f1-d290-4a04-ab4a-1abf192e9d91" x="142.96255" y="131.93098" width="1.13045" height="0.48507" transform="translate(287.05554 264.34702) rotate(-180)"/><path class="a475b144-4667-41ed-aa0f-24e6e4bee8f9" d="M143.06606,131.55108h.92342a.23258.23258,0,0,1,.23258.23258v.25249a0,0,0,0,1,0,0h-1.38858a0,0,0,0,1,0,0v-.25249A.23258.23258,0,0,1,143.06606,131.55108Z" transform="translate(287.05554 263.58723) rotate(-180)"/><path class="e05e65f0-eea1-4744-b367-50de8c1f21a7" d="M143.7414,139.1867l.568-.433c-.1349-.30633-.49363-.42211-.70072-.60779-.09263-.083-.18011-.16147-.25619-.24457l-.4203.38442a4.0641,4.0641,0,0,0,.29624.28435A2.30864,2.30864,0,0,1,143.7414,139.1867Z"/><path class="e05e65f0-eea1-4744-b367-50de8c1f21a7" d="M143.98257,134.77846a.28347.28347,0,0,0,.16495-.05285c.12823-.09131.2726-.3071.18136-.43526a2.84363,2.84363,0,0,0-1.14005-.7404.2848.2848,0,1,0-.23671.51808,1.90363,1.90363,0,0,1,.79818.59089A.28469.28469,0,0,0,143.98257,134.77846Z"/><path class="e84e40f1-d290-4a04-ab4a-1abf192e9d91" d="M143.022,131.11052h1.0115a.36657.36657,0,0,1,.36657.36657v.1185a0,0,0,0,1,0,0h-1.74463a0,0,0,0,1,0,0v-.1185A.36657.36657,0,0,1,143.022,131.11052Z" transform="translate(287.05554 262.7061) rotate(-180)"/><path class="a475b144-4667-41ed-aa0f-24e6e4bee8f9" d="M143.24835,141.374a2.40953,2.40953,0,0,0,.59938.67686.02178.02178,0,0,0,.03754-.015l.12317-9.61979h-.96133l.14641,8.70271A.67047.67047,0,0,0,143.24835,141.374Z"/><path class="e05e65f0-eea1-4744-b367-50de8c1f21a7" d="M143.26964,140.99364a.87591.87591,0,0,1,.13945-.18693c.06425-.08017.18166-.184.26121-.2728.36049-.4025.91786-.9824.67934-1.67781-.01238-.03581-.02559-.06954-.0402-.10243l-.3847.19941s.02584.4873-.67878,1.20072a3.57828,3.57828,0,0,0-.23922.27677.84431.84431,0,0,0-.18206.32781c-.08119.331.21554.572.50133.76933A3.99642,3.99642,0,0,1,143.26964,140.99364Z"/><path class="e05e65f0-eea1-4744-b367-50de8c1f21a7" d="M143.96163,135.09709a1.37855,1.37855,0,0,1-.41912.67107c-.05257.0518-.10778.10389-.16383.15688a1.78387,1.78387,0,0,0-.79082,1.76424,1.42805,1.42805,0,0,0,.34437.59645l.21094-.18588s-.00763-.5076-.00726-.51788a.28208.28208,0,0,0,.001-.04429c-.05127-.47243.17121-.76209.6331-1.19867.05869-.05556.11655-.11029.17191-.1646a1.46416,1.46416,0,0,0,.46077-1.77141q-.03505-.0582-.07385-.11265l-.3483.2476"/><path class="e05e65f0-eea1-4744-b367-50de8c1f21a7" d="M143.98058,134.538a5.31213,5.31213,0,0,1-.01895.55914"/><path class="e05e65f0-eea1-4744-b367-50de8c1f21a7" d="M145.13,132.41607h-2.57479a4.29133,4.29133,0,0,0-.44916.01414.97218.97218,0,0,0-.14483.02386.66035.66035,0,0,0-.42816.36155.65029.65029,0,0,0,.097.57212.95789.95789,0,0,0,.2904.24314,1.81538,1.81538,0,0,0,.38439.18173c.21628.079.44006.16078.64729.25549l.1184-.25907-.00526-.31362c-.12518-.05335-.25217-.10233-.37968-.1498a1.0719,1.0719,0,0,1-.36033-.178.09089.09089,0,0,1-.03512-.0643.06921.06921,0,0,1,.03143-.05254.17311.17311,0,0,1,.05861-.02349,1.22681,1.22681,0,0,1,.31089-.01358h2.34867a.23447.23447,0,0,0,.05342,0c.005-.00133.0168.003.02087,0,.02309-.01664.01372-.10608.016-.13529.00561-.0731,0-.14889,0-.22225C145.13,132.57618,145.1302,132.49612,145.13,132.41607Z"/><ellipse class="e05e65f0-eea1-4744-b367-50de8c1f21a7" cx="145.6329" cy="132.72444" rx="0.79072" ry="0.45807"/><path class="a475b144-4667-41ed-aa0f-24e6e4bee8f9" d="M145.65126,129.736a2.2258,2.2258,0,0,1-4.247,0s1.606.0748,2.12349.0748C144.072,129.81079,145.65126,129.736,145.65126,129.736Z"/></g></g></svg>