<svg xmlns="http://www.w3.org/2000/svg" viewBox="0 0 32.20517 32.21567"><defs><style>.ff4f6612-0719-4090-8d50-770fd1d8020c{fill:#70adb6;stroke:#fff;stroke-miterlimit:10;stroke-width:2px;}.e5e1ee50-4f46-4c2d-a2df-a53fbba0abc4{fill:#fff;}</style></defs><title>Artboard 13</title><g id="b7faa99c-2276-4c95-938a-8c6918286ea4" data-name="Layer 1"><circle class="ff4f6612-0719-4090-8d50-770fd1d8020c" cx="16.10258" cy="16.12127" r="15.10258"/><path class="e5e1ee50-4f46-4c2d-a2df-a53fbba0abc4" d="M14.37734,19.0957a5.10641,5.10641,0,0,1,.59668-2.49218,15.3207,15.3207,0,0,1,1.70117-2.40235,15.07281,15.07281,0,0,0,1.3125-1.78906,3.0251,3.0251,0,0,0,.44726-1.582,2.60221,2.60221,0,0,0-.68554-1.87891A2.55736,2.55736,0,0,0,15.81,8.23438,4.30364,4.30364,0,0,0,12.5873,9.8457L10.8871,8.29492a6.89191,6.89191,0,0,1,5.28028-2.53711A5.40837,5.40837,0,0,1,19.94179,7.041a4.58228,4.58228,0,0,1,1.418,3.58007,4.36374,4.36374,0,0,1-.53711,2.17774,15.37741,15.37741,0,0,1-1.61133,2.23828A13.54519,13.54519,0,0,0,17.6,17.21484a4.30469,4.30469,0,0,0-.53711,2.14844,3.45845,3.45845,0,0,0,.03028.53711H14.43691C14.39687,19.50391,14.37734,19.23438,14.37734,19.0957Zm-.01465,6.77344a2.09462,2.09462,0,0,1-.582-1.52344,2.14163,2.14163,0,0,1,.582-1.53515,2.0188,2.0188,0,0,1,2.89453,0,2.14093,2.14093,0,0,1,.58105,1.53515,2.09394,2.09394,0,0,1-.58105,1.52344,2.05593,2.05593,0,0,1-2.89453,0Z"/></g></svg>