<svg xmlns="http://www.w3.org/2000/svg" xmlns:xlink="http://www.w3.org/1999/xlink" viewBox="0 0 38.5637 36.94405"><defs><style>.bc86701d-11cf-4129-bc9c-d38552d92355{fill:none;}.f1aff24d-e7c1-4ba4-8e38-e9e990f34662{clip-path:url(#b5652f75-159b-463a-b438-4453e2ea4421);}.e231c270-782f-4e44-8512-c965f0c49693{fill:#00aed6;}.adedc40f-d395-4677-990e-c100acbf8d52{fill:#037c99;}.b16f7d9c-2c75-425c-afea-b525e3069a38{fill:#414042;}</style><clipPath id="b5652f75-159b-463a-b438-4453e2ea4421"><path class="bc86701d-11cf-4129-bc9c-d38552d92355" d="M37.43464,4.71887,33.84483,1.12906a3.77286,3.77286,0,0,0-5.2496-.12862L3.77049,24.40367,14.16,34.79321,37.56326,9.96847A3.77286,3.77286,0,0,0,37.43464,4.71887Z"/></clipPath></defs><title>Artboard 10</title><g id="b4a9b867-6f13-439e-b5c5-63d285060bcb" data-name="Layer 1"><g class="f1aff24d-e7c1-4ba4-8e38-e9e990f34662"><path class="e231c270-782f-4e44-8512-c965f0c49693" d="M37.43464,4.71887,33.84483,1.12906a3.77286,3.77286,0,0,0-5.2496-.12862L3.77049,24.40367,14.16,34.79321,37.56326,9.96847A3.77286,3.77286,0,0,0,37.43464,4.71887Z"/><rect class="adedc40f-d395-4677-990e-c100acbf8d52" x="22.42649" y="0.07442" width="8.55319" height="40.7234" transform="translate(20.41751 -12.59691) rotate(41.7993)"/></g><polygon class="e231c270-782f-4e44-8512-c965f0c49693" points="2.166 34.444 0 36.611 4.265 36.543 2.166 34.444"/><path class="b16f7d9c-2c75-425c-afea-b525e3069a38" d="M5.56716,24.3047,14.259,32.99654a1.24468,1.24468,0,0,1-.88012,2.12481H5.68694L4.26521,36.54308,2.16645,34.44433l1.42174-1.42174L3.44258,25.208A1.24467,1.24467,0,0,1,5.56716,24.3047Z"/><polyline class="adedc40f-d395-4677-990e-c100acbf8d52" points="0 36.611 0.965 36.944 4.265 36.543 4.194 36.472"/></g></svg>