<svg id="ab5b19b3-1e03-4c2b-8033-c3a0bfd3c243" data-name="Layer 1" xmlns="http://www.w3.org/2000/svg" xmlns:xlink="http://www.w3.org/1999/xlink" viewBox="0 0 22.42777 18.95422"><defs><style>.a28badee-d330-49f1-8284-08d33b9570bf{fill:none;}.e9101b96-484e-44c7-90a5-08f3ec380a32{fill:#05bce7;}.bc53fc54-9532-495f-a51c-5c3d7f9ef586{clip-path:url(#bb34ca3d-51e4-4b7f-8f61-b8d3d09254ea);}.a5f4d2f1-5f18-403d-b51a-4cf8b813c62e{fill:#ef5b5b;}.a5c1f9c3-b7a5-4f6c-a893-35b099ad4774{fill:#efbe78;}.bbaab789-94c5-46fb-a8cd-685616f6a881{fill:#1ca36d;}</style><clipPath id="bb34ca3d-51e4-4b7f-8f61-b8d3d09254ea"><path class="a28badee-d330-49f1-8284-08d33b9570bf" d="M15.66855,8.7869,2.69483,1.29652a1.10251,1.10251,0,0,0-1.65377.9548V17.23208a1.10251,1.10251,0,0,0,1.65377.9548L15.66855,10.6965A1.1025,1.1025,0,0,0,15.66855,8.7869Z"/></clipPath></defs><title>Artboard 12</title><path class="e9101b96-484e-44c7-90a5-08f3ec380a32" d="M15.66855,8.7869,2.69483,1.29652a1.10251,1.10251,0,0,0-1.65377.9548V17.23208a1.10251,1.10251,0,0,0,1.65377.9548L15.66855,10.6965A1.1025,1.1025,0,0,0,15.66855,8.7869Z"/><g class="bc53fc54-9532-495f-a51c-5c3d7f9ef586"><polygon class="a5f4d2f1-5f18-403d-b51a-4cf8b813c62e" points="1.36 18.954 14.949 4.135 22.428 10.832 1.36 18.954"/><polygon class="a5c1f9c3-b7a5-4f6c-a893-35b099ad4774" points="1.041 0.342 16.709 15.965 22.428 7.362 1.041 0.342"/><polygon class="bbaab789-94c5-46fb-a8cd-685616f6a881" points="0 0 10.123 9.398 14.405 4.728 0 0"/></g></svg>