<svg id="b83a74d7-493a-4897-8814-be6b75ccf733" data-name="Layer 1" xmlns="http://www.w3.org/2000/svg" xmlns:xlink="http://www.w3.org/1999/xlink" viewBox="0 0 235.48956 29.6666"><defs><style>.fdb2bab5-3c27-4a6e-83fa-f7c0d8d3180e{fill:none;}.a03ea22e-e796-4e62-8c18-e1e69e31953c{clip-path:url(#a6fc14aa-e584-4a7c-99cc-60ae4304a2ae);}.a441fcca-0a4b-4189-ab65-7fb987499539{fill:#eaccca;}.fe6776e1-4846-4865-bcef-126e0c4506f5{clip-path:url(#b17f84be-e6cf-4d37-803a-b9cbebe907c1);}.a8ad1c62-1bd2-4a72-88d0-39dd288ec625{fill:#b0ceb2;}.fbd70dfb-166c-4a06-929d-659ae29792eb{clip-path:url(#b721f5a0-aa2b-4102-9047-b9664691bf0f);}.f686cf34-4f21-4c2b-b91e-7def720e8e56{fill:#eeddc4;}.fd2e6b40-9881-483c-9aee-2e2324922d18{fill:#efbe78;}</style><clipPath id="a6fc14aa-e584-4a7c-99cc-60ae4304a2ae"><rect class="fdb2bab5-3c27-4a6e-83fa-f7c0d8d3180e" x="-2.04255" y="124.93176" width="235.49085" height="29.6666"/></clipPath><clipPath id="b17f84be-e6cf-4d37-803a-b9cbebe907c1"><rect class="fdb2bab5-3c27-4a6e-83fa-f7c0d8d3180e" y="64.65693" width="235.49085" height="29.6666"/></clipPath><clipPath id="b721f5a0-aa2b-4102-9047-b9664691bf0f"><rect class="fdb2bab5-3c27-4a6e-83fa-f7c0d8d3180e" width="235.49085" height="29.6666"/></clipPath></defs><title>Artboard 76 copy</title><g class="a03ea22e-e796-4e62-8c18-e1e69e31953c"><polygon class="a441fcca-0a4b-4189-ab65-7fb987499539" points="200.691 154.598 -2.047 154.598 -1.921 -148.49 6.992 -155.037 27.822 -173.378 232.997 -173.378 233.448 128.699 200.691 154.598"/></g><g class="fe6776e1-4846-4865-bcef-126e0c4506f5"><polygon class="a8ad1c62-1bd2-4a72-88d0-39dd288ec625" points="202.734 94.324 -0.005 94.324 0.121 -208.765 9.034 -215.312 29.865 -233.653 235.04 -233.653 235.491 68.424 202.734 94.324"/></g><g class="fbd70dfb-166c-4a06-929d-659ae29792eb"><polygon class="f686cf34-4f21-4c2b-b91e-7def720e8e56" points="202.734 29.667 -0.005 29.667 0.121 -273.422 9.034 -279.969 29.865 -298.31 235.04 -298.31 235.491 3.767 202.734 29.667"/><path class="fd2e6b40-9881-483c-9aee-2e2324922d18" d="M202.5071,29.81724S235.82682,3.25471,235.83117,3.516s-30.1951,1.13291-40.2076-3.66665C195.62357-.15063,206.1192,16.51364,202.5071,29.81724Z"/></g></svg>