<svg xmlns="http://www.w3.org/2000/svg" xmlns:xlink="http://www.w3.org/1999/xlink" viewBox="0 0 127.34043 46.76764"><defs><style>.aa7804f3-fc70-40f4-bf98-2dd9ffd5dbeb,.b4a63968-1163-4e1a-9c34-57cc6e8d7ffa,.b6dc9cb5-d00f-4ac7-b08c-bdaf27bb9171{fill:none;}.aa7804f3-fc70-40f4-bf98-2dd9ffd5dbeb{stroke:#bcbec0;stroke-miterlimit:10;}.f570b1d8-42f4-474d-9cb7-39e0e951e772{isolation:isolate;}.ab7ccb4d-dda6-4ff1-86b1-b5f787ba3e4f{clip-path:url(#fa8714b5-1ba9-4257-a724-e899c953f0c7);}.f683196a-f985-42a8-8fb0-854e71385dcf{clip-path:url(#ab7aae56-0156-4eb3-b444-25a93d680315);}.acc8c58c-ca15-4563-bd55-778e91d5599d{clip-path:url(#a562233e-8f35-4114-81d2-84dbae0280ae);}.a99968f3-4d2d-41ca-ab67-6f098cdc5066{fill:#a7a9ac;opacity:0.33;mix-blend-mode:multiply;}.fe5463ad-c1bb-4871-a5d8-cd29d5c84cfd{fill:#566345;}.bd02f65b-2eb1-471a-bf2a-dcd8a3a48165{fill:#63774e;}.b2fca259-4449-4ec1-aae8-df86159e6b52{clip-path:url(#feffc9d8-7588-4324-83f1-438b27465558);}.abedd08d-16d2-4410-8771-7c546ee5fcbd{clip-path:url(#a845eb8b-d599-4a3c-af5c-fd2b542032a8);}.b87bc25b-4932-4f2e-9abf-ed16d0ba5c2a{fill:#c3d7dc;}.a46a74b3-bbad-4fd6-83c4-04cd6e5d70dc{clip-path:url(#b13bc1f7-f23b-4351-bfaf-8656ba46a00f);}.b344baec-f483-4f78-9b8c-719ce62c8edb{fill:#299145;}.b62cb503-5bfd-48e5-bf59-043c17dc6586{fill:#1ea355;}.b6bdf652-9de1-4faf-a617-1d7fcd182058{fill:#9dcb3b;}.ae6d5663-1a5b-4493-9d5e-4f0dd37c08eb{fill:#69bd45;}.b4a63968-1163-4e1a-9c34-57cc6e8d7ffa{stroke:#ee755b;stroke-linecap:round;stroke-linejoin:round;stroke-width:2px;}.a1df16b2-2b7b-491a-8809-fc55c0fbe209{fill:#ee755b;}</style><clipPath id="fa8714b5-1ba9-4257-a724-e899c953f0c7"><rect class="aa7804f3-fc70-40f4-bf98-2dd9ffd5dbeb" x="275.76333" y="-809.81059" width="233.75906" height="493.74709"/></clipPath><clipPath id="ab7aae56-0156-4eb3-b444-25a93d680315"><rect class="b6dc9cb5-d00f-4ac7-b08c-bdaf27bb9171" x="275.44678" y="-730.53763" width="233.82259" height="414.47412"/></clipPath><clipPath id="a562233e-8f35-4114-81d2-84dbae0280ae"><rect class="b6dc9cb5-d00f-4ac7-b08c-bdaf27bb9171" x="30.51488" y="-117.53424" width="107.15955" height="81.56813"/></clipPath><clipPath id="feffc9d8-7588-4324-83f1-438b27465558"><rect class="aa7804f3-fc70-40f4-bf98-2dd9ffd5dbeb" x="19.1225" y="-809.81059" width="233.75906" height="493.74709"/></clipPath><clipPath id="a845eb8b-d599-4a3c-af5c-fd2b542032a8"><rect class="b6dc9cb5-d00f-4ac7-b08c-bdaf27bb9171" x="18.80594" y="-730.53763" width="233.82259" height="414.47412"/></clipPath><clipPath id="b13bc1f7-f23b-4351-bfaf-8656ba46a00f"><path class="b6dc9cb5-d00f-4ac7-b08c-bdaf27bb9171" d="M71.4043-16.9685A45.45245,45.45245,0,0,1,61.03248,13.79684c4.55545,3.94543,11.138,5.93237,17.68452,6.51969s13.15087-.09657,19.68385-.77961c5.22571-.54636,10.88955-1.26876,14.52429-4.432a18.09213,18.09213,0,0,1-4.9577-7.661,40.15122,40.15122,0,0,1-.89093-26.11926,126.22973,126.22973,0,0,0-17.12962-3.58784,28.17266,28.17266,0,0,0-9.53975-.10517c-3.78585.78992-6.92578,2.91992-9.928,4.99037a8.6052,8.6052,0,0,0-3.1998,3.131"/></clipPath></defs><title>Artboard 240</title><g class="f570b1d8-42f4-474d-9cb7-39e0e951e772"><g id="ed2544dc-4531-49c5-b02a-054efbe65126" data-name="Layer 1"><g class="ab7ccb4d-dda6-4ff1-86b1-b5f787ba3e4f"><g class="f683196a-f985-42a8-8fb0-854e71385dcf"><g class="acc8c58c-ca15-4563-bd55-778e91d5599d"><ellipse class="a99968f3-4d2d-41ca-ab67-6f098cdc5066" cx="6.38058" cy="50.48595" rx="6.94095" ry="50.24166" transform="translate(-42.20757 35.36198) rotate(-65.50723)"/><path class="fe5463ad-c1bb-4871-a5d8-cd29d5c84cfd" d="M56.31865-24.57022c1.43953.58457-2.95657,8.06253-3.38291,8.87361A24.04878,24.04878,0,0,0,50.14753-2.8322c.1438,6.05078.35678,12.09843.55859,18.14738.19,5.69436-2.23085,8.88475-4.93206,13.76325a45.54368,45.54368,0,0,0-5.57339,24.50108c.06655,1.15446-.12075,3.51657.43263,4.52192C41.775,60.17524,48.01671,61.81029,50.185,61.99a72.98189,72.98189,0,0,1,1.09608-8.18151,67.44436,67.44436,0,0,1,6.85977-19.374A46.98221,46.98221,0,0,0,62.59768,24.3888q2.79206-9.99654,5.0804-20.12143c1.63567-7.24111,3.98656-13.95489,6.06161-21.111a3.43066,3.43066,0,0,0,.17937-1.87733c-.70228-2.44041-5.66846-2.07583-7.466-2.31216C62.89782-21.5009,59.60553-23.23546,56.31865-24.57022Z"/><path class="bd02f65b-2eb1-471a-bf2a-dcd8a3a48165" d="M57.08359-30.83856c-.928-2.87809-3.66264-3.502-5.9803-2.01345-3.62795,2.33018-6.56633,3.88916-9.147,7.5438C39.40112-21.68977,38.8988-17.714,37.1544-13.86285c-1.83288,4.04648-4.42518,7.91261-6.59074,11.80134-1.68646,3.02842-3.1532,5.81862-6.35115,7.477-1.63887.8499-3.21653.72909-4.93625.98207A34.10085,34.10085,0,0,0,6.38366,11.418C1.05171,14.8215-4.37975,18.31269-8.3495,23.23756-9.364,24.49609-10.26292,25.84072-11.251,27.119c-.94644,1.22437-2.97714,2.37219-1.58251,3.71132A22.60063,22.60063,0,0,1-9.03521,34.7C-10.46455,32.45728,7.0227,24.58481,8.66845,23.87992c4.47765-1.91782,9.00406-2.99319,13.563-4.54743,3.83829-1.30854,8.08527-1.67255,11.66548-3.72218a30.07791,30.07791,0,0,0,5.70762-4.63946C44.63905,6.13221,49.652,1.20986,53.72232-4.46384a2.29418,2.29418,0,0,1,.60552-.64972,2.25178,2.25178,0,0,1,.848-.25451c3.79847-.60974,5.7006-1.35706,8.6261-3.91618a91.81917,91.81917,0,0,0,10.536-10.87269,18.04113,18.04113,0,0,0-9.071-1.78951"/></g></g></g><rect class="aa7804f3-fc70-40f4-bf98-2dd9ffd5dbeb" x="275.76333" y="-809.81059" width="233.75906" height="493.74709"/><g class="b2fca259-4449-4ec1-aae8-df86159e6b52"><g class="abedd08d-16d2-4410-8771-7c546ee5fcbd"><polygon class="b87bc25b-4932-4f2e-9abf-ed16d0ba5c2a" points="220.909 57.654 18.17 57.654 18.297 -748.629 27.209 -755.175 48.04 -773.516 253.215 -773.516 253.666 31.754 220.909 57.654"/><g class="a46a74b3-bbad-4fd6-83c4-04cd6e5d70dc"><path class="b344baec-f483-4f78-9b8c-719ce62c8edb" d="M71.4043-16.9685A45.45245,45.45245,0,0,1,61.03248,13.79684c4.55545,3.94543,11.138,5.93237,17.68452,6.51969s13.15087-.09657,19.68385-.77961c5.22571-.54636,10.88955-1.26876,14.52429-4.432a18.09213,18.09213,0,0,1-4.9577-7.661,40.15122,40.15122,0,0,1-.89093-26.11926,126.22973,126.22973,0,0,0-17.12962-3.58784,28.17266,28.17266,0,0,0-9.53975-.10517c-3.78585.78992-6.92578,2.91992-9.928,4.99037a8.6052,8.6052,0,0,0-3.1998,3.131"/><path class="b62cb503-5bfd-48e5-bf59-043c17dc6586" d="M73.5124.48908a2.819,2.819,0,0,0,.93174,3.71478c1.86434,1.16522,3.671-.624,5.50714-.48511A2.98149,2.98149,0,0,1,82.201,5.47189a24.325,24.325,0,0,1,.98856,2.809c.23886.65064.64487,1.34869,1.32612,1.47633.81253.15223,1.52651-.58389,2.34632-.6901,1.41157-.18289,2.32133,1.435,2.72493,2.8s1.0105,3.02711,2.4227,3.205a10.99084,10.99084,0,0,0,1.91406-.22778,2.656,2.656,0,0,1,2.63312,1.95879c1.28189-.94923,1.51867-2.82019,1.12149-4.365a34.81346,34.81346,0,0,0-1.89511-4.38589c-.581-1.41553-.89679-2.93009-1.49981-4.33657a9.50177,9.50177,0,0,0-4.65091-4.9562c-1.95059-.95007-3.01-1.1082-2.52333-3.74734a19.6986,19.6986,0,0,0,.6847-2.73344A3.57927,3.57927,0,0,0,85.39608-11.03a5.46059,5.46059,0,0,0-4.23185.3735,11.96144,11.96144,0,0,0-3.38746,2.71691,6.40425,6.40425,0,0,0-1.53,2.29378c-.43751,1.35389.31015,2.0406-.26574,3.20239C75.458-1.38817,74.09107-.66189,73.5124.48908Z"/><path class="b6bdf652-9de1-4faf-a617-1d7fcd182058" d="M87.324-8.78744A9.762,9.762,0,0,0,90.11835,3.95613,8.55423,8.55423,0,0,1,92.74174,5.994c.86666,1.30088.56837,3.02149.835,4.56171a5.61627,5.61627,0,0,0,4.22129,4.52022,4.72009,4.72009,0,0,0,5.27953-2.88976,1.19181,1.19181,0,0,0,.0165-.93748c-.20422-.37935-.70691-.48594-.99092-.8099a1.59962,1.59962,0,0,1-.16217-1.44981c.72644-2.83948,3.42748-5.35736,2.66117-8.18634-.62014-2.28931-3.369-3.68757-3.54136-6.05312a9.01246,9.01246,0,0,1,.8964-3.416c.37973-1.12466.47268-2.53706-.40627-3.33488a9.53564,9.53564,0,0,0-4.0201-2.384,10.40221,10.40221,0,0,0-4.53546.11,9.867,9.867,0,0,0-3.98524,1.7543,5.6564,5.6564,0,0,0-2.19955,3.67"/></g><path class="ae6d5663-1a5b-4493-9d5e-4f0dd37c08eb" d="M78.20835,19.998a14.24893,14.24893,0,0,1,2.53934-6.06281c1.02189-1.40023,2.48931-2.69012,4.22277-2.68871a3.58478,3.58478,0,0,1,3.37782,4.01674c.56229-1.6852,3.23548-1.67039,4.36036-.29536s1.065,3.35807.73687,5.104l4.42085-.88915a1.51483,1.51483,0,0,1,1.07144.049c.31442.18737.39405.74376.057.88566,1.61693-.6807,1.97938-4.07876,4.37518-4.53054,2.40347-.45323,2.65164,2.55309,5.14716,1.51151A44.84274,44.84274,0,0,0,114.91787,13.8a1.904,1.904,0,0,1-2.87295,2.33422,3.62144,3.62144,0,0,1-1.9501,3.1522,11.98235,11.98235,0,0,1-3.70672,1.15983,63.92938,63.92938,0,0,0-11.69289,3.6243c-.94228.39454-2.05488.80471-2.93362.28377-.53058-.31453-.8364-.90327-1.31619-1.2909-2.1361-1.72578-5.58954,1.49714-7.9195.04366-.972-.60635-1.51229-1.93937-2.64708-2.09661-1.6038-.22223-3.08557,2.13412-4.459,1.27669-.64785-.40444-.78686-1.34944-1.4331-1.75646a2.48247,2.48247,0,0,0-1.20739-.26359,24.94472,24.94472,0,0,1-8.73336-2.101c-1.96858-.87349-4.12056-2.72312-3.4199-4.75963.68858-2.00141,3.73026-2.117,5.33153-.733.67246.58125,1.24369,1.3671,2.10529,1.58549a4.42584,4.42584,0,0,1,1.02958.24361c1.009.53815.8906,2.5651,2.03373,2.534.233-1.24794,1.9255-1.726,3.07854-1.19486a6.34874,6.34874,0,0,1,2.51111,2.78068"/></g></g><rect class="aa7804f3-fc70-40f4-bf98-2dd9ffd5dbeb" x="19.1225" y="-809.81059" width="233.75906" height="493.74709"/><path class="b4a63968-1163-4e1a-9c34-57cc6e8d7ffa" d="M5.9539,29.01264S-10.43526,8.03253,18.366,8.07465"/><polygon class="a1df16b2-2b7b-491a-8809-fc55c0fbe209" points="11.998 16.56 10.589 15.138 17.604 8.207 10.179 1.716 11.497 0.211 20.539 8.117 11.998 16.56"/><path class="b4a63968-1163-4e1a-9c34-57cc6e8d7ffa" d="M17.73711,37.0694a8.60721,8.60721,0,0,1,2.52.37439c1.97216.58569,3.86425,1.60644,5.834,2.2362A12.71235,12.71235,0,0,0,37.139,38.51166"/><polygon class="a1df16b2-2b7b-491a-8809-fc55c0fbe209" points="24.035 46.768 25.492 45.394 18.72 38.226 26.364 31.995 25.098 30.445 15.789 38.036 24.035 46.768"/><path class="b4a63968-1163-4e1a-9c34-57cc6e8d7ffa" d="M107.04155,10.58588a8.607,8.607,0,0,1,2.47559.60156c1.91113.76233,3.70263,1.95056,5.60693,2.75647a12.7125,12.7125,0,0,0,11.1084-.16052"/><polygon class="a1df16b2-2b7b-491a-8809-fc55c0fbe209" points="112.433 20.816 114.009 19.581 107.915 11.827 116.094 6.316 114.974 4.657 105.014 11.371 112.433 20.816"/></g></g></svg>