<svg id="e41237f0-e4ef-4268-9030-a8410db2a60c" data-name="Layer 1" xmlns="http://www.w3.org/2000/svg" viewBox="0 0 101.48978 73.9499"><defs><style>.a0df48d0-00c0-4fc7-b65c-00d92d823ad6,.a39de273-5bb4-4b63-8977-f06a85fb007f,.a7d0481f-60e6-4d06-9192-93c9259779cc,.a8f9af20-299a-48ec-b869-3cbe1d3a4e98,.af09b134-999a-4257-8322-1c7c41f01f80,.b563fa35-6ab6-40a8-bbc0-02fe1774e8ca,.e7bfaff8-6892-4843-9e79-057492e084f2,.fbabcb60-4b72-4299-867e-61a6b8d9f2b8{fill:none;}.a7d0481f-60e6-4d06-9192-93c9259779cc,.a8f9af20-299a-48ec-b869-3cbe1d3a4e98,.af09b134-999a-4257-8322-1c7c41f01f80,.b563fa35-6ab6-40a8-bbc0-02fe1774e8ca,.e7bfaff8-6892-4843-9e79-057492e084f2{stroke:#eaeaea;}.a0df48d0-00c0-4fc7-b65c-00d92d823ad6,.a39de273-5bb4-4b63-8977-f06a85fb007f,.a7d0481f-60e6-4d06-9192-93c9259779cc,.af09b134-999a-4257-8322-1c7c41f01f80,.b563fa35-6ab6-40a8-bbc0-02fe1774e8ca,.e7bfaff8-6892-4843-9e79-057492e084f2,.fbabcb60-4b72-4299-867e-61a6b8d9f2b8{stroke-miterlimit:10;}.a7d0481f-60e6-4d06-9192-93c9259779cc{stroke-width:0.72717px;}.a8f9af20-299a-48ec-b869-3cbe1d3a4e98{stroke-linejoin:round;stroke-width:2px;}.a39de273-5bb4-4b63-8977-f06a85fb007f,.fbabcb60-4b72-4299-867e-61a6b8d9f2b8{stroke:#ef5b5b;}.fbabcb60-4b72-4299-867e-61a6b8d9f2b8{stroke-width:5px;}.a39de273-5bb4-4b63-8977-f06a85fb007f{stroke-width:2.90866px;}.b7f0731d-579c-4b40-85ac-6da9699f9340{fill:#fff;}.b155379d-14e5-4f5f-9110-021b78a07413{fill:#414042;}.aad2b443-e30d-4139-8e33-db4ee99e0682{fill:#808285;}.a0df48d0-00c0-4fc7-b65c-00d92d823ad6{stroke:#58595b;stroke-width:3px;}.ba41a2c5-de08-49e5-bad9-442a51b271e9{fill:#dd4747;}.ffa095b2-f2f5-416f-80e8-85c98772b2f1{fill:#58595b;}.af09b134-999a-4257-8322-1c7c41f01f80,.b563fa35-6ab6-40a8-bbc0-02fe1774e8ca{stroke-width:1.88576px;}.af09b134-999a-4257-8322-1c7c41f01f80{stroke-dasharray:0.94902 0.0949;}.e7bfaff8-6892-4843-9e79-057492e084f2{stroke-width:0.94288px;}.b563fa35-6ab6-40a8-bbc0-02fe1774e8ca{stroke-dasharray:0.94288 0.09429;}</style></defs><title>Artboard 208</title><polyline class="a7d0481f-60e6-4d06-9192-93c9259779cc" points="93.226 21.02 81.696 31.805 96.006 25.32"/><polyline class="a7d0481f-60e6-4d06-9192-93c9259779cc" points="97.827 34.666 82.194 32.464 96.226 39.53"/><polyline class="a7d0481f-60e6-4d06-9192-93c9259779cc" points="88.273 48.102 82.332 33.475 83.262 49.158"/><polyline class="a7d0481f-60e6-4d06-9192-93c9259779cc" points="70.802 46.061 80.67 33.738 67.435 42.203"/><polyline class="a7d0481f-60e6-4d06-9192-93c9259779cc" points="64.633 32.378 80.416 32.015 65.424 27.319"/><polyline class="a7d0481f-60e6-4d06-9192-93c9259779cc" points="76.397 17.295 81.3 32.302 81.469 16.593"/><polyline class="a7d0481f-60e6-4d06-9192-93c9259779cc" points="23.833 39.283 18.857 54.266 28.329 41.732"/><polyline class="a7d0481f-60e6-4d06-9192-93c9259779cc" points="34.395 49.072 19.609 54.608 35.312 54.11"/><polyline class="a7d0481f-60e6-4d06-9192-93c9259779cc" points="32.421 65.441 20.213 55.43 28.524 68.762"/><polyline class="a7d0481f-60e6-4d06-9192-93c9259779cc" points="16.098 71.995 18.879 56.454 11.297 70.214"/><polyline class="a7d0481f-60e6-4d06-9192-93c9259779cc" points="4.141 62.922 17.833 55.062 2.419 58.1"/><polyline class="a7d0481f-60e6-4d06-9192-93c9259779cc" points="7.269 44.051 18.746 54.892 11.389 41.011"/><line class="a8f9af20-299a-48ec-b869-3cbe1d3a4e98" x1="55.24373" y1="5.64978" x2="55.96035" y2="11.7385"/><line class="a8f9af20-299a-48ec-b869-3cbe1d3a4e98" x1="19.29528" y1="15.43356" x2="19.14469" y2="21.83485"/><line class="a8f9af20-299a-48ec-b869-3cbe1d3a4e98" x1="15.7488" y1="10.93497" x2="16.46541" y2="17.02369"/><line class="a8f9af20-299a-48ec-b869-3cbe1d3a4e98" x1="15.76637" y1="16.39675" x2="20.08273" y2="15.88874"/><circle class="fbabcb60-4b72-4299-867e-61a6b8d9f2b8" cx="19.83554" cy="54.11438" r="17.33079"/><circle class="a39de273-5bb4-4b63-8977-f06a85fb007f" cx="81.7004" cy="31.81577" r="17.33079"/><path class="b7f0731d-579c-4b40-85ac-6da9699f9340" d="M79.96181,27.9439h0a.359.359,0,0,0-.60158.331h0a.359.359,0,0,1-.5098.39575h0a.359.359,0,0,0-.46985.50071h0a.359.359,0,0,1-.36255.53392h0a.359.359,0,0,0-.29212.62139h0a.359.359,0,0,1-.17982.61982h0a.359.359,0,0,0-.08581.68125h0a.359.359,0,0,1,.02051.64505h0a.359.359,0,0,0,.12891.67442h0a.359.359,0,0,1,.21884.60715h0a.359.359,0,0,0,.331.60157h0a.359.359,0,0,1,.39575.50981h0a.359.359,0,0,0,.50071.46984h0a.359.359,0,0,1,.53391.36256h0a.359.359,0,0,0,.62139.29213h0a.359.359,0,0,1,.61982.17983h0a.359.359,0,0,0,.68125.08581h0a.359.359,0,0,1,.645-.02052h0a.359.359,0,0,0,.67442-.12892h0a.359.359,0,0,1,.60714-.21884h0a.359.359,0,0,0,.60158-.331h0a.359.359,0,0,1,.5098-.39574h0a.359.359,0,0,0,.46985-.50071h0a.359.359,0,0,1,.36256-.53391h0a.359.359,0,0,0,.29212-.62139h0a.359.359,0,0,1,.17982-.61982h0a.359.359,0,0,0,.0858-.68124h0a.359.359,0,0,1-.02051-.64506h0a.359.359,0,0,0-.12891-.67442h0a.359.359,0,0,1-.21884-.60714h0a.359.359,0,0,0-.331-.60158h0a.359.359,0,0,1-.39575-.5098h0a.359.359,0,0,0-.5007-.46985h0a.359.359,0,0,1-.53391-.36256h0a.359.359,0,0,0-.62139-.29212h0a.359.359,0,0,1-.61982-.17983h0a.359.359,0,0,0-.68125-.0858h0a.359.359,0,0,1-.645.02051h0a.359.359,0,0,0-.67443.12891h0A.359.359,0,0,1,79.96181,27.9439Z"/><path class="b155379d-14e5-4f5f-9110-021b78a07413" d="M80.91809,30.09635l-.61594.067a.64973.64973,0,0,0-.556.81884l.16489.59723a.64962.64962,0,0,1,.00972.3057l-.12662.6065a.64972.64972,0,0,0,.60693.78185l.619.02773a.64972.64972,0,0,1,.29374.08522l.53769.30785a.64973.64973,0,0,0,.93114-.33563l.21764-.58009a.64976.64976,0,0,1,.17182-.253l.45893-.41624A.64972.64972,0,0,0,83.5995,31.12l-.48444-.38624a.64973.64973,0,0,1-.18755-.24161l-.25406-.56509a.64971.64971,0,0,0-.95058-.27579l-.517.34138A.64976.64976,0,0,1,80.91809,30.09635Z"/><path class="b7f0731d-579c-4b40-85ac-6da9699f9340" d="M17.49885,48.91053h0a.48245.48245,0,0,0-.80853.44488h0a.48246.48246,0,0,1-.68518.53189h0a.48245.48245,0,0,0-.63148.673h0a.48245.48245,0,0,1-.48729.71759h0a.48246.48246,0,0,0-.39262.83516h0a.48245.48245,0,0,1-.24168.83305h0a.48246.48246,0,0,0-.11532.91561h0a.48245.48245,0,0,1,.02757.867h0a.48245.48245,0,0,0,.17326.90643h0a.48245.48245,0,0,1,.29412.816h0a.48245.48245,0,0,0,.44488.80853h0a.48245.48245,0,0,1,.53188.68518h0a.48245.48245,0,0,0,.673.63147h0a.48245.48245,0,0,1,.71759.48729h0a.48245.48245,0,0,0,.83516.39262h0a.48245.48245,0,0,1,.83305.24168h0a.48246.48246,0,0,0,.91561.11532h0a.48245.48245,0,0,1,.867-.02757h0a.48245.48245,0,0,0,.90643-.17326h0a.48245.48245,0,0,1,.816-.29412h0a.48245.48245,0,0,0,.80853-.44488h0a.48245.48245,0,0,1,.68518-.53189h0a.48246.48246,0,0,0,.63148-.673h0a.48246.48246,0,0,1,.48729-.71759h0a.48246.48246,0,0,0,.39262-.83516h0a.48246.48246,0,0,1,.24169-.833h0a.48245.48245,0,0,0,.11532-.9156h0a.48245.48245,0,0,1-.02757-.867h0a.48245.48245,0,0,0-.17326-.90643h0a.48245.48245,0,0,1-.29412-.816h0a.48245.48245,0,0,0-.44488-.80853h0a.48245.48245,0,0,1-.53188-.68518h0a.48246.48246,0,0,0-.673-.63148h0a.48245.48245,0,0,1-.71759-.48729h0a.48246.48246,0,0,0-.83516-.39262h0a.48246.48246,0,0,1-.833-.24169h0a.48245.48245,0,0,0-.91561-.11533h0a.48245.48245,0,0,1-.867.02757h0a.48245.48245,0,0,0-.90643.17326h0A.48245.48245,0,0,1,17.49885,48.91053Z"/><path class="b155379d-14e5-4f5f-9110-021b78a07413" d="M18.78411,51.80346l-.82784.09A.87324.87324,0,0,0,17.209,52.994l.22163.80268a.87338.87338,0,0,1,.01306.41087l-.17018.81514a.87324.87324,0,0,0,.81572,1.05083l.83189.03726a.87328.87328,0,0,1,.3948.11454l.72265.41375A.87324.87324,0,0,0,21.29,56.188l.29251-.77965a.87316.87316,0,0,1,.23093-.34008l.61681-.55944a.87322.87322,0,0,0-.04228-1.3296l-.6511-.51912a.87319.87319,0,0,1-.25207-.32472l-.34145-.7595a.87324.87324,0,0,0-1.2776-.37066l-.69491.45882A.87334.87334,0,0,1,18.78411,51.80346Z"/><path class="aad2b443-e30d-4139-8e33-db4ee99e0682" d="M81.69955,15.93461a15.8882,15.8882,0,1,1-5.38281.94531,15.92047,15.92047,0,0,1,5.38281-.94531m0-1.45435a17.33383,17.33383,0,1,0,16.30469,11.459,17.29852,17.29852,0,0,0-16.30469-11.459Z"/><path class="aad2b443-e30d-4139-8e33-db4ee99e0682" d="M19.83481,39.77884a14.35372,14.35372,0,1,1-4.85889.85376,14.371,14.371,0,0,1,4.85889-.85376m0-3a17.33384,17.33384,0,1,0,16.30468,11.459,17.29656,17.29656,0,0,0-16.30468-11.459Z"/><circle class="fbabcb60-4b72-4299-867e-61a6b8d9f2b8" cx="81.65429" cy="31.73947" r="17.33079"/><path class="b7f0731d-579c-4b40-85ac-6da9699f9340" d="M79.3176,26.53562h0a.48245.48245,0,0,0-.80853.44488h0a.48245.48245,0,0,1-.68518.53188h0a.48246.48246,0,0,0-.63148.673h0a.48245.48245,0,0,1-.48728.71759h0a.48245.48245,0,0,0-.39261.83516h0a.48246.48246,0,0,1-.24169.83305h0a.48245.48245,0,0,0-.11533.91561h0a.48245.48245,0,0,1,.02756.867h0a.48245.48245,0,0,0,.17326.90643h0a.48245.48245,0,0,1,.29413.816h0a.48246.48246,0,0,0,.44489.80853h0a.48245.48245,0,0,1,.53189.68518h0a.48245.48245,0,0,0,.673.63148h0a.48246.48246,0,0,1,.71759.48729h0a.48246.48246,0,0,0,.83516.39262h0a.48245.48245,0,0,1,.83305.24168h0a.48246.48246,0,0,0,.91561.11532h0a.48245.48245,0,0,1,.867-.02757h0a.48245.48245,0,0,0,.90643-.17326h0a.48245.48245,0,0,1,.816-.29412h0a.48245.48245,0,0,0,.80852-.44488h0a.48245.48245,0,0,1,.68519-.53188h0a.48246.48246,0,0,0,.63148-.673h0a.48245.48245,0,0,1,.48728-.71759h0a.48245.48245,0,0,0,.39262-.83516h0a.48246.48246,0,0,1,.24169-.833h0a.48245.48245,0,0,0,.11532-.91561h0a.48245.48245,0,0,1-.02757-.867h0a.48245.48245,0,0,0-.17326-.90643h0a.48245.48245,0,0,1-.29412-.816h0a.48245.48245,0,0,0-.44488-.80853h0a.48245.48245,0,0,1-.53189-.68518h0a.48245.48245,0,0,0-.673-.63148h0a.48246.48246,0,0,1-.71759-.48729h0a.48245.48245,0,0,0-.83515-.39262h0a.48245.48245,0,0,1-.833-.24169h0a.48246.48246,0,0,0-.91561-.11532h0a.48245.48245,0,0,1-.867.02757h0a.48246.48246,0,0,0-.90644.17326h0A.48245.48245,0,0,1,79.3176,26.53562Z"/><path class="b155379d-14e5-4f5f-9110-021b78a07413" d="M80.60286,29.42855l-.82783.09a.87323.87323,0,0,0-.74732,1.10052l.22162.80269a.87312.87312,0,0,1,.01306.41087l-.17018.81514a.87324.87324,0,0,0,.81573,1.05082l.83188.03727a.87328.87328,0,0,1,.3948.11454l.72266.41375a.87323.87323,0,0,0,1.25146-.45108l.29251-.77965a.87318.87318,0,0,1,.23094-.34009l.6168-.55943a.87323.87323,0,0,0-.04227-1.32961l-.65111-.51911a.87335.87335,0,0,1-.25207-.32473l-.34145-.75949a.87323.87323,0,0,0-1.27759-.37066l-.69491.45882A.87338.87338,0,0,1,80.60286,29.42855Z"/><path class="aad2b443-e30d-4139-8e33-db4ee99e0682" d="M81.65317,17.40384a14.35375,14.35375,0,1,1-4.8584.85376,14.37149,14.37149,0,0,1,4.8584-.85376m0-3a17.33384,17.33384,0,1,0,16.30517,11.459,17.29378,17.29378,0,0,0-16.30517-11.459Z"/><polyline class="a0df48d0-00c0-4fc7-b65c-00d92d823ad6" points="19.836 54.114 19.749 20.276 55.941 11.459 81.7 31.816 58.437 47.089"/><polyline class="a0df48d0-00c0-4fc7-b65c-00d92d823ad6" points="55.941 11.459 58.437 47.089 19.764 26.105"/><path class="ba41a2c5-de08-49e5-bad9-442a51b271e9" d="M61.14483.00707a3.71986,3.71986,0,0,1,2.3394,1.723,2.44759,2.44759,0,0,1,.37309,1.42916A2.5409,2.5409,0,0,1,62.0578,5.15532a9.35221,9.35221,0,0,1-2.81135.31924,24.60454,24.60454,0,0,0-8.08733,1.63706,15.81591,15.81591,0,0,1-4.04528,1.28492c-.508.05016-1.22447-.20765-1.08789-.69955a.8583.8583,0,0,1,.43768-.445l1.32443-.79831L52.573,3.56954C55.32713,1.90949,58.22073.20408,61.43,0"/><path class="ba41a2c5-de08-49e5-bad9-442a51b271e9" d="M16.29,11.21506s-3.04048-3.396-.26769-3.34289,2.95609,1.03191,3.66058,1.0826S27.83514,7.975,27.83514,7.975s.73093,1.24023-1.08758,1.595-7.2505,1.5608-7.2505,1.5608S16.55769,14.558,16.29,11.21506Z"/><path class="ffa095b2-f2f5-416f-80e8-85c98772b2f1" d="M16.42007,7.6811s3.61655,2.29483,2.04762,3.70795-1.52165,2.85322-2.81733,2.35181a3.59548,3.59548,0,0,1-2.1164-1.96819c-.60658-.962.40933-1.475-1.49855-.254s-4.66942,4.277-4.52,1.62921-.18285-2.03836,1.39643-2.76044,2.04668.52722,3.2653-1.17695S16.42007,7.6811,16.42007,7.6811Z"/><path class="af09b134-999a-4257-8322-1c7c41f01f80" d="M53.50321,49.91943A5.65719,5.65719,0,1,0,56.907,42.679,5.65707,5.65707,0,0,0,53.50321,49.91943Z"/><polyline class="e7bfaff8-6892-4843-9e79-057492e084f2" points="50.24 52.451 58.966 48.392 59.265 41.342"/><polyline class="e7bfaff8-6892-4843-9e79-057492e084f2" points="57.901 53.173 58.966 48.392 63.494 50.52"/><polyline class="e7bfaff8-6892-4843-9e79-057492e084f2" points="53.523 45.228 58.966 48.392 62.937 44.398"/><ellipse class="b563fa35-6ab6-40a8-bbc0-02fe1774e8ca" cx="48.35768" cy="53.87475" rx="2.25315" ry="1.97625" transform="translate(-15.40326 19.58923) rotate(-19.82123)"/></svg>