<svg xmlns="http://www.w3.org/2000/svg" xmlns:xlink="http://www.w3.org/1999/xlink" viewBox="0 0 116.12007 60.48105"><defs><style>.a1265db3-71a5-4cc2-a54b-a7e962e408a3,.a407dfb1-883f-49a4-aa2e-9d01b88f0c8e,.a5a1d101-f807-4b07-b6d8-9a42803ff9e3,.b9b3d085-6b46-4a94-ab1b-fe3da606fac3{fill:none;}.a5a1d101-f807-4b07-b6d8-9a42803ff9e3{stroke:#bcbec0;}.a5a1d101-f807-4b07-b6d8-9a42803ff9e3,.b9b3d085-6b46-4a94-ab1b-fe3da606fac3{stroke-miterlimit:10;}.bad3be44-e237-4e96-bac9-e602d4f3e8fd{isolation:isolate;}.a5b6026e-f07b-47e9-b217-b4d104c47522{clip-path:url(#e4ce496e-a7db-48ed-9c45-322893a98071);}.a64ce775-9971-44fc-8e3d-7da330d9c3eb{fill:#eaccca;}.a7bd113c-3eb3-4e3f-b0ad-cb79b40511c2{clip-path:url(#bd376f2e-7040-4018-a1e6-2527c089f23d);}.a69abcea-0a5f-46c5-9747-6152e2a7fe64{fill:#009ac4;}.a097db21-08f3-420c-bb35-952e3a0e09c3{fill:#0f2849;}.ae92604e-6534-441a-8e35-7d3b3b85ca17{clip-path:url(#e0ca99ce-567c-41d4-bc0e-bf8cc5740a08);}.a407dfb1-883f-49a4-aa2e-9d01b88f0c8e{stroke:#ee755b;stroke-linecap:round;stroke-linejoin:round;stroke-width:2px;}.f3ca7501-70a5-4725-b7a2-8a91a7b33b5f{fill:#6ba097;opacity:0.8;mix-blend-mode:hard-light;}.fe2b2402-6837-4e55-ac11-92e662abef20{clip-path:url(#ec7707da-735a-4c56-8862-47170ee439fb);}.ae42f7e2-631e-4e5a-9b58-a894c389f10e{clip-path:url(#b34e68ee-0736-4815-86b6-39dcf530e56c);}.ba7ee964-81c5-430f-a0d3-48a2818c6aa0{fill:#c3d7dc;}.a3878b92-4642-45f6-903e-c6a8dcb5784c{fill:#4d5d82;}.a8d039a3-654b-4f46-a4a9-86fcf98b1228{fill:#a7a9ac;}.bf07adf2-632a-4310-82eb-5df93fef76fa{fill:#af2027;}.b735a34c-653c-4c17-810d-da7cad5c0e4e{clip-path:url(#b729190a-c2e4-48ed-94e1-0fcfcb31e2c7);}.ec954098-6fc5-4023-8899-5c1160635428{fill:#e6e7e8;}.b9b3d085-6b46-4a94-ab1b-fe3da606fac3{stroke:#4d5d82;stroke-width:1.49498px;}.bcce025e-4356-45fb-9a09-a5736366856e{fill:#ef5b5b;}.bae7e2ca-1b65-46a8-9ace-01e840a19e27{fill:#0e2849;}.f4b39b4c-d1e3-4ddb-8d16-99d264c206f6{fill:#037c99;}</style><clipPath id="e4ce496e-a7db-48ed-9c45-322893a98071"><rect class="a5a1d101-f807-4b07-b6d8-9a42803ff9e3" x="22.87936" y="-555.04956" width="233.75906" height="493.74709"/></clipPath><clipPath id="bd376f2e-7040-4018-a1e6-2527c089f23d"><path class="a1265db3-71a5-4cc2-a54b-a7e962e408a3" d="M61.62294-52.21192l-.06246.00025c-3.655.01049-3.98052.34172-7.57483-.237-2.42847-.391-3.78483-1.58477-5.21486,1.47176-.18135.38762-1.5064,4.99449-1.479,4.98083-3.3666,1.67768-4.34545,5.79371-4.75822,9.547-.2232,2.02961-1.09334,4.77265.29925,5.69075,3.29117,2.1698,7.32632,3.33635,11.06457,4.36452,1.21623.33451-1.05139-.64766-.137.35995l.78307,1.37527,91.03135,26.503a12.9664,12.9664,0,0,0,7.2412.15888.70375.70375,0,0,0,.303-.16462.97782.97782,0,0,0,.17946-.33187c.49116-1.27694,1.40993-4.414,1.91722-5.681a46.32061,46.32061,0,0,0,1.85793-6.20266c.14013-.57094.51837-1.84787.09686-2.3254-.01747-.01979-.358-.31411-.39362-.19167.00279-.00957,1.39174-3.04962,1.39265-3.05275.2121-.72851-2.847-3.73409-3.87015-4.50557a30.73252,30.73252,0,0,0-4.299-3.10072c-1.82373-.98009-11.09033-5.08421-13.392-5.76037-1.87177-.54988-5.42248-1.8872-5.42248-1.8872a23.42241,23.42241,0,0,1-4.048-4.63366c-.96319-1.22886-2.033-2.356-2.99688-3.56152-.83857-1.04879-1.80491-1.88636-2.71343-2.82862a25.426,25.426,0,0,0-4.87754-4.34968,27.48989,27.48989,0,0,0-5.63706-2.32572q-6.92267-2.31128-13.95242-4.275a31.35,31.35,0,0,0-9.18076-.8713c-4.67715.23913-9.34548.31476-14.02782.65025-1.81206.12983-3.62592.38321-5.44017.61294A56.92121,56.92121,0,0,1,61.62294-52.21192Z"/></clipPath><clipPath id="e0ca99ce-567c-41d4-bc0e-bf8cc5740a08"><rect class="a5a1d101-f807-4b07-b6d8-9a42803ff9e3" x="-230.12064" y="-555.04956" width="233.75906" height="493.74709"/></clipPath><clipPath id="ec7707da-735a-4c56-8862-47170ee439fb"><rect class="a5a1d101-f807-4b07-b6d8-9a42803ff9e3" x="267.71264" y="-555.04956" width="233.75906" height="493.74709"/></clipPath><clipPath id="b34e68ee-0736-4815-86b6-39dcf530e56c"><path class="a1265db3-71a5-4cc2-a54b-a7e962e408a3" d="M19.56291,1.87271l-.06246.00026c-3.655.01049-3.98052.34172-7.57484-.237C9.49715,1.245,8.14079.05123,6.71076,3.10775c-.18136.38763-1.5064,4.9945-1.479,4.98083C1.86518,9.76627.88633,13.8823.47357,17.63558c-.2232,2.02961-1.09334,4.77264.29925,5.69075,3.29117,2.16979,7.32632,3.33635,11.06456,4.36451,1.21624.33452-1.05138-.64765-.13695.35995l.78307,1.37527,91.03134,26.503a12.96644,12.96644,0,0,0,7.24121.15889.70391.70391,0,0,0,.303-.16462.97809.97809,0,0,0,.17946-.33187c.49116-1.27694,1.40992-4.414,1.91721-5.681a46.31914,46.31914,0,0,0,1.85793-6.20266c.14013-.57094.51838-1.84788.09686-2.3254-.01746-.01979-.358-.31411-.39361-.19167.00278-.00957,1.39173-3.04962,1.39264-3.05275.2121-.72851-2.847-3.73409-3.87015-4.50558a30.73128,30.73128,0,0,0-4.299-3.10071c-1.82373-.9801-11.09032-5.08421-13.392-5.76038-1.87177-.54988-5.42249-1.8872-5.42249-1.8872a23.4217,23.4217,0,0,1-4.048-4.63365c-.9632-1.22887-2.033-2.356-2.99688-3.56153-.83858-1.04878-1.80491-1.88635-2.71343-2.82862a25.42625,25.42625,0,0,0-4.87754-4.34967,27.49034,27.49034,0,0,0-5.63707-2.32573Q61.93042,2.87362,54.90066.90987a31.34978,31.34978,0,0,0-9.18077-.8713C41.04275.2777,36.37442.35332,31.69207.68881c-1.81205.12983-3.62591.38322-5.44016.613A56.92117,56.92117,0,0,1,19.56291,1.87271Z"/></clipPath><clipPath id="b729190a-c2e4-48ed-94e1-0fcfcb31e2c7"><path class="a1265db3-71a5-4cc2-a54b-a7e962e408a3" d="M33.50211,3.55616c-.13625.00526-.27605.06683-.41265.0811-.94347.116-1.917.10874-2.85531.31028a8.308,8.308,0,0,1,.63452,1.357c.15281.35509.23273.527.58959.644,1.10512.36249,2.20936.73411,3.32589,1.05918,7.89742,2.29927,15.78791,4.61865,23.65156,7.03269q.62694.19245,1.25382.38485c1.45269.44581,17.26761,5.33594,17.32854,5.1305a3.70779,3.70779,0,0,1,.86588-1.34433,4.36852,4.36852,0,0,1,1.772-.81666c-.56266-.79422-1.335-1.81038-1.96312-2.53149-.54385-.62434-1.13572-1.19481-1.70016-1.79638a23.11881,23.11881,0,0,0-3.15738-2.51,10.157,10.157,0,0,0-2.26644-1.2861C65.42962,7.104,59.8675,5.89713,54.52139,4.34065c-1.11463-.32451-4.99883-1.25051-5.79648-1.37331a39.24958,39.24958,0,0,0-8.54687.09178c-1.127.07845-2.255.18346-3.38254.27837C35.70624,3.42918,34.5897,3.396,33.50211,3.55616Z"/></clipPath></defs><title>Artboard 231</title><g class="bad3be44-e237-4e96-bac9-e602d4f3e8fd"><g id="b2e0cc48-2f22-4ef9-8d05-01e71e3cde9a" data-name="Layer 1"><g class="a5b6026e-f07b-47e9-b217-b4d104c47522"><polygon class="a64ce775-9971-44fc-8e3d-7da330d9c3eb" points="224.034 797.666 21.296 797.666 21.422 -1952.709 30.335 -1959.256 51.166 -1977.597 256.34 -1977.597 256.792 771.766 224.034 797.666"/><g class="a7bd113c-3eb3-4e3f-b0ad-cb79b40511c2"><path class="a69abcea-0a5f-46c5-9747-6152e2a7fe64" d="M61.62294-52.21192l-.06246.00025c-3.655.01049-3.98052.34172-7.57483-.237-2.42847-.391-3.78483-1.58477-5.21486,1.47176-.18135.38762-1.5064,4.99449-1.479,4.98083-3.3666,1.67768-4.34545,5.79371-4.75822,9.547-.2232,2.02961-1.09334,4.77265.29925,5.69075,3.29117,2.1698,7.32632,3.33635,11.06457,4.36452,1.21623.33451-1.05139-.64766-.137.35995l.78307,1.37527,91.03135,26.503a12.9664,12.9664,0,0,0,7.2412.15888.70375.70375,0,0,0,.303-.16462.97782.97782,0,0,0,.17946-.33187c.49116-1.27694,1.40993-4.414,1.91722-5.681a46.32061,46.32061,0,0,0,1.85793-6.20266c.14013-.57094.51837-1.84787.09686-2.3254-.01747-.01979-.358-.31411-.39362-.19167.00279-.00957,1.39174-3.04962,1.39265-3.05275.2121-.72852-2.84709-3.73416-3.87019-4.5056-1.959-1.47712-4.07913-3.5143-6.3288-4.35544-1.39327-.52093-2.882-.83865-4.30927-1.25418-2.3033-.67059-4.75117-2.57528-7.05284-3.25144-1.87177-.54988-3.78985-.6821-5.42248-1.8872a23.42241,23.42241,0,0,1-4.048-4.63366c-.96319-1.22886-2.033-2.356-2.99688-3.56152-.83857-1.04879-1.80491-1.88636-2.71343-2.82862a25.426,25.426,0,0,0-4.87754-4.34968,27.48989,27.48989,0,0,0-5.63706-2.32572q-6.92267-2.31128-13.95242-4.275a31.35,31.35,0,0,0-9.18076-.8713c-4.67715.23913-9.34548.31476-14.02782.65025-1.81206.12983-3.62592.38321-5.44017.61294A56.92121,56.92121,0,0,1,61.62294-52.21192Z"/><path class="a69abcea-0a5f-46c5-9747-6152e2a7fe64" d="M39.35262-32.72787a6.60218,6.60218,0,0,1,1.26458-4.44589c.43936-.57456,1.0176-.85407,1.4769-1.37553.48755-.55353.82681-1.3094,1.27144-1.91061a6.2567,6.2567,0,0,1,6.05026-2.189c2.29443.32357,4.34555,1.50947,6.54923,2.151L59.59526-39.441,79.5626-33.62764l33.17413,9.65838,15.33785,4.46549c2.07652.60456,4.09053,1.0295,6.14961,1.80259,2.8078,1.05419,5.67855,2.19357,7.78189,4.61662,1.97964,2.28053,2.69017,5.345,3.18265,8.62881.44105,2.94079,1.31544,6.17983,4.0704,6.86629,2.21471.55182,5.356-.56474,6.28295,1.82591a4.321,4.321,0,0,1,.12492,2.18181c-.59722,3.82128-3.68938,6.716-6.77736,8.26027-5.049,2.525-10.53452,2.59816-15.70155,1.88575-9.15668-1.26248-17.754-4.82454-26.403-8.01383C94.69694,4.093,82.35781.32179,70.60126-5.02991S51.425-16.295,42.55293-26.53395C41.071-28.24424,39.59583-30.197,39.35262-32.72787Z"/></g><path class="a097db21-08f3-420c-bb35-952e3a0e09c3" d="M60.63442,37.01544v.82032h-4.54v-.82032h2.77978V34.036a1.06393,1.06393,0,0,0-.23-.76465.89441.89441,0,0,0-.66992-.23535H56.09438v-.82031h2.1499a1.68712,1.68712,0,0,1,1.25.45019,1.94141,1.94141,0,0,1,.44971,1.41993v2.92968Z"/><path class="a097db21-08f3-420c-bb35-952e3a0e09c3" d="M61.36391,37.01544h1.43994a1.28453,1.28453,0,0,0,1.06006-.42968A1.88756,1.88756,0,0,0,64.214,35.365v-.67968a1.88461,1.88461,0,0,0-.3501-1.21973,1.28743,1.28743,0,0,0-1.06006-.42969H61.36391v-.82031H63.0641a2.063,2.063,0,0,1,1.645.66016,2.74286,2.74286,0,0,1,.57471,1.86035v.58008a2.74185,2.74185,0,0,1-.57471,1.85937,2.0662,2.0662,0,0,1-1.645.66016H61.36391Z"/><path class="a097db21-08f3-420c-bb35-952e3a0e09c3" d="M68.8644,34.036a1.06393,1.06393,0,0,0-.23-.76465.89445.89445,0,0,0-.66993-.23535H66.1144v-.82031h2.12011a1.6871,1.6871,0,0,1,1.25.45019,1.94137,1.94137,0,0,1,.44971,1.41993v3.75H68.8644Z"/><path class="a097db21-08f3-420c-bb35-952e3a0e09c3" d="M75.70424,37.18146a2.12706,2.12706,0,0,1-1.76025.77441,3.8924,3.8924,0,0,1-.85987-.10058L73.194,37.036a3.19888,3.19888,0,0,0,.6499.0791,1.23327,1.23327,0,0,0,1.11035-.52929,2.827,2.827,0,0,0,.3501-1.54981,2.7879,2.7879,0,0,0-.33545-1.56543,1.09839,1.09839,0,0,0-.95459-.47461,1.12613,1.12613,0,0,0-.78516.27539,1.34092,1.34092,0,0,0-.40527.73438L72.154,37.83576H71.08412l.72022-3.87012-.78028-1.75h1.10987l.45019,1.18066a1.85331,1.85331,0,0,1,.64014-.94531,1.61,1.61,0,0,1,.98-.31543,1.89089,1.89089,0,0,1,1.56006.69531,3.45091,3.45091,0,0,1,.55957,2.17481A3.40434,3.40434,0,0,1,75.70424,37.18146Z"/><path class="a097db21-08f3-420c-bb35-952e3a0e09c3" d="M83.174,32.87091a2.91826,2.91826,0,0,1,.52,1.85547v5.10938H82.62416V34.68537q0-1.64941-1.23-1.64942h-.91992l-.16016.80957a2.4523,2.4523,0,0,0-.04.46094.94673.94673,0,0,0,.12012.50977.5628.5628,0,0,0,.3999.24023l-.22021.65918a1.4861,1.4861,0,0,1-.99463-.38965,1.274,1.274,0,0,1-.30518-.90039,2.86562,2.86562,0,0,1,.06983-.62988l.34033-1.58008H81.654A1.82571,1.82571,0,0,1,83.174,32.87091Z"/><path class="a097db21-08f3-420c-bb35-952e3a0e09c3" d="M89.35365,32.21564a21.818,21.818,0,0,1-.15478,3.03516,3.00745,3.00745,0,0,1-.75,1.64941,3.48319,3.48319,0,0,1-1.915.89551l-1.87988.37011L84.504,37.326l1.68995-.33008-1.23-4.78027h1.06982L87.154,36.74591a1.52907,1.52907,0,0,0,.77978-.7207,3.31924,3.31924,0,0,0,.30029-1.21484q.06006-.73536.06006-2.20508v-.38965Z"/><path class="a097db21-08f3-420c-bb35-952e3a0e09c3" d="M90.53383,33.38556l-.12012-1.16992h1.06006l.12988,1.16992v4.4502H90.53383Z"/><path class="a097db21-08f3-420c-bb35-952e3a0e09c3" d="M92.78334,35.115l.15039-.66992h.91992v3.39063H92.78334Zm3.39014-1.0791a1.06393,1.06393,0,0,0-.23-.76465.89368.89368,0,0,0-.66992-.23535h-2.46v-.82031h2.73a1.6871,1.6871,0,0,1,1.25.45019,1.94137,1.94137,0,0,1,.44971,1.41993v3.75H96.17348Z"/><path class="a097db21-08f3-420c-bb35-952e3a0e09c3" d="M102.67348,36.911a5.42176,5.42176,0,0,1-3.67969,1.02442l-.73-5.71973h1.02l.31982,2.66016a1.50821,1.50821,0,0,0,.75-.71,3.53184,3.53184,0,0,0,.21973-1.32031v-.61914h1.02l-.00977.59961a3.3931,3.3931,0,0,1-.43994,1.76465,2.91726,2.91726,0,0,1-1.43994,1.07519l.15967,1.35938a3.1313,3.1313,0,0,0,2.2251-.89941,3.33994,3.33994,0,0,0,.70507-2.31934l-.02-1.59082h1.06982l.01025,1.54A3.9083,3.9083,0,0,1,102.67348,36.911Z"/><path class="a097db21-08f3-420c-bb35-952e3a0e09c3" d="M110.79359,32.21564v.88965l-1.87011,4.73047h-1.06983l1.87012-4.79981h-3.01025V30.66583h.97021v1.54981Z"/><path class="a097db21-08f3-420c-bb35-952e3a0e09c3" d="M111.85365,37.01544h1.81006a1.45193,1.45193,0,0,0,1.08985-.41015,1.72693,1.72693,0,0,0,.3999-1.25v-.66992a2.01151,2.01151,0,0,0-.31983-1.21973,1.12153,1.12153,0,0,0-.96-.42969h-.90039l-.21972.98926a1.88,1.88,0,0,0-.0503.39062.61648.61648,0,0,0,.17041.46485,1.13339,1.13339,0,0,0,.56006.24512l-.19043.69043a1.75321,1.75321,0,0,1-1.13476-.39551,1.26789,1.26789,0,0,1-.355-.95508,2.61708,2.61708,0,0,1,.0498-.53027l.39014-1.71973h1.91015a1.93458,1.93458,0,0,1,1.56006.66016,2.77788,2.77788,0,0,1,.55957,1.85058v.58008a2.562,2.562,0,0,1-.63965,1.88867,2.29475,2.29475,0,0,1-1.70019.64063h-2.02979Z"/><path class="a097db21-08f3-420c-bb35-952e3a0e09c3" d="M64.57436,55.83576l-2.1001-3.18946L61.484,55.83576h-1.02L61.5641,52.3963l.28028-.71093-.91993-1.46973H62.0143l.83984,1.35059L63.694,52.826l.25-.87012.51025-1.74023H65.484l-1.15966,3.54L65.714,55.83576Z"/><path class="a097db21-08f3-420c-bb35-952e3a0e09c3" d="M70.504,50.21564v.88965l-1.87011,4.73047H67.5641L69.43422,51.036H66.424V48.66583h.97021v1.54981Z"/><path class="a097db21-08f3-420c-bb35-952e3a0e09c3" d="M75.76381,54.911a5.42174,5.42174,0,0,1-3.67969,1.02442l-.73-5.71973h1.02L72.694,52.8758a1.50829,1.50829,0,0,0,.75-.71,3.53187,3.53187,0,0,0,.21972-1.32031v-.61914h1.02L74.674,50.826a3.39319,3.39319,0,0,1-.43995,1.76465,2.91726,2.91726,0,0,1-1.43994,1.07519l.15967,1.35938a3.13128,3.13128,0,0,0,2.2251-.89941,3.34,3.34,0,0,0,.70508-2.31934l-.02-1.59082h1.06982l.01026,1.54A3.90834,3.90834,0,0,1,75.76381,54.911Z"/><path class="a097db21-08f3-420c-bb35-952e3a0e09c3" d="M83.88393,50.21564v.88965l-1.87012,4.73047H80.944L82.8141,51.036H79.80385V48.66583h.97021v1.54981Z"/><path class="a097db21-08f3-420c-bb35-952e3a0e09c3" d="M84.944,55.01544H86.754a1.4519,1.4519,0,0,0,1.08985-.41015,1.72693,1.72693,0,0,0,.3999-1.25v-.66992a2.01158,2.01158,0,0,0-.31982-1.21973,1.12155,1.12155,0,0,0-.96-.42969h-.9004l-.21972.98926a1.88064,1.88064,0,0,0-.0503.39062.61649.61649,0,0,0,.17042.46485,1.13335,1.13335,0,0,0,.56005.24512l-.19043.69043a1.75323,1.75323,0,0,1-1.13476-.39551,1.26789,1.26789,0,0,1-.355-.95508,2.61708,2.61708,0,0,1,.0498-.53027l.39014-1.71973H87.194a1.93457,1.93457,0,0,1,1.56005.66016,2.77788,2.77788,0,0,1,.55957,1.85058v.58008a2.562,2.562,0,0,1-.63964,1.88867,2.29479,2.29479,0,0,1-1.7002.64063H84.944Z"/><path class="a097db21-08f3-420c-bb35-952e3a0e09c3" d="M90.464,51.38556l-.12012-1.16992H91.404l.12988,1.16992v4.4502H90.464Z"/><path class="a097db21-08f3-420c-bb35-952e3a0e09c3" d="M92.61391,50.21564h1.06982l.54,4.75a2.15,2.15,0,0,0,2.23975-2.41992v-.28028a1.34843,1.34843,0,0,0-.29-.88964,1.16379,1.16379,0,0,0-.85987-.38965l-.5-.03028.08008-.84082.58985.03125a2.27767,2.27767,0,0,1,1.43994.55469,1.96763,1.96763,0,0,1,.58008,1.43457l.01025.28027a2.87842,2.87842,0,0,1-1.0752,2.585,5.61879,5.61879,0,0,1-3.15478.93457Z"/><path class="a097db21-08f3-420c-bb35-952e3a0e09c3" d="M103.00356,55.18146a2.12708,2.12708,0,0,1-1.76026.77441,3.89238,3.89238,0,0,1-.85986-.10058l.10986-.81934a3.199,3.199,0,0,0,.6499.0791,1.23328,1.23328,0,0,0,1.11036-.52929,2.827,2.827,0,0,0,.35009-1.54981,2.78781,2.78781,0,0,0-.33545-1.56543,1.09837,1.09837,0,0,0-.95459-.47461,1.12608,1.12608,0,0,0-.78515.27539,1.34094,1.34094,0,0,0-.40528.73438l-.66992,3.83008H98.38344l.72021-3.87012-.78027-1.75h1.10986l.4502,1.18066a1.85331,1.85331,0,0,1,.64014-.94531,1.61,1.61,0,0,1,.98-.31543,1.89086,1.89086,0,0,1,1.56005.69531,3.45084,3.45084,0,0,1,.55957,2.17481A3.4044,3.4044,0,0,1,103.00356,55.18146Z"/><path class="a097db21-08f3-420c-bb35-952e3a0e09c3" d="M110.53334,50.21564v.88965l-1.87012,4.73047H107.5934l1.87012-4.79981h-3.01026V48.66583h.97022v1.54981Z"/><path class="a097db21-08f3-420c-bb35-952e3a0e09c3" d="M115.79311,54.911a5.42176,5.42176,0,0,1-3.67969,1.02442l-.73-5.71973h1.02l.31982,2.66016a1.50821,1.50821,0,0,0,.75-.71,3.53184,3.53184,0,0,0,.21973-1.32031v-.61914h1.02l-.00977.59961a3.3931,3.3931,0,0,1-.43994,1.76465,2.91726,2.91726,0,0,1-1.43994,1.07519l.15967,1.35938a3.13131,3.13131,0,0,0,2.2251-.89941,3.33994,3.33994,0,0,0,.70507-2.31934l-.02-1.59082H116.963l.01025,1.54A3.9083,3.9083,0,0,1,115.79311,54.911Z"/></g><rect class="a5a1d101-f807-4b07-b6d8-9a42803ff9e3" x="22.87936" y="-555.04956" width="233.75906" height="493.74709"/><g class="ae92604e-6534-441a-8e35-7d3b3b85ca17"><polygon class="a64ce775-9971-44fc-8e3d-7da330d9c3eb" points="-28.966 477.166 -231.704 477.166 -231.578 -2273.209 -222.665 -2279.756 -201.834 -2298.097 3.34 -2298.097 3.792 451.266 -28.966 477.166"/><path class="a407dfb1-883f-49a4-aa2e-9d01b88f0c8e" d="M-231.46538,54.83313l72.49607.1061a.53139.53139,0,0,0,.47745-.35009l3.897-12.488c.36024-1.15438.7965-1.11963.96948.07722l3.08932,21.37591c.2611,1.80659.70487,1.80907.98616.00552l2.19476-15.18235s.11812-.98542.2228-.98879c.10867-.0035.24517.74281.24517.74281l1.17181,6.45809a.52343.52343,0,0,0,.48522.39023l47.50686.14071.04316.00013,51.58183.2229a.52342.52342,0,0,0,.48752-.38735l1.20994-6.45105s.14091-.7455.24956-.74136c.10466.004.217.9901.217.9901l2.105,15.19505c.27063,1.80518.71441,1.80532.98617.00031l3.23364-27.47084c.18-1.19581.6165-1.228.96991-.07149l3.80511,18.62432a.53139.53139,0,0,0,.47538.3529l35.91186.1061"/><rect class="f3ca7501-70a5-4725-b7a2-8a91a7b33b5f" x="27.09264" y="59.61386" width="48.66667" height="15.68892"/></g><rect class="a5a1d101-f807-4b07-b6d8-9a42803ff9e3" x="-230.12064" y="-555.04956" width="233.75906" height="493.74709"/><rect class="a5a1d101-f807-4b07-b6d8-9a42803ff9e3" x="267.71264" y="-555.04956" width="233.75906" height="493.74709"/><g class="ae42f7e2-631e-4e5a-9b58-a894c389f10e"><path class="a69abcea-0a5f-46c5-9747-6152e2a7fe64" d="M19.56291,1.87271l-.06246.00026c-3.655.01049-3.98052.34172-7.57484-.237C9.49715,1.245,8.14079.05123,6.71076,3.10775c-.18136.38763-1.5064,4.9945-1.479,4.98083C1.86518,9.76627.88633,13.8823.47357,17.63558c-.2232,2.02961-1.09334,4.77264.29925,5.69075,3.29117,2.16979,7.32632,3.33635,11.06456,4.36451,1.21624.33452-1.05138-.64765-.13695.35995l.78307,1.37527,91.03134,26.503a12.96644,12.96644,0,0,0,7.24121.15889.70391.70391,0,0,0,.303-.16462.97809.97809,0,0,0,.17946-.33187c.49116-1.27694,1.40992-4.414,1.91721-5.681a46.31914,46.31914,0,0,0,1.85793-6.20266c.14013-.57094.51838-1.84788.09686-2.3254-.01746-.01979-.358-.31411-.39361-.19167.00278-.00957,1.39173-3.04962,1.39264-3.05275.21211-.72852-2.84709-3.73416-3.87018-4.50561-1.959-1.47712-4.07914-3.5143-6.3288-4.35543-1.39327-.52094-2.882-.83866-4.30928-1.25419-2.30329-.67058-4.75116-2.57527-7.05283-3.25144-1.87177-.54988-3.78985-.68209-5.42249-1.8872a23.4217,23.4217,0,0,1-4.048-4.63365c-.9632-1.22887-2.033-2.356-2.99688-3.56153-.83858-1.04878-1.80491-1.88635-2.71343-2.82862a25.42625,25.42625,0,0,0-4.87754-4.34967,27.49034,27.49034,0,0,0-5.63707-2.32573Q61.93042,2.87362,54.90066.90987a31.34978,31.34978,0,0,0-9.18077-.8713C41.04275.2777,36.37442.35332,31.69207.68881c-1.81205.12983-3.62591.38322-5.44016.613A56.92117,56.92117,0,0,1,19.56291,1.87271Z"/><path class="a69abcea-0a5f-46c5-9747-6152e2a7fe64" d="M-2.70741,21.35677a6.60215,6.60215,0,0,1,1.26458-4.44589c.43935-.57456,1.0176-.85407,1.4769-1.37553.48755-.55354.8268-1.3094,1.27143-1.91062a6.25673,6.25673,0,0,1,6.05027-2.189c2.29443.32357,4.34555,1.50947,6.54923,2.151l3.63022,1.05691L37.50257,20.457l33.17412,9.65837,15.33785,4.46549c2.07652.60456,4.09054,1.02951,6.14962,1.80259,2.8078,1.0542,5.67855,2.19358,7.78189,4.61663,1.97963,2.28053,2.69017,5.34505,3.18265,8.6288.441,2.94079,1.31543,6.17983,4.0704,6.86629,2.2147.55182,5.35595-.56473,6.28294,1.82592a4.32079,4.32079,0,0,1,.12493,2.1818c-.59722,3.82129-3.68938,6.716-6.77737,8.26028-5.049,2.525-10.53451,2.59816-15.70155,1.88575-9.15667-1.26248-17.754-4.82454-26.403-8.01383-12.08818-4.45748-24.42732-8.22866-36.18387-13.58037S9.365,37.78962.49289,27.55069C-.98909,25.8404-2.46421,23.88763-2.70741,21.35677Z"/><path class="ba7ee964-81c5-430f-a0d3-48a2818c6aa0" d="M111.51161,40.48962a12.27245,12.27245,0,0,1-6.6517-4.19228c-.86367-1.04264-1.45234-1.01742-2.431-1.91027a11.93608,11.93608,0,0,0-2.99032-1.83841c-3.80824-1.82387-7.916-4.46008-11.89241-5.82958L19.6332,6.94679c-2.035-.59247-4.07565-.5869-5.90586-1.70314-2.107-1.07536-4.039-2.57659-6.08628-3.75924a.074.074,0,0,1-.04628-.06018.10279.10279,0,0,1,.021-.05312.9158.9158,0,0,1,.43251-.36073c.19-.07127.389-.05813.58022-.1225.091-.03065.17875-.07839.26927-.112A1.80935,1.80935,0,0,1,9.4.68851,37.54328,37.54328,0,0,1,16.92283.9909c4.23691.52421,4.64024.21532,9.00363-.33828,4.07273-.51673,8.07019-2.204,12.10625-3.359,19.71382-5.64145,39.8226,1.941,54.27122,16.18746,4.11339,4.05583,8.06762,9.91394,12.98027,12.60344,2.92946,1.60376,6.1832,2.47276,9.00483,4.29655a8.94372,8.94372,0,0,1,4.14036,5.38842c.36105,1.56462-.03355,2.22394-.85232,3.697C116.07283,42.17241,113.40113,40.92687,111.51161,40.48962Z"/><path class="a3878b92-4642-45f6-903e-c6a8dcb5784c" d="M108.167,35.0541l.00807-.03927a8.932,8.932,0,0,1,2.0433.55818,29.31433,29.31433,0,0,1,3.23935,1.0111c.82373.37386,2.1846.73028,1.77176,2.31248-.1944.745-.53349.63307-.89652,1.29836-.346.63408-.937-.01223-1.17385-.4255a13.52027,13.52027,0,0,0-.77339-1.50919c-.55029-.7144-1.434-.79612-2.17894-1.14894-.59544-.282-.97175.46951-1.37588-.14726A3.14573,3.14573,0,0,1,108.167,35.0541Z"/><path class="a3878b92-4642-45f6-903e-c6a8dcb5784c" d="M84.16777,23.36922l1.32668.38625c.3441.10018,1.09135.14351,1.32469.43564-.90623-.35352-1.83167-.56265-2.76332-.84077l-3.96089-1.19251-5.34317-1.60868L68.428,18.64526,61.52549,16.5671l-7.07965-2.13148-6.855-2.06385-6.22867-1.87528L36.16156,8.93074,32.39078,7.79546l-1.93926-.58385c-.05771-.01738-.11528-.03528-.17315-.05213l-.45631-.13285a7.2917,7.2917,0,0,0-.27533-1.137,2.844,2.844,0,0,0-.823-.90041,4.34861,4.34861,0,0,0-1.49508-.61146c-1.20126-.34974-2.38511-.59606-3.595-.85691,2.59422-.32506,5.12421-.73274,7.70455-.96349,2.27018-.203,4.635-.52611,6.88965-.57886,3.25554-.07617,6.50162-.477,9.737-.24628a39.9068,39.9068,0,0,1,7.924,1.54577c2.69372.75554,5.38979,1.504,8.06311,2.32962,1.99921.61744,3.9894,1.26424,5.9813,1.90534a15.27349,15.27349,0,0,1,5.17326,2.99139l-.22594-.19811a33.70609,33.70609,0,0,1,3.21557,3.113l1.96533,2.14341c1.26789,1.38278,2.53635,2.767,3.73039,4.23951.60262.74315,1.18623,1.50848,1.73892,2.30549A11.0736,11.0736,0,0,1,86.77444,24.068"/><path class="a8d039a3-654b-4f46-a4a9-86fcf98b1228" d="M33.50211,3.55616c-.13625.00526-.27605.06683-.41265.0811-.94347.116-1.917.10874-2.85531.31028a8.308,8.308,0,0,1,.63452,1.357c.15281.35509.23273.527.58959.644,1.10512.36249,2.20936.73411,3.32589,1.05918,7.89742,2.29927,15.78791,4.61865,23.65156,7.03269q.62694.19245,1.25382.38485c1.45269.44581,17.26761,5.33594,17.32854,5.1305a3.70779,3.70779,0,0,1,.86588-1.34433,4.36852,4.36852,0,0,1,1.772-.81666c-.56266-.79422-1.335-1.81038-1.96312-2.53149-.54385-.62434-1.13572-1.19481-1.70016-1.79638a23.11881,23.11881,0,0,0-3.15738-2.51,10.157,10.157,0,0,0-2.26644-1.2861C65.42962,7.104,59.8675,5.89713,54.5214,4.34065c-.69864-.2034-4.56868-1.18428-5.79649-1.37331a39.24958,39.24958,0,0,0-8.54687.09178c-1.127.07845-2.255.18346-3.38254.27837C35.70624,3.42918,34.5897,3.396,33.50211,3.55616Z"/><path class="a3878b92-4642-45f6-903e-c6a8dcb5784c" d="M105.7,51.7906a4.41569,4.41569,0,0,1,2.73715-1.82491,17.32111,17.32111,0,0,1,3.536.73388c.35727.35137-.04607,1.20853-.20421,1.62879-.32074.85234-.67192,1.692-.99573,2.54225-.33.86643-5.14007.6238-5.5661-.02207A2.66208,2.66208,0,0,1,105.7,51.7906Z"/><path class="bf07adf2-632a-4310-82eb-5df93fef76fa" d="M6.99521,1.80481c.98864-.69633,3.65393.862,4.54291,1.38771a17.41962,17.41962,0,0,1,3.8356,3.09053,12.76523,12.76523,0,0,1-4.7182,1.75133,25.65133,25.65133,0,0,1-2.88687.42594,6.28269,6.28269,0,0,1-2.29614-.3c-.30881-.09493-.51045-.035-.489-.47385.01562-.32017.17054-.63433.19015-.955a4.37158,4.37158,0,0,1,.47263-1.47589,4.75012,4.75012,0,0,0,.32646-1.16585A4.5449,4.5449,0,0,1,6.99521,1.80481Z"/><path class="a3878b92-4642-45f6-903e-c6a8dcb5784c" d="M20.51076,19.98852a10.5778,10.5778,0,0,1,10.92242,3.8998A11.90154,11.90154,0,0,1,32.032,36.37561c-.071.12368-9.67542-1.84712-10.5801-2.05362-1.58064-.36079-2.93835-1.265-4.44047-1.697-1.66565-.479-3.21968-.03979-4.77939-1.12911a3.62125,3.62125,0,0,1-1.391-1.6836c-.72036-1.97963,2.09635-4.88925,3.374-6.17A13.40179,13.40179,0,0,1,20.51076,19.98852Z"/><ellipse class="a3878b92-4642-45f6-903e-c6a8dcb5784c" cx="91.19835" cy="52.21767" rx="12.18862" ry="11.14907" transform="matrix(0.27954, -0.96014, 0.96014, 0.27954, 15.56914, 125.18373)"/><g class="b735a34c-653c-4c17-810d-da7cad5c0e4e"><path class="ec954098-6fc5-4023-8899-5c1160635428" d="M81.09558,18.9329c-3.30991-.59964-15.10018-5.78178-15.96984-6.17579-.92274-.41805-23.819-10.17828-24.189-10.39386-1.06064-.618-2.783-5.83942-1.96562-7.049a3.96233,3.96233,0,0,1,3.10266-1.49086,20.70378,20.70378,0,0,1,6.03312.51068A47.07886,47.07886,0,0,1,62.83054.11963a99.99423,99.99423,0,0,1,12.33654,9.307l5.67467,4.75667a2.88073,2.88073,0,0,1,.74772.81646c.57171,1.06618-.073,2.49778-.25058,3.79115a.11151.11151,0,0,1-.08682.09591"/></g><line class="b9b3d085-6b46-4a94-ab1b-fe3da606fac3" x1="51.37628" y1="13.04792" x2="54.14029" y2="3.55423"/><path class="bcce025e-4356-45fb-9a09-a5736366856e" d="M6.73482,4.65575c.08556-.43743.65981-2.33686.91571-2.32749a.226.226,0,0,1,.07307.01944A8.16277,8.16277,0,0,1,9.98368,3.52513c.26381.21449-.28979.50052-.41292.56932a4.44718,4.44718,0,0,1-1.2187.4271A5.53017,5.53017,0,0,1,6.73482,4.65575Z"/></g><circle class="bae7e2ca-1b65-46a8-9ace-01e840a19e27" cx="90.92844" cy="50.74801" r="9.73052"/><circle class="a8d039a3-654b-4f46-a4a9-86fcf98b1228" cx="90.92844" cy="50.74801" r="6.79281"/><path class="ec954098-6fc5-4023-8899-5c1160635428" d="M94.84729,46.2519,90.92844,50.748l-2.10669-5.59124S91.42542,43.85494,94.84729,46.2519Z"/><path class="ec954098-6fc5-4023-8899-5c1160635428" d="M86.97656,55.31511,90.89542,50.819l2.10668,5.59124S90.39843,57.71207,86.97656,55.31511Z"/><path class="ec954098-6fc5-4023-8899-5c1160635428" d="M86.37538,46.83915,90.87149,50.758l-5.59124,2.10669S83.97843,50.261,86.37538,46.83915Z"/><path class="ec954098-6fc5-4023-8899-5c1160635428" d="M95.4141,54.70273,90.918,50.78387l5.59124-2.10668S97.81106,51.28086,95.4141,54.70273Z"/><circle class="bae7e2ca-1b65-46a8-9ace-01e840a19e27" cx="21.88617" cy="30.64692" r="9.73052"/><circle class="a8d039a3-654b-4f46-a4a9-86fcf98b1228" cx="21.88618" cy="30.64692" r="6.79281"/><path class="ec954098-6fc5-4023-8899-5c1160635428" d="M25.805,26.15081l-3.91885,4.49611-2.10669-5.59124S22.38316,23.75386,25.805,26.15081Z"/><path class="ec954098-6fc5-4023-8899-5c1160635428" d="M17.9343,35.214l3.91885-4.49611,2.10669,5.59124S21.35617,37.611,17.9343,35.214Z"/><path class="ec954098-6fc5-4023-8899-5c1160635428" d="M17.33312,26.73806l4.49611,3.91885L16.238,32.7636S14.93616,30.15993,17.33312,26.73806Z"/><path class="ec954098-6fc5-4023-8899-5c1160635428" d="M26.37184,34.60164l-4.49611-3.91885L27.467,28.5761S28.7688,31.17977,26.37184,34.60164Z"/><path class="f4b39b4c-d1e3-4ddb-8d16-99d264c206f6" d="M51.5388,18.31145l30.92731,9.00423S81.04854,36.72415,69.38988,42.723L45.53836,35.77879S51.19145,24.39315,51.5388,18.31145Z"/><path class="f4b39b4c-d1e3-4ddb-8d16-99d264c206f6" d="M79.85777,22.72608a6.91071,6.91071,0,0,1,3.7319,2.31539c.71432.72576,1.64453,1.80825,2.66684.5226a1.86766,1.86766,0,0,0,.13443-1.87207,11.54784,11.54784,0,0,0-3.32755-3.8084,3.48348,3.48348,0,0,0-1.698-.79324,2.69372,2.69372,0,0,0-2.59753,2.56089,1.17665,1.17665,0,0,0,.07208.5435C79.01521,22.58315,79.46867,22.65549,79.85777,22.72608Z"/><path class="f4b39b4c-d1e3-4ddb-8d16-99d264c206f6" d="M22.18215,4.58545a7.25545,7.25545,0,0,1,3.40978.56685,2.22924,2.22924,0,0,1,1.67022,2.54054c-.182,1.99572-1.43846,1.97689-3.05951,1.52633l-2.98657-.83009a2.15981,2.15981,0,0,1-.80873-.35018C18.80813,6.73435,20.85139,4.80919,22.18215,4.58545Z"/></g></g></svg>