<svg xmlns="http://www.w3.org/2000/svg" xmlns:xlink="http://www.w3.org/1999/xlink" viewBox="0 0 116.41886 41.54579"><defs><style>.b4335ff8-78d1-45bd-a471-1af28429ff35,.be0942e2-83fd-485e-818c-6e09f10732e5,.fc3ae08d-c4bc-49a0-b9a2-f4ec68322a44{fill:none;}.fea22903-360e-41ae-a025-c75e26fd051b{isolation:isolate;}.fc3ae08d-c4bc-49a0-b9a2-f4ec68322a44{stroke:#bcbec0;}.be0942e2-83fd-485e-818c-6e09f10732e5,.fc3ae08d-c4bc-49a0-b9a2-f4ec68322a44{stroke-miterlimit:10;}.fa16981d-670b-446a-9405-b36c9e35a3de{clip-path:url(#ba70fd5e-5e50-4d86-ab54-49e6fcbda7a6);}.e0eac291-3b72-4f89-b32b-850a2b773e7e{fill:#009ac4;}.a56387d4-1d97-479c-ab9c-b26f5d2e77e1{fill:#c3d7dc;}.a7d7005a-c314-4ec9-ba85-882dc03bd6bf{fill:#4d5d82;}.a41626c5-ded9-4e31-98fd-6415093c9baa,.fd653fe5-e3b9-4621-8435-af434de55b4f{fill:#a7a9ac;}.a639e114-54ac-458f-b986-987efed0c2b6{fill:#af2027;}.a00fc7b6-5fbd-461a-9f2d-77df14622356{clip-path:url(#fbdf983c-0ff8-4695-9110-a0cc58369838);}.bb86d645-9639-4b72-ba53-0754b4c132e0{fill:#e6e7e8;}.be0942e2-83fd-485e-818c-6e09f10732e5{stroke:#4d5d82;stroke-width:1.27631px;}.b4f58403-4798-4520-8b7a-dd93d2a05b2d{fill:#ef5b5b;}.e4611008-2125-462a-994a-f2540ceef948{fill:#0e2849;}.f9818a7c-0aef-4484-bb4b-ee5e7c3fd935{fill:#037c99;}.a41626c5-ded9-4e31-98fd-6415093c9baa{opacity:0.33;mix-blend-mode:multiply;}</style><clipPath id="ba70fd5e-5e50-4d86-ab54-49e6fcbda7a6"><path class="b4335ff8-78d1-45bd-a471-1af28429ff35" d="M23.15436,9.23951l-.05114.01511c-2.9935.88087-3.18128,1.23006-6.26565,1.61349-2.08393.25906-3.48063-.39579-3.92339,2.45092-.05615.361-.04287,4.45349-.02365,4.43574-2.35922,2.17864-2.1793,5.78615-1.62192,8.96123.3014,1.71694.24277,4.17306,1.60338,4.5933,3.2156.99315,6.80161.98639,10.11123.937,1.07678-.016-1.01639-.28-.02636.32774l.97008.94043H85.51572q.921,0,1.81158.00112a25.2719,25.2719,0,0,1,2.55145-.28454c.86857-.0555,1.75353-.07635,2.64718-.07775q.66726.03776,1.34951.03922.682.00252,1.37478-.02721c3.89076-.76026,8.89076-.76026,9.89076-2.76026a4.643,4.643,0,0,0,.64734-.80981,4.7624,4.7624,0,0,0,.4471-.9199C105.141,23.40509,99.141,20.40509,99.4,15.69932c-.2094-.42425-.43841-.8419-.66124-1.26039s-.43673-.839-.64105-1.26181a7.42976,7.42976,0,0,0-1.21379-.69458A6.24234,6.24234,0,0,0,92.5481,12.205a6.25543,6.25543,0,0,1-1.24217-.49,5.70753,5.70753,0,0,1-1.19085-.84776,6.85847,6.85847,0,0,1-.95951-1.21288,3.36065,3.36065,0,0,0-.7287-.09544c-.95781-.04336-1.88909-.07114-2.73574-.11-.23885.00426-.47683.007-.7171.00535-.23873-.00014-.47976-.00472-.72285-.01514q-.2291-.121-.4535-.255c-1.04784-.62363-2.02773-1.43372-3.032-2.15479-1.0828-.77743-2.22873-1.44607-3.3065-2.20418-.93768-.65956-1.92967-1.11551-2.89925-1.67106A21.70678,21.70678,0,0,0,69.52374.75257,23.4688,23.4688,0,0,0,64.348.19145Q58.12191-.051,51.891.01694a26.76446,26.76446,0,0,0-7.73342,1.47678C40.38075,2.80593,36.57217,3.982,32.81411,5.37445c-1.45436.53887-2.88071,1.17944-4.313,1.80072A48.595,48.595,0,0,1,23.15436,9.23951Z"/></clipPath><clipPath id="fbdf983c-0ff8-4695-9110-a0cc58369838"><path class="b4335ff8-78d1-45bd-a471-1af28429ff35" d="M34.98209,7.29286c-.11043.03682-.21033.12065-.3189.165-.74568.32024-1.54543.54663-2.26645.93575a7.09318,7.09318,0,0,1,.844.96091c.21.2546.31654.37642.637.3872.99237.03339,1.9862.07449,2.979.07449,7.02224,0,14.0436.01814,21.06554.12027q.55983.00815,1.1196.01625c1.29717.01874,15.4277.253,15.42862.07a3.16532,3.16532,0,0,1,.38894-1.30859A3.72946,3.72946,0,0,1,76.117,7.62182c-.65076-.51674-1.52631-1.16538-2.21331-1.60656-.5948-.382-1.21609-.70836-1.82233-1.06676a19.73808,19.73808,0,0,0-3.18713-1.304,8.67127,8.67127,0,0,0-2.16473-.51334c-4.72969-.54961-9.577-.21151-14.33065-.21151-.99111,0-4.396.16792-5.07912.25762a33.50789,33.50789,0,0,0-6.984,2.11494c-.9051.33326-1.80461.68852-2.70623,1.03542C36.75851,6.66275,35.83535,6.902,34.98209,7.29286Z"/></clipPath></defs><title>Artboard 114</title><g class="fea22903-360e-41ae-a025-c75e26fd051b"><g id="ae0ca6a7-3423-4d72-97e5-67aaf8e4bf64" data-name="Layer 1"><polyline class="fc3ae08d-c4bc-49a0-b9a2-f4ec68322a44" points="-310.716 -190.972 -310.716 -416.315 -76.957 -412.799 -76.957 80.691 -310.716 77.175 -310.716 -190.972"/><g class="fa16981d-670b-446a-9405-b36c9e35a3de"><path class="e0eac291-3b72-4f89-b32b-850a2b773e7e" d="M23.15436,9.23951l-.05114.01511c-2.9935.88087-3.18128,1.23006-6.26565,1.61349-2.08393.25906-3.48063-.39579-3.92339,2.45092-.05615.361-.04287,4.45349-.02365,4.43574-2.35922,2.17864-2.1793,5.78615-1.62192,8.96123.3014,1.71694.24277,4.17306,1.60338,4.5933,3.2156.99315,6.80161.98639,10.11123.937,1.07678-.016-1.01639-.28-.02636.32774l.97008.94043H85.51572q.921,0,1.81158.00112a25.2719,25.2719,0,0,1,2.55145-.28454c.86857-.0555,1.75353-.07635,2.64718-.07775q.66726.03776,1.34951.03922.682.00252,1.37478-.02721c3.89076-.76026,6.89076-1.76026,10.89076-1.76026-.08333-.33334-.15972-.66667-.23206-.99943s-.14063-.66493-.20775-.996C105.141,24.40509,97.141,24.40509,99.141,18.40509c1-3,4-4,7.09341-3.99732.34421-.00209.65659-.00268.90659-.00268-.5,0-.99993.01244-1.50354.03375-1.49646-.03375-3.49646-.03375-4.84441-.09645-.4907.05963-.9645.1123-1.42038.12759a4.05613,4.05613,0,0,1-2.51184-.6001,11.38416,11.38416,0,0,1-1.39227-.54084,11.19649,11.19649,0,0,1-2.6878-1.7756c-.52791-.20534-1.07341-.42193-1.61608-.68748a12.0918,12.0918,0,0,1-1.6179-.9557,2.46171,2.46171,0,0,0-.47263-.34637,1.27962,1.27962,0,0,0-.49919-.156q-.33263-.03717-.66468-.05389a7.30951,7.30951,0,0,0-2.59617.29872,2.52828,2.52828,0,0,1-.53925-.04213,2.15317,2.15317,0,0,1-.52366-.17149q-.2291-.121-.4535-.255c-1.04784-.62363-2.02773-1.43372-3.032-2.15479-1.0828-.77743-2.22873-1.44607-3.3065-2.20418-.93768-.65956-1.92967-1.11551-2.89925-1.67106A21.70678,21.70678,0,0,0,69.52374.75257,23.4688,23.4688,0,0,0,64.348.19145Q58.12191-.051,51.891.01694a26.76446,26.76446,0,0,0-7.73342,1.47678C40.38075,2.80593,36.57217,3.982,32.81411,5.37445c-1.45436.53887-2.88071,1.17944-4.313,1.80072A48.595,48.595,0,0,1,23.15436,9.23951Z"/><path class="e0eac291-3b72-4f89-b32b-850a2b773e7e" d="M9.54921,30.5254a5.63654,5.63654,0,0,1-.02443-3.94609c.223-.57582.6303-.94293.88235-1.48.26755-.57008.36524-1.27063.58623-1.86956a5.34157,5.34157,0,0,1,4.437-3.23823c1.958-.28233,3.92228.20025,5.88175.20025H81.26339q.94709,0,1.89114.00159c2.81978.21172,6.81978-.78828,6.81978.21172q.375.675.78952,1.3281a6.478,6.478,0,0,0,1.80831,2.2002c3.56884,1.4717,7.56884,2.4717,10.78556,5.30274.29405.20938.5821.427.86681.65353a23.74048,23.74048,0,0,1,2.47926,2.28654,13.98671,13.98671,0,0,1,1.18553,1.08028c.36771.13546.7292.26484,1.08218.39276.706.25585,1.37783.50585,2.00283.75585,4,2,1,11-6.2086,12.4695-.70383.27759-1.42005.5187-2.14364.72884a33.00388,33.00388,0,0,1-4.39231.933c-7.807,1.15037-15.70432.28229-23.555-.2679-10.97247-.769-21.98686-.91548-32.90089-2.49658S23.36666,41.11435,13.65068,34.83881A9.59762,9.59762,0,0,1,9.54921,30.5254Z"/><path class="a56387d4-1d97-479c-ab9c-b26f5d2e77e1" d="M95.7187,19.28339a2.14573,2.14573,0,0,0-.43642-2.66932,2.20149,2.20149,0,0,0-1.16477-.48616c-.3727-.12585-.74943-.22541-1.09609-.33271C92.32808,15.58061,91.755,15.335,91.562,14.8c-.29452-.12643-.59789-.24879-.90888-.37077-.50681-.12921-1.02579-.23959-1.54745-.34225-1.04332-.20533-2.09732-.3798-3.086-.61243q-.30578-.03123-.60843-.05462-.30243-.02338-.60137-.038H24.4229c-1.80947,0-3.48087.49157-5.24749.01337-1.98374-.37864-3.92571-1.14813-5.88607-1.629a.06315.06315,0,0,1-.0523-.03828.08769.08769,0,0,1,.00455-.04855A.78184.78184,0,0,1,13.51,11.2806c.13875-.10376.305-.14049.44637-.23888.06729-.04684.12781-.10692.194-.15609a1.54487,1.54487,0,0,1,.3908-.19144,32.05225,32.05225,0,0,1,6.23865-1.54745c3.5981-.58144,3.855-.93089,7.29955-2.426,3.21511-1.39551,6.08915-3.7326,9.12188-5.64254,14.81311-9.329,33.10583-7.9126,48.34929.31709,1.3808.74547,2.79194,1.64436,4.22472,2.5568q.307.19552.61534.39147a14.20687,14.20687,0,0,0,3.1058-.16375,7.14189,7.14189,0,0,1,.8519-.04808,4.3363,4.3363,0,0,1,1.64083,1.64335c.23079.35282.45042.728.67138,1.10319a7.17246,7.17246,0,0,0,.37242,1.793c1.108,3.7338,6.108,2.7338,9.09878,2.73a2.72359,2.72359,0,0,1,1.34519.42568,1.89087,1.89087,0,0,1,.91406,1.26563,2.132,2.132,0,0,1-.24975,1.31245,4.96454,4.96454,0,0,1-.98483.76038c-4.01542,2.23967-8.01542.23967-11.27992,4.09424A.77291.77291,0,0,1,95.7187,19.28339Z"/><path class="a7d7005a-c314-4ec9-ba85-882dc03bd6bf" d="M97.92172,15.68048a1.38292,1.38292,0,0,0-1.18288.00893,1.09171,1.09171,0,0,0-.42986.56377c-.168,1.15191.832,2.15191-1.168,2.15191a20.41043,20.41043,0,0,0,2.38466-2.62231C97.64912,15.74549,97.78211,15.71156,97.92172,15.68048Z"/><path class="a7d7005a-c314-4ec9-ba85-882dc03bd6bf" d="M81.24115,11.44232H82.4208c.306,0,.92884-.14282,1.18982.04095-.82721-.07351-1.6357-.02408-2.46574-.02971l-3.53134-.03224-4.76371-.04349-5.63793-.05147-6.154-.05619-6.31187-.05762-6.1116-.0558-5.55318-.05069-4.63659-.04233-3.36185-.0307-1.72894-.01578c-.05145-.00047-.10292-.00141-.15438-.00141h-.40574a6.22508,6.22508,0,0,0-.497-.86628,2.42811,2.42811,0,0,0-.88952-.54165,3.71266,3.71266,0,0,0-1.37144-.14441c-1.06814,0-2.09732.08062-3.1513.15552,2.04891-.88555,4.02546-1.82351,6.08549-2.62845,1.81242-.7082,3.67377-1.5374,5.50931-2.11871,2.65039-.83936,5.21555-1.94258,7.92264-2.52559a34.07,34.07,0,0,1,6.86418-.624c2.38836-.02354,4.77694-.05346,7.1653-.01467,1.78611.029,3.57183.08424,5.35759.13438a13.03933,13.03933,0,0,1,4.95442,1.21745L70.51093,2.951A28.7763,28.7763,0,0,1,73.88964,4.7353l2.12251,1.28794c1.36929.83088,2.73939,1.66281,4.06956,2.58487.67132.46535,1.33235.95341,1.97559,1.47483A9.45347,9.45347,0,0,1,83.54459,11.393"/><path class="fd653fe5-e3b9-4621-8435-af434de55b4f" d="M34.98209,7.29286c-.11043.03682-.21033.12065-.3189.165-.74568.32024-1.54543.54663-2.26645.93575a7.09318,7.09318,0,0,1,.844.96091c.21.2546.31654.37642.637.3872.99237.03339,1.9862.07449,2.979.07449,7.02224,0,14.0436.01814,21.06554.12027q.55983.00815,1.1196.01625c1.29717.01874,15.4277.253,15.42862.07a3.16532,3.16532,0,0,1,.38894-1.30859A3.72946,3.72946,0,0,1,76.117,7.62182c-.65076-.51674-1.52631-1.16538-2.21331-1.60656-.5948-.382-1.21609-.70836-1.82233-1.06676a19.73808,19.73808,0,0,0-3.18713-1.304,8.67127,8.67127,0,0,0-2.16473-.51334c-4.72969-.54961-9.577-.21151-14.33064-.21151-.62122,0-4.02758.11955-5.07913.25762a33.50789,33.50789,0,0,0-6.984,2.11494c-.9051.33326-1.80461.68852-2.70623,1.03542C36.75851,6.66275,35.83535,6.902,34.98209,7.29286Z"/><path class="a7d7005a-c314-4ec9-ba85-882dc03bd6bf" d="M98.564,28.58091c.577-5.17582,4.577-6.17582,8.577-4.17582-1,1,2,2,.05726,3.26976a6.86423,6.86423,0,0,1-.91231,1.21595,8.87919,8.87919,0,0,1-4.14495,2.51429,1.27071,1.27071,0,0,1-1.0395-.58721,4.06453,4.06453,0,0,0-1.27779-1.1104A7.17264,7.17264,0,0,1,98.564,28.58091Z"/><path class="a639e114-54ac-458f-b986-987efed0c2b6" d="M12.8364,12.18312c.64421-.80672,3.20084-.16547,4.055.05334a14.87238,14.87238,0,0,1,3.88159,1.618A10.89782,10.89782,0,0,1,17.32344,16.416a21.89935,21.89935,0,0,1-2.26472,1.0381,5.36388,5.36388,0,0,1-1.95375.302c-.27578-.00412-.42677.0931-.51395-.27171-.0636-.26616-.01159-.56066-.072-.82818a3.73232,3.73232,0,0,1,.0352-1.32258,4.0554,4.0554,0,0,0-.01063-1.03356A3.88024,3.88024,0,0,1,12.8364,12.18312Z"/><path class="a7d7005a-c314-4ec9-ba85-882dc03bd6bf" d="M28.25464,23.86285a9.03062,9.03062,0,0,1,9.8838.59,10.16076,10.16076,0,0,1,3.47093,10.09294c-.02871.11833-8.37176.79494-9.16261.84158-1.38175.08148-2.71045-.33567-4.04484-.3313-1.47965.00485-2.64867.73576-4.18713.21507a3.09159,3.09159,0,0,1-1.542-1.04809c-1.06292-1.45079.55156-4.508,1.29318-5.86276A11.4416,11.4416,0,0,1,28.25464,23.86285Z"/><path class="a7d7005a-c314-4ec9-ba85-882dc03bd6bf" d="M84.37043,33.41157a11.43845,11.43845,0,0,1,.23679-2.32148c.36709-2.685,1.36709-6.685,4.36709-5.685q.5625.09375,1.12366.23383.56049.13983,1.1156.32438c.4879.07363.97781.16277,1.45727.27311a5.34416,5.34416,0,0,1,1.19334.22367c1.2768.945,3.2768.945,4.40139,2.90493a8.65823,8.65823,0,0,1,.60606,1.13672,25.47948,25.47948,0,0,1,1.33774,4.354c.16235.52234.33794,1.0368.53884,1.535q.12582.5149.2261,1.01439a6.0049,6.0049,0,0,1-4.20545,5.92747,8.77122,8.77122,0,0,1-2.88009.48486C88.63193,43.81742,84.37043,39.15857,84.37043,33.41157Z"/><g class="a00fc7b6-5fbd-461a-9f2d-77df14622356"><path class="bb86d645-9639-4b72-ba53-0754b4c132e0" d="M77.66414,8.539c-2.85624.29839-13.75745-1.13568-14.56433-1.2511-.85614-.12247-21.9535-2.65876-22.30825-2.74717-1.01689-.25343-3.67484-4.12241-3.29347-5.309a3.38279,3.38279,0,0,1,2.18746-1.9625,17.6754,17.6754,0,0,1,5.06723-1.0212A40.19277,40.19277,0,0,1,58.2025-2.52328,85.36943,85.36943,0,0,1,70.53589,2.16158l5.7867,2.54479a2.45934,2.45934,0,0,1,.80776.49081c.72307.73751.53629,2.06484.69935,3.16741a.0952.0952,0,0,1-.04828.09934"/></g><line class="be0942e2-83fd-485e-818c-6e09f10732e5" x1="51.89876" y1="10.8076" x2="51.89876" y2="2.36599"/><path class="b4f58403-4798-4520-8b7a-dd93d2a05b2d" d="M13.30333,14.58218c-.03426-.379-.01684-2.073.19516-2.12638a.19305.19305,0,0,1,.06454-.00151,6.96909,6.96909,0,0,1,2.13358.42578c.26743.11287-.1181.47944-.20261.56521a3.79635,3.79635,0,0,1-.897.64094A4.72122,4.72122,0,0,1,13.30333,14.58218Z"/></g><path class="e4611008-2125-462a-994a-f2540ceef948" d="M85.00951,32.27131c-.0352-2.86622,2.9648-8.86622,4.9648-6.86622a14.10261,14.10261,0,0,0,1.7095,1.85852c.32905.31414.70519.65688,1.10838,1.02318.404.367.83509.7575,1.27831,1.17106,1.07048.94724,3.07048,2.94724,4.07179,3.772a4.44607,4.44607,0,0,1,.47576,1.37147,5.77041,5.77041,0,0,1,.01988,1.74242,3.26227,3.26227,0,0,1-.28354,1.38129,5.65139,5.65139,0,0,1-2.727,2.52589,8.31016,8.31016,0,0,1-10.32117-5.77119A8.316,8.316,0,0,1,85.00951,32.27131Z"/><path class="fd653fe5-e3b9-4621-8435-af434de55b4f" d="M87.50012,32.27773a5.87386,5.87386,0,0,0,.47419-2.87264,5.415,5.415,0,0,1,2.40668-.80555,4.63944,4.63944,0,0,1,1.12126.05523,5.05328,5.05328,0,0,1,1.05274.3034c.26433.24116.54016.46989.82115.69911s.56712.4589.85206.702A14.80171,14.80171,0,0,0,95.87326,32.08a8.21811,8.21811,0,0,1,.7157,1.17575,9.8324,9.8324,0,0,1,.59482,1.48684,7.48156,7.48156,0,0,1,.14336,1.26491,7.002,7.002,0,0,1-.35283,2.39761,12.39634,12.39634,0,0,1-3.65806-.33369A5.81111,5.81111,0,0,1,87.9726,34.529,5.98013,5.98013,0,0,1,87.50012,32.27773Z"/><path class="bb86d645-9639-4b72-ba53-0754b4c132e0" d="M91.98779,29.4028a3.7272,3.7272,0,0,1,.97559,2.99767,3.90924,3.90924,0,0,1-2.61407-2.12038,7.2916,7.2916,0,0,1-.375-2.875c1,0,2-1,1.61779,1.4011C91.713,28.98825,91.844,29.18745,91.98779,29.4028Z"/><path class="bb86d645-9639-4b72-ba53-0754b4c132e0" d="M91.16737,36.95807a3.49894,3.49894,0,0,1,.456-2.10892c.351-1.44406,1.351-1.44406,1.351-2.44406a13.80465,13.80465,0,0,0,3,4c0,1-2,1-2.57442.95547A7.08252,7.08252,0,0,1,91.16737,36.95807Z"/><path class="bb86d645-9639-4b72-ba53-0754b4c132e0" d="M88.47484,30.2006a5.4237,5.4237,0,0,0,2.437,1.05392c.06243,1.15057.06243,1.15057-.31257,1.77557-.375.875-.625,1.875-1.625,2.375a4.49516,4.49516,0,0,0-.75516-3.00248A7.993,7.993,0,0,1,88.47484,30.2006Z"/><path class="bb86d645-9639-4b72-ba53-0754b4c132e0" d="M96.74819,34.44525A5.10324,5.10324,0,0,1,95.41,34.23461a3.02908,3.02908,0,0,1-2.43566-2.82952,1.296,1.296,0,0,1,.899-.38425,5.05565,5.05565,0,0,1,1.65212.632c.61552-.24776.61552.75224.9532,2.13071A3.29133,3.29133,0,0,1,96.74819,34.44525Z"/><circle class="e4611008-2125-462a-994a-f2540ceef948" cx="31.92568" cy="32.27131" r="8.30728"/><circle class="fd653fe5-e3b9-4621-8435-af434de55b4f" cx="31.92568" cy="32.27131" r="5.79926"/><path class="bb86d645-9639-4b72-ba53-0754b4c132e0" d="M34.065,27.65061l-2.1393,4.6207-3.06119-4.08039S30.688,26.50245,34.065,27.65061Z"/><path class="bb86d645-9639-4b72-ba53-0754b4c132e0" d="M29.77626,36.95808l2.1393-4.6207,3.06119,4.08038S33.15321,38.10624,29.77626,36.95808Z"/><path class="bb86d645-9639-4b72-ba53-0754b4c132e0" d="M27.26069,30.15379l4.6207,2.1393L27.801,35.35428S26.11253,33.53073,27.26069,30.15379Z"/><path class="bb86d645-9639-4b72-ba53-0754b4c132e0" d="M36.54638,34.44249l-4.6207-2.13929,4.08039-3.0612S37.69454,31.06555,36.54638,34.44249Z"/><path class="f9818a7c-0aef-4484-bb4b-ee5e7c3fd935" d="M53.28811,15.08333h27.5s1.08334,8.05044-7.04166,15.75H52.53811S54.45478,20.1514,53.28811,15.08333Z"/><path class="f9818a7c-0aef-4484-bb4b-ee5e7c3fd935" d="M77.55475,11.94371a5.89989,5.89989,0,0,1,3.6116,1.00731c.75873.42444,1.77956,1.08976,2.31074-.20806a1.5945,1.5945,0,0,0-.33658-1.56662A9.85883,9.85883,0,0,0,79.504,8.84871a2.974,2.974,0,0,0-1.58117-.245,2.29972,2.29972,0,0,0-1.518,2.71907,1.00465,1.00465,0,0,0,.18879.4283C76.83,12.02763,77.219,11.97871,77.55475,11.94371Z"/><path class="f9818a7c-0aef-4484-bb4b-ee5e7c3fd935" d="M25.94875,10.83806A6.19427,6.19427,0,0,1,28.879,10.489a1.90317,1.90317,0,0,1,1.97538,1.68388c.32711,1.67932-.70732,1.96375-2.14362,1.98129l-2.6462.03231a1.84389,1.84389,0,0,1-.74649-.094C23.69589,13.40472,24.91132,11.33905,25.94875,10.83806Z"/><ellipse class="a41626c5-ded9-4e31-98fd-6415093c9baa" cx="58.20943" cy="38.57846" rx="58.20943" ry="3.94002"/></g></g></svg>