<svg xmlns="http://www.w3.org/2000/svg" xmlns:xlink="http://www.w3.org/1999/xlink" viewBox="0 0 116.41886 43.03032"><defs><style>.a6bb765a-1df7-4d95-a535-8a8cc34512a0,.beb6aeb0-78cf-4131-9658-9f261345a7ad,.e253ab88-9775-415c-917e-d1213a3f47bd{fill:none;}.fc1aac3b-7b98-42b9-b672-047eff1df7ab{isolation:isolate;}.e253ab88-9775-415c-917e-d1213a3f47bd{stroke:#bcbec0;}.beb6aeb0-78cf-4131-9658-9f261345a7ad,.e253ab88-9775-415c-917e-d1213a3f47bd{stroke-miterlimit:10;}.aa5cefcb-3c44-4ef5-9e6e-62e346ad9abd,.b2922e06-37e1-4638-8c33-1369fd8b874c{fill:#a7a9ac;}.aa5cefcb-3c44-4ef5-9e6e-62e346ad9abd{opacity:0.33;mix-blend-mode:multiply;}.b3f085d1-4dff-46e9-92ec-f43c633942bc{clip-path:url(#ecd64c90-f569-4e4f-b4d2-2cfc95b3b5bd);}.a29735bc-efb0-4b0a-b30b-6ae1b9fc1473{fill:#009ac4;}.f38f60ad-1ec9-4758-8a91-de27d8544be1{fill:#c3d7dc;}.a0589329-353d-43c7-b76d-56fc1e0f6c36{fill:#4d5d82;}.e0e5ebe9-3016-47b0-a7fc-75c4f20c6778{fill:#af2027;}.ee3c29e6-8eef-45d8-83c6-3afd783d5fed{clip-path:url(#a84a7cbb-50d4-4e5d-99f2-fb6d89e00dd2);}.a3e1d266-3255-4150-b03b-3a0fdbaca205{fill:#e6e7e8;}.beb6aeb0-78cf-4131-9658-9f261345a7ad{stroke:#4d5d82;stroke-width:1.27631px;}.b7b3f1ae-579d-4e1b-bb9a-5356fbe7e3ce{fill:#ef5b5b;}.e4c327f8-b5e1-4014-9cd4-296a58737c9c{fill:#0e2849;}.a8b8118d-3134-4da8-a194-42154e16e2f2{fill:#037c99;}</style><clipPath id="ecd64c90-f569-4e4f-b4d2-2cfc95b3b5bd"><path class="a6bb765a-1df7-4d95-a535-8a8cc34512a0" d="M22.68975,9.23951l-.05113.01511c-2.9935.88087-3.18129,1.23006-6.26565,1.61349-2.08393.25906-3.48063-.39579-3.92339,2.45092-.05615.361-.04287,4.45349-.02365,4.43575-2.35922,2.17863-2.1793,5.78615-1.62193,8.96122.30141,1.71694.24278,4.17307,1.60339,4.5933,3.21559.99315,6.80161.98639,10.11122.937,1.07678-.016-1.01638-.28-.02636.32774l.97009.94043h80.9434a11.06986,11.06986,0,0,0,5.97354-1.59787.60085.60085,0,0,0,.2091-.20725.83491.83491,0,0,0,.0679-.31486c.09787-1.16393.10232-3.95465.21577-5.11431a39.545,39.545,0,0,0,.04269-5.52772c-.02139-.50144-.01609-1.63841-.47556-1.92925-.019-.01205-.36839-.172-.36839-.06317,0-.00851.413-2.83191.413-2.8347,0-.64778-3.22484-2.3814-4.24761-2.76961a26.237,26.237,0,0,0-4.26384-1.51572c-1.72881-.36815-10.30409-1.52083-12.35214-1.5258-1.66552-.004-4.89519-.25286-4.89519-.25286a19.99624,19.99624,0,0,1-4.424-2.83217c-1.0828-.77743-2.22872-1.44607-3.3065-2.20418-.93767-.65956-1.92966-1.1155-2.89924-1.67106A21.70725,21.70725,0,0,0,69.05913.75257,23.46871,23.46871,0,0,0,63.8834.19145Q57.6573-.051,51.42636.01694a26.76446,26.76446,0,0,0-7.73342,1.47678C39.91615,2.80593,36.10756,3.982,32.3495,5.37445c-1.45435.53887-2.88071,1.17944-4.313,1.80072A48.59514,48.59514,0,0,1,22.68975,9.23951Z"/></clipPath><clipPath id="a84a7cbb-50d4-4e5d-99f2-fb6d89e00dd2"><path class="a6bb765a-1df7-4d95-a535-8a8cc34512a0" d="M34.51749,7.29286c-.11043.03682-.21033.12065-.3189.165-.74568.32024-1.54544.54663-2.26645.93575a7.09387,7.09387,0,0,1,.844.96091c.21.2546.31653.37642.637.3872.99237.03339,1.9862.07449,2.979.07449,7.02224,0,14.0436.01814,21.06555.12027q.55983.00815,1.1196.01625c1.29717.01874,15.4277.253,15.42861.07a3.16553,3.16553,0,0,1,.38894-1.30859,3.72959,3.72959,0,0,1,1.25758-1.0923c-.65075-.51674-1.5263-1.16538-2.21331-1.60656-.59479-.382-1.21609-.70835-1.82232-1.06676a19.73808,19.73808,0,0,0-3.18713-1.304,8.67181,8.67181,0,0,0-2.16473-.51334c-4.72969-.54961-9.577-.21151-14.33065-.21151-.99111,0-4.396.16792-5.07912.25762a33.50849,33.50849,0,0,0-6.984,2.11494c-.9051.33326-1.80461.68852-2.70624,1.03542C36.29391,6.66276,35.37075,6.902,34.51749,7.29286Z"/></clipPath></defs><title>Artboard 111</title><g class="fc1aac3b-7b98-42b9-b672-047eff1df7ab"><g id="bfca885b-809d-4cda-bf69-c9659b979d8e" data-name="Layer 1"><polyline class="e253ab88-9775-415c-917e-d1213a3f47bd" points="-309.42 -127.446 -309.42 -352.789 -75.661 -349.273 -75.661 144.217 -309.42 140.701 -309.42 -127.446"/><ellipse class="aa5cefcb-3c44-4ef5-9e6e-62e346ad9abd" cx="58.20943" cy="39.09203" rx="58.20943" ry="3.94002"/><g class="b3f085d1-4dff-46e9-92ec-f43c633942bc"><path class="a29735bc-efb0-4b0a-b30b-6ae1b9fc1473" d="M22.68975,9.23951l-.05113.01511c-2.9935.88087-3.18129,1.23006-6.26565,1.61349-2.08393.25906-3.48063-.39579-3.92339,2.45092-.05615.361-.04287,4.45349-.02365,4.43575-2.35922,2.17863-2.1793,5.78615-1.62193,8.96122.30141,1.71694.24278,4.17307,1.60339,4.5933,3.21559.99315,6.80161.98639,10.11122.937,1.07678-.016-1.01638-.28-.02636.32774l.97009.94043h80.9434a11.06986,11.06986,0,0,0,5.97354-1.59787.60085.60085,0,0,0,.2091-.20725.83491.83491,0,0,0,.0679-.31486c.09787-1.16393.10232-3.95465.21577-5.11431a39.545,39.545,0,0,0,.04269-5.52772c-.02139-.50144-.01609-1.63841-.47556-1.92925-.019-.01205-.36839-.172-.36839-.06317,0-.00851.413-2.83191.413-2.8347,0-.64778-3.22491-2.38144-4.24765-2.76963-1.95828-.74329-4.18236-1.90719-6.22714-2.05979-1.26639-.09451-2.56256.00035-3.83163.00035-2.04805,0-4.50912-.97709-6.55717-.98206-1.66552-.004-3.26932.34534-4.89519-.25286a19.99624,19.99624,0,0,1-4.424-2.83217c-1.0828-.77743-2.22872-1.44607-3.3065-2.20418-.93767-.65956-1.92966-1.1155-2.89924-1.67106A21.70725,21.70725,0,0,0,69.05913.75257,23.46871,23.46871,0,0,0,63.8834.19145Q57.6573-.051,51.42636.01694a26.76446,26.76446,0,0,0-7.73342,1.47678C39.91615,2.80593,36.10756,3.982,32.3495,5.37445c-1.45435.53887-2.88071,1.17944-4.313,1.80072A48.59514,48.59514,0,0,1,22.68975,9.23951Z"/><path class="a29735bc-efb0-4b0a-b30b-6ae1b9fc1473" d="M9.08461,30.5254a5.63643,5.63643,0,0,1-.02443-3.94609c.223-.57582.6303-.94293.88235-1.48.26754-.57008.36524-1.27063.58622-1.86955a5.34156,5.34156,0,0,1,4.437-3.23824c1.958-.28233,3.92229.20025,5.88176.20025H84.966c1.8464,0,3.59871-.13232,5.471.01,2.55313.194,5.1782.44289,7.48057,1.9271,2.167,1.39692,3.48073,3.73934,4.66808,6.31351,1.06334,2.30531,2.55307,4.75168,4.97514,4.6569,1.94709-.07621,4.25551-1.7411,5.58589-.00271a3.68889,3.68889,0,0,1,.62309,1.75861c.4224,3.27484-1.42143,6.38555-3.5841,8.38837-3.5361,3.27473-8.01511,4.64376-12.42055,5.29291-7.807,1.15038-15.70432.28229-23.555-.2679-10.97247-.769-21.98686-.91548-32.90089-2.49658S22.90206,41.11435,13.18608,34.83882A9.59764,9.59764,0,0,1,9.08461,30.5254Z"/><path class="f38f60ad-1ec9-4758-8a91-de27d8544be1" d="M107.27608,18.95034a10.4774,10.4774,0,0,1-6.45289-1.849c-.95678-.64853-1.43329-.48738-2.44861-.98567a10.19,10.19,0,0,0-2.8899-.79332c-3.55688-.58619-7.55316-1.76678-11.13945-1.94039H23.9583c-1.80947,0-3.48088.49157-5.24749.01337-1.98375-.37864-3.92571-1.14813-5.88607-1.629a.06318.06318,0,0,1-.0523-.03829.0877.0877,0,0,1,.00455-.04855.78189.78189,0,0,1,.26844-.39892c.13875-.10376.305-.14048.44638-.23888.06729-.04684.12781-.10691.194-.15609a1.545,1.545,0,0,1,.3908-.19144,32.05233,32.05233,0,0,1,6.23864-1.54745c3.59811-.58144,3.855-.93089,7.29956-2.426,3.21511-1.39551,6.08915-3.73259,9.12188-5.64254,14.8131-9.329,33.10583-7.9126,48.34929.31709,4.33967,2.34292,8.979,6.20114,13.64774,7.23332,2.784.6155,5.65849.55131,8.40663,1.3729a7.63551,7.63551,0,0,1,4.6798,3.4288c.66935,1.19635.50324,1.831.18365,3.23387C111.41651,19.24119,108.92927,18.85782,107.27608,18.95034Z"/><path class="a0589329-353d-43c7-b76d-56fc1e0f6c36" d="M103.23734,15.293l-.00276-.03411a7.62572,7.62572,0,0,1,1.80811-.0301,25.02633,25.02633,0,0,1,2.89659.05574c.76444.10987,1.965.07725,2.00419,1.47271.01845.65709-.28622.64624-.425,1.27822-.13229.60232-.771.21358-1.06376-.06864a11.54108,11.54108,0,0,0-.99411-1.05252c-.62156-.45427-1.36541-.31037-2.06027-.42179-.55538-.08905-.6845.61677-1.163.20764A2.68559,2.68559,0,0,1,103.23734,15.293Z"/><path class="a0589329-353d-43c7-b76d-56fc1e0f6c36" d="M80.77654,11.44232H81.9562c.306,0,.92883-.14282,1.18982.04095-.82721-.07351-1.6357-.02408-2.46575-.02971l-3.53134-.03224-4.76371-.04349-5.63792-.05147-6.154-.05618-6.31187-.05763-6.1116-.05579-5.55318-.0507-4.63659-.04233-3.36185-.0307-1.72894-.01578c-.05146-.00047-.10292-.00141-.15438-.00141h-.40574a6.22508,6.22508,0,0,0-.497-.86628,2.42811,2.42811,0,0,0-.88952-.54165,3.71266,3.71266,0,0,0-1.37144-.14441c-1.06814,0-2.09733.08062-3.1513.15552,2.04891-.88555,4.02545-1.82351,6.08549-2.62845,1.81241-.70819,3.67377-1.5374,5.50931-2.1187,2.65039-.83937,5.21555-1.94258,7.92264-2.5256a34.07,34.07,0,0,1,6.86418-.624c2.38835-.02354,4.77694-.05345,7.1653-.01467,1.78611.029,3.57182.08424,5.35759.13438a13.03937,13.03937,0,0,1,4.95442,1.21745L70.04632,2.951A28.77572,28.77572,0,0,1,73.425,4.73531l2.12251,1.28793c1.36929.83089,2.73939,1.66281,4.06956,2.58487.67132.46535,1.33235.95341,1.97559,1.47483A9.45443,9.45443,0,0,1,83.08,11.393"/><path class="b2922e06-37e1-4638-8c33-1369fd8b874c" d="M34.51749,7.29286c-.11043.03682-.21033.12065-.3189.165-.74568.32024-1.54544.54663-2.26645.93575a7.09387,7.09387,0,0,1,.844.96091c.21.2546.31653.37642.637.3872.99237.03339,1.9862.07449,2.979.07449,7.02224,0,14.0436.01814,21.06555.12027q.55983.00815,1.1196.01625c1.29717.01874,15.4277.253,15.42861.07a3.16553,3.16553,0,0,1,.38894-1.30859,3.72959,3.72959,0,0,1,1.25758-1.0923c-.65075-.51674-1.5263-1.16538-2.21331-1.60656-.59479-.382-1.21609-.70835-1.82232-1.06676a19.73808,19.73808,0,0,0-3.18713-1.304,8.67181,8.67181,0,0,0-2.16473-.51334c-4.72969-.54961-9.577-.21151-14.33065-.21151-.62121,0-4.02758.11955-5.07912.25762a33.50849,33.50849,0,0,0-6.984,2.11494c-.9051.33326-1.80461.68852-2.70624,1.03542C36.29391,6.66276,35.37075,6.902,34.51749,7.29286Z"/><path class="a0589329-353d-43c7-b76d-56fc1e0f6c36" d="M105.20928,29.6007a3.76978,3.76978,0,0,1,1.80812-2.1491,14.78742,14.78742,0,0,1,3.07363-.24231c.37671.20275.25065,1.00163.22131,1.38386-.0595.7752-.147,1.54732-.20949,2.32151-.06373.789-4.06445,1.738-4.5678,1.31026A2.2727,2.2727,0,0,1,105.20928,29.6007Z"/><path class="e0e5ebe9-3016-47b0-a7fc-75c4f20c6778" d="M12.37179,12.18312c.64422-.80672,3.20084-.16547,4.055.05335a14.87193,14.87193,0,0,1,3.8816,1.61794A10.89793,10.89793,0,0,1,16.85884,16.416a21.89935,21.89935,0,0,1-2.26472,1.0381,5.3637,5.3637,0,0,1-1.95375.302c-.27578-.00412-.42678.0931-.514-.2717-.0636-.26617-.01159-.56067-.072-.82819a3.73209,3.73209,0,0,1,.03519-1.32258,4.05487,4.05487,0,0,0-.01062-1.03355A3.88017,3.88017,0,0,1,12.37179,12.18312Z"/><path class="a0589329-353d-43c7-b76d-56fc1e0f6c36" d="M27.79,23.86285a9.03064,9.03064,0,0,1,9.8838.59,10.16077,10.16077,0,0,1,3.47094,10.09294c-.02871.11833-8.37176.79494-9.16261.84158-1.38176.08148-2.71045-.33566-4.04484-.33129-1.47966.00484-2.64867.73575-4.18713.21506a3.09159,3.09159,0,0,1-1.542-1.04809c-1.06292-1.45079.55156-4.508,1.29318-5.86276A11.44164,11.44164,0,0,1,27.79,23.86285Z"/><ellipse class="a0589329-353d-43c7-b76d-56fc1e0f6c36" cx="93.42417" cy="33.41158" rx="9.51835" ry="10.40585"/><g class="ee3c29e6-8eef-45d8-83c6-3afd783d5fed"><path class="a3e1d266-3255-4150-b03b-3a0fdbaca205" d="M77.19954,8.539c-2.85624.29839-13.75745-1.13568-14.56434-1.2511-.85614-.12247-21.9535-2.65876-22.30825-2.74717-1.01688-.25343-3.67483-4.12241-3.29346-5.309A3.38281,3.38281,0,0,1,39.221-2.73073a17.67608,17.67608,0,0,1,5.06723-1.0212A40.193,40.193,0,0,1,57.7379-2.52328,85.36887,85.36887,0,0,1,70.07128,2.16158L75.858,4.70637a2.45934,2.45934,0,0,1,.80776.49081c.72307.73751.53629,2.06484.69935,3.16741a.09522.09522,0,0,1-.04828.09934"/></g><line class="beb6aeb0-78cf-4131-9658-9f261345a7ad" x1="51.43415" y1="10.8076" x2="51.43415" y2="2.36599"/><path class="b7b3f1ae-579d-4e1b-bb9a-5356fbe7e3ce" d="M12.83873,14.58218c-.03426-.379-.01684-2.073.19516-2.12638a.193.193,0,0,1,.06453-.0015,6.96893,6.96893,0,0,1,2.13358.42577c.26744.11287-.11809.47944-.2026.56522a3.79692,3.79692,0,0,1-.897.64094A4.72151,4.72151,0,0,1,12.83873,14.58218Z"/></g><circle class="e4c327f8-b5e1-4014-9cd4-296a58737c9c" cx="92.85219" cy="32.27131" r="8.30728"/><circle class="b2922e06-37e1-4638-8c33-1369fd8b874c" cx="92.85219" cy="32.27131" r="5.79926"/><path class="a3e1d266-3255-4150-b03b-3a0fdbaca205" d="M94.99149,27.65061l-2.1393,4.6207L89.791,28.19092S91.61454,26.50245,94.99149,27.65061Z"/><path class="a3e1d266-3255-4150-b03b-3a0fdbaca205" d="M90.70277,36.95808l2.1393-4.6207,3.06119,4.08039S94.07971,38.10624,90.70277,36.95808Z"/><path class="a3e1d266-3255-4150-b03b-3a0fdbaca205" d="M88.1872,30.15379l4.6207,2.1393-4.08039,3.06119S87.039,33.53074,88.1872,30.15379Z"/><path class="a3e1d266-3255-4150-b03b-3a0fdbaca205" d="M97.47289,34.4425l-4.6207-2.1393,4.08038-3.0612S98.62105,31.06555,97.47289,34.4425Z"/><circle class="e4c327f8-b5e1-4014-9cd4-296a58737c9c" cx="31.46108" cy="32.27131" r="8.30728"/><circle class="b2922e06-37e1-4638-8c33-1369fd8b874c" cx="31.46108" cy="32.27131" r="5.79926"/><path class="a3e1d266-3255-4150-b03b-3a0fdbaca205" d="M33.60038,27.65061l-2.1393,4.6207-3.0612-4.08039S30.22343,26.50245,33.60038,27.65061Z"/><path class="a3e1d266-3255-4150-b03b-3a0fdbaca205" d="M29.31166,36.95808l2.1393-4.6207,3.06119,4.08039S32.6886,38.10624,29.31166,36.95808Z"/><path class="a3e1d266-3255-4150-b03b-3a0fdbaca205" d="M26.79609,30.15379l4.6207,2.1393L27.3364,35.35428S25.64793,33.53074,26.79609,30.15379Z"/><path class="a3e1d266-3255-4150-b03b-3a0fdbaca205" d="M36.08178,34.4425l-4.6207-2.1393,4.08038-3.0612S37.22994,31.06555,36.08178,34.4425Z"/><path class="a8b8118d-3134-4da8-a194-42154e16e2f2" d="M52.82351,15.08334h27.5s1.08333,8.05043-7.04167,15.75H52.07351S53.99018,20.1514,52.82351,15.08334Z"/><path class="a8b8118d-3134-4da8-a194-42154e16e2f2" d="M77.09015,11.94371a5.9,5.9,0,0,1,3.6116,1.00731c.75873.42444,1.77956,1.08976,2.31073-.20806a1.59448,1.59448,0,0,0-.33657-1.56661,9.85881,9.85881,0,0,0-3.63647-2.32764,2.974,2.974,0,0,0-1.58117-.245,2.29972,2.29972,0,0,0-1.518,2.71907,1.00453,1.00453,0,0,0,.18879.4283C76.36539,12.02763,76.75435,11.97871,77.09015,11.94371Z"/><path class="a8b8118d-3134-4da8-a194-42154e16e2f2" d="M25.48414,10.83807a6.19419,6.19419,0,0,1,2.93028-.3491,1.90317,1.90317,0,0,1,1.97538,1.68388c.32711,1.67933-.70732,1.96375-2.14362,1.98129L25.6,14.18645a1.84387,1.84387,0,0,1-.74648-.094C23.23129,13.40473,24.44671,11.33905,25.48414,10.83807Z"/></g></g></svg>