<svg xmlns="http://www.w3.org/2000/svg" xmlns:xlink="http://www.w3.org/1999/xlink" viewBox="0 0 116.41886 45.94233"><defs><style>.a5cdf5dc-eaa8-430b-a526-18c234b5197a,.beeacad6-9860-4127-9ae8-5a3300c4852b,.fdaa84ac-f87e-4b3f-bf6e-44c6527b6765{fill:none;}.a5cdf5dc-eaa8-430b-a526-18c234b5197a{stroke:#bcbec0;}.a5cdf5dc-eaa8-430b-a526-18c234b5197a,.fdaa84ac-f87e-4b3f-bf6e-44c6527b6765{stroke-miterlimit:10;}.e0f0f2f4-ce2e-46fb-bebc-cca5c8a25682{isolation:isolate;}.e68e1840-31fe-4ce1-aad4-78117f558ea1{clip-path:url(#aa1bf122-ef9d-4952-b0b4-f4e22078a315);}.f254caef-e785-411f-905c-20019b6c9b21{clip-path:url(#b8abf151-37b5-4904-8794-c717bf0438be);}.ff9f15e0-51f5-4062-a09b-1998d9dd4aff{fill:#eaccca;}.abf6a60a-1c77-4f87-9bdd-94c9abd7e47f{clip-path:url(#ab487335-3aee-410a-a613-01f469a900e9);}.b00d4f0e-4697-4959-b93f-ae87a8f9f8a5{fill:#0f2849;}.e75aa83b-a7bd-4b2e-8fda-e79823e5a5ba{fill:#ee755b;opacity:0.8;mix-blend-mode:hard-light;}.b6e7232a-3e28-40f5-84e8-d5a0bb1c4eb0{clip-path:url(#f1059e51-06d7-4271-88f1-737c9e227434);}.af677927-524f-4871-b64c-134b619147d5{fill:#009ac4;}.a00352f4-20ed-4edf-a23a-d1464bf8ee60{fill:#c3d7dc;}.ff2001a9-a294-4803-ba64-1fa8ad344a73{fill:#4d5d82;}.bfc35fca-45e6-4e0b-a56a-32cdad3fc102{fill:#0e2849;}.ab0a2e0a-eeb4-439a-b719-24c3d72469d6,.adbf6381-2be6-45b4-b402-606c8dc70f34{fill:#a7a9ac;}.b02c123e-022a-4792-966e-5f1cb03d39ab{fill:#e6e7e8;}.b7b74ef1-aa70-47be-8a9a-a67157282008{fill:#037c99;}.b17799d2-d5bf-4d8b-bdfc-ea2d16da8b7a{clip-path:url(#aff11bf1-996b-4013-a5e8-8b634ce27677);}.ab0a2e0a-eeb4-439a-b719-24c3d72469d6{opacity:0.33;mix-blend-mode:multiply;}.e30e10af-81d9-4c15-92f4-80525d4e3df0{clip-path:url(#f1747e31-a50c-4c33-9b47-2aee055a9a33);}.a03dbcc7-8cc6-4304-b3ba-014655fde85d{fill:#af2027;}.b70217f3-203a-4097-8201-bc7023fa6aec{clip-path:url(#e42536d6-1f83-4c62-8a15-97b72376f0b7);}.fdaa84ac-f87e-4b3f-bf6e-44c6527b6765{stroke:#4d5d82;stroke-width:1.27631px;}.bab72175-8219-4167-bb82-cf8e774a56b6{fill:#ef5b5b;}</style><clipPath id="aa1bf122-ef9d-4952-b0b4-f4e22078a315"><rect class="a5cdf5dc-eaa8-430b-a526-18c234b5197a" x="264.10242" y="-596.50229" width="233.75906" height="493.74709"/></clipPath><clipPath id="b8abf151-37b5-4904-8794-c717bf0438be"><rect class="a5cdf5dc-eaa8-430b-a526-18c234b5197a" x="-231.23086" y="-596.50229" width="233.75906" height="493.74709"/></clipPath><clipPath id="ab487335-3aee-410a-a613-01f469a900e9"><rect class="a5cdf5dc-eaa8-430b-a526-18c234b5197a" x="13.60242" y="-596.50229" width="233.75906" height="493.74709"/></clipPath><clipPath id="f1059e51-06d7-4271-88f1-737c9e227434"><path class="beeacad6-9860-4127-9ae8-5a3300c4852b" d="M168.66229,54.21546l.05113-.01511c2.9935-.88086,3.18129-1.23006,6.26565-1.61349,2.08393-.25906,3.48063.3958,3.92339-2.45092.05615-.361.04287-4.45349.02365-4.43574,2.35922-2.17864,2.1793-5.78615,1.62193-8.96122-.30141-1.71695-.24278-4.17307-1.60339-4.5933-3.21559-.99315-6.80161-.98639-10.11122-.937-1.07678.016,1.01638.28.02636-.32774l-.97009-.94043H86.9463a11.06986,11.06986,0,0,0-5.97354,1.59787.60088.60088,0,0,0-.2091.20726.83487.83487,0,0,0-.0679.31486c-.09787,1.16392-.10232,3.95465-.21577,5.1143a39.545,39.545,0,0,0-.04269,5.52772c.02139.50144.01609,1.63842.47556,1.92925.019.01205.36839.172.36839.06318,0,.0085-.413,2.83191-.413,2.83469,0,.64778,3.22484,2.3814,4.24761,2.76962a26.2379,26.2379,0,0,0,4.26384,1.51572c1.72881.36815,10.30409,1.52083,12.35214,1.52579,1.66552.004,4.89519.25287,4.89519.25287a19.99583,19.99583,0,0,1,4.424,2.83216c1.0828.77743,2.22872,1.44607,3.3065,2.20418.93767.65957,1.92966,1.11551,2.89924,1.67106a21.70729,21.70729,0,0,0,5.03618,2.40142,23.46933,23.46933,0,0,0,5.17574.56111q6.22608.24247,12.457.17451a26.76445,26.76445,0,0,0,7.73342-1.47677c3.77679-1.31221,7.58538-2.4883,11.34344-3.88074,1.45435-.53887,2.88071-1.17944,4.313-1.80072A48.59715,48.59715,0,0,1,168.66229,54.21546Z"/></clipPath><clipPath id="aff11bf1-996b-4013-a5e8-8b634ce27677"><rect class="a5cdf5dc-eaa8-430b-a526-18c234b5197a" x="258.05755" y="-1133.99365" width="233.75906" height="493.74709"/></clipPath><clipPath id="f1747e31-a50c-4c33-9b47-2aee055a9a33"><path class="beeacad6-9860-4127-9ae8-5a3300c4852b" d="M93.7291,31.33908l.05114-.01512c2.9935-.88086,3.18128-1.23,6.26565-1.61348,2.08392-.25906,3.48063.39579,3.92339-2.45092.05615-.361.04286-4.45349.02364-4.43575,2.35923-2.17863,2.17931-5.78615,1.62193-8.96122-.3014-1.71694-.24277-4.17307-1.60339-4.5933-3.21559-.99315-6.8016-.98639-10.11122-.937-1.07678.01606,1.01639.28.02636-.32773l-.97008-.94043H12.01312A11.06989,11.06989,0,0,0,6.03957,8.66195a.60083.60083,0,0,0-.20909.20725.83492.83492,0,0,0-.06791.31486c-.09786,1.16393-.10231,3.95465-.21576,5.11431a39.54492,39.54492,0,0,0-.04269,5.52771c.02139.50145.01608,1.63842.47556,1.92926.019.012.36839.172.36839.06317,0,.00851-.413,2.83191-.413,2.8347,0,.64777,3.22484,2.38139,4.24762,2.76961a26.23723,26.23723,0,0,0,4.26384,1.51572c1.72881.36815,10.30409,1.52083,12.35213,1.5258,1.66553.004,4.8952.25286,4.8952.25286a19.99636,19.99636,0,0,1,4.424,2.83216c1.0828.77744,2.22873,1.44607,3.3065,2.20419.93767.65956,1.92967,1.1155,2.89925,1.67106A21.7074,21.7074,0,0,0,47.35972,39.826a23.4688,23.4688,0,0,0,5.17574.56112q6.2261.24246,12.457.1745a26.76432,26.76432,0,0,0,7.73341-1.47677c3.7768-1.31221,7.58538-2.4883,11.34344-3.88073,1.45436-.53887,2.88071-1.17945,4.313-1.80073A48.59614,48.59614,0,0,1,93.7291,31.33908Z"/></clipPath><clipPath id="e42536d6-1f83-4c62-8a15-97b72376f0b7"><path class="beeacad6-9860-4127-9ae8-5a3300c4852b" d="M81.90137,33.28573c.11043-.03682.21033-.12066.3189-.16495.74568-.32024,1.54543-.54663,2.26645-.93575a7.09389,7.09389,0,0,1-.844-.96091c-.21-.25461-.31653-.37642-.637-.38721-.99237-.03339-1.9862-.07448-2.979-.07448-7.02224,0-14.0436-.01814-21.06554-.12028q-.55984-.00813-1.1196-.01624c-1.29717-.01874-15.4277-.253-15.42862-.07a3.16528,3.16528,0,0,1-.38894,1.30859,3.72959,3.72959,0,0,1-1.25758,1.0923c.65076.51673,1.5263,1.16538,2.21331,1.60656.5948.382,1.21609.70835,1.82233,1.06675a19.73722,19.73722,0,0,0,3.18713,1.304,8.67158,8.67158,0,0,0,2.16473.51333c4.72969.54962,9.577.21152,14.33065.21152.99111,0,4.396-.16792,5.07912-.25762a33.509,33.509,0,0,0,6.984-2.11494c.9051-.33326,1.80462-.68852,2.70624-1.03542C80.125,33.91583,81.04811,33.6766,81.90137,33.28573Z"/></clipPath></defs><title>Artboard 229</title><g class="e0f0f2f4-ce2e-46fb-bebc-cca5c8a25682"><g id="a72269dd-aa35-426e-8e1f-8db728cb0aa6" data-name="Layer 1"><rect class="a5cdf5dc-eaa8-430b-a526-18c234b5197a" x="264.10242" y="-596.50229" width="233.75906" height="493.74709"/><g class="f254caef-e785-411f-905c-20019b6c9b21"><polygon class="ff9f15e0-51f5-4062-a09b-1998d9dd4aff" points="-30.076 756.213 -232.814 756.213 -232.688 -1994.162 -223.775 -2000.708 -202.945 -2019.049 2.23 -2019.049 2.681 730.314 -30.076 756.213"/></g><rect class="a5cdf5dc-eaa8-430b-a526-18c234b5197a" x="-231.23086" y="-596.50229" width="233.75906" height="493.74709"/><g class="abf6a60a-1c77-4f87-9bdd-94c9abd7e47f"><polygon class="ff9f15e0-51f5-4062-a09b-1998d9dd4aff" points="214.757 1007.354 12.019 1007.354 12.145 -1743.021 21.058 -1749.567 41.889 -1767.909 247.063 -1767.909 247.515 981.454 214.757 1007.354"/><path class="b00d4f0e-4697-4959-b93f-ae87a8f9f8a5" d="M61.219,1.71994a1.1251,1.1251,0,0,0,.77978-.30957A1.30289,1.30289,0,0,0,62.199.59982V-3.31034h2.69971a1.69029,1.69029,0,0,1,1.25.4502,1.93933,1.93933,0,0,1,.45019,1.41992v3.75H65.52859V-1.49a1.06391,1.06391,0,0,0-.23-.76465A.89364.89364,0,0,0,64.62869-2.49H63.26882V.4797a1.94556,1.94556,0,0,1-.46,1.44043,2.427,2.427,0,0,1-1.49023.54981Z"/><path class="b00d4f0e-4697-4959-b93f-ae87a8f9f8a5" d="M67.89871-2.14041l-.12012-1.16993h1.06006l.12988,1.16993V2.30978H67.89871Z"/><path class="b00d4f0e-4697-4959-b93f-ae87a8f9f8a5" d="M74.62869-3.31034A21.816,21.816,0,0,1,74.4739-.27518a3.01372,3.01372,0,0,1-.75,1.65039,3.48954,3.48954,0,0,1-1.915.89453L69.929,2.63986,69.77908,1.8,71.469,1.46994l-1.23-4.78028h1.06982L72.429,1.21994a1.53138,1.53138,0,0,0,.77978-.71973,3.32968,3.32968,0,0,0,.3003-1.21484q.06006-.73536.06006-2.20508v-.39063Z"/><path class="b00d4f0e-4697-4959-b93f-ae87a8f9f8a5" d="M75.80886-2.14041l-.12012-1.16993H76.7488l.12989,1.16993v1.5205L76.86843.01,75.80886.21017Z"/><path class="b00d4f0e-4697-4959-b93f-ae87a8f9f8a5" d="M80.00857,2.30978l-.22022-1.22949a3.02378,3.02378,0,0,1-.68994.84473,3.09407,3.09407,0,0,1-.98.54492l-.38965-.84961a3.97517,3.97517,0,0,0,1.15479-.60547,2.59377,2.59377,0,0,0,.73486-.915v-1.75a1.30992,1.30992,0,0,0-.11474-.63476.57184.57184,0,0,0-.43506-.24512l-.62989-.08985.13965-.81054.99024.14062a1.21762,1.21762,0,0,1,.855.46,1.82489,1.82489,0,0,1,.26513,1.07032V.16037l.33985,2.14941Z"/><path class="b00d4f0e-4697-4959-b93f-ae87a8f9f8a5" d="M82.11843,1.49045h1.81006a1.4519,1.4519,0,0,0,1.08984-.41016,1.72845,1.72845,0,0,0,.39991-1.25V-.83963a2.01473,2.01473,0,0,0-.31983-1.22071,1.12154,1.12154,0,0,0-.96-.42968h-.90039l-.21973.99023a1.86449,1.86449,0,0,0-.05029.38965.615.615,0,0,0,.17041.46484,1.116,1.116,0,0,0,.56006.24512l-.19043.69043a1.74784,1.74784,0,0,1-1.13477-.39551,1.26793,1.26793,0,0,1-.355-.95508,2.60038,2.60038,0,0,1,.04981-.52929l.39014-1.72071h1.91015a1.93758,1.93758,0,0,1,1.56006.66016,2.77789,2.77789,0,0,1,.55957,1.85059v.58007a2.56444,2.56444,0,0,1-.63965,1.88965,2.298,2.298,0,0,1-1.70019.63965H82.11843Z"/><path class="b00d4f0e-4697-4959-b93f-ae87a8f9f8a5" d="M87.48806-.40994l.15039-.66993h.91992V2.30978H87.48806ZM90.8782-1.49a1.06391,1.06391,0,0,0-.23-.76465A.89365.89365,0,0,0,89.97829-2.49h-2.46v-.82032h2.73a1.691,1.691,0,0,1,1.25.4502A1.94134,1.94134,0,0,1,91.948-1.44022v3.75H90.8782Z"/><path class="b00d4f0e-4697-4959-b93f-ae87a8f9f8a5" d="M95.21853-2.14041l-.12012-1.16993h1.06006l.12988,1.16993v1.5205L96.2781.01,95.21853.21017Z"/><path class="b00d4f0e-4697-4959-b93f-ae87a8f9f8a5" d="M99.41824,2.30978,99.198,1.08029a3.02378,3.02378,0,0,1-.68994.84473,3.09407,3.09407,0,0,1-.98.54492l-.38965-.84961a3.97517,3.97517,0,0,0,1.15479-.60547,2.59388,2.59388,0,0,0,.73486-.915v-1.75a1.3099,1.3099,0,0,0-.11475-.63476.57184.57184,0,0,0-.43506-.24512l-.62988-.08985.13965-.81054.99023.14062a1.21763,1.21763,0,0,1,.855.46,1.825,1.825,0,0,1,.26513,1.07032V.16037l.33985,2.14941Z"/><path class="b00d4f0e-4697-4959-b93f-ae87a8f9f8a5" d="M101.56814-2.14041,101.448-3.31034h1.06006l.12988,1.16993V2.30978h-1.06982Z"/><path class="b00d4f0e-4697-4959-b93f-ae87a8f9f8a5" d="M107.53787,1.56466a5.83514,5.83514,0,0,1-3.14014.84571L103.81765-2.49l-.09961-.82032h2.87988a1.88071,1.88071,0,0,1,1.44483.55079,2.21362,2.21362,0,0,1,.54492,1.5l.01025.31933A2.70489,2.70489,0,0,1,107.53787,1.56466Zm-.52-.76953a2.25693,2.25693,0,0,0,.52-1.75488v-.27051a1.44826,1.44826,0,0,0-.27-.91015.89646.89646,0,0,0-.75-.34961H104.888l.44971,3.92968A2.67962,2.67962,0,0,0,107.01785.79513Z"/><rect class="e75aa83b-a7bd-4b2e-8fda-e79823e5a5ba" x="39.7503" y="-23.57999" width="89.33333" height="32.47165"/><g class="b6e7232a-3e28-40f5-84e8-d5a0bb1c4eb0"><path class="af677927-524f-4871-b64c-134b619147d5" d="M168.66229,54.21546l.05113-.01511c2.9935-.88086,3.18129-1.23006,6.26565-1.61349,2.08393-.25906,3.48063.3958,3.92339-2.45092.05615-.361.04287-4.45349.02365-4.43574,2.35922-2.17864,2.1793-5.78615,1.62193-8.96122-.30141-1.71695-.24278-4.17307-1.60339-4.5933-3.21559-.99315-6.80161-.98639-10.11122-.937-1.07678.016,1.01638.28.02636-.32774l-.97009-.94043H86.9463a11.06986,11.06986,0,0,0-5.97354,1.59787.60088.60088,0,0,0-.2091.20726.83487.83487,0,0,0-.0679.31486c-.09787,1.16392-.10232,3.95465-.21577,5.1143a39.545,39.545,0,0,0-.04269,5.52772c.02139.50144.01609,1.63842.47556,1.92925.019.01205.36839.172.36839.06318,0,.0085-.413,2.83191-.413,2.83469,0,.64779,3.22491,2.38144,4.24765,2.76963,1.95828.74329,4.18236,1.9072,6.22714,2.05979,1.26639.09451,2.56256-.00035,3.83163-.00035,2.04805,0,4.50912.9771,6.55717.98206,1.66552.004,3.26933-.34533,4.89519.25287a19.99583,19.99583,0,0,1,4.424,2.83216c1.0828.77743,2.22872,1.44607,3.3065,2.20418.93767.65957,1.92966,1.11551,2.89924,1.67106a21.70729,21.70729,0,0,0,5.03618,2.40142,23.46933,23.46933,0,0,0,5.17574.56111q6.22608.24247,12.457.17451a26.76445,26.76445,0,0,0,7.73342-1.47677c3.77679-1.31221,7.58538-2.4883,11.34344-3.88074,1.45435-.53887,2.88071-1.17944,4.313-1.80072A48.59715,48.59715,0,0,1,168.66229,54.21546Z"/><path class="af677927-524f-4871-b64c-134b619147d5" d="M182.26743,32.92957a5.63648,5.63648,0,0,1,.02444,3.94609c-.223.57582-.63031.94294-.88235,1.48-.26755.57008-.36525,1.27063-.58623,1.86956a5.3416,5.3416,0,0,1-4.437,3.23824c-1.958.28232-3.92228-.20026-5.88176-.20026H106.38605c-1.8464,0-3.59871.13232-5.471-.01-2.55314-.19405-5.17821-.4429-7.48058-1.92711-2.16695-1.39692-3.48073-3.73934-4.66808-6.3135-1.06334-2.30532-2.55307-4.75169-4.97514-4.65691-1.94709.07621-4.25551,1.74111-5.58589.00272a3.68893,3.68893,0,0,1-.62309-1.75862c-.4224-3.27483,1.42143-6.38555,3.5841-8.38837,3.5361-3.27473,8.01511-4.64376,12.42055-5.29291,7.807-1.15037,15.70432-.28229,23.555.2679,10.97247.769,21.98686.91548,32.90089,2.49659S168.45,22.34062,178.166,28.61616A9.59756,9.59756,0,0,1,182.26743,32.92957Z"/><path class="a00352f4-20ed-4edf-a23a-d1464bf8ee60" d="M84.076,44.50463a10.47746,10.47746,0,0,1,6.45289,1.849c.95678.64853,1.43329.48738,2.44861.98568a10.19031,10.19031,0,0,0,2.8899.79331c3.55688.58619,7.55316,1.76678,11.13945,1.9404h60.38693c1.80947,0,3.48088-.49157,5.2475-.01338,1.98374.37865,3.9257,1.14813,5.88606,1.629a.06315.06315,0,0,1,.0523.03828.08774.08774,0,0,1-.00455.04856.7819.7819,0,0,1-.26844.39891c-.13875.10377-.305.14049-.44637.23888-.0673.04684-.12782.10692-.194.15609a1.54438,1.54438,0,0,1-.3908.19144,32.05308,32.05308,0,0,1-6.23864,1.54746c-3.59811.58143-3.855.93088-7.29956,2.426-3.21511,1.39552-6.08915,3.7326-9.12188,5.64254-14.8131,9.329-33.10583,7.9126-48.34929-.31709-4.33967-2.34292-8.979-6.20114-13.64774-7.23332-2.784-.6155-5.65849-.55131-8.40663-1.3729a7.63551,7.63551,0,0,1-4.6798-3.4288c-.66935-1.19635-.50324-1.831-.18365-3.23387C79.93553,44.21378,82.42277,44.59715,84.076,44.50463Z"/><path class="ff2001a9-a294-4803-ba64-1fa8ad344a73" d="M88.1147,48.162l.00276.03411a7.62564,7.62564,0,0,1-1.8081.03009,25.02422,25.02422,0,0,1-2.8966-.05574c-.76444-.10986-1.965-.07725-2.00419-1.4727-.01845-.6571.28622-.64625.425-1.27823.13229-.60232.771-.21358,1.06376.06865a11.541,11.541,0,0,0,.99412,1.05251c.62156.45427,1.3654.31037,2.06026.42179.55539.08906.6845-.61676,1.163-.20764A2.68561,2.68561,0,0,1,88.1147,48.162Z"/><path class="ff2001a9-a294-4803-ba64-1fa8ad344a73" d="M86.14277,33.85427a3.76989,3.76989,0,0,1-1.80813,2.14911,14.78741,14.78741,0,0,1-3.07363.2423c-.37671-.20275-.25065-1.00163-.22131-1.38386.0595-.7752.147-1.54732.20949-2.3215.06373-.789,4.06445-1.738,4.5678-1.31026A2.2727,2.2727,0,0,1,86.14277,33.85427Z"/><ellipse class="ff2001a9-a294-4803-ba64-1fa8ad344a73" cx="97.92787" cy="30.0434" rx="9.51835" ry="10.40585"/></g><circle class="bfc35fca-45e6-4e0b-a56a-32cdad3fc102" cx="98.49985" cy="31.18367" r="8.30728"/><circle class="adbf6381-2be6-45b4-b402-606c8dc70f34" cx="98.49985" cy="31.18367" r="5.79926"/><path class="b02c123e-022a-4792-966e-5f1cb03d39ab" d="M96.36055,35.80436l2.1393-4.62069,3.0612,4.08038S99.7375,36.95252,96.36055,35.80436Z"/><path class="b02c123e-022a-4792-966e-5f1cb03d39ab" d="M100.64927,26.4969,98.51,31.11759l-3.06119-4.08038S97.27233,25.34874,100.64927,26.4969Z"/><path class="b02c123e-022a-4792-966e-5f1cb03d39ab" d="M103.16484,33.30118l-4.6207-2.1393,4.08039-3.06119S104.313,29.92424,103.16484,33.30118Z"/><path class="b02c123e-022a-4792-966e-5f1cb03d39ab" d="M93.87916,29.01248l4.62069,2.13929L94.41947,34.213S92.731,32.38942,93.87916,29.01248Z"/><path class="b7b74ef1-aa70-47be-8a9a-a67157282008" d="M138.52853,48.37164h-27.5s-1.08333-8.05043,7.04167-15.75h21.20833S137.36186,43.30357,138.52853,48.37164Z"/></g><rect class="a5cdf5dc-eaa8-430b-a526-18c234b5197a" x="13.60242" y="-596.50229" width="233.75906" height="493.74709"/><rect class="a5cdf5dc-eaa8-430b-a526-18c234b5197a" x="258.05755" y="-1133.99365" width="233.75906" height="493.74709"/><ellipse class="ab0a2e0a-eeb4-439a-b719-24c3d72469d6" cx="58.20943" cy="39.57852" rx="58.20943" ry="3.94002"/><g class="e30e10af-81d9-4c15-92f4-80525d4e3df0"><path class="af677927-524f-4871-b64c-134b619147d5" d="M93.7291,31.33908l.05114-.01512c2.9935-.88086,3.18128-1.23,6.26565-1.61348,2.08392-.25906,3.48063.39579,3.92339-2.45092.05615-.361.04286-4.45349.02364-4.43575,2.35923-2.17863,2.17931-5.78615,1.62193-8.96122-.3014-1.71694-.24277-4.17307-1.60339-4.5933-3.21559-.99315-6.8016-.98639-10.11122-.937-1.07678.01606,1.01639.28.02636-.32773l-.97008-.94043H12.01312A11.06989,11.06989,0,0,0,6.03957,8.66195a.60083.60083,0,0,0-.20909.20725.83492.83492,0,0,0-.06791.31486c-.09786,1.16393-.10231,3.95465-.21576,5.11431a39.54492,39.54492,0,0,0-.04269,5.52771c.02139.50145.01608,1.63842.47556,1.92926.019.012.36839.172.36839.06317,0,.00851-.413,2.83191-.413,2.8347,0,.64778,3.22492,2.38143,4.24765,2.76963,1.95829.74329,4.18236,1.90719,6.22715,2.05979,1.26639.09451,2.56255-.00035,3.83162-.00035,2.04806,0,4.50913.97709,6.55717.98206,1.66553.004,3.26933-.34534,4.8952.25286a19.99636,19.99636,0,0,1,4.424,2.83216c1.0828.77744,2.22873,1.44607,3.3065,2.20419.93767.65956,1.92967,1.1155,2.89925,1.67106A21.7074,21.7074,0,0,0,47.35972,39.826a23.4688,23.4688,0,0,0,5.17574.56112q6.2261.24246,12.457.1745a26.76432,26.76432,0,0,0,7.73341-1.47677c3.7768-1.31221,7.58538-2.4883,11.34344-3.88073,1.45436-.53887,2.88071-1.17945,4.313-1.80073A48.59614,48.59614,0,0,1,93.7291,31.33908Z"/><path class="af677927-524f-4871-b64c-134b619147d5" d="M107.33425,10.05318a5.63657,5.63657,0,0,1,.02443,3.9461c-.223.57581-.6303.94293-.88235,1.48-.26755.57009-.36524,1.27063-.58623,1.86956a5.34156,5.34156,0,0,1-4.437,3.23824c-1.958.28233-3.92228-.20025-5.88176-.20025H31.45287c-1.84641,0-3.59871.13231-5.471-.01-2.55314-.194-5.1782-.44289-7.48057-1.9271-2.167-1.39692-3.48073-3.73934-4.66808-6.31351C12.76983,9.8309,11.2801,7.38453,8.858,7.4793,6.911,7.55552,4.60253,9.22041,3.27214,7.482a3.689,3.689,0,0,1-.62308-1.75861C2.22665,2.44857,4.07049-.66214,6.23316-2.665c3.5361-3.27473,8.0151-4.64377,12.42054-5.29291,7.807-1.15038,15.70432-.2823,23.555.26789,10.97247.769,21.98685.91549,32.90089,2.49659S93.5168-.53576,103.23278,5.73977A9.59772,9.59772,0,0,1,107.33425,10.05318Z"/><path class="a00352f4-20ed-4edf-a23a-d1464bf8ee60" d="M9.14278,21.62824a10.47739,10.47739,0,0,1,6.45288,1.849c.95678.64853,1.43329.48737,2.44862.98567a10.19013,10.19013,0,0,0,2.8899.79331c3.55688.5862,7.55315,1.76679,11.13944,1.9404H92.46056c1.80947,0,3.48087-.49157,5.24749-.01337,1.98374.37864,3.9257,1.14812,5.88607,1.629a.06317.06317,0,0,1,.0523.03828.08782.08782,0,0,1-.00456.04856.78185.78185,0,0,1-.26844.39892c-.13875.10376-.305.14048-.44637.23887-.06729.04685-.12782.10692-.194.1561a1.54484,1.54484,0,0,1-.3908.19143,32.05174,32.05174,0,0,1-6.23865,1.54746c-3.59811.58143-3.855.93089-7.29955,2.426-3.21511,1.39552-6.08916,3.7326-9.12188,5.64255-14.81311,9.329-33.10583,7.9126-48.34929-.3171-4.33967-2.34291-8.979-6.20113-13.64774-7.23332-2.784-.61549-5.6585-.5513-8.40664-1.37289a7.63564,7.63564,0,0,1-4.6798-3.4288c-.66934-1.19636-.50324-1.831-.18364-3.23387C5.00235,21.33739,7.48958,21.72077,9.14278,21.62824Z"/><path class="ff2001a9-a294-4803-ba64-1fa8ad344a73" d="M13.18152,25.28557l.00275.03411a7.62564,7.62564,0,0,1-1.8081.0301,25.02869,25.02869,0,0,1-2.8966-.05574c-.76444-.10987-1.965-.07725-2.00418-1.47271-.01846-.65709.28622-.64624.425-1.27822.13229-.60232.771-.21358,1.06375.06864a11.54109,11.54109,0,0,0,.99412,1.05251c.62156.45428,1.36541.31038,2.06027.4218.55538.08905.6845-.61677,1.163-.20765A2.68567,2.68567,0,0,1,13.18152,25.28557Z"/><path class="ff2001a9-a294-4803-ba64-1fa8ad344a73" d="M35.64231,29.13627H34.46265c-.306,0-.92883.14281-1.18981-.04095.82721.0735,1.6357.02407,2.46574.02971l3.53134.03224,4.76371.04349,5.63793.05147,6.154.05618,6.31187.05763,6.11161.05579,5.55318.0507,4.63659.04233,3.36185.03069,1.72894.01579c.05145.00047.10292.00141.15437.00141h.40575a6.22446,6.22446,0,0,0,.497.86627,2.42776,2.42776,0,0,0,.88952.54165,3.71264,3.71264,0,0,0,1.37144.14442c1.06813,0,2.09732-.08062,3.1513-.15553-2.04891.88556-4.02546,1.82351-6.08549,2.62846-1.81242.70819-3.67377,1.5374-5.50931,2.1187-2.65039.83937-5.21555,1.94258-7.92265,2.5256a34.06989,34.06989,0,0,1-6.86417.624c-2.38836.02354-4.77694.05345-7.16531.01466-1.7861-.029-3.57182-.08423-5.35758-.13437a13.03951,13.03951,0,0,1-4.95442-1.21745l.23248.10847a28.77638,28.77638,0,0,1-3.37871-1.78433l-2.12251-1.28793c-1.36929-.83089-2.73939-1.66281-4.06956-2.58487-.67132-.46536-1.33235-.95342-1.9756-1.47483a9.45347,9.45347,0,0,1-1.48728-1.31007"/><path class="adbf6381-2be6-45b4-b402-606c8dc70f34" d="M81.90137,33.28573c.11043-.03682.21033-.12066.3189-.16495.74568-.32024,1.54543-.54663,2.26645-.93575a7.09389,7.09389,0,0,1-.844-.96091c-.21-.25461-.31653-.37642-.637-.38721-.99237-.03339-1.9862-.07448-2.979-.07448-7.02224,0-14.0436-.01814-21.06554-.12028q-.55984-.00813-1.1196-.01624c-1.29717-.01874-15.4277-.253-15.42862-.07a3.16528,3.16528,0,0,1-.38894,1.30859,3.72959,3.72959,0,0,1-1.25758,1.0923c.65076.51673,1.5263,1.16538,2.21331,1.60656.5948.382,1.21609.70835,1.82233,1.06675a19.73722,19.73722,0,0,0,3.18713,1.304,8.67158,8.67158,0,0,0,2.16473.51333c4.72969.54962,9.577.21152,14.33064.21152.62122,0,4.02758-.11955,5.07913-.25762a33.509,33.509,0,0,0,6.984-2.11494c.9051-.33326,1.80462-.68852,2.70624-1.03542C80.125,33.91583,81.04811,33.6766,81.90137,33.28573Z"/><path class="ff2001a9-a294-4803-ba64-1fa8ad344a73" d="M11.20958,10.97789A3.76983,3.76983,0,0,1,9.40145,13.127a14.788,14.788,0,0,1-3.07362.24231c-.37671-.20276-.25065-1.00163-.22132-1.38386.05951-.77521.147-1.54732.2095-2.32151.06372-.789,4.06445-1.738,4.5678-1.31026A2.27272,2.27272,0,0,1,11.20958,10.97789Z"/><path class="a03dbcc7-8cc6-4304-b3ba-014655fde85d" d="M104.04706,28.39547c-.64421.80671-3.20084.16546-4.055-.05335a14.87155,14.87155,0,0,1-3.88159-1.618A10.89779,10.89779,0,0,1,99.56,24.16262a21.89725,21.89725,0,0,1,2.26472-1.0381,5.36346,5.36346,0,0,1,1.95375-.302c.27578.00411.42677-.0931.51394.2717.06361.26617.0116.56066.07205.82819a3.73233,3.73233,0,0,1-.0352,1.32258,4.05533,4.05533,0,0,0,.01063,1.03355A3.88026,3.88026,0,0,1,104.04706,28.39547Z"/><path class="ff2001a9-a294-4803-ba64-1fa8ad344a73" d="M88.62882,16.71574a9.03066,9.03066,0,0,1-9.8838-.59A10.16074,10.16074,0,0,1,75.27409,6.03276c.0287-.11833,8.37176-.79495,9.16261-.84158,1.38175-.08148,2.71045.33566,4.04484.33129,1.47965-.00484,2.64867-.73575,4.18713-.21506a3.09157,3.09157,0,0,1,1.542,1.04809c1.06291,1.45079-.55156,4.508-1.29318,5.86275A11.44163,11.44163,0,0,1,88.62882,16.71574Z"/><ellipse class="ff2001a9-a294-4803-ba64-1fa8ad344a73" cx="22.99469" cy="7.16701" rx="9.51835" ry="10.40585"/><g class="b70217f3-203a-4097-8201-bc7023fa6aec"><path class="b02c123e-022a-4792-966e-5f1cb03d39ab" d="M39.21931,32.03955c2.85625-.29838,13.75746,1.13568,14.56434,1.25111.85614.12246,21.9535,2.65876,22.30825,2.74717,1.01689.25342,3.67484,4.12241,3.29347,5.309a3.3828,3.3828,0,0,1-2.18747,1.96251,17.67559,17.67559,0,0,1-5.06722,1.02119A40.19276,40.19276,0,0,1,58.681,43.10187,85.37016,85.37016,0,0,1,46.34757,38.417l-5.7867-2.54479a2.45951,2.45951,0,0,1-.80776-.49081c-.72307-.73751-.5363-2.06484-.69935-3.16741a.0952.0952,0,0,1,.04828-.09934"/></g><line class="fdaa84ac-f87e-4b3f-bf6e-44c6527b6765" x1="64.9847" y1="29.77099" x2="64.9847" y2="38.2126"/><path class="bab72175-8219-4167-bb82-cf8e774a56b6" d="M103.58012,25.9964c.03427.379.01685,2.073-.19515,2.12638a.1928.1928,0,0,1-.06454.00151,6.969,6.969,0,0,1-2.13358-.42577c-.26743-.11287.1181-.47944.20261-.56522a3.79692,3.79692,0,0,1,.897-.64094A4.7218,4.7218,0,0,1,103.58012,25.9964Z"/></g><circle class="bfc35fca-45e6-4e0b-a56a-32cdad3fc102" cx="23.56667" cy="8.30728" r="8.30728"/><circle class="adbf6381-2be6-45b4-b402-606c8dc70f34" cx="23.56667" cy="8.30728" r="5.79926"/><path class="b02c123e-022a-4792-966e-5f1cb03d39ab" d="M21.42737,12.928l2.1393-4.62069,3.06119,4.08038S24.80431,14.07614,21.42737,12.928Z"/><path class="b02c123e-022a-4792-966e-5f1cb03d39ab" d="M25.71609,3.62051l-2.1393,4.6207-3.0612-4.08039S22.33914,2.47235,25.71609,3.62051Z"/><path class="b02c123e-022a-4792-966e-5f1cb03d39ab" d="M28.23165,10.42479,23.611,8.2855l4.08038-3.0612S29.37981,7.04785,28.23165,10.42479Z"/><path class="b02c123e-022a-4792-966e-5f1cb03d39ab" d="M18.946,6.13609l4.6207,2.1393-4.08039,3.06119S17.79781,9.513,18.946,6.13609Z"/><circle class="bfc35fca-45e6-4e0b-a56a-32cdad3fc102" cx="84.95778" cy="8.30728" r="8.30728"/><circle class="adbf6381-2be6-45b4-b402-606c8dc70f34" cx="84.95778" cy="8.30728" r="5.79926"/><path class="b02c123e-022a-4792-966e-5f1cb03d39ab" d="M82.81848,12.928l2.1393-4.62069L88.019,12.38766S86.19542,14.07614,82.81848,12.928Z"/><path class="b02c123e-022a-4792-966e-5f1cb03d39ab" d="M87.1072,3.62051l-2.1393,4.6207L81.9067,4.16082S83.73025,2.47235,87.1072,3.62051Z"/><path class="b02c123e-022a-4792-966e-5f1cb03d39ab" d="M89.62276,10.42479,85.00207,8.2855l4.08038-3.0612S90.77092,7.04785,89.62276,10.42479Z"/><path class="b02c123e-022a-4792-966e-5f1cb03d39ab" d="M80.33708,6.13609l4.6207,2.1393-4.08039,3.06119S79.18892,9.513,80.33708,6.13609Z"/><path class="b7b74ef1-aa70-47be-8a9a-a67157282008" d="M63.59534,25.49525h-27.5S35.012,17.44482,43.137,9.74525H64.34534S62.42868,20.42718,63.59534,25.49525Z"/><path class="b7b74ef1-aa70-47be-8a9a-a67157282008" d="M39.32871,28.63488a5.9,5.9,0,0,1-3.6116-1.00732c-.75874-.42443-1.77957-1.08975-2.31074.20806a1.5945,1.5945,0,0,0,.33658,1.56662,9.85877,9.85877,0,0,0,3.63647,2.32764,2.974,2.974,0,0,0,1.58116.245,2.29971,2.29971,0,0,0,1.51805-2.71906,1.00465,1.00465,0,0,0-.18879-.4283C40.05346,28.551,39.6645,28.59988,39.32871,28.63488Z"/><path class="b7b74ef1-aa70-47be-8a9a-a67157282008" d="M90.93471,29.74052a6.19428,6.19428,0,0,1-2.93027.3491,1.90318,1.90318,0,0,1-1.97538-1.68389c-.32712-1.67932.70732-1.96374,2.14362-1.98128l2.6462-.03232a1.844,1.844,0,0,1,.74648.094C93.18756,27.17386,91.97214,29.23954,90.93471,29.74052Z"/></g></g></svg>