<svg id="fa3a6c76-ff2a-40a1-a065-cf155f7d11a2" data-name="Layer 1" xmlns="http://www.w3.org/2000/svg" xmlns:xlink="http://www.w3.org/1999/xlink" viewBox="0 0 59.42057 58.35014"><defs><style>.a3ae2aca-11b6-4a71-af97-1cb4fb2f4e66,.a7d7e65d-d6c9-4b16-a50d-d60158ed42be,.e9ec4b1c-ad18-4b58-a2a6-5e48fd0c307f{fill:none;}.fb9ed2a4-23b2-4720-9060-e983f4210f78{fill:#fff;}.a7d7e65d-d6c9-4b16-a50d-d60158ed42be,.e9ec4b1c-ad18-4b58-a2a6-5e48fd0c307f{stroke:#e6e7e8;stroke-miterlimit:10;}.e9ec4b1c-ad18-4b58-a2a6-5e48fd0c307f{stroke-width:1.11859px;}.fa711e0b-d87e-4e9f-b551-fec21cbc63c2{clip-path:url(#b3a1f6ec-e56e-420e-881b-00f185bb178c);}.f16e941c-b476-438f-bac0-9b211c744af9{fill:#e6e7e8;}.ee9c917b-0a53-46a8-9218-b9f2a25744d3{clip-path:url(#e27412cf-4c4e-4af8-b433-e6f268c6b8e6);}</style><clipPath id="b3a1f6ec-e56e-420e-881b-00f185bb178c"><path class="a3ae2aca-11b6-4a71-af97-1cb4fb2f4e66" d="M15.9618,47.67828,39.21391,33.2469l-.37836-1.28356L32.58231,35.8444,33.74026,32.544l-4.13642.15029L12.96653,42.86835S5.30093,40.71755,1.39,43.109c-1.775,1.08534-1.73712,2.416-.52373,3.9117C3.02448,49.68119,5.844,49.90131,5.907,53.7861c.03614,2.23216,1.90379,5.81786,4.6334,4.12373C14.43536,55.49243,15.9618,47.67828,15.9618,47.67828Z"/></clipPath><clipPath id="e27412cf-4c4e-4af8-b433-e6f268c6b8e6"><path class="a3ae2aca-11b6-4a71-af97-1cb4fb2f4e66" d="M36.01636,30.36351l3.52093-4.98339,1.39985,1.70647,8.25512-11.684c4.58584-.33918,10.21715-5.05288,10.2283-7.60159.01038-2.38934-3.12783-3.18386-5.56233-3.66339C52.60912,2.00438,50.84207-.64461,48.60836.14155,46.204.98755,43.59691,7.853,44.77965,12.29649L32.34467,29.652l3.52349-1.64415Z"/></clipPath></defs><title>Artboard 184</title><path class="fb9ed2a4-23b2-4720-9060-e983f4210f78" d="M36.01363,30.36546l3.51367-4.97312,1.397,1.70294,8.23812-11.65992c4.5764-.33848,10.19611-5.04246,10.20723-7.58593C59.38,5.465,56.24824,4.67213,53.81875,4.19359c-1.24654-2.12885-3.01-4.77238-5.23906-3.98784-2.39936.84426-5.00113,7.69553-3.82082,12.1299L32.3495,29.65536l3.51624-1.64076Z"/><path class="fb9ed2a4-23b2-4720-9060-e983f4210f78" d="M15.9618,47.67828,39.21391,33.2469l-.37836-1.28356L32.58231,35.8444,33.74026,32.544l-4.13642.15029L12.96653,42.86835S5.30093,40.71755,1.39,43.109c-1.775,1.08534-1.73712,2.416-.52373,3.9117C3.02448,49.68119,5.844,49.90131,5.907,53.7861c.03614,2.23216,1.90379,5.81786,4.6334,4.12373C14.43536,55.49243,15.9618,47.67828,15.9618,47.67828Z"/><path class="a7d7e65d-d6c9-4b16-a50d-d60158ed42be" d="M32.04186,29.54908a11.46925,11.46925,0,0,0,3.66886-1.00035l.01447,2.08,3.6553-4.87733,1.11969,1.8233"/><path class="e9ec4b1c-ad18-4b58-a2a6-5e48fd0c307f" d="M29.85577,32.62044a11.58706,11.58706,0,0,0,4.09522.35319L33.0121,35.2287l5.85853-3.84485.2743,2.40975"/><g class="fa711e0b-d87e-4e9f-b551-fec21cbc63c2"><path class="f16e941c-b476-438f-bac0-9b211c744af9" d="M5.78588,52.89407c-.0331-.61733-.47542-2.13215-1.20442-2.30275-.31883-.07444-.63253.16362-.95985.156a1.30951,1.30951,0,0,1-.7148-.33378L1.58114,49.4211a1.25819,1.25819,0,0,1-.49279-.55379c-.47067-1.40482,1.65789-1.00657,2.1975-.989a16.10625,16.10625,0,0,0,3.576-.39446,2.24587,2.24587,0,0,1,2.33284.77266,2.41643,2.41643,0,0,1-.04816,2.12575C8.63,51.65742,7.71493,52.85144,7.76376,54.22634a15.70322,15.70322,0,0,1,.24867,2.14629c-.07463.71853-.8072,1.45469-1.45362,1.13218-.48242-.2407-.57274-.87807-.60162-1.41644Z"/></g><g class="ee9c917b-0a53-46a8-9218-b9f2a25744d3"><path class="f16e941c-b476-438f-bac0-9b211c744af9" d="M51.40565,2.26833a.91411.91411,0,0,1,.52238.97608,3.30694,3.30694,0,0,1-.42332,1.1116,9.2003,9.2003,0,0,0-.92941,3.27483,1.39421,1.39421,0,0,0,.18753,1.00949c.26679.33213.75279.37547,1.11132.60556a1.25521,1.25521,0,0,1-.1484,2.08454A14.09432,14.09432,0,0,1,55.28344,8.8203c.639-.31583,1.41861-.77,1.34516-1.479a1.1333,1.1333,0,0,1-.027-.45056c.13931-.44537,1.01278-.30628,1.082-.76776.04043-.26951-.25365-.45278-.49248-.584a4.29649,4.29649,0,0,1-1.59448-1.52734,13.079,13.079,0,0,0-1.04434-1.83627A2.05678,2.05678,0,0,0,52.87356,1.417,1.45589,1.45589,0,0,0,51.5501,2.59155"/></g></svg>