<svg xmlns="http://www.w3.org/2000/svg" viewBox="0 0 57.55271 72.65048"><defs><style>.a1a154c5-e86b-4966-af9d-6957002abfb7{isolation:isolate;}.f95b8dc0-a4cb-45f9-b6f1-a8f797a7a067{fill:#f6d2ba;}.f1d75b32-7525-4517-b2ef-4214af32365a{fill:#b2988a;}.ee2ac17a-891c-453b-9ce3-9a8d798d69b4{fill:#ef5b5b;mix-blend-mode:multiply;}.e56dd148-1297-434f-8b42-e28ae247f0b5{fill:#af2027;}</style></defs><title>Artboard 189</title><g class="a1a154c5-e86b-4966-af9d-6957002abfb7"><g id="a57f99ad-6f01-4d82-9d90-67d63c57f686" data-name="Layer 1"><path class="f95b8dc0-a4cb-45f9-b6f1-a8f797a7a067" d="M11.61557,2.985C.03355,8.81414-3.57684,22.46795,3.939,33.1466c5.60509,7.96382,12.83479,14.01524,19.4,21.21157,4.36585,4.78557,7.70882,10.80627,12.96267,14.69459C39.932,71.73951,44.60354,73.323,49.01892,72.373c5.99483-1.28975,8.84342-7.14878,8.50719-12.89153-.385-6.57627-5.57386-13.65747-10.3251-17.91659-7.52175-6.74266-4.96993-17.41068-5.735-26.37837-.36719-4.304-1.68738-9.64076-5.46072-12.27542C31.74911-.06068,25.20879-.38895,20.26819.31A28.00606,28.00606,0,0,0,11.61557,2.985Z"/><path class="f1d75b32-7525-4517-b2ef-4214af32365a" d="M7.75737,15.00931c-3.2142,4.7476-2.81452,10.068-.30661,15.01593C9.21684,33.50958,12.932,40.31257,17.192,41.05982a9.177,9.177,0,0,1,2.61787.48985,7.04241,7.04241,0,0,1,1.73332,1.59421,7.98923,7.98923,0,0,0,7.12243,2.274,15.6925,15.6925,0,0,0,1.79564-.491c3.0699-.97152,4.35693-1.65375,7.19244.13664a7.11436,7.11436,0,0,0,2.84136,1.23117c2.17484.26642,3.37854-1.1653,2.43187-2.98861a9.12537,9.12537,0,0,0-4.67889-3.71162c-1.65142-.67333-4.14633-.73529-5.30585-2.2304-1.215-1.56666-.35811-3.80724.37869-5.64785a23.51715,23.51715,0,0,0,1.82021-10.45633c-.27082-3.46734-1.89851-5.77071-3.3301-8.79867-1.8883-3.994-6.82179-4.45878-10.79395-4.41919A16.13279,16.13279,0,0,0,7.75737,15.00931Z"/><path class="f95b8dc0-a4cb-45f9-b6f1-a8f797a7a067" d="M18.64211,30.76741a9.12813,9.12813,0,0,1,1.79927-5.13674c1.77437-2.51186,4.11448-3.77726,6.251-5.78644a4.84988,4.84988,0,0,0,1.59058-2.6296c.46668-2.80286-3.68679-3.61415-5.74035-4.08881a14.19369,14.19369,0,0,0-8.15673.49824c-2.60667.98393-4.993,2.69638-5.346,5.56182-.37225,3.02173.43775,5.99289,1.35736,8.84554.83672,2.59553,1.84625,5.313,3.99143,6.99679a33.80285,33.80285,0,0,0,4.28688,2.311c1.47122.84844,2.38024,2.01236,4.00111,2.64635C20.336,37.12483,18.56877,34.00253,18.64211,30.76741Z"/><path class="ee2ac17a-891c-453b-9ce3-9a8d798d69b4" d="M32.46638,34.72275a1.26831,1.26831,0,0,0-1.48572-.54929,3.41645,3.41645,0,0,0-1.40614.962,5.77851,5.77851,0,0,0-2.08318,3.6913,1.79584,1.79584,0,0,0,.19986.95207c.37788.65484,1.22376.82065,1.94272,1.05453s1.50916.81321,1.36327,1.55505a1.88489,1.88489,0,0,1-.34285.67235,5.62961,5.62961,0,0,0-1.048,2.328,2.39759,2.39759,0,0,0,.85233,2.29486,3.13631,3.13631,0,0,0,2.70765.12914c.68844-.214,1.51818-.47665,2.06237-.00378.58537.50866.36736,1.45323.58906,2.19635a2.32607,2.32607,0,0,0,1.91813,1.50414,4.69629,4.69629,0,0,0,2.501-.44578,1.75345,1.75345,0,0,1,.91664-.22126,2.479,2.479,0,0,1,.53371.19007c1.48728.58833,3.22458-.65756,3.62175-2.20688A5.84533,5.84533,0,0,0,44.20908,44.299a12.06129,12.06129,0,0,0-6.02654-4.70931,17.91341,17.91341,0,0,1-4.22994-1.58887c-1.25443-.844-2.10292-2.5935-1.32163-3.8879"/><path class="e56dd148-1297-434f-8b42-e28ae247f0b5" d="M45.08957,54.26606c-.6147-3.48625-1.714-7.2872-1.51786-10.84476-.17473,3.16879-4.05505,5.5214-5.73693,7.92416-1.27,1.81436-2.37125,3.69444-1.79811,5.97684a4.04468,4.04468,0,0,0,1.98843,2.64644C42.50469,62.23641,45.86258,58.65024,45.08957,54.26606Z"/></g></g></svg>