<svg id="fa972d1a-b95b-46ae-a36a-d35dc359bba1" data-name="Layer 1" xmlns="http://www.w3.org/2000/svg" xmlns:xlink="http://www.w3.org/1999/xlink" viewBox="0 0 68.62481 87.29341"><defs><style>.a36f9aae-0e45-4f6a-8dfd-005c76269fdf{fill:none;}.a306ae1f-7045-4ef7-af99-74e82e99ea7f{clip-path:url(#fdf16258-6691-4f4b-b5d7-690288dde71e);}.e00a8dc8-6d76-4fc6-b712-c69b170d84b4{fill:#63774e;}.aec23f61-300e-4399-ac1c-08aa906c7788{clip-path:url(#f03cfa14-c409-4729-9c69-6b3fa2ad9d46);}.ef1af729-41f6-456f-b7e0-8b29d107e089{fill:#af2027;}.bc153a9c-e12f-42fc-a676-cda86b05e999{fill:#ee755b;}.b36e083f-a5dd-4841-acda-d4442d899aa5{fill:#efbe78;}.b59a3eb9-53c0-4a07-ae7e-a061e2c4d7fd{fill:#ef5b5b;}.a426b9fe-3f7b-4fc5-8ff9-fc3ca0ff1526{fill:#eeb95b;}</style><clipPath id="fdf16258-6691-4f4b-b5d7-690288dde71e"><rect class="a36f9aae-0e45-4f6a-8dfd-005c76269fdf" x="13.52299" y="-175.24405" width="135.6536" height="108.85783" transform="translate(162.69959 -241.63028) rotate(-180)"/></clipPath><clipPath id="f03cfa14-c409-4729-9c69-6b3fa2ad9d46"><path class="a36f9aae-0e45-4f6a-8dfd-005c76269fdf" d="M17.662,45.725A45.45245,45.45245,0,0,1,7.29018,76.4903c4.55545,3.94543,11.138,5.93237,17.68452,6.51969s13.15087-.09657,19.68385-.77961c5.22572-.54636,10.88955-1.26876,14.52429-4.432a18.09219,18.09219,0,0,1-4.9577-7.661,40.15124,40.15124,0,0,1-.89093-26.11927,126.23091,126.23091,0,0,0-17.12962-3.58783,28.17266,28.17266,0,0,0-9.53975-.10517c-3.78585.78992-6.92577,2.91992-9.928,4.99037a8.6052,8.6052,0,0,0-3.1998,3.131"/></clipPath></defs><title>Artboard 183</title><g class="a306ae1f-7045-4ef7-af99-74e82e99ea7f"><path class="e00a8dc8-6d76-4fc6-b712-c69b170d84b4" d="M81.90256-26.59638c5.21013,1.56358,10.539,2.54855,15.90745,4.35208a12.07,12.07,0,0,1,4.48977,2.35,10.72788,10.72788,0,0,1,2.60317,4.41175c2.42137,6.91692,1.704,14.52415,4.31148,21.38894a147.98453,147.98453,0,0,0,9.36573,20.13232,92.39038,92.39038,0,0,0,5.22945,7.95443l7.6584,10.82105a16.08879,16.08879,0,0,1,12.59527-7.08787c-7.06587-7.63391-7.33364-18.578-10.5894-27.759-6.85025-19.31714.52262-47.8407-21.55438-54.69779-2.47039-.7673-4.93469-1.57815-7.35688-2.48746-2.07285-.77816-3.7495-1.942-5.89509-2.625L83.375-54.71133c.10237.03259,1.88094-.79484,2.20533-.85872a16.10376,16.10376,0,0,0,2.86684-.46561c2.03072-.8014,3.70888-3.03758,5.18488-4.57949.46226-.4829.9192-1.269.44994-1.74514a1.304,1.304,0,0,0-.87088-.28124,24.231,24.231,0,0,0-6.22945.407c-3.633.716-7.99739,2.60562-11.15291-.28036C74.41814-63.805,73.053-65.14464,71.57747-66.361,59.813-76.05786,59.797-59.02471,59.54839-51.14315c-.27994,8.87489,4.78295,15.95239,12.24012,20.30712A45.76412,45.76412,0,0,0,81.90256-26.59638Z"/></g><g class="aec23f61-300e-4399-ac1c-08aa906c7788"><path class="ef1af729-41f6-456f-b7e0-8b29d107e089" d="M17.662,45.725A45.45245,45.45245,0,0,1,7.29018,76.4903c4.55545,3.94543,11.138,5.93237,17.68452,6.51969s13.15087-.09657,19.68385-.77961c5.22572-.54636,10.88955-1.26876,14.52429-4.432a18.09219,18.09219,0,0,1-4.9577-7.661,40.15124,40.15124,0,0,1-.89093-26.11927,126.23091,126.23091,0,0,0-17.12962-3.58783,28.17266,28.17266,0,0,0-9.53975-.10517c-3.78585.78992-6.92577,2.91992-9.928,4.99037a8.6052,8.6052,0,0,0-3.1998,3.131"/><path class="bc153a9c-e12f-42fc-a676-cda86b05e999" d="M19.7701,63.18254a2.819,2.819,0,0,0,.93174,3.71478c1.86434,1.16522,3.671-.624,5.50714-.48512a2.98152,2.98152,0,0,1,2.24968,1.75315,24.32436,24.32436,0,0,1,.98856,2.809c.23887.65064.64487,1.34869,1.32612,1.47632.81253.15224,1.52651-.58388,2.34632-.69009,1.41157-.18289,2.32133,1.435,2.72493,2.8s1.0105,3.02711,2.4227,3.205a10.99084,10.99084,0,0,0,1.91406-.22778,2.656,2.656,0,0,1,2.63312,1.95879c1.28189-.94923,1.51867-2.82019,1.12149-4.365a34.81346,34.81346,0,0,0-1.89511-4.38589c-.581-1.41553-.89679-2.93009-1.4998-4.33657a9.50183,9.50183,0,0,0-4.65092-4.9562c-1.95059-.95007-3.01-1.1082-2.52333-3.74734a19.699,19.699,0,0,0,.6847-2.73344,3.57927,3.57927,0,0,0-2.39772-3.30866,5.46055,5.46055,0,0,0-4.23185.3735,11.96144,11.96144,0,0,0-3.38746,2.71691,6.40425,6.40425,0,0,0-1.53,2.29378c-.43751,1.35389.31015,2.0406-.26574,3.20239C21.71566,61.30528,20.34878,62.03157,19.7701,63.18254Z"/><path class="b36e083f-a5dd-4841-acda-d4442d899aa5" d="M33.58167,53.906a9.762,9.762,0,0,0,2.79439,12.74357,8.5543,8.5543,0,0,1,2.62338,2.03782c.86666,1.30088.56838,3.02149.835,4.56171a5.61627,5.61627,0,0,0,4.22129,4.52022,4.72009,4.72009,0,0,0,5.27953-2.88976,1.19177,1.19177,0,0,0,.0165-.93748c-.20422-.37935-.70691-.48594-.99092-.8099a1.59962,1.59962,0,0,1-.16217-1.44981c.72645-2.83948,3.42748-5.35736,2.66117-8.18634-.62013-2.28931-3.369-3.68757-3.54136-6.05312a9.01241,9.01241,0,0,1,.8964-3.416c.37973-1.12466.47268-2.53706-.40627-3.33488a9.53564,9.53564,0,0,0-4.0201-2.384,10.402,10.402,0,0,0-4.53545.11,9.867,9.867,0,0,0-3.98525,1.7543,5.65642,5.65642,0,0,0-2.19955,3.67"/></g><path class="b59a3eb9-53c0-4a07-ae7e-a061e2c4d7fd" d="M20.29416,49.90629a16.67716,16.67716,0,0,1-7.7922,2.25526c-2.732-.056-5.5853-1.46883-6.64485-3.9876C2.04947,47.13162.203,41.84374,2.53418,38.65781-.8476,36.12619-.844,30.25723,2.54083,27.72973a23.29892,23.29892,0,0,1,5.8341-9.95019c1.81709-1.83039,4.177-3.42767,6.75128-3.26812A17.38467,17.38467,0,0,1,31.44668,4.57315a13.88145,13.88145,0,0,0,3.36547.013A9.97537,9.97537,0,0,0,36.981,3.79968C40.02742,2.42389,43.25648,1.05974,46.5864,1.351S53.297,4.19058,53.30612,7.53321c3.70707.28765,7.53228,1.8653,9.51178,5.01278s1.36715,7.97481-1.87831,9.78921A12.66207,12.66207,0,0,1,62.383,44.36685a2.26607,2.26607,0,0,1,.42414,2.84845,5.15078,5.15078,0,0,1-2.37709,1.98,15.3469,15.3469,0,0,1-6.32386,1.55268c-1.521.03982-3.0475-.14727-4.56181.00044a16.42215,16.42215,0,0,0-4.4842,1.22761c-2.67083,1.07253-5.42779,2.47061-8.27245,2.03293-2.32884-.35832-4.75847-1.912-6.84759-.82228a13.10553,13.10553,0,0,0-1.89756,1.5244c-2.2501,1.77429-5.45543,1.6133-8.24749.96875a30.511,30.511,0,0,1-6.17956-2.147l.591-1.00773"/><path class="bc153a9c-e12f-42fc-a676-cda86b05e999" d="M2.46262,39.68085C1.02135,41.75779,2.17038,44.92361,4.407,46.102a7.232,7.232,0,0,0,7.18579-.74738,16.91648,16.91648,0,0,0,4.8833-5.71623,18.08733,18.08733,0,0,0,4.26516,3.95345,6.12234,6.12234,0,0,0,5.58573.56189c1.52778-.72042,2.51143-2.21055,3.55013-3.54254,1.50421-1.929,3.40777-3.72725,5.79689-4.2522s5.28049.67878,5.89947,3.04529c.52585,2.0105-.39254,4.76147,1.40187,5.80967a3.20793,3.20793,0,0,0,1.84032.30869A9.19376,9.19376,0,0,0,51.7639,41.477a5.61865,5.61865,0,0,0,11.02393.92183c.84119,1.10283,2.60344.12482,3.43234-.98729a11.08507,11.08507,0,0,0,2.05862-9.44762c-.91683-3.21132-3.961-5.85177-7.3-5.78392a14.11769,14.11769,0,0,1-2.9573.0727,5.83224,5.83224,0,0,1-3.31246-2.48746c-1.78955-2.3846-3.00961-5.21053-5.1369-7.29943-3.25378-3.195-8.14058-4.15241-12.69567-3.93653-3.03282.14374-6.26357.85774-8.31547,3.09568-1.62155,1.76856-2.24992,4.20109-3.31772,6.34982s-2.999,4.24488-5.39552,4.12668a16.481,16.481,0,0,1-3.12786-.81963c-3.16964-.79881-6.57981.69407-8.85005,3.04581S4.27538,33.77154,3.165,36.84592q-.48928,1.35476-.9359,2.7244"/><path class="a426b9fe-3f7b-4fc5-8ff9-fc3ca0ff1526" d="M.8258,26.95231a14.41625,14.41625,0,0,1,8.46555-7.73187,9.88763,9.88763,0,0,1,9.683-8.87337c1.25047-.02637,3.89448,1.192,4.79182.53263.79793-.5863,1.24861-3.42928,1.99605-4.40694a10.29387,10.29387,0,0,1,4.289-3.26383,14.427,14.427,0,0,1,10.896.47537c3.03595,1.29022,5.91785,3.67484,6.482,6.925A20.09025,20.09025,0,0,1,53.376,7.63036a7.50992,7.50992,0,0,1,6.38885.96439c2.74984,2.155,3.97046,7.086,2.80454,10.29548a5.12508,5.12508,0,0,1,3.83629,1.97383,9.349,9.349,0,0,1,1.779,4.041,5.03365,5.03365,0,0,1-.0069,2.71187A3.56154,3.56154,0,0,1,65.497,29.79043c-1.19921.23791-2.941-.93484-3.8245-.6685-1.057.31861-1.02963,1.75077-1.541,2.47718a7.47758,7.47758,0,0,1-7.34486,2.82583c-2.7358-.44113-5.23814-3.03492-4.73884-5.76071a20.83968,20.83968,0,0,1,1.50525-3.55916c.465-1.20545.47278-2.79722-.57737-3.5499-1.43069-1.02543-3.324.294-4.62065,1.48438s-3.40291,2.31577-4.62745,1.0513c-1.15822-1.196-.18563-3.27093-.81051-4.8141a3.4709,3.4709,0,0,0-1.62269-1.65018,6.23286,6.23286,0,0,0-8.65009,3.92586c-.42652,1.91017.10667,3.90272-.03569,5.85475a7.47455,7.47455,0,0,1-3.28441,5.74839,5.96585,5.96585,0,0,1-6.47581-.03409c-1.23447-.87444-2.11958-2.29154-3.55634-2.76514-2.05827-.67847-4.27291,1.012-5.032,3.042S9.77119,37.674,9.90541,39.837a2.10977,2.10977,0,0,1-.35253,1.61068,1.803,1.803,0,0,1-1.24273.44815C1.53231,42.25189-1.2028,31.8585.8258,26.95231Z"/><path class="b36e083f-a5dd-4841-acda-d4442d899aa5" d="M5.64477,34.44988c-2.61526-.835-4.26295-3.57068-4.594-6.296A10.95835,10.95835,0,0,1,11.11863,16.37659,7.63662,7.63662,0,0,1,14.94594,9.087a7.63665,7.63665,0,0,1,8.20485.68353,21.0775,21.0775,0,0,1,5.68093-7.25836A11.15871,11.15871,0,0,1,37.54015.165a7.66293,7.66293,0,0,1,6.17643,6.13144,14.17584,14.17584,0,0,1,8.2817-2.27735,10.43537,10.43537,0,0,1,6.849,2.68485C62.28614,10.04184,62.14,15.51715,61.643,20.28369c-.072-1.56086,1.81972-2.70151,3.31436-2.246a4.06762,4.06762,0,0,1,2.57223,3.59166,10.4314,10.4314,0,0,1-.89664,4.55874,9.64,9.64,0,0,0-8.83136-3.05607,11.57008,11.57008,0,0,0-.06041-7.02875A6.06793,6.06793,0,0,0,55.98377,13.271a4.30584,4.30584,0,0,0-6.63935,2.52172c-2.1359-3.15422-5.0772-6.699-8.85668-6.22289-2.42533.30553-4.40993,2.273-6.84188,2.52041a5.16591,5.16591,0,0,1-5.16451-3.118,15.21672,15.21672,0,0,1-1.18622,6.84735,6.81732,6.81732,0,0,1-5.35641,4.01473c-2.30431.15727-4.76345-1.18435-6.82479-.14249-2.26526,1.14492-2.41286,4.26842-2.2451,6.801A4.68074,4.68074,0,0,0,7.1124,32.27142a7.79541,7.79541,0,0,1,.50622,1.90393c.03546,1.83886-2.11631,2.84372-3.91984,3.20425l-1.2487-2.45332"/><path class="a426b9fe-3f7b-4fc5-8ff9-fc3ca0ff1526" d="M24.46605,82.69142a14.24893,14.24893,0,0,1,2.53934-6.06281c1.02189-1.40023,2.48931-2.69012,4.22278-2.68871A3.58477,3.58477,0,0,1,34.606,77.95664c.56229-1.6852,3.23548-1.67039,4.36036-.29536s1.065,3.35807.73687,5.104l4.42085-.88915a1.51483,1.51483,0,0,1,1.07144.049c.31442.18737.39405.74376.057.88566,1.61693-.68071,1.97938-4.07876,4.37519-4.53054,2.40346-.45323,2.65163,2.55309,5.14715,1.51151a44.84441,44.84441,0,0,0,6.40075-3.29832,1.904,1.904,0,0,1-2.873,2.33422,3.62144,3.62144,0,0,1-1.9501,3.1522A11.98235,11.98235,0,0,1,52.6458,83.1397,63.9286,63.9286,0,0,0,40.95291,86.764c-.94228.39454-2.05488.80471-2.93362.28377-.53058-.31453-.8364-.90327-1.31619-1.2909-2.1361-1.72578-5.58954,1.49714-7.9195.04366-.972-.60635-1.51229-1.93938-2.64708-2.09661-1.6038-.22223-3.08556,2.13412-4.459,1.27669-.64785-.40444-.78686-1.34944-1.4331-1.75646a2.48247,2.48247,0,0,0-1.20739-.26359,24.94472,24.94472,0,0,1-8.73336-2.101C8.33506,79.9861,6.18308,78.13647,6.88374,76.1c.68858-2.00141,3.73026-2.11706,5.33153-.733.67246.58125,1.24369,1.3671,2.10529,1.58549a4.42584,4.42584,0,0,1,1.02958.24361c1.009.53814.89061,2.5651,2.03373,2.534.233-1.24794,1.9255-1.726,3.07854-1.19486a6.34874,6.34874,0,0,1,2.51111,2.78068"/></svg>