<svg xmlns="http://www.w3.org/2000/svg" xmlns:xlink="http://www.w3.org/1999/xlink" viewBox="0 0 55.2128 114.67452"><defs><style>.a3f9df92-f4e0-4459-8041-208d853da216,.b90b5f16-2987-4622-8204-14d37c711ed6{fill:none;}.a3f9df92-f4e0-4459-8041-208d853da216{stroke:#bcbec0;stroke-miterlimit:10;}.a4e6b637-63e9-4df0-abdb-6d38d1e9ad27{isolation:isolate;}.b0fc5339-98cd-4aeb-891f-3c9749aeaa6f{clip-path:url(#efe33b53-dcde-4f05-b985-95ff512e4a92);}.a015b2fe-4f84-4d6a-801f-91ec5fd172c5{fill:#c3d7dc;}.bda37a35-86ad-4e49-b7de-253e75a65b86{fill:#9acfda;}.b443d26d-0d3e-4bff-89aa-36091744d2cb{fill:#a7a9ac;opacity:0.33;mix-blend-mode:multiply;}.f04e9b71-d9ac-40fd-bcd3-87d3ad38ff6b{fill:#3c2415;}.a8b4879f-21b2-44d3-b24f-e175726f5fb2{fill:#f6d2ba;}.a59f4e0d-6a21-453e-b1a1-e046065097eb{fill:#566345;}.ba3897ce-83f1-4638-959f-3f380607cfec{fill:#1a242d;}.a78fd27f-df85-4015-abe2-33ac72c2e3cc{clip-path:url(#fa8f751e-8700-4498-8a93-2d9cba454f65);}.a328156c-a439-4ca8-ab2f-8df07d0b0beb{fill:#009ac4;}.afa937e7-ed6c-4aba-8985-c7c4f10c5488{fill:#0f2849;}.a56e197d-19ed-49dc-96e0-0631bdafdb45{fill:#63774e;}.f82def10-6e19-4c64-a184-c8b1fcde1bd5{fill:#fff;}.bdd273fe-c6af-4dd7-8c66-89f5af1b2ace{fill:#6f825a;}.b1240e90-19be-45eb-afac-2b69fba1b429{fill:#938c6c;}.b894e004-3b14-48cc-a4c8-a140cd0247f1{fill:#bcbec0;}.e02f8c1f-9b4a-4640-a656-49e65449dc43{fill:#d1d3d4;}.f30a4e99-cc5f-4a03-a52b-c22c53c25cb7{fill:#e6e7e8;}</style><clipPath id="efe33b53-dcde-4f05-b985-95ff512e4a92"><polyline class="a3f9df92-f4e0-4459-8041-208d853da216" points="-201.778 -311.035 -201.778 -536.379 31.981 -532.862 31.981 -39.372 -201.778 -42.889 -201.778 -311.035"/></clipPath><clipPath id="fa8f751e-8700-4498-8a93-2d9cba454f65"><rect class="b90b5f16-2987-4622-8204-14d37c711ed6" x="24.67443" y="0.81444" width="18.90756" height="99.82029" transform="translate(13.08271 -6.67581) rotate(13.79807)"/></clipPath></defs><title>Artboard 129</title><g class="a4e6b637-63e9-4df0-abdb-6d38d1e9ad27"><g id="ba99ea93-8b28-4a2e-8f07-2e78c49e188c" data-name="Layer 1"><g class="b0fc5339-98cd-4aeb-891f-3c9749aeaa6f"><polygon class="a015b2fe-4f84-4d6a-801f-91ec5fd172c5" points="10.28 77.42 -201.904 77.42 -201.778 -111.805 -192.865 -118.351 -172.034 -136.692 33.141 -136.692 33.592 59.643 10.28 77.42"/><path class="bda37a35-86ad-4e49-b7de-253e75a65b86" d="M11.28,77.263S34.5918,59.30538,34.5918,59.48586,18.1382,54.34222,11.28,50.91313C11.28,50.91313,13.927,68.11876,11.28,77.263Z"/><ellipse class="b443d26d-0d3e-4bff-89aa-36091744d2cb" cx="-5.53677" cy="-4.29442" rx="2.94625" ry="6.86413" transform="translate(1.03155 -6.73471) rotate(-58.17906)"/></g><polyline class="a3f9df92-f4e0-4459-8041-208d853da216" points="-201.778 -311.035 -201.778 -536.379 31.981 -532.862 31.981 -39.372 -201.778 -42.889 -201.778 -311.035"/><ellipse class="b443d26d-0d3e-4bff-89aa-36091744d2cb" cx="19.8039" cy="111.56411" rx="19.21349" ry="3.11041"/><path class="f04e9b71-d9ac-40fd-bcd3-87d3ad38ff6b" d="M7.0467,31.702a6.3807,6.3807,0,0,1-.25248-1.519c-.07084-1.65143.26636-3.677-1.31354-4.75764-1.37161-.93814-3.76915.00646-4.613,1.25713A5.1955,5.1955,0,0,0,.241,31.11731a5.64813,5.64813,0,0,0,1.09858,1.97392c.54072.61978,1.23192,1.21693,1.12414,2.14169-.08757.75142-.7426,1.33517-.86688,2.0814-.17073,1.0251.70133,2.01833.50758,3.03932-.12412.65406-.6728,1.198-.67333,1.86374a6.55462,6.55462,0,0,0,.76955,2.25415c-.109-.25727.83944-1.39357,1.06449-1.55126a7.8279,7.8279,0,0,1,1.4032-.53583c1.07426-.46235,2.36-1.10115,2.68648-2.33089.25083-.94485-.17208-1.97623.10254-2.91445.20475-.69948.77837-1.2687.87663-1.99087.12934-.95048-.61908-1.69436-.95639-2.51237A9.00891,9.00891,0,0,1,7.0467,31.702Z"/><path class="a8b4879f-21b2-44d3-b24f-e175726f5fb2" d="M32.78633,49.32363c.50369-1.12148,1.61124-1.7397,2.18941-2.80612.43961-.811,1.10689-1.51982,1.23724-.09743-.0015-.01628.7804-.547.87242-.64475.28356-.30127.45971-.69938.88291-.84386a1.32417,1.32417,0,0,1,1.32235.35772,1.7111,1.7111,0,0,1,.39027,1.95166c-1.275,2.4545-4.05638,3.6571-6.69208,4.73263A2.73112,2.73112,0,0,1,32.78633,49.32363Z"/><path class="a59f4e0d-6a21-453e-b1a1-e046065097eb" d="M27.10815,52.72911c.3193.09677.68239-.10807,1.36424-.63854A51.91774,51.91774,0,0,0,33.73517,47.415c.30565-.31278,3.04632,2.40736,2.9511,2.90863-.20421,1.07508-2.67347,2.82947-3.48064,3.538-1.83487,1.61073-5.81594,6.16241-8.4261,3.72987-1.70425-1.58827-2.933-3.877-4.79544-5.18615a2.4448,2.4448,0,0,1-.731-.64907,2.73918,2.73918,0,0,1-.30689-1.1042q-.30775-2.32627-.5988-4.65473c-.16309-1.307-.74378-2.46657-.9874-3.77293-.04378-.23476-.03187-.5537.198-.61838a.49981.49981,0,0,1,.32121.05718,5.24888,5.24888,0,0,1,2.10311,1.798c1.30493,1.6063,2.56462,3.25012,3.75436,4.94375.72763,1.03582,1.45655,2.07118,2.2175,3.08294C26.49465,52.2065,26.778,52.62905,27.10815,52.72911Z"/><path class="ba3897ce-83f1-4638-959f-3f380607cfec" d="M18.99314,107.43067a2.48973,2.48973,0,0,0-1.60237.35429,2.4711,2.4711,0,0,0-.77966,2.01286,1.56048,1.56048,0,0,0,.15821.86017,1.7281,1.7281,0,0,0,.59013.54471,7.03237,7.03237,0,0,0,3.59666,1.09468,3.81338,3.81338,0,0,0,2.36266-.61154,1.892,1.892,0,0,0,.7424-2.13541,3.16309,3.16309,0,0,0-2.1555-1.45786,3.41571,3.41571,0,0,1-1.241-.50274,1.30658,1.30658,0,0,0-.25128-.18859c-.17583-.08573-.4358.034-.62914.03737C19.5208,107.44327,19.25686,107.42664,18.99314,107.43067Z"/><path class="ba3897ce-83f1-4638-959f-3f380607cfec" d="M10.46059,107.43067a3.11411,3.11411,0,0,1,1.811.35429,2.32779,2.32779,0,0,1,.88116,2.01286,1.40668,1.40668,0,0,1-.17881.86017,1.88321,1.88321,0,0,1-.66695.54471,8.70515,8.70515,0,0,1-4.06493,1.09468,4.746,4.746,0,0,1-2.67026-.61154,1.78261,1.78261,0,0,1-.83906-2.13541c.37617-.81837,1.46336-1.18258,2.43614-1.45786a4.15688,4.15688,0,0,0,1.40251-.50274,1.47691,1.47691,0,0,1,.284-.18859c.19873-.08573.49254.034.71105.03737C9.86423,107.44327,10.16253,107.42664,10.46059,107.43067Z"/><path class="a59f4e0d-6a21-453e-b1a1-e046065097eb" d="M11.78073,65.79024c.18552.23826.00085,1.36894.00118,1.65883.0013,1.15884.01752,2.31856.07963,3.4758a9.26764,9.26764,0,0,0,.45153,3.24323c.40573.899,1.21942.93614,1.71855,1.62594.6019.83181.51634,2.89316.66133,3.92093a68.17728,68.17728,0,0,1,.62156,8.16481c.14929,6.56927.30371,13.1456.46992,19.68976.80614.782,1.4555.42308,2.42425.43755.30415.00454,3.65879.14543,3.60625-.30437A64.20126,64.20126,0,0,1,21.85336,98.36q.13494-4.9789.03607-9.96027-.10687-5.20664-.47432-10.402c-.24077-3.39857-.83179-6.842-.78849-10.24384q.00723-.56723.00016-1.13452a1.24256,1.24256,0,0,0-.18429-.77424.93287.93287,0,0,0-.757-.265,16.38543,16.38543,0,0,0-2.52394.44116A21.33192,21.33192,0,0,1,11.78073,65.79024Z"/><g class="a78fd27f-df85-4015-abe2-33ac72c2e3cc"><rect class="a328156c-a439-4ca8-ab2f-8df07d0b0beb" x="24.67443" y="0.81444" width="18.90756" height="99.82029" transform="translate(13.08271 -6.67581) rotate(13.79807)"/><rect class="afa937e7-ed6c-4aba-8985-c7c4f10c5488" x="32.0399" y="9.46368" width="11.81607" height="1.87195" rx="0.90335" transform="translate(3.57542 -8.7505) rotate(13.79807)"/><rect class="afa937e7-ed6c-4aba-8985-c7c4f10c5488" x="29.49932" y="19.80854" width="11.81607" height="1.87195" rx="0.90335" transform="translate(5.96936 -7.84604) rotate(13.79807)"/><rect class="afa937e7-ed6c-4aba-8985-c7c4f10c5488" x="26.92145" y="30.46172" width="14.40146" height="1.87195" rx="0.90335" transform="translate(8.47306 -7.2321) rotate(13.79807)"/><rect class="afa937e7-ed6c-4aba-8985-c7c4f10c5488" x="24.41818" y="40.49827" width="11.81607" height="1.87195" rx="0.90335" transform="translate(10.75725 -6.03713) rotate(13.79807)"/><rect class="afa937e7-ed6c-4aba-8985-c7c4f10c5488" x="21.8776" y="50.84314" width="11.81607" height="1.87195" rx="0.90335" transform="translate(13.15119 -5.13267) rotate(13.79807)"/><rect class="afa937e7-ed6c-4aba-8985-c7c4f10c5488" x="19.29493" y="61.53595" width="14.7338" height="1.87195" rx="0.90335" transform="translate(15.669 -4.55607) rotate(13.79807)"/><rect class="afa937e7-ed6c-4aba-8985-c7c4f10c5488" x="16.79645" y="71.53287" width="11.81607" height="1.87195" rx="0.90335" transform="translate(17.93908 -3.32375) rotate(13.79807)"/><rect class="a015b2fe-4f84-4d6a-801f-91ec5fd172c5" x="37.90423" y="2.55588" width="6.68342" height="99.82829" transform="translate(13.83727 -8.38304) rotate(13.92323)"/></g><path class="a56e197d-19ed-49dc-96e0-0631bdafdb45" d="M10.038,63.83634c-3.01637-2.6948-4.70331,4.59233-4.8071,6.54408-.11976,2.25226.72249,4.30725.93788,6.49476a74.73767,74.73767,0,0,1,.73607,8.62736c-.06764,3.68713.01669,7.37783.158,11.06185.07692,2.00532.17326,4.00977.27684,6.01377q.0756,1.46287.15532,2.9255c.027.49953-.16438,2.26287.21458,2.60164a.66393.66393,0,0,0,.36163.12733,19.57713,19.57713,0,0,0,4.46452.09512,1.022,1.022,0,0,0,.63874-.20393,1.11845,1.11845,0,0,0,.24166-.77267c.45257-8.34822.80247-16.59124.94048-24.9406.02013-1.2183.08845-2.43376.12864-3.65117.03053-.92471-.11032-1.79953.585-2.484a16.15306,16.15306,0,0,0,2.14859-2.35823,13.9476,13.9476,0,0,0,1.51836-2.88794c.37708-.97912.46491-2.03875.91489-2.97984a4.76167,4.76167,0,0,0,.7355-1.9785"/><path class="a8b4879f-21b2-44d3-b24f-e175726f5fb2" d="M18.50012,30.56783c-.84881-2.06285-2.04289-3.747-4.67-3.91435a6.34382,6.34382,0,0,0-3.82083,1.13886,5.00063,5.00063,0,0,0-1.59318,1.55885,5.0008,5.0008,0,0,0-.577,2.80674c.08827,1.84051.69121,4.38334,2.14737,5.64289.353.30537.75222.14705,1.13194.28829a2.20867,2.20867,0,0,1,.99352,1.27361,7.29231,7.29231,0,0,1,.35516,1.83479c.03749.35425.07373.70866.11246,1.06278.035.32.19829.67653.21514.97812.02975.53275-.22231.9166.01173,1.48491a5.98072,5.98072,0,0,0,2.39667,2.317,3.45389,3.45389,0,0,0,1.55066.59134.43346.43346,0,0,0,.27773-.04795.47035.47035,0,0,0,.15463-.26192,10.52246,10.52246,0,0,0,.49016-3.13011,3.72836,3.72836,0,0,0-.392-1.9028,9.12619,9.12619,0,0,1-.82556-1.19762c-.27395-.70381-.44058-2.09629.43424-2.44477l1.72954-.689c2.27253-.90525.974-4.314.4152-5.93936C18.86777,31.52408,18.69285,31.03619,18.50012,30.56783Z"/><path class="f82def10-6e19-4c64-a184-c8b1fcde1bd5" d="M17.08251,42.33849c-.25988.01977-.298.38051-.35948.56433-.10782.32245-.28493.63649-.424.947-.14047.31376-.32676.66613-.66328.73632a1.04189,1.04189,0,0,1-.74116-.22671,13.28531,13.28531,0,0,1-1.60437-1.32167c-.07866-.06948-1.09927-1.0442-1.15379-.93242a6.3453,6.3453,0,0,0-.14419,2.55626q-.03609,1.33828-.05074,2.677c-.02,1.76669-.01444,3.53359.0072,5.30024.02166,1.76755.05951,3.53487.1029,5.302.01151.46885-.027,5.237.13635,5.26779a20.94443,20.94443,0,0,0,7.14154.10366q.05016-2.3322.01154-4.66518-.10152-6.13794-.8154-12.24534a14.58259,14.58259,0,0,0-.53474-2.79861,2.65738,2.65738,0,0,0-.62546-1.161A.44983.44983,0,0,0,17.08251,42.33849Z"/><path class="a56e197d-19ed-49dc-96e0-0631bdafdb45" d="M6.69376,42.8353a19.39027,19.39027,0,0,1,4.406-1.68946,1.67769,1.67769,0,0,1,1.50555.13124,1.72741,1.72741,0,0,1,.43335.79937,5.63018,5.63018,0,0,0,1.55476,3.29367A12.88293,12.88293,0,0,1,16.023,48.087a31.43787,31.43787,0,0,0,.50821-3.57228,10.49008,10.49008,0,0,0,.12757-2.98359c-.02-.10542.97635.30164,1.07243.39016A3.61122,3.61122,0,0,1,18.442,43.052a6.93064,6.93064,0,0,1,.43533,1.65365c.34868,2.21128,2.4351,3.64808,2.12378,6.04928-.127.97969-.60836,1.83292-.726,2.80518-.14068,1.16261-.56176,2.26368-.63152,3.44583a23.85377,23.85377,0,0,0,.50384,3.815q.23088,2.43069.30719,4.87282a1.39885,1.39885,0,0,1-.34176,1.18349,1.45714,1.45714,0,0,1-1.17.10357c-2.16033-.39955-4.22144-.0615-6.36435-.227a35.504,35.504,0,0,1-5.13826-.8105C8.43591,61.24386,7.348,56.6652,7.172,51.981l-.33877-9.01815"/><path class="f04e9b71-d9ac-40fd-bcd3-87d3ad38ff6b" d="M12.03134,38.31421a4.12309,4.12309,0,0,0,1.1186-1.887,2.165,2.165,0,0,0-.73174-2.16974,2.207,2.207,0,0,1-1.11531-1.19923.80983.80983,0,0,1,.35621-.98749c.53988-.22957.94018.27189,1.3646.48861.97968.50027,1.23878-.62228,1.69152-1.16118a2.56961,2.56961,0,0,1,.569-.46094c.49587-.3287,1.02145-.6153,1.53424-.91631a4.19069,4.19069,0,0,1,.74585-.45525.58023.58023,0,0,1,.3928.04055c.06561.02923.31844.29613.35126.29157.30519-.04236.131-1.327.09606-1.55454a4.89381,4.89381,0,0,0-.4939-1.52759,3.67879,3.67879,0,0,0-2.43563-1.92957c-.7949-.17687-2.61217.43969-3.41133.22984-1.59709-.41937-3.9434.64415-5.05569,1.79707-1.73969,1.80324-1.99208,4.43886-1.53279,6.79527a8.08754,8.08754,0,0,0,1.13272,3.02935A5.17416,5.17416,0,0,0,9.3636,38.41551c.35324.08066.71941.10722,1.06326.22145a2.47628,2.47628,0,0,0,.66222.19067,1.06261,1.06261,0,0,0,.75364-.32508Q11.93706,38.41213,12.03134,38.31421Z"/><path class="bdd273fe-c6af-4dd7-8c66-89f5af1b2ace" d="M16.07576,49.68164q-.01137-.09616-.0232-.19153a8.43462,8.43462,0,0,1,.22208-3.053.80324.80324,0,0,1,.227-.4854c-.03375,1.791.41357,3.48892.52172,5.25345.31269,5.10211-.23865,10.186.31889,15.27419a.19536.19536,0,0,1-.0171.13161.18782.18782,0,0,1-.13116.06349,1.509,1.509,0,0,1-.66114-.03784.25476.25476,0,0,1-.145-.0837.27.27,0,0,1-.03613-.14033c-.0676-1.0389.07822-2.13355.08719-3.18013.014-1.63755.028-3.27524.00852-4.91283-.01971-1.653-.07369-3.30536-.14477-4.95689a20.285,20.285,0,0,0-.78789-5.67661,3.51731,3.51731,0,0,1-.17694-.969,2.64428,2.64428,0,0,1,.857,1.35537,6.5545,6.5545,0,0,1,.25958-1.89772"/><path class="bdd273fe-c6af-4dd7-8c66-89f5af1b2ace" d="M16.11252,66.9504A49.80226,49.80226,0,0,1,15.6169,73.174a18.59582,18.59582,0,0,0,1.45827-6.35.92966.92966,0,0,0-.016-.40545.5704.5704,0,0,0-.82129-.23448.86839.86839,0,0,0-.33558.86483"/><path class="b1240e90-19be-45eb-afac-2b69fba1b429" d="M7.81555,61.90358a7.38971,7.38971,0,0,1-.13324.96438c-.038.12586-.278.518-.11293.61045a6.08517,6.08517,0,0,0,.59433.30906,8.59585,8.59585,0,0,0,2.01943.47062c.81685.131,1.64245.22159,2.472.27152a25.42949,25.42949,0,0,0,4.86743-.17406,11.76551,11.76551,0,0,0,1.65978-.27584,2.675,2.675,0,0,0,1.37107-.8311.97266.97266,0,0,0,.02372-.67243c-.10061-.48764-.18422-.98887-.26987-1.46922-.106.01756-1.31482.2712-1.31256.29513-.407.12044-.76692.35816-1.18055.46129a11.95477,11.95477,0,0,1-1.855.29307,18.899,18.899,0,0,1-7.32449-.9398c-.18025-.05465-.40689-.26768-.59751-.17252C7.84554,61.13979,7.83951,61.73683,7.81555,61.90358Z"/><path class="a59f4e0d-6a21-453e-b1a1-e046065097eb" d="M16.47043,53.80085a15.42191,15.42191,0,0,1-2.5205.01784,8.14222,8.14222,0,0,1-1.84567-.11622,13.26172,13.26172,0,0,1,1.43385.66075,15.94889,15.94889,0,0,0,1.78482.67324,14.10541,14.10541,0,0,0,3.57082.37989,1.40667,1.40667,0,0,0,.50765-.05491c.43628-.1601.59933-.68184.69339-1.13695.07961-.38521.11007-.789.21172-1.16791.10155-.37853.24478-.75333.36373-1.12758a.79967.79967,0,0,0,.04749-.21836,5.21759,5.21759,0,0,1-2.11808,1.582,18.12578,18.12578,0,0,1-2.08207.50194Z"/><path class="a8b4879f-21b2-44d3-b24f-e175726f5fb2" d="M19.49517,55.77134c.90743-.87312,2.179-1.10544,3.13409-1.90593.72627-.60881,1.62411-1.05594,1.18817.28222.005-.01532.93961-.26543,1.06343-.32711a2.71267,2.71267,0,0,1,1.15117-.50579,1.20192,1.20192,0,0,1,1.089.72344,1.64839,1.64839,0,0,1-.40166,1.89952c-2.14644,1.85914-5.20271,2.123-8.07381,2.31449A2.71475,2.71475,0,0,1,19.49517,55.77134Z"/><path class="bdd273fe-c6af-4dd7-8c66-89f5af1b2ace" d="M10.29352,48.336a17.72849,17.72849,0,0,0-.75778-4.31967c-.4536-1.18363-1.54853-2.32263-2.77519-1.3486a4.3132,4.3132,0,0,0-1.18173,3.23507,18.27189,18.27189,0,0,0,.02552,4.26541,33.16765,33.16765,0,0,0,.96462,4.271c.51262,1.61848,1.08483,3.218,1.729,4.78453,1.20307,2.92576,6.29788,1.16049,8.62217.53573,1.682-.45211,3.25224-1.33229,4.962-1.6429a9.57088,9.57088,0,0,0-.41607-2.67831.73069.73069,0,0,0-.372-.53409.8946.8946,0,0,0-.44119-.00414c-.81275.128-8.95526,2.00009-9.14487,1.33316A47.046,47.046,0,0,1,10.29352,48.336Z"/><path class="a8b4879f-21b2-44d3-b24f-e175726f5fb2" d="M44.68813,41.54775a.34737.34737,0,0,1,.17435-.42894,1.0105,1.0105,0,0,1,.49889-.08432,1.126,1.126,0,0,1,.65435.13593,1.108,1.108,0,0,1,.25543.28751,1.01681,1.01681,0,0,1,.2089.43654.35261.35261,0,0,1-.21906.39058.54882.54882,0,0,1-.39943-.1175,4.989,4.989,0,0,0-1.06064-.47148"/><path class="a8b4879f-21b2-44d3-b24f-e175726f5fb2" d="M46.06361,44.10359a2.25662,2.25662,0,0,0-.77889-.565.7709.7709,0,0,0-.87844.21028.757.757,0,0,0,.00874.78955,2.03289,2.03289,0,0,0,.5813.5884,1.14758,1.14758,0,0,0,.99018.32124,1.17713,1.17713,0,0,0,.53192-.48933,1.67413,1.67413,0,0,0,.31273-.599.57075.57075,0,0,0-.20955-.60329c-.29822-.18442-.6711.05535-.9373.28357"/><path class="a8b4879f-21b2-44d3-b24f-e175726f5fb2" d="M44.809,43.16307a2.033,2.033,0,0,0,.58129.58838,1.14758,1.14758,0,0,0,.99018.32124,1.17713,1.17713,0,0,0,.53191-.48932c.54526-.76836.27237-1.434-.53989-1.86321-.38025-.20093-.22878.154-.3614.30312-.17788.2-.20276.1086-.47347.10646C44.93647,42.125,44.44618,42.52,44.809,43.16307Z"/><rect class="b894e004-3b14-48cc-a4c8-a140cd0247f1" x="19.3182" y="49.41115" width="0.25046" height="0.10747"/><path class="e02f8c1f-9b4a-4640-a656-49e65449dc43" d="M19.2896,49.327h.30766a0,0,0,0,1,0,0v.05594a.05153.05153,0,0,1-.05153.05153h-.20459a.05153.05153,0,0,1-.05153-.05153V49.327A0,0,0,0,1,19.2896,49.327Z"/><path class="f30a4e99-cc5f-4a03-a52b-c22c53c25cb7" d="M19.3961,51.01873l-.12586-.09594c.02989-.06787.10937-.09352.15526-.13466.02052-.0184.0399-.03578.05676-.05419l.09312.08517a.90167.90167,0,0,1-.06564.063A.51145.51145,0,0,0,19.3961,51.01873Z"/><path class="f30a4e99-cc5f-4a03-a52b-c22c53c25cb7" d="M19.34267,50.042a.06282.06282,0,0,1-.03655-.01171c-.02841-.02023-.0604-.068-.04018-.09644a.63006.63006,0,0,1,.25259-.164.0631.0631,0,1,1,.05244.11479.42168.42168,0,0,0-.17684.13091A.06306.06306,0,0,1,19.34267,50.042Z"/><path class="b894e004-3b14-48cc-a4c8-a140cd0247f1" d="M19.25016,49.22937h.38654a0,0,0,0,1,0,0v.02626a.08122.08122,0,0,1-.08122.08122h-.22411a.08122.08122,0,0,1-.08122-.08122v-.02626A0,0,0,0,1,19.25016,49.22937Z"/><path class="e02f8c1f-9b4a-4640-a656-49e65449dc43" d="M19.50534,51.50335a.53383.53383,0,0,1-.1328.15.00483.00483,0,0,1-.00832-.00332l-.02729-2.13137h.213l-.03244,1.92818A.14872.14872,0,0,1,19.50534,51.50335Z"/><path class="f30a4e99-cc5f-4a03-a52b-c22c53c25cb7" d="M19.50062,51.41908a.1939.1939,0,0,0-.03089-.04141c-.01424-.01777-.04025-.04077-.05788-.06045-.07987-.08918-.20336-.21766-.15051-.37173l.0089-.0227.08524.04418s-.00573.108.15039.266a.793.793,0,0,1,.053.06132.1871.1871,0,0,1,.04034.07263c.018.07333-.04776.12672-.11108.17045A.8842.8842,0,0,0,19.50062,51.41908Z"/><path class="f30a4e99-cc5f-4a03-a52b-c22c53c25cb7" d="M19.3473,50.11264a.30553.30553,0,0,0,.09286.14868l.0363.03476a.39523.39523,0,0,1,.17522.39088.31635.31635,0,0,1-.0763.13215l-.04674-.04118.00161-.11474L19.53,50.65338c.01136-.10468-.03793-.16885-.14027-.26558l-.03809-.03647a.32442.32442,0,0,1-.10209-.39248l.01637-.025.07717.05486"/><path class="f30a4e99-cc5f-4a03-a52b-c22c53c25cb7" d="M19.34311,49.98875a1.17816,1.17816,0,0,0,.00419.12389"/><path class="f30a4e99-cc5f-4a03-a52b-c22c53c25cb7" d="M19.08844,49.51863h.57048a.94969.94969,0,0,1,.09951.00313.21457.21457,0,0,1,.03209.00529.14631.14631,0,0,1,.09487.0801.14408.14408,0,0,1-.0215.12676.21207.21207,0,0,1-.06434.05387.40176.40176,0,0,1-.08516.04026c-.04792.01751-.0975.03563-.14342.05661l-.02623-.0574.00116-.06948c.02774-.01183.05588-.02268.08413-.03319a.23758.23758,0,0,0,.07983-.03944.02007.02007,0,0,0,.00778-.01424.01531.01531,0,0,0-.007-.01164l-.013-.00521a.272.272,0,0,0-.06888-.003H19.0966l-.00372.00066c-.006-.00433-.00394-.02415-.00444-.03062-.00124-.0162,0-.033,0-.04924C19.08844,49.5541,19.08839,49.53636,19.08844,49.51863Z"/><ellipse class="f30a4e99-cc5f-4a03-a52b-c22c53c25cb7" cx="18.97702" cy="49.58695" rx="0.17519" ry="0.10149"/><path class="e02f8c1f-9b4a-4640-a656-49e65449dc43" d="M18.973,48.92483a.49315.49315,0,0,0,.941,0s-.35582.01657-.47048.01657C19.32285,48.9414,18.973,48.92483,18.973,48.92483Z"/><path class="afa937e7-ed6c-4aba-8985-c7c4f10c5488" d="M6.63238,15.59647l2.53809-2.53809L6.63238,10.5203,8.19586,8.9578l2.53808,2.53711L13.27105,8.9578l1.56348,1.5625-2.53809,2.53808,2.53809,2.53809L13.27105,17.159l-2.53711-2.53711L8.19586,17.159Z"/><path class="afa937e7-ed6c-4aba-8985-c7c4f10c5488" d="M16.16558,17.34256l1.15821-1.5996a3.75821,3.75821,0,0,0,2.63086,1.21386,2.40018,2.40018,0,0,0,1.44336-.39551,1.29744,1.29744,0,0,0,.542-1.1123,1.45788,1.45788,0,0,0-.708-1.32422,5.142,5.142,0,0,0-2.52832-.44141V11.88163a4.15054,4.15054,0,0,0,2.19727-.43262,1.38437,1.38437,0,0,0,.65332-1.22266,1.29247,1.29247,0,0,0-.4043-1.0205,1.636,1.636,0,0,0-1.123-.3584,2.57982,2.57982,0,0,0-1.14844.25683,4.63864,4.63864,0,0,0-1.09472.791L16.51519,8.35038a5.48926,5.48926,0,0,1,3.623-1.48926A4.524,4.524,0,0,1,23.0064,7.698a2.81022,2.81022,0,0,1,1.06739,2.34473A2.72937,2.72937,0,0,1,22.105,12.65409v.07324A3.56182,3.56182,0,0,1,23.816,13.76639a2.65872,2.65872,0,0,1,.64356,1.83008,2.98462,2.98462,0,0,1-.57031,1.82031,3.57638,3.57638,0,0,1-1.544,1.17676,5.56694,5.56694,0,0,1-2.15234.4043A5.1121,5.1121,0,0,1,16.16558,17.34256Z"/></g></g></svg>