<svg id="a1aa67fe-4bb9-4502-927a-53ac8ee224f7" data-name="Layer 1" xmlns="http://www.w3.org/2000/svg" xmlns:xlink="http://www.w3.org/1999/xlink" viewBox="0 0 200.07392 85.52098"><defs><style>.ea717c86-5c66-4d94-b492-d027776ee64c{fill:none;}.f2e149c4-adc9-4e7b-9e49-76e0c80357f4{fill:#6d6e71;}.b362ffab-2c5e-4860-83f3-2a8b7f7971a3{fill:#a7a9ac;}.b5bcc0c0-fa1f-4c22-a395-cd0a210b6dfb{fill:#939598;}.a3a94bb0-cde3-4626-98b2-5206a36ada06{fill:#bcbec0;}.a6bd7ee0-3969-4220-bc73-ab775019d1cb{clip-path:url(#a6f70973-04e5-4b33-9754-4b66a7551483);}.a9421d42-2311-4bd3-a5d7-cbae3d9fbc73{fill:#3c2415;}.baf9f647-815f-4483-8dd7-f30910626adb{fill:#dbae95;}.bd578fb0-f183-4df8-a28c-a7ed285619cf{fill:#fff;}.aec80296-a5b7-48da-9d95-7fcfa2cf6f55{fill:#63774e;}.f0e77bc2-c150-4e7b-be09-dc5c8ece05b0{fill:#6f825a;}.a81d036f-7d98-4749-93b9-00bdfe705138{fill:#566345;}.b7def753-9000-4392-a773-8c2baa3162eb{fill:#938c6c;}.b83ffbb0-fe17-41cd-b0ce-848f60d764dd{fill:url(#b8b76fd0-1284-4e09-b858-9567e808392f);}.e8d5d97d-ba9b-4383-9a0d-10a463187114{fill:url(#a795a9dc-60b0-4464-ad78-c41496908b39);}.a2fc4944-8f51-4d60-8532-32168e47943c{fill:url(#bb4aabcc-ff7c-4f63-8427-4e8355d566ad);}.ee02652d-4949-43ad-8533-0f5bfa4e1ab3{fill:url(#a39b61d4-35e1-4fd9-a8a1-792a1e246c2d);}.bb5f62d3-017c-4ba2-af3a-c83ea65d4561{fill:url(#aac931ce-2311-48ae-a748-d83f886adef6);}.edcdd835-88c8-42b3-a25a-9081d8dd0b3f{fill:url(#b45520d8-de8b-48bc-9529-098006a19135);}.e6d08b29-3203-49e0-b760-2adc5f82ed05{fill:url(#b3288403-9c28-4ba5-9149-380d1d43f064);}.a220458d-d17d-4fe1-997b-05299980ef8e{fill:url(#b20b6321-82b5-41e2-8f15-dd10a2f57291);}.b0978f15-e1c0-406f-a578-5fa0bc6e8d15{fill:url(#fefbc807-0e80-4bc0-ad50-b30cf02e47aa);}.a1e8ed90-8876-41aa-a104-ea61b6c91676{fill:url(#a9fcdb90-a863-4a00-9a5c-ba2e149baec0);}</style><clipPath id="a6f70973-04e5-4b33-9754-4b66a7551483"><rect class="ea717c86-5c66-4d94-b492-d027776ee64c" x="-23.23537" y="2.32364" width="107.15955" height="81.56813"/></clipPath><radialGradient id="b8b76fd0-1284-4e09-b858-9567e808392f" cx="29.21139" cy="41.68176" r="4.54004" gradientUnits="userSpaceOnUse"><stop offset="0" stop-color="#ec2429"/><stop offset="0.08988" stop-color="#ec2429" stop-opacity="0.96071"/><stop offset="0.23853" stop-color="#ec2429" stop-opacity="0.85421"/><stop offset="0.42755" stop-color="#ec2429" stop-opacity="0.68066"/><stop offset="0.64961" stop-color="#ec2429" stop-opacity="0.43985"/><stop offset="0.89663" stop-color="#ec2429" stop-opacity="0.13635"/><stop offset="1" stop-color="#ec2429" stop-opacity="0"/></radialGradient><radialGradient id="a795a9dc-60b0-4464-ad78-c41496908b39" cx="37.3758" cy="36.19358" r="2.01899" xlink:href="#b8b76fd0-1284-4e09-b858-9567e808392f"/><radialGradient id="bb4aabcc-ff7c-4f63-8427-4e8355d566ad" cx="56.655" cy="69.62564" r="3.98144" gradientTransform="translate(-9.81608 67.80436) rotate(-30) scale(1 0.5)" xlink:href="#b8b76fd0-1284-4e09-b858-9567e808392f"/><radialGradient id="a39b61d4-35e1-4fd9-a8a1-792a1e246c2d" cx="51.86386" cy="67.03671" r="1.74697" xlink:href="#b8b76fd0-1284-4e09-b858-9567e808392f"/><radialGradient id="aac931ce-2311-48ae-a748-d83f886adef6" cx="29.73782" cy="41.00642" r="1.25208" gradientTransform="translate(19.74791 81.11238) rotate(-120) scale(1 0.7)" gradientUnits="userSpaceOnUse"><stop offset="0" stop-color="#f6d2ba"/><stop offset="0.08715" stop-color="#f6d2ba" stop-opacity="0.9623"/><stop offset="0.23131" stop-color="#f6d2ba" stop-opacity="0.8601"/><stop offset="0.41466" stop-color="#f6d2ba" stop-opacity="0.69353"/><stop offset="0.63007" stop-color="#f6d2ba" stop-opacity="0.46237"/><stop offset="0.8695" stop-color="#f6d2ba" stop-opacity="0.17127"/><stop offset="1" stop-color="#f6d2ba" stop-opacity="0"/></radialGradient><radialGradient id="b45520d8-de8b-48bc-9529-098006a19135" cx="28.14674" cy="44.59456" r="0.76537" gradientTransform="matrix(1, 0, 0, 1, 0, 0)" xlink:href="#aac931ce-2311-48ae-a748-d83f886adef6"/><radialGradient id="b3288403-9c28-4ba5-9149-380d1d43f064" cx="38.07063" cy="35.69407" r="0.53535" gradientTransform="matrix(1, 0, 0, 1, 0, 0)" xlink:href="#aac931ce-2311-48ae-a748-d83f886adef6"/><radialGradient id="b20b6321-82b5-41e2-8f15-dd10a2f57291" cx="57.39651" cy="69.00972" r="1.39723" gradientTransform="matrix(1, 0, 0, 1, 0, 0)" xlink:href="#aac931ce-2311-48ae-a748-d83f886adef6"/><radialGradient id="fefbc807-0e80-4bc0-ad50-b30cf02e47aa" cx="51.61269" cy="67.01856" r="0.37922" gradientTransform="matrix(1, 0, 0, 1, 0, 0)" xlink:href="#aac931ce-2311-48ae-a748-d83f886adef6"/><radialGradient id="a9fcdb90-a863-4a00-9a5c-ba2e149baec0" cx="-244.33935" cy="-3144.96019" r="2.01035" gradientTransform="matrix(0, 1, -1.35541, 0, -4239.49119, 292.97345)" xlink:href="#aac931ce-2311-48ae-a748-d83f886adef6"/></defs><title>Artboard 190</title><path class="f2e149c4-adc9-4e7b-9e49-76e0c80357f4" d="M131.89,71.478a24.87931,24.87931,0,0,0,7.20992.57857c-.10193.04063.01045.20877.12868.20855a.30973.30973,0,0,0,.24609-.17657c1.38648-2.13539.56638-4.72884.668-7.22752a10.83962,10.83962,0,0,0,7.94806.97728,6.93262,6.93262,0,0,0,4.87942-4.77768c4.37508.64448,8.63841-1.33643,10.11794-4.70121a5.58943,5.58943,0,0,1,.77106-1.49385,8.6589,8.6589,0,0,1,1.38051-1.05892,4.77967,4.77967,0,0,0,.59633-6.69448,7.67684,7.67684,0,0,0-7.595-2.74246,8.48061,8.48061,0,0,0,2.5672-1.38934,2.43646,2.43646,0,0,0,.82035-2.51518,4.36243,4.36243,0,0,0-2.51-2.3312,8.0953,8.0953,0,0,0-5.44231-.43836c1.55214-.94879,3.261-2.24824,2.82987-4.03712-.40229-1.6694-2.48689-2.78211-4.36992-3.3147-5.07382-1.43507-10.5405-.5357-13.99952,2.30317-1.4009-2.07971-4.63712-2.4722-7.10184-2.08744a15.70591,15.70591,0,0,0-9.864,5.52067,13.45853,13.45853,0,0,0-2.443,4.79768c-.5403,1.89758-1.895,2.66743-3.99624,3.405-1.26418.44377-1.08813.10905-2.51091-.58166a10.52047,10.52047,0,0,0-3.12912-.91319,8.84118,8.84118,0,0,0-5.86125.97895,6.16006,6.16006,0,0,0-2.85159,5.30751,5.56527,5.56527,0,0,0-4.345-.79615,7.37431,7.37431,0,0,0-6.21963,8.6805c-.44537-.50477-1.2252-.01341-1.50906.48413a15.72233,15.72233,0,0,0-1.99415,6.4032,7.983,7.983,0,0,0,.73859,4.56753,5.65649,5.65649,0,0,0,4.163,2.94606c-1.79738.69825-1.47,3.09037-.57744,4.85222a8.14986,8.14986,0,0,0,2.8422,3.37335c1.32292.8199,3.17838,1.0348,4.1922.19257-.42505-.2482-.48338.48859-.15036.8311,2.01188,2.06912,5.94881,2.27115,7.53469.38664a11.16445,11.16445,0,0,0,8.02481,4.254,47.29,47.29,0,0,0,5.33969-.09225,4.56726,4.56726,0,0,0,3.89529-2.30539,4.70486,4.70486,0,0,0,4.18.09912,1.83586,1.83586,0,0,0,.94664-.5879,1.58225,1.58225,0,0,0,.17233-.943c-.06981-1.94813-1.92262-3.34692.05079-4.7282C129.76273,75.22266,131.59434,74.17568,131.89,71.478Z"/><path class="b362ffab-2c5e-4860-83f3-2a8b7f7971a3" d="M121.21226,81.1888c2.16415-6.69209,5.5026-13.402,11.0231-16.52926a7.28894,7.28894,0,0,1,4.80561-1.10805c1.1635.21073,1.65238,1.02462,2.6031,1.48351,1.53376.74033,1.08888.38127,2.34826-.99374a9.02036,9.02036,0,0,1,6.61025-2.96516,4.96781,4.96781,0,0,1,4.08191,1.82838c.74127,1.15175.32484,2.90509,1.60067,3.80644.82265.58119,3.75315-.802,4.81446-.88076a5.60579,5.60579,0,0,1,3.5141.67164,3.59089,3.59089,0,0,1,1.60157,3.46082,41.37591,41.37591,0,0,1,11.53323-8.29869c1.476-.70718,3.10251-1.32312,4.64388-.841a3.44975,3.44975,0,0,1,2.161,4.21034c2.36432-2.37217,4.80515-4.7967,7.75381-5.98575s6.56434-.87036,8.73829,1.73728a4.02325,4.02325,0,0,1,1.02733,2.40848,4.68355,4.68355,0,0,1-.58738,2.16256,11.4421,11.4421,0,0,1-4.17767,4.69393c1.71732.27814,3.747,1.20841,3.95326,3.21394.21761,2.11529-1.74936,3.5678-3.46041,4.31973-1.34344.59039-2.84018,1.09863-4.189.52526-.6452,2.50383-3.20263,4.08633-5.34465,3.30719l.84845.00826a16.13568,16.13568,0,0,1-17.62013.74142,18.51791,18.51791,0,0,1-17.02444-.743,1.61469,1.61469,0,0,0-1.0875-.3269c-.472.10249-.7727.62251-1.08176,1.05053-1.8456,2.55606-5.14533,2.616-8.00956,2.46655-2.76713-.14438-5.66779-.33418-8.03287-2.01384a6.666,6.666,0,0,1-5.25971,2.90279,18.01249,18.01249,0,0,1-5.93034-.96,3.396,3.396,0,0,1-2.1245-1.2424c-.48472-.75541-.2583-2.13236.54439-2.25516"/><path class="b5bcc0c0-fa1f-4c22-a395-cd0a210b6dfb" d="M80.79681,81.23211a5.4562,5.4562,0,0,1-7.29915.86231,8.87059,8.87059,0,0,1-3.62338-8.07052c-1.39315,1.06-3.441.143-5.07187-.926a18.94352,18.94352,0,0,1-6.97088-7.367c-1.53566-3.19887-1.62066-7.36073.444-9.55609a15.239,15.239,0,0,1-8.53237-5.55165c-2.01129-2.8114-2.90479-7.01984-.94762-10.07472-5.00415-.9748-9.7269-.07066-14.05151-3.62406-3.54051-2.90913-5.32392-8.13627-3.44775-12.317a18.616,18.616,0,0,1-5.4002-.08594,6.285,6.285,0,0,1-4.3341-2.96021c-1.24932-2.37434-.22729-5.34278,1.35648-7.50842a26.70655,26.70655,0,0,1,4.91536-4.87224A9.9914,9.9914,0,0,1,32.178,7.02622a20.81982,20.81982,0,0,1,3.10625-.91229,2.088,2.088,0,0,1,2.01924,1.73331c1.08888-3.89323,4.74943-5.7047,8.26221-6.52833a11.47066,11.47066,0,0,1,5.675-.16731A7.31208,7.31208,0,0,1,55.98842,5.188c.35029-3.8972,4.3064-5.473,7.76907-5.14619a7.37482,7.37482,0,0,1,4.2332,1.58829,4.8044,4.8044,0,0,1,1.67819,4.50672,12.56544,12.56544,0,0,1,5.52943-3.33635,6.75246,6.75246,0,0,1,6.36263,1.874,6.60854,6.60854,0,0,1,1.33532,6.88483c2.23037.00956,4.5379-.57616,6.33521,1.26007,1.86556,1.906,1.49871,5.02958.68411,7.56915a16.75469,16.75469,0,0,1-3.35029,6.27006c3.07827-.99055,6.44346,1.79939,6.89212,5.00184s-1.3418,6.36431-3.73678,8.5371a18.65783,18.65783,0,0,1,9.17452,4.88563,12.43021,12.43021,0,0,1,3.4755,5.55916,7.52707,7.52707,0,0,1-1.0049,6.337,5.10839,5.10839,0,0,1,1.66,9.87054.47535.47535,0,0,0,.81326.01292,8.42308,8.42308,0,0,1,5.38526,5.12174,6.50608,6.50608,0,0,1-1.54769,7.32445,6.08763,6.08763,0,0,1,4.48633,4.79682,16.28507,16.28507,0,0,1-5.26628.307,10.64122,10.64122,0,0,1-4.08724-1.85416.94733.94733,0,0,0-.36446-.1981c-.35965-.07094-.64144.28415-.873.56835A8.03375,8.03375,0,0,1,98.4123,84.9552c-2.34907,1.02723-3.92984.5827-6.33078.32292-.37655-.04074-6.5284-1.00321-5.65937-2.21915a3.58033,3.58033,0,0,1-6.40947-1.31206"/><path class="a3a94bb0-cde3-4626-98b2-5206a36ada06" d="M78.16442,12.06273A3.34427,3.34427,0,0,0,75.7642,10.15a18.20537,18.20537,0,0,0-17.99991,3.77992c-1.58111,1.486-2.98243,3.614-2.50617,5.99875.52528,2.6302,3.16652,4.40951,5.60633,4.82233s4.825-.149,7.2488-.19306,5.16856.59678,6.80978,2.7363a3.25581,3.25581,0,0,1,.72015,1.60735c.1517,1.553-1.34858,2.41992-2.58618,3.05519a21.90246,21.90246,0,0,0-6.02792,4.58072,10.71756,10.71756,0,0,0-2.81778,4.82691A6.59609,6.59609,0,0,0,65.521,47.10705a6.33292,6.33292,0,0,0,4.55687,1.9223,30.05228,30.05228,0,0,0,4.765-.52354,23.28655,23.28655,0,0,1,8.94637.6437c1.29777.34783,2.81784,1.06342,3.13583,2.46962a3.26655,3.26655,0,0,1-.75472,2.57957,23.09771,23.09771,0,0,0-2.07336,2.86673,4.03461,4.03461,0,0,0-.14459,3.64564c.832,1.58091,2.70384,2.02069,4.30773,2.35514a11.09766,11.09766,0,0,1,3.801,1.36112,5.27882,5.27882,0,0,1,2.42955,3.39532c.34934,2.08241-1.01472,4.119-.23875,6.10991a4.75575,4.75575,0,0,0,2.72852,2.46593,8.19376,8.19376,0,0,0,5.24707.39653l-.362-3.33561a4.95223,4.95223,0,0,0,3.785-.64385,1.86622,1.86622,0,0,0,.72742-.76356,2.492,2.492,0,0,0-.88859-2.57465c-1.78151-1.64968-4.28009-1.60691-6.437-1.25371a33.15247,33.15247,0,0,0,3.354-5.344,4.46443,4.46443,0,0,0,.62457-3.08585c-.44173-1.728-2.38217-2.552-3.99927-2.67271a9.76656,9.76656,0,0,0-5.35955,1.11576,7.73376,7.73376,0,0,1,.57145-6.74661c.86134-1.32785,2.24412-2.45743,2.17827-4.16658a3.70021,3.70021,0,0,0-3.56563-3.27225,5.05918,5.05918,0,0,0-3.95751,2.52605,7.21126,7.21126,0,0,1-.49651-7.25321c.73989-1.31563,1.93727-2.23292,2.77222-3.47411a4.08825,4.08825,0,0,0,.3-4.46662A4.8222,4.8222,0,0,0,90.061,30.13039,16.7847,16.7847,0,0,0,85.23475,27.981a21.99931,21.99931,0,0,0,3.51-6.73058,3.73506,3.73506,0,0,0-.16716-3.40183,3.44,3.44,0,0,0-1.66333-1.03587,15.89336,15.89336,0,0,0-5.49568-.92172c-.2685.0038-.604-.02668-.73681-.29588a.916.916,0,0,1-.06305-.37656,4.33522,4.33522,0,0,0-3.16125-3.91928"/><g class="a6bd7ee0-3969-4220-bc73-ab775019d1cb"><path class="a9421d42-2311-4bd3-a5d7-cbae3d9fbc73" d="M19.41233,23.10582A18.8285,18.8285,0,0,0,21.99909,21.622c2.8502-1.652,6.73832-2.92965,7.18536-6.71823.38809-3.2891-3.49652-6.6487-6.48488-6.98211C18.61428,7.46586,12.82784,10.12658,11.97,14.55a8.09154,8.09154,0,0,0,.2199,3.506,8.79818,8.79818,0,0,0,.77345,2.07556,6.32761,6.32761,0,0,0,3.976,3.0086A3.99265,3.99265,0,0,0,19.41233,23.10582Z"/><path class="baf9f647-815f-4483-8dd7-f30910626adb" d="M17.9112,61.62559a.93741.93741,0,0,1-.5507.25336.864.864,0,0,1-.50934-.23686A6.88379,6.88379,0,0,1,14.983,58.91256c-.79757-1.87182-1.744-4.46206-1.294-6.51663.26208-1.19658,1.11083-1.539,1.66711-2.44533.31492-.51308.45237-1.28247.75846-1.84631.33872-.624.68185-1.24558,1.02277-1.86835a14.53467,14.53467,0,0,0,1.502-3.40839,4.402,4.402,0,0,0-.18081-3.21425c-.46152-.66256-1.2951-.85659-1.52652-1.75767-.95451-3.7166.94577-8.566,2.8914-11.6807a9.9666,9.9666,0,0,1,4.1326-3.94159,9.96629,9.96629,0,0,1,4.37965-.7438,12.64329,12.64329,0,0,1,7.55117,2.4739c4.11269,3.25755,4.15574,7.372,3.20326,11.7145-.21627.986-.48385,1.9837-.76677,2.98582-.9307,3.29659-2.675,10.35426-7.4251,9.25608l-3.61465-.83568c-1.142-.264-3.09209,1.61748-1.609,1.82641.35507.13782.30471.27209.38752.64386a3.06283,3.06283,0,0,1-.02172,1.13694,14.48444,14.48444,0,0,1-1.8541,5.34341c-.83268,1.32778-2.42143,1.59371-3.449,2.65481A26.75982,26.75982,0,0,1,17.9112,61.62559Z"/><path class="bd578fb0-f183-4df8-a28c-a7ed285619cf" d="M25.51538,50.42959c-.51359-.07778-.749.6058-.95051.93534-.35356.57808-.83795,1.10884-1.24681,1.64982-.4131.54659-.93245,1.14771-1.61744,1.13358a2.07667,2.07667,0,0,1-1.33816-.77169,26.47967,26.47967,0,0,1-2.52516-3.28429c-.12172-.1701-1.6682-2.51955-1.82407-2.32681-1.04953,1.29776-1.01894,3.33933-1.42289,4.9004q-.66845,2.58311-1.29542,5.17671-1.24315,5.13356-2.35564,10.29754Q9.817,73.30424,8.76869,78.484c-.18726.91577-2.39372,10.15949-2.09031,10.29227A41.74328,41.74328,0,0,0,20.5026,92.1704q1.1401-4.50726,2.10813-9.05572,2.547-11.96672,3.891-24.14789a29.0632,29.0632,0,0,0,.21262-5.67464,5.29634,5.29634,0,0,0-.69573-2.53464A.8965.8965,0,0,0,25.51538,50.42959Z"/><path class="aec80296-a5b7-48da-9d95-7fcfa2cf6f55" d="M14.4286,45.43838a3.34369,3.34369,0,0,1,2.86545.928,3.44269,3.44269,0,0,1,.48429,1.74631c-.58646,2.54789.55739,4.86572,1.54717,7.09219a25.67666,25.67666,0,0,1,1.562,5.91606,62.65828,62.65828,0,0,0,2.58416-6.711,20.90735,20.90735,0,0,0,1.58168-5.73781c.00829-.2137,1.76146,1.02236,1.90848,1.23725a7.19713,7.19713,0,0,1,.875,2.51374,13.81253,13.81253,0,0,1,.10621,3.40642c-.31142,4.45072,3.09853,8.17412,1.42035,12.69864-.68469,1.846-2.001,3.288-2.66423,5.12374-.793,2.19515-2.10312,4.14544-2.76713,6.41028-.75726,2.58292-.38327,5.03643-.727,7.63446-.30865,2.33307-.91137,10.46588-3.61263,11.6574-1.25651.55424-4.787-1.38944-6.16543-1.7279-2.52118-.619-5.09279-1.01313-7.575-1.79008a70.75239,70.75239,0,0,1-9.61734-3.87147c.864-1.85922,1.23783-4.01939,2.16038-5.81875C-.83594,84.646.383,83.387,1.09548,81.7878A20.90954,20.90954,0,0,0,2.70775,70.33231,37.89611,37.89611,0,0,1,3.556,54.12445a17.30783,17.30783,0,0,1,3.539-6.72891C8.99936,45.3419,11.69324,45.487,14.4286,45.43838Z"/><path class="a9421d42-2311-4bd3-a5d7-cbae3d9fbc73" d="M19.6982,41.01879a8.21733,8.21733,0,0,0,3.975-1.82021c1.0054-.95717,1.95907-3.03842,1.26562-4.38463a4.39865,4.39865,0,0,1-.46475-3.23075A1.614,1.614,0,0,1,26.179,30.37041c1.14494.23713,1.23108,1.513,1.68008,2.35,1.0364,1.93191,2.73558.38764,4.08909.01918a5.12148,5.12148,0,0,1,1.45541-.10876c1.18541.0248,2.37171.15227,3.5534.24163a8.35181,8.35181,0,0,1,1.73859.10141,1.15642,1.15642,0,0,1,.59729.5125c.07425.12238.18523.84665.24417.87646.548.27721,1.72154-2.02464,1.92275-2.437a9.75347,9.75347,0,0,0,.92591-3.06281,7.33193,7.33193,0,0,0-1.7978-5.92632c-1.101-1.19243-4.77759-2.2464-5.84816-3.49767-2.13948-2.50059-7.1901-3.42336-10.32115-2.79826-4.89716.97769-8.3037,5.00773-10.22754,9.38869a16.11866,16.11866,0,0,0-1.5851,6.24791,10.31207,10.31207,0,0,0,2.608,5.87768c.48693.53327,1.0565.99261,1.48994,1.5702a4.93537,4.93537,0,0,0,.868,1.06433,2.11785,2.11785,0,0,0,1.60351.32345C19.34685,41.08574,19.52154,41.05442,19.6982,41.01879Z"/><path class="f0e77bc2-c150-4e7b-be09-dc5c8ece05b0" d="M20.277,64.24163q.02093-.19185.04057-.38236a16.81075,16.81075,0,0,1,1.79628-5.83038,1.60088,1.60088,0,0,1,.658-.84125c-.86625,3.46336-.75658,6.9612-1.33543,10.43667C19.76271,77.67362,16.419,87.30134,15.227,97.433a.38949.38949,0,0,1-.09205.248.37439.37439,0,0,1-.28313.06467,3.00753,3.00753,0,0,1-1.26718-.36908.5077.5077,0,0,1-.24416-.22737.53811.53811,0,0,1-.00743-.28871c.33317-2.048,1.1058-4.10891,1.59111-6.13759.75935-3.17424,1.51877-6.34875,2.213-9.53807.70074-3.21929,1.33465-6.45274,1.935-9.69218a40.4297,40.4297,0,0,0,1.00765-11.37758,7.01024,7.01024,0,0,1,.08958-1.9612,5.27028,5.27028,0,0,1,1.05847,3.01559,13.06374,13.06374,0,0,1,1.35259-3.56977"/><path class="a81d036f-7d98-4749-93b9-00bdfe705138" d="M19.202,72.41856a30.73733,30.73733,0,0,1-4.90338-1.09221,16.228,16.228,0,0,1-3.53277-1.0509,26.43337,26.43337,0,0,1,2.48945,1.92438,31.78551,31.78551,0,0,0,3.16555,2.10555,28.113,28.113,0,0,0,6.76554,2.33429,2.80367,2.80367,0,0,0,1.01054.12031c.91893-.11589,1.46887-1.05635,1.855-1.89822.32685-.71257.56653-1.4832.93337-2.1737.36647-.6898.81223-1.35371,1.21058-2.0274a1.59372,1.59372,0,0,0,.18985-.40289c-1.504.91125-2.993,2.06016-4.82109,2.12567a36.12266,36.12266,0,0,1-4.26828.044Q19.24871,72.42353,19.202,72.41856Z"/><path class="baf9f647-815f-4483-8dd7-f30910626adb" d="M47.77508,70.60315c.474-2.207,2.30222-3.15126,3.9295-4.88978,1.29061-1.37906,2.95952-2.47946,2.4186.27284.00617-.03151,1.79522-.751,2.02537-.90273.70924-.46774,1.267-1.15935,2.156-1.27734A2.39545,2.39545,0,0,1,60.633,64.97575a3.2853,3.2853,0,0,1-.33819,3.85469c-1.56681,1.72935-10.74292,8.16529-12.423,4.30046a2.92929,2.92929,0,0,1-.20615-1.03558A5.78946,5.78946,0,0,1,47.77508,70.60315Z"/><path class="f0e77bc2-c150-4e7b-be09-dc5c8ece05b0" d="M18.08325,73.45682a33.30366,33.30366,0,0,1-4.44855-5.91058C10.46452,62.29411,3.18492,54.67976,7.327,48.1277c4.18475-6.61895,8.47973,6.13,9.68821,8.33558,1.96477,3.58588,4.55039,7.04444,6.593,10.69728,1.89967,3.39714,8.55721,1.86233,12.12742,2.04006,1.89822.0945,4.085.60944,5.96523.40035,1.88922-.21009,3.94621-1.21873,5.761-1.79046a1.11582,1.11582,0,0,1,1.048.02929,1.15082,1.15082,0,0,1,.26166.89921,17.46677,17.46677,0,0,0,1.064,5.44652c-5.12632,2.13852-11.6502,2.94328-17.14546,3.83772-2.30639.3754-5.4312,1.38069-7.71947.65972C22.48577,77.90006,19.84138,75.29046,18.08325,73.45682Z"/><path class="b7def753-9000-4392-a773-8c2baa3162eb" d="M-1.54215,85.14671a14.19548,14.19548,0,0,1-1.2057,1.52618c-.19469.17793-1.02114.60715-.81491.93663a12.75323,12.75323,0,0,0,.76618,1.14494,18.46293,18.46293,0,0,0,3.183,2.89081q2.02039,1.60032,4.20108,3.01337a55.30041,55.30041,0,0,0,8.98076,4.711,25.58212,25.58212,0,0,0,3.279,1.233,5.673,5.673,0,0,0,3.312-.02189,1.86468,1.86468,0,0,0,.71552-1.13538c.30573-.94466.6558-1.89525.98131-2.81193-.2094-.07888-2.65018-.88589-2.67-.8423-.85686-.21129-1.74583-.17182-2.59738-.41978A25.99958,25.99958,0,0,1,12.9392,93.967,40.84237,40.84237,0,0,1,.627,84.80524c-.27145-.27983-.46843-.8806-.90852-.91272C-.72391,83.86024-1.332,84.88377-1.54215,85.14671Z"/><path class="b83ffbb0-fe17-41cd-b0ce-848f60d764dd" d="M30.56265,39.06667a1.9648,1.9648,0,0,0-2.58151-2.44053,2.95823,2.95823,0,0,0-1.11591.85367A5.91363,5.91363,0,0,0,25.42775,41.092a11.754,11.754,0,0,0,.6183,3.61914,2.204,2.204,0,0,0,.67689,1.25254,2.19081,2.19081,0,0,0,.95234.31512l3.05858.50867a3.04407,3.04407,0,0,0,1.00916.05387,1.51719,1.51719,0,0,0,.9257-2.44621c-.34524-.42923-.92177-.67151-1.14109-1.1768a3.41786,3.41786,0,0,1-.06279-1.3694,5.11636,5.11636,0,0,0-.27988-1.43732l-.39458-1.33084"/><path class="e8d5d97d-ba9b-4383-9a0d-10a463187114" d="M38.09486,34.32468a.52244.52244,0,0,0-.30527-.57117,1.52539,1.52539,0,0,0-.68842-.10716.32732.32732,0,0,0-.40349.2737c-.10282.31782-.17414.73725.10256.92439.09751.066.22736.09012.29693.18508a.34858.34858,0,0,1-.05966.40832c-.09372.11481-.22206.199-.30768.32-.27121.38314-.03055.98912-.34278,1.33964-.10773.121-.27882.209-.29932.36967-.022.17255.1426.30223.26353.42726a1.11272,1.11272,0,0,1,.30548.84638A2.03452,2.03452,0,0,0,38.34746,37.553a3.9304,3.9304,0,0,0,.28814-2.12519c-.03233-.32635-.14121-.71581-.45824-.79973"/><path class="a2fc4944-8f51-4d60-8532-32168e47943c" d="M60.47835,66.36149c-1.78047-.9058-4.615,1.67727-5.84834,2.68586-.48716.39839-.75793.926-1.19856,1.3496-.41508.399-.92216.5804-1.14636,1.1676a1.13039,1.13039,0,0,0,.59606,1.47673,1.72705,1.72705,0,0,0,.94155-.08379,6.18785,6.18785,0,0,0,2.06722-.8659,6.491,6.491,0,0,1,1.18334-.88919c.24265-.10564.50877-.14895.75149-.25444a3.1716,3.1716,0,0,0,.86652-.6438l1.43909-1.34957a2.81034,2.81034,0,0,0,.94731-1.32808c.12163-.53888-.22242-1.21533-.77485-1.2188"/><path class="ee02652d-4949-43ad-8533-0f5bfa4e1ab3" d="M52.5908,65.82361l-.24705-.1673a2.6934,2.6934,0,0,0-1.24458,1.36374,1.154,1.154,0,0,1-.223.41392c-.25951.25222-.69426.13572-1.03579.25536a1.39622,1.39622,0,0,0,.22727.56175.47727.47727,0,0,0,.54079.172,1.10934,1.10934,0,0,0,.25763-.213c.55728-.50116,1.45774-.18939,2.16553-.43588a1.26634,1.26634,0,0,0,.85555-1.11913,1.03375,1.03375,0,0,0-.88419-1.03588"/><path class="bb5f62d3-017c-4ba2-af3a-c83ea65d4561" d="M29.653,39.42085a1.32747,1.32747,0,0,0-.5906.50506.75532.75532,0,0,0-.02328.75161c.09569.15883.26908.2885.273.47389a.971.971,0,0,1-.14091.376c-.05286.12448-.04686.30429.0786.35477.10323.04153.24391-.0266.32086.05377.06213.0649.0272.17007.03092.25984a.36662.36662,0,0,0,.08942.2129.50272.50272,0,0,0,.50716.16754.45214.45214,0,0,0,.328-.41211,1.28094,1.28094,0,0,1-.34963-.89087c.04323-.291.28556-.53441.2836-.82859-.00228-.3418-.33665-.65659-.22536-.97977a.58935.58935,0,0,0-.5179.08157"/><path class="edcdd835-88c8-42b3-a25a-9081d8dd0b3f" d="M27.90722,44.20842c-.12773-.23318-.53224-.30914-.63772-.06508-.08012.18538.06764.38453.20511.53248a.38851.38851,0,0,0,.16376.12274c.11112.03246.22343-.03781.33706-.06a.42931.42931,0,0,1,.48353.45745c.28446-.09652.63-.28677.58341-.58352a.50527.50527,0,0,0-.19894-.29715,1.13144,1.13144,0,0,0-.99121-.21082"/><path class="e6d08b29-3203-49e0-b760-2adc5f82ed05" d="M38.20591,35.15737c-.13619-.19339-.47745-.05458-.53988.17357a.956.956,0,0,0,.16216.67259c.08436.15946.21576.34422.39394.316.14793-.0234.22961-.18625.25536-.33379a1.077,1.077,0,0,0-.14264-.74246"/><path class="a220458d-d17d-4fe1-997b-05299980ef8e" d="M58.96918,68.30888c.037-.15876-.15368-.29435-.31485-.26994a.76117.76117,0,0,0-.40026.26478l-.42981.44281c-.19489.20079-.43916.41873-.71454.36912-.17706-.0319-.31826-.17074-.49263-.215a.6604.6604,0,0,0-.652.275,1.94064,1.94064,0,0,0-.288.68654,2.5189,2.5189,0,0,0,1.67091-.11443c.09162.27614.49024.2819.75379.15867a1.91309,1.91309,0,0,0,1.01379-1.76767"/><path class="b0978f15-e1c0-406f-a578-5fa0bc6e8d15" d="M51.74169,66.65561a.6122.6122,0,0,0-.38572.80636.8865.8865,0,0,0,.5584-.703.28137.28137,0,0,0-.17851-.18381"/><ellipse class="a1e8ed90-8876-41aa-a104-ea61b6c91676" cx="23.2094" cy="48.6341" rx="2.72485" ry="2.01035" transform="translate(-30.52559 52.69645) rotate(-68.81168)"/></g></svg>