<svg id="bd18a4b5-3f78-4b29-973f-2ffe0d53acd1" data-name="Layer 1" xmlns="http://www.w3.org/2000/svg" xmlns:xlink="http://www.w3.org/1999/xlink" viewBox="0 0 126.49915 81.17289"><defs><style>.a150ef8c-cc5c-41b7-a295-f33da1e40265,.a46ea516-5041-4940-80ed-72cec7f452ef,.a9d3e5f5-412e-427b-8ca1-b9fb910fe3b8,.b4f69615-7824-4300-ab65-b9b4fd16e5ef,.bb0d0a23-b40e-4f33-a2fe-397870578f2e{fill:none;}.e2380c4a-74d7-465d-b509-0a7ea5a6f94d{clip-path:url(#e10b1029-17bc-4525-97da-3c0bcaedf740);}.a11f8c74-ca8d-466b-99c6-46c3672f2594{fill:#b0ceb2;}.ba5ce371-207d-4a7e-b337-f9dad09f7d64{clip-path:url(#affbaa90-4fda-464a-b775-aa92bf242334);}.b18e7db0-742c-4e38-b045-ebba752fbeb7{fill:#eaccca;}.b987ab88-c812-4490-adea-74f6bbedd2d1{clip-path:url(#a6a59443-98bb-45d8-9aba-cf21587a2119);}.a46ea516-5041-4940-80ed-72cec7f452ef,.a9d3e5f5-412e-427b-8ca1-b9fb910fe3b8{stroke:#414042;stroke-miterlimit:10;}.a9d3e5f5-412e-427b-8ca1-b9fb910fe3b8{stroke-width:10.57401px;}.a7cdf89d-dcb3-47d5-a04f-768b609febf3{fill:#414042;}.a150ef8c-cc5c-41b7-a295-f33da1e40265,.a46ea516-5041-4940-80ed-72cec7f452ef{stroke-width:6.34441px;}.a150ef8c-cc5c-41b7-a295-f33da1e40265,.bb0d0a23-b40e-4f33-a2fe-397870578f2e{stroke:#58595b;stroke-linecap:round;stroke-linejoin:round;}.bb0d0a23-b40e-4f33-a2fe-397870578f2e{stroke-width:5.63947px;}.a020e3ff-e1dd-446d-85fd-12eea92350f0{fill:#6d6e71;}.b6a18f3f-8668-4fd6-bab5-ebcd127c2204{fill:#a97c50;}.a5aa0320-0778-448f-96d2-5f8c348d8bfb{fill:#dbae95;}.af7a8328-8d33-461f-8d60-32e3102d9db8{fill:#fff;}.fc7e167e-741a-490c-977c-19930d3801bb{fill:#63774e;}.e35172f0-103e-44e9-9331-fe5d1035790e{fill:#6f825a;}.e22c0ac4-5fe6-4706-a1b7-0755feea8e36{fill:#566345;}</style><clipPath id="e10b1029-17bc-4525-97da-3c0bcaedf740"><rect class="b4f69615-7824-4300-ab65-b9b4fd16e5ef" x="-34.82823" y="-373.08743" width="256.56218" height="76.74475"/></clipPath><clipPath id="affbaa90-4fda-464a-b775-aa92bf242334"><rect class="b4f69615-7824-4300-ab65-b9b4fd16e5ef" x="-35.86682" y="-169.79717" width="257.32736" height="76.74475"/></clipPath><clipPath id="a6a59443-98bb-45d8-9aba-cf21587a2119"><rect class="b4f69615-7824-4300-ab65-b9b4fd16e5ef" x="30.66667" y="8.33333" width="95.66667" height="72.83956"/></clipPath></defs><title>Artboard 146 copy</title><g class="e2380c4a-74d7-465d-b509-0a7ea5a6f94d"><polygon class="a11f8c74-ca8d-466b-99c6-46c3672f2594" points="167.02 371.294 -35.718 371.294 -35.592 -331.216 -26.679 -337.763 -5.848 -356.104 199.326 -356.104 199.778 345.394 167.02 371.294"/></g><g class="ba5ce371-207d-4a7e-b337-f9dad09f7d64"><polygon class="b18e7db0-742c-4e38-b045-ebba752fbeb7" points="166.747 2579.62 -35.992 2579.62 -35.865 -127.926 -26.952 -134.473 -6.122 -152.814 199.053 -152.814 199.504 2553.72 166.747 2579.62"/></g><g class="b987ab88-c812-4490-adea-74f6bbedd2d1"><ellipse class="a9d3e5f5-412e-427b-8ca1-b9fb910fe3b8" cx="93.11953" cy="45.10655" rx="29.60881" ry="20.95295" transform="translate(-9.94387 54.25985) rotate(-30.92053)"/><path class="a7cdf89d-dcb3-47d5-a04f-768b609febf3" d="M89.55431,55.74554c-2.38772,1.45293-5.38562.98727-5.98-.92888l-2.54655-8.20944c-.56374-1.81736-2.51119-4.31755-1.00375-6.28849,4.0171-5.25194,11.6022-5.59476,17.033-4.75133a17.109,17.109,0,0,1,6.58254,2.08874c3.2943,2.14882,4.98056,6.4878.0093,9.51282l-3.86473,2.3517Z"/><path class="a46ea516-5041-4940-80ed-72cec7f452ef" d="M70.02228,42.92607s18.23745,1.093,24.01177,2.02316,22.18274,5.418,22.18274,5.418"/><line class="a46ea516-5041-4940-80ed-72cec7f452ef" x1="91.15812" y1="48.74714" x2="80.3621" y2="68.78572"/><path class="a150ef8c-cc5c-41b7-a295-f33da1e40265" d="M70.84877,39.699s18.23746,1.093,24.01177,2.02316,22.18274,5.418,22.18274,5.418"/><line class="a150ef8c-cc5c-41b7-a295-f33da1e40265" x1="89.18698" y1="48.74714" x2="79.17248" y2="67.33513"/><ellipse class="bb0d0a23-b40e-4f33-a2fe-397870578f2e" cx="91.95322" cy="45.10655" rx="29.60881" ry="20.95295" transform="translate(-10.10962 53.66054) rotate(-30.92053)"/><path class="a020e3ff-e1dd-446d-85fd-12eea92350f0" d="M89.39136,51.77373c-1.71574,1.044-3.86994.70943-4.29705-.66746l-1.82987-5.89906c-.40509-1.3059-1.80447-3.10246-.72127-4.51872,2.88657-3.77389,8.337-4.02023,12.23941-3.41417a12.29421,12.29421,0,0,1,4.73,1.50091c2.36718,1.54408,3.57888,4.66194.00668,6.83563L96.7422,47.30072Z"/><path class="b6a18f3f-8668-4fd6-bab5-ebcd127c2204" d="M63.2378,27.93793a15.46639,15.46639,0,0,1,2.79447-2.47456c3.30021-2.272,7.89428-4.18785,8.079-8.82387.16039-4.02481-4.86675-7.73214-8.52175-7.85459a12.59362,12.59362,0,0,0-9.91461,4.42382,13.69054,13.69054,0,0,0-2.6391,4.79786c-.57653,1.90852-.91281,4.097-2.9507,5.06641-1.65593.78775-3.69819.19424-5.39072.89993-2.325.9694-3.2418,4.03925-5.58805,4.95607-1.503.58732-3.32667.161-4.69448,1.01715-1.51811.95022-2.63733,3.051-3.63825,4.483.388-.55509,3.94281-.07056,4.55644.18854a18.97454,18.97454,0,0,1,2.90728,2.19169c2.33281,1.61076,5.30033,3.42868,8.24613,2.5156,2.26338-.70156,3.83688-2.89817,6.11727-3.54231,1.70013-.48024,3.60773-.03521,5.21735-.76334,2.11848-.95831,2.68241-3.45318,3.928-5.19922A21.83876,21.83876,0,0,1,63.2378,27.93793Z"/><path class="a5aa0320-0778-448f-96d2-5f8c348d8bfb" d="M63.37364,65.85333a1.14013,1.14013,0,0,1-.71315.187,1.05083,1.05083,0,0,1-.55993-.3914,8.37227,8.37227,0,0,1-1.66018-3.66421c-.55938-2.41053-1.1451-5.713-.17162-8.07853.567-1.37771,1.65591-1.60832,2.51383-2.57617.48569-.54792.813-1.44034,1.29886-2.05091.53765-.67568,1.08007-1.34761,1.62009-2.0214a17.67709,17.67709,0,0,0,2.51976-3.76453c.4673-1.0517.98308-2.76516.46321-3.8879-.41264-.89115-1.37-1.29983-1.45658-2.428-.3572-4.65319,2.94432-10.05942,5.93329-13.37833a12.12153,12.12153,0,0,1,5.78315-3.84682,12.12123,12.12123,0,0,1,5.40275.03539,15.37689,15.37689,0,0,1,8.52074,4.55993c4.23679,4.77129,3.41822,9.70818,1.35906,14.70774-.46753,1.13515-.999,2.27352-1.5498,3.41392-1.81186,3.75145-5.39363,11.83543-10.85047,9.51558l-4.15248-1.76533c-1.31192-.55773-4.04543,1.28332-2.31328,1.84721.39611.24016.3074.39032.328.8531a3.725,3.725,0,0,1-.26646,1.3571,17.616,17.616,0,0,1-3.35068,6.00762c-1.2781,1.41417-3.23716,1.39667-4.69226,2.45022A32.54523,32.54523,0,0,1,63.37364,65.85333Z"/><path class="af7a8328-8d33-461f-8d60-32e3102d9db8" d="M74.84887,54.05219c-.59868-.20177-1.02514.56716-1.33623.91923-.54571.61759-1.23811,1.15083-1.8422,1.71229a2.70769,2.70769,0,0,1-2.17693,1.0156A2.52566,2.52566,0,0,1,68.054,56.49207a32.20513,32.20513,0,0,1-2.32978-4.46759c-.1098-.22947-1.46513-3.37042-1.69257-3.17255-1.53147,1.33235-1.9266,3.784-2.74055,5.56823q-1.34686,2.95239-2.64629,5.92612-2.5746,5.88549-4.99911,11.83505-2.43624,5.94756-4.78723,11.92955c-.418,1.0572-5.0155,11.66165-4.6802,11.88484a50.76855,50.76855,0,0,0,15.83927,6.98877q2.3187-5.15716,4.44-10.40007,5.58126-13.79375,9.76709-28.09874a35.34747,35.34747,0,0,0,1.45475-6.75148,6.44138,6.44138,0,0,0-.29723-3.18283A1.0903,1.0903,0,0,0,74.84887,54.05219Z"/><path class="fc7e167e-741a-490c-977c-19930d3801bb" d="M62.62593,45.7296c1.25619.19887,2.67726.57477,3.23566,1.71746a4.18711,4.18711,0,0,1,.21071,2.194c-1.24124,2.92754-.36145,5.94548.35313,8.82143a31.22836,31.22836,0,0,1,.61967,7.41592,76.20384,76.20384,0,0,0,4.5143-7.49116c1.12745-1.99218,2.61809-4.27883,3.10782-6.53759.05511-.2542,1.89346,1.597,2.02409,1.88545a8.75291,8.75291,0,0,1,.5164,3.19572,16.79892,16.79892,0,0,1-.5932,4.1023c-1.31424,5.2647,1.98237,10.44533-.98443,15.50938-1.21045,2.06612-3.092,3.51477-4.27451,5.57319-1.414,2.46139-3.39558,4.52016-4.66983,7.0923-1.45322,2.93339-1.52417,5.951-2.48526,8.98995-.86307,2.729-3.30492,12.34211-6.79217,13.1979-1.62211.39808-5.43942-2.67648-7.01882-3.37337-2.88868-1.27459-5.88531-2.29047-8.694-3.746a86.0491,86.0491,0,0,1-10.6998-6.67072c1.428-2.044,2.33258-4.5522,3.818-6.51216,1.23821-1.63373,2.96438-2.88391,4.15591-4.6485A25.43046,25.43046,0,0,0,43.32333,73.066,46.08974,46.08974,0,0,1,47.767,53.8334a21.05,21.05,0,0,1,5.66172-7.31067C56.1438,44.46584,59.33954,45.20935,62.62593,45.7296Z"/><path class="b6a18f3f-8668-4fd6-bab5-ebcd127c2204" d="M69.87194,41.55076a9.99415,9.99415,0,0,0,5.1458-1.33938c1.40658-.93378,2.98894-3.22477,2.44311-4.98377a5.34971,5.34971,0,0,1,.12662-3.96771,1.963,1.963,0,0,1,2.29836-1.092c1.32113.52614,1.15447,2.07249,1.51523,3.16986.83271,2.533,3.19438,1.04281,4.8934.88775a6.2286,6.2286,0,0,1,1.76612.17755c1.41451.28039,2.80836.68394,4.20477,1.04088a10.15735,10.15735,0,0,1,2.06084.48915,1.40652,1.40652,0,0,1,.607.74012c.06305.16228.04279,1.0532.10708,1.10137.59765.44789,2.49-2.06081,2.81824-2.5121A11.8622,11.8622,0,0,0,99.61516,31.79a8.91715,8.91715,0,0,0-.89987-7.4781c-1.06651-1.661-5.247-3.70087-6.26455-5.4259-2.03359-3.4474-7.88751-5.62072-11.76972-5.53422-6.072.1353-11.0043,4.24159-14.235,9.08175a19.60392,19.60392,0,0,0-3.21979,7.14781,12.54184,12.54184,0,0,0,1.88051,7.59118c.47042.74166,1.05545,1.41226,1.45241,2.1957a6.00261,6.00261,0,0,0,.81456,1.45832,2.57575,2.57575,0,0,0,1.8521.72651C69.437,41.55663,69.65282,41.55606,69.87194,41.55076Z"/><path class="e35172f0-103e-44e9-9331-fe5d1035790e" d="M65.65392,69.48686q.06564-.22534.12946-.44937a20.44534,20.44534,0,0,1,3.38441-6.60308,1.94707,1.94707,0,0,1,.966-.8684c-1.77,3.96483-2.37834,8.17734-3.80663,12.21745-4.1299,11.682-10.1708,22.50579-13.74106,34.38827a.47373.47373,0,0,1-.16269.27753.45531.45531,0,0,1-.35278.01757,3.65762,3.65762,0,0,1-1.43963-.71.61746.61746,0,0,1-.24434-.32395.65451.65451,0,0,1,.05215-.34736c.83217-2.38242,2.19338-4.68732,3.20367-7.01442,1.58077-3.64115,3.16168-7.28262,4.66763-10.95561,1.5201-3.7075,2.96314-7.4461,4.36722-11.199a49.17055,49.17055,0,0,0,3.613-13.41368,8.52606,8.52606,0,0,1,.52205-2.32995,6.40974,6.40974,0,0,1,.63,3.83558A15.8885,15.8885,0,0,1,69.81732,62.019"/><path class="e22c0ac4-5fe6-4706-a1b7-0755feea8e36" d="M62.637,79.05291a37.38446,37.38446,0,0,1-5.64173-2.34512A19.737,19.737,0,0,1,52.98638,74.702,32.14689,32.14689,0,0,1,55.561,77.5333a38.65689,38.65689,0,0,0,3.346,3.19126,34.19144,34.19144,0,0,0,7.60932,4.22655,3.41011,3.41011,0,0,0,1.18487.35782c1.12511.05553,1.98265-.95454,2.62319-1.88118.54215-.78431.99219-1.65659,1.57758-2.406.5848-.74865,1.25909-1.44954,1.87866-2.17217a1.93842,1.93842,0,0,0,.31259-.44238c-1.994.77331-4.02034,1.83446-6.22371,1.5263a43.93257,43.93257,0,0,1-5.12137-.85Q62.692,79.06875,62.637,79.05291Z"/><path class="a5aa0320-0778-448f-96d2-5f8c348d8bfb" d="M97.24261,82.9214c1.03442-2.543,3.42378-3.28734,5.74043-5.0254,1.8374-1.37873,4.069-2.34372,2.839.83828.01405-.03643,2.30893-.51974,2.61667-.65286.94837-.41021,1.76267-1.12058,2.85239-1.07388a2.91338,2.91338,0,0,1,2.54138,1.89325,3.99563,3.99563,0,0,1-1.22026,4.5452c-2.24228,1.73986-14.59349,7.50749-15.78838,2.52332a3.56245,3.56245,0,0,1-.02789-1.2839A7.04124,7.04124,0,0,1,97.24261,82.9214Z"/><path class="e35172f0-103e-44e9-9331-fe5d1035790e" d="M61.07758,80.05983a40.5048,40.5048,0,0,1-4.078-8.01983c-2.68614-6.96086-9.7945-17.62-3.44794-24.59132,6.41183-7.04243,8.85966,9.13513,9.8406,12.03232,1.59481,4.71028,3.96014,9.39938,5.63408,14.20633,1.55676,4.47046,9.855,4.04021,14.09341,5.00812,2.25349.51462,4.76366,1.59383,7.05981,1.74105,2.30713.14792,4.98407-.62509,7.27858-.926a1.35714,1.35714,0,0,1,1.249.25672,1.39971,1.39971,0,0,1,.12322,1.13231,21.24326,21.24326,0,0,0,.12243,6.74824c-6.592,1.47714-14.57575,1.06128-21.34652.97038-2.84172-.03815-6.79687.505-9.385-.84241C65.41074,86.3125,62.79548,82.62777,61.07758,80.05983Z"/></g></svg>