<svg id="eac7e951-0c90-4a47-9e04-1b81cfd9a29c" data-name="Layer 1" xmlns="http://www.w3.org/2000/svg" xmlns:xlink="http://www.w3.org/1999/xlink" viewBox="0 0 126.49915 81.17289"><defs><style>.a14b9101-d5e4-4be9-81ac-2436c1d7964a,.a6cb6492-018a-4c2a-a520-1b216f4191a2,.a8fa6dfa-b3aa-4d41-9e52-f40282c40061,.acbd4dbf-662a-4c00-8f8e-450cf09538e3,.f78c815c-a6f7-447e-bbbb-85cfe0fd93a9{fill:none;}.f4a22bdb-d79d-4ebf-b267-05d5c592a6f1{clip-path:url(#a568aba4-33ce-423b-abf1-9a410e11854c);}.a14b9101-d5e4-4be9-81ac-2436c1d7964a,.acbd4dbf-662a-4c00-8f8e-450cf09538e3{stroke:#414042;stroke-miterlimit:10;}.acbd4dbf-662a-4c00-8f8e-450cf09538e3{stroke-width:10.57401px;}.a5576f9f-83fa-4b97-a7e1-c1ba3b1e416f{fill:#414042;}.a14b9101-d5e4-4be9-81ac-2436c1d7964a,.a8fa6dfa-b3aa-4d41-9e52-f40282c40061{stroke-width:6.34441px;}.a6cb6492-018a-4c2a-a520-1b216f4191a2,.a8fa6dfa-b3aa-4d41-9e52-f40282c40061{stroke:#58595b;stroke-linecap:round;stroke-linejoin:round;}.a6cb6492-018a-4c2a-a520-1b216f4191a2{stroke-width:5.63947px;}.ebd5f9c1-79c0-43a1-abd9-a46c556987a5{fill:#6d6e71;}.b76fadea-a203-4229-9166-809fee5eba7a{fill:#a97c50;}.a1d779f9-1cd2-4d98-aaaf-26540e88b997{fill:#dbae95;}.b205b895-ca9e-404b-a637-a2a46f0d9d45{fill:#fff;}.b92d012b-9e8a-4f1d-bb6d-569681416603{fill:#63774e;}.f62625d5-d401-466b-91df-3a6f78cb515f{fill:#6f825a;}.aef9f0e5-3781-4e5e-8cc1-58557f90fbec{fill:#566345;}.a0abeb18-5014-463b-9a59-0ad08d50c4d6{clip-path:url(#a622f360-00a4-4ca5-b985-7d519199968c);}.fdf8952e-ffc9-4714-88df-ca47e0e71ef4{fill:#f6d2ba;}</style><clipPath id="a568aba4-33ce-423b-abf1-9a410e11854c"><rect class="f78c815c-a6f7-447e-bbbb-85cfe0fd93a9" width="126.33333" height="81.17289"/></clipPath><clipPath id="a622f360-00a4-4ca5-b985-7d519199968c"><rect class="f78c815c-a6f7-447e-bbbb-85cfe0fd93a9" x="1.27619" y="138.10649" width="128.987" height="79.98967" transform="translate(131.53937 356.20265) rotate(-180)"/></clipPath></defs><title>Artboard 146</title><g class="f4a22bdb-d79d-4ebf-b267-05d5c592a6f1"><ellipse class="acbd4dbf-662a-4c00-8f8e-450cf09538e3" cx="93.61779" cy="45.10655" rx="29.60881" ry="20.95295" transform="matrix(0.85788, -0.51385, 0.51385, 0.85788, -9.87306, 54.51588)"/><path class="a5576f9f-83fa-4b97-a7e1-c1ba3b1e416f" d="M90.05258,55.74554c-2.38772,1.45293-5.38563.98727-5.98-.92888L81.526,46.60722c-.56374-1.81736-2.51118-4.31755-1.00375-6.28848,4.0171-5.252,11.60221-5.59477,17.033-4.75134a17.109,17.109,0,0,1,6.58254,2.08874c3.2943,2.14882,4.98056,6.48781.00931,9.51282l-3.86473,2.3517Z"/><path class="a14b9101-d5e4-4be9-81ac-2436c1d7964a" d="M70.52054,42.92607s18.23746,1.093,24.01177,2.02316,22.18274,5.418,22.18274,5.418"/><line class="a14b9101-d5e4-4be9-81ac-2436c1d7964a" x1="91.65638" y1="48.74714" x2="80.86036" y2="68.78572"/><path class="a8fa6dfa-b3aa-4d41-9e52-f40282c40061" d="M71.347,39.699s18.23746,1.093,24.01177,2.02316,22.18274,5.418,22.18274,5.418"/><line class="a8fa6dfa-b3aa-4d41-9e52-f40282c40061" x1="89.68524" y1="48.74714" x2="79.67074" y2="67.33513"/><ellipse class="a6cb6492-018a-4c2a-a520-1b216f4191a2" cx="92.45149" cy="45.10655" rx="29.60881" ry="20.95295" transform="translate(-10.03881 53.91658) rotate(-30.92053)"/><path class="ebd5f9c1-79c0-43a1-abd9-a46c556987a5" d="M89.88963,51.77374c-1.71575,1.044-3.87.70942-4.29706-.66746L83.7627,45.20721c-.40509-1.3059-1.80446-3.10246-.72127-4.51872,2.88657-3.77389,8.337-4.02023,12.23941-3.41417a12.29421,12.29421,0,0,1,4.73,1.50091c2.36718,1.54408,3.57888,4.66195.00669,6.83563l-2.77708,1.68986Z"/><path class="b76fadea-a203-4229-9166-809fee5eba7a" d="M30.99265,19.55541a15.46621,15.46621,0,0,1,2.3216-2.92279c2.85486-2.81125,7.0458-5.49677,6.42158-10.09429C39.19391,2.547,33.5987-.22974,29.9781.28523a12.5936,12.5936,0,0,0-8.99432,6.08046,13.69056,13.69056,0,0,0-1.76461,5.18367c-.23587,1.9797-.18649,4.19326-2.02476,5.50231-1.49372,1.0637-3.60807.83436-5.15211,1.82361-2.121,1.35892-2.49,4.54142-4.64112,5.85226-1.378.83973-3.248.737-4.44609,1.818C1.62534,27.74523.88846,30.00858.15181,31.59284c.28554-.6141,3.87047-.75509,4.51981-.60663A18.97366,18.97366,0,0,1,7.91572,32.639c2.57736,1.18058,5.81578,2.45478,8.55793,1.04338,2.10691-1.08445,3.27447-3.52121,5.40811-4.55207,1.59072-.76855,3.54664-.662,5.00513-1.65894,1.91957-1.31209,2.04109-3.867,2.964-5.803A21.83694,21.83694,0,0,1,30.99265,19.55541Z"/><path class="a1d779f9-1cd2-4d98-aaaf-26540e88b997" d="M37.71944,56.86956a1.14006,1.14006,0,0,1-.66977.30814,1.05084,1.05084,0,0,1-.61946-.28807,8.3723,8.3723,0,0,1-2.272-3.3197c-.97-2.27654-2.12107-5.42682-1.57376-7.92562.31875-1.4553,1.351-1.87176,2.02757-2.974.383-.624.55018-1.55977.92245-2.24552.412-.75887.82928-1.51489,1.24391-2.27231a17.67749,17.67749,0,0,0,1.82676-4.14533c.27731-1.117.48728-2.894-.21991-3.90923-.56131-.80581-1.57512-1.0418-1.85658-2.13771C35.36771,23.44,37.67886,17.542,40.04518,13.75392A12.12146,12.12146,0,0,1,45.0713,8.96009a12.1211,12.1211,0,0,1,5.3266-.90462,15.37689,15.37689,0,0,1,9.18385,3.0088c5.00191,3.96188,5.05428,8.9659,3.89585,14.24736-.263,1.19914-.58846,2.41259-.93255,3.6314-1.13193,4.00936-3.25343,12.593-9.03053,11.25738L49.11833,39.184c-1.38892-.32111-3.76064,1.96721-1.95683,2.22132.43184.16762.37059.33092.47131.78307a3.72471,3.72471,0,0,1-.02642,1.38276,17.61586,17.61586,0,0,1-2.255,6.49874c-1.01272,1.61487-2.945,1.9383-4.1947,3.22882A32.54475,32.54475,0,0,1,37.71944,56.86956Z"/><path class="b205b895-ca9e-404b-a637-a2a46f0d9d45" d="M46.96778,43.25281c-.62464-.0946-.9109.73678-1.156,1.13758-.43.70307-1.01914,1.34859-1.51639,2.00653-.50242.66478-1.13406,1.39586-1.96716,1.37868a2.52567,2.52567,0,0,1-1.62748-.93854,32.20281,32.20281,0,0,1-3.07115-3.99441c-.148-.20688-2.02889-3.06431-2.21846-2.8299-1.27645,1.57835-1.23925,4.06135-1.73055,5.95994q-.813,3.14163-1.5755,6.296-1.512,6.24351-2.865,12.524Q27.87517,71.07331,26.60018,77.373c-.22774,1.11378-2.91127,12.35613-2.54226,12.51762a50.76865,50.76865,0,0,0,16.81323,4.128q1.3866-5.4818,2.56395-11.0137,3.09767-14.55412,4.73226-29.369A35.347,35.347,0,0,0,48.426,46.7343a6.44159,6.44159,0,0,0-.84615-3.08266A1.09031,1.09031,0,0,0,46.96778,43.25281Z"/><path class="b92d012b-9e8a-4f1d-bb6d-569681416603" d="M33.48385,37.18243c1.27164-.0226,2.73642.10046,3.485,1.12865a4.18689,4.18689,0,0,1,.589,2.1239c-.71326,3.09877.67791,5.91775,1.8817,8.62563a31.22849,31.22849,0,0,1,1.89977,7.19519,76.2039,76.2039,0,0,0,3.1429-8.162c.76386-2.15787,1.83417-4.66889,1.92367-6.9784.01007-.25991,2.1423,1.24341,2.32111,1.50476a8.75311,8.75311,0,0,1,1.06423,3.05724,16.79911,16.79911,0,0,1,.12917,4.14295c-.37875,5.413,3.76849,9.94149,1.72746,15.44428-.83273,2.24513-2.43369,3.99889-3.24028,6.23157-.96449,2.66978-2.55785,5.04175-3.36543,7.79628-.921,3.1414-.46614,6.12539-.88415,9.28515-.37538,2.83752-1.10843,12.72877-4.39374,14.17791-1.52818.67408-5.822-1.68986-7.49848-2.10149-3.06631-.75286-6.19393-1.23219-9.2129-2.17713a86.04985,86.04985,0,0,1-11.69675-4.70854c1.05081-2.26121,1.50547-4.88845,2.62749-7.07686.93526-1.82415,2.41774-3.35544,3.28428-5.30034a25.43044,25.43044,0,0,0,1.96087-13.93235,46.08967,46.08967,0,0,1,1.03166-19.71226,21.05,21.05,0,0,1,4.30422-8.18379C26.88073,37.06508,30.15706,37.24156,33.48385,37.18243Z"/><path class="b76fadea-a203-4229-9166-809fee5eba7a" d="M39.89283,31.80725a9.994,9.994,0,0,0,4.8345-2.21377c1.22278-1.16413,2.38266-3.69538,1.53927-5.33266a5.3497,5.3497,0,0,1-.56524-3.92928,1.963,1.963,0,0,1,2.07346-1.475c1.3925.28839,1.49726,1.84016,2.04334,2.85809,1.26049,2.34962,3.32706.47145,4.97322.02332a6.22868,6.22868,0,0,1,1.77009-.13227c1.44172.03016,2.88451.18519,4.32171.29387a10.1578,10.1578,0,0,1,2.1145.12334,1.40648,1.40648,0,0,1,.72643.62331c.09031.14884.22528,1.02971.297,1.066.66643.33714,2.09377-2.46241,2.33848-2.96389a11.86214,11.86214,0,0,0,1.1261-3.725,8.91717,8.91717,0,0,0-2.18651-7.20769c-1.33909-1.45025-5.81058-2.7321-7.11262-4.25392-2.60206-3.04126-8.74471-4.16354-12.55274-3.40329-5.956,1.18909-10.09909,6.09048-12.4389,11.41868a19.60368,19.60368,0,0,0-1.92782,7.5988,12.54175,12.54175,0,0,0,3.17188,7.14853c.59221.64857,1.28493,1.20722,1.81208,1.90969a6.00287,6.00287,0,0,0,1.05573,1.29447,2.57581,2.57581,0,0,0,1.95022.39338C39.46551,31.88868,39.678,31.85058,39.89283,31.80725Z"/><path class="f62625d5-d401-466b-91df-3a6f78cb515f" d="M40.59681,60.05122q.02546-.23331.04934-.465a20.44575,20.44575,0,0,1,2.18466-7.091,1.94708,1.94708,0,0,1,.80029-1.02314c-1.05355,4.2122-.92017,8.46633-1.62418,12.69325-2.03563,12.22212-6.10237,23.9315-7.552,36.25378a.47365.47365,0,0,1-.112.30159.45526.45526,0,0,1-.34435.07865,3.6577,3.6577,0,0,1-1.54116-.44887.6175.6175,0,0,1-.297-.27654.65453.65453,0,0,1-.009-.35113c.40521-2.49083,1.34489-4.99731,1.93513-7.46463.92354-3.86057,1.84716-7.72145,2.69148-11.60035.85225-3.91535,1.62322-7.84792,2.35332-11.78778A49.17075,49.17075,0,0,0,40.3569,55.03243a8.52536,8.52536,0,0,1,.109-2.38524,6.40982,6.40982,0,0,1,1.28732,3.66761,15.8883,15.8883,0,0,1,1.64505-4.34162"/><path class="aef9f0e5-3781-4e5e-8cc1-58557f90fbec" d="M39.28929,69.99614a37.38355,37.38355,0,0,1-5.96357-1.32837,19.73705,19.73705,0,0,1-4.29661-1.27811,32.14807,32.14807,0,0,1,3.02772,2.34045,38.65415,38.65415,0,0,0,3.85,2.56081,34.1912,34.1912,0,0,0,8.22835,2.839,3.40987,3.40987,0,0,0,1.229.14634c1.11763-.141,1.78646-1.28476,2.25611-2.30866.39752-.86663.689-1.80389,1.13518-2.64369.4457-.83894.98784-1.64639,1.47232-2.46575a1.93848,1.93848,0,0,0,.2309-.49c-1.82919,1.10827-3.64009,2.5056-5.86348,2.58528a43.93462,43.93462,0,0,1-5.19116.05353Q39.34615,70.00217,39.28929,69.99614Z"/><path class="a1d779f9-1cd2-4d98-aaaf-26540e88b997" d="M74.04036,67.78821c.57646-2.68417,2.8-3.83261,4.77913-5.947,1.56966-1.67723,3.59941-3.01555,2.94153.33184.0075-.03832,2.18338-.91332,2.46329-1.09792.86259-.56887,1.541-1.41,2.62219-1.55352a2.91337,2.91337,0,0,1,2.83188,1.4225,3.99563,3.99563,0,0,1-.41131,4.68814C87.36149,67.73547,76.20136,75.563,74.158,70.8625a3.56234,3.56234,0,0,1-.25071-1.25949A7.041,7.041,0,0,1,74.04036,67.78821Z"/><path class="f62625d5-d401-466b-91df-3a6f78cb515f" d="M37.9287,71.25889a40.50434,40.50434,0,0,1-5.41039-7.18855c-3.85562-6.38772-12.70919-15.64841-7.67154-23.61712,5.08956-8.05008,10.31318,7.45537,11.783,10.13786,2.38957,4.3612,5.53425,8.56756,8.01855,13.01019,2.31041,4.13166,10.40741,2.265,14.74956,2.48116,2.30864.11493,4.96823.74121,7.255.48691,2.2977-.25551,4.79944-1.48224,7.00667-2.17759a1.3571,1.3571,0,0,1,1.27462.03563,1.39969,1.39969,0,0,1,.31824,1.09363,21.243,21.243,0,0,0,1.294,6.62414c-6.23471,2.60091-14.16915,3.57966-20.85258,4.6675-2.80506.45657-6.60551,1.67921-9.38854.80236C43.28311,76.66282,40.067,73.489,37.9287,71.25889Z"/></g><g class="a0abeb18-5014-463b-9a59-0ad08d50c4d6"><path class="b76fadea-a203-4229-9166-809fee5eba7a" d="M25.58,102.99143a24.435,24.435,0,0,1,1.42337-5.72257c2.26309-5.91149,6.52935-12.51729,2.62073-18.71816-3.39332-5.38335-13.256-5.71065-18.124-2.59892A19.89582,19.89582,0,0,0,2.55174,90.58443,21.629,21.629,0,0,0,3.41,99.19258c.95752,3.00065,2.47832,6.15068.69288,9.23666-1.4508,2.50758-4.64075,3.56269-6.21264,5.99619-2.1593,3.34289-.60537,8.16-2.83937,11.4534-1.43111,2.10979-4.18682,3.1869-5.2013,5.52565-1.126,2.59576-.70294,6.33234-.72437,9.09247.0083-1.0699,5.0699-3.6206,6.10067-3.83246,1.78621-.36714,3.91885.24759,5.74643.25134,4.47864.00921,9.969-.28,12.98686-4.10511,2.31877-2.939,2.40135-7.207,4.79364-10.08649,1.78355-2.14678,4.6653-3.27468,6.10917-5.66319,1.90033-3.1436.40165-6.89632.46051-10.28418A34.50407,34.50407,0,0,1,25.58,102.99143Z"/><path class="fdf8952e-ffc9-4714-88df-ca47e0e71ef4" d="M59.69036,152.23105a1.80124,1.80124,0,0,1-.76109.88168,1.66013,1.66013,0,0,1-1.07926-.00844,13.22674,13.22674,0,0,1-5.44075-3.28451c-2.88562-2.63759-6.60377-6.41275-7.45355-10.36367-.4949-2.301.71639-3.57583.96709-5.60368.14192-1.148-.23062-2.60279-.14457-3.83249.09524-1.36083.2-2.72106.3-4.08155a27.9267,27.9267,0,0,0-.08877-7.15608c-.33288-1.78743-1.19491-4.47975-2.87655-5.47615-1.33476-.79086-2.94685-.46611-4.06928-1.85732-4.62954-5.7382-5.16982-15.73123-4.24891-22.72712a19.14986,19.14986,0,0,1,4.08612-10.18388,19.14944,19.14944,0,0,1,7.06539-4.78928,24.29294,24.29294,0,0,1,15.174-1.68943c9.786,2.4198,13.13873,9.57962,14.93246,17.93135.40726,1.89624.73416,3.85393,1.03774,5.83154.99865,6.50551,3.57061,20.23547-5.60973,22.09907l-6.986,1.41815c-2.20712.448-4.11811,5.29129-1.35839,4.47517.73063-.04186.74953.233,1.19047.81711a5.88472,5.88472,0,0,1,.86768,2.00525,27.83032,27.83032,0,0,1,1.01452,10.82c-.39828,2.98495-2.96439,4.71549-3.91584,7.38936C61.40211,147.35046,60.98674,149.77431,59.69036,152.23105Z"/><path class="b76fadea-a203-4229-9166-809fee5eba7a" d="M46.4,114.77623a15.789,15.789,0,0,0,5.50048-6.34909c.99549-2.47452,1.00513-6.8733-1.27974-8.67478a8.45164,8.45164,0,0,1-3.38618-5.27879,3.10117,3.10117,0,0,1,2.01488-3.47863c2.19083-.49742,3.35781,1.6649,4.80959,2.77067,3.3511,2.55241,5.092-1.50131,7.16513-3.22375a9.84044,9.84044,0,0,1,2.45817-1.34951c2.09247-.90092,4.26827-1.623,6.40566-2.40808a16.04745,16.04745,0,0,1,3.12074-1.20759,2.222,2.222,0,0,1,1.4526.42032c.22733.15484.9983,1.33283,1.12511,1.338,1.17892.0482,1.39736-4.91148,1.42071-5.79272a18.7401,18.7401,0,0,0-.82079-6.09293,14.08767,14.08767,0,0,0-7.86427-8.93019C65.6471,65.31126,58.379,66.397,55.51037,65.062c-5.73283-2.66807-15.299-.25832-20.27573,3.3288-7.784,5.61048-10.53011,15.37064-10.4042,24.56332.05341,3.89966.51715,8.61937,2.20537,12.18723,1.59146,3.36337,5.83426,6.74562,9.24215,8.19975,1.2762.54455,2.638.894,3.856,1.55866a9.48313,9.48313,0,0,0,2.36562,1.16954,4.06923,4.06923,0,0,0,3.06141-.71177C45.839,115.17317,46.11952,114.97925,46.4,114.77623Z"/></g></svg>