<svg id="e9a91a5a-edf7-4cbe-9509-c3434da908fb" data-name="Layer 1" xmlns="http://www.w3.org/2000/svg" xmlns:xlink="http://www.w3.org/1999/xlink" viewBox="0 0 125.34919 94.4406"><defs><style>.b3123b2a-7064-4f5a-bb11-94ca1d0b1d4e,.b6aa84bb-4e37-4e46-a57e-b03e6134105c{fill:none;}.b6aabac1-7863-42f3-826d-9acea66632a9{fill:#939598;}.b2d5b8f8-784d-4e4f-86e6-a7437c602a0f{fill:#e6e7e8;}.ac86c3e8-d4e2-4724-aad6-eb58a802af79{fill:#e6e6e6;}.ba840ed5-5bbf-4ebf-a222-17bd41b6e38e{fill:#fff;}.b6aa84bb-4e37-4e46-a57e-b03e6134105c{stroke:#fff;stroke-miterlimit:10;stroke-width:0.82222px;}.e4223e6f-7117-4a25-8441-a268a9975a00{fill:#63774e;}.a9739ee2-ae97-452a-8d1c-a9242d79b40e{fill:#a97c50;}.bcea732a-fe1e-4b4b-824b-3def09c2493e{fill:#dbae95;}.fd38b8ed-ecde-442e-9a9b-6237140461d4{fill:#6f825a;}.b742b65c-21b6-49fe-b799-d3c50353dd9a{fill:#566345;}.ab55dee5-0478-4ed3-95c0-5c6bcf4b76b6{fill:#938c6c;}.a6d415b9-45e1-4d3a-8ab3-5df41fe415de{clip-path:url(#f22d359b-9607-4b07-9547-8ddaf820690b);}.a5e99308-ebbe-4d7b-a9ee-20889bb552e1{fill:#b0ceb2;}.b0fc3922-8108-492e-b245-2b3862bca0ef{clip-path:url(#ef49cfea-78ff-413c-a8aa-05c3a4b214c9);}.a1adf5fd-ff75-4aa6-92a1-b722b1fba20b{fill:#eaccca;}</style><clipPath id="f22d359b-9607-4b07-9547-8ddaf820690b"><rect class="b3123b2a-7064-4f5a-bb11-94ca1d0b1d4e" x="-1.08387" y="-666.40325" width="256.56218" height="76.74475"/></clipPath><clipPath id="ef49cfea-78ff-413c-a8aa-05c3a4b214c9"><rect class="b3123b2a-7064-4f5a-bb11-94ca1d0b1d4e" x="-2.12247" y="-463.11299" width="257.32736" height="76.74475"/></clipPath></defs><title>Artboard 166 copy</title><ellipse class="b6aabac1-7863-42f3-826d-9acea66632a9" cx="71.77445" cy="49.44578" rx="42.24542" ry="54.30551" transform="translate(9.90891 110.83887) rotate(-79.34354)"/><ellipse class="b2d5b8f8-784d-4e4f-86e6-a7437c602a0f" cx="68.16597" cy="46.43096" rx="42.24542" ry="54.30551" transform="translate(9.93053 104.83531) rotate(-79.34354)"/><path class="ac86c3e8-d4e2-4724-aad6-eb58a802af79" d="M114.46277,27.98254,94.77722,85.35168q1.544-.57971,3.02881-1.23828l18.375-53.5481C115.639,29.6925,115.07166,28.82922,114.46277,27.98254Z"/><path class="ac86c3e8-d4e2-4724-aad6-eb58a802af79" d="M75.97791,4.91418C46.5033-.632,19.1117,13.45959,14.79724,36.38879s16.082,46.01294,45.55664,51.55908a66.17231,66.17231,0,0,0,28.1377-.6438l22.00683-64.1333C102.26013,14.33557,90.17859,7.5863,75.97791,4.91418Z"/><path class="ac86c3e8-d4e2-4724-aad6-eb58a802af79" d="M101.18494,82.45056c10.645-5.72583,18.24609-14.7959,20.3501-25.9773a35.35526,35.35526,0,0,0-3.60254-22.83007Z"/><path class="ba840ed5-5bbf-4ebf-a222-17bd41b6e38e" d="M110.49841,23.17077,88.49158,87.30407a57.2564,57.2564,0,0,0,6.28564-1.95239l19.68555-57.36914A49.08217,49.08217,0,0,0,110.49841,23.17077Z"/><path class="ba840ed5-5bbf-4ebf-a222-17bd41b6e38e" d="M116.181,30.5653,97.806,84.1134q1.7373-.77563,3.37891-1.66284L117.9325,33.64319C117.39929,32.6007,116.808,31.57654,116.181,30.5653Z"/><line class="b6aa84bb-4e37-4e46-a57e-b03e6134105c" x1="42.6103" y1="22.44584" x2="101.91544" y2="78.03061"/><line class="b6aa84bb-4e37-4e46-a57e-b03e6134105c" x1="36.83867" y1="57.08866" x2="112.12297" y2="29.25478"/><line class="b6aa84bb-4e37-4e46-a57e-b03e6134105c" x1="39.26493" y1="41.46643" x2="100.56093" y2="51.12755"/><line class="b6aa84bb-4e37-4e46-a57e-b03e6134105c" x1="62.58925" y1="6.3502" x2="71.98869" y2="74.56089"/><line class="b6aa84bb-4e37-4e46-a57e-b03e6134105c" x1="84.9387" y1="21.11642" x2="46.97334" y2="73.73867"/><polygon class="b6aa84bb-4e37-4e46-a57e-b03e6134105c" points="46.973 25.912 63.766 19.255 82.904 23.937 94.428 36.107 96.706 50.52 90.998 66.38 71.435 70.543 49.279 70.543 41.381 55.434 42.61 41.994 46.973 25.912"/><polygon class="b6aa84bb-4e37-4e46-a57e-b03e6134105c" points="53.323 31.374 65.285 26.632 78.916 29.967 87.125 38.637 88.748 48.903 84.682 60.2 70.747 63.165 54.965 63.165 49.339 52.403 50.215 42.829 53.323 31.374"/><polygon class="b6aa84bb-4e37-4e46-a57e-b03e6134105c" points="59.431 36.63 66.745 33.73 75.08 35.769 80.099 41.07 81.092 47.347 78.605 54.255 70.085 56.068 60.435 56.068 56.996 49.487 57.531 43.634 59.431 36.63"/><polygon class="b6aa84bb-4e37-4e46-a57e-b03e6134105c" points="63.894 40.469 67.812 38.915 72.278 40.008 74.966 42.848 75.498 46.21 74.166 49.911 69.601 50.882 64.432 50.882 62.589 47.357 62.876 44.221 63.894 40.469"/><polyline class="b6aa84bb-4e37-4e46-a57e-b03e6134105c" points="68.671 43.664 73.148 43.664 73.148 46.807 79.731 51.128 85.544 57.806 87.623 70.543"/><polyline class="b6aa84bb-4e37-4e46-a57e-b03e6134105c" points="68.671 44.899 74.166 49.911 74.166 55.199 78.884 61.434 84.123 78.031"/><polyline class="b6aa84bb-4e37-4e46-a57e-b03e6134105c" points="67.289 45.883 56.996 55.005 61.123 61.465 60.873 79.755"/><polyline class="b6aa84bb-4e37-4e46-a57e-b03e6134105c" points="66.566 44.899 62.142 33.73 55.248 23.505 55.248 15.13"/><ellipse class="b3123b2a-7064-4f5a-bb11-94ca1d0b1d4e" cx="68.16597" cy="46.43096" rx="42.24542" ry="54.30551" transform="translate(9.93053 104.83531) rotate(-79.34354)"/><path class="e4223e6f-7117-4a25-8441-a268a9975a00" d="M16.08241,97.29009c-.31709-3.00734-2.86524-4.17967-5.43923-3.19884C6.614,95.62658,3.418,96.54879.14171,99.59544c-3.24388,3.01648-4.55209,6.80431-7.05031,10.21505-2.62492,3.58375-5.956,6.835-8.87415,10.196-2.27254,2.61745-4.28109,5.0469-7.75149,6.01311-1.77849.49515-3.2977.05288-5.03271-.05276a34.10075,34.10075,0,0,0-13.6489,2.26533c-5.91732,2.23575-11.95,4.53691-16.84671,8.54141-1.25132,1.02333-2.40731,2.15464-3.63692,3.20273-1.17774,1.00386-3.4009,1.71012-2.31106,3.30715A22.60029,22.60029,0,0,1-62.088,147.8508c-.93822-2.48847,17.79315-6.60129,19.54859-6.95312,4.7761-.95725,9.42687-1.08,14.20786-1.6647,4.02521-.49228,8.25641.02379,12.18128-1.24678A30.07833,30.07833,0,0,0-9.6114,134.618c5.921-3.70142,11.838-7.48919,16.987-12.20588a2.2941,2.2941,0,0,1,.72606-.5115,2.25174,2.25174,0,0,1,.8822-.07491c3.84273.18345,5.85779-.15725,9.24655-2.06091a91.81969,91.81969,0,0,0,12.54452-8.47685,18.04114,18.04114,0,0,0-8.51-3.61449"/><path class="a9739ee2-ae97-452a-8d1c-a9242d79b40e" d="M36.86464,42.31222a12.71643,12.71643,0,0,1,2.36178-1.95987c2.77205-1.78007,6.598-3.23331,6.87213-7.03831.238-3.30336-3.79551-6.48267-6.796-6.67972a10.35474,10.35474,0,0,0-8.26453,3.37393,11.2567,11.2567,0,0,0-2.29538,3.87325c-.52414,1.55321-.85823,3.34279-2.55855,4.08573-1.38162.60368-3.04429.06206-4.45383.59734-1.93628.73532-2.77067,3.23393-4.723,3.92548-1.25068.443-2.7381.04454-3.88475.712-1.27265.74084-2.24785,2.4377-3.10818,3.58813.33349-.44593,3.24206.046,3.7395.27516a15.60088,15.60088,0,0,1,2.33139,1.87782c1.8746,1.38527,4.26535,2.95752,6.71029,2.28487,1.87856-.51683,3.22961-2.28049,5.12062-2.74969,1.40983-.3498,2.96576.06625,4.30775-.48966,1.76625-.73166,2.29551-2.76706,3.36515-4.16909A17.95662,17.95662,0,0,1,36.86464,42.31222Z"/><path class="bcea732a-fe1e-4b4b-824b-3def09c2493e" d="M35.976,73.47465a.93739.93739,0,0,1-.591.13484.864.864,0,0,1-.44982-.33642,6.88381,6.88381,0,0,1-1.26767-3.055c-.39611-1.99573-.79033-4.72513.07209-6.64346.50227-1.11724,1.40325-1.278,2.13383-2.05078.41359-.43746.70614-1.16222,1.12151-1.65117.45966-.54108.92315-1.079,1.38471-1.61844A14.53468,14.53468,0,0,0,40.5497,55.227a4.402,4.402,0,0,0,.48324-3.18286c-.3156-.74323-1.09155-1.10434-1.133-2.03374-.17079-3.83341,2.685-8.18914,5.22892-10.83777A9.9665,9.9665,0,0,1,49.983,36.16386a9.96624,9.96624,0,0,1,4.439.17162,12.64326,12.64326,0,0,1,6.882,3.97213c3.35592,4.03283,2.553,8.06836.72886,12.12267-.41416.92053-.881,1.842-1.36369,2.76467-1.588,3.03514-4.74473,9.584-9.168,7.53365l-3.36593-1.5603c-1.06342-.493-3.35839.9479-1.94979,1.457.3192.20781.24233.32887.247.70972a3.06279,3.06279,0,0,1-.25478,1.10824,14.48443,14.48443,0,0,1-2.91208,4.84866c-1.08765,1.12844-2.69714,1.06238-3.92073,1.8898A26.76,26.76,0,0,1,35.976,73.47465Z"/><path class="ba840ed5-5bbf-4ebf-a222-17bd41b6e38e" d="M45.71767,64.07922c-.48667-.18161-.85742.439-1.12237.72017-.46475.49314-1.04783.91309-1.55909,1.35855a2.22633,2.22633,0,0,1-1.81579.7772,2.07667,2.07667,0,0,1-1.15112-1.03009,26.4785,26.4785,0,0,1-1.79675-3.73293c-.08418-.19147-1.11512-2.80846-1.30726-2.65185-1.2937,1.05452-1.6831,3.05885-2.39908,4.50366q-1.18473,2.39075-2.33106,4.80027-2.27107,4.76877-4.42049,9.59415-2.159,4.82344-4.24887,9.6774c-.37136.85779-4.42939,9.45122-4.15972,9.64349a41.7429,41.7429,0,0,0,12.83232,6.16123q2.04156-4.177,3.92319-8.42964Q41.11217,84.28239,44.92946,72.637a29.06322,29.06322,0,0,0,1.37363-5.51,5.29622,5.29622,0,0,0-.16029-2.62349A.89647.89647,0,0,0,45.71767,64.07922Z"/><path class="e4223e6f-7117-4a25-8441-a268a9975a00" d="M35.89243,56.91726A3.34365,3.34365,0,0,1,38.50618,58.414a3.44254,3.44254,0,0,1,.11528,1.80855c-1.09728,2.3731-.45389,4.87646.05749,7.25876a25.677,25.677,0,0,1,.31359,6.11075A62.65568,62.65568,0,0,0,42.9,67.555a20.907,20.907,0,0,0,2.72648-5.29059c.052-.20745,1.51391,1.36235,1.61365,1.60285a7.19686,7.19686,0,0,1,.34007,2.63987,13.81216,13.81216,0,0,1-.59572,3.35562c-1.21893,4.29185,1.35355,8.63626-1.21817,12.71962-1.04925,1.666-2.63371,2.80687-3.65982,4.46728-1.227,1.98546-2.90973,3.62508-4.02477,5.70525-1.27164,2.37231-1.40956,4.85032-2.27955,7.32237-.78127,2.21993-3.04159,10.05554-5.93,10.66683-1.34355.28435-4.3995-2.343-5.67907-2.9574-2.34028-1.12366-4.77611-2.03757-7.04586-3.3078a70.75145,70.75145,0,0,1-8.61711-5.76428c1.22746-1.64212,2.037-3.67945,3.30947-5.251,1.06066-1.30993,2.51221-2.29179,3.538-3.7105A20.90943,20.90943,0,0,0,19.30839,78.873,37.8959,37.8959,0,0,1,23.46758,63.185a17.30757,17.30757,0,0,1,4.84566-5.85854C30.59876,55.70769,33.2054,56.403,35.89243,56.91726Z"/><path class="a9739ee2-ae97-452a-8d1c-a9242d79b40e" d="M41.95744,53.67425a8.21738,8.21738,0,0,0,4.26416-.965c1.18056-.73026,2.54138-2.57126,2.13922-4.0312a4.39867,4.39867,0,0,1,.20873-3.25732,1.614,1.614,0,0,1,1.9176-.83676c1.07183.46723.89407,1.73362,1.16159,2.645.6175,2.1036,2.59763.94125,3.998.85865a5.12134,5.12134,0,0,1,1.44671.1925c1.155.26774,2.28987.63616,3.428.96632a8.35161,8.35161,0,0,1,1.68069.45636,1.15638,1.15638,0,0,1,.47928.62425c.04754.135.00739.86664.05894.90793.47934.38383,2.1007-1.62789,2.3823-1.9901a9.75352,9.75352,0,0,0,1.53526-2.80733,7.33191,7.33191,0,0,0-.54223-6.16923c-.83264-1.39315-4.21433-3.1798-5.00506-4.62428-1.58025-2.88672-6.33366-4.82719-9.52635-4.85852-4.99356-.049-9.15522,3.19542-11.93787,7.08783a16.11868,16.11868,0,0,0-2.8346,5.78912,10.3122,10.3122,0,0,0,1.34514,6.288c.367.62191.8301,1.18844,1.13566,1.84274a4.93553,4.93553,0,0,0,.63093,1.21994,2.11784,2.11784,0,0,0,1.50288.6459C41.59983,53.6676,41.77723,53.67283,41.95744,53.67425Z"/><path class="fd38b8ed-ecde-442e-9a9b-6237140461d4" d="M37.75407,76.52084q.05988-.18345.11824-.36588a16.81085,16.81085,0,0,1,2.95551-5.33712,1.60088,1.60088,0,0,1,.81678-.68816c-1.55915,3.2116-2.17026,6.65739-3.45061,9.93987-3.70214,9.49126-8.9521,18.22691-12.19962,27.89773a.38948.38948,0,0,1-.141.22379.37436.37436,0,0,1-.29038.00513,3.00748,3.00748,0,0,1-1.16436-.62148.50767.50767,0,0,1-.19224-.27267.538.538,0,0,1,.052-.28408c.74672-1.93592,1.92617-3.79418,2.81782-5.67993,1.39514-2.95059,2.79039-5.90144,4.12489-8.88017,1.347-3.00672,2.63155-6.041,3.88442-9.0881a40.42935,40.42935,0,0,0,3.32308-10.928,7.01017,7.01017,0,0,1,.49048-1.901,5.27019,5.27019,0,0,1,.41652,3.16869,13.06378,13.06378,0,0,1,2.057-3.21585"/><path class="b742b65c-21b6-49fe-b799-d3c50353dd9a" d="M35.02241,84.30262a30.73737,30.73737,0,0,1-4.5745-2.07606,16.22816,16.22816,0,0,1-3.24159-1.7541,26.43314,26.43314,0,0,1,2.04112,2.39467A31.78334,31.78334,0,0,0,31.913,85.578a28.11351,28.11351,0,0,0,6.14183,3.67412,2.80366,2.80366,0,0,0,.96428.32531c.92315.07532,1.65452-.73213,2.20537-1.47674.46623-.63024.85908-1.33521,1.35993-1.93564.50034-.59982,1.07295-1.158,1.60118-1.73553a1.5934,1.5934,0,0,0,.26856-.3553c-1.6591.5829-3.35231,1.40149-5.15491,1.09012a36.12368,36.12368,0,0,1-4.18631-.83361Q35.06715,84.31709,35.02241,84.30262Z"/><path class="bcea732a-fe1e-4b4b-824b-3def09c2493e" d="M63.35921,88.3947c.91718-2.06258,2.90038-2.61121,4.85006-3.97842,1.54635-1.08457,3.40569-1.81872,2.311.76379.01251-.02957,1.91119-.36621,2.1676-.46749a5.40618,5.40618,0,0,1,2.37242-.80726,2.39546,2.39546,0,0,1,2.03856,1.62292,3.2853,3.2853,0,0,1-1.12272,3.70305c-1.8886,1.37065-12.191,5.78464-13.04145,1.65713a2.9291,2.9291,0,0,1,.011-1.05584A5.78927,5.78927,0,0,1,63.35921,88.3947Z"/><path class="fd38b8ed-ecde-442e-9a9b-6237140461d4" d="M33.71431,85.089a33.3042,33.3042,0,0,1-3.1397-6.69828C28.55079,72.5994,22.99035,63.6522,28.38987,58.0906c5.455-5.61831,7.03986,7.741,7.76956,10.14777,1.18635,3.913,3.00647,7.82888,4.25529,11.82338,1.16141,3.7149,7.99225,3.58024,11.44984,4.48748,1.83834.48237,3.87272,1.43549,5.75581,1.61705,1.89209.18242,4.11239-.38222,6.006-.569a1.11586,1.11586,0,0,1,1.01966.24392,1.15087,1.15087,0,0,1,.07138.93379A17.46673,17.46673,0,0,0,64.64,92.32391c-5.45627,1.04-12.00634.48763-17.56816.2343-2.33432-.10632-5.599.23571-7.69039-.93989C37.11034,90.34173,35.05833,87.24462,33.71431,85.089Z"/><path class="ab55dee5-0478-4ed3-95c0-5c6bcf4b76b6" d="M12.10629,92.49865a14.19579,14.19579,0,0,1-1.49346,1.246c-.22709.13415-1.12408.38447-.98992.74928a12.7537,12.7537,0,0,0,.51468,1.27791,18.46335,18.46335,0,0,0,2.52141,3.483q1.64862,1.98117,3.49258,3.812a55.30074,55.30074,0,0,0,7.82168,6.45514,25.58192,25.58192,0,0,0,2.9558,1.88024,5.67306,5.67306,0,0,0,3.24585.65884,1.86471,1.86471,0,0,0,.93347-.96421c.49324-.86172,1.03109-1.72015,1.53794-2.55043-.18873-.1202-2.41172-1.41132-2.44011-1.37274-.79519-.38278-1.67331-.52675-2.45577-.94433a25.99759,25.99759,0,0,1-3.28321-2.124A40.84233,40.84233,0,0,1,14.29932,92.61c-.20819-.32962-.27758-.958-.70168-1.07986C13.17132,91.40766,12.366,92.28448,12.10629,92.49865Z"/><rect class="b3123b2a-7064-4f5a-bb11-94ca1d0b1d4e" x="-3.24122" y="0.00392" width="130.18525" height="94.4406"/><g class="a6d415b9-45e1-4d3a-8ab3-5df41fe415de"><polygon class="a5e99308-ebbe-4d7b-a9ee-20889bb552e1" points="200.765 77.978 -1.974 77.978 -1.847 -624.532 7.065 -631.079 27.896 -649.42 233.071 -649.42 233.522 52.078 200.765 77.978"/></g><g class="b0fc3922-8108-492e-b245-2b3862bca0ef"><polygon class="a1adf5fd-ff75-4aa6-92a1-b722b1fba20b" points="200.491 2286.304 -2.247 2286.304 -2.121 -421.242 6.792 -427.788 27.623 -446.129 232.797 -446.129 233.249 2260.405 200.491 2286.304"/></g></svg>