<svg id="b0e73bb7-b41f-48f9-9981-ba1e515bf6fc" data-name="Layer 1" xmlns="http://www.w3.org/2000/svg" xmlns:xlink="http://www.w3.org/1999/xlink" viewBox="0 0 103.29065 104.16235"><defs><style>.b56912b3-b9d2-4b7f-8bee-7ece4af1af3f{fill:none;}.b2f5bba9-ac49-4b70-b8bc-c4f99180e0d2{clip-path:url(#a2e588d6-cd33-4b41-bd07-65c321e05aee);}.aa62b3e1-2941-4102-a8a4-2cc6501ab952{fill:#1a242d;}.a6b5904c-0470-43cd-aad5-2cad5506f43e{fill:#566345;}.b1a613c6-9054-4a4b-8742-1a025dadfbd6{fill:#63774e;}.e876e080-d76d-4e05-a5e4-e8dfcfd0cd35{clip-path:url(#b0c40276-6263-42bf-b51e-0256e2f6427f);}.ed22ca87-15ea-458a-896b-8ce4575dfe1b{fill:#3c2415;}.b956a4b1-64bb-441c-b2e4-97786256bed2{fill:#dbae95;}.fde85c16-16cb-45b4-9526-ffbd477c4a61{fill:#fff;}.a2c2b901-175e-4ad6-8e24-41856a297f97{fill:#6f825a;}</style><clipPath id="a2e588d6-cd33-4b41-bd07-65c321e05aee"><rect class="b56912b3-b9d2-4b7f-8bee-7ece4af1af3f" x="19.99388" y="-133.82473" width="128.987" height="79.98967" transform="translate(168.97475 -187.6598) rotate(-180)"/></clipPath><clipPath id="b0c40276-6263-42bf-b51e-0256e2f6427f"><rect class="b56912b3-b9d2-4b7f-8bee-7ece4af1af3f" y="0.00001" width="104.5" height="104.16235"/></clipPath></defs><title>Artboard 159</title><g class="b2f5bba9-ac49-4b70-b8bc-c4f99180e0d2"><path class="aa62b3e1-2941-4102-a8a4-2cc6501ab952" d="M6.38544,101.88826c-2.01153-1.52561-3.75311-2.99769-6.30277-3.19549-3.32415-.25788-5.55807,1.86264-7.40142,4.00258a5.38694,5.38694,0,0,0-1.486,3.01843,7.21143,7.21143,0,0,0,.731,3.21559,33.33534,33.33534,0,0,0,9.696,12.87921c2.7878,2.27162,6.09579,4.15677,9.50323,4.44249s6.83709-1.39351,7.56293-4.47179c.79158-3.35705-1.63343-7.01739-3.92243-10.1397-1.1584-1.58012-2.53016-2.96394-3.05087-4.82123a5.65745,5.65745,0,0,0-.41335-1.23834c-.39815-.7269-1.56724-1.0575-2.23507-1.56181C8.15651,103.33085,7.29494,102.57806,6.38544,101.88826Z"/><path class="a6b5904c-0470-43cd-aad5-2cad5506f43e" d="M78.3954-48.61978c2.98269-.12456,1.25282,16.4526,1.15345,18.2104-.52576,9.29989,1.2616,16.23171,5.37228,24.71467,5.07134,10.46533,10.26117,20.8701,15.4325,31.286,4.86819,9.80535,3.17672,17.31219,2.33973,27.99405a87.5082,87.5082,0,0,0,9.77185,47.28018c1.036,1.96557,2.5901,6.245,4.35853,7.562,3.64826,2.71661,15.8644.60353,19.79886-.80945a140.223,140.223,0,0,1-4.6007-15.17862,129.58829,129.58829,0,0,1-3.43853-39.34018c.4925-7.40366.95056-13.698-.20929-21.11519Q125.293,12.28091,121.22894-7.24545c-2.90812-13.96414-4.1456-27.576-6.21773-41.74145a6.59162,6.59162,0,0,0-1.1818-3.42542c-3.17193-3.70768-11.565.88574-14.89627,1.90442C92.34412-48.49384,85.2058-48.90419,78.3954-48.61978Z"/><path class="b1a613c6-9054-4a4b-8742-1a025dadfbd6" d="M74.73967-60.1894c-3.91529-4.29315-9.19383-3.20582-12.06051,1.24323-4.48736,6.9643-8.38332,12.03085-9.98451,20.47677-1.58534,8.36228.70336,15.71411.721,23.83745.01852,8.53537-1.43447,17.36034-2.12331,25.88488-.53645,6.63864-.87844,12.68572-5.14906,18.13289-2.1886,2.79154-5.04339,3.837-7.84882,5.64926A65.52209,65.52209,0,0,0,19.7507,54.0834C13.13884,64.28173,6.42285,74.71272,3.40471,86.48615c-.77127,3.00865-1.272,6.07585-1.98153,9.0981-.67956,2.89473-3.31593,6.51933.18932,7.74989,3.28785,1.15424,6.75606,1.81334,9.72395,3.74046-4.2857-2.78282,20.02-30.47792,22.33612-33.0214C39.97411,67.13305,47.032,61.64711,53.76534,55.29794c5.66894-5.3455,12.80489-9.365,17.43226-15.80075,2.75749-3.8351,4.542-8.26826,6.28417-12.65875C82.43031,14.36763,87.27445,1.76764,89.872-11.39527a4.40767,4.40767,0,0,1,.54121-1.61838,4.32636,4.32636,0,0,1,1.28-1.12052c6.156-4.09193,8.88658-6.91383,11.96334-13.71886a176.42445,176.42445,0,0,0,9.76133-27.4038A34.66453,34.66453,0,0,0,96.1316-51.16"/></g><g class="e876e080-d76d-4e05-a5e4-e8dfcfd0cd35"><path class="ed22ca87-15ea-458a-896b-8ce4575dfe1b" d="M35.76187,45.659a19.96717,19.96717,0,0,1,2.07438-4.34955c2.7776-4.36366,7.27254-8.95606,5.15575-14.55949-1.83772-4.86468-9.68129-6.73768-14.08729-5.04123a16.25854,16.25854,0,0,0-9.555,10.25471,17.67474,17.67474,0,0,0-.71886,7.03268c.27657,2.559.97976,5.32962-.95388,7.50892-1.57123,1.77084-4.29774,2.09463-5.95383,3.78638-2.275,2.32394-1.81753,6.43476-4.14422,8.70691-1.49049,1.45555-3.8729,1.86788-5.06719,3.57481-1.32554,1.8945-1.59714,4.95545-2.06513,7.162.18141-.85531,4.65082-2.0709,5.51076-2.07218,1.49018-.00221,3.09736.83833,4.56009,1.13985,3.58452.73889,8.02784,1.40412,11.069-1.16573,2.33667-1.97452,3.09991-5.37838,5.48573-7.29323,1.77873-1.4276,4.27035-1.86,5.81658-3.53664,2.035-2.20668,1.448-5.45626,2.04851-8.15928A28.19289,28.19289,0,0,1,35.76187,45.659Z"/><path class="a6b5904c-0470-43cd-aad5-2cad5506f43e" d="M86.80876,46.79678c.57028-.87459.27273-2.14481-.72409-4.65776q-2.32175-5.853-5.06008-11.52928-1.41045-2.9106-2.94057-5.76117c-.88865-1.65358-2.36588-3.2856-1.76829-5.27761a4.42422,4.42422,0,0,0,2.6929-.27025c1.77872-.64082,3.3283-1.44348,5.03723-2.24046.83773-.39068,2.944-1.644,3.92136-1.146C91.01843,17.469,94.12755,26.42361,95.54975,29.469c3.23293,6.92284,13.42271,22.86846,3.82925,28.58084-6.26383,3.72977-14.216,5.41778-19.77961,9.86711a7.65027,7.65027,0,0,1-2.59,1.62785,8.57166,8.57166,0,0,1-3.58614-.04468q-7.25848-1.112-14.50892-2.276c-4.06971-.65431-8.06175.07521-12.19987-.33653-.74366-.074-1.69144-.389-1.68451-1.13631a1.56414,1.56414,0,0,1,.453-.915c2.04938-2.51556,4.34092-3.5219,7.24307-4.74453C58.6944,57.5775,64.736,55.232,70.86589,53.14027c3.749-1.27928,7.49784-2.56283,11.20376-3.96325C84.70154,48.18246,86.21908,47.70112,86.80876,46.79678Z"/><path class="b956a4b1-64bb-441c-b2e4-97786256bed2" d="M75.24313,29.78775C75.171,22.80759,73.656,16.52713,66.2156,12.9912a19.8518,19.8518,0,0,0-12.42569-1.12573,15.64854,15.64854,0,0,0-6.43949,2.68072A15.64906,15.64906,0,0,0,42.41529,22.033c-1.88,5.45116-3.07966,13.54078-.31006,18.8915.67148,1.29726,2.01532,1.30056,2.95488,2.15181,1.18374,1.07248,1.43421,3.369,1.4088,4.85456a22.82157,22.82157,0,0,1-1.09777,5.74435c-.3023,1.073-.60838,2.145-.90691,3.21907-.26976.97056-.20908,2.19625-.51023,3.09226-.532,1.58275-1.71005,2.40564-1.68962,4.32889.03509,3.30228,2.39558,6.93234,4.27527,9.51557a10.80861,10.80861,0,0,0,3.8199,3.51856,1.35662,1.35662,0,0,0,.86278.183,1.47193,1.47193,0,0,0,.75341-.58165,32.92863,32.92863,0,0,0,5.058-8.52739,11.66782,11.66782,0,0,0,1.06956-5.98481c-.2242-1.53729-1.0229-2.85646-1.00892-4.43873.02089-2.36335,1.1531-6.60346,4.09992-6.60065l5.826.00555c7.655.0073,7.83828-11.40631,8.10125-16.77836C75.20148,32.9935,75.2595,31.37259,75.24313,29.78775Z"/><path class="fde85c16-16cb-45b4-9526-ffbd477c4a61" d="M58.63413,57.14114c-.81326.06188-.93264,1.19075-1.125,1.766-.33738,1.00907-.89163,1.99182-1.32669,2.9636-.43958.98187-1.02253,2.08457-2.07564,2.30423a3.26073,3.26073,0,0,1-2.31937-.70946,41.57668,41.57668,0,0,1-5.02065-4.136c-.24616-.21741-3.44-3.26768-3.61062-2.91787-1.14883,2.35542-.383,5.46854-.45121,7.99947q-.113,4.188-.15881,8.37736c-.06271,5.52862-.04518,11.05789.02255,16.58638.06777,5.53133.18624,11.06189.322,16.59192.036,1.46722-.08433,16.38854.4267,16.48485a65.54314,65.54314,0,0,0,22.34846.32436q.157-7.29828.03613-14.599-.31771-19.20785-2.55168-38.32011a45.634,45.634,0,0,0-1.6734-8.75787c-.33423-1.03547-1.0496-2.99533-1.95731-3.6333A1.40757,1.40757,0,0,0,58.63413,57.14114Z"/><path class="b1a613c6-9054-4a4b-8742-1a025dadfbd6" d="M26.12394,58.69586a60.67709,60.67709,0,0,1,13.78786-5.287c1.59331-.39671,3.47182-.66608,4.7114.4107a5.40538,5.40538,0,0,1,1.35612,2.50152c.00006,4.10519,2.5667,7.24889,4.86542,10.30709a40.31679,40.31679,0,0,1,4.47388,8.5022,98.37822,98.37822,0,0,0,1.59037-11.179c.3361-2.93607.95546-6.40519.39922-9.33673-.0626-.32991,3.05537.94393,3.356,1.221a11.30038,11.30038,0,0,1,2.22432,3.53816,21.688,21.688,0,0,1,1.36233,5.1749C65.342,71.46863,71.87116,75.9649,70.897,83.47913c-.39748,3.0658-1.90378,5.73587-2.272,8.77843-.44025,3.63821-1.75795,7.08386-1.97625,10.78326-.249,4.21914,1.1876,7.84175,1.5767,11.93838q.72247,7.60653.96129,15.24885c.04186,1.3355-.01893,2.8779-1.06948,3.70354-.99508.78206-2.41674.5543-3.66126.32413-6.76047-1.25033-13.21043-.19247-19.91637-.71049a111.106,111.106,0,0,1-16.07949-2.53634c3.11562-14.706-.289-29.03425-.83966-43.69289L26.56032,59.09494"/><path class="ed22ca87-15ea-458a-896b-8ce4575dfe1b" d="M47.45195,44.79025A12.90247,12.90247,0,0,0,52.89319,40.605c1.20126-1.81873,1.92746-5.33924.39222-7.15488a6.90655,6.90655,0,0,1-1.84909-4.77979,2.53425,2.53425,0,0,1,2.18149-2.45622c1.83544-.04043,2.41665,1.88153,3.39847,3.004,2.26631,2.59105,4.32235-.37039,6.26364-1.41092a8.04117,8.04117,0,0,1,2.18867-.679c1.82258-.37959,3.68268-.60238,5.52231-.88187a13.11461,13.11461,0,0,1,2.696-.45719,1.81584,1.81584,0,0,1,1.09444.57382c.15673.16111.58164,1.23025.68232,1.25511.93608.23116,1.92108-3.70436,2.08372-4.40615a15.31412,15.31412,0,0,0,.338-5.01265A11.51224,11.51224,0,0,0,73.0471,9.76437C70.94237,8.3276,64.9455,8.00984,62.86666,6.4723,58.7122,3.39962,50.659,3.7666,46.08826,5.82591c-7.149,3.22089-10.942,10.58726-12.34266,17.96836-.59419,3.13117-.99377,6.986-.22478,10.11847.72492,2.953,3.56967,6.35414,6.06084,8.07508.9329.64446,1.96621,1.1467,2.83287,1.87782a7.74945,7.74945,0,0,0,1.70311,1.32285,3.32536,3.32536,0,0,0,2.56752-.06988C46.93791,45.01645,47.19418,44.907,47.45195,44.79025Z"/><path class="a2c2b901-175e-4ad6-8e24-41856a297f97" d="M55.48362,80.12053q-.03555-.30092-.07259-.59935a26.39543,26.39543,0,0,1,.695-9.554,2.51366,2.51366,0,0,1,.71055-1.519c-.10562,5.60454,1.29421,10.91809,1.63262,16.43993.97852,15.96636-.74681,31.87584.99794,47.79851a.61157.61157,0,0,1-.0535.41186.58781.58781,0,0,1-.41045.19867,4.72223,4.72223,0,0,1-2.069-.11841.79711.79711,0,0,1-.45367-.26191.84494.84494,0,0,1-.11307-.43915c-.21155-3.2511.24478-6.67668.27283-9.95179.04388-5.12449.08777-10.24941.02667-15.374-.06167-5.17277-.2306-10.34367-.453-15.51191a63.48045,63.48045,0,0,0-2.46558-17.76419,11.007,11.007,0,0,1-.55371-3.03245,8.275,8.275,0,0,1,2.68176,4.24145,20.51212,20.51212,0,0,1,.81231-5.93867"/><path class="a6b5904c-0470-43cd-aad5-2cad5506f43e" d="M56.7187,93.011a48.263,48.263,0,0,1-7.88755.05584c-1.92213-.08546-3.89558.15954-5.77578-.3637a41.50181,41.50181,0,0,1,4.487,2.06772,49.90476,49.90476,0,0,0,5.58536,2.10681,44.14112,44.14112,0,0,0,11.17439,1.18881,4.40182,4.40182,0,0,0,1.58864-.17183c1.36528-.501,1.87551-2.13373,2.16985-3.55793.24914-1.20544.34445-2.469.66256-3.65481.31779-1.18456.766-2.35744,1.13826-3.52859A2.5029,2.5029,0,0,0,70.01,86.47c-1.98037,1.92408-3.854,4.20653-6.62823,4.95067a56.71825,56.71825,0,0,1-6.51556,1.57072Q56.792,93.00217,56.7187,93.011Z"/><path class="b956a4b1-64bb-441c-b2e4-97786256bed2" d="M81.78772,72.99193c-2.00318-2.92394-1.1046-6.02737-1.3282-9.75966-.1776-2.96035.371-6.05083,2.92329-2.46159-.02924-.04106,1.08324-2.857,1.15886-3.28321.233-1.31348.04729-2.69615.87307-3.83673a3.7612,3.7612,0,0,1,3.84788-1.39022,5.1584,5.1584,0,0,1,4.02761,4.54891C93.5687,60.46289,90.992,77.87174,84.77286,75.612A4.59915,4.59915,0,0,1,83.37,74.72836,9.09006,9.09006,0,0,1,81.78772,72.99193Z"/><path class="a2c2b901-175e-4ad6-8e24-41856a297f97" d="M41.76071,70.19732c-3.16794-3.64679-5.66542-9.23328-10.2079-11.41753-6.10772-2.9369-7.74139,4.33616-7.53415,9.14945.47357,10.9991,11.3366,18.63038,19.11647,24.60358,4.21375,3.23521,8.54645,6.3151,13.00468,9.18148,8.327,5.35378,18.24036-8.30046,23.08625-14.06621,3.50679-4.17245,5.96021-9.24331,9.79179-13.10245a29.95,29.95,0,0,0-5.8642-6.12815,2.28672,2.28672,0,0,0-1.91116-.70443,2.7995,2.7995,0,0,0-1.13962.77951c-1.8566,1.7839-19.39979,21.17033-21.08076,19.7984C52.58945,83.04092,47.23832,76.5008,41.76071,70.19732Z"/><path class="b956a4b1-64bb-441c-b2e4-97786256bed2" d="M81.36641,22.63965c-3.49246-.60406-5.08952-3.41264-7.91994-5.85573-2.24519-1.93762-4.07711-4.48636.27512-3.81174-.04982-.00769-1.29167-2.769-1.54435-3.12048-.77867-1.08314-1.899-1.91449-2.14032-3.30179a3.76123,3.76123,0,0,1,1.68775-3.727,5.15843,5.15843,0,0,1,6.06894.28685C80.60582,5.45856,91.28325,19.44783,85.326,22.32809a4.599,4.599,0,0,1-1.61167.3889A9.0898,9.0898,0,0,1,81.36641,22.63965Z"/><path class="a6b5904c-0470-43cd-aad5-2cad5506f43e" d="M89.41109,16.394,76.49486,18.21377c-1.14409.16119-2.586.63245-2.62308,1.78725a2.553,2.553,0,0,0,1.07473,1.77679A118.04909,118.04909,0,0,1,84.51573,31.721a7.27455,7.27455,0,0,1,5.5922-4.30719,2.08115,2.08115,0,0,0,1.326-.46563c.47263-.52773.18284-1.35032-.08673-2.00545a16.29,16.29,0,0,1-1.15164-7.65324"/></g></svg>