<svg xmlns="http://www.w3.org/2000/svg" xmlns:xlink="http://www.w3.org/1999/xlink" viewBox="0 0 125.34919 94.4406"><defs><style>.b53f5a6c-4537-4965-980d-0164a897af23{fill:none;}.b7df3b7f-a755-4e2a-bba2-3ddeac6004c9{isolation:isolate;}.b43a30fd-9603-417d-88f8-ece2e9e47e4f{fill:#63774e;}.a264f4d3-860f-4eff-b7c2-38181751f450{clip-path:url(#b882b956-054d-424a-9580-9db74b0d91e8);}.b76f1429-c4ac-425e-88f5-bcf1bf729812{fill:#a7a9ac;opacity:0.33;mix-blend-mode:multiply;}.a358b41d-7668-48c2-9d55-d2ac3f624e81{fill:#1a242d;}.a903732f-ffdb-4e84-9811-f2a7c15131be{fill:#566345;}.fafed00e-d014-44ce-bda7-70b206b24d9d{clip-path:url(#b3a6f1e2-48ae-4c10-a94a-58d0fe5e4757);}.ba540f00-7159-40a7-ab84-bb8161ce2bd2{fill:#939598;}.f25144a5-1a92-49a1-9055-efc442e5c3a0{fill:#e6e7e8;}.afd45c1c-12f3-4c8b-84b7-3e505e6fa0cc{clip-path:url(#f732662b-5c59-4c27-a147-d193b6955da0);}.e462b750-83cc-440b-8701-865e4608ee63{fill:#fff;}.ecbe9d9f-29a6-47fa-9f81-68dd49ede37c{fill:#a97c50;}.fab3def4-3cf3-426d-a5a2-fbf7b783d5a8{fill:#dbae95;}.bd09fce1-5d41-4418-a69d-785c7dee4c4b{fill:#6f825a;}.ecf03419-0d9e-4da0-b411-6535454470d9{fill:#938c6c;}</style><clipPath id="b882b956-054d-424a-9580-9db74b0d91e8"><rect class="b53f5a6c-4537-4965-980d-0164a897af23" x="-7.875" y="-169.11365" width="104.5" height="104.16235"/></clipPath><clipPath id="b3a6f1e2-48ae-4c10-a94a-58d0fe5e4757"><rect class="b53f5a6c-4537-4965-980d-0164a897af23" x="-3.24121" width="130.18525" height="94.4406"/></clipPath><clipPath id="f732662b-5c59-4c27-a147-d193b6955da0"><ellipse class="b53f5a6c-4537-4965-980d-0164a897af23" cx="68.16597" cy="46.42704" rx="42.24542" ry="54.30551" transform="translate(9.93439 104.83212) rotate(-79.34354)"/></clipPath></defs><title>Artboard 166</title><g class="b7df3b7f-a755-4e2a-bba2-3ddeac6004c9"><g id="ec518bad-8b37-428f-b167-217a60e0b530" data-name="Layer 1"><path class="b43a30fd-9603-417d-88f8-ece2e9e47e4f" d="M200.69337,97.29009c-.31709-3.00734-2.86524-4.17967-5.43923-3.19884-4.02921,1.53533-7.22515,2.45754-10.50147,5.50419-3.24388,3.01648-4.55209,6.80431-7.05031,10.21505-2.62492,3.58375-5.956,6.835-8.87415,10.196-2.27253,2.61745-4.28109,5.0469-7.75149,6.01311-1.77849.49515-3.2977.05288-5.03271-.05276a34.10075,34.10075,0,0,0-13.6489,2.26533c-5.91732,2.23575-11.95,4.53691-16.84671,8.54141-1.25132,1.02333-2.40731,2.15464-3.63692,3.20273-1.17774,1.00386-3.4009,1.71012-2.31106,3.30715a22.60029,22.60029,0,0,1,2.92256,4.56731c-.93822-2.48847,17.79315-6.60129,19.54859-6.95312,4.7761-.95725,9.42688-1.08,14.20786-1.6647,4.02522-.49228,8.25641.02379,12.18128-1.24678a30.07833,30.07833,0,0,0,6.53885-3.36823c5.921-3.70142,11.83806-7.48919,16.987-12.20588a2.2941,2.2941,0,0,1,.72606-.5115,2.25174,2.25174,0,0,1,.8822-.07491c3.84273.18345,5.85779-.15725,9.24655-2.06091a91.81908,91.81908,0,0,0,12.54452-8.47685,18.04114,18.04114,0,0,0-8.51-3.61449"/><g class="a264f4d3-860f-4eff-b7c2-38181751f450"><ellipse class="b76f1429-c4ac-425e-88f5-bcf1bf729812" cx="10.02966" cy="106.99877" rx="78.88716" ry="18.19934"/><path class="a358b41d-7668-48c2-9d55-d2ac3f624e81" d="M72.223,93.93076c-2.00068-.20268-3.79529-.48344-5.61459.46831-2.37194,1.24086-3.019,3.67184-3.39193,5.94944a4.49718,4.49718,0,0,0,.23331,2.73655,5.77785,5.77785,0,0,0,1.82561,1.92651,26.03726,26.03726,0,0,0,11.92465,4.82407,14.18059,14.18059,0,0,0,8.31055-.96766c2.44018-1.25707,4.08437-3.89173,3.30831-6.34514-.84634-2.67559-4.01006-4.18791-6.859-5.38373-1.44175-.60518-2.94789-.9825-4.06947-2.05315a4.49853,4.49853,0,0,0-.7929-.68557c-.57142-.336-1.50465-.0666-2.168-.13237C74.02555,94.17839,73.12762,94.0224,72.223,93.93076Z"/><path class="a903732f-ffdb-4e84-9811-f2a7c15131be" d="M31.89385-33.50209c.67536.66095.5775,4.2448.70024,5.14361.49067,3.5931,1.028,7.18266,1.70822,10.75418.52629,2.766.674,6.09933,2.087,8.59886,1.50646,2.66488,3.99149,4.365,5.38991,7.11642A91.991,91.991,0,0,1,46.29914,9.77683a166.6443,166.6443,0,0,1,6.23458,23.527,26.69881,26.69881,0,0,1,.62144,5.757,36.53426,36.53426,0,0,1-.66,4.90045,71.32667,71.32667,0,0,0,7.2401,44.69382c.84659,1.60624,2.11659,5.10329,3.56173,6.17958,2.9813,2.22,12.96415.4932,16.17933-.66147a114.58768,114.58768,0,0,1-3.75962-12.40374,105.89774,105.89774,0,0,1-2.80992-32.14822c.40247-6.05016.77679-11.19382-.171-17.255Q70.218,16.26505,66.89689.3084c-2.37647-11.4113-3.38772-22.53467-5.081-34.1105a5.38659,5.38659,0,0,0-.96575-2.79921c-2.59205-3.02986-9.45071.72382-12.173,1.55627C43.29261-33.39917,37.45924-33.73452,31.89385-33.50209Z"/><path class="b43a30fd-9603-417d-88f8-ece2e9e47e4f" d="M28.90655-42.95662C19.813-52.92772,10.89294-30.5632,9.68862-24.4106c-1.38974,7.09991.58147,14.0225.36093,21.07326-.23225,7.42547,2.566,22.66524-2.3581,28.4797C5.18438,28.10279.47554,30.3896-2.55342,32.99912a114.41315,114.41315,0,0,0-9.77613,9.49377C-23.95976,55.21866-32.9838,70.82271-37.329,87.56421c2.14747.59694,4.21992,2.31576,6.47715,3.10819,2.68678.94323,5.521,1.48183,7.94627,3.05665C-26.40784,91.455-6.54557,68.82294-4.65288,66.74445.942,60.60034,6.586,54.35321,13.89962,50.50765c6.61688-3.47921,13.24923-7.9059,16.52171-14.8964a42.58881,42.58881,0,0,0,2.54781-8.11266c2.40782-9.94375,5.92091-18.9617,9.53142-28.527,1.256-3.32738,2.51572-4.66346,4.92369-6.94533,2.43005-2.30279,3.74512-5.53329,5.11273-8.55812a144.17,144.17,0,0,0,7.97682-22.394A28.32741,28.32741,0,0,0,46.38772-35.578"/></g><g class="fafed00e-d014-44ce-bda7-70b206b24d9d"><ellipse class="ba540f00-7159-40a7-ab84-bb8161ce2bd2" cx="71.77445" cy="49.44186" rx="42.24542" ry="54.30551" transform="translate(9.91277 110.83568) rotate(-79.34354)"/><ellipse class="f25144a5-1a92-49a1-9055-efc442e5c3a0" cx="68.16597" cy="46.42704" rx="42.24542" ry="54.30551" transform="translate(9.93439 104.83212) rotate(-79.34354)"/><g class="afd45c1c-12f3-4c8b-84b7-3e505e6fa0cc"><rect class="e462b750-83cc-440b-8701-865e4608ee63" x="101.04954" y="6.87859" width="5.31172" height="88.53431" transform="translate(22.21445 -30.89036) rotate(18.93927)"/><rect class="e462b750-83cc-440b-8701-865e4608ee63" x="108.47554" y="8.9711" width="2.65586" height="88.53431" transform="translate(23.22374 -32.7563) rotate(18.93927)"/></g><path class="b43a30fd-9603-417d-88f8-ece2e9e47e4f" d="M16.42686,92.97764c-.928-2.87809-3.66263-3.502-5.98029-2.01344-3.62795,2.33018-6.56634,3.88915-9.147,7.54379-2.55515,3.61845-3.05747,7.59421-4.80186,11.44536-1.83288,4.04648-4.42518,7.91261-6.59074,11.80134-1.68647,3.02842-3.1532,5.81862-6.35115,7.477-1.63888.8499-3.21653.72909-4.93625.98207a34.101,34.101,0,0,0-12.8926,5.02045c-5.33195,3.40347-10.76341,6.89467-14.73316,11.81953-1.01446,1.25853-1.91343,2.60316-2.90155,3.88146-.94644,1.22436-2.97714,2.37218-1.58251,3.71132a22.59991,22.59991,0,0,1,3.79835,3.86965c-1.42934-2.24271,16.05791-10.11518,17.70366-10.82007,4.47765-1.91782,9.00406-2.99319,13.563-4.54742,3.83828-1.30855,8.08526-1.67256,11.66548-3.72218a30.078,30.078,0,0,0,5.70761-4.63947c5.0345-4.83864,10.04742-9.761,14.11777-15.43469a2.294,2.294,0,0,1,.60552-.64972,2.25178,2.25178,0,0,1,.848-.25451c3.79848-.60974,5.7006-1.35706,8.62611-3.91617a91.82,91.82,0,0,0,10.53595-10.8727,18.04113,18.04113,0,0,0-9.071-1.7895"/><path class="ecbe9d9f-29a6-47fa-9f81-68dd49ede37c" d="M25.4738,34.90338a12.71643,12.71643,0,0,1,1.90887-2.40318c2.34733-2.31148,5.79322-4.51957,5.28-8.29976-.44558-3.2818-5.04609-5.56486-8.023-5.14144a10.35474,10.35474,0,0,0-7.39533,4.99949,11.25682,11.25682,0,0,0-1.4509,4.26213c-.19394,1.62776-.15334,3.4478-1.6648,4.52413-1.22818.87459-2.96665.686-4.23619,1.49941-1.744,1.11734-2.04736,3.73406-3.816,4.81186-1.133.69044-2.67057.606-3.65567,1.49477-1.09336.98645-1.69923,2.84742-2.30493,4.15C.35054,44.2959,3.29815,44.18,3.83205,44.302A15.60054,15.60054,0,0,1,6.49942,45.661c2.11917.9707,4.78187,2.01838,7.03653.85789,1.73235-.89166,2.69234-2.89522,4.44667-3.74281,1.30793-.63192,2.91613-.54432,4.11533-1.364,1.57831-1.07883,1.67823-3.17954,2.43709-4.77139A17.9566,17.9566,0,0,1,25.4738,34.90338Z"/><path class="fab3def4-3cf3-426d-a5a2-fbf7b783d5a8" d="M31.00472,65.58392a.93745.93745,0,0,1-.5507.25336.864.864,0,0,1-.50933-.23686,6.884,6.884,0,0,1-1.86814-2.72953c-.79757-1.87183-1.744-4.46206-1.294-6.51663.26209-1.19658,1.11084-1.539,1.66712-2.44533.31492-.51309.45237-1.28248.75845-1.84631.33873-.624.68186-1.24558,1.02277-1.86835a14.53447,14.53447,0,0,0,1.502-3.40839,4.402,4.402,0,0,0-.18081-3.21425c-.46152-.66256-1.29511-.85659-1.52653-1.75767-.95451-3.7166.94577-8.566,2.89141-11.6807a9.96657,9.96657,0,0,1,4.1326-3.9416,9.96624,9.96624,0,0,1,4.37964-.74379,12.6432,12.6432,0,0,1,7.55117,2.4739c4.11269,3.25755,4.15575,7.372,3.20326,11.7145-.21626.986-.48384,1.98369-.76676,2.98582-.9307,3.29659-2.675,10.35426-7.42511,9.25607l-3.61464-.83568c-1.142-.264-3.09209,1.61749-1.609,1.82642.35507.13782.30471.27209.38753.64386a3.06257,3.06257,0,0,1-.02173,1.13693,14.48406,14.48406,0,0,1-1.8541,5.34342c-.83268,1.32778-2.42142,1.59371-3.449,2.6548A26.75808,26.75808,0,0,1,31.00472,65.58392Z"/><path class="e462b750-83cc-440b-8701-865e4608ee63" d="M38.60891,54.38792c-.51359-.07778-.749.60579-.95051.93534-.35356.57808-.838,1.10884-1.24682,1.64982-.4131.54659-.93244,1.1477-1.61744,1.13358A2.07671,2.07671,0,0,1,33.456,57.335a26.48008,26.48008,0,0,1-2.52517-3.2843c-.12171-.1701-1.66819-2.51954-1.82406-2.32681-1.04953,1.29777-1.019,3.33934-1.4229,4.90041q-.66843,2.5831-1.29541,5.17671-1.24317,5.13355-2.35565,10.29754-1.12227,5.16405-2.17059,10.34377c-.18726.91577-2.39371,10.15948-2.0903,10.29226a41.743,41.743,0,0,0,13.82421,3.39418q1.1401-4.50726,2.10814-9.05572,2.547-11.96673,3.891-24.1479a29.06384,29.06384,0,0,0,.21261-5.67463,5.29641,5.29641,0,0,0-.69572-2.53464A.89648.89648,0,0,0,38.60891,54.38792Z"/><path class="b43a30fd-9603-417d-88f8-ece2e9e47e4f" d="M27.52212,49.39671a3.34367,3.34367,0,0,1,2.86545.928,3.4426,3.4426,0,0,1,.4843,1.74631c-.58647,2.54789.55739,4.86571,1.54717,7.09219a25.67669,25.67669,0,0,1,1.562,5.916,62.65459,62.65459,0,0,0,2.58417-6.711,20.90719,20.90719,0,0,0,1.58168-5.7378c.00828-.2137,1.76145,1.02236,1.90847,1.23725a7.197,7.197,0,0,1,.875,2.51373,13.81263,13.81263,0,0,1,.1062,3.40643C40.72522,64.2386,44.13517,67.962,42.457,72.48652c-.68469,1.846-2.001,3.288-2.66423,5.12374-.793,2.19515-2.10312,4.14544-2.76713,6.41028-.75727,2.58292-.38327,5.03643-.727,7.63446-.30865,2.33307-.91138,10.46588-3.61264,11.6574-1.2565.55424-4.78694-1.38944-6.16542-1.7279-2.52118-.619-5.09279-1.01313-7.57505-1.79009A70.75092,70.75092,0,0,1,9.32822,95.923c.864-1.85922,1.23783-4.0194,2.16038-5.81875.769-1.49986,1.98792-2.75892,2.7004-4.35807a20.90945,20.90945,0,0,0,1.61228-11.45549,37.896,37.896,0,0,1,.84825-16.20787,17.30784,17.30784,0,0,1,3.539-6.7289C22.09288,49.30023,24.78676,49.44533,27.52212,49.39671Z"/><path class="ecbe9d9f-29a6-47fa-9f81-68dd49ede37c" d="M32.79173,44.97712a8.21733,8.21733,0,0,0,3.975-1.82021c1.00539-.95718,1.95907-3.03843,1.26562-4.38464a4.39862,4.39862,0,0,1-.46476-3.23074,1.614,1.614,0,0,1,1.70485-1.21279c1.14494.23713,1.23108,1.513,1.68008,2.35,1.03641,1.93191,2.73558.38764,4.0891.01917a5.12142,5.12142,0,0,1,1.45541-.10875c1.18541.02479,2.3717.15227,3.5534.24162a8.35249,8.35249,0,0,1,1.73859.10142,1.1564,1.1564,0,0,1,.59728.5125c.07426.12238.18523.84665.24417.87646.548.2772,1.72155-2.02465,1.92275-2.437a9.75329,9.75329,0,0,0,.92591-3.06281,7.33186,7.33186,0,0,0-1.7978-5.92632c-1.101-1.19243-4.77759-2.2464-5.84815-3.49767-2.13948-2.5006-7.19011-3.42336-10.32115-2.79826-4.89716.97769-8.3037,5.00773-10.22755,9.38869a16.11883,16.11883,0,0,0-1.5851,6.24791,10.31223,10.31223,0,0,0,2.608,5.87768c.48694.53327,1.05651.9926,1.48994,1.57019a4.93577,4.93577,0,0,0,.86805,1.06434,2.11783,2.11783,0,0,0,1.60351.32345C32.44037,45.04407,32.61506,45.01275,32.79173,44.97712Z"/><path class="bd09fce1-5d41-4418-a69d-785c7dee4c4b" d="M33.37056,68.2q.02093-.19184.04057-.38235a16.81054,16.81054,0,0,1,1.79628-5.83038,1.60081,1.60081,0,0,1,.658-.84125c-.86626,3.46336-.75659,6.9612-1.33544,10.43667-1.67374,10.04931-5.0175,19.677-6.20945,29.80868a.38948.38948,0,0,1-.092.248.37443.37443,0,0,1-.28314.06467,3.00757,3.00757,0,0,1-1.26718-.36908.5077.5077,0,0,1-.24415-.22738.53807.53807,0,0,1-.00744-.2887c.33318-2.048,1.1058-4.10891,1.59111-6.1376.75936-3.17424,1.51878-6.34875,2.213-9.53807.70074-3.21928,1.33464-6.45273,1.935-9.69217A40.42934,40.42934,0,0,0,33.1733,64.07339a7.01022,7.01022,0,0,1,.08957-1.9612,5.27009,5.27009,0,0,1,1.05847,3.01559,13.06427,13.06427,0,0,1,1.3526-3.56978"/><path class="a903732f-ffdb-4e84-9811-f2a7c15131be" d="M32.29548,76.37689a30.73781,30.73781,0,0,1-4.90338-1.09221,16.22814,16.22814,0,0,1-3.53277-1.0509,26.43351,26.43351,0,0,1,2.48946,1.92438,31.78436,31.78436,0,0,0,3.16555,2.10555A28.11285,28.11285,0,0,0,36.27988,80.598a2.80363,2.80363,0,0,0,1.01053.12032c.91894-.11589,1.46887-1.05635,1.855-1.89823.32684-.71256.56653-1.48319.93337-2.1737.36647-.68979.81222-1.3537,1.21057-2.02739a1.59426,1.59426,0,0,0,.18986-.40289c-1.504.91124-2.993,2.06016-4.8211,2.12567a36.12266,36.12266,0,0,1-4.26828.044Q32.34224,76.38187,32.29548,76.37689Z"/><path class="fab3def4-3cf3-426d-a5a2-fbf7b783d5a8" d="M60.8686,74.56148c.474-2.207,2.30222-3.15126,3.92951-4.88978,1.29061-1.37906,2.95952-2.47946,2.41859.27284.00617-.03151,1.79522-.751,2.02537-.90273.70924-.46774,1.267-1.15935,2.156-1.27734a2.39547,2.39547,0,0,1,2.32844,1.16961,3.28528,3.28528,0,0,1-.3382,3.85469c-1.56681,1.72935-10.74291,8.16529-12.423,4.30046a2.92889,2.92889,0,0,1-.20615-1.03558A5.78945,5.78945,0,0,1,60.8686,74.56148Z"/><path class="bd09fce1-5d41-4418-a69d-785c7dee4c4b" d="M31.17678,77.41515a33.30354,33.30354,0,0,1-4.44855-5.91058C23.55805,66.25243,16.27845,58.63809,20.42052,52.086c4.18475-6.619,8.47973,6.13,9.68821,8.33558,1.96476,3.58587,4.55039,7.04444,6.593,10.69728C38.60144,74.516,45.259,72.98122,48.82919,73.159c1.89822.0945,4.085.60944,5.96523.40035,1.88922-.21009,3.9462-1.21873,5.761-1.79047a1.11585,1.11585,0,0,1,1.048.0293,1.15081,1.15081,0,0,1,.26166.89921,17.46677,17.46677,0,0,0,1.064,5.44652c-5.12632,2.13852-11.6502,2.94327-17.14546,3.83772-2.30639.3754-5.4312,1.38069-7.71948.65972C35.57929,81.85839,32.9349,79.24879,31.17678,77.41515Z"/><path class="ecf03419-0d9e-4da0-b411-6535454470d9" d="M11.55137,89.105a14.19539,14.19539,0,0,1-1.20569,1.52618c-.1947.17793-1.02114.60715-.81492.93662a12.75206,12.75206,0,0,0,.76619,1.14495,18.46281,18.46281,0,0,0,3.183,2.8908q2.0204,1.60032,4.20108,3.01338a55.30129,55.30129,0,0,0,8.98077,4.711,25.58142,25.58142,0,0,0,3.279,1.233,5.67313,5.67313,0,0,0,3.312-.02189,1.86473,1.86473,0,0,0,.71552-1.13538c.30573-.94466.6558-1.89525.98131-2.81194-.20941-.07887-2.65019-.88588-2.67005-.84229-.85686-.21129-1.74582-.17183-2.59737-.41979a25.99665,25.99665,0,0,1-3.64946-1.40435,40.84191,40.84191,0,0,1-12.31221-9.16179c-.27145-.27982-.46844-.88059-.90852-.91271C12.36961,87.81856,11.76151,88.8421,11.55137,89.105Z"/></g></g></g></svg>