<svg xmlns="http://www.w3.org/2000/svg" viewBox="0 0 47.18348 67.90943"><defs><style>.fc560c64-ecb5-4b9b-b737-96dbb5fb982b{isolation:isolate;}.b5ef85ce-b5c2-4c0d-b89b-36509ed8bf0e{fill:none;stroke:#bcbec0;stroke-miterlimit:10;}.bed0f112-3609-4ea1-846a-4e617dba9867{fill:#a7a9ac;opacity:0.33;mix-blend-mode:multiply;}.acfa6d2b-ffd8-43fe-a5d6-a92daad74d86{fill:#1a242d;}.f9098ac1-6e36-4b02-a7e8-08256f34bae0{fill:#566345;}.be750c89-057d-47d1-a488-171bb974e233{fill:#63774e;}.a235843a-f3ba-40eb-9a65-13e533af9f2c{fill:#6f825a;}.ee546093-0ae8-4d43-90d9-dee3765a2d43{fill:#a97c50;}.a4dfebaf-24d8-4055-a484-069ae3938673{fill:#f6d2ba;}.ad3b1d2a-760d-4f24-9db9-e9306c5346f1{fill:#fff;}.a02b7cee-babc-4321-b010-6b5e76333817{fill:#938c6c;}</style></defs><title>Artboard 123</title><g class="fc560c64-ecb5-4b9b-b737-96dbb5fb982b"><g id="a93b3fad-d620-4172-8c8f-9701a6df63e5" data-name="Layer 1"><polyline class="b5ef85ce-b5c2-4c0d-b89b-36509ed8bf0e" points="-384.479 -337.191 -384.479 -562.535 -150.721 -559.018 -150.721 -65.528 -384.479 -69.045 -384.479 -337.191"/><ellipse class="bed0f112-3609-4ea1-846a-4e617dba9867" cx="28.11183" cy="65.27464" rx="19.07164" ry="2.63477"/><path class="acfa6d2b-ffd8-43fe-a5d6-a92daad74d86" d="M12.92318,62.29634a2.24739,2.24739,0,0,1,1.35738.11322,1.78163,1.78163,0,0,1,.82,1.43833,1.08729,1.08729,0,0,1-.05641.66158,1.39683,1.39683,0,0,1-.44136.46575,6.29469,6.29469,0,0,1-2.88288,1.16626,3.42827,3.42827,0,0,1-2.00915-.23394,1.36436,1.36436,0,0,1-.79981-1.534c.20461-.64685.96946-1.01246,1.65821-1.30156a3.01575,3.01575,0,0,0,.98383-.49637,1.0877,1.0877,0,0,1,.19169-.16574c.13815-.08123.36377-.0161.52413-.032C12.4874,62.35621,12.70449,62.3185,12.92318,62.29634Z"/><path class="acfa6d2b-ffd8-43fe-a5d6-a92daad74d86" d="M36.89947,61.223a2.35592,2.35592,0,0,1,1.24519-.63131,1.7611,1.7611,0,0,1,1.46223.79075,1.06423,1.06423,0,0,1,.29357.59633,1.4246,1.4246,0,0,1-.14441.63528,6.58569,6.58569,0,0,1-1.91556,2.54443,3.5905,3.5905,0,0,1-1.87747.87767,1.34863,1.34863,0,0,1-1.49414-.88345,2.732,2.732,0,0,1,.77492-2.00322,3.14488,3.14488,0,0,0,.60273-.95249,1.11783,1.11783,0,0,1,.08166-.24465c.07866-.1436.30963-.20892.44157-.30855C36.54958,61.508,36.71979,61.35923,36.89947,61.223Z"/><path class="f9098ac1-6e36-4b02-a7e8-08256f34bae0" d="M22.67308,31.48836c-.58927-.02461-.24751,3.2504-.22788,3.59767a9.12878,9.12878,0,0,1-1.06136,4.88267c-1.0019,2.06755-2.02721,4.12313-3.04886,6.18092-.96177,1.93715-.6276,3.42022-.46224,5.53054a17.22268,17.22268,0,0,1-.55737,5.84725A17.143,17.143,0,0,1,15.9422,61.0209a5.26843,5.26843,0,0,1-.86108,1.494c-.72076.5367-3.1342.11924-3.9115-.15992a27.70072,27.70072,0,0,0,.90893-2.99871,25.60206,25.60206,0,0,0,.67932-7.7721,17.834,17.834,0,0,1,.04135-4.17155q.6087-3.89259,1.4116-7.75025c.57453-2.75878.819-5.44795,1.22838-8.24651a1.30231,1.30231,0,0,1,.23348-.67673c.62665-.73249,2.28479.175,2.94293.37624A16.13887,16.13887,0,0,0,22.67308,31.48836Z"/><path class="be750c89-057d-47d1-a488-171bb974e233" d="M23.39531,29.20265a1.42567,1.42567,0,0,1,2.38269.24561,10.65726,10.65726,0,0,1,1.97256,4.04542c.3132,1.65207-.139,3.10451-.14244,4.70937-.00366,1.68626.28339,3.42973.41948,5.11385a6.11768,6.11768,0,0,0,1.01726,3.58236,5.37361,5.37361,0,0,0,1.55062,1.11608A12.94457,12.94457,0,0,1,34.259,51.77855a22.28312,22.28312,0,0,1,3.22934,6.40154c.15237.59439.25131,1.20036.39148,1.79744.13425.57188.6551,1.288-.03741,1.53108a8.57894,8.57894,0,0,0-1.92108.739c.8467-.54978-3.95518-6.02127-4.41275-6.52376-1.245-1.36716-2.63931-2.451-3.96956-3.70532-1.12-1.05606-2.52975-1.85017-3.44394-3.12162A11.41729,11.41729,0,0,1,22.85358,46.396a43.5118,43.5118,0,0,1-2.44783-7.55351.87093.87093,0,0,0-.10692-.31973.85473.85473,0,0,0-.25289-.22137,5.46875,5.46875,0,0,1-2.36349-2.71032A34.85469,34.85469,0,0,1,15.754,30.17713a6.84842,6.84842,0,0,1,3.4151.80937"/><path class="a235843a-f3ba-40eb-9a65-13e533af9f2c" d="M18.84611,31.13762a37.679,37.679,0,0,0,.375,4.70844,14.06859,14.06859,0,0,1-1.10325-4.80412.70327.70327,0,0,1,.01207-.30674.43152.43152,0,0,1,.62134-.1774.657.657,0,0,1,.25389.65428"/><path class="ee546093-0ae8-4d43-90d9-dee3765a2d43" d="M29.40947,7.71776a4.8274,4.8274,0,0,0-.2812-1.13056c-.4471-1.16789-1.29-2.47294-.51775-3.698.67039-1.06354,2.61888-1.12821,3.58059-.51345A3.93064,3.93064,0,0,1,33.959,5.26661a4.27312,4.27312,0,0,1-.16955,1.70064c-.18917.59281-.48962,1.21514-.13689,1.82481.28663.4954.91684.70385,1.22738,1.18462.4266.66042.1196,1.61209.56095,2.26275.28274.41681.82716.6296,1.02758,1.09165a4.95893,4.95893,0,0,1,.14311,1.79632c-.00164-.21137-1.00162-.71529-1.20526-.75714a5.92158,5.92158,0,0,0-1.13527.04965,3.13362,3.13362,0,0,1-2.56571-.811c-.4581-.58064-.47441-1.42382-.947-1.9927-.35236-.42412-.92168-.64695-1.20693-1.11883-.37544-.62105-.07935-1.36245-.091-2.03176A6.81646,6.81646,0,0,0,29.40947,7.71776Z"/><path class="a4dfebaf-24d8-4055-a484-069ae3938673" d="M3.02483,13.67427c.43821-.73635.17355-1.47124.16994-2.37516-.00281-.717-.18282-1.45414-.74326-.54882.00643-.01036-.30541-.67259-.33022-.77425a2.05225,2.05225,0,0,0-.26981-.91221.9093.9093,0,0,0-.94981-.27607A1.24708,1.24708,0,0,0,.0001,9.94737c-.01084.88575.87931,5.04618,2.34493,4.40506a1.11178,1.11178,0,0,0,.32483-.23482A2.19758,2.19758,0,0,0,3.02483,13.67427Z"/><path class="f9098ac1-6e36-4b02-a7e8-08256f34bae0" d="M12.94591,17.463A12.64191,12.64191,0,0,0,15.71,16.96791a15.18418,15.18418,0,0,0,5.29943-2.28024c.02747-.86174,1.51606-1.346,1.10961-2.48056-.4844-1.35434-3.498.47573-4.48668.80468-1.47277.49-3.08536.78422-4.597,1.27271a3.345,3.345,0,0,1-.67069.16661,3.7775,3.7775,0,0,1-1.26216-.17284c-1.2606-.30189-2.53667-.31921-3.76738-.684-.67537-.20016-1.34258-.41972-2.00243-.66662a12.75283,12.75283,0,0,0-1.76643-.70623A20.85308,20.85308,0,0,0,1.5636,14.46023L8.943,16.90584A10.523,10.523,0,0,0,12.94591,17.463Z"/><path class="a4dfebaf-24d8-4055-a484-069ae3938673" d="M22.67058,17.44561a.35586.35586,0,0,0,.15036.17419.328.328,0,0,0,.21322-.00167,2.61317,2.61317,0,0,0,1.07488-.64889,4.52476,4.52476,0,0,0,1.47254-2.04747c.09777-.45459-.14153-.70644-.19106-1.10707-.028-.2268.04556-.51421.02856-.75715-.01882-.26885-.03952-.53758-.05928-.80636a5.5172,5.5172,0,0,1,.01754-1.41376,1.671,1.671,0,0,1,.56829-1.08188c.2637-.15624.58219-.09209.80394-.36694a6.40056,6.40056,0,0,0,.83942-4.49,3.78332,3.78332,0,0,0-.80726-2.01194,3.7832,3.7832,0,0,0-1.39585-.94618,4.79941,4.79941,0,0,0-2.9978-.33377c-1.93334.47806-2.59571,1.89257-2.95008,3.54255-.08046.37462-.145.76139-.205,1.15209-.19729,1.28524-.70541,3.99775,1.10827,4.36592l1.38015.28017c.43605.08852.81359,1.04536.26837.88413-.14434-.00827-.14808.046-.23519.16143a1.16254,1.16254,0,0,0-.17142.39616,5.49828,5.49828,0,0,0-.20043,2.13761c.07868.58971.58565.9316.77362,1.45985A10.15732,10.15732,0,0,0,22.67058,17.44561Z"/><path class="ad3b1d2a-760d-4f24-9db9-e9306c5346f1" d="M21.80574,12.38137c.18966.054.16339.32714.18115.47269.03116.25534.115.51491.17106.76613.05668.25383.14149.5432.38033.64612a.78831.78831,0,0,0,.5837-.056,10.05167,10.05167,0,0,0,1.38915-.73713c.06881-.0396.97277-.60782.99628-.51671a4.80038,4.80038,0,0,1-.27967,1.91672q-.17561.9975-.36719,1.9921-.37843,1.969-.80682,3.92789-.425,1.96049-.878,3.91474c-.07943.34582-.772,3.8862-.89766,3.88432a15.84562,15.84562,0,0,1-5.30958-1.00308q.31549-1.73641.6969-3.46,1.00341-4.5346,2.45613-8.954a11.0324,11.0324,0,0,1,.81959-1.99371,2.01052,2.01052,0,0,1,.63921-.76607A.34029.34029,0,0,1,21.80574,12.38137Z"/><path class="be750c89-057d-47d1-a488-171bb974e233" d="M29.43164,14.3206A14.66957,14.66957,0,0,0,26.421,12.402a1.26925,1.26925,0,0,0-1.13589-.13038,1.30682,1.30682,0,0,0-.44211.527,4.25945,4.25945,0,0,1-1.65058,2.20644,9.74692,9.74692,0,0,0-1.47061,1.79782,23.78383,23.78383,0,0,1,.16346-2.72493,7.93618,7.93618,0,0,1,.3566-2.231c.03077-.07513-.76937.076-.854.12705a2.73181,2.73181,0,0,0-.69787.73063,5.24343,5.24343,0,0,0-.57277,1.16c-.59285,1.58647-2.35674,2.336-2.48907,4.16309-.054.74543.1738,1.45071.114,2.18922-.07152.88309.07412,1.763-.05293,2.64984a18.04248,18.04248,0,0,1-.95033,2.75165c-.26055.8545-1.33223,3.75875-.58662,4.59546.34682.38919,1.87226.27336,2.4017.37338.96834.18294,1.9187.4515,2.89844.57375a26.85769,26.85769,0,0,0,3.93147.17615c-.00587-.77822.205-1.58326.16943-2.35-.0296-.63913-.25252-1.26589-.247-1.93042a7.9372,7.9372,0,0,1,1.24584-4.2109c1.64308-2.5485,2.04374-5.52276,2.75674-8.45183"/><path class="ee546093-0ae8-4d43-90d9-dee3765a2d43" d="M25.29623,10.046a3.11936,3.11936,0,0,1-1.08668-1.25434,1.638,1.638,0,0,1,.25283-1.7138,1.66973,1.66973,0,0,0,.669-1.04289.61267.61267,0,0,0-.39807-.68724c-.43282-.09827-.66337.32892-.95019.54738-.662.50426-1.006-.2966-1.41555-.63689a1.94427,1.94427,0,0,0-.48564-.26661c-.41339-.178-.84324-.32064-1.26551-.47574a3.17057,3.17057,0,0,0-.61654-.23858.439.439,0,0,0-.287.083c-.04491.03059-.19722.26332-.22228.26434-.2329.00953-.27606-.97032-.28067-1.14442a3.70229,3.70229,0,0,1,.16215-1.20372A2.78319,2.78319,0,0,1,20.92576.51224c.568-.23864,2.00389-.02413,2.57062-.28789A4.64942,4.64942,0,0,1,27.50209.882a5.71984,5.71984,0,0,1,2.05547,4.85276,6.11854,6.11854,0,0,1-.4357,2.40773,3.91453,3.91453,0,0,1-1.82589,1.62c-.25213.10758-.52117.17661-.76179.30793a1.87367,1.87367,0,0,1-.46736.231.804.804,0,0,1-.60482-.14062C25.40707,10.1244,25.35165,10.08609,25.29623,10.046Z"/><path class="a235843a-f3ba-40eb-9a65-13e533af9f2c" d="M21.44163,17.977q.023-.06956.04616-.13846a6.38128,6.38128,0,0,0,.297-2.29673.60778.60778,0,0,0-.09491-.39416c-.24581,1.33271-.83416,2.52374-1.18114,3.8154-1.00332,3.73483-1.3634,7.58685-2.5461,11.2743a.14784.14784,0,0,0-.00723.10015.14212.14212,0,0,0,.08763.06689,1.14155,1.14155,0,0,0,.49582.07193.1927.1927,0,0,0,.12012-.04012.2042.2042,0,0,0,.048-.09856c.20721-.7599.26465-1.5934.41626-2.37057.23723-1.216.47448-2.43212.73658-3.64309.26457-1.22235.55445-2.43907.85688-3.65257a15.34714,15.34714,0,0,1,1.44244-4.08884,2.661,2.661,0,0,0,.2777-.69157,2.00052,2.00052,0,0,0-.84021.87512,4.95923,4.95923,0,0,0,.09455-1.446"/><path class="f9098ac1-6e36-4b02-a7e8-08256f34bae0" d="M20.52617,20.9708a11.66836,11.66836,0,0,0,1.86571.39436,6.16011,6.16011,0,0,0,1.38574.19295,10.03439,10.03439,0,0,0-1.1628.273,12.06765,12.06765,0,0,1-1.42486.22917,10.67166,10.67166,0,0,1-2.70444-.25836,1.06446,1.06446,0,0,1-.368-.11747,1.065,1.065,0,0,1-.34206-.94766c-.00077-.29758.03771-.60151.01965-.89777-.018-.29595-.06753-.59544-.09912-.89085a.60514.60514,0,0,1-.00218-.169,3.94738,3.94738,0,0,0,1.33088,1.493,13.71462,13.71462,0,0,0,1.4675.68692Z"/><path class="a4dfebaf-24d8-4055-a484-069ae3938673" d="M15.64314,18.35305c.43821-.73634.17355-1.47124.16994-2.37516-.00281-.717-.18282-1.45414-.74326-.54882.00643-.01035-.30541-.67258-.33022-.77425a2.05225,2.05225,0,0,0-.26981-.91221.9093.9093,0,0,0-.94981-.27607,1.24709,1.24709,0,0,0-.90157,1.15961c-.01084.88575.87931,5.04618,2.34493,4.40506a1.11178,1.11178,0,0,0,.32483-.23482A2.19758,2.19758,0,0,0,15.64314,18.35305Z"/><path class="a235843a-f3ba-40eb-9a65-13e533af9f2c" d="M25.25678,17.06206a13.41273,13.41273,0,0,1,2.18557-2.49642c.75794-.5875,1.91316-.89443,2.32423.217a3.26315,3.26315,0,0,1-.50543,2.55618,13.82261,13.82261,0,0,1-1.69067,2.74874,25.09148,25.09148,0,0,1-2.30024,2.38378c-.9668.84559-1.96469,1.65553-2.99617,2.41589-1.92646,1.4201-4.52879-1.72132-5.78686-3.03766-.91041-.95259-1.58054-2.13818-2.56449-3.01017a7.24047,7.24047,0,0,1,1.32032-1.569.55282.55282,0,0,1,.45024-.19943.67674.67674,0,0,1,.287.17049c.47545.40176,5.007,4.8085,5.39141,4.45157A35.59249,35.59249,0,0,0,25.25678,17.06206Z"/><path class="a02b7cee-babc-4321-b010-6b5e76333817" d="M25.68894,28.63217a5.39,5.39,0,0,0,.17631.717c.03926.0921.2572.37043.13411.45179a4.84173,4.84173,0,0,1-.44486.27493A7.00864,7.00864,0,0,1,24,30.57352q-.94977.23486-1.92544.3798a20.99231,20.99231,0,0,1-3.84369.214,9.71061,9.71061,0,0,1-1.32674-.09008,2.15343,2.15343,0,0,1-1.14064-.52878.70783.70783,0,0,1-.06849-.50481c.04305-.37443.07172-.75789.10354-1.12578.08475.00571,1.05489.111,1.05489.12923.32925.06186.63012.21539.9633.26375a9.86978,9.86978,0,0,0,1.48168.08921,15.50355,15.50355,0,0,0,5.69494-1.22724c.13781-.05394.3004-.23047.45748-.17231C25.60874,28.059,25.65773,28.50827,25.68894,28.63217Z"/></g></g></svg>