<svg id="eb0261ca-6c7b-4aa1-a296-4f4a63c1caa6" data-name="Layer 1" xmlns="http://www.w3.org/2000/svg" viewBox="0 0 83.70482 72.12804"><defs><style>.ac02446d-bb9c-464f-8196-2e53d9cfd75f{fill:#dbae95;}.a8dc6015-af10-4dd4-9e7f-84fe4dcfe89f{fill:#3c2415;}.a951c71b-2012-44e6-aac6-18377f9efcbf{fill:#566345;}.a217bd96-b0b8-4ef9-a9ce-b179444dbfe2{fill:#1a242d;}.a8216f4c-c8cb-4927-8e97-a2fea59d533c{fill:#63774e;}.b1fc3875-0398-4f14-bd85-365165ee5c97{fill:#fff;}.e5e6568d-ae22-4c07-9a98-d1798f717de6{fill:#6f825a;}.aaa2886f-3db2-4d7f-85df-67eaabf77b3e{fill:#938c6c;}</style></defs><title>Artboard 203</title><path class="ac02446d-bb9c-464f-8196-2e53d9cfd75f" d="M5.61846,27.63a5.23325,5.23325,0,0,0,.336,3.62228,5.53482,5.53482,0,0,0,3.47708,2.56c1.17907.3941,3.22067,1.0845,4.45557.64307a3.64217,3.64217,0,0,0,1.57675-2.66.808.808,0,0,1,.29521-.71316.796.796,0,0,1,.3053-.08623,1.54773,1.54773,0,0,1,1.481.48115,5.57791,5.57791,0,0,0,1.72779,1.25258,1.21637,1.21637,0,0,0,1.13362.07756,1.24257,1.24257,0,0,0,.43567-1.0045,7.11046,7.11046,0,0,0-.32747-2.70542,2.59638,2.59638,0,0,0-.3835-.7959,3.36168,3.36168,0,0,0-2.72857-.91252c-2.545-.07574-4.74922-1.86282-7.271-2.21379-.43138-.06-.86743-.07712-1.30263-.09414a3.165,3.165,0,0,0-1.1528.02933A2.96093,2.96093,0,0,0,6.76,25.7568,4.22373,4.22373,0,0,0,5.61846,27.63Z"/><path class="a8dc6015-af10-4dd4-9e7f-84fe4dcfe89f" d="M5.49783,31.88081A4.50043,4.50043,0,0,1,7.03026,25.0017c2.766-1.54753,4.9707-.18695,7.44331,1.32464a2.37178,2.37178,0,0,1,.66259.48745.61773.61773,0,0,1-.07242.88556c-.424.33266.33191.08912-.09635.41617a.92675.92675,0,0,1-.2484.12083c-.47741.17568-.9708.33017-1.43142.54649-.383.17987-.507.1705-.76672-.22131a1.56684,1.56684,0,0,0-.97691-.663.51051.51051,0,0,0-.33359.01916c-.21519.10893-.23149.4188-.15825.64958.21875.68927.34936.73934-.46813.75542-.46332.00911-1.3599,1.236-1.76086,1.5854-.51151.446-.50388,1.31961-.97782,1.81266C7.14669,33.44755,5.95747,32.48452,5.49783,31.88081Z"/><path class="ac02446d-bb9c-464f-8196-2e53d9cfd75f" d="M20.08172,45.8117c-1.054.17448-1.819.96793-2.84325,1.21719-.77892.18949-1.52243.593-.35626,1.01792-.01334-.00487-.63266.53438-.7352.59-.316.17143-.68957.23114-.90482.55467a1.15068,1.15068,0,0,0,.00729,1.19037,1.4869,1.4869,0,0,0,1.55323.76073c2.345-.5269,3.97229-2.59709,5.46048-4.573A2.37325,2.37325,0,0,0,20.08172,45.8117Z"/><path class="a951c71b-2012-44e6-aac6-18377f9efcbf" d="M24.20228,41.79618c.0105.28974-.24214.54938-.83906,1.00461a45.11446,45.11446,0,0,1-5.09552,3.38483c-.33059.18744,1.347,3.09341,1.78932,3.12458.94857.06685,2.97023-1.61872,3.74459-2.13976,1.76026-1.18442,6.46747-3.51983,5.00255-6.25236A46.431,46.431,0,0,1,25.951,36.12132a4.18182,4.18182,0,0,0-.48823-.80612c-1.07117-1.28363-3.48126-1.77279-4.97359-2.3727a15.81222,15.81222,0,0,1-2.13285-1.21745c-.62415-.37162-1.37561-.95-1.367.08072a6.77631,6.77631,0,0,0,.78367,2.71026c1.28879,2.3331,4.0153,3.97272,5.64234,6.03539C23.89926,41.16482,24.19143,41.49659,24.20228,41.79618Z"/><path class="a217bd96-b0b8-4ef9-a9ce-b179444dbfe2" d="M41.1905,67.181A1.75261,1.75261,0,0,1,43.908,68.24439a1.356,1.356,0,0,1,.17133.74043,1.5017,1.5017,0,0,1-.28209.63832,6.11094,6.11094,0,0,1-2.48871,2.11644,3.31368,3.31368,0,0,1-2.095.32951,1.64406,1.64406,0,0,1-1.33029-1.44562,2.74868,2.74868,0,0,1,1.21423-1.90761,2.968,2.968,0,0,0,.81543-.82991,1.13662,1.13662,0,0,1,.1351-.23724c.11053-.12915.35917-.12363.51448-.18776C40.7742,67.37354,40.97887,67.269,41.1905,67.181Z"/><path class="a217bd96-b0b8-4ef9-a9ce-b179444dbfe2" d="M68.19072,52.45854A2.706,2.706,0,0,1,68.70585,50.94a2.02279,2.02279,0,0,1,1.83566-.52543,1.22238,1.22238,0,0,1,.72.25374,1.63641,1.63641,0,0,1,.39176.63755,7.56436,7.56436,0,0,1,.47134,3.62766,4.12414,4.12414,0,0,1-.83631,2.22871,1.549,1.549,0,0,1-1.93632.475,3.138,3.138,0,0,1-.973-2.26706A3.61179,3.61179,0,0,0,68.1087,54.104a1.28384,1.28384,0,0,1-.12948-.26645c-.05078-.18108.08637-.42024.11465-.608C68.13241,52.97359,68.15268,52.71476,68.19072,52.45854Z"/><path class="a951c71b-2012-44e6-aac6-18377f9efcbf" d="M40.16829,27.28052c-.00452.2561.70342.90167.85228,1.09268a14.34568,14.34568,0,0,1,3.27871,9.51468A23.039,23.039,0,0,1,41.592,48.7676c-1.14907,2.154-.82632,3.494-.46244,5.79413.48114,3.04128,1.06031,6.07289,1.41622,9.12161.09088.77845.19075,1.55815.32164,2.331.1497.88387-.04978,1.08906-.91684,1.44455-.84168.34508-1.90809,1.03136-2.61147.25257a8.43744,8.43744,0,0,1-1.07733-2.22117c-1.0536-2.29456-1.83805-4.6992-2.67816-7.07661a17.39161,17.39161,0,0,1-1.2094-5.26963,19.86974,19.86974,0,0,1,.66748-4.822q1.00277-4.49965,2.00553-8.99932c.64157-2.87814-.14229-3.79438-1.92675-6.01739q-.29665-.36954-.58355-.74678a1.00663,1.00663,0,0,1-.272-.60829.83027.83027,0,0,1,.38214-.57941,14.76156,14.76156,0,0,1,1.95525-1.05975A19.27237,19.27237,0,0,0,40.16829,27.28052Z"/><path class="a8216f4c-c8cb-4927-8e97-a2fea59d533c" d="M49.0598,31.42758q.09969.30886.188.61628c1.09758,3.81289,1.03644,8.41882,5.12715,10.50693,3.24852,1.65821,6.86834,2.08487,10.0987,3.78735a29.00141,29.00141,0,0,1,2.541,1.572l3.4614,2.30934a5.04989,5.04989,0,0,0-2.115,4.01315c-2.45629-2.151-5.89241-2.14038-8.80117-3.08254-6.12013-1.98232-13.58457-3.28122-15.9269-10.14878-.2621-.76848-.53781-1.53466-.84406-2.28678-.26207-.64365-.64172-1.15965-.87458-1.82694l-1.65972-4.75608c.01111.03184-.23312.597-.25036.69936a5.054,5.054,0,0,1-.12131.90352,5.48284,5.48284,0,0,1-1.392,1.66639c-.14751.14922-.39022.29938-.54366.15626a.40924.40924,0,0,1-.09577-.27081,7.60544,7.60544,0,0,1,.07384-1.95806c.19325-1.14608.7484-2.53178-.18438-3.4969-.417-.43143-.8491-.84817-1.24351-1.30062-3.14416-3.60738,2.2-3.75964,4.67075-3.90578C45.45529,24.37131,47.86636,27.72982,49.0598,31.42758Z"/><path class="b1fc3875-0398-4f14-bd85-365165ee5c97" d="M17.30631,31.21565c.03373-.20573.35066-.23129.4969-.3318a1.6814,1.6814,0,0,0,.46438-.57591,2.02394,2.02394,0,0,0,.20887-1.38179,8.79709,8.79709,0,0,0-1.00013-2.00992,5.51436,5.51436,0,0,1,2.22375.06734q1.16127.06933,2.32135.15728c1.531.11543,3.06017.25309,4.588.40461,1.52857.1516,3.05572.3172,4.5823.48758.405.04521,4.5358.37029,4.55017.514a18.2003,18.2003,0,0,1-.447,6.19033q-2.02278-.13186-4.03958-.34064-5.30609-.54924-10.5397-1.62628a12.67231,12.67231,0,0,1-2.38261-.67328,2.30925,2.30925,0,0,1-.95811-.62874A.39084.39084,0,0,1,17.30631,31.21565Z"/><path class="a8216f4c-c8cb-4927-8e97-a2fea59d533c" d="M17.35722,23.81844c-.18423.36051-.39446.71013-.56251,1.07872a2.368,2.368,0,0,0-.17313,1.86608,2.33942,2.33942,0,0,0,.86068,1.07457c1.10252.65917,2.20907,1.3157,3.29892,1.99528.29884.18634.58782.40036.89431.573a5.25476,5.25476,0,0,1,.66561.32089,17.44575,17.44575,0,0,1-3.10935.175c-.39316.01077-.78627.02906-1.17966.0286-.198-.00024-.39617-.00423-.59384-.01685-.12195-.00778-.49582-.11577-.59575-.06212-.748.40208-.01778,2.5254.34128,3.01531.78,1.06418,2.31375.452,3.44344.6095,1.266.17655,2.33886,1.14342,3.615,1.21543,1.268.07154,2.43224-.75674,3.70088-.81515a7.84608,7.84608,0,0,1,1.644.18779c1.20133.20093,2.38623.06074,3.57865.18376a8.333,8.333,0,0,0,3.17155.12558,2.51031,2.51031,0,0,0,.86691-.35132c.2026-.16115.2436-.39328.39434-.60518.17946-.25208.42143-.42823.62206-.66019.86838-1.004.52913-3.36924.54086-4.60556a16.93914,16.93914,0,0,0-.33573-4.48366,12.285,12.285,0,0,0-1.66384.27553c-.80411.09279-1.58-.09686-2.37713-.00814A17.95669,17.95669,0,0,1,31.642,25.163a6.49966,6.49966,0,0,1-1.40843-.19055,9.10666,9.10666,0,0,1-1.47606-.58309c-2.63-1.22025-5.23175-2.572-8.16661-2.85675-.82682-.08022-2.10347-.11443-2.60537.69954a4.43423,4.43423,0,0,0-.34419.93312A4.89238,4.89238,0,0,1,17.35722,23.81844Z"/><path class="e5e6568d-ae22-4c07-9a98-d1798f717de6" d="M23.73906,30.896q-.08239-.01705-.16406-.03448a7.32971,7.32971,0,0,0-2.65973-.03721.698.698,0,0,0-.43729.16009c1.553.10539,2.98933.62026,4.50878.84651,4.39347.65418,8.83616.559,13.19914,1.4241a.16985.16985,0,0,0,.11523-.00491.16326.16326,0,0,0,.06482-.10878,1.31131,1.31131,0,0,0,.01693-.57521.22133.22133,0,0,0-.06156-.13179.23459.23459,0,0,0-.11877-.04183c-.89431-.13661-1.85293-.09264-2.75964-.16355-1.41871-.11094-2.83754-.22189-4.25376-.36187-1.42953-.1413-2.856-.31223-4.28038-.4979a17.62756,17.62756,0,0,1-4.85512-1.10875,3.05679,3.05679,0,0,0-.8256-.226,2.29785,2.29785,0,0,0,1.109.84376,5.69624,5.69624,0,0,0-1.6624.08208"/><path class="ac02446d-bb9c-464f-8196-2e53d9cfd75f" d="M15.80688,15.47833c-1.02379.3918-2.08336.65358-3.12045.96832-.78867.23942-1.65932.28367-.85375-.66157-.00922.01082-.842-.12056-.96209-.11445a2.2816,2.2816,0,0,1-1.09326.00111,1.09616,1.09616,0,0,1-.62379-.98933,1.46393,1.46393,0,0,1,.96985-1.42019c2.3513-.7569,4.88537.12925,7.24667,1.00815C17.21556,15.11351,16.5248,15.20358,15.80688,15.47833Z"/><path class="e5e6568d-ae22-4c07-9a98-d1798f717de6" d="M21.79392,24.2147c2.06243-1.15212,1.12686.11777,1.93707-1.65673a37.90937,37.90937,0,0,0,1.73894-4.55362,6.26612,6.26612,0,0,0-.51272-1.49141,1.252,1.252,0,0,0-.61808-.50664,27.99521,27.99521,0,0,0-5.09381-1.69914c-1.36429-.38974-2.87628-.50008-4.18561-.97872A14.0445,14.0445,0,0,0,13.736,15.95763c-.06946.14375-.13255.30948-.02818.43711a.7146.7146,0,0,0,.294.17015c1.418.55228,2.89221,1.08138,4.7501,1.70727,1.40809.47459,1.404,1.11586.75123,1.99-.60813.81433.77322-1.47976.16624-.665a8.15691,8.15691,0,0,0-1.22315,2.01275c-.3306.92622-.767,2.24748.6393,2.68255A4.03374,4.03374,0,0,0,23.42784,22.705"/><path class="aaa2886f-3db2-4d7f-85df-67eaabf77b3e" d="M36.20363,24.89793A4.085,4.085,0,0,1,37.507,24.789c.33813.09364.40137.495.49413.77632a13.66633,13.66633,0,0,1,.48974,3.31437,22.53981,22.53981,0,0,1-.12421,4.27288,10.42711,10.42711,0,0,1-.23054,1.45875c-.10222.37452-.47294,1.34763-.917,1.41627a.82057.82057,0,0,1-.38221-.05946c-.476-.16076-.958-.27512-1.43868-.40551a4.07254,4.07254,0,0,1,.36691-.95952c.13321-.39291.34063-.77389.43738-1.17688a10.59879,10.59879,0,0,0,.24442-1.63059,19.70181,19.70181,0,0,0-.45141-5.17856c-.07254-.39149-.14473-.78367-.24409-1.16943-.03142-.122-.16287-.37114-.08-.48111.06759-.08974.35279-.053.45-.06048Q36.16116,24.903,36.20363,24.89793Z"/><path class="a8dc6015-af10-4dd4-9e7f-84fe4dcfe89f" d="M1.88324,25.939a4.11345,4.11345,0,0,1,.044-6.94077c.9498-.59594,2.1585-.81828,2.899-1.66022,1.29684-1.47444.40388-3.7462.48483-5.70814A5.67372,5.67372,0,0,1,11.76842,6.5182c.58845.72853.18525,1.83834-.42536,2.5484a8.07261,8.07261,0,0,0-1.754,2.16864c-.89121,2.37359,2.31177,4.8211,1.50968,7.22626-.56537,1.69532-2.96434,2.63842-2.77173,4.41512.1004.92615.92865,1.64219,1.05925,2.56456a2.46134,2.46134,0,0,1-2.046,2.47894A7.16789,7.16789,0,0,1,3.8656,27.539a4.87438,4.87438,0,0,1-1.76053-.75855,1.66019,1.66019,0,0,1-.65668-1.69441"/><path class="a951c71b-2012-44e6-aac6-18377f9efcbf" d="M27.97287,33.11014c-.44215,1.07432-1.70477,1.55226-2.36933,2.40966.8827-.08483,1.52021-.775,2.47709-.54893a.47058.47058,0,0,0,.2864.01343.41792.41792,0,0,0,.1864-.223,3.59857,3.59857,0,0,0,.52892-2.47706c-.15718-.84848-.69159-1.83076-.47688-2.70426-.16032.65182-.73069,1.42423-.80169,2.04715C27.74686,32.12658,28.19186,32.578,27.97287,33.11014Z"/><path class="b1fc3875-0398-4f14-bd85-365165ee5c97" d="M82.51206,35.18111a1.34645,1.34645,0,0,1,.332.02783,1.0415,1.0415,0,0,1,.70508.65021,2.63593,2.63593,0,0,1,.084,1.51856,3.283,3.283,0,0,1-.99219,1.73693,5.44364,5.44364,0,0,1-2.02442,1.21021,15.524,15.524,0,0,1-2.47265.58746,7.3518,7.3518,0,0,0-2.33643.79615,3.656,3.656,0,0,0-.47607.329l-.5083.45343-.3833.44977-.36084.524a35.55961,35.55961,0,0,0-2.13916,4.84265,11.21367,11.21367,0,0,1-1.25049,2.25653,5.70026,5.70026,0,0,1-1.79053,1.55542,13.70207,13.70207,0,0,1-1.7832.68909,5.04187,5.04187,0,0,0-1.27344.60565,2.32873,2.32873,0,0,0-.63037.64569,3.17167,3.17167,0,0,0-.15235.29169,2.08641,2.08641,0,0,1,.64795-1.10163,5.34027,5.34027,0,0,1,1.24659-.8142c.50683-.26606,1.0791-.51172,1.64209-.86481a5.59994,5.59994,0,0,0,1.42724-1.47565,12.56683,12.56683,0,0,0,1.02637-2.15057A28.29046,28.29046,0,0,1,73.1605,42.8763l.43017-.60486.52442-.58471.52051-.45148a4.51631,4.51631,0,0,1,.64648-.4389,7.71352,7.71352,0,0,1,2.6958-.828,19.44228,19.44228,0,0,0,2.39063-.41632,5.22846,5.22846,0,0,0,1.8584-.904,3.0301,3.0301,0,0,0,1.01709-1.3786,2.34083,2.34083,0,0,0,.106-1.34076.97191.97191,0,0,0-.522-.663A1.31061,1.31061,0,0,0,82.51206,35.18111Z"/><path class="b1fc3875-0398-4f14-bd85-365165ee5c97" d="M71.19859,5.97793a.84779.84779,0,0,1,.25.00842.696.696,0,0,1,.50439.51983,2.116,2.116,0,0,1-.01318,1.15A2.74473,2.74473,0,0,1,71.161,8.95034a4.39522,4.39522,0,0,1-1.499.95825,12.93907,12.93907,0,0,1-1.82617.53125,5.16659,5.16659,0,0,0-1.668.70227c-.0625.04034-.12109.08606-.18066.13129-.00928-.001-.11035.09869-.16113.14325a3.05657,3.05657,0,0,0-.34961.34362,5.881,5.881,0,0,0-.544.73389,35.07864,35.07864,0,0,0-1.6748,3.58832,8.95852,8.95852,0,0,1-.98535,1.67,4.64373,4.64373,0,0,1-1.34864,1.1753,10.30574,10.30574,0,0,1-1.32324.55108,3.98133,3.98133,0,0,0-.93848.47168,1.98364,1.98364,0,0,0-.477.47711l-.12353.21332a1.71476,1.71476,0,0,1,.47314-.83758,13.67027,13.67027,0,0,1,2.09473-1.36835,4.671,4.671,0,0,0,1.03662-1.11774,10.67881,10.67881,0,0,0,.78564-1.58862,24.56273,24.56273,0,0,1,1.63477-3.767,6.61977,6.61977,0,0,1,.70166-.90167,3.804,3.804,0,0,1,.38672-.3667c.0791-.06574.09424-.09235.22461-.18994.07666-.0567.15283-.11328.2334-.16376a5.57124,5.57124,0,0,1,2.0039-.75525c.65479-.13672,1.24463-.20459,1.77344-.37567A4.29232,4.29232,0,0,0,70.78159,8.523a2.60388,2.60388,0,0,0,.8086-.98853,1.84481,1.84481,0,0,0,.1748-.98284.618.618,0,0,0-.33057-.51337A.82857.82857,0,0,0,71.19859,5.97793Z"/><path class="b1fc3875-0398-4f14-bd85-365165ee5c97" d="M50.96226,44.47188a.84423.84423,0,0,1,.25.00836.696.696,0,0,1,.50439.51984,2.116,2.116,0,0,1-.01318,1.15,2.74038,2.74038,0,0,1-.77881,1.29412,4.39542,4.39542,0,0,1-1.499.95832,12.93933,12.93933,0,0,1-1.82618.53119,5.16664,5.16664,0,0,0-1.668.70233c-.0625.04028-.1211.08606-.18067.13122-.00928-.001-.11035.09876-.16113.14325a3.05661,3.05661,0,0,0-.34961.34363,5.88031,5.88031,0,0,0-.544.73389,35.08461,35.08461,0,0,0-1.6748,3.58832,8.956,8.956,0,0,1-.98535,1.67,4.64378,4.64378,0,0,1-1.34864,1.17535,10.32115,10.32115,0,0,1-1.32324.55109,3.98124,3.98124,0,0,0-.93847.47168,1.98322,1.98322,0,0,0-.477.477l-.12354.21338a1.71453,1.71453,0,0,1,.47314-.83765A13.67059,13.67059,0,0,1,40.39292,56.929a4.67135,4.67135,0,0,0,1.03662-1.1178,10.67738,10.67738,0,0,0,.78565-1.58862,24.5663,24.5663,0,0,1,1.63476-3.767,6.615,6.615,0,0,1,.70166-.90161,3.80631,3.80631,0,0,1,.38672-.36677c.0791-.06573.09424-.09234.22461-.18994.07666-.05664.15283-.11328.2334-.16369a5.57122,5.57122,0,0,1,2.00391-.75525c.65478-.13678,1.24462-.20459,1.77343-.37567a4.29363,4.29363,0,0,0,1.37158-.68573,2.60351,2.60351,0,0,0,.8086-.98853,1.84453,1.84453,0,0,0,.1748-.98279.61808.61808,0,0,0-.33056-.51342A.82756.82756,0,0,0,50.96226,44.47188Z"/><path class="b1fc3875-0398-4f14-bd85-365165ee5c97" d="M33.79917,29.00771a.68278.68278,0,0,1,.23975-.02649.6.6,0,0,1,.48144.49347,2.74961,2.74961,0,0,1-.6499,2.37708A4.66242,4.66242,0,0,1,32.576,32.945a15.18586,15.18586,0,0,1-1.63965.77777,4.98706,4.98706,0,0,0-1.457.95709,4.67443,4.67443,0,0,0-.56885.69916,5.73419,5.73419,0,0,0-.44531.78662c-.55518,1.118-.86426,2.40662-1.3208,3.58319a9.3837,9.3837,0,0,1-.8042,1.668A4.90406,4.90406,0,0,1,25.20347,42.68a10.8431,10.8431,0,0,1-1.1709.71692,4.15762,4.15762,0,0,0-.82471.58692,2.23464,2.23464,0,0,0-.40381.51178c-.06543.13971-.10058.21423-.10058.21423a1.86974,1.86974,0,0,1,.36914-.84509A13.65726,13.65726,0,0,1,24.867,42.26894a5.05244,5.05244,0,0,0,.87549-1.19873,11.43764,11.43764,0,0,0,.63281-1.59058,28.1212,28.1212,0,0,1,1.25879-3.71929,6.47128,6.47128,0,0,1,.54541-.92048,4.82192,4.82192,0,0,1,2.4375-1.86419c.59961-.24115,1.15332-.39673,1.63233-.63617a4.70637,4.70637,0,0,0,1.22851-.84174,2.53163,2.53163,0,0,0,.86719-1.98462.51926.51926,0,0,0-.31494-.48279A.66286.66286,0,0,0,33.79917,29.00771Z"/><path class="b1fc3875-0398-4f14-bd85-365165ee5c97" d="M39.30357.044A.64677.64677,0,0,1,39.577.00222c.20264.00317.42578.28357.45117.629a3.67674,3.67674,0,0,1-.90869,2.65253,5.98017,5.98017,0,0,1-1.42675,1.2768c-.5669.37982-1.21192.67364-1.80372,1.00012a6.03882,6.03882,0,0,0-1.60009,1.24512,7.66113,7.66113,0,0,0-1.146,1.7807C32.495,9.88692,32.078,11.3445,31.52134,12.6722a12.06406,12.06406,0,0,1-.94922,1.87549A6.33384,6.33384,0,0,1,29.32066,15.999a14.44022,14.44022,0,0,1-1.2837.89728,5.35729,5.35729,0,0,0-.90966.72992,3.08372,3.08372,0,0,0-.45411.59943c-.07763.15893-.11865.24371-.11865.24371s.02539-.0918.07276-.26392a2.56559,2.56559,0,0,1,.36132-.69427,5.621,5.621,0,0,1,.83643-.88666c.34619-.31476.75439-.636,1.14062-1.02087a6.70794,6.70794,0,0,0,1.01172-1.40754,14.86735,14.86735,0,0,0,.78418-1.81732,41.162,41.162,0,0,1,1.55127-4.1994,8.64036,8.64036,0,0,1,1.31836-1.977,6.37689,6.37689,0,0,1,1.87744-1.35968c.66016-.33563,1.28907-.56006,1.82569-.86944A6.20011,6.20011,0,0,0,38.723,2.93374,4.38925,4.38925,0,0,0,39.5731,1.743,2.75523,2.75523,0,0,0,39.84946.64455c.00879-.31171-.11084-.55395-.28271-.59344A.63655.63655,0,0,0,39.30357.044Z"/></svg>