<svg id="bfe05a7d-ab48-4742-868e-889b1766ccd4" data-name="Layer 1" xmlns="http://www.w3.org/2000/svg" xmlns:xlink="http://www.w3.org/1999/xlink" viewBox="0 0 61.01519 83.43857"><defs><style>.b0a0acfe-3406-4c8e-ae25-2cc3f361f635{fill:none;stroke:#bcbec0;stroke-miterlimit:10;}.a6f2078e-6403-493d-bc75-a12fe55d2707{clip-path:url(#a92b35c6-4a38-43a6-9861-95991d2dc6f4);}.aaf7146e-5984-480d-a0db-d5b9454d3690{fill:#c3d7dc;}.bd84b935-edd8-4901-8c8e-2731eca7d97b{fill:#dbae95;}.be1a9c32-eecd-480e-9e8a-caa8e1f26344{fill:#3c2415;}.ed33ca0e-a188-4242-90a2-a111f502ab65{fill:#566345;}.ea502392-d55a-4fac-8f7c-3abccf624c98{fill:#1a242d;}.a010bb44-a479-4092-bce2-bfc74f2fea3e{fill:#63774e;}.bd280741-527d-4c17-aa99-9989122a96ef{fill:#fff;}.f39bef1c-d0e7-4854-94ed-3072602b83ca{fill:#6f825a;}.ef693407-98ef-4a94-a38b-10b156d49e25{fill:#938c6c;}</style><clipPath id="a92b35c6-4a38-43a6-9861-95991d2dc6f4"><polyline class="b0a0acfe-3406-4c8e-ae25-2cc3f361f635" points="7.581 -357.579 7.581 -582.922 241.34 -579.406 241.34 -85.916 7.581 -89.432 7.581 -357.579"/></clipPath></defs><title>Artboard 199</title><g class="a6f2078e-6403-493d-bc75-a12fe55d2707"><polygon class="aaf7146e-5984-480d-a0db-d5b9454d3690" points="219.639 30.877 7.455 30.877 7.581 -158.348 16.494 -164.895 37.325 -183.236 242.5 -183.236 242.951 13.1 219.639 30.877"/></g><polyline class="b0a0acfe-3406-4c8e-ae25-2cc3f361f635" points="7.581 -357.579 7.581 -582.922 241.34 -579.406 241.34 -85.916 7.581 -89.432 7.581 -357.579"/><path class="bd84b935-edd8-4901-8c8e-2731eca7d97b" d="M17.68392,10.54793a5.39422,5.39422,0,0,0-2.85457,2.43137,5.705,5.705,0,0,0-.09629,4.4496c.367,1.22775.99563,3.35838,2.10012,4.13771a3.75414,3.75414,0,0,0,3.17759-.24814.8329.8329,0,0,1,.77631-.174.8206.8206,0,0,1,.25376.20625,1.59531,1.59531,0,0,1,.47259,1.53388,5.74968,5.74968,0,0,0-.03138,2.19946,1.25376,1.25376,0,0,0,.60688,1.00171,1.28075,1.28075,0,0,0,1.10522-.2284,7.32873,7.32873,0,0,0,2.08665-1.88046,2.676,2.676,0,0,0,.44358-.7953,3.465,3.465,0,0,0-.8488-2.84152c-1.4454-2.19054-1.24593-5.10863-2.44556-7.44283-.2052-.39928-.44938-.777-.69312-1.154a3.26207,3.26207,0,0,0-.70837-.9545,3.052,3.052,0,0,0-1.08839-.38925A4.35362,4.35362,0,0,0,17.68392,10.54793Z"/><path class="be1a9c32-eecd-480e-9e8a-caa8e1f26344" d="M14.02869,12.96706A4.63883,4.63883,0,0,1,20.737,10.17949c2.945,1.41421,3.10536,4.07978,3.29732,7.06077a2.44476,2.44476,0,0,1-.018.84768.63674.63674,0,0,1-.78954.46411c-.53193-.16023.12169.33267-.408.16557a.9549.9549,0,0,1-.24919-.13777c-.43122-.2983-.85405-.62264-1.30959-.8827-.37878-.21623-.44442-.32634-.2681-.77764a1.61508,1.61508,0,0,0-.02042-1.21675.52624.52624,0,0,0-.214-.26988c-.21945-.11682-.49036.0532-.64149.25181-.45138.59317-.41613.733-.91448.05331-.28245-.3852-1.84853-.41348-2.38084-.54434-.67934-.16674-1.41133.35777-2.10807.2506C13.68564,15.28628,13.79229,13.71257,14.02869,12.96706Z"/><path class="bd84b935-edd8-4901-8c8e-2731eca7d97b" d="M10.93264,33.52365c-.77213-.7851-1.89476-.95955-2.7123-1.67522-.62168-.54431-1.40274-.93188-1.06945.30331-.0038-.01415-.82569-.21648-.93341-.26994-.33193-.16476-.6038-.44428-1.0042-.43389A1.18608,1.18608,0,0,0,4.214,32.16a1.53261,1.53261,0,0,0,.27975,1.76061c1.83488,1.66456,4.5452,1.80878,7.09361,1.89162A2.44623,2.44623,0,0,0,10.93264,33.52365Z"/><path class="ed33ca0e-a188-4242-90a2-a111f502ab65" d="M16.7616,34.61626c-.23805.18067-.60676.12165-1.34454-.11162a46.50158,46.50158,0,0,1-5.87543-2.28858c-.35407-.16755-1.80912,2.97012-1.57311,3.36148.50616.83935,3.12612,1.54415,4.0246,1.888,2.04243.78163,6.80285,3.36517,8.23781.50967a47.85663,47.85663,0,0,1,2.352-5.25,4.31042,4.31042,0,0,0,.39008-.88967c.44695-1.66429-.5699-3.98624-.94912-5.60014a16.29736,16.29736,0,0,1-.23845-2.52012c-.05684-.74659-.01483-1.72312-.8787-1.10457a6.98481,6.98481,0,0,0-1.82019,2.26794c-1.20268,2.47013-.96809,5.7411-1.74218,8.336C17.11418,33.98637,17.00774,34.42945,16.7616,34.61626Z"/><path class="ea502392-d55a-4fac-8f7c-3abccf624c98" d="M5.43492,63.99237A2.23008,2.23008,0,0,1,6.49416,65.0115,2.21333,2.21333,0,0,1,6.15,66.91405a1.39765,1.39765,0,0,1-.52263.58354,1.54773,1.54773,0,0,1-.70543.14072,6.29875,6.29875,0,0,1-3.26017-.84305A3.41555,3.41555,0,0,1,.14158,65.22445a1.69463,1.69463,0,0,1,.42986-1.97882,2.83319,2.83319,0,0,1,2.32831-.10758,3.05943,3.05943,0,0,0,1.18325.19531,1.17061,1.17061,0,0,1,.28013-.02679c.17442.01659.31722.22948.46339.32238C5.02574,63.75557,5.23524,63.86613,5.43492,63.99237Z"/><path class="ea502392-d55a-4fac-8f7c-3abccf624c98" d="M33.85883,78.02457a2.78924,2.78924,0,0,1,1.58571-.46625,2.085,2.085,0,0,1,1.53158,1.236,1.26,1.26,0,0,1,.21308.75751,1.68669,1.68669,0,0,1-.30517.70837,7.797,7.797,0,0,1-2.77885,2.54867,4.25088,4.25088,0,0,1-2.37491.61662,1.59668,1.59668,0,0,1-1.54872-1.35078c-.03895-.8058.67477-1.54424,1.33428-2.16474a3.72322,3.72322,0,0,0,.90714-.97875,1.32345,1.32345,0,0,1,.14784-.26717c.12255-.1502.40551-.1764.5806-.26392C33.39,78.28084,33.62026,78.14444,33.85883,78.02457Z"/><path class="ed33ca0e-a188-4242-90a2-a111f502ab65" d="M38.46756,39.46851c-.21859.14807-.343,1.12774-.41579,1.36652a14.78677,14.78677,0,0,1-6.07715,8.40663A23.74751,23.74751,0,0,1,21.1968,53.41123c-2.4974.30864-3.4357,1.37539-5.15909,3.04621-2.27867,2.20919-4.49106,4.49529-6.85027,6.60332C8.585,63.599,7.98693,64.1456,7.413,64.71429c-.65639.65036-.94768.60387-1.76157.08369-.79007-.50495-2.001-.997-1.7616-2.05186a8.697,8.697,0,0,1,1.23371-2.22548c1.30965-2.249,2.87173-4.33636,4.37784-6.45448a17.92652,17.92652,0,0,1,3.72545-4.14465,20.481,20.481,0,0,1,4.46114-2.29687q4.38819-1.823,8.77637-3.646c2.80694-1.16592,3.11454-2.37012,3.93045-5.19285q.13564-.46924.28353-.93483a1.03749,1.03749,0,0,1,.35155-.59.85575.85575,0,0,1,.7151-.02144,15.21444,15.21444,0,0,1,2.053,1.02A19.86494,19.86494,0,0,0,38.46756,39.46851Z"/><path class="a010bb44-a479-4092-bce2-bfc74f2fea3e" d="M40.24421,49.424q-.20129.26721-.40806.524c-2.56364,3.18648-6.483,5.86638-5.81752,10.55343.52847,3.72208,2.31542,7.02686,2.7958,10.75989a29.88978,29.88978,0,0,1,.18155,3.07446l.10578,4.2877a5.20515,5.20515,0,0,0-4.6376.59682c.35678-3.34641-1.68987-6.237-2.62054-9.248-1.95817-6.33527-5.28972-13.39858-.889-19.446.49244-.67669.97488-1.36351,1.42736-2.06772.38722-.60265.5971-1.22872,1.02158-1.82076L34.429,42.41808c-.02025.02824-.64159.15751-.73808.20366a5.21058,5.21058,0,0,1-.83367.43355,5.65172,5.65172,0,0,1-2.23039-.18536c-.21328-.03589-.48381-.15145-.45415-.36568a.4219.4219,0,0,1,.17153-.24135A7.83953,7.83953,0,0,1,32.03884,41.164c1.08082-.51673,2.57828-.87046,2.83878-2.2292.11645-.60738.21153-1.21883.35908-1.81966,1.17669-4.79,4.47428-.37482,6.06271,1.62152C44.05555,42.20057,42.65393,46.225,40.24421,49.424Z"/><path class="bd280741-527d-4c17-aa99-9989122a96ef" d="M21.59221,22.52794c.19345-.09356.40294.15848.57441.22216a1.73294,1.73294,0,0,0,.76091.05,2.08615,2.08615,0,0,0,1.28881-.64334,9.06754,9.06754,0,0,0,1.1014-2.03512c.623.41771.88112,1.29822,1.262,1.91471q.63022,1.02015,1.244,2.05032,1.21587,2.03874,2.37967,4.10791,1.168,2.0679,2.30636,4.15234c.20209.36828,2.37767,4.04358,2.26506,4.14091a18.75987,18.75987,0,0,1-5.484,3.29415q-1.08838-1.78355-2.10839-3.60766-2.68362-4.79909-4.87926-9.85011a13.0614,13.0614,0,0,1-.84533-2.408,2.38018,2.38018,0,0,1-.03812-1.18062A.4029.4029,0,0,1,21.59221,22.52794Z"/><path class="a010bb44-a479-4092-bce2-bfc74f2fea3e" d="M27.85874,18.18412c-.41318.05848-.83261.08857-1.243.16548a2.44077,2.44077,0,0,0-1.6759.96068,2.41124,2.41124,0,0,0-.39553,1.36286c.0981,1.3204.20081,2.64264.27419,3.96447.02012.36244.01106.733.04724,1.09378a5.41505,5.41505,0,0,1,.1242.75145,17.98274,17.98274,0,0,1-1.99143-2.51763c-.24223-.32509-.49078-.64565-.72368-.97758-.11724-.1671-.23138-.33651-.338-.51064-.06576-.10743-.19643-.48667-.30093-.53909-.78256-.39218-2.13962,1.48264-2.33972,2.07587-.43464,1.28865.9911,2.21867,1.52821,3.26451.6019,1.172.423,2.64989,1.11912,3.7685.69163,1.11141,2.08037,1.60178,2.88194,2.63669a8.08705,8.08705,0,0,1,.8166,1.49734c.543,1.13195,1.36389,2.04778,1.96732,3.126a8.58947,8.58947,0,0,0,1.77494,2.74831,2.58767,2.58767,0,0,0,.81028.52251,2.53215,2.53215,0,0,0,.74407-.02643c.31894.00181.61094.10135.92548.13294,1.36138.13672,3.15429-1.552,4.20354-2.27524a17.46,17.46,0,0,0,3.58093-2.942,12.66427,12.66427,0,0,0-1.219-1.23934c-.5551-.62289-.85533-1.38949-1.40285-2.00891a18.50872,18.50872,0,0,1-1.83037-2.1942,6.69972,6.69972,0,0,1-.6746-1.30041,9.38892,9.38892,0,0,1-.38376-1.59021c-.53089-2.94088-.93421-5.936-2.43458-8.57913-.42269-.74464-1.15094-1.84122-2.13481-1.78166a4.56988,4.56988,0,0,0-.9908.26319A5.04264,5.04264,0,0,1,27.85874,18.18412Z"/><path class="f39bef1c-d0e7-4854-94ed-3072602b83ca" d="M25.67648,27.76163q-.03447-.07957-.06822-.15876a7.5552,7.5552,0,0,0-1.54592-2.2644.71949.71949,0,0,0-.39428-.27373c.83211,1.37178,1.24982,2.888,1.96016,4.30321,2.05393,4.09194,4.7688,7.781,6.62683,11.9723a.17508.17508,0,0,0,.07247.09424.16833.16833,0,0,0,.13015-.00986,1.35162,1.35162,0,0,0,.495-.32684.22812.22812,0,0,0,.0746-.13006.2418.2418,0,0,0-.03517-.12494c-.41518-.835-1.02073-1.61709-1.49866-2.42355-.7478-1.26186-1.49566-2.52382-2.21751-3.80081-.72862-1.289-1.43043-2.59293-2.11861-3.90391a18.16941,18.16941,0,0,1-1.94447-4.75071,3.15043,3.15043,0,0,0-.29906-.83008,2.36846,2.36846,0,0,0-.05371,1.4353A5.87119,5.87119,0,0,0,23.805,25.21619"/><path class="bd84b935-edd8-4901-8c8e-2731eca7d97b" d="M33.97064,11.93117c-.93745-.63077-1.78651-1.36882-2.66688-2.05651-.66955-.52292-1.22317-1.2307.05146-1.1121-.01459-.00135-.3977-.78137-.47406-.879-.23532-.30078-.56839-.52235-.64927-.921A1.12987,1.12987,0,0,1,30.69605,5.85,1.50891,1.50891,0,0,1,32.4685,5.8254c2.0325,1.53343,2.78819,4.19534,3.44753,6.70728C35.11359,12.90244,34.628,12.37349,33.97064,11.93117Z"/><path class="f39bef1c-d0e7-4854-94ed-3072602b83ca" d="M30.15576,22.15956c2.19439,1.05553.569,1.01986,2.54546.65059a39.07542,39.07542,0,0,0,4.87025-1.23437,6.45825,6.45825,0,0,0,.95331-1.31671,1.29048,1.29048,0,0,0,.06059-.82154,28.85611,28.85611,0,0,0-1.58828-5.30206c-.48047-1.38131-1.2841-2.72146-1.657-4.10916a14.47641,14.47641,0,0,0-3.0016.44318c-.16238.02668-.33952.07177-.38522.23546a.73656.73656,0,0,0,.0309.34876c.3753,1.523.80348,3.07962,1.37759,5.01712.43492,1.46855-.10814,1.84539-1.23219,1.81344-1.04716-.02977,1.70609-.22566.65925-.25422a8.40779,8.40779,0,0,0-2.42225.16241c-.97691.27055-2.34961.68621-1.88244,2.1298a4.15779,4.15779,0,0,0,3.91343,2.7195"/><path class="ef693407-98ef-4a94-a38b-10b156d49e25" d="M38.12509,34.71309a4.21048,4.21048,0,0,1,.8648,1.03427c.12157.34059-.17929.63192-.36146.877a14.08694,14.08694,0,0,1-2.50381,2.3784,23.23352,23.23352,0,0,1-3.676,2.42921,10.74786,10.74786,0,0,1-1.36654.67072c-.37637.13592-1.41662.40046-1.73781.0668a.84559.84559,0,0,1-.17653-.35749c-.14674-.49661-.33621-.97086-.51131-1.45338a4.19713,4.19713,0,0,1,1.02653-.25969c.41025-.12071.85444-.17177,1.25157-.32918a10.92481,10.92481,0,0,0,1.51964-.76093,20.30693,20.30693,0,0,0,4.09818-3.4516c.287-.29331.57486-.58675.84116-.89928.0842-.09882.21631-.3574.35815-.35278.11573.00376.2539.266.31782.34348C38.08692,34.66973,38.10552,34.69124,38.12509,34.71309Z"/><path class="be1a9c32-eecd-480e-9e8a-caa8e1f26344" d="M16.89448,6.39605a4.23995,4.23995,0,0,1,5.87761-4.079c1.06568.44734,1.96992,1.33451,3.1189,1.45953,2.01211.219,3.39781-1.88109,5.09986-2.97633a5.84819,5.84819,0,0,1,8.13887,2.41263c-.26524.92814-1.44,1.24636-2.40072,1.15266a8.321,8.321,0,0,0-2.86852-.19272c-2.5296.65625-2.69356,4.808-5.19694,5.55813-1.76456.52872-3.9823-.93449-5.366.28153-.72126.63387-.83376,1.75677-1.53394,2.41387a2.537,2.537,0,0,1-3.30325-.25486,7.388,7.388,0,0,1-1.73922-3.15532,5.02411,5.02411,0,0,1-.40454-1.93409A1.71121,1.71121,0,0,1,17.3557,5.52363"/><path class="ed33ca0e-a188-4242-90a2-a111f502ab65" d="M26.32058,32.64407c-1.16793.26434-2.31963-.51671-3.43658-.56852.595.69388,1.55488.82206,1.93176,1.76283a.48508.48508,0,0,0,.15852.24942.43077.43077,0,0,0,.29854.0249,3.70912,3.70912,0,0,0,2.402-1.023c.62212-.63567,1.13333-1.66874,1.99707-2.00573-.6446.25138-1.634.22858-2.20131.53813C27.01576,31.87024,26.89905,32.51314,26.32058,32.64407Z"/><path class="aaf7146e-5984-480d-a0db-d5b9454d3690" d="M48.578,80.41891a2.10479,2.10479,0,0,1,.10987.23291,1.32662,1.32662,0,0,1,.04419.74768,1.95194,1.95194,0,0,1-.61353,1.01844,1.77461,1.77461,0,0,1-1.52417.45752c-1.25732-.22388-2.17114-1.35682-2.92261-2.44056a10.66754,10.66754,0,0,0-1.23095-1.536,2.93814,2.93814,0,0,0-.7417-.53735c-.05884-.03125-.30518-.11011-.449-.163a3.46054,3.46054,0,0,0-.418-.06861,4.75577,4.75577,0,0,0-1.89356.2959c-.65894.2312-1.30737.45874-1.93481.679a6.07112,6.07112,0,0,1-1.99756.3883,3.08338,3.08338,0,0,1-1.80518-.56958,8.93938,8.93938,0,0,1-1.06982-1.03674,3.85463,3.85463,0,0,0-.82813-.70606,1.07241,1.07241,0,0,0-.90967-.10742,1.30267,1.30267,0,0,1,.23877-.10168,1.11714,1.11714,0,0,1,.74683.04443,4.09216,4.09216,0,0,1,.98486.61328,13.6935,13.6935,0,0,0,1.14649.85791,2.69122,2.69122,0,0,0,1.47339.31079,6.19662,6.19662,0,0,0,1.74389-.46569c.61011-.23084,1.23682-.5282,1.92749-.76014a5.56577,5.56577,0,0,1,2.27637-.368,4.56414,4.56414,0,0,1,.63086.126c.18823.075.28686.09314.5481.21448a3.83887,3.83887,0,0,1,.959.71228A9.79775,9.79775,0,0,1,44.351,79.97885a10.74748,10.74748,0,0,0,1.08179,1.50647,2.91494,2.91494,0,0,0,1.25952.8667,1.42311,1.42311,0,0,0,1.21387-.20581,1.69079,1.69079,0,0,0,.65259-.79749A1.317,1.317,0,0,0,48.578,80.41891Z"/><path class="aaf7146e-5984-480d-a0db-d5b9454d3690" d="M60.86318,53.56247a1.08627,1.08627,0,0,1,.08984.16882.84758.84758,0,0,1,.02759.56213,1.42093,1.42093,0,0,1-.52368.72681,1.44123,1.44123,0,0,1-1.16772.27368,4.03464,4.03464,0,0,1-2.25269-1.74768,6.37078,6.37078,0,0,0-.96411-1.04553,1.82662,1.82662,0,0,0-.54224-.316,2.4784,2.4784,0,0,0-.36132-.10376c-.10035-.00452-.18384-.02966-.29566-.02917a10.08874,10.08874,0,0,0-2.8584.66833,4.81225,4.81225,0,0,1-1.502.23059,2.54649,2.54649,0,0,1-1.35718-.42834c-.67261-.5116-1.03418-1.05762-1.44116-1.24707a.8853.8853,0,0,0-.67407-.09265.89456.89456,0,0,1,.73681-.06116,10.87992,10.87992,0,0,1,1.645.98962,2.24234,2.24234,0,0,0,1.08179.20239,5.06928,5.06928,0,0,0,1.28613-.31079,8.87615,8.87615,0,0,1,3.12281-.8031,3.74663,3.74663,0,0,1,.48779.06812,3.03536,3.03536,0,0,1,.39331.12146,2.59551,2.59551,0,0,1,.80054.475,6.08923,6.08923,0,0,1,1.04492,1.23658,8.71245,8.71245,0,0,0,.82788,1.08374,2.38245,2.38245,0,0,0,.92114.63183,1.13646,1.13646,0,0,0,.89966-.06335,1.185,1.185,0,0,0,.5376-.51721A.8384.8384,0,0,0,60.86318,53.56247Z"/><path class="aaf7146e-5984-480d-a0db-d5b9454d3690" d="M30.37221,59.3298a1.061,1.061,0,0,1,.08985.16883.84577.84577,0,0,1,.02783.56213,1.42163,1.42163,0,0,1-.52393.72681,1.44138,1.44138,0,0,1-1.16748.2738,4.03542,4.03542,0,0,1-2.25293-1.74768,6.37583,6.37583,0,0,0-.96386-1.04566,1.82464,1.82464,0,0,0-.54248-.316,2.485,2.485,0,0,0-.36109-.10376c-.10058-.00451-.18384-.02966-.29565-.02917a10.09212,10.09212,0,0,0-2.85864.66833,4.81125,4.81125,0,0,1-1.502.2306,2.54661,2.54661,0,0,1-1.35718-.42835c-.6726-.5116-1.03393-1.05762-1.44116-1.24707a.88536.88536,0,0,0-.67407-.09265.895.895,0,0,1,.73682-.06116,10.8819,10.8819,0,0,1,1.645.98963,2.24171,2.24171,0,0,0,1.08178.20239,5.07142,5.07142,0,0,0,1.28614-.31067,8.87322,8.87322,0,0,1,3.1228-.80322,3.74462,3.74462,0,0,1,.48779.06811,3.05249,3.05249,0,0,1,.39356.12146,2.60115,2.60115,0,0,1,.80053.475A6.08729,6.08729,0,0,1,27.14858,58.868a8.73522,8.73522,0,0,0,.82788,1.08374,2.383,2.383,0,0,0,.92114.63184,1.13665,1.13665,0,0,0,.89991-.06336,1.18553,1.18553,0,0,0,.53735-.51721A.83593.83593,0,0,0,30.37221,59.3298Z"/><path class="aaf7146e-5984-480d-a0db-d5b9454d3690" d="M32.3334,35.68979a.61366.61366,0,0,1,.10253.14831.66864.66864,0,0,1,.0337.52783,1.44848,1.44848,0,0,1-.48609.68274,1.54537,1.54537,0,0,1-1.05224.363,3.7585,3.7585,0,0,1-2.365-1.24756,4.10823,4.10823,0,0,0-1.06714-.74829,1.93627,1.93627,0,0,0-.28955-.09717c-.03272-.01416-.21973-.03161-.32227-.04724a2.32287,2.32287,0,0,0-.61963.03943,14.77536,14.77536,0,0,0-2.63843.98633,3.57938,3.57938,0,0,1-2.67309.217,5.0682,5.0682,0,0,1-.90015-.53906,2.42985,2.42985,0,0,0-.66723-.34522.9902.9902,0,0,0-.64869.017.976.976,0,0,1,.67676-.16809,9.32033,9.32033,0,0,1,1.68994.61719,3.25637,3.25637,0,0,0,2.24829-.438,11.79854,11.79854,0,0,1,2.781-1.12537,3.16946,3.16946,0,0,1,.86035-.029,3.98908,3.98908,0,0,1,.40747.07141,2.67034,2.67034,0,0,1,.40454.14465,4.31643,4.31643,0,0,1,1.23536.94129,8.61312,8.61312,0,0,0,.93627.88208,2.11544,2.11544,0,0,0,.96973.42615,1.37084,1.37084,0,0,0,.86792-.1615,1.23363,1.23363,0,0,0,.50952-.49756A.625.625,0,0,0,32.3334,35.68979Z"/><path class="aaf7146e-5984-480d-a0db-d5b9454d3690" d="M51.32094,23.15378a.76454.76454,0,0,1,.12159.16381.65521.65521,0,0,1-.01929.59241,1.72821,1.72821,0,0,1-.64893.67591,2.00314,2.00314,0,0,1-1.19629.30761,3.33264,3.33264,0,0,1-1.40625-.39636,8.4,8.4,0,0,1-1.29-.87915,4.023,4.023,0,0,0-1.29541-.704c-.05811-.01477-.11548-.03271-.17481-.04285-.01709-.00415-.08618-.01623-.06079-.014l-.10376-.01026a3.68184,3.68184,0,0,0-.40527-.03064,4.47618,4.47618,0,0,0-.73145.07739,24.84271,24.84271,0,0,0-3.053,1.04859,6.63556,6.63556,0,0,1-1.53955.36841,3.63208,3.63208,0,0,1-1.45288-.14795,6.75649,6.75649,0,0,1-1.052-.5293,2.92454,2.92454,0,0,0-.78906-.33093,1.44349,1.44349,0,0,0-.54834-.02l-.19507.04968A1.29187,1.29187,0,0,1,36.244,23.15a10.37771,10.37771,0,0,1,1.95.58728,3.12744,3.12744,0,0,0,1.24146.00318,8.51968,8.51968,0,0,0,1.37744-.44934,18.3131,18.3131,0,0,1,3.14844-1.17261,4.90565,4.90565,0,0,1,.94091-.07544,4.19276,4.19276,0,0,1,.42774.03967l.10351.012.14283.02918c.07739.01526.1521.03894.22753.06006a4.36453,4.36453,0,0,1,1.50831.89A12.27968,12.27968,0,0,0,48.45791,24a2.82855,2.82855,0,0,0,1.15381.45215,1.89913,1.89913,0,0,0,1.02636-.125,1.51418,1.51418,0,0,0,.65235-.49305.60673.60673,0,0,0,.11328-.4989A.73664.73664,0,0,0,51.32094,23.15378Z"/></svg>