<svg id="a6cf60e1-d516-445f-bb74-91bc4469430b" data-name="Layer 1" xmlns="http://www.w3.org/2000/svg" viewBox="0 0 71.55431 68.69528"><defs><style>.fd060184-a552-4175-9f0d-2965a735f93a{fill:#dbae95;}.e5d68647-83b5-4b27-bd33-a4e4f2d49e10{fill:#3c2415;}.aa54e4f6-f7a8-40e9-8a4f-cfd2fcf14b87{fill:#566345;}.b198a99a-ffb0-4ddf-8adf-5f3bc06c4221{fill:#1a242d;}.a8050c3a-e6f3-49bd-b7cd-a6e91d3b5af2{fill:#63774e;}.b2628e90-0ba6-4a20-bb7a-6a434c0cb68d{fill:#fff;}.bdf63730-85da-4039-a3ed-8d767fda6068{fill:#6f825a;}.b83f0678-25a1-4f94-a586-58232c24cc3a{fill:#938c6c;}</style></defs><title>Artboard 215</title><path class="fd060184-a552-4175-9f0d-2965a735f93a" d="M50.7298,4.96074A5.39423,5.39423,0,0,0,46.987,4.73341,5.70505,5.70505,0,0,0,43.83236,7.8729c-.58687,1.13913-1.61121,3.11031-1.35571,4.4377.164.85214,1.68,1.8901,2.46173,2.02449a.83288.83288,0,0,1,.68007.41287.82061.82061,0,0,1,.03984.32456,1.59532,1.59532,0,0,1-.723,1.433,5.74966,5.74966,0,0,0-1.54767,1.56311,1.25377,1.25377,0,0,0-.25727,1.1426,1.28078,1.28078,0,0,0,.95477.60176,7.32881,7.32881,0,0,0,2.80745.09183,2.676,2.676,0,0,0,.87108-.2655,3.46506,3.46506,0,0,0,1.35863-2.63606c.47736-2.58065,2.64443-4.545,3.39851-7.05879.129-.43.215-.87151.30073-1.31216a3.2621,3.2621,0,0,0,.1514-1.179,3.05206,3.05206,0,0,0-.51436-1.03515A4.35355,4.35355,0,0,0,50.7298,4.96074Z"/><path class="e5d68647-83b5-4b27-bd33-a4e4f2d49e10" d="M46.41856,4.16943a4.63883,4.63883,0,0,1,6.76668,2.64278c1.14149,3.061-.59119,5.093-2.51984,7.37409a2.44463,2.44463,0,0,1-.60075.59832.63672.63672,0,0,1-.89071-.213c-.2722-.48428-.143.3241-.4088-.16359a.9552.9552,0,0,1-.084-.27205c-.10389-.51394-.18368-1.04084-.33161-1.54409-.123-.41845-.09395-.5433.346-.74624a1.61508,1.61508,0,0,0,.829-.89092.52618.52618,0,0,0,.03294-.34284c-.07713-.23634-.39022-.30166-.63683-.26335-.73655.11445-.80809.23964-.69592-.59566.06357-.47341-1.0453-1.57968-1.33813-2.04306-.3739-.5912-1.265-.7208-1.69277-1.28113C44.56327,5.60273,45.7313,4.54272,46.41856,4.16943Z"/><path class="fd060184-a552-4175-9f0d-2965a735f93a" d="M29.9341,16.8352c-.012-1.1011-.7-2.00522-.79284-3.08777-.07054-.82328-.36462-1.64412-.98092-.523.00707-.01283-.44487-.72851-.48541-.84172-.12495-.34887-.127-.7388-.42276-1.00894a1.186,1.186,0,0,0-1.21375-.17976,1.53261,1.53261,0,0,0-1.01919,1.46262c.168,2.4717,2.021,4.4549,3.79985,6.28162A2.44623,2.44623,0,0,0,29.9341,16.8352Z"/><path class="aa54e4f6-f7a8-40e9-8a4f-cfd2fcf14b87" d="M33.3767,21.66419c-.2968-.03487-.52157-.33306-.89144-1.01271a46.49931,46.49931,0,0,1-2.64681-5.723c-.139-.36624-3.363.88578-3.46433,1.33142-.21726.95578,1.18191,3.28027,1.59091,4.151.92975,1.97941,2.5686,7.14181,5.58255,6.07919a47.85683,47.85683,0,0,1,5.335-2.15216,4.31009,4.31009,0,0,0,.898-.3706c1.47605-.88933,2.35333-3.26753,3.19912-4.69341a16.29821,16.29821,0,0,1,1.57558-1.98126c.47672-.57738,1.18409-1.25192.13273-1.4052a6.9847,6.9847,0,0,0-2.88414.37214c-2.57934.946-4.67834,3.46561-7.03539,4.79871C34.06751,21.45478,33.6836,21.70025,33.3767,21.66419Z"/><path class="b198a99a-ffb0-4ddf-8adf-5f3bc06c4221" d="M4.8462,34.97811a2.23,2.23,0,0,1,.05662,1.4688A2.21331,2.21331,0,0,1,3.33564,37.5792a1.3976,1.3976,0,0,1-.78121.0581,1.54762,1.54762,0,0,1-.60588-.38772,6.2988,6.2988,0,0,1-1.76464-2.868,3.41555,3.41555,0,0,1-.00624-2.18594,1.69463,1.69463,0,0,1,1.68182-1.12783c.78462.1027,1.31848.85356,1.75231,1.53689a3.05946,3.05946,0,0,0,.71719.96117,1.17073,1.17073,0,0,1,.22043.17493c.11418.1329.06947.38532.11038.55361C4.71555,34.52376,4.78986,34.74868,4.8462,34.97811Z"/><path class="b198a99a-ffb0-4ddf-8adf-5f3bc06c4221" d="M15.598,64.79788a2.78928,2.78928,0,0,1,1.46591.76354,2.085,2.085,0,0,1,.24659,1.95258,1.25992,1.25992,0,0,1-.3717.69359,1.68658,1.68658,0,0,1-.71107.29883,7.797,7.797,0,0,1-3.76956-.09029,4.25093,4.25093,0,0,1-2.13884-1.2024A1.59669,1.59669,0,0,1,10.14,65.16654a3.23457,3.23457,0,0,1,2.46243-.63469,3.72309,3.72309,0,0,0,1.3323-.07626,1.32339,1.32339,0,0,1,.29179-.09c.19245-.02325.41451.15407.60135.2124C15.08254,64.65749,15.343,64.71884,15.598,64.79788Z"/><path class="aa54e4f6-f7a8-40e9-8a4f-cfd2fcf14b87" d="M45.653,40.21106c-.26018-.04487-1.02913.57478-1.24712.69638a14.78681,14.78681,0,0,1-10.208,1.84381A23.74746,23.74746,0,0,1,23.54053,38.2826c-2.01356-1.50925-3.42934-1.39118-5.82968-1.38219-3.17375.01188-6.35308.12516-9.51473.00832-.80729-.02983-1.61726-.0507-2.42515-.03889-.92393.0135-1.10159-.222-1.32737-1.16113-.21918-.91167-.75059-2.10592.15336-2.7A8.69727,8.69727,0,0,1,7.029,32.26054c2.5031-.71247,5.076-1.13345,7.63-1.61541a17.92664,17.92664,0,0,1,5.55827-.40337A20.48065,20.48065,0,0,1,25.02444,31.68q4.42605,1.72905,8.8521,3.45811c2.831,1.10615,3.88765.45172,6.4328-1.01652q.42309-.24408.8525-.477a1.03756,1.03756,0,0,1,.66242-.1814.85579.85579,0,0,1,.53014.48039,15.21457,15.21457,0,0,1,.77209,2.15843A19.86492,19.86492,0,0,0,45.653,40.21106Z"/><path class="a8050c3a-e6f3-49bd-b7cd-a6e91d3b5af2" d="M40.03024,48.61659q-.33032.053-.65736.09462c-4.05673.51852-8.7391-.268-11.50948,3.57076-2.2,3.04846-3.20385,6.66883-5.44611,9.69183a29.89159,29.89159,0,0,1-2.00095,2.34126L17.51956,67.478A5.20518,5.20518,0,0,0,13.764,64.69243c2.57741-2.16395,3.10694-5.66594,4.52409-8.48089,2.98174-5.92276,5.47867-13.32242,12.84288-14.6286.824-.14616,1.6479-.30655,2.46223-.50024.69689-.16576,1.28223-.47137,1.9986-.60365l5.10593-.94284c-.03418.00631-.57153-.33137-.67306-.365a5.20927,5.20927,0,0,1-.90133-.26565,5.65155,5.65155,0,0,1-1.47863-1.68007c-.1288-.17374-.24361-.44459-.07369-.57839a.42189.42189,0,0,1,.29094-.055,7.83946,7.83946,0,0,1,1.983.38312c1.1371.37708,2.4614,1.1605,3.59123.362.50506-.35692.99754-.73159,1.52045-1.06222,4.1692-2.63565,3.484,2.83229,3.2443,5.37219C47.78516,46.05431,43.98476,47.98231,40.03024,48.61659Z"/><path class="b2628e90-0ba6-4a20-bb7a-6a434c0cb68d" d="M45.2393,16.30313c.20427.06672.18047.39359.25986.55837a1.73314,1.73314,0,0,0,.51365.56361,2.08613,2.08613,0,0,0,1.37476.43006,9.06784,9.06784,0,0,0,2.20474-.70277,5.68384,5.68384,0,0,1-.41828,2.25471q-.25323,1.17207-.52524,2.34-.53749,2.31211-1.13362,4.61006-.59219,2.3-1.21725,4.59125c-.10974.40549-1.09045,4.56232-1.23908,4.55436a18.7601,18.7601,0,0,1-6.2357-1.4288q.45241-2.03985.98223-4.0615,1.39386-5.31885,3.314-10.48089a13.0609,13.0609,0,0,1,1.06052-2.32126,2.38013,2.38013,0,0,1,.79115-.87715A.4029.4029,0,0,1,45.2393,16.30313Z"/><path class="a8050c3a-e6f3-49bd-b7cd-a6e91d3b5af2" d="M52.76671,17.51819c-.33828-.24436-.66137-.5135-1.01042-.74264a2.44074,2.44074,0,0,0-1.87372-.46981,2.41136,2.41136,0,0,0-1.23.70779c-.84485,1.01946-1.68765,2.04345-2.55131,3.04681-.23681.27511-.50027.53584-.72437.8209a5.41367,5.41367,0,0,1-.43155.62759,17.98289,17.98289,0,0,1,.31071-3.19495c.05086-.40221.094-.80553.15637-1.2062.03138-.2017.0666-.40291.11054-.60229.02711-.123.19591-.48688.157-.59711-.292-.82521-2.56979-.41523-3.1253-.1265-1.20672.6272-.82423,2.28592-1.16237,3.41194-.37892,1.26185-1.53256,2.20275-1.80659,3.49146-.27226,1.28041.38841,2.59668.24842,3.8982a8.08736,8.08736,0,0,1-.44981,1.64516c-.39359,1.19217-.4371,2.42126-.74992,3.61662a8.58909,8.58909,0,0,0-.62665,3.21106,2.58739,2.58739,0,0,0,.22156.93834c.1323.23173.36232.31.55448.49688.22857.22245.37.49664.5747.7375.88617,1.04247,3.349,1.06882,4.60656,1.27517a17.45982,17.45982,0,0,0,4.62023.363,12.66329,12.66329,0,0,0-.019-1.73825c.03191-.83373.34711-1.59429.38208-2.42027a18.50908,18.50908,0,0,1,.20251-2.85022,6.69931,6.69931,0,0,1,.41558-1.40479,9.3869,9.3869,0,0,1,.82609-1.412c1.6566-2.48723,3.44272-4.92506,4.1943-7.87.21174-.82965.44734-2.12477-.30291-2.76405a4.57053,4.57053,0,0,0-.89643-.49735A5.04239,5.04239,0,0,1,52.76671,17.51819Z"/><path class="bdf63730-85da-4039-a3ed-8d767fda6068" d="M44.55338,22.90634q.03035-.08125.06092-.16171a7.55475,7.55475,0,0,0,.45614-2.70357.71946.71946,0,0,0-.09431-.47063c-.35156,1.56543-1.10192,2.94764-1.57132,4.45991-1.35727,4.37269-1.95891,8.91335-3.52624,13.22182a.175.175,0,0,0-.01312.11815.16827.16827,0,0,0,.10061.08314,1.35176,1.35176,0,0,0,.5833.1077.2282.2282,0,0,0,.14394-.042.24183.24183,0,0,0,.06128-.11441c.27979-.88954.38575-1.873.60055-2.78549.3361-1.42777.67223-2.85566,1.03753-4.27633.36873-1.434.76716-2.86023,1.18028-4.28206a18.16941,18.16941,0,0,1,1.89292-4.77148,3.15038,3.15038,0,0,0,.36006-.8055,2.36858,2.36858,0,0,0-1.03391.997,5.87125,5.87125,0,0,0,.1778-1.70637"/><path class="fd060184-a552-4175-9f0d-2965a735f93a" d="M61.50644,17.25035c-.23814-1.10453-.33819-2.22506-.49573-3.331-.11988-.84106-.028-1.73493.80818-.76568-.00957-.01109.25522-.83878.26787-.96206a2.35165,2.35165,0,0,1,.17079-1.11386,1.12986,1.12986,0,0,1,1.10591-.47987,1.5089,1.5089,0,0,1,1.29421,1.21129c.4013,2.51424-.89988,4.95632-2.16651,7.22353C61.65656,18.74271,61.67343,18.02488,61.50644,17.25035Z"/><path class="bdf63730-85da-4039-a3ed-8d767fda6068" d="M51.66539,21.97548c.84933,2.28213-.29717,1.12939,1.38308,2.23377a39.07446,39.07446,0,0,0,4.36526,2.48748,6.45837,6.45837,0,0,0,1.5999-.28778,1.29045,1.29045,0,0,0,.6133-.55,28.85573,28.85573,0,0,0,2.53187-4.9218c.61156-1.32848.96171-2.85138,1.65518-4.10991a14.47558,14.47558,0,0,0-2.47015-1.76191c-.13551-.09337-.29442-.1837-.44085-.09744a.73653.73653,0,0,0-.21956.27274c-.78558,1.35765-1.55637,2.7762-2.48611,4.57038-.70488,1.35977-1.35748,1.25476-2.14528.45234-.73392-.74753,1.38582,1.02037.6513.27392a8.40779,8.40779,0,0,0-1.858-1.5625c-.89153-.48242-2.16886-1.13471-2.83319.22942a4.15779,4.15779,0,0,0,.93426,4.67309"/><path class="b83f0678-25a1-4f94-a586-58232c24cc3a" d="M48.7035,36.547a4.21092,4.21092,0,0,1-.094,1.3449c-.14857.32971-.56736.331-.86853.38129a14.08712,14.08712,0,0,1-3.45331-.02229,23.23353,23.23353,0,0,1-4.33319-.79844,10.74815,10.74815,0,0,1-1.44975-.46422c-.36544-.163-1.29844-.6937-1.29853-1.15684a.84563.84563,0,0,1,.12067-.38c.2386-.45958.43091-.93269.63931-1.40179a4.19718,4.19718,0,0,1,.91975.52465c.37931.19748.73479.46868,1.1301.63061a10.92468,10.92468,0,0,0,1.62262.50539,20.30721,20.30721,0,0,0,5.3463.35447c.41021-.01233.82107-.0242,1.22967-.06476.12919-.01282.40368-.10755.50268-.00587.08078.083-.00148.36771-.00915.46788C48.70606,36.48927,48.70455,36.51766,48.7035,36.547Z"/><path class="e5d68647-83b5-4b27-bd33-a4e4f2d49e10" d="M53.03978,1.42163a4.23994,4.23994,0,0,1,7.06354,1.13621c.45773,1.06125.49415,2.3275,1.23538,3.21427C62.63676,7.325,65.09138,6.77262,67.07725,7.1636A5.84816,5.84816,0,0,1,71.269,14.5454c-.83467.48487-1.90181-.10038-2.52912-.834a8.32057,8.32057,0,0,0-1.93334-2.12784c-2.27779-1.2811-5.27469,1.59685-7.59867.40157-1.63809-.84252-2.22158-3.43461-4.06176-3.51778-.95924-.04336-1.8189.68776-2.779.67576a2.537,2.537,0,0,1-2.20353-2.474,7.3882,7.3882,0,0,1,.93461-3.47959,5.0241,5.0241,0,0,1,1.04955-1.67415,1.71124,1.71124,0,0,1,1.82933-.4025"/><path class="aa54e4f6-f7a8-40e9-8a4f-cfd2fcf14b87" d="M41.63212,26.87109c-1.02488-.61935-1.31319-1.98072-2.08211-2.79251-.0524.91253.5504,1.67047.16966,2.60968a.48512.48512,0,0,0-.05872.28965.43082.43082,0,0,0,.19785.22494,3.70919,3.70919,0,0,0,2.44017.92831c.88905-.02669,1.97372-.41662,2.82977-.06055-.63878-.26581-1.33593-.9683-1.95933-1.13858C42.6696,26.79551,42.13972,27.17784,41.63212,26.87109Z"/><path class="b2628e90-0ba6-4a20-bb7a-6a434c0cb68d" d="M20.73563,66.11107a2.07619,2.07619,0,0,1-.019.25684,1.32558,1.32558,0,0,1-.3291.67273,1.948,1.948,0,0,1-1.03467.5852,1.7741,1.7741,0,0,1-1.55225-.35083c-.98486-.813-1.22363-2.24878-1.3457-3.562a10.64668,10.64668,0,0,0-.31641-1.94263,2.94985,2.94985,0,0,0-.38183-.83252c-.03565-.05615-.21192-.246-.311-.36267a3.4298,3.4298,0,0,0-.33008-.26526,4.75625,4.75625,0,0,0-1.79443-.67309c-.6875-.12256-1.36377-.24316-2.01856-.35986A6.07528,6.07528,0,0,1,9.37186,58.633a3.087,3.087,0,0,1-1.292-1.38342A8.9595,8.9595,0,0,1,7.658,55.82091a3.84793,3.84793,0,0,0-.374-1.022,1.07259,1.07259,0,0,0-.73926-.54077,1.29961,1.29961,0,0,1,.25781.02881,1.11682,1.11682,0,0,1,.62842.40588,4.07323,4.07323,0,0,1,.55616,1.01819,13.76456,13.76456,0,0,0,.57666,1.31079,2.69146,2.69146,0,0,0,1.13037.99487,6.19593,6.19593,0,0,0,1.74756.45178c.64453.09888,1.33691.14795,2.05224.28553a5.56429,5.56429,0,0,1,2.16309.7987,4.53166,4.53166,0,0,1,.48779.4198c.127.15772.20361.222.37158.45606a3.84332,3.84332,0,0,1,.48487,1.09179,9.80774,9.80774,0,0,1,.26953,2.12952,10.71149,10.71149,0,0,0,.20166,1.84351,2.91434,2.91434,0,0,0,.67041,1.374,1.42379,1.42379,0,0,0,1.1582.41748,1.69045,1.69045,0,0,0,.96045-.37353A1.31683,1.31683,0,0,0,20.73563,66.11107Z"/><path class="b2628e90-0ba6-4a20-bb7a-6a434c0cb68d" d="M48.97489,52.2965a1.08868,1.08868,0,0,1-.00488.19116.84619.84619,0,0,1-.252.50317,1.42214,1.42214,0,0,1-.81347.37537,1.44122,1.44122,0,0,1-1.15137-.33557,4.0352,4.0352,0,0,1-1.10254-2.6294,6.39366,6.39366,0,0,0-.32568-1.3844,1.8169,1.8169,0,0,0-.3169-.54187,2.40514,2.40514,0,0,0-.26367-.26782c-.085-.05334-.14551-.11633-.24268-.17077a10.08861,10.08861,0,0,0-2.81787-.82325,4.80618,4.80618,0,0,1-1.42138-.53759,2.54481,2.54481,0,0,1-.9712-1.04017,16.96189,16.96189,0,0,0-.64209-1.79443.88459.88459,0,0,0-.5415-.412.89482.89482,0,0,1,.67188.30884,10.864,10.864,0,0,1,.9458,1.67053,2.24274,2.24274,0,0,0,.84277.708,5.06915,5.06915,0,0,0,1.27246.3617,8.87537,8.87537,0,0,1,3.11426.83569,3.77131,3.77131,0,0,1,.3916.29907,3.11221,3.11221,0,0,1,.28272.2992,2.60507,2.60507,0,0,1,.46386.80725,6.08711,6.08711,0,0,1,.30176,1.59045,8.76378,8.76378,0,0,0,.188,1.35071,2.38277,2.38277,0,0,0,.4917,1.00305,1.13685,1.13685,0,0,0,.81494.38721,1.18593,1.18593,0,0,0,.72217-.18628A.83577.83577,0,0,0,48.97489,52.2965Z"/><path class="b2628e90-0ba6-4a20-bb7a-6a434c0cb68d" d="M12.531,37.37145a1.08741,1.08741,0,0,1-.00488.19116.84619.84619,0,0,1-.252.50317,1.4229,1.4229,0,0,1-.81347.37537,1.44118,1.44118,0,0,1-1.15137-.33557,4.0352,4.0352,0,0,1-1.10254-2.6294,6.39285,6.39285,0,0,0-.32568-1.38439,1.81664,1.81664,0,0,0-.3169-.54187,2.44783,2.44783,0,0,0-.26367-.26783c-.085-.05334-.14551-.11633-.24316-.17077A10.08047,10.08047,0,0,0,5.24,32.28807a4.80628,4.80628,0,0,1-1.42138-.53759,2.54482,2.54482,0,0,1-.97119-1.04016,16.966,16.966,0,0,0-.64209-1.79444.88465.88465,0,0,0-.54151-.412.89482.89482,0,0,1,.67188.30884,10.905,10.905,0,0,1,.9458,1.67053,2.24274,2.24274,0,0,0,.84277.708,5.06377,5.06377,0,0,0,1.27246.36157,8.8785,8.8785,0,0,1,3.11426.83582,3.75328,3.75328,0,0,1,.3916.29907,3.11221,3.11221,0,0,1,.28272.2992,2.60518,2.60518,0,0,1,.46386.80725A6.10655,6.10655,0,0,1,9.951,35.38463a8.76623,8.76623,0,0,0,.188,1.35071,2.38277,2.38277,0,0,0,.4917,1.00305,1.136,1.136,0,0,0,.81445.38709,1.18573,1.18573,0,0,0,.72266-.18616A.83575.83575,0,0,0,12.531,37.37145Z"/><path class="b2628e90-0ba6-4a20-bb7a-6a434c0cb68d" d="M13.75858,12.1317a.62956.62956,0,0,1,.01611.17957.66687.66687,0,0,1-.23.47619,1.44946,1.44946,0,0,1-.75927.35559,1.54394,1.54394,0,0,1-1.09424-.20117,3.75635,3.75635,0,0,1-1.44629-2.249,4.11894,4.11894,0,0,0-.56153-1.17615,1.94993,1.94993,0,0,0-.20459-.22705c-.02148-.02832-.17578-.13537-.25732-.19958a2.31761,2.31761,0,0,0-.55908-.27015,14.77705,14.77705,0,0,0-2.78223-.43811A3.57976,3.57976,0,0,1,3.44559,7.2567a5.08433,5.08433,0,0,1-.519-.91186,2.41779,2.41779,0,0,0-.41113-.62867.98817.98817,0,0,0-.57325-.30407.97468.97468,0,0,1,.67188.18615A9.3301,9.3301,0,0,1,3.78251,6.96666a3.255,3.255,0,0,0,2.17285.72376,11.7938,11.7938,0,0,1,2.97509.38708,3.17774,3.17774,0,0,1,.76368.39759,4.09163,4.09163,0,0,1,.31982.26257,2.66548,2.66548,0,0,1,.28076.32471,4.30591,4.30591,0,0,1,.61328,1.42724,8.58741,8.58741,0,0,0,.38184,1.2284,2.11612,2.11612,0,0,0,.63477.84777,1.372,1.372,0,0,0,.83544.286,1.23312,1.23312,0,0,0,.688-.183A.62532.62532,0,0,0,13.75858,12.1317Z"/><path class="b2628e90-0ba6-4a20-bb7a-6a434c0cb68d" d="M49.27225,26.57006a.75565.75565,0,0,1,.02539.20239.65594.65594,0,0,1-.3081.50635,1.72738,1.72738,0,0,1-.89746.26965,2.00174,2.00174,0,0,1-1.19288-.32019,3.33154,3.33154,0,0,1-1.02978-1.0365A8.40067,8.40067,0,0,1,45.178,24.792a4.01526,4.01526,0,0,0-.78174-1.24976c-.04345-.0415-.08447-.08532-.13134-.12329-.0127-.01208-.0669-.05651-.0459-.04211l-.08545-.05994a3.6871,3.6871,0,0,0-.33789-.226,4.49007,4.49007,0,0,0-.67481-.29211,24.83307,24.83307,0,0,0-3.17431-.58777,6.65015,6.65015,0,0,1-1.522-.43592,3.63981,3.63981,0,0,1-1.19239-.84313,6.74749,6.74749,0,0,1-.65576-.97815,2.92506,2.92506,0,0,0-.52441-.676,1.44378,1.44378,0,0,0-.46778-.287l-.19433-.05261a1.29274,1.29274,0,0,1,.75488.21692A10.37042,10.37042,0,0,1,37.554,20.625a3.12758,3.12758,0,0,0,1.07959.61316,8.52014,8.52014,0,0,0,1.42041.28564,18.311,18.311,0,0,1,3.31787.52674,4.92147,4.92147,0,0,1,.85693.39685,4.23083,4.23083,0,0,1,.35254.24475l.08448.0614.11035.09558c.05957.05139.11328.10876.16845.16418a4.36864,4.36864,0,0,1,.876,1.51648,12.17607,12.17607,0,0,0,.54248,1.36975,2.8224,2.8224,0,0,0,.78223.96082,1.8995,1.8995,0,0,0,.95556.39575,1.51238,1.51238,0,0,0,.81006-.10852.60823.60823,0,0,0,.34424-.3789A.75711.75711,0,0,0,49.27225,26.57006Z"/></svg>