<svg id="ac16e8e5-786a-4ddc-ab0c-bd2154aac2d2" data-name="Layer 1" xmlns="http://www.w3.org/2000/svg" xmlns:xlink="http://www.w3.org/1999/xlink" viewBox="0 0 52.01138 40.37257"><defs><style>.a091bbfe-d293-400b-ab87-16b860ed50cd,.a1385064-f0fd-488b-ba4d-59918908c8fd,.a18e1a08-7c16-4039-8192-dc5d9115cccd,.a668e3a9-1e3e-4316-8f0f-3f169176c6d2,.bd7fa202-c4f4-49d7-a0af-a6b86653a77d{fill:none;}.a5195d3b-36ac-4ea1-958d-d715c2ad6ff5,.ad9718f2-b201-4441-9e8e-db2335a888e8,.bba79be9-ee91-4e64-bd36-e9d095ea3d3d,.bf5d5320-5203-47e0-91d0-f21c6becfd58,.fbffa822-a2cb-4bfb-8e39-4d4aa20d31ba{fill:#a7a9ac;}.a93f5a0d-65ab-49dd-9e48-5ac42243179f{clip-path:url(#b0fd2654-32c8-490e-bab0-09f44fe270f0);}.aa6a6b0d-17ce-4e0e-9337-d3957436042d{fill:#566345;}.f57267df-c804-4498-aed4-5ee648a1263b{fill:#63774e;}.ac698ddc-6661-4f62-813b-1b1ecfc2bbba{clip-path:url(#fcef823f-1f5b-4f61-9330-da4b98106009);}.f8c9ea1b-88f0-4a9f-be76-3f7092845333{clip-path:url(#feeec380-354d-4f79-bb9b-ba27a8a7fcdd);}.fc8c7f77-182b-402d-a2e5-97be49a5fed8{clip-path:url(#f203e001-5121-474c-b68c-c15d08054724);}.bfb35eb7-300f-401a-a60c-ea6e7e4d4f30{clip-path:url(#fdb88432-a8c5-47b9-9cff-df8c0dde28a4);}.a3b64c97-14f1-4c39-ae06-5fbcd0028116{fill:#e6e7e8;}.a1385064-f0fd-488b-ba4d-59918908c8fd,.a18e1a08-7c16-4039-8192-dc5d9115cccd,.a668e3a9-1e3e-4316-8f0f-3f169176c6d2,.bd7fa202-c4f4-49d7-a0af-a6b86653a77d{stroke:#fff;}.a1385064-f0fd-488b-ba4d-59918908c8fd,.a18e1a08-7c16-4039-8192-dc5d9115cccd,.a5195d3b-36ac-4ea1-958d-d715c2ad6ff5,.a668e3a9-1e3e-4316-8f0f-3f169176c6d2,.ad9718f2-b201-4441-9e8e-db2335a888e8,.bba79be9-ee91-4e64-bd36-e9d095ea3d3d,.bd7fa202-c4f4-49d7-a0af-a6b86653a77d,.bf5d5320-5203-47e0-91d0-f21c6becfd58{stroke-miterlimit:10;}.a1385064-f0fd-488b-ba4d-59918908c8fd,.bf5d5320-5203-47e0-91d0-f21c6becfd58{stroke-width:1.44955px;}.a18e1a08-7c16-4039-8192-dc5d9115cccd,.a5195d3b-36ac-4ea1-958d-d715c2ad6ff5{stroke-width:0.72477px;}.ebb12006-1ccc-48e0-8af2-bae8c8f5e8a3{clip-path:url(#ba8a8789-6164-45a0-b43e-afe3b60c7f64);}.bc368bf9-9f8a-4e0c-8846-cdb0cb2c0ca5{clip-path:url(#e2d0e317-475e-4cf0-955a-7ee54312c518);}.b9cc20c4-4a33-40ef-a1db-d6d6c8e67c75{clip-path:url(#a794b867-2cac-4d51-8e82-f6c9fe66c395);}.a5195d3b-36ac-4ea1-958d-d715c2ad6ff5,.ad9718f2-b201-4441-9e8e-db2335a888e8,.bba79be9-ee91-4e64-bd36-e9d095ea3d3d,.bf5d5320-5203-47e0-91d0-f21c6becfd58{stroke:#bcbec0;}.e5afd454-7c5e-48c4-ab90-c187470ee07f{clip-path:url(#ee279e96-9f12-43e7-97fc-c6649c8a2eaf);}.edd1ca11-d4f3-4f5f-82c8-c4d5a39c2307{clip-path:url(#b41f232d-1a32-4421-9614-589457a9aacc);}.a668e3a9-1e3e-4316-8f0f-3f169176c6d2,.ad9718f2-b201-4441-9e8e-db2335a888e8{stroke-width:1.1025px;}.bba79be9-ee91-4e64-bd36-e9d095ea3d3d,.bd7fa202-c4f4-49d7-a0af-a6b86653a77d{stroke-width:0.55125px;}.ab026826-9717-4638-bb9b-fcee8dd8dcf4{clip-path:url(#b33cbb4f-8dab-41dc-8139-9170cdc51c97);}</style><clipPath id="b0fd2654-32c8-490e-bab0-09f44fe270f0"><rect class="a091bbfe-d293-400b-ab87-16b860ed50cd" x="-64.22168" y="-143.56663" width="128.987" height="79.98967" transform="translate(0.54363 -207.1436) rotate(-180)"/></clipPath><clipPath id="fcef823f-1f5b-4f61-9330-da4b98106009"><rect class="a091bbfe-d293-400b-ab87-16b860ed50cd" x="90.78448" y="-140.43846" width="128.987" height="79.98967" transform="translate(310.55596 -200.88726) rotate(-180)"/></clipPath><clipPath id="feeec380-354d-4f79-bb9b-ba27a8a7fcdd"><rect class="a091bbfe-d293-400b-ab87-16b860ed50cd" x="70.7906" y="-6.61373" width="104.5" height="104.16235"/></clipPath><clipPath id="f203e001-5121-474c-b68c-c15d08054724"><path class="fbffa822-a2cb-4bfb-8e39-4d4aa20d31ba" d="M8.07074,13.78923q-1.9007,3.68851-3.6582,7.4485,4.70309-2.0904,9.57576-3.76739A26.4362,26.4362,0,0,1,7.86847,14.2631"/></clipPath><clipPath id="fdb88432-a8c5-47b9-9cff-df8c0dde28a4"><path class="a091bbfe-d293-400b-ab87-16b860ed50cd" d="M7.48186,13.55633q-1.90069,3.68851-3.6582,7.44851,4.70309-2.09042,9.57576-3.76739a26.43658,26.43658,0,0,1-6.11983-3.20724"/></clipPath><clipPath id="ba8a8789-6164-45a0-b43e-afe3b60c7f64"><path class="fbffa822-a2cb-4bfb-8e39-4d4aa20d31ba" d="M26.52285,28.74885,36.83907,27.1492c-1.99609.31709-4.1984-3.581-5.52492-4.75282a14.82556,14.82556,0,0,1-2.35576,3.36073A24.241,24.241,0,0,1,26.52285,28.74885Z"/></clipPath><clipPath id="e2d0e317-475e-4cf0-955a-7ee54312c518"><path class="a091bbfe-d293-400b-ab87-16b860ed50cd" d="M26.14821,28.34116l10.31622-1.59964c-1.99609.31708-4.1984-3.581-5.52492-4.75283a14.82584,14.82584,0,0,1-2.35576,3.36074A24.24088,24.24088,0,0,1,26.14821,28.34116Z"/></clipPath><clipPath id="a794b867-2cac-4d51-8e82-f6c9fe66c395"><path class="fbffa822-a2cb-4bfb-8e39-4d4aa20d31ba" d="M46.36106,1.00582A90.69739,90.69739,0,0,1,32.36044,13.78923c6.34433-1.88987,13.53731.918,19.65094-1.62081-.4445.40155-1.09014-.18534-1.38142-.70877A42.46178,42.46178,0,0,1,46.40483.54358"/></clipPath><clipPath id="ee279e96-9f12-43e7-97fc-c6649c8a2eaf"><path class="a091bbfe-d293-400b-ab87-16b860ed50cd" d="M45.68158.46224A90.69693,90.69693,0,0,1,31.681,13.24565c6.34433-1.88987,13.53732.918,19.65094-1.62081-.4445.40155-1.09014-.18534-1.38141-.70877A42.46141,42.46141,0,0,1,45.72536,0"/></clipPath><clipPath id="b41f232d-1a32-4421-9614-589457a9aacc"><path class="fbffa822-a2cb-4bfb-8e39-4d4aa20d31ba" d="M14.50369,30.97343A68.9832,68.9832,0,0,1,.17589,32.5983C4.92669,34.26572,8.10362,39.20519,13.002,40.37c-.453.04893-.58869-.60066-.53448-1.053a32.29549,32.29549,0,0,1,2.26946-8.60865"/></clipPath><clipPath id="b33cbb4f-8dab-41dc-8139-9170cdc51c97"><path class="a091bbfe-d293-400b-ab87-16b860ed50cd" d="M14.3278,30.33541A68.98252,68.98252,0,0,1,0,31.96027c4.7508,1.66743,7.92773,6.60689,12.82607,7.77167-.453.04893-.58869-.60067-.53448-1.053a32.29549,32.29549,0,0,1,2.26946-8.60865"/></clipPath></defs><title>Artboard 161</title><g class="a93f5a0d-65ab-49dd-9e48-5ac42243179f"><path class="aa6a6b0d-17ce-4e0e-9337-d3957436042d" d="M-6.70073-58.36168c2.98269-.12456,1.25283,16.4526,1.15345,18.2104C-6.073-30.85139-4.28567-23.91958-.175-15.43661c5.07134,10.46533,10.26117,20.8701,15.4325,31.286,4.86819,9.80534,3.17672,17.31219,2.33973,27.99405a87.50834,87.50834,0,0,0,9.77184,47.28018c1.036,1.96557,2.5901,6.245,4.35854,7.562,3.64825,2.71661,15.86439.60353,19.79885-.80946a140.22524,140.22524,0,0,1-4.6007-15.17862,129.58858,129.58858,0,0,1-3.43853-39.34018c.49251-7.40365.95056-13.698-.20929-21.11518Q40.19688,2.539,36.13281-16.98735c-2.90812-13.96414-4.1456-27.576-6.21773-41.74145a6.59162,6.59162,0,0,0-1.1818-3.42542c-3.17193-3.70768-11.565.88574-14.89626,1.90442C7.248-58.23574.10967-58.64609-6.70073-58.36168Z"/><path class="f57267df-c804-4498-aed4-5ee648a1263b" d="M-10.35645-69.93131c-3.9153-4.29314-9.19384-3.20581-12.06051,1.24324-4.48736,6.9643-8.38333,12.03085-9.98452,20.47677-1.58533,8.36228.70336,15.71411.721,23.83745C-31.662-15.83848-33.115-7.01351-33.8038,1.511c-.53644,6.63864-.87843,12.68572-5.14906,18.13288-2.18859,2.79155-5.04339,3.837-7.84882,5.64927A65.522,65.522,0,0,0-65.34542,44.34149c-6.61187,10.19834-13.32786,20.62933-16.346,32.40276-.77128,3.00864-1.272,6.07585-1.98153,9.0981-.67957,2.89473-3.31594,6.51932.18932,7.74989,3.28784,1.15424,6.75606,1.81333,9.72394,3.74046-4.2857-2.78282,20.02-30.47792,22.33612-33.0214C-45.122,57.39115-38.06412,51.90521-31.33079,45.556c5.66894-5.3455,12.80489-9.365,17.43227-15.80075,2.75748-3.8351,4.542-8.26826,6.28416-12.65875C-2.66582,4.62573,2.17832-7.97426,4.77585-21.13717a4.40791,4.40791,0,0,1,.54121-1.61839,4.32647,4.32647,0,0,1,1.28-1.12051c6.156-4.09193,8.88658-6.91383,11.96334-13.71887a176.42334,176.42334,0,0,0,9.76134-27.40379,34.66448,34.66448,0,0,0-17.28627,4.09678"/></g><path class="fbffa822-a2cb-4bfb-8e39-4d4aa20d31ba" d="M8.07074,13.78923q-1.9007,3.68851-3.6582,7.4485,4.70309-2.0904,9.57576-3.76739A26.4362,26.4362,0,0,1,7.86847,14.2631"/><g class="fc8c7f77-182b-402d-a2e5-97be49a5fed8"><path class="fbffa822-a2cb-4bfb-8e39-4d4aa20d31ba" d="M8.07074,13.78923q-1.9007,3.68851-3.6582,7.4485,4.70309-2.0904,9.57576-3.76739A26.4362,26.4362,0,0,1,7.86847,14.2631"/><path class="fbffa822-a2cb-4bfb-8e39-4d4aa20d31ba" d="M8.5711,13.78923,10.91279,22.259"/><path class="fbffa822-a2cb-4bfb-8e39-4d4aa20d31ba" d="M6.09517,15.90814c.72836,3.11461,2.82839,5.8692,3.03241,9.06132"/></g><g class="bfb35eb7-300f-401a-a60c-ea6e7e4d4f30"><path class="a3b64c97-14f1-4c39-ae06-5fbcd0028116" d="M7.48186,13.55633q-1.90069,3.68851-3.6582,7.44851,4.70309-2.09042,9.57576-3.76739a26.43658,26.43658,0,0,1-6.11983-3.20724"/><path class="a1385064-f0fd-488b-ba4d-59918908c8fd" d="M7.98222,13.55633l2.34169,8.46983"/><path class="a18e1a08-7c16-4039-8192-dc5d9115cccd" d="M5.5063,15.67525c.72835,3.11461,2.82839,5.86919,3.0324,9.06132"/></g><path class="fbffa822-a2cb-4bfb-8e39-4d4aa20d31ba" d="M26.52285,28.74885,36.83907,27.1492c-1.99609.31709-4.1984-3.581-5.52492-4.75282a14.82556,14.82556,0,0,1-2.35576,3.36073A24.241,24.241,0,0,1,26.52285,28.74885Z"/><g class="ebb12006-1ccc-48e0-8af2-bae8c8f5e8a3"><path class="fbffa822-a2cb-4bfb-8e39-4d4aa20d31ba" d="M26.52285,28.74885,36.83907,27.1492c-1.99609.31709-4.1984-3.581-5.52492-4.75282a14.82556,14.82556,0,0,1-2.35576,3.36073A24.241,24.241,0,0,1,26.52285,28.74885Z"/><path class="fbffa822-a2cb-4bfb-8e39-4d4aa20d31ba" d="M30.23661,23.15873l2.34169,8.46983"/><path class="fbffa822-a2cb-4bfb-8e39-4d4aa20d31ba" d="M27.76068,25.27765c.72835,3.11461,2.82839,5.86919,3.0324,9.06132"/></g><g class="bc368bf9-9f8a-4e0c-8846-cdb0cb2c0ca5"><path class="a3b64c97-14f1-4c39-ae06-5fbcd0028116" d="M26.14821,28.34116l10.31622-1.59964c-1.99609.31708-4.1984-3.581-5.52492-4.75283a14.82584,14.82584,0,0,1-2.35576,3.36074A24.24088,24.24088,0,0,1,26.14821,28.34116Z"/><path class="a1385064-f0fd-488b-ba4d-59918908c8fd" d="M29.862,22.75105l2.34169,8.46982"/><path class="a18e1a08-7c16-4039-8192-dc5d9115cccd" d="M27.386,24.87c.72835,3.11461,2.82839,5.8692,3.0324,9.06132"/></g><path class="fbffa822-a2cb-4bfb-8e39-4d4aa20d31ba" d="M46.36106,1.00582A90.69739,90.69739,0,0,1,32.36044,13.78923c6.34433-1.88987,13.53731.918,19.65094-1.62081-.4445.40155-1.09014-.18534-1.38142-.70877A42.46178,42.46178,0,0,1,46.40483.54358"/><g class="b9cc20c4-4a33-40ef-a1db-d6d6c8e67c75"><path class="fbffa822-a2cb-4bfb-8e39-4d4aa20d31ba" d="M46.36106,1.00582A90.69739,90.69739,0,0,1,32.36044,13.78923c6.34433-1.88987,13.53731.918,19.65094-1.62081-.4445.40155-1.09014-.18534-1.38142-.70877A42.46178,42.46178,0,0,1,46.40483.54358"/><path class="bf5d5320-5203-47e0-91d0-f21c6becfd58" d="M42.74181,4.82l2.34169,8.46983"/><path class="a5195d3b-36ac-4ea1-958d-d715c2ad6ff5" d="M40.26588,6.93891c.72835,3.1146,2.82839,5.86919,3.03241,9.06132"/></g><g class="e5afd454-7c5e-48c4-ab90-c187470ee07f"><path class="a3b64c97-14f1-4c39-ae06-5fbcd0028116" d="M45.68158.46224A90.69693,90.69693,0,0,1,31.681,13.24565c6.34433-1.88987,13.53732.918,19.65094-1.62081-.4445.40155-1.09014-.18534-1.38141-.70877A42.46141,42.46141,0,0,1,45.72536,0"/><path class="a1385064-f0fd-488b-ba4d-59918908c8fd" d="M42.06234,4.27641,44.404,12.74624"/><path class="a18e1a08-7c16-4039-8192-dc5d9115cccd" d="M39.58641,6.39533c.72835,3.1146,2.82839,5.86919,3.0324,9.06131"/></g><path class="fbffa822-a2cb-4bfb-8e39-4d4aa20d31ba" d="M14.50369,30.97343A68.9832,68.9832,0,0,1,.17589,32.5983C4.92669,34.26572,8.10362,39.20519,13.002,40.37c-.453.04893-.58869-.60066-.53448-1.053a32.29549,32.29549,0,0,1,2.26946-8.60865"/><g class="edd1ca11-d4f3-4f5f-82c8-c4d5a39c2307"><path class="fbffa822-a2cb-4bfb-8e39-4d4aa20d31ba" d="M14.50369,30.97343A68.9832,68.9832,0,0,1,.17589,32.5983C4.92669,34.26572,8.10362,39.20519,13.002,40.37c-.453.04893-.58869-.60066-.53448-1.053a32.29549,32.29549,0,0,1,2.26946-8.60865"/><path class="ad9718f2-b201-4441-9e8e-db2335a888e8" d="M10.57245,31.70731l-2.33773,6.2615"/><path class="bba79be9-ee91-4e64-bd36-e9d095ea3d3d" d="M8.10192,31.90736c-.94141,2.24329-.87736,4.877-2.1763,6.934"/></g><g class="ab026826-9717-4638-bb9b-fcee8dd8dcf4"><path class="a3b64c97-14f1-4c39-ae06-5fbcd0028116" d="M14.3278,30.33541A68.98252,68.98252,0,0,1,0,31.96027c4.7508,1.66743,7.92773,6.60689,12.82607,7.77167-.453.04893-.58869-.60067-.53448-1.053a32.29549,32.29549,0,0,1,2.26946-8.60865"/><path class="a668e3a9-1e3e-4316-8f0f-3f169176c6d2" d="M10.39656,31.06929l-2.33773,6.2615"/><path class="bd7fa202-c4f4-49d7-a0af-a6b86653a77d" d="M7.926,31.26933c-.94141,2.2433-.87736,4.877-2.1763,6.93405"/></g></svg>