<svg id="e25a3e4b-e4a9-4c7b-a083-47b899d8bdf5" data-name="Layer 1" xmlns="http://www.w3.org/2000/svg" xmlns:xlink="http://www.w3.org/1999/xlink" viewBox="0 0 13.63195 14.05107"><defs><style>.a0b59795-2f59-43dc-a7d8-4a77517423fc,.ae3d90d2-58af-4a02-9814-3da80d810e63,.fa7f00b5-f2ed-4871-9746-6d591ead95a1{fill:none;}.e542235d-2b4e-4309-b990-4f5fb2fcd0cd{fill:#a7a9ac;}.a5d74d71-451b-45f5-9229-5ea37ff69b40{clip-path:url(#f57f1199-208e-4c7d-8041-edf3a00319da);}.a5b57d4c-78d4-46e9-933c-3f3e1d933da8{fill:#566345;}.ebcf7068-1b46-439e-9067-343356b1b805{fill:#63774e;}.af34a696-9114-4760-8b37-101fa64f6d1f{clip-path:url(#fc723bc7-c014-4dbc-9268-1fddb52a3296);}.eaa95402-5ac1-4425-9a2c-07d646dfad0c{clip-path:url(#f96b2e64-2efe-4640-a7fd-b2f89a653c71);}.e4b89f19-641b-4334-9bd8-eda713a22560{fill:#ed1c24;}.a8d668d6-9d0e-44f1-be7b-1053fb52ab5e{clip-path:url(#b3258bca-9ea9-400d-8f88-998a6dd950f6);}.ec10eecb-78b1-41c0-824a-e7868dedf4bb{clip-path:url(#e61a31e2-1649-4ed3-8101-ba0400067ea6);}.a2b2fd19-c1b6-4204-b5e2-f4e3783525ef{fill:#e6e7e8;}.a0b59795-2f59-43dc-a7d8-4a77517423fc,.fa7f00b5-f2ed-4871-9746-6d591ead95a1{stroke:#fff;stroke-miterlimit:10;}.fa7f00b5-f2ed-4871-9746-6d591ead95a1{stroke-width:1.44955px;}.a0b59795-2f59-43dc-a7d8-4a77517423fc{stroke-width:0.72477px;}</style><clipPath id="f57f1199-208e-4c7d-8041-edf3a00319da"><rect class="ae3d90d2-58af-4a02-9814-3da80d810e63" x="-83.92857" y="-209.49351" width="128.987" height="79.98967" transform="translate(-38.87014 -338.99735) rotate(-180)"/></clipPath><clipPath id="fc723bc7-c014-4dbc-9268-1fddb52a3296"><rect class="ae3d90d2-58af-4a02-9814-3da80d810e63" x="71.0776" y="-206.36534" width="128.987" height="79.98967" transform="translate(271.14219 -332.74101) rotate(-180)"/></clipPath><clipPath id="f96b2e64-2efe-4640-a7fd-b2f89a653c71"><rect class="ae3d90d2-58af-4a02-9814-3da80d810e63" x="51.08372" y="-72.5406" width="104.5" height="104.16235"/></clipPath><clipPath id="b3258bca-9ea9-400d-8f88-998a6dd950f6"><path class="e542235d-2b4e-4309-b990-4f5fb2fcd0cd" d="M7.71439.426Q5.8137,4.11455,4.05619,7.87453,8.75927,5.78413,13.632,4.10714A26.43613,26.43613,0,0,1,7.51213.8999"/></clipPath><clipPath id="e61a31e2-1649-4ed3-8101-ba0400067ea6"><path class="ae3d90d2-58af-4a02-9814-3da80d810e63" d="M7.12551.19314q-1.90069,3.6885-3.65819,7.4485,4.70307-2.0904,9.57575-3.76739A26.43633,26.43633,0,0,1,6.92325.667"/></clipPath></defs><title>Artboard 164</title><g class="a5d74d71-451b-45f5-9229-5ea37ff69b40"><path class="a5b57d4c-78d4-46e9-933c-3f3e1d933da8" d="M-26.40761-124.28856c2.98269-.12456,1.25283,16.45261,1.15345,18.21041-.52576,9.29989,1.2616,16.2317,5.37228,24.71466,5.07135,10.46533,10.26117,20.87011,15.43251,31.286,4.86819,9.80534,3.17672,17.31218,2.33972,27.994A87.17609,87.17609,0,0,0,.71159,7.5137,86.77144,86.77144,0,0,0,7.6622,25.19676c1.036,1.96557,2.5901,6.245,4.35854,7.562,3.64825,2.71662,15.86439.60354,19.79885-.80945a140.22524,140.22524,0,0,1-4.6007-15.17862,129.58861,129.58861,0,0,1-3.43853-39.34018c.4925-7.40366.95056-13.698-.20929-21.11518Q20.49-63.38786,16.42593-82.91422c-2.90812-13.96415-4.1456-27.576-6.21773-41.74145a6.59169,6.59169,0,0,0-1.1818-3.42543c-3.17193-3.70768-11.565.88575-14.89626,1.90442C-12.45888-124.16262-19.59721-124.573-26.40761-124.28856Z"/><path class="ebcf7068-1b46-439e-9067-343356b1b805" d="M-30.06334-135.85818c-3.91529-4.29314-9.19383-3.20581-12.0605,1.24323-4.48736,6.96431-8.38333,12.03086-9.98452,20.47678-1.58533,8.36228.70336,15.71411.721,23.83745.01853,8.53537-1.43447,17.36033-2.12331,25.88488-.53644,6.63864-.87844,12.68572-5.14906,18.13288-2.18859,2.79155-5.04339,3.837-7.84882,5.64927A65.522,65.522,0,0,0-85.0523-21.58538C-91.66417-11.387-98.38016-.95606-101.3983,10.81737c-.77127,3.00865-1.272,6.07586-1.98153,9.0981-.67956,2.89474-3.31593,6.51933.18933,7.7499,3.28784,1.15424,6.75605,1.81333,9.72394,3.74046C-97.75226,28.623-73.44655.9279-71.13044-1.61558-64.82889-8.53572-57.771-14.02166-51.03767-20.37083c5.66894-5.34551,12.80489-9.365,17.43227-15.80076,2.75748-3.83509,4.542-8.26825,6.28416-12.65875C-22.3727-61.30115-17.52856-73.90114-14.931-87.064a4.40791,4.40791,0,0,1,.54121-1.61839,4.32647,4.32647,0,0,1,1.28-1.12051c6.156-4.09193,8.88658-6.91383,11.96334-13.71887a176.423,176.423,0,0,0,9.76133-27.4038A34.66457,34.66457,0,0,0-8.6714-126.82883"/></g><ellipse class="e4b89f19-641b-4334-9bd8-eda713a22560" cx="3.8252" cy="7.82904" rx="0.56527" ry="0.57585"/><path class="e4b89f19-641b-4334-9bd8-eda713a22560" d="M2.88725,8.77007a13.92014,13.92014,0,0,0-2.40344,2.3432,2.71968,2.71968,0,0,0-.39882.69988,1.75466,1.75466,0,0,0,1.08817,2.17026,1.75467,1.75467,0,0,0,2.12955-1.16585,4.48675,4.48675,0,0,0-.20254-2.06114,7.00311,7.00311,0,0,1-.10935-2.13093,1.78739,1.78739,0,0,0-.531.38329"/><path class="e542235d-2b4e-4309-b990-4f5fb2fcd0cd" d="M7.71439.426Q5.8137,4.11455,4.05619,7.87453,8.75927,5.78413,13.632,4.10714A26.43613,26.43613,0,0,1,7.51213.8999"/><g class="a8d668d6-9d0e-44f1-be7b-1053fb52ab5e"><path class="e542235d-2b4e-4309-b990-4f5fb2fcd0cd" d="M7.71439.426Q5.8137,4.11455,4.0562,7.87453,8.75927,5.78413,13.632,4.10714A26.43613,26.43613,0,0,1,7.51213.8999"/><path class="e542235d-2b4e-4309-b990-4f5fb2fcd0cd" d="M8.21476.426l2.34169,8.46983"/><path class="e542235d-2b4e-4309-b990-4f5fb2fcd0cd" d="M5.73883,2.545c.72835,3.1146,2.82839,5.86919,3.0324,9.06131"/></g><g class="ec10eecb-78b1-41c0-824a-e7868dedf4bb"><path class="a2b2fd19-c1b6-4204-b5e2-f4e3783525ef" d="M7.12551.19314q-1.90069,3.6885-3.65819,7.4485,4.70307-2.0904,9.57575-3.76739A26.43633,26.43633,0,0,1,6.92325.667"/><path class="fa7f00b5-f2ed-4871-9746-6d591ead95a1" d="M7.62588.19314,9.96757,8.663"/><path class="a0b59795-2f59-43dc-a7d8-4a77517423fc" d="M5.14995,2.31205c.72835,3.11461,2.82839,5.8692,3.0324,9.06132"/></g></svg>