<svg xmlns="http://www.w3.org/2000/svg" xmlns:xlink="http://www.w3.org/1999/xlink" viewBox="0 0 128.987 79.98967"><defs><style>.aa8ffadf-b760-4339-9de9-e973ce6f8001,.b5f2cbe8-3ab1-48d0-b07d-0a21ae2dcce3,.f14351dd-78fb-45c4-a065-82bb430d3331{fill:none;}.f14351dd-78fb-45c4-a065-82bb430d3331{stroke:#7f1837;stroke-miterlimit:10;stroke-width:1.96634px;}.aa0599bc-7a84-485b-ac39-655a39d4cc70{isolation:isolate;}.f5859047-ce4b-433c-8a78-c4d5a5cf15ba{clip-path:url(#e5ca4fa4-8a44-4184-8c69-8fc81e8977ab);}.b07ccb14-ab17-436f-acad-2ddb76ae072b{fill:#a7a9ac;opacity:0.33;mix-blend-mode:multiply;}.bce9482f-60d7-499e-a79f-114698dff093{fill:#1a242d;}.e7ea8274-2114-49ae-8726-a046f3733530{fill:#566345;}.aa83b1b5-1d80-4f4d-b28b-ff199cafd29b{fill:#63774e;}.adce0f25-f021-4443-9eee-fc7777685542{clip-path:url(#a6ff68ac-31ef-4162-8970-87857c0a517d);}.af42aba8-d0cc-4b98-b68d-d9c34588d4fa{clip-path:url(#b894c741-e632-4c7a-866e-a495c593e785);}.fb12d85d-8422-43c2-91d7-3c4d27b051b4{fill:#f6d2ba;}.a7098547-73aa-4b98-acee-9ffb8f0ccd93{clip-path:url(#acca9206-f5a1-476a-af24-8bfadaf71086);}.edcb92d3-9bb7-4eee-bdd4-dde1c58f8e95{fill:#a97c50;}.e81461aa-9235-40ff-b98c-0c6987ebcefa{fill:#fff;}.b94a3d62-c07e-45a1-bdeb-74e1262f6ba6{fill:#6f825a;}.a3bb310e-545b-45c2-8189-e56e275d4ec7{fill:#938c6c;}.ace7285e-bc79-411b-9e7d-5cc84c199104{clip-path:url(#b31c7cb0-1d78-4491-9443-7e732523a6ec);}.eb679f2e-bc3e-49a8-810b-bd9a183ec269{fill:#ee978f;}.b5f2cbe8-3ab1-48d0-b07d-0a21ae2dcce3{stroke:#dd7677;stroke-linecap:round;stroke-linejoin:round;stroke-width:2.13388px;}.fe44d29d-a191-46ce-a018-ac009502d99e{fill:#e86978;}.bec03848-fef0-46b8-8bef-c6e957785da5{fill:#d67167;}.a779dd98-1889-425a-a7e1-f9fb3f5a7265{fill:#9b4c6a;}.e5761dcd-2345-4667-844d-3abc371d6370{fill:#b35077;}.bb107304-1459-4429-b047-4d36cadf4c17{fill:#af2027;}</style><clipPath id="e5ca4fa4-8a44-4184-8c69-8fc81e8977ab"><rect class="aa8ffadf-b760-4339-9de9-e973ce6f8001" x="-1.27617" y="-138.1065" width="126.33333" height="81.17289"/></clipPath><clipPath id="a6ff68ac-31ef-4162-8970-87857c0a517d"><rect class="aa8ffadf-b760-4339-9de9-e973ce6f8001" x="236.90312" y="17.9559" width="95.66667" height="72.83956"/></clipPath><clipPath id="b894c741-e632-4c7a-866e-a495c593e785"><rect class="aa8ffadf-b760-4339-9de9-e973ce6f8001" x="-155.00615" y="-3.12817" width="128.987" height="79.98967" transform="translate(-181.0253 73.73333) rotate(-180)"/></clipPath><clipPath id="acca9206-f5a1-476a-af24-8bfadaf71086"><rect class="aa8ffadf-b760-4339-9de9-e973ce6f8001" x="0.00002" width="128.987" height="79.98967" transform="translate(128.98703 79.98967) rotate(-180)"/></clipPath><clipPath id="b31c7cb0-1d78-4491-9443-7e732523a6ec"><path class="f14351dd-78fb-45c4-a065-82bb430d3331" d="M53.174,63.78633c-2.277-3.12911-3.0178-6.97614-4.38637-10.66048a42.07654,42.07654,0,0,1-2.74419-12.44673c-.12537-2.44481-.68712-6.15154.43942-8.4285a12.56526,12.56526,0,0,1,4.31289-4.29824,32.84478,32.84478,0,0,1,7.39519-3.5805c3.61721-1.32054,6.931-3.03413,10.94716-3.42348,3.61606-.35056,7.55807.53163,9.92423,2.87985a10.06446,10.06446,0,0,1,2.59795,7.628c-.11638,4.11287-.97636,7.88316-.466,12.01213A19.02954,19.02954,0,0,0,83.268,50.87871c1.07488,1.80764,2.43415,3.44308,3.39825,5.33442a18.83906,18.83906,0,0,1,1.136,2.68285c1.06606,3.26309.85225,6.54282-2.49374,9.13738-3.22747,2.50244-7.68073,2.67355-11.78179,2.89876a34.95656,34.95656,0,0,1-12.015-1.79969A20.63466,20.63466,0,0,1,57.31425,67.458,12.87916,12.87916,0,0,1,53.174,63.78633Z"/></clipPath></defs><title>Artboard 152</title><g class="aa0599bc-7a84-485b-ac39-655a39d4cc70"><g id="aeed7739-6f9b-49d1-aead-1bbe3478ec59" data-name="Layer 1"><g class="f5859047-ce4b-433c-8a78-c4d5a5cf15ba"><ellipse class="b07ccb14-ab17-436f-acad-2ddb76ae072b" cx="-42.95232" cy="50.98787" rx="8.4417" ry="61.10469" transform="translate(-71.54488 -9.23779) rotate(-65.50723)"/><path class="bce9482f-60d7-499e-a79f-114698dff093" d="M5.2884,62.47916c-1.34515-.78534-2.52-1.55954-4.108-1.47289C-.89,61.11925-2.12678,62.625-3.121,64.11069a3.48336,3.48336,0,0,0-.71432,2.00386,4.47544,4.47544,0,0,0,.66818,1.94421,20.168,20.168,0,0,0,6.85634,7.22971,10.98405,10.98405,0,0,0,6.16869,1.98665c2.12372-.10248,4.12873-1.43161,4.36955-3.41019.26263-2.15776-1.48177-4.23971-3.1059-5.99748a9.66244,9.66244,0,0,1-2.20918-2.754,3.485,3.485,0,0,0-.33874-.73787c-.2949-.42032-1.03922-.53013-1.48566-.78949C6.47945,63.23255,5.89661,62.83425,5.2884,62.47916Z"/><path class="e7ea8274-2114-49ae-8726-a046f3733530" d="M17.78314-40.29661c1.75077.711-3.59583,9.80578-4.11435,10.79222-2.74332,5.21895-3.5328,9.68084-3.39107,15.64591.17489,7.359.43392,14.7143.67937,22.07112.23106,6.92556-2.7132,10.80577-5.99845,16.73908A55.39089,55.39089,0,0,0-1.81981,54.75031c.08094,1.40407-.14685,4.27691.52618,5.49964,1.38857,2.52219,8.97981,4.51076,11.61692,4.72933a88.75871,88.75871,0,0,1,1.33307-9.95048,82.027,82.027,0,0,1,8.343-23.563c2.22655-4.1354,4.14216-7.64087,5.42047-12.21766q3.39575-12.158,6.17886-24.472C33.588-14.03063,36.44716-22.196,38.97087-30.89939a4.17239,4.17239,0,0,0,.21816-2.28323c-.85413-2.96807-6.89408-2.52466-9.08029-2.81208C25.78482-36.56365,21.78069-38.67325,17.78314-40.29661Z"/><path class="aa83b1b5-1d80-4f4d-b28b-ff199cafd29b" d="M18.71346-47.92026c-1.12868-3.50038-4.45455-4.25924-7.27333-2.44878C7.02776-47.535,3.45405-45.639.31537-41.19416c-3.10761,4.40081-3.71854,9.23619-5.8401,13.92-2.22917,4.92139-5.382,9.62344-8.01575,14.353-2.05111,3.68321-3.835,7.07669-7.72437,9.09367-1.99323,1.03365-3.912.88672-6.00355,1.1944a41.474,41.474,0,0,0-15.68018,6.106c-6.4848,4.13935-13.09062,8.38539-17.9187,14.37509-1.23379,1.53064-2.32714,3.166-3.52891,4.72069-1.15108,1.48909-3.62084,2.88509-1.92467,4.51376,1.591,1.52766,3.41576,2.81743,4.61961,4.70633-1.73838-2.72761,19.52988-12.30223,21.53147-13.15953,5.44578-2.33249,10.95087-3.64037,16.49555-5.53065,4.66817-1.59148,9.83342-2.03419,14.18773-4.527A36.58123,36.58123,0,0,0-2.54481,2.929C3.57822-2.95584,9.675-8.94248,14.62544-15.84291a2.78993,2.78993,0,0,1,.73644-.7902,2.73853,2.73853,0,0,1,1.03136-.30954c4.61976-.74158,6.93315-1.65049,10.4912-4.76292a111.67216,111.67216,0,0,0,12.814-13.22354,21.94187,21.94187,0,0,0-11.03229-2.17642"/></g><g class="af42aba8-d0cc-4b98-b68d-d9c34588d4fa"><path class="fb12d85d-8422-43c2-91d7-3c4d27b051b4" d="M-1.111,28.49976c-.71793-4.27739,1.87776-7.25969,3.55157-11.518,1.32736-3.37768,3.52783-6.52586,4.51274-1.22714C6.942,15.694,9.62706,13.141,9.93049,12.7068c.93507-1.33807,1.44094-2.96858,2.945-3.80947a4.60266,4.60266,0,0,1,4.98738.43831,6.31242,6.31242,0,0,1,2.1284,7.12377C18.41894,20.65844,6.59351,38.6567.85348,32.94549A5.62813,5.62813,0,0,1-.24874,31.24218,11.12351,11.12351,0,0,1-1.111,28.49976Z"/><path class="e7ea8274-2114-49ae-8726-a046f3733530" d="M-54.86506,28.19192a63.99059,63.99059,0,0,1-12.13431-7.40236C-74.73512,14.9101-82.77044,8.79409-87.82383.31775c1.44985-4.11624-4.686-9.12955-.6888-13.73763,4.76779-5.50219,15.63229,8.656,19.69424,12.02017,6.0507,5.01133,13.12,9.35518,19.357,14.43065a16.93028,16.93028,0,0,0,2.85906,2.01539,19.12112,19.12112,0,0,0,6.27193,1.49789c6.50111.88612,12.55363,3.14325,19.029,3.678,3.5534.29342,7.10386.48044,10.66974.52495.97972.01223,9.39954-.592,9.6288-.09455A105.554,105.554,0,0,1,4.34284,34.88634l-39.29994-1.9865A53.26312,53.26312,0,0,1-54.86506,28.19192Z"/></g><g class="a7098547-73aa-4b98-acee-9ffb8f0ccd93"><path class="aa83b1b5-1d80-4f4d-b28b-ff199cafd29b" d="M54.74581,73.63533c-3.91529-4.29314-9.19383-3.20581-12.06051,1.24323-4.48736,6.9643-8.38332,12.03086-9.98451,20.47677-1.58534,8.36228.70336,15.71411.721,23.83746.01852,8.53537-1.43448,17.36033-2.12331,25.88488-.53645,6.63864-.87844,12.68571-5.14906,18.13288-2.1886,2.79154-5.04339,3.837-7.84882,5.64926A65.52209,65.52209,0,0,0-.24316,187.90813c-6.61186,10.19833-13.32785,20.62932-16.346,32.40275-.77127,3.00865-1.272,6.07586-1.98153,9.0981-.67956,2.89474-3.31593,6.51933.18932,7.74989,3.28785,1.15424,6.75606,1.81334,9.724,3.74047-4.28571-2.78282,20.02-30.47793,22.33612-33.02141,6.30154-6.92014,13.35943-12.40608,20.09277-18.75525,5.66893-5.34551,12.80489-9.365,17.43226-15.80076,2.75749-3.83509,4.542-8.26825,6.28416-12.65875,4.94855-12.47081,9.79269-25.0708,12.39022-38.2337a4.40765,4.40765,0,0,1,.5412-1.61839,4.32668,4.32668,0,0,1,1.28-1.12052c6.156-4.09193,8.88658-6.91382,11.96334-13.71886A176.42408,176.42408,0,0,0,93.424,78.5679a34.66463,34.66463,0,0,0-17.28627,4.09678"/><path class="edcb92d3-9bb7-4eee-bdd4-dde1c58f8e95" d="M24.30382-35.11506a24.43442,24.43442,0,0,1,1.42338-5.72257c2.26308-5.91149,6.52934-12.51729,2.62072-18.71816-3.39332-5.38336-13.256-5.71066-18.124-2.59892A19.89578,19.89578,0,0,0,1.27558-47.52206a21.62888,21.62888,0,0,0,.8582,8.60815c.95752,3.00065,2.47833,6.15068.69288,9.23666C1.37587-27.16967-1.81408-26.11456-3.386-23.68106c-2.1593,3.34289-.60538,8.16-2.83938,11.45339-1.43111,2.10979-4.18682,3.1869-5.2013,5.52566-1.126,2.59576-.70294,6.33233-.72437,9.09247.00831-1.0699,5.0699-3.6206,6.10067-3.83246,1.78621-.36714,3.91885.24759,5.74644.25134,4.47863.00921,9.969-.28,12.98685-4.10511,2.31877-2.939,2.40135-7.207,4.79364-10.08649,1.78355-2.14678,4.6653-3.27468,6.10917-5.66319,1.90034-3.1436.40166-6.89632.46052-10.28418A34.50393,34.50393,0,0,1,24.30382-35.11506Z"/><path class="e7ea8274-2114-49ae-8726-a046f3733530" d="M100.58189,31.32008a63.99077,63.99077,0,0,1-12.1343-7.40235C80.71184,18.03827,72.67652,11.92226,67.62313,3.44591c1.44984-4.11623-4.686-9.12954-.68881-13.73762,4.76779-5.50219,15.6323,8.656,19.69425,12.02016,6.0507,5.01134,13.12,9.35519,19.357,14.43066a16.93085,16.93085,0,0,0,2.85906,2.01539,19.12118,19.12118,0,0,0,6.27194,1.49789c6.5011.88612,12.55362,3.14325,19.029,3.678,3.5534.29342,7.10386.48043,10.66974.525.97972.01223,9.39955-.592,9.62881-.09455a105.55256,105.55256,0,0,1,5.34571,14.23376L120.48986,36.028A53.263,53.263,0,0,1,100.58189,31.32008Z"/><path class="fb12d85d-8422-43c2-91d7-3c4d27b051b4" d="M58.41419,14.12455a1.80114,1.80114,0,0,1-.76109.88168,1.66,1.66,0,0,1-1.07925-.00843,13.22678,13.22678,0,0,1-5.44075-3.28451C48.24748,9.0757,44.52932,5.30053,43.67955,1.34962c-.49491-2.301.71638-3.57583.96708-5.60369.14193-1.148-.23062-2.60278-.14456-3.83248.09523-1.36083.2-2.72106.3-4.08155a27.92724,27.92724,0,0,0-.08876-7.15609c-.33289-1.78742-1.19491-4.47974-2.87656-5.47614-1.33476-.79086-2.94685-.46612-4.06927-1.85733C33.138-32.39585,32.59769-42.38889,33.5186-49.38477a19.14992,19.14992,0,0,1,4.08612-10.18389,19.14954,19.14954,0,0,1,7.06539-4.78927,24.29294,24.29294,0,0,1,15.174-1.68943c9.786,2.4198,13.13873,9.57962,14.93246,17.93134.40726,1.89625.73416,3.85394,1.03774,5.83155C76.813-35.779,79.38493-22.049,70.20459-20.1854l-6.98595,1.41815c-2.20713.448-4.11812,5.29128-1.3584,4.47517.73063-.04186.74953.233,1.19047.81711a5.88455,5.88455,0,0,1,.86768,2.00525,27.83032,27.83032,0,0,1,1.01452,10.82c-.39828,2.98494-2.96439,4.71549-3.91584,7.38936C60.12594,9.244,59.71057,11.66782,58.41419,14.12455Z"/><path class="e81461aa-9235-40ff-b98c-0c6987ebcefa" d="M62.79175-11.50917c-.96.27311-.827,1.65585-.91692,2.39262-.15772,1.29243-.5819,2.60632-.86586,3.87792-.28691,1.28479-.71616,2.74955-1.92514,3.27049a3.99011,3.99011,0,0,1-2.95449-.28336,50.877,50.877,0,0,1-7.03149-3.73115C48.74952-6.18312,44.174-9.05926,44.055-8.5981c-.80135,3.10519.8784,6.65055,1.4156,9.70188q.88887,5.04908,1.85861,10.08346,1.91557,9.96639,4.08391,19.88188,2.15124,9.9234,4.44431,19.81529c.40205,1.75041,3.90737,19.67081,4.54365,19.66129a80.20629,80.20629,0,0,0,26.87559-5.0773Q85.67974,56.67921,83.74915,47.955,78.67015,25.00215,71.3169,2.63257A55.844,55.844,0,0,0,67.16837-7.459c-.654-1.15979-1.99112-3.33474-3.23553-3.87765A1.72244,1.72244,0,0,0,62.79175-11.50917Z"/><path class="aa83b1b5-1d80-4f4d-b28b-ff199cafd29b" d="M24.19165-1.69334a74.25135,74.25135,0,0,1,15.23878-9.71154c1.81338-.86537,3.99987-1.64782,5.74952-.65992a6.61475,6.61475,0,0,1,2.23787,2.66768C48.422-4.47494,52.26834-1.33335,55.77256,1.77124c3.07219,2.72184,5.1216,5.81479,7.44384,9.1A120.38829,120.38829,0,0,0,62.389-2.92151c-.31515-3.60261-.421-7.91364-1.805-11.29257-.15575-.38026,3.89432.38448,4.32255.6431A13.82822,13.82822,0,0,1,68.439-9.87271a26.54006,26.54006,0,0,1,2.8992,5.87159C74.339,4.0291,83.26732,7.82324,83.93713,17.07124c.27328,3.77317-.87972,7.34306-.577,11.08121.362,4.47-.37518,8.92366.26791,13.41271.73341,5.11951,3.34175,9.11158,4.81032,13.92807,1.3188,4.32527,6.74335,19.02574,2.96929,23.2609-1.75553,1.97-9.47685,1.38371-12.15675,1.89-4.90143.926-9.71187,2.28533-14.671,2.90413a135.9451,135.9451,0,0,1-19.9.89164c.02971-3.93912-1.0374-8.014-.85763-11.8951.14984-3.23509,1.27822-6.40756,1.25016-9.77123a40.17581,40.17581,0,0,0-6.30608-21.31439C30.44954,28.5594,28.42151,13.50453,24.8125-1.32157"/><path class="b94a3d62-c07e-45a1-bdeb-74e1262f6ba6" d="M64.63477,16.81416q-.11623-.3521-.23364-.70088c-1.36958-4.06846-1.53486-7.2414-1.50353-11.62539A3.07594,3.07594,0,0,1,63.378,2.4928c1.24418,6.74579,4.22224,12.77445,5.9786,19.31247,5.07849,18.90465,6.9011,38.40244,12.88761,57.06728a.74824.74824,0,0,1,.03659.50691.71931.71931,0,0,1-.44354.33861,5.7787,5.7787,0,0,1-2.50969.36407.97547.97547,0,0,1-.608-.20307,1.034,1.034,0,0,1-.243-.4989c-1.04884-3.84639-1.33956-8.06534-2.107-11.99912-1.20078-6.1551-2.40167-12.31071-3.72836-18.44029-1.33916-6.18718-2.80646-12.34587-4.33728-18.48827A77.68138,77.68138,0,0,0,61.00272,9.75592a13.469,13.469,0,0,1-1.40561-3.50053A10.12624,10.12624,0,0,1,63.85,10.685a25.101,25.101,0,0,1-.47858-7.31926"/><path class="e7ea8274-2114-49ae-8726-a046f3733530" d="M69.26855,31.96805a59.06093,59.06093,0,0,1-9.44367,1.99617c-2.32558.36767-4.63186,1.14412-7.01423.97662,2.00983.14132,3.94072,1.009,5.88577,1.38175a61.07084,61.07084,0,0,0,7.21226,1.16,54.01643,54.01643,0,0,0,13.68909-1.30775,5.38686,5.38686,0,0,0,1.86278-.59459c1.51446-.93465,1.72688-3.01712,1.73146-4.79676.00388-1.50628-.1909-3.04467-.09951-4.54424.0913-1.498.34186-3.014.50173-4.50926a3.06223,3.06223,0,0,0,.011-.85569c-1.90389,2.79138-3.59217,5.98636-6.73649,7.55715a69.40909,69.40909,0,0,1-7.4281,3.477Q69.35426,31.93949,69.26855,31.96805Z"/><path class="b94a3d62-c07e-45a1-bdeb-74e1262f6ba6" d="M36.95993,86.58752A247.28619,247.28619,0,0,0,19.30366,49.70005c-1.88479-3.15992-2.4138-3.53483-.97821-7.122,1.119-2.79613,2.38526-5.53112,3.72518-8.22758,2.60342-5.23915,5.514-10.3176,8.33038-15.44313,2.57693-4.6897,5.78259-10.00394,7.07628-15.231C38.62347-1.03556,37.677-7.01136,31.69042-6.6366,27.16411-6.35313,23.71105-2.61448,20.895.94046c-3.35386,4.23383-7.00788,8.57734-9.25816,13.45735a127.01035,127.01035,0,0,0-6.31993,15.531c-1.47229,4.72851-3.40134,9.3567-4.29446,14.24763-1.112,6.08981.52111,9.51637,3.42869,14.81861A185.83682,185.83682,0,0,0,15.12022,76.16343c3.15889,4.51545,5.89927,9.52412,9.70728,13.54546,1.59923,1.68882,2.02652,2.14321,4.23677,1.63709C29.83567,91.16934,37.09443,86.93281,36.95993,86.58752Z"/><path class="a3bb310e-545b-45c2-8189-e56e275d4ec7" d="M43.1361,70.74773a27.27618,27.27618,0,0,1-.89245,3.629c-.1987.4662-1.30184,1.875-.6788,2.28685a24.50418,24.50418,0,0,0,2.25173,1.39163,35.475,35.475,0,0,0,7.86834,2.51908q4.80747,1.18878,9.746,1.92245a106.256,106.256,0,0,0,19.45569,1.08334,49.15394,49.15394,0,0,0,6.71555-.456c1.71132-.30062,4.82175-1.33374,5.7736-2.67653a3.58287,3.58287,0,0,0,.34668-2.5552c-.21792-1.89528-.363-3.83626-.52409-5.69839-.429.02889-5.33957.5621-5.33957.65413-1.66654.31312-3.18947,1.09025-4.87595,1.335a49.95279,49.95279,0,0,1-7.49981.45155c-10.444-.073-19.51613-2.57136-28.82618-6.2119-.69754-.273-1.52053-1.16659-2.31561-.87219C43.542,67.84651,43.29409,70.12058,43.1361,70.74773Z"/><g class="ace7285e-bc79-411b-9e7d-5cc84c199104"><path class="eb679f2e-bc3e-49a8-810b-bd9a183ec269" d="M53.174,63.80335c-2.277-3.12169-3.0178-6.95961-4.38637-10.63521a41.89217,41.89217,0,0,1-2.74419-12.41723c-.12537-2.439-.68712-6.137.43942-8.40853a12.55039,12.55039,0,0,1,4.31289-4.288,32.87726,32.87726,0,0,1,7.39519-3.572c3.61721-1.31741,6.931-3.02694,10.94716-3.41537,3.61606-.34973,7.55807.53037,9.92423,2.873a10.02577,10.02577,0,0,1,2.59795,7.60989c-.11638,4.10313-.97636,7.86447-.466,11.98366a18.95,18.95,0,0,0,2.07374,7.3928c1.07488,1.80336,2.43415,3.43491,3.39825,5.32177a18.77022,18.77022,0,0,1,1.136,2.67649c1.06606,3.25535.85225,6.52732-2.49374,9.11573-3.22747,2.49651-7.68073,2.66721-11.78179,2.89189a35.033,35.033,0,0,1-12.015-1.79543,20.6637,20.6637,0,0,1-4.19742-1.67048A12.86907,12.86907,0,0,1,53.174,63.80335Z"/><path class="b5f2cbe8-3ab1-48d0-b07d-0a21ae2dcce3" d="M58.30967,51.12317a1.62846,1.62846,0,0,1,1.601-.60323,4.78879,4.78879,0,0,1,1.65662.69312c.17045.09814.36249.231.36546.42765a.50611.50611,0,0,1-.16889.3347c-.80128.85048-2.13837.833-3.21334,1.291a.67716.67716,0,0,0-.38351.3076c-.12853.293.1523.59752.42.77287a5.01023,5.01023,0,0,0,2.23414.79045c.52865.05313,1.19152.1048,1.3799.6016.237.62491-.54442,1.13344-1.18681,1.31783s-1.45609.54862-1.371,1.21151a.979.979,0,0,0,.38962.61167,2.28972,2.28972,0,0,0,2.20079.22132,6.75344,6.75344,0,0,0,1.91717-1.27358,1.34189,1.34189,0,0,0,.45792-.55807,1.49276,1.49276,0,0,0-.20548-1.03238,4.08737,4.08737,0,0,1-.15-3.37456,2.25074,2.25074,0,0,1,2.90029-1.15042c.8935.4812,1.20461,1.61072,1.93642,2.31382a3.32387,3.32387,0,0,0,4.45563-.33849A3.59922,3.59922,0,0,0,74.63883,50.712a2.70558,2.70558,0,0,0-2.06605-2.28088,2.17761,2.17761,0,0,0-2.48673,1.60572,3.18788,3.18788,0,0,0,.62573,2.22573,7.83945,7.83945,0,0,1,1.41071,2.61874c.18121.9825-.4657,2.20839-1.46306,2.14982-.59377-.03486-1.139-.50932-1.7209-.3859-.84392.179-.92,1.45633-.3692,2.12031a10.4806,10.4806,0,0,0,2.121,1.46112c.69738.50784,1.23084,1.50681.73305,2.2114"/><path class="fe44d29d-a191-46ce-a018-ac009502d99e" d="M67.35416,70.82053A13.40048,13.40048,0,0,1,65.57633,67.532c-.2168-.54235-.43262-1.14953-.62891-1.82177a7.71374,7.71374,0,0,1-.36475-1.90436,2.07507,2.07507,0,0,1,.07227-1.03009c.11865-.15442-.43457-.21771-1.14941.13861a6.04036,6.04036,0,0,0-.55274.29858q-.33691.20773-.68115.41962a9.85612,9.85612,0,0,1-1.78516.87805,4.7389,4.7389,0,0,1-2.77636.14038l-.6128-.2044a4.98018,4.98018,0,0,1-.78662-.42981,6.03049,6.03049,0,0,1-1.06738-.91455,9.05374,9.05374,0,0,1-2.07275-4.14478,15.33862,15.33862,0,0,1-.228-4.03949,29.64383,29.64383,0,0,0,.07666-3.334c-.01026-.10993-.0293-.27491-.03028-.34406l-.0791-.42444a6.2372,6.2372,0,0,0-.18847-.75433,13.776,13.776,0,0,0-.69385-1.67536q-.45557-.92412-.915-1.85491l-.229-.50184a4.99378,4.99378,0,0,1-.25635-.65069,2.49863,2.49863,0,0,1-.06592-1.25531l.0127-.06067a1.11891,1.11891,0,0,1,.03857-.14337,2.07323,2.07323,0,0,1,.21582-.48377,1.977,1.977,0,0,1,.71387-.69549,2.21872,2.21872,0,0,1,1.47168-.24555,3.09125,3.09125,0,0,1,.93164.31055,3.43151,3.43151,0,0,1,.39209.23755l.28222.21863.39405.32122c.5249.43689,1.02783.85346,1.53418,1.24366a10.41068,10.41068,0,0,0,2.97168,1.775,3.14261,3.14261,0,0,0,2.47656-.05969,2.16517,2.16517,0,0,0,.41943-.30969c.19922-.17121.53906-.45331.835-.67249A9.52,9.52,0,0,1,65.381,44.33475a7.13451,7.13451,0,0,1,1.32325-.38855,6.69342,6.69342,0,0,1,.71728-.09345c.23389-.0158.523-.01886.6626-.01934.13965-.0011.17529-.01978.08789-.02173a.88339.88339,0,0,0-.21143.03161,1.21959,1.21959,0,0,0-.14746.04865c.09131-.0481-.17236.08642-.13037.06366l.0249-.01581.04981-.03162a1.92778,1.92778,0,0,0-.34815.22626c-.02734.0177-.01318-.01422.0127-.07935l.30273-.72753.13868-.29328c.03955-.07989.05078-.11664.11377-.23175.12207-.22681.24511-.43457.35839-.60986a7.66641,7.66641,0,0,1,1.83106-1.99195,6.79343,6.79343,0,0,1,1.23926-.74859,6.66588,6.66588,0,0,1,.70361-.27759c.11914-.0426.24512-.07587.37012-.10937l.09375-.02466.04687-.01209c.1753-.02356-.32568.03577.40479-.05572l.10888-.014c.15723-.01764.26514-.03876.46143-.05334a5.84422,5.84422,0,0,1,1.38867.18493,5.21114,5.21114,0,0,1,1.72754.90015A6.88223,6.88223,0,0,1,77.8,41.04746a10.90652,10.90652,0,0,1,.70557.98779,15.89156,15.89156,0,0,1,.97363,1.79132c.52978,1.11676.92187,2.14307,1.28857,2.95349a4.33869,4.33869,0,0,0,.44678.83911q.40137.61433.78467,1.19959a11.8277,11.8277,0,0,1,1.49023,3.24359c.04492.158.07959.32611.1167.48773l.083.49622.05225.29742c.01367.206.02783.41016.041.61249a7.60143,7.60143,0,0,1-.02539,1.095,7.84621,7.84621,0,0,1-.14941.99322,9.294,9.294,0,0,1-1.29151,3.07129c-.97265,1.47254-1.59765,2.10712-1.92822,2.57477-.1582.21185-.27588.37073-.33545.4632l-.10156.14727a4.28636,4.28636,0,1,1-6.605-5.41888l.061-.0611s.07373-.07537.21729-.22149c.148-.15363.35058-.34845.6123-.59625.49317-.46326,1.21485-1.08094,1.61719-1.48658.20166-.20581.31445-.31482.3794-.371.00488-.02.04492-.03027.04785-.059.01367-.02576.03808-.06659.04443-.01489a.12592.12592,0,0,0,.03955.04034l-.00879-.28155-.00488-.14771-.00293-.07434-.00147-.03729c-.00537-.048.0459.34027.02442.17352v-.0061c-.002-.03363.00488-.06458.00146-.10321a4.26522,4.26522,0,0,0-.45117-1.51477q-.28125-.60406-.57666-1.23853a12.60894,12.60894,0,0,1-.69971-1.84881c-.31982-1.05933-.55517-2.01362-.84082-2.8844a10.98628,10.98628,0,0,0-.436-1.16138c-.07373-.191-.14111-.27539-.20215-.41937-.04394-.05555-.10889-.19764-.084-.16657.01025-.04346.05224.02435.249.043a.87578.87578,0,0,0,.53809.00269c-.09327-.00934-.27735-.00251-.4126-.00458l-.10987-.00006c.71192-.09119.19336-.025.35059-.04529l-.00684.00024-.01318.00007a.25816.25816,0,0,0-.05713-.00007.971.971,0,0,0-.13232.016,1.29972,1.29972,0,0,0-.32129.1156,2.39728,2.39728,0,0,0-.71924.56848l-.14258.16076c-.01855.015-.07666.116-.11328.1698l-.03125.04877-.01562.02435c-.03028.05487.02343-.04675.01416-.03021l-.04493.07221c-.13232.21386-.28808.51928-.54589.92688a5.6635,5.6635,0,0,1-.51465.69244,3.781,3.781,0,0,1-1.04639.84753l-.26367.12659a3.35662,3.35662,0,0,1-.3667.13367,3.41479,3.41479,0,0,1-.67285.12848,4.2697,4.2697,0,0,1-.85742-.01532l-.28711-.03839a2.12473,2.12473,0,0,0-.23194-.01056,2.59813,2.59813,0,0,0-.53369.0697,5.2012,5.2012,0,0,0-1.30127.535c-.2456.13745-.42431.24658-.75049.45886a6.50251,6.50251,0,0,1-1.27734.65595,6.24484,6.24484,0,0,1-2.74609.35712,8.00691,8.00691,0,0,1-2.47266-.64447,15.42013,15.42013,0,0,1-3.69727-2.5091l-1.50976-1.32507-.36963-.31647-.09473-.0805c-.01074-.00855-.0083-.0055-.01171-.01062l-.03125-.02222c-.022-.01495-.04688-.01965-.00293-.01318a.83107.83107,0,0,0,.50732-.12208,1.066,1.066,0,0,0,.36328-.35412,1.00694,1.00694,0,0,0,.10986-.26056c.01563-.07556.0083-.05267.00293-.02521l-.01416.06031a.647.647,0,0,0,.01123-.27863c.00049.00861.04932.12329.11768.26428.05713.13068.12891.25885.19922.38837.272.52209.64648,1.02923,1.00928,1.57837.3789.54333.79052,1.114,1.17675,1.75116a10.4795,10.4795,0,0,1,.56543,1.03064l.23047.48962.228.58313a17.28407,17.28407,0,0,1,.8418,4.19678c.11816,1.25867.16943,2.38556.27441,3.27087a8.25507,8.25507,0,0,0,.5083,2.31409,1.55158,1.55158,0,0,0,.14307.27142c.04638.06134-.04737-.01208-.07764.02045a1.17421,1.17421,0,0,0,.16016.09027l.09375.04614.02343.01148c.13038.05-.1499-.05432-.12207-.04413l.00489.00268c.03222.05054.15088.09693.4458.03156a4.62546,4.62546,0,0,0,1.083-.44782q.72363-.39917,1.41943-.78308a7.95353,7.95353,0,0,1,1.85156-.72259,4.79713,4.79713,0,0,1,2.49024.06744c.11474.03357.25927.09058.38574.14258l.2998.12964.15918.062.35742.22247a5.55234,5.55234,0,0,1,.9375.73511,8.06855,8.06855,0,0,1,1.21778,1.47345,7.98783,7.98783,0,0,1,1.04883,2.40064c.1914.6737.33154,1.30279.437,1.87713a13.419,13.419,0,0,1,.24463,3.73038,2.214,2.214,0,0,1-3.90967,1.12662Z"/><path class="fe44d29d-a191-46ce-a018-ac009502d99e" d="M65.03605,40.04787c4.33626-4.19252,9.86015,2.66227,7.28278,6.971a4.545,4.545,0,0,1-3.93646,2.07423,6.14564,6.14564,0,0,1-4.14808-1.8595,3.75629,3.75629,0,0,1-.86809-1.21023,3.89215,3.89215,0,0,1-.18553-1.86711A6.62727,6.62727,0,0,1,65.03605,40.04787Z"/><path class="bec03848-fef0-46b8-8bef-c6e957785da5" d="M68.68848,38.73582c-1.70235.27112-3.66043.65074-4.43.12778-2.20393-1.49768-1.49552-5.26639-.99665-7.41386.22366-.96278,2.82511-11.39829,2.8278-11.39748a3.825,3.825,0,0,1-1.37631-.76674q-.6727,4.60248-1.6723,9.12741a11.811,11.811,0,0,1-1.13591,3.39566c-1.57208,2.70289-2.924.66164-5.06051.9531a5.23584,5.23584,0,0,0-4.23533,3.81765c-.55606,2.36115.97283,6.3671,2.81432,7.88829a11.6572,11.6572,0,0,0,8.66117,2.19742,8.5841,8.5841,0,0,0,4.629-2.14382c.94211-.8848,1.6676-2.705,2.99058-3.09672,1.27931-.3788,2.19185.47228,3.37213-.80743a3.06677,3.06677,0,0,0,.76086-2.5306,1.54513,1.54513,0,0,0-.92661-1.2925,14.31219,14.31219,0,0,1-.43461,1.7299,2.0584,2.0584,0,0,1-1.1756,1.266c-1.18016.38839-1.19682-.82137-1.95454-1.144A5.24216,5.24216,0,0,0,68.68848,38.73582Z"/><path class="a779dd98-1889-425a-a7e1-f9fb3f5a7265" d="M83.57981,39.13978c-.01006-1.33589.0936-2.6847.14621-4.01938.15692-3.98121-.56289-9.27986-4.70941-11.05791-3.50293-1.50208-7.55868.09423-11.04883.83569-.11182.41033.26559.78582.61091,1.07353,2.22667,1.85524,2.64478,5.46992,2.28343,8.03981a6.7362,6.7362,0,0,0-.14074,2.08416,1.87355,1.87355,0,0,0,1.368,1.54907,6.53622,6.53622,0,0,0,1.401-.01345c1.36406-.00977,2.194.89636,3.36719,1.36038,1.11059.43925,2.334.28586,3.47017.61561a7.98182,7.98182,0,0,1,3.65672,3.017A14.09158,14.09158,0,0,1,83.57981,39.13978Z"/><path class="e5761dcd-2345-4667-844d-3abc371d6370" d="M58.63762,27.87075a8.16953,8.16953,0,0,1,2.10055-.3439c2.80352-.09407,6.74218-4.6257,9.415-1.04468,1.63325,2.18825,3.3854,10.557-.86662,11.10666a4.13224,4.13224,0,0,1-2.20537-.4588c-1.4585-.66491-12.20942-5.19062-10.91214-7.87808a1.0152,1.0152,0,0,1,.38865-.39763A7.84444,7.84444,0,0,1,58.63762,27.87075Z"/><path class="bb107304-1459-4429-b047-4d36cadf4c17" d="M53.28132,29.403c1.7774-.40049,4.46282-.30544,5.99612.7869a2.23189,2.23189,0,0,1,1.063,2.37154c-.39216,2.14347-3.46486,2.00167-4.76229,3.37619a5.152,5.152,0,0,0-1.243,3.41628,8.74566,8.74566,0,0,1-.42274,2.191c-.12813.33883-.37795.711-.73975.693a.96792.96792,0,0,1-.52326-.26261A12.24569,12.24569,0,0,1,50.394,39.84641C48.19758,36.92423,49.27006,30.30689,53.28132,29.403Z"/></g><path class="f14351dd-78fb-45c4-a065-82bb430d3331" d="M53.174,63.78633c-2.277-3.12911-3.0178-6.97614-4.38637-10.66048a42.07654,42.07654,0,0,1-2.74419-12.44673c-.12537-2.44481-.68712-6.15154.43942-8.4285a12.56526,12.56526,0,0,1,4.31289-4.29824,32.84478,32.84478,0,0,1,7.39519-3.5805c3.61721-1.32054,6.931-3.03413,10.94716-3.42348,3.61606-.35056,7.55807.53163,9.92423,2.87985a10.06446,10.06446,0,0,1,2.59795,7.628c-.11638,4.11287-.97636,7.88316-.466,12.01213A19.02954,19.02954,0,0,0,83.268,50.87871c1.07488,1.80764,2.43415,3.44308,3.39825,5.33442a18.83906,18.83906,0,0,1,1.136,2.68285c1.06606,3.26309.85225,6.54282-2.49374,9.13738-3.22747,2.50244-7.68073,2.67355-11.78179,2.89876a34.95656,34.95656,0,0,1-12.015-1.79969A20.63466,20.63466,0,0,1,57.31425,67.458,12.87916,12.87916,0,0,1,53.174,63.78633Z"/></g></g></g></svg>