<svg xmlns="http://www.w3.org/2000/svg" xmlns:xlink="http://www.w3.org/1999/xlink" viewBox="0 0 192.14436 63.73202"><defs><style>.a0835524-0f1b-4027-9e20-08e1db9d5225,.a0c28229-6e88-4b63-bb6e-6d5ba9d23a9e,.aaee157f-4e10-4f5f-9ff9-850a9d1fb25b,.f760cfe5-b17a-4cd7-b04c-aaa19d1e8353{fill:none;}.aaee157f-4e10-4f5f-9ff9-850a9d1fb25b{stroke:#bcbec0;}.aaee157f-4e10-4f5f-9ff9-850a9d1fb25b,.f760cfe5-b17a-4cd7-b04c-aaa19d1e8353{stroke-miterlimit:10;}.bb45111b-ccc8-47de-8247-8bbc205adcea{isolation:isolate;}.fbed0c05-ab9f-4de4-8741-7ae933e0ae15{clip-path:url(#ac967f8d-eae6-4deb-b3a5-c3e41d783ab8);}.e85ed24f-3128-4edb-ad84-629ec8ca7bde{fill:#eaccca;}.a0c28229-6e88-4b63-bb6e-6d5ba9d23a9e{stroke:#ee755b;stroke-linecap:round;stroke-linejoin:round;stroke-width:2px;}.e733143b-ddea-4a97-a09a-d869383117c9{clip-path:url(#ad154ca7-29c2-4480-8ae7-5ca02c0e2e1d);}.aebebc17-120b-4b5a-8b6a-98257856a080{fill:#ee978f;}.f6338972-81ed-4346-852e-7e58a86ddba4{clip-path:url(#fb19720f-43df-400a-9aa6-934de3b42ffd);}.fd4bc25c-ee58-4755-bf51-55ec43f7eac5{fill:#0f2849;}.e4f86b60-326d-48fa-b01f-f826908fe455,.e8d1697b-7c91-46cf-a19c-553a89ee824e{fill:#a7a9ac;}.e4f86b60-326d-48fa-b01f-f826908fe455{opacity:0.33;mix-blend-mode:multiply;}.a230d181-9828-4c15-bf81-48681f82e4f7{clip-path:url(#aca1d14f-85fe-493b-829f-f60892843bc2);}.e4f8aea9-b5ca-440a-a06d-4c24fdb17c7d{fill:#ef5b5b;}.a4ac1e1d-ff36-4720-b488-19e39621dcc2{fill:#af2027;}.ffda2671-f708-48c2-be99-078d15a1ed99{clip-path:url(#f36a205c-c1dd-494e-8b74-d3da5f14f49d);}.a975d6db-9591-400e-983d-ad0fa24a9598{fill:#e6e7e8;}.f760cfe5-b17a-4cd7-b04c-aaa19d1e8353{stroke:#af2027;stroke-width:1.87441px;}.ff0f9f02-dc47-400c-b828-080c717c4270{fill:#dd4747;}.a62c2ac8-c585-4b82-b318-b3a8c239b132{fill:#dbae95;}.a6cb2369-4dd2-4f8d-b77d-db8ccaf94e88{fill:#1a242d;}.af6bf37a-a6e1-4f65-b1d5-7800f42c1f06{fill:#037c99;}.affb60e4-93e7-47c4-96c1-3d21de9f20d6{fill:#ee755b;}.bc540cf0-1270-4342-b803-85c12f5bd3a9{fill:#754c29;}.a0fa7e6a-b446-486c-9d31-0864c5facddc{fill:#009ac4;}.faa8db59-6fc2-4543-a3c9-fd303f4144a0{fill:#05bce7;}</style><clipPath id="ac967f8d-eae6-4deb-b3a5-c3e41d783ab8"><rect class="aaee157f-4e10-4f5f-9ff9-850a9d1fb25b" x="144.25718" y="-593.01851" width="233.75906" height="493.74709"/></clipPath><clipPath id="ad154ca7-29c2-4480-8ae7-5ca02c0e2e1d"><path class="a0835524-0f1b-4027-9e20-08e1db9d5225" d="M100.80167,84.81772l-.0751.02219c-4.3963,1.29365-4.67208,1.80648-9.20184,2.36959-3.06049.38046-5.11171-.58126-5.76195,3.59947-.08246.53019-.063,6.54047-.03473,6.51441-3.4648,3.19958-3.20056,8.49764-2.382,13.1606.44265,2.52153.35654,6.12864,2.35476,6.7458,4.72247,1.45855,9.989,1.44862,14.84951,1.37616,1.58138-.02358-1.49268-.41117-.03871.48132l1.42469,1.38113H220.81114a16.25742,16.25742,0,0,0,8.77285-2.34666.88244.88244,0,0,0,.30708-.30437,1.22605,1.22605,0,0,0,.09972-.46241c.14373-1.70937.15027-5.80787.31688-7.511a58.0761,58.0761,0,0,0,.06269-8.1181c-.03141-.73642-.02361-2.4062-.69841-2.83333-.028-.0177-.541-.25267-.541-.09278,0-.01249.60656-4.159.60656-4.16308,0-.95134-4.73606-3.49736-6.23812-4.06751a38.53318,38.53318,0,0,0-6.26194-2.226c-2.539-.54067-15.13276-2.23351-18.14056-2.2408-2.446-.00593-7.18917-.37137-7.18917-.37137-2.35619-.8669-4.39007-2.64654-6.4971-4.15936-1.59022-1.14175-3.27315-2.12372-4.856-3.2371-1.37709-.96864-2.83394-1.63825-4.25789-2.45415a31.87985,31.87985,0,0,0-7.39621-3.52675,34.467,34.467,0,0,0-7.60117-.82407q-9.14375-.35608-18.29462-.25628a39.30677,39.30677,0,0,0-11.35742,2.16882c-5.54666,1.92713-11.14,3.65435-16.65917,5.6993-2.13589.7914-4.23065,1.73216-6.33418,2.64458A71.36908,71.36908,0,0,1,100.80167,84.81772Z"/></clipPath><clipPath id="fb19720f-43df-400a-9aa6-934de3b42ffd"><rect class="aaee157f-4e10-4f5f-9ff9-850a9d1fb25b" x="-112.38366" y="-593.01851" width="233.75906" height="493.74709"/></clipPath><clipPath id="aca1d14f-85fe-493b-829f-f60892843bc2"><path class="a0835524-0f1b-4027-9e20-08e1db9d5225" d="M33.32256,14.10374l-.07511.0222c-4.3963,1.29365-4.67208,1.80648-9.20183,2.36959-3.06049.38046-5.11172-.58126-5.762,3.59946-.08246.5302-.063,6.54048-.03473,6.51441C14.78413,29.809,15.04837,35.107,15.86694,39.77c.44265,2.52153.35654,6.12863,2.35476,6.74579,4.72247,1.45856,9.989,1.44863,14.84951,1.37617,1.58138-.02358-1.49268-.41117-.03871.48131l1.42469,1.38114H153.332a16.2575,16.2575,0,0,0,8.77284-2.34666.88239.88239,0,0,0,.30708-.30438,1.22617,1.22617,0,0,0,.09973-.46241c.14372-1.70936.15026-5.80786.31688-7.511a58.076,58.076,0,0,0,.06269-8.11809c-.03142-.73643-.02362-2.40621-.69842-2.83333-.028-.0177-.541-.25267-.541-.09278,0-.0125.60656-4.159.60656-4.16308,0-.95134-4.73606-3.49736-6.23812-4.06751a38.53224,38.53224,0,0,0-6.26194-2.226c-2.539-.54067-15.13276-2.23352-18.14056-2.24081-2.446-.00593-7.18917-.37136-7.18917-.37136-2.35619-.86691-4.39006-2.64654-6.4971-4.15936-1.59022-1.14175-3.27315-2.12373-4.856-3.2371-1.37709-.96865-2.83394-1.63825-4.25789-2.45415a31.879,31.879,0,0,0-7.3962-3.52675A34.46717,34.46717,0,0,0,93.82023.81561Q84.67649.45952,75.52561.55933A39.30642,39.30642,0,0,0,64.16819,2.72814c-5.54666,1.92714-11.14,3.65435-16.65916,5.69931-2.1359.79139-4.23066,1.73215-6.33419,2.64457A71.3677,71.3677,0,0,1,33.32256,14.10374Z"/></clipPath><clipPath id="f36a205c-c1dd-494e-8b74-d3da5f14f49d"><path class="a0835524-0f1b-4027-9e20-08e1db9d5225" d="M50.693,11.24485c-.16218.05408-.30889.1772-.46834.24226-1.09512.47031-2.26965.80279-3.32854,1.37426a10.4178,10.4178,0,0,1,1.23945,1.4112c.30841.37392.46487.55282.93549.56866,1.45741.049,2.917.10939,4.375.10939,10.313,0,20.62467.02664,30.93721.17664q.82219.01194,1.64427.02385c1.905.02753,22.65737.37152,22.65872.10285a4.64872,4.64872,0,0,1,.57121-1.92182,5.47721,5.47721,0,0,1,1.8469-1.60416c-.95571-.75889-2.24156-1.7115-3.25051-2.35943-.87352-.561-1.786-1.0403-2.6763-1.56665a28.98614,28.98614,0,0,0-4.68067-1.915,12.735,12.735,0,0,0-3.17915-.7539c-6.94611-.80717-14.06494-.31063-21.04624-.31063-1.45556,0-6.456.24661-7.45928.37834-3.47207.4559-6.8972,1.869-10.25679,3.106-1.32924.48943-2.65028,1.01117-3.97442,1.52063C53.30184,10.31948,51.94607,10.67081,50.693,11.24485Z"/></clipPath></defs><title>Artboard 233</title><g class="bb45111b-ccc8-47de-8247-8bbc205adcea"><g id="ab0be05c-6524-4f2b-8811-4ee2610e32ae" data-name="Layer 1"><g class="fbed0c05-ab9f-4de4-8741-7ae933e0ae15"><polygon class="e85ed24f-3128-4edb-ad84-629ec8ca7bde" points="345.412 439.197 142.674 439.197 142.8 -2311.178 151.713 -2317.725 172.543 -2336.066 377.718 -2336.066 378.169 413.297 345.412 439.197"/><path class="a0c28229-6e88-4b63-bb6e-6d5ba9d23a9e" d="M142.91243,16.86418l72.49607.10609a.5314.5314,0,0,0,.47746-.35008l3.897-12.488c.36024-1.15438.79651-1.11963.96948.07722l3.08932,21.37591c.2611,1.80658.70487,1.80907.98616.00551l2.19476-15.18234s.11812-.98542.2228-.9888c.10867-.0035.24517.74282.24517.74282l1.17181,6.45808a.5234.5234,0,0,0,.48522.39023l47.50687.14072.04315.00012,51.58183.22291a.52341.52341,0,0,0,.48752-.38736l1.20995-6.451s.14091-.7455.24955-.74136c.10466.004.21695.9901.21695.9901l2.105,15.195c.27063,1.80519.71441,1.80533.98618.00031l3.23363-27.47083c.18-1.19581.6165-1.228.96992-.07149l3.80511,18.62432a.53139.53139,0,0,0,.47538.3529l35.91185.10609"/><g class="e733143b-ddea-4a97-a09a-d869383117c9"><path class="aebebc17-120b-4b5a-8b6a-98257856a080" d="M225.02657,99.07921a15.38725,15.38725,0,0,1-9.47681-2.71548c-1.40515-.95244-2.105-.71577-3.59608-1.44758a14.96557,14.96557,0,0,0-4.24416-1.16507c-5.22369-.86089-11.09269-2.59473-16.35958-2.8497H102.66468c-2.65742,0-5.11207.72193-7.70656.01964-2.91336-.55608-5.76535-1.68616-8.64437-2.39234a.09274.09274,0,0,1-.07681-.05622.12887.12887,0,0,1,.00668-.07131,1.14827,1.14827,0,0,1,.39424-.58585c.20377-.15239.448-.20632.65555-.35083.09883-.06879.18771-.157.28489-.22923a2.26837,2.26837,0,0,1,.57394-.28115,47.07253,47.07253,0,0,1,9.16217-2.27262c5.28424-.85391,5.66152-1.36712,10.72025-3.56286,4.72176-2.04948,8.94263-5.48175,13.39654-8.28673,21.75478-13.7007,48.61979-11.62058,71.00659.46569,6.37331,3.44084,13.18669,9.10709,20.0433,10.623,4.08865.90393,8.31016.80966,12.34612,2.01626a11.21377,11.21377,0,0,1,6.87284,5.03559c.983,1.757.73906,2.689.2697,4.74932C231.10728,99.50636,227.45448,98.94333,225.02657,99.07921Z"/></g></g><rect class="aaee157f-4e10-4f5f-9ff9-850a9d1fb25b" x="144.25718" y="-593.01851" width="233.75906" height="493.74709"/><g class="f6338972-81ed-4346-852e-7e58a86ddba4"><polygon class="e85ed24f-3128-4edb-ad84-629ec8ca7bde" points="88.771 203.697 -113.967 203.697 -113.841 -2546.678 -104.928 -2553.225 -84.097 -2571.566 121.077 -2571.566 121.529 177.797 88.771 203.697"/><path class="fd4bc25c-ee58-4755-bf51-55ec43f7eac5" d="M19.48293,8.65782a1.93933,1.93933,0,0,1,.4502,1.41992v3.75H15.333V8.20762h2.8999A1.68951,1.68951,0,0,1,19.48293,8.65782Zm-.61963,4.35059V10.02794a1.06391,1.06391,0,0,0-.23-.76465.89557.89557,0,0,0-.67041-.23535H16.40334v3.98047Z"/><path class="fd4bc25c-ee58-4755-bf51-55ec43f7eac5" d="M21.23342,9.37755,21.1133,8.20762h1.06006l.12988,1.16993v1.5205l-.01025.62989-1.05957.20019Z"/><path class="fd4bc25c-ee58-4755-bf51-55ec43f7eac5" d="M26.03322,10.02794a1.06391,1.06391,0,0,0-.23-.76465.89437.89437,0,0,0-.66992-.23535h-1.8501V8.20762h2.12012a1.691,1.691,0,0,1,1.25.4502,1.94134,1.94134,0,0,1,.44971,1.41992v3.75H26.03322Z"/><path class="fd4bc25c-ee58-4755-bf51-55ec43f7eac5" d="M30.23293,13.82774l-.22021-1.22949a3.02413,3.02413,0,0,1-.68994.84473,3.09387,3.09387,0,0,1-.98.54492l-.38965-.84961a3.97511,3.97511,0,0,0,1.15478-.60547,2.5938,2.5938,0,0,0,.73487-.915v-1.75a1.3099,1.3099,0,0,0-.11475-.63476A.57184.57184,0,0,0,29.293,8.9879l-.62988-.08985.13965-.81054.99023.14062a1.2176,1.2176,0,0,1,.855.46,1.82489,1.82489,0,0,1,.26514,1.07032v1.91992l.33984,2.14941Z"/><path class="fd4bc25c-ee58-4755-bf51-55ec43f7eac5" d="M32.38283,9.37755l-.12011-1.16993h1.06006l.12988,1.16993v4.45019H32.38283Z"/><path class="fd4bc25c-ee58-4755-bf51-55ec43f7eac5" d="M39.07278,13.00841v.81933h-4.54v-.81933h2.77978V10.02794a1.06391,1.06391,0,0,0-.23-.76465.89437.89437,0,0,0-.66992-.23535H34.53274V8.20762h2.1499a1.691,1.691,0,0,1,1.25.4502,1.94139,1.94139,0,0,1,.44971,1.41992v2.93067Z"/><path class="fd4bc25c-ee58-4755-bf51-55ec43f7eac5" d="M44.563,13.17345a2.1243,2.1243,0,0,1-1.76025.77441,3.88938,3.88938,0,0,1-.85987-.09961l.10987-.82031a3.20852,3.20852,0,0,0,.6499.08008,1.23391,1.23391,0,0,0,1.11035-.53028,2.827,2.827,0,0,0,.3501-1.5498,2.79005,2.79005,0,0,0-.33545-1.56543,1.09837,1.09837,0,0,0-.95459-.47461,1.12613,1.12613,0,0,0-.78516.27539,1.34086,1.34086,0,0,0-.40527.73437l-.66992,3.83008H39.94289l.72022-3.87012-.78028-1.75H40.9927l.45019,1.18067A1.85331,1.85331,0,0,1,42.083,8.443a1.61633,1.61633,0,0,1,.98-.31543,1.89363,1.89363,0,0,1,1.56006.69531,3.45083,3.45083,0,0,1,.55957,2.1748A3.4025,3.4025,0,0,1,44.563,13.17345Z"/><path class="fd4bc25c-ee58-4755-bf51-55ec43f7eac5" d="M50.77248,13.17345a2.1243,2.1243,0,0,1-1.76025.77441,3.88923,3.88923,0,0,1-.85986-.09961l.10986-.82031a3.2086,3.2086,0,0,0,.6499.08008,1.2339,1.2339,0,0,0,1.11035-.53028,2.827,2.827,0,0,0,.3501-1.5498,2.79005,2.79005,0,0,0-.33545-1.56543,1.09834,1.09834,0,0,0-.95459-.47461,1.12613,1.12613,0,0,0-.78516.27539,1.34092,1.34092,0,0,0-.40527.73437l-.66992,3.83008H46.15237l.72021-3.87012-.78027-1.75h1.10986l.4502,1.18067A1.85324,1.85324,0,0,1,48.2925,8.443a1.61633,1.61633,0,0,1,.98-.31543,1.8936,1.8936,0,0,1,1.56006.69531,3.45083,3.45083,0,0,1,.55957,2.1748A3.4025,3.4025,0,0,1,50.77248,13.17345Z"/><path class="fd4bc25c-ee58-4755-bf51-55ec43f7eac5" d="M58.64211,8.65782a1.93933,1.93933,0,0,1,.4502,1.41992v3.75h-4.6001V8.20762h2.8999A1.68951,1.68951,0,0,1,58.64211,8.65782Zm-.61963,4.35059V10.02794a1.06391,1.06391,0,0,0-.23-.76465.89557.89557,0,0,0-.67041-.23535H55.56252v3.98047Z"/><path class="fd4bc25c-ee58-4755-bf51-55ec43f7eac5" d="M60.3926,9.37755l-.12012-1.16993h1.06006l.12988,1.16993v1.5205l-.01025.62989-1.05957.20019Z"/><path class="fd4bc25c-ee58-4755-bf51-55ec43f7eac5" d="M62.47219,13.00841h1.43994a1.28506,1.28506,0,0,0,1.06006-.43067,1.8846,1.8846,0,0,0,.3501-1.21972v-.67969a1.88756,1.88756,0,0,0-.3501-1.22071,1.28743,1.28743,0,0,0-1.06006-.42968H62.47219V8.20762h1.70019a2.0662,2.0662,0,0,1,1.645.66016,2.74454,2.74454,0,0,1,.57471,1.86035v.58008a2.7401,2.7401,0,0,1-.57471,1.85938,2.063,2.063,0,0,1-1.645.66015H62.47219Z"/><path class="fd4bc25c-ee58-4755-bf51-55ec43f7eac5" d="M67.57229,9.37755l-.12012-1.16993h1.06006l.12988,1.16993v4.45019H67.57229Z"/><path class="fd4bc25c-ee58-4755-bf51-55ec43f7eac5" d="M74.41213,13.17345a2.1243,2.1243,0,0,1-1.76025.77441,3.88938,3.88938,0,0,1-.85987-.09961l.10987-.82031a3.2086,3.2086,0,0,0,.6499.08008,1.2339,1.2339,0,0,0,1.11035-.53028,2.827,2.827,0,0,0,.3501-1.5498,2.79005,2.79005,0,0,0-.33545-1.56543,1.09836,1.09836,0,0,0-.95459-.47461,1.12613,1.12613,0,0,0-.78516.27539,1.34086,1.34086,0,0,0-.40527.73437l-.66992,3.83008H69.792l.72022-3.87012-.78027-1.75h1.10986L71.292,9.38829a1.85331,1.85331,0,0,1,.64014-.94531,1.61633,1.61633,0,0,1,.98-.31543,1.89363,1.89363,0,0,1,1.56006.69531,3.45083,3.45083,0,0,1,.55957,2.1748A3.4025,3.4025,0,0,1,74.41213,13.17345Z"/><path class="fd4bc25c-ee58-4755-bf51-55ec43f7eac5" d="M75.9219,13.00841H77.542V9.86778a.94133.94133,0,0,0-.16992-.625.81122.81122,0,0,0-.51025-.24512l-.67969-.09961.13965-.81054,1.04.15039a1.38619,1.38619,0,0,1,.92529.50488,1.74808,1.74808,0,0,1,.32471,1.10547v3.97949H75.9219Z"/><path class="fd4bc25c-ee58-4755-bf51-55ec43f7eac5" d="M84.3218,10.02794a1.06391,1.06391,0,0,0-.23-.76465.89437.89437,0,0,0-.66992-.23535H81.5718V8.20762h2.12012a1.69106,1.69106,0,0,1,1.25.4502,1.94138,1.94138,0,0,1,.4497,1.41992v3.75H84.3218Z"/><path class="fd4bc25c-ee58-4755-bf51-55ec43f7eac5" d="M86.2217,13.2379a1.12513,1.12513,0,0,0,.77979-.30957,1.3029,1.3029,0,0,0,.20019-.81055V8.20762h2.69971a1.69029,1.69029,0,0,1,1.25.4502,1.93933,1.93933,0,0,1,.45019,1.41992v3.75H90.53127v-3.7998a1.06391,1.06391,0,0,0-.23-.76465.89362.89362,0,0,0-.66992-.23535H88.27151v2.96972a1.94556,1.94556,0,0,1-.46,1.44043,2.42709,2.42709,0,0,1-1.49024.54981Z"/><path class="fd4bc25c-ee58-4755-bf51-55ec43f7eac5" d="M92.90188,9.37755l-.12012-1.16993h1.06006l.12988,1.16993v4.45019H92.90188Z"/><path class="fd4bc25c-ee58-4755-bf51-55ec43f7eac5" d="M95.30178,9.37755l-.12012-1.16993h1.06006l.12988,1.16993v1.5205l-.01025.62989-1.05957.20019Z"/><path class="fd4bc25c-ee58-4755-bf51-55ec43f7eac5" d="M17.92336,31.82774l-.22021-1.22949a3.02413,3.02413,0,0,1-.68994.84473,3.09382,3.09382,0,0,1-.98.54492l-.38964-.84961a3.97511,3.97511,0,0,0,1.15478-.60547,2.59366,2.59366,0,0,0,.73486-.915v-1.75a1.30992,1.30992,0,0,0-.11474-.63476.57184.57184,0,0,0-.43506-.24512l-.62988-.08985.13965-.81054.99023.14062a1.2176,1.2176,0,0,1,.855.46,1.82489,1.82489,0,0,1,.26514,1.07032v1.91992l.33984,2.14941Z"/><path class="fd4bc25c-ee58-4755-bf51-55ec43f7eac5" d="M23.833,26.20762v.89063l-1.87012,4.72949H20.89309l1.87012-4.7998H19.75295V24.65782h.97022v1.5498Z"/><path class="fd4bc25c-ee58-4755-bf51-55ec43f7eac5" d="M24.89309,31.00841h1.81006a1.4519,1.4519,0,0,0,1.08984-.41016,1.7285,1.7285,0,0,0,.3999-1.25v-.66992a2.01473,2.01473,0,0,0-.31982-1.22071,1.12154,1.12154,0,0,0-.96-.42968h-.90039l-.21973.99023a1.86449,1.86449,0,0,0-.05029.38965.615.615,0,0,0,.17041.46484,1.11593,1.11593,0,0,0,.56006.24512l-.19043.69043A1.74784,1.74784,0,0,1,25.148,29.4127a1.26789,1.26789,0,0,1-.355-.95508,2.59967,2.59967,0,0,1,.04981-.52929l.39013-1.72071h1.91016a1.93761,1.93761,0,0,1,1.56006.66016,2.77794,2.77794,0,0,1,.55957,1.85059v.58008a2.56443,2.56443,0,0,1-.63965,1.88964,2.298,2.298,0,0,1-1.7002.63965H24.89309Z"/><path class="fd4bc25c-ee58-4755-bf51-55ec43f7eac5" d="M34.813,28.02794a1.06391,1.06391,0,0,0-.23-.76465.89437.89437,0,0,0-.66992-.23535H32.063v-.82032h2.12012a1.69106,1.69106,0,0,1,1.25.4502,1.94138,1.94138,0,0,1,.4497,1.41992v3.75H34.813Z"/><path class="fd4bc25c-ee58-4755-bf51-55ec43f7eac5" d="M37.21291,27.37755l-.12011-1.16993h1.06005l.12989,1.16993v4.45019H37.21291Z"/><path class="fd4bc25c-ee58-4755-bf51-55ec43f7eac5" d="M40.07326,28.19786a2.00747,2.00747,0,0,1,.27979-1.16992h-.96v-.82032H42.1133v.82032H41.333a1.48974,1.48974,0,0,0-.15479.51465,5.42563,5.42563,0,0,0-.03515.65527v3.62988H40.07326Z"/><path class="fd4bc25c-ee58-4755-bf51-55ec43f7eac5" d="M46.97268,31.82774l-2.1001-3.18945-.99023,3.18945h-1.02l1.10009-3.43945.28028-.71-.91992-1.47071h1.08984l.83984,1.35059.83985,1.25977.25-.87012.51025-1.74024h1.02979l-1.15967,3.54,1.38965,2.08008Z"/><path class="fd4bc25c-ee58-4755-bf51-55ec43f7eac5" d="M53.43313,31.00841v.81933h-4.54v-.81933h2.77978V28.02794a1.06391,1.06391,0,0,0-.23-.76465.89437.89437,0,0,0-.66992-.23535H48.89309v-.82032H51.043a1.691,1.691,0,0,1,1.25.4502,1.94134,1.94134,0,0,1,.44971,1.41992v2.93067Z"/><path class="fd4bc25c-ee58-4755-bf51-55ec43f7eac5" d="M56.48293,27.37755l-.12012-1.16993h1.06006l.12989,1.16993v4.45019H56.48293Z"/><path class="fd4bc25c-ee58-4755-bf51-55ec43f7eac5" d="M63.21242,26.20762a21.818,21.818,0,0,1-.15478,3.03516,3.01372,3.01372,0,0,1-.75,1.65039,3.48958,3.48958,0,0,1-1.915.89453l-1.87988.37012-.14991-.83984,1.68995-.33008-1.23-4.78028H59.8926l1.12012,4.53028a1.53142,1.53142,0,0,0,.77978-.71973,3.32968,3.32968,0,0,0,.3003-1.21484q.06-.73536.06005-2.20508v-.39063Z"/><path class="fd4bc25c-ee58-4755-bf51-55ec43f7eac5" d="M66.1924,31.82774l-.22021-1.22949a3.02378,3.02378,0,0,1-.68994.84473,3.09387,3.09387,0,0,1-.98.54492l-.38965-.84961a3.975,3.975,0,0,0,1.15478-.60547,2.5938,2.5938,0,0,0,.73487-.915v-1.75a1.3099,1.3099,0,0,0-.11475-.63476.57184.57184,0,0,0-.43506-.24512l-.62988-.08985.13965-.81054.99023.14062a1.21758,1.21758,0,0,1,.855.46,1.82489,1.82489,0,0,1,.26514,1.07032v1.91992l.33984,2.14941Z"/><path class="fd4bc25c-ee58-4755-bf51-55ec43f7eac5" d="M68.30276,31.00841h1.81a1.45191,1.45191,0,0,0,1.08985-.41016,1.7285,1.7285,0,0,0,.3999-1.25v-.66992a2.01473,2.01473,0,0,0-.31982-1.22071,1.12154,1.12154,0,0,0-.96-.42968h-.9004l-.21972.99023a1.86449,1.86449,0,0,0-.05029.38965.615.615,0,0,0,.17041.46484,1.11594,1.11594,0,0,0,.56005.24512l-.19043.69043a1.74781,1.74781,0,0,1-1.13476-.39551,1.26789,1.26789,0,0,1-.355-.95508,2.60041,2.60041,0,0,1,.0498-.52929l.39014-1.72071h1.91016a1.93757,1.93757,0,0,1,1.56.66016,2.77789,2.77789,0,0,1,.55957,1.85059v.58008a2.56443,2.56443,0,0,1-.63964,1.88964,2.298,2.298,0,0,1-1.7002.63965H68.30276Z"/><path class="fd4bc25c-ee58-4755-bf51-55ec43f7eac5" d="M73.82229,27.37755l-.12012-1.16993h1.06006l.12988,1.16993v1.5205l-.01025.62989-1.05957.20019Z"/><path class="fd4bc25c-ee58-4755-bf51-55ec43f7eac5" d="M76.22219,27.37755l-.12012-1.16993h1.06006l.12988,1.16993v1.5205l-.01025.62989-1.05957.20019Z"/><path class="fd4bc25c-ee58-4755-bf51-55ec43f7eac5" d="M81.86184,30.80821a1.34029,1.34029,0,0,1,.21.79981,1.9955,1.9955,0,0,1-.37988,1.21,2.28231,2.28231,0,0,1-1.06983.78027l-.23-.57031a1.72852,1.72852,0,0,0,.71-.50489,1.17,1.17,0,0,0,.25977-.71484.34644.34644,0,0,1-.1001.00977.70644.70644,0,0,1-.48-.17481.65308.65308,0,0,1,.00537-.94531.72182.72182,0,0,1,.49463-.17969A.677.677,0,0,1,81.86184,30.80821Z"/><path class="fd4bc25c-ee58-4755-bf51-55ec43f7eac5" d="M83.26223,27.37755l-.12012-1.16993h1.06006l.12988,1.16993v6.45019H83.26223Z"/><path class="fd4bc25c-ee58-4755-bf51-55ec43f7eac5" d="M85.34182,31.00841h1.43994a1.28506,1.28506,0,0,0,1.06006-.43067,1.8846,1.8846,0,0,0,.3501-1.21972v-.67969a1.88756,1.88756,0,0,0-.3501-1.22071,1.28743,1.28743,0,0,0-1.06006-.42968H85.34182v-.82032H87.042a2.0662,2.0662,0,0,1,1.645.66016,2.74459,2.74459,0,0,1,.57471,1.86035v.58008a2.74015,2.74015,0,0,1-.57471,1.85938,2.063,2.063,0,0,1-1.645.66015H85.34182Z"/><path class="fd4bc25c-ee58-4755-bf51-55ec43f7eac5" d="M94.20168,26.20762v.89063l-1.87012,4.72949H91.26174l1.87012-4.7998H90.1216V24.65782h.97022v1.5498Z"/><path class="fd4bc25c-ee58-4755-bf51-55ec43f7eac5" d="M95.30178,27.37755l-.12012-1.16993h1.06006l.12988,1.16993v4.45019H95.30178Z"/><path class="fd4bc25c-ee58-4755-bf51-55ec43f7eac5" d="M63.72707,49.74766a.69867.69867,0,0,1-.19482-.50976.71825.71825,0,0,1,.19482-.51465.6763.6763,0,0,1,.97022,0,.71825.71825,0,0,1,.19482.51465.69867.69867,0,0,1-.19482.50976.68784.68784,0,0,1-.97022,0Z"/><path class="fd4bc25c-ee58-4755-bf51-55ec43f7eac5" d="M66.23244,45.37755l-.12011-1.16993h1.06005l.12989,1.16993v6.45019H66.23244Z"/><path class="fd4bc25c-ee58-4755-bf51-55ec43f7eac5" d="M68.63186,45.37755l-.12012-1.16993H69.5718l.12988,1.16993v4.45019H68.63186Z"/><path class="fd4bc25c-ee58-4755-bf51-55ec43f7eac5" d="M71.03225,45.37755l-.12012-1.16993h1.06006l.12988,1.16993v1.5205l-.01025.62989-1.05957.20019Z"/><path class="fd4bc25c-ee58-4755-bf51-55ec43f7eac5" d="M77.19143,44.20762v.89063l-1.87012,4.72949H74.25149l1.87011-4.7998H73.11135V42.65782h.97021v1.5498Z"/><path class="fd4bc25c-ee58-4755-bf51-55ec43f7eac5" d="M82.6216,44.20762a21.818,21.818,0,0,1-.15478,3.03516,3.01372,3.01372,0,0,1-.75,1.65039,3.48958,3.48958,0,0,1-1.915.89453l-1.87988.37012L77.772,49.318l1.68995-.33008-1.23-4.78028h1.06982L80.4219,48.7379a1.53142,1.53142,0,0,0,.77978-.71973,3.32949,3.32949,0,0,0,.30029-1.21484q.06006-.73536.06006-2.20508v-.39063Z"/><path class="fd4bc25c-ee58-4755-bf51-55ec43f7eac5" d="M89.50149,44.8629a2.91824,2.91824,0,0,1,.52,1.85547v5.10937H88.95168V46.67833q0-1.65089-1.23-1.65039h-.91992l-.16016.80957a2.45959,2.45959,0,0,0-.04.46094.94667.94667,0,0,0,.12012.50976.56281.56281,0,0,0,.3999.24024l-.22021.65917a1.4861,1.4861,0,0,1-.99463-.38964,1.27237,1.27237,0,0,1-.30518-.90039,2.87229,2.87229,0,0,1,.06983-.62989l.34033-1.58008h1.96973A1.82569,1.82569,0,0,1,89.50149,44.8629Z"/><path class="fd4bc25c-ee58-4755-bf51-55ec43f7eac5" d="M91.35158,45.37755l-.12011-1.16993h1.06006l.12988,1.16993v4.45019H91.35158Z"/><path class="fd4bc25c-ee58-4755-bf51-55ec43f7eac5" d="M95.55129,49.82774l-.22021-1.22949a3.024,3.024,0,0,1-.68995.84473,3.09365,3.09365,0,0,1-.98.54492l-.38964-.84961a3.97511,3.97511,0,0,0,1.15478-.60547,2.59366,2.59366,0,0,0,.73486-.915v-1.75a1.30992,1.30992,0,0,0-.11474-.63476.57184.57184,0,0,0-.43506-.24512l-.62988-.08985.13965-.81054.99023.14062a1.2176,1.2176,0,0,1,.855.46,1.82489,1.82489,0,0,1,.26514,1.07032v1.91992l.33984,2.14941Z"/><ellipse class="e4f86b60-326d-48fa-b01f-f826908fe455" cx="-12.84905" cy="51.54023" rx="15.08653" ry="2.63477"/></g><rect class="aaee157f-4e10-4f5f-9ff9-850a9d1fb25b" x="-112.38366" y="-593.01851" width="233.75906" height="493.74709"/><ellipse class="e4f86b60-326d-48fa-b01f-f826908fe455" cx="85.48734" cy="57.94565" rx="85.48734" ry="5.78637"/><g class="a230d181-9828-4c15-bf81-48681f82e4f7"><path class="e4f8aea9-b5ca-440a-a06d-4c24fdb17c7d" d="M33.32256,14.10374l-.07511.0222c-4.3963,1.29365-4.67208,1.80648-9.20183,2.36959-3.06049.38046-5.11172-.58126-5.762,3.59946-.08246.5302-.063,6.54048-.03473,6.51441C14.78413,29.809,15.04837,35.107,15.86694,39.77c.44265,2.52153.35654,6.12863,2.35476,6.74579,4.72247,1.45856,9.989,1.44863,14.84951,1.37617,1.58138-.02358-1.49268-.41117-.03871.48131l1.42469,1.38114H153.332a16.2575,16.2575,0,0,0,8.77284-2.34666.88239.88239,0,0,0,.30708-.30438,1.22617,1.22617,0,0,0,.09973-.46241c.14372-1.70936.15026-5.80786.31688-7.511a58.076,58.076,0,0,0,.06269-8.11809c-.03142-.73643-.02362-2.40621-.69842-2.83333-.028-.0177-.541-.25267-.541-.09278,0-.0125.60656-4.159.60656-4.16308,0-.95135-4.73617-3.49742-6.23817-4.06753-2.876-1.09161-6.14228-2.80094-9.14529-3.02505-1.85984-.13879-3.76341.00052-5.62719.00052-3.0078,0-6.62217-1.435-9.63-1.44227-2.446-.00593-4.80139.50717-7.18917-.37136-2.35619-.86691-4.39006-2.64654-6.4971-4.15936-1.59022-1.14175-3.27315-2.12373-4.856-3.2371-1.37709-.96865-2.83394-1.63825-4.25789-2.45415a31.879,31.879,0,0,0-7.3962-3.52675A34.46717,34.46717,0,0,0,93.82023.81561Q84.67649.45952,75.52561.55933A39.30642,39.30642,0,0,0,64.16819,2.72814c-5.54666,1.92714-11.14,3.65435-16.65916,5.69931-2.1359.79139-4.23066,1.73215-6.33419,2.64457A71.3677,71.3677,0,0,1,33.32256,14.10374Z"/><path class="e4f8aea9-b5ca-440a-a06d-4c24fdb17c7d" d="M13.34181,45.36456a8.27783,8.27783,0,0,1-.03588-5.79529c.32754-.84566.92567-1.38481,1.29583-2.17354.39292-.83723.53641-1.86607.86095-2.74566A7.8447,7.8447,0,0,1,21.979,29.89434c2.8755-.41464,5.76033.29409,8.63805.29409h94.16547c2.71166,0,5.28513-.19432,8.03486.01466,3.74958.285,7.6048.65045,10.98609,2.83019,3.18243,2.05153,5.11186,5.49165,6.85562,9.27212,1.56165,3.38562,3.74949,6.9784,7.30658,6.83921,2.85953-.11193,6.24971-2.557,8.20353-.004a5.41765,5.41765,0,0,1,.91508,2.58273c.62035,4.80948-2.08754,9.37792-5.26367,12.3193-5.19318,4.80932-11.77112,6.81991-18.241,7.77326-11.46553,1.68946-23.06363.41457-34.59331-.39344C92.87189,70.29315,76.696,70.078,60.66744,67.75594S33.63435,60.91567,19.36529,51.69931C16.98182,50.15983,14.52161,48.326,13.34181,45.36456Z"/><path class="aebebc17-120b-4b5a-8b6a-98257856a080" d="M157.54745,28.36524a15.38732,15.38732,0,0,1-9.47681-2.71548c-1.40515-.95244-2.105-.71577-3.59608-1.44758a14.96557,14.96557,0,0,0-4.24416-1.16507c-5.22369-.86089-11.09269-2.59473-16.35957-2.8497H35.18556c-2.65742,0-5.11207.72193-7.70656.01964-2.91336-.55608-5.76535-1.68616-8.64437-2.39234a.09276.09276,0,0,1-.07681-.05622.12886.12886,0,0,1,.00668-.07131,1.1483,1.1483,0,0,1,.39424-.58586c.20377-.15238.448-.20632.65555-.35082.09883-.06879.18771-.157.28489-.22924a2.26833,2.26833,0,0,1,.57394-.28114,47.07184,47.07184,0,0,1,9.16217-2.27263c5.28424-.8539,5.66152-1.36711,10.72025-3.56285,4.72177-2.04948,8.94264-5.48176,13.39654-8.28673,21.75479-13.7007,48.61979-11.62058,71.00659.46568,6.37331,3.44085,13.18669,9.1071,20.0433,10.623,4.08865.90393,8.31016.80966,12.34612,2.01626a11.21369,11.21369,0,0,1,6.87284,5.03559c.983,1.757.73906,2.689.2697,4.74932C163.62816,28.79238,159.97536,28.22936,157.54745,28.36524Z"/><path class="a4ac1e1d-ff36-4720-b488-19e39621dcc2" d="M151.61609,22.994l-.00405-.0501a11.199,11.199,0,0,1,2.65541-.0442,36.75328,36.75328,0,0,1,4.254.08186c1.12266.16135,2.88583.11345,2.94338,2.16284.0271.965-.42035.94909-.6242,1.87722-.19428.88458-1.13223.31367-1.56224-.10081a16.95121,16.95121,0,0,0-1.46-1.54574c-.91284-.66715-2.00526-.45582-3.02575-.61945-.81564-.13078-1.00526.90579-1.70793.305A3.94422,3.94422,0,0,1,151.61609,22.994Z"/><path class="a4ac1e1d-ff36-4720-b488-19e39621dcc2" d="M118.62979,17.33883h1.73247c.44934,0,1.36409-.20975,1.74738.06014-1.21486-.108-2.40221-.03536-3.62123-.04364l-5.18619-.04734-6.99607-.06387-8.27995-.0756L88.98837,17.086l-9.26972-.08463-8.9756-.08194L62.58756,16.845l-6.80938-.06216-4.93727-.04508-2.53915-.02318c-.07556-.00069-.15115-.00207-.22672-.00207h-.59588a9.14272,9.14272,0,0,0-.73-1.27223,3.56573,3.56573,0,0,0-1.30636-.79547,5.45229,5.45229,0,0,0-2.01412-.2121c-1.56868,0-3.08017.1184-4.62805.22841,3.00906-1.30054,5.91185-2.678,8.93725-3.86019,2.66174-1.04006,5.39536-2.25785,8.09106-3.11156,3.89242-1.23271,7.65965-2.85291,11.63533-3.70914a50.036,50.036,0,0,1,10.08085-.91639c3.50758-.03457,7.01549-.0785,10.52308-.02153,2.62311.04259,5.24564.12371,7.86824.19735a19.15,19.15,0,0,1,7.27615,1.788l-.34143-.1593a42.26082,42.26082,0,0,1,4.962,2.62049l3.11716,1.89149c2.011,1.22025,4.02312,2.442,5.97662,3.79618.98591.68342,1.95671,1.4002,2.90139,2.166a13.88287,13.88287,0,0,1,2.18426,1.924"/><path class="e8d1697b-7c91-46cf-a19c-553a89ee824e" d="M50.693,11.24485c-.16218.05408-.30889.1772-.46834.24226-1.09512.47031-2.26965.80279-3.32854,1.37426a10.4178,10.4178,0,0,1,1.23945,1.4112c.30841.37392.46487.55282.93549.56866,1.45741.049,2.917.10939,4.375.10939,10.313,0,20.62467.02664,30.93721.17664q.82219.01194,1.64427.02385c1.905.02753,22.65737.37152,22.65872.10285a4.64872,4.64872,0,0,1,.57121-1.92182,5.47721,5.47721,0,0,1,1.8469-1.60416c-.95571-.75889-2.24156-1.7115-3.25051-2.35943-.87352-.561-1.786-1.0403-2.6763-1.56665a28.98614,28.98614,0,0,0-4.68067-1.915,12.735,12.735,0,0,0-3.17915-.7539c-6.94611-.80717-14.06493-.31063-21.04623-.31063-.91233,0-5.915.17557-7.45929.37834-3.47207.4559-6.8972,1.869-10.25679,3.106-1.32924.48943-2.65028,1.01117-3.97442,1.52063C53.30184,10.31948,51.94607,10.67081,50.693,11.24485Z"/><path class="a4ac1e1d-ff36-4720-b488-19e39621dcc2" d="M154.51211,44.00653a5.53647,5.53647,0,0,1,2.65545-3.15621,21.71733,21.71733,0,0,1,4.514-.35586c.55324.29777.36812,1.471.325,2.03236-.08739,1.13848-.21583,2.27242-.30767,3.40941-.09359,1.1587-5.96911,2.55247-6.70834,1.92427C153.9269,46.95661,153.97021,45.41885,154.51211,44.00653Z"/><path class="a4ac1e1d-ff36-4720-b488-19e39621dcc2" d="M18.16943,18.42677c.9461-1.18475,4.7008-.243,5.95525.07835a21.841,21.841,0,0,1,5.70058,2.37615,16.00492,16.00492,0,0,1-5.06609,3.76194,32.16064,32.16064,0,0,1-3.326,1.52457,7.87748,7.87748,0,0,1-2.86931.44359c-.405-.00605-.62677.13672-.75479-.399-.09341-.39089-.017-.82339-.10581-1.21628a5.48141,5.48141,0,0,1,.05169-1.94236,5.95549,5.95549,0,0,0-.0156-1.5179C17.6666,20.7461,17.67238,19.04919,18.16943,18.42677Z"/><path class="a4ac1e1d-ff36-4720-b488-19e39621dcc2" d="M40.81291,35.57982a13.26257,13.26257,0,0,1,14.51552.86655A14.92226,14.92226,0,0,1,60.4259,51.269c-.04216.17379-12.29491,1.16748-13.45637,1.236-2.02926.11966-3.98061-.493-5.94031-.48655-2.17305.00712-3.88989,1.08054-6.14929.31585a4.54037,4.54037,0,0,1-2.26461-1.53924c-1.561-2.13066.81-6.62055,1.89918-8.61015A16.80344,16.80344,0,0,1,40.81291,35.57982Z"/><ellipse class="a4ac1e1d-ff36-4720-b488-19e39621dcc2" cx="137.20431" cy="49.60325" rx="13.9788" ry="15.2822"/><g class="ffda2671-f708-48c2-be99-078d15a1ed99"><path class="a975d6db-9591-400e-983d-ad0fa24a9598" d="M113.37654,13.075c-4.19472.43822-20.20442-1.66788-21.38943-1.83739-1.25734-.17986-32.24128-3.90471-32.76227-4.03454C57.73142,6.83089,53.82792,1.14884,54.388-.59379A4.9681,4.9681,0,0,1,57.60055-3.476,25.95918,25.95918,0,0,1,65.04236-4.9757,59.02788,59.02788,0,0,1,84.79485-3.17129a125.37439,125.37439,0,0,1,18.113,6.88027l8.49845,3.73732a3.61165,3.61165,0,0,1,1.18628.72081c1.06192,1.08312.78762,3.03246,1.02708,4.65171a.13981.13981,0,0,1-.0709.14589"/></g><line class="f760cfe5-b17a-4cd7-b04c-aaa19d1e8353" x1="75.53706" y1="16.40667" x2="75.53706" y2="4.00917"/><path class="e4f8aea9-b5ca-440a-a06d-4c24fdb17c7d" d="M18.85518,21.95008c-.05033-.55658-.02474-3.04443.28661-3.12284a.28351.28351,0,0,1,.09477-.00221,10.23484,10.23484,0,0,1,3.13342.6253c.39275.16576-.17344.70411-.29755.83008a5.57569,5.57569,0,0,1-1.31741.9413A6.934,6.934,0,0,1,18.85518,21.95008Z"/></g><circle class="fd4bc25c-ee58-4755-bf51-55ec43f7eac5" cx="136.36429" cy="47.92863" r="12.20021"/><circle class="e8d1697b-7c91-46cf-a19c-553a89ee824e" cx="136.36429" cy="47.92863" r="8.51688"/><path class="a975d6db-9591-400e-983d-ad0fa24a9598" d="M139.50609,41.1426l-3.1418,6.786-4.49573-5.99252S134.54666,39.45639,139.50609,41.1426Z"/><path class="a975d6db-9591-400e-983d-ad0fa24a9598" d="M133.20761,54.8117l3.14181-6.786,4.49572,5.99253S138.16705,56.4979,133.20761,54.8117Z"/><path class="a975d6db-9591-400e-983d-ad0fa24a9598" d="M129.51321,44.81881l6.786,3.14181-5.99252,4.49572S127.827,49.77824,129.51321,44.81881Z"/><path class="a975d6db-9591-400e-983d-ad0fa24a9598" d="M143.15032,51.11727l-6.786-3.14181,5.99252-4.49572S144.83653,46.15783,143.15032,51.11727Z"/><circle class="fd4bc25c-ee58-4755-bf51-55ec43f7eac5" cx="46.20427" cy="47.92863" r="12.20021"/><circle class="e8d1697b-7c91-46cf-a19c-553a89ee824e" cx="46.20427" cy="47.92863" r="8.51688"/><path class="a975d6db-9591-400e-983d-ad0fa24a9598" d="M49.34608,41.1426l-3.14181,6.786-4.49572-5.99252S44.38664,39.45639,49.34608,41.1426Z"/><path class="a975d6db-9591-400e-983d-ad0fa24a9598" d="M43.0476,54.8117l3.1418-6.786,4.49573,5.99253S48.007,56.4979,43.0476,54.8117Z"/><path class="a975d6db-9591-400e-983d-ad0fa24a9598" d="M39.35319,44.81881l6.786,3.14181L40.1467,52.45634S37.667,49.77824,39.35319,44.81881Z"/><path class="a975d6db-9591-400e-983d-ad0fa24a9598" d="M52.9903,51.11727l-6.786-3.14181,5.99252-4.49572S54.67651,46.15783,52.9903,51.11727Z"/><path class="ff0f9f02-dc47-400c-b828-080c717c4270" d="M77.5775,22.68608h40.387s1.591,11.823-10.34151,23.13072H76.476S79.29088,30.12913,77.5775,22.68608Z"/><path class="ff0f9f02-dc47-400c-b828-080c717c4270" d="M113.21588,18.07518A8.66473,8.66473,0,0,1,118.52,19.55453c1.11428.62334,2.61349,1.60044,3.39358-.30556a2.3417,2.3417,0,0,0-.4943-2.30076,14.479,14.479,0,0,0-5.34058-3.41841,4.36778,4.36778,0,0,0-2.32213-.35979,3.37742,3.37742,0,0,0-2.22943,3.99327,1.47534,1.47534,0,0,0,.27727.629C112.1515,18.19842,112.72273,18.12658,113.21588,18.07518Z"/><path class="ff0f9f02-dc47-400c-b828-080c717c4270" d="M37.42644,16.45141a9.097,9.097,0,0,1,4.30345-.51269,2.795,2.795,0,0,1,2.90108,2.473c.4804,2.46628-1.03879,2.884-3.14816,2.90975l-3.88626.04746a2.7081,2.7081,0,0,1-1.09629-.1381C34.11786,20.22085,35.90285,17.18716,37.42644,16.45141Z"/><ellipse class="e4f86b60-326d-48fa-b01f-f826908fe455" cx="177.05784" cy="59.40958" rx="15.08653" ry="2.63477"/><path class="a62c2ac8-c585-4b82-b318-b3a8c239b132" d="M162.04005,29.88271a3.494,3.494,0,0,1-1.43291-.93036c-.24569-.26548-.47982-.58836-.83353-.66407a.89728.89728,0,0,0-.9708.94777,1.52952,1.52952,0,0,0,.89081,1.20159.55321.55321,0,0,1-.31152.10514.38915.38915,0,0,0,.0667.557,1.10589,1.10589,0,0,0,.5962.19243,4.67974,4.67974,0,0,0,2.66035-.23966c.20077-.10149.41159-.27953.38206-.50254a.58475.58475,0,0,0-.17421-.29989,1.87094,1.87094,0,0,0-1.47361-.73841"/><path class="a62c2ac8-c585-4b82-b318-b3a8c239b132" d="M155.66861,19.69938a3.72086,3.72086,0,0,0-2.92038-1.32869.51391.51391,0,0,0-.37573.12079.49047.49047,0,0,0-.06183.43614,2.09942,2.09942,0,0,0,.79156,1.23048c-.26458.01891-.349.41167-.18768.62226a1.12418,1.12418,0,0,0,.70436.32967l.928.18773a2.57284,2.57284,0,0,0,.92792.07249.87386.87386,0,0,0,.70754-.53959,1.30832,1.30832,0,0,0-.32128-1.065"/><path class="a6cb2369-4dd2-4f8d-b77d-db8ccaf94e88" d="M175.4007,60.502a1.61376,1.61376,0,0,0-.27649-2.65729,1.92107,1.92107,0,0,0-1.14529.02574c-.66621.18588-2.53588,1.16611-2.73928,1.87858-.3358,1.17627,1.80977,1.3583,2.65186,1.2885A2.78528,2.78528,0,0,0,175.4007,60.502Z"/><path class="a6cb2369-4dd2-4f8d-b77d-db8ccaf94e88" d="M166.91881,59.757a1.61375,1.61375,0,0,0,.21007-2.66336,1.92105,1.92105,0,0,0-1.131-.18243c-.68887.062-2.70532.68683-3.03457,1.35058-.54359,1.09585,1.53338,1.664,2.37417,1.74812A2.7853,2.7853,0,0,0,166.91881,59.757Z"/><path class="af6bf37a-a6e1-4f65-b1d5-7800f42c1f06" d="M167.36955,22.89252c.83792-.13726,1.15528-.8767,1.43044-1.58275.08573-.22.61586-2.70425.30657-2.57989-2.328.936-4.50679,2.78845-7.16585,2.624a8.53687,8.53687,0,0,1-2.19543-.53542l-3.22846-1.0981a.7299.7299,0,0,0-.61775-.01934.72243.72243,0,0,0-.24095.35682,12.9558,12.9558,0,0,1-.91778,1.5331c1.84275.51169,3.69336.9991,5.53981,1.49837a12.13275,12.13275,0,0,0,3.01027.5657,19.8578,19.8578,0,0,0,3.07034-.59727Z"/><path class="affb60e4-93e7-47c4-96c1-3d21de9f20d6" d="M167.81355,57.78138c-.39867-.04554.30114-8.77958.30114-8.77958-.13033-1.53844-.52815-2.95249.125-4.45179a56.28854,56.28854,0,0,0,1.83723-5.99683,38.98468,38.98468,0,0,0,1.28636-6.40708.77882.77882,0,0,0-.072-.57356.44006.44006,0,0,0-.26917-.13553,26.86445,26.86445,0,0,0-4.411-.0124.3378.3378,0,0,0-.20295.03967.41418.41418,0,0,0-.13147.25513,71.2964,71.2964,0,0,0-1.66533,25.69623Z"/><path class="aebebc17-120b-4b5a-8b6a-98257856a080" d="M173.33829,31.8a8.48164,8.48164,0,0,1-1.98038-.30831c-.93578-.33677-.94536-.11921-1.77083.21971-.58131.23868-1.22047.13671-1.82458.364a.70461.70461,0,0,0-.32213.2041.88505.88505,0,0,0-.13127.51114,8.64447,8.64447,0,0,0,.31641,3.0388c.31922.985,1.34265,1.45974,1.69969,2.36576.36228.91928.09111,2.55914.12585,3.56347a17.07142,17.07142,0,0,0,1.1881,6.83076,24.97849,24.97849,0,0,1,1.72826,6.91509,26.94786,26.94786,0,0,1,.48351,2.90026c.00371.16773,2.46468.07549,2.687-.30529.49895-.85459.0605-4.17041-.06008-5.14653a37.778,37.778,0,0,0-1.42552-6.6274,2.30219,2.30219,0,0,1-.14521-.72954,2.23968,2.23968,0,0,1,.10229-.54539,58.90262,58.90262,0,0,0,1.44186-10.15872C175.64034,33.00313,174.8085,31.97147,173.33829,31.8Z"/><path class="bc540cf0-1270-4342-b803-85c12f5bd3a9" d="M175.90671,13.27216a4.56811,4.56811,0,0,0-.42365-1.01784c-.58416-1.02921-1.55806-2.13056-1.00955-3.3864.47621-1.09027,2.29007-1.42746,3.27718-.98885a3.71975,3.71975,0,0,1,2.06455,2.4537,4.04361,4.04361,0,0,1,.08286,1.61523c-.09281.58151-.28554,1.20644.13106,1.72677.33851.42281.95775.52834,1.31658.93406.49291.55733.34082,1.49133.84615,2.03742.32372.34983.86331.47162,1.11645.87546a4.69284,4.69284,0,0,1,.389,1.66035c-.03155-.19753-1.0387-.527-1.23518-.53725a5.60482,5.60482,0,0,0-1.05513.20767,2.96544,2.96544,0,0,1-2.5157-.39446c-.51106-.4782-.64606-1.26479-1.169-1.72993-.3899-.34678-.95421-.47442-1.28811-.87541-.43945-.52776-.26771-1.26347-.37364-1.888A6.45175,6.45175,0,0,0,175.90671,13.27216Z"/><path class="a62c2ac8-c585-4b82-b318-b3a8c239b132" d="M170.983,23.33069a.33672.33672,0,0,0,.16542.14162.31036.31036,0,0,0,.19925-.03184,2.47275,2.47275,0,0,0,.91354-.75975,4.28192,4.28192,0,0,0,1.087-2.12475c.02692-.43921-.23274-.64087-.336-1.00867-.05844-.20822-.03039-.48758-.0808-.71247-.05578-.24886-.11331-.49735-.17-.746a5.221,5.221,0,0,1-.18435-1.32525,1.58126,1.58126,0,0,1,.37808-1.09292c.22453-.18363.53162-.16883.70007-.45747a6.05712,6.05712,0,0,0,.14778-4.32015,3.58025,3.58025,0,0,0-1.041-1.76778,3.58021,3.58021,0,0,0-1.44035-.687,4.54183,4.54183,0,0,0-2.8522.11342c-1.741.72182-2.15985,2.13932-2.2571,3.7334-.02208.36193-.02759.733-.02822,1.107-.00208,1.23027-.09227,3.83951,1.65585,3.92742.43628.022,1.52741-.13271,1.78561.32889.25224.45387-.19049,1.12071-.28951,1.55735a2.80361,2.80361,0,0,0,.02744,1.577c.15737.54056.68024.78845.93111,1.256A9.61316,9.61316,0,0,0,170.983,23.33069Z"/><path class="bc540cf0-1270-4342-b803-85c12f5bd3a9" d="M172.38889,16.03459a2.95185,2.95185,0,0,1-1.19485-1.01927,1.55008,1.55008,0,0,1-.00681-1.63938,1.58007,1.58007,0,0,0,.47781-1.07074.57978.57978,0,0,0-.47-.58647c-.41892-.03048-.574.40194-.81129.64707-.54782.5658-.98334-.13466-1.41486-.39488a1.83988,1.83988,0,0,0-.49224-.18048c-.412-.10783-.83449-.18026-1.25159-.26541a3.00029,3.00029,0,0,0-.61073-.13566.41544.41544,0,0,0-.25671.11844c-.03768.035-.14714.27437-.17043.27889-.21656.042-.39608-.86865-.42512-1.03089a3.50385,3.50385,0,0,1-.01922-1.14926A2.63385,2.63385,0,0,1,166.946,7.73524c.49754-.30393,1.87145-.30713,2.36424-.63439a4.39991,4.39991,0,0,1,3.84121.04648,5.41289,5.41289,0,0,1,2.61225,4.24847,5.7903,5.7903,0,0,1-.06574,2.31459,3.70445,3.70445,0,0,1-1.4783,1.775c-.22062.13646-.46254.23925-.669.39628a1.77309,1.77309,0,0,1-.40446.28255.7608.7608,0,0,1-.58585-.04568C172.50372,16.09222,172.44643,16.06424,172.38889,16.03459Z"/><path class="a0fa7e6a-b446-486c-9d31-0864c5facddc" d="M174.75488,30.49085a15.9799,15.9799,0,0,1,.22853-3.55057c.40218-2.30994,2.10132-6.58443-.28654-8.30634-1.13026-.815-1.83731-1.03927-2.72384-.00629-.446.51964-1.2516,1.75738-2.05154,1.71832-.68874-.0338-.48082-1.41772-.45371-1.857a3.54993,3.54993,0,0,0-1.07093,1.22593,16.51865,16.51865,0,0,0-1.27128,3.43245c-.20105,1.1737-.1554,2.39649-.23982,3.58222-.07893,1.10985-.13,2.22134-.21762,3.33073a9.07958,9.07958,0,0,0-.20017,2.02277c.14526.76232.99314,1.15867,1.75405,1.41037a7.19288,7.19288,0,0,0,1.36626.263l4.50624.56854c2.339.2951.7955-2.05882.68514-3.45475Q174.76468,30.68085,174.75488,30.49085Z"/><path class="faa8db59-6fc2-4543-a3c9-fd303f4144a0" d="M174.98211,23.18082c1.05057-1.51565,1.63343-3.37665-.12072-4.68462-.55586-.41447-.82628-.502-1.19306.04991-.18987.2857-.17117.94239-.31148,1.29479a11.64546,11.64546,0,0,1-.71549,1.33794l-2.12716,3.80329a2.1617,2.1617,0,0,1-.49791.669,2.27015,2.27015,0,0,1-.82812.34722,22.90036,22.90036,0,0,0-4.91649,2.00353c0,.33193-2.01963,1.1093-2.29374,1.19421a.22784.22784,0,0,0-.16711.35867l.51884,1.6605a14.98466,14.98466,0,0,1,3.69644-1.47485l1.60931-.50864A8.71906,8.71906,0,0,0,170.32859,28.03c.52819-.39926,1.0708-.288,1.58547-.66138a3.62891,3.62891,0,0,0,.79838-.9133Z"/></g></g></svg>