<svg id="bcc025b2-94be-429a-b209-e163631d10e7" data-name="Layer 1" xmlns="http://www.w3.org/2000/svg" viewBox="0 0 80.49234 53.39387"><defs><style>.f9501265-6e6c-4bee-8506-b01639ee842f{fill:#a97c50;}.ae022789-6f58-43ca-8ca6-6b98f92ff724{fill:#3c2415;}.ec9ef9ab-40a3-45f5-9d6c-3b6bfb3dd483{fill:#566345;}.b96a5a24-46d5-4055-8b21-25462dc98a2b{fill:#1a242d;}.f97b6951-8353-4473-867a-b4f4947ac0f9{fill:#63774e;}.e295e72d-4ad6-4167-98be-42361d2a16c6{fill:#fff;}.ab6e5e97-6c3e-4cf1-aefe-68c55b55e035{fill:#6f825a;}.a3d49173-88da-47fa-b846-f125a1031dd8{fill:#938c6c;}</style></defs><title>Artboard 202</title><path class="f9501265-6e6c-4bee-8506-b01639ee842f" d="M15.72183,7.20118A5.23333,5.23333,0,0,1,18.71864,5.1389,5.53484,5.53484,0,0,1,22.9118,6.16912c1.0579.653,2.89583,1.77848,3.34788,3.00954a3.64216,3.64216,0,0,1-1.03262,2.91467.80806.80806,0,0,0-.35853.68352.79582.79582,0,0,0,.12934.28968,1.54772,1.54772,0,0,0,1.31812.829,5.578,5.578,0,0,1,2.06862.52443c.35768.169.73375.42867.78571.82083a1.24258,1.24258,0,0,1-.4923.978,7.11027,7.11027,0,0,1-2.28727,1.48151,2.59622,2.59622,0,0,1-.85683.21534,3.36169,3.36169,0,0,1-2.44855-1.51077c-1.68839-1.90581-4.47264-2.45372-6.35753-4.16543-.32242-.2928-.61486-.6167-.9067-.94a3.16465,3.16465,0,0,1-.71592-.904,2.96092,2.96092,0,0,1-.09064-1.11775A4.22375,4.22375,0,0,1,15.72183,7.20118Z"/><path class="ae022789-6f58-43ca-8ca6-6b98f92ff724" d="M18.90917,4.38565a4.908,4.908,0,0,0-2.05938.52754c-.17485.09432-1.87548,1.30988-1.45227,1.47416a.32526.32526,0,0,0,.14868.00336.688.688,0,0,1,.40211.0858,1.581,1.581,0,0,0-1.19972.67967c.93269.7473-.10415,1.99191-.04589,2.9106a4.04091,4.04091,0,0,0,.83837,2.23443c1.18844,1.50805,3.10879,1.944,4.85188,2.535a2.372,2.372,0,0,0,.79875.19657.61773.61773,0,0,0,.63363-.62287c-.01617-.53873.28105.19778.25787-.34057a.92662.92662,0,0,0-.06633-.26815c-.1709-.47914-.36832-.957-.49726-1.44926-.10721-.40933-.19385-.49855-.66108-.447a1.56688,1.56688,0,0,1-1.13486-.32552.5105.5105,0,0,1-.199-.26844c-.05419-.235.17332-.446.39745-.53761.66942-.27354.79153-.20531.28023-.84338-.28979-.36162.07807-1.836.0895-2.36772.01484-.67848.69058-1.23222.76561-1.912C21.16808,4.64825,19.66679,4.35191,18.90917,4.38565Z"/><path class="f9501265-6e6c-4bee-8506-b01639ee842f" d="M38.94827,6.66117c-.54115-.92112-.42192-2.01686-.88658-2.963-.35344-.71952-.51988-1.5489.55346-.92561-.01229-.00713.0051-.82812-.01787-.9425-.07078-.35248-.26421-.67759-.15365-1.05012A1.15066,1.15066,0,0,1,39.36239.023,1.48689,1.48689,0,0,1,40.9415.72844c1.09752,2.13827.55017,4.71394-.01392,7.12246A2.37328,2.37328,0,0,1,38.94827,6.66117Z"/><path class="ec9ef9ab-40a3-45f5-9d6c-3b6bfb3dd483" d="M38.50419,12.39757c.22921-.17754.26677-.53785.234-1.28784a45.11362,45.11362,0,0,0-.66475-6.08108c-.06783-.37392,3.23831-.94711,3.54556-.62744.65895.68559.65958,3.31775.75549,4.24614.218,2.11041,1.4399,7.22109-1.5968,7.84651a46.43019,46.43019,0,0,0-5.51108.88167,4.18187,4.18187,0,0,1-.93177.14145c-1.67185-.00032-3.59129-1.53771-5.0079-2.2994a15.81264,15.81264,0,0,0-2.3011-.858c-.68518-.24124-1.6107-.44778-.81364-1.1014a6.77638,6.77638,0,0,1,2.58322-1.1343c2.61715-.50482,5.62272.53861,8.24888.46677C37.82526,12.5693,38.26718,12.58114,38.50419,12.39757Z"/><path class="b96a5a24-46d5-4055-8b21-25462dc98a2b" d="M68.87939,9.18243a2.16354,2.16354,0,0,0,.68811,1.249,2.14731,2.14731,0,0,0,1.8692.15663,1.356,1.356,0,0,0,.67834-.34273,1.5017,1.5017,0,0,0,.30947-.62549,6.11092,6.11092,0,0,0,.03106-3.26682,3.31363,3.31363,0,0,0-1.08893-1.81982A1.64407,1.64407,0,0,0,69.4044,4.4377a2.74867,2.74867,0,0,0-.68707,2.15436,2.96824,2.96824,0,0,1-.115,1.15778,1.13593,1.13593,0,0,0-.09565.25571c-.02837.16761.13514.355.18537.51535C68.76056,8.73944,68.81138,8.96356,68.87939,9.18243Z"/><path class="b96a5a24-46d5-4055-8b21-25462dc98a2b" d="M74.86915,39.34675A2.706,2.706,0,0,0,74.033,40.715a2.02276,2.02276,0,0,0,.77237,1.74619,1.22229,1.22229,0,0,0,.65607.39039,1.63643,1.63643,0,0,0,.74053-.10755,7.56432,7.56432,0,0,0,3.08763-1.96179,4.124,4.124,0,0,0,1.17574-2.06983,1.549,1.549,0,0,0-.8756-1.79116,3.138,3.138,0,0,0-2.36417.705,3.61215,3.61215,0,0,1-1.14543.60346,1.28385,1.28385,0,0,0-.28754.07124c-.17159.077-.26739.33551-.39347.47752C75.22731,38.97205,75.04153,39.15341,74.86915,39.34675Z"/><path class="ec9ef9ab-40a3-45f5-9d6c-3b6bfb3dd483" d="M37.58469,33.95614c.19377-.16751,1.143-.03741,1.385-.04545a14.34568,14.34568,0,0,0,9.4066-3.577,23.039,23.039,0,0,0,6.62046-9.048c.918-2.26215,2.15376-2.87265,4.15315-4.0666,2.64361-1.57866,5.3426-3.07583,7.91172-4.75541.656-.42887,1.3187-.85162,1.996-1.24617.77463-.45123.80442-.73584.522-1.62938-.27415-.86738-.43025-2.12588-1.47885-2.16715a8.43745,8.43745,0,0,0-2.39575.5955c-2.43691.66074-4.78594,1.59867-7.1497,2.47642a17.39175,17.39175,0,0,0-4.82129,2.4468,19.87021,19.87021,0,0,0-3.27533,3.60138q-2.813,3.65234-5.626,7.30466c-1.79918,2.3363-3.00488,2.32127-5.855,2.37494q-.4738.00891-.94726.03025a1.00657,1.00657,0,0,0-.64132.1808.83025.83025,0,0,0-.20015.66459,14.75939,14.75939,0,0,0,.43867,2.18029A19.27225,19.27225,0,0,1,37.58469,33.95614Z"/><path class="f97b6951-8353-4473-867a-b4f4947ac0f9" d="M46.46481,38.12757q.301-.1213.59367-.25038c3.631-1.59956,7.12879-4.59688,11.35261-2.79315,3.35422,1.43238,6.00057,3.93877,9.37716,5.32884a28.99615,28.99615,0,0,0,2.83481.94427l3.9906,1.17877a5.04993,5.04993,0,0,1,1.72694-4.19479c-3.22515-.50837-5.41806-3.15378-8.00477-4.78393-5.44256-3.4299-11.22142-8.32987-17.99548-5.72948-.758.291-1.523.57005-2.29671.81666-.66213.211-1.30156.25-1.96314.49866l-4.71538,1.77205c.03157-.01186.30913-.56145.37667-.64024a5.05444,5.05444,0,0,0,.61612-.67191,5.48287,5.48287,0,0,0,.388-2.13637c.02008-.20886-.02007-.49143-.22826-.51758a.40927.40927,0,0,0-.26931.09993,7.60561,7.60561,0,0,0-1.45631,1.311c-.75629.88253-1.46478,2.19645-2.8034,2.09838-.5984-.04384-1.19522-.10872-1.7953-.12177-4.78416-.10369-1.47783,4.09766-.00738,6.08859C38.73733,39.8796,42.86079,39.57975,46.46481,38.12757Z"/><path class="e295e72d-4ad6-4167-98be-42361d2a16c6" d="M25.962,13.87956c-.13637.15769.047.41744.0635.59412a1.68133,1.68133,0,0,1-.14478.7255,2.024,2.024,0,0,1-.92729,1.04552,8.79707,8.79707,0,0,1-2.18408.51946c.2345.68886.99445,1.15244,1.47616,1.6645q.79712.84733,1.60774,1.68184,1.604,1.65254,3.24957,3.264,1.64333,1.615,3.30966,3.20646c.29416.28207,3.1898,3.24588,3.30934,3.16487a18.20026,18.20026,0,0,0,4.46725-4.30856q-1.397-1.46885-2.84918-2.88382-3.82062-3.72278-8.00014-7.05179a12.67241,12.67241,0,0,0-2.04323-1.39835,2.30921,2.30921,0,0,0-1.09654-.333A.39091.39091,0,0,0,25.962,13.87956Z"/><path class="f97b6951-8353-4473-867a-b4f4947ac0f9" d="M20.31427,18.657c.15883-.37239.29264-.75778.468-1.12293a2.368,2.368,0,0,1,1.32208-1.32829,2.33941,2.33941,0,0,1,1.37649-.0274c1.21241.42439,2.42538.85358,3.64535,1.25517.33452.11011.684.19494,1.01289.31968a5.25326,5.25326,0,0,0,.67278.30558,17.44624,17.44624,0,0,0-1.85737-2.49976c-.24358-.30881-.48134-.6224-.73369-.92419-.127-.15193-.257-.30152-.39332-.44523-.0841-.08866-.40651-.30658-.42928-.41752-.16628-.81017,2.17239-1.62872,2.69411-1.70627,1.173-.17436,1.63108.42523,2.231,1.23829.78951,1.07,1.78784,2.08571,2.65888,3.09871,2.33141,2.71135,4.75842,5.34694,7.241,7.90593a5.83562,5.83562,0,0,1,1.13519,1.53663,2.51053,2.51053,0,0,1,.28552.89074c.006.25881-.146.439-.21212.69048-.07863.29928-.05889.59792-.1085.90058-.2147,1.30993-2.24833,2.56453-3.19019,3.36546a16.9391,16.9391,0,0,1-3.6581,2.61425,12.28416,12.28416,0,0,1-.85418-1.45412,10.25858,10.25858,0,0,0-1.70868-1.72857c-1.1833-1.08269-2.443-2.07817-3.62942-3.15744-2.335-2.12417-5.38769-3.12714-7.65247-5.36242-.59123-.58353-1.43527-1.542-1.13172-2.44878a4.43425,4.43425,0,0,1,.49607-.862A4.89232,4.89232,0,0,0,20.31427,18.657Z"/><path class="ab6e5e97-6c3e-4cf1-aefe-68c55b55e035" d="M29.83713,19.02408q-.06586-.05235-.13156-.1039a7.32974,7.32974,0,0,1-1.7323-2.0186.69794.69794,0,0,1-.15717-.43833c1.07571,1.125,2.39115,1.89821,3.53818,2.92008,3.31664,2.95474,6.08935,6.42729,9.54843,9.22351a.16981.16981,0,0,1,.07.09162.1633.1633,0,0,1-.042.11946,1.31155,1.31155,0,0,1-.43086.38146.22145.22145,0,0,1-.14064.03715.23467.23467,0,0,1-.1082-.06442c-.67777-.59924-1.25806-1.36354-1.89331-2.01439-.994-1.01837-1.988-2.03683-3.00267-3.03469-1.02421-1.00723-2.06918-1.99311-3.12418-2.968A17.62756,17.62756,0,0,0,28.26947,18.137a3.05658,3.05658,0,0,1-.70241-.48922,2.29784,2.29784,0,0,1,1.35828.3111,5.696,5.696,0,0,1-1.00183-1.32915"/><path class="f9501265-6e6c-4bee-8506-b01639ee842f" d="M12.91674,22.80884c-.35493-1.03714-.83262-2.01848-1.25525-3.01648-.32134-.759-.84506-1.45592-1.05491-.23183.00241-.014-.63193-.56936-.70415-.66548-.22256-.29621-.34628-.66407-.69945-.84024a1.09618,1.09618,0,0,0-1.15929.15472A1.46389,1.46389,0,0,0,7.57436,19.864c.92492,2.29042,3.22863,3.66872,5.41609,4.919C13.53894,24.12427,13.16563,23.53613,12.91674,22.80884Z"/><path class="ab6e5e97-6c3e-4cf1-aefe-68c55b55e035" d="M23.46053,21.81017c.4364,2.32175.81226.78988-.0314,2.54872a37.90941,37.90941,0,0,1-2.38287,4.25221,6.26578,6.26578,0,0,1-1.47369.56162,1.252,1.252,0,0,1-.785-.15009,27.99518,27.99518,0,0,1-4.56767-2.82318c-1.17319-.798-2.22644-1.88839-3.4327-2.58724a14.04412,14.04412,0,0,1,1.171-2.70066c.06589-.14543.15274-.3.31761-.30164a.71455.71455,0,0,1,.319.11678c1.33242.73512,2.683,1.52826,4.35375,2.554,1.26641.77727,1.75622.36336,2.00932-.69783.23579-.98861-.641,1.54165-.40418.55364a8.157,8.157,0,0,1,.7621-2.22855c.49948-.84717,1.23457-2.02861,2.46946-1.22741a4.03375,4.03375,0,0,1,1.56253,4.35136"/><path class="a3d49173-88da-47fa-b846-f125a1031dd8" d="M33.21547,32.43785a4.085,4.085,0,0,0,.75127,1.07067c.2885.19967.63721-.00886.91267-.11783a13.6666,13.6666,0,0,0,2.85884-1.747,22.54089,22.54089,0,0,0,3.20161-2.83242,10.42822,10.42822,0,0,0,.97251-1.11145c.22212-.3184.73191-1.22642.50017-1.61137a.82034.82034,0,0,0-.29048-.25541c-.42834-.26253-.825-.55947-1.233-.845a4.07253,4.07253,0,0,0-.50179.89639c-.21639.354-.37608.75729-.62357,1.08973a10.59829,10.59829,0,0,1-1.09558,1.23218,19.70142,19.70142,0,0,1-4.26581,2.97054c-.34709.19506-.69449.39084-1.05437.56165-.11379.054-.38933.11267-.42071.24673-.02561.10938.18528.30486.24179.38427Q33.19216,32.402,33.21547,32.43785Z"/><path class="e295e72d-4ad6-4167-98be-42361d2a16c6" d="M36.45541,51.91074a1.32107,1.32107,0,0,0,.02929.32574.97181.97181,0,0,0,.56446.62738,2.33816,2.33816,0,0,0,1.33886.12482,3.02687,3.02687,0,0,0,1.53223-.76636,5.22785,5.22785,0,0,0,1.2085-1.67657,19.48952,19.48952,0,0,0,.81884-2.28412,7.71039,7.71039,0,0,1,1.27686-2.5144,4.48261,4.48261,0,0,1,.543-.56226l.53369-.43573.66553-.41644.66943-.32032a28.25322,28.25322,0,0,1,5.35449-1.21331,12.57689,12.57689,0,0,0,2.29444-.644,5.58707,5.58707,0,0,0,1.69824-1.154c.44385-.49389.78369-1.016,1.13281-1.47a5.3348,5.3348,0,0,1,1.01514-1.08874,2.08976,2.08976,0,0,1,1.19629-.45038,3.23207,3.23207,0,0,0-.31348.1004,2.32909,2.32909,0,0,0-.74414.51074,5.0436,5.0436,0,0,0-.81445,1.15094,13.615,13.615,0,0,1-.98389,1.63928,5.69788,5.69788,0,0,1-1.83838,1.49842,11.2031,11.2031,0,0,1-2.437.84607,35.57256,35.57256,0,0,0-5.13721,1.28l-.57812.26593-.5083.30078-.5337.42328a3.63552,3.63552,0,0,0-.40576.413,7.34331,7.34331,0,0,0-1.18359,2.16547A15.54049,15.54049,0,0,1,41.848,50.92215,5.4466,5.4466,0,0,1,40.30941,52.71a3.28352,3.28352,0,0,1-1.88135.68073,2.6332,2.6332,0,0,1-1.48144-.34216,1.04248,1.04248,0,0,1-.52051-.80628A1.3505,1.3505,0,0,1,36.45541,51.91074Z"/><path class="e295e72d-4ad6-4167-98be-42361d2a16c6" d="M8.82162,51.72531a.79967.79967,0,0,0,.019.24256.61715.61715,0,0,0,.44922.41351,1.84693,1.84693,0,0,0,.998-.00391,2.60127,2.60127,0,0,0,1.11231-.628,4.29112,4.29112,0,0,0,.91016-1.23382c.25878-.49188.42675-1.06134.67334-1.68347A5.575,5.575,0,0,1,14.07064,46.987c.063-.07049.13184-.13611.20117-.2019.11817-.112.147-.12232.2251-.18866a3.768,3.768,0,0,1,.42773-.3183,6.60849,6.60849,0,0,1,1.0083-.53717,24.54477,24.54477,0,0,1,3.99122-.967,10.67993,10.67993,0,0,0,1.69921-.50244,4.66485,4.66485,0,0,0,1.27881-.83039,13.7218,13.7218,0,0,1,1.70606-1.82989,1.71873,1.71873,0,0,1,.90625-.32282l-.23145.085a1.99529,1.99529,0,0,0-.55127.38849,3.99119,3.99119,0,0,0-.62549.84436,10.3221,10.3221,0,0,1-.769,1.2096,4.64809,4.64809,0,0,1-1.38867,1.12768,8.97855,8.97855,0,0,1-1.814.68549,35.07872,35.07872,0,0,0-3.82177,1.03632,5.93383,5.93383,0,0,0-.81592.41082,3.05337,3.05337,0,0,0-.39844.28559c-.05273.04254-.168.12494-.16846.13452-.05468.0506-.10986.10058-.16064.15533a5.177,5.177,0,0,0-.97705,1.52314,12.91794,12.91794,0,0,1-.83545,1.70843,4.40185,4.40185,0,0,1-1.20068,1.31342,2.744,2.744,0,0,1-1.40821.5462,2.11609,2.11609,0,0,1-1.13525-.18372.69673.69673,0,0,1-.42578-.58575A.8263.8263,0,0,1,8.82162,51.72531Z"/><path class="e295e72d-4ad6-4167-98be-42361d2a16c6" d="M30.64681,10.83518a.84177.84177,0,0,0,.019.24249.61713.61713,0,0,0,.44971.41357,1.84755,1.84755,0,0,0,.99805-.0039,2.60776,2.60776,0,0,0,1.1123-.628,4.30032,4.30032,0,0,0,.91016-1.23389c.25879-.49182.42627-1.06128.67334-1.68341A5.56494,5.56494,0,0,1,35.89584,6.0969c.06347-.07056.13232-.13611.20117-.20191.11865-.11206.14746-.12237.22558-.18866a3.75432,3.75432,0,0,1,.42725-.3183,6.58946,6.58946,0,0,1,1.00879-.53723,24.551,24.551,0,0,1,3.99072-.967,10.67629,10.67629,0,0,0,1.69971-.5025A4.65479,4.65479,0,0,0,44.72738,2.551,13.72045,13.72045,0,0,1,46.43392.7211a1.7174,1.7174,0,0,1,.90625-.32287l-.23144.085A1.99579,1.99579,0,0,0,46.557.87174a3.98847,3.98847,0,0,0-.625.84436,10.38059,10.38059,0,0,1-.769,1.20953,4.65242,4.65242,0,0,1-1.38867,1.12769,8.98678,8.98678,0,0,1-1.814.68548,35.09325,35.09325,0,0,0-3.82178,1.03638,5.93344,5.93344,0,0,0-.81641.41083,3.087,3.087,0,0,0-.39794.28552c-.05274.04254-.16846.125-.169.13452-.05469.05066-.10986.10065-.16016.1554a5.16762,5.16762,0,0,0-.977,1.52307A12.91742,12.91742,0,0,1,34.78255,9.993a4.40257,4.40257,0,0,1-1.20068,1.31342,2.74665,2.74665,0,0,1-1.4082.5462,2.11621,2.11621,0,0,1-1.13526-.18371.69666.69666,0,0,1-.42627-.58576A.86907.86907,0,0,1,30.64681,10.83518Z"/><path class="e295e72d-4ad6-4167-98be-42361d2a16c6" d="M20.51693,29.911a.66407.66407,0,0,0-.01709.23126c.0083.152.16308.317.42187.39295a2.53146,2.53146,0,0,0,2.10352-.5155,4.69878,4.69878,0,0,0,1.03955-1.06635c.31787-.43109.56543-.94989.90576-1.49957a4.82406,4.82406,0,0,1,2.25342-2.083,6.5125,6.5125,0,0,1,1.00049-.37982,28.08344,28.08344,0,0,1,3.87939-.60455,11.43908,11.43908,0,0,0,1.6753-.35126,5.06238,5.06238,0,0,0,1.33105-.658,13.64676,13.64676,0,0,1,1.87891-1.495,1.87022,1.87022,0,0,1,.896-.2193l-.22851.06263a2.23841,2.23841,0,0,0-.57324.31012,4.175,4.175,0,0,0-.71924.71228,10.86985,10.86985,0,0,1-.90674,1.03112,4.89892,4.89892,0,0,1-1.439.904,9.37735,9.37735,0,0,1-1.78076.507c-1.2373.24871-2.55957.33306-3.75635.689a5.74592,5.74592,0,0,0-.85107.30432,4.65278,4.65278,0,0,0-.78613.441,4.97458,4.97458,0,0,0-1.1919,1.272,15.26974,15.26974,0,0,1-1.04687,1.48248A4.66236,4.66236,0,0,1,23.307,30.46732a2.74848,2.74848,0,0,1-2.45313.2337.59952.59952,0,0,1-.40381-.55847A.66864.66864,0,0,1,20.51693,29.911Z"/><path class="e295e72d-4ad6-4167-98be-42361d2a16c6" d="M.09066,13.22208a.64878.64878,0,0,0-.03809.2608c.00977.17584.228.33515.53662.37976a2.74561,2.74561,0,0,0,1.1294-.08441,4.38573,4.38573,0,0,0,1.31885-.634,6.19484,6.19484,0,0,0,1.26123-1.19043c.39648-.47565.72558-1.05713,1.16894-1.65027A6.38091,6.38091,0,0,1,7.12826,8.68625,8.63566,8.63566,0,0,1,9.3016,7.72531a41.18463,41.18463,0,0,1,4.40283-.81079,14.817,14.817,0,0,0,1.92432-.46167,6.70717,6.70717,0,0,0,1.56005-.756c.44532-.31512.83155-.66235,1.20069-.94946a5.62116,5.62116,0,0,1,1.0166-.67255,2.57139,2.57139,0,0,1,.74609-.2373l.27246-.02686-.26074.07562a3.09077,3.09077,0,0,0-.668.34473,5.36622,5.36622,0,0,0-.875.77142,14.36016,14.36016,0,0,1-1.10351,1.11158,6.33119,6.33119,0,0,1-1.64356.98462,12.04454,12.04454,0,0,1-2.01025.61486c-1.40332.32135-2.91065.48322-4.30274.89936a7.65086,7.65086,0,0,0-1.95068.8244A6.046,6.046,0,0,0,6.1097,10.80124c-.42236.5271-.82226,1.11237-1.29345,1.60626a5.9886,5.9886,0,0,1-1.502,1.1872,3.67432,3.67432,0,0,1-2.76855.44171c-.33643-.08411-.57422-.35168-.543-.55206A.64994.64994,0,0,1,.09066,13.22208Z"/></svg>