<svg id="eddef689-2673-43ec-8640-eb61ec62aed6" data-name="Layer 1" xmlns="http://www.w3.org/2000/svg" viewBox="0 0 74.03493 53.52781"><defs><style>.e11793cb-ebd1-4817-9586-92cce59aa6b3{fill:#a97c50;}.b68f8f8e-0839-493f-b949-b916ffb4e945{fill:#3c2415;}.a24b17e9-7dba-4f53-91c9-d71f337b6c03{fill:#566345;}.e8054e69-865e-4731-99ab-26a0574c3714{fill:#1a242d;}.b927d4ac-25fe-4749-a5cd-4b35f49dd5dd{fill:#63774e;}.ae157761-3110-4f9f-8cc7-0528c7ec635a{fill:#fff;}.ba18c718-fe05-43c4-a880-4f06d27bad14{fill:#6f825a;}.bcc6544f-5226-4580-9a9a-5055c0b03d69{fill:#938c6c;}.b0ec7e49-94b1-4eb7-b1a9-3caa44541f15{fill:#c3d7dc;}</style></defs><title>Artboard 205</title><path class="e11793cb-ebd1-4817-9586-92cce59aa6b3" d="M10.47816,6.44456A5.3942,5.3942,0,0,1,13.8769,4.86065,5.705,5.705,0,0,1,17.963,6.6247c.96369.84459,2.63948,2.30286,2.88851,3.63147a3.75415,3.75415,0,0,1-1.54792,2.78615.8329.8329,0,0,0-.4813.63348.82027.82027,0,0,0,.082.31657,1.59531,1.59531,0,0,0,1.1981,1.068,5.74943,5.74943,0,0,1,2.013.88672,1.25377,1.25377,0,0,1,.65832.96868,1.28075,1.28075,0,0,1-.66761.90994,7.32885,7.32885,0,0,1-2.57823,1.11489,2.67614,2.67614,0,0,1-.90776.0724c-1.0755-.13869-1.70914-1.11947-2.23059-1.95427-1.39039-2.22585-4.12683-3.25878-5.75013-5.32094-.27768-.35274-.51956-.732-.76094-1.11048A3.26232,3.26232,0,0,1,9.30529,9.586a3.05211,3.05211,0,0,1,.099-1.15166A4.35356,4.35356,0,0,1,10.47816,6.44456Z"/><path class="b68f8f8e-0839-493f-b949-b916ffb4e945" d="M14.19935,4.12756a5.059,5.059,0,0,0-2.18349.18415c-.19386.066-2.13032,1.01082-1.72822,1.25017a.33531.33531,0,0,0,.15055.02883.70908.70908,0,0,1,.39407.156,1.62961,1.62961,0,0,0-1.33568.48575c.82029.91907-.44641,2.00693-.54425,2.95071a4.16523,4.16523,0,0,0,.47018,2.41457c.9502,1.73606,2.82765,2.50753,4.49843,3.4062a2.44465,2.44465,0,0,0,.77829.33637.63672.63672,0,0,0,.75056-.5248c.07566-.55037.25187.24908.32034-.3021a.95479.95479,0,0,0-.02158-.28391c-.0918-.51624-.21078-1.0357-.25768-1.55814-.039-.43441-.11181-.53991-.59555-.56738a1.61508,1.61508,0,0,1-1.0979-.5249.52616.52616,0,0,1-.15636-.30688c-.0149-.24816.25243-.42374.49591-.47852.72721-.1636.83967-.07337.429-.80936-.23273-.41712.39325-1.85293.49577-2.39142.13107-.68712.91262-1.13446,1.1051-1.8126C16.45057,4.78067,14.97521,4.22279,14.19935,4.12756Z"/><path class="e11793cb-ebd1-4817-9586-92cce59aa6b3" d="M34.17952,9.86647c-.39259-1.0288-.08407-2.12221-.39462-3.16342-.23625-.79179-.26365-1.66329.72082-.84623-.01127-.00935.14676-.8409.143-.96109A2.15761,2.15761,0,0,1,34.672,3.80205a1.18607,1.18607,0,0,1,1.0633-.6123,1.5326,1.5326,0,0,1,1.48451.987c.75005,2.36113-.24666,4.88566-1.2318,7.23742A2.44625,2.44625,0,0,1,34.17952,9.86647Z"/><path class="a24b17e9-7dba-4f53-91c9-d71f337b6c03" d="M32.74742,15.62144c.26334-.14127.36311-.5011.458-1.269a46.50063,46.50063,0,0,0,.36392-6.2949c-.005-.39169,3.45358-.40909,3.71123-.03163.5526.80954.10324,3.48516.042,4.44524-.13918,2.18246.22909,7.58621-2.96456,7.70278a47.85658,47.85658,0,0,0-5.75259-.046,4.31012,4.31012,0,0,1-.9713-.01552c-1.69934-.28614-3.38756-2.177-4.69728-3.19342a16.29771,16.29771,0,0,0-2.19233-1.26553c-.65522-.36235-1.56067-.73053-.63874-1.25865a6.985,6.985,0,0,1,2.81969-.71135c2.74657-.0657,5.62326,1.50875,8.305,1.8847C32.02795,15.67993,32.47513,15.76752,32.74742,15.62144Z"/><path class="e8054e69-865e-4731-99ab-26a0574c3714" d="M64.17265,17.54632a2.23,2.23,0,0,0,.48591,1.38726,2.21335,2.21335,0,0,0,1.87321.47877,1.39765,1.39765,0,0,0,.7481-.23241,1.54781,1.54781,0,0,0,.42151-.58288,6.29875,6.29875,0,0,0,.59006-3.31532,3.41554,3.41554,0,0,0-.79574-2.036,1.69462,1.69462,0,0,0-1.97823-.43257,2.83318,2.83318,0,0,0-1.06671,2.07237,3.05928,3.05928,0,0,1-.31479,1.1572,1.17166,1.17166,0,0,0-.14093.24358c-.05749.16551.07667.384.10032.55553C64.12759,17.07572,64.14094,17.31222,64.17265,17.54632Z"/><path class="e8054e69-865e-4731-99ab-26a0574c3714" d="M65.10414,49.23155a2.78919,2.78919,0,0,0-1.08382,1.24787,2.085,2.085,0,0,0,.48656,1.907,1.26,1.26,0,0,0,.60014.509,1.68683,1.68683,0,0,0,.77111.01727A7.797,7.797,0,0,0,69.352,51.44644a4.25087,4.25087,0,0,0,1.549-1.90292,1.59667,1.59667,0,0,0-.58381-1.97036,3.23457,3.23457,0,0,0-2.52364.31245,3.723,3.723,0,0,1-1.26746.41758,1.32321,1.32321,0,0,0-.30447.02326c-.18757.04893-.32914.29533-.48158.41811C65.53226,48.91191,65.31242,49.0645,65.10414,49.23155Z"/><path class="a24b17e9-7dba-4f53-91c9-d71f337b6c03" d="M28.1271,37.378c.22559-.13715,1.1682.15738,1.4156.19058a14.78681,14.78681,0,0,0,10.17308-2.02774,23.74748,23.74748,0,0,0,8.27638-8.06524c1.31989-2.14247,2.68035-2.55177,4.91679-3.42356,2.95705-1.15271,5.95646-2.21313,8.855-3.48115.74012-.32378,1.486-.6402,2.242-.92546.86452-.32622.94346-.61043.80915-1.567-.13039-.92854-.0739-2.23446-1.13272-2.45568a8.69724,8.69724,0,0,0-2.537.19573c-2.59.255-5.13809.80679-7.69085,1.29489a17.92647,17.92647,0,0,0-5.319,1.66286,20.481,20.481,0,0,0-3.945,3.10074q-3.48374,3.23158-6.96747,6.46317c-2.22824,2.06719-3.45122,1.84579-6.35747,1.41308q-.48312-.07194-.968-.1312a1.03755,1.03755,0,0,0-.6828.07414.85577.85577,0,0,0-.31707.64132,15.21342,15.21342,0,0,0,.07316,2.2912A19.86525,19.86525,0,0,1,28.1271,37.378Z"/><path class="b927d4ac-25fe-4749-a5cd-4b35f49dd5dd" d="M36.44034,43.13624q.32673-.07184.64626-.153c3.96429-1.00514,8.0321-3.45385,12.01714-.8983,3.16459,2.02941,5.426,5.02951,8.62059,7.01975a29.8927,29.8927,0,0,0,2.72008,1.44447l3.85481,1.88042a5.20516,5.20516,0,0,1,2.47254-3.96864c-3.19137-1.06812-4.96814-4.132-7.31877-6.23125-4.94584-4.41686-9.98218-10.38551-17.31239-8.90038-.82024.16618-1.64553.31906-2.47416.43746-.70912.10133-1.36575.03164-2.08074.17125l-5.096.9951c.03411-.00666.41021-.51786.49234-.58639a5.21054,5.21054,0,0,0,.74113-.57765,5.6513,5.6513,0,0,0,.75958-2.10524c.05613-.20887.06362-.503-.14353-.56513a.42191.42191,0,0,0-.29083.05554A7.83933,7.83933,0,0,0,32.344,32.23782c-.91963.76777-1.86441,1.98222-3.20832,1.65368-.60076-.14687-1.19632-.31485-1.804-.43071-4.84525-.9233-2.20272,3.91251-1.04842,6.18762C28.286,43.596,32.52869,43.99619,36.44034,43.13624Z"/><path class="ae157761-3110-4f9f-8cc7-0528c7ec635a" d="M19.74529,14.98363c-.16557.137-.02357.43234-.037.61476a1.733,1.733,0,0,1-.2712.7127,2.08613,2.08613,0,0,1-1.1213.9042,9.06772,9.06772,0,0,1-2.30887.15463c.12059.7403.81381,1.34144,1.21591,1.94428q.66539.99759,1.34669,1.98441,1.34788,1.954,2.74509,3.87327,1.39429,1.9226,2.816,3.8251c.25078.337,2.68743,3.84468,2.82279,3.78278A18.76,18.76,0,0,0,32.23082,29.164q-1.16889-1.73187-2.4031-3.41843-3.24711-4.43727-6.92635-8.53566a13.06158,13.06158,0,0,0-1.83781-1.7707,2.38032,2.38032,0,0,0-1.05768-.52595A.40286.40286,0,0,0,19.74529,14.98363Z"/><path class="b927d4ac-25fe-4749-a5cd-4b35f49dd5dd" d="M13.18774,18.87423c.22511-.35138.427-.72024.66773-1.06142a2.44073,2.44073,0,0,1,1.57094-1.12414,2.41129,2.41129,0,0,1,1.40385.20747c1.15982.63866,2.3194,1.28228,3.49081,1.89906.3212.16912.66191.31508.97492.49811a5.41455,5.41455,0,0,0,.63162.42563A17.98262,17.98262,0,0,0,20.467,16.86047c-.19479-.35555-.38286-.71495-.58777-1.06485-.10315-.17615-.2097-.35042-.32368-.5198-.07033-.1045-.3608-.38114-.365-.49779-.0305-.85195,2.48663-1.28416,3.03021-1.27379,1.22213.0233,1.58524.71108,2.05606,1.6401.61959,1.22259,1.4607,2.42572,2.17292,3.60432,1.90627,3.1546,3.92268,6.24853,6.00868,9.2741a6.01482,6.01482,0,0,1,.89118,1.756,2.58771,2.58771,0,0,1,.13795.95423c-.03812.2641-.22342.42126-.33366.66559-.13109.29077-.16208.5977-.26425.89686-.44218,1.29481-2.7238,2.2224-3.81811,2.87551a17.45993,17.45993,0,0,1-4.16529,2.03191,12.66208,12.66208,0,0,1-.61965-1.6241,10.5737,10.5737,0,0,0-1.44131-2.04916c-1.0177-1.30283-2.128-2.53006-3.14941-3.82995-2.01032-2.55835-4.94181-4.09973-6.86176-6.759-.50121-.69422-1.19529-1.81275-.73171-2.6826a4.56975,4.56975,0,0,1,.65162-.79141A5.04311,5.04311,0,0,0,13.18774,18.87423Z"/><path class="ba18c718-fe05-43c4-a880-4f06d27bad14" d="M22.80472,20.87538q-.058-.06447-.116-.12811a7.55494,7.55494,0,0,1-1.41573-2.348.71944.71944,0,0,1-.08483-.47243c.9011,1.32749,2.106,2.33828,3.09725,3.57308,2.86613,3.57043,5.09084,7.57421,8.12885,11.00785a.17506.17506,0,0,1,.05553.10511.16824.16824,0,0,1-.06312.11424,1.35155,1.35155,0,0,1-.50317.31409.22827.22827,0,0,1-.14931.01372.24183.24183,0,0,1-.099-.084c-.58648-.725-1.04567-1.60108-1.58011-2.37125-.83623-1.20508-1.67254-2.41026-2.53333-3.598-.86888-1.19893-1.76252-2.3797-2.66822-3.551a18.16993,18.16993,0,0,0-3.5107-3.745,3.15009,3.15009,0,0,1-.63034-.61735,2.36844,2.36844,0,0,1,1.32747.54843,5.87112,5.87112,0,0,1-.7911-1.52232"/><path class="e11793cb-ebd1-4817-9586-92cce59aa6b3" d="M4.95856,21.82976c-.18347-1.11491-.50126-2.19408-.76023-3.28078-.19687-.82643-.61008-1.62437-1.03265-.416.00484-.01383-.545-.68678-.602-.79683-.17558-.33914-.23845-.73421-.56732-.97365a1.12986,1.12986,0,0,0-1.20484-.04093,1.50891,1.50891,0,0,0-.7599,1.60148c.54858,2.48628,2.6546,4.28113,4.66435,5.926C5.36612,23.27322,5.08721,22.61158,4.95856,21.82976Z"/><path class="ba18c718-fe05-43c4-a880-4f06d27bad14" d="M15.84677,22.61721c.04665,2.43461.6906.94176-.46766,2.58534A39.07491,39.07491,0,0,1,12.23,29.11743a6.45821,6.45821,0,0,1-1.594.31893,1.29052,1.29052,0,0,1-.77224-.28677A28.85674,28.85674,0,0,1,5.70354,25.499c-1.05609-1.0117-1.94028-2.30013-3.04693-3.21671a14.47579,14.47579,0,0,1,1.652-2.54495c.09183-.13656.20654-.27886.37441-.25231a.73668.73668,0,0,1,.30427.17323c1.22869.975,2.466,2.01214,3.98883,3.34043,1.15438,1.00658,1.723.66959,2.16172-.36581.40869-.96458-.91515,1.45745-.5055.49366a8.40817,8.40817,0,0,1,1.15566-2.135c.65254-.77573,1.60172-1.851,2.72-.82545a4.1578,4.1578,0,0,1,.84435,4.69018"/><path class="bcc6544f-5226-4580-9a9a-5055c0b03d69" d="M23.94548,35.08767a4.21036,4.21036,0,0,0,.5806,1.21675c.25911.25228.64921.09994.94784.03626a14.08723,14.08723,0,0,0,3.2046-1.287,23.23369,23.23369,0,0,0,3.73858-2.33174,10.74762,10.74762,0,0,0,1.17855-.96349c.28021-.28567.95364-1.12149.78389-1.5524a.84576.84576,0,0,0-.2516-.30929c-.39051-.34008-.7429-.70972-1.1088-1.06972-.27435.17823-.44387.5728-.66331.82536-.28047.32281-.51174.70547-.82014,1.00108a10.926,10.926,0,0,1-1.32428,1.06517,20.30729,20.30729,0,0,1-4.84393,2.29018c-.38616.13894-.77275.27855-1.16776.39065-.12489.03545-.415.048-.46982.17886-.04473.10681.13621.34156.18008.43194C23.92193,35.03492,23.93375,35.06078,23.94548,35.08767Z"/><path class="b0ec7e49-94b1-4eb7-b1a9-3caa44541f15" d="M49.42311,51.65246a1.35574,1.35574,0,0,0-.02588.33606,1.00148,1.00148,0,0,0,.46607.73413,2.41167,2.41167,0,0,0,1.33984.35584,3.12051,3.12051,0,0,0,1.68848-.51709,5.38953,5.38953,0,0,0,1.51489-1.49756,20.04363,20.04363,0,0,0,1.2229-2.18177A7.95029,7.95029,0,0,1,57.357,46.54455a4.65558,4.65558,0,0,1,.64819-.47876l.617-.35156.748-.30945.73535-.21118a29.1247,29.1247,0,0,1,5.64991-.318,12.95977,12.95977,0,0,0,2.44238-.26221,5.76086,5.76086,0,0,0,1.92309-.88281c.53589-.426.97071-.89869,1.40284-1.30054a5.49615,5.49615,0,0,1,1.218-.93311,2.21239,2.21239,0,0,1,.94947-.26538,3.35292,3.35292,0,0,1,.34375.01209,3.34774,3.34774,0,0,0-.33594.04846,2.395,2.395,0,0,0-.84351.392,5.20156,5.20156,0,0,0-1.02465,1.03064,14.10076,14.10076,0,0,1-1.28028,1.49817,5.874,5.874,0,0,1-2.125,1.20861,11.54183,11.54183,0,0,1-2.62182.44349,36.67837,36.67837,0,0,0-5.44068.42272l-.63281.17151-.5686.21875-.61475.33911a3.7367,3.7367,0,0,0-.48291.35047,7.57184,7.57184,0,0,0-1.57349,1.99878,16.0153,16.0153,0,0,1-1.41723,2.20312,5.60915,5.60915,0,0,1-1.86963,1.5542,3.38458,3.38458,0,0,1-2.02832.37036,2.71579,2.71579,0,0,1-1.44776-.60119,1.0738,1.0738,0,0,1-.39086-.90845A1.39368,1.39368,0,0,1,49.42311,51.65246Z"/><path class="b0ec7e49-94b1-4eb7-b1a9-3caa44541f15" d="M21.36549,46.7395a.84038.84038,0,0,0-.022.24987.6358.6358,0,0,0,.386.4972,1.90568,1.90568,0,0,0,1.01513.16662,2.68492,2.68492,0,0,0,1.238-.44824,4.42372,4.42372,0,0,0,1.136-1.09851c.34741-.45569.61523-1.00586.97217-1.59607A5.74421,5.74421,0,0,1,27.511,42.82055c.07642-.06079.15772-.11572.239-.17077.13964-.09363.17065-.09925.26147-.1532a3.85314,3.85314,0,0,1,.489-.25049,6.79006,6.79006,0,0,1,1.1167-.37366,25.30225,25.30225,0,0,1,4.22217-.30066,11.01,11.01,0,0,0,1.81348-.22021,4.80075,4.80075,0,0,0,1.4414-.62537,14.13525,14.13525,0,0,1,2.04737-1.56836,1.77043,1.77043,0,0,1,.97632-.17322l-.24976.04688a2.05582,2.05582,0,0,0-.627.30054,4.11263,4.11263,0,0,0-.78.75134,10.65317,10.65317,0,0,1-.98853,1.098,4.78912,4.78912,0,0,1-1.60425.90881,9.25272,9.25272,0,0,1-1.96118.38672,36.157,36.157,0,0,0-4.06177.4,6.13362,6.13362,0,0,0-.8999.27807,3.15814,3.15814,0,0,0-.45361.22217c-.06079.0343-.19214.09827-.19458.10791-.06421.04212-.12866.0835-.18921.1305a5.32624,5.32624,0,0,0-1.25366,1.38122,13.35085,13.35085,0,0,1-1.14136,1.59375,4.53882,4.53882,0,0,1-1.44482,1.12976,2.83048,2.83048,0,0,1-1.52491.31445,2.18027,2.18027,0,0,1-1.12256-.38085.71812.71812,0,0,1-.333-.66822A.87383.87383,0,0,1,21.36549,46.7395Z"/><path class="b0ec7e49-94b1-4eb7-b1a9-3caa44541f15" d="M50.541,8.9071a.86038.86038,0,0,0-.022.24988.63651.63651,0,0,0,.386.49707,1.90554,1.90554,0,0,0,1.01539.16675,2.686,2.686,0,0,0,1.238-.44825A4.4226,4.4226,0,0,0,54.2942,8.274c.34742-.45569.61524-1.00586.97242-1.59607a5.74339,5.74339,0,0,1,1.41992-1.68982c.07666-.06079.15771-.11572.23926-.17077.1394-.09363.17041-.09925.26123-.1532a3.87006,3.87006,0,0,1,.489-.25049A6.79727,6.79727,0,0,1,58.79274,4.04a25.30506,25.30506,0,0,1,4.22217-.30066,11.00541,11.00541,0,0,0,1.81347-.22021A4.80218,4.80218,0,0,0,66.27,2.89379a14.13555,14.13555,0,0,1,2.04712-1.56836,1.77035,1.77035,0,0,1,.97632-.17321L69.044,1.199a2.05491,2.05491,0,0,0-.6272.30066A4.10537,4.10537,0,0,0,67.637,2.251a10.657,10.657,0,0,1-.98877,1.098,4.78891,4.78891,0,0,1-1.60425.90882,9.25112,9.25112,0,0,1-1.96094.38672,36.15336,36.15336,0,0,0-4.062.4,6.11454,6.11454,0,0,0-.89966.27808,3.17222,3.17222,0,0,0-.45385.22216c-.06055.03418-.19214.09827-.19434.10791-.06421.04212-.12891.0835-.18945.1305A5.33015,5.33015,0,0,0,56.03,7.1643a13.28666,13.28666,0,0,1-1.14135,1.59387,4.5361,4.5361,0,0,1-1.44483,1.12976,2.83011,2.83011,0,0,1-1.5249.31446,2.18116,2.18116,0,0,1-1.12256-.38086.71833.71833,0,0,1-.33276-.66821A.88012.88012,0,0,1,50.541,8.9071Z"/><path class="b0ec7e49-94b1-4eb7-b1a9-3caa44541f15" d="M36.98317,26.56542a.67429.67429,0,0,0-.05713.23206c-.01758.156.11182.3501.36157.47156a2.06387,2.06387,0,0,0,.98487.17566,3.09053,3.09053,0,0,0,1.2417-.34009,4.84039,4.84039,0,0,0,1.23876-.90613c.39673-.38391.73755-.8689,1.17725-1.36938A4.97089,4.97089,0,0,1,44.57692,23.097a6.72559,6.72559,0,0,1,1.08154-.21521,28.96392,28.96392,0,0,1,4.04688.04883,11.80135,11.80135,0,0,0,1.76294-.07056,5.20865,5.20865,0,0,0,1.46533-.4414,14.066,14.066,0,0,1,2.16553-1.19837,1.92677,1.92677,0,0,1,.948-.0697l-.24267.02454a2.31483,2.31483,0,0,0-.63574.21728,4.2883,4.2883,0,0,0-.85279.60108,11.2174,11.2174,0,0,1-1.0979.89306,5.04939,5.04939,0,0,1-1.61718.673,9.67722,9.67722,0,0,1-1.89673.21093c-1.3003.04126-2.65894-.09912-3.936.05811a5.92324,5.92324,0,0,0-.91723.16382,4.80545,4.80545,0,0,0-.87452.31384,5.13813,5.13813,0,0,0-1.4292,1.08923,15.67915,15.67915,0,0,1-1.31738,1.328,4.80414,4.80414,0,0,1-1.50586.88427,2.83262,2.83262,0,0,1-2.53345-.18176.61829.61829,0,0,1-.31518-.63672A.69056.69056,0,0,1,36.98317,26.56542Z"/><path class="b0ec7e49-94b1-4eb7-b1a9-3caa44541f15" d="M19.07375,6.10949a.658.658,0,0,0-.0835.25855c-.02026.18042.17432.37964.48047.47778a2.83138,2.83138,0,0,0,1.1626.1073,4.51693,4.51693,0,0,0,1.44848-.41907,6.39355,6.39355,0,0,0,1.48609-.99438c.48437-.41577.91772-.95056,1.47-1.47766a6.58059,6.58059,0,0,1,1.9646-1.36,8.9035,8.9035,0,0,1,2.37329-.60522,42.48824,42.48824,0,0,1,4.614-.07141,15.28092,15.28092,0,0,0,2.03516-.14026,6.90951,6.90951,0,0,0,1.7146-.50183c.50659-.24414.95874-.531,1.38305-.75977a5.78618,5.78618,0,0,1,1.1482-.50977A2.65378,2.65378,0,0,1,41.0696,0l.28149.01929L41.0735.05163a3.18217,3.18217,0,0,0-.73828.23621,5.52067,5.52067,0,0,0-1.02075.63464,14.94,14.94,0,0,1-1.31177.94116,6.52943,6.52943,0,0,1-1.83935.71985,12.43063,12.43063,0,0,1-2.14844.28137c-1.48145.08667-3.04126-.00647-4.52759.17847a7.8869,7.8869,0,0,0-2.12329.50452,6.22287,6.22287,0,0,0-1.7583,1.13c-.51978.46338-1.02637.99-1.5896,1.4115a6.1647,6.1647,0,0,1-1.72974.95,3.78707,3.78707,0,0,1-2.88989-.02441c-.32715-.14295-.52344-.45557-.457-.65381A.66467.66467,0,0,1,19.07375,6.10949Z"/></svg>