<svg id="bb92f776-fda1-4560-a654-b73220eba39c" data-name="Layer 1" xmlns="http://www.w3.org/2000/svg" viewBox="0 0 75.51176 65.72233"><defs><style>.a28fcdd2-9b17-4fb9-9ec7-764b59cc4e90{fill:#a97c50;}.f92dea1a-f0b7-4ac4-bba7-975da624868d{fill:#3c2415;}.e27c8549-ccc3-4484-ae5e-7f7d90baee7b{fill:#566345;}.a076bded-d490-4941-ac80-751b15d413d0{fill:#1a242d;}.b34d99d6-5c08-4efd-b467-4b8a2b8f5127{fill:#63774e;}.b48e91ab-6cb7-47ff-9e19-796e7643ac98{fill:#fff;}.f783e865-2ad1-4899-bde4-3f0f531a719e{fill:#6f825a;}.f205f263-15a1-4dac-bbac-1b503d462c4e{fill:#938c6c;}</style></defs><title>Artboard 132</title><path class="a28fcdd2-9b17-4fb9-9ec7-764b59cc4e90" d="M4.247,42.75234a5.2333,5.2333,0,0,1,2.23382-2.87121,5.53482,5.53482,0,0,1,4.30848-.2846c1.20573.30289,3.29779.82061,4.1006,1.8576a3.6422,3.6422,0,0,1-.10389,3.09044.808.808,0,0,0-.13531.75989.796.796,0,0,0,.2108.23708,1.54775,1.54775,0,0,0,1.507.39211,5.578,5.578,0,0,1,2.1304-.125,1.21636,1.21636,0,0,1,.997.54514,1.24257,1.24257,0,0,1-.17386,1.081,7.11017,7.11017,0,0,1-1.73287,2.10324,2.59646,2.59646,0,0,1-.75175.46412,3.3617,3.3617,0,0,1-2.79054-.70053c-2.18523-1.30674-5.00491-.988-7.31882-2.05032-.39581-.18172-.77244-.40215-1.1483-.62218a3.16488,3.16488,0,0,1-.95557-.64552,2.961,2.961,0,0,1-.424-1.03816A4.22375,4.22375,0,0,1,4.247,42.75234Z"/><path class="f92dea1a-f0b7-4ac4-bba7-975da624868d" d="M6.43492,39.10551a4.90814,4.90814,0,0,0-1.80381,1.125c-.13818.14273-1.39217,1.81523-.9391,1.844a.32516.32516,0,0,0,.14274-.04172.688.688,0,0,1,.40925-.03967c-.46782.09609-.734.57865-.93836,1.01032,1.11487.43064.50245,1.93033.8355,2.7885a4.041,4.041,0,0,0,1.47419,1.87678c1.58848,1.07858,3.55081.91409,5.391.95086a2.37207,2.37207,0,0,0,.82082-.0539.61774.61774,0,0,0,.41587-.78518c-.17816-.50867.32766.10364.14294-.40256a.9269.9269,0,0,0-.14424-.23559c-.30765-.40512-.64019-.801-.91182-1.23133-.22586-.35783-.3354-.41671-.76523-.22642a1.56681,1.56681,0,0,1-1.18017.03251.5105.5105,0,0,1-.27077-.19579c-.12266-.20767.03048-.47754.21648-.63256.55551-.463.69253-.43483.01236-.88863-.38549-.25719-.48021-1.77384-.62993-2.28414-.19081-.65126.28609-1.38326.15226-2.05394C8.66762,38.67346,7.147,38.84448,6.43492,39.10551Z"/><path class="a28fcdd2-9b17-4fb9-9ec7-764b59cc4e90" d="M26.22521,35.22123c-.79412-.71461-1.01146-1.79518-1.74024-2.55678-.55428-.57914-.96349-1.3195.248-1.04956-.01387-.00308-.24531-.791-.30176-.89307-.174-.31463-.45655-.56612-.46369-.95464a1.15067,1.15067,0,0,1,.64718-.99909,1.48691,1.48691,0,0,1,1.71844.19546c1.69218,1.70683,1.94847,4.32751,2.13832,6.79392A2.37328,2.37328,0,0,1,26.22521,35.22123Z"/><path class="e27c8549-ccc3-4484-ae5e-7f7d90baee7b" d="M27.53476,40.82379c.16487-.23849.09182-.59331-.166-1.29836a45.11387,45.11387,0,0,0-2.47069-5.59617c-.17761-.336,2.80092-1.8811,3.19037-1.66918.83528.4545,1.631,2.9635,2.00289,3.81954.84537,1.946,3.554,6.44876.8481,7.9623a46.43049,46.43049,0,0,0-4.98726,2.50529,4.18223,4.18223,0,0,1-.84551.41631c-1.59384.50474-3.888-.381-5.46855-.67916a15.81092,15.81092,0,0,0-2.45279-.12278c-.726-.023-1.67071.0597-1.10834-.80416a6.77632,6.77632,0,0,1,2.11989-1.86166c2.34238-1.27183,5.52274-1.18508,8.0045-2.04689C26.93942,41.19258,27.36428,41.07038,27.53476,40.82379Z"/><path class="a076bded-d490-4941-ac80-751b15d413d0" d="M55.51963,28.583a1.75259,1.75259,0,0,0,2.86246.56747,1.35592,1.35592,0,0,0,.54311-.53163,1.50145,1.50145,0,0,0,.10607-.68976,6.11092,6.11092,0,0,0-.95724-3.12357,3.31366,3.31366,0,0,0-1.5878-1.40586,1.64405,1.64405,0,0,0-1.89942.50169,2.74865,2.74865,0,0,0-.00419,2.26126,2.968,2.968,0,0,1,.24016,1.13842,1.136,1.136,0,0,0-.01392.27266c.02358.16834.23606.29759.33238.43527C55.27253,28.1966,55.38868,28.39489,55.51963,28.583Z"/><path class="a076bded-d490-4941-ac80-751b15d413d0" d="M70.34171,55.52867a2.706,2.706,0,0,0-.38374,1.55694,2.02281,2.02281,0,0,0,1.26378,1.43129,1.22242,1.22242,0,0,0,.74336.174,1.63648,1.63648,0,0,0,.67344-.32624,7.56442,7.56442,0,0,0,2.35076-2.80286,4.12408,4.12408,0,0,0,.49554-2.3283,1.549,1.549,0,0,0-1.37577-1.443c-.78266-.00312-1.46769.72037-2.04074,1.38625a3.6121,3.6121,0,0,1-.90962.92129,1.28364,1.28364,0,0,0-.25259.15478c-.14031.12523-.15354.40061-.23084.57406C70.56994,55.06329,70.44763,55.29229,70.34171,55.52867Z"/><path class="e27c8549-ccc3-4484-ae5e-7f7d90baee7b" d="M33.17071,61.65294c.13411-.21822,1.07828-.38094,1.30658-.46173a14.34554,14.34554,0,0,0,7.88659-6.25145,23.039,23.039,0,0,0,3.5779-10.62526c.19178-2.43378,1.18536-3.38906,2.73066-5.13121C50.71566,36.8798,52.83628,34.63724,54.778,32.26c.4958-.607.99984-1.21019,1.52634-1.79092.60213-.66414.54455-.94446.0054-1.71094-.52337-.744-1.05235-1.89659-2.06442-1.61917a8.43784,8.43784,0,0,0-2.10394,1.2914c-2.12345,1.366-4.07941,2.96973-6.06759,4.52053a17.3917,17.3917,0,0,0-3.8569,3.78893,19.87016,19.87016,0,0,0-2.03439,4.42254q-1.57825,4.33146-3.15653,8.66292c-1.00937,2.77066-2.16327,3.12055-4.864,4.03269q-.449.15162-.89386.315a1.00657,1.00657,0,0,0-.55675.36608.83027.83027,0,0,0,.01.694A14.7619,14.7619,0,0,0,31.7981,57.179,19.27227,19.27227,0,0,1,33.17071,61.65294Z"/><path class="b34d99d6-5c08-4efd-b467-4b8a2b8f5127" d="M42.89608,62.94694q.25032-.20656.4903-.418c2.97819-2.6217,5.4071-6.53561,9.97847-6.0921,3.63022.35221,6.91007,1.94208,10.54883,2.2472a28.99782,28.99782,0,0,0,2.98762.0438l4.16025-.08179a5.04991,5.04991,0,0,1,.37909-4.5205c-3.228.48965-6.11765-1.36973-9.076-2.14232-6.2244-1.62555-13.21349-4.5509-18.88553-.02566-.6347.50637-1.27963,1.00348-1.94271,1.47231-.56745.4012-1.16523.63153-1.7208,1.06839L35.85587,57.612c.02651-.02084.12509-.6286.16567-.72411a5.05536,5.05536,0,0,0,.38436-.82664,5.483,5.483,0,0,0-.27553-2.15376c-.044-.20517-.16759-.46241-.374-.42445a.40932.40932,0,0,0-.22654.17662,7.60553,7.60553,0,0,0-.99225,1.68964c-.45436,1.06976-.73283,2.53632-2.03854,2.84721-.58369.139-1.17223.25741-1.74821.42625-4.592,1.34638-.17095,4.35266,1.83222,5.80637C36.05888,66.95147,39.89912,65.42,42.89608,62.94694Z"/><path class="b48e91ab-6cb7-47ff-9e19-796e7643ac98" d="M16.02623,46.02533c-.08236.19152.17092.38373.24.54717a1.68145,1.68145,0,0,1,.08113.73535,2.02383,2.02383,0,0,1-.56812,1.27678,8.79741,8.79741,0,0,1-1.92513,1.155c.43164.58584,1.29613.79819,1.91,1.14081q1.01585.567,2.04069,1.11759,2.02824,1.0908,4.08374,2.12983Q23.943,55.171,26.01223,56.1847c.36562.18,4.0213,2.13065,4.11079,2.01731a18.20028,18.20028,0,0,0,2.957-5.45675q-1.77543-.97822-3.58723-1.88841-4.76672-2.39469-9.75662-4.30562a12.67154,12.67154,0,0,0-2.37018-.71579,2.30924,2.30924,0,0,0-1.14591.0138A.39089.39089,0,0,0,16.02623,46.02533Z"/><path class="b34d99d6-5c08-4efd-b467-4b8a2b8f5127" d="M12.08552,52.28568c.03892-.403.05-.81079.10695-1.21186a2.368,2.368,0,0,1,.85906-1.66561,2.33937,2.33937,0,0,1,1.3039-.44194c1.284.03832,2.56992.081,3.85421.09533.35215.00392.71091-.02079,1.06214-.00123a5.25451,5.25451,0,0,0,.73366.08807,17.44576,17.44576,0,0,0-2.52574-1.8219c-.32548-.2208-.64686-.44791-.97859-.65938-.167-.10645-.33609-.20978-.50944-.3056-.10695-.05912-.48014-.16947-.53535-.26834-.40325-.72209,1.57889-2.20887,2.05281-2.4404,1.06553-.52056,1.68333-.08737,2.50085.50648,1.07585.7815,2.33436,1.44819,3.47073,2.15074,3.04154,1.8804,6.15134,3.6597,9.291,5.34918A5.83565,5.83565,0,0,1,34.318,52.78114a2.51042,2.51042,0,0,1,.54126.76288,2.45694,2.45694,0,0,1,.00637.7223c.01546.309.12449.58777.16863.89127.191,1.31359-1.36859,3.1239-2.0245,4.172a16.93932,16.93932,0,0,1-2.69748,3.59715,12.28369,12.28369,0,0,1-1.25354-1.12814,10.25807,10.25807,0,0,0-2.151-1.13165c-1.45509-.67466-2.95667-1.24308-4.41368-1.91355-2.86759-1.31956-6.08063-1.3535-8.91485-2.8002-.73989-.37766-1.834-1.03636-1.81859-1.9925a4.43494,4.43494,0,0,1,.2125-.97161A4.8914,4.8914,0,0,0,12.08552,52.28568Z"/><path class="f783e865-2ad1-4899-bde4-3f0f531a719e" d="M21.27437,49.75889q-.0786-.03-.1568-.0593a7.32964,7.32964,0,0,1-2.26115-1.401.698.698,0,0,1-.28225-.37038c1.36532.74753,2.85286,1.0872,4.255,1.71483,4.05427,1.8148,7.74644,4.28752,11.88861,5.90817a.16982.16982,0,0,1,.09444.06619.16324.16324,0,0,1-.004.12657,1.31121,1.31121,0,0,1-.2955.49379.22135.22135,0,0,1-.12285.0779.23469.23469,0,0,1-.1226-.02872c-.82712-.3665-1.61118-.9198-2.41337-1.34834-1.25515-.67054-2.51042-1.34113-3.77912-1.98586-1.28063-.65078-2.5746-1.27493-3.87481-1.88557A17.6272,17.6272,0,0,0,19.512,49.38679a3.05641,3.05641,0,0,1-.81737-.25417,2.2979,2.2979,0,0,1,1.3888-.11376,5.69587,5.69587,0,0,1-1.35654-.96441"/><path class="a28fcdd2-9b17-4fb9-9ec7-764b59cc4e90" d="M6.2878,58.47821c-.65166-.88147-1.40348-1.67266-2.10784-2.49637-.53561-.62646-1.2454-1.13261-1.07566.09768-.00193-.01408-.77441-.35186-.87229-.42168-.30164-.21514-.5307-.52844-.92059-.58969a1.09617,1.09617,0,0,0-1.0584.4977,1.46388,1.46388,0,0,0,.0524,1.71894c1.5736,1.904,4.18605,2.522,6.649,3.05307C7.2783,59.54423,6.74476,59.09634,6.2878,58.47821Z"/><path class="f783e865-2ad1-4899-bde4-3f0f531a719e" d="M16.03731,54.34109c1.11737,2.08146,1.01292.50761.74,2.43913a37.91157,37.91157,0,0,1-.987,4.77338,6.26586,6.26586,0,0,1-1.23519.98056,1.252,1.252,0,0,1-.79365.09405,27.99533,27.99533,0,0,1-5.20711-1.31147c-1.35944-.4063-2.69288-1.12758-4.05389-1.42939A14.04425,14.04425,0,0,1,4.801,56.9591c.01888-.15853.055-.33215.21165-.38349a.71458.71458,0,0,1,.33936.015c1.49224.29828,3.01935.64637,4.92188,1.11951,1.442.3584,1.78393-.18414,1.70464-1.27221-.07386-1.01365-.14537,1.66327-.218.64988a8.15683,8.15683,0,0,1,.05329-2.35466c.22022-.95847.56408-2.30678,1.98331-1.916a4.03377,4.03377,0,0,1,2.804,3.67606"/><path class="f205f263-15a1-4dac-bbac-1b503d462c4e" d="M28.547,61.52544a4.08513,4.08513,0,0,0,1.03961.79371c.33534.10319.60476-.20093.83443-.388a13.66715,13.66715,0,0,0,2.19755-2.529A22.54042,22.54042,0,0,0,34.815,55.7349a10.4275,10.4275,0,0,0,.59133-1.3533c.11556-.37062.32724-1.39022-.01-1.68719a.8205.8205,0,0,0-.35408-.15572c-.48762-.12088-.95542-.28413-1.43062-.43309a4.07225,4.07225,0,0,0-.20756,1.00609c-.09936.40281-.12975.83552-.26525,1.22719a10.59938,10.59938,0,0,1-.67217,1.50557,19.702,19.702,0,0,1-3.16917,4.12039c-.272.2908-.544.58238-.83544.85392-.09216.08586-.33711.225-.32653.36229.00863.112.26872.23465.34658.29328Q28.51391,61.4983,28.547,61.52544Z"/><path class="b48e91ab-6cb7-47ff-9e19-796e7643ac98" d="M59.603,25.08a1.33747,1.33747,0,0,1,.28711-.16833,1.04169,1.04169,0,0,1,.95129.12488,2.63552,2.63552,0,0,1,.94336,1.19287,3.28364,3.28364,0,0,1,.18982,1.99145,5.44132,5.44132,0,0,1-.9574,2.15552,15.51888,15.51888,0,0,1-1.68249,1.90491,7.34776,7.34776,0,0,0-1.45044,1.9967,3.61759,3.61759,0,0,0-.19971.54321l-.1543.66346-.05407.5885.007.6361a35.59056,35.59056,0,0,0,1.04175,5.1908,11.20386,11.20386,0,0,1,.27832,2.56458,5.69958,5.69958,0,0,1-.56738,2.3031,13.67728,13.67728,0,0,1-1.06055,1.59069,5.049,5.049,0,0,0-.69165,1.22864,2.32562,2.32562,0,0,0-.14319.891,3.23823,3.23823,0,0,0,.04346.3263,2.08973,2.08973,0,0,1-.105-1.27393,5.33278,5.33278,0,0,1,.54956-1.38354c.261-.50952.5874-1.04029.84375-1.653a5.58622,5.58622,0,0,0,.31628-2.02844,12.577,12.577,0,0,0-.3999-2.34937,28.25166,28.25166,0,0,1-1.19494-5.35852l.00293-.74218.09155-.77991.16528-.669a4.52213,4.52213,0,0,1,.27576-.73132,7.7102,7.7102,0,0,1,1.72619-2.23,19.43827,19.43827,0,0,0,1.71387-1.71765,5.23,5.23,0,0,0,.99817-1.80957,3.02829,3.02829,0,0,0,.03687-1.71277,2.33847,2.33847,0,0,0-.686-1.15686.971.971,0,0,0-.80835-.24133A1.30872,1.30872,0,0,0,59.603,25.08Z"/><path class="b48e91ab-6cb7-47ff-9e19-796e7643ac98" d="M47.60872.18378a.84657.84657,0,0,1,.20935-.13733.69673.69673,0,0,1,.71167.13428,2.116,2.116,0,0,1,.652.94751,2.74585,2.74585,0,0,1,.109,1.50647,4.399,4.399,0,0,1-.67322,1.64709A12.93307,12.93307,0,0,1,47.431,5.76825a5.16763,5.16763,0,0,0-.9585,1.53492c-.02783.069-.04944.14013-.07177.2113-.00843.00452-.03345.14429-.04944.21a3.07721,3.07721,0,0,0-.08753.48218,5.94057,5.94057,0,0,0-.02209.91357,35.111,35.111,0,0,0,.699,3.89746,8.99094,8.99094,0,0,1,.15686,1.93287,4.64711,4.64711,0,0,1-.425,1.73754,10.33468,10.33468,0,0,1-.76391,1.21289,3.99,3.99,0,0,0-.49561.9264,1.99348,1.99348,0,0,0-.115.66479l.0221.24548a1.71914,1.71914,0,0,1-.096-.95715,13.71241,13.71241,0,0,1,.92358-2.32532,4.65941,4.65941,0,0,0,.20325-1.51086,10.6788,10.6788,0,0,0-.27319-1.7511,24.55311,24.55311,0,0,1-.83411-4.021,6.607,6.607,0,0,1,.054-1.14124,3.75213,3.75213,0,0,1,.10473-.52246c.02649-.09912.02356-.12952.0741-.28455.02991-.09045.05969-.18078.09631-.26831a5.57031,5.57031,0,0,1,1.20264-1.77185c.45666-.48926.89954-.8844,1.23328-1.329a4.29358,4.29358,0,0,0,.72558-1.35058,2.60337,2.60337,0,0,0,.09155-1.27405,1.8485,1.8485,0,0,0-.42358-.90381.61761.61761,0,0,0-.566-.22913A.82377.82377,0,0,0,47.60872.18378Z"/><path class="b48e91ab-6cb7-47ff-9e19-796e7643ac98" d="M19.99325,37.40925a.84667.84667,0,0,1,.20935-.13733.69656.69656,0,0,1,.71167.1344,2.11615,2.11615,0,0,1,.652.94738,2.74632,2.74632,0,0,1,.109,1.5066,4.40221,4.40221,0,0,1-.67334,1.64709,12.90676,12.90676,0,0,1-1.18652,1.48633,5.17252,5.17252,0,0,0-.95838,1.53491c-.02783.069-.04943.14026-.07189.2113-.00831.00464-.03333.14429-.04932.21009a3.07448,3.07448,0,0,0-.08765.48217,5.93808,5.93808,0,0,0-.022.91346,35.09019,35.09019,0,0,0,.699,3.89758,8.98243,8.98243,0,0,1,.15674,1.93286,4.64724,4.64724,0,0,1-.42492,1.73755,10.33177,10.33177,0,0,1-.764,1.21277,3.99148,3.99148,0,0,0-.49549.92651,1.99261,1.99261,0,0,0-.115.6648l.0221.24536a1.71768,1.71768,0,0,1-.09607-.95715,13.71149,13.71149,0,0,1,.92371-2.3252,4.66346,4.66346,0,0,0,.20324-1.51086,10.68938,10.68938,0,0,0-.27319-1.7511,24.54334,24.54334,0,0,1-.83411-4.021,6.59442,6.59442,0,0,1,.054-1.14123,3.75531,3.75531,0,0,1,.10473-.52259c.02649-.099.02344-.12951.074-.28454.03-.09046.05981-.18067.09643-.26831a5.57132,5.57132,0,0,1,1.20252-1.77173c.45666-.48926.89966-.88452,1.23328-1.3291a4.2925,4.2925,0,0,0,.7257-1.35047,2.605,2.605,0,0,0,.09156-1.274,1.847,1.847,0,0,0-.42371-.9038.617.617,0,0,0-.566-.22913A.82318.82318,0,0,0,19.99325,37.40925Z"/><path class="b48e91ab-6cb7-47ff-9e19-796e7643ac98" d="M32.8984,20.09a.68079.68079,0,0,1,.18066-.15967.5997.5997,0,0,1,.67761.126,2.74884,2.74884,0,0,1,.83863,2.31726,4.66347,4.66347,0,0,1-.428,1.63928,15.22344,15.22344,0,0,1-.892,1.58045,4.98152,4.98152,0,0,0-.6394,1.6217,4.638,4.638,0,0,0-.06214.89929,5.72345,5.72345,0,0,0,.08923.89954c.19031,1.23364.68006,2.46509.98487,3.68982a9.38951,9.38951,0,0,1,.30383,1.82654,4.90134,4.90134,0,0,1-.20117,1.68725,10.8801,10.8801,0,0,1-.544,1.26075,4.16763,4.16763,0,0,0-.33593.95483,2.24471,2.24471,0,0,0-.035.65076l.04126.23315a1.86813,1.86813,0,0,1-.1853-.90332,13.65727,13.65727,0,0,1,.547-2.33813,5.05356,5.05356,0,0,0,.02514-1.4845,11.43558,11.43558,0,0,0-.39953-1.66431,28.10164,28.10164,0,0,1-1.114-3.76526,6.53012,6.53012,0,0,1-.08471-1.06653,4.8224,4.8224,0,0,1,.91809-2.9281c.35132-.54272.71411-.98877.96765-1.46057a4.69573,4.69573,0,0,0,.51892-1.39563,2.53222,2.53222,0,0,0-.43433-2.12207.52.52,0,0,0-.53564-.213A.664.664,0,0,0,32.8984,20.09Z"/><path class="b48e91ab-6cb7-47ff-9e19-796e7643ac98" d="M9.07332,8.77143a.65142.65142,0,0,1,.19947-.19177c.1676-.11414.51135-.01343.73108.25415a3.67454,3.67454,0,0,1,.78576,2.69152,5.9808,5.9808,0,0,1-.43017,1.86548c-.24475.63721-.60267,1.2489-.89808,1.85669a6.03667,6.03667,0,0,0-.59057,1.93982,7.6552,7.6552,0,0,0,.0896,2.11548c.21972,1.43628.7185,2.86792,1.02868,4.2738a12.0335,12.0335,0,0,1,.30457,2.08,6.32475,6.32475,0,0,1-.1864,1.907,14.41539,14.41539,0,0,1-.53235,1.47315A5.36519,5.36519,0,0,0,9.252,30.15741a3.08359,3.08359,0,0,0-.02551.75135l.04309.26782-.0924-.25781a2.57138,2.57138,0,0,1-.10462-.77564,5.608,5.608,0,0,1,.17273-1.20654c.10144-.45667.25-.95435.34412-1.4917a6.70268,6.70268,0,0,0,.01574-1.73328,14.82773,14.82773,0,0,0-.40637-1.937,41.22235,41.22235,0,0,1-1.15149-4.32617,8.637,8.637,0,0,1-.06164-2.37549,6.37989,6.37989,0,0,1,.751-2.193c.34619-.65466.73108-1.20056.99134-1.76257a6.19667,6.19667,0,0,0,.53589-1.64966,4.381,4.381,0,0,0,.00878-1.463,2.74422,2.74422,0,0,0-.4071-1.057c-.17236-.25989-.40979-.38892-.57288-.32227A.64079.64079,0,0,0,9.07332,8.77143Z"/></svg>