<svg id="bb56a164-1fec-432b-904c-62f6278d1998" data-name="Layer 1" xmlns="http://www.w3.org/2000/svg" viewBox="0 0 95.23204 28.59872"><defs><style>.b46d0d86-4d40-4dfa-975c-7f37681882dd{fill:#d1d3d4;}.a151e9aa-da68-4e2f-951b-7ce683e3ed65{fill:#e6e7e8;}.e02b1f34-3706-4255-ba5a-205f01643e9b{fill:#bcbec0;}.a7edabe2-37b6-4aa4-b7b6-276006330b80{fill:#fff;}</style></defs><title>Artboard 142</title><path class="b46d0d86-4d40-4dfa-975c-7f37681882dd" d="M12.85536,28.57757.64288,11.54181A3.414,3.414,0,0,1,.00355,9.55264V2.15043L7.78484,13.00492l2.55362,3.56216q.29415.41034.57469.8302a4.84935,4.84935,0,0,0,.53235.80334,3.50989,3.50989,0,0,0,1.42868.81543,3.0389,3.0389,0,0,1,1.23413.333,5.18128,5.18128,0,0,1-.5656.41812,1.25129,1.25129,0,0,0-.28191.24779,1.70676,1.70676,0,0,1-.09068.15311c-.04615.04585-.13319.06785-.16624.10177-.17133.17587-.08241.30767-.05667.569a9.46393,9.46393,0,0,1,.03441,1.09287c-.0213,1.1721-.12626,2.34174-.12626,3.51434v2.79426C12.85536,28.45764,12.72274,28.39264,12.85536,28.57757Z"/><path class="a151e9aa-da68-4e2f-951b-7ce683e3ed65" d="M81.89352,0H1.7837A1.78054,1.78054,0,0,0,.33942,2.82185l11.44883,15.879a1.78052,1.78052,0,0,0,1.44428.73921H93.34235a1.78055,1.78055,0,0,0,1.44429-2.82188L83.3378.73918A1.78055,1.78055,0,0,0,81.89352,0Z"/><ellipse class="b46d0d86-4d40-4dfa-975c-7f37681882dd" cx="47.56303" cy="8.72002" rx="36.23308" ry="6.25359"/><path class="e02b1f34-3706-4255-ba5a-205f01643e9b" d="M32.50435,9.0211s12.66667,8,28.41667-.41667"/><path class="a7edabe2-37b6-4aa4-b7b6-276006330b80" d="M95.232,27.92444c0-.29493-.00195-.58979-.00195-.88465V17.202c-.22705,1.23554-.96094,2.26819-2.22779,2.2381-.42211-.01007-.84594,0-1.26831,0H12.79259s0,9.15863.08984,9.15863H94.30406a.404.404,0,0,0,.07227-.021.70793.70793,0,0,0,.104.021A.74161.74161,0,0,0,95.213,27.933Z"/></svg>