<svg xmlns="http://www.w3.org/2000/svg" xmlns:xlink="http://www.w3.org/1999/xlink" viewBox="0 0 194.98261 79.99091"><defs><style>.a7b77f21-9c97-419d-9d6e-091f1f1fe7b1,.b3e421c1-e465-44b5-a51e-ace0188c98d0{fill:none;}.e1023d82-b139-4c11-9d8f-e2d96f963ed7{isolation:isolate;}.e2cce36b-0eb8-4570-93bd-11666abd2f4e{clip-path:url(#a93dabfc-a24a-44fa-afae-b7504be0c98a);}.ae819fdf-7d53-4d67-9d0f-c9c75b57cb45{clip-path:url(#a49e4fc3-d569-417c-af60-74926182fcb4);}.aadfd02b-2a78-49c0-9599-dad1e53447a2,.b2a78967-4f34-46a0-add1-9478ec34d5b1{fill:#a7a9ac;}.aadfd02b-2a78-49c0-9599-dad1e53447a2{opacity:0.33;mix-blend-mode:multiply;}.b457b002-61b9-40bd-a522-c7f6d0cd021b{clip-path:url(#a2751bd5-b14c-4178-ab5a-663cb8298451);}.b9d3a87c-a3fd-4a23-8ba5-6f30e88018f9{fill:#ef5b5b;}.a41e64d6-e609-4080-ac78-b3e4b324b36f{fill:#ee978f;}.b43b6907-6210-4a12-813b-1dcf1aac1019{fill:#af2027;}.af33b630-7704-4466-af47-3b4b093c834a{clip-path:url(#edb6145b-1a51-4daa-b56c-47e64e4b38fe);}.bac58484-266a-4bf0-ac9e-39922788a8dd{fill:#e6e7e8;}.b3e421c1-e465-44b5-a51e-ace0188c98d0{stroke:#af2027;stroke-miterlimit:10;stroke-width:1.87441px;}.bd71aee0-8a1a-4472-854e-da6535608fe1{fill:#0f2849;}.e27805bc-8029-4362-8edb-1fafd0936574{fill:#dd4747;}.a4d5b746-0ebb-489f-a7d3-8e199a78726c{fill:#1a242d;}.f39d6a60-a0ac-4069-a771-7cbc7f585a12{fill:#566345;}.f9f9eb99-1fc5-477e-8573-dc8b05553927{fill:#63774e;}.a1c40391-6659-4b5e-aa94-40d4f24c9cf0{fill:#a97c50;}.bb9bfaa9-e2c9-41d7-8534-1936db076fbb{fill:#f6d2ba;}.ea0ddd5a-7f0f-4b76-ac4e-8dba44fab45d{fill:#fff;}.a605cee7-748a-4417-9f1a-434eff7366e2{fill:#6f825a;}.af06d746-92b9-48f1-a2a1-aef8b1600f50{fill:#938c6c;}</style><clipPath id="a93dabfc-a24a-44fa-afae-b7504be0c98a"><rect class="a7b77f21-9c97-419d-9d6e-091f1f1fe7b1" x="265.91229" y="20.64955" width="95.66667" height="72.83956"/></clipPath><clipPath id="a49e4fc3-d569-417c-af60-74926182fcb4"><rect class="a7b77f21-9c97-419d-9d6e-091f1f1fe7b1" x="227.95175" y="149.36985" width="128.987" height="79.98967" transform="translate(584.89049 378.72937) rotate(-180)"/></clipPath><clipPath id="a2751bd5-b14c-4178-ab5a-663cb8298451"><path class="a7b77f21-9c97-419d-9d6e-091f1f1fe7b1" d="M33.3226,21.44657l-.0751.0222c-4.3963,1.29365-4.67209,1.80648-9.20184,2.36959-3.06049.38046-5.11171-.58127-5.762,3.59946-.08247.53019-.063,6.54047-.03473,6.51441-3.4648,3.19958-3.20056,8.49764-2.382,13.1606.44264,2.52154.35654,6.12864,2.35476,6.7458,4.72247,1.45856,9.98895,1.44863,14.84951,1.37616,1.58138-.02357-1.49268-.41116-.03871.48132l1.42468,1.38113H153.33207a16.25744,16.25744,0,0,0,8.77284-2.34665.8825.8825,0,0,0,.30709-.30438,1.226,1.226,0,0,0,.09972-.46241c.14373-1.70936.15027-5.80787.31688-7.511a58.076,58.076,0,0,0,.06269-8.11809c-.03141-.73643-.02361-2.40621-.69841-2.83334-.028-.01769-.541-.25266-.541-.09278,0-.01249.60656-4.159.60656-4.16308,0-.95134-4.73606-3.49736-6.23812-4.0675a38.53235,38.53235,0,0,0-6.26195-2.226c-2.539-.54067-15.13276-2.23352-18.14055-2.24081-2.446-.00593-7.18917-.37136-7.18917-.37136-2.3562-.86691-4.39007-2.64654-6.49711-4.15936-1.59021-1.14176-3.27314-2.12373-4.856-3.2371-1.37708-.96865-2.83394-1.63825-4.25788-2.45415a31.879,31.879,0,0,0-7.39621-3.52675,34.46584,34.46584,0,0,0-7.60118-.82407q-9.14374-.3561-18.29461-.25629A39.3069,39.3069,0,0,0,64.16823,10.071c-5.54666,1.92713-11.14,3.65435-16.65916,5.69931-2.13589.79139-4.23066,1.73215-6.33418,2.64457A71.36785,71.36785,0,0,1,33.3226,21.44657Z"/></clipPath><clipPath id="edb6145b-1a51-4daa-b56c-47e64e4b38fe"><path class="a7b77f21-9c97-419d-9d6e-091f1f1fe7b1" d="M50.693,18.58768c-.16218.05408-.30889.1772-.46835.24226-1.09511.47031-2.26964.80279-3.32854,1.37426a10.41781,10.41781,0,0,1,1.23946,1.4112c.30841.37392.46486.55282.93549.56865,1.45741.049,2.917.1094,4.375.1094,10.313,0,20.62468.02663,30.93722.17663q.82218.012,1.64426.02386c1.90505.02752,22.65738.37152,22.65873.10284a4.64871,4.64871,0,0,1,.5712-1.92181,5.47733,5.47733,0,0,1,1.8469-1.60417c-.95571-.75889-2.24155-1.71149-3.2505-2.35942-.87353-.561-1.786-1.0403-2.6763-1.56665a28.9856,28.9856,0,0,0-4.68067-1.915,12.735,12.735,0,0,0-3.17916-.7539c-6.9461-.80717-14.06493-.31064-21.04623-.31064-1.45556,0-6.456.24662-7.45929.37835-3.47206.4559-6.89719,1.869-10.25678,3.106-1.32924.48943-2.65029,1.01117-3.97443,1.52063C53.30189,17.6623,51.94612,18.01364,50.693,18.58768Z"/></clipPath></defs><title>Artboard 217</title><g class="e1023d82-b139-4c11-9d8f-e2d96f963ed7"><g id="ead57aad-622b-417d-abd3-c41950ca281a" data-name="Layer 1"><ellipse class="aadfd02b-2a78-49c0-9599-dad1e53447a2" cx="85.48739" cy="65.28848" rx="85.48734" ry="5.78637"/><g class="b457b002-61b9-40bd-a522-c7f6d0cd021b"><path class="b9d3a87c-a3fd-4a23-8ba5-6f30e88018f9" d="M33.3226,21.44657l-.0751.0222c-4.3963,1.29365-4.67209,1.80648-9.20184,2.36959-3.06049.38046-5.11171-.58127-5.762,3.59946-.08247.53019-.063,6.54047-.03473,6.51441-3.4648,3.19958-3.20056,8.49764-2.382,13.1606.44264,2.52154.35654,6.12864,2.35476,6.7458,4.72247,1.45856,9.98895,1.44863,14.84951,1.37616,1.58138-.02357-1.49268-.41116-.03871.48132l1.42468,1.38113H153.33207a16.25744,16.25744,0,0,0,8.77284-2.34665.8825.8825,0,0,0,.30709-.30438,1.226,1.226,0,0,0,.09972-.46241c.14373-1.70936.15027-5.80787.31688-7.511a58.076,58.076,0,0,0,.06269-8.11809c-.03141-.73643-.02361-2.40621-.69841-2.83334-.028-.01769-.541-.25266-.541-.09278,0-.01249.60656-4.159.60656-4.16308,0-.95135-4.73617-3.49742-6.23818-4.06752-2.876-1.09161-6.14228-2.80094-9.14528-3.02505-1.85984-.13879-3.76341.00052-5.62719.00052-3.00781,0-6.62218-1.435-9.63-1.44227-2.446-.00593-4.80139.50717-7.18917-.37136-2.3562-.86691-4.39007-2.64654-6.49711-4.15936-1.59021-1.14176-3.27314-2.12373-4.856-3.2371-1.37708-.96865-2.83394-1.63825-4.25788-2.45415a31.879,31.879,0,0,0-7.39621-3.52675,34.46584,34.46584,0,0,0-7.60118-.82407q-9.14374-.3561-18.29461-.25629A39.3069,39.3069,0,0,0,64.16823,10.071c-5.54666,1.92713-11.14,3.65435-16.65916,5.69931-2.13589.79139-4.23066,1.73215-6.33418,2.64457A71.36785,71.36785,0,0,1,33.3226,21.44657Z"/><path class="b9d3a87c-a3fd-4a23-8ba5-6f30e88018f9" d="M13.34185,52.70739a8.27791,8.27791,0,0,1-.03588-5.7953c.32754-.84565.92568-1.3848,1.29584-2.17353.39292-.83723.5364-1.86607.86094-2.74567A7.84472,7.84472,0,0,1,21.979,37.23717c2.87551-.41464,5.76033.29409,8.63805.29409h94.16548c2.71166,0,5.28512-.19432,8.03485.01466,3.74958.285,7.6048.65045,10.9861,2.83018,3.18243,2.05154,5.11185,5.49166,6.85562,9.27212,1.56164,3.38562,3.74949,6.9784,7.30658,6.83921,2.85952-.11192,6.24971-2.557,8.20353-.004a5.4175,5.4175,0,0,1,.91507,2.58272c.62035,4.80948-2.08753,9.37793-5.26367,12.3193-5.19317,4.80933-11.77111,6.81991-18.241,7.77326-11.46552,1.68946-23.06363.41458-34.5933-.39343C92.87193,77.636,76.696,77.4208,60.66749,75.09877S33.63439,68.2585,19.36534,59.04214C16.98186,57.50266,14.52166,55.66886,13.34185,52.70739Z"/><path class="a41e64d6-e609-4080-ac78-b3e4b324b36f" d="M157.5475,35.70806a15.38729,15.38729,0,0,1-9.47682-2.71547c-1.40514-.95245-2.105-.71577-3.59607-1.44758a14.96524,14.96524,0,0,0-4.24416-1.16507c-5.2237-.86089-11.09269-2.59473-16.35958-2.8497H35.18561c-2.65742,0-5.11207.72193-7.70656.01964-2.91336-.55608-5.76536-1.68616-8.64438-2.39234a.09277.09277,0,0,1-.07681-.05622.12886.12886,0,0,1,.00669-.07131,1.14824,1.14824,0,0,1,.39424-.58586c.20377-.15239.448-.20632.65555-.35082.09882-.06879.18771-.157.28488-.22924a2.269,2.269,0,0,1,.57394-.28115,47.07262,47.07262,0,0,1,9.16218-2.27262c5.28424-.8539,5.66151-1.36711,10.72025-3.56285,4.72176-2.04948,8.94263-5.48176,13.39654-8.28674C75.70691-4.24,102.57192-2.15984,124.95871,9.92642c6.37332,3.44085,13.18669,9.1071,20.0433,10.623,4.08865.90393,8.31017.80966,12.34613,2.01626a11.21369,11.21369,0,0,1,6.87284,5.03559c.983,1.757.73906,2.689.2697,4.74932C163.62821,36.13521,159.97541,35.57218,157.5475,35.70806Z"/><path class="b43b6907-6210-4a12-813b-1dcf1aac1019" d="M151.61614,30.33685l-.00405-.05009a11.199,11.199,0,0,1,2.65541-.0442,36.75087,36.75087,0,0,1,4.254.08186c1.12267.16135,2.88583.11345,2.94338,2.16284.0271.965-.42035.94908-.62419,1.87722-.19428.88458-1.13223.31367-1.56225-.10081a16.94844,16.94844,0,0,0-1.46-1.54574c-.91283-.66715-2.00526-.45582-3.02574-.61945-.81564-.13079-1.00526.90579-1.70794.30495A3.94423,3.94423,0,0,1,151.61614,30.33685Z"/><path class="b43b6907-6210-4a12-813b-1dcf1aac1019" d="M118.62984,24.68165h1.73246c.44934,0,1.3641-.20974,1.74738.06015-1.21485-.108-2.40221-.03537-3.62123-.04364l-5.18618-.04734-6.99607-.06388-8.27995-.07559-9.03783-.08251-9.26972-.08463-8.97561-.08194-8.15549-.07446-6.80937-.06216L50.841,24.08057l-2.53915-.02318c-.07557-.00069-.15116-.00207-.22672-.00207H47.4792a9.14153,9.14153,0,0,0-.72994-1.27223,3.56584,3.56584,0,0,0-1.30637-.79548,5.45247,5.45247,0,0,0-2.01412-.21209c-1.56868,0-3.08016.1184-4.628.22841,3.00906-1.30054,5.91185-2.678,8.93725-3.86019,2.66174-1.04007,5.39536-2.25785,8.09106-3.11157,3.89241-1.2327,7.65964-2.8529,11.63533-3.70913a50.03593,50.03593,0,0,1,10.08084-.91639c3.50758-.03457,7.0155-.0785,10.52309-.02154,2.6231.0426,5.24564.12371,7.86824.19736a19.14971,19.14971,0,0,1,7.27614,1.788l-.34142-.1593a42.26011,42.26011,0,0,1,4.962,2.62049l3.11715,1.89149c2.011,1.22024,4.02312,2.442,5.97663,3.79618.98591.68342,1.95671,1.40019,2.90139,2.16595a13.88382,13.88382,0,0,1,2.18425,1.924"/><path class="b2a78967-4f34-46a0-add1-9478ec34d5b1" d="M50.693,18.58768c-.16218.05408-.30889.1772-.46835.24226-1.09511.47031-2.26964.80279-3.32854,1.37426a10.41781,10.41781,0,0,1,1.23946,1.4112c.30841.37392.46486.55282.93549.56865,1.45741.049,2.917.1094,4.375.1094,10.313,0,20.62468.02663,30.93722.17663q.82218.012,1.64426.02386c1.90505.02752,22.65738.37152,22.65873.10284a4.64871,4.64871,0,0,1,.5712-1.92181,5.47733,5.47733,0,0,1,1.8469-1.60417c-.95571-.75889-2.24155-1.71149-3.2505-2.35942-.87353-.561-1.786-1.0403-2.6763-1.56665a28.9856,28.9856,0,0,0-4.68067-1.915,12.735,12.735,0,0,0-3.17916-.7539c-6.9461-.80717-14.06493-.31064-21.04623-.31064-.91232,0-5.915.17558-7.45929.37835-3.47206.4559-6.89719,1.869-10.25678,3.106-1.32924.48943-2.65029,1.01117-3.97443,1.52063C53.30189,17.6623,51.94612,18.01364,50.693,18.58768Z"/><path class="b43b6907-6210-4a12-813b-1dcf1aac1019" d="M154.51216,51.34936a5.53642,5.53642,0,0,1,2.65544-3.15621,21.71669,21.71669,0,0,1,4.514-.35586c.55324.29777.36811,1.471.325,2.03236-.08739,1.13848-.21584,2.27242-.30767,3.40941-.09359,1.1587-5.96912,2.55246-6.70835,1.92426C153.927,54.29944,153.97026,52.76168,154.51216,51.34936Z"/><path class="b43b6907-6210-4a12-813b-1dcf1aac1019" d="M18.16947,25.7696c.9461-1.18475,4.70081-.243,5.95526.07835a21.8412,21.8412,0,0,1,5.70057,2.37614A16.00465,16.00465,0,0,1,24.75922,31.986a32.16079,32.16079,0,0,1-3.326,1.52457,7.87719,7.87719,0,0,1-2.86931.44358c-.405-.006-.62676.13673-.75479-.399-.09341-.39089-.017-.8234-.1058-1.21629a5.48089,5.48089,0,0,1,.05169-1.94235,5.95548,5.95548,0,0,0-.01561-1.5179C17.66664,28.08893,17.67243,26.392,18.16947,25.7696Z"/><path class="b43b6907-6210-4a12-813b-1dcf1aac1019" d="M40.813,42.92265a13.26253,13.26253,0,0,1,14.51551.86655,14.92224,14.92224,0,0,1,5.09747,14.82265c-.04216.17378-12.2949,1.16748-13.45636,1.236-2.02927.11966-3.98061-.493-5.94032-.48654-2.173.00712-3.88988,1.08054-6.14929.31584a4.54029,4.54029,0,0,1-2.26461-1.53924c-1.561-2.13065.81-6.62054,1.89919-8.61014A16.80337,16.80337,0,0,1,40.813,42.92265Z"/><ellipse class="b43b6907-6210-4a12-813b-1dcf1aac1019" cx="137.20435" cy="56.94607" rx="13.9788" ry="15.2822"/><g class="af33b630-7704-4466-af47-3b4b093c834a"><path class="bac58484-266a-4bf0-ac9e-39922788a8dd" d="M113.37659,20.41784c-4.19472.43822-20.20443-1.66788-21.38943-1.83739-1.25734-.17986-32.24128-3.90471-32.76227-4.03455C57.73147,14.17372,53.828,8.49167,54.38805,6.749A4.968,4.968,0,0,1,57.6006,3.86687a25.9587,25.9587,0,0,1,7.44181-1.49974A59.02779,59.02779,0,0,1,84.79489,4.17154a125.37462,125.37462,0,0,1,18.113,6.88026l8.49845,3.73732a3.612,3.612,0,0,1,1.18629.72082c1.06192,1.08312.78761,3.03246,1.02708,4.65171a.13981.13981,0,0,1-.07091.14589"/></g><line class="b3e421c1-e465-44b5-a51e-ace0188c98d0" x1="75.53711" y1="23.7495" x2="75.53711" y2="11.352"/><path class="b9d3a87c-a3fd-4a23-8ba5-6f30e88018f9" d="M18.85522,29.29291c-.05032-.55658-.02474-3.04443.28661-3.12284a.28331.28331,0,0,1,.09478-.00221,10.23479,10.23479,0,0,1,3.13341.6253c.39276.16576-.17343.70411-.29754.83008a5.57638,5.57638,0,0,1-1.31741.9413A6.93439,6.93439,0,0,1,18.85522,29.29291Z"/></g><circle class="bd71aee0-8a1a-4472-854e-da6535608fe1" cx="136.36433" cy="55.27146" r="12.20021"/><circle class="b2a78967-4f34-46a0-add1-9478ec34d5b1" cx="136.36433" cy="55.27146" r="8.51688"/><path class="bac58484-266a-4bf0-ac9e-39922788a8dd" d="M139.50614,48.48542l-3.14181,6.786-4.49572-5.99253S134.54671,46.79922,139.50614,48.48542Z"/><path class="bac58484-266a-4bf0-ac9e-39922788a8dd" d="M133.20766,62.15452l3.1418-6.786,4.49573,5.99252S138.16709,63.84073,133.20766,62.15452Z"/><path class="bac58484-266a-4bf0-ac9e-39922788a8dd" d="M129.51325,52.16164l6.786,3.1418-5.99252,4.49573S127.827,57.12107,129.51325,52.16164Z"/><path class="bac58484-266a-4bf0-ac9e-39922788a8dd" d="M143.15036,58.4601l-6.786-3.14181,5.99253-4.49572S144.83657,53.50066,143.15036,58.4601Z"/><circle class="bd71aee0-8a1a-4472-854e-da6535608fe1" cx="46.20431" cy="55.27146" r="12.20021"/><circle class="b2a78967-4f34-46a0-add1-9478ec34d5b1" cx="46.20432" cy="55.27146" r="8.51688"/><path class="bac58484-266a-4bf0-ac9e-39922788a8dd" d="M49.34612,48.48542l-3.1418,6.786-4.49573-5.99253S44.38669,46.79922,49.34612,48.48542Z"/><path class="bac58484-266a-4bf0-ac9e-39922788a8dd" d="M43.04764,62.15452l3.14181-6.786L50.68517,61.361S48.00708,63.84073,43.04764,62.15452Z"/><path class="bac58484-266a-4bf0-ac9e-39922788a8dd" d="M39.35324,52.16164l6.786,3.1418-5.99252,4.49573S37.667,57.12107,39.35324,52.16164Z"/><path class="bac58484-266a-4bf0-ac9e-39922788a8dd" d="M52.99035,58.4601l-6.786-3.14181,5.99252-4.49572S54.67656,53.50066,52.99035,58.4601Z"/><path class="e27805bc-8029-4362-8edb-1fafd0936574" d="M77.57754,30.02891h40.387s1.591,11.823-10.34151,23.13072H76.47608S79.29093,37.472,77.57754,30.02891Z"/><path class="e27805bc-8029-4362-8edb-1fafd0936574" d="M113.21593,25.418A8.66469,8.66469,0,0,1,118.52,26.89736c1.11429.62334,2.6135,1.60044,3.39359-.30556a2.34172,2.34172,0,0,0-.4943-2.30076,14.47878,14.47878,0,0,0-5.34058-3.41841,4.36768,4.36768,0,0,0-2.32213-.35979,3.37741,3.37741,0,0,0-2.22943,3.99327,1.4755,1.4755,0,0,0,.27726.629C112.15154,25.54125,112.72278,25.4694,113.21593,25.418Z"/><path class="e27805bc-8029-4362-8edb-1fafd0936574" d="M37.42649,23.79424a9.09694,9.09694,0,0,1,4.30345-.51269,2.795,2.795,0,0,1,2.90108,2.473c.4804,2.46628-1.03879,2.884-3.14817,2.90975l-3.88625.04745a2.70783,2.70783,0,0,1-1.0963-.1381C34.11791,27.56368,35.9029,24.53,37.42649,23.79424Z"/><ellipse class="aadfd02b-2a78-49c0-9599-dad1e53447a2" cx="175.91101" cy="66.01896" rx="19.07164" ry="2.63477"/><path class="a4d5b746-0ebb-489f-a7d3-8e199a78726c" d="M160.72236,63.04066a2.24739,2.24739,0,0,1,1.35738.11322,1.78159,1.78159,0,0,1,.82,1.43833,1.08721,1.08721,0,0,1-.0564.66158,1.39683,1.39683,0,0,1-.44136.46575,6.29469,6.29469,0,0,1-2.88288,1.16626,3.42827,3.42827,0,0,1-2.00915-.23394,1.36436,1.36436,0,0,1-.79981-1.534c.20461-.64684.96946-1.01246,1.65821-1.30156a3.01575,3.01575,0,0,0,.98383-.49637,1.0877,1.0877,0,0,1,.19169-.16574c.13815-.08122.36377-.0161.52413-.032C160.28658,63.10053,160.50367,63.06282,160.72236,63.04066Z"/><path class="a4d5b746-0ebb-489f-a7d3-8e199a78726c" d="M177.3648,64.084a2.35608,2.35608,0,0,1,1.39332.08781,1.76112,1.76112,0,0,1,.85878,1.42335,1.06426,1.06426,0,0,1-.0496.66282,1.42466,1.42466,0,0,1-.44679.47414,6.58575,6.58575,0,0,1-2.94171,1.2206,3.59047,3.59047,0,0,1-2.06316-.19635,1.34862,1.34862,0,0,1-.83925-1.51941c.20176-.65086.98153-1.0309,1.6842-1.333a3.14493,3.14493,0,0,0,1.00268-.51494,1.11787,1.11787,0,0,1,.1945-.16938c.14065-.08383.37281-.02292.53706-.04183C176.91869,64.15205,177.14082,64.11026,177.3648,64.084Z"/><path class="f39d6a60-a0ac-4069-a771-7cbc7f585a12" d="M170.47226,32.23268c-.58927-.02461-.24751,3.2504-.22788,3.59767A9.12876,9.12876,0,0,1,169.183,40.713c-1.0019,2.06755-2.02721,4.12313-3.04886,6.18092-.96177,1.93715-.6276,3.42022-.46224,5.53054a17.28826,17.28826,0,0,1-1.93055,9.34075,5.26825,5.26825,0,0,1-.86107,1.494c-.72076.5367-3.1342.11924-3.9115-.15992a27.70228,27.70228,0,0,0,.90893-2.99871,25.60206,25.60206,0,0,0,.67932-7.7721,17.83454,17.83454,0,0,1,.04134-4.17155q.60872-3.89259,1.41161-7.75025c.57453-2.75878.819-5.44795,1.22838-8.24651a1.30231,1.30231,0,0,1,.23348-.67673c.62665-.73249,2.28479.175,2.94293.37624A16.13887,16.13887,0,0,0,170.47226,32.23268Z"/><path class="f9f9eb99-1fc5-477e-8573-dc8b05553927" d="M166.87173,30.91951a6.84841,6.84841,0,0,0-3.16-1.52714,34.85553,34.85553,0,0,0,.71494,5.70251,5.46876,5.46876,0,0,0,1.72306,3.15642.85472.85472,0,0,1,.19916.27072.8709.8709,0,0,1,.03542.33527,43.51194,43.51194,0,0,0,.76045,7.90374,11.41716,11.41716,0,0,0,.67268,2.70984c.61833,1.43875,1.82358,2.51832,2.68931,3.79116,1.02828,1.51182,2.156,2.87094,3.07661,4.4745.33839.58939,3.84664,6.96805,2.90127,7.3222a8.57835,8.57835,0,0,1,2.03527-.30708c.72865-.088.37457-.89957.36687-1.487-.008-.61326.0261-1.2263.00556-1.83957a22.283,22.283,0,0,0-1.7721-6.94751,12.94464,12.94464,0,0,0-2.7653-4.465,5.37406,5.37406,0,0,1-1.2733-1.42435,6.1177,6.1177,0,0,1-.22037-3.71747c.23047-1.6738.32635-3.43811.69373-5.08385.60324-2.702,2.34141-5.57619,1.49428-8.43544a9.23013,9.23013,0,0,0-2.18328-3.34545,8.85781,8.85781,0,0,0-1.2277-1.32015"/><path class="a1c40391-6659-4b5e-aa94-40d4f24c9cf0" d="M158.04506,8.75593a4.82669,4.82669,0,0,0-1.00909-.5822c-1.15111-.48868-2.67563-.78764-3.02166-2.19381-.30041-1.22078,1.00537-2.66844,2.11543-2.93415a3.93064,3.93064,0,0,1,3.30819.73362,4.27317,4.27317,0,0,1,1.10668,1.30237c.29549.54763.535,1.19585,1.21874,1.365.55558.13748,1.143-.17156,1.70469-.06146.77154.15124,1.24362,1.03275,2.01836,1.16659.49631.08574,1.02736-.15852,1.49911.01786a4.95912,4.95912,0,0,1,1.39256,1.14369c-.15332-.14551-1.21013.22466-1.3816.34222a5.92327,5.92327,0,0,0-.75218.85179,3.13359,3.13359,0,0,1-2.36457,1.28427c-.736-.07318-1.35433-.64664-2.0919-.70121a11.20935,11.20935,0,0,1-1.64315.09241c-.70769-.16075-1.03595-.88847-1.52588-1.34462A6.81661,6.81661,0,0,0,158.04506,8.75593Z"/><path class="bb9bfaa9-e2c9-41d7-8534-1936db076fbb" d="M139.47725,24.267a5.31537,5.31537,0,0,0-1.48252-.32639,8.75413,8.75413,0,0,0-4.2037.17533c-.22886.08825-.47926.23317-.51345.47605-.04331.30768.28014.53022.56439.6557a8.38073,8.38073,0,0,0,2.00845.59971.6862.6862,0,0,0-.40468.63269,17.425,17.425,0,0,0,3.20613-.34387,1.68163,1.68163,0,0,0,.73337-.28022,1.32638,1.32638,0,0,0,.423-.97016.9291.9291,0,0,0-.10637-.56443.418.418,0,0,0-.5029-.18091c-.06215.02992-.1283.0817-.19185.05488s.00968-.15427.04006-.09235"/><path class="f39d6a60-a0ac-4069-a771-7cbc7f585a12" d="M150.02282,25.3947a12.64212,12.64212,0,0,0,2.44029-1.38945,15.18445,15.18445,0,0,0,4.23423-3.91852c-.26178-.82148.97975-1.77491.21787-2.70869-.90872-1.11494-3.13851,1.61616-3.96068,2.25629-1.2247.95354-2.64657,1.76921-3.90844,2.73431a3.34487,3.34487,0,0,1-.57659.38094,3.77753,3.77753,0,0,1-1.24746.25842c-1.28906.13625-2.49771.5459-3.77959.61291-.70345.03677-1.40568.05254-2.1101.04009a12.75258,12.75258,0,0,0-1.90086-.07605,20.8543,20.8543,0,0,0-1.14044,2.77891l7.77246-.1581A10.523,10.523,0,0,0,150.02282,25.3947Z"/><path class="bb9bfaa9-e2c9-41d7-8534-1936db076fbb" d="M160.37144,20.359a.35583.35583,0,0,0,.22976.01265.328.328,0,0,0,.14678-.15467,2.613,2.613,0,0,0,.27885-1.2242,4.52469,4.52469,0,0,0-.452-2.48115c-.25942-.3859-.60683-.38841-.92963-.6308-.18274-.13723-.33858-.38969-.52528-.54606-.20661-.173-.41445-.34465-.62167-.517a5.5178,5.5178,0,0,1-1.00565-.99383,1.671,1.671,0,0,1-.38446-1.16c.07053-.29828.33777-.483.29379-.83344A6.40055,6.40055,0,0,0,154.752,8.11a3.29743,3.29743,0,0,0-3.65871-.46695,4.79931,4.79931,0,0,0-2.32088,1.92658c-.99764,1.72367-.439,3.18226.50293,4.58253.21387.31794.44749.63286.68714.9472.78836,1.034,2.38854,3.28245,3.91238,2.23224l1.15958-.79917c.36636-.25249,1.31725.13979.82277.42041-.10613.09818-.06963.13856-.047.28136a1.16245,1.16245,0,0,0,.16624.39836,5.49824,5.49824,0,0,0,1.39984,1.62789c.47916.35263,1.07715.22494,1.58792.45624A10.158,10.158,0,0,0,160.37144,20.359Z"/><path class="ea0ddd5a-7f0f-4b76-ac4e-8dba44fab45d" d="M156.12528,17.46687c.17047-.09909.34891.10942.466.19765.20545.15478.45049.2746.67028.40857a.84509.84509,0,0,0,.72914.17462.78828.78828,0,0,0,.3648-.45908,10.05045,10.05045,0,0,0,.43344-1.5117c.01925-.077.23755-1.12218.31946-1.07587.55153.31179.82548,1.03683,1.18582,1.53162q.59625.81873,1.17934,1.647,1.15488,1.639,2.26787,3.307,1.11645,1.66662,2.209,3.3491c.19383.2972,2.26205,3.25293,2.17345,3.34212a15.84564,15.84564,0,0,1-4.40722,3.12639q-1.03115-1.43226-2.00728-2.90307-2.56823-3.8696-4.74164-7.98268a11.03279,11.03279,0,0,1-.86651-1.97376,2.01061,2.01061,0,0,1-.10789-.99188A.34025.34025,0,0,1,156.12528,17.46687Z"/><path class="f9f9eb99-1fc5-477e-8573-dc8b05553927" d="M162.81407,13.32261a14.66954,14.66954,0,0,0-3.47076.83584c-.37172.13926-.78282.343-.88221.72728a1.30681,1.30681,0,0,0,.07258.68407,4.25946,4.25946,0,0,1,.44293,2.71967,9.74723,9.74723,0,0,0,.27365,2.30651,23.78414,23.78414,0,0,1-1.84832-2.00889,7.93623,7.93623,0,0,1-1.35867-1.80512c-.03273-.07429-.47929.60662-.50122.703a2.732,2.732,0,0,0,.04166,1.00951,5.24306,5.24306,0,0,0,.43761,1.21744c.73069,1.52788.04612,3.318,1.26964,4.68132.49919.55623,1.165.88173,1.65521,1.43734.58614.66439,1.32067,1.17021,1.871,1.8772a18.04221,18.04221,0,0,1,1.32144,2.59394c.43437.78063,1.78145,3.56784,2.90131,3.61175.5209.02043,1.49623-1.15818,1.93569-1.46993.80376-.57017,1.6567-1.068,2.42469-1.68848a26.85922,26.85922,0,0,0,2.85542-2.70815c-.56434-.53589-.99761-1.2464-1.57427-1.753-.48068-.42227-1.08662-.69677-1.5612-1.162a7.93723,7.93723,0,0,1-2.16692-3.81945c-.69439-2.95167-2.5576-5.30438-4.17149-7.85059"/><path class="a1c40391-6659-4b5e-aa94-40d4f24c9cf0" d="M156.86648,13.33308a3.11926,3.11926,0,0,1-1.65724-.08822c-.48845-.1977-1.11542-.79947-1.05836-1.37146a1.66974,1.66974,0,0,0-.28651-1.20543.61267.61267,0,0,0-.771-.19039c-.37115.2434-.22361.70587-.2654,1.064-.09645.8266-.91172.51839-1.441.57708a1.94408,1.94408,0,0,0-.529.16459c-.41505.17408-.81609.38454-1.22082.5809a3.1706,3.1706,0,0,0-.59966.27829.43894.43894,0,0,0-.13939.26424c-.00915.05356.05268.32474.036.34349-.15479.17429-.89016-.47469-1.01871-.5922a3.70232,3.70232,0,0,1-.75406-.95218,2.78318,2.78318,0,0,1-.19184-2.343c.2224-.57454,1.3734-1.45942,1.57685-2.05049A4.64936,4.64936,0,0,1,151.8,5.38484a5.71981,5.71981,0,0,1,4.92026,1.8882,6.11871,6.11871,0,0,1,1.431,1.98473,3.91455,3.91455,0,0,1-.101,2.43885c-.09753.25618-.23456.49778-.307.76215a1.87359,1.87359,0,0,1-.158.49683.80394.80394,0,0,1-.521.33784C156.99987,13.30771,156.93382,13.321,156.86648,13.33308Z"/><path class="a605cee7-748a-4417-9f1a-434eff7366e2" d="M159.90105,21.61257q-.03414-.0648-.06765-.12933a6.38157,6.38157,0,0,0-1.44735-1.80787.60772.60772,0,0,0-.34964-.20523c.78887,1.10192,1.238,2.35212,1.92709,3.49839,1.9925,3.31445,4.5158,6.24713,6.34969,9.65784a.1478.1478,0,0,0,.06708.07471.14208.14208,0,0,0,.109-.01666,1.14167,1.14167,0,0,0,.3959-.307.19273.19273,0,0,0,.05448-.11433.20423.20423,0,0,0-.03764-.103c-.40326-.67657-.96347-1.29641-1.41775-1.94494-.71081-1.01475-1.42167-2.02959-2.11158-3.05874-.69639-1.03883-1.37117-2.092-2.03491-3.15193a15.3471,15.3471,0,0,1-1.9426-3.87629,2.66123,2.66123,0,0,0-.30515-.6799,2.00059,2.00059,0,0,0,.04689,1.21227,4.95873,4.95873,0,0,0-.97541-1.07165"/><path class="f39d6a60-a0ac-4069-a771-7cbc7f585a12" d="M161.42105,24.34948A11.66756,11.66756,0,0,0,162.99984,23.28a6.16015,6.16015,0,0,0,1.10067-.86374,10.03442,10.03442,0,0,0-.6105,1.0266,12.06533,12.06533,0,0,1-.82393,1.18487,10.67183,10.67183,0,0,1-2.063,1.76771,1.06443,1.06443,0,0,1-.34.18342c-.34059.08725-.66591-.16808-.91966-.41144-.21477-.206-.40687-.44463-.63269-.63725-.22559-.19241-.47556-.36464-.71015-.54692a.60509.60509,0,0,1-.12322-.11576,3.94733,3.94733,0,0,0,1.99854.07806,13.71171,13.71171,0,0,0,1.513-.57977Z"/><path class="bb9bfaa9-e2c9-41d7-8534-1936db076fbb" d="M156.14742,26.04813c-.226-.82653-.93875-1.146-1.592-1.7708-.51812-.49558-1.17377-.87761-.911.1542-.003-.01181-.69618-.24693-.7866-.29962-.27864-.16239-.50457-.41281-.844-.43887a.90932.90932,0,0,0-.858.4922,1.24709,1.24709,0,0,0,.20912,1.45389c.63016.62255,4.2432,2.86921,4.79884,1.36909a1.11188,1.11188,0,0,0,.05639-.39683A2.19816,2.19816,0,0,0,156.14742,26.04813Z"/><path class="a605cee7-748a-4417-9f1a-434eff7366e2" d="M161.89024,18.23093a13.4124,13.4124,0,0,1-.2804-3.30609c.10308-.95342.68388-1.99813,1.76935-1.52269a3.26322,3.26322,0,0,1,1.48949,2.138,13.8231,13.8231,0,0,1,.80553,3.12491,25.09212,25.09212,0,0,1,.11971,3.31047c-.06223,1.2829-.1717,2.56345-.34017,3.83377-.31465,2.37254-4.3824,2.06578-6.20324,2.05791-1.31767-.00569-2.63631-.34608-3.947-.2429a7.24067,7.24067,0,0,1-.21319-2.03947.55281.55281,0,0,1,.16891-.46255.67686.67686,0,0,1,.32191-.08827c.61922-.06345,6.93688-.26743,6.9467-.7919A35.59324,35.59324,0,0,0,161.89024,18.23093Z"/><path class="a605cee7-748a-4417-9f1a-434eff7366e2" d="M165.43632,32.68942a37.67681,37.67681,0,0,0,.375,4.70843,14.06849,14.06849,0,0,1-1.10326-4.80411.70327.70327,0,0,1,.01207-.30674.43152.43152,0,0,1,.62134-.1774.657.657,0,0,1,.25389.65428"/><path class="af06d746-92b9-48f1-a2a1-aef8b1600f50" d="M169.02433,30.77111q-.28486.21117-.58088.40668c-1.49186.98524-2.98127.95887-4.5834,1.62895a.35554.35554,0,0,1-.20752.042.33188.33188,0,0,1-.17365-.13692,5.1064,5.1064,0,0,1-.84579-1.6657c-.06781-.22439,2.22562-.44053,2.41862-.45532a3.26178,3.26178,0,0,0,2.01851-.62423c1.26372-.8919,3.02817-2.23973,3.62976-3.711-.05132.12551,1.08238.67132,1.16456.80429.31974.51739.07.71182-.27152,1.194A11.63705,11.63705,0,0,1,169.02433,30.77111Z"/><path class="b9d3a87c-a3fd-4a23-8ba5-6f30e88018f9" d="M161.2286,35.88528c.51911-1.26225,1.44447.511,1.49985,1.13788.2155,2.43921.31072,4.94142.38492,7.39749.09445,3.12652.27423,6.34769-.64352,9.38111a2.67876,2.67876,0,0,1-1.957,1.61148,5.46527,5.46527,0,0,1-1.76341.59091c-.19444.2307-.19975.345-.49789.29873l.44981-1.23707c1.14155-3.13955.38856-6.54676.60161-9.8806.06016-.94147.12038-1.88355.23388-2.82009A24.957,24.957,0,0,1,161.2286,35.88528Z"/></g></g></svg>