<svg id="f746909b-b8ff-4b4c-bd94-5ef826a97c3d" data-name="Layer 1" xmlns="http://www.w3.org/2000/svg" xmlns:xlink="http://www.w3.org/1999/xlink" viewBox="0 0 61.86572 61.86548"><defs><style>.abd8f1b3-223d-4779-922c-71e93acb0c78{fill:none;}.a4dd7224-1ae6-408f-8a5b-f281f87e128a{clip-path:url(#b43a7a61-1df8-4f79-8804-0f021991ef19);}.f24c909f-8e7a-431f-afbe-8c2211ed9a37{fill:#eeb95b;}.bd24dc90-8145-416f-953e-8748a3ac6096{fill:#231f20;}</style><clipPath id="b43a7a61-1df8-4f79-8804-0f021991ef19"><rect class="abd8f1b3-223d-4779-922c-71e93acb0c78" x="120.95612" y="-9.88923" width="107.15955" height="81.56813"/></clipPath></defs><title>Artboard 194</title><path class="f24c909f-8e7a-431f-afbe-8c2211ed9a37" d="M30.93258,60.616A29.68311,29.68311,0,1,1,60.61519,30.93237,29.7169,29.7169,0,0,1,30.93258,60.616Z"/><path class="bd24dc90-8145-416f-953e-8748a3ac6096" d="M30.93258,2.5A28.43274,28.43274,0,1,1,2.5,30.93285,28.433,28.433,0,0,1,30.93258,2.5m0-2.5a30.93274,30.93274,0,1,0,30.9331,30.93286A30.9679,30.9679,0,0,0,30.93258,0Z"/><circle class="bd24dc90-8145-416f-953e-8748a3ac6096" cx="30.93269" cy="30.93279" r="4.5"/><path class="bd24dc90-8145-416f-953e-8748a3ac6096" d="M17.52619,53.36151a26.11985,26.11985,0,0,0,26.40918.23242l-9.22461-17.563a6.31772,6.31772,0,0,1-7.55615,0Z"/><path class="bd24dc90-8145-416f-953e-8748a3ac6096" d="M56.83534,28.54613A26.11984,26.11984,0,0,0,41.51185,7.03591l-8.7961,17.78147a6.31773,6.31773,0,0,1,4.43816,6.11541Z"/><path class="bd24dc90-8145-416f-953e-8748a3ac6096" d="M4.89643,28.54613A26.11982,26.11982,0,0,1,20.21993,7.03591L29.016,24.81738a6.31774,6.31774,0,0,0-4.43815,6.11541Z"/></svg>