<svg xmlns="http://www.w3.org/2000/svg" xmlns:xlink="http://www.w3.org/1999/xlink" viewBox="0 0 116.41886 43.03204"><defs><style>.ad8a7887-8785-438c-9f13-24fe6ff3fdde,.b6317a85-fafe-4eaf-8fbb-8a0c7cf1a6fc,.e659484e-5ada-41cd-bab1-b472c499999c{fill:none;}.a87ec1f9-a3f6-4b22-aade-7e3d2a5f0fd4{isolation:isolate;}.e659484e-5ada-41cd-bab1-b472c499999c{stroke:#bcbec0;}.b6317a85-fafe-4eaf-8fbb-8a0c7cf1a6fc,.e659484e-5ada-41cd-bab1-b472c499999c{stroke-miterlimit:10;}.a47f6028-8526-425f-ad44-8d43c9ed354c,.a874ad00-d8b0-42bb-af19-f56f67ee996d{fill:#a7a9ac;}.a874ad00-d8b0-42bb-af19-f56f67ee996d{opacity:0.33;mix-blend-mode:multiply;}.b784dfdd-395d-4cf7-8eed-f1cc46e4f0ed{clip-path:url(#a1a245d3-d68b-44ed-802a-4cfb2b4aa7da);}.ee7bf853-701e-42df-9650-f208ea7546a8{fill:#ef5b5b;}.a0a27929-b66f-499d-b60e-b94f591cce47{fill:#ee978f;}.e181cfb7-7d5e-4455-acf5-8537dcf48edf{fill:#af2027;}.b4f73631-8449-472b-9c5f-d7fcb865e85f{clip-path:url(#fd001e6e-b0c7-408c-a122-ba6cc096260c);}.f0212d07-ae99-4878-ad23-8021367930a7{fill:#e6e7e8;}.b6317a85-fafe-4eaf-8fbb-8a0c7cf1a6fc{stroke:#af2027;stroke-width:1.27631px;}.e1dc727d-89e0-48ec-bdb9-33991848ece0{fill:#0f2849;}.bc8d7758-8ba5-4317-bc57-b7febaaa8160{fill:#dd4747;}</style><clipPath id="a1a245d3-d68b-44ed-802a-4cfb2b4aa7da"><path class="ad8a7887-8785-438c-9f13-24fe6ff3fdde" d="M22.68976,9.2395l-.05114.01512c-2.9935.88086-3.18128,1.23005-6.26565,1.61348-2.08393.25906-3.48063-.39579-3.92339,2.45092-.05615.361-.04287,4.4535-.02365,4.43575-2.35922,2.17864-2.1793,5.78615-1.62193,8.96122.30141,1.71695.24278,4.17307,1.60339,4.5933,3.21559.99315,6.80161.98639,10.11122.937,1.07678-.016-1.01638-.28-.02635.32773l.97008.94044h80.9434a11.07,11.07,0,0,0,5.97354-1.59787.60088.60088,0,0,0,.2091-.20726.83472.83472,0,0,0,.0679-.31486c.09787-1.16393.10232-3.95465.21577-5.11431a39.5449,39.5449,0,0,0,.04269-5.52771c-.02139-.50144-.01608-1.63842-.47556-1.92925-.019-.01205-.36839-.17205-.36839-.06318,0-.0085.413-2.83191.413-2.83469,0-.64778-3.22485-2.3814-4.24762-2.76962A26.2379,26.2379,0,0,0,101.97235,11.64c-1.72881-.36815-10.30409-1.52083-12.35214-1.52579-1.66552-.004-4.89519-.25287-4.89519-.25287a19.9959,19.9959,0,0,1-4.424-2.83216c-1.0828-.77744-2.22873-1.44607-3.3065-2.20418-.93768-.65957-1.92967-1.11551-2.89925-1.67107A21.70747,21.70747,0,0,0,69.05913.75256,23.46985,23.46985,0,0,0,63.8834.19144Q57.6573-.051,51.42636.01694a26.76445,26.76445,0,0,0-7.73342,1.47677C39.91615,2.80592,36.10757,3.982,32.34951,5.37445c-1.45436.53886-2.88071,1.17944-4.313,1.80072A48.59491,48.59491,0,0,1,22.68976,9.2395Z"/></clipPath><clipPath id="fd001e6e-b0c7-408c-a122-ba6cc096260c"><path class="ad8a7887-8785-438c-9f13-24fe6ff3fdde" d="M34.51749,7.29285c-.11043.03682-.21033.12066-.3189.165-.74568.32025-1.54544.54663-2.26645.93576a7.09244,7.09244,0,0,1,.844.9609c.21.25461.31653.37642.637.38721.99237.03339,1.9862.07448,2.979.07448,7.02224,0,14.04361.01814,21.06555.12028q.55983.00813,1.1196.01624c1.29717.01874,15.4277.253,15.42861.07a3.16558,3.16558,0,0,1,.38894-1.30859,3.72945,3.72945,0,0,1,1.25758-1.09229c-.65075-.51674-1.5263-1.16538-2.21331-1.60657-.59479-.382-1.21609-.70835-1.82232-1.06675a19.73626,19.73626,0,0,0-3.18713-1.304,8.67137,8.67137,0,0,0-2.16473-.51334c-4.72969-.54961-9.577-.21152-14.33065-.21152-.99111,0-4.396.16792-5.07912.25762a33.50909,33.50909,0,0,0-6.984,2.11494c-.9051.33327-1.80461.68852-2.70624,1.03542C36.29391,6.66275,35.37075,6.902,34.51749,7.29285Z"/></clipPath></defs><title>Artboard 110</title><g class="a87ec1f9-a3f6-4b22-aade-7e3d2a5f0fd4"><g id="ae4fb8fe-74d4-4a82-b517-78e8978496a2" data-name="Layer 1"><polyline class="e659484e-5ada-41cd-bab1-b472c499999c" points="-310.716 -60.085 -310.716 -285.428 -76.957 -281.912 -76.957 211.578 -310.716 208.062 -310.716 -60.085"/><ellipse class="a874ad00-d8b0-42bb-af19-f56f67ee996d" cx="58.20943" cy="39.09202" rx="58.20943" ry="3.94002"/><g class="b784dfdd-395d-4cf7-8eed-f1cc46e4f0ed"><path class="ee7bf853-701e-42df-9650-f208ea7546a8" d="M22.68976,9.2395l-.05114.01512c-2.9935.88086-3.18128,1.23005-6.26565,1.61348-2.08393.25906-3.48063-.39579-3.92339,2.45092-.05615.361-.04287,4.4535-.02365,4.43575-2.35922,2.17864-2.1793,5.78615-1.62193,8.96122.30141,1.71695.24278,4.17307,1.60339,4.5933,3.21559.99315,6.80161.98639,10.11122.937,1.07678-.016-1.01638-.28-.02635.32773l.97008.94044h80.9434a11.07,11.07,0,0,0,5.97354-1.59787.60088.60088,0,0,0,.2091-.20726.83472.83472,0,0,0,.0679-.31486c.09787-1.16393.10232-3.95465.21577-5.11431a39.5449,39.5449,0,0,0,.04269-5.52771c-.02139-.50144-.01608-1.63842-.47556-1.92925-.019-.01205-.36839-.17205-.36839-.06318,0-.0085.413-2.83191.413-2.83469,0-.64779-3.22492-2.38144-4.24766-2.76963-1.95828-.74329-4.18235-1.9072-6.22714-2.0598-1.26639-.0945-2.56255.00035-3.83163.00035-2.04805,0-4.50912-.97709-6.55717-.982-1.66552-.004-3.26932.34533-4.89519-.25287a19.9959,19.9959,0,0,1-4.424-2.83216c-1.0828-.77744-2.22873-1.44607-3.3065-2.20418-.93768-.65957-1.92967-1.11551-2.89925-1.67107A21.70747,21.70747,0,0,0,69.05913.75256,23.46985,23.46985,0,0,0,63.8834.19144Q57.6573-.051,51.42636.01694a26.76445,26.76445,0,0,0-7.73342,1.47677C39.91615,2.80592,36.10757,3.982,32.34951,5.37445c-1.45436.53886-2.88071,1.17944-4.313,1.80072A48.59491,48.59491,0,0,1,22.68976,9.2395Z"/><path class="ee7bf853-701e-42df-9650-f208ea7546a8" d="M9.08461,30.5254a5.63648,5.63648,0,0,1-.02443-3.94609c.223-.57582.6303-.94294.88235-1.48.26754-.57008.36524-1.27063.58623-1.86956a5.3416,5.3416,0,0,1,4.437-3.23824c1.958-.28233,3.92229.20026,5.88176.20026H84.966c1.84641,0,3.59871-.13232,5.471.01,2.55313.19405,5.1782.44289,7.48057,1.92711,2.167,1.39692,3.48073,3.73933,4.66808,6.3135,1.06334,2.30531,2.55307,4.75168,4.97514,4.65691,1.94709-.07621,4.25551-1.74111,5.58589-.00272a3.68893,3.68893,0,0,1,.62309,1.75862c.4224,3.27483-1.42143,6.38554-3.5841,8.38836-3.5361,3.27474-8.01511,4.64377-12.42055,5.29292-7.807,1.15037-15.70432.28229-23.555-.2679-10.97247-.769-21.98686-.91548-32.90089-2.49659S22.90206,41.11435,13.18608,34.83881A9.59762,9.59762,0,0,1,9.08461,30.5254Z"/><path class="a0a27929-b66f-499d-b60e-b94f591cce47" d="M107.27608,18.95034a10.47746,10.47746,0,0,1-6.45289-1.849c-.95678-.64854-1.43328-.48738-2.44861-.98568a10.19031,10.19031,0,0,0-2.8899-.79331c-3.55688-.58619-7.55316-1.76679-11.13945-1.9404H23.9583c-1.80947,0-3.48087.49157-5.24749.01337-1.98375-.37864-3.92571-1.14812-5.88607-1.629a.06317.06317,0,0,1-.0523-.03828.08774.08774,0,0,1,.00455-.04856.78186.78186,0,0,1,.26845-.39891c.13875-.10377.305-.14049.44637-.23888.06729-.04685.12781-.10692.194-.15609a1.54438,1.54438,0,0,1,.3908-.19144,32.05236,32.05236,0,0,1,6.23864-1.54746c3.59811-.58143,3.855-.93088,7.29956-2.426,3.21511-1.39552,6.08915-3.7326,9.12188-5.64254,14.81311-9.329,33.10583-7.91261,48.34929.31709,4.33967,2.34291,8.979,6.20114,13.64774,7.23332,2.784.6155,5.6585.55131,8.40663,1.37289a7.63563,7.63563,0,0,1,4.67981,3.4288c.66934,1.19636.50323,1.831.18364,3.23388C111.41651,19.24119,108.92927,18.85782,107.27608,18.95034Z"/><path class="e181cfb7-7d5e-4455-acf5-8537dcf48edf" d="M103.23734,15.293l-.00276-.03411a7.62572,7.62572,0,0,1,1.80811-.03009,25.02632,25.02632,0,0,1,2.89659.05573c.76444.10987,1.965.07725,2.00419,1.47271.01845.6571-.28622.64625-.425,1.27823-.13229.60232-.77095.21358-1.06375-.06865a11.5424,11.5424,0,0,0-.99412-1.05251c-.62156-.45428-1.36541-.31038-2.06027-.42179-.55538-.08906-.6845.61676-1.163.20764A2.68567,2.68567,0,0,1,103.23734,15.293Z"/><path class="e181cfb7-7d5e-4455-acf5-8537dcf48edf" d="M80.77655,11.44231H81.9562c.306,0,.92883-.14281,1.18982.041-.82721-.07351-1.6357-.02408-2.46575-.02971l-3.53133-.03224-4.76372-.04349-5.63792-.05148-6.154-.05618-6.31187-.05762-6.1116-.0558-5.55318-.0507-4.63659-.04233L34.61823,11.033l-1.72894-.01579c-.05145-.00046-.10292-.0014-.15438-.0014h-.40574a6.22508,6.22508,0,0,0-.497-.86628,2.42784,2.42784,0,0,0-.88952-.54165,3.71267,3.71267,0,0,0-1.37144-.14442c-1.06814,0-2.09733.08062-3.1513.15553,2.04891-.88555,4.02546-1.82351,6.08549-2.62846,1.81241-.70819,3.67377-1.53739,5.50931-2.1187,2.65039-.83936,5.21555-1.94258,7.92264-2.52559a34.06927,34.06927,0,0,1,6.86418-.624c2.38835-.02354,4.77694-.05345,7.1653-.01466,1.78611.029,3.57182.08423,5.35759.13438a13.03933,13.03933,0,0,1,4.95442,1.21745L70.04633,2.951A28.77638,28.77638,0,0,1,73.425,4.7353l2.12251,1.28794c1.36929.83088,2.73939,1.6628,4.06956,2.58487.67132.46535,1.33235.95341,1.97559,1.47482A9.454,9.454,0,0,1,83.08,11.393"/><path class="a47f6028-8526-425f-ad44-8d43c9ed354c" d="M34.51749,7.29285c-.11043.03682-.21033.12066-.3189.165-.74568.32025-1.54544.54663-2.26645.93576a7.09244,7.09244,0,0,1,.844.9609c.21.25461.31653.37642.637.38721.99237.03339,1.9862.07448,2.979.07448,7.02224,0,14.04361.01814,21.06555.12028q.55983.00813,1.1196.01624c1.29717.01874,15.4277.253,15.42861.07a3.16558,3.16558,0,0,1,.38894-1.30859,3.72945,3.72945,0,0,1,1.25758-1.09229c-.65075-.51674-1.5263-1.16538-2.21331-1.60657-.59479-.382-1.21609-.70835-1.82232-1.06675a19.73626,19.73626,0,0,0-3.18713-1.304,8.67137,8.67137,0,0,0-2.16473-.51334c-4.72969-.54961-9.577-.21152-14.33065-.21152-.62121,0-4.02757.11956-5.07912.25762a33.50909,33.50909,0,0,0-6.984,2.11494c-.9051.33327-1.80461.68852-2.70624,1.03542C36.29391,6.66275,35.37075,6.902,34.51749,7.29285Z"/><path class="e181cfb7-7d5e-4455-acf5-8537dcf48edf" d="M105.20928,29.6007a3.76988,3.76988,0,0,1,1.80812-2.14911,14.78741,14.78741,0,0,1,3.07363-.2423c.37671.20275.25065,1.00163.22131,1.38386-.0595.7752-.147,1.54731-.20949,2.3215-.06373.789-4.06445,1.738-4.5678,1.31026A2.27269,2.27269,0,0,1,105.20928,29.6007Z"/><path class="e181cfb7-7d5e-4455-acf5-8537dcf48edf" d="M12.3718,12.18311c.64421-.80671,3.20083-.16546,4.055.05335a14.87161,14.87161,0,0,1,3.8816,1.618A10.89808,10.89808,0,0,1,16.85884,16.416a21.89927,21.89927,0,0,1-2.26472,1.03809,5.36371,5.36371,0,0,1-1.95375.30205c-.27578-.00412-.42677.09309-.514-.27171-.0636-.26617-.01159-.56066-.072-.82819a3.73227,3.73227,0,0,1,.03519-1.32257,4.055,4.055,0,0,0-.01062-1.03356A3.88009,3.88009,0,0,1,12.3718,12.18311Z"/><path class="e181cfb7-7d5e-4455-acf5-8537dcf48edf" d="M27.79,23.86284a9.03066,9.03066,0,0,1,9.8838.59,10.16078,10.16078,0,0,1,3.47094,10.09294c-.02871.11833-8.37176.795-9.16261.84158-1.38176.08148-2.71045-.33566-4.04484-.33129-1.47965.00485-2.64867.73575-4.18713.21506a3.09153,3.09153,0,0,1-1.542-1.04809c-1.06292-1.45079.55156-4.508,1.29318-5.86275A11.44167,11.44167,0,0,1,27.79,23.86284Z"/><ellipse class="e181cfb7-7d5e-4455-acf5-8537dcf48edf" cx="93.42417" cy="33.41157" rx="9.51835" ry="10.40585"/><g class="b4f73631-8449-472b-9c5f-d7fcb865e85f"><path class="f0212d07-ae99-4878-ad23-8021367930a7" d="M77.19954,8.539c-2.85624.29839-13.75745-1.13568-14.56433-1.2511-.85615-.12247-21.9535-2.65877-22.30826-2.74718-1.01688-.25342-3.67483-4.12241-3.29346-5.309A3.38281,3.38281,0,0,1,39.221-2.73074a17.67573,17.67573,0,0,1,5.06723-1.02119A40.193,40.193,0,0,1,57.7379-2.52329,85.36892,85.36892,0,0,1,70.07128,2.16158L75.858,4.70636a2.45968,2.45968,0,0,1,.80776.49081c.72307.73752.53629,2.06485.69935,3.16742a.0952.0952,0,0,1-.04828.09933"/></g><line class="b6317a85-fafe-4eaf-8fbb-8a0c7cf1a6fc" x1="51.43416" y1="10.8076" x2="51.43416" y2="2.36598"/><path class="ee7bf853-701e-42df-9650-f208ea7546a8" d="M12.83873,14.58218c-.03426-.379-.01684-2.073.19516-2.12638a.19273.19273,0,0,1,.06453-.00151,6.969,6.969,0,0,1,2.13358.42578c.26744.11286-.11809.47944-.2026.56521a3.79663,3.79663,0,0,1-.897.64094A4.72154,4.72154,0,0,1,12.83873,14.58218Z"/></g><circle class="e1dc727d-89e0-48ec-bdb9-33991848ece0" cx="92.85219" cy="32.2713" r="8.30728"/><circle class="a47f6028-8526-425f-ad44-8d43c9ed354c" cx="92.85219" cy="32.2713" r="5.79926"/><path class="f0212d07-ae99-4878-ad23-8021367930a7" d="M94.99149,27.65061l-2.1393,4.62069L89.791,28.19092S91.61455,26.50245,94.99149,27.65061Z"/><path class="f0212d07-ae99-4878-ad23-8021367930a7" d="M90.70277,36.95807l2.1393-4.62069,3.06119,4.08038S94.07971,38.10623,90.70277,36.95807Z"/><path class="f0212d07-ae99-4878-ad23-8021367930a7" d="M88.1872,30.15379l4.6207,2.13929-4.08039,3.0612S87.039,33.53073,88.1872,30.15379Z"/><path class="f0212d07-ae99-4878-ad23-8021367930a7" d="M97.47289,34.44249l-4.6207-2.1393L96.93258,29.242S98.62105,31.06555,97.47289,34.44249Z"/><circle class="e1dc727d-89e0-48ec-bdb9-33991848ece0" cx="31.46108" cy="32.2713" r="8.30728"/><circle class="a47f6028-8526-425f-ad44-8d43c9ed354c" cx="31.46108" cy="32.2713" r="5.79926"/><path class="f0212d07-ae99-4878-ad23-8021367930a7" d="M33.60038,27.65061l-2.1393,4.62069-3.06119-4.08038S30.22344,26.50245,33.60038,27.65061Z"/><path class="f0212d07-ae99-4878-ad23-8021367930a7" d="M29.31166,36.95807l2.1393-4.62069,3.06119,4.08038S32.6886,38.10623,29.31166,36.95807Z"/><path class="f0212d07-ae99-4878-ad23-8021367930a7" d="M26.79609,30.15379l4.6207,2.13929-4.08039,3.0612S25.64793,33.53073,26.79609,30.15379Z"/><path class="f0212d07-ae99-4878-ad23-8021367930a7" d="M36.08178,34.44249l-4.6207-2.1393L35.54147,29.242S37.22994,31.06555,36.08178,34.44249Z"/><path class="bc8d7758-8ba5-4317-bc57-b7febaaa8160" d="M52.82351,15.08333h27.5s1.08334,8.05043-7.04166,15.75H52.07351S53.99018,20.1514,52.82351,15.08333Z"/><path class="bc8d7758-8ba5-4317-bc57-b7febaaa8160" d="M77.09015,11.94371a5.89989,5.89989,0,0,1,3.6116,1.00731c.75873.42443,1.77956,1.08976,2.31073-.20806a1.59448,1.59448,0,0,0-.33657-1.56662A9.85885,9.85885,0,0,0,79.03944,8.8487a2.974,2.974,0,0,0-1.58117-.245,2.29971,2.29971,0,0,0-1.518,2.71906,1.00457,1.00457,0,0,0,.18879.42831C76.36539,12.02763,76.75435,11.9787,77.09015,11.94371Z"/><path class="bc8d7758-8ba5-4317-bc57-b7febaaa8160" d="M25.48415,10.83806a6.19426,6.19426,0,0,1,2.93027-.3491,1.90319,1.90319,0,0,1,1.97538,1.68389c.32711,1.67932-.70732,1.96374-2.14362,1.98128L25.6,14.18645a1.8439,1.8439,0,0,1-.74649-.094C23.23129,13.40472,24.44671,11.33905,25.48415,10.83806Z"/></g></g></svg>