<svg xmlns="http://www.w3.org/2000/svg" xmlns:xlink="http://www.w3.org/1999/xlink" viewBox="0 0 116.41886 42.51848"><defs><style>.aaa93b3c-c3f1-4b8a-949c-d7e4e26b9f9d,.b2503d78-03e1-40f8-b1f2-40ff82b8c07d,.e0b73674-b410-4b4c-b61a-b371a3a04179{fill:none;}.a15f5b51-42d2-4b8a-bab4-f5e696bbc847{isolation:isolate;}.b2503d78-03e1-40f8-b1f2-40ff82b8c07d{stroke:#bcbec0;}.b2503d78-03e1-40f8-b1f2-40ff82b8c07d,.e0b73674-b410-4b4c-b61a-b371a3a04179{stroke-miterlimit:10;}.e9b2d405-ed9d-49d6-9438-8ebd4d7e16a7{clip-path:url(#b11a64c0-2e18-41b4-93f2-32c0409b41c8);}.f44f6e2a-2722-41f2-aeaf-92f7377d9ef1{fill:#ef5b5b;}.a1724e32-d132-4561-a66a-3325c374aef0{fill:#ee978f;}.ae4ef5ce-a80f-49a8-810a-ba88b20451ec{fill:#af2027;}.a47ae165-f509-4862-b478-2da4385dc47b,.e6009eda-1a95-4f7f-8722-eaf50d06760f{fill:#a7a9ac;}.f2019c1e-8e68-41ef-9c54-89c5c4a98014{clip-path:url(#b4e83306-4b85-403f-8cb5-b60420913d22);}.bc6a3f39-d146-4e37-b5b8-e5a38961f8ac{fill:#e6e7e8;}.e0b73674-b410-4b4c-b61a-b371a3a04179{stroke:#af2027;stroke-width:1.27631px;}.b822ca84-807d-4604-861c-ad21230ecdb0{fill:#0f2849;}.b89a7035-81fb-4d42-b946-b1cf0ffe112e{fill:#dd4747;}.e6009eda-1a95-4f7f-8722-eaf50d06760f{opacity:0.33;mix-blend-mode:multiply;}</style><clipPath id="b11a64c0-2e18-41b4-93f2-32c0409b41c8"><path class="aaa93b3c-c3f1-4b8a-949c-d7e4e26b9f9d" d="M23.15436,9.23951l-.05114.01512c-2.9935.88086-3.18128,1.23005-6.26565,1.61348-2.08393.25906-3.48063-.39579-3.92339,2.45092-.05615.361-.04287,4.45349-.02365,4.43575-2.35922,2.17864-2.1793,5.78615-1.62192,8.96122.3014,1.717.24277,4.17307,1.60338,4.5933,3.2156.99315,6.80161.98639,10.11123.937,1.07678-.01606-1.01639-.28-.02636.32773l.97008.94043H85.51572q.921,0,1.81158.00112a25.2748,25.2748,0,0,1,2.55145-.28453c.86857-.0555,1.75353-.07636,2.64718-.07776q.66726.03777,1.34951.03923.682.00252,1.37478-.02722c3.89076-.76026,8.89076-.76026,9.89076-2.76026a4.64267,4.64267,0,0,0,.64734-.80981,4.76232,4.76232,0,0,0,.4471-.91989C105.141,23.40509,99.141,20.40509,99.4,15.69932c-.2094-.42425-.43841-.8419-.66124-1.26039s-.43673-.839-.64105-1.2618a7.43055,7.43055,0,0,0-1.21379-.69459A6.24228,6.24228,0,0,0,92.5481,12.205a6.25543,6.25543,0,0,1-1.24217-.49,5.70827,5.70827,0,0,1-1.19085-.84776,6.85857,6.85857,0,0,1-.95951-1.21289,3.36124,3.36124,0,0,0-.7287-.09543c-.95781-.04336-1.88909-.07115-2.73574-.11-.23885.00425-.47683.007-.7171.00534-.23873-.00013-.47976-.00471-.72285-.01513q-.2291-.121-.4535-.255c-1.04784-.62363-2.02773-1.43372-3.032-2.15479-1.0828-.77744-2.22873-1.44607-3.3065-2.20418-.93768-.65957-1.92967-1.11551-2.89925-1.67107A21.70759,21.70759,0,0,0,69.52374.75257,23.4688,23.4688,0,0,0,64.348.19145Q58.12191-.051,51.891.017a26.76445,26.76445,0,0,0-7.73342,1.47677C40.38075,2.80593,36.57217,3.982,32.81411,5.37445c-1.45436.53887-2.88071,1.17945-4.313,1.80073A48.59491,48.59491,0,0,1,23.15436,9.23951Z"/></clipPath><clipPath id="b4e83306-4b85-403f-8cb5-b60420913d22"><path class="aaa93b3c-c3f1-4b8a-949c-d7e4e26b9f9d" d="M34.98209,7.29286c-.11043.03682-.21033.12066-.3189.165-.74568.32025-1.54543.54663-2.26645.93576a7.09244,7.09244,0,0,1,.844.9609c.21.25461.31654.37642.637.38721.99237.03339,1.9862.07448,2.979.07448,7.02224,0,14.0436.01814,21.06554.12028q.55983.00813,1.1196.01624c1.29717.01874,15.4277.253,15.42862.07a3.16528,3.16528,0,0,1,.38894-1.30859A3.72949,3.72949,0,0,1,76.117,7.62182c-.65076-.51673-1.52631-1.16537-2.21331-1.60656-.5948-.382-1.21609-.70835-1.82233-1.06675a19.73626,19.73626,0,0,0-3.18713-1.304,8.67127,8.67127,0,0,0-2.16473-.51334c-4.72969-.54961-9.577-.21152-14.33065-.21152-.99111,0-4.396.16792-5.07912.25762a33.50909,33.50909,0,0,0-6.984,2.11494c-.9051.33327-1.80461.68852-2.70623,1.03542C36.75851,6.66276,35.83535,6.902,34.98209,7.29286Z"/></clipPath></defs><title>Artboard 103</title><g class="a15f5b51-42d2-4b8a-bab4-f5e696bbc847"><g id="b5436db1-2829-4829-8920-7535445f0b0c" data-name="Layer 1"><polyline class="b2503d78-03e1-40f8-b1f2-40ff82b8c07d" points="-310.716 63.289 -310.716 -162.054 -76.957 -158.538 -76.957 334.952 -310.716 331.435 -310.716 63.289"/><g class="e9b2d405-ed9d-49d6-9438-8ebd4d7e16a7"><path class="f44f6e2a-2722-41f2-aeaf-92f7377d9ef1" d="M23.15436,9.23951l-.05114.01512c-2.9935.88086-3.18128,1.23005-6.26565,1.61348-2.08393.25906-3.48063-.39579-3.92339,2.45092-.05615.361-.04287,4.45349-.02365,4.43575-2.35922,2.17864-2.1793,5.78615-1.62192,8.96122.3014,1.717.24277,4.17307,1.60338,4.5933,3.2156.99315,6.80161.98639,10.11123.937,1.07678-.01606-1.01639-.28-.02636.32773l.97008.94043H85.51572q.921,0,1.81158.00112a25.2748,25.2748,0,0,1,2.55145-.28453c.86857-.0555,1.75353-.07636,2.64718-.07776q.66726.03777,1.34951.03923.682.00252,1.37478-.02722c3.89076-.76026,6.89076-1.76026,10.89076-1.76026-.08333-.33333-.15972-.66667-.23206-.99942s-.14063-.66493-.20775-.996C105.141,24.40509,97.141,24.40509,99.141,18.40509c1-3,4-4,7.09341-3.99731.34421-.0021.65659-.00269.90659-.00269-.5,0-.99993.01244-1.50354.03376-1.49646-.03376-3.49646-.03376-4.84441-.09645-.4907.05963-.9645.11229-1.42038.12758a4.05613,4.05613,0,0,1-2.51184-.60009,11.38416,11.38416,0,0,1-1.39227-.54084,11.19649,11.19649,0,0,1-2.6878-1.7756c-.52791-.20534-1.07341-.42193-1.61608-.68748a12.0918,12.0918,0,0,1-1.6179-.9557,2.46178,2.46178,0,0,0-.47263-.34638,1.27979,1.27979,0,0,0-.49919-.156q-.33263-.03716-.66468-.05388a7.30929,7.30929,0,0,0-2.59617.29872,2.52893,2.52893,0,0,1-.53925-.04214,2.15271,2.15271,0,0,1-.52366-.17148q-.2291-.121-.4535-.255c-1.04784-.62363-2.02773-1.43372-3.032-2.15479-1.0828-.77744-2.22873-1.44607-3.3065-2.20418-.93768-.65957-1.92967-1.11551-2.89925-1.67107A21.70759,21.70759,0,0,0,69.52374.75257,23.4688,23.4688,0,0,0,64.348.19145Q58.12191-.051,51.891.017a26.76445,26.76445,0,0,0-7.73342,1.47677C40.38075,2.80593,36.57217,3.982,32.81411,5.37445c-1.45436.53887-2.88071,1.17945-4.313,1.80073A48.59491,48.59491,0,0,1,23.15436,9.23951Z"/><path class="f44f6e2a-2722-41f2-aeaf-92f7377d9ef1" d="M9.54921,30.52541a5.63654,5.63654,0,0,1-.02443-3.94609c.223-.57582.6303-.94294.88235-1.48.26755-.57009.36524-1.27063.58623-1.86956a5.34158,5.34158,0,0,1,4.437-3.23824c1.958-.28233,3.92228.20025,5.88175.20025H81.26339q.94709,0,1.89114.0016c2.81978.21171,6.81978-.78829,6.81978.21171q.375.675.78952,1.3281a6.47794,6.47794,0,0,0,1.80831,2.20021c3.56884,1.47169,7.56884,2.47169,10.78556,5.30273.29405.20938.5821.427.86681.65354a23.74036,23.74036,0,0,1,2.47926,2.28653,13.98683,13.98683,0,0,1,1.18553,1.08029c.36771.13545.7292.26483,1.08218.39276.706.25584,1.37783.50584,2.00283.75584,4,2,1,11-6.2086,12.46951-.70383.27758-1.42005.5187-2.14364.72884a33.007,33.007,0,0,1-4.39231.933c-7.807,1.15037-15.70432.28229-23.555-.2679-10.97247-.769-21.98686-.91548-32.90089-2.49659S23.36666,41.11436,13.65068,34.83882A9.59767,9.59767,0,0,1,9.54921,30.52541Z"/><path class="a1724e32-d132-4561-a66a-3325c374aef0" d="M95.7187,19.2834a2.14572,2.14572,0,0,0-.43642-2.66932,2.20141,2.20141,0,0,0-1.16477-.48616c-.3727-.12586-.74943-.22541-1.09609-.33271-.69334-.2146-1.26646-.46017-1.45947-.9952-.29452-.12642-.59789-.24878-.90888-.37076-.50681-.12922-1.02579-.23959-1.54745-.34225-1.04332-.20533-2.09732-.3798-3.086-.61244q-.30578-.03123-.60843-.05461-.30243-.02338-.60137-.038H24.4229c-1.80947,0-3.48087.49157-5.24749.01337-1.98374-.37864-3.92571-1.14812-5.88607-1.629a.06317.06317,0,0,1-.0523-.03828.08774.08774,0,0,1,.00455-.04856.78186.78186,0,0,1,.26845-.39891c.13875-.10377.305-.14049.44637-.23888.06729-.04685.12781-.10692.194-.15609a1.54454,1.54454,0,0,1,.3908-.19144,32.05228,32.05228,0,0,1,6.23865-1.54746c3.5981-.58143,3.855-.93088,7.29955-2.426,3.21511-1.39552,6.08915-3.7326,9.12188-5.64254,14.81311-9.329,33.10583-7.91261,48.34929.31709,1.3808.74547,2.79194,1.64435,4.22472,2.5568q.307.19552.61534.39147a14.20812,14.20812,0,0,0,3.1058-.16375,7.1399,7.1399,0,0,1,.8519-.04809,4.33633,4.33633,0,0,1,1.64083,1.64336c.23079.35282.45042.728.67138,1.10319a7.17247,7.17247,0,0,0,.37242,1.793c1.108,3.7338,6.108,2.7338,9.09878,2.73a2.72349,2.72349,0,0,1,1.34519.42568,1.89085,1.89085,0,0,1,.91406,1.26562,2.132,2.132,0,0,1-.24975,1.31246,4.96528,4.96528,0,0,1-.98483.76038c-4.01542,2.23966-8.01542.23966-11.27992,4.09424A.77361.77361,0,0,1,95.7187,19.2834Z"/><path class="ae4ef5ce-a80f-49a8-810a-ba88b20451ec" d="M97.92172,15.68049a1.38292,1.38292,0,0,0-1.18288.00892,1.09175,1.09175,0,0,0-.42986.56377c-.168,1.15191.832,2.15191-1.168,2.15191a20.41043,20.41043,0,0,0,2.38466-2.62231C97.64912,15.74549,97.78211,15.71156,97.92172,15.68049Z"/><path class="ae4ef5ce-a80f-49a8-810a-ba88b20451ec" d="M81.24115,11.44232H82.4208c.306,0,.92884-.14281,1.18982.041-.82721-.07351-1.6357-.02408-2.46574-.02971l-3.53134-.03224-4.76371-.04349-5.63793-.05148-6.154-.05618-6.31187-.05762-6.1116-.0558-5.55318-.0507-4.63659-.04233L35.08283,11.033l-1.72894-.01579c-.05145-.00047-.10292-.0014-.15438-.0014h-.40574a6.22508,6.22508,0,0,0-.497-.86628,2.42784,2.42784,0,0,0-.88952-.54165,3.71267,3.71267,0,0,0-1.37144-.14442c-1.06814,0-2.09732.08062-3.1513.15553,2.04891-.88556,4.02546-1.82351,6.08549-2.62846,1.81242-.70819,3.67377-1.53739,5.50931-2.1187,2.65039-.83937,5.21555-1.94258,7.92264-2.5256a34.07,34.07,0,0,1,6.86418-.624c2.38836-.02354,4.77694-.05345,7.1653-.01466,1.78611.029,3.57183.08423,5.35759.13438a13.0395,13.0395,0,0,1,4.95442,1.21744L70.51093,2.951a28.77638,28.77638,0,0,1,3.37871,1.78433l2.12251,1.28794c1.36929.83088,2.73939,1.6628,4.06956,2.58487.67132.46535,1.33235.95341,1.97559,1.47482A9.45354,9.45354,0,0,1,83.54459,11.393"/><path class="a47ae165-f509-4862-b478-2da4385dc47b" d="M34.98209,7.29286c-.11043.03682-.21033.12066-.3189.165-.74568.32025-1.54543.54663-2.26645.93576a7.09244,7.09244,0,0,1,.844.9609c.21.25461.31654.37642.637.38721.99237.03339,1.9862.07448,2.979.07448,7.02224,0,14.0436.01814,21.06554.12028q.55983.00813,1.1196.01624c1.29717.01874,15.4277.253,15.42862.07a3.16528,3.16528,0,0,1,.38894-1.30859A3.72949,3.72949,0,0,1,76.117,7.62182c-.65076-.51673-1.52631-1.16537-2.21331-1.60656-.5948-.382-1.21609-.70835-1.82233-1.06675a19.73626,19.73626,0,0,0-3.18713-1.304,8.67127,8.67127,0,0,0-2.16473-.51334c-4.72969-.54961-9.577-.21152-14.33064-.21152-.62122,0-4.02758.11956-5.07913.25762a33.50909,33.50909,0,0,0-6.984,2.11494c-.9051.33327-1.80461.68852-2.70623,1.03542C36.75851,6.66276,35.83535,6.902,34.98209,7.29286Z"/><path class="ae4ef5ce-a80f-49a8-810a-ba88b20451ec" d="M98.564,28.58092c.577-5.17583,4.577-6.17583,8.577-4.17583-1,1,2,2,.05726,3.26976a6.86387,6.86387,0,0,1-.91231,1.21595,8.87911,8.87911,0,0,1-4.14495,2.51429,1.27071,1.27071,0,0,1-1.0395-.58721,4.06452,4.06452,0,0,0-1.27779-1.11039A7.17344,7.17344,0,0,1,98.564,28.58092Z"/><path class="ae4ef5ce-a80f-49a8-810a-ba88b20451ec" d="M12.8364,12.18312c.64421-.80671,3.20084-.16546,4.055.05335A14.87169,14.87169,0,0,1,20.773,13.85442,10.898,10.898,0,0,1,17.32344,16.416a21.89927,21.89927,0,0,1-2.26472,1.03809,5.36368,5.36368,0,0,1-1.95375.302c-.27578-.00412-.42677.09309-.51395-.27171-.0636-.26617-.01159-.56066-.072-.82819a3.73227,3.73227,0,0,1,.0352-1.32257,4.0554,4.0554,0,0,0-.01063-1.03356A3.88028,3.88028,0,0,1,12.8364,12.18312Z"/><path class="ae4ef5ce-a80f-49a8-810a-ba88b20451ec" d="M28.25464,23.86285a9.03066,9.03066,0,0,1,9.8838.59,10.16078,10.16078,0,0,1,3.47093,10.09294c-.02871.11833-8.37176.795-9.16261.84158-1.38175.08148-2.71045-.33566-4.04484-.33129-1.47965.00484-2.64867.73575-4.18713.21506a3.09153,3.09153,0,0,1-1.542-1.04809c-1.06292-1.45079.55156-4.508,1.29318-5.86275A11.44163,11.44163,0,0,1,28.25464,23.86285Z"/><path class="ae4ef5ce-a80f-49a8-810a-ba88b20451ec" d="M84.37043,33.41158a11.43854,11.43854,0,0,1,.23679-2.32149c.36709-2.685,1.36709-6.685,4.36709-5.685q.5625.09375,1.12366.23384.56049.13982,1.1156.32437c.4879.07363.97781.16277,1.45727.27311a5.34474,5.34474,0,0,1,1.19334.22368c1.2768.945,3.2768.945,4.40139,2.90492a8.659,8.659,0,0,1,.60606,1.13673,25.47948,25.47948,0,0,1,1.33774,4.354c.16235.52234.33794,1.03679.53884,1.535q.12582.51492.2261,1.01439a6.00492,6.00492,0,0,1-4.20545,5.92748,8.77122,8.77122,0,0,1-2.88009.48486C88.63193,43.81743,84.37043,39.15857,84.37043,33.41158Z"/><g class="f2019c1e-8e68-41ef-9c54-89c5c4a98014"><path class="bc6a3f39-d146-4e37-b5b8-e5a38961f8ac" d="M77.66414,8.539c-2.85624.29839-13.75745-1.13568-14.56433-1.25111-.85614-.12246-21.9535-2.65876-22.30825-2.74717-1.01689-.25342-3.67484-4.12241-3.29347-5.309a3.38281,3.38281,0,0,1,2.18746-1.96251,17.67573,17.67573,0,0,1,5.06723-1.02119A40.193,40.193,0,0,1,58.2025-2.52328,85.3706,85.3706,0,0,1,70.53589,2.16158l5.7867,2.54479a2.45968,2.45968,0,0,1,.80776.49081c.72307.73752.53629,2.06485.69935,3.16741a.09519.09519,0,0,1-.04828.09934"/></g><line class="e0b73674-b410-4b4c-b61a-b371a3a04179" x1="51.89876" y1="10.80761" x2="51.89876" y2="2.36599"/><path class="f44f6e2a-2722-41f2-aeaf-92f7377d9ef1" d="M13.30333,14.58219c-.03426-.379-.01684-2.073.19516-2.12638a.19279.19279,0,0,1,.06454-.00151,6.96909,6.96909,0,0,1,2.13358.42578c.26743.11286-.1181.47944-.20261.56521a3.79663,3.79663,0,0,1-.897.64094A4.72154,4.72154,0,0,1,13.30333,14.58219Z"/></g><path class="b822ca84-807d-4604-861c-ad21230ecdb0" d="M85.00951,32.27131c-.0352-2.86622,2.9648-8.86622,4.9648-6.86622a14.10135,14.10135,0,0,0,1.7095,1.85852c.32905.31415.70519.65688,1.10838,1.02319.404.367.83509.7575,1.27831,1.17106,1.07048.94723,3.07048,2.94723,4.07179,3.772a4.44622,4.44622,0,0,1,.47576,1.37148,5.77041,5.77041,0,0,1,.01988,1.74242,3.26222,3.26222,0,0,1-.28354,1.38128,5.65139,5.65139,0,0,1-2.727,2.52589,8.31016,8.31016,0,0,1-10.32117-5.77118A8.316,8.316,0,0,1,85.00951,32.27131Z"/><path class="a47ae165-f509-4862-b478-2da4385dc47b" d="M87.50012,32.27774a5.87392,5.87392,0,0,0,.47419-2.87265,5.41484,5.41484,0,0,1,2.40668-.80554,4.63944,4.63944,0,0,1,1.12126.05522,5.0533,5.0533,0,0,1,1.05274.30341c.26433.24115.54016.46989.82115.6991s.56712.45891.85206.702A14.80231,14.80231,0,0,0,95.87326,32.08a8.21879,8.21879,0,0,1,.7157,1.17576,9.832,9.832,0,0,1,.59482,1.48684,7.48156,7.48156,0,0,1,.14336,1.2649,7.002,7.002,0,0,1-.35283,2.39761,12.39634,12.39634,0,0,1-3.65806-.33369A5.81113,5.81113,0,0,1,87.9726,34.529,5.98013,5.98013,0,0,1,87.50012,32.27774Z"/><path class="bc6a3f39-d146-4e37-b5b8-e5a38961f8ac" d="M91.98779,29.40281a3.7272,3.7272,0,0,1,.97559,2.99767,3.90925,3.90925,0,0,1-2.61407-2.12039,7.2916,7.2916,0,0,1-.375-2.875c1,0,2-1,1.61779,1.40111C91.713,28.98826,91.844,29.18745,91.98779,29.40281Z"/><path class="bc6a3f39-d146-4e37-b5b8-e5a38961f8ac" d="M91.16737,36.95808a3.49894,3.49894,0,0,1,.456-2.10892c.351-1.44407,1.351-1.44407,1.351-2.44407a13.80465,13.80465,0,0,0,3,4c0,1-2,1-2.57442.95547A7.08276,7.08276,0,0,1,91.16737,36.95808Z"/><path class="bc6a3f39-d146-4e37-b5b8-e5a38961f8ac" d="M88.47484,30.20061a5.4237,5.4237,0,0,0,2.437,1.05392c.06243,1.15056.06243,1.15056-.31257,1.77556-.375.875-.625,1.875-1.625,2.375a4.49516,4.49516,0,0,0-.75516-3.00248A7.993,7.993,0,0,1,88.47484,30.20061Z"/><path class="bc6a3f39-d146-4e37-b5b8-e5a38961f8ac" d="M96.74819,34.44526A5.10284,5.10284,0,0,1,95.41,34.23461a3.02908,3.02908,0,0,1-2.43566-2.82952,1.296,1.296,0,0,1,.899-.38425,5.05565,5.05565,0,0,1,1.65212.632c.61552-.24777.61552.75223.9532,2.1307A3.29167,3.29167,0,0,1,96.74819,34.44526Z"/><circle class="b822ca84-807d-4604-861c-ad21230ecdb0" cx="31.92568" cy="32.27131" r="8.30728"/><circle class="a47ae165-f509-4862-b478-2da4385dc47b" cx="31.92568" cy="32.27131" r="5.79926"/><path class="bc6a3f39-d146-4e37-b5b8-e5a38961f8ac" d="M34.065,27.65062l-2.1393,4.62069-3.06119-4.08038S30.688,26.50246,34.065,27.65062Z"/><path class="bc6a3f39-d146-4e37-b5b8-e5a38961f8ac" d="M29.77626,36.95808l2.1393-4.62069,3.06119,4.08038S33.15321,38.10624,29.77626,36.95808Z"/><path class="bc6a3f39-d146-4e37-b5b8-e5a38961f8ac" d="M27.26069,30.1538l4.6207,2.13929L27.801,35.35429S26.11253,33.53074,27.26069,30.1538Z"/><path class="bc6a3f39-d146-4e37-b5b8-e5a38961f8ac" d="M36.54638,34.4425l-4.6207-2.1393L36.00607,29.242S37.69454,31.06556,36.54638,34.4425Z"/><path class="b89a7035-81fb-4d42-b946-b1cf0ffe112e" d="M53.28811,15.08334h27.5s1.08334,8.05043-7.04166,15.75H52.53811S54.45478,20.15141,53.28811,15.08334Z"/><path class="b89a7035-81fb-4d42-b946-b1cf0ffe112e" d="M77.55475,11.94372a5.89989,5.89989,0,0,1,3.6116,1.00731c.75873.42443,1.77956,1.08976,2.31074-.20806a1.5945,1.5945,0,0,0-.33658-1.56662A9.85885,9.85885,0,0,0,79.504,8.84871a2.974,2.974,0,0,0-1.58117-.245,2.29971,2.29971,0,0,0-1.518,2.71906,1.00469,1.00469,0,0,0,.18879.42831C76.83,12.02763,77.219,11.97871,77.55475,11.94372Z"/><path class="b89a7035-81fb-4d42-b946-b1cf0ffe112e" d="M25.94875,10.83807A6.19428,6.19428,0,0,1,28.879,10.489a1.90319,1.90319,0,0,1,1.97538,1.68389c.32711,1.67932-.70732,1.96374-2.14362,1.98128l-2.6462.03232a1.8439,1.8439,0,0,1-.74649-.094C23.69589,13.40473,24.91132,11.33906,25.94875,10.83807Z"/><ellipse class="e6009eda-1a95-4f7f-8722-eaf50d06760f" cx="58.20943" cy="38.57846" rx="58.20943" ry="3.94002"/></g></g></svg>