<svg id="aa2ff192-facc-4ceb-86f8-2f3ad97203ae" data-name="Layer 1" xmlns="http://www.w3.org/2000/svg" xmlns:xlink="http://www.w3.org/1999/xlink" viewBox="0 0 97.20289 58.01965"><defs><style>.bb34d26c-1c9d-4ea5-b0f1-162295388cf2,.bbac98bc-ddd7-4f89-a99c-fe186c7267ab{fill:none;}.fe127dc5-ac8a-4f19-b930-3394dc903ba1{clip-path:url(#a5403956-d270-456e-99eb-a4ac3d32e681);}.f67cbf76-de5e-407d-9d57-cf58e757c1e5{fill:#c3d7dc;}.a3f81a7c-ebbb-443a-8966-59136ca455e6{clip-path:url(#b4d738c0-7d07-4b1c-a7fa-7bc0d69b229e);}.e74a4ae0-70a0-47bc-8730-d6034ef2413a{fill:#b0ceb2;}.bdb3722f-cf8a-4fa6-a6c1-a5a5278e4b34{clip-path:url(#bb81ec2b-fb10-4af1-932e-34ca20d75c8a);}.a50e30c1-d884-495d-bee7-a3a6f7b07d60{fill:#eaccca;}.fcb3a072-e310-423c-9871-31827ef4c75a{fill:#0f2849;}.ba0f9d51-846d-460a-afd1-163ea82e419e{fill:#a7a9ac;}.a5bd273f-2f3b-487b-a2bb-3d46411d3ef4{fill:#e6e7e8;}.afd70ba3-0478-4d64-bbab-2946558bae86{clip-path:url(#e8011299-2093-4b99-80d8-25053b20d696);}.ba292f06-5b67-48c7-8fd4-dbb13a5d6432{fill:#ef5b5b;}.b562d9c9-9095-490b-9d1d-e7e455e64343{fill:#ee978f;}.ff8c61aa-91ca-46e0-8d7a-96f567294e06{fill:#dd4747;}.bb774a1f-fa46-4a3f-9d31-2f0f0c6a06e2{fill:#af2027;}.a70f529f-683b-4585-8652-5d3d279d4975{clip-path:url(#bccebfd4-1e94-498c-bf0b-514f808bf8b2);}.bc85df4b-52e1-457e-acd6-aec5f0e43ee6{fill:#d1d3d4;}.f6970bd8-8753-458e-a5bc-7b0d6dff9eb9{clip-path:url(#b35d9e48-fc44-4fb9-88ec-a515823a2409);}.ae126f66-c677-4127-a5cc-f4fa4777aa60{fill:#939598;}.a70b7efd-270f-4e76-8302-cd105ada0f9f{fill:#bcbec0;}.bb34d26c-1c9d-4ea5-b0f1-162295388cf2{stroke:#af2027;stroke-miterlimit:10;stroke-width:1.17463px;}</style><clipPath id="a5403956-d270-456e-99eb-a4ac3d32e681"><rect class="bbac98bc-ddd7-4f89-a99c-fe186c7267ab" x="-97.74934" y="214.65193" width="235.49085" height="29.6666"/></clipPath><clipPath id="b4d738c0-7d07-4b1c-a7fa-7bc0d69b229e"><rect class="bbac98bc-ddd7-4f89-a99c-fe186c7267ab" x="-96.75171" y="516.2021" width="235.49574" height="29.86544"/></clipPath><clipPath id="bb81ec2b-fb10-4af1-932e-34ca20d75c8a"><rect class="bbac98bc-ddd7-4f89-a99c-fe186c7267ab" x="-96.33411" y="728.68638" width="235.49571" height="30.07832"/></clipPath><clipPath id="e8011299-2093-4b99-80d8-25053b20d696"><path class="bbac98bc-ddd7-4f89-a99c-fe186c7267ab" d="M23.6802,2.71861c-4.56574,1.82971-8.59656,1.73154-10.77534,5.4898-1.17935,2.0343-1.83506,4.88092-3.55751,6.54393a33.87022,33.87022,0,0,0-7.24791,9.33754,28.1689,28.1689,0,0,0-1.458,3.50459,6.71723,6.71723,0,0,0-.3409,1.96543L.0229,38.641a14.78784,14.78784,0,0,0,.09372,2.82084c.711,4.38305,4.10581,5.08791,7.72324,5.86122a159.10011,159.10011,0,0,0,19.42761,2.61646c4.67573.40936,9.26894,1.43313,13.93432,1.92223,3.15121.33036,9.614,1.23126,11.64891-1.97148.86164-1.35613.82987-2.93937,1.07841-4.46442a20.96921,20.96921,0,0,1,1.33319-4.86452,6.45151,6.45151,0,0,1,.50145-.97779c.13845-.21311.29663-.41258.45454-.61169.85163-1.07385,1.58119-2.07357,3.15053-1.5977.93079.28224,1.859,2.32612,2.22315,3.13317a10.44578,10.44578,0,0,1,.92,3.82577c.02023.46127.20032.85043.04822,1.23956,5.46986-2.687,11.01228-5.242,16.51082-7.873,2.955-1.41393,5.97413-2.74756,8.86572-4.28946a1.22592,1.22592,0,0,0,.81466-1.45905c-.11137-2.62509-.0842-7.42678,3.37114-8.20422,2.63788-.53831,3.02422,3.10656,4.288,4.546,1.612-1.05094-.50063-15.2459-4.47273-16.95179-3.291-1.41336-9.18954-2.53648-10.01663-3.18264-2.96918-2.31963-8.3965-5.2409-11.21162-7.105-1.11153-.736-3.17741.04283-4.50986,0L34.86836.04647C30.71332-.28164,27.51068,1.18356,23.6802,2.71861Z"/></clipPath><clipPath id="bccebfd4-1e94-498c-bf0b-514f808bf8b2"><path class="bbac98bc-ddd7-4f89-a99c-fe186c7267ab" d="M39.537,21.05078c-9.15435-.2812-25.37129-2.62722-29.36767-4.7217-.65811-.34491-1.8918-.99-1.84958-1.82592.02295-.45438.42157-.59646.62729-1.02555C9.54,12.24087,10.02934,10.95193,10.604,9.70592c.9592-2.0798,2.40372-5.56255,4.81876-4.92715,3.09951.81548,8.28747,2.088,29.61077,3.8061.90791.07316,5.92355-.28523,5.9764,1.21855a1.56811,1.56811,0,0,1-.08666.48872c-.74793,2.56725-1.13375,5.17743-2.18552,7.63852C47.986,19.68983,42.226,21.13338,39.537,21.05078Z"/></clipPath><clipPath id="b35d9e48-fc44-4fb9-88ec-a515823a2409"><path class="bbac98bc-ddd7-4f89-a99c-fe186c7267ab" d="M84.30163,8.23717c-4.149,1.814-7.13972,2.8867-11.25688,4.79641-3.015,1.39846-6.35165,2.86352-9.49494,4.01333a21.76641,21.76641,0,0,1-5.09007,1.46829c-1.40246.04655-3.47635-.82994-4.0287-2.03263-.31426-.6843,1.27554-6.50529,1.58155-7.65808,0,0,1.84474-1.06969,3.71237-1.95011q5.76693-2.71862,11.53386-5.43723c.753-.355,1.48353-.91316,2.30735-.711a8.62087,8.62087,0,0,1,2.13414,1.43813,39.47549,39.47549,0,0,1,4.26123,3.485C80.85812,6.49216,82.71213,8.92166,84.30163,8.23717Z"/></clipPath></defs><title>Artboard 120</title><g class="fe127dc5-ac8a-4f19-b930-3394dc903ba1"><polygon class="f67cbf76-de5e-407d-9d57-cf58e757c1e5" points="104.984 244.319 -97.754 244.319 -97.628 -58.77 -88.715 -65.317 -67.885 -83.658 137.29 -83.658 137.741 218.419 104.984 244.319"/></g><g class="a3f81a7c-ebbb-443a-8966-59136ca455e6"><polygon class="e74a4ae0-70a0-47bc-8730-d6034ef2413a" points="105.987 546.068 -96.752 546.068 -96.625 -156.443 -87.712 -162.989 -66.882 -181.33 138.293 -181.33 138.744 520.168 105.987 546.068"/></g><g class="bdb3722f-cf8a-4fa6-a6c1-a5a5278e4b34"><polygon class="a50e30c1-d884-495d-bee7-a3a6f7b07d60" points="106.404 758.765 -96.334 758.765 -96.208 -1948.781 -87.295 -1955.328 -66.464 -1973.669 138.71 -1973.669 139.162 732.865 106.404 758.765"/></g><ellipse class="fcb3a072-e310-423c-9871-31827ef4c75a" cx="9.48691" cy="43.93143" rx="10.77671" ry="7.69397" transform="translate(-35.03492 50.0778) rotate(-85.67437)"/><ellipse class="ba0f9d51-846d-460a-afd1-163ea82e419e" cx="9.48692" cy="43.93143" rx="7.52315" ry="5.37111" transform="translate(-35.03492 50.0778) rotate(-85.67437)"/><path class="a5bd273f-2f3b-487b-a2bb-3d46411d3ef4" d="M11.86527,38.06659,9.48692,43.93143l-2.4771-5.447S8.84223,36.39768,11.86527,38.06659Z"/><path class="a5bd273f-2f3b-487b-a2bb-3d46411d3ef4" d="M7.09347,49.88123,9.47183,44.0164l2.4771,5.44705S10.11652,51.55014,7.09347,49.88123Z"/><path class="a5bd273f-2f3b-487b-a2bb-3d46411d3ef4" d="M5.35684,40.93813l4.08723,3.01909L5.406,47.69847S4.00267,45.24681,5.35684,40.93813Z"/><path class="a5bd273f-2f3b-487b-a2bb-3d46411d3ef4" d="M13.57139,46.9918,9.48415,43.9727l4.03811-3.74125S14.92556,42.68312,13.57139,46.9918Z"/><g class="afd70ba3-0478-4d64-bbab-2946558bae86"><path class="ba292f06-5b67-48c7-8fd4-dbb13a5d6432" d="M24.59833.66678c-4.06041,1.85745-9.31013,3.431-11.69345,7.5416-1.17936,2.0343-1.83507,4.88094-3.55753,6.544a33.87022,33.87022,0,0,0-7.24791,9.33754A28.29812,28.29812,0,0,0,.57591,27.78849a7.86342,7.86342,0,0,0-.29036,2.26092L.0229,38.641a14.78784,14.78784,0,0,0,.09372,2.82084c.711,4.38305,4.10581,5.08791,7.72324,5.86122l33.36193,4.53869c3.15122.33036,9.614,1.23127,11.64893-1.97151,1.54376-2.42978.84657-7.28467,1.60884-10.07493.62582-2.29077,5.45536-2.77429,7.0685-1.43077,2.1828,1.818,1.30676,4.86421,1.03655,7.18235C66.087,45.11635,79.35339,38.327,82.79776,36.335c1.70732-.98751,3.38885-1.99157,5.139-2.9248a1.22593,1.22593,0,0,0,.81467-1.45906c-.11137-2.62509-.0842-7.42678,3.37114-8.20422,2.63788-.53831,3.02422,3.10656,4.288,4.546,1.612-1.05094,1.12628-3.71041.768-5.31927-.85084-3.821-1.26865-9.92663-5.24075-11.63252-3.291-1.41336-7.19132-.59548-10.01663-3.18264C78.10751,4.66618,74.17786.34328,69.04772-1.1531c-5.94313-1.73314-13.64409-.64676-19.80737-.91946C40.98829-2.43768,32.30037-2.85647,24.59833.66678Z"/><path class="b562d9c9-9095-490b-9d1d-e7e455e64343" d="M48.06611,24.81744q1.82824-.10344,3.6539-.28293c4.57272-.45391,9.47549-1.09118,13.6591-3.07634C69.6713,19.42148,74.1866,17.14727,78.663,15.235c4.67517-1.99718,8.50152-3.83938,13.43754-1.47609.9659.46246,5.21105,2.88395,5.04776-.20867a2.50005,2.50005,0,0,0-.22214-.79446A22.91039,22.91039,0,0,0,93.602,6.70721,24.6274,24.6274,0,0,0,86.29662,1.215c-12.68943-7.05757-26.94439-11.92619-41.46-11.569S15.55494-3.89081,6.78891,7.6845c-2.01816,2.66492-5.05466,8.1549-2.26607,11.28085,1.9,2.12921,5.21753,2.83255,7.89287,3.332,3.10519.5797,6.3093,1.26926,9.43444,1.53222C30.55384,24.56193,39.32964,25.31169,48.06611,24.81744Z"/><path class="ba0f9d51-846d-460a-afd1-163ea82e419e" d="M39.537,21.05078c-9.15435-.2812-25.37129-2.62722-29.36767-4.7217-.65811-.34491-1.8918-.99-1.84958-1.82592.02295-.45438.42157-.59646.62729-1.02555C9.54,12.24087,10.02934,10.95193,10.604,9.70592c.9592-2.0798,2.40372-5.56255,4.81876-4.92715,3.09951.81548,8.28747,2.088,29.61077,3.8061.90791.07316,5.92355-.28523,5.9764,1.21855a1.56811,1.56811,0,0,1-.08666.48872c-.74793,2.56725-1.13375,5.17743-2.18552,7.63852C47.986,19.68983,42.226,21.13338,39.537,21.05078Z"/><path class="ba0f9d51-846d-460a-afd1-163ea82e419e" d="M84.30163,8.23717c-4.149,1.814-7.13972,2.8867-11.25688,4.79641-3.015,1.39846-6.35165,2.86352-9.49494,4.01333a21.76641,21.76641,0,0,1-5.09007,1.46829c-1.40246.04655-3.47635-.82994-4.0287-2.03263-.31426-.6843,1.27554-6.50529,1.58155-7.65808,0,0,1.84474-1.06969,3.71237-1.95011q5.76693-2.71862,11.53386-5.43723c.753-.355,1.48353-.91316,2.30735-.711a8.62087,8.62087,0,0,1,2.13414,1.43813,39.47549,39.47549,0,0,1,4.26123,3.485C80.85812,6.49216,82.71213,8.92166,84.30163,8.23717Z"/><path class="ff8c61aa-91ca-46e0-8d7a-96f567294e06" d="M54.85519,36.22214a7.92224,7.92224,0,0,1,6.2901-.41974c1.138.43025,1.51479,1.34392,2.4465,1.91489,2.2094,1.354,22.276-8.72829,22.53792-10.25347a6.27122,6.27122,0,0,1,1.86725-2.924,6.3569,6.3569,0,0,1,5.89521-2.29619A4.77439,4.77439,0,0,1,96.566,23.70424c.97065,1.06842.94068,2.04516.98465,3.46a2.36631,2.36631,0,0,1-.07793.83806,2.01593,2.01593,0,0,1-.33408.57159c-.7789,1.00622-2.04353,1.63922-2.92453,2.59718A25.63119,25.63119,0,0,1,90.70628,34.473a42.53106,42.53106,0,0,1-3.80379,2.438q-7.80258,4.61988-15.60592,9.2398c-2.03878,1.20718-4.29245,2.45982-6.63522,2.10555-2.32135-.351-4.21177-2.22829-6.54383-2.49743a1.94428,1.94428,0,0,0-1.11077.13316c-.81024.41573-.87753,1.51484-.99377,2.41819-.48752,3.7872-3.68143,6.76622-7.22368,8.192S41.35,58.10873,37.545,58.42619c-5.57338.46491-11.14638,1.261-16.73314,1.00438-5.58638-.25652-11.30124-1.6632-15.68355-5.13743a15.95319,15.95319,0,0,1-5.4355-8.15831c-.94012-3.2682-1.475-7.69507-.29375-10.94a1.796,1.796,0,0,1,.4094-.718,2.01816,2.01816,0,0,1,1.80987-.19619c5.33235,1.12531,22.875,6.161,48.44747,5.46184a2.59066,2.59066,0,0,0,2.25483-.91808A29.37717,29.37717,0,0,1,54.85519,36.22214Z"/><path class="bb774a1f-fa46-4a3f-9d31-2f0f0c6a06e2" d="M74.15379,43.12838c4.51239-3.033,9.77759-4.8488,14.15075-8.07927a1.76183,1.76183,0,0,1-2.37927-.70372,4.41136,4.41136,0,0,1-.38824-2.712c.23509-2.54385.73175-5.16439,2.45993-7.09358a6.3569,6.3569,0,0,1,5.89521-2.29619A4.77439,4.77439,0,0,1,96.566,23.70424c.97065,1.06842.94068,2.04516.98465,3.46a2.36631,2.36631,0,0,1-.07793.83806,2.01593,2.01593,0,0,1-.33408.57159c-.7789,1.00622-2.04353,1.63922-2.92453,2.59718A25.63119,25.63119,0,0,1,90.70628,34.473a42.53106,42.53106,0,0,1-3.80379,2.438q-7.80258,4.61988-15.60592,9.2398c-2.03878,1.20718-4.29245,2.45982-6.63522,2.10555-2.32135-.351-4.21177-2.22829-6.54383-2.49743a1.94429,1.94429,0,0,0-1.11077.13316c-1.13544.58206-1.34536,8.48082-4.18512,6.18646a5.64535,5.64535,0,0,1-1.591-2.07041,9.81535,9.81535,0,0,1-.662-3.82286c-.07275-3.44836.89852-8.11524,4.28651-9.96315,4.31167-2.329,8.64627.124,11.19356,3.74949.9672,1.37657,1.32771,3.58093,2.6954,4.63922C70.49624,45.96658,72.62632,44.15506,74.15379,43.12838Z"/><path class="bb774a1f-fa46-4a3f-9d31-2f0f0c6a06e2" d="M93.3109,12.04338a1.71441,1.71441,0,0,0-2.16182.42359.60021.60021,0,0,0-.05737.53649.81689.81689,0,0,0,.24059.26454l2.96854,2.42519c.22011.17983.50651.37033.76618.25473a7.54208,7.54208,0,0,0-.32791-2.33935,3.30882,3.30882,0,0,0-1.42084-1.83462c-.05035-.0285-.12342-.05121-.158-.00481s.08781.08454.06428.03169"/><path class="ff8c61aa-91ca-46e0-8d7a-96f567294e06" d="M75.49736,21.38621a12.33856,12.33856,0,0,0-.73406-2.11975c-.16264-.524,10.5262-5.47717,10.6287-5.33013a7.67,7.67,0,0,1,1.08465,4.27549,32.42578,32.42578,0,0,1-.8507,6.6683l-.98638,4.963a6.02143,6.02143,0,0,1-.8367,2.38318,6.0185,6.0185,0,0,1-1.86653,1.51021l-6.29986,3.8269c.54645-.33195.48388-4.04045.525-4.71445q.14437-2.36589.05545-4.73832A32.69686,32.69686,0,0,0,75.49736,21.38621Z"/><path class="bb774a1f-fa46-4a3f-9d31-2f0f0c6a06e2" d="M35.7377,24.33712q7.28447-1.29921,14.60785-2.4321a1.60188,1.60188,0,0,1,1.29063.2401,18.4145,18.4145,0,0,0,2.79427,1.15126l-2.88128.51339L49.38844,26.6774a63.25425,63.25425,0,0,1-10.1545.73817,1.62815,1.62815,0,0,1-.59391-.062,1.3351,1.3351,0,0,1-.52835-.43329l-2.10211-2.46869a3.00486,3.00486,0,0,0,1.235-.59655"/><path class="ff8c61aa-91ca-46e0-8d7a-96f567294e06" d="M57.60311,22.2889c.98151-.36321,4.13694-2.03575,4.52927-.018a2.36453,2.36453,0,0,1-.05379.88495,2.40616,2.40616,0,0,1-.552,1.33552,2.32269,2.32269,0,0,1-.88935.46209q-1.033.353-2.08469.64755c-.48428.13563-1.0812.23321-1.424-.13481a1.22189,1.22189,0,0,1-.26325-.65647,4.43565,4.43565,0,0,1,.08973-1.81164,1.015,1.015,0,0,1,.24862-.49735A1.14177,1.14177,0,0,1,57.60311,22.2889Z"/><g class="a70f529f-683b-4585-8652-5d3d279d4975"><path class="bc85df4b-52e1-457e-acd6-aec5f0e43ee6" d="M13.96994,19.18517,44.41723,5.974C38.4752,3.29424,31.907,2.39669,25.43693,1.60487a51.29573,51.29573,0,0,0-9.44343-.55093,18.38555,18.38555,0,0,0-5.84136,1.24442,3.30574,3.30574,0,0,0-1.39739.91877,3.76246,3.76246,0,0,0-.54092,2.32476,44.39263,44.39263,0,0,0,.12047,4.85943c.16218,1.64519-.51182,2.56569-.79959,4.16109a3.20928,3.20928,0,0,0,.63372,2.76537,4.51783,4.51783,0,0,0,.84884.65481,10.60783,10.60783,0,0,0,2.31387,1.24826c.97327.332,1.9979-.21659,2.82555.03189"/></g><g class="f6970bd8-8753-458e-a5bc-7b0d6dff9eb9"><polygon class="bc85df4b-52e1-457e-acd6-aec5f0e43ee6" points="52.782 17.112 81.104 2.234 67.4 -2.271 53.304 9.151 52.782 17.112"/></g><polygon class="ae126f66-c677-4127-a5cc-f4fa4777aa60" points="32.191 39.225 6.46 35.242 6.544 31.945 32.275 35.928 32.191 39.225"/><polygon class="a70b7efd-270f-4e76-8302-cd105ada0f9f" points="31.317 38.204 5.586 34.22 6.544 31.162 32.275 35.145 31.317 38.204"/><path class="ba292f06-5b67-48c7-8fd4-dbb13a5d6432" d="M41.2996,23.67983a6.66666,6.66666,0,0,0,2.65954-.46582,6.18377,6.18377,0,0,1-2.419,2.11712,18.52457,18.52457,0,0,1-3.0534,1.197c-.27749-.32462-1.46243-1.48747-1.35707-1.93894.11559-.49031.99477-.398,1.35666-.46532a47.07521,47.07521,0,0,0,5.49707-1.10661l-.34765.4162a1.55029,1.55029,0,0,0,.35451-.3062c-.025-.01053-.04938.01524-.06439.03784l-.27342.4118c.22224-.09113.35716-.22375.32159-.4613"/><path class="bb34d26c-1c9d-4ea5-b0f1-162295388cf2" d="M15.42276,4.77877S41.76686,8.95051,50.99428,8.8875l-2.517,9.85624-7.4412,2.529s-27.35535-.59253-31.68869-6.52038l2.07652-7.87986Z"/><path class="bb34d26c-1c9d-4ea5-b0f1-162295388cf2" d="M56.01259,8.82449,72.49006.66733,83.84483,7.19306,83.2504,8.69168,58.45974,18.5152s-3.1631-.574-4.0287-2.03263Z"/><line class="bb34d26c-1c9d-4ea5-b0f1-162295388cf2" x1="62.83711" y1="5.52297" x2="64.80434" y2="15.93869"/></g><path class="ba292f06-5b67-48c7-8fd4-dbb13a5d6432" d="M85.19369,7.42811c1.08334.40947,1.45725.92015,1.27727,2.00639-.13863.83665-.45874,1.77573-1.41354,1.87176a5.13664,5.13664,0,0,1-2.05458-.36135c-.82183-.2641-1.89531-1.05185-2.74481-.57048.39509-.22388.36115-1.80311.40181-2.22178.06465-.66574-.02862-1.25535.68632-1.65734C82.50838,5.84184,84.13123,7.02653,85.19369,7.42811Z"/><path class="bb774a1f-fa46-4a3f-9d31-2f0f0c6a06e2" d="M5.68426,18.98341a12.74449,12.74449,0,0,0,3.76837,2.40638,21.03724,21.03724,0,0,1-3.137,2.78809,11.111,11.111,0,0,0-3.37123-1.06949c-.15276-.02262-.33082-.05941-.396-.19939a.46669.46669,0,0,1,.02912-.34646L3.8012,19.1222a2.53169,2.53169,0,0,1,2.65-.00805"/><ellipse class="fcb3a072-e310-423c-9871-31827ef4c75a" cx="59.44113" cy="47.27232" rx="10.77331" ry="7.19885" transform="translate(6.7953 102.01114) rotate(-84.6111)"/><ellipse class="ba0f9d51-846d-460a-afd1-163ea82e419e" cx="60.06442" cy="47.29199" rx="7.52078" ry="5.02547" transform="matrix(0.09392, -0.99558, 0.99558, 0.09392, 7.34048, 102.64948)"/><path class="a5bd273f-2f3b-487b-a2bb-3d46411d3ef4" d="M62.47285,41.50022,60.06442,47.292l-2.14406-5.5174A3.42624,3.42624,0,0,1,62.47285,41.50022Z"/><path class="a5bd273f-2f3b-487b-a2bb-3d46411d3ef4" d="M57.6392,53.16824l2.40843-5.79177,2.14406,5.5174A3.42626,3.42626,0,0,1,57.6392,53.16824Z"/><path class="a5bd273f-2f3b-487b-a2bb-3d46411d3ef4" d="M56.29764,44.17836l3.72591,3.13814L56.1304,50.9368S54.89578,48.445,56.29764,44.17836Z"/><path class="a5bd273f-2f3b-487b-a2bb-3d46411d3ef4" d="M63.78644,50.4713l-3.72591-3.13814,3.89316-3.62029S65.1883,46.20471,63.78644,50.4713Z"/><ellipse class="fcb3a072-e310-423c-9871-31827ef4c75a" cx="92.06378" cy="32.07388" rx="8.64266" ry="5.1148" transform="translate(53.55968 121.63899) rotate(-85.94481)"/><ellipse class="ba0f9d51-846d-460a-afd1-163ea82e419e" cx="92.50626" cy="32.08967" rx="6.03338" ry="3.57061" transform="translate(53.95513 122.09503) rotate(-85.94481)"/><path class="a5bd273f-2f3b-487b-a2bb-3d46411d3ef4" d="M94.21605,27.43954l-1.70979,4.65013-1.52211-4.42985A2.24563,2.24563,0,0,1,94.21605,27.43954Z"/><path class="a5bd273f-2f3b-487b-a2bb-3d46411d3ef4" d="M90.78455,36.80764l1.70979-4.65014,1.52211,4.42985A2.24563,2.24563,0,0,1,90.78455,36.80764Z"/><path class="a5bd273f-2f3b-487b-a2bb-3d46411d3ef4" d="M89.83215,29.58979l2.6451,2.51957L89.71342,35.016A8.52312,8.52312,0,0,1,89.83215,29.58979Z"/><path class="a5bd273f-2f3b-487b-a2bb-3d46411d3ef4" d="M95.1486,34.6423l-2.6451-2.51957,2.76383-2.90668A8.52312,8.52312,0,0,1,95.1486,34.6423Z"/><path class="ba292f06-5b67-48c7-8fd4-dbb13a5d6432" d="M6.25508,19.50159a22.67615,22.67615,0,0,1,.98155,3.54226A17.93312,17.93312,0,0,0,9.2478,21.36553a6.32005,6.32005,0,0,1-2.77667-1.562.17336.17336,0,0,1,.1762-.13077"/><path class="ba0f9d51-846d-460a-afd1-163ea82e419e" d="M81.27326,6.94085a20.93823,20.93823,0,0,0-.4296,3.02188,15.1,15.1,0,0,1,1.63806.04153l1.86281.21943a1.45756,1.45756,0,0,0,.7216-.03661A1.11137,1.11137,0,0,0,85.638,9.4812a1.1144,1.1144,0,0,0-.02378-.90731,1.43766,1.43766,0,0,0-.75783-.52642,32.7484,32.7484,0,0,0-3.50715-1.18515c-.02889-.008-.06426-.02435-.06244-.05427s.06383-.008.03842.00787"/><path class="bc85df4b-52e1-457e-acd6-aec5f0e43ee6" d="M80.84175,8.76646l3.54933-.85423a28.8148,28.8148,0,0,1-3.15372-1.03975,14.99327,14.99327,0,0,0-.40811,2.015"/></svg>