<svg id="f3017c09-29f8-432f-adba-fb20e0753d93" data-name="Layer 1" xmlns="http://www.w3.org/2000/svg" xmlns:xlink="http://www.w3.org/1999/xlink" viewBox="0 0 128.30534 90.55851"><defs><style>.a1fd2055-21c7-48c3-aacc-f3ad3bb1968e,.a7af1a21-e272-4ca4-b285-405c7e1700f1,.ad485786-cda3-48e7-a8e1-27c95d5e76dd,.ad692d24-cd36-450b-aba8-e718fdce90b0,.b0baab8d-2568-474b-b3b7-715d0e74ede4,.b51f8925-7d90-43b2-bf0d-fc63ac5be074,.b98961f7-9f25-4af0-a80e-c2d034090dc8,.f8ebc152-7ff5-4c01-8470-bae7e6675b0f{fill:none;}.bfb1352f-db4d-4658-bd8b-bc16efcbcd52{clip-path:url(#ba03a21c-47ab-4b2e-9c6c-34d57addbace);}.e612a421-ada5-4925-9ca0-3df939953a21{fill:#d1d3d4;}.ad485786-cda3-48e7-a8e1-27c95d5e76dd,.b0baab8d-2568-474b-b3b7-715d0e74ede4{stroke:#fff;}.a1fd2055-21c7-48c3-aacc-f3ad3bb1968e,.ad485786-cda3-48e7-a8e1-27c95d5e76dd,.ad692d24-cd36-450b-aba8-e718fdce90b0,.b0baab8d-2568-474b-b3b7-715d0e74ede4,.b51f8925-7d90-43b2-bf0d-fc63ac5be074,.b98961f7-9f25-4af0-a80e-c2d034090dc8{stroke-miterlimit:10;}.b0baab8d-2568-474b-b3b7-715d0e74ede4{stroke-width:5px;}.a7af1a21-e272-4ca4-b285-405c7e1700f1,.ad485786-cda3-48e7-a8e1-27c95d5e76dd{stroke-width:2px;}.f53a5199-9c08-4ddb-86f2-e361afffbbcb{fill:#0f2849;}.f987a959-cbca-4231-95d6-7ba96a56744c{clip-path:url(#a97da6c9-4eb4-464a-b7a8-bbf26d59abd0);}.a4c6ae5c-14f0-40ca-836b-cb9fca132721{fill:#808285;}.a1fd2055-21c7-48c3-aacc-f3ad3bb1968e,.ad692d24-cd36-450b-aba8-e718fdce90b0,.b51f8925-7d90-43b2-bf0d-fc63ac5be074,.b98961f7-9f25-4af0-a80e-c2d034090dc8{stroke:#bcbec0;}.b51f8925-7d90-43b2-bf0d-fc63ac5be074{stroke-width:0.5px;}.ae48e385-3431-4852-866e-db8d2d8aa969{clip-path:url(#afff5142-df26-4316-838f-6460777b242b);}.b98961f7-9f25-4af0-a80e-c2d034090dc8{stroke-width:0.86958px;}.ad692d24-cd36-450b-aba8-e718fdce90b0{stroke-width:0.43479px;}.a7af1a21-e272-4ca4-b285-405c7e1700f1{stroke:#ee755b;stroke-linecap:round;stroke-linejoin:round;}.f05555d0-a566-412e-94f2-3e6be012d7c8{fill:#ee755b;}.eb33232d-45b3-4f24-84ca-29d47bb3b72c{clip-path:url(#b8dec85c-a4c6-45c0-a965-9a9bc6136988);}.be09a60a-21d7-4ff1-9235-8b1daba7f982{fill:#009ac4;}.f3df2a18-9efb-4d4b-8827-427c07ea930c{fill:#c3d7dc;}</style><clipPath id="ba03a21c-47ab-4b2e-9c6c-34d57addbace"><path class="f8ebc152-7ff5-4c01-8470-bae7e6675b0f" d="M31.306,38.72718S82.39622,74.4655,85.45712,79.67157c0,0-24.16076,2.46235-57.235-25.57112l4.92542-5.69562-5.98091-5.09356Z"/></clipPath><clipPath id="a97da6c9-4eb4-464a-b7a8-bbf26d59abd0"><path class="f8ebc152-7ff5-4c01-8470-bae7e6675b0f" d="M29.60049,45.43115s2.92017-3.88064,4.60258-4.66817a10.12383,10.12383,0,0,0-2.81758-2.15614l-4.21882,4.70443Z"/></clipPath><clipPath id="afff5142-df26-4316-838f-6460777b242b"><path class="f8ebc152-7ff5-4c01-8470-bae7e6675b0f" d="M1.13549,21.79838s3.40618-4.07388,4.83333-4.7759a8.67672,8.67672,0,0,0-2.39009-1.922L0,19.29408Z"/></clipPath><clipPath id="b8dec85c-a4c6-45c0-a965-9a9bc6136988"><rect class="f8ebc152-7ff5-4c01-8470-bae7e6675b0f" x="52.48872" y="-11.18295" width="18.90756" height="99.82029" transform="translate(-6.32874 64.72155) rotate(-52.85851)"/></clipPath></defs><title>Artboard 187</title><g class="bfb1352f-db4d-4658-bd8b-bc16efcbcd52"><path class="e612a421-ada5-4925-9ca0-3df939953a21" d="M31.306,38.72718S82.39622,74.4655,85.45712,79.67157c0,0-24.16076,2.46235-57.235-25.57112l4.92542-5.69562-5.98091-5.09356Z"/><line class="b0baab8d-2568-474b-b3b7-715d0e74ede4" x1="32.88549" y1="61.51712" x2="58.88549" y2="45.76712"/><line class="ad485786-cda3-48e7-a8e1-27c95d5e76dd" x1="37.80216" y1="66.01712" x2="58.88549" y2="53.64212"/></g><path class="f53a5199-9c08-4ddb-86f2-e361afffbbcb" d="M4.96882,16.21416,31.80216,38.98184,27.46882,43.383s-16-9.46579-20-11.99182a14.45518,14.45518,0,0,1-6.33333-9.59279C.63549,18.86515,4.96882,16.21416,4.96882,16.21416Z"/><g class="f987a959-cbca-4231-95d6-7ba96a56744c"><path class="a4c6ae5c-14f0-40ca-836b-cb9fca132721" d="M29.60049,45.43115s2.92017-3.88064,4.60258-4.66817a10.12383,10.12383,0,0,0-2.81758-2.15614l-4.21882,4.70443Z"/><line class="a1fd2055-21c7-48c3-aacc-f3ad3bb1968e" x1="28.91064" y1="41.36656" x2="31.27924" y2="43.38299"/><line class="b51f8925-7d90-43b2-bf0d-fc63ac5be074" x1="29.59426" y1="40.00721" x2="32.57299" y2="42.37477"/></g><g class="ae48e385-3431-4852-866e-db8d2d8aa969"><path class="a4c6ae5c-14f0-40ca-836b-cb9fca132721" d="M1.13549,21.79838s3.40618-4.07388,4.83333-4.7759a8.67672,8.67672,0,0,0-2.39009-1.922L0,19.29408Z"/><line class="b98961f7-9f25-4af0-a80e-c2d034090dc8" x1="1.47937" y1="17.56052" x2="3.4886" y2="19.35801"/><line class="ad692d24-cd36-450b-aba8-e718fdce90b0" x1="2.05927" y1="16.34877" x2="4.58606" y2="18.45927"/></g><path class="a7af1a21-e272-4ca4-b285-405c7e1700f1" d="M42.60953,77.72853s41.627,26.13012,83.85108.72094"/><polygon class="f05555d0-a566-412e-94f2-3e6be012d7c8" points="124.727 88.773 122.816 88.179 125.756 78.766 116.153 76.521 116.61 74.572 128.305 77.309 124.727 88.773"/><g class="eb33232d-45b3-4f24-84ca-29d47bb3b72c"><rect class="be09a60a-21d7-4ff1-9235-8b1daba7f982" x="52.48872" y="-11.18295" width="18.90756" height="99.82029" transform="translate(-6.32874 64.72155) rotate(-52.85851)"/><rect class="f53a5199-9c08-4ddb-86f2-e361afffbbcb" x="20.5238" y="18.30575" width="11.81607" height="1.87195" rx="0.90335" transform="translate(-4.8658 28.69391) rotate(-52.85851)"/><rect class="f53a5199-9c08-4ddb-86f2-e361afffbbcb" x="29.01522" y="24.73743" width="11.81607" height="1.87195" rx="0.90335" transform="translate(-6.62837 38.01115) rotate(-52.85851)"/><rect class="f53a5199-9c08-4ddb-86f2-e361afffbbcb" x="36.99446" y="30.13864" width="14.40146" height="1.87195" rx="0.90335" transform="translate(-7.26026 47.54228) rotate(-52.85851)"/><rect class="f53a5199-9c08-4ddb-86f2-e361afffbbcb" x="45.99806" y="37.60079" width="11.81607" height="1.87195" rx="0.90335" transform="translate(-10.15351 56.64562) rotate(-52.85851)"/><rect class="f53a5199-9c08-4ddb-86f2-e361afffbbcb" x="54.48949" y="44.03248" width="11.81607" height="1.87195" rx="0.90335" transform="translate(-11.91608 65.96285) rotate(-52.85851)"/><rect class="f53a5199-9c08-4ddb-86f2-e361afffbbcb" x="62.40288" y="49.30123" width="14.7338" height="1.87195" rx="0.90335" transform="translate(-12.40263 75.52148) rotate(-52.85851)"/><rect class="f53a5199-9c08-4ddb-86f2-e361afffbbcb" x="71.47233" y="56.89584" width="11.81607" height="1.87195" rx="0.90335" transform="translate(-15.44123 84.59733) rotate(-52.85851)"/><rect class="f3df2a18-9efb-4d4b-8827-427c07ea930c" x="63.0237" y="-17.03045" width="6.68342" height="99.82829" transform="translate(0.00977 65.78711) rotate(-52.73335)"/></g></svg>