<svg xmlns="http://www.w3.org/2000/svg" xmlns:xlink="http://www.w3.org/1999/xlink" viewBox="0 0 101.78735 104.65098"><defs><style>.a1b58a47-0be0-4c23-aaa4-f1a0f69fe211,.bdcb42f7-7f7c-4c6d-8dc2-7edf6fa0963e,.e2172120-16a2-42be-8a4c-2a2383ef1d9d,.e42c914a-da5d-431b-961d-38ec07a85669,.ed6c1841-3fc8-4dd3-97cc-017434ed18a7,.fc6549b7-2df3-4956-a94a-c59514725fb7,.ffb19282-8fcb-4707-bced-8e1d0a5c9c13{fill:none;}.e500cdf3-d6f8-4ae9-90ac-aa18b6588cfa{isolation:isolate;}.b39c80b7-c4b2-433f-bb0f-07eba6b0da09{clip-path:url(#b8281805-2470-4086-9f29-a5e5bf0489fe);}.a776aa63-52d5-46f1-979f-dca836f310d4{fill:#566345;}.fafe6ce5-6e65-442d-9263-296b7de18fe4{fill:#63774e;}.b04b1420-0c93-4e59-91cb-d42f3fda257c{clip-path:url(#a6d5d5f0-33d4-4201-9694-c1b64d607d51);}.abdad0a5-05e9-4604-8389-a14d8f305a08{clip-path:url(#bbcffa3a-59d5-4269-bd39-533a3f1de1f2);}.ae597fd5-9980-4b1b-95d4-c0264e58e3a7{fill:#f6d2ba;}.b8d1b62f-f327-4cdc-ac0c-c75d2e8c2871{fill:#3c2415;}.b74201dd-fc9f-44fb-852b-371051652d9a{fill:#fff;}.a91e24a6-670d-46e1-97b8-26ed0a13c941{fill:#6f825a;}.fcc20efe-9d9a-4393-9a35-a77c061b978c{fill:#938c6c;}.a6528028-5600-4d5b-9673-a32b51ec48a2{clip-path:url(#f3ce4be2-c62c-4d3a-a91c-445734ce9693);}.b86564c9-88fd-407e-ac7b-e75980907065{fill:#d1d3d4;}.e42c914a-da5d-431b-961d-38ec07a85669,.ed6c1841-3fc8-4dd3-97cc-017434ed18a7{stroke:#fff;}.a1b58a47-0be0-4c23-aaa4-f1a0f69fe211,.bdcb42f7-7f7c-4c6d-8dc2-7edf6fa0963e,.e42c914a-da5d-431b-961d-38ec07a85669,.ed6c1841-3fc8-4dd3-97cc-017434ed18a7,.fc6549b7-2df3-4956-a94a-c59514725fb7,.ffb19282-8fcb-4707-bced-8e1d0a5c9c13{stroke-miterlimit:10;}.ed6c1841-3fc8-4dd3-97cc-017434ed18a7{stroke-width:2.10896px;}.e42c914a-da5d-431b-961d-38ec07a85669{stroke-width:0.84358px;}.ec3e004d-2df9-4c41-8c61-65014152872b{fill:#0f2849;}.a1a21933-cfde-4186-b656-5472dd3742a4{clip-path:url(#aa9c8862-be93-46c8-9680-92398f181bf6);}.b5d31ad9-2f1f-4b7d-8bd0-fce40418089e{fill:#808285;}.a1b58a47-0be0-4c23-aaa4-f1a0f69fe211,.bdcb42f7-7f7c-4c6d-8dc2-7edf6fa0963e,.fc6549b7-2df3-4956-a94a-c59514725fb7,.ffb19282-8fcb-4707-bced-8e1d0a5c9c13{stroke:#bcbec0;}.ffb19282-8fcb-4707-bced-8e1d0a5c9c13{stroke-width:0.42179px;}.bdcb42f7-7f7c-4c6d-8dc2-7edf6fa0963e{stroke-width:0.2109px;}.a11b575c-d310-48a8-a750-be3fe7f3f7ab{clip-path:url(#f006e288-ddbe-45de-a5bc-7e93d1e2cd73);}.a1b58a47-0be0-4c23-aaa4-f1a0f69fe211{stroke-width:0.36678px;}.fc6549b7-2df3-4956-a94a-c59514725fb7{stroke-width:0.18339px;}.b9bb57e2-4d9e-4b93-868d-ed75fc94d913,.fba8892d-c913-4e56-abe0-586b228a9433{fill:#af2027;}.fba8892d-c913-4e56-abe0-586b228a9433{mix-blend-mode:color-burn;}.a067c8f4-3e04-49a0-8a45-33b0e5f1c94f{fill:#59102e;}</style><clipPath id="b8281805-2470-4086-9f29-a5e5bf0489fe"><rect class="e2172120-16a2-42be-8a4c-2a2383ef1d9d" x="-26.93776" y="-140.41912" width="135.6536" height="108.85783"/></clipPath><clipPath id="a6d5d5f0-33d4-4201-9694-c1b64d607d51"><rect class="e2172120-16a2-42be-8a4c-2a2383ef1d9d" x="-162.59136" y="-5.22308" width="135.6536" height="108.85783" transform="translate(-189.52912 98.41167) rotate(-180)"/></clipPath><clipPath id="bbcffa3a-59d5-4269-bd39-533a3f1de1f2"><rect class="e2172120-16a2-42be-8a4c-2a2383ef1d9d" x="-33.86626" y="-4.20685" width="135.6536" height="108.85783" transform="translate(67.92109 100.44414) rotate(-180)"/></clipPath><clipPath id="f3ce4be2-c62c-4d3a-a91c-445734ce9693"><path class="e2172120-16a2-42be-8a4c-2a2383ef1d9d" d="M52.53991,62.14973S29.16159,74.194,27.58738,76.19663c0,0,9.9591,2.3975,25.37085-7.44664L51.2221,66.09043l2.78832-1.79025Z"/></clipPath><clipPath id="aa9c8862-be93-46c8-9680-92398f181bf6"><path class="e2172120-16a2-42be-8a4c-2a2383ef1d9d" d="M52.8731,65.0484a9.0493,9.0493,0,0,0-1.65939-2.21183,4.27037,4.27037,0,0,1,1.29978-.74164l1.49693,2.20525Z"/></clipPath><clipPath id="f006e288-ddbe-45de-a5bc-7e93d1e2cd73"><path class="e2172120-16a2-42be-8a4c-2a2383ef1d9d" d="M66.1091,56.7826a12.57152,12.57152,0,0,0-1.74973-2.26992,3.65961,3.65961,0,0,1,1.10784-.668l1.25832,1.9555Z"/></clipPath></defs><title>Artboard 175</title><g class="e500cdf3-d6f8-4ae9-90ac-aa18b6588cfa"><g id="ad3ed5cc-265d-4c5c-97ee-d38db382c3c0" data-name="Layer 1"><g class="b39c80b7-c4b2-433f-bb0f-07eba6b0da09"><path class="a776aa63-52d5-46f1-979f-dca836f310d4" d="M25.89919-1.22857Q24.90678-.9382,23.92-.68385C11.68058,2.47706-2.98277,1.87819-9.99183,14.72285c-5.566,10.20019-7.24248,21.691-12.94791,31.82946a92.38787,92.38787,0,0,1-5.22945,7.95442l-7.6584,10.82106a16.08873,16.08873,0,0,0-12.59527-7.08787c7.06587-7.63391,7.33364-18.578,10.5894-27.759,6.85025-19.31713,11.64192-42.97551,33.71892-49.8326,2.47039-.7673,4.9347-1.57815,7.35689-2.48746,2.07285-.77816,3.7495-1.942,5.89508-2.625,4.866-1.54911,9.96193-2.81133,14.71182-4.68258a15.7121,15.7121,0,0,0,6.52947-5.44377,33.94092,33.94092,0,0,1,5.84878-6.39177C47.992-50.67911,48.008-33.646,48.25657-25.76441,48.688-12.08885,37.78036-4.70492,25.89919-1.22857Z"/><path class="fafe6ce5-6e65-442d-9263-296b7de18fe4" d="M40.33628,8.22855c-5.21014,1.56359-10.539,2.54856-15.90746,4.35208a12.07026,12.07026,0,0,0-4.48977,2.35005,10.728,10.728,0,0,0-2.60317,4.41174c-2.42137,6.91693-1.704,14.52416-4.31148,21.38894A147.98409,147.98409,0,0,1,3.65867,60.86369a92.38958,92.38958,0,0,1-5.22945,7.95443l-7.6584,10.82105A16.08876,16.08876,0,0,0-21.82445,72.5513c7.06587-7.63391,7.33364-18.578,10.5894-27.759C-4.3848,25.47517-11.75767-3.04839,10.31933-9.90548c2.47039-.7673,4.93469-1.57816,7.35688-2.48746,2.07286-.77816,3.7495-1.942,5.89509-2.625l15.29255-4.86842c-.10237.03259-1.88094-.79484-2.20533-.85872a16.10365,16.10365,0,0,1-2.86683-.46561c-2.03073-.8014-3.70889-3.03758-5.18489-4.57949-.46226-.4829-.9192-1.269-.44994-1.74514a1.304,1.304,0,0,1,.87088-.28124,24.231,24.231,0,0,1,6.22945.407c3.633.716,7.99739,2.60562,11.15291-.28036,1.41059-1.2901,2.77572-2.62974,4.25126-3.84612,11.76451-9.69683,11.78046,7.33632,12.02908,15.21788C62.97038-7.44332,57.90749-.36582,50.45032,3.98891A45.76373,45.76373,0,0,1,40.33628,8.22855Z"/></g><g class="b04b1420-0c93-4e59-91cb-d42f3fda257c"><path class="fafe6ce5-6e65-442d-9263-296b7de18fe4" d="M-40.36436,59.57283a18.4697,18.4697,0,0,0,2.29791.81869,45.82664,45.82664,0,0,1,6.51029,2.58666,56.20235,56.20235,0,0,0,8.39552,3.22135C-16.1093,68.01835-8.93671,69.49569-2.142,72.17437a23.01143,23.01143,0,0,1,5.83323-9.583c-.51706.50792-10.11318-3.67182-11.29728-4.0706q-6.06988-2.04421-12.22721-3.81559c-5.588-1.60756-11.33309-2.56792-16.96274-4.01244a41.77881,41.77881,0,0,1-4.47825-1.34307c-.642-.24522-1.545-1.2695-2.29337-1.03781-.45219.14-.39836.48415-.56819.86882a13.6806,13.6806,0,0,1-2.88829,4.11857c-.36662.36559-1.61889,1.1194-1.54668,1.67941.07626.59123,1.17474,1.04522,1.59867,1.3369A35.107,35.107,0,0,0-40.36436,59.57283Z"/></g><g class="abdad0a5-05e9-4604-8389-a14d8f305a08"><path class="a776aa63-52d5-46f1-979f-dca836f310d4" d="M48.95039,134.9837q.99242.29037,1.97918.54472c12.23943,3.16091,26.90279,2.562,33.91185,15.40669,5.566,10.2002,7.24247,21.691,12.9479,31.82947a92.39023,92.39023,0,0,0,5.22945,7.95442l7.6584,10.82106a16.08875,16.08875,0,0,1,12.59527-7.08787c-7.06587-7.63391-7.33364-18.578-10.5894-27.759-6.85025-19.31713-11.64192-42.97551-33.71892-49.8326-2.47039-.7673-4.9347-1.57815-7.35689-2.48746-2.07285-.77816-3.74949-1.942-5.89508-2.625-4.866-1.54911-9.96192-2.81133-14.71181-4.68259a15.71209,15.71209,0,0,1-6.52948-5.44376A33.94092,33.94092,0,0,0,38.62208,95.23c-11.7645-9.69682-11.78046,7.33632-12.02907,15.21788C26.16164,124.12342,37.06922,131.50735,48.95039,134.9837Z"/><path class="a776aa63-52d5-46f1-979f-dca836f310d4" d="M54.67417,83.02427c2.25948,3.82125,6.24381,7.33737,9.03135,10.10953a89.84989,89.84989,0,0,0,9.42644,8.15552q2.54539,1.91,5.22267,3.63522c.91176.58733,1.75176.79763,1.89906,1.84172.15372,1.08962-.63536,2.8244-1.00979,3.83276-.58461,1.57441-1.50462,3.479-3.27351,3.865a16.78378,16.78378,0,0,1-5.39394.2969c-1.98949-.27286-3.90262-2.29739-5.44611-3.48374L46.53348,96.9833a15.63827,15.63827,0,0,1-3.21-2.9858c-1.61907-2.20427-1.909-5.55233-2.72-8.152-1.12654-3.61119-2.0998-7.24366-3.407-10.80054a13.32376,13.32376,0,0,1-.82061-2.88827c-.66924-5.28423,3.42039-11.9672,5.2599-16.74994a50.376,50.376,0,0,0,1.78929-7.61693c.48779-2.26231.76956-5.27032,3.15495-3.01315a21.58916,21.58916,0,0,1,4.6207,7.70988c2.64476,8.06947.55177,17.98728,1.83251,26.26431A12.14822,12.14822,0,0,0,54.67417,83.02427Z"/><path class="ae597fd5-9980-4b1b-95d4-c0264e58e3a7" d="M43.61013,3.9265a16.67311,16.67311,0,0,1,9.71273,6.32377c2.92428,3.823,2.794,9.08754,2.05589,13.602-.63909,3.90885-1.72316,10.689-4.80057,13.51507-1.97563,1.81421-7.65038,1.60178-9.839.49674a2.57439,2.57439,0,0,0-2.44863-.22633,2.53609,2.53609,0,0,0-.69627.73267,4.931,4.931,0,0,0-.84177,4.88908,17.77107,17.77107,0,0,1,.96653,6.73c-.06355,1.25874-.37192,2.68173-1.464,3.31088-1.04684.60309-2.37121.2206-3.47841-.26283a22.653,22.653,0,0,1-7.14069-4.93882,8.27186,8.27186,0,0,1-1.67448-2.26246c-1.39519-3.04762.14091-6.31356,1.47759-9.04649,3.564-7.287,1.79788-16.1534,4.55165-23.78354.47105-1.30519,1.07011-2.55982,1.6681-3.81193A10.083,10.083,0,0,1,33.45255,5.988,9.43363,9.43363,0,0,1,36.635,4.36411,13.45659,13.45659,0,0,1,43.61013,3.9265Z"/><path class="b8d1b62f-f327-4cdc-ac0c-c75d2e8c2871" d="M55.773,9.89707A15.63708,15.63708,0,0,0,51.719,4.4714c-.49009-.40053-6.1352-3.93424-6.10534-2.48818a1.03606,1.03606,0,0,0,.1706.442,2.19174,2.19174,0,0,1,.23542,1.28862c-.43018-1.45947-2.03338-2.17562-3.45847-2.70877-1.069,3.65455-5.99382,2.1114-8.62918,3.39828a12.87422,12.87422,0,0,0-5.56394,5.1821c-2.99933,5.33143-1.95226,11.51727-1.57682,17.36912a7.55635,7.55635,0,0,0,.39066,2.59143,1.96808,1.96808,0,0,0,2.604,1.11027c1.56723-.70167-.2414,1.068,1.31622.34611a2.952,2.952,0,0,0,.70936-.52092c1.20386-1.08506,2.37171-2.24666,3.66525-3.22411,1.07558-.81274,1.23321-1.17625.51414-2.48993a4.99194,4.99194,0,0,1-.41887-3.738,1.62626,1.62626,0,0,1,.54916-.912c.62649-.445,1.52421-.031,2.0661.51806,1.61841,1.63975,1.56567,2.08229,2.82443-.19843.7134-1.2926,5.503-1.999,7.083-2.61076,2.01653-.78,4.468.53826,6.5614-.066C57.74176,16.86968,56.79208,12.08774,55.773,9.89707Z"/><path class="fafe6ce5-6e65-442d-9263-296b7de18fe4" d="M34.51331,144.44082c5.21014,1.56359,10.539,2.54855,15.90746,4.35208a12.07046,12.07046,0,0,1,4.48977,2.35,10.728,10.728,0,0,1,2.60316,4.41175c2.42137,6.91693,1.704,14.52416,4.31149,21.38894A147.984,147.984,0,0,0,71.19091,197.076a92.39193,92.39193,0,0,0,5.22945,7.95443l7.6584,10.821A16.08875,16.08875,0,0,1,96.674,208.76357c-7.06587-7.63391-7.33364-18.578-10.5894-27.759-6.85025-19.31713.52263-47.84069-21.55438-54.69778-2.47038-.7673-4.93469-1.57816-7.35688-2.48746-2.07285-.77816-3.7495-1.942-5.89508-2.625l-15.29256-4.86842c.10238.03259,1.88094-.79484,2.20533-.85872a16.10376,16.10376,0,0,0,2.86684-.46561c2.03072-.8014,3.70888-3.03758,5.18488-4.57949.46226-.4829.9192-1.269.44994-1.74514a1.304,1.304,0,0,0-.87088-.28124,24.231,24.231,0,0,0-6.22945.407c-3.633.716-7.99739,2.60562-11.15291-.28036-1.41059-1.2901-2.77572-2.62974-4.25126-3.84612-11.7645-9.69683-11.78046,7.33632-12.02907,15.21787-.27995,8.8749,4.78294,15.9524,12.24012,20.30712A45.7633,45.7633,0,0,0,34.51331,144.44082Z"/><path class="b74201dd-fc9f-44fb-852b-371051652d9a" d="M37.6244,41.68183c-.66125.06258-.81128,1.06441-1.1625,1.50743a5.35691,5.35691,0,0,1-1.93135,1.351,6.448,6.448,0,0,1-4.43742.364c-.57316-.16718-6.36792-3.193-6.17156-3.61524-.97762,2.10214-.24949,4.84319-.26863,7.08291q-.03168,3.70624-.00395,7.41268c.03462,4.89129.14023,9.78186.29023,14.6709.15009,4.89157.345,9.78163.55521,14.67094.05577,1.29721.19247,14.49765.64606,14.57451a57.98541,57.98541,0,0,0,19.77334-.07728q.01992-6.45818-.20595-12.914-.594-16.98489-2.88152-33.854a40.37147,40.37147,0,0,0-1.6229-7.71939c-.31251-.91046-.97722-2.63238-1.79052-3.18189A1.24524,1.24524,0,0,0,37.6244,41.68183Z"/><path class="fafe6ce5-6e65-442d-9263-296b7de18fe4" d="M14.10094,40.23805c1.18588-.50732,2.3428-1.09967,3.55085-1.55381,1.91826-.72114,4.13947-1.06856,5.969-.14527a7.45325,7.45325,0,0,1,3.22877,2.969c1.85589,3.64747,3.70253,7.30721,5.62606,10.91887.52743.99032,1.145,1.95532,1.62729,2.967a16.73791,16.73791,0,0,0,.87549,2.18532c.89377-3.13528.92115-6.61195,1.231-9.84524.11955-1.24737.263-2.4929.34694-3.74343.04224-.62951.07256-1.26016.07536-1.8912.00173-.38932-.26038-1.60114-.06843-1.90663,1.40186-2.23113,8.588,1.03621,9.95978,2.00692,3.08408,2.18246,2.81776,4.57161,2.40772,7.76461-.53961,4.202-.479,8.739-.70543,12.98942-.606,11.37646-.825,22.78913-.7473,34.14789a18.59127,18.59127,0,0,1-.77181,6.03754,7.99842,7.99842,0,0,1-1.30485,2.67925c-.5562.609-1.30294.68893-2.00921,1.12209-.8402.51569-1.45261,1.24658-2.23345,1.834-3.37963,2.54228-10.82419.95055-14.75642.71948-4.55188-.26738-9.872-.52211-14.17869-2.04036.0992-1.87968.90355-3.42846,1.23687-5.2286.451-2.43541.03772-5.28717-.12546-7.7426-.33883-5.09865-1.04569-10.16484-1.39918-15.26246C11.24014,69.187,6.42274,60.15409,6.1334,50.0202c-.07554-2.64549.09284-6.71081,2.789-8.12948a14.12732,14.12732,0,0,1,3.04067-.89147A15.5862,15.5862,0,0,0,14.10094,40.23805Z"/><path class="a91e24a6-670d-46e1-97b8-26ed0a13c941" d="M35.21213,62.0593q-.03635-.26559-.074-.529a23.3516,23.3516,0,0,1,.459-8.46217,2.22383,2.22383,0,0,1,.60375-1.35519c-.00209,4.95915,1.3227,9.63637,1.712,14.51513,1.12573,14.1069-.14113,28.20755,1.66164,42.26331a.541.541,0,0,1-.04061.36518.52009.52009,0,0,1-.35983.18243,4.17779,4.17779,0,0,1-1.832-.071.70515.70515,0,0,1-.40556-.22428.74746.74746,0,0,1-.10717-.3866c-.24011-2.87227.10772-5.90976.07915-8.80717-.04469-4.53352-.08939-9.06742-.22694-13.59934-.13884-4.57451-.37253-9.14561-.65351-13.71348A56.16036,56.16036,0,0,0,33.55774,56.5642a9.73751,9.73751,0,0,1-.5392-2.67329,7.32079,7.32079,0,0,1,2.44124,3.708,18.14655,18.14655,0,0,1,.62174-5.26621"/><path class="ae597fd5-9980-4b1b-95d4-c0264e58e3a7" d="M26.48157,85.80516c3.49243.00467,6.94271.43692,10.38665.686,2.61908.18918,5.25893,1.0525,1.78306,2.9431.03977-.02167,2.36635,1.32071,2.73043,1.43973,1.122.3668,2.35846.36193,3.25261,1.246a3.49233,3.49233,0,0,1,.72461,3.65507,4.66391,4.66391,0,0,1-4.50716,3.11534c-7.85761-.43583-14.38129-5.96693-20.39939-11.279C21.8753,85.28041,24.03253,85.80188,26.48157,85.80516Z"/><path class="a91e24a6-670d-46e1-97b8-26ed0a13c941" d="M2.55353,57.75758Q1.16887,65.6611.38,73.65367c-.22924,2.324-.386,4.8188.77705,6.84388,1.224,2.13128,3.62145,3.25013,5.871,4.24013l7.69276,3.3855c4.31981,1.9011,8.28093,3.95984,12.54073,6.05852,1.5883.78251,3.27048,2.23362,4.69748.60633a30.94979,30.94979,0,0,0,3.926-6.41264c.359-.70452.94949-1.34065.44983-1.9609-.4131-.51279-1.6741-.6992-2.2977-1.00113-4.91723-2.38074-8.85308-5.8151-13.71437-8.245-2.68651-1.34287-4.66637-3.47239-7.80081-3.66771-.62111-.03895,5.31569-21.30218,5.41418-23.14929.17573-3.29538.3156-7.97625-4.51059-8.63527C4.0437,40.435,3.69992,51.21414,2.55353,57.75758Z"/><path class="fcc20efe-9d9a-4393-9a35-a77c061b978c" d="M12.59309,104.05919c-.11377,1.26212-.57486,3.045-.23254,4.16061.3279,1.06863,1.61164,1.23481,2.51574,1.50557a43.54276,43.54276,0,0,0,10.59842,1.26886,71.81416,71.81416,0,0,0,13.59715-.77054,33.2235,33.2235,0,0,0,4.62552-.8622c1.18378-.35842,4.25037-1.62446,4.43-3.04468a2.61386,2.61386,0,0,0-.22291-1.212c-.55372-1.50174-.96024-3.027-1.41768-4.54625-1.00839.07585-2.05377.89384-3.02362,1.25272-1.23965.45871-2.43475,1.15272-3.7097,1.49622a33.7683,33.7683,0,0,1-5.17158.92149c-5.57415.598-11.03306-.12022-16.532-.98322-1.25314-.19667-2.50847-.39216-3.74576-.67474-.39121-.08934-1.19626-.48613-1.53924-.21266-.27984.22313-.13784,1.12819-.15311,1.43833Q12.60551,103.92351,12.59309,104.05919Z"/><g class="a6528028-5600-4d5b-9673-a32b51ec48a2"><path class="b86564c9-88fd-407e-ac7b-e75980907065" d="M52.53991,62.14973S29.16159,74.194,27.58738,76.19663c0,0,9.9591,2.3975,25.37085-7.44664L51.2221,66.09043l2.78832-1.79025Z"/><line class="ed6c1841-3fc8-4dd3-97cc-017434ed18a7" x1="50.58905" y1="71.58586" x2="40.61373" y2="63.53032"/><line class="e42c914a-da5d-431b-961d-38ec07a85669" x1="48.27917" y1="73.18829" x2="40.16774" y2="66.82186"/></g><path class="ec3e004d-2df9-4c41-8c61-65014152872b" d="M64.82312,54.23146l-12.505,7.99661,1.562,2.085s7.22364-3.05032,9.03859-3.87959A6.09713,6.09713,0,0,0,66.1091,56.7826C66.4842,55.58491,64.82312,54.23146,64.82312,54.23146Z"/><g class="a1a21933-cfde-4186-b656-5472dd3742a4"><path class="b5d31ad9-2f1f-4b7d-8bd0-fce40418089e" d="M52.8731,65.0484a9.0493,9.0493,0,0,0-1.65939-2.21183,4.27037,4.27037,0,0,1,1.29978-.74164l1.49693,2.20525Z"/><line class="ffb19282-8fcb-4707-bced-8e1d0a5c9c13" x1="53.39162" y1="63.38858" x2="52.28742" y2="64.09725"/><line class="bdcb42f7-7f7c-4c6d-8dc2-7edf6fa0963e" x1="53.18287" y1="62.78169" x2="51.80376" y2="63.60257"/></g><g class="a11b575c-d310-48a8-a750-be3fe7f3f7ab"><path class="b5d31ad9-2f1f-4b7d-8bd0-fce40418089e" d="M66.1091,56.7826a12.57152,12.57152,0,0,0-1.74973-2.26992,3.65961,3.65961,0,0,1,1.10784-.668l1.25832,1.9555Z"/><line class="a1b58a47-0be0-4c23-aaa4-f1a0f69fe211" x1="66.20537" y1="54.99182" x2="65.26376" y2="55.62933"/><line class="fc6549b7-2df3-4956-a94a-c59514725fb7" x1="66.03161" y1="54.4525" x2="64.85596" y2="55.19153"/></g><path class="fba8892d-c913-4e56-abe0-586b228a9433" d="M39.59578,73.04641a5.43882,5.43882,0,0,0,.46455,1.05983c.297.49027.46136,1.19947.033,1.58035-.46155.41037-1.29022.13276-1.72517.57121-.61589.62085.3015,1.68729.0347,2.52012-.2608.8141-1.45847.92062-1.8846,1.66169-.57517,1.00024.60506,2.42624-.08121,3.35377a1.29964,1.29964,0,0,1-1.89944-.01435,2.3791,2.3791,0,0,1-.483-2.029,19.64108,19.64108,0,0,1,.60324-2.07486,2.32091,2.32091,0,0,0,.00821-1.54757c-.313-.70482-1.129-1.00524-1.73164-1.48637a3.20308,3.20308,0,0,1-1.07907-3.21989,1.04981,1.04981,0,0,1,.23287-.48032,2.63155,2.63155,0,0,1,.53346-.33039A2.121,2.121,0,0,0,33.4116,71.264a4.32627,4.32627,0,0,1,.52253-1.50284A3.77971,3.77971,0,0,1,37.31884,68.698C38.744,69.34519,39.05586,71.454,39.59578,73.04641Z"/><path class="fafe6ce5-6e65-442d-9263-296b7de18fe4" d="M33.22277,72.181a7.14426,7.14426,0,0,0,.369,4.20185,5.78541,5.78541,0,0,1,.38209,1.04184,1.26779,1.26779,0,0,1-.20249,1.05577,1.30286,1.30286,0,0,1-1.08456.3868,8.94309,8.94309,0,0,1-1.172-.22537,22.245,22.245,0,0,0-2.63554-.13866,3.27405,3.27405,0,0,1-2.36336-1.00359,3.77655,3.77655,0,0,1-.56239-2.62131,2.90937,2.90937,0,0,1,.30814-1.33654,3.12668,3.12668,0,0,1,1.38247-1.06335,16.93662,16.93662,0,0,1,3.58145-1.45753,2.77567,2.77567,0,0,1,1.3396-.06206,1.19617,1.19617,0,0,1,.911.89888"/><path class="a067c8f4-3e04-49a0-8a45-33b0e5f1c94f" d="M36.77511,69.32223a4.41208,4.41208,0,0,0-3.13741,1.52941c-.24212.30916-.28233.72387-.52306,1.04478a3.88213,3.88213,0,0,0-.79732,1.14857,3.06051,3.06051,0,0,0-.10968,1.52831,5.2885,5.2885,0,0,0,1.4998,2.409,1.47573,1.47573,0,0,0,.64645.48159.98809.98809,0,0,0,1.05282-.52914c.06467-.11478.1404-.25746.27213-.25894a.27442.27442,0,0,0,.1057-.00369c.03271-.014.04455-.07134.01027-.08087.35638-.006.64838.01973,1.00476.01372a1.624,1.624,0,0,0,.90885-.1955,2.99882,2.99882,0,0,1-1.341-1.90031,8.42783,8.42783,0,0,1-.1641-2.37657,5.38828,5.38828,0,0,1,.12924-1.20633,3.50283,3.50283,0,0,0,.32848-1.67474"/><path class="b9bb57e2-4d9e-4b93-868d-ed75fc94d913" d="M37.09677,75.44825a19.261,19.261,0,0,0,2.75629,3.05533,9.66713,9.66713,0,0,1,1.68357,1.93506,3.2575,3.2575,0,0,1,.45577,2.46267,1.98917,1.98917,0,0,1-1.8436,1.51485,2.19709,2.19709,0,0,1-1.83494-1.442,6.45825,6.45825,0,0,1-.33814-2.42929,9.872,9.872,0,0,0-.47654-4.0528"/><path class="ae597fd5-9980-4b1b-95d4-c0264e58e3a7" d="M65.38549,57.06a10.30069,10.30069,0,0,0-2.83064-1.98082,7.3221,7.3221,0,0,0-1.31414-.56656c-2.07016-.604-4.22877.464-6.07818,1.57311a5.50057,5.50057,0,0,0-1.58415,1.24948,1.95667,1.95667,0,0,0-.36331,1.90131c.55532,1.31483,1.93319,1.53123,3.19266,1.70151.5648.07637,3.60947.07679,2.04121,1.3563a6.45015,6.45015,0,0,1-1.495.61523c-.49254.22582-.9197.83878-.61261,1.28519a1.037,1.037,0,0,0,.52223.34413,5.14316,5.14316,0,0,0,3.48422-.30183,3.86759,3.86759,0,0,1,1.68517-.36432,7.55072,7.55072,0,0,0,1.89534.10393A3.89637,3.89637,0,0,0,66.04585,62.217C67.44369,60.31513,66.92793,58.70591,65.38549,57.06Z"/><path class="fafe6ce5-6e65-442d-9263-296b7de18fe4" d="M70.25828,69.01086a18.4697,18.4697,0,0,0,2.29791.81869,45.8283,45.8283,0,0,1,6.51029,2.58666A56.20379,56.20379,0,0,0,87.462,75.63757c7.05135,1.81881,14.22394,3.29615,21.01863,5.97483a23.01152,23.01152,0,0,1,5.83322-9.583c-.517.50792-10.11317-3.67182-11.29727-4.0706q-6.06988-2.04422-12.22721-3.81559c-5.588-1.60756-11.33309-2.56792-16.96274-4.01244a41.77652,41.77652,0,0,1-4.47825-1.34307c-.642-.24522-1.545-1.2695-2.29338-1.03781-.45218.14-.39835.48415-.56819.86882a13.68059,13.68059,0,0,1-2.88829,4.11858c-.36661.36558-1.61889,1.1194-1.54667,1.6794.07625.59123,1.17474,1.04522,1.59867,1.3369A35.10644,35.10644,0,0,0,70.25828,69.01086Z"/></g></g></g></svg>