<svg xmlns="http://www.w3.org/2000/svg" xmlns:xlink="http://www.w3.org/1999/xlink" viewBox="0 0 77.33333 103.93869"><defs><style>.a302d646-7f2d-4d1e-af10-e147e4eb20ed,.a7c72753-ea4f-46ab-8d89-82c9e28b990a,.aafb22a4-b861-4fc9-a472-1a4b29ac664c,.b5ee3cd4-7677-4c37-ba09-014e5e62d831,.e20717b8-bbe5-44b4-8681-23ab9e9c1469,.f1f247d8-3ec5-433f-93a1-b0bd77de266a,.f4ee5426-f0eb-4066-ab47-5dd4fdafc410{fill:none;}.a1bc9723-f3c8-4da0-81de-fa73fbc384bc{isolation:isolate;}.e09959cb-9b46-4ea7-995b-a239ef56ad58{fill:#a7a9ac;opacity:0.33;mix-blend-mode:multiply;}.f6440f6d-ad4a-4861-8f8f-d394a8585d62{clip-path:url(#a7f1cd97-5c89-4944-9b9b-733efe8db8aa);}.e0624d51-c072-4650-8a3f-9a6299d9af14{fill:#566345;}.ae52fe0f-7b5b-4a2b-aef7-01c7d48b425a{fill:#63774e;}.ff0849c5-0ef6-4cf5-94fb-725b4e3f9ac2{clip-path:url(#a40ab009-d01b-40cf-a42c-13679bc6547b);}.be2657df-d561-4ed9-8886-28ee3d52828e{fill:#f6d2ba;}.bf77dc7e-63ca-4887-bbeb-2c2ac08c0daf{fill:#3c2415;}.bf8e41cf-2aad-4eda-a86f-d0f83b158d29{fill:#fff;}.b764f5d9-a9b1-41cc-8651-1129f21d767b{fill:#6f825a;}.a635188d-7dd9-4da7-a932-ccc10012f40f{fill:#938c6c;}.e1a6e565-b62e-4985-bedb-037141f9cb2d{clip-path:url(#e6c7636e-3cff-4b03-8c55-a7f8bb4b2a0a);}.ef125ded-1f7d-4a16-9f43-0832d411dfed{fill:#d1d3d4;}.a7c72753-ea4f-46ab-8d89-82c9e28b990a,.b5ee3cd4-7677-4c37-ba09-014e5e62d831{stroke:#fff;}.a302d646-7f2d-4d1e-af10-e147e4eb20ed,.a7c72753-ea4f-46ab-8d89-82c9e28b990a,.aafb22a4-b861-4fc9-a472-1a4b29ac664c,.b5ee3cd4-7677-4c37-ba09-014e5e62d831,.f1f247d8-3ec5-433f-93a1-b0bd77de266a,.f4ee5426-f0eb-4066-ab47-5dd4fdafc410{stroke-miterlimit:10;}.b5ee3cd4-7677-4c37-ba09-014e5e62d831{stroke-width:2.10896px;}.a7c72753-ea4f-46ab-8d89-82c9e28b990a{stroke-width:0.84358px;}.e2692b35-7087-4906-ade0-85455af1a00f{fill:#0f2849;}.a09caa1c-0112-4c94-b649-e29357a1cb43{clip-path:url(#f6536646-43f2-423c-a207-4b80ffb95b3b);}.b0aa33e6-b539-4219-b3f9-4a7d23494e7b{fill:#808285;}.a302d646-7f2d-4d1e-af10-e147e4eb20ed,.aafb22a4-b861-4fc9-a472-1a4b29ac664c,.f1f247d8-3ec5-433f-93a1-b0bd77de266a,.f4ee5426-f0eb-4066-ab47-5dd4fdafc410{stroke:#bcbec0;}.aafb22a4-b861-4fc9-a472-1a4b29ac664c{stroke-width:0.42179px;}.f4ee5426-f0eb-4066-ab47-5dd4fdafc410{stroke-width:0.2109px;}.bfa40608-91c5-480e-8d5e-dbc55b42aed0{clip-path:url(#ecc59a28-5910-4d78-bd45-53f97efa85bf);}.a302d646-7f2d-4d1e-af10-e147e4eb20ed{stroke-width:0.36678px;}.f1f247d8-3ec5-433f-93a1-b0bd77de266a{stroke-width:0.18339px;}.b953c30e-a7ec-41f0-99f3-c538e445693a,.f7592075-e123-4e18-aa4a-d2419f91a186{fill:#af2027;}.b953c30e-a7ec-41f0-99f3-c538e445693a{mix-blend-mode:color-burn;}.bc05386a-df0b-4e15-8344-e0b421c6e623{fill:#59102e;}</style><clipPath id="a7f1cd97-5c89-4944-9b9b-733efe8db8aa"><rect class="e20717b8-bbe5-44b4-8681-23ab9e9c1469" x="-31.36621" y="-150.10396" width="130.18525" height="94.4406"/></clipPath><clipPath id="a40ab009-d01b-40cf-a42c-13679bc6547b"><rect class="e20717b8-bbe5-44b4-8681-23ab9e9c1469" x="-24.43776" y="-4.91912" width="135.6536" height="108.85783"/></clipPath><clipPath id="e6c7636e-3cff-4b03-8c55-a7f8bb4b2a0a"><path class="e20717b8-bbe5-44b4-8681-23ab9e9c1469" d="M24.80967,61.43746S48.188,73.48171,49.7622,75.48436c0,0-9.95909,2.3975-25.37084-7.44664l1.73612-2.65956-2.78832-1.79025Z"/></clipPath><clipPath id="f6536646-43f2-423c-a207-4b80ffb95b3b"><path class="e20717b8-bbe5-44b4-8681-23ab9e9c1469" d="M24.47649,64.33613a9.04946,9.04946,0,0,1,1.65938-2.21183,4.27037,4.27037,0,0,0-1.29978-.74164l-1.49693,2.20525Z"/></clipPath><clipPath id="ecc59a28-5910-4d78-bd45-53f97efa85bf"><path class="e20717b8-bbe5-44b4-8681-23ab9e9c1469" d="M11.24049,56.07034a12.571,12.571,0,0,1,1.74973-2.26993,3.66,3.66,0,0,0-1.10785-.668l-1.25831,1.9555Z"/></clipPath></defs><title>Artboard 172</title><g class="a1bc9723-f3c8-4da0-81de-fa73fbc384bc"><g id="bf8c0204-d592-4c75-92ec-090e49b20295" data-name="Layer 1"><ellipse class="e09959cb-9b46-4ea7-995b-a239ef56ad58" cx="106.24273" cy="16.36256" rx="6.94095" ry="50.24166" transform="translate(30.09842 92.23941) rotate(-53.65459)"/><g class="f6440f6d-ad4a-4861-8f8f-d394a8585d62"><path class="e0624d51-c072-4650-8a3f-9a6299d9af14" d="M-12.46307-50.858c1.43953.58457-2.95657,8.06253-3.38291,8.87361a24.04879,24.04879,0,0,0-2.78821,12.86442c.1438,6.05077.35678,12.09843.55859,18.14737.19,5.69436-2.23085,8.88476-4.93206,13.76326a45.37039,45.37039,0,0,0-5.04989,14.62638,45.16043,45.16043,0,0,0-.52351,9.87469c.06655,1.15446-.12074,3.51657.43264,4.52193,1.14171,2.0738,7.3834,3.70885,9.5517,3.88856a72.97957,72.97957,0,0,1,1.09608-8.18151,67.44436,67.44436,0,0,1,6.85977-19.374A46.98221,46.98221,0,0,0-6.184-1.899Q-3.392-11.8955-1.10364-22.02038C.532-29.2615,2.88292-35.97527,4.958-43.13137a3.43056,3.43056,0,0,0,.17938-1.87733c-.70228-2.44041-5.66846-2.07583-7.466-2.31216C-5.88391-47.78866-9.17619-49.52322-12.46307-50.858Z"/><path class="ae52fe0f-7b5b-4a2b-aef7-01c7d48b425a" d="M-11.69814-57.12632c-.928-2.87809-3.66263-3.502-5.98029-2.01344-3.628,2.33018-6.56634,3.88915-9.147,7.54379-2.55515,3.61845-3.05747,7.59421-4.80186,11.44536-1.83288,4.04648-4.42518,7.91261-6.59074,11.80134-1.68647,3.02842-3.1532,5.81862-6.35115,7.477-1.63888.8499-3.21653.72909-4.93625.98207a34.101,34.101,0,0,0-12.8926,5.02045C-67.73-11.46626-73.16147-7.97506-77.13122-3.0502-78.14568-1.79167-79.04465-.447-80.03277.83126c-.94644,1.22436-2.97714,2.37218-1.58251,3.71132a22.60021,22.60021,0,0,1,3.79835,3.86964C-79.24627,6.16952-61.759-1.70295-60.11327-2.40784c4.47765-1.91782,9.00406-2.99319,13.563-4.54743C-42.712-8.26381-38.465-8.62782-34.88478-10.67744a30.078,30.078,0,0,0,5.70761-4.63947c5.0345-4.83864,10.04742-9.761,14.11777-15.43469a2.294,2.294,0,0,1,.60552-.64972,2.25178,2.25178,0,0,1,.848-.25451c3.79848-.60974,5.7006-1.35706,8.62611-3.91617a91.82,91.82,0,0,0,10.536-10.8727,18.04125,18.04125,0,0,0-9.071-1.78951"/></g><g class="ff0849c5-0ef6-4cf5-94fb-725b4e3f9ac2"><path class="e0624d51-c072-4650-8a3f-9a6299d9af14" d="M28.39919,134.27143q-.99241.29037-1.97917.54472c-12.23944,3.16091-26.90279,2.562-33.91185,15.4067-5.566,10.20019-7.24248,21.691-12.94791,31.82946a92.38787,92.38787,0,0,1-5.22945,7.95442l-7.6584,10.82106a16.08873,16.08873,0,0,0-12.59527-7.08787c7.06587-7.63391,7.33364-18.578,10.5894-27.759,6.85025-19.31713,11.64192-42.97551,33.71892-49.8326,2.47039-.7673,4.9347-1.57815,7.35689-2.48746,2.07285-.77816,3.7495-1.942,5.89508-2.625,4.866-1.54911,9.96193-2.81133,14.71182-4.68258a15.7121,15.7121,0,0,0,6.52947-5.44377,33.94092,33.94092,0,0,1,5.84878-6.39177C50.492,84.82089,50.508,101.854,50.75657,109.73559,51.188,123.41115,40.28036,130.79508,28.39919,134.27143Z"/><path class="e0624d51-c072-4650-8a3f-9a6299d9af14" d="M22.67541,82.312c-2.25948,3.82125-6.2438,7.33737-9.03135,10.10953a89.84888,89.84888,0,0,1-9.42644,8.15552q-2.54538,1.91-5.22267,3.63522c-.91176.58733-1.75176.79763-1.89906,1.84173-.15371,1.08961.63536,2.82439,1.00979,3.83275.58461,1.57441,1.50463,3.479,3.27352,3.865a16.78344,16.78344,0,0,0,5.39393.2969c1.9895-.27286,3.90263-2.29739,5.44611-3.48374L30.81611,96.271a15.6388,15.6388,0,0,0,3.21-2.98581c1.61907-2.20427,1.909-5.55233,2.72-8.152,1.12653-3.61119,2.09979-7.24366,3.407-10.80054a13.32247,13.32247,0,0,0,.82061-2.88827c.66924-5.28423-3.42039-11.9672-5.2599-16.74994a50.376,50.376,0,0,1-1.78929-7.61693c-.48779-2.26231-.76956-5.27032-3.15494-3.01315a21.58927,21.58927,0,0,0-4.62071,7.70988c-2.64476,8.06947-.55177,17.98728-1.83251,26.26431A12.148,12.148,0,0,1,22.67541,82.312Z"/><path class="be2657df-d561-4ed9-8886-28ee3d52828e" d="M33.73946,3.21423A16.67313,16.67313,0,0,0,24.02672,9.538c-2.92427,3.823-2.794,9.08754-2.05589,13.602.63909,3.90885,1.72317,10.689,4.80057,13.51507,1.97564,1.81422,7.65038,1.60178,9.83905.49674a2.57439,2.57439,0,0,1,2.44863-.22633,2.53606,2.53606,0,0,1,.69626.73267,4.93094,4.93094,0,0,1,.84177,4.88908,17.77112,17.77112,0,0,0-.96652,6.73c.06354,1.25873.37191,2.68172,1.464,3.31087,1.04684.60309,2.37121.2206,3.47842-.26282a22.65312,22.65312,0,0,0,7.14068-4.93883A8.272,8.272,0,0,0,53.38817,45.124c1.39518-3.04763-.14092-6.31357-1.4776-9.0465-3.564-7.287-1.79788-16.1534-4.55165-23.78354-.471-1.30519-1.0701-2.55982-1.6681-3.81193A10.083,10.083,0,0,0,43.897,5.27576a9.43368,9.43368,0,0,0-3.18241-1.62392A13.4566,13.4566,0,0,0,33.73946,3.21423Z"/><path class="bf77dc7e-63ca-4887-bbeb-2c2ac08c0daf" d="M21.57662,9.1848a15.63705,15.63705,0,0,1,4.054-5.42567C26.12072,3.3586,31.76583-.1751,31.736,1.271a1.036,1.036,0,0,1-.1706.442,2.19181,2.19181,0,0,0-.23542,1.28862C31.76012,1.54212,33.36332.826,34.78841.29282c1.069,3.65455,5.99382,2.1114,8.62919,3.39828a12.87436,12.87436,0,0,1,5.56394,5.18211c2.99932,5.33142,1.95225,11.51726,1.57681,17.36911a7.55635,7.55635,0,0,1-.39066,2.59143A1.96808,1.96808,0,0,1,47.56375,29.944c-1.56723-.70166.24139,1.068-1.31623.34611a2.952,2.952,0,0,1-.70936-.52092c-1.20386-1.08506-2.3717-2.24666-3.66524-3.22411-1.07558-.81274-1.23321-1.17625-.51414-2.48992a4.992,4.992,0,0,0,.41887-3.738,1.62637,1.62637,0,0,0-.54917-.912c-.62649-.445-1.52421-.031-2.06609.51807C37.544,21.563,37.59671,22.00554,36.338,19.72482c-.71341-1.2926-5.503-1.999-7.083-2.61076-2.01653-.78-4.468.53826-6.5614-.066C19.60783,16.15742,20.5575,11.37547,21.57662,9.1848Z"/><path class="ae52fe0f-7b5b-4a2b-aef7-01c7d48b425a" d="M42.83628,143.72855c-5.21014,1.56359-10.539,2.54856-15.90746,4.35208a12.07026,12.07026,0,0,0-4.48977,2.35,10.728,10.728,0,0,0-2.60317,4.41174c-2.42137,6.91693-1.704,14.52416-4.31148,21.38894a147.98409,147.98409,0,0,1-9.36573,20.13233,92.38958,92.38958,0,0,1-5.22945,7.95443l-7.6584,10.82105a16.08876,16.08876,0,0,0-12.59527-7.08787c7.06587-7.63391,7.33364-18.578,10.5894-27.759,6.85025-19.31713-.52262-47.84069,21.55438-54.69778,2.47039-.7673,4.93469-1.57816,7.35688-2.48746,2.07286-.77816,3.7495-1.942,5.89509-2.625l15.29255-4.86842c-.10237.03259-1.88094-.79484-2.20533-.85872a16.10365,16.10365,0,0,1-2.86683-.46561c-2.03073-.8014-3.70889-3.03758-5.18489-4.57949-.46226-.4829-.9192-1.269-.44994-1.74514a1.304,1.304,0,0,1,.87088-.28124,24.231,24.231,0,0,1,6.22945.407c3.633.716,7.99739,2.60562,11.15291-.28036,1.41059-1.2901,2.77572-2.62974,4.25126-3.84612,11.76451-9.69683,11.78046,7.33632,12.02908,15.21788.27994,8.87489-4.78295,15.95239-12.24012,20.30712A45.76373,45.76373,0,0,1,42.83628,143.72855Z"/><path class="bf8e41cf-2aad-4eda-a86f-d0f83b158d29" d="M39.72518,40.96956c.66126.06258.81128,1.06441,1.16251,1.50743A5.35674,5.35674,0,0,0,42.819,43.828a6.448,6.448,0,0,0,4.43741.364c.57317-.16718,6.36792-3.193,6.17157-3.61524.97761,2.10214.24949,4.84319.26862,7.08291q.03168,3.70624.004,7.41268c-.03463,4.89129-.14023,9.78186-.29024,14.6709-.15008,4.89157-.345,9.78163-.5552,14.67094-.05577,1.29722-.19248,14.49765-.64607,14.57451a57.98541,57.98541,0,0,1-19.77334-.07728q-.0199-6.45817.206-12.914.594-16.98489,2.88152-33.854a40.37218,40.37218,0,0,1,1.6229-7.7194c.31252-.91046.97722-2.63238,1.79052-3.18189A1.24526,1.24526,0,0,1,39.72518,40.96956Z"/><path class="ae52fe0f-7b5b-4a2b-aef7-01c7d48b425a" d="M63.24865,39.52578c-1.18589-.50731-2.3428-1.09966-3.55086-1.55381-1.91825-.72113-4.13946-1.06856-5.969-.14527A7.4533,7.4533,0,0,0,50.5,40.79568c-1.85588,3.64747-3.70252,7.30721-5.626,10.91888-.52743.99031-1.145,1.95531-1.6273,2.967a16.7351,16.7351,0,0,1-.87549,2.18532c-.89377-3.13528-.92115-6.61195-1.231-9.84524-.11956-1.24737-.263-2.4929-.34695-3.74343-.04224-.62951-.07256-1.26016-.07536-1.8912-.00172-.38932.26039-1.60114.06844-1.90663-1.40186-2.23113-8.588,1.03621-9.95978,2.00692-3.08408,2.18246-2.81776,4.57161-2.40773,7.76461.53961,4.202.479,8.739.70544,12.98942.606,11.37646.825,22.78913.74729,34.1479a18.59152,18.59152,0,0,0,.77182,6.03753,7.99823,7.99823,0,0,0,1.30485,2.67925c.5562.609,1.30294.68893,2.00921,1.12209.8402.51569,1.4526,1.24658,2.23345,1.834,3.37963,2.54228,10.82418.95056,14.75642.71949,4.55187-.26739,9.872-.52212,14.17868-2.04037-.0992-1.87968-.90354-3.42846-1.23687-5.2286-.451-2.43541-.03772-5.28717.12546-7.7426.33883-5.09865,1.04569-10.16484,1.39919-15.26246.69574-10.0328,5.51313-19.06568,5.80248-29.19956.07553-2.6455-.09285-6.71082-2.789-8.12949A14.12723,14.12723,0,0,0,65.3865,40.287,15.58526,15.58526,0,0,1,63.24865,39.52578Z"/><path class="b764f5d9-a9b1-41cc-8651-1129f21d767b" d="M42.13745,61.347q.03636-.26559.074-.529a23.35187,23.35187,0,0,0-.459-8.46218,2.22378,2.22378,0,0,0-.60375-1.35519c.00209,4.95915-1.32269,9.63637-1.712,14.51513-1.12573,14.1069.14113,28.20755-1.66163,42.26331a.541.541,0,0,0,.04061.36518.52.52,0,0,0,.35982.18243,4.17764,4.17764,0,0,0,1.832-.071.70518.70518,0,0,0,.40557-.22428.74755.74755,0,0,0,.10716-.3866c.24011-2.87227-.10771-5.90976-.07915-8.80717.04469-4.53352.08939-9.06742.22694-13.59934.13885-4.57451.37254-9.14561.65352-13.71348a56.16036,56.16036,0,0,1,2.47038-15.67292,9.73787,9.73787,0,0,0,.53919-2.67329,7.32085,7.32085,0,0,0-2.44124,3.708,18.14688,18.14688,0,0,0-.62173-5.26621"/><path class="be2657df-d561-4ed9-8886-28ee3d52828e" d="M50.868,85.09289c-3.49244.00467-6.94271.43692-10.38666.686-2.61908.18918-5.25893,1.0525-1.78306,2.9431-.03977-.02167-2.36635,1.32071-2.73043,1.43973-1.122.3668-2.35846.36193-3.25261,1.246a3.49235,3.49235,0,0,0-.72461,3.65507,4.66392,4.66392,0,0,0,4.50716,3.11534c7.85761-.43583,14.38129-5.96693,20.3994-11.279C55.47428,84.56814,53.31705,85.08961,50.868,85.09289Z"/><path class="b764f5d9-a9b1-41cc-8651-1129f21d767b" d="M74.796,57.04531q1.38467,7.90351,2.17349,15.89609c.22924,2.324.386,4.8188-.777,6.84389-1.22405,2.13127-3.62145,3.25012-5.871,4.24012l-7.69277,3.3855C58.30891,89.312,54.3478,91.37075,50.088,93.46943c-1.5883.78251-3.27048,2.23362-4.69748.60633a30.95065,30.95065,0,0,1-3.926-6.41264c-.359-.70452-.94949-1.34065-.44982-1.9609.4131-.51279,1.67409-.6992,2.29769-1.00112C48.2296,82.32035,52.16546,78.886,57.02674,76.456c2.68651-1.34287,4.66637-3.47239,7.80081-3.66771.62111-.03895-5.31569-21.30218-5.41418-23.14929-.17572-3.29538-.3156-7.97625,4.5106-8.63527C73.30589,39.72275,73.64966,50.50187,74.796,57.04531Z"/><path class="a635188d-7dd9-4da7-a932-ccc10012f40f" d="M64.7565,103.34693c.11377,1.26211.57485,3.045.23253,4.1606-.3279,1.06863-1.61163,1.23481-2.51574,1.50557A43.5427,43.5427,0,0,1,51.87487,110.282a71.8142,71.8142,0,0,1-13.59715-.77054,33.22336,33.22336,0,0,1-4.62551-.8622c-1.18379-.35842-4.25038-1.62446-4.43-3.04468a2.61385,2.61385,0,0,1,.2229-1.212c.55373-1.50174.96025-3.027,1.41769-4.54625,1.00838.07585,2.05377.89385,3.02362,1.25272,1.23964.45871,2.43475,1.15272,3.70969,1.49623a33.76849,33.76849,0,0,0,5.17158.92148c5.57416.59805,11.03307-.12022,16.532-.98322,1.25314-.19666,2.50848-.39216,3.74577-.67474.39121-.08934,1.19626-.48613,1.53923-.21266.27984.22313.13785,1.12819.15311,1.43833Q64.74407,103.21123,64.7565,103.34693Z"/><g class="e1a6e565-b62e-4985-bedb-037141f9cb2d"><path class="ef125ded-1f7d-4a16-9f43-0832d411dfed" d="M24.80967,61.43746S48.188,73.48171,49.7622,75.48436c0,0-9.95909,2.3975-25.37084-7.44664l1.73612-2.65956-2.78832-1.79025Z"/><line class="b5ee3cd4-7677-4c37-ba09-014e5e62d831" x1="26.76053" y1="70.87359" x2="36.73586" y2="62.81805"/><line class="a7c72753-ea4f-46ab-8d89-82c9e28b990a" x1="29.07042" y1="72.47602" x2="37.18184" y2="66.10959"/></g><path class="e2692b35-7087-4906-ade0-85455af1a00f" d="M12.52646,53.51919l12.505,7.99662-1.562,2.085s-7.22365-3.05032-9.0386-3.87959a6.09709,6.09709,0,0,1-3.19043-3.65085C10.86538,54.87264,12.52646,53.51919,12.52646,53.51919Z"/><g class="a09caa1c-0112-4c94-b649-e29357a1cb43"><path class="b0aa33e6-b539-4219-b3f9-4a7d23494e7b" d="M24.47649,64.33613a9.04946,9.04946,0,0,1,1.65938-2.21183,4.27037,4.27037,0,0,0-1.29978-.74164l-1.49693,2.20525Z"/><line class="aafb22a4-b861-4fc9-a472-1a4b29ac664c" x1="23.95796" y1="62.67631" x2="25.06217" y2="63.38498"/><line class="f4ee5426-f0eb-4066-ab47-5dd4fdafc410" x1="24.16671" y1="62.06942" x2="25.54582" y2="62.8903"/></g><g class="bfa40608-91c5-480e-8d5e-dbc55b42aed0"><path class="b0aa33e6-b539-4219-b3f9-4a7d23494e7b" d="M11.24049,56.07034a12.571,12.571,0,0,1,1.74973-2.26993,3.66,3.66,0,0,0-1.10785-.668l-1.25831,1.9555Z"/><line class="a302d646-7f2d-4d1e-af10-e147e4eb20ed" x1="11.14422" y1="54.27955" x2="12.08582" y2="54.91706"/><line class="f1f247d8-3ec5-433f-93a1-b0bd77de266a" x1="11.31797" y1="53.74023" x2="12.49363" y2="54.47926"/></g><path class="b953c30e-a7ec-41f0-99f3-c538e445693a" d="M37.75381,72.33414a5.43822,5.43822,0,0,1-.46456,1.05983c-.297.49027-.46136,1.19947-.033,1.58035.46154.41037,1.29021.13276,1.72516.57121.6159.62085-.3015,1.6873-.0347,2.52012.2608.8141,1.45847.92062,1.88461,1.66169.57516,1.00024-.60506,2.42624.0812,3.35377a1.29964,1.29964,0,0,0,1.89944-.01435,2.37909,2.37909,0,0,0,.483-2.029,19.641,19.641,0,0,0-.60323-2.07486,2.32085,2.32085,0,0,1-.00822-1.54757c.313-.70482,1.129-1.00524,1.73165-1.48637a3.20308,3.20308,0,0,0,1.07906-3.21989,1.04961,1.04961,0,0,0-.23287-.48032,2.631,2.631,0,0,0-.53346-.33039,2.121,2.121,0,0,1-.78992-1.34667,4.32656,4.32656,0,0,0-.52254-1.50284,3.77971,3.77971,0,0,0-3.38471-1.06322C38.60563,68.63292,38.29373,70.74173,37.75381,72.33414Z"/><path class="ae52fe0f-7b5b-4a2b-aef7-01c7d48b425a" d="M44.12681,71.4687a7.14425,7.14425,0,0,1-.369,4.20185,5.7862,5.7862,0,0,0-.3821,1.04184,1.26783,1.26783,0,0,0,.20249,1.05577,1.30286,1.30286,0,0,0,1.08456.3868,8.94323,8.94323,0,0,0,1.172-.22537,22.24483,22.24483,0,0,1,2.63554-.13866,3.274,3.274,0,0,0,2.36335-1.00359,3.77661,3.77661,0,0,0,.5624-2.62131,2.9095,2.9095,0,0,0-.30815-1.33654,3.12665,3.12665,0,0,0-1.38246-1.06335A16.93691,16.93691,0,0,0,46.124,70.30861a2.77554,2.77554,0,0,0-1.3396-.062,1.19616,1.19616,0,0,0-.911.89887"/><path class="bc05386a-df0b-4e15-8344-e0b421c6e623" d="M40.57447,68.61a4.412,4.412,0,0,1,3.13741,1.52941c.24213.30916.28234.72388.52307,1.04478a3.88213,3.88213,0,0,1,.79732,1.14857,3.0605,3.0605,0,0,1,.10967,1.52831,5.28848,5.28848,0,0,1-1.49979,2.409,1.47582,1.47582,0,0,1-.64646.48159.98809.98809,0,0,1-1.05282-.52914c-.06467-.11478-.14039-.25746-.27213-.25894a.27438.27438,0,0,1-.10569-.00369c-.03271-.014-.04456-.07134-.01027-.08087-.35638-.006-.64839.01973-1.00477.01372a1.624,1.624,0,0,1-.90884-.1955,2.9988,2.9988,0,0,0,1.341-1.90031,8.4282,8.4282,0,0,0,.16411-2.37657A5.38887,5.38887,0,0,0,41.017,70.214a3.50294,3.50294,0,0,1-.32848-1.67474"/><path class="f7592075-e123-4e18-aa4a-d2419f91a186" d="M40.25281,74.736a19.26145,19.26145,0,0,1-2.75628,3.05533A9.6666,9.6666,0,0,0,35.813,79.72638a3.25743,3.25743,0,0,0-.45578,2.46266,1.98919,1.98919,0,0,0,1.8436,1.51485,2.1971,2.1971,0,0,0,1.83495-1.442,6.45863,6.45863,0,0,0,.33814-2.42929,9.87176,9.87176,0,0,1,.47653-4.05279"/></g></g></g></svg>