<svg xmlns="http://www.w3.org/2000/svg" xmlns:xlink="http://www.w3.org/1999/xlink" viewBox="0 0 101.56224 103.63475"><defs><style>.a07069ba-030b-4dd0-a69a-a6194c91f051,.a7269094-5df8-4e11-9554-8941062c92d2,.a9ec94ed-c067-468d-9df3-76328ef5adb5,.aeb7f888-b51d-462d-bf9b-89c78a336c10,.b984be84-edbf-4932-a481-f83550a4ffea,.e730b8da-5d21-4717-a2cd-6a2686e87055,.ea18bbab-8e30-4fc2-bdec-6a09a0130d6e{fill:none;}.bafa4501-40f7-4661-930f-58072f529808{isolation:isolate;}.a6a2415a-a155-45da-a157-ba7b38a1c56e{clip-path:url(#a29bac00-c96d-40b0-b83b-c0d584ba5b3b);}.beaad97e-f6ed-42ab-8e35-733c9654467f{fill:#566345;}.b8c6af19-aaea-4606-8729-6f0ab3716302{fill:#1a242d;}.eeb2692a-daea-43a2-a81f-ee210eb3e505{clip-path:url(#b368f031-c0ea-48ff-9566-8199bad06850);}.a04ee15e-2099-4e94-a864-8451edf61a4c{fill:#f6d2ba;}.ac3a25cd-3fbe-46c4-9b4e-66e90a5d1a42{fill:#3c2415;}.ba14c74b-cfa7-4737-9e0b-2e83535018a5{fill:#63774e;}.bc615702-d819-485e-ba43-4ec7e23a6563{fill:#fff;}.eb3aa730-d61c-4e82-8989-7348451e284f{fill:#6f825a;}.b02ce460-0782-42b5-b2ba-7953daf8f5cf{fill:#938c6c;}.af34d883-3549-4359-a37e-3b2e98e6d7f7,.f3e1fc3d-389b-420a-8621-abfc84c2e9c1{fill:#af2027;}.af34d883-3549-4359-a37e-3b2e98e6d7f7{mix-blend-mode:color-burn;}.bf78f0bd-75f6-49c3-b9b1-7e048d85dbf4{fill:#59102e;}.f145c2ca-1b12-4455-8da2-44c33f5b7e7d{clip-path:url(#eb6c38bc-05ec-411e-b9c1-5b65218e256c);}.aa7bdff7-3851-4084-852b-792b3bef00ef{fill:#d1d3d4;}.aeb7f888-b51d-462d-bf9b-89c78a336c10,.b984be84-edbf-4932-a481-f83550a4ffea{stroke:#fff;}.a07069ba-030b-4dd0-a69a-a6194c91f051,.a9ec94ed-c067-468d-9df3-76328ef5adb5,.aeb7f888-b51d-462d-bf9b-89c78a336c10,.b984be84-edbf-4932-a481-f83550a4ffea,.e730b8da-5d21-4717-a2cd-6a2686e87055,.ea18bbab-8e30-4fc2-bdec-6a09a0130d6e{stroke-miterlimit:10;}.b984be84-edbf-4932-a481-f83550a4ffea{stroke-width:2.10896px;}.aeb7f888-b51d-462d-bf9b-89c78a336c10{stroke-width:0.84358px;}.afe721cd-86d2-4892-ade0-42b4f21811cd{fill:#0f2849;}.f566af66-46fc-4188-b12f-4ef4bb2dbc6b{clip-path:url(#eae8c604-962b-4c0e-a983-acac2ddad8fd);}.afe9d324-f423-448f-9393-dbfafd98352f{fill:#808285;}.a07069ba-030b-4dd0-a69a-a6194c91f051,.a9ec94ed-c067-468d-9df3-76328ef5adb5,.e730b8da-5d21-4717-a2cd-6a2686e87055,.ea18bbab-8e30-4fc2-bdec-6a09a0130d6e{stroke:#bcbec0;}.a9ec94ed-c067-468d-9df3-76328ef5adb5{stroke-width:0.42179px;}.e730b8da-5d21-4717-a2cd-6a2686e87055{stroke-width:0.2109px;}.a6bb8d52-558d-47f7-90fd-acfbd0737e17{clip-path:url(#fc2fd406-7558-4a2b-97e7-31d3e27d1b02);}.ea18bbab-8e30-4fc2-bdec-6a09a0130d6e{stroke-width:0.36678px;}.a07069ba-030b-4dd0-a69a-a6194c91f051{stroke-width:0.18339px;}.b73ab60f-3955-4e0e-b019-63daf06916f6{fill:#ef5b5b;}</style><clipPath id="a29bac00-c96d-40b0-b83b-c0d584ba5b3b"><rect class="a7269094-5df8-4e11-9554-8941062c92d2" x="101.56224" y="-140.41912" width="135.6536" height="108.85783"/></clipPath><clipPath id="b368f031-c0ea-48ff-9566-8199bad06850"><rect class="a7269094-5df8-4e11-9554-8941062c92d2" x="-34.09136" y="-5.22308" width="135.6536" height="108.85783" transform="translate(67.47088 98.41167) rotate(-180)"/></clipPath><clipPath id="eb6c38bc-05ec-411e-b9c1-5b65218e256c"><path class="a7269094-5df8-4e11-9554-8941062c92d2" d="M70.41727,52.7117S47.039,64.756,45.46475,66.7586c0,0,9.95909,2.3975,25.37084-7.44664L69.09946,56.6524l2.78833-1.79025Z"/></clipPath><clipPath id="eae8c604-962b-4c0e-a983-acac2ddad8fd"><path class="a7269094-5df8-4e11-9554-8941062c92d2" d="M70.75046,55.61037a9.04946,9.04946,0,0,0-1.65938-2.21183,4.27014,4.27014,0,0,1,1.29978-.74164l1.49693,2.20525Z"/></clipPath><clipPath id="fc2fd406-7558-4a2b-97e7-31d3e27d1b02"><path class="a7269094-5df8-4e11-9554-8941062c92d2" d="M83.98646,47.34457a12.571,12.571,0,0,0-1.74973-2.26992,3.65973,3.65973,0,0,1,1.10785-.668l1.25831,1.9555Z"/></clipPath></defs><title>Artboard 179</title><g class="bafa4501-40f7-4661-930f-58072f529808"><g id="b3127ec9-ccd3-4db7-9337-d3ecb09d4ffc" data-name="Layer 1"><g class="a6a2415a-a155-45da-a157-ba7b38a1c56e"><path class="beaad97e-f6ed-42ab-8e35-733c9654467f" d="M154.39919-1.22857q-.99241.29037-1.97917.54472c-12.23944,3.16091-26.90279,2.562-33.91185,15.4067-5.566,10.20019-7.24248,21.691-12.94791,31.82946a92.38787,92.38787,0,0,1-5.22945,7.95442l-7.6584,10.82106a16.08873,16.08873,0,0,0-12.59527-7.08787c7.06587-7.63391,7.33364-18.578,10.5894-27.759,6.85025-19.31713,11.64192-42.97551,33.71892-49.8326,2.47039-.7673,4.9347-1.57815,7.35689-2.48746,2.07285-.77816,3.7495-1.942,5.89508-2.625,4.866-1.54911,9.96193-2.81133,14.71182-4.68258a15.7121,15.7121,0,0,0,6.52947-5.44377,33.94092,33.94092,0,0,1,5.84878-6.39177C176.492-50.67911,176.508-33.646,176.75657-25.76441,177.188-12.08885,166.28036-4.70492,154.39919-1.22857Z"/><path class="b8c6af19-aaea-4606-8729-6f0ab3716302" d="M90.32838,63.57591c1.07281,1.20715,2.10539,2.23792,2.27422,3.93315.22012,2.21017-1.20567,3.91366-2.64986,5.35644a4.32,4.32,0,0,1-2.05154,1.28608,4.78392,4.78392,0,0,1-2.21561-.18554,19.46884,19.46884,0,0,1-8.962-5.29314,10.5572,10.5572,0,0,1-3.17134-5.96608c-.24029-2.26351.8672-4.72888,2.96967-5.50965,2.29288-.85148,4.83563.43058,7.00749,1.67238a9.45661,9.45661,0,0,0,3.34733,1.59238,3.61844,3.61844,0,0,1,.855.16008c.50388.19852.74588.953,1.10056,1.354C89.31565,62.52251,89.84331,63.0301,90.32838,63.57591Z"/><path class="b8c6af19-aaea-4606-8729-6f0ab3716302" d="M111.62449,72.83927c1.79733.31768,3.43367.51845,4.791,1.77379,1.76959,1.63668,1.742,3.86327,1.51229,5.89222a3.89449,3.89449,0,0,1-.87128,2.27089,5.21355,5.21355,0,0,1-2.06481,1.19171,24.1,24.1,0,0,1-11.59456,1.18278,13.13918,13.13918,0,0,1-7.02449-2.859c-1.82526-1.66719-2.61912-4.31132-1.34273-6.20837,1.392-2.06886,4.52481-2.58041,7.30542-2.89984a11.50817,11.50817,0,0,0,4.05606-.74976,4.09036,4.09036,0,0,1,.85992-.389c.58117-.14584,1.33079.31193,1.92634.41848C109.98932,72.60837,110.81184,72.69563,111.62449,72.83927Z"/></g><g class="eeb2692a-daea-43a2-a81f-ee210eb3e505"><path class="beaad97e-f6ed-42ab-8e35-733c9654467f" d="M48.72529,133.96747q.9924.29037,1.97917.54471c12.23944,3.16092,26.90279,2.562,33.91185,15.4067,5.566,10.2002,7.24248,21.691,12.94791,31.82947a92.38787,92.38787,0,0,0,5.22945,7.95442l7.65839,10.82106a16.0888,16.0888,0,0,1,12.59528-7.08788c-7.06587-7.63391-7.33365-18.578-10.5894-27.759-6.85025-19.31713-11.64193-42.97551-33.71893-49.8326-2.47038-.7673-4.93469-1.57816-7.35688-2.48746-2.07285-.77816-3.7495-1.942-5.89508-2.625-4.866-1.54911-9.96193-2.81133-14.71182-4.68259a15.71209,15.71209,0,0,1-6.52948-5.44376A33.9412,33.9412,0,0,0,38.397,94.21375c-11.7645-9.69682-11.78046,7.33632-12.02907,15.21787C25.93653,123.10718,36.84412,130.49112,48.72529,133.96747Z"/><path class="beaad97e-f6ed-42ab-8e35-733c9654467f" d="M54.44907,82.008c2.25948,3.82125,6.2438,7.33736,9.03135,10.10952a89.849,89.849,0,0,0,9.42644,8.15553q2.54538,1.91,5.22266,3.63522c.91177.58733,1.75177.79762,1.89906,1.84172.15372,1.08962-.63535,2.8244-1.00978,3.83276-.58461,1.57441-1.50463,3.47895-3.27352,3.865a16.78376,16.78376,0,0,1-5.39394.2969c-1.98949-.27287-3.90262-2.29739-5.4461-3.48374L46.30837,95.96707a15.63934,15.63934,0,0,1-3.21-2.9858c-1.61906-2.20427-1.909-5.55233-2.72-8.152-1.12653-3.61118-2.09979-7.24365-3.407-10.80053a13.32317,13.32317,0,0,1-.8206-2.88827c-.66924-5.28424,3.42038-11.96721,5.25989-16.74994A50.37384,50.37384,0,0,0,43.2,46.7736c.48779-2.26231.76956-5.27032,3.15495-3.01315a21.58916,21.58916,0,0,1,4.6207,7.70988c2.64477,8.06947.55178,17.98728,1.83251,26.26431A12.14832,12.14832,0,0,0,54.44907,82.008Z"/><path class="a04ee15e-2099-4e94-a864-8451edf61a4c" d="M43.385,2.91027A16.67308,16.67308,0,0,1,53.09775,9.234c2.92428,3.823,2.794,9.08754,2.0559,13.602-.6391,3.90884-1.72317,10.689-4.80057,13.51507-1.97564,1.81421-7.65038,1.60178-9.839.49674a2.57439,2.57439,0,0,0-2.44863-.22633,2.536,2.536,0,0,0-.69626.73266,4.931,4.931,0,0,0-.84177,4.88909,17.77107,17.77107,0,0,1,.96652,6.73c-.06354,1.25874-.37192,2.68173-1.464,3.31088-1.04685.60308-2.37121.2206-3.47842-.26283a22.653,22.653,0,0,1-7.14068-4.93883,8.27149,8.27149,0,0,1-1.67449-2.26245c-1.39518-3.04762.14092-6.31356,1.4776-9.0465,3.564-7.287,1.79788-16.15339,4.55165-23.78354.471-1.30518,1.0701-2.55981,1.6681-3.81192a10.083,10.083,0,0,1,1.79378-3.2063,9.43364,9.43364,0,0,1,3.18242-1.62392A13.4566,13.4566,0,0,1,43.385,2.91027Z"/><path class="ac3a25cd-3fbe-46c4-9b4e-66e90a5d1a42" d="M55.54786,8.88084a15.63718,15.63718,0,0,0-4.054-5.42568C51.00376,3.05464,45.35865-.47907,45.38852.967a1.03606,1.03606,0,0,0,.1706.442,2.19181,2.19181,0,0,1,.23542,1.28862C45.36436,1.23816,43.76116.522,42.33607-.01115c-1.069,3.65456-5.99383,2.11141-8.62919,3.39829a12.87433,12.87433,0,0,0-5.56394,5.1821c-2.99933,5.33143-1.95226,11.51727-1.57681,17.36912a7.55625,7.55625,0,0,0,.39065,2.59142,1.96809,1.96809,0,0,0,2.604,1.11028c1.56723-.70167-.24139,1.068,1.31622.34611a2.95181,2.95181,0,0,0,.70936-.52092c1.20387-1.08507,2.37171-2.24667,3.66525-3.22411,1.07558-.81274,1.23321-1.17625.51414-2.48993a4.992,4.992,0,0,1-.41887-3.738,1.62634,1.62634,0,0,1,.54917-.912c.62649-.445,1.52421-.031,2.06609.51807,1.61842,1.63975,1.56567,2.08228,2.82443-.19843.71341-1.2926,5.503-1.999,7.083-2.61077,2.01653-.78,4.468.53827,6.5614-.066C57.51665,15.85345,56.567,11.07151,55.54786,8.88084Z"/><path class="ba14c74b-cfa7-4737-9e0b-2e83535018a5" d="M34.2882,143.42459c5.21014,1.56359,10.539,2.54855,15.90746,4.35208a12.07024,12.07024,0,0,1,4.48977,2.35,10.728,10.728,0,0,1,2.60317,4.41175c2.42137,6.91693,1.704,14.52416,4.31148,21.38894a147.98289,147.98289,0,0,0,9.36573,20.13233,92.38787,92.38787,0,0,0,5.22945,7.95442l7.65839,10.82106a16.08877,16.08877,0,0,1,12.59528-7.08787c-7.06587-7.63391-7.33365-18.578-10.5894-27.759-6.85025-19.31713.52262-47.84069-21.55438-54.69779-2.47039-.7673-4.93469-1.57815-7.35689-2.48745-2.07285-.77816-3.74949-1.942-5.89508-2.625l-15.29255-4.86842c.10237.03259,1.88094-.79484,2.20533-.85872a16.10276,16.10276,0,0,0,2.86683-.46562c2.03072-.80139,3.70889-3.03757,5.18489-4.57948.46226-.4829.9192-1.269.44994-1.74514a1.304,1.304,0,0,0-.87089-.28124,24.23105,24.23105,0,0,0-6.22945.407c-3.633.716-7.99739,2.60562-11.1529-.28036-1.41059-1.2901-2.77573-2.62974-4.25126-3.84612-11.76451-9.69683-11.78047,7.33632-12.02908,15.21787-.27994,8.8749,4.78294,15.9524,12.24012,20.30712A45.76377,45.76377,0,0,0,34.2882,143.42459Z"/><path class="bc615702-d819-485e-ba43-4ec7e23a6563" d="M37.3993,40.6656C36.738,40.72818,36.588,41.73,36.23679,42.173a5.35674,5.35674,0,0,1-1.93135,1.351,6.44808,6.44808,0,0,1-4.43742.364c-.57316-.16719-6.36791-3.193-6.17156-3.61525-.97761,2.10215-.24949,4.8432-.26862,7.08292q-.03168,3.70625-.004,7.41268c.03463,4.89129.14023,9.78186.29024,14.6709.15008,4.89156.345,9.78163.5552,14.67093.05577,1.29722.19248,14.49765.64607,14.57451a57.98516,57.98516,0,0,0,19.77334-.07727q.01991-6.45817-.206-12.914-.594-16.98489-2.88152-33.854a40.37284,40.37284,0,0,0-1.6229-7.71939c-.31252-.91046-.97722-2.63238-1.79053-3.18189A1.24518,1.24518,0,0,0,37.3993,40.6656Z"/><path class="ba14c74b-cfa7-4737-9e0b-2e83535018a5" d="M13.87583,39.22181c1.18589-.50731,2.3428-1.09966,3.55085-1.5538,1.91826-.72114,4.13947-1.06856,5.969-.14527a7.45328,7.45328,0,0,1,3.22877,2.969c1.85588,3.64748,3.70252,7.30722,5.626,10.91888.52743.99032,1.145,1.95532,1.6273,2.967a16.73524,16.73524,0,0,0,.87549,2.18533c.89377-3.13528.92114-6.61195,1.231-9.84525.11956-1.24736.263-2.4929.34695-3.74342.04224-.62951.07256-1.26016.07536-1.8912.00172-.38933-.26039-1.60114-.06844-1.90664,1.40186-2.23112,8.58805,1.03622,9.95978,2.00693,3.08408,2.18246,2.81776,4.57161,2.40772,7.76461-.5396,4.202-.479,8.739-.70543,12.98942-.606,11.37645-.825,22.78913-.74729,34.14789a18.59158,18.59158,0,0,1-.77182,6.03754,7.99823,7.99823,0,0,1-1.30485,2.67925c-.5562.609-1.30294.68893-2.00921,1.12209-.8402.51569-1.45261,1.24658-2.23345,1.834-3.37963,2.54228-10.82418.95055-14.75642.71948-4.55187-.26738-9.872-.52211-14.17868-2.04036.0992-1.87968.90354-3.42847,1.23687-5.22861.451-2.43541.03772-5.28716-.12546-7.74259-.33884-5.09865-1.04569-10.16484-1.39919-15.26246C11.015,68.17074,6.19764,59.13786,5.90829,49.004c-.07553-2.64549.09285-6.71081,2.789-8.12948A14.12748,14.12748,0,0,1,11.738,39.983,15.5853,15.5853,0,0,0,13.87583,39.22181Z"/><path class="eb3aa730-d61c-4e82-8989-7348451e284f" d="M34.987,61.04307q-.03635-.26559-.074-.529a23.35182,23.35182,0,0,1,.459-8.46217,2.22382,2.22382,0,0,1,.60374-1.35519c-.00209,4.95915,1.3227,9.63637,1.712,14.51513,1.12572,14.1069-.14114,28.20755,1.66163,42.26331a.541.541,0,0,1-.04061.36518.52.52,0,0,1-.35982.18243,4.17779,4.17779,0,0,1-1.832-.071.70523.70523,0,0,1-.40557-.22428.74745.74745,0,0,1-.10716-.3866c-.24011-2.87227.10771-5.90976.07915-8.80717-.04469-4.53352-.08939-9.06742-.22694-13.59935-.13885-4.5745-.37254-9.14561-.65352-13.71348A56.16035,56.16035,0,0,0,33.33263,55.548a9.73786,9.73786,0,0,1-.53919-2.6733,7.3209,7.3209,0,0,1,2.44123,3.708,18.147,18.147,0,0,1,.62174-5.26622"/><path class="a04ee15e-2099-4e94-a864-8451edf61a4c" d="M26.25646,84.78893c3.49244.00467,6.94271.43692,10.38666.686,2.61908.18918,5.25893,1.05249,1.78306,2.9431.03977-.02167,2.36635,1.3207,2.73043,1.43973,1.122.36679,2.35846.36193,3.25261,1.246a3.49233,3.49233,0,0,1,.72461,3.65506,4.66392,4.66392,0,0,1-4.50716,3.11535c-7.85761-.43583-14.38129-5.96693-20.3994-11.279C21.65019,84.26418,23.80742,84.78565,26.25646,84.78893Z"/><path class="eb3aa730-d61c-4e82-8989-7348451e284f" d="M2.32843,56.74135Q.94375,64.64487.15493,72.63744c-.22923,2.324-.386,4.8188.77706,6.84388,1.22405,2.13127,3.62144,3.25012,5.871,4.24013l7.69277,3.3855c4.3198,1.9011,8.28092,3.95983,12.54073,6.05852,1.5883.78251,3.27048,2.23362,4.69748.60633a30.95065,30.95065,0,0,0,3.926-6.41264c.359-.70452.94949-1.34065.44982-1.9609-.4131-.51279-1.67409-.6992-2.29769-1.00113C28.89487,82.01639,24.959,78.582,20.09774,76.15208c-2.68651-1.34287-4.66638-3.47239-7.80081-3.66771-.62111-.03895,5.31568-21.30218,5.41418-23.14929.17572-3.29538.3156-7.97626-4.5106-8.63527C3.81859,39.41879,3.47482,50.19791,2.32843,56.74135Z"/><path class="b02ce460-0782-42b5-b2ba-7953daf8f5cf" d="M12.368,103.043c-.11377,1.26211-.57485,3.045-.23254,4.16061.32791,1.06862,1.61164,1.23481,2.51575,1.50557A43.5427,43.5427,0,0,0,25.24961,109.978a71.8142,71.8142,0,0,0,13.59715-.77054,33.22339,33.22339,0,0,0,4.62551-.86221c1.18379-.35841,4.25038-1.62445,4.43-3.04467a2.61383,2.61383,0,0,0-.2229-1.212c-.55373-1.50175-.96025-3.027-1.41769-4.54625-1.00838.07585-2.05377.89384-3.02362,1.25272-1.23965.45871-2.43475,1.15272-3.7097,1.49622a33.76808,33.76808,0,0,1-5.17158.92149c-5.57415.598-11.03306-.12022-16.532-.98322-1.25314-.19667-2.50847-.39216-3.74576-.67474-.39121-.08934-1.19626-.48613-1.53923-.21266-.27984.22313-.13785,1.12819-.15311,1.43833Q12.38041,102.90728,12.368,103.043Z"/><path class="af34d883-3549-4359-a37e-3b2e98e6d7f7" d="M39.37067,72.03018A5.43882,5.43882,0,0,0,39.83522,73.09c.297.49027.46137,1.19947.033,1.58035-.46155.41037-1.29021.13276-1.72517.57121-.61589.62084.30151,1.68729.03471,2.52011-.2608.81411-1.45847.92063-1.88461,1.6617-.57516,1.00024.60506,2.42623-.08121,3.35377a1.29963,1.29963,0,0,1-1.89943-.01436,2.37909,2.37909,0,0,1-.483-2.02895,19.6416,19.6416,0,0,1,.60324-2.07485,2.32088,2.32088,0,0,0,.00821-1.54758c-.313-.70481-1.12895-1.00523-1.73164-1.48636a3.20308,3.20308,0,0,1-1.07906-3.21989,1.04961,1.04961,0,0,1,.23287-.48032,2.631,2.631,0,0,1,.53346-.33039,2.12105,2.12105,0,0,0,.78992-1.34667,4.32649,4.32649,0,0,1,.52254-1.50284,3.77971,3.77971,0,0,1,3.38471-1.06322C38.51885,68.329,38.83075,70.43777,39.37067,72.03018Z"/><path class="ba14c74b-cfa7-4737-9e0b-2e83535018a5" d="M32.99767,71.16474a7.14426,7.14426,0,0,0,.369,4.20185,5.78541,5.78541,0,0,1,.38209,1.04184,1.2678,1.2678,0,0,1-.20248,1.05577,1.30289,1.30289,0,0,1-1.08456.3868,8.94292,8.94292,0,0,1-1.172-.22537,22.24494,22.24494,0,0,0-2.63554-.13866,3.27409,3.27409,0,0,1-2.36336-1.00359,3.7766,3.7766,0,0,1-.56239-2.62131,2.90949,2.90949,0,0,1,.30814-1.33654A3.12673,3.12673,0,0,1,27.419,71.46218a16.93691,16.93691,0,0,1,3.58146-1.45753,2.77551,2.77551,0,0,1,1.33959-.06206,1.19619,1.19619,0,0,1,.911.89888"/><path class="bf78f0bd-75f6-49c3-b9b1-7e048d85dbf4" d="M36.55,68.306a4.412,4.412,0,0,0-3.13741,1.52941c-.24213.30916-.28234.72387-.52307,1.04478a3.88213,3.88213,0,0,0-.79732,1.14857,3.0605,3.0605,0,0,0-.10967,1.52831,5.28839,5.28839,0,0,0,1.49979,2.409,1.47586,1.47586,0,0,0,.64646.48159.98811.98811,0,0,0,1.05282-.52914c.06467-.11478.14039-.25746.27213-.25894a.27438.27438,0,0,0,.10569-.00369c.03271-.014.04456-.07134.01027-.08087.35638-.006.64839.01973,1.00477.01372a1.624,1.624,0,0,0,.90884-.1955,2.99885,2.99885,0,0,1-1.341-1.90031,8.42857,8.42857,0,0,1-.1641-2.37657A5.38822,5.38822,0,0,1,36.10744,69.91a3.50281,3.50281,0,0,0,.32847-1.67474"/><path class="f3e1fc3d-389b-420a-8621-abfc84c2e9c1" d="M36.87167,74.432A19.26145,19.26145,0,0,0,39.628,77.48735a9.66654,9.66654,0,0,1,1.68357,1.93506,3.25744,3.25744,0,0,1,.45578,2.46266,1.98918,1.98918,0,0,1-1.8436,1.51486,2.19712,2.19712,0,0,1-1.83495-1.442,6.45868,6.45868,0,0,1-.33814-2.4293,9.8718,9.8718,0,0,0-.47653-4.05279"/><g class="f145c2ca-1b12-4455-8da2-44c33f5b7e7d"><path class="aa7bdff7-3851-4084-852b-792b3bef00ef" d="M70.41727,52.7117S47.039,64.756,45.46475,66.7586c0,0,9.95909,2.3975,25.37084-7.44664L69.09946,56.6524l2.78833-1.79025Z"/><line class="b984be84-edbf-4932-a481-f83550a4ffea" x1="68.46642" y1="62.14783" x2="58.49109" y2="54.09229"/><line class="aeb7f888-b51d-462d-bf9b-89c78a336c10" x1="66.15653" y1="63.75026" x2="58.0451" y2="57.38383"/></g><path class="afe721cd-86d2-4892-ade0-42b4f21811cd" d="M82.70048,44.79343,70.19547,52.79l1.562,2.085s7.22365-3.05031,9.0386-3.87959a6.09707,6.09707,0,0,0,3.19043-3.65085C84.36157,46.14688,82.70048,44.79343,82.70048,44.79343Z"/><g class="f566af66-46fc-4188-b12f-4ef4bb2dbc6b"><path class="afe9d324-f423-448f-9393-dbfafd98352f" d="M70.75046,55.61037a9.04946,9.04946,0,0,0-1.65938-2.21183,4.27014,4.27014,0,0,1,1.29978-.74164l1.49693,2.20525Z"/><line class="a9ec94ed-c067-468d-9df3-76328ef5adb5" x1="71.26899" y1="53.95055" x2="70.16478" y2="54.65922"/><line class="e730b8da-5d21-4717-a2cd-6a2686e87055" x1="71.06024" y1="53.34366" x2="69.68113" y2="54.16454"/></g><g class="a6bb8d52-558d-47f7-90fd-acfbd0737e17"><path class="afe9d324-f423-448f-9393-dbfafd98352f" d="M83.98646,47.34457a12.571,12.571,0,0,0-1.74973-2.26992,3.65973,3.65973,0,0,1,1.10785-.668l1.25831,1.9555Z"/><line class="ea18bbab-8e30-4fc2-bdec-6a09a0130d6e" x1="84.08273" y1="45.55379" x2="83.14113" y2="46.1913"/><line class="a07069ba-030b-4dd0-a69a-a6194c91f051" x1="83.90897" y1="45.01447" x2="82.73332" y2="45.7535"/></g><path class="a04ee15e-2099-4e94-a864-8451edf61a4c" d="M83.26285,47.622a10.30079,10.30079,0,0,0-2.83063-1.98082,7.32148,7.32148,0,0,0-1.31415-.56656c-2.07016-.604-4.22877.464-6.07817,1.57311a5.50044,5.50044,0,0,0-1.58416,1.24947,1.95666,1.95666,0,0,0-.3633,1.90132c.55531,1.31482,1.93319,1.53123,3.19265,1.70151.5648.07636,3.60947.07679,2.04121,1.3563a6.45007,6.45007,0,0,1-1.495.61523c-.49254.22582-.91971.83877-.61261,1.28519a1.03684,1.03684,0,0,0,.52223.34412,5.14308,5.14308,0,0,0,3.48421-.30183,3.86772,3.86772,0,0,1,1.68517-.36431,7.55078,7.55078,0,0,0,1.89535.10393A3.89641,3.89641,0,0,0,83.92322,52.779C85.32105,50.8771,84.8053,49.26788,83.26285,47.622Z"/><path class="ba14c74b-cfa7-4737-9e0b-2e83535018a5" d="M88.13564,59.57283a18.4697,18.4697,0,0,0,2.29791.81869,45.82664,45.82664,0,0,1,6.51029,2.58666,56.20235,56.20235,0,0,0,8.39552,3.22135c7.05134,1.81882,14.22393,3.29616,21.01862,5.97484a23.01143,23.01143,0,0,1,5.83323-9.583c-.51706.50792-10.11318-3.67182-11.29728-4.0706q-6.06988-2.04421-12.22721-3.81559c-5.588-1.60756-11.33309-2.56792-16.96274-4.01244a41.77881,41.77881,0,0,1-4.47825-1.34307c-.642-.24522-1.545-1.2695-2.29337-1.03781-.45219.14-.39836.48415-.56819.86882a13.6806,13.6806,0,0,1-2.88829,4.11857c-.36662.36559-1.61889,1.1194-1.54668,1.67941.07626.59123,1.17474,1.04522,1.59867,1.3369A35.107,35.107,0,0,0,88.13564,59.57283Z"/></g><path class="b73ab60f-3955-4e0e-b019-63daf06916f6" d="M76.09766,87.73112,54.7832,65.37565,33.46777,87.73112l-2.59961-2.85938L52.18359,62.777,30.86816,40.68132l2.59961-2.85938L54.7832,60.17741,76.09766,37.82194l2.59961,2.85938L57.38281,62.777,78.69727,84.87174Z"/></g></g></svg>