<svg xmlns="http://www.w3.org/2000/svg" xmlns:xlink="http://www.w3.org/1999/xlink" viewBox="0 0 91.19098 119.76458"><defs><style>.ac91d31c-23f0-434b-9ab6-e5002ee7eb1c{fill:none;}.a14b5a91-a268-45ea-975e-3963879e02be{isolation:isolate;}.ec7f23a9-34a1-4f4a-ba39-c61807703e8e{fill:#a7a9ac;opacity:0.33;mix-blend-mode:multiply;}.ac4e3b0f-d140-4898-9879-c558f3c826ff{fill:#beccaa;}.f5be17b1-1324-4fc8-910a-1779ef17406e{fill:#a2b08b;}.b5a46fc8-a70a-43e9-bb71-390b6027b7d7{clip-path:url(#a577f6f6-c467-4831-9182-158191eebcee);}.f0d3069d-6292-4807-b2d0-578792de40d8{fill:#dbded7;}.f25b7281-6bff-42fe-810d-016bef03e83e{fill:#80896f;}.adabd9b4-bd83-44b9-bc59-5348b98c52ac{fill:#aab692;}.f0b8f4e9-fabd-41ce-9b67-8529435f85ad{fill:#415829;}.b49a2870-f82c-4598-8d93-cb4d76b2d765{clip-path:url(#a1092a79-2d62-4f97-b0ef-5d19ff5e667e);}.b8881eb1-28c3-49b5-9fe6-ff10cf58f881{fill:#3b4923;}.a4a5cd2e-fbe6-4728-a0ae-29668a4e6a53{fill:#4b6b33;}.e0a298b7-e052-4b0c-b739-3906c66e7e32{fill:#678e3d;}.be3e562a-ce61-49df-9b32-32046095edc3{fill:#527938;}.a929c0f2-be16-48aa-a5f3-5525b22be727{fill:#537435;}.a8e88c72-bfe5-4e4b-9133-10887cf957c7{clip-path:url(#bc14cfc4-dc99-4438-a59b-ad5601b2d932);}.ba2db2f6-f1a3-45bd-874f-451bb5129141{fill:#c3d7dc;}.ed3372f6-2ef8-4fce-a6b7-d73c68d8370b{fill:#9acfda;}.f4ac43c8-0995-4a3d-86a5-e9fc472c7f3c{clip-path:url(#f466532f-ba41-4684-895e-e8f7bf847056);}.ad0a8f73-65d7-479d-8c1c-d89fd7a429cc{fill:#b0ceb2;}.b23398bb-5867-4e30-ad0a-1d2d545aed03{clip-path:url(#bab5d928-d807-49c4-bac6-e2c9b26065cd);}.b3e2eebc-5724-4a34-a573-2d5bcae2846f{fill:#eaccca;}</style><clipPath id="a577f6f6-c467-4831-9182-158191eebcee"><path class="ac91d31c-23f0-434b-9ab6-e5002ee7eb1c" d="M38.21867,99.38348c1.5529,4.59317.86227,17.1512.86227,17.1512s7.75889,1.08267,11.20549,1.46a8.4304,8.4304,0,0,0,3.06913-.79385l1.54421-18.35208s-.37381-3.55548-.59772-5.32658a66.8154,66.8154,0,0,1-.3091-12.0448c.19751-3.54724-1.43822-10.02351-1.43822-10.02351L37.64484,69.83307S35.97636,92.75161,38.21867,99.38348Z"/></clipPath><clipPath id="a1092a79-2d62-4f97-b0ef-5d19ff5e667e"><path class="ac91d31c-23f0-434b-9ab6-e5002ee7eb1c" d="M91.641,56.64792a7.26686,7.26686,0,0,0,.98646-2.07141c.40327-1.55194-.267-3.1399-.64037-4.69765C91.035,45.90707,91.86733,41.328,88.979,38.1662c-.4178-.45735-1.22772-.87294-1.67859-.44068a4.62388,4.62388,0,0,1-.81347,4.7607c-.93218,1.08189-2.01279,2.54145-3.63362,2.7828.7901.99588,1.56,1.14155,1.99514,2.44255,1.38123,4.12942-.03846,8.0113-3.9929,10.63792-2.1176,1.40654-3.82154,1.459-6.24678.83775a10.68,10.68,0,0,1-4.56174,6.38887c-7.24166,5.10108-15.7125,3.30382-23.74746,1.03953a11.45139,11.45139,0,0,1-6.63825,4.53963c-.11122.02851-.23724.06628-.28112.16077-.04374.0942.01566.199.07443.2866,1.35875,2.02613,2.91913,3.76761,5.614,4.05242,3.28066.34673,6.12247,1.68472,9.52855,1.41761,5.50578-.43179,10.89374-3.40766,16.22634-2.1253,3.88478.9342,3.35892-1.91429,4.16223-4.464,1.04265-3.30946,2.87849-4.33051,6.64435-4.11557a7.04825,7.04825,0,0,0,4.22571-.64752c1.70326-1.10492,1.0847-2.98173,2.11487-4.40889C88.973,59.92282,90.57229,58.28954,91.641,56.64792Z"/></clipPath><clipPath id="bc14cfc4-dc99-4438-a59b-ad5601b2d932"><rect class="ac91d31c-23f0-434b-9ab6-e5002ee7eb1c" x="22.49506" y="287.50761" width="235.49085" height="29.6666"/></clipPath><clipPath id="f466532f-ba41-4684-895e-e8f7bf847056"><rect class="ac91d31c-23f0-434b-9ab6-e5002ee7eb1c" x="23.49268" y="589.05778" width="235.49574" height="29.86544"/></clipPath><clipPath id="bab5d928-d807-49c4-bac6-e2c9b26065cd"><rect class="ac91d31c-23f0-434b-9ab6-e5002ee7eb1c" x="23.91028" y="801.54206" width="235.49571" height="30.07832"/></clipPath></defs><title>Artboard 98</title><g class="a14b5a91-a268-45ea-975e-3963879e02be"><g id="bb2d9c3b-94f8-4a88-bf09-6ed897b3a7ec" data-name="Layer 1"><ellipse class="ec7f23a9-34a1-4f4a-ba39-c61807703e8e" cx="40.43553" cy="115.85354" rx="40.43554" ry="3.94002"/><path class="ac4e3b0f-d140-4898-9879-c558f3c826ff" d="M30.69621,88.83935a32.3827,32.3827,0,0,1,7.85811,5.15227q.37711-4.87161,1.10317-9.68-2.9128-.52435-5.8369-.92767-1.65735-8.95776-2.78694-18.07013c.15554,1.255-6.78929,2.10772-7.46465,2.18694.07571,3.1836,2.33018,6.659,2.943,9.92963C27.27194,81.48642,27.3312,87.29711,30.69621,88.83935Z"/><path class="f5be17b1-1324-4fc8-910a-1779ef17406e" d="M38.21867,99.38348c1.5529,4.59317.86227,17.1512.86227,17.1512s7.75889,1.08267,11.20549,1.46a8.4304,8.4304,0,0,0,3.06913-.79385l1.54421-18.35208s-.37381-3.55548-.59772-5.32658a66.8154,66.8154,0,0,1-.3091-12.0448c.19751-3.54724-1.43822-10.02351-1.43822-10.02351L37.64484,69.83307S35.97636,92.75161,38.21867,99.38348Z"/><path class="ac4e3b0f-d140-4898-9879-c558f3c826ff" d="M47.15205,94.28039a8.11833,8.11833,0,0,1,3.80326,3.0458,52.3272,52.3272,0,0,1,16.96214-9.45365A2.30076,2.30076,0,0,0,68.477,87.481a4.1508,4.1508,0,0,0,.098-.66612l-.04456-15.12134.24144-1.86046-6.59859.97417a54.93165,54.93165,0,0,1,.942,9.35959,1.343,1.343,0,0,1-.72255,1.298c-2.24.88657-8.91887,4.34489-9.58642,4.665a29.68772,29.68772,0,0,1-5.05259,1.338S47.16729,92.14856,47.15205,94.28039Z"/><g class="b5a46fc8-a70a-43e9-bb71-390b6027b7d7"><path class="f0d3069d-6292-4807-b2d0-578792de40d8" d="M44.96205,106.54132q.01873.37229.02244.74869.04481,4.9993-.06769,9.99809a18.54124,18.54124,0,0,1-.60817,5.13587c-1.63114,5.106-6.67944,2.34366-9.24357.61348a3.96491,3.96491,0,0,1-1.64972-1.77737,7.25636,7.25636,0,0,1-.34439-2.54648q-.28181-16.91446-.24592-33.836a33.89985,33.89985,0,0,1,.66864-8.08259c1.10941-4.41856,5.885-7.801,8.88388-5.07585,1.68413,1.53039.94814,6.1209.92887,8.72777q-.0443,5.99236-.08844,11.98549C43.18162,97.38056,44.71638,101.65987,44.96205,106.54132Z"/></g><path class="f25b7281-6bff-42fe-810d-016bef03e83e" d="M47.85475,99.47445c.33507,1.08082.74915,2.14694,1.19826,3.305.29167.75213.72317,1.5919,1.35765,1.58456.55281-.0064.96172-.66233,1.28355-1.2623q1.10382-2.05777,2.13932-4.17884a10.00164,10.00164,0,0,0,1.30222-4.413,1.8612,1.8612,0,0,0-.20783-.96095c-.34522-.54206-.99262-.35529-1.49619-.12205a7.97633,7.97633,0,0,1-2.87648.9703c-1.067.05323-2.12409-.26781-3.18932-.30083a.28983.28983,0,0,0-.29043.1208.58794.58794,0,0,0-.04363.28862A17.24283,17.24283,0,0,0,47.85475,99.47445Z"/><path class="adabd9b4-bd83-44b9-bc59-5348b98c52ac" d="M68.62352,86.17214c.00708.3728.00508.74735.00893,1.11979a.61942.61942,0,0,1-.04945.30906.362.362,0,0,1-.16338.133,19.25048,19.25048,0,0,1-2.64729,1.25651,34.21919,34.21919,0,0,0-7.58145,3.27169c-2.19051,1.28691-4.1635,3.27857-6.3896,4.39349a1.862,1.862,0,0,1-1.59178.12412,3.45958,3.45958,0,0,1-.848-.61446c-.76569-.67968-1.58247-1.13976-2.35892-1.78134.837-.91256,2.28527-.95179,3.35035-1.33319a55.01572,55.01572,0,0,0,6.05393-2.82019c1.77106-.89268,3.61682-1.58144,5.431-2.29554,1.2195-.48,2.44356-.94666,3.67933-1.34691a30.624,30.624,0,0,1,3.0798-1.09605C68.61148,85.71758,68.61919,85.94453,68.62352,86.17214Z"/><path class="f0b8f4e9-fabd-41ce-9b67-8529435f85ad" d="M3.31531,41.24634A20.33685,20.33685,0,0,0,4.47846,49.377a2.60938,2.60938,0,0,1,.24038,1.56632,2.94356,2.94356,0,0,1-.56364.92586C1.7335,55.01843.50312,58.46871,1.74036,62.28346,3.54117,67.8359,10.8091,72.27994,17.34623,70.28c2.11,2.85728,7.029,4.35641,10.73724,4.40861a19.19206,19.19206,0,0,0,12.03544-3.979c-.33916.2695,5.14144,2.67719,5.66478,2.82783a41.12315,41.12315,0,0,0,7.5764,1.29564c4.83257.44734,9.94017.46178,14.27475-1.4741,4.39026-1.96074,7.42082-5.67248,9.78962-9.47537,3.46622,1.41379,7.56382-.61185,9.99071-3.21154a13.09066,13.09066,0,0,0,3.76994-8.27817A9.55172,9.55172,0,0,0,87.262,44.33705c2.23661-2.40608.91021-6.63383-2.411-7.6849,2.0842-2.751,1.317-6.63843-.99622-9.24331s-5.85209-4.13312-9.41417-5.174a10.22541,10.22541,0,0,0-2.9648-11.3184,13.90564,13.90564,0,0,0-12.8605-2.53221c.20486-.42362.87253.10432.98337.55434C56.48845,5.50093,51.1631-3.501,36.35961,1.45821c-4.21869,1.41327-6.849,5.43612-7.76665,9.33139a13.64991,13.64991,0,0,0-10.787,1.87471c-4.0273,2.78691-5.45812,7.44178-5.40146,11.78669.0145,1.11225.291,2.213.31772,3.31454.03329,1.37306.15187.97637-1.09681,1.42821a13.32031,13.32031,0,0,0-8.064,9.9297A19.997,19.997,0,0,0,3.31531,41.24634Z"/><g class="b49a2870-f82c-4598-8d93-cb4d76b2d765"><path class="b8881eb1-28c3-49b5-9fe6-ff10cf58f881" d="M3.31531,41.24634A20.33685,20.33685,0,0,0,4.47846,49.377a2.60938,2.60938,0,0,1,.24038,1.56632,2.94356,2.94356,0,0,1-.56364.92586C1.7335,55.01843.50312,58.46871,1.74036,62.28346,3.54117,67.8359,10.8091,72.27994,17.34623,70.28c2.11,2.85728,7.029,4.35641,10.73724,4.40861a19.19206,19.19206,0,0,0,12.03544-3.979c-.33916.2695,5.14144,2.67719,5.66478,2.82783a41.12315,41.12315,0,0,0,7.5764,1.29564c4.83257.44734,9.94017.46178,14.27475-1.4741,4.39026-1.96074,7.42082-5.67248,9.78962-9.47537,3.46622,1.41379,7.56382-.61185,9.99071-3.21154a13.09066,13.09066,0,0,0,3.76994-8.27817A9.55172,9.55172,0,0,0,87.262,44.33705c2.23661-2.40608.91021-6.63383-2.411-7.6849,2.0842-2.751,1.317-6.63843-.99622-9.24331s-5.85209-4.13312-9.41417-5.174a10.22541,10.22541,0,0,0-2.9648-11.3184,13.90564,13.90564,0,0,0-12.8605-2.53221c.20486-.42362.87253.10432.98337.55434C56.48845,5.50093,51.1631-3.501,36.35961,1.45821c-4.21869,1.41327-6.849,5.43612-7.76665,9.33139a13.64991,13.64991,0,0,0-10.787,1.87471c-4.0273,2.78691-5.45812,7.44178-5.40146,11.78669.0145,1.11225.291,2.213.31772,3.31454.03329,1.37306.15187.97637-1.09681,1.42821a13.32031,13.32031,0,0,0-8.064,9.9297A19.997,19.997,0,0,0,3.31531,41.24634Z"/></g><ellipse class="a4a5cd2e-fbe6-4728-a0ae-29668a4e6a53" cx="59.28784" cy="47.27773" rx="18.58308" ry="16.38148"/><ellipse class="a4a5cd2e-fbe6-4728-a0ae-29668a4e6a53" cx="54.52689" cy="30.21933" rx="18.58308" ry="16.38148"/><ellipse class="a4a5cd2e-fbe6-4728-a0ae-29668a4e6a53" cx="31.90387" cy="51.88578" rx="18.66319" ry="16.45211"/><path class="a4a5cd2e-fbe6-4728-a0ae-29668a4e6a53" d="M27.53431,54.84353c-.14719,3.61541-3.29162,5.90106-7.06766,8.0397a9.60291,9.60291,0,0,1-4.43934,1.47987c-6.187.13412-11.20215-4.02837-11.20214-9.51926,0-5.533,5.08825-10.01845,11.36493-10.01845,5.11409,0,9.7206,3.13356,11.00321,7.50094A7.78335,7.78335,0,0,1,27.53431,54.84353Z"/><path class="e0a298b7-e052-4b0c-b739-3906c66e7e32" d="M4.89315,42.36166a12.00294,12.00294,0,0,0,3.72993,7.57127,17.74753,17.74753,0,0,0,5.3737,3.67231,18.75124,18.75124,0,0,0,9.16648,1.05868,24.73962,24.73962,0,0,0,8.56827-2.93484,13.03248,13.03248,0,0,0,6.41425-9.0103c1.412,3.00254,5.44819,4.42252,9.13529,4.438A15.44562,15.44562,0,0,0,55.914,44.749a10.79487,10.79487,0,0,0,2.09484-16.30174,18.53371,18.53371,0,0,0-5.48308-3.454c1.78428-1.13874,3.69083-2.06878,5.09522-3.62785C61.39719,17.17332,59.2856,11.059,55.60981,7.41033,51.47872,3.30974,43.18056,1.44818,37.51882,4.064a10.82258,10.82258,0,0,0-4.45068,3.95278,10.72633,10.72633,0,0,0-2.05545,5.537c-4.45922-1.31841-8.85693-.76858-12.36926,2.04271-2.7835,2.22794-3.66342,5.01651-3.8431,8.19a11.6311,11.6311,0,0,0,1.49935,6.73724,8.72665,8.72665,0,0,0-5.27624.63136A10.73153,10.73153,0,0,0,4.89315,42.36166Z"/><path class="be3e562a-ce61-49df-9b32-32046095edc3" d="M39.3003,16.11337c-3.46944.44053-4.2126,3.13539-5.72447,5.31383-1.87612,2.70329-6.13275,2.19459-9.15566,1.971-2.51822-.18625-5.92106.33425-7.23752,2.47247a3.99533,3.99533,0,0,0,.02748,3.97992,7.99408,7.99408,0,0,0,3.16376,2.97547A16.61942,16.61942,0,0,0,32.457,34.18459a19.87172,19.87172,0,0,0,10.03587-6.34122c1.76366-2.06,3.12294-4.589,2.74356-7.148A5.58254,5.58254,0,0,0,39.3003,16.11337Z"/><path class="a929c0f2-be16-48aa-a5f3-5525b22be727" d="M33.31531,118.53618c3.40366,1.84331,10.81025,1.09469,10.78529-3.97544-.03074-6.24225-9.05689-7.87013-12.46981-3.486A5.01815,5.01815,0,0,0,33.31531,118.53618Z"/><path class="a929c0f2-be16-48aa-a5f3-5525b22be727" d="M56.782,113.76633a3.79926,3.79926,0,0,0-2.18251-1.0762,7.29142,7.29142,0,0,0-4.72957.1704c-1.44978.69614-2.44354,2.53738-1.72035,3.97386a3.73511,3.73511,0,0,0,2.41545,1.69855,8.53027,8.53027,0,0,0,5.99041-.51449c1.20769-.583,2.39543-1.81256,2.00159-3.09448-.3129-1.01849-1.44949-1.49748-2.45587-1.84735-.23547-.08186-.62672-.03962-.574.204"/><path class="a929c0f2-be16-48aa-a5f3-5525b22be727" d="M34.12263,112.17767a3.7993,3.7993,0,0,0-2.18252-1.07621,7.29146,7.29146,0,0,0-4.72956.17041c-1.44979.69614-2.44355,2.53738-1.72036,3.97386a3.73517,3.73517,0,0,0,2.41545,1.69855,8.53032,8.53032,0,0,0,5.99041-.51449c1.20769-.58305,2.39544-1.81256,2.0016-3.09449-.3129-1.01848-1.4495-1.49747-2.45588-1.84734-.23546-.08186-.62671-.03962-.574.204"/><path class="a929c0f2-be16-48aa-a5f3-5525b22be727" d="M60.294,111.75779c.64775.12277,1.36476-.17474,1.95411.12075a1.444,1.444,0,0,1,.199,2.179,3.40841,3.40841,0,0,1-2.30174.89623c-2.90688.25176-9.51141-1.277-6.41746-5.38826C56.934,105.30519,57.85287,111.29513,60.294,111.75779Z"/><g class="a8e88c72-bfe5-4e4b-9133-10887cf957c7"><polygon class="ba2db2f6-f1a3-45bd-874f-451bb5129141" points="225.229 317.174 22.49 317.174 22.616 14.086 31.529 7.539 52.36 -10.802 257.535 -10.802 257.986 291.274 225.229 317.174"/><path class="ed3372f6-2ef8-4fce-a6b7-d73c68d8370b" d="M52.35989-10.80206S21.568,14.13558,21.568,13.9551s26.99817,4.06389,33.85636,7.493C55.42436,21.44808,51.14255-1.80407,52.35989-10.80206Z"/></g><g class="f4ac43c8-0995-4a3d-86a5-e9fc472c7f3c"><polygon class="ad0a8f73-65d7-479d-8c1c-d89fd7a429cc" points="226.231 618.923 23.493 618.923 23.619 -83.587 32.532 -90.134 53.362 -108.475 258.537 -108.475 258.988 593.023 226.231 618.923"/></g><g class="b23398bb-5867-4e30-ad0a-1d2d545aed03"><polygon class="b3e2eebc-5724-4a34-a573-2d5bcae2846f" points="226.649 831.62 23.91 831.62 24.037 -1875.926 32.95 -1882.472 53.78 -1900.813 258.955 -1900.813 259.406 805.721 226.649 831.62"/></g></g></g></svg>