<svg id="b9ef8acc-da32-4056-95e7-6670aad002c5" data-name="Layer 1" xmlns="http://www.w3.org/2000/svg" xmlns:xlink="http://www.w3.org/1999/xlink" viewBox="0 0 37.88615 13.55136"><defs><style>.a24a48fc-0e5d-4a24-86f1-57996f3dae03,.bfeb3d41-ffc1-4bd0-9ef7-ee43c00b887f,.fa693f87-5d32-4766-9a0c-80d994b5ba0a{fill:none;}.bfeb3d41-ffc1-4bd0-9ef7-ee43c00b887f{stroke:#bcbec0;stroke-miterlimit:10;}.f1d5dedc-d55b-4412-a735-6bf2c9b8dbbc{clip-path:url(#bb6fd588-af39-4310-b66c-a497809cc0e9);}.a3592160-07fe-45db-9eb6-402341158366{fill:#eaccca;}.a4cb3290-077b-431e-9b6b-45aed93ac03c{clip-path:url(#ea25122c-2d44-4b97-84bd-461dcaa66923);}.e149025e-e06a-4fc4-af47-3d9355fe960a{fill:#566345;}.afe6ffd4-eeb8-4d05-9008-05c20b230780{fill:#63774e;}.bb951973-22f9-4826-9835-2605a2f03437{fill:#6f825a;}.b1b05950-71a5-4322-8fa0-1ed0ae0c2552{fill:#938c6c;}.a24a48fc-0e5d-4a24-86f1-57996f3dae03{stroke:#ee755b;stroke-linecap:round;stroke-linejoin:round;stroke-width:2px;}.e5754545-252d-49a3-bd23-89bc40ac14c3{fill:#ee755b;}</style><clipPath id="bb6fd588-af39-4310-b66c-a497809cc0e9"><rect class="bfeb3d41-ffc1-4bd0-9ef7-ee43c00b887f" x="-139.33924" y="-554.91133" width="233.75906" height="493.74709"/></clipPath><clipPath id="ea25122c-2d44-4b97-84bd-461dcaa66923"><rect class="fa693f87-5d32-4766-9a0c-80d994b5ba0a" x="-80.17954" y="-73.22009" width="128.987" height="79.98967" transform="translate(-31.37208 -66.45051) rotate(-180)"/></clipPath></defs><title>Artboard 235</title><g class="f1d5dedc-d55b-4412-a735-6bf2c9b8dbbc"><polygon class="a3592160-07fe-45db-9eb6-402341158366" points="62.816 255.601 -139.923 255.601 -139.796 -755.821 -130.883 -762.368 -110.053 -780.709 95.122 -780.709 95.573 229.701 62.816 255.601"/><g class="a4cb3290-077b-431e-9b6b-45aed93ac03c"><path class="e149025e-e06a-4fc4-af47-3d9355fe960a" d="M-22.65858,11.98486c2.98269-.12456,1.25282,16.45261,1.15345,18.2104-.52576,9.2999,1.2616,16.23171,5.37228,24.71467C-11.06151,65.37526-5.87168,75.78-.70035,86.196c4.86819,9.80534,3.17672,17.31218,2.33973,27.994a87.5082,87.5082,0,0,0,9.77185,47.28018c1.036,1.96557,2.5901,6.245,4.35853,7.562,3.64825,2.71661,15.8644.60354,19.79886-.80945a140.22077,140.22077,0,0,1-4.6007-15.17862A129.58829,129.58829,0,0,1,27.52939,113.704c.4925-7.40366.95056-13.698-.20929-21.11518Q24.239,72.88556,20.175,53.3592c-2.90812-13.96415-4.1456-27.576-6.21774-41.74146a6.59151,6.59151,0,0,0-1.1818-3.42542c-3.17192-3.70768-11.565.88575-14.89626,1.90442C-8.70986,12.1108-15.84818,11.70045-22.65858,11.98486Z"/><path class="afe6ffd4-eeb8-4d05-9008-05c20b230780" d="M-26.31431.41524C-30.2296-3.8779-35.50814-2.79057-38.37482,1.65847c-4.48736,6.96431-8.38332,12.03086-9.98451,20.47677-1.58534,8.36229.70336,15.71411.721,23.83746.01852,8.53537-1.43448,17.36033-2.12331,25.88488-.53645,6.63864-.87844,12.68571-5.14906,18.13288-2.1886,2.79154-5.04339,3.837-7.84882,5.64927A65.52193,65.52193,0,0,0-81.30328,114.688c-6.61186,10.19833-13.32785,20.62932-16.346,32.40275-.77127,3.00865-1.272,6.07586-1.98153,9.0981-.67956,2.89474-3.31593,6.51933.18932,7.74989,3.28785,1.15425,6.75606,1.81334,9.724,3.74047-4.28571-2.78282,20.02-30.47793,22.33612-33.02141,6.30154-6.92014,13.35943-12.40608,20.09277-18.75525,5.66893-5.34551,12.80489-9.365,17.43226-15.80076,2.75749-3.83509,4.542-8.26825,6.28416-12.65875,4.94855-12.47081,9.79269-25.0708,12.39022-38.2337a4.40771,4.40771,0,0,1,.5412-1.61839,4.32668,4.32668,0,0,1,1.28-1.12052c6.156-4.09193,8.88658-6.91382,11.96334-13.71886a176.42408,176.42408,0,0,0,9.76133-27.4038A34.66463,34.66463,0,0,0-4.92238,9.44459"/><path class="bb951973-22f9-4826-9835-2605a2f03437" d="M-3.28755,10.20953a190.71075,190.71075,0,0,1-1.898,23.83274C-1.46091,26.55441-.50259,18.03955.39885,9.72521A3.56013,3.56013,0,0,0,.33776,8.17257,2.18427,2.18427,0,0,0-2.8073,7.27464a3.32534,3.32534,0,0,0-1.2851,3.31179"/><path class="afe6ffd4-eeb8-4d05-9008-05c20b230780" d="M-56.86847-74.91343A74.25177,74.25177,0,0,1-41.62969-84.625c1.81338-.86537,3.99987-1.64782,5.74952-.65992a6.61475,6.61475,0,0,1,2.23787,2.66768c1.00415,4.92218,4.85052,8.06377,8.35474,11.16836,3.07219,2.72184,5.1216,5.81479,7.44384,9.1a120.388,120.388,0,0,0-.82739-13.79278c-.31515-3.60262-.421-7.91365-1.805-11.29258-.15575-.38026,3.89432.38448,4.32255.6431a13.82822,13.82822,0,0,1,3.5324,3.69827A26.54006,26.54006,0,0,1-9.722-77.22121C-6.72114-69.191,2.2072-65.39685,2.877-56.14885c.27328,3.77317-.87972,7.34306-.577,11.08121.362,4.47-.37518,8.92366.26791,13.41271.73341,5.11951,3.34175,9.11158,4.81032,13.92807C8.69705-13.40159,14.1216,1.29888,10.34754,5.534,8.592,7.504.87069,6.91775-1.80921,7.424c-4.90143.926-9.71187,2.28533-14.671,2.90413a135.9451,135.9451,0,0,1-19.9.89164c.02971-3.93912-1.0374-8.014-.85763-11.8951.14984-3.23509,1.27822-6.40756,1.25016-9.77123a40.17583,40.17583,0,0,0-6.30608-21.31439c-8.31679-12.89976-10.34482-27.95463-13.95383-42.78073"/><path class="bb951973-22f9-4826-9835-2605a2f03437" d="M-16.42535-56.40593q-.11623-.35209-.23364-.70088c-1.36958-4.06846-1.53486-7.2414-1.50353-11.62539a3.07594,3.07594,0,0,1,.48042-1.99509c1.24418,6.74579,4.22224,12.77445,5.9786,19.31247C-6.625-32.51017-4.8024-13.01238,1.18411,5.65246a.74831.74831,0,0,1,.0366.50691A.71932.71932,0,0,1,.77716,6.498a5.7787,5.7787,0,0,1-2.50969.36407.97547.97547,0,0,1-.608-.20307,1.034,1.034,0,0,1-.243-.49889C-3.63238,2.3137-3.9231-1.90526-4.69053-5.839c-1.20078-6.1551-2.40167-12.31071-3.72836-18.44029-1.33916-6.18718-2.80646-12.34587-4.33727-18.48827A77.68175,77.68175,0,0,0-20.0574-63.46417,13.469,13.469,0,0,1-21.463-66.9647a10.12624,10.12624,0,0,1,4.2529,4.42965,25.101,25.101,0,0,1-.47858-7.31926"/><path class="b1b05950-71a5-4322-8fa0-1ed0ae0c2552" d="M-37.924-2.47236a27.27618,27.27618,0,0,1-.89245,3.629c-.1987.4662-1.30184,1.875-.6788,2.28685A24.50418,24.50418,0,0,0-37.24354,4.8351,35.475,35.475,0,0,0-29.3752,7.35418q4.80747,1.18878,9.746,1.92245A106.256,106.256,0,0,0-.17347,10.36a49.15394,49.15394,0,0,0,6.71555-.456c1.71132-.30062,4.82175-1.33374,5.7736-2.67652a3.58291,3.58291,0,0,0,.34668-2.55521c-.21792-1.89528-.363-3.83626-.52409-5.69839C11.7093-.99723,6.7987-.464,6.7987-.372,5.13216-.05887,3.60923.71826,1.92275.963a49.95147,49.95147,0,0,1-7.49981.45155c-10.444-.073-19.51613-2.57136-28.82618-6.2119-.69754-.27305-1.52053-1.16659-2.31561-.87219C-37.51809-5.37358-37.766-3.09951-37.924-2.47236Z"/></g></g><rect class="bfeb3d41-ffc1-4bd0-9ef7-ee43c00b887f" x="-139.33924" y="-554.91133" width="233.75906" height="493.74709"/><line class="a24a48fc-0e5d-4a24-86f1-57996f3dae03" x1="2.09509" y1="2.66577" x2="13.98322" y2="7.85352"/><polygon class="e5754545-252d-49a3-bd23-89bc40ac14c3" points="4.39 7.367 2.637 2.902 7.102 1.151 4.464 0 0 1.751 1.751 6.215 4.39 7.367"/><path class="a24a48fc-0e5d-4a24-86f1-57996f3dae03" d="M36.24365,6.8551c-.32614-1.10207-1.739-1.50022-2.86649-1.27729s-2.13426.86358-3.25274,1.128c-2.5918.61266-5.25331-.91454-7.04109-2.88851"/><path class="a24a48fc-0e5d-4a24-86f1-57996f3dae03" d="M36.88615,12.55136c-.32615-1.10206-1.739-1.50022-2.8665-1.27729s-2.13425.86358-3.25273,1.128c-2.5918.61266-5.25331-.91453-7.04109-2.88851"/></svg>