<?xml version="1.0" encoding="utf-8"?>
<!-- Generator: Adobe Illustrator 19.1.0, SVG Export Plug-In . SVG Version: 6.00 Build 0)  -->
<svg version="1.1" xmlns="http://www.w3.org/2000/svg" xmlns:xlink="http://www.w3.org/1999/xlink" x="0px" y="0px"
	 viewBox="0 0 128.6 128.6" style="enable-background:new 0 0 128.6 128.6;" xml:space="preserve">
<style type="text/css">
	.st0{opacity:0.65;fill:#C3D7DC;}
	.st1{fill:#C3D7DC;}
	.st2{opacity:0.4;}
	.st3{fill:#FFFFFF;}
	.st4{fill:none;stroke:#FFFFFF;stroke-width:10;stroke-miterlimit:10;}
	.st5{fill:none;}
	.st6{opacity:0.65;}
	.st7{fill:none;stroke:#FFFFFF;stroke-width:2;stroke-miterlimit:10;}
	.st8{fill:#FFFFFF;stroke:#FFFFFF;stroke-width:2;stroke-miterlimit:10;}
	.st9{fill:#FFFFFF;stroke:#FFFFFF;stroke-miterlimit:10;}
	.st10{fill:none;stroke:#FFFFFF;stroke-width:1.9932;stroke-linecap:round;stroke-linejoin:round;stroke-miterlimit:10;}
	.st11{fill:none;stroke:#C3D7DC;stroke-miterlimit:10;}
</style>
<g id="Layer_1">
</g>
<g id="Layer_2">
</g>
<g id="Layer_3">
</g>
<g id="Layer_4">
</g>
<g id="Layer_5">
	<g id="XMLID_275_">
		<g id="XMLID_276_">
			<polygon id="XMLID_278_" class="st0" points="112.9,115.9 100.3,128.2 0,128.2 0,-0.1 128.2,-0.1 128.2,100.9 			"/>
			<path id="XMLID_277_" class="st1" d="M100.3,129.7c0,0,27.9-27.4,27.9-27.3c0,0.2-27.8-2-34.1-5.1
				C94.2,97.3,101.4,121.6,100.3,129.7z"/>
		</g>
	</g>
	<g id="XMLID_667_" class="st2">
		<path id="XMLID_670_" class="st3" d="M72,47c7.3-5.7,11.5-6.4,16.2-2.6c4.9,3.9,7.3,13.2,3,18.8c-4.7,6.2-11.2,11-17.1,16.1
			c-0.9,0.8-3.6,0.6-4.7-0.2c-5.7-4.1-11.1-8.5-17.5-13.6C62,60.1,67.3,53.4,63.3,41.4C67.1,43.8,69.3,45.3,72,47z"/>
		<path id="XMLID_669_" class="st3" d="M48.4,21.4c4.4,6.9,7.8,12.2,11.5,18.1C49.1,44,47.3,52.3,49,62c-10.3-0.2-16.7-7.9-13.2-17
			C38.8,37.1,43.7,30,48.4,21.4z"/>
		<path id="XMLID_668_" class="st3" d="M51.6,61.6c-2-11.5,0.3-16.4,8.9-19C64.8,51.8,61.6,59.1,51.6,61.6z"/>
	</g>
</g>
<g id="Layer_6">
</g>
<g id="Layer_7">
</g>
<g id="Layer_8">
</g>
<g id="Layer_9">
</g>
<g id="Layer_10">
</g>
<g id="Layer_11">
</g>
<g id="Layer_12">
</g>
<g id="Layer_13">
</g>
<g id="Layer_14">
</g>
</svg>
