<svg id="f068b48b-3e33-4ccd-a83d-b330ee27c5db" data-name="Layer 1" xmlns="http://www.w3.org/2000/svg" viewBox="0 0 69.2613 69.2613"><defs><style>.bea2721c-f612-4458-b041-a8af9e36910c{fill:#eeb95b;stroke:#eeb95b;stroke-width:1.33806px;}.a0829289-4934-4d8a-922a-162a0ee96214,.af79f647-c3cf-4ac1-a688-44d0601d2b03,.bea2721c-f612-4458-b041-a8af9e36910c{stroke-miterlimit:10;}.a0829289-4934-4d8a-922a-162a0ee96214,.af79f647-c3cf-4ac1-a688-44d0601d2b03{fill:none;}.af79f647-c3cf-4ac1-a688-44d0601d2b03{stroke:#fff;stroke-width:1.63396px;}.a04e19d2-6082-42f5-9034-2bf0b35b07bd{fill:#fff;}.a0829289-4934-4d8a-922a-162a0ee96214{stroke:#4d7582;stroke-width:3.12438px;}.e251d2b5-fa9f-4bfb-89d1-5839cfe0704f{fill:#4e7582;}</style></defs><title>Artboard 38</title><circle class="bea2721c-f612-4458-b041-a8af9e36910c" cx="34.63065" cy="34.63065" r="33.96162"/><rect class="af79f647-c3cf-4ac1-a688-44d0601d2b03" x="40.30264" y="22.00386" width="9.6497" height="4.15168" rx="1.71109"/><rect class="a04e19d2-6082-42f5-9034-2bf0b35b07bd" x="31.78627" y="25.33236" width="26.68244" height="18.46634" rx="2.38011"/><line class="a0829289-4934-4d8a-922a-162a0ee96214" x1="39.50362" y1="34.56552" x2="50.75137" y2="34.56552"/><line class="a0829289-4934-4d8a-922a-162a0ee96214" x1="45.12749" y1="40.1894" x2="45.12749" y2="28.94165"/><path class="e251d2b5-fa9f-4bfb-89d1-5839cfe0704f" d="M9.27824,37.00513H7.56242V35.509H9.455l.373-3.01367H8.00188v-1.4961h2.002l.50586-3.916h1.36523l-.48437,3.916h2.72851l.50586-3.916H15.9882l-.48437,3.916h1.76074v1.4961H15.32805L14.955,35.509h1.86914v1.49609h-2.0459l-.52832,4.37793H12.86418l.52832-4.37793H10.664l-.52735,4.37793H8.74992Zm4.29-1.49609.374-3.01367H11.21477l-.375,3.01367Z"/><path class="e251d2b5-fa9f-4bfb-89d1-5839cfe0704f" d="M18.914,39.55689h3.168V29.8772H19.50774V28.469a8.882,8.882,0,0,0,3.125-1.09961h1.67187v12.1875H27.12v1.82617H18.914Z"/></svg>