<svg id="b9325795-508f-4031-bc3d-81ab60ff8719" data-name="Layer 1" xmlns="http://www.w3.org/2000/svg" xmlns:xlink="http://www.w3.org/1999/xlink" viewBox="0 0 69.2613 69.2613"><defs><style>.aaf25472-cc53-4f5f-aa99-351f2031195c{fill:none;}.a7b6518a-225f-4dd4-b85e-a4429398cf08{fill:#ee755b;stroke:#ee755b;stroke-width:1.33806px;}.a7b6518a-225f-4dd4-b85e-a4429398cf08,.ffd8fd4b-11aa-46ad-bed7-ad6b1a60a704{stroke-miterlimit:10;}.b10af38f-c77d-47ae-8779-56e468d2dcab{fill:#fff;}.a103ea30-e029-4ba0-b269-9818dd898a1a,.ffd8fd4b-11aa-46ad-bed7-ad6b1a60a704{fill:#4d7582;}.eb71bc4c-aa1b-4bca-bd4f-bb7e3aca4110{clip-path:url(#e8c28d87-9d17-4ae9-a9ce-98fa0131dee4);}.ffd8fd4b-11aa-46ad-bed7-ad6b1a60a704{stroke:#4d7582;stroke-width:0.70445px;}</style><clipPath id="e8c28d87-9d17-4ae9-a9ce-98fa0131dee4"><path class="aaf25472-cc53-4f5f-aa99-351f2031195c" d="M41.99994,28.76717V25.90043H26.83346v2.86674c-1.70026.61911-2.74755,1.36486-2.74755,1.96895v21.321c0,1.8209,4.62527,3.29706,10.33079,3.29706S44.74749,53.878,44.74749,52.05712v-21.321C44.74749,30.132,43.70021,29.38628,41.99994,28.76717Z"/></clipPath></defs><title>Artboard 39</title><circle class="a7b6518a-225f-4dd4-b85e-a4429398cf08" cx="34.63065" cy="34.63065" r="33.96162"/><path class="b10af38f-c77d-47ae-8779-56e468d2dcab" d="M38.45615,14.5196H42.32a1.65821,1.65821,0,0,1,1.65821,1.65821v0A1.65822,1.65822,0,0,1,42.32,17.836H38.45614a1.65821,1.65821,0,0,1-1.65821-1.65821v0a1.65822,1.65822,0,0,1,1.65822-1.65822Z" transform="translate(-0.43311 31.22936) rotate(-42.06893)"/><path class="a103ea30-e029-4ba0-b269-9818dd898a1a" d="M40.71118,13.65241,39.277,14.94684l2.22209,2.46192,1.43415-1.29443a1.65822,1.65822,0,0,0-2.22209-2.46192Z"/><path class="b10af38f-c77d-47ae-8779-56e468d2dcab" d="M33.28975,9.86511h3.86384a1.65821,1.65821,0,0,1,1.65821,1.65821v0a1.65822,1.65822,0,0,1-1.65822,1.65822H33.28974a1.65821,1.65821,0,0,1-1.65821-1.65821v0a1.65822,1.65822,0,0,1,1.65822-1.65822Z" transform="translate(20.17652 -22.344) rotate(47.93107)"/><path class="a103ea30-e029-4ba0-b269-9818dd898a1a" d="M37.74707,11.84644,36.45263,10.4123l-2.46192,2.22209,1.29444,1.43414a1.65822,1.65822,0,0,0,2.46192-2.22209Z"/><g class="eb71bc4c-aa1b-4bca-bd4f-bb7e3aca4110"><path class="b10af38f-c77d-47ae-8779-56e468d2dcab" d="M41.99994,28.76717V25.90043H26.83346v2.86674c-1.70026.61911-2.74755,1.36486-2.74755,1.96895v21.321c0,1.8209,4.62527,3.29706,10.33079,3.29706S44.74749,53.878,44.74749,52.05712v-21.321C44.74749,30.132,43.70021,29.38628,41.99994,28.76717Z"/><path class="ffd8fd4b-11aa-46ad-bed7-ad6b1a60a704" d="M45.20628,34.01632v.16485c0,1.15322-5.06939,2.29733-10.73451,2.29733s-10.768-1.09387-10.768-2.24709l.51036,10.24247h.16912c.85615.9772,5.04207,1.71969,10.08852,1.71969s9.23237-.74249,10.08853-1.71969h.20551Z"/></g><path class="a103ea30-e029-4ba0-b269-9818dd898a1a" d="M25.95426,22.42016V25.644c0,.89022,3.78878,1.61188,8.46242,1.61188s8.46248-.72166,8.46248-1.61188V22.42016Z"/><ellipse class="b10af38f-c77d-47ae-8779-56e468d2dcab" cx="34.4167" cy="22.4202" rx="8.46246" ry="1.6119"/></svg>