<svg id="a92f27db-5222-4f8f-9cc5-92259f828aba" data-name="Layer 1" xmlns="http://www.w3.org/2000/svg" viewBox="0 0 69.2613 69.2613"><defs><style>.ee78994d-d400-4ead-a376-a4bb32d63d18{fill:#ee755b;stroke:#ee755b;stroke-width:1.33806px;}.a1659337-f5f1-4f60-baf2-7b108b893d36,.ee78994d-d400-4ead-a376-a4bb32d63d18{stroke-miterlimit:10;}.ad542631-25d5-4069-83cb-fd973a752a02{fill:#4d7582;}.a1659337-f5f1-4f60-baf2-7b108b893d36,.ef96bb72-37ee-4d59-afca-1c7b37df3116{fill:#fff;}.a1659337-f5f1-4f60-baf2-7b108b893d36{stroke:#fff;stroke-width:1.32962px;}</style></defs><title>Artboard 41</title><circle class="ee78994d-d400-4ead-a376-a4bb32d63d18" cx="34.63065" cy="34.63065" r="33.96162"/><path class="ad542631-25d5-4069-83cb-fd973a752a02" d="M41.83535,25.9645c-.68256-1.48553-3.71963-2.28006-6.96693-2.39937h-.75776c-3.2473.11931-6.28437.91384-6.96693,2.39937-2.50321,5.448-3.26762,17.51647-2.6141,23.26957H44.44944C45.103,43.481,44.33855,31.41255,41.83535,25.9645Z"/><path class="ef96bb72-37ee-4d59-afca-1c7b37df3116" d="M46.33974,50.19652c.32833-.08634.53729-.75051.53729-.75051s-.52306-5.35879-2.43078-4.7814a30.82339,30.82339,0,0,1-10.03056,1.66492,39.45163,39.45163,0,0,1-9.88292-1.66492c-1.90765-.57737-2.34521,2.4766-2.43072,4.78114a.73574.73574,0,0,0,.53762.7506,52.91975,52.91975,0,0,0,11.92312,1.79209A52.468,52.468,0,0,0,46.33974,50.19652Z"/><line class="a1659337-f5f1-4f60-baf2-7b108b893d36" x1="43.8002" y1="24.48689" x2="48.31755" y2="19.96955"/><line class="a1659337-f5f1-4f60-baf2-7b108b893d36" x1="34.48954" y1="19.47445" x2="34.48954" y2="13.22516"/><line class="a1659337-f5f1-4f60-baf2-7b108b893d36" x1="25.17887" y1="23.72236" x2="20.94375" y2="19.48723"/><line class="a1659337-f5f1-4f60-baf2-7b108b893d36" x1="39.99636" y1="20.01906" x2="41.41232" y2="16.64252"/><line class="a1659337-f5f1-4f60-baf2-7b108b893d36" x1="29.02815" y1="20.01906" x2="27.61218" y2="16.64252"/><circle class="ef96bb72-37ee-4d59-afca-1c7b37df3116" cx="34.32828" cy="36.3996" r="4.99413"/></svg>