<svg id="a246b73e-2839-445b-beb0-9f3f7c5a4c8f" data-name="Layer 1" xmlns="http://www.w3.org/2000/svg" xmlns:xlink="http://www.w3.org/1999/xlink" viewBox="0 0 69.2613 69.2613"><defs><style>.a12f35c1-1047-4bfa-85b5-328b67c2ec42,.b25d06a1-e5bb-4014-969a-f3bcf6c6c514{fill:none;}.e79e2caf-5f2a-48e7-91a6-24decd2ac289{fill:#ee755b;stroke:#ee755b;stroke-width:1.33806px;}.a12f35c1-1047-4bfa-85b5-328b67c2ec42,.e79e2caf-5f2a-48e7-91a6-24decd2ac289{stroke-miterlimit:10;}.afa566b8-07a9-4228-ae2a-8496f5df7094,.f02e9e2f-0807-4ee5-b01c-d3c59882ebb0{fill:#4d7582;}.afa566b8-07a9-4228-ae2a-8496f5df7094{stroke:#4d7582;}.ac3d869c-bfba-4c34-a795-d2698c34bee3,.af9dfd6a-d4e4-4e4a-b1e6-93293e9c1abc,.afa566b8-07a9-4228-ae2a-8496f5df7094,.b1d88cb4-a287-4a24-b40c-22c4e77ed9f1{stroke-linecap:round;stroke-linejoin:round;}.ac3d869c-bfba-4c34-a795-d2698c34bee3,.afa566b8-07a9-4228-ae2a-8496f5df7094{stroke-width:1.10239px;}.af9dfd6a-d4e4-4e4a-b1e6-93293e9c1abc{fill:#4e7582;stroke:#4e7582;stroke-width:1.07707px;}.a0f63c89-3ae3-46bb-b29e-32921f5dc1f6,.ac3d869c-bfba-4c34-a795-d2698c34bee3,.b1d88cb4-a287-4a24-b40c-22c4e77ed9f1{fill:#fff;}.a12f35c1-1047-4bfa-85b5-328b67c2ec42,.ac3d869c-bfba-4c34-a795-d2698c34bee3,.b1d88cb4-a287-4a24-b40c-22c4e77ed9f1{stroke:#fff;}.b1d88cb4-a287-4a24-b40c-22c4e77ed9f1{stroke-width:1.19059px;}.f7d6a0cb-be91-4ee5-81e4-6b5ea24924da{clip-path:url(#eeb82e5d-9c99-4393-81f3-6cb873f83a73);}.a12f35c1-1047-4bfa-85b5-328b67c2ec42{stroke-width:0.37591px;}</style><clipPath id="eeb82e5d-9c99-4393-81f3-6cb873f83a73"><path class="b25d06a1-e5bb-4014-969a-f3bcf6c6c514" d="M22.61926,36.66785,36.45574,50.50576a3.02979,3.02979,0,0,1-.90572,2.523,2.76507,2.76507,0,0,1-2.5244.90671L19.18915,40.09762Z"/></clipPath></defs><title>Artboard 43</title><circle class="e79e2caf-5f2a-48e7-91a6-24decd2ac289" cx="34.63065" cy="34.63065" r="33.96162"/><path class="afa566b8-07a9-4228-ae2a-8496f5df7094" d="M40.98924,27.905a6.60153,6.60153,0,0,1-1.325,2.71258c-.657.84747-1.423.97345-2.14447,1.68874-1.42163,1.40941-4.07063,4.33273-3.35008,6.59242a4.48077,4.48077,0,0,0,1.28585,1.45216,14.18638,14.18638,0,0,0,4.22477,2.40339c2.769,1.11858,6.67845,3.95273,9.7525,2.69393,1.90453-.77989,1.84509-3.85626,2.09067-5.75519a25.869,25.869,0,0,0-.28233-8.98356,4.67751,4.67751,0,0,0-1.68363-3.04873A1.73384,1.73384,0,0,0,46.9078,28.7706,5.45047,5.45047,0,0,0,42.00822,26.71a1.14013,1.14013,0,0,0-.66126.25393A1.728,1.728,0,0,0,40.98924,27.905Z"/><path class="af9dfd6a-d4e4-4e4a-b1e6-93293e9c1abc" d="M43.61879,14.70187a.85584.85584,0,0,0-1.173.29736,8.08956,8.08956,0,0,1-.50916,1.49033.65408.65408,0,0,1-1.17065-.0727c-.19848-.5799-.13028-1.27236-.52724-1.78255a.738.738,0,0,0-1.13138.14025c-.10758.26863.21707.83722.282,1.10467a2.48428,2.48428,0,0,1-.38,2.32144,10.10262,10.10262,0,0,0-2.07909,3.44215,3.83082,3.83082,0,0,0-.16832,1.973A4.33264,4.33264,0,0,0,37.48076,25.38a2.27726,2.27726,0,0,0,.79228.31845,11.1722,11.1722,0,0,1,2.81568,1.21181c-.36959-.22405.39041-1.78682.51053-2.04076a4.03045,4.03045,0,0,0,.38057-1.2137c.10792-.85472-.28357-1.46572.78364-1.80436a4.18056,4.18056,0,0,1,1.13788-.12017,4.93972,4.93972,0,0,0,1.69658-.30295c.35236-.14218,2.67943-2.40338,2.99687-1.97375a2.96419,2.96419,0,0,0-1.92513-1.3807c-.2568-.04536-1.03222-.21989-1.196.08359a26.17485,26.17485,0,0,1,1.29957-2.42381c.46664-.683-.0363-.59965-.76952-.6921a.27921.27921,0,0,0-.162.012.258.258,0,0,0-.10152.12929c-.295.618-.62981,1.95965-1.64529,1.58661-.45118-.16575-.41-.63791-.3726-1.01684.02478-.25132.16108-.62456.05073-.85752A.52454.52454,0,0,0,43.61879,14.70187Z"/><path class="ac3d869c-bfba-4c34-a795-d2698c34bee3" d="M39.34977,15.71656a2.45194,2.45194,0,0,0-2.10843,1.16756,8.67853,8.67853,0,0,0-1.8043,2.61662c-1.278-.93369-1.44115-4.18583-1.95853-5.557a2.69481,2.69481,0,0,1-1.47372.74555,1.17587,1.17587,0,0,0-.54316.16521.64387.64387,0,0,0-.13317.65042c.18346,1.0369,1.01337,2.004.99779,3.06908-.021,1.43711-.98007.94408-1.9754,1.652-.053.0377-.93526.83819-.598.88571a21.76341,21.76341,0,0,0,2.23623-.14054.532.532,0,0,1-.36769.77548c-.161.04064-.35825.03583-.46147.14757-.1787.19345.16327.45708.45325.43609s.553-.17618.844-.17546a1.07053,1.07053,0,0,1,.94061.82208,23.159,23.159,0,0,1,.70043,3.11743l3.11451-.539a.60582.60582,0,0,0,.38824-.1662c.10316-.13833.01313-.31674-.068-.4651-1.13862-2.0814-.21156-4.52975.952-6.60137a3.246,3.246,0,0,0,.65193-2.48154c-.06924-.21124-.00918-.57112.2276-.48018"/><path class="afa566b8-07a9-4228-ae2a-8496f5df7094" d="M46.76139,29.22485a24.5809,24.5809,0,0,1-1.10057-4.11458,2.484,2.484,0,0,1,1.548.3251.523.523,0,0,0,.80223-.02827,2.1554,2.1554,0,0,1,2.03019-.32979c.08461.1959-.09449.4071-.2905.51181a1.96708,1.96708,0,0,0-.57459.32634c-.14537.16163-.109.4801.11481.50735a2.26807,2.26807,0,0,1,.57245-.682.85862.85862,0,0,1,.873-.10059.45178.45178,0,0,1,.10172.73385c-.26976.19223-.80007.08867-.8661.4-.03031.1429.07934.274.16216.39728a1.29759,1.29759,0,0,1-.01014,1.44153,3.18947,3.18947,0,0,0-3.10339.30985"/><path class="b1d88cb4-a287-4a24-b40c-22c4e77ed9f1" d="M45.20292,27.32019c-.26589-.11682-.52311-.27508-.69625-.33783a5.89864,5.89864,0,0,0-2.11371-.37027c-.41871.00748-1.04515.35292-1.34754-.13579-.45511-.73552.5904-1.91861.7215-2.61978a3.9501,3.9501,0,0,1,.217-1.25566,2.151,2.151,0,0,1,2.70941-.56656c-.0237-.01236,2.06019-1.50284,2.2989-1.59716a6.02581,6.02581,0,0,1,3.38546-.29986.52577.52577,0,0,1,.37323.19862.47109.47109,0,0,1-.03617.37,1.69591,1.69591,0,0,0,.046,1.22061c-1.49811.1047-3.3724.41871-4.41734,1.49368a2.39871,2.39871,0,0,0-.4018,1.7825c.02444.48663.4553,1.64934.18771,2.04636C45.92186,27.55687,45.5548,27.4748,45.20292,27.32019Z"/><path class="ac3d869c-bfba-4c34-a795-d2698c34bee3" d="M34.334,26.11326c1.64458-.6075,4.61262-.972,6.13741.14873,2.073,1.52366.12649,3.75764-1.32613,4.84789A16.55372,16.55372,0,0,0,36.356,33.76927c-.28006.337-2.64807,4.16789-2.44434,4.43965a10.63462,10.63462,0,0,1-1.99073-7.44634,1.53041,1.53041,0,0,0-.16325-1.17345c-.41113-.47328-1.26422-.14651-1.67-.62508-.38081-.44915.03317-1.23352.58571-1.36989a2.36057,2.36057,0,0,1,1.6189.41668,5.55458,5.55458,0,0,1-1.7072-2.69952c.9419-.45839,1.79884,1.00791,2.83348,1.03426A2.52517,2.52517,0,0,0,34.334,26.11326Z"/><ellipse class="a0f63c89-3ae3-46bb-b29e-32921f5dc1f6" cx="38.64453" cy="56.20863" rx="3.12745" ry="2.05613" transform="translate(-28.42615 43.78547) rotate(-44.99704)"/><path class="a0f63c89-3ae3-46bb-b29e-32921f5dc1f6" d="M35.75569,50.74254l4.55591,4.55638s.15426.75025-.83625,1.74066a2.4977,2.4977,0,0,1-1.65544.75078L33.264,53.234A2.39122,2.39122,0,0,1,35.75569,50.74254Z"/><ellipse class="a0f63c89-3ae3-46bb-b29e-32921f5dc1f6" cx="34.74087" cy="52.30458" rx="3.12745" ry="2.05613" transform="translate(-26.80891 39.88199) rotate(-44.99704)"/><path class="f02e9e2f-0807-4ee5-b01c-d3c59882ebb0" d="M22.61926,36.66785,36.45574,50.50576a3.02979,3.02979,0,0,1-.90572,2.523,2.76507,2.76507,0,0,1-2.5244.90671L19.18915,40.09762Z"/><ellipse class="a0f63c89-3ae3-46bb-b29e-32921f5dc1f6" cx="20.86233" cy="38.4246" rx="3.12745" ry="1.65046" transform="translate(-21.05922 26.00404) rotate(-44.99704)"/><path class="a0f63c89-3ae3-46bb-b29e-32921f5dc1f6" d="M19.05385,39.96231A4.16189,4.16189,0,0,1,18.577,36.084a3.65926,3.65926,0,0,1,3.68929.66619A3.37441,3.37441,0,0,1,19.05385,39.96231Z"/><polygon class="a0f63c89-3ae3-46bb-b29e-32921f5dc1f6" points="18.721 36.494 12.937 30.443 18.987 36.228 18.721 36.494"/><g class="f7d6a0cb-be91-4ee5-81e4-6b5ea24924da"><path class="a12f35c1-1047-4bfa-85b5-328b67c2ec42" d="M26.87255,40.12178a3.36231,3.36231,0,0,1-1.2401,2.46874"/><path class="a12f35c1-1047-4bfa-85b5-328b67c2ec42" d="M28.4011,41.78516a3.11325,3.11325,0,0,1-1.12229,2.48409"/><path class="a12f35c1-1047-4bfa-85b5-328b67c2ec42" d="M30.00212,43.39937a2.81213,2.81213,0,0,1-1.02527,2.41734"/><path class="a12f35c1-1047-4bfa-85b5-328b67c2ec42" d="M31.54445,44.91477a2.64407,2.64407,0,0,1-.88676,2.46006"/><path class="a12f35c1-1047-4bfa-85b5-328b67c2ec42" d="M33.10035,46.4274a2.46163,2.46163,0,0,1-.97059,2.25292"/></g><path class="f02e9e2f-0807-4ee5-b01c-d3c59882ebb0" d="M12.97989,30.60879a1.8408,1.8408,0,0,0-1.258-.28179,1.04174,1.04174,0,0,0-.73429.40025.57.57,0,0,0,.10187.76869.65788.65788,0,0,0,.66448-.02447,5.97489,5.97489,0,0,0,.5612-.41581,1.91556,1.91556,0,0,1,1.0927-.34884"/></svg>