<svg id="a84eecf1-6537-47b9-8e9f-fe9dfb8695bd" data-name="Layer 1" xmlns="http://www.w3.org/2000/svg" viewBox="0 0 69.2613 69.2613"><defs><style>.a72729f2-612e-4014-bfd9-b6d02ec400dd{fill:#eeb95b;stroke:#eeb95b;stroke-miterlimit:10;stroke-width:1.33806px;}.bb3d15af-4158-4c94-9e8c-9c6d0699b0a4{fill:#fff;}.a63f2def-2aeb-4386-8307-e3103beb3e29{fill:#4d7582;}</style></defs><title>Artboard 47</title><circle class="a72729f2-612e-4014-bfd9-b6d02ec400dd" cx="34.63065" cy="34.63065" r="33.96162"/><path class="bb3d15af-4158-4c94-9e8c-9c6d0699b0a4" d="M43.31213,43.9419a31.1073,31.1073,0,0,0,.22978-8.13688c-.15447-1.09356-.4169-2.16858-.67892-3.24146a8.02526,8.02526,0,0,0-.87545-2.79008,7.50841,7.50841,0,0,0-2.215-1.78337,10.71046,10.71046,0,0,0-5.363-1.47668,13.27052,13.27052,0,0,0-8.59681,3.34531c-2.90077,2.50231-3.65649,6.6251-3.81651,10.26251-.13855,3.14942-.39795,8.60832,1.53948,11.31117,1.2438,1.73512,5.69954,2.49362,7.58474,1.989a47.59894,47.59894,0,0,0,7.26693-2.655c.51661-.23345,1.49925-.40213,1.75569-.96687a3.47725,3.47725,0,0,1,.14849-.38091.81568.81568,0,0,1,.46255-.31788,1.8263,1.8263,0,0,0,1.10965-.71846,5.81272,5.81272,0,0,0,.98322-1.25458,6.15766,6.15766,0,0,0,.21023-1.40709C43.14182,45.1277,43.23915,44.5365,43.31213,43.9419Z"/><path class="a63f2def-2aeb-4386-8307-e3103beb3e29" d="M23.96135,29.18462a12.446,12.446,0,0,1,4.04189-3.567c.447-.23224,5.4205-2.06615,5.16178-.9444a.82469.82469,0,0,1-.20489.3166,1.74451,1.74451,0,0,0-.39324.96562c.5728-1.067,1.93845-1.36392,3.13553-1.54726.23777,3.0213,4.326,2.62094,6.16962,4.05265a10.24693,10.24693,0,0,1,3.491,4.9433c1.46865,4.642-.35433,9.29091-1.59968,13.78891a6.014,6.014,0,0,1-.72631,1.95535,1.56643,1.56643,0,0,1-2.2095.441c-1.10677-.80185.01418.87135-1.08182.05534a2.34966,2.34966,0,0,1-.46783-.52134c-.76125-1.04139-1.482-2.13655-2.3306-3.10869-.70564-.80834-.76926-1.11721.00486-2.0236a3.97322,3.97322,0,0,0,.935-2.84406,1.29441,1.29441,0,0,0-.27936-.79993c-.41564-.44867-1.18246-.2723-1.694.06721-1.52789,1.014-1.55886,1.36735-2.16819-.6145-.34534-1.12321-3.96186-2.45342-5.09322-3.18733-1.44406-.936-3.56862-.30815-5.1012-1.11977C21.29215,34.29637,22.81067,30.72542,23.96135,29.18462Z"/><polygon class="bb3d15af-4158-4c94-9e8c-9c6d0699b0a4" points="49.983 14.634 44.863 21.085 44.525 19.844 49.333 21.297 50.486 21.646 49.624 22.409 41.835 29.308 48.677 21.469 48.968 22.581 44.114 21.288 42.765 20.929 43.776 20.048 49.983 14.634"/><polygon class="bb3d15af-4158-4c94-9e8c-9c6d0699b0a4" points="38.956 11.203 37.152 15.902 36.728 15.24 39.797 15.207 40.533 15.199 40.17 15.802 36.892 21.251 39.446 15.427 39.819 16.022 36.753 16.157 35.901 16.195 36.328 15.496 38.956 11.203"/><polygon class="bb3d15af-4158-4c94-9e8c-9c6d0699b0a4" points="25.74 16.767 29.533 20.075 30.151 20.614 29.326 20.833 26.36 21.623 26.538 20.944 30.719 25.734 25.959 21.518 25.432 21.052 26.137 20.839 29.075 19.951 28.869 20.709 25.74 16.767"/></svg>