<svg id="b268f656-edc7-4364-bca3-11bdf828b5c4" data-name="Layer 1" xmlns="http://www.w3.org/2000/svg" viewBox="0 0 69.2613 69.2613"><defs><style>.b4c89e55-4b5e-4f65-acca-b47b1ef45087{fill:#eeb95b;stroke:#eeb95b;stroke-miterlimit:10;stroke-width:1.33806px;}.bd69a5dd-097d-43ee-83de-e11656fa8b02{fill:#fff;}.ab944e22-4f0d-4667-ac30-446f797669e4{fill:#4e7582;}</style></defs><title>Artboard 49</title><circle class="b4c89e55-4b5e-4f65-acca-b47b1ef45087" cx="34.63065" cy="34.63065" r="33.96162"/><path class="bd69a5dd-097d-43ee-83de-e11656fa8b02" d="M49.17868,25.19651a3.18048,3.18048,0,0,0-3.67077-1.75707c-2.14629.52537-3.83126-.26455-5.72384-1.36728a16.56256,16.56256,0,0,0-2.81485-1.39428,7.44088,7.44088,0,0,0-2.47769-.408v-.00029l-.00115.00014-.0023-.00014v.00029a7.44117,7.44117,0,0,0-2.47769.408,16.55933,16.55933,0,0,0-2.81478,1.39428C27.303,23.17489,25.618,23.96481,23.4717,23.43944a3.18048,3.18048,0,0,0-3.67077,1.75707,10.0622,10.0622,0,0,0-1.26818,4.98024,7.148,7.148,0,0,0,2.4005,5.453c1.73589,1.50832,4.214,2.73715,6.53961,1.94924,1.32089-.44724,2.24891-1.768.89556-2.71474a.51009.51009,0,0,1-.26786-.42239,7.23351,7.23351,0,0,1,1.64584.3411c1.769.77383,2.61126,3.62732,4.74283,3.55048v.00014h.00122v-.00014c2.1315.07684,2.97377-2.77665,4.74276-3.55048a7.23415,7.23415,0,0,1,1.64584-.3411.50979.50979,0,0,1-.26786.42239c-1.35335.94675-.42534,2.2675.89556,2.71474,2.3256.78791,4.80372-.44092,6.53961-1.94924a7.148,7.148,0,0,0,2.4005-5.453A10.0622,10.0622,0,0,0,49.17868,25.19651Z"/><path class="ab944e22-4f0d-4667-ac30-446f797669e4" d="M24.02624,33.88548a3.05249,3.05249,0,0,1,2.24414-1.19673,4.11773,4.11773,0,0,1,2.325.73314,7.08711,7.08711,0,0,1,1.91382,1.40926,6.54742,6.54742,0,0,1,1.26612,1.90747l-.18555.13489a7.52782,7.52782,0,0,0-1.761-1.12,8.37612,8.37612,0,0,0-1.86255-.609,12.96725,12.96725,0,0,1-1.86181-.16949,10.73218,10.73218,0,0,1-2.0232-.86706Z"/><path class="ab944e22-4f0d-4667-ac30-446f797669e4" d="M44.90539,34.108a10.72527,10.72527,0,0,1-2.02319.86706,12.96421,12.96421,0,0,1-1.86182.16949,8.37629,8.37629,0,0,0-1.86255.609,7.53291,7.53291,0,0,0-1.761,1.12l-.18531-.13489a6.54175,6.54175,0,0,1,1.26587-1.90747,7.08477,7.08477,0,0,1,1.91407-1.40926,4.11755,4.11755,0,0,1,2.3247-.73314,3.05247,3.05247,0,0,1,2.24414,1.19673Z"/><path class="bd69a5dd-097d-43ee-83de-e11656fa8b02" d="M16.13144,51.37934a17.75246,17.75246,0,0,0,9.31786-9.11827"/><path class="bd69a5dd-097d-43ee-83de-e11656fa8b02" d="M22.98813,52.99174a17.75243,17.75243,0,0,0,4.61214-12.194"/><path class="bd69a5dd-097d-43ee-83de-e11656fa8b02" d="M53.12986,51.37934A17.75246,17.75246,0,0,1,43.812,42.26107"/><path class="bd69a5dd-097d-43ee-83de-e11656fa8b02" d="M46.27317,52.99174a17.75243,17.75243,0,0,1-4.61214-12.194"/></svg>