<svg id="a3bdca22-c5bf-458d-8ae7-b1d2464ddd6c" data-name="Layer 1" xmlns="http://www.w3.org/2000/svg" viewBox="0 0 69.2613 69.2613"><defs><style>.bd87f712-0ee3-4962-838f-ce84f9f59f4c{fill:#eeb95b;stroke:#eeb95b;stroke-width:1.33806px;}.a83486dc-c89c-43f5-9763-34c3b28aecfd,.b6c175dc-0eae-4099-9254-72cbaa179e2e,.bd87f712-0ee3-4962-838f-ce84f9f59f4c,.e4b9b5c9-855c-4809-9449-f153b15308ad{stroke-miterlimit:10;}.a83486dc-c89c-43f5-9763-34c3b28aecfd,.b6c175dc-0eae-4099-9254-72cbaa179e2e,.e4b9b5c9-855c-4809-9449-f153b15308ad{fill:none;stroke-width:0.98385px;}.a83486dc-c89c-43f5-9763-34c3b28aecfd{stroke:#fff;}.e4b9b5c9-855c-4809-9449-f153b15308ad{stroke:#4d7582;}.b6c175dc-0eae-4099-9254-72cbaa179e2e{stroke:#4e7582;}.f6f2d573-48a9-4c2a-9738-b7c67d60f7b6{fill:#4e7582;}.a3ca23ec-d40c-4720-a64e-fe3d732652a3{fill:#4d7582;}</style></defs><title>Artboard 53</title><circle class="bd87f712-0ee3-4962-838f-ce84f9f59f4c" cx="34.63065" cy="34.63065" r="33.96162"/><polyline class="a83486dc-c89c-43f5-9763-34c3b28aecfd" points="23.943 34.262 26.567 34.978 30.011 44.32"/><path class="e4b9b5c9-855c-4809-9449-f153b15308ad" d="M23.94287,34.26173s2.6245-.55425,5.249-4.24027"/><path class="b6c175dc-0eae-4099-9254-72cbaa179e2e" d="M23.94287,36.95115s4.8015-1.20271,7.03086-5.19044"/><path class="f6f2d573-48a9-4c2a-9738-b7c67d60f7b6" d="M11.09018,30.33465a16.27091,16.27091,0,0,0,1.85463,13.98118c.70634,1.08757,2.7,3.62932,4.24458,3.07607A2.21828,2.21828,0,0,0,18.40234,46.103a25.15045,25.15045,0,0,0,1.17517-8.50361,21.98234,21.98234,0,0,0-.23588-4.30928,3.39665,3.39665,0,0,1,.02847-2.24024c.20738-.35565.56288-.55506.7454-.93094.31826-.65543-.01775-1.47486-.09286-2.23376-.11655-1.17837.44946-2.4226.04524-3.5744-.89608-2.55336-3.84289-1.13473-5.2012.08818A14.033,14.033,0,0,0,11.09018,30.33465Z"/><circle class="f6f2d573-48a9-4c2a-9738-b7c67d60f7b6" cx="19.41874" cy="29.31155" r="6.59388"/><circle class="f6f2d573-48a9-4c2a-9738-b7c67d60f7b6" cx="19.41874" cy="41.74573" r="6.59388"/><circle class="f6f2d573-48a9-4c2a-9738-b7c67d60f7b6" cx="20.25415" cy="35.52864" r="3.95633"/><path class="a3ca23ec-d40c-4720-a64e-fe3d732652a3" d="M21.68872,28.2505l-5.30925,2.23788a10.09992,10.09992,0,0,1-1.15066.43091,1.95372,1.95372,0,0,1-.76793.09118,1.60884,1.60884,0,0,1-1.20782-1.82278,3.60616,3.60616,0,0,1,1.22056-2.04554,10.10243,10.10243,0,0,1,4.2922-2.55782c.92063-.2415,2.70246-.26735,3.35829.56613C22.94257,26.19063,23.06713,27.6695,21.68872,28.2505Z"/><path class="a3ca23ec-d40c-4720-a64e-fe3d732652a3" d="M19.78524,46.56075a4.39258,4.39258,0,0,0,4.47813-2.76722,6.879,6.879,0,0,0,.52019-1.65651c.31742-1.732.20418-4.99688-2.22637-4.522a9.59549,9.59549,0,0,0-1.21673.3849,23.078,23.078,0,0,1-5.95453.84415,1.736,1.736,0,0,0-.828.1979c-1.0627.67249-.46668,2.08472-.031,2.989C15.50228,44.05544,17.53145,46.3536,19.78524,46.56075Z"/><polyline class="a83486dc-c89c-43f5-9763-34c3b28aecfd" points="44.794 34.262 42.169 34.978 38.726 44.32"/><path class="e4b9b5c9-855c-4809-9449-f153b15308ad" d="M44.79368,34.26173s-2.6245-.55425-5.249-4.24027"/><path class="b6c175dc-0eae-4099-9254-72cbaa179e2e" d="M44.79368,36.95115s-4.8015-1.20271-7.03086-5.19044"/><path class="f6f2d573-48a9-4c2a-9738-b7c67d60f7b6" d="M57.64636,30.33465a16.27091,16.27091,0,0,1-1.85462,13.98118c-.70634,1.08757-2.7,3.62932-4.24458,3.07607A2.21828,2.21828,0,0,1,50.33421,46.103,25.1507,25.1507,0,0,1,49.159,37.5994a21.98235,21.98235,0,0,1,.23589-4.30928,3.39665,3.39665,0,0,0-.02847-2.24024c-.20738-.35565-.56288-.55506-.7454-.93094-.31826-.65543.01774-1.47486.09286-2.23376.11655-1.17837-.44946-2.4226-.04525-3.5744.89608-2.55336,3.8429-1.13473,5.20121.08818A14.033,14.033,0,0,1,57.64636,30.33465Z"/><circle class="f6f2d573-48a9-4c2a-9738-b7c67d60f7b6" cx="49.31781" cy="29.31155" r="6.59388"/><circle class="f6f2d573-48a9-4c2a-9738-b7c67d60f7b6" cx="49.31781" cy="41.74573" r="6.59388"/><circle class="f6f2d573-48a9-4c2a-9738-b7c67d60f7b6" cx="48.48239" cy="35.52864" r="3.95633"/><path class="a3ca23ec-d40c-4720-a64e-fe3d732652a3" d="M47.04782,28.2505l5.30926,2.23788a10.10048,10.10048,0,0,0,1.15065.43091,1.95379,1.95379,0,0,0,.76794.09118,1.60885,1.60885,0,0,0,1.20782-1.82278,3.60616,3.60616,0,0,0-1.22056-2.04554,10.10253,10.10253,0,0,0-4.29221-2.55782c-.92062-.2415-2.70245-.26735-3.35828.56613C45.794,26.19063,45.66942,27.6695,47.04782,28.2505Z"/><path class="a3ca23ec-d40c-4720-a64e-fe3d732652a3" d="M48.9513,46.56075a4.3926,4.3926,0,0,1-4.47813-2.76722A6.87938,6.87938,0,0,1,43.953,42.137c-.31742-1.732-.20418-4.99688,2.22637-4.522a9.59535,9.59535,0,0,1,1.21672.3849,23.07807,23.07807,0,0,0,5.95454.84415,1.736,1.736,0,0,1,.828.1979c1.0627.67249.46668,2.08472.031,2.989C53.23427,44.05544,51.20509,46.3536,48.9513,46.56075Z"/></svg>