<svg id="b0fc2999-7d86-44ee-912a-6581a35de0ce" data-name="Layer 1" xmlns="http://www.w3.org/2000/svg" viewBox="0 0 69.2613 69.2613"><defs><style>.ed09e62c-4eca-417c-8797-561ecd4f0bea{fill:#eeb95b;stroke:#eeb95b;stroke-miterlimit:10;stroke-width:1.33806px;}.a0a9818a-640e-4557-b0c7-7e8d5979a32b{fill:#fff;}.f668208e-42ff-4d46-b749-fea8d3ae60d0{fill:#4d7582;}</style></defs><title>Artboard 55</title><circle class="ed09e62c-4eca-417c-8797-561ecd4f0bea" cx="34.63065" cy="34.63065" r="33.96162"/><polygon class="a0a9818a-640e-4557-b0c7-7e8d5979a32b" points="44.393 38.942 42.579 42.924 41.588 39.922 44.393 38.942"/><circle class="a0a9818a-640e-4557-b0c7-7e8d5979a32b" cx="31.85396" cy="40.91894" r="5.90426"/><circle class="a0a9818a-640e-4557-b0c7-7e8d5979a32b" cx="37.02417" cy="40.91894" r="5.90426"/><path class="a0a9818a-640e-4557-b0c7-7e8d5979a32b" d="M24.4351,38.05366l.80988,2.096.95411,2.46927,1.60168-2.6255Z"/><path class="a0a9818a-640e-4557-b0c7-7e8d5979a32b" d="M37.86039,40.933a7.836,7.836,0,0,1-3.22974-.69794,7.85888,7.85888,0,0,1-11.0918-6.88568c-.00244.09827-.01465.194-.01465.29291a11.10645,11.10645,0,0,0,22.21289,0c0-.09888-.0122-.19464-.01489-.29291A7.87048,7.87048,0,0,1,37.86039,40.933Z"/><path class="a0a9818a-640e-4557-b0c7-7e8d5979a32b" d="M45.73709,33.05651a7.84494,7.84494,0,0,0-.65283-3.1361,11.06182,11.06182,0,0,1,.63794,3.429C45.72586,33.2514,45.73709,33.15539,45.73709,33.05651Z"/><path class="a0a9818a-640e-4557-b0c7-7e8d5979a32b" d="M37.86039,25.18a7.836,7.836,0,0,0-3.22974.69793,7.86853,7.86853,0,0,1,0,14.35718A7.85867,7.85867,0,0,0,45.7222,33.34942a11.06182,11.06182,0,0,0-.63794-3.429A7.876,7.876,0,0,0,37.86039,25.18Z"/><path class="a0a9818a-640e-4557-b0c7-7e8d5979a32b" d="M23.5242,33.05651c0,.09888.01123.19489.01465.29291a11.0553,11.0553,0,0,1,.63819-3.429A7.84494,7.84494,0,0,0,23.5242,33.05651Z"/><path class="a0a9818a-640e-4557-b0c7-7e8d5979a32b" d="M31.40067,40.933a7.83709,7.83709,0,0,0,3.23-.69794,7.86836,7.86836,0,0,1,0-14.35718A7.8614,7.8614,0,0,0,24.177,29.92041a11.0553,11.0553,0,0,0-.63819,3.429A7.8705,7.8705,0,0,0,31.40067,40.933Z"/><path class="a0a9818a-640e-4557-b0c7-7e8d5979a32b" d="M39.27713,33.05651a7.87253,7.87253,0,0,0-4.64648-7.17859,7.86836,7.86836,0,0,0,0,14.35718A7.87257,7.87257,0,0,0,39.27713,33.05651Z"/><path class="f668208e-42ff-4d46-b749-fea8d3ae60d0" d="M35.08242,25.8114a5.0907,5.0907,0,0,0,4.19471-2.20376,2.95366,2.95366,0,0,0-4.6562,2.18048C34.77321,25.8018,34.92665,25.8114,35.08242,25.8114Z"/><path class="f668208e-42ff-4d46-b749-fea8d3ae60d0" d="M30.04051,19.99493a5.05887,5.05887,0,0,0,4.51231,5.78888,5.058,5.058,0,0,0-4.51231-5.78888Z"/></svg>