<svg id="aab66221-0b04-4d06-a572-290c90cdd7e9" data-name="Layer 1" xmlns="http://www.w3.org/2000/svg" viewBox="0 0 69.2613 69.2613"><defs><style>.a569890e-3cfa-433a-9870-06375bff52fe{fill:#eeb95b;stroke:#eeb95b;stroke-width:1.33806px;}.a569890e-3cfa-433a-9870-06375bff52fe,.f416c478-e85c-4ced-9927-81c2c607a880{stroke-miterlimit:10;}.f416c478-e85c-4ced-9927-81c2c607a880{fill:none;stroke:#fff;stroke-linecap:round;stroke-width:1.70784px;}.ec2a77f3-4ee4-467a-bec9-f8d0a084c5a2{fill:#4d7582;}.ba06f184-26b6-4db6-83a1-c1ed46188791{fill:#fff;}</style></defs><title>Artboard 57</title><circle class="a569890e-3cfa-433a-9870-06375bff52fe" cx="34.63065" cy="34.63065" r="33.96162"/><path class="f416c478-e85c-4ced-9927-81c2c607a880" d="M37.65726,29.911a.70729.70729,0,0,0-.0988.547v4.70271"/><polygon class="ec2a77f3-4ee4-467a-bec9-f8d0a084c5a2" points="19.62 28.753 19.62 41.344 34.282 47.178 49.641 41.433 49.641 28.842 34.282 34.587 19.62 28.753"/><polygon class="ba06f184-26b6-4db6-83a1-c1ed46188791" points="19.62 39.601 19.62 41.344 34.282 47.178 49.641 41.433 49.641 39.601 34.282 45.215 19.62 39.601"/><polygon class="ba06f184-26b6-4db6-83a1-c1ed46188791" points="49.641 28.842 34.172 23.141 19.621 28.753 19.621 30.495 34.282 36.589 49.641 30.674 49.641 28.842 34.282 34.587 49.641 28.842"/><line class="f416c478-e85c-4ced-9927-81c2c607a880" x1="37.77648" y1="32.18603" x2="37.77648" y2="36.98747"/><path class="ec2a77f3-4ee4-467a-bec9-f8d0a084c5a2" d="M27.32953,30.07815a13.463,13.463,0,0,0,.00245-2.179,4.9311,4.9311,0,0,0-.447-2.02322A2.09578,2.09578,0,0,0,25.319,24.73727a2.01006,2.01006,0,0,0-1.05079.10087,1.09907,1.09907,0,0,0-.71777.78008,1.20426,1.20426,0,0,1,.61694-.97059,2.32806,2.32806,0,0,1,1.1753-.34067,2.7522,2.7522,0,0,1,2.25708,1.08722,5.86111,5.86111,0,0,1,1.00512,2.29458,14.94,14.94,0,0,1,.43238,2.38939Z"/><line class="f416c478-e85c-4ced-9927-81c2c607a880" x1="28.18349" y1="31.47993" x2="28.18349" y2="34.93653"/><path class="ec2a77f3-4ee4-467a-bec9-f8d0a084c5a2" d="M32.58637,26.70582a13.49,13.49,0,0,0,.00269-2.179,4.93117,4.93117,0,0,0-.44727-2.02321,2.09539,2.09539,0,0,0-1.56592-1.13863,2.01011,2.01011,0,0,0-1.05078.10087,1.099,1.099,0,0,0-.71777.78009,1.2048,1.2048,0,0,1,.61694-.97059,2.32813,2.32813,0,0,1,1.17529-.34068,2.75187,2.75187,0,0,1,2.25708,1.08723,5.8575,5.8575,0,0,1,1.00513,2.29458,14.96761,14.96761,0,0,1,.43262,2.38939Z"/><path class="ec2a77f3-4ee4-467a-bec9-f8d0a084c5a2" d="M36.82709,29.57223a22.65725,22.65725,0,0,1,.54346-3.56685,8.516,8.516,0,0,1,1.37939-3.40745A4.00535,4.00535,0,0,1,41.99238,20.937a3.4447,3.4447,0,0,1,1.749.45447,1.79852,1.79852,0,0,1,.96094,1.42182A1.69322,1.69322,0,0,0,43.64057,21.582a3.12622,3.12622,0,0,0-1.62451-.21468,3.34959,3.34959,0,0,0-2.55127,1.71231,7.5711,7.5711,0,0,0-.82154,3.13609,21.21039,21.21039,0,0,0-.10815,3.35652Z"/></svg>