<svg id="a74529c4-e983-471d-b960-162c4172b686" data-name="Layer 1" xmlns="http://www.w3.org/2000/svg" xmlns:xlink="http://www.w3.org/1999/xlink" viewBox="0 0 69.26185 69.26185"><defs><style>.bc995f00-4d13-4ee2-8125-0edecd768ff3{fill:#4d7582;}.fcab0b89-fd03-413d-92bf-f7595ab0d58f{fill:#eeb95b;stroke:#eeb95b;stroke-miterlimit:10;stroke-width:1.33807px;}.f7bf515c-be79-4c7b-93fb-c4a4cdcb01be{fill:#fff;}.eda49198-ef3b-4e15-8267-23c42606168a{fill:#4e7582;}.f0c3e601-d7cb-4afa-90e5-07fc459ca0fd{clip-path:url(#baaea5ac-c74a-47ec-ae72-609f46e36909);}</style><clipPath id="baaea5ac-c74a-47ec-ae72-609f46e36909"><path class="bc995f00-4d13-4ee2-8125-0edecd768ff3" d="M16.33056,49.075a8.4289,8.4289,0,0,0,3.12,1.51265c.56641.17078,1.9739.052,2.38792.438.53974.50312.15317,1.57832.67747,2.28642.74036.99985,3.27134.71983,4.41849.8128,2.156.17474,1.45628.24,1.7244,2.11065a1.7951,1.7951,0,0,0,.9768,1.43055,2.74038,2.74038,0,0,1,.515.21533,1.34992,1.34992,0,0,1,.37827.49195A13.21185,13.21185,0,0,1,31.73406,60.57c.27166.90125-.21616,1.83922,1.05189,1.89673a1.38223,1.38223,0,0,0,1.36416-1.30088l.25771-1.89449c1.16044-.04134,2.86174-.25849,3.671-1.18817a3.05824,3.05824,0,0,0,.68875-2.53034c2.66593-.22057,4.14275-5.04133,3.87425-7.19433a13.35154,13.35154,0,0,0-5.75907-8.87435c-3.25917-2.07634-8.16009-2.38186-11.864-1.81-3.139.48463-6.98371,1.53367-9.07188,4.083-1.60488,1.95929-2.018,4.86349-.11169,6.85066Q16.07,48.85261,16.33056,49.075Z"/></clipPath></defs><title>Artboard 18</title><circle class="fcab0b89-fd03-413d-92bf-f7595ab0d58f" cx="34.63093" cy="34.63093" r="33.96189"/><path class="f7bf515c-be79-4c7b-93fb-c4a4cdcb01be" d="M36.83973,17.04483a2.0142,2.0142,0,0,0-2.3247-1.11275,4.64488,4.64488,0,0,1-3.6249-.8659,10.491,10.491,0,0,0-1.78264-.883,4.71244,4.71244,0,0,0-1.56913-.2584V13.9246l-.00073.00009-.00109-.00009-.00036.00018a4.71255,4.71255,0,0,0-1.56912.2584,10.48845,10.48845,0,0,0-1.7826.883,4.645,4.645,0,0,1-3.625.8659,2.0142,2.0142,0,0,0-2.3247,1.11275,6.37257,6.37257,0,0,0-.80314,3.154,4.52681,4.52681,0,0,0,1.52024,3.4534,4.4304,4.4304,0,0,0,4.14153,1.23446c.83652-.28324,1.42423-1.11967.56716-1.71925a.323.323,0,0,1-.16963-.2675,4.58085,4.58085,0,0,1,1.0423.216c1.12031.49007,1.65372,2.29718,3.00364,2.24852v.00009h.00077v-.00009c1.34987.04866,1.88328-1.75845,3.00359-2.24852a4.58138,4.58138,0,0,1,1.0423-.216.32284.32284,0,0,1-.16963.2675c-.85707.59958-.26936,1.436.56716,1.71925a4.4304,4.4304,0,0,0,4.14153-1.23446,4.52681,4.52681,0,0,0,1.52024-3.4534A6.37257,6.37257,0,0,0,36.83973,17.04483Z"/><path class="eda49198-ef3b-4e15-8267-23c42606168a" d="M20.91071,22.54755a1.93339,1.93339,0,0,1,1.42126-.75789,2.60354,2.60354,0,0,1,1.47229.4643,4.31,4.31,0,0,1,2.01379,2.10048l-.11731.08542a5.00954,5.00954,0,0,0-2.2948-1.09493,8.13417,8.13417,0,0,1-1.17919-.10733,6.79553,6.79553,0,0,1-1.28125-.54912Z"/><path class="eda49198-ef3b-4e15-8267-23c42606168a" d="M34.13348,22.68848a6.79553,6.79553,0,0,1-1.28125.54912,8.13431,8.13431,0,0,1-1.1792.10733,5.00964,5.00964,0,0,0-2.2948,1.09493l-.1173-.08542A4.31061,4.31061,0,0,1,31.27472,22.254a2.60354,2.60354,0,0,1,1.47229-.4643,1.93318,1.93318,0,0,1,1.42126.75789Z"/><path class="f7bf515c-be79-4c7b-93fb-c4a4cdcb01be" d="M15.91092,33.62641a11.24262,11.24262,0,0,0,5.901-5.7746"/><path class="f7bf515c-be79-4c7b-93fb-c4a4cdcb01be" d="M20.25327,34.64754a11.24266,11.24266,0,0,0,2.92086-7.72246"/><path class="f7bf515c-be79-4c7b-93fb-c4a4cdcb01be" d="M39.342,33.62641a11.24262,11.24262,0,0,1-5.901-5.7746"/><path class="f7bf515c-be79-4c7b-93fb-c4a4cdcb01be" d="M34.99967,34.64754a11.24265,11.24265,0,0,1-2.92087-7.72246"/><path class="eda49198-ef3b-4e15-8267-23c42606168a" d="M55.93017,32.88774a5.78475,5.78475,0,0,1-11.56949,0c0-3.19483,5.78475-13.14553,5.78475-13.14553S55.93017,29.69291,55.93017,32.88774Z"/><path class="bc995f00-4d13-4ee2-8125-0edecd768ff3" d="M16.33056,49.075a8.4289,8.4289,0,0,0,3.12,1.51265c.56641.17078,1.9739.052,2.38792.438.53974.50312.15317,1.57832.67747,2.28642.74036.99985,3.27134.71983,4.41849.8128,2.156.17474,1.45628.24,1.7244,2.11065a1.7951,1.7951,0,0,0,.9768,1.43055,2.74038,2.74038,0,0,1,.515.21533,1.34992,1.34992,0,0,1,.37827.49195A13.21185,13.21185,0,0,1,31.73406,60.57c.27166.90125-.21616,1.83922,1.05189,1.89673a1.38223,1.38223,0,0,0,1.36416-1.30088l.25771-1.89449c1.16044-.04134,2.86174-.25849,3.671-1.18817a3.05824,3.05824,0,0,0,.68875-2.53034c2.66593-.22057,4.14275-5.04133,3.87425-7.19433a13.35154,13.35154,0,0,0-5.75907-8.87435c-3.25917-2.07634-8.16009-2.38186-11.864-1.81-3.139.48463-6.98371,1.53367-9.07188,4.083-1.60488,1.95929-2.018,4.86349-.11169,6.85066Q16.07,48.85261,16.33056,49.075Z"/><g class="f0c3e601-d7cb-4afa-90e5-07fc459ca0fd"><path class="f7bf515c-be79-4c7b-93fb-c4a4cdcb01be" d="M30.25494,55.049c.6127.57386.51343,1.62513,1.08136,2.24334.63713.69354,1.87184.58667,2.44563,1.33348A2.47731,2.47731,0,0,1,34.00754,60.51a3.06039,3.06039,0,0,1-.95362,2.216c-.71636.50092-1.12425-.09349-1.20992-.73009a5.37612,5.37612,0,0,0-.95219-2.2912,18.92779,18.92779,0,0,0-.89621-1.70234c-.40713-.47454-1.1659-.47722-1.51867-1.00605-.30263-.45376-.51256-1.83452-.03413-2.20779A1.6503,1.6503,0,0,1,30.25494,55.049Z"/><path class="f7bf515c-be79-4c7b-93fb-c4a4cdcb01be" d="M29.72592,50.77622a.74231.74231,0,0,0-.77453-.14862,3.49323,3.49323,0,0,0-.72815.40253,3.85286,3.85286,0,0,1-1.40479.51648.94518.94518,0,0,1-1.02075-.79895,2.92107,2.92107,0,0,1,.20825-1.48639,2.67564,2.67564,0,0,0,.66346-1.18542.47136.47136,0,0,0-.05652-.44117c-.12793-.13116-.3451-.08868-.51892-.03088a28.461,28.461,0,0,1-3.79407,1.41254,8.5673,8.5673,0,0,1-3.589-.29412c-1.1602-.29165-2.3223-.55429-3.49276-.80689a1.04477,1.04477,0,0,0,.23552.753,6.15452,6.15452,0,0,0,5.20288,2.69182c.371-.01075.81621-.022,1.02421.28542a.87978.87978,0,0,1,.1212.41952c.04941.54835-.04508,1.1-.02649,1.65028a1.91133,1.91133,0,0,0,.61353,1.47573,1.87142,1.87142,0,0,0,.89622.33138,7.53447,7.53447,0,0,0,3.59918-.6804A4.93676,4.93676,0,0,0,29.07519,53.549C29.51716,53.01314,30.307,51.42926,29.72592,50.77622Z"/><path class="f7bf515c-be79-4c7b-93fb-c4a4cdcb01be" d="M35.42468,40.43179c.54177,1.05971,1.96116,1.21231,2.49862,2.27423a3.52052,3.52052,0,0,1,.15086,1.94285c-.05643.65894.08233,1.97132.81193,2.31484a1.63151,1.63151,0,0,0,.86277.08713,1.57232,1.57232,0,0,1,.86282.0978c.46242.22982.74718.81068,1.16721,1.15279a1.11641,1.11641,0,0,0,1.57576-.04753,1.92376,1.92376,0,0,0,.33115-.80209,6.592,6.592,0,0,0-1.03229-4.82094c-.98486-1.49317-1.56981-3.32554-2.94364-4.51487a2.837,2.837,0,0,0-2.80105-.75442,2.93813,2.93813,0,0,0-1.12292.99342A1.97224,1.97224,0,0,0,35.42468,40.43179Z"/></g></svg>