<svg id="a5a343ae-01bf-4a54-9a18-bd45aed1942c" data-name="Layer 1" xmlns="http://www.w3.org/2000/svg" xmlns:xlink="http://www.w3.org/1999/xlink" viewBox="0 0 69.26185 69.26185"><defs><style>.e71a1aeb-313b-4d01-a41c-14421847021c{fill:none;}.af444b31-a9b0-4b8b-8319-5592cb407f3d{fill:#eeb95b;stroke:#eeb95b;stroke-miterlimit:10;stroke-width:1.33807px;}.b5837eae-8f50-4671-9334-abf3a5a002de{clip-path:url(#bb098d3f-f1c3-4740-8569-bbc7fcbd5c3a);}.a1089ab8-4cd6-4fcb-a744-43740f49b033{fill:#fff;}.a56959e0-8e94-4545-ac49-a46d38811b27{fill:#4e7582;}</style><clipPath id="bb098d3f-f1c3-4740-8569-bbc7fcbd5c3a"><path class="e71a1aeb-313b-4d01-a41c-14421847021c" d="M32.861,34.687s5.84132,6.62572,13.047,6.62572S58.95491,34.687,58.95491,34.687,53.11359,28.06127,45.908,28.06127,32.861,34.687,32.861,34.687Z"/></clipPath></defs><title>Artboard 59</title><circle class="af444b31-a9b0-4b8b-8319-5592cb407f3d" cx="34.63093" cy="34.63093" r="33.96189"/><g class="b5837eae-8f50-4671-9334-abf3a5a002de"><path class="a1089ab8-4cd6-4fcb-a744-43740f49b033" d="M32.861,34.687s5.84132,6.62572,13.047,6.62572S58.95491,34.687,58.95491,34.687,53.11359,28.06127,45.908,28.06127,32.861,34.687,32.861,34.687Z"/><circle class="a56959e0-8e94-4545-ac49-a46d38811b27" cx="45.90796" cy="33.78721" r="6.96854"/><circle class="a1089ab8-4cd6-4fcb-a744-43740f49b033" cx="45.90796" cy="34.16893" r="1.48797"/></g><path class="a1089ab8-4cd6-4fcb-a744-43740f49b033" d="M18.563,21.39868A7.86008,7.86008,0,0,0,12.32782,31.8641c1.21785,3.612,3.25806,6.687,4.92156,10.11778,1.10623,2.28146,1.69123,4.9127,3.23049,6.95619a6.33609,6.33609,0,0,0,4.40334,2.66032c2.39319.18266,4.11379-1.69934,4.62625-3.89189.58684-2.51078-.57294-5.74527-1.88235-7.872-2.07293-3.36689.0711-7.08662.78127-10.53712.34085-1.65607.43889-3.80566-.68418-5.214-1.26678-1.58859-3.68474-2.43913-5.61659-2.72625A10.96191,10.96191,0,0,0,18.563,21.39868Z"/><path class="a56959e0-8e94-4545-ac49-a46d38811b27" d="M15.77782,25.48213a5.56082,5.56082,0,0,0-1.785,5.60112c.27529,1.504.913,4.47022,2.42859,5.2244a3.59216,3.59216,0,0,1,.928.475,2.7566,2.7566,0,0,1,.4732.791,3.12709,3.12709,0,0,0,2.42,1.64546,6.1419,6.1419,0,0,0,.72847.01542c1.26012-.02319,1.819-.13609,2.684.85115a2.78468,2.78468,0,0,0,.9294.778c.78655.34184,1.3975-.0616,1.245-.85113a3.57179,3.57179,0,0,0-1.34314-1.91324c-.54487-.43634-1.47428-.73705-1.74316-1.42709-.28174-.72306.289-1.46862.77021-2.07743a9.20479,9.20479,0,0,0,1.84593-3.72165,9.395,9.395,0,0,0-.27124-3.67232c-.26448-1.70887-2.06424-2.432-3.55933-2.85883A6.31458,6.31458,0,0,0,15.77782,25.48213Z"/><path class="a1089ab8-4cd6-4fcb-a744-43740f49b033" d="M18.11024,32.60635a3.57284,3.57284,0,0,1,1.24648-1.72763,15.4401,15.4401,0,0,1,2.98939-1.47639,1.89828,1.89828,0,0,0,.88936-.81c.48683-1-.98167-1.76633-1.69955-2.17283a5.5555,5.5555,0,0,0-3.11648-.72012,2.86534,2.86534,0,0,0-2.62479,1.49273,8.11729,8.11729,0,0,0-.47431,3.47053,5.44569,5.44569,0,0,0,.71981,3.06965,13.22976,13.22976,0,0,0,1.35178,1.344,11.50387,11.50387,0,0,0,1.20725,1.43809A5.75581,5.75581,0,0,1,18.11024,32.60635Z"/></svg>