<svg id="aa56b845-aa22-40e8-8a9d-a69c3fab4193" data-name="Layer 1" xmlns="http://www.w3.org/2000/svg" viewBox="0 0 69.26185 69.26185"><defs><style>.b1d3860a-6ef5-453d-9cbb-7cd1790248e4,.b543358d-aafa-418f-87d2-55a09da6e7ec,.b634eb96-fdd7-4b60-a0f2-2aeacb534a67,.f5b4ce82-9fa1-4872-8d29-121c09161f96,.fdc925f8-2093-41e6-82eb-e9ce917fc935{fill:none;}.f5b4ce82-9fa1-4872-8d29-121c09161f96{stroke:#bcbec0;}.adc28633-ce45-4c23-b36c-b2ace6c4ba0f,.b1d3860a-6ef5-453d-9cbb-7cd1790248e4,.b543358d-aafa-418f-87d2-55a09da6e7ec,.f5b4ce82-9fa1-4872-8d29-121c09161f96,.fdc925f8-2093-41e6-82eb-e9ce917fc935{stroke-miterlimit:10;}.adc28633-ce45-4c23-b36c-b2ace6c4ba0f{fill:#ee755b;stroke:#ee755b;stroke-width:1.33807px;}.b634eb96-fdd7-4b60-a0f2-2aeacb534a67{stroke:#4e7582;stroke-linejoin:round;stroke-width:3.81956px;}.b0272832-04c8-4f0f-8f74-d243f3ff82a6{fill:#4e7582;}.b1d3860a-6ef5-453d-9cbb-7cd1790248e4,.b543358d-aafa-418f-87d2-55a09da6e7ec,.fdc925f8-2093-41e6-82eb-e9ce917fc935{stroke:#fff;}.b543358d-aafa-418f-87d2-55a09da6e7ec{stroke-width:1.15472px;}.b1d3860a-6ef5-453d-9cbb-7cd1790248e4{stroke-width:1.1681px;}.bd156516-968a-40ad-8875-39ce0977eaf9{fill:#fff;}.fdc925f8-2093-41e6-82eb-e9ce917fc935{stroke-width:1.173px;}</style></defs><title>Artboard 65</title><polyline class="f5b4ce82-9fa1-4872-8d29-121c09161f96" points="151.984 -424.186 151.984 -649.53 385.742 -646.013 385.742 -152.523 151.984 -156.04 151.984 -424.186"/><circle class="adc28633-ce45-4c23-b36c-b2ace6c4ba0f" cx="34.63093" cy="34.63093" r="33.96189"/><path class="b634eb96-fdd7-4b60-a0f2-2aeacb534a67" d="M13.75531,48.96294V25.92934a5.50785,5.50785,0,0,1,5.37647-5.63043H49.70213a5.50784,5.50784,0,0,1,5.37647,5.63043V48.86988"/><circle class="b0272832-04c8-4f0f-8f74-d243f3ff82a6" cx="20.403" cy="44.30798" r="3.33191"/><circle class="b0272832-04c8-4f0f-8f74-d243f3ff82a6" cx="27.06683" cy="44.30798" r="3.33191"/><circle class="b0272832-04c8-4f0f-8f74-d243f3ff82a6" cx="33.73065" cy="44.30798" r="3.33191"/><line class="b543358d-aafa-418f-87d2-55a09da6e7ec" x1="20.403" y1="40.97607" x2="20.403" y2="21.72114"/><line class="b1d3860a-6ef5-453d-9cbb-7cd1790248e4" x1="27.06683" y1="40.97607" x2="27.06683" y2="21.27216"/><line class="b1d3860a-6ef5-453d-9cbb-7cd1790248e4" x1="33.73065" y1="40.97607" x2="33.73065" y2="21.27216"/><circle class="bd156516-968a-40ad-8875-39ce0977eaf9" cx="20.40237" cy="21.24595" r="0.86736"/><circle class="bd156516-968a-40ad-8875-39ce0977eaf9" cx="27.07274" cy="21.24595" r="0.86736"/><circle class="bd156516-968a-40ad-8875-39ce0977eaf9" cx="33.72247" cy="21.24595" r="0.86736"/><circle class="bd156516-968a-40ad-8875-39ce0977eaf9" cx="48.459" cy="43.35824" r="3.33191"/><line class="fdc925f8-2093-41e6-82eb-e9ce917fc935" x1="47.29361" y1="40.23678" x2="40.35895" y2="21.66254"/><circle class="bd156516-968a-40ad-8875-39ce0977eaf9" cx="40.20711" cy="21.24595" r="0.86736"/></svg>