<svg id="bb4bd319-a566-493f-a2aa-787618a1c8a2" data-name="Layer 1" xmlns="http://www.w3.org/2000/svg" viewBox="0 0 69.26185 69.26185"><defs><style>.b9573f4b-0007-4568-82ea-a195ec23288f{fill:#ee755b;stroke:#ee755b;stroke-width:1.33807px;}.b9573f4b-0007-4568-82ea-a195ec23288f,.fd399483-9f58-4929-af29-c91444d7f19a{stroke-miterlimit:10;}.fd399483-9f58-4929-af29-c91444d7f19a{fill:none;stroke:#4e7582;stroke-width:4.59367px;}.b5488341-0801-463d-890d-bc18d319036f{fill:#fff;}.f915e2a8-fe1f-4628-815f-11fe9e2cdda9{fill:#4e7582;}</style></defs><title>Artboard 66</title><circle class="b9573f4b-0007-4568-82ea-a195ec23288f" cx="34.63093" cy="34.63093" r="33.96189"/><line class="fd399483-9f58-4929-af29-c91444d7f19a" x1="10.52211" y1="31.44451" x2="27.05932" y2="31.44451"/><line class="fd399483-9f58-4929-af29-c91444d7f19a" x1="18.79071" y1="39.71312" x2="18.79071" y2="23.1759"/><path class="b5488341-0801-463d-890d-bc18d319036f" d="M55.22646,28.23844a2.48353,2.48353,0,0,0-2.86639-1.372c-1.676.41024-2.99172-.20658-4.46958-1.06767a12.93428,12.93428,0,0,0-2.198-1.08876,5.8108,5.8108,0,0,0-1.93476-.31862v-.00022l-.0009.00011-.00134-.00011-.00045.00022a5.81105,5.81105,0,0,0-1.93476.31862,12.932,12.932,0,0,0-2.198,1.08876c-1.47791.86109-2.79366,1.47791-4.46963,1.06767a2.48353,2.48353,0,0,0-2.86639,1.372,7.85723,7.85723,0,0,0-.99028,3.88892,5.58163,5.58163,0,0,0,1.87447,4.25812c1.35551,1.1778,3.2906,2.13736,5.10659,1.5221,1.03145-.34924,1.75611-1.38057.69932-2.11986a.39831.39831,0,0,1-.20916-.32984,5.64941,5.64941,0,0,1,1.28518.26636c1.38135.60427,2.03906,2.83247,3.70354,2.77247v.00011h.001v-.00011c1.66442.06,2.32212-2.1682,3.70348-2.77247a5.64983,5.64983,0,0,1,1.28518-.26636.39807.39807,0,0,1-.20916.32984c-1.05679.73929-.33213,1.77062.69932,2.11986,1.816.61526,3.75108-.3443,5.10659-1.5221a5.58163,5.58163,0,0,0,1.87447-4.25812A7.85733,7.85733,0,0,0,55.22646,28.23844Z"/><path class="f915e2a8-fe1f-4628-815f-11fe9e2cdda9" d="M35.58564,35.02341a2.3838,2.3838,0,0,1,1.75244-.9345,3.21007,3.21007,0,0,1,1.81543.57248,5.52949,5.52949,0,0,1,1.49439,1.10045,5.11062,5.11062,0,0,1,.98877,1.48949l-.14478.10533a5.88233,5.88233,0,0,0-1.37524-.87456,6.5403,6.5403,0,0,0-1.45435-.47552,10.02981,10.02981,0,0,1-1.45385-.13234,8.37936,8.37936,0,0,1-1.57984-.67707Z"/><path class="f915e2a8-fe1f-4628-815f-11fe9e2cdda9" d="M51.8896,35.19717a8.37936,8.37936,0,0,1-1.57984.67707,10.03293,10.03293,0,0,1-1.45385.13234,6.5403,6.5403,0,0,0-1.45435.47552,5.88233,5.88233,0,0,0-1.37524.87456l-.14478-.10533a5.11062,5.11062,0,0,1,.98877-1.48949,5.52949,5.52949,0,0,1,1.49439-1.10045,3.21009,3.21009,0,0,1,1.81543-.57248,2.38423,2.38423,0,0,1,1.75244.9345Z"/><path class="b5488341-0801-463d-890d-bc18d319036f" d="M29.42085,48.68383a13.86232,13.86232,0,0,0,7.276-7.12019"/><path class="b5488341-0801-463d-890d-bc18d319036f" d="M34.775,49.94291A13.8624,13.8624,0,0,0,38.37652,40.421"/><path class="b5488341-0801-463d-890d-bc18d319036f" d="M58.31182,48.68383a13.86232,13.86232,0,0,1-7.276-7.12019"/><path class="b5488341-0801-463d-890d-bc18d319036f" d="M52.95763,49.94291A13.8624,13.8624,0,0,1,49.35615,40.421"/></svg>