<svg id="e327c2d8-4a34-4ac5-a073-d5a5471ac7de" data-name="Layer 1" xmlns="http://www.w3.org/2000/svg" xmlns:xlink="http://www.w3.org/1999/xlink" viewBox="0 0 69.26185 69.26185"><defs><style>.a9b1d58d-bae5-478a-a540-58ad9c16ec06,.ba429f3a-552e-4867-a365-38839d41f6f4,.e78f79ff-b622-4d4d-8439-8536b8af6132{fill:none;}.b27c9ddc-4943-4d3e-b3bc-1dd27d65f730{fill:#ee755b;stroke:#ee755b;stroke-width:1.33807px;}.b27c9ddc-4943-4d3e-b3bc-1dd27d65f730,.e78f79ff-b622-4d4d-8439-8536b8af6132{stroke-miterlimit:10;}.b5466a3e-c4a5-4414-9829-00f26a817dd7,.ba429f3a-552e-4867-a365-38839d41f6f4,.e78f79ff-b622-4d4d-8439-8536b8af6132{stroke:#4e7582;}.ba429f3a-552e-4867-a365-38839d41f6f4{stroke-linecap:round;stroke-width:1.34207px;}.b5466a3e-c4a5-4414-9829-00f26a817dd7,.ba429f3a-552e-4867-a365-38839d41f6f4{stroke-linejoin:round;}.a8d757ab-4643-4a9d-9de5-41b74517f432,.b5466a3e-c4a5-4414-9829-00f26a817dd7{fill:#4e7582;}.b5466a3e-c4a5-4414-9829-00f26a817dd7{stroke-width:0.67104px;}.f1df38d5-3a0c-4023-9f2f-5586a83fd7fa{fill:#fff;}.e78f79ff-b622-4d4d-8439-8536b8af6132{stroke-width:2.0415px;}.b94df256-7b09-4def-a5a1-b16dc33a1a75{clip-path:url(#b7a6af3e-93ea-43dd-90b7-937704a637ae);}</style><clipPath id="b7a6af3e-93ea-43dd-90b7-937704a637ae"><path class="a9b1d58d-bae5-478a-a540-58ad9c16ec06" d="M37.77,47.52584s4.111,4.66309,9.18225,4.66309,9.18226-4.66309,9.18226-4.66309-4.111-4.66308-9.18226-4.66308S37.77,47.52584,37.77,47.52584Z"/></clipPath></defs><title>Artboard 69</title><circle class="b27c9ddc-4943-4d3e-b3bc-1dd27d65f730" cx="34.63093" cy="34.63093" r="33.96189"/><path class="ba429f3a-552e-4867-a365-38839d41f6f4" d="M16.95278,47.46133H26.795a.12174.12174,0,0,0,.12007-.10161l.91822-5.47586a.12175.12175,0,0,1,.24077.00415L29.4783,52.49c.01828.138.21652.14222.22384.10055l1.21642-6.92883s.04139-.33246.12728-.2717c.07645.05409.12236.27035.12236.27035l.54,1.7158a.12174.12174,0,0,0,.11613.08519h9.45825"/><path class="b5466a3e-c4a5-4414-9829-00f26a817dd7" d="M16.992,47.82246a2.1243,2.1243,0,0,0,.28992-.11985c.183-.08232.36128-.17476.53553-.27414a10.72676,10.72676,0,0,0,1.00646-.663l.105-.07725a18.21123,18.21123,0,0,0,1.67167-1.42434,10.98509,10.98509,0,0,0,2.29528-3.07609,6.12257,6.12257,0,0,0,.73753-3.16924,3.54141,3.54141,0,0,0-2.44568-3.17782,3.232,3.232,0,0,0-1.57823-.04362,3.76415,3.76415,0,0,0-2.76128,2.18567,3.77707,3.77707,0,0,0-2.765-2.1857,3.23212,3.23212,0,0,0-1.57836.04374,3.54142,3.54142,0,0,0-2.44539,3.17773,6.12247,6.12247,0,0,0,.73753,3.16924,10.98509,10.98509,0,0,0,2.29528,3.07609,17.90635,17.90635,0,0,0,1.74717,1.47984,10.93659,10.93659,0,0,0,.97571.63836q.25282.14592.51459.27557a2.54935,2.54935,0,0,0,.4254.17353A.43257.43257,0,0,0,16.992,47.82246Z"/><path class="f1df38d5-3a0c-4023-9f2f-5586a83fd7fa" d="M26.60741,31.99546H25.49152a.36516.36516,0,0,1-.36516-.36516V18.12139A1.73161,1.73161,0,0,1,26.858,16.38978H45.53732a1.73159,1.73159,0,0,1,1.38512.69244L51.268,22.87445l3.89651.65226a2.09133,2.09133,0,0,1,1.55566,2.02157v4.71557a1.73161,1.73161,0,0,1-1.73161,1.73161Z"/><circle class="b5466a3e-c4a5-4414-9829-00f26a817dd7" cx="31.01108" cy="32.92075" r="2.4325"/><circle class="b5466a3e-c4a5-4414-9829-00f26a817dd7" cx="50.27049" cy="32.92075" r="2.4325"/><path class="a8d757ab-4643-4a9d-9de5-41b74517f432" d="M40.25217,18.392V22.1677a.45784.45784,0,0,0,.45785.45784h7.96192a.20843.20843,0,0,0,.16274-.33866L46.333,18.91421a2.42429,2.42429,0,0,0-1.94713-.98H40.71A.45784.45784,0,0,0,40.25217,18.392Z"/><line class="e78f79ff-b622-4d4d-8439-8536b8af6132" x1="27.79771" y1="22.87445" x2="35.14712" y2="22.87445"/><line class="e78f79ff-b622-4d4d-8439-8536b8af6132" x1="31.47242" y1="26.54915" x2="31.47242" y2="19.19975"/><g class="b94df256-7b09-4def-a5a1-b16dc33a1a75"><path class="f1df38d5-3a0c-4023-9f2f-5586a83fd7fa" d="M37.77,47.52584s4.111,4.66309,9.18225,4.66309,9.18226-4.66309,9.18226-4.66309-4.111-4.66308-9.18226-4.66308S37.77,47.52584,37.77,47.52584Z"/><circle class="a8d757ab-4643-4a9d-9de5-41b74517f432" cx="46.95228" cy="46.89258" r="4.90435"/><circle class="f1df38d5-3a0c-4023-9f2f-5586a83fd7fa" cx="46.95228" cy="47.16124" r="1.04721"/></g></svg>