<svg id="a62cc4d1-c002-4e4f-91f1-07e0fa0eaa03" data-name="Layer 1" xmlns="http://www.w3.org/2000/svg" viewBox="0 0 69.26185 69.26185"><defs><style>.af3df9ff-84ed-47e3-9548-896f4e1b66f7{fill:#ee755b;stroke:#ee755b;stroke-miterlimit:10;stroke-width:1.33807px;}.a7c437dc-6fd0-4e1b-b3f9-24adde6f4a8e{fill:#4e7582;}.a46a5075-6d63-4a15-b743-718e8a492787{fill:#fff;}</style></defs><title>Artboard 71</title><circle class="af3df9ff-84ed-47e3-9548-896f4e1b66f7" cx="34.63093" cy="34.63093" r="33.96189"/><polygon class="a7c437dc-6fd0-4e1b-b3f9-24adde6f4a8e" points="46.83 49.949 20.882 53.805 15.964 20.708 39.672 16.832 43.068 24.633 46.83 49.949"/><polygon class="a46a5075-6d63-4a15-b743-718e8a492787" points="51.539 41.819 25.97 51.089 16.03 21.154 39.035 13.515 43.179 22.895 42.88 27.803 46.324 30.015 51.539 41.819"/><path class="a7c437dc-6fd0-4e1b-b3f9-24adde6f4a8e" d="M43.573,26.61742V17.01761c-.06025-.00112-.11892-.00908-.17943-.00908A9.60887,9.60887,0,1,0,51.97437,30.924Z"/><path class="a7c437dc-6fd0-4e1b-b3f9-24adde6f4a8e" d="M46.17729,13.51531V22.9355l9.09224-2.30914A9.60322,9.60322,0,0,0,46.17729,13.51531Z"/><path class="a46a5075-6d63-4a15-b743-718e8a492787" d="M57.32389,25.7085a9.58578,9.58578,0,0,0-.33676-2.48873l-9.0925,2.30913v.1796L56.29625,30.015A9.556,9.556,0,0,0,57.32389,25.7085Z"/></svg>