<svg id="af4de91d-7f79-4b9f-9802-9602fe2eff75" data-name="Layer 1" xmlns="http://www.w3.org/2000/svg" viewBox="0 0 69.2613 69.2613"><defs><style>.af53d43c-c323-4178-bea8-bfa18af87123{fill:#eeb95b;stroke:#eeb95b;stroke-width:1.33806px;}.af53d43c-c323-4178-bea8-bfa18af87123,.bc64bd2b-f45a-4781-8304-3d9afad7ac4f,.f66b3a2b-766a-4f14-8531-c7c6ef8d65e2{stroke-miterlimit:10;}.bdbd55b1-4040-4cdd-8e21-3699d4fc7eb1{fill:#fff;}.a1a6a853-8060-4131-b8fd-7e0fdf6e1f33{fill:#4d7582;}.bc64bd2b-f45a-4781-8304-3d9afad7ac4f,.f66b3a2b-766a-4f14-8531-c7c6ef8d65e2{fill:none;stroke-width:1.69161px;}.f66b3a2b-766a-4f14-8531-c7c6ef8d65e2{stroke:#4d7582;}.bc64bd2b-f45a-4781-8304-3d9afad7ac4f{stroke:#fff;}</style></defs><title>Artboard 73</title><circle class="af53d43c-c323-4178-bea8-bfa18af87123" cx="34.63065" cy="34.63065" r="33.96162"/><path class="bdbd55b1-4040-4cdd-8e21-3699d4fc7eb1" d="M38.94212,43.89095v-28.877a4.31147,4.31147,0,0,0-8.62294,0v28.877a9.43144,9.43144,0,1,0,8.62294,0Z"/><circle class="a1a6a853-8060-4131-b8fd-7e0fdf6e1f33" cx="34.63065" cy="28.30762" r="1.39224"/><line class="f66b3a2b-766a-4f14-8531-c7c6ef8d65e2" x1="34.63065" y1="27.54414" x2="34.63065" y2="47.97869"/><circle class="a1a6a853-8060-4131-b8fd-7e0fdf6e1f33" cx="34.63065" cy="52.29016" r="5.55775"/><line class="bc64bd2b-f45a-4781-8304-3d9afad7ac4f" x1="42.01166" y1="15.13922" x2="48.29922" y2="15.13922"/><line class="bc64bd2b-f45a-4781-8304-3d9afad7ac4f" x1="42.01166" y1="19.00158" x2="45.15544" y2="19.00158"/><line class="bc64bd2b-f45a-4781-8304-3d9afad7ac4f" x1="42.01166" y1="26.81611" x2="45.15544" y2="26.81611"/><line class="bc64bd2b-f45a-4781-8304-3d9afad7ac4f" x1="42.01166" y1="34.63065" x2="45.15544" y2="34.63065"/><line class="bc64bd2b-f45a-4781-8304-3d9afad7ac4f" x1="42.01166" y1="23.04358" x2="48.29922" y2="23.04358"/><line class="bc64bd2b-f45a-4781-8304-3d9afad7ac4f" x1="42.01166" y1="30.94794" x2="48.29922" y2="30.94794"/><line class="bc64bd2b-f45a-4781-8304-3d9afad7ac4f" x1="42.01166" y1="38.85229" x2="48.29922" y2="38.85229"/><path class="bdbd55b1-4040-4cdd-8e21-3699d4fc7eb1" d="M19.03194,19.85476h.005m-.005,0a6.19482,6.19482,0,0,0,.5326,4.43682,6.90966,6.90966,0,0,0,1.13208-1.4226,8.28546,8.28546,0,0,1,.96679,6.37567,4.76849,4.76849,0,0,0,1.03077-.639c.38928,3.596-2.4469,5.37036-5.168,5.37036-2.50537,0-4.91309-1.50409-4.61573-4.47528.17188-1.71759,1.8722-3.08056,1.65-4.87323a3.784,3.784,0,0,0,.45056,1.376,5.15511,5.15511,0,0,1,1.19885-3.5556,15.3114,15.3114,0,0,1,2.822-2.5932M21.58761,15.976,18.113,18.66921a16.7097,16.7097,0,0,0-3.08814,2.85913,7.1495,7.1495,0,0,0-1.45825,3.22229l-.49475.0614a3.49233,3.49233,0,0,1-.64783,1.82446,7.109,7.109,0,0,0-1.0061,2.71491A5.25134,5.25134,0,0,0,12.70309,33.518,6.45522,6.45522,0,0,0,17.52621,35.476a6.9597,6.9597,0,0,0,5.21362-2.18042,6.07026,6.07026,0,0,0,1.44568-4.85138l-.297-2.74285-.523.42517A9.698,9.698,0,0,0,21.971,22.07778L20.67416,19.989l-.22107.36884q.01446-.06345.03076-.12653L21.58761,15.976ZM19.037,18.35476h0Zm-.005,3h0Z"/><path class="bdbd55b1-4040-4cdd-8e21-3699d4fc7eb1" d="M14.92505,29.6063a2.41325,2.41325,0,0,0,2.0645,1.23214,22.07037,22.07037,0,0,1-.16528-2.346,3.05835,3.05835,0,0,1,1.89689-2.50066,3.84765,3.84765,0,0,0,1.05664,2.90239,7.81648,7.81648,0,0,1,.7438-.77148,4.9388,4.9388,0,0,1,.03983,2.34869,3.45678,3.45678,0,0,1-3.58581,2.11312C15.57747,32.39188,15.189,30.82694,14.92505,29.6063Z"/></svg>