<svg id="afcd9138-d1cd-4018-97a4-2c94fd73f6f6" data-name="Layer 1" xmlns="http://www.w3.org/2000/svg" viewBox="0 0 69.2613 69.2613"><defs><style>.ba75fdba-5434-42d7-99e2-a21e3bb1fecb{fill:#eeb95b;stroke:#eeb95b;stroke-width:1.33806px;}.a50dd951-31d6-4559-a306-756925a84a0d,.a8a7076c-1104-4cd8-b203-cb05bc5dbaf9,.ba75fdba-5434-42d7-99e2-a21e3bb1fecb,.eb6b3dcd-f187-42fd-bd0b-44a4959b9912,.ebaff2e4-676a-493a-9f60-5f38e7a8cc0a{stroke-miterlimit:10;}.a34ca42d-4b2a-4ff3-90fc-c293a19f4c4e{fill:#fff;}.a8a7076c-1104-4cd8-b203-cb05bc5dbaf9,.ed63bf38-35e4-4f99-aec7-6fff9c3f760d{fill:#4d7582;}.a50dd951-31d6-4559-a306-756925a84a0d,.eb6b3dcd-f187-42fd-bd0b-44a4959b9912,.ebaff2e4-676a-493a-9f60-5f38e7a8cc0a{fill:none;}.eb6b3dcd-f187-42fd-bd0b-44a4959b9912{stroke:#4d7582;}.a50dd951-31d6-4559-a306-756925a84a0d,.eb6b3dcd-f187-42fd-bd0b-44a4959b9912{stroke-width:1.69161px;}.a50dd951-31d6-4559-a306-756925a84a0d,.a8a7076c-1104-4cd8-b203-cb05bc5dbaf9,.ebaff2e4-676a-493a-9f60-5f38e7a8cc0a{stroke:#fff;}.a8a7076c-1104-4cd8-b203-cb05bc5dbaf9,.ebaff2e4-676a-493a-9f60-5f38e7a8cc0a{stroke-linecap:round;stroke-width:1.46766px;}</style></defs><title>Artboard 75</title><circle class="ba75fdba-5434-42d7-99e2-a21e3bb1fecb" cx="34.63065" cy="34.63065" r="33.96162"/><path class="a34ca42d-4b2a-4ff3-90fc-c293a19f4c4e" d="M39.213,43.94048v-28.877a4.31147,4.31147,0,1,0-8.62294,0v28.877a9.43145,9.43145,0,1,0,8.62294,0Z"/><circle class="ed63bf38-35e4-4f99-aec7-6fff9c3f760d" cx="34.90151" cy="28.35716" r="1.39224"/><line class="eb6b3dcd-f187-42fd-bd0b-44a4959b9912" x1="34.90151" y1="27.59367" x2="34.90151" y2="48.02823"/><circle class="ed63bf38-35e4-4f99-aec7-6fff9c3f760d" cx="34.90151" cy="52.33969" r="5.55775"/><line class="a50dd951-31d6-4559-a306-756925a84a0d" x1="42.28253" y1="15.18876" x2="48.57008" y2="15.18876"/><line class="a50dd951-31d6-4559-a306-756925a84a0d" x1="42.28253" y1="19.05111" x2="45.42631" y2="19.05111"/><line class="a50dd951-31d6-4559-a306-756925a84a0d" x1="42.28253" y1="26.86565" x2="45.42631" y2="26.86565"/><line class="a50dd951-31d6-4559-a306-756925a84a0d" x1="42.28253" y1="34.68018" x2="45.42631" y2="34.68018"/><line class="a50dd951-31d6-4559-a306-756925a84a0d" x1="42.28253" y1="23.09311" x2="48.57008" y2="23.09311"/><line class="a50dd951-31d6-4559-a306-756925a84a0d" x1="42.28253" y1="30.99747" x2="48.57008" y2="30.99747"/><line class="a50dd951-31d6-4559-a306-756925a84a0d" x1="42.28253" y1="38.90183" x2="48.57008" y2="38.90183"/><line class="a8a7076c-1104-4cd8-b203-cb05bc5dbaf9" x1="18.11302" y1="20.30503" x2="18.11302" y2="33.42627"/><polyline class="ebaff2e4-676a-493a-9f60-5f38e7a8cc0a" points="19.968 20.901 18.112 22.756 16.257 20.901"/><polyline class="ebaff2e4-676a-493a-9f60-5f38e7a8cc0a" points="19.968 32.698 18.112 30.842 16.257 32.698"/><line class="a8a7076c-1104-4cd8-b203-cb05bc5dbaf9" x1="23.709" y1="23.44229" x2="12.51641" y2="30.29012"/><polyline class="ebaff2e4-676a-493a-9f60-5f38e7a8cc0a" points="24.169 25.336 21.618 24.721 22.232 22.17"/><polyline class="ebaff2e4-676a-493a-9f60-5f38e7a8cc0a" points="14.106 31.492 14.72 28.941 12.169 28.327"/><line class="a8a7076c-1104-4cd8-b203-cb05bc5dbaf9" x1="12.62867" y1="23.44229" x2="23.82127" y2="30.29012"/><polyline class="ebaff2e4-676a-493a-9f60-5f38e7a8cc0a" points="12.169 25.336 14.72 24.721 14.106 22.17"/><polyline class="ebaff2e4-676a-493a-9f60-5f38e7a8cc0a" points="22.232 31.492 21.618 28.941 24.169 28.327"/></svg>