<svg id="ba0949e8-fd46-4818-8ca2-5d43272c96cf" data-name="Layer 1" xmlns="http://www.w3.org/2000/svg" xmlns:xlink="http://www.w3.org/1999/xlink" viewBox="0 0 69.26185 69.26185"><defs><style>.aa1dc172-cc34-48f4-b303-9842b6ce3b31{fill:#4d7582;}.e7c21542-839a-4bb4-98a3-e37eaa9af70b{fill:#ef5b5b;stroke:#ef5b5b;stroke-miterlimit:10;stroke-width:1.33807px;}.fd2b69bd-daaf-43be-a285-6edbfb8b7c18{clip-path:url(#b90507ab-d3bf-442c-864a-64ce11a79412);}.e507c346-4c09-4dcd-8d9f-2be7a2935017{fill:#fff;}</style><clipPath id="b90507ab-d3bf-442c-864a-64ce11a79412"><path class="aa1dc172-cc34-48f4-b303-9842b6ce3b31" d="M19.37972,33.55268a10.46012,10.46012,0,0,0,3.8719,1.87719c.70292.21194,2.4496.06458,2.9634.54352.66983.62438.19009,1.9587.84075,2.83744.91878,1.24082,4.05972.89331,5.48334,1.00869,2.67554.21685,1.80723.29785,2.14,2.61931a2.22773,2.22773,0,0,0,1.21221,1.77531,3.40018,3.40018,0,0,1,.63916.26723,1.6749,1.6749,0,0,1,.46944.61051,16.395,16.395,0,0,1,1.49556,2.726c.33712,1.11844-.26826,2.28245,1.30539,2.35383a1.71536,1.71536,0,0,0,1.69292-1.61439l.31981-2.35106c1.44011-.0513,3.55142-.32079,4.55572-1.47452a3.79524,3.79524,0,0,0,.85474-3.14014c3.30842-.27373,5.14114-6.25628,4.80794-8.92815a16.56925,16.56925,0,0,0-7.147-11.01306c-4.04462-2.57673-10.12665-2.95588-14.72325-2.24621-3.89547.60143-8.66677,1.90328-11.25818,5.067-1.99167,2.43149-2.50438,6.03558-.13861,8.50167Q19.05642,33.27671,19.37972,33.55268Z"/></clipPath></defs><title>Artboard 20</title><circle class="e7c21542-839a-4bb4-98a3-e37eaa9af70b" cx="34.63093" cy="34.63093" r="33.96189"/><path class="aa1dc172-cc34-48f4-b303-9842b6ce3b31" d="M19.37972,33.55268a10.46012,10.46012,0,0,0,3.8719,1.87719c.70292.21194,2.4496.06458,2.9634.54352.66983.62438.19009,1.9587.84075,2.83744.91878,1.24082,4.05972.89331,5.48334,1.00869,2.67554.21685,1.80723.29785,2.14,2.61931a2.22773,2.22773,0,0,0,1.21221,1.77531,3.40018,3.40018,0,0,1,.63916.26723,1.6749,1.6749,0,0,1,.46944.61051,16.395,16.395,0,0,1,1.49556,2.726c.33712,1.11844-.26826,2.28245,1.30539,2.35383a1.71536,1.71536,0,0,0,1.69292-1.61439l.31981-2.35106c1.44011-.0513,3.55142-.32079,4.55572-1.47452a3.79524,3.79524,0,0,0,.85474-3.14014c3.30842-.27373,5.14114-6.25628,4.80794-8.92815a16.56925,16.56925,0,0,0-7.147-11.01306c-4.04462-2.57673-10.12665-2.95588-14.72325-2.24621-3.89547.60143-8.66677,1.90328-11.25818,5.067-1.99167,2.43149-2.50438,6.03558-.13861,8.50167Q19.05642,33.27671,19.37972,33.55268Z"/><g class="fd2b69bd-daaf-43be-a285-6edbfb8b7c18"><path class="e507c346-4c09-4dcd-8d9f-2be7a2935017" d="M36.65984,40.96644c.76037.71216.63717,2.01678,1.342,2.784.79069.86069,2.32295.72807,3.035,1.65485a3.07435,3.07435,0,0,1,.28,2.33826,3.79794,3.79794,0,0,1-1.18344,2.75007c-.889.62164-1.3952-.116-1.50151-.906a6.67191,6.67191,0,0,0-1.18167-2.84337,23.49179,23.49179,0,0,0-1.11219-2.1126c-.50525-.5889-1.44689-.59224-1.88467-1.24852-.37556-.56311-.63608-2.27662-.04235-2.73985A2.048,2.048,0,0,1,36.65984,40.96644Z"/><path class="e507c346-4c09-4dcd-8d9f-2be7a2935017" d="M36.00334,35.66391a.92119.92119,0,0,0-.9612-.18444,4.33515,4.33515,0,0,0-.90363.49953,4.78144,4.78144,0,0,1-1.74333.641,1.173,1.173,0,0,1-1.26676-.99149,3.62509,3.62509,0,0,1,.25844-1.84461,3.32042,3.32042,0,0,0,.82335-1.47111.5849.5849,0,0,0-.07014-.54748c-.15876-.16278-.42826-.11006-.644-.03833-1.5923.52946-3.0569,1.456-4.70843,1.753a10.63193,10.63193,0,0,1-4.45391-.365c-1.4398-.36194-2.882-.68787-4.3345-1.00135a1.2965,1.2965,0,0,0,.29228.93451,7.63772,7.63772,0,0,0,6.45676,3.34054c.46046-.01334,1.01291-.02733,1.271.35421a1.092,1.092,0,0,1,.15041.52062c.06132.6805-.05595,1.36513-.03287,2.048a2.372,2.372,0,0,0,.76139,1.83138,2.32258,2.32258,0,0,0,1.11221.41124,9.35034,9.35034,0,0,0,4.46657-.84437A6.12652,6.12652,0,0,0,35.19578,39.105C35.74426,38.43991,36.7245,36.47432,36.00334,35.66391Z"/><path class="e507c346-4c09-4dcd-8d9f-2be7a2935017" d="M43.07549,22.82649c.67233,1.31509,2.4338,1.50446,3.10078,2.8223a4.369,4.369,0,0,1,.18722,2.41108c-.07.81775.10216,2.4464,1.0076,2.87272a2.02479,2.02479,0,0,0,1.0707.10812,1.95126,1.95126,0,0,1,1.07075.12137c.57386.28521.92726,1.006,1.44851,1.43061a1.38545,1.38545,0,0,0,1.95551-.059,2.38736,2.38736,0,0,0,.411-.9954,8.18062,8.18062,0,0,0-1.28108-5.98277c-1.2222-1.853-1.94812-4.127-3.653-5.60294a3.52069,3.52069,0,0,0-3.47609-.93625,3.64624,3.64624,0,0,0-1.39355,1.23283A2.44756,2.44756,0,0,0,43.07549,22.82649Z"/></g></svg>