<svg id="bd481419-e189-425f-bbc4-0fcc4f6f9b43" data-name="Layer 1" xmlns="http://www.w3.org/2000/svg" viewBox="0 0 69.26185 69.26185"><defs><style>.fa4768e5-aeb8-476d-9fb2-b00dd982b775{fill:#ef5b5b;stroke:#ef5b5b;stroke-miterlimit:10;stroke-width:1.33807px;}.ee39d3d0-0e55-4284-97e1-131c312f4b0f{fill:#fff;}.fd0b6c2d-7e41-4739-ba69-4da821a9e2e3{fill:#4e7582;}</style></defs><title>Artboard 23</title><circle class="fa4768e5-aeb8-476d-9fb2-b00dd982b775" cx="34.63093" cy="34.63093" r="33.96189"/><path class="ee39d3d0-0e55-4284-97e1-131c312f4b0f" d="M47.284,27.19779a2.76619,2.76619,0,0,0-3.19263-1.52821c-1.86673.45694-3.33223-.23009-4.97829-1.18919a14.40534,14.40534,0,0,0-2.44821-1.21267,6.4715,6.4715,0,0,0-2.155-.35488v-.00025l-.001.00012-.0015-.00012-.0005.00025a6.47186,6.47186,0,0,0-2.155.35488,14.40284,14.40284,0,0,0-2.44814,1.21267c-1.64613.9591-3.11163,1.64613-4.97835,1.18919a2.76621,2.76621,0,0,0-3.19264,1.52821,8.75166,8.75166,0,0,0-1.103,4.33154,6.21693,6.21693,0,0,0,2.08783,4.74277c1.50978,1.31185,3.66512,2.38062,5.68781,1.69534,1.14884-.389,1.956-1.5377.7789-2.36114a.44365.44365,0,0,1-.233-.36737,6.29135,6.29135,0,0,1,1.43146.29667c1.53857.673,2.27114,3.15485,4.12506,3.088v.00012H34.509v-.00012c1.85386.06683,2.58642-2.415,4.125-3.088a6.292,6.292,0,0,1,1.43146-.29667.44337.44337,0,0,1-.233.36737c-1.17707.82344-.36993,1.97215.77891,2.36114,2.02268.68528,4.178-.38349,5.68781-1.69534A6.21692,6.21692,0,0,0,48.387,31.52933,8.75156,8.75156,0,0,0,47.284,27.19779Z"/><path class="fd0b6c2d-7e41-4739-ba69-4da821a9e2e3" d="M25.4078,34.755a2.65515,2.65515,0,0,1,1.9519-1.04086,3.58164,3.58164,0,0,1,2.022.63765,6.16423,6.16423,0,0,1,1.66468,1.22571,5.69382,5.69382,0,0,1,1.10107,1.659l-.16125.11732a6.55307,6.55307,0,0,0-1.53162-.97409,7.28824,7.28824,0,0,0-1.61987-.52965,11.2796,11.2796,0,0,1-1.61951-.1474,9.333,9.333,0,0,1-1.75952-.75413Z"/><path class="fd0b6c2d-7e41-4739-ba69-4da821a9e2e3" d="M43.56734,34.94854a9.33276,9.33276,0,0,1-1.75952.75413,11.28105,11.28105,0,0,1-1.6195.1474,7.28815,7.28815,0,0,0-1.61988.52965,6.553,6.553,0,0,0-1.53161.97409l-.16126-.11732a5.69126,5.69126,0,0,1,1.10108-1.659,6.16217,6.16217,0,0,1,1.66467-1.22571,3.58135,3.58135,0,0,1,2.022-.63765,2.65511,2.65511,0,0,1,1.9519,1.04086Z"/><path class="ee39d3d0-0e55-4284-97e1-131c312f4b0f" d="M18.5413,49.97021a15.44017,15.44017,0,0,0,8.10418-7.93058"/><path class="ee39d3d0-0e55-4284-97e1-131c312f4b0f" d="M24.50489,51.37259A15.44015,15.44015,0,0,0,28.51628,40.7669"/><path class="ee39d3d0-0e55-4284-97e1-131c312f4b0f" d="M50.72055,49.97021a15.44017,15.44017,0,0,1-8.10418-7.93058"/><path class="ee39d3d0-0e55-4284-97e1-131c312f4b0f" d="M44.757,51.37259a15.44019,15.44019,0,0,1-4.0114-10.60569"/></svg>