<svg id="aff6aa6b-7703-437f-923b-3e866b30077f" data-name="Layer 1" xmlns="http://www.w3.org/2000/svg" viewBox="0 0 69.26185 69.26185"><defs><style>.b0f57f50-8071-4cb7-95e0-170dcdd8f978{fill:#ef5b5b;stroke:#ef5b5b;stroke-miterlimit:10;stroke-width:1.33807px;}.f5e0d418-8f25-42cd-8caf-928cc9172a7c{fill:none;stroke:#4d7582;stroke-linecap:round;stroke-linejoin:round;stroke-width:1.13366px;}.b36539be-1bc1-42e7-9847-68eb19ad85b0{fill:#4e7582;}.a91e3ee2-c755-42f7-be59-8b5e77b1ba7a{fill:#fff;}</style></defs><title>Artboard 24</title><circle class="b0f57f50-8071-4cb7-95e0-170dcdd8f978" cx="34.63093" cy="34.63093" r="33.96189"/><path class="f5e0d418-8f25-42cd-8caf-928cc9172a7c" d="M53.04758,36.37218H44.73377a.10284.10284,0,0,1-.10143-.08584l-.77563-4.62552a.10284.10284,0,0,0-.20337.00351l-1.18621,8.95559c-.01544.11661-.1829.12014-.18908.08494L41.25053,34.852s-.035-.28083-.10752-.2295c-.06458.04569-.10335.22836-.10335.22836l-.45618,1.44936a.10285.10285,0,0,1-.0981.072h-7.9895"/><path class="b36539be-1bc1-42e7-9847-68eb19ad85b0" d="M36.444,39.82193a8.94069,8.94069,0,0,1-17.88138,0c0-4.93781,8.94069-20.31724,8.94069-20.31724S36.444,34.88412,36.444,39.82193Z"/><path class="a91e3ee2-c755-42f7-be59-8b5e77b1ba7a" d="M34.8088,42.82544c.44719-1.08547.44283-2.67664-.951-3.0017a2.03574,2.03574,0,0,0-2.47573,1.17058c-.31367.80059-.27252,1.76187-.56731,2.58892a8.72993,8.72993,0,0,1-.752,1.53258,5.76076,5.76076,0,0,0-.7051,1.058c-.179.54852.45049.8234.90059.781a4.23587,4.23587,0,0,0,1.8898-.90259A7.22417,7.22417,0,0,0,34.8088,42.82544Z"/></svg>