<svg id="a5ceb184-f355-4bcd-8fa2-c42410a0abb8" data-name="Layer 1" xmlns="http://www.w3.org/2000/svg" viewBox="0 0 69.26185 69.26185"><defs><style>.ffa40d97-82de-4843-ab91-274eaed67e66{fill:#ef5b5b;stroke:#ef5b5b;stroke-miterlimit:10;stroke-width:1.33807px;}.b169a2f1-1196-4514-9037-2044d36da3e9,.fe3efc0b-8195-4d2a-b2f5-6fe48533e455{fill:#4d7582;}.be2a8c55-6fa9-4c48-babf-2bc12da0c1e8,.fe3efc0b-8195-4d2a-b2f5-6fe48533e455{stroke:#fff;stroke-linecap:round;stroke-linejoin:round;}.fe3efc0b-8195-4d2a-b2f5-6fe48533e455{stroke-width:3.73442px;}.be2a8c55-6fa9-4c48-babf-2bc12da0c1e8{fill:none;stroke-width:1.40041px;}.a7c6f634-99fe-42fc-a91a-ee180a6b50af{fill:#fff;}</style></defs><title>Artboard 27</title><circle class="ffa40d97-82de-4843-ab91-274eaed67e66" cx="34.63093" cy="34.63093" r="33.96189"/><path class="fe3efc0b-8195-4d2a-b2f5-6fe48533e455" d="M14.4775,43.036c-1.00775-.47458-1.35838-1.70988-1.57092-2.80332a68.33821,68.33821,0,0,1-1.21512-10.70285,4.80049,4.80049,0,0,1,.78941-3.41694,3.59433,3.59433,0,0,1,3.44-.83614,27.41039,27.41039,0,0,1,3.475,1.2909c5.17552,1.87089,11.03869-.23012,15.42222-3.55743,1.21995-.926,2.79949-1.99833,4.13691-1.252a3.19657,3.19657,0,0,1,1.31,2.5802c.19923,1.97529-.19665,3.97443-.00022,5.95a44.04865,44.04865,0,0,0,1.27409,5.36287,12.07424,12.07424,0,0,1-.35032,7.26035,7.25045,7.25045,0,0,1-5.42045,4.51919,22.28344,22.28344,0,0,1-3.71428-.08008,4.97015,4.97015,0,0,0-3.49633.97979c-1.5531,1.39082-1.29548,3.84777-.91042,5.89673l.16095-.77726"/><path class="be2a8c55-6fa9-4c48-babf-2bc12da0c1e8" d="M15.88023,29.20705a4.08558,4.08558,0,0,0-1.41084,3.04286c-.00222.46511.15566,1.02408.60529,1.14308.50822.13451.93088-.38567,1.19976-.83742l1.22818-2.06343c.38251-.64265,1.13879-1.37792,1.74363-.938.48194.3505.30649,1.10487.035,1.63537s-.59052,1.18059-.26318,1.67855c.37631.57246,1.31408.392,1.77718-.11284a10.89659,10.89659,0,0,0,1.0029-1.78605c.35954-.58313,1.07493-1.07944,1.7005-.80017,1.076.48035.40421,1.87865.7191,2.70536.43438,1.14043,1.42027,1.17782,2.02906-.14928.37305-.81321.37451-1.77208.82384-2.54576s1.72532-1.17569,2.18408-.40756c.4447.7446-.32226,1.84479.22095,2.5209.51563.64178,1.62562.10669,1.93512-.65617s.19316-1.63886.45078-2.42077,1.24267-1.45374,1.87628-.9281c.40939.33962.40371.95244.45162,1.48219s.31543,1.16628.84709,1.18293c.71995.02255.87933-1.02216.679-1.714a5.8076,5.8076,0,0,1-.44861-2.1822c.08017-.744.78685-1.48892,1.5-1.26221.58469.18587.82055.871.96638,1.4669.30652,1.25261.52818,2.7277-.31684,3.70182-.58178.67068-1.52119.90611-2.20525,1.47211s-.93361,1.86751-.1143,2.2096c.80369.33557,1.73814-.64611,2.52638-.27569.78247.36771.4605,1.65258-.287,2.08705a13.77209,13.77209,0,0,1-2.49194.67867c-.81608.28547-1.56349,1.233-1.10321,1.96489.49872.793,1.71554.42926,2.53148-.03089s2.00933-.859,2.546-.09124a1.30943,1.30943,0,0,1-.60472,1.77049,3.65307,3.65307,0,0,1-2.06932.231,2.35535,2.35535,0,0,0-1.29041.12333.79413.79413,0,0,0-.37784,1.09218c.32687.4436,1.03272.21144,1.55738.37982a1.27472,1.27472,0,0,1,.55544,1.8131,2.24216,2.24216,0,0,1-1.84687.9702,3.797,3.797,0,0,1-3.73505-2.60905,7.96606,7.96606,0,0,0-.45355-1.52425,1.12621,1.12621,0,0,0-1.30859-.63309,1.05667,1.05667,0,0,0-.5575.68215,7.786,7.786,0,0,0-.17557,2.23829c-.00441.38275-.09108.872-.4661.94865a.77969.77969,0,0,1-.26317-.00427,2.537,2.537,0,0,1-2.13307-1.44613,2.18566,2.18566,0,0,1,.04237-1.41975,3.17888,3.17888,0,0,1,3.30025-2.05639c.6014.076,1.16833.32739,1.76685.42349a1.72322,1.72322,0,0,0,1.65968-.48823c.36689-.48254.10678-1.37051-.49917-1.38716a4.36829,4.36829,0,0,0-.68476.14121c-.23173.0313-.52377-.08078-.53979-.31406a.52683.52683,0,0,1,.09119-.28538c.69853-1.2377,1.93223-2.10266,2.64167-3.33414.16807-.29175.29476-.68838.07156-.94045a.68711.68711,0,0,0-.45573-.19533,2.34217,2.34217,0,0,0-2.03884,1.307,16.1387,16.1387,0,0,1-1.274,2.209.7089.7089,0,0,1-.51106.304c-1.26848-.028.31674-2.57536.36667-2.94156.1215-.89133-.48681-1.81181-1.59574-.9623A3.03573,3.03573,0,0,0,27.1094,35.507a5.29052,5.29052,0,0,1-.406,2.62155c-.45116.77326-1.67061,1.15831-2.23851.46625-.48818-.5949-.17687-1.47251.08048-2.19777s.33684-1.728-.34957-2.076a1.19654,1.19654,0,0,0-1.49947.66858,3.47565,3.47565,0,0,0-.1686,1.79957l.19928,2.39315c.08421,1.01115-.006,2.3106-.96377,2.64545a1.584,1.584,0,0,1-1.862-1.18173,4.16944,4.16944,0,0,1,.24832-2.41846,5.78993,5.78993,0,0,0,.4539-2.40643.948.948,0,0,0-.25774-.61249c-.37481-.3363-1.018-.01557-1.20536.45184a3.27836,3.27836,0,0,0-.04054,1.49439,1.55727,1.55727,0,0,1-.41225,1.38758,1.20716,1.20716,0,0,1-1.71631-.65109,3.063,3.063,0,0,1,.12974-2.0779c.33754-1.02682.83649-2.61925-.91128-2.54594A1.87637,1.87637,0,0,0,14.585,34.602a3.19725,3.19725,0,0,0,.17613,2.169c.36588.89294,1.82822,1.66454,1.51557,2.67609a10.6977,10.6977,0,0,1-.60269,1.17956,1.13807,1.13807,0,0,0,.07743,1.24516,1.04551,1.04551,0,0,0,1.298-.00279,6.11221,6.11221,0,0,0,.96689-1.02147,1.54146,1.54146,0,0,1,1.21558-.608.28456.28456,0,0,1,.13911.04315.29738.29738,0,0,1,.0987.19394c.259,1.36292-3.96833,4.84594-.63553,5.34186a2.17943,2.17943,0,0,0,2.01705-.95619c.36239-.51194.53719-1.13671.89142-1.65434a1.44057,1.44057,0,0,1,1.59348-.69857c.73375.29242.782,1.3581.41176,2.05581s-1.01063,1.23351-1.32287,1.959-.06448,1.808.71822,1.91416a1.41356,1.41356,0,0,0,1.277-.80222,8.46493,8.46493,0,0,1,.80126-1.37776,1.91173,1.91173,0,0,1,2.42932-.27691"/><polygon class="a7c6f634-99fe-42fc-a91a-ee180a6b50af" points="59.219 38.343 58.195 40.591 57.635 38.896 59.219 38.343"/><circle class="a7c6f634-99fe-42fc-a91a-ee180a6b50af" cx="52.14076" cy="39.4591" r="3.33276"/><circle class="a7c6f634-99fe-42fc-a91a-ee180a6b50af" cx="55.05918" cy="39.4591" r="3.33276"/><path class="a7c6f634-99fe-42fc-a91a-ee180a6b50af" d="M47.95305,37.84175l.45715,1.18311.53857,1.39382.90409-1.482Z"/><path class="a7c6f634-99fe-42fc-a91a-ee180a6b50af" d="M55.53119,39.46707a4.42307,4.42307,0,0,1-1.82308-.394,4.43607,4.43607,0,0,1-6.261-3.88674c-.00138.05547-.00827.10952-.00827.16534a6.26923,6.26923,0,0,0,12.53846,0c0-.05582-.00689-.10987-.00841-.16534A4.44264,4.44264,0,0,1,55.53119,39.46707Z"/><path class="a7c6f634-99fe-42fc-a91a-ee180a6b50af" d="M59.97734,35.021a4.42828,4.42828,0,0,0-.36851-1.77023,6.24431,6.24431,0,0,1,.3601,1.93557C59.971,35.131,59.97734,35.07684,59.97734,35.021Z"/><path class="a7c6f634-99fe-42fc-a91a-ee180a6b50af" d="M55.53119,30.575a4.42322,4.42322,0,0,0-1.82308.394,4.44153,4.44153,0,0,1,0,8.10416,4.436,4.436,0,0,0,6.26082-3.88674,6.24431,6.24431,0,0,0-.3601-1.93557A4.44575,4.44575,0,0,0,55.53119,30.575Z"/><path class="a7c6f634-99fe-42fc-a91a-ee180a6b50af" d="M47.43888,35.021c0,.05582.00634.11.00827.16534a6.24062,6.24062,0,0,1,.36023-1.93557A4.42828,4.42828,0,0,0,47.43888,35.021Z"/><path class="a7c6f634-99fe-42fc-a91a-ee180a6b50af" d="M51.88489,39.46707a4.42372,4.42372,0,0,0,1.82322-.394,4.44143,4.44143,0,0,1,0-8.10416,4.43751,4.43751,0,0,0-5.90073,2.28185,6.24062,6.24062,0,0,0-.36023,1.93557A4.44264,4.44264,0,0,0,51.88489,39.46707Z"/><path class="a7c6f634-99fe-42fc-a91a-ee180a6b50af" d="M56.3309,35.021a4.44379,4.44379,0,0,0-2.62279-4.05208,4.44143,4.44143,0,0,0,0,8.10416A4.44382,4.44382,0,0,0,56.3309,35.021Z"/><path class="b169a2f1-1196-4514-9037-2044d36da3e9" d="M53.96312,30.93139a2.87356,2.87356,0,0,0,2.36778-1.244,1.66725,1.66725,0,0,0-2.62828,1.23081C53.78858,30.926,53.87519,30.93139,53.96312,30.93139Z"/><path class="b169a2f1-1196-4514-9037-2044d36da3e9" d="M51.11713,27.64818a2.85556,2.85556,0,0,0,2.547,3.26764,2.85513,2.85513,0,0,0-2.547-3.26764Z"/></svg>