<svg id="bb7e8fef-8603-4342-a7c8-57e5247f06b6" data-name="Layer 1" xmlns="http://www.w3.org/2000/svg" xmlns:xlink="http://www.w3.org/1999/xlink" viewBox="0 0 69.26185 69.26185"><defs><style>.a1a782fa-3da9-47bd-afc6-72598a92ad9a{fill:none;}.b7d53ac7-804a-49bf-815c-abfaf7287ba1{fill:#ef5b5b;stroke:#ef5b5b;stroke-miterlimit:10;stroke-width:1.33807px;}.bd452005-7c9c-44bc-8ee2-22c5805beb2d{fill:#fff;}.a2073aff-e310-4988-adf7-9951b52f97b4{fill:#4d7582;}.ab534c8c-ba09-4570-b364-a30bf92fa019{clip-path:url(#f2a56599-2cec-4969-8e67-759e0310009e);}.a9762c86-d5ca-47f6-b52e-ea993b26663f{clip-path:url(#a23a7bea-01dd-42de-8e72-0e67c3ee5dd8);}.adf8e2f1-f7a6-46a4-95f7-c941ccd348ba{clip-path:url(#e44215fa-0696-417a-908d-6574a37250b5);}.a6d18726-1e24-4175-9bc3-63baee3af4c6{clip-path:url(#a5be9da4-1f5e-44e4-abcc-07abf2930ae6);}</style><clipPath id="f2a56599-2cec-4969-8e67-759e0310009e"><path class="a1a782fa-3da9-47bd-afc6-72598a92ad9a" d="M43.90211,43.238l-9.93879.79959-.09138.47891,2.67286-.215-.9253.87625,1.36517.64081,7.08608-.52292s2.125,1.97459,3.79069,1.85174c.756-.05576.96551-.49316.82172-1.18-.25575-1.22172-1.13254-1.763-.50538-3.03211.36037-.72921.353-2.20222-.81375-2.10835C45.69919,40.9608,43.90211,43.238,43.90211,43.238Z"/></clipPath><clipPath id="a23a7bea-01dd-42de-8e72-0e67c3ee5dd8"><path class="a1a782fa-3da9-47bd-afc6-72598a92ad9a" d="M36.31919,44.55174l-2.20827.25671.12253-.79479-5.1775.60187c-1.20728-1.16167-3.85562-1.5431-4.5498-.92629-.65076.57826-.10312,1.62289.35885,2.4-.275.85768-.56391,1.98131.1926,2.39613.81424.44655,3.31089-.51577,4.22878-1.91729l7.73271-.84714-1.303-.55608Z"/></clipPath><clipPath id="e44215fa-0696-417a-908d-6574a37250b5"><path class="a1a782fa-3da9-47bd-afc6-72598a92ad9a" d="M21.23468,28.979l-.54148,9.94032.3284.12874.14562-2.67327.51644.989.605-1.30592.4194-7.08342A7.95829,7.95829,0,0,0,24.43935,25.354c.04476-.75568-.24113-.99857-.74273-.91008-.89218.15737-1.3725.98582-2.19986.262-.47539-.4159-1.51758-.52525-1.58114.64166A7.082,7.082,0,0,0,21.23468,28.979Z"/></clipPath><clipPath id="a5be9da4-1f5e-44e4-abcc-07abf2930ae6"><path class="a1a782fa-3da9-47bd-afc6-72598a92ad9a" d="M21.319,36.61882l-.06443,2.21488-.54824-.18473-.15105,5.193c-.95569,1.10774-1.52027,3.70939-1.16151,4.44812.33635.69252,1.13584.231,1.73667-.16649.57573.3412,1.33791.71736,1.71542-.00159.40636-.7738.00406-3.33115-.88455-4.35437l.2622-7.75171-.53822,1.2508Z"/></clipPath></defs><title>Artboard 29</title><circle class="b7d53ac7-804a-49bf-815c-abfaf7287ba1" cx="34.63093" cy="34.63093" r="33.96189"/><path class="bd452005-7c9c-44bc-8ee2-22c5805beb2d" d="M53.73735,49.16482A5.811,5.811,0,0,0,54.3036,46.262a8.707,8.707,0,0,0-14.66371-6.3598,16.70493,16.70493,0,0,0-9.35667.22856,9.67088,9.67088,0,0,1-2.07258.63289,9.76922,9.76922,0,0,0-2.2804.17358c.42495-.1327.48162-2.36955.47843-2.71923a36.20727,36.20727,0,0,0-.46894-4.129c-.18442-1.43993-.62571-2.83375-.81287-4.2729a10.18647,10.18647,0,0,1-.054-2.26327,17.10569,17.10569,0,0,1,.02794-1.81948,1.00686,1.00686,0,0,1,.4862-.528c1.45392-.87,3.42059-.37153,4.8956-1.20582,1.12637-.63724,1.01148-2.2889.96188-3.4196A3.29148,3.29148,0,0,0,31.191,19.3114a3.908,3.908,0,0,0-.5662-.80944l-1.02147-1.22513A3.37512,3.37512,0,0,0,28.274,16.155a3.09549,3.09549,0,0,0-1.70326.0167c-2.52512.54463-6.5667.56113-7.61371,3.52462-.9222,2.6102-.39895,5.04591-.43778,7.70044-.03929,2.68671-.98823,5.41124-1.249,8.09181-.30451,3.13056-.0389,6.13579-.0389,9.26144a19.203,19.203,0,0,0,.90748,4.76717,1.8793,1.8793,0,0,0,.75391,1.28033,1.88356,1.88356,0,0,0,1.11713.08778c5.01024-.62786,13.244.18612,18.26653-.07717a18.53064,18.53064,0,0,0,3.4012-.6003,10.45441,10.45441,0,0,1,3.32142-.41171c1.2411.12492,2.42676.63606,3.67618.74852a7.54031,7.54031,0,0,0,4.45672-.73409A2.064,2.064,0,0,0,53.73735,49.16482Z"/><path class="a2073aff-e310-4988-adf7-9951b52f97b4" d="M32.158,37.74775a5.46765,5.46765,0,0,1-.46956-5.51741"/><path class="a2073aff-e310-4988-adf7-9951b52f97b4" d="M34.85765,37.663a5.46763,5.46763,0,0,1,2.2176-5.07392"/><path class="a2073aff-e310-4988-adf7-9951b52f97b4" d="M43.90211,43.238l-9.93879.79959-.09138.47891,2.67286-.215-.9253.87625,1.36517.64081,7.08608-.52292s2.125,1.97459,3.79069,1.85174c.756-.05576.96551-.49316.82172-1.18-.25575-1.22172-1.13254-1.763-.50538-3.03211.36037-.72921.353-2.20222-.81375-2.10835C45.69919,40.9608,43.90211,43.238,43.90211,43.238Z"/><g class="ab534c8c-ba09-4570-b364-a30bf92fa019"><path class="a2073aff-e310-4988-adf7-9951b52f97b4" d="M48.06833,43.2444c-.09218.20552-.20138.77.00636.94682.09089.07726.2322.05242.337.10946a.4771.4771,0,0,1,.176.22728l.26406.54251a.4584.4584,0,0,1,.06734.26156c-.08168.53359-.70491.04975-.8768-.0459a5.86885,5.86885,0,0,0-1.2243-.46829.81826.81826,0,0,1-.627-.63918.88043.88043,0,0,1,.36994-.68068c.37989-.327.8754-.56132,1.08876-1.0149a5.72083,5.72083,0,0,1,.2772-.7368c.14395-.22036.504-.33674.65967-.1245.11617.15839.03919.37994-.0412.55918Z"/></g><path class="a2073aff-e310-4988-adf7-9951b52f97b4" d="M36.71926,44.16467l-2.66959.211.07254-.3491-5.03636.562c-1.18481-1.17968-3.82081-1.60544-4.524-1.00182-.65919.56589-.13057,1.61755.31713,2.40081-.289.8511-.59646,1.96732.15132,2.39413.80483.45945,3.31237-.45817,4.25215-1.84095l7.73009-.71341-.71283-1.16061Z"/><g class="a9762c86-d5ca-47f6-b52e-ea993b26663f"><path class="a2073aff-e310-4988-adf7-9951b52f97b4" d="M24.95431,47.20922a.33307.33307,0,0,1,.13777-.3791,1.2048,1.2048,0,0,1,.40453-.15548,3.35213,3.35213,0,0,0,1.1145-.54428.508.508,0,0,0,.22827-.29638c.02522-.15315-.08121-.29555-.106-.44877a.45733.45733,0,0,1,.60163-.46669,5.13532,5.13532,0,0,1-1.54622-.35476c-.24109-.09655-.55391-.1976-.7284-.00524-.03718.041-.06531.09395-.11566.1169-.15471.07052-.3294-.20028-.47144-.10683-.083.05457-.06115.17893-.03868.27565a1.56534,1.56534,0,0,1-.0266.804,4.764,4.764,0,0,0-.2442.7299.74934.74934,0,0,0,.20253.63984.53043.53043,0,0,0,.64051.07342"/></g><path class="a2073aff-e310-4988-adf7-9951b52f97b4" d="M21.23468,28.979l-.54148,9.94032.3284.12874.14562-2.67327.51644.989.605-1.30592.4194-7.08342A7.95829,7.95829,0,0,0,24.43935,25.354c.04476-.75568-.24113-.99857-.74273-.91008-.89218.15737-1.3725.98582-2.19986.262-.47539-.4159-1.51758-.52525-1.58114.64166A7.082,7.082,0,0,0,21.23468,28.979Z"/><g class="adf8e2f1-f7a6-46a4-95f7-c941ccd348ba"><path class="a2073aff-e310-4988-adf7-9951b52f97b4" d="M21.70315,24.8392c.135.10789.522.26113.67007.06868.06474-.0842.06292-.2266.11491-.3262a.38544.38544,0,0,1,.18028-.15685l.41293-.21944a.2572.2572,0,0,1,.19241-.04621c.36814.12345-.04332.70447-.13008.86771a7.46844,7.46844,0,0,0-.4674,1.1796c-.10095.29334-.29542.57528-.5217.57247-.19115-.00238-.339-.20582-.44-.42157A3.42776,3.42776,0,0,0,21.1183,25.195c-.1559-.1302-.35027-.17333-.49-.33384a.53876.53876,0,0,1-.01455-.66543c.12491-.1029.273-.00885.39073.08524Z"/></g><path class="a2073aff-e310-4988-adf7-9951b52f97b4" d="M21.08994,36.19059l-.14809,2.6697-.23872-.09975-.16352,5.04956c-.96593,1.084-1.56046,3.66986-1.212,4.41647.32666.69992,1.129.25789,1.7326-.125.56952.35462,1.32441.74859,1.70941.03928.41444-.76342.045-3.32807-.828-4.37154l.35645-7.73853-.89989.61645Z"/><g class="a6d18726-1e24-4175-9bc3-63baee3af4c6"><path class="a2073aff-e310-4988-adf7-9951b52f97b4" d="M21.93222,48.12354c-.10064.04734-.20509-.04354-.25267-.16695a1.52836,1.52836,0,0,1-.06488-.41432,4.0412,4.0412,0,0,0-.26067-1.15069c-.04267-.108-.09717-.21966-.18411-.25032-.10547-.03721-.218.05729-.32907.06976-.22168.0249-.38215-.36255-.26294-.63485a6.93277,6.93277,0,0,1-.423,1.50849c-.09511.23194-.20138.53482-.08482.72346a.37692.37692,0,0,1,.06977.1242c.03262.15934-.17827.31149-.128.46.02935.08676.11969.075.19057.06028a.80641.80641,0,0,1,.56545.09013,2.77811,2.77811,0,0,0,.48882.30051.4452.4452,0,0,0,.4749-.15059.70147.70147,0,0,0,.12323-.63071"/></g></svg>