<svg id="f5874486-0e84-4afe-83fd-621fb9019b8a" data-name="Layer 1" xmlns="http://www.w3.org/2000/svg" viewBox="0 0 69.26185 69.26185"><defs><style>.ee1ea717-b27d-4b62-97c2-d451cac58514{fill:#ef5b5b;stroke:#ef5b5b;stroke-miterlimit:10;stroke-width:1.33807px;}.e35b2599-900b-4317-9837-436a709d08c5{fill:none;stroke-linecap:round;stroke-width:1.03715px;}.a2a5d88f-1eac-4351-9317-dea7b5a1f1bc,.e35b2599-900b-4317-9837-436a709d08c5{stroke:#fff;stroke-linejoin:round;}.a2a5d88f-1eac-4351-9317-dea7b5a1f1bc,.ac75323e-1266-47a8-9df5-3099a5064770{fill:#fff;}.a2a5d88f-1eac-4351-9317-dea7b5a1f1bc{stroke-width:0.51858px;}.edcdff92-746a-49b1-9245-6a35ddffb0fe{fill:#4d7582;}</style></defs><title>Artboard 31</title><circle class="ee1ea717-b27d-4b62-97c2-d451cac58514" cx="34.63093" cy="34.63093" r="33.96189"/><path class="e35b2599-900b-4317-9837-436a709d08c5" d="M49.29366,32.04616H41.68761a.09408.09408,0,0,1-.09279-.07852l-.7096-4.23175a.09408.09408,0,0,0-.18606.00321l-1.08523,8.19319c-.01413.10668-.16733.10991-.173.07771l-.94-5.35461s-.032-.25692-.09837-.21c-.05907.0418-.09455.20892-.09455.20892l-.41734,1.326a.09409.09409,0,0,1-.08975.06584H30.49155"/><path class="a2a5d88f-1eac-4351-9317-dea7b5a1f1bc" d="M49.26339,32.32524a1.64157,1.64157,0,0,1-.224-.09262c-.1414-.06362-.2792-.135-.41386-.21186a8.288,8.288,0,0,1-.77779-.51237l-.08116-.0597A14.0742,14.0742,0,0,1,46.47467,30.348a8.48929,8.48929,0,0,1-1.77379-2.3772,4.7315,4.7315,0,0,1-.57-2.44919,2.7368,2.7368,0,0,1,1.89-2.45582,2.49757,2.49757,0,0,1,1.21966-.03371,2.90891,2.90891,0,0,1,2.13391,1.68909A2.91892,2.91892,0,0,1,51.51129,23.032a2.49761,2.49761,0,0,1,1.21976.0338,2.73681,2.73681,0,0,1,1.8898,2.45575,4.7315,4.7315,0,0,1-.57,2.44919,8.48929,8.48929,0,0,1-1.77379,2.3772,13.83888,13.83888,0,0,1-1.35021,1.14362,8.44983,8.44983,0,0,1-.754.49332q-.19539.11277-.39768.213a1.97052,1.97052,0,0,1-.32875.1341A.33434.33434,0,0,1,49.26339,32.32524Z"/><path class="edcdff92-746a-49b1-9245-6a35ddffb0fe" d="M45.67121,46.73643a8.59076,8.59076,0,0,0-6.87869-8.41753,12.49836,12.49836,0,0,1-8.38518-8.06608,8.66208,8.66208,0,0,0-16.26465-.60427h0A19.95511,19.95511,0,0,0,39.21753,55.057a8.523,8.523,0,0,0,1.76158-.66771q.24248-.10562.48159-.21742l-.032-.02869A8.58241,8.58241,0,0,0,45.67121,46.73643Z"/><circle class="ac75323e-1266-47a8-9df5-3099a5064770" cx="23.36936" cy="32.55269" r="6.63883"/><path class="edcdff92-746a-49b1-9245-6a35ddffb0fe" d="M22.79962,32.40051a1.09292,1.09292,0,0,1-.76062.93121,1.38017,1.38017,0,0,1-.63769.03388.99889.99889,0,0,1-.53186-.31659c.21618-.03321.38281-.01691.55114-.05381a1.86623,1.86623,0,0,0,.46448-.11984A3.28057,3.28057,0,0,0,22.79962,32.40051Z"/><path class="edcdff92-746a-49b1-9245-6a35ddffb0fe" d="M27.46478,30.5274a.897.897,0,0,1-.40674.84711.98887.98887,0,0,1-.48791.13873.67363.67363,0,0,1-.45166-.184,1.73313,1.73313,0,0,0,.7312-.27609A3.577,3.577,0,0,0,27.46478,30.5274Z"/><path class="edcdff92-746a-49b1-9245-6a35ddffb0fe" d="M16.22669,36.593a10.51553,10.51553,0,0,0,1.38087,3.76552,7.60813,7.60813,0,0,0,3.535,2.55413,4.54481,4.54481,0,0,0,1.98728.40366,3.28929,3.28929,0,0,0,1.99577-.96943c.53368-.51311.79957-1.25707,1.33608-1.74355.302-.27376.81633-.22739,1.20085-.363a3.35961,3.35961,0,0,0,1.672-1.44889,6.82488,6.82488,0,0,0,.69843-1.299c.13592-.38853.142-.80623.23953-1.20288a13.49177,13.49177,0,0,0,.1998-3.43615c-.3236.52156-.52334,1.15311-.82884,1.69705-.33988.60517-.81461,1.17419-1.10123,1.78171a1.67249,1.67249,0,0,1-1.15255,1.08112,9.041,9.041,0,0,0-1.829.24321,6.164,6.164,0,0,1-2.18228.77585c-.78328.046-1.00088-.63223-1.71188-.769-.6616-.1273-1.37382.12829-2.00233-.19228-.83192-.42438-.92343-1.56062-1.42926-2.34562-.322-.49964-.88442-.7117-1.15216-1.2353a3.081,3.081,0,0,1-.23039-2.06782c.11758-.49613.60446-.82821.70588-1.322.10947-.53293-.11108-.98254.21824-1.52056a1.49,1.49,0,0,0,.20088-.37287.32694.32694,0,0,0-.12311-.37405.40624.40624,0,0,0-.41111.08882c-.52442.38469-.44327.81114-.61979,1.34119a10.14105,10.14105,0,0,0-.63385,1.53966c-.16567.9405.0934,1.95291-.00266,2.92128a6.69014,6.69014,0,0,0-.176,1.26353A8.44958,8.44958,0,0,0,16.22669,36.593Z"/></svg>