<svg id="e1700572-3f9c-4ec8-a27c-80811f48fc0c" data-name="Layer 1" xmlns="http://www.w3.org/2000/svg" xmlns:xlink="http://www.w3.org/1999/xlink" viewBox="0 0 69.26185 69.37384"><defs><style>.a434bd68-c5de-4e0b-b427-20826890f078,.f328f578-b041-4240-9606-85ecb4496f43{fill:none;}.e6d3a6ad-1a6f-4e36-902f-f9b2d6c8f99f{fill:#ef5b5b;stroke:#ef5b5b;stroke-miterlimit:10;stroke-width:1.33807px;}.a434bd68-c5de-4e0b-b427-20826890f078,.a6f95a5c-4e6a-45db-864c-826a9db38c1e{stroke:#fff;stroke-linejoin:round;}.a434bd68-c5de-4e0b-b427-20826890f078{stroke-linecap:round;stroke-width:1.13366px;}.a6f95a5c-4e6a-45db-864c-826a9db38c1e,.aac443fd-80d9-493b-aaef-76c0fe2aac9e{fill:#fff;}.a6f95a5c-4e6a-45db-864c-826a9db38c1e{stroke-width:0.56683px;}.e199ed24-d4b6-453d-90e4-11c2e22adcc0{clip-path:url(#e27334fa-6e1f-41f9-a960-266bcb6784c5);}.a2e04437-9c48-40e6-8c3e-8fb745a818d8{fill:#4d7582;}.b6308a78-94a7-4a1e-a243-150a000d28e0{fill:#566345;}.adf8bc64-4c4e-4b30-a76a-ade4599e3511{fill:#63774e;}.b86ae955-e7de-4d6e-b266-a234ccd268d7{fill:#6f825a;}.be4e5da6-7a94-43a1-9b8d-6135beee2dff{fill:#938c6c;}</style><clipPath id="e27334fa-6e1f-41f9-a960-266bcb6784c5"><rect class="f328f578-b041-4240-9606-85ecb4496f43" x="6.46152" y="11.16416" width="44.35003" height="40.54825"/></clipPath></defs><title>Artboard 33</title><circle class="e6d3a6ad-1a6f-4e36-902f-f9b2d6c8f99f" cx="34.63093" cy="34.63093" r="33.96189"/><path class="a434bd68-c5de-4e0b-b427-20826890f078" d="M51.65775,41.2701H43.34393a.10284.10284,0,0,1-.10142-.08583l-.77563-4.62552a.10284.10284,0,0,0-.20337.0035L41.0773,45.51784c-.01545.11661-.1829.12014-.18908.08494l-1.02753-5.85286s-.035-.28084-.10751-.2295c-.06458.04568-.10336.22836-.10336.22836l-.45618,1.44936a.10283.10283,0,0,1-.09809.072h-7.9895"/><path class="a6f95a5c-4e6a-45db-864c-826a9db38c1e" d="M51.62467,41.57514a1.79283,1.79283,0,0,1-.24491-.10123c-.15455-.06954-.30517-.14762-.45236-.23157a9.06091,9.06091,0,0,1-.85017-.56l-.08871-.06526a15.38324,15.38324,0,0,1-1.41208-1.20315,9.2795,9.2795,0,0,1-1.93884-2.59841,5.17176,5.17176,0,0,1-.623-2.6771A2.99144,2.99144,0,0,1,48.08049,31.454a2.73,2.73,0,0,1,1.33315-.03686,3.17963,3.17963,0,0,1,2.33248,1.84627,3.19055,3.19055,0,0,1,2.33562-1.84629,2.73013,2.73013,0,0,1,1.33326.037,2.99147,2.99147,0,0,1,2.06565,2.68426,5.17186,5.17186,0,0,1-.623,2.6771,9.27935,9.27935,0,0,1-1.93885,2.59841,15.12618,15.12618,0,0,1-1.47585,1.25,9.23575,9.23575,0,0,1-.8242.53923q-.21357.12327-.43468.23278a2.15385,2.15385,0,0,1-.35934.14658A.36526.36526,0,0,1,51.62467,41.57514Z"/><g class="e199ed24-d4b6-453d-90e4-11c2e22adcc0"><path class="aac443fd-80d9-493b-aaef-76c0fe2aac9e" d="M44.06266,68.44213c1.003,1.2107,2.57884,1.59529,3.65489,2.71273.81824.84987,1.88226,1.49612,1.55822-.30153.0037.02058,1.14832.40829,1.295.49744.45218.27471.805.70539,1.37584.73926a1.69344,1.69344,0,0,0,1.508-.89154,2.18821,2.18821,0,0,0-.184-2.5386c-2.408-2.59093-6.2461-3.12544-9.86136-3.553A3.49262,3.49262,0,0,0,44.06266,68.44213Z"/><path class="a2e04437-9c48-40e6-8c3e-8fb745a818d8" d="M36.47174,54.37462a25.974,25.974,0,0,0,4.17178,4.66981,41.50288,41.50288,0,0,0,4.35427,3.76721q1.17578.88226,2.41246,1.67919c.42117.2713.80918.36844.87722.85073A4.59712,4.59712,0,0,1,47.821,67.112c-.27.72726-.695,1.607-1.51211,1.78532a7.75259,7.75259,0,0,1-2.49157.13715c-.919-.126-1.80271-1.06122-2.51568-1.60922L32.71138,60.8226a7.22374,7.22374,0,0,1-1.48275-1.37921c-.74788-1.0182-.88181-2.56474-1.25642-3.76558-.52037-1.66808-.96994-3.346-1.57377-4.989a6.15381,6.15381,0,0,1-.37906-1.33415c-.30914-2.44091,1.57995-5.52792,2.42966-7.73717a23.26914,23.26914,0,0,0,.82651-3.51842c.22532-1.045.35548-2.43447,1.45734-1.39184a9.97263,9.97263,0,0,1,2.1344,3.56136c1.22167,3.72746.25488,8.30872.84648,12.13206A5.6114,5.6114,0,0,0,36.47174,54.37462Z"/><path class="aac443fd-80d9-493b-aaef-76c0fe2aac9e" d="M27.70868,17.47477a7.70167,7.70167,0,0,1,4.98538,1.95132c1.68061,1.45555,2.11448,3.8491,2.20318,5.96027.07681,1.828.2211,4.99635-.90639,6.56274-.72383,1.00557-3.31062,1.44067-4.40407,1.14569a1.18918,1.18918,0,0,0-1.1288.12683,1.17138,1.17138,0,0,0-.24636.39658,2.27772,2.27772,0,0,0,.07688,2.29032,8.20883,8.20883,0,0,1,1.06716,2.95375,1.79008,1.79008,0,0,1-.3523,1.63467,1.82863,1.82863,0,0,1-1.598.20671A10.46393,10.46393,0,0,1,23.713,39.138a3.821,3.821,0,0,1-.96921-.86665c-.91637-1.248-.52724-2.869-.17843-4.23038.93-3.62979-.6988-7.47509-.16739-11.18426.0909-.63448.24443-1.25807.39772-1.88042a4.65759,4.65759,0,0,1,.51127-1.61824,4.35742,4.35742,0,0,1,1.28752-1.03245A6.21593,6.21593,0,0,1,27.70868,17.47477Z"/><path class="a2e04437-9c48-40e6-8c3e-8fb745a818d8" d="M33.76927,19.037a7.22316,7.22316,0,0,0-2.34165-2.07476c-.25918-.1353-3.14346-1.20531-2.99459-.554a.47857.47857,0,0,0,.11855.184,1.0125,1.0125,0,0,1,.22711.56086,2.32668,2.32668,0,0,0-1.818-.90155c-.14144,1.75315-2.51359,1.51612-3.5852,2.34491a5.94681,5.94681,0,0,0-2.03171,2.86488c-.85766,2.69236.195,5.39244.9126,8.00431a3.49036,3.49036,0,0,0,.41928,1.13563.9091.9091,0,0,0,1.28179.25847c.64324-.46409-.00923.50567.62778.03335a1.36338,1.36338,0,0,0,.2721-.302c.443-.6035.86252-1.23825,1.35614-1.80147.41045-.46832.44772-.6475-.00051-1.17442a2.30589,2.30589,0,0,1-.53937-1.65163.75129.75129,0,0,1,.163-.46393c.24174-.25991.68657-.15668.98307.04094.88556.59023.90313.79534,1.259-.35414.20171-.65147,2.3021-1.41932,2.95953-1.844.83915-.54156,2.07143-.17475,2.9618-.644C35.31251,22.00666,34.43531,19.9325,33.76927,19.037Z"/><path class="a2e04437-9c48-40e6-8c3e-8fb745a818d8" d="M27.97608,34.69205a.24307.24307,0,0,1,.24074-.10512c.30869.01421.21783.44548.37721.63875.08352.10127.20606.07847.3222.14949a2.7755,2.7755,0,0,1,.87116,1.49815,18.64867,18.64867,0,0,1,.74967,3.5658q1.05551,7.77921,1.331,15.63789.10427,2.98137.09513,5.96525a26.78477,26.78477,0,0,1-9.13373.0357c-.20953-.03551-.27267-6.13307-.29844-6.73229-.09709-2.25847-.18713-4.5173-.25646-6.77682-.06929-2.25835-.11807-4.51741-.13406-6.7768q-.01212-1.712.00182-3.42408a20.7752,20.7752,0,0,1-.07986-2.53439,1.27042,1.27042,0,0,1,.10262-.48456.47692.47692,0,0,1,.38545-.18031.23183.23183,0,0,1,.09726.05589c.26381.21936.44948.51138.692.75042a3.07988,3.07988,0,0,0,.85409.57191,4.8071,4.8071,0,0,0,1.11092.37783,2.47648,2.47648,0,0,0,1.67911-.314,2.09186,2.09186,0,0,0,.901-1.49166A1.32166,1.32166,0,0,1,27.97608,34.69205Z"/><path class="a2e04437-9c48-40e6-8c3e-8fb745a818d8" d="M15.16332,35.45181a3.77889,3.77889,0,0,1,.47411-.221c.38925-.17124.79574-.29856,1.192-.452.54236-.21006,1.08846-.41234,1.64706-.57539a11.63812,11.63812,0,0,1,2.40031-.674,9.16525,9.16525,0,0,1,1.73811.09306,2.71212,2.71212,0,0,0,.29382,1.79879,30.643,30.643,0,0,0,2.17457,3.46966c.56814.94406,1.41948,1.74175,1.88619,2.72066a7.73,7.73,0,0,0,.40441,1.00945,25.67468,25.67468,0,0,0,.56863-4.54773c.03856-.40232.0652-.81353.13694-1.2087.03271-.18018.06727-.36043.0853-.54282a3.99236,3.99236,0,0,0-.00478-.52177,1.38477,1.38477,0,0,0-.101-.39927,3.56028,3.56028,0,0,1-.12057-.49.51036.51036,0,0,1,.11612-.47665.91589.91589,0,0,1,.4255-.15429,2.79838,2.79838,0,0,1,.57724-.06369,4.673,4.673,0,0,1,1.2016.23715c.64449.18363,1.20477.188,1.66935.72a16.19954,16.19954,0,0,1,2.0409,2.95571,11.05415,11.05415,0,0,1,.60037,1.19769,11.0821,11.0821,0,0,1,.59767,3.4453,3.26535,3.26535,0,0,1-.812,2.03353c-.2261.32028-.48006.62749-.67807.96668-.51834.8879-.321,2.19032-.35769,3.17934q-.07378,1.98853-.11612,3.97807-.08525,3.97316-.05554,7.94768a8.58761,8.58761,0,0,1-.35652,2.78887,3.6943,3.6943,0,0,1-.60274,1.2376c-.25692.28132-.60185.31824-.92809.51832-.38811.23821-.671.57583-1.03168.84715-1.56113,1.17433-4.99993.43908-6.81631.33234a24.92825,24.92825,0,0,1-6.54944-.94248,18.077,18.077,0,0,1,.57134-2.41521,15.0969,15.0969,0,0,0-.058-3.57647c-.15651-2.35518-.483-4.69536-.64631-7.05006-.32138-4.63437-2.54664-8.80685-2.68029-13.48791-.01545-.541-.10155-1.08528-.08871-1.63072a2.17456,2.17456,0,0,1,.69956-1.5924A4.08291,4.08291,0,0,1,15.16332,35.45181Z"/><path class="aac443fd-80d9-493b-aaef-76c0fe2aac9e" d="M13.02509,69.68478c.20276,1.60044.20713,3.20665.29507,4.79921.067,1.21111-.1737,2.47129-1.24386.98963.01226.017-.4663,1.1617-.49947,1.33549a3.35769,3.35769,0,0,1-.38006,1.56339,1.6132,1.6132,0,0,1-1.63217.54644,2.15438,2.15438,0,0,1-1.69182-1.88232c-.2613-3.62578,1.89021-6.9393,3.971-10.00834C12.99528,67.54349,12.88291,68.56248,13.02509,69.68478Z"/><path class="a2e04437-9c48-40e6-8c3e-8fb745a818d8" d="M12.28333,42.67977a43.95623,43.95623,0,0,0-.51639,9.998c.03937.61354.16286,1.33575.71769,1.6006a1.7854,1.7854,0,0,0,.88122.0954l1.35783-.08206c2.01617-.12186,1.88992-2.07938,2.22276-3.66271.45047-2.14294.8259-4.30223,1.369-6.42483a26.84213,26.84213,0,0,0,1.18622-4.92193c.08117-1.5222.14579-3.6844-2.08354-3.98881-2.64089-.36059-3.86617,1.62189-4.42122,3.89833Q12.57427,40.92525,12.28333,42.67977Z"/><path class="b6308a78-94a7-4a1e-a243-150a000d28e0" d="M22.16743,67.31951c.23173.30091-.00812,1.72175-.00966,2.08634-.00615,1.45751.00647,2.91623.07681,4.37213a11.65629,11.65629,0,0,0,.54611,4.0821c.50425,1.13347,1.5274,1.18559,2.15053,2.05652.75142,1.05022.63,3.64225.80542,4.93587a85.74776,85.74776,0,0,1,.72689,10.27321c.14365,8.2633.29368,16.53551.45876,24.76735,1.00864.989,1.82776.54188,3.04608.56659.38251.00776,4.60076.20749,4.5377-.35857-.44223-3.9698-.01736-7.79164.1111-11.7503q.20318-6.26115.11227-12.527-.09943-6.54921-.52667-13.08594c-.28-4.27606-1.0002-8.61087-.92288-12.88916q.0129-.71337.00782-1.42692a1.56283,1.56283,0,0,0-.22658-.975,1.17334,1.17334,0,0,0-.95034-.33836,20.61014,20.61014,0,0,0-3.17737.5379C26.69821,67.99948,24.39541,67.539,22.16743,67.31951Z"/><path class="adf8bc64-4c4e-4b30-a76a-ade4599e3511" d="M19.98872,64.85035c-3.28266-2.96439-3.30972,3.55077-3.59493,5.59647-.497,3.565-.75025,7.15994-.90018,10.75482-.07731,1.85354-.12711,3.71032-.04048,5.56345.30126,6.44449.36105,12.78229.57382,19.228.08328,2.52264.191,5.04432.30778,7.56549q.08528,1.84038.1757,3.6805c.03055.62845-.22195,2.84495.2524,3.27357a.83513.83513,0,0,0,.454.16258,24.62373,24.62373,0,0,0,5.61447.14963,1.28545,1.28545,0,0,0,.80473-.25221,1.40675,1.40675,0,0,0,.30913-.97017c.62529-10.49667,1.12074-20.86172,1.35041-31.36194.03351-1.53215.1276-3.0604.18633-4.59145.03255-.849-.15806-2.17973.46977-2.87528.67573-.7486,2.06711-.78591,2.84349-1.59,1.27185-1.3172,1.58376-3.37847,2.31351-4.997a38.93412,38.93412,0,0,0,2.196-6.23793,1.70534,1.70534,0,0,0-.27189-1.53051,2.1618,2.1618,0,0,0-.38122-.33917l-.82481-.62461c-1.26063-.00281-2.57569-.15441-3.83632-.15722a51.22433,51.22433,0,0,1-7.97928-.43379"/><path class="b86ae955-e7de-4d6e-b266-a234ccd268d7" d="M27.60782,68.80777a62.63788,62.63788,0,0,1-.66517,7.82415,23.38849,23.38849,0,0,0,1.87676-7.97675,1.16933,1.16933,0,0,0-.01734-.51.7174.7174,0,0,0-1.03137-.30043,1.09216,1.09216,0,0,0-.42788,1.08545"/><path class="be4e5da6-7a94-43a1-9b8d-6135beee2dff" d="M17.6733,63.55761a5.91247,5.91247,0,0,0-.4286,1.844c.0634.50385.625.67835,1.0085.87a19.781,19.781,0,0,0,4.64441,1.39455,32.625,32.625,0,0,0,6.14558.7157,15.09326,15.09326,0,0,0,2.13742-.0251c.55777-.06808,2.029-.39551,2.22015-1.01713a1.18746,1.18746,0,0,0-.00523-.55983c-.13069-.7153-.19366-1.42965-.27989-2.14528a5.89473,5.89473,0,0,0-1.45095.32483c-.59059.10861-1.17959.326-1.777.38029a15.34131,15.34131,0,0,1-2.38645.009,28.51585,28.51585,0,0,1-7.3223-1.72952c-.54551-.18576-1.09209-.37117-1.62381-.59415-.16812-.0705-.49747-.31088-.6723-.21524-.14265.078-.14969.49418-.18071.6318Q17.68944,63.49785,17.6733,63.55761Z"/></g></svg>