<svg id="a5c5e889-c239-4d4b-b66a-6c51d7322137" data-name="Layer 1" xmlns="http://www.w3.org/2000/svg" viewBox="0 0 69.2613 69.2613"><defs><style>.b3a65f61-4d88-4e9d-8397-d8815fd5dd72{fill:#eeb95b;stroke:#eeb95b;stroke-miterlimit:10;stroke-width:1.33806px;}.baa62c90-d5da-4791-9da3-d48c69713929{fill:#fff;}.bdd89dba-e035-4a15-9ab9-626f33a9c27b{fill:#4d7582;}</style></defs><title>Artboard 35</title><circle class="b3a65f61-4d88-4e9d-8397-d8815fd5dd72" cx="34.63065" cy="34.63065" r="33.96162"/><rect class="baa62c90-d5da-4791-9da3-d48c69713929" x="21.90403" y="39.5126" width="20.53632" height="11.92162"/><polygon class="bdd89dba-e035-4a15-9ab9-626f33a9c27b" points="47.201 34.614 42.44 39.513 42.44 51.434 47.201 46.536 47.201 34.614"/><polygon class="baa62c90-d5da-4791-9da3-d48c69713929" points="26.665 34.614 47.201 34.614 42.44 39.513 21.904 39.513 26.665 34.614"/><path class="bdd89dba-e035-4a15-9ab9-626f33a9c27b" d="M41.10179,37.729H26.14094c-.28317,0-.06086-.298.49656-.66561h0a3.96762,3.96762,0,0,1,1.522-.66561H43.12036c.28317,0,.06086.298-.49655.66561h0A3.96762,3.96762,0,0,1,41.10179,37.729Z"/><path class="baa62c90-d5da-4791-9da3-d48c69713929" d="M39.60438,37.0634a2.63833,2.63833,0,0,1-2.47017-2.15215c2.16547-1.27421,5.08264-1.83986,6.10512-4.13493a20.9356,20.9356,0,0,0,.634-2.268,20.36691,20.36691,0,0,1,1.05087-2.32159c1.36106-2.95535,1.47154-6.31149,1.5589-9.564a13.63435,13.63435,0,0,1-9.90616,1.44558c.33222,3.26931-2.34427,6.09017-5.19,7.73343-.88714.51227-1.9149,1.0983-2.08853,2.10789-.23475,1.3649,1.26345,2.5019,1.2545,3.88681a3.81639,3.81639,0,0,1-.76319,1.91731,3.5681,3.5681,0,0,0-.72446,1.92817A1.48593,1.48593,0,0,0,30.396,37.0634Z"/></svg>