<?xml version="1.0" encoding="utf-8"?>
<!-- Generator: Adobe Illustrator 23.0.0, SVG Export Plug-In . SVG Version: 6.00 Build 0)  -->
<svg version="1.1" xmlns="http://www.w3.org/2000/svg" xmlns:xlink="http://www.w3.org/1999/xlink" x="0px" y="0px"
	 viewBox="0 0 1552.7 2182.86" style="enable-background:new 0 0 1552.7 2182.86;" xml:space="preserve">
<style type="text/css">
	.st0{fill:#EC2A2B;}
	.st1{fill-rule:evenodd;clip-rule:evenodd;fill:#FFFFFF;}
	.st2{fill-rule:evenodd;clip-rule:evenodd;fill:#1F2A1B;}
	.st3{fill-rule:evenodd;clip-rule:evenodd;fill:#EC2A2B;}
</style>
<g id="Layer_2">
</g>
<g id="Layer_1">
	<g>
		<path class="st0" d="M2.6,5.42h1547.03l3.08,993.06c-10.93,401.67-321.97,944.67-780.05,1184.38
			C309.42,1952.12,3.39,1383.21,3.39,1017.61L2.6,5.42z"/>
		<g>
			<path class="st1" d="M787.76,1293.13c6.12,4.94,15,3.57,21.98,3.71c124.31,2.6,254.86,4.64,379.74,4.64
				c0-223.3,0-464.98,0-694.05c0-6.23,2.19-22.79-6.16-17.63c-1.26,0.52-2.14,1.45-2.64,2.78c-0.59,232.59,1.17,467.65-0.88,698.69
				C1050.2,1294.67,909.17,1289.43,787.76,1293.13z"/>
			<path class="st1" d="M774.58,349.48c1.46-79.8,1.47-166.08,0-245.89c-0.59,0-1.17,0-1.76,0c-21.64,26.7-38.74,60.7-45.71,103.92
				c-6.68,41.43-3,90.57-2.64,141.97C739.18,351.05,759.85,350.99,774.58,349.48z"/>
			<path class="st1" d="M847.53,349.48c0-39.8,3.4-84.43,0.88-123.41c-3.33-51.46-26.28-92.34-48.35-122.48c-0.88,0-1.76,0-2.64,0
				c-0.78,72.14-2.7,172.31,0.88,245.89C812.7,351.02,833.14,351.02,847.53,349.48z"/>
			<path class="st1" d="M798.31,451.55c-3.37,34.08-1.74,88.7-0.88,124.34c15.4-7.24,33.4-11.76,50.98-16.7
				c0.44-28.41-0.08-75.75,0-106.7C836.01,450.04,811.9,452.22,798.31,451.55z"/>
			<path class="st1" d="M809.74,1304.26c-4.36,0.01-21.98-2.72-21.98,4.65c0,6.79,17,5.44,21.98,5.57
				c133.66,3.38,273.26,6.35,399.07,8.35c0.36-199.37,1.95-458.58,0.88-672.71c-0.05-9.46,4.91-48-9.67-40.83
				c-1.26,0.52-2.15,1.45-2.64,2.79c-0.59,232.59,1.17,467.64-0.88,698.69C1068.81,1310.93,937.26,1304.26,809.74,1304.26z"/>
			<path class="st1" d="M1171.01,565.68c-92.14,1.79-200.87-5.55-293.59-0.93c-36.52,1.82-76.66,8.44-88.78,38.97
				c-1.46,224.22-1.46,454.97,0,679.2c125.99,1.55,258.14,1.55,384.13,0C1171.6,1047.61,1175.1,800.02,1171.01,565.68z"/>
			<path class="st1" d="M477.47,322.57c-28.22,2.59-23.93,37.6,0.88,37.11C479.36,349.57,480.77,331.2,477.47,322.57z"/>
			<path class="st1" d="M265.62,441.34c11.28,18.57,42.35,15.47,56.26,0.93c5.8-6.06,5.64-13.75,11.43-18.56
				c24.68-6.42,53.21-8.78,75.6-17.63c-41.92-1.21-81.97-4.4-119.55-10.21c2.96,7.87,8.66,12.39,8.79,21.34
				C298.39,433.38,284.08,446.17,265.62,441.34z"/>
			<path class="st1" d="M859.84,1917.59c-2.8-38.45-24.7-65.08-39.56-86.29c5.83-3.13,13.32-4.49,20.22-6.5
				c1.11-11.23,1.93-30.45,0-38.97c-8.24,0.7-15.86,3.35-23.74,5.57c-7.68,2.16-23.73,6.49-23.73,6.49s-10.19-11.69-13.19-15.78
				c-4.64-6.33-10.55-16.7-10.55-16.7s50.08-12.71,72.08-22.27c-0.36-12.29,0.51-27.68,0-37.11c-31.97,4.94-63.52,18.3-96.69,25.04
				c-15.46-19.55-24.12-46.29-30.76-75.15c-24.2-11.89-49.97-22.09-76.48-31.55c-0.4,1.27-1.09,1.75-0.88,3.71
				c8.53,79.96,42.82,134.94,86.15,173.51c3.54,3.16,11.81,6.02,13.19,11.14c2.93,10.89-4.78,30.92,0,40.83
				c15.35-2.35,27.97-7.59,42.19-11.14c10.91,8.89,21.23,18.41,28.13,31.55c-22.65,7.64-46.85,13.64-70.32,20.41
				c-1.39,10.96-1.5,28.03,0,38.97c31.94-6.17,59.55-16.93,90.54-24.12c6.74,8.39,11.38,23.81,12.3,35.26
				c-32.55,11.42-67.98,19.78-101.97,29.69c-2.51,1.99-0.7,8.54-3.52,10.21c-4.86,1.2-14.07-1.89-18.46,1.85
				c0.17,7.37-1.08,23.64,0.88,29.7c45.42,1.54,96.98,1.55,142.4,0c3.34-6.69,1.12-19.23,1.76-28.77c-1.47-3.4-8.03-1.43-9.67-4.64
				C856.74,1963.23,861.72,1943.41,859.84,1917.59z"/>
			<path class="st1" d="M524.93,339.28c-1.47-13.41-17.82-17.73-33.4-18.56c-5.25,8.12-2.27,29.7-1.76,40.83
				C506.41,363.16,526.66,355.04,524.93,339.28z"/>
			<path class="st1" d="M445.82,344.84c-4.49-1.67-14.37,0.31-21.98,0.93c-21.57,1.76-48.42,3.8-64.17,7.42
				c18.74,25.99,50.76,37.97,84.39,48.25c-16.35,20.17-43.21,29.24-64.17,44.54c34.28,10.72,74.35,18.96,119.55,16.7
				c30.7-1.53,60.32-9.18,85.27-16.7c9.23-2.78,18.34-7.22,26.37-8.35c16.3-2.3,35.97,0,55.38,0c36.35,0,75.85,0,110.76,0
				c30.51,0,61.21-3.3,76.47,10.21c23.13,20.46,29.81,66.14,25.49,108.56c26.8-0.51,63.19,1.15,91.42-0.93
				c0.98-92.07-13.36-174.36-93.17-180.01c-41.27-2.92-88.83,0.03-138.89-1.86c-33.03-1.24-68.23-2.11-100.21-5.57
				c-11.21-1.21-23.85-1.06-31.64-3.71c-4.35-1.48-9.56-6.41-14.06-9.28c-14.83-9.43-32.51-18.35-53.62-20.41
				c-1.27,0.52-2.15,1.45-2.64,2.78c-3.24,33.89-56.77,44.93-79.99,22.27C452.73,355.9,451.28,346.87,445.82,344.84z"/>
			<path class="st1" d="M779.85,609.29c-8.2-34.5-52.13-42.56-92.3-44.54c-98.57-4.84-197.52,3.64-293.59,0
				c-1.11,0.38-1.8,1.2-1.76,2.78c-0.01,234.32,0.01,481.12,0,715.39c127.17,1.55,260.48,1.55,387.65,0
				c1.6-187.15,0.88-394.32,0.88-589.2C780.73,666.46,785.02,631.02,779.85,609.29z"/>
			<path class="st1" d="M846.65,1577.98c-8.9-0.87-21.22,3.04-32.53,4.64c-22.22,3.16-41.12,1.91-61.53-0.93
				c-9.6-1.34-20.1-4.52-27.25-3.71c-12.91,1.46-28.66,15.89-37.8,18.56c63.35,0.94,134.98,2.75,196.02-0.93
				C872.38,1592.93,860.62,1579.36,846.65,1577.98z"/>
			<path class="st1" d="M847.53,1562.21c1.41-72.96,2.86-154.51,0.88-222.69c-15.24-1.54-32.4-1.06-48.35-1.86
				c-1.04,0.45-1.99,0.99-2.64,1.86c-1.47,71.76-1.46,150,0,221.76C812.39,1563.43,831.11,1561.61,847.53,1562.21z"/>
			<path class="st1" d="M351.77,1322.82c132-3.67,272.25-3.03,406.99-8.35c5.63-0.22,23.33,1.23,21.98-6.5
				c-1.03-5.84-16.24-3.72-22.86-3.72c-27.23,0.01-54.95-0.23-79.11,0.93c-104.21,5-213.31,3.26-314.69,4.64
				c0-214.08,0-441.97,0-659.72c0-11.5,5.29-49.48-10.55-40.83c-1.27,0.52-2.15,1.45-2.64,2.79
				C351.47,848.69,349.72,1087.76,351.77,1322.82z"/>
			<path class="st1" d="M908.18,1341.38c-15.59-1.49-32.15-1.94-49.22-1.86c-3.18,20.76-1.76,51.88-1.76,77.94
				c0,25.49,0,50.94,0,75.15c9.21-6.44,15.36-18.26,21.1-28.76C896.13,1431.21,908.99,1389.99,908.18,1341.38z"/>
			<path class="st1" d="M1229.03,1342.31c2.85-231.68,2.97-475.4,0-706.11c-3.22,0-6.45,0-9.67,0c-1.27,0.52-2.15,1.45-2.64,2.78
				c-0.59,230.42,1.17,463.32-0.88,692.2c-130.72-3.66-272.79-3.69-405.23-9.28c-9.23-0.38-20.85-2.78-22.85,3.72
				c5.85,6.58,16.29,4.55,23.73,4.64C950.2,1331.78,1091.88,1342.99,1229.03,1342.31z"/>
			<path class="st1" d="M842.26,1657.78c-5.01-6.27-14.73-3.72-22.85-3.72c-26.7,0-55.72,0-80.87,0c-1.04,0.45-1.99,0.99-2.63,1.86
				c-1.46,10.28-1.46,26.84,0,37.11c25.62-4.81,55.7-15.28,82.63-22.27C826.75,1668.64,840.03,1668.41,842.26,1657.78z"/>
			<path class="st1" d="M882.69,1622.52c-60.22,0.01-136-0.07-193.38,0c2.24,5.53,10.02,6.02,16.7,9.28
				c6.2,3.03,12.33,8.51,19.34,9.28c16.77,1.84,39.26-7.48,61.53-7.42c9.18,0.02,20.29,2.44,30.77,3.72
				c11.25,1.37,22.67,4.76,29.89,3.71c5.65-0.83,12.66-5.61,18.46-8.35C872.54,1629.64,880.42,1627.71,882.69,1622.52z"/>
			<path class="st1" d="M774.58,452.48c-16.29-1.09-37.72-2.47-50.1,0c-2.05,34.03-0.3,72.06-0.88,107.63
				c8.86,3.91,19.03,5.79,28.13,9.28c9.4,3.6,16.36,9.51,23.73,12.07C774.87,538.77,776.62,493.62,774.58,452.48z"/>
			<path class="st1" d="M712.16,1487.06c-37.45,19.85-67.5,55.56-73.84,111.35c28.14-11.12,51.1-27.71,75.6-42.69
				C712.76,1533.43,716.25,1506.24,712.16,1487.06z"/>
			<path class="st1" d="M371.98,1301.48c135.23,0.47,274.82-2.49,408.74-6.49c-5.4-6.41-15.21-3.71-21.98-3.71
				c-8.57,0-17.2-0.16-25.49,0c-100.91,1.99-238.7,1.96-348.97-0.93c0-214.36,0-442.79,0-660.65c0-9.32,5.37-46.48-9.67-39.89
				c-1.27,0.52-2.15,1.45-2.64,2.78C371.99,828.26,371.98,1068.89,371.98,1301.48z"/>
			<path class="st1" d="M756.12,1330.24c8.3-0.09,21.89,2.09,24.61-5.57c-6.37-5.46-15.94-3.1-23.73-2.79
				c-136.57,5.4-279.12,5.76-412.26,9.28c-1.6-206.77-0.88-440.73-0.88-655.08c0-9.69,4.69-52.8-11.43-38.04
				c0.58,231.04-1.17,472.6,0.88,705.18C470.69,1342.09,617.65,1331.77,756.12,1330.24z"/>
			<path class="st1" d="M774.58,1561.28c1.46-72.07,1.46-150.62,0-222.69c-14.84-1.39-34.51,0.04-50.1,0.93
				c-2.05,72.07-0.3,148.15-0.88,221.76C738.57,1562.82,759.6,1562.82,774.58,1561.28z"/>
		</g>
		<path class="st2" d="M1416.14,69.59c25.92,13.84,43.92,58.02,40.49,97.92c-2.48,28.86-17.95,51.83-33.9,66.85
			c-18.61-13.25-33.96-37.98-38.6-64.96C1377.45,130.54,1393.62,89.79,1416.14,69.59z"/>
		<path class="st2" d="M1339.87,255.07c41.16,6.24,67.4,35.54,83.8,69.67c5.91-7.18,7.18-16.04,11.3-23.54
			c14.26-25.96,37.18-40.39,65.91-53.67c9.61-4.44,12.37,37.43,11.3,49.9c-2.35,27.39-16.87,54.25-35.78,71.56
			c-19.47,17.83-46.93,33.34-74.38,21.65C1357.13,371.55,1320.64,317.4,1339.87,255.07z"/>
		<path class="st2" d="M1508.41,401.01c8.43,14.41,10.26,32.39,8.48,50.84c-3.41,35.26-27.1,67.94-54.61,83.8
			c-9.44,5.44-23.35,12.45-32.01,13.18c-17.53,1.48-41.87-14.88-55.55-27.3c-26.1-23.71-46-67.48-30.13-112.98
			c43.42,7.43,66.18,35.5,83.8,68.73c5.5-7.17,7.71-16.08,12.24-23.54c4.49-7.39,10.08-13.43,14.12-20.71
			C1470.28,420,1485.21,406.37,1508.41,401.01z"/>
		<path class="st2" d="M1349.29,581.78c44.27,7.2,67,35.94,84.73,69.67c8.19-18.14,16.47-33.16,29.19-46.13
			c13.9-14.18,27.31-21.26,45.19-29.19c0.76-0.33,1.93-2.58,3.77-1.88c9.56,3.61,12.05,33.4,10.36,49.9
			c-2.63,25.65-16.54,55.31-38.6,74.38c-11.59,10.02-34.42,24.32-50.84,24.48c-14.35,0.14-39.96-15.13-49.9-23.54
			C1357.04,677.36,1333.6,630.36,1349.29,581.78z"/>
		<path class="st2" d="M1354.94,748.43c43.34,7.81,66.79,35.52,83.79,69.67c6.07-3.8,5.04-10.72,7.53-16.01
			c13.34-28.31,41.82-53.5,71.56-60.25c0.63,0,1.26,0,1.88,0c25.72,57.37-13.38,120.81-56.49,140.29
			c-22.11,9.99-35.73,7.68-57.44-4.7C1368.4,856.09,1336.17,805.49,1354.94,748.43z"/>
		<path class="st2" d="M1434.97,1012.06c8.49-12.25,15.48-24.41,25.42-34.83c15.37-16.11,34.61-29.66,64.02-32.95
			c13.93,56.72-15.6,101.47-51.78,123.34c-12.35,7.46-34.37,15.58-45.19,15.06c-11.58-0.55-30.72-13.88-39.55-21.66
			c-28.79-25.35-51.59-77.66-30.13-125.22c-0.04-1.61,0.7-2.44,1.88-2.82C1399.16,944.93,1421.61,973.95,1434.97,1012.06z"/>
		<path class="st2" d="M1326.69,1084.56c35.3,15.86,55.45,46.86,61.2,92.28c11.95-10.5,19.29-23.18,32.95-32.95
			c16.23-11.62,36.25-22.74,66.85-21.66c4.95,66.92-39.76,116.6-99.8,122.4c-29.79,2.88-45.88-16.14-59.32-36.72
			C1306.13,1173.52,1299.84,1120.78,1326.69,1084.56z"/>
		<path class="st2" d="M1279.62,1243.68c30.8,18.47,50.66,47.89,52.72,95.09c13.77-10.97,25.48-24.19,42.37-32.95
			c16.4-8.5,36.12-13.97,61.2-11.29c0.28,57.03-40.31,106.07-97.92,111.09c-10.24,0.9-19.45-0.66-30.13,0
			c-28.8-15.36-55.08-59.38-51.78-105.45C1257.44,1281.12,1266.87,1255.21,1279.62,1243.68z"/>
		<path class="st2" d="M1226.89,1381.14c26.49,18.55,43.04,56.54,35.78,102.62c8.64,0.49,12.98-8.55,20.71-13.18
			c22.06-13.2,58.09-21.73,90.39-11.29c-11.25,55.11-57.28,97.15-122.4,91.33c-6.41-0.58-16.89-1.48-23.54-4.71
			c-11.15-5.42-21.85-24.14-27.31-36.72C1179.42,1460.51,1196.28,1405.78,1226.89,1381.14z"/>
		<path class="st2" d="M1142.16,1526.13c25.72,20.19,41.25,55.28,35.78,103.57c18.36-12.53,42.09-27.56,71.56-30.13
			c12.7-1.11,26.71,0.86,38.6,4.71c-10.63,53.54-56.95,96.25-118.63,91.33c-8.11-0.65-17.62-2.24-25.42-5.66
			c-22.08-9.67-41.45-52.77-38.6-90.38C1107.71,1569.59,1124.37,1538.62,1142.16,1526.13z"/>
		<path class="st2" d="M1047.06,1665.48c26.57,18.56,39.97,64.16,33.89,103.57c7.24-0.01,11.9-7.19,18.83-11.29
			c23.16-13.72,61.92-21.26,91.33-9.41c-10.84,60.72-76.83,104.93-146.88,81.91c-22.05-17.42-36.07-48.37-35.77-81.91
			C1008.77,1712.58,1025.92,1682.66,1047.06,1665.48z"/>
		<path class="st2" d="M947.17,1793.71c0.31,0.04,0.63-0.05,0.94,0c13.14,1.95,23.36,45.25,21.65,67.8
			c-1.14,15.06-6.59,30.07-9.41,40.49c16.93-5.8,42.45-14.51,68.73-12.25c17.19,1.48,32.61,7.91,43.31,15.07
			c-17.07,45.6-78.88,80.64-139.35,59.32c-7.39-2.6-18.54-6.47-23.54-11.3c-9.96-9.61-16.67-33.2-17.89-49.9
			c-3.15-43.32,16.19-78.31,37.66-96.97C934.99,1800.99,942.17,1798.21,947.17,1793.71z"/>
		<path class="st2" d="M146.04,83.25c-25.92,13.84-43.92,58.02-40.49,97.92c2.48,28.86,17.95,51.83,33.9,66.85
			c18.61-13.25,33.96-37.98,38.6-64.97C184.73,144.19,168.56,103.45,146.04,83.25z"/>
		<path class="st2" d="M222.31,268.73c-41.16,6.24-67.4,35.54-83.8,69.67c-5.91-7.18-7.18-16.04-11.3-23.54
			c-14.26-25.96-37.18-40.38-65.91-53.67c-9.61-4.44-12.37,37.43-11.3,49.9c2.35,27.39,16.87,54.25,35.77,71.56
			c19.47,17.83,46.93,33.34,74.38,21.65C205.05,385.21,241.54,331.05,222.31,268.73z"/>
		<path class="st2" d="M53.77,414.67c-8.43,14.41-10.26,32.39-8.48,50.84c3.41,35.26,27.1,67.94,54.61,83.8
			c9.44,5.44,23.35,12.45,32.01,13.18c17.53,1.48,41.87-14.88,55.55-27.31c26.1-23.71,46-67.48,30.13-112.99
			c-43.41,7.43-66.18,35.5-83.8,68.73c-5.51-7.17-7.72-16.09-12.24-23.54c-4.49-7.39-10.09-13.44-14.12-20.71
			C91.9,433.66,76.97,420.03,53.77,414.67z"/>
		<path class="st2" d="M212.89,595.44c-44.27,7.2-67,35.94-84.74,69.67c-8.19-18.14-16.47-33.16-29.19-46.13
			c-13.9-14.18-27.32-21.25-45.19-29.19c-0.76-0.33-1.93-2.58-3.77-1.88c-9.56,3.61-12.05,33.4-10.36,49.9
			c2.63,25.65,16.54,55.31,38.6,74.38c11.59,10.02,34.42,24.32,50.85,24.48c14.35,0.14,39.95-15.13,49.9-23.54
			C205.14,691.02,228.58,644.02,212.89,595.44z"/>
		<path class="st2" d="M207.24,762.09c-43.35,7.81-66.79,35.52-83.8,69.67c-6.07-3.8-5.04-10.72-7.53-16.01
			c-13.34-28.31-41.82-53.5-71.56-60.26c-0.63,0-1.26,0-1.88,0c-25.72,57.37,13.38,120.81,56.49,140.29
			c22.11,9.99,35.73,7.68,57.43-4.7C193.78,869.75,226.01,819.14,207.24,762.09z"/>
		<path class="st2" d="M127.21,1025.72c-8.49-12.26-15.48-24.42-25.42-34.83c-15.38-16.12-34.61-29.66-64.02-32.96
			c-13.93,56.72,15.6,101.47,51.78,123.34c12.35,7.46,34.37,15.58,45.19,15.06c11.58-0.56,30.71-13.88,39.54-21.66
			c28.79-25.35,51.59-77.67,30.13-125.22c0.04-1.61-0.7-2.44-1.88-2.82C163.02,958.59,140.57,987.61,127.21,1025.72z"/>
		<path class="st2" d="M235.48,1098.22c-35.3,15.86-55.45,46.86-61.2,92.27c-11.95-10.5-19.29-23.18-32.96-32.95
			c-16.23-11.61-36.25-22.74-66.85-21.66c-4.95,66.92,39.76,116.59,99.8,122.4c29.79,2.88,45.88-16.14,59.32-36.72
			C256.05,1187.18,262.34,1134.44,235.48,1098.22z"/>
		<path class="st2" d="M282.56,1257.34c-30.8,18.47-50.66,47.89-52.72,95.09c-13.77-10.97-25.48-24.19-42.37-32.95
			c-16.4-8.5-36.12-13.97-61.2-11.29c-0.28,57.03,40.31,106.08,97.92,111.1c10.24,0.9,19.45-0.66,30.13,0
			c28.8-15.36,55.08-59.38,51.78-105.45C304.73,1294.78,295.31,1268.87,282.56,1257.34z"/>
		<path class="st2" d="M335.29,1394.8c-26.49,18.55-43.04,56.54-35.78,102.62c-8.64,0.48-12.98-8.55-20.71-13.18
			c-22.06-13.2-58.09-21.73-90.39-11.3c11.25,55.11,57.28,97.16,122.4,91.33c6.41-0.58,16.89-1.48,23.54-4.71
			c11.15-5.42,21.84-24.14,27.3-36.72C382.76,1474.17,365.89,1419.44,335.29,1394.8z"/>
		<path class="st2" d="M420.02,1539.79c-25.72,20.19-41.25,55.28-35.78,103.57c-18.36-12.54-42.09-27.56-71.56-30.13
			c-12.7-1.11-26.71,0.86-38.6,4.71c10.63,53.54,56.95,96.25,118.63,91.33c8.11-0.65,17.62-2.24,25.42-5.65
			c22.08-9.67,41.45-52.77,38.6-90.38C454.47,1583.25,437.81,1552.27,420.02,1539.79z"/>
		<path class="st2" d="M515.12,1679.14c-26.57,18.56-39.97,64.16-33.89,103.57c-7.24-0.01-11.9-7.19-18.83-11.29
			c-23.16-13.72-61.91-21.26-91.33-9.42c10.84,60.72,76.83,104.93,146.88,81.91c22.05-17.42,36.07-48.37,35.78-81.91
			C553.41,1726.24,536.26,1696.32,515.12,1679.14z"/>
		<path class="st2" d="M615.01,1807.37c-0.31,0.04-0.63-0.05-0.94,0c-13.14,1.95-23.36,45.25-21.65,67.8
			c1.14,15.06,6.59,30.07,9.41,40.49c-16.93-5.8-42.46-14.5-68.73-12.25c-17.19,1.48-32.61,7.91-43.31,15.07
			c17.07,45.6,78.88,80.64,139.35,59.32c7.39-2.6,18.54-6.47,23.54-11.3c9.96-9.61,16.67-33.2,17.89-49.9
			c3.15-43.32-16.19-78.31-37.66-96.97C627.19,1814.65,620.01,1811.86,615.01,1807.37z"/>
		<g>
			<path class="st3" d="M527.02,616.42c-1.19,5.88-10.83,3.76-16.48,4.72c-5.6,0.95-12.3,5.09-13.01-1.89
				C501.21,612.84,523.42,608,527.02,616.42z"/>
			<path class="st3" d="M1073.37,618.3c-0.67,0.84-0.93,2.13-0.87,3.78c-6.01,1.34-21.9-0.76-28.62-4.72
				C1046.16,606.96,1068.74,613.53,1073.37,618.3z"/>
			<path class="st3" d="M477.59,619.25c-3.94,7.55-16.52,2.47-25.15,1.89c-4.99-0.34-11.17,2.78-12.14-2.83
				c2.9-10.18,17.23-3.63,26.02-2.83C470.8,615.88,478.47,611.72,477.59,619.25z"/>
			<path class="st3" d="M571.25,622.08c-8.81-1.39-16.53,0.12-21.68-3.78C549.51,607.96,577.4,611.08,571.25,622.08z"/>
			<path class="st3" d="M1021.34,615.47c-1.9,9.11-12.88,4.05-21.68,6.61C994.46,611.02,1016.96,610.05,1021.34,615.47z"/>
			<path class="st3" d="M1130.61,617.36c0.33,6.46-6.54,3.38-11.28,3.77c-8.84,0.73-23.29,6.07-26.01-2.83
				c0.14-6.4,5.59-2.37,9.54-2.83C1112.06,614.4,1125.98,608.65,1130.61,617.36z"/>
			<path class="st3" d="M622.41,622.08c-4.41,7.73-19.01-1.83-27.75,0.94c0.36-2.27-1.58-2.05-0.87-4.72
				C600.72,612.4,618.72,613.75,622.41,622.08z"/>
			<path class="st3" d="M742.96,624.92c-0.84,0.02-0.67,1.15-0.87,1.89c-4.02,3.54-7.25-1.61-12.14-2.83
				c-8.04-2.01-19.49,1.88-24.28-4.72c0.12-1.76,0.57-3.15,1.73-3.78C719.7,614.41,738.93,613.84,742.96,624.92z"/>
			<path class="st3" d="M865.24,616.42c2.01,10.16-14.13,5.5-22.55,7.55c-5.42,1.32-11.59,7.27-13.87,0.94
				C832.51,613.95,854.32,613.3,865.24,616.42z"/>
			<path class="st3" d="M977.11,618.3c0.72,2.67-1.22,2.45-0.87,4.72c-8.64-0.85-19.26,2.44-26.89,1.89
				c0.14-1.1-0.19-1.68-0.87-1.89C950.99,613.32,970.44,612.52,977.11,618.3z"/>
			<path class="st3" d="M690.93,619.25c-1.56,8.2-14.06,6.98-22.55,6.61c-9.71-0.42-22.01-0.78-26.02-5.66
				c-0.37-1.97,0.59-2.5,0.87-3.77c0.7-0.18,0.86-0.95,1.73-0.95c9.47-0.69,19.59,2.92,28.62,2.83
				C679.83,618.24,686.79,613.56,690.93,619.25z"/>
			<path class="st3" d="M928.54,618.3c-1.42,7.54-15.17,6.98-24.28,7.55c-8.94,0.57-20.99,1.09-23.42-5.66
				c2.08-7.53,9.84-2.06,15.61-1.89C907.33,618.64,921.16,611.76,928.54,618.3z"/>
			<path class="st3" d="M477.59,641.9c-7.29,9.29-25.19-0.22-36.42,1.89c0.14-1.1-0.19-1.67-0.87-1.89
				c1.75-11.32,17.04-4.5,26.02-3.78C470.99,638.5,478.42,634.49,477.59,641.9z"/>
			<path class="st3" d="M527.02,636.24c2.3,9.61-9.41,6.77-15.61,7.55c-6.27,0.79-13.52,5.24-13.88-1.89
				C501.89,634.62,517.18,634.43,527.02,636.24z"/>
			<path class="st3" d="M571.25,644.73c-4.87,0.39-14.26-1.11-20.81-1.89c0.14-1.1-0.19-1.68-0.87-1.89
				C549.75,630.71,577.13,633.79,571.25,644.73z"/>
			<path class="st3" d="M1021.34,638.13c-0.55,8.62-19.75,7.39-22.55,4.72C996.3,634.94,1016.69,632.36,1021.34,638.13z"/>
			<path class="st3" d="M1073.37,640.96c-2.22,10.35-19.74,0.78-28.62,0.94C1042.56,629.44,1069.9,636.01,1073.37,640.96z"/>
			<path class="st3" d="M1130.61,641.9c-1.65,5.09-6.5,1.53-11.28,1.89c-8.61,0.64-21.63,5.78-26.01-1.89
				c-0.67-7.16,6.67-3.38,11.27-3.78C1113.67,637.35,1128.8,630.75,1130.61,641.9z"/>
			<path class="st3" d="M622.41,644.73c0.41,2.96-2.33,2.5-2.6,4.72c-6.72-4.45-16.94-2.95-25.15-3.77
				c0.36-2.27-1.58-2.05-0.87-4.72C600.63,635.76,618.56,636.26,622.41,644.73z"/>
			<path class="st3" d="M742.96,646.62c-1.04,9.24-8.57,1.31-13.88,0c-7.78-1.92-18.54,1.79-23.42-3.77
				c0.62-8.03,15.07-5.97,22.55-4.72C734.95,639.25,741.37,643.52,742.96,646.62z"/>
			<path class="st3" d="M866.1,640.96c-2.51,8.08-15.06,3.9-22.55,5.66c-5.94,1.39-11.88,8.1-14.74,1.89
				c0.29-5.63,8.61-9.36,15.61-10.39C851.85,637.04,863.09,635.91,866.1,640.96z"/>
			<path class="st3" d="M977.11,644.73c-8.52-0.16-24.15,6.48-28.62,0.95C950.56,636.68,975.51,632.44,977.11,644.73z"/>
			<path class="st3" d="M690.93,641.9c-1.28,8.25-15.73,7.29-25.15,6.61c-8.97-0.66-23.61,0.12-23.42-8.5
				c0.7-0.18,0.86-0.95,1.73-0.94c7.12-2.43,22.09,2.43,32.96,1.89C682.73,640.67,687.57,636.48,690.93,641.9z"/>
			<path class="st3" d="M928.54,640.96c-0.37,6.77-13.24,6.81-22.55,7.55c-10.42,0.82-23.43,1.73-25.15-6.61
				c3-5.2,7.55-1.19,13.01-0.94C905.41,641.49,920.64,635.02,928.54,640.96z"/>
			<path class="st3" d="M527.02,663.61c1.83,7.2-6.24,4.96-10.41,5.66c-6.49,1.1-16.75,5.37-19.08,0
				C500.1,660.61,520.73,659.08,527.02,663.61z"/>
			<path class="st3" d="M1021.34,665.5c-1.6,3.94-24.75,10.73-22.55-0.94C1005.01,662.54,1018.06,657.45,1021.34,665.5z"/>
			<path class="st3" d="M1073.37,669.27c-0.84,0.03-0.67,1.16-0.87,1.89c-7.97,0.71-20.5-1.52-28.62-3.78
				c-0.18-2.71,0.22-4.79,1.74-5.66C1054,661.5,1070.87,659.98,1073.37,669.27z"/>
			<path class="st3" d="M477.59,665.5c0.03,11.29-14.39,5.28-22.55,4.72c-6.21-0.43-14.81,2.98-14.74-3.78
				C447.03,657.4,467.07,664.21,477.59,665.5z"/>
			<path class="st3" d="M572.12,664.56c0.5,3.06-0.59,4.39-0.87,6.61c-7.28-1.2-15.89-0.95-21.68-3.78
				C549.56,656.68,567.52,662.86,572.12,664.56z"/>
			<path class="st3" d="M1130.61,665.5c0.76,7.84-8.45,4.36-13.88,4.72c-8.01,0.53-18.76,4.86-23.41-0.94
				c-1.09-8.39,9.09-5.18,14.74-5.66C1116.08,662.93,1127.29,659.2,1130.61,665.5z"/>
			<path class="st3" d="M622.41,672.11c-0.84,0.02-0.67,1.15-0.87,1.89c-7.08,0.75-18.75-3.44-26.88-1.89
				c0.14-1.1-0.19-1.68-0.87-1.89C596.09,659,621.06,662.61,622.41,672.11z"/>
			<path class="st3" d="M742.96,673.99c-3.03,7.12-9.56-0.69-15.61-1.89c-7.2-1.42-18.06,3.06-21.68-3.78
				c-0.37-1.97,0.59-2.5,0.87-3.77C719.77,662.78,738.58,662.99,742.96,673.99z"/>
			<path class="st3" d="M865.24,664.56c1.97,11.71-12.6,6.26-19.95,7.55c-6.36,1.11-13.59,8.81-16.48,1.89
				C833.02,662.79,852.16,662.96,865.24,664.56z"/>
			<path class="st3" d="M977.11,670.22c-0.84,0.02-0.67,1.15-0.87,1.89c-8.32-1.35-19.68,2.5-26.89,1.89
				c0.14-1.1-0.19-1.68-0.87-1.89C949.78,662.68,974.96,658.84,977.11,670.22z"/>
			<path class="st3" d="M690.93,668.33c-7.13,13.36-37.85,4.3-48.57,1.89c-0.28-2.19,0.14-3.62,0.87-4.72
				c0.7-0.18,0.86-0.95,1.73-0.94c9.97-1.08,20.17,3.03,29.49,2.83C680.11,667.26,687.2,662.44,690.93,668.33z"/>
			<path class="st3" d="M928.54,668.33c-3.39,5.13-14.58,5.87-23.41,6.61c-8.82,0.75-20,0.81-24.29-4.72
				c0.74-8.63,9.66-3.01,15.61-2.83C907.14,667.71,922.61,659.67,928.54,668.33z"/>
			<path class="st3" d="M477.59,690.98c-3.58,7.87-16.91,2.41-25.15,1.89c-4.96-0.31-12.69,3.48-12.14-3.77
				c2.2-7.23,13.19-3.47,20.81-2.83C467.08,686.76,477.42,683.31,477.59,690.98z"/>
			<path class="st3" d="M526.15,685.32c3.72,9.62-25.04,10.56-28.62,6.61C500.08,682.74,516.85,684.01,526.15,685.32z"/>
			<path class="st3" d="M571.25,686.26c1,2.64,1,4.91,0,7.55c-6.46,0.46-13.6-1.8-20.81-1.89
				C546.05,679.84,565.23,685.26,571.25,686.26z"/>
			<path class="st3" d="M1021.34,687.21c-1.9,8.9-14.83,5.56-22.55,5.66C997.38,682.11,1016.82,682.51,1021.34,687.21z"/>
			<path class="st3" d="M1073.37,691.93c-6.17,5.68-21.5-0.4-29.49-1.89c-0.28-2.19,0.14-3.62,0.87-4.72
				C1054.16,683.98,1070.7,682.81,1073.37,691.93z"/>
			<path class="st3" d="M1130.61,689.09c0.09,6.75-6.76,3.38-11.28,3.77c-8.47,0.75-20.65,5-26.01-0.94
				c-1.72-7.74,5.38-4.25,9.54-4.72C1111.67,686.22,1126.44,681.19,1130.61,689.09z"/>
			<path class="st3" d="M622.41,693.81c-4.35,7.67-18.97-1.87-27.75,0.95c0.24-1.53-0.82-1.63-0.87-2.83
				C597.59,682.29,619.47,685.78,622.41,693.81z"/>
			<path class="st3" d="M977.11,690.98c0.06,7.36-9.26,3.2-14.74,3.78c-5.11,0.54-12.06,5.97-13.87,0
				C950.5,685.3,972,682.91,977.11,690.98z"/>
			<path class="st3" d="M690.93,690.98c-2.09,9-16.47,7.42-26.89,6.61c-8.14-0.63-18.78-1.2-21.68-5.67
				c-0.37-1.98,0.59-2.5,0.87-3.77c0.7-0.18,0.86-0.95,1.73-0.94c10.07-0.81,20.69,3.15,30.35,2.83
				C680.77,689.86,687.51,685.03,690.93,690.98z"/>
			<path class="st3" d="M928.54,690.04c-0.6,7.02-13.29,6.89-21.68,7.55c-9.87,0.78-24.74,2.28-26.02-6.61
				c3.16-5.92,8.85-1.17,14.74-0.94C906.45,690.46,920.87,683.47,928.54,690.04z"/>
			<path class="st3" d="M742.96,699.48c-1.02,0.15-0.73,1.72-0.87,2.83c-7.78-1.29-23.93-4.33-36.42-6.6
				c-0.18-2.72,0.22-4.8,1.73-5.67C719.26,689.46,738.37,689.01,742.96,699.48z"/>
			<path class="st3" d="M865.24,696.65c-13.63-1.6-28.49,8.36-36.42,3.78c0-4.35,5.59-7.98,11.27-9.44
				C848.54,688.81,866.87,685.8,865.24,696.65z"/>
			<path class="st3" d="M527.02,713.64c-2.55,6.66-25.46,8.56-29.49,4.72C499.42,709.36,522.5,707.73,527.02,713.64z"/>
			<path class="st3" d="M1073.37,716.47c-0.67,0.84-0.93,2.13-0.87,3.78c-8.01,0.45-22-0.53-28.62-4.72
				C1045.97,705.33,1069.14,711.26,1073.37,716.47z"/>
			<path class="st3" d="M477.59,719.3c-5.57,4.03-14.96,0.46-22.55,0c-5.57-0.34-14.11,3.2-14.74-3.78
				c2.23-8.23,15.3-3.46,23.42-2.83C469.98,713.18,479.59,709.92,477.59,719.3z"/>
			<path class="st3" d="M572.12,718.36c-5.18,3.5-16.72-0.05-22.55-1.89C549.21,706.78,574.05,708.59,572.12,718.36z"/>
			<path class="st3" d="M1021.34,714.58c-2.93,5.24-23.28,8.99-22.55,0.94C999.3,709.96,1017.59,707.51,1021.34,714.58z"/>
			<path class="st3" d="M1130.61,715.52c-0.53,6.63-8.38,3.43-13.88,3.78c-7.81,0.49-18.48,4.4-23.41-0.94
				c-1.37-8.13,8.39-5.12,13.88-5.66C1115.47,711.86,1128.03,707.64,1130.61,715.52z"/>
			<path class="st3" d="M622.41,718.36c0.42,2.97-1.24,3.69-1.73,5.66c-7.66-2.64-18.16-2.98-26.02-2.83
				c0.14-1.09-0.19-1.68-0.87-1.89C596.08,707.46,617.65,713.29,622.41,718.36z"/>
			<path class="st3" d="M977.11,716.47c0.72,2.67-1.22,2.45-0.87,4.72c-8.62-2.5-22.32,5.35-27.75,0
				C950.35,711.36,970.83,710.1,977.11,716.47z"/>
			<path class="st3" d="M690.93,717.41c-7.06,12.7-37.35,4.62-48.57,1.89c-0.28-2.19,0.14-3.62,0.87-4.72
				c0.7-0.18,0.86-0.94,1.73-0.94c10.55,0,23.31,2.15,33.82,1.89C683.16,715.41,688.67,712.13,690.93,717.41z"/>
			<path class="st3" d="M928.54,716.47c-2.12,7.37-17.26,7.27-26.88,7.55c-8.05,0.24-18.77,0.81-20.82-5.66
				c1.09-6.65,6.85-2.9,11.28-2.83C904.09,715.71,920.86,710.94,928.54,716.47z"/>
			<path class="st3" d="M742.96,725.91c-3.54,6.71-11.39-0.89-18.21-1.89c-6.89-1.01-15.83,2.52-19.08-3.78
				c0.12-1.75,0.57-3.15,1.73-3.78C719.43,715.71,739.09,714.66,742.96,725.91z"/>
			<path class="st3" d="M865.24,717.41c-0.14,1.1,0.19,1.68,0.87,1.89c-2.27,7.57-12.04,3.73-19.08,4.72
				c-7.29,1.02-14.63,8.33-18.21,2.83C831.44,714.41,854.44,714.73,865.24,717.41z"/>
			<path class="st3" d="M527.02,737.23c-1.33,6.03-11.46,3.72-17.34,4.72c-5.18,0.88-11.56,5.05-12.14-1.89
				C500.99,733.42,523.51,728.91,527.02,737.23z"/>
			<path class="st3" d="M1073.37,739.12c-2.66,10.83-18.89-0.15-28.62,0.94c0.24-1.52-0.82-1.63-0.87-2.83
				C1047.34,728.76,1068.72,734.03,1073.37,739.12z"/>
			<path class="st3" d="M477.59,740.06c-3.79,7.8-15.58,2.48-24.28,1.89c-4.93-0.34-11.76,2.97-13.01-2.83
				c2.95-10.32,17.22-3.76,26.02-2.83C471.01,736.78,478.25,732.84,477.59,740.06z"/>
			<path class="st3" d="M572.12,741.01c-0.84,0.02-0.67,1.16-0.87,1.89c-6.44-0.61-16.43-0.22-21.68-3.78
				C549.55,729.34,573.61,731.53,572.12,741.01z"/>
			<path class="st3" d="M1021.34,736.29c-2.05,9.24-12.98,3.91-21.68,6.61c-0.12-1.76-0.57-3.16-1.73-3.78
				C999.74,732.65,1016.91,730.83,1021.34,736.29z"/>
			<path class="st3" d="M1130.61,738.17c0.18,6.65-7.1,3.42-12.14,3.78c-8.68,0.62-22.43,6.03-25.15-2.83
				c0.29-6.56,6.01-2.38,10.41-2.83C1112.63,735.36,1126.03,729.21,1130.61,738.17z"/>
			<path class="st3" d="M622.41,742.9c-4.51,7.61-18.83-1.64-27.75,0.94c0.36-2.27-1.58-2.05-0.87-4.72
				C600.5,733.13,618.76,734.67,622.41,742.9z"/>
			<path class="st3" d="M977.11,739.12c0.72,2.67-1.22,2.45-0.87,4.72c-9.01-2.04-21.98,5.42-27.75,0
				C950.99,734.13,970.44,733.33,977.11,739.12z"/>
			<path class="st3" d="M690.93,740.06c-7.52,13.16-33.62,3.72-47.7,3.77c-1.22-2.84-1.27-6.85,1.73-7.55
				c9.75-0.86,20.13,3.05,29.49,2.83C680.42,738.98,687,734.63,690.93,740.06z"/>
			<path class="st3" d="M928.54,739.12c-1.41,7.57-15.32,6.89-24.28,7.55c-8.91,0.66-20.98,1.03-23.42-5.66
				c1.76-7.37,8.49-2.18,13.88-1.89C906.07,739.73,920.79,732.71,928.54,739.12z"/>
			<path class="st3" d="M742.96,752.33c-0.84,0.03-0.67,1.16-0.87,1.89c-8.45-1.14-24.24-3.85-36.42-6.61
				c-0.47-3.34,0.74-4.86,2.6-5.66C719.17,742.41,739.58,740.56,742.96,752.33z"/>
			<path class="st3" d="M866.1,746.67c-4.89,5.97-16.42,2.75-24.28,4.73c-5.25,1.31-10.36,6.96-13,0.94
				c-0.15-4.47,6.56-8.17,12.14-9.44C849.61,740.93,864.94,739.17,866.1,746.67z"/>
			<path class="st3" d="M527.02,763.66c-4.24,4.27-26.48,9.16-29.49,2.84C500.83,759.88,522.91,754.37,527.02,763.66z"/>
			<path class="st3" d="M572.12,762.71c0.5,3.07-0.59,4.39-0.87,6.61c-7.12-1.37-15.91-0.93-21.68-3.77
				C549.81,753.73,566.68,760.71,572.12,762.71z"/>
			<path class="st3" d="M1021.34,763.66c-2.8,4.36-21.73,9.27-22.55,0.95C1001.69,759.4,1019.18,755.35,1021.34,763.66z"/>
			<path class="st3" d="M1073.37,767.44c-6.02,6.06-18.84-1.96-28.62-0.94c0.14-1.1-0.19-1.68-0.87-1.89
				C1046.41,754,1071.51,759.38,1073.37,767.44z"/>
			<path class="st3" d="M477.59,764.61c-2.01,10.54-19.28,4.11-26.02,2.83c-4.19,1.53-10.73,3.64-11.27-2.83
				c2.98-8.2,13.4-3.63,21.68-2.84C467.59,762.32,475.25,759.57,477.59,764.61z"/>
			<path class="st3" d="M1130.61,764.61c-0.41,6.32-8.69,3.29-14.75,3.78c-7.98,0.64-20.19,5.72-22.54-2.83
				c1.08-6.39,9.94-3.23,15.61-3.78C1117.16,760.99,1127.88,756.55,1130.61,764.61z"/>
			<path class="st3" d="M622.41,767.44c1.18,8.73-8.37,5.13-11.27,2.83c-7.36-1.31-15.15,3.37-17.35-2.83
				C597.05,757.16,617.84,762.12,622.41,767.44z"/>
			<path class="st3" d="M977.11,766.49c-3.03,8.28-19.34,1.35-26.89,6.61c-0.45-1.4-1.29-2.38-1.73-3.78
				C950.82,760.82,972.56,758.25,977.11,766.49z"/>
			<path class="st3" d="M690.93,766.49c-8.02,12.74-36.26,4.73-48.57,1.89c-0.28-2.19,0.14-3.62,0.87-4.72
				c0.7-0.18,0.86-0.94,1.73-0.94c10.6-0.02,23.3,2.15,33.82,1.89C683.14,764.5,688.64,761.21,690.93,766.49z"/>
			<path class="st3" d="M928.54,765.55c-1.46,6.36-14.85,6.77-24.28,7.55c-9.26,0.77-20.17,0.9-23.42-5.66
				c1.05-6.65,6.94-2.9,11.28-2.83C904.15,764.8,920.87,760.11,928.54,765.55z"/>
			<path class="st3" d="M742.96,777.82c-2.23,7.14-8.34,0.41-13.88-0.94c-7.75-1.89-18.34,1.75-23.42-3.78
				c0.66-8.2,14.86-6.06,22.55-4.72C734.58,769.49,742.54,773.43,742.96,777.82z"/>
			<path class="st3" d="M865.24,772.16c-3,7.16-14.5,3.2-21.68,4.72c-6.11,1.29-12.66,8.14-14.74,0.94
				c0.71-4.24,8.08-8.22,14.74-9.44C850.28,767.15,863.99,765,865.24,772.16z"/>
			<path class="st3" d="M527.02,784.43c1.9,6.91-5.56,4.86-9.54,5.66c-6.53,1.31-17.54,5.15-19.95,0
				C500.1,781.23,520.76,780.21,527.02,784.43z"/>
			<path class="st3" d="M1073.37,788.2c-0.67,0.84-0.93,2.13-0.87,3.78c-8.05,1.42-18.85-2.05-27.75-2.83
				C1041.63,776.32,1069.21,783.05,1073.37,788.2z"/>
			<path class="st3" d="M477.59,789.15c-4.18,7.51-15.7,2.38-24.28,1.89c-5-0.28-10.96,2.75-13.01-1.89
				c1.17-10.09,12.73-5.59,21.68-4.72C468.16,785.03,478.66,782.26,477.59,789.15z"/>
			<path class="st3" d="M572.12,791.03c-7.41,1.06-17.63,0.04-22.55-2.83C549.45,778.41,574.74,780.31,572.12,791.03z"/>
			<path class="st3" d="M1021.34,785.37c-1.72,8.5-15.01,5.45-22.55,5.66C997.13,780,1016.86,780.72,1021.34,785.37z"/>
			<path class="st3" d="M1130.61,787.26c0.32,6.89-6.89,3.47-11.28,3.78c-8.58,0.6-20.67,4.68-26.01-0.94
				c-1.22-8.32,9.1-5.19,14.74-5.66C1116.18,783.74,1128.34,779.74,1130.61,787.26z"/>
			<path class="st3" d="M622.41,791.98c-4.1,7.87-19.21-2.35-27.75,0.94c0.14-1.09-0.19-1.68-0.87-1.89
				C596.17,779.61,619.74,784.05,622.41,791.98z"/>
			<path class="st3" d="M977.11,791.03c-5.98,3.1-20.73,2.69-27.75,3.78c0.14-1.1-0.19-1.68-0.87-1.89
				C949.87,783.39,974.82,779.81,977.11,791.03z"/>
			<path class="st3" d="M690.93,789.15c-7.69,13.06-36.66,4.77-48.57,1.89c-0.28-2.19,0.14-3.62,0.87-4.72
				c0.7-0.18,0.86-0.94,1.73-0.94c10.65,0.37,23.88,2.05,34.69,1.89C683.71,787.2,688.85,783.95,690.93,789.15z"/>
			<path class="st3" d="M928.54,789.15c-2.61,4.86-14.2,5.87-22.55,6.61c-9.49,0.84-23.13,1.94-25.15-6.61
				c4.55-5.08,14.13-1.2,24.29-1.89C913.88,786.66,925.19,781.58,928.54,789.15z"/>
			<path class="st3" d="M742.96,804.25c-3.29,6.99-10.38-0.8-16.48-1.89c-7.18-1.27-16.1,2.55-20.81-2.83
				c-0.72-2.67,1.22-2.45,0.87-4.72C719.77,793.04,738.58,793.25,742.96,804.25z"/>
			<path class="st3" d="M866.1,796.7c-1.21,8.79-12.09,4.71-19.08,5.66c-6.99,0.96-12.43,6.53-17.35,3.78
				C828.3,793.43,856.2,790.94,866.1,796.7z"/>
			<path class="st3" d="M527.02,812.74c-5.15,6.1-21.18,5.17-28.62,5.66c0.14-1.1-0.19-1.68-0.87-1.89
				C496.51,808.85,524.64,803.84,527.02,812.74z"/>
			<path class="st3" d="M572.12,811.8c0,1.58,0,3.15,0,4.72c-4.75,2.77-18.29,0.99-22.55-2.83
				C550.83,803.76,566.73,809.56,572.12,811.8z"/>
			<path class="st3" d="M1021.34,812.74c-2.76,4.41-21.66,9.35-22.55,0.95C1001.44,807.96,1019.29,804.98,1021.34,812.74z"/>
			<path class="st3" d="M1073.37,816.51c-5.97,5.68-19.07-1.5-28.62-0.94c0.14-1.09-0.19-1.68-0.87-1.89
				C1046.08,803.44,1071.91,808.02,1073.37,816.51z"/>
			<path class="st3" d="M477.59,811.8c0,1.89,0,3.78,0,5.66c-10.64,2.29-29.98,1.83-37.29-2.83
				C445.52,802.83,468.69,812.41,477.59,811.8z"/>
			<path class="st3" d="M1130.61,813.69c-2.67,4.72-17.82,5.93-26.88,5.66c-4.18-0.12-9.1-0.48-10.41-3.78
				c-1.13-7.05,6.16-4.24,11.27-4.72C1113.18,810.05,1127.86,805.07,1130.61,813.69z"/>
			<path class="st3" d="M622.41,816.51c0.72,2.67-1.22,2.45-0.87,4.72c-8.28-2.58-23.13,1-27.75-5.66
				C597.97,806.9,618.28,810.73,622.41,816.51z"/>
			<path class="st3" d="M690.93,816.51c-9.61,10.61-35.58,3.79-48.57,0.94c0.02-2.81-0.08-5.75,2.6-5.66
				c6.7-1.24,22.79,2.52,34.69,1.89C684.62,813.43,690.49,809.74,690.93,816.51z"/>
			<path class="st3" d="M928.54,816.51c-6.13,3.99-19.88,5.65-30.35,5.67c-6.29,0.01-15.33,0.2-17.34-5.67
				c0.62-6.76,5.84-3.12,11.28-2.83C904.26,814.34,925.21,806.68,928.54,816.51z"/>
			<path class="st3" d="M977.11,814.63c0.74,8-10.28,4-16.48,4.72c-5.11,0.6-10.55,5.48-12.14,0
				C949.95,809.49,971.21,807.99,977.11,814.63z"/>
			<path class="st3" d="M742.96,830.67c-6.83,4.13-24.29-4.24-37.29-4.72c-0.18-2.71,0.22-4.79,1.73-5.66
				C719.53,819.73,739.5,818.67,742.96,830.67z"/>
			<path class="st3" d="M866.1,825.01c-4.95,5.25-14.29,2.08-21.68,3.78c-5.75,1.32-12.42,8.12-15.61,1.89
				c-0.29-3.99,5.43-8.01,10.4-9.44C847.67,818.81,864.66,816.93,866.1,825.01z"/>
			<path class="st3" d="M527.02,833.51c1.2,8.26-11.51,5.67-17.34,6.61c-5.8,0.93-11.48,4.76-12.14-1.89
				C500.89,830.51,520.94,829.23,527.02,833.51z"/>
			<path class="st3" d="M1073.37,839.17c-0.84,0.03-0.67,1.16-0.87,1.89c-7.86,0.29-22.05-0.47-28.62-4.71
				c0.1-2.41,0.16-4.86,2.61-4.72C1054.33,831.67,1071.38,829.63,1073.37,839.17z"/>
			<path class="st3" d="M477.59,838.23c-3.67,7.28-15.28,2.35-23.41,1.89c-5.52-0.32-12.8,2.99-13.87-2.83
				c1.42-9.07,14.26-4.56,22.55-3.78C468.4,834.03,477.9,830.85,477.59,838.23z"/>
			<path class="st3" d="M572.12,834.45c0.5,3.07-0.59,4.39-0.87,6.61c-7.76-0.54-13.85-1.77-19.95-1.89
				C543.92,827.9,567.88,831.05,572.12,834.45z"/>
			<path class="st3" d="M1021.34,834.45c-0.75,7.02-20.71,9.54-22.55,1.89C1001.07,830.92,1017.5,829.14,1021.34,834.45z"/>
			<path class="st3" d="M1130.61,835.4c0.78,7.67-8.43,4.36-13.88,4.72c-8.02,0.53-18.84,4.78-23.41-0.94
				c-2-7.61,7.88-5.12,13.88-5.66C1116.33,832.68,1126,828.85,1130.61,835.4z"/>
			<path class="st3" d="M622.41,839.17c1.38,9.61-8,3.36-13.01,2.83c-5.85-0.62-14.9,3.32-15.61-2.83
				C597.37,829.2,617.59,833.74,622.41,839.17z"/>
			<path class="st3" d="M977.11,840.11c-6.22,3.63-20.38,2.64-27.75,3.78c0.14-1.1-0.19-1.68-0.87-1.89
				C949.71,832.65,975.1,828.58,977.11,840.11z"/>
			<path class="st3" d="M690.93,838.23c-3.82,10.9-22.47,6.01-34.69,4.72c-5.45-0.58-12.13,1.58-13.88-3.78
				c-0.37-1.97,0.59-2.5,0.87-3.77c0.7-0.18,0.86-0.95,1.73-0.95c10.65-0.11,23.33,2.15,33.82,1.89
				C683.14,836.23,688.64,832.95,690.93,838.23z"/>
			<path class="st3" d="M928.54,837.28c-1.71,7.48-15.96,6.97-25.15,7.55c-8.74,0.55-20.08,0.81-22.55-5.66
				c1.05-6.65,6.94-2.9,11.28-2.83C904.14,836.53,920.91,831.83,928.54,837.28z"/>
			<path class="st3" d="M742.96,856.16c-0.84,0.03-0.67,1.16-0.87,1.89c-4.06,3.78-7.28-1.64-12.14-2.83
				c-8.3-2.04-20.84,2.47-24.28-5.66c-0.04-1.61,0.65-2.44,1.73-2.83C719.84,845.51,738.86,845.16,742.96,856.16z"/>
			<path class="st3" d="M865.24,847.67c-0.14,1.09,0.19,1.68,0.87,1.89c-3.07,8.04-15.61,3.79-23.41,5.66
				c-5.58,1.34-10.25,6.87-13.87,1.89C831.58,844.91,854.15,844.55,865.24,847.67z"/>
			<path class="st3" d="M527.02,861.83c-4.73,4.33-26.17,8.93-29.49,2.83C500.12,857.59,523.48,852.67,527.02,861.83z"/>
			<path class="st3" d="M572.12,861.83c0,1.26,0,2.51,0,3.77c-4.85,3.67-14.66-0.96-21.68-0.95c0.14-1.1-0.19-1.68-0.87-1.89
				C550.62,852.7,568.39,857.84,572.12,861.83z"/>
			<path class="st3" d="M1021.34,861.83c-2.75,4.42-21.9,9.09-22.55,0.94C1001.36,857.2,1019.1,853.42,1021.34,861.83z"/>
			<path class="st3" d="M1073.37,862.77c-2.51,11.38-18.68,0-28.62,1.89c0.14-1.1-0.19-1.68-0.87-1.89
				C1046.59,851.38,1068.02,859.21,1073.37,862.77z"/>
			<path class="st3" d="M477.59,860.88c-0.42,13.43-16.06,5.45-25.15,4.72c-4.77-0.39-10.64,3.45-12.14-1.89
				C445.63,852.08,468.39,861.63,477.59,860.88z"/>
			<path class="st3" d="M1130.61,861.83c0.17,7.35-10.35,4.16-16.48,4.72c-8.46,0.78-21.71,5.73-20.81-5.66
				C1102.66,861.29,1122.55,853.75,1130.61,861.83z"/>
			<path class="st3" d="M622.41,865.6c0.42,2.97-1.24,3.69-1.73,5.66c-6.72-4.33-21.23-0.18-26.88-5.66
				C596.33,855.22,618.79,859.76,622.41,865.6z"/>
			<path class="st3" d="M690.93,865.6c-9.96,10.79-35.22,3.53-48.57,0.94c-0.18-2.71,0.22-4.79,1.73-5.66
				c0.7-0.18,0.87-0.95,1.73-0.94c9.44,0.58,22.88,3.46,32.96,2.83C683.48,862.47,690.23,858.2,690.93,865.6z"/>
			<path class="st3" d="M928.54,865.6c-11.75,4.74-36.72,9.61-47.7,0.94c-0.68-7.94,6.06-4.07,11.28-3.78
				c7.72,0.43,19.18-1.86,26.89-1.89C923.63,860.87,928.93,858.62,928.54,865.6z"/>
			<path class="st3" d="M977.11,864.65c-4.61,6.5-21.8,3.7-27.75,5.66c0.14-1.09-0.19-1.68-0.87-1.89
				C949.02,858.22,973.05,856.31,977.11,864.65z"/>
			<path class="st3" d="M866.1,876.93c-4.66,5.46-14.42,2.29-21.68,3.77c-6.14,1.26-12.4,8.17-15.61,1.89
				c-0.11-4.17,5.98-8.05,11.27-9.44C848.7,870.89,864.7,869.45,866.1,876.93z"/>
			<path class="st3" d="M742.96,882.59c-3.1,6.75-8.56-0.65-13.88-1.89c-7.6-1.77-17.28,1.52-23.42-2.83
				c-0.27-2.19,0.14-3.62,0.87-4.72C719.76,871.4,739.16,870.95,742.96,882.59z"/>
			<path class="st3" d="M477.59,892.97c-4.05,7.94-16.65,2.47-25.15,1.89c-4.77-0.33-10.64,3.42-12.14-1.89
				c1.92-10.97,17.05-4.49,26.02-3.78C470.8,889.55,478.44,885.47,477.59,892.97z"/>
			<path class="st3" d="M527.02,891.08c-6.25,5.02-21.21,4.98-28.62,5.66c0.14-1.1-0.19-1.68-0.87-1.88
				C495.96,886.72,524.57,881.67,527.02,891.08z"/>
			<path class="st3" d="M572.12,894.86c-4.47,3.25-14.6-1.03-21.68-0.94c0.14-1.09-0.19-1.68-0.87-1.89
				C549.93,882.36,574.1,884.4,572.12,894.86z"/>
			<path class="st3" d="M1021.34,889.19c-0.91,8.56-18.15,6.9-22.55,5.66C997.38,884.1,1016.82,884.5,1021.34,889.19z"/>
			<path class="st3" d="M1073.37,893.91c-6.28,5.8-21.76-0.12-29.49-1.89C1046.07,881.07,1071.59,886.36,1073.37,893.91z"/>
			<path class="st3" d="M1130.61,891.08c0.21,6.66-6.53,3.33-11.28,3.78c-8.49,0.79-22.13,5.82-26.01-1.89
				c-0.93-6.7,5.46-3.3,9.54-3.78C1111.44,888.19,1126.06,883.77,1130.61,891.08z"/>
			<path class="st3" d="M622.41,894.86c0.75,3.65-2.12,3.36-2.6,5.66c-6.72-4.46-16.94-2.95-25.15-3.78
				c0.24-1.52-0.82-1.62-0.87-2.83C598.61,884.51,617.32,888.68,622.41,894.86z"/>
			<path class="st3" d="M977.11,894.86c-0.84,0.03-0.67,1.16-0.87,1.88c-9.61-2.79-23.12,6.68-27.75,0
				C950.96,887.78,974.22,884.36,977.11,894.86z"/>
			<path class="st3" d="M690.93,892.97c-7.35,13.19-36.1,5.47-48.57,1.89c1.24-11.29,20.91-2.14,34.69-2.83
				C683.74,891.69,687.86,887.69,690.93,892.97z"/>
			<path class="st3" d="M928.54,892.97c0.2,6.08-6.72,3.97-11.27,4.72c-11.15,1.82-31.09,6.94-36.42-4.72
				c2.8-5.21,7.71-1.19,13.01-0.94C905.97,892.58,921.99,885.44,928.54,892.97z"/>
			<path class="st3" d="M742.96,908.07c-7.14,5.44-22-4.89-36.42-2.83c-0.9-2.67-0.9-3.93,0-6.61
				C719.18,897.51,738.67,896.97,742.96,908.07z"/>
			<path class="st3" d="M866.1,900.52c-1.96,9.59-15.89,4.31-24.28,6.61c-5.3,1.45-8.88,7.27-12.14,2.83
				c0.14-1.09-0.19-1.68-0.86-1.89C832.65,897.53,856.01,895.02,866.1,900.52z"/>
			<path class="st3" d="M527.02,911.85c1.3,6.64-6.33,4.91-11.27,5.66c-6.66,1.01-18.04,5.77-18.21-1.88
				C501.83,909.59,520.69,906.45,527.02,911.85z"/>
			<path class="st3" d="M572.12,913.73c0,1.26,0,2.52,0,3.77c-4.95,3.77-14.53-1.1-21.68-0.94c0.14-1.1-0.19-1.68-0.87-1.89
				C550.39,904.46,568.44,909.96,572.12,913.73z"/>
			<path class="st3" d="M1021.34,911.85c-0.39,7.45-21.86,10.64-22.55,2.83C1001.42,908.83,1016.85,906.9,1021.34,911.85z"/>
			<path class="st3" d="M1073.37,914.68c0.04,2.87-1.83,3.67-2.6,5.66c-8.09-3.15-21.65-0.35-26.89-6.61
				C1047.72,904.29,1068.07,910.75,1073.37,914.68z"/>
			<path class="st3" d="M477.59,912.79c0.48,11.48-13.17,6.17-20.81,5.67c-6.87-0.46-15.46,2.35-16.48-2.83
				C445.52,903.83,468.69,913.4,477.59,912.79z"/>
			<path class="st3" d="M1130.61,914.68c-0.8,6.15-8.96,3.38-14.75,3.78c-8.47,0.58-23.29,5.51-22.54-5.67
				C1102.26,913.24,1124.13,904.71,1130.61,914.68z"/>
			<path class="st3" d="M622.41,918.46c0.11,1.69-1.06,1.99-0.87,3.77c-7.55-1.11-19.54-2.19-27.75-3.77
				C594.92,906.77,620.16,911.13,622.41,918.46z"/>
			<path class="st3" d="M690.93,915.63c-0.4,7.16-9.62,7.44-15.61,7.55c-10.83,0.21-26.27-2.09-32.95-5.67
				c0.55-10.29,21.94-2.52,32.95-2.83C681.74,914.5,687.92,910.49,690.93,915.63z"/>
			<path class="st3" d="M928.54,916.57c-2.46,4.83-12.21,5.05-19.94,5.66c-9.95,0.79-23.88,2.05-27.75-4.72
				c0.41-7.73,7.4-3.09,13.01-2.83c8.54,0.39,22.25-4.24,29.49-2.83C925.69,912.31,928.89,913.16,928.54,916.57z"/>
			<path class="st3" d="M977.11,916.57c-4.67,7.37-19.09,0.51-26.02,6.61c-0.26-1.93-2.35-1.85-2.6-3.78
				C950.05,910.55,973.18,908.17,977.11,916.57z"/>
			<path class="st3" d="M742.96,932.61c-0.67,0.84-0.93,2.13-0.87,3.77c-9.42-1.44-24.93-4.28-36.42-6.61
				c-0.47-3.34,0.74-4.86,2.6-5.66C719.26,923.86,737.26,923.98,742.96,932.61z"/>
			<path class="st3" d="M866.1,928.84c-4.88,5.73-14.23,2.17-21.68,3.78c-5.47,1.18-10.18,7.09-14.74,3.77
				c0.14-1.1-0.19-1.68-0.86-1.88c-0.11-4.13,5.99-8.11,11.27-9.44C848.16,923.03,863.82,921.54,866.1,928.84z"/>
			<path class="st3" d="M526.15,935.44c3.73,13.72-19.19,6.01-26.02,11.33c-0.27-2.23-3.01-1.76-2.6-4.72
				C501.98,934.3,515.1,935.99,526.15,935.44z"/>
			<path class="st3" d="M572.12,943.94c-4.57,2.92-14.59-0.73-21.68-0.95c0.14-1.09-0.19-1.67-0.87-1.89
				C549.93,931.44,574.1,933.48,572.12,943.94z"/>
			<path class="st3" d="M1021.34,938.28c-0.59,8.91-18.46,6.55-22.55,5.66C997.38,933.18,1016.82,933.58,1021.34,938.28z"/>
			<path class="st3" d="M1073.37,941.11c-2.31,10.46-19.59,0.62-28.62,0.94C1042.61,929.54,1069.7,936.38,1073.37,941.11z"/>
			<path class="st3" d="M1130.61,942.05c-1.88,4.91-6.72,1.53-11.28,1.89c-8.54,0.68-20.14,5.09-26.01-0.95
				c-1.81-8.04,6.5-4.33,11.27-4.72C1113.37,937.57,1129.06,931.62,1130.61,942.05z"/>
			<path class="st3" d="M477.59,942.05c-7.81,8.54-26.19,0.39-36.42,1.89c0.14-1.1-0.19-1.68-0.87-1.89
				c1.46-10.35,17.49-4.47,26.02-3.77C470.99,938.66,478.87,934.96,477.59,942.05z"/>
			<path class="st3" d="M622.41,944.88c-4.58,7.92-19.05-1.79-27.75,0.95C590.9,933.06,621.31,936.93,622.41,944.88z"/>
			<path class="st3" d="M690.93,942.05c0.61,4.57-4.53,5.89-7.81,6.61c-11.77,2.6-34.35-1.06-40.76-5.67
				c-0.37-1.97,0.59-2.5,0.87-3.77c0.7-0.18,0.86-0.95,1.73-0.94c9.96-0.4,21.41,3.24,31.22,2.83
				C681.39,940.89,687.84,936.32,690.93,942.05z"/>
			<path class="st3" d="M928.54,942.05c-2.2,6.55-14.52,6.1-23.41,6.61c-9.07,0.52-20.82,1.39-24.29-4.72
				c0.5-8.31,8.15-3.14,13.88-2.83C905.97,941.72,922.56,934.14,928.54,942.05z"/>
			<path class="st3" d="M977.11,941.11c0.72,2.67-1.22,2.45-0.87,4.72c-9.13-1.44-20.46,4.29-27.75,0.94
				C948.74,935.82,970.65,936.19,977.11,941.11z"/>
			<path class="st3" d="M742.96,959.04c-0.51,1.97-1.82,3.05-2.6,4.72c-8.4-6.28-25.38-3.21-34.69-8.5
				c-0.13-2.34,0.45-3.92,1.73-4.72C719.57,949.32,737.37,949.97,742.96,959.04z"/>
			<path class="st3" d="M866.1,953.38c-6.13,9.37-26.89,2.83-34.69,10.38c-0.77-2-2.64-2.79-2.6-5.66
				C835.16,951.39,857.77,945.72,866.1,953.38z"/>
			<path class="st3" d="M527.02,962.82c-5.18,4.68-25.04,7.35-29.49,3.77C496.21,958.54,524.49,953.46,527.02,962.82z"/>
			<path class="st3" d="M571.25,967.53c-4.73,0.55-14.36-1.22-20.81-1.89c0.14-1.1-0.19-1.68-0.87-1.89
				C549.74,953.41,576.77,957.13,571.25,967.53z"/>
			<path class="st3" d="M1021.34,960.93c-0.5,9-18.52,6.48-22.55,5.66C997.6,956.07,1016.81,956.23,1021.34,960.93z"/>
			<path class="st3" d="M1073.37,963.76c0.04,2.87-1.83,3.67-2.6,5.66c-7.18-2.88-17.36-2.5-26.02-3.77
				C1041.71,951.77,1069.35,959.17,1073.37,963.76z"/>
			<path class="st3" d="M477.59,962.82c-1.8,11.79-14.86,4.45-25.15,3.77c-5.05-0.33-9.48,2.72-12.14-0.94
				c0.76-11.69,16.13-5.44,25.15-4.72C470.71,961.35,476.07,958.17,477.59,962.82z"/>
			<path class="st3" d="M1130.61,964.7c-1.81,5.17-6.63,1.52-11.28,1.88c-9.09,0.72-22.89,7.39-26.01-2.83
				c0.3-6.07,6.61-2.46,11.27-2.83C1113.73,960.2,1128.64,954.32,1130.61,964.7z"/>
			<path class="st3" d="M622.41,966.59c0.72,2.67-1.22,2.45-0.87,4.72c-7.85-0.45-17.09-2.98-26.88-2.84
				c0.14-1.1-0.19-1.68-0.87-1.89C596.25,955.94,618.73,961.04,622.41,966.59z"/>
			<path class="st3" d="M690.93,966.59c-10.06,9.92-36.39,4.55-48.57,0c-0.13-2.34,0.45-3.92,1.73-4.71
				c6.81-2.06,23.14,2.6,34.69,1.89C684.24,963.43,690.29,959.24,690.93,966.59z"/>
			<path class="st3" d="M928.54,964.7c-0.24,5.98-8.32,5.04-13.87,5.66c-10.62,1.18-27.37,4.86-33.82-3.78
				c0.59-7.07,6.19-3.12,11.28-2.83C904.13,964.46,922.26,957.57,928.54,964.7z"/>
			<path class="st3" d="M977.11,966.59c-7.1,4.05-20.09,3.02-27.75,4.72c0.14-1.1-0.19-1.68-0.87-1.89
				C948.78,959.39,974.54,956.49,977.11,966.59z"/>
			<path class="st3" d="M742.96,986.41c-2.05,5.42-9.92,1.8-12.14-0.95c-7.86-2.14-21.35,1.84-25.15-4.72
				c-0.37-1.97,0.59-2.5,0.87-3.78C719.66,975.33,738.62,975.37,742.96,986.41z"/>
			<path class="st3" d="M866.1,978.86c-1.36,9.53-16.47,4.1-24.28,6.61c-3.12,1.93-10.46,6.84-13,0.95
				C832.41,975.74,856,973.17,866.1,978.86z"/>
			<path class="st3" d="M527.02,988.3c-1.16,5.81-10.63,3.92-16.48,4.72c-4.81,0.66-11.44,4.58-13.01-0.95
				C500.02,984.13,523.48,980.16,527.02,988.3z"/>
			<path class="st3" d="M477.59,991.13c-7.55,8.91-26.44-0.14-36.42,1.89c0.14-1.1-0.19-1.68-0.87-1.89
				c1.9-11,17.67-4.63,26.88-3.77C471.43,987.75,478.56,983.81,477.59,991.13z"/>
			<path class="st3" d="M571.25,993.96c-6.17,0.67-13.83-2.57-20.81-1.89C544.94,979.58,577.97,982.33,571.25,993.96z"/>
			<path class="st3" d="M1021.34,987.36c-1.81,8.35-16.81,6.17-22.55,5.66C997.31,982.17,1016.78,982.62,1021.34,987.36z"/>
			<path class="st3" d="M1073.37,992.08c-6.33,5.86-21.43-0.48-29.49-1.89c-0.72-2.67,1.22-2.45,0.87-4.72
				C1054.25,984.03,1070.72,982.94,1073.37,992.08z"/>
			<path class="st3" d="M1130.61,989.25c0.1,6.77-7.61,3.38-13.01,3.78c-8.29,0.6-21.73,6.09-24.28-2.83
				c0.03-6.38,5.83-2.42,9.54-2.83C1112.01,986.32,1126.01,981.31,1130.61,989.25z"/>
			<path class="st3" d="M622.41,993.96c0.41,2.96-2.33,2.49-2.6,4.72c-6.1-7.56-24.21,2.39-26.02-8.49
				C600.76,984.21,618.74,985.57,622.41,993.96z"/>
			<path class="st3" d="M977.11,991.13c0.11,1.7-1.06,1.99-0.87,3.78c-8.53-1.16-19.32,2.64-26.89,1.89
				c0.14-1.09-0.19-1.68-0.87-1.89C950.84,985.49,971.8,983.5,977.11,991.13z"/>
			<path class="st3" d="M690.93,991.13c-7.07,12.79-37.57,5.51-48.57,1.89c-0.72-2.67,1.22-2.44,0.87-4.72
				c0.7-0.18,0.86-0.95,1.73-0.94c9.82-0.57,20.59,3.13,30.35,2.83C680.74,990.02,687.6,985.47,690.93,991.13z"/>
			<path class="st3" d="M928.54,991.13c-4.01,6.64-42.52,11.59-47.7,0.95c1.63-7.35,8.23-2.17,13.88-1.89
				C906.12,990.76,922.38,983.14,928.54,991.13z"/>
			<path class="st3" d="M742.96,1011.9c-0.84,0.03-0.67,1.16-0.87,1.88c-3.69,2.6-8.15-0.84-10.41-2.83
				c-7.64-3.01-23.57,2.99-26.02-5.67c-0.04-1.62,0.65-2.44,1.73-2.83C719.11,1002.05,739.34,1000.38,742.96,1011.9z"/>
			<path class="st3" d="M866.1,1005.29c-2.85,7.91-17.45,3.03-25.15,5.67c-2.93,1.96-8.73,6.12-12.14,1.88
				C830.96,1000.61,858.33,999.23,866.1,1005.29z"/>
			<path class="st3" d="M527.02,1010.96c-0.6,5.51-8,3.05-13.01,3.77c-6.21,0.9-16.47,6.48-16.48-1.89
				C501.58,1007.43,523.49,1001.88,527.02,1010.96z"/>
			<path class="st3" d="M572.12,1010.01c0,1.57,0,3.15,0,4.72c-4.49,1.94-20.85,2.47-22.55-4.72
				C553.18,1003.6,566.79,1007.23,572.12,1010.01z"/>
			<path class="st3" d="M1021.34,1009.06c-0.65,8.03-22.1,10.2-23.41,2.83C1001.34,1005.93,1016.52,1005.13,1021.34,1009.06z"/>
			<path class="st3" d="M1073.37,1011.9c0.72,2.67-1.22,2.44-0.87,4.72c-7.85,0.58-20.13-1.93-28.62-3.78
				C1044.79,1000.16,1068.3,1008.41,1073.37,1011.9z"/>
			<path class="st3" d="M478.46,1013.78c-5.5,6.44-19.18,2.86-26.88,0.94c-4.54,1.14-9.33,3.36-11.27-1.89
				c1.64-10.07,17.13-4.43,26.02-3.77C471.75,1009.47,479.2,1006.76,478.46,1013.78z"/>
			<path class="st3" d="M1130.61,1011.9c-0.84,5.95-6.21,4.36-10.41,2.83c-7.78,1.7-20.31,5.24-26.88,0c0-1.57,0-3.14,0-4.72
				C1102.39,1010.31,1124.05,1002.02,1130.61,1011.9z"/>
			<path class="st3" d="M623.28,1016.62c-1.85,5.01-8.11,3.91-11.27,0.94c-6-1.02-16.19,2.52-18.21-2.83
				C597.25,1004.49,620.62,1008.7,623.28,1016.62z"/>
			<path class="st3" d="M977.11,1013.78c-1.6,6.56-11.88,2.99-17.35,3.78c-4.42,0.64-10.42,5.85-11.27-0.94
				C950.57,1008.12,972.85,1005.38,977.11,1013.78z"/>
			<path class="st3" d="M690.93,1013.78c-7.55,12.59-35.99,4.11-48.57,1.89c0.48-1.37-1.01-4.88,0.87-4.72
				c0.7-0.18,0.86-0.95,1.73-0.95c10.55-0.3,22.41,2.11,32.95,1.89C682.24,1011.81,688.46,1008.3,690.93,1013.78z"/>
			<path class="st3" d="M928.54,1013.78c-1.65,4.82-10.78,4.89-17.34,5.67c-9.6,1.13-25.37,2.81-30.36-4.72
				c2.55-7.24,12.1-2.3,20.82-2.83C911.43,1011.3,924.76,1006.33,928.54,1013.78z"/>
			<path class="st3" d="M742.96,1036.44c0.11,1.69-1.06,1.99-0.87,3.78c-8.86-2.17-24.7-4.46-36.42-6.61
				c0.01-2.5-0.48-5.56,1.73-5.66C719.91,1026.35,737.23,1027.53,742.96,1036.44z"/>
			<path class="st3" d="M866.1,1030.77c-2.72,8.71-15.4,3.63-23.41,5.67c-5.34,1.36-8.8,6.86-13.01,3.78
				c0.25-1.52-0.82-1.62-0.86-2.84c0.04-3.63,6.04-7.23,10.4-8.49C847.45,1026.51,862.09,1024.9,866.1,1030.77z"/>
			<path class="st3" d="M527.02,1034.55c0,0.94,0,1.89,0,2.83c-5.59,5.74-21.48,4.7-28.62,5.67c0.24-1.53-0.82-1.63-0.87-2.83
				C500.4,1031.7,518.97,1031.23,527.02,1034.55z"/>
			<path class="st3" d="M572.98,1039.27c-2.97,6.92-14.94,0.47-22.55,0.94C545.85,1027.82,572.37,1031.81,572.98,1039.27z"/>
			<path class="st3" d="M1021.34,1035.49c-0.89,8.4-20.99,8.69-23.41,3.78C999.57,1031.84,1016.43,1030.54,1021.34,1035.49z"/>
			<path class="st3" d="M1073.37,1038.32c0.72,2.67-1.22,2.45-0.87,4.72c-7.51-0.28-21.11-1.37-28.62-4.72
				C1046.03,1027,1068.98,1034.09,1073.37,1038.32z"/>
			<path class="st3" d="M478.46,1040.21c-9.88,5.98-28.45,1.09-38.16,0c0.38-11.57,16.42-5.43,25.15-4.72
				C471.31,1035.97,479.13,1032.84,478.46,1040.21z"/>
			<path class="st3" d="M1130.61,1038.32c-0.12,6.04-6,2.46-10.41,2.83c-8.59,0.73-24.17,6.38-26.88-2.83
				c0.04-5.81,5.92-2.39,10.41-2.83C1113.3,1034.55,1129.26,1029.81,1130.61,1038.32z"/>
			<path class="st3" d="M622.41,1042.1c-1.11,7.96-8.68,1.55-14.74,0.95c-5.07-0.51-10.63,2.96-13.88-0.95c0-1.57,0-3.15,0-4.72
				C601.96,1033.99,619.29,1034.03,622.41,1042.1z"/>
			<path class="st3" d="M690.93,1040.21c-5.15,11.11-37.1,4.36-48.57,1.89c0.25-12.96,19.96-3.1,33.82-3.78
				C683.44,1037.97,689.25,1033.3,690.93,1040.21z"/>
			<path class="st3" d="M928.54,1039.27c-1.12,6.08-12.98,6.01-21.68,6.61c-10.11,0.7-22.55,1.6-26.02-4.72
				c0.26-8.23,7.74-3.12,13.01-2.83C905.48,1038.95,922.54,1031.65,928.54,1039.27z"/>
			<path class="st3" d="M977.11,1038.32c0.72,2.67-1.22,2.45-0.87,4.72c-9.08-2.12-21.62,5.81-27.75,0
				C950.17,1033.78,970.51,1033.23,977.11,1038.32z"/>
			<path class="st3" d="M742.96,1062.86c-2.57,8.28-11.18,0.11-17.35-0.94c-7.1-1.21-14.06,0.65-19.95-1.89
				c-0.11-2.32-0.13-4.54,0.87-5.66C719.47,1052.62,737.62,1053.22,742.96,1062.86z"/>
			<path class="st3" d="M866.1,1057.2c-2.57,7.04-13.04,3.56-19.94,4.71c-6.51,1.1-14.17,8.51-17.34,1.89
				c0.01-4.47,7.55-8.25,13-9.44C849.66,1052.66,862.77,1051.47,866.1,1057.2z"/>
			<path class="st3" d="M527.02,1060.03c-5.13,6.13-21.7,4.61-28.62,5.67c0.11-1.7-1.06-1.99-0.87-3.78
				C501.47,1056.59,523.28,1050.43,527.02,1060.03z"/>
			<path class="st3" d="M572.98,1060.03c-0.78,1.99-1.35,4.2-2.6,5.67c-5.82-2.48-15.82-0.4-20.81-3.78
				C549.76,1049.81,568.67,1056.78,572.98,1060.03z"/>
			<path class="st3" d="M1021.34,1057.2c0.47,10.12-21.13,9.29-23.41,4.71C1000.4,1054.81,1014.66,1053.88,1021.34,1057.2z"/>
			<path class="st3" d="M1073.37,1060.97c-2.25,11.42-18.69-0.19-28.62,1.89C1041.83,1048.57,1068.84,1057.14,1073.37,1060.97z"/>
			<path class="st3" d="M478.46,1062.86c-9.48,7.25-27.46,0.68-38.16,0c0.12-11.13,15.02-5.37,23.42-4.71
				C470.13,1058.64,478.91,1055.55,478.46,1062.86z"/>
			<path class="st3" d="M1130.61,1060.97c0.2,6.23-5.69,2.43-10.41,2.83c-10.17,0.87-24.74,7.19-26.88-2.83
				c1.72-5.29,8.96-2.37,13.88-2.83C1116.03,1057.32,1127.42,1052.71,1130.61,1060.97z"/>
			<path class="st3" d="M622.41,1067.59c-3,3.19-7.41,0.94-10.41-0.95c-6.24-1.39-18.41,3.67-18.21-4.72
				C599.21,1055.35,622.87,1055.83,622.41,1067.59z"/>
			<path class="st3" d="M690.93,1061.92c-0.13,7.58-10.63,7.44-16.48,7.55c-10.8,0.2-25.75-2.18-32.09-5.66
				c1.88-10.6,22.97-1.87,37.29-2.83C685.09,1060.61,688.21,1056.5,690.93,1061.92z"/>
			<path class="st3" d="M928.54,1060.97c1.08,6.77-7.45,6.02-13.01,6.61c-10.71,1.14-28.29,4.66-34.69-3.78
				c0.3-7.36,6.43-3.14,11.28-2.83C903.95,1061.74,921.26,1055.89,928.54,1060.97z"/>
			<path class="st3" d="M977.11,1061.92c-3.12,8.43-22,4.13-27.75,6.61c0.14-1.09-0.19-1.67-0.87-1.88
				C949.1,1056.23,971.86,1055.42,977.11,1061.92z"/>
			<path class="st3" d="M742.96,1090.24c-6.64,4.05-24.48-4.06-37.29-4.72c0-1.58,0-3.14,0-4.72
				C719.13,1079.1,739.28,1078.16,742.96,1090.24z"/>
			<path class="st3" d="M866.1,1083.63c-4.29,6.49-16.39,3.5-24.28,5.67c-5.12,1.41-10.48,6.7-13,0.95c-0.11-4,5.44-8,10.4-9.44
				C847.13,1078.5,862.25,1077.79,866.1,1083.63z"/>
			<path class="st3" d="M527.02,1083.63c0,1.57,0,3.15,0,4.72c-9.51,0.86-20.69,4.26-28.62,3.77c0.11-1.69-1.06-1.99-0.87-3.77
				C502.02,1081.85,520.49,1078.87,527.02,1083.63z"/>
			<path class="st3" d="M1073.37,1087.4c0.75,3.65-2.12,3.36-2.6,5.66c-7.65-3.31-19.39-2.17-26.89-5.66
				C1045.33,1075.17,1067.86,1083.62,1073.37,1087.4z"/>
			<path class="st3" d="M572.12,1084.57c0.42,3.6-0.25,6.03-1.74,7.55c-5.89-2.39-15.44-0.81-20.81-3.77
				C549.26,1076.27,566.54,1083.35,572.12,1084.57z"/>
			<path class="st3" d="M1021.34,1084.57c0.72,2.67-1.22,2.45-0.87,4.72c-6.77,0.68-12.72,0.88-19.95,2.83
				c-0.87-1.25-1.43-2.84-2.6-3.77C999.51,1081.11,1016.42,1079.2,1021.34,1084.57z"/>
			<path class="st3" d="M1130.61,1088.35c-2.41,4.78-8.13,1.54-13.01,1.89c-8.97,0.62-20.36,6.17-25.15-1.89
				c0.33-6.5,6.12-3.36,11.27-3.78C1112.99,1083.83,1128.49,1077.8,1130.61,1088.35z"/>
			<path class="st3" d="M478.46,1087.4c-3.31,9.92-15.58,3.46-24.28,2.84c-5.48-0.4-11.56,3.34-13.87-1.89
				c1.88-10.47,16.9-4.52,26.02-3.78C471.41,1084.99,477.54,1081.95,478.46,1087.4z"/>
			<path class="st3" d="M977.11,1088.35c0.38,7.6-8,3.37-13.01,3.77c-6.04,0.49-14.07,6.34-15.61,0
				C951.37,1082.54,971.01,1081.48,977.11,1088.35z"/>
			<path class="st3" d="M623.28,1091.19c-0.72,2.37-3.04,2.98-4.34,4.72c-5.6-7.54-22.62,2.14-25.15-7.55
				C599.54,1081.19,619.86,1084.02,623.28,1091.19z"/>
			<path class="st3" d="M690.93,1089.29c-1.33,5.76-9.79,6.38-14.74,6.61c-10.92,0.49-24.83-3.48-33.82-4.72
				c-0.41-3.6,0.37-5.9,2.6-6.61c9.18-0.28,19.68,3.03,29.49,2.83C680.07,1087.29,688.42,1082.49,690.93,1089.29z"/>
			<path class="st3" d="M928.54,1088.35c0.26,6.35-6.93,4.1-11.27,4.71c-11.78,1.68-28.49,5.82-36.42-2.83
				c0.65-7.99,9.46-2.98,15.61-2.84C907.44,1087.68,923.33,1080.74,928.54,1088.35z"/>
			<path class="st3" d="M527.02,1108.17c-1.5,11.27-20.07,3.96-26.88,9.44c-0.27-2.23-3.01-1.75-2.6-4.71
				C501.43,1105.76,520.89,1103.84,527.02,1108.17z"/>
			<path class="st3" d="M478.46,1111.95c-2.75,8.6-15.25,3.36-23.41,2.84c-5.94-0.39-13.54,3.06-14.74-2.84
				c2.83-10.25,15.74-3.53,24.28-2.83C470.18,1109.57,476.99,1105.86,478.46,1111.95z"/>
			<path class="st3" d="M572.98,1111c-0.37,1.8-1.87,2.37-1.73,4.72c-6.85-1.35-16.56,0.41-21.68-2.83
				C548.83,1100.63,570.08,1106.9,572.98,1111z"/>
			<path class="st3" d="M742.96,1118.55c-4.2,5.32-9.64-1.58-15.61-2.83c-7.18-1.49-17.11,2.2-21.68-3.77
				c0.93-7.56,15.24-5.47,23.42-3.78C735.32,1109.46,743.7,1112.6,742.96,1118.55z"/>
			<path class="st3" d="M1021.34,1109.11c-0.2,8.14-21.45,8.62-23.41,2.83C999.97,1105.73,1016.87,1103.61,1021.34,1109.11z"/>
			<path class="st3" d="M1073.37,1111c0.38,3.56-1.71,4.43-2.6,6.6c-7-4.02-20.31-1.18-26.89-5.66c-0.62-2.89,0.89-3.44,0.87-5.66
				C1056.17,1105.82,1066.51,1106.52,1073.37,1111z"/>
			<path class="st3" d="M1130.61,1110.06c1.07,8-8.55,4.39-13.88,4.72c-8.49,0.52-20.35,5.02-24.28-1.89
				c0.43-6.88,7.33-3.39,12.14-3.78C1113.46,1108.4,1125.19,1102.82,1130.61,1110.06z"/>
			<path class="st3" d="M866.1,1111c-3.05,7.31-13.8,3.44-20.81,4.72c-6.33,1.15-10.88,7.01-15.61,3.78
				c0.36-2.27-1.58-2.05-0.86-4.71c2.71-1.53,7.36-5.34,13-6.62C849.52,1106.44,862.39,1105.12,866.1,1111z"/>
			<path class="st3" d="M622.41,1113.84c0.63,2.88-0.89,3.43-0.87,5.66c-6.97-1.74-19.79-1.93-27.75-3.78
				C594.38,1103.1,618.23,1109.79,622.41,1113.84z"/>
			<path class="st3" d="M690.93,1113.84c-2.64,7.31-15.16,6.22-24.28,5.66c-8.81-0.54-20.75-0.71-24.28-5.66
				c-0.37-1.97,0.59-2.51,0.87-3.78c0.7-0.18,0.86-0.94,1.73-0.94c10.1-0.43,21.86,3.39,32.09,2.83
				C681.78,1111.69,689.12,1106.86,690.93,1113.84z"/>
			<path class="st3" d="M928.54,1111.95c-1.4,7.71-14.84,6.96-23.41,7.55c-8.99,0.62-19.79,0.49-24.29-3.78
				c-0.95-9.17,7.77-4.06,13.01-3.77C905.05,1112.58,921.31,1105.68,928.54,1111.95z"/>
			<path class="st3" d="M977.11,1111.95c0.72,2.67-1.22,2.44-0.87,4.72c-8.99-2.02-21.79,5.63-27.75,0
				C949.82,1107.22,970.77,1106.82,977.11,1111.95z"/>
			<path class="st3" d="M527.02,1134.6c0,0.63,0,1.26,0,1.89c-0.4,6.11-8.46,3.14-13.01,3.77c-6.03,0.84-14.36,5.81-16.48,0
				C499.86,1131.52,520.7,1129.78,527.02,1134.6z"/>
			<path class="st3" d="M572.12,1135.54c0.5,3.07-0.59,4.4-0.87,6.61c-7.11-1.08-14.52-1.82-21.68-2.84
				C549.36,1126.39,566.01,1133.79,572.12,1135.54z"/>
			<path class="st3" d="M1021.34,1136.49c-3.38,4.99-20.58,8.01-23.41,1.89C1000.69,1132.16,1018.51,1128.53,1021.34,1136.49z"/>
			<path class="st3" d="M1073.37,1140.26c-0.84,0.03-0.67,1.16-0.87,1.89c-7.77,0.49-20.24-1.82-28.62-3.77
				C1044.94,1126.27,1071.6,1132.37,1073.37,1140.26z"/>
			<path class="st3" d="M478.46,1137.43c-2.99,10.98-18.22,3.4-26.88,2.83c-5.14-0.33-11.13,3.99-11.27-2.83
				c3.07-7.71,13.27-3.54,21.68-2.84C468.15,1135.11,476.26,1132.58,478.46,1137.43z"/>
			<path class="st3" d="M742.96,1142.15c0.11,1.69-1.06,1.99-0.87,3.78c-9.26-1.72-24.35-4.85-36.42-6.62
				c0.01-2.5-0.48-5.55,1.73-5.66C719.09,1132.95,737.65,1132.79,742.96,1142.15z"/>
			<path class="st3" d="M866.1,1138.38c-5.02,5.24-14.51,2.24-21.68,3.77c-6.03,1.28-11.58,7.22-15.61,2.83
				c-0.86-5.06,5.31-8.93,10.4-10.39C847.99,1132.1,864.94,1130.64,866.1,1138.38z"/>
			<path class="st3" d="M1130.61,1137.43c-0.39,6.69-6.32,2.37-10.41,2.83c-8.95,0.99-21.8,6.86-27.75-0.95
				c0.75-6.82,9.67-4.24,15.61-4.71C1116.59,1133.92,1128.14,1129.69,1130.61,1137.43z"/>
			<path class="st3" d="M622.41,1140.26c-1.74,11.83-19.31-1.16-27.75,2.84c0.14-1.1-0.19-1.68-0.87-1.89
				C595.83,1129.07,617.81,1135.29,622.41,1140.26z"/>
			<path class="st3" d="M928.54,1139.31c-2.58,5.52-14.67,5.9-24.28,6.62c-8.92,0.65-20.34,1.16-23.42-5.67
				c0.87-6.53,6.13-2.83,10.41-2.83C904.23,1137.43,923.77,1132.2,928.54,1139.31z"/>
			<path class="st3" d="M977.11,1139.31c0.11,1.7-1.06,2-0.87,3.78c-8.76-2.56-22.22,5.63-27.75,0
				C950,1133.75,972.51,1130.72,977.11,1139.31z"/>
			<path class="st3" d="M690.93,1139.31c-7.18,13.04-37.78,4.52-48.57,1.89c0-1.58,0-3.14,0-4.72c0.7-0.18,0.86-0.95,1.73-0.95
				c6.83-1.06,12.73,1.32,19.08,1.89C673.41,1138.35,684.74,1134.38,690.93,1139.31z"/>
			<path class="st3" d="M527.02,1157.25c1.05,8.02-10.36,5.76-16.48,6.6c-4.84,0.67-11.72,4.53-13.01-0.94
				C500.02,1153.98,521.16,1153.47,527.02,1157.25z"/>
			<path class="st3" d="M477.59,1161.97c-2.41,7.63-16.86,2.3-24.28,1.88c-2.57-0.14-12.63,3.42-13.01-2.82
				c-0.51-8.46,13.78-4.36,21.68-3.78C467.95,1157.7,477.99,1154.61,477.59,1161.97z"/>
			<path class="st3" d="M572.12,1158.2c0,1.89,0,3.78,0,5.66c-5.52,3.34-14.62-2.51-21.68-0.94
				C545.71,1150.54,567.48,1155.78,572.12,1158.2z"/>
			<path class="st3" d="M1021.34,1158.2c-1.56,8.32-15.06,5.51-22.55,5.66c0.14-1.1-0.19-1.67-0.87-1.88
				C998.79,1153.95,1016.82,1153.26,1021.34,1158.2z"/>
			<path class="st3" d="M1073.37,1161.97c-4.82,7.86-21.52-0.07-29.49-0.94c-0.62-2.89,0.89-3.44,0.87-5.67
				C1055.78,1155.95,1069.25,1153.87,1073.37,1161.97z"/>
			<path class="st3" d="M1130.61,1159.14c1.23,7.67-6.6,4.36-11.28,4.71c-8.39,0.65-20.98,4.98-26.01-0.94
				c-1.17-8.41,9.67-5.29,14.74-5.66C1116.38,1156.64,1127.09,1153.4,1130.61,1159.14z"/>
			<path class="st3" d="M623.28,1165.75c-6.31,5.64-19.36-2.46-28.62,0c0.11-1.69-1.06-1.99-0.87-3.77
				C599.48,1153.66,620.52,1156.79,623.28,1165.75z"/>
			<path class="st3" d="M977.11,1161.03c0.72,2.66-1.22,2.44-0.87,4.71c-8.58-2.74-22.33,5.75-27.75,0
				C950.84,1156.09,970.49,1154.89,977.11,1161.03z"/>
			<path class="st3" d="M690.93,1161.97c-7.76,13.5-35.3,3.87-48.57,2.83c-0.41-3.6,0.37-5.89,2.6-6.61
				C659.29,1161.37,680.11,1157.38,690.93,1161.97z"/>
			<path class="st3" d="M928.54,1161.03c-0.93,6.63-14.36,6.83-23.41,7.55c-9.51,0.75-21.1,1.14-24.29-5.67
				c3.37-6.51,15.08-2.15,26.02-2.83C914.95,1159.59,924.9,1155.26,928.54,1161.03z"/>
			<path class="st3" d="M742.96,1168.58c-1.24,7.49-10.1,1.9-13.01,0c-8.12-1.55-20.41,1.44-24.28-4.72
				c-0.37-1.97,0.59-2.5,0.87-3.77C719.08,1158.76,737.81,1158.73,742.96,1168.58z"/>
			<path class="st3" d="M866.1,1162.91c-2.38,8.11-16.62,3.31-24.28,5.67c-3.03,1.83-10.59,6.97-13,0.95
				c0.12-4.37,7.17-8.25,13-9.44C849.36,1158.54,862.96,1157.3,866.1,1162.91z"/>
			<path class="st3" d="M527.02,1184.63c0.12,6.71-10.95,4.86-17.34,5.66c-4.74,0.59-13.04,4.6-12.14-2.83
				C501.75,1181.75,522.22,1177.6,527.02,1184.63z"/>
			<path class="st3" d="M572.98,1186.51c-2.49,6.89-24.53,6.35-23.42-3.77C556.48,1180.45,568.91,1180.44,572.98,1186.51z"/>
			<path class="st3" d="M1021.34,1184.63c-1.41,7.88-18.36,7.45-23.41,3.77C999.11,1179.9,1017.49,1178.88,1021.34,1184.63z"/>
			<path class="st3" d="M1073.37,1188.4c-4.45,7.95-19.43-0.99-28.62,0C1041.41,1175.08,1071.12,1181.54,1073.37,1188.4z"/>
			<path class="st3" d="M478.46,1187.45c-3.38,8-14.65,3.28-23.41,2.83c-6.04-0.31-13.82,2.63-14.74-2.83
				c0.3-7.07,9.18-6.05,14.74-5.66C463.03,1182.35,475.51,1183.37,478.46,1187.45z"/>
			<path class="st3" d="M1130.61,1185.57c1.19,7.07-7.25,4.37-13.01,4.72c-8.59,0.51-18.28,4.34-24.28-0.94c0-1.58,0-3.15,0-4.72
				C1104.74,1185.66,1121.24,1177.2,1130.61,1185.57z"/>
			<path class="st3" d="M623.28,1191.23c-6.15,7.96-16.75-3.34-28.62,0.94C591.39,1178.29,621.37,1182.8,623.28,1191.23z"/>
			<path class="st3" d="M977.11,1187.45c0.72,2.67-1.22,2.45-0.87,4.72c-8.71-3.41-21.57,5.08-27.75,0
				C949.98,1181.95,971.04,1181.32,977.11,1187.45z"/>
			<path class="st3" d="M690.93,1188.4c-0.87,7.13-11.2,6.62-17.35,6.61c-11-0.02-25.28-1.49-31.22-5.66
				c0.07-1.5-0.42-3.6,0.87-3.77c0.7-0.19,0.86-0.95,1.73-0.95c10.61-0.08,23.35,2.15,33.82,1.88
				C683.16,1186.4,688.67,1183.12,690.93,1188.4z"/>
			<path class="st3" d="M742.96,1193.12c0.41,2.96-1.23,3.68-1.73,5.66c-9.19-5.73-26.36-2.77-35.56-8.49
				c-0.17-2.7-0.11-5.15,2.6-4.72C719.59,1184.64,736.45,1185.68,742.96,1193.12z"/>
			<path class="st3" d="M866.1,1190.29c-4.35,5.93-14.8,2.09-22.55,3.77c-5.51,1.21-13.86,9.55-14.74,0
				C831.59,1187.64,860.82,1178.81,866.1,1190.29z"/>
			<path class="st3" d="M928.54,1187.45c-1.44,6.75-20.78,7.45-29.48,7.55c-7.11,0.08-16.22,0.02-18.21-5.66
				c-0.24-2.47,0.32-4.06,2.61-3.77C895.24,1189.75,917.61,1180.58,928.54,1187.45z"/>
			<path class="st3" d="M527.02,1206.33c1.54,8.02-11.23,5.85-17.34,6.6c-5.02,0.62-13.1,4.6-12.14-2.83
				C502.43,1204.34,520.85,1201.7,527.02,1206.33z"/>
			<path class="st3" d="M1073.37,1210.1c0.11,1.7-1.06,2-0.87,3.78c-7.89,0.62-21.02-0.96-28.62-3.78
				C1045.01,1197.92,1068.65,1205.65,1073.37,1210.1z"/>
			<path class="st3" d="M478.46,1210.1c-2.75,8.61-15.25,3.37-23.41,2.83c-5.94-0.38-13.54,3.07-14.74-2.83
				c3.11-10.5,17.04-3.61,26.02-2.82C471.12,1207.69,477.61,1203.8,478.46,1210.1z"/>
			<path class="st3" d="M572.98,1208.22c0.23,2.76-1.96,2.9-1.73,5.66c-6.68-0.91-14.65-0.42-20.81-1.89
				C545.91,1199.24,569.14,1204.79,572.98,1208.22z"/>
			<path class="st3" d="M1021.34,1207.28c-0.37,7.95-21.33,8.74-23.41,2.82C999.97,1203.9,1016.87,1201.77,1021.34,1207.28z"/>
			<path class="st3" d="M1130.61,1208.22c0.66,7.63-8.59,4.36-13.88,4.71c-8.1,0.55-18.75,4.78-23.41-0.94
				c-1.48-8.17,5.89-4.31,10.41-4.71C1112.15,1206.52,1125.36,1201.05,1130.61,1208.22z"/>
			<path class="st3" d="M622.41,1211.99c0.87,9.8-7.71,3.4-13.01,2.83c-5.72-0.61-12.59,2.67-15.61-0.94
				C594.84,1200.64,617.53,1207.23,622.41,1211.99z"/>
			<path class="st3" d="M977.11,1209.17c0.51,3.39-1.01,4.56-1.74,6.61c-9.89-4.62-21.31,5.42-26.88-0.95
				C951.06,1204.83,969.12,1205.13,977.11,1209.17z"/>
			<path class="st3" d="M690.93,1211.05c-6.22,12.25-36.21,5.33-48.57,1.89c0-1.57,0-3.15,0-4.71c0.7-0.19,0.86-0.95,1.73-0.94
				c10.37-1.38,20.87,2.98,30.36,2.82C680.12,1210.02,687.16,1205.16,690.93,1211.05z"/>
			<path class="st3" d="M928.54,1210.1c0.16,7.43-7.86,5.1-13.01,5.67c-11.22,1.24-27.51,4.42-34.69-1.89
				c-0.57-9.86,9.73-3.95,15.61-3.78C906.73,1210.42,921.69,1203.16,928.54,1210.1z"/>
			<path class="st3" d="M742.96,1219.55c0.36,2.27-1.58,2.05-0.87,4.72c-8.91-2.11-24.22-4.98-36.42-6.61
				c0.01-2.5-0.48-5.55,1.73-5.66C719.57,1210.45,736.44,1211.81,742.96,1219.55z"/>
			<path class="st3" d="M866.1,1214.83c-2.89,8.39-15.56,3.71-23.41,5.66c-5.83,1.45-8.79,6.19-13.01,3.78
				c-3.44-7.63,7.33-10.94,14.74-12.27C851.52,1210.72,863.73,1208.84,866.1,1214.83z"/>
		</g>
	</g>
</g>
</svg>
