<svg id="a14f8d53-5248-4253-bbc9-918e80bbc5e9" xmlns="http://www.w3.org/2000/svg" viewBox="0 0 88.61688 124.52477"><path d="M 0 0.1 H 89 v 124.8 H 0 Z M 2.3 2.2 c 0 0.4 0 0.8 0 1.1 Q 2.3 23.2 2.3 43 c 0 4.8 -0.1 9.5 0.2 14.3 A 80.5 80.5 0 0 0 7.1 79.1 A 79.9 79.9 0 0 0 25.6 108.9 a 79 79 0 0 0 18.3 13.9 a 2.3 2.3 0 0 0 1.8 0 A 71.3 71.3 0 0 0 61.9 111.1 A 78.1 78.1 0 0 0 81.4 82.6 a 74 74 0 0 0 5.5 -26.7 c 0.1 -17.4 0 -34.8 0 -52.2 V 2.2 Z" fill="#00000000"/><path d="M 2.3 2.2 H 86.9 v 1.4 c 0 17.4 0.1 34.8 0 52.2 A 74 74 0 0 1 81.4 82.6 A 78.1 78.1 0 0 1 61.9 111.1 a 71.3 71.3 0 0 1 -16.1 11.7 a 2.3 2.3 0 0 1 -1.8 0 A 79 79 0 0 1 25.6 108.9 A 79.9 79.9 0 0 1 7.1 79.1 A 80.5 80.5 0 0 1 2.5 57.2 c -0.3 -4.7 -0.2 -9.5 -0.2 -14.3 Q 2.3 23.2 2.3 3.4 C 2.3 3 2.3 2.7 2.3 2.2 Z M 27.4 21.4 a 6.8 6.8 0 0 1 -1.1 0.4 c -0.6 0.1 -1.3 0.2 -2 0.2 l -2.2 0.3 l -0.2 0.4 l 4.7 2.6 l -3.5 2.3 c 3.2 1 6.3 1.4 9.3 0.5 a 27.8 27.8 0 0 1 9.1 -1 c 1.9 0 3.8 0 5.7 0 a 7.3 7.3 0 0 1 1.3 0.2 l -1.4 0.4 l -0.5 0 l -0.2 0 a 0.3 0.3 0 0 1 -0.2 0.1 l -0.1 0.5 l 0 1 c 0 0 -0.1 0.1 -0.1 0.1 a 1 1 0 0 0 0.1 0.2 l 0 4.8 l -0.1 0.5 l -0.5 1.1 l -0.5 -0.9 V 28 h -2.9 v 5.9 c -0.9 -0.1 -1.7 -0.2 -2.6 -0.2 q -7.5 0 -14.9 0 a 3 3 0 0 0 -1 0.4 l -2.2 2.4 c -0.1 0.4 -0.2 0.7 -0.4 1.1 l -0.9 0.4 V 78.1 c 0.5 0 1 0 1.4 0 q 4.2 -0.1 8.4 -0.2 q 6.1 -0.2 12.2 -0.4 V 89.7 h 2.8 c 0 -4.2 0 -8.3 0 -12.4 l 1.2 0 V 89.9 l 2.9 -0.3 c 0 0 0.1 -0.1 0.1 -0.1 a 1.2 1.2 0 0 0 -0.1 -0.2 l 0 -3.4 l 0.5 0 a 14.6 14.6 0 0 0 2.8 -8.4 l 0.3 -0.1 l 17.7 0.6 V 37.9 l -1.1 -0.2 l 0.1 -1.2 L 68.2 36.1 l 0.1 -0.2 l -1.1 -1.3 l -0.2 -1 H 55.7 a 56 56 0 0 0 -0.9 -6.5 c -0.6 -2.5 -2.4 -3.5 -4.9 -3.5 c -3.8 -0.1 -7.7 -0.2 -11.5 -0.3 a 6.8 6.8 0 0 1 -4.1 -1.1 a 9.1 9.1 0 0 0 -2.3 -0.9 l -0.5 0.8 l -0.5 -0.9 l -1.8 -0.8 v 2.4 l 0.2 0.2 l 0.5 0 l 0.2 0.4 q -0.8 0 -1.7 0 l 0.2 -0.5 V 20.5 Z M 68 91.8 l -0.1 -0.1 c 0 -2 -0.3 -3.9 -1.9 -5.3 a 5.9 5.9 0 0 0 -1.5 6.8 a 4.5 4.5 0 0 0 1.7 2.2 c 2.8 1.4 7.1 -1.5 7.2 -4.8 C 71.3 89.9 69.6 90.8 68 91.8 Z M 34.6 107.1 a 5.8 5.8 0 0 0 -5.8 0.7 a 21.2 21.2 0 0 0 3 2.6 c 1.9 1.1 4.9 0.6 5.9 -0.7 c 1.8 -2.5 0.4 -7.2 -2.6 -8.5 a 7.1 7.1 0 0 0 -0.6 1.9 c 0 1.3 0.1 2.7 0.2 4 Z m 14.7 6.2 l 0 -0.7 a 7.9 7.9 0 0 0 -1.8 -7.8 l 1.1 -0.5 v -2.1 l -2.6 0.7 l -1.3 -1.8 l 4 -1.2 V 97.7 l -5.4 1.5 L 41.3 94.9 l -4.1 -1.7 A 14.6 14.6 0 0 0 42.7 103.7 v 2.3 l 2.4 -0.6 l 1.5 1.7 l -3.9 1.2 v 2.2 l 5 -1.4 l 0.7 1.9 l -6.9 2.3 v 1.8 h 8.1 Z m 6.6 -12 a 6.3 6.3 0 0 0 -2.9 6.3 c 0.1 1.1 0.4 2.3 1.6 2.9 a 5.5 5.5 0 0 0 7.7 -3.1 c -1.7 -1.2 -3.6 -0.9 -5.5 -0.3 C 57.1 104 57 102.9 55.8 101.3 Z M 78.7 67.1 c -0.5 -2.2 -1.2 -4 -3.2 -5 a 6.3 6.3 0 0 0 1.6 8.5 a 1.9 1.9 0 0 0 0.8 0.3 c 3.3 0.4 6.7 -3.6 5.7 -6.8 C 81.4 64.1 80 65.4 78.7 67.1 Z M 4 17.1 c -1.2 3.6 0.6 6.8 4.4 8 c 3.5 -1.2 5.6 -5.4 3.9 -8 a 6.4 6.4 0 0 0 -4 4 C 7.1 18.6 5.9 17.5 4 17.1 Z m 10.4 45.5 c -1.9 1.2 -2.6 3 -3 5.1 c -2 -2.1 -3.4 -2.8 -5.1 -2.5 a 5.8 5.8 0 0 0 5.3 6.4 a 2.6 2.6 0 0 0 1.5 -0.4 A 6.4 6.4 0 0 0 14.5 62.6 Z M 62.9 99.7 c 0.1 -2.2 -0.2 -4.1 -1.7 -5.6 c -2.6 1.9 -2.8 7 -0.5 8.9 a 1.9 1.9 0 0 0 0.6 0.3 A 5.7 5.7 0 0 0 68.4 98.5 C 66.4 97.8 64.6 98.5 62.9 99.7 Z M 76.7 34.5 c -1.3 2.9 0.9 7.1 3.9 7.8 a 1.5 1.5 0 0 0 0.6 0 c 3.2 -0.6 5.4 -5.1 3.9 -8.2 a 6.6 6.6 0 0 0 -4.1 4.3 A 6.2 6.2 0 0 0 76.7 34.5 Z M 12.5 44.2 a 6.5 6.5 0 0 0 -4.2 4 c -0.9 -2 -2.1 -3.6 -4.2 -4.1 a 6.1 6.1 0 0 0 3.7 7.9 a 2.1 2.1 0 0 0 1.2 0.1 C 11.9 51.3 13.7 47.3 12.5 44.2 Z m 4.7 27.1 a 6.7 6.7 0 0 0 -2.6 5.3 A 5.8 5.8 0 0 0 9.3 74.4 A 5.7 5.7 0 0 0 13.8 80.2 a 4.1 4.1 0 0 0 2.4 -0.2 C 18.9 78.6 19.3 73.6 17.1 71.3 Z M 4.1 35 A 6.2 6.2 0 0 0 6.7 42.4 a 3.5 3.5 0 0 0 2.1 0.6 c 3 -0.6 5 -4.9 3.6 -7.8 A 6.4 6.4 0 0 0 8.3 39.1 A 6.3 6.3 0 0 0 4.1 35 Z m 72.8 8.7 a 6 6 0 0 0 0.2 4.2 c 0.8 1.8 2.1 3.4 4.1 3.4 c 2 0 3.3 -1.6 4.1 -3.4 a 5.9 5.9 0 0 0 0.1 -4.8 a 6.6 6.6 0 0 0 -4.1 4.2 C 80.2 45.6 79.1 44.1 76.8 43.7 Z M 28.2 99.8 c -1.9 -1.1 -3.6 -1.8 -5.6 -1 a 5.6 5.6 0 0 0 7.3 4.4 a 1.8 1.8 0 0 0 0.6 -0.4 c 2.2 -2.2 1.8 -6.9 -0.8 -8.8 C 28.3 95.7 28 97.5 28.2 99.8 Z M 4.1 25.4 A 6.1 6.1 0 0 0 6.4 32.6 a 3.9 3.9 0 0 0 2.4 0.7 c 3 -0.5 4.9 -4.8 3.7 -7.7 c -1.8 0.3 -2.8 1.2 -4.2 3.8 A 6.5 6.5 0 0 0 4.1 25.4 Z m 66.3 53 a 6.4 6.4 0 0 0 -0.4 8.7 a 1.9 1.9 0 0 0 0.8 0.5 a 5.7 5.7 0 0 0 7 -4.9 c -2 -0.7 -3.8 0 -5.5 1.4 A 6.7 6.7 0 0 0 70.4 78.4 Z m 2.5 -7.6 a 6.1 6.1 0 0 0 -0.5 6.5 a 4.7 4.7 0 0 0 2.2 2.3 c 3.1 0.9 6.8 -2.7 6.3 -6.2 a 14.3 14.3 0 0 0 -2.7 0.7 a 16.4 16.4 0 0 0 -2.4 1.6 C 74.8 72.4 74.5 71.9 72.9 70.8 Z M 12.5 54.4 a 6.4 6.4 0 0 0 -3.7 4.4 C 7.7 57 6.4 55.6 4.2 55.3 a 5.9 5.9 0 0 0 3.4 7 a 3.5 3.5 0 0 0 2.1 0.3 C 12.6 61.7 14.2 57.2 12.5 54.4 Z M 76.1 16.6 c -1.1 3 0.8 6.9 3.8 7.7 a 1.9 1.9 0 0 0 0.9 0 a 6.1 6.1 0 0 0 3.7 -8.1 a 6.5 6.5 0 0 0 -4.1 4.2 C 79.5 18.5 78.2 17.1 76.1 16.6 Z M 12.8 83.3 a 5.6 5.6 0 0 0 6.3 4.8 a 2.9 2.9 0 0 0 1.7 -0.8 a 6.3 6.3 0 0 0 -0.8 -8.6 a 6.9 6.9 0 0 0 -1.7 5.7 A 6 6 0 0 0 12.8 83.3 Z m 4.6 7.8 a 5.8 5.8 0 0 0 3.7 4.5 a 4.2 4.2 0 0 0 4 -0.2 c 2.4 -1.8 2 -6.9 -0.5 -8.8 a 6.9 6.9 0 0 0 -1.7 5.6 C 21.2 91 19.4 90.4 17.4 91.1 Z M 84.7 24.6 a 6.6 6.6 0 0 0 -4 4.1 c -1.4 -2.5 -2.8 -3.5 -4.4 -3.5 a 6.1 6.1 0 0 0 3.5 7.4 a 2.3 2.3 0 0 0 1.2 0.2 C 84.1 32.1 86.2 27.6 84.7 24.6 Z M 81 58.1 c -1 -2.6 -2.1 -3.8 -3.9 -4.2 c -1.6 2.7 0.1 7.1 3.1 8 a 1.9 1.9 0 0 0 0.9 0 a 6 6 0 0 0 4.3 -7.5 A 6.2 6.2 0 0 0 81 58.1 Z M 44.9 8.5 c -3.5 4.3 -2.8 9.1 -2.8 13.8 H 44.9 Z M 49 22.3 c -0.1 -4.8 0.7 -9.6 -2.8 -13.7 V 22.3 Z M 8.3 7.2 c -2.7 2.3 -2.6 7.2 0.1 9 C 10.8 13.6 10.8 9.4 8.3 7.2 Z m 72.1 8.3 c 2.6 -2.5 2.4 -7.2 -0.3 -9 A 6.3 6.3 0 0 0 80.3 15.5 Z M 41.5 85.5 a 8.4 8.4 0 0 0 -4.2 6.5 l 4.2 -2.5 Z M 20.6 26.4 l 4.5 -1 l -6.7 -0.5 c 0 0.6 0.2 1.3 -0.1 1.8 c -0.2 0.4 -0.9 0.6 -1.4 0.9 C 18.4 28.6 19.4 28.3 20.6 26.4 Z M 50.8 93.2 H 40.2 a 4.2 4.2 0 0 0 3.4 0.9 a 14 14 0 0 1 3.8 0 A 4.2 4.2 0 0 0 50.8 93.2 Z m -8.1 4 l 5.9 -1.7 l -0.1 -0.4 H 42.7 Z m 7.9 -5.4 l 0.1 -0.5 c -1.1 -0.1 -2.1 -0.3 -3.2 -0.4 a 46.4 46.4 0 0 0 -4.7 -0.1 a 13.4 13.4 0 0 0 -2.5 0.6 l 0.1 0.3 Z" fill="#eb2828"/><path d="M 48.5 27.4 a 7.3 7.3 0 0 0 -1.3 -0.2 c -1.9 0 -3.8 0 -5.7 0 a 27.8 27.8 0 0 0 -9.1 1 c -3 1 -6.2 0.5 -9.3 -0.5 l 3.5 -2.3 L 21.9 22.8 l 0.2 -0.4 l 2.2 -0.3 h 2.2 l 1.8 1.2 l 1.7 0 q 0.7 -0.6 1.4 -1.2 l 0.5 -0.8 a 9.1 9.1 0 0 1 2.3 0.9 a 6.8 6.8 0 0 0 4.1 1.1 c 3.8 0.1 7.7 0.3 11.5 0.3 c 2.6 0.1 4.3 1.1 4.9 3.5 a 56 56 0 0 1 0.9 6.5 q -2.6 0 -5.1 0 a 26.7 26.7 0 0 0 -0.2 -3.6 A 3.1 3.1 0 0 0 48.5 27.4 Z" fill="#fef5f2"/><path d="M 49.2 113.3 l 0.5 1.8 H 41.6 v -1.8 l 6.9 -2.3 l -0.7 -1.9 l -5 1.4 v -2.2 l 3.9 -1.2 l -1.5 -1.7 l -2.4 0.6 V 103.7 a 14.6 14.6 0 0 1 -5.5 -10.6 l 4.1 1.7 l 1.7 4.4 l 5.4 -1.5 v 2.2 l -4 1.2 l 1.3 1.8 l 2.6 -0.7 v 2.1 l -1.1 0.5 a 7.9 7.9 0 0 1 1.8 7.8 q -0.3 -0.2 -0.7 -0.4 l -0.2 0.3 Z" fill="#fef3f0"/><path d="M 55.8 101.3 c 1.1 1.6 1.3 2.7 0.8 5.9 c 1.9 -0.7 3.8 -0.9 5.5 0.3 a 5.5 5.5 0 0 1 -7.7 3.1 c -1.2 -0.6 -1.4 -1.8 -1.6 -2.9 A 6.3 6.3 0 0 1 55.8 101.3 Z" fill="#262d1a"/><path d="M 78.7 67.1 c 1.3 -1.7 2.7 -3 4.9 -2.9 c 0.9 3.2 -2.5 7.2 -5.7 6.8 a 1.9 1.9 0 0 1 -0.8 -0.3 A 6.3 6.3 0 0 1 75.5 62.1 C 77.4 63.1 78.2 64.9 78.7 67.1 Z" fill="#262d1a"/><path d="M 4 17.1 c 1.9 0.4 3.1 1.5 4.3 4 a 6.4 6.4 0 0 1 4 -4 c 1.7 2.6 -0.4 6.8 -3.9 8 C 4.7 24 2.9 20.7 4 17.1 Z" fill="#262d1a"/><path d="M 14.5 62.6 a 6.4 6.4 0 0 1 -1.2 8.5 a 2.6 2.6 0 0 1 -1.5 0.4 A 5.8 5.8 0 0 1 6.3 65.2 c 1.7 -0.3 3.1 0.4 5.1 2.5 C 11.8 65.7 12.5 63.8 14.5 62.6 Z" fill="#262d1a"/><path d="M 62.9 99.7 c 1.8 -1.2 3.5 -1.9 5.6 -1.2 a 5.7 5.7 0 0 1 -7.1 4.7 a 1.9 1.9 0 0 1 -0.6 -0.3 c -2.4 -1.9 -2.1 -7 0.5 -8.9 C 62.7 95.6 63 97.5 62.9 99.7 Z" fill="#262d1a"/><path d="M 76.7 34.5 a 6.2 6.2 0 0 1 4.2 3.9 a 6.6 6.6 0 0 1 4.1 -4.3 c 1.5 3.1 -0.6 7.6 -3.9 8.2 a 1.5 1.5 0 0 1 -0.6 0 C 77.5 41.6 75.4 37.4 76.7 34.5 Z" fill="#262d1a"/><path d="M 12.5 44.2 c 1.3 3 -0.6 7 -3.5 7.9 a 2.1 2.1 0 0 1 -1.2 -0.1 a 6.1 6.1 0 0 1 -3.7 -7.9 c 2.2 0.6 3.4 2.1 4.2 4.1 A 6.5 6.5 0 0 1 12.5 44.2 Z" fill="#262d1a"/><path d="M 17.1 71.3 c 2.2 2.3 1.8 7.2 -0.9 8.7 a 4.1 4.1 0 0 1 -2.4 0.2 A 5.7 5.7 0 0 1 9.3 74.4 a 5.8 5.8 0 0 1 5.3 2.3 A 6.7 6.7 0 0 1 17.1 71.3 Z" fill="#262d1a"/><path d="M 34.6 107.1 c -0.1 -1.3 -0.2 -2.7 -0.2 -4 a 7.1 7.1 0 0 1 0.6 -1.9 c 3 1.3 4.4 6 2.6 8.5 c -0.9 1.3 -4 1.8 -5.9 0.7 a 21.2 21.2 0 0 1 -3 -2.6 a 5.8 5.8 0 0 1 5.8 -0.7 l 0.1 0 Z" fill="#262d1a"/><path d="M 4.1 35 A 6.3 6.3 0 0 1 8.3 39.1 a 6.4 6.4 0 0 1 4.1 -4 c 1.4 2.9 -0.6 7.2 -3.6 7.8 A 3.5 3.5 0 0 1 6.7 42.4 A 6.2 6.2 0 0 1 4.1 35 Z" fill="#262d1a"/><path d="M 68 91.8 c 1.7 -1 3.3 -1.9 5.4 -1.1 c -0.1 3.3 -4.3 6.2 -7.2 4.8 a 4.5 4.5 0 0 1 -1.7 -2.2 a 5.9 5.9 0 0 1 1.5 -6.8 c 1.6 1.4 1.9 3.3 1.9 5.3 c 0 0.1 -0.1 0.1 -0.1 0.2 Z" fill="#262d1a"/><path d="M 76.8 43.7 c 2.2 0.4 3.4 1.9 4.4 3.8 a 6.6 6.6 0 0 1 4.1 -4.2 a 5.9 5.9 0 0 1 -0.1 4.8 c -0.8 1.8 -2.1 3.4 -4.1 3.4 c -2 0 -3.3 -1.6 -4.1 -3.4 A 6 6 0 0 1 76.8 43.7 Z" fill="#262d1a"/><path d="M 28.2 99.8 c -0.2 -2.3 0.1 -4.1 1.6 -5.7 c 2.6 1.9 3 6.6 0.8 8.8 a 1.8 1.8 0 0 1 -0.6 0.4 a 5.6 5.6 0 0 1 -7.3 -4.4 C 24.6 98 26.3 98.6 28.2 99.8 Z" fill="#262d1a"/><path d="M 4.1 25.4 a 6.5 6.5 0 0 1 4.2 4.1 c 1.4 -2.6 2.5 -3.5 4.2 -3.8 c 1.3 2.8 -0.7 7.1 -3.7 7.7 A 3.9 3.9 0 0 1 6.4 32.6 A 6.1 6.1 0 0 1 4.1 25.4 Z" fill="#262d1a"/><path d="M 70.4 78.4 a 6.7 6.7 0 0 1 1.9 5.7 c 1.7 -1.3 3.5 -2 5.5 -1.4 A 5.7 5.7 0 0 1 70.7 87.6 a 1.9 1.9 0 0 1 -0.8 -0.5 A 6.4 6.4 0 0 1 70.4 78.4 Z" fill="#262d1a"/><path d="M 72.9 70.8 c 1.6 1 1.9 1.6 3 4.9 a 16.4 16.4 0 0 1 2.4 -1.6 a 14.3 14.3 0 0 1 2.7 -0.7 c 0.5 3.6 -3.2 7.1 -6.3 6.2 a 4.7 4.7 0 0 1 -2.2 -2.3 A 6.1 6.1 0 0 1 72.9 70.8 Z" fill="#262d1a"/><path d="M 12.5 54.4 c 1.6 2.8 0.1 7.2 -2.8 8.2 a 3.5 3.5 0 0 1 -2.1 -0.3 A 5.9 5.9 0 0 1 4.2 55.3 c 2.2 0.3 3.5 1.6 4.6 3.5 A 6.4 6.4 0 0 1 12.5 54.4 Z" fill="#262d1a"/><path d="M 76.1 16.6 c 2.1 0.5 3.3 1.9 4.3 3.8 a 6.5 6.5 0 0 1 4.1 -4.2 A 6.1 6.1 0 0 1 80.8 24.3 a 1.9 1.9 0 0 1 -0.9 0 C 76.9 23.5 75 19.6 76.1 16.6 Z" fill="#262d1a"/><path d="M 12.8 83.3 a 6 6 0 0 1 5.5 1.1 a 6.9 6.9 0 0 1 1.7 -5.7 a 6.3 6.3 0 0 1 0.8 8.6 a 2.9 2.9 0 0 1 -1.7 0.8 A 5.6 5.6 0 0 1 12.8 83.3 Z" fill="#262d1a"/><path d="M 17.4 91.1 c 2 -0.7 3.8 -0.1 5.6 1.2 A 6.9 6.9 0 0 1 24.6 86.6 c 2.6 1.8 2.9 7 0.5 8.8 a 4.2 4.2 0 0 1 -4 0.2 A 5.8 5.8 0 0 1 17.4 91.1 Z" fill="#262d1a"/><path d="M 84.7 24.6 c 1.5 3 -0.6 7.5 -3.8 8.1 a 2.3 2.3 0 0 1 -1.2 -0.2 a 6.1 6.1 0 0 1 -3.5 -7.4 c 1.6 0 2.9 1.1 4.4 3.5 A 6.6 6.6 0 0 1 84.7 24.6 Z" fill="#262d1a"/><path d="M 81 58.1 a 6.2 6.2 0 0 1 4.5 -3.7 A 6 6 0 0 1 81.2 61.9 a 1.9 1.9 0 0 1 -0.9 0 c -3 -0.9 -4.7 -5.4 -3.1 -8 C 78.9 54.4 80 55.6 81 58.1 Z" fill="#262d1a"/><path d="M 50.6 33.7 q 2.6 0 5.1 0 c 3.8 0 7.6 0 11.4 0 l 0.2 1 l 1.1 1.3 l -0.1 0.2 l 1 0.4 c 0 0.4 -0.1 0.8 -0.1 1.2 q 0.1 0.2 0.2 0.5 a 10.2 10.2 0 0 0 -0.2 1.4 q 0 18 0 36 a 6.4 6.4 0 0 1 -0.3 1.3 l 0 -0.6 l -0.1 -2 l 0 -1.7 l 0 -2.3 l 0 -2.9 l 0 -4 l 0 -2.9 l 0 -2.8 l 0 -2.9 l 0 -2.3 V 49.2 l 0 -1.1 q 0 -2.2 0 -4.4 l 0 -1.1 l 0 -4.6 l 0 -0.4 l 0 -0.3 l 0 -0.4 l -0.6 -0.1 l 0 0 l -0.3 0 l -0.2 -0.3 l -0.2 -0.8 a 1 1 0 0 0 -0.4 0.7 q 0 18.4 0 36.8 l -0.1 1.4 a 0.3 0.3 0 0 1 -0.2 0 l -0.2 -0.4 c 0 -0.4 0 -0.9 0 -1.3 q 0 -17.8 0 -35.7 c 0 -0.6 0 -1.1 0.1 -1.7 L 66.8 34.4 a 9.9 9.9 0 0 0 -1.3 -0.2 q -7.2 0 -14.3 0 l -0.3 0 l -1.5 0.1 l -0.5 0 a 0.2 0.2 0 0 1 -0.2 0 l -0.5 -0.2 l 0.7 -0.3 Z" fill="#ae322c"/><path d="M 44.9 77.4 V 89.7 H 42 c 0 -4.1 0 -8.2 0 -12.3 a 0.3 0.3 0 0 0 0.2 -0.1 Z" fill="#fef3f0"/><path d="M 49 89.6 l -2.9 0.3 c 0 -4.3 0 -8.4 0 -12.6 q 1.3 0 2.6 0 a 0.3 0.3 0 0 0 0.2 0.1 q 0 4.3 0.1 8.6 l 0 3.4 Z" fill="#fef3f0"/><path d="M 44.9 8.5 v 13.8 H 42.1 C 42.1 17.5 41.3 12.7 44.9 8.5 Z" fill="#fef1ed"/><path d="M 49 22.3 H 46.2 V 8.6 C 49.7 12.7 48.9 17.5 49 22.3 Z" fill="#fef1ed"/><path d="M 48.3 34.2 l 0.5 0.2 c -0.2 0.1 -0.4 0.2 -0.7 0.2 c -2.2 0.7 -2.5 1 -2.5 3.3 q 0 17.6 0 35.2 c 0 0.3 0.1 0.7 0.1 1 l 0.1 0.7 c 0.8 0.1 1.6 0.1 2.4 0.2 l 0 0.3 q -1.2 0 -2.4 0.1 l -0.2 0.4 l -0.5 0 c -0.2 -0.2 -0.4 -0.4 -0.6 -0.4 c -0.7 -0.1 -1.5 0 -2.3 -0.1 l 0 -0.3 l 2.8 -0.2 l 0 -0.2 l -1 -0.1 l 1.1 -0.6 a 0.5 0.5 0 0 0 0 -0.2 q 0 -18.3 0 -36.6 a 2.4 2.4 0 0 0 -1.7 -2.4 c -0.4 -0.2 -0.8 -0.3 -1.2 -0.5 l 0 -0.4 l 2.6 1 l 0.5 0.9 c 0.2 -0.5 0.4 -0.8 0.5 -1.1 c 0.1 0 0.2 0 0.3 -0.1 Z" fill="#b34e40"/><path d="M 8.3 7.2 c 2.5 2.2 2.5 6.4 0.1 9 C 5.6 14.4 5.6 9.5 8.3 7.2 Z" fill="#262d1a"/><path d="M 80.3 15.5 a 6.3 6.3 0 0 1 -0.3 -9 C 82.7 8.3 82.9 13 80.3 15.5 Z" fill="#262d1a"/><path d="M 42.3 77.3 a 0.3 0.3 0 0 1 -0.2 0.1 q -6.1 0.2 -12.2 0.4 q -4.2 0.1 -8.4 0.2 c -0.4 0 -0.9 0 -1.4 0 V 38 c 0.4 -0.2 0.6 -0.3 0.9 -0.4 q 0.2 -0.5 0.4 -1.1 q 0 0.1 0.1 0.1 l 0.2 0.2 l 0 0 l -0.2 1.4 l -0.3 0 l 0 0 l -0.7 0 q 0 18.9 0 37.7 a 13.1 13.1 0 0 0 0.2 1.6 l 0.5 0 l 0.5 0 l 1.7 0 L 41.5 77 l 0.2 0 l 0.5 0 Z" fill="#ad2c27"/><path d="M 44.9 35.2 L 42.3 34.1 l -0.3 -0.2 V 28 h 2.9 Z" fill="#fef3f0"/><path d="M 48.3 34.2 q -1.1 0.3 -2.1 0.7 l -0.1 -0.5 l 0 -4.8 l 0 -0.2 l 0 -1 l 0.1 -0.5 a 0.3 0.3 0 0 0 0.2 -0.1 l 0.2 0 l 0.5 0 l 1.9 0.2 v 5.9 Z" fill="#fef1ed"/><path d="M 52.3 77.6 a 14.6 14.6 0 0 1 -2.8 8.4 q 0 -4.3 0 -8.5 q 0.4 0 0.9 0 l 1.3 0.1 Z" fill="#fef1ed"/><path d="M 69.4 38.2 q -0.1 -0.2 -0.2 -0.5 c 0.3 0.1 0.7 0.1 1.1 0.2 V 78.1 c -5.9 -0.2 -11.8 -0.4 -17.7 -0.6 l 0 -0.4 l 1 0 l 1.5 0 l 5.5 0.2 l 1.7 0 l 0.7 0 l 0.3 0 h 6.8 c 0 -0.4 0 -0.8 0 -1.3 q 0 -18.5 0 -37 C 70 38.8 69.6 38.5 69.4 38.2 Z" fill="#ad2c27"/><path d="M 41.5 85.5 v 4 l -4.2 2.5 A 8.4 8.4 0 0 1 41.5 85.5 Z" fill="#fef1ed"/><path d="M 21.3 36.5 q 1.1 -1.2 2.2 -2.4 l 0 0 q 0.1 0.4 0.2 0.7 l 0 1 a 1.4 1.4 0 0 0 -0.2 0 q -0.1 0 -0.2 0 l -0.6 -0.2 V 75.4 h 2.2 l 1.5 0 l 1.7 0 l 0 0.3 H 22.3 c 0 -0.5 0 -1 0 -1.4 q 0 -18.1 0 -36.1 a 2.7 2.7 0 0 0 0 -0.9 c -0.1 -0.2 -0.4 -0.3 -0.6 -0.4 l 0 0 l -0.2 -0.2 Q 21.4 36.6 21.3 36.5 Z" fill="#ad2c27"/><path d="M 20.6 26.4 c -1.2 1.9 -2.2 2.1 -3.6 1.2 c 0.5 -0.3 1.2 -0.5 1.4 -0.9 c 0.2 -0.5 0.1 -1.2 0.1 -1.8 l 6.7 0.5 Z" fill="#fbe5dd"/><path d="M 50.8 93.2 a 4.2 4.2 0 0 1 -3.4 0.9 a 14 14 0 0 0 -3.8 0 A 4.2 4.2 0 0 1 40.2 93.2 Z" fill="#fbe5dd"/><path d="M 42.7 97.2 V 95 h 5.8 l 0.1 0.4 Z" fill="#fbe5dd"/><path d="M 49 33.9 V 28 l -1.9 -0.2 l 1.4 -0.4 a 3.1 3.1 0 0 1 1.9 2.7 a 26.7 26.7 0 0 1 0.2 3.6 Q 49.8 33.8 49 33.9 Z" fill="#ec3b32"/><path d="M 50.6 91.7 H 40.4 l -0.1 -0.3 a 13.4 13.4 0 0 1 2.5 -0.6 a 46.4 46.4 0 0 1 4.7 0.1 c 1.1 0.1 2.1 0.2 3.2 0.4 Z" fill="#fbe5dd"/><path d="M 42 33.9 l 0.3 0.2 l 0 0.4 l -0.7 -0.1 l -1.1 -0.1 l -16.6 -0.1 l -0.3 0 l 0 0 a 2.9 2.9 0 0 1 1 -0.4 q 7.5 0 14.9 0 C 40.3 33.7 41.1 33.9 42 33.9 Z" fill="#ad2c27"/><path d="M 49.5 77.4 q 0 4.3 0 8.5 l -0.5 0 q 0 -4.3 -0.1 -8.6 Z" fill="#ee4b3f"/><path d="M 29.8 23 l -0.5 0 l -0.2 -0.2 V 20.4 l 1.8 0.8 C 31.4 22.3 30.6 22.6 29.8 23 Z" fill="#fbe5dd"/><path d="M 42.3 77.3 l 0 -0.4 c 0.8 0 1.5 0 2.3 -0.1 c 0.2 0 0.4 -0.3 0.6 -0.4 l 0.6 0 c 0.2 0.2 0.4 0.4 0.6 0.4 c 0.8 0.1 1.7 0.1 2.5 0.1 l 0 0.4 q -1.3 0 -2.6 0 q -0.6 0 -1.2 0 Q 43.6 77.4 42.3 77.3 Z" fill="#b74e43"/><path d="M 27.4 21.4 l 1.2 -0.9 v 2.3 A 1.2 1.2 0 0 1 27.4 21.4 Z" fill="#fbe5dd"/><path d="M 27.4 21.4 a 1.2 1.2 0 0 0 1.2 1.4 l -0.2 0.5 l -1.8 -1.2 h -2.2 c 0.7 -0.1 1.3 -0.1 2 -0.2 A 6.8 6.8 0 0 0 27.4 21.4 Z" fill="#ee4b3f"/><path d="M 48.7 77.3 l 0 -0.4 l 1 0.1 l 0.3 0 l 1.6 0 l 0.5 0 l 0.5 0.1 l 0 0.4 c -0.1 0 -0.2 0 -0.3 0.1 q -0.3 -0.1 -0.7 -0.1 q -0.6 0 -1.3 -0.1 q -0.4 0 -0.9 0 q -0.3 0 -0.6 0 A 0.3 0.3 0 0 1 48.7 77.3 Z" fill="#a52926"/><path d="M 29.8 23 c 0.8 -0.3 1.6 -0.6 1.2 -1.7 l 0.5 0.9 l -1.4 1.2 Z" fill="#ee4b3f"/><path d="M 49.2 113.3 l -1 -0.8 l 0.2 -0.3 q 0.3 0.2 0.7 0.4 Q 49.2 113 49.2 113.3 Z" fill="#d39086"/><path d="M 46 34.4 l 0.1 0.5 c -0.1 0 -0.2 0 -0.3 0.1 Q 46 34.7 46 34.4 Z" fill="#ec3b32"/><path d="M 46.1 27.9 l -0.1 0.5 Z" fill="#ec3b32"/><path d="M 46.6 27.9 l -0.2 0 Z" fill="#ec3b32"/><path d="M 49 89.6 l 0 -0.2 a 1.2 1.2 0 0 1 0.1 0.2 C 49.1 89.5 49 89.6 49 89.6 Z" fill="#ee4b3f"/><path d="M 46 29.4 l 0 0.2 a 1 1 0 0 1 -0.1 -0.2 C 46 29.4 46 29.4 46 29.4 Z" fill="#ec3b32"/><path d="M 29.1 22.8 l 0.2 0.2 Z" fill="#ee4b3f"/><path d="M 34.6 107.1 l 0.1 0 l -0.1 0 Z" fill="#eb2828"/><path d="M 68 91.8 l -0.2 0.1 c 0 -0.1 0.1 -0.1 0.1 -0.2 Z" fill="#eb2828"/><path d="M 45.7 74.2 c 0 -0.3 -0.1 -0.7 -0.1 -1 q 0 -17.6 0 -35.2 c 0 -2.3 0.3 -2.6 2.5 -3.3 c 0.2 -0.1 0.4 -0.2 0.7 -0.2 a 0.2 0.2 0 0 0 0.2 0 l 0.5 0 l 1.5 -0.1 l 0.3 0 q 7.2 0 14.3 0 a 9.9 9.9 0 0 1 1.3 0.2 q 0 0.6 0 1.2 c 0 0.6 -0.1 1.1 -0.1 1.7 q 0 17.8 0 35.7 c 0 0.4 0 0.9 0 1.3 l -20.7 0 Z m 7.6 -27.3 l -0.1 -0.2 l -0.5 0 l -0.7 0 l -0.8 0 l -0.5 0.2 l 0.1 0.3 l 2.1 -0.1 l 0.3 -0.2 Z m 11.3 9.6 l 0 0 l 0.1 -0.2 l -0.2 -0.1 l -1.7 0 l 0 0.4 a 0.2 0.2 0 0 0 0.1 0 l 0.6 0 l 0.7 -0.1 Z M 58.6 68.5 l -0.9 -0.2 l -0.2 0.3 Z m -7.2 -25.8 l -0.7 0 l 0.5 0.4 l 1.2 0 l 1.1 -0.2 l 0 -0.4 l -1.3 0.1 Z m 3.8 13.6 l -0.6 0.3 l 0.1 0.2 l 0.6 -0.1 l 0.9 -0.1 l 0 -0.4 Z M 60.5 42.3 l -0.5 0.2 l 0 0.2 l 1.4 0.2 l 0.1 -0.2 l -0.4 -0.2 Z m 0.2 14.2 l 0.3 0.1 l 0.5 -0.1 l 0 -0.3 l -1.4 -0.2 l -0.1 0.3 Z M 52.2 71.4 l 0.6 0 l 0.7 -0.1 l -0.2 -0.4 Z m 6.4 -4.2 l -1 -0.3 l -0.1 0.4 l 0.6 -0.1 Z m 4.4 -16.3 l 0.7 0 l 1.1 -0.1 l 0 -0.3 H 62.9 Z m -10.1 -6.5 l 0.6 -0.2 l 0 -0.2 H 50.9 l 0 0.4 Z M 64.6 61.5 l -0.7 0 l -1.2 0.1 l 0 0.4 l 1.9 -0.1 Z M 52.6 64.8 l 0.3 -0.1 l 0.5 -0.2 l -0.1 -0.2 l -2.5 0.1 l 0 0.3 Z m -0.5 -16.7 l -0.6 0 l -0.5 0.1 l 2.5 0.4 l 0 -0.6 h -0.8 Z m -1.2 8.3 l 0 0.5 l 2.6 -0.2 l 0 -0.4 Z M 53.4 70.2 l 0 -0.4 H 50.9 l 0 0.4 Z M 50.9 49.4 l 0 0.5 l 2.5 -0.2 l 0 -0.5 Z m 0 9.6 l 0 0.6 l 2.6 -0.2 l 0 -0.4 Z m 0 6.7 l 0 0.5 l 2.6 -0.1 l 0 -0.4 Z m 2.5 -10.4 l 0 -0.5 l -2.5 0.1 l 0 0.3 Z m 0 6.8 l 0 -0.5 l -2.6 0.1 l 0 0.3 Z m 0 -23 l 0 -0.5 l -2.6 0.1 l 0 0.3 Z m 0 6.6 l 0 -0.3 h -2.5 l 0 0.3 Z M 50.9 67.1 l 0 0.5 l 2.6 -0.2 l 0 -0.4 Z m 0 -9.5 l 0 0.3 h 2.5 l 0 -0.3 Z M 53.5 68.8 l 0 -0.5 l -2.5 0.2 l 0 0.4 Z m -3.5 -8.7 l -0.1 -0.5 l -2 0.5 l 0.1 0.4 Z m 3.4 0.5 l 0 -0.5 l -2.5 0.2 l 0 0.4 Z m -2.6 -10 l 0 0.5 l 2.5 -0.1 l 0 -0.4 Z m 0 1.4 l 0 0.5 l 2.5 -0.2 l 0 -0.4 Z m 0 1.6 l 0 0.5 l 2.5 -0.2 l 0 -0.4 Z m -1 13.7 L 49.9 66.8 l -2 0.4 l 0.1 0.4 Z m 0 2.9 l -0.1 -0.5 l -1.9 0.4 l 0.1 0.4 Z M 48 41.5 l 0.1 0.5 l 1.9 -0.3 l -0.1 -0.4 Z m 5.5 21.8 l 0 -0.3 H 50.9 l 0 0.3 Z M 49.9 40.1 l -0.1 -0.4 l -1.9 0.4 l 0.1 0.4 Z m 3.5 1.6 l 0 -0.4 l -2.5 0.1 l 0 0.3 Z M 49.9 71.6 l -0.1 -0.5 l -1.9 0.4 l 0.1 0.4 Z m 12.8 -6 l 0 0.5 l 2 -0.1 l 0 -0.5 Z M 62.7 49.3 l 0 0.5 l 2 -0.1 L 64.7 49.3 Z M 62.8 43.9 l 0 0.5 l 1.9 -0.1 l 0 -0.4 Z m -0.1 1.3 l 0 0.3 h 2 l 0 -0.5 Z m 0 -3.9 l 0 0.3 h 2 l 0 -0.3 Z m 2 26.2 l 0 -0.5 l -2 0.1 l 0 0.5 Z M 50.9 40 l 0 0.4 l 2.5 -0.1 l 0 -0.3 Z M 62.7 39.8 l 0 0.5 l 2 -0.1 l 0 -0.3 Z m 2 15.3 l 0 -0.4 l -2 0.1 l 0 0.3 Z M 64.7 46.9 l 0 -0.4 l -2 0.1 l 0 0.3 Z m -2 0.9 l 0 0.3 H 64.7 l 0 -0.4 Z M 49.9 61.5 l -0.1 -0.4 l -1.9 0.4 l 0.1 0.4 Z m 14.8 1.7 l 0 -0.3 H 62.7 l 0 0.4 Z M 49.9 44.4 l -0.1 -0.4 l -1.9 0.4 l 0.1 0.4 Z m -2 18.4 l 0.1 0.4 l 1.9 -0.3 l -0.1 -0.4 Z M 62.7 42.5 l 0 0.5 l 2 -0.2 l 0 -0.5 Z m -12.8 0.5 l -0.1 -0.5 l -1.9 0.4 l 0.1 0.4 Z m 0 25.7 l -0.1 -0.4 l -1.9 0.3 l 0.1 0.4 Z M 64.7 70.1 l 0 -0.3 h -2 l 0 0.4 Z M 49.9 38.9 l -0.1 -0.5 l -1.9 0.4 l 0.1 0.4 Z M 64.6 53.9 l 0.1 -0.5 l -2 0.1 l 0 0.3 Z M 49.9 45.9 l 0 -0.4 L 48 45.8 l 0.1 0.4 Z M 47.9 65.8 l 0.1 0.4 l 1.9 -0.4 l -0.1 -0.4 Z m 2 -18.5 l -0.1 -0.5 l -1.9 0.4 l 0.1 0.4 Z m 0 11.4 l -0.1 -0.5 l -1.9 0.4 l 0.1 0.4 Z m 11.5 -8.9 l 0.1 -0.5 l -1.6 -0.2 l -0.1 0.5 Z M 56.2 41.7 l -0.1 -0.5 l -1.5 0.3 l 0.1 0.4 Z m 6.5 15.8 l 0 0.5 l 2 -0.1 l 0 -0.5 Z M 56.1 63.3 L 56.1 62.8 l -1.5 0.3 l 0.1 0.4 Z m -8.2 1 l 0.1 0.5 l 1.9 -0.4 l -0.1 -0.4 Z m 14.8 6.7 l 0 0.5 l 2 -0.1 l 0 -0.4 Z m 0 -32.4 l 0 0.5 l 2 -0.1 l 0 -0.3 Z m -2.7 9.1 l 0 0.5 l 1.5 0.1 l 0 -0.4 Z m 2.7 4.3 l 0 0.3 h 2 l 0 -0.3 Z m -6.6 6 l 0 -0.5 l -1.5 0.2 l 0 0.4 Z m 8.6 1.3 l 0 -0.4 l -2 0.1 l 0 0.3 Z m -2 0.9 l 0 0.3 h 2 l 0 -0.3 Z m 2 4.4 l 0 -0.3 H 62.7 l 0 0.3 Z m -4.7 3.5 l -0.1 0.5 l 1.6 0.2 l 0.1 -0.4 Z m 4.7 0.6 l 0 -0.3 h -2 l 0 0.3 Z M 47.9 54.3 l 0.1 0.4 c 0.3 -0.1 0.7 -0.1 1 -0.2 c 0.3 -0.1 0.6 -0.1 0.9 -0.2 l -0.1 -0.4 Z M 60 65.4 l 0 0.4 l 1.5 0.1 l 0 -0.4 Z M 60 69.5 l -0.1 0.4 l 1.5 0.2 l 0.1 -0.4 Z m 1.3 -7.5 l 0.2 -0.4 l -1.5 -0.2 l -0.1 0.5 Z M 54.6 38.7 l 0.1 0.5 l 1.5 -0.2 l -0.1 -0.4 Z m 0 1.3 l 0.1 0.4 l 1.5 -0.2 l -0.1 -0.4 Z M 47.9 52.9 l 0.1 0.4 l 1.9 -0.4 l -0.1 -0.4 Z m 2 -4.2 l -0.1 -0.5 l -1.9 0.5 l 0.1 0.4 Z m 11.5 -3 l 0.1 -0.5 l -1.5 -0.2 l -0.1 0.4 Z M 56.1 64.6 l -0.1 -0.4 l -1.4 0.3 l 0.1 0.3 Z m -6.2 -7.4 l -0.1 -0.5 l -1.9 0.4 l 0.1 0.4 Z m -2 -1.5 l 0.1 0.5 l 1.9 -0.4 l -0.1 -0.4 Z m 13.5 -3.3 l 0.1 -0.4 l -1.5 -0.2 l -0.1 0.4 Z M 54.6 69.9 l 0.1 0.5 l 1.5 -0.2 l -0.1 -0.4 Z m 5.5 -12.5 l -0.1 0.5 l 1.5 0.1 l 0 -0.4 Z m -3.9 2 l 0 -0.4 l -1.5 0.2 l 0 0.4 Z m -8.2 -7.8 l 0.1 0.4 l 1.9 -0.4 l -0.1 -0.4 Z m 0 -1.4 l 0.1 0.4 l 1.9 -0.4 l -0.1 -0.4 Z M 61.4 60.6 l 0 -0.5 l -1.5 -0.2 l 0 0.4 Z m -6.8 1.1 l 0 0.5 l 1.5 -0.2 l 0 -0.4 Z M 61.3 59.4 l 0.2 -0.4 l -1.5 -0.3 l -0.1 0.4 Z m 0.1 -5.4 l 0.1 -0.5 l -1.5 -0.2 l -0.1 0.4 Z M 56.2 68.7 l 0 -0.4 l -1.5 0.2 l 0 0.4 Z m -0.1 2.7 l 0 -0.4 l -1.5 0.2 l 0.1 0.4 Z M 56.1 44.4 l -0.1 -0.5 l -1.4 0.2 l 0.1 0.4 Z m -1.5 7.8 l 0.1 0.4 l 1.5 -0.2 l -0.1 -0.4 Z m 6.8 3.1 l 0.1 -0.4 l -1.5 -0.2 l 0 0.4 Z m -1.4 -4.9 l -0.1 0.4 l 1.5 0.2 l 0.1 -0.4 Z m 1.4 -8.6 l 0.1 -0.5 l -1.5 -0.2 l -0.1 0.4 Z M 57.4 69.7 l 0.1 0.5 l 1.2 -0.2 l -0.1 -0.4 Z m -1.2 -9.2 l -0.1 -0.4 l -1.4 0.2 l 0.1 0.4 Z m 0 -9.6 l 0 -0.4 l -1.4 0.3 l 0.1 0.4 Z M 56.1 49.8 l 0 -0.5 l -1.5 0.2 l 0 0.4 Z m 2.6 -1.6 l -0.1 -0.5 l -1.1 0.3 L 57.5 48.3 Z m -4 -2.8 l 0.1 0.5 l 1.5 -0.2 l -0.1 -0.4 Z m 2.8 16.3 l 0.1 0.4 l 1.2 -0.2 l -0.1 -0.4 Z m 2.6 9.2 l 0 0.5 l 1.5 0.1 l 0.1 -0.4 Z m 1.4 -23.7 l 0.1 -0.4 l -1.5 -0.2 l 0 0.4 Z m -2.8 -1.6 l 0 -0.5 l -1.2 0.2 l 0.1 0.4 Z m 0 11 l -0.1 -0.4 l -1.2 0.2 l 0.1 0.4 Z M 56.1 42.9 l 0 -0.4 l -1.4 0.1 l 0 0.4 Z m 2.5 17.5 l -0.1 -0.4 l -1.2 0.2 l 0.1 0.4 Z M 54.6 55 l 0.1 0.4 l 1.5 -0.2 l -0.1 -0.4 Z M 57.4 65.6 l 0.1 0.4 l 1.1 -0.3 l -0.1 -0.4 Z m -1.2 0.4 l -0.1 -0.4 l -1.5 0.2 l 0.1 0.4 Z M 60 39.6 l -0.1 0.4 l 1.5 0.2 l 0.1 -0.4 Z m 0 4.1 l 0 0.5 l 1.5 0.2 l 0 -0.4 Z m 1.4 23.7 l 0 -0.4 l -1.4 -0.1 l 0 0.4 Z m -4 -8.6 l 0.1 0.5 l 1.1 -0.2 l -0.1 -0.4 Z m 0.1 -7 l 0 0.4 l 1.2 -0.1 l 0 -0.4 Z m -1.3 -3.6 l -0.1 -0.4 l -1.4 0.2 l 0.1 0.4 Z m 0 19.2 l -0.1 -0.5 l -1.4 0.2 l 0.1 0.4 Z M 58.6 55.1 l -0.1 -0.4 l -1.2 0.2 l 0.1 0.4 Z m -4 -8.3 l 0.1 0.5 l 1.5 -0.3 l -0.1 -0.4 Z m 4 11 l -0.1 -0.4 l -1.2 0.2 l 0.1 0.4 Z m 0 -10.9 l -0.1 -0.4 l -1.1 0.3 l 0.1 0.4 Z m -2.5 7.1 l 0 -0.5 l -1.4 0.2 l 0.1 0.4 Z m 1.3 -0.5 l 0.1 0.5 l 1.2 -0.2 l -0.1 -0.4 Z m 1.3 -4 l -0.1 -0.4 l -1.2 0.2 l 0.1 0.4 Z m -1.2 1 l 0.1 0.4 l 1.1 -0.2 l -0.1 -0.4 Z m 4 -11.5 l 0 -0.5 l -1.4 -0.2 l -0.1 0.4 Z M 60.1 62.6 l -0.1 0.4 l 1.4 0.2 l 0.1 -0.4 Z M 57.4 42.5 l 0.1 0.4 l 1.1 -0.2 l -0.1 -0.4 Z m 4 22.2 l 0 -0.4 l -1.4 -0.2 l -0.1 0.4 Z M 57.4 41.3 l 0.1 0.4 l 1.1 -0.2 l -0.1 -0.4 Z m 1.2 -2.5 l -0.1 -0.4 l -1.1 0.2 l 0.1 0.4 Z m -1.2 1 l 0 0.4 l 1.2 -0.2 l -0.1 -0.4 Z m 0 23 l 0.1 0.4 l 1.1 -0.2 l -0.1 -0.4 Z m 0 8.2 l 0.1 0.4 l 1.2 -0.2 l -0.1 -0.4 Z m 0 -6.7 l 0.1 0.4 l 1.2 -0.2 l -0.1 -0.4 Z m 1.2 -20.1 l 0 -0.4 l -1.1 0.2 l 0 0.3 Z m -7.6 26.8 l 0 0.4 h 1.1 l 0 -0.3 Z" fill="#f8f0ed"/><path d="M 52.6 77.2 l -0.5 -0.1 l -0.5 0 q -0.8 0 -1.6 0 q -0.1 0 -0.3 0 l -1 -0.1 c -0.8 0 -1.7 0 -2.5 -0.1 c -0.2 0 -0.4 -0.3 -0.6 -0.4 l 4.1 0.1 l 0.5 0 l 0.4 0 l 0.8 0.1 l 5.5 0.2 l 1.9 0.1 l 10.1 0.1 a 6.4 6.4 0 0 0 0.3 -1.3 q 0 -18 0 -36 a 10.2 10.2 0 0 1 0.2 -1.4 c 0.2 0.3 0.6 0.7 0.6 1 q 0 18.5 0 37 c 0 0.4 0 0.9 0 1.3 c -2.3 0 -4.6 0 -6.8 0 l -0.3 0 l -0.7 0 l -1.7 0 l -5.5 -0.2 l -1.5 0 Z" fill="#e8c8c1"/><path d="M 68.8 52.2 q 0 1.2 0 2.3 q 0 1.5 0 2.9 q 0 1.4 0 2.8 q 0 1.5 0 2.9 q 0 2 0 4 q 0 1.5 0 2.9 q 0 1.2 0 2.3 q 0 0.9 0 1.7 l 0.1 2 a 9.3 9.3 0 0 1 -1.2 0.1 c -2.1 0 -4.3 -0.1 -6.4 -0.1 l -2.7 -0.1 c -0.2 0 -0.5 0 -0.7 0 c 0.6 -0.2 1.2 -0.3 1.8 -0.5 l 0.5 0 l 0.6 0 l 7.2 0.1 a 8 8 0 0 0 0.2 -1.3 q 0 -18.8 0 -37.6 l 0 0 l 0.6 0.1 l 0 0.4 l 0 0.3 l 0 0.4 q 0 2.3 0 4.6 q 0 0.6 0 1.1 q 0 2.2 0 4.4 q 0 0.6 0 1.1 Q 68.8 50.7 68.8 52.2 Z" fill="#f6eae7"/><path d="M 60.1 75.7 l -0.5 0 L 58.8 75.2 l 0 -0.4 l 8.2 -0.1 a 0.3 0.3 0 0 0 0.2 0 l 0.1 -1.4 q 0 -18.4 0 -36.8 a 1 1 0 0 1 0.4 -0.7 l 0.2 0.8 l 0 0.3 l 0 38.4 l 0 0 l -3.6 0.1 l -3.3 0 Z" fill="#f8f0ed"/><path d="M 67.7 75.2 q 0 -19.2 0 -38.4 q 0.1 0 0.2 0 l 0.3 0 q 0 18.8 0 37.6 a 8 8 0 0 1 -0.2 1.3 Z" fill="#b74e43"/><path d="M 61.3 76.3 c 2.1 0 4.3 0.1 6.4 0.1 a 9.3 9.3 0 0 0 1.2 -0.1 l 0 0.6 l -10.1 -0.1 l -1.9 -0.1 q -2.8 -0.1 -5.5 -0.2 l -0.8 -0.1 l -0.4 0 l -0.5 0 l -4.1 -0.1 l -0.6 0 l -5.1 0.1 l -2 0.1 l -7.6 0.1 l -1.8 0.1 l -1.5 0 l 0 -0.4 l 3.3 -0.1 l 1.3 -0.1 l 13.4 -0.4 l 0.5 0 l 0.1 0 l 0.1 0 c 2.8 0.1 5.6 0.2 8.3 0.2 c 0.3 0 0.6 -0.3 0.9 -0.5 l 0 0 c 0.1 1.1 0.9 0.2 1.3 0.5 l 0.8 0 l 0.7 0 l 0.7 0 Z" fill="#b04136"/><path d="M 67 74.7 l -8.2 0.1 c -0.5 0 -1 -0.1 -1.4 -0.1 c -3.5 0 -7 0 -10.5 0 c -0.3 0 -0.6 -0.3 -0.8 -0.5 l 20.7 0 Z" fill="#b34e40"/><path d="M 68.8 42.6 q 0 -2.3 0 -4.6 Q 68.8 40.3 68.8 42.6 Z" fill="#d39086"/><path d="M 68.8 48.1 q 0 -2.2 0 -4.4 Q 68.8 45.9 68.8 48.1 Z" fill="#d39086"/><path d="M 68.8 63.2 q 0 -1.5 0 -2.9 Q 68.8 61.8 68.8 63.2 Z" fill="#d39086"/><path d="M 68.8 57.5 q 0 -1.5 0 -2.9 Q 68.8 56 68.8 57.5 Z" fill="#d39086"/><path d="M 68.8 70.2 q 0 -1.5 0 -2.9 Q 68.8 68.7 68.8 70.2 Z" fill="#d39086"/><path d="M 68.8 52.2 q 0 -1.5 0 -2.9 Q 68.8 50.7 68.8 52.2 Z" fill="#d39086"/><path d="M 68.8 74.3 q 0 -0.9 0 -1.7 Q 68.8 73.4 68.8 74.3 Z" fill="#d39086"/><path d="M 67.3 73.3 l -0.1 1.4 Z" fill="#e8c8c1"/><path d="M 66.9 35.6 q 0 -0.6 0 -1.2 Q 66.8 35 66.9 35.6 Z" fill="#b34e40"/><path d="M 68.8 36.9 l -0.6 -0.1 Z" fill="#c06b5b"/><path d="M 49.5 34.3 l -0.5 0 Z" fill="#b34e40"/><path d="M 68.8 37.5 l 0 -0.3 Z" fill="#d39086"/><path d="M 67.9 36.8 q -0.1 0 -0.2 0 l 0 -0.3 Z" fill="#bc6354"/><path d="M 51.2 34.2 l -0.3 0 Z" fill="#b34e40"/><path d="M 41.5 34.4 l 0.7 0.1 c 0.4 0.2 0.8 0.3 1.2 0.5 a 2.4 2.4 0 0 1 1.7 2.4 q 0 18.3 0 36.6 a 0.5 0.5 0 0 1 0 0.2 c -0.4 0.2 -0.8 0.4 -1.1 0.6 a 0.2 0.2 0 0 0 -0.2 0.1 c -0.2 -0.2 -0.4 -0.4 -0.6 -0.4 c -0.8 0 -1.6 0 -2.3 0 c -0.6 0 -1.1 0 -1.7 0 q -8 -0.1 -15.9 -0.2 a 7.3 7.3 0 0 0 0.4 -1.7 c 0 -0.9 -0.3 -1.7 -0.2 -2.6 c 0.1 -2.8 0.3 -5.6 0.4 -8.4 c 0 -1.9 -0.3 -3.9 -0.4 -5.8 c -0.1 -4.4 0 -8.7 0 -13.1 c 0 -1.4 -0.1 -2.8 -0.1 -4.2 c 0.2 -0.1 0.5 -0.3 0.5 -0.4 c 0 -0.7 0 -1.4 0 -2.1 l 0 -1 l 0.2 -0.7 q 8.3 0 16.6 0.1 Q 41 34.3 41.5 34.4 Z m -1.4 32.9 l -0.4 -0.1 l -0.8 0.1 l -0.6 -0.1 l -0.9 0.1 l 0 0.3 h 2.5 l 0.1 -0.2 Z M 26.4 56.5 l 0 0 c 0.5 0.1 1 0.2 1.5 0.2 c 0.1 0 0.1 -0.3 0.2 -0.4 a 0.2 0.2 0 0 0 -0.2 0 l -0.5 0 l -1 0 l -0.2 0.2 Z m 7 13.2 l -0.9 -0.1 l 0 0.2 l 0.4 0.2 l 0.7 0.1 Z m 0 -1.4 l -0.9 0.2 l 1.1 0.1 Z m -1 -20.2 l 0.7 0.2 l 0.4 -0.1 l -0.1 -0.4 Z m 3.8 8.4 l -1.4 -0.3 l 0 0.4 l 0.9 0 Z m -3.1 -6.8 l 0.5 -0.2 l -0.1 -0.4 l -1.1 0.4 Z M 30.4 56.5 l 0.4 0 l 0.1 -0.4 l -1.4 0.1 l 0.1 0.4 Z m 8.2 -15.2 l -1.1 -0.1 l 0 0.4 l 1.1 0.2 h 1.5 l 0 -0.4 Z m -0.2 -1.5 h -0.9 l 0 0.3 l 0.9 0.1 h 1.7 l 0 -0.4 Z M 40.2 49.9 l 0 -0.5 H 37.5 l 0 0.4 Z m 0 16.1 l 0 -0.3 H 37.5 l 0 0.3 Z m 0 -19 l 0 -0.3 H 37.5 l 0 0.3 Z M 37.5 45.3 l 0 0.3 h 2.6 l 0 -0.3 Z m 2.6 10 l 0 -0.3 H 37.5 l 0 0.3 Z m -2.6 13 l 0 0.4 H 40.2 l 0 -0.3 Z m 2.6 -8.7 l 0 -0.5 H 37.5 l 0 0.4 Z m -2.6 2.1 l 0 0.3 h 2.6 l 0 -0.3 Z m 2.6 -3.7 l 0 -0.4 H 37.5 l 0 0.4 Z m 0 -18.9 V 38.7 H 37.5 v 0.3 Z m -2.8 30.8 c 1.4 0.8 2.5 0.7 2.7 0 Z M 37.6 56.4 l 0 0.3 h 2.5 l 0 -0.3 Z m 0 -5.7 l 0 0.3 h 2.6 l 0 -0.3 Z m 0 3 l 0 0.3 h 2.6 a 6 6 0 0 0 -2.3 -0.4 C 37.8 53.6 37.7 53.6 37.5 53.7 Z M 40.1 60.7 l 0 -0.5 H 37.5 l 0 0.4 Z m -2.5 -8.8 l 0 0.4 q 1.3 0.1 2.5 0.1 l 0 -0.4 Z m -9.3 2 l 0 -0.3 H 26.3 l 0 0.3 Z m 9.3 -6.1 l 0 0.4 h 2.6 l 0 -0.3 Z M 40.1 64.9 l 0 -0.5 h -2.6 l 0 0.4 Z m 1 -5.2 l -0.1 0.5 l 2 0.4 l 0.1 -0.5 Z m -3.6 11.3 l 0 0.4 h 2.6 l 0 -0.3 Z m 3.6 -4.1 L 41 67.3 l 2 0.3 l 0.1 -0.5 Z m -3.6 -3.9 l 0 0.3 h 2.6 l 0 -0.3 Z m 3.6 2.5 l -0.1 0.4 l 2 0.4 l 0.1 -0.4 Z m 0 4.2 l -0.1 0.5 l 2 0.3 l 0.1 -0.4 Z M 26.2 45.2 l 0 0.3 h 2 l 0 -0.3 Z m 14.9 -4 l -0.1 0.5 l 1.9 0.3 l 0.1 -0.4 Z M 26.3 42.4 l 0 0.5 l 2 0.1 l 0 -0.4 Z m 13.8 0.6 l 0 -0.3 H 37.6 l 0 0.3 Z M 26.3 66.9 l 0 0.5 h 2 l 0 -0.3 Z M 28.2 41.7 l 0.1 -0.5 H 26.3 l 0 0.3 Z M 41.2 58.2 l -0.1 0.4 l 1.9 0.4 l 0.1 -0.4 Z M 28.3 49.8 l 0 -0.5 H 26.2 l 0 0.4 Z m 0 16.2 l 0 -0.3 H 26.2 l 0 0.3 Z m 12.9 5.2 l -0.1 0.4 l 1.9 0.3 l 0.1 -0.4 Z M 26.2 46.6 v 0.3 h 2 v -0.3 Z m 16.7 18.1 l 0.1 -0.5 l -2 -0.3 l -0.1 0.4 Z m -0.1 -2.9 l 0.2 -0.4 l -1.9 -0.3 l -0.1 0.4 Z m -1.7 6.5 l -0.1 0.4 l 1.9 0.3 l 0.1 -0.4 Z M 28.3 48.2 L 28.3 47.9 H 26.3 l 0 0.3 Z M 26.3 39.8 l 0 0.3 h 2 l 0 -0.3 Z M 41.2 39.7 l -0.1 0.5 l 1.9 0.3 l 0.1 -0.4 Z m 1.7 3.6 l 0.2 -0.4 l -1.9 -0.4 l -0.1 0.4 Z m 0.1 1.4 l 0.1 -0.5 l -1.9 -0.3 l -0.1 0.4 Z m -0.1 18.5 l 0.1 -0.4 l -1.9 -0.3 l -0.1 0.4 Z m -16.6 -0.5 l 0 0.3 h 2 l 0 -0.3 Z m 0 -8.1 l 0 0.5 H 28.3 l 0 -0.3 Z M 41.2 38.4 l -0.1 0.5 l 1.9 0.3 l 0.1 -0.4 Z M 41.1 56.8 l -0.1 0.4 l 1.9 0.3 l 0.1 -0.4 Z M 31 49.5 l -0.1 -0.5 l -1.5 0.3 l 0.1 0.4 Z m 0 20.4 l -0.1 -0.4 l -1.5 0.3 l 0.1 0.5 Z m 3.8 -7.1 l 0 0.4 l 1.5 0.1 l 0 -0.4 Z M 31.1 48.1 l -0.1 -0.5 l -1.5 0.3 l 0.1 0.5 Z m -1.6 9.4 l 0.1 0.5 l 1.5 -0.3 l -0.1 -0.4 Z m 5.5 -17.7 l 0 0.4 l 1.5 0.2 l 0 -0.4 Z m -6.6 -0.8 l 0 -0.4 H 26.3 l 0 0.3 Z m 0 31 l 0 -0.2 H 26.3 l 0 0.2 Z M 34.9 41.2 l 0 0.5 l 1.5 0.2 l 0 -0.5 Z m -8.6 2.6 l 0 0.4 h 1.9 l 0 -0.3 Z m 14.9 11.6 l -0.1 0.4 l 1.9 0.3 l 0.1 -0.4 Z M 28.2 71.3 l 0 -0.3 H 26.3 l 0 0.3 Z m -2 -3 l 0 0.3 h 2 l 0 -0.3 Z M 43 46.2 l 0.1 -0.4 L 41.2 45.4 l -0.1 0.4 Z m -1.8 0.7 l -0.1 0.5 l 1.9 0.3 l 0.1 -0.4 Z M 26.3 51.9 l 0 0.4 H 28.3 l 0 -0.3 Z M 43 53.3 l 0.1 -0.4 l -1.9 -0.3 l -0.1 0.4 Z m 0 1.4 l 0.1 -0.4 l -1.9 -0.4 l -0.1 0.4 Z m -12 0.3 l -0.1 -0.5 l -1.5 0.3 l 0.1 0.4 Z m -2.8 -4.2 l 0 -0.3 H 26.3 l 0 0.3 Z m 0 7.1 l 0 -0.4 H 26.3 l 0 0.3 Z m 2.7 1.3 l 0 -0.5 l -1.5 0.2 l 0.1 0.4 Z m -2.7 0 l 0 -0.3 H 26.3 l 0 0.3 Z m 0 1.2 l 0 -0.3 h -2 l 0 0.3 Z m 1.2 1.1 l 0.1 0.5 l 1.5 -0.2 l -0.1 -0.4 Z m -1.2 0.3 l 0 -0.3 H 26.3 l 0 0.3 Z M 28.2 64.6 l 0 -0.3 H 26.2 l 0 0.3 Z m 1.2 1 l 0.1 0.5 l 1.5 -0.3 l -0.1 -0.4 Z m 1.6 2.9 l -0.1 -0.5 l -1.5 0.3 l 0.1 0.4 Z m 3.9 -18 l 0 0.5 l 1.5 0.1 l 0 -0.4 Z m 0 -12 l 0 0.4 l 1.5 0.1 l 0 -0.4 Z m 6.3 9.7 l -0.1 0.5 l 1.9 0.3 l 0.1 -0.4 Z m -4.9 -3.7 l 0.1 -0.5 L 34.9 43.9 l 0 0.4 Z m 0 20.3 l 0.1 -0.4 l -1.5 -0.1 l 0 0.4 Z m 6.7 -12.9 l 0.1 -0.5 L 41.1 51.2 l -0.1 0.4 Z M 31 45.4 l -0.1 -0.5 l -1.5 0.3 l 0.1 0.4 Z m -1.6 21.6 l 0.1 0.5 l 1.5 -0.3 l -0.1 -0.4 Z m 5.4 -9.4 l 0 0.3 h 1.5 l 0 -0.3 Z m 1.4 -14.5 l 0.1 -0.4 l -1.4 -0.2 l -0.1 0.4 Z M 34.9 58.9 l 0 0.4 l 1.5 0.2 l 0.1 -0.4 Z M 31 52.2 l -0.1 -0.4 l -1.5 0.2 l 0.1 0.4 Z m 0 -1.4 l 0 -0.5 l -1.5 0.3 l 0.1 0.4 Z m 0.1 9.6 l -0.1 -0.5 l -1.5 0.3 l 0.1 0.4 Z m 3.8 9.2 l 0 0.5 l 1.5 0.2 l 0.1 -0.4 Z M 43 50.5 l 0.1 -0.4 l -1.9 -0.3 l -0.1 0.4 Z M 34.9 61.5 l 0 0.5 l 1.5 0.2 l 0 -0.4 Z m -3.9 -7.7 l -0.1 -0.5 l -1.5 0.3 l 0.1 0.4 Z M 29.4 41.3 l 0.1 0.5 l 1.5 -0.3 l -0.1 -0.4 Z m 5.5 29.7 l 0 0.4 l 1.4 0.2 l 0 -0.4 Z m 0 -10.9 l 0 0.4 l 1.5 0.2 l 0 -0.4 Z m -1.4 -14.5 l 0.1 -0.5 l -1.2 -0.1 l 0 0.4 Z m 1.4 22.6 l 0 0.5 l 1.5 0.1 l 0 -0.4 Z m 1.5 -0.6 l 0 -0.4 L 34.9 67.1 l 0 0.4 Z m -3.9 -6.2 l -0.1 0.5 l 1.2 0.1 l 0.1 -0.4 Z m 3.9 -11.5 l 0.1 -0.5 l -1.4 -0.1 l 0 0.4 Z M 30.9 46.9 l 0 -0.4 l -1.5 0.2 l 0 0.4 Z m 2.6 9.8 l 0.1 -0.5 l -1.2 -0.1 l 0 0.4 Z m 4.7 -12.6 l 0 0.3 h 1.8 l 0 -0.3 Z m -8.8 -0.1 l 0.1 0.5 l 1.5 -0.3 l -0.1 -0.4 Z M 31 38.8 l -0.1 -0.5 l -1.5 0.2 l 0.1 0.4 Z m 0 3.9 l -0.1 -0.5 l -1.5 0.3 l 0.1 0.4 Z M 29.5 39.9 l 0.1 0.4 l 1.5 -0.3 l -0.1 -0.4 Z m 6.8 15.6 l 0.1 -0.5 l -1.5 -0.1 l 0 0.4 Z m -2.7 10.6 l 0 -0.4 l -1.2 -0.1 L 32.3 65.8 Z m -1.1 -8.7 l -0.1 0.5 l 1.2 0.1 l 0.1 -0.4 Z m 2.5 -9.5 l -0.1 0.5 l 1.4 0.1 l 0 -0.4 Z m 1.4 -2.1 l 0.1 -0.5 l -1.5 -0.1 l 0 0.4 Z M 32.4 58.8 l 0 0.4 l 1.2 0.1 l 0 -0.4 Z m 1.1 -6.4 l 0 -0.4 l -1.2 -0.1 l 0 0.4 Z m 2.7 1.7 l 0 -0.5 L 34.9 53.6 l 0 0.4 Z m -3.9 5.9 l 0 0.4 l 1.2 0.1 l 0 -0.4 Z m 3.8 -7.5 l 0.1 -0.4 L 34.9 52 l 0 0.4 Z m -1.3 -6 l -0.1 0.4 l 1.5 0.2 l 0.1 -0.4 Z m 1.4 19.6 l 0.1 -0.5 l -1.5 -0.1 l 0 0.4 Z m -6.8 4.8 l 0.1 0.4 l 1.5 -0.2 l -0.1 -0.4 Z M 33.5 55.3 l 0.1 -0.4 l -1.2 -0.1 l 0 0.4 Z m -1.1 11.6 l -0.1 0.4 l 1.2 0.1 l 0 -0.4 Z M 33.5 47 l 0.1 -0.4 l -1.2 -0.2 l -0.1 0.4 Z m -1.1 3.4 l 0 0.5 l 1.2 0.1 l 0 -0.4 Z m 0 3 l 0 0.4 l 1.2 0.1 l 0 -0.4 Z m 0 17.4 l 0 0.4 h 1.2 l 0 -0.3 Z m -1.4 -7.8 l -0.1 -0.4 l -1.5 0.2 l 0.1 0.4 Z m 1.4 -20.7 l -0.1 0.5 l 1.2 0.1 l 0 -0.4 Z m -2.9 22 l 0.1 0.4 l 1.4 -0.2 l -0.1 -0.4 Z m 2.9 -0.2 l 0 0.4 l 1.2 0.1 l 0.1 -0.4 Z M 33.5 38.9 l 0 -0.4 l -1.1 -0.1 l 0 0.4 Z m -1.1 0.7 l 0 0.5 l 1.1 0.1 l 0 -0.4 Z m 0 23 l 0 0.4 l 1.2 0.1 L 33.6 62.8 Z m 0 -21.6 l 0 0.5 l 1.1 0.1 l 0 -0.4 Z m 1.1 3.2 l 0 -0.4 l -1.1 -0.1 L 32.4 44.2 Z m 4.1 -0.2 l 0 0.2 l 0.6 0 l 0 -0.3 Z" fill="#f8f0ed"/><path d="M 45.1 75.9 q -6.7 0.2 -13.4 0.4 l -1.3 0.1 l -3.3 0.1 l -0.7 0 l -1.2 0 l -0.9 0 l -0.6 0 l -0.5 0 l -0.7 0 l -0.5 0 l -0.3 0 l -0.3 -0.6 l 0 -0.3 q 0 -18.5 0 -37 a 2.6 2.6 0 0 0 -0.1 -0.5 l 0.2 -1.4 c 0.2 0.1 0.6 0.2 0.6 0.4 a 2.7 2.7 0 0 1 0 0.9 q 0 18.1 0 36.1 c 0 0.5 0 1 0 1.4 h 5.8 l 1.7 0 l 0.6 0 l 0.7 0 l 2.3 -0.1 l 0.9 0 l 0.3 0 l 7.7 -0.2 c 0.8 0 1.5 0 2.3 0.1 C 44.7 75.5 44.9 75.8 45.1 75.9 Z" fill="#eed6ce"/><path d="M 43.8 74.7 a 0.2 0.2 0 0 1 0.2 -0.1 c 0.3 0 0.7 0.1 1 0.1 l 0 0.2 l -2.8 0.2 l -1.4 0 l -0.3 0 l -7.2 0.1 l -1.4 -0.2 a 4.1 4.1 0 0 1 1.1 -0.3 c 2.6 0 5.1 0 7.7 -0.1 Z" fill="#e8c8c1"/><path d="M 46.1 74.2 c 0.3 0.2 0.5 0.5 0.8 0.5 c 3.5 0 7 0 10.5 0 c 0.5 0 1 0 1.4 0.1 l 0 0.4 l -2.7 0.1 l -5.7 -0.1 l -0.8 0 l -1.4 0 l -2.4 -0.2 l -0.1 -0.7 Z" fill="#e8c8c1"/><path d="M 55 75.6 c -0.3 0.2 -0.6 0.5 -0.9 0.5 c -2.8 0 -5.6 -0.1 -8.3 -0.2 l 0 -0.4 q 1.2 0 2.4 -0.1 l 1.4 0.1 l 1 0 Z" fill="#f6eae7"/><path d="M 40.9 75.1 l 1.4 0 l 0 0.3 l -7.7 0.2 l -0.3 0 l -0.9 0 l 0 -0.4 q 3.6 0 7.2 -0.1 Z" fill="#ae322c"/><path d="M 49.7 75.5 l -1.4 -0.1 l 0 -0.3 q 0.7 0 1.4 0 q 0.4 0 0.8 0 q 2.9 0 5.7 0.1 l 0 0.4 l -1.1 0.1 l 0 0 q -2.2 -0.1 -4.4 -0.1 Z" fill="#ae322c"/><path d="M 45.9 75.5 l 0 0.4 l -0.1 0 l -0.1 0 Z" fill="#fbe5dd"/><path d="M 27.1 76.8 l 1.5 0 l 1.8 -0.1 l 7.6 -0.1 q 1 -0.1 2 -0.1 l 5.1 -0.1 c -0.2 0.2 -0.4 0.4 -0.6 0.4 c -0.7 0.1 -1.5 0.1 -2.3 0.1 q -0.2 0 -0.5 0 l -0.2 0 l -18.2 0.6 l -1.7 0 l -0.5 0 l -0.5 0 a 13.1 13.1 0 0 1 -0.2 -1.6 q 0 -18.9 0 -37.7 q 0.3 0 0.7 0 l 0 0 q 0 19.3 0 38.6 h 4.1 l 1.2 0 Z" fill="#eed6ce"/><path d="M 25.2 76.8 h -4.1 q 0 -19.3 0 -38.6 l 0.3 0 a 2.6 2.6 0 0 1 0.1 0.5 q 0 18.5 0 37 c 0 0 -0.1 0.1 -0.1 0.1 a 1.1 1.1 0 0 0 0.1 0.2 l 0.3 0.6 l 0.3 0 l 0.5 0 l 0.7 0 l 0.5 0 l 0.6 0 l 0.9 0 Z" fill="#ae322c"/><path d="M 21.6 77.7 l 1.7 0 Z" fill="#b34e40"/><path d="M 21.1 38.3 q -0.3 0 -0.7 0 Q 20.8 38.3 21.1 38.3 Z" fill="#b34e40"/><path d="M 20.7 77.7 l 0.5 0 Z" fill="#b34e40"/><path d="M 21.4 36.6 l 0.2 0.2 Z" fill="#bc6354"/><path d="M 41.5 77 l 0.2 0 Z" fill="#b74e43"/><path d="M 50.4 77.4 q 0.6 0 1.3 0.1 Q 51 77.4 50.4 77.4 Z" fill="#ca7e71"/><path d="M 60.5 77.4 l 1.7 0 Z" fill="#b65749"/><path d="M 53.5 77.1 l 1.5 0 Z" fill="#b65749"/><path d="M 62.9 77.5 l 0.3 0 Z" fill="#b65749"/><path d="M 23.3 38.4 c 0 1.4 0.1 2.8 0.1 4.2 c 0 4.4 0 8.7 0 13.1 c 0 1.9 0.4 3.9 0.4 5.8 c 0 2.8 -0.3 5.6 -0.4 8.4 c 0 0.9 0.3 1.7 0.2 2.6 a 7.3 7.3 0 0 1 -0.4 1.7 c 0.4 0.2 0.7 0.6 1.1 0.6 c 1.7 0.1 3.5 0.1 5.2 0.1 l 0 0.4 l -1.4 0.1 q -0.8 0 -1.7 0 q -0.8 0 -1.5 0 H 22.7 V 35.6 l 0.6 0.2 l 0 0.7 Z" fill="#e8c8c1"/><path d="M 23.3 38.4 l 0.1 -1.8 l 0.2 -0.7 a 1.4 1.4 0 0 1 0.2 0 c 0 0.7 0.1 1.4 0 2.1 C 23.8 38.1 23.5 38.2 23.3 38.4 Z" fill="#b04136"/><path d="M 28.1 75.3 l 1.4 -0.1 l 0.3 0.1 l -0.1 0.4 l -1.7 0 Z" fill="#ae322c"/><path d="M 24.9 75.4 q 0.8 0 1.5 0 Q 25.7 75.3 24.9 75.4 Z" fill="#c06b5b"/><path d="M 23.9 34.2 l -0.2 0.7 q -0.1 -0.4 -0.2 -0.7 Q 23.7 34.2 23.9 34.2 Z" fill="#b04136"/><path d="M 23.5 35.8 l -0.2 0.7 l 0 -0.7 Q 23.4 35.8 23.5 35.8 Z" fill="#b74e43"/><path d="M 41.5 34.4 q -0.5 -0.1 -1.1 -0.1 Q 41 34.3 41.5 34.4 Z" fill="#c06b5b"/><path d="M 51.6 77 l 0.5 0 Z" fill="#e0b3a9"/><path d="M 49.7 77 q 0.1 0 0.3 0 Q 49.9 77.1 49.7 77 Z" fill="#b74e43"/><path d="M 50.9 56.3 h 2.5 l 0 0.4 l -2.6 0.2 Z" fill="#c06b5b"/><path d="M 53.4 70.2 h -2.6 l 0 -0.4 h 2.6 Z" fill="#b85a4b"/><path d="M 50.9 49.4 l 2.5 -0.1 l 0 0.5 l -2.5 0.2 Z" fill="#bb5e4f"/><path d="M 50.9 59 h 2.6 l 0 0.4 l -2.6 0.2 Z" fill="#bb5e4f"/><path d="M 50.9 65.7 h 2.5 l 0 0.4 l -2.6 0.1 Z" fill="#bc6354"/><path d="M 53.4 55.3 H 50.9 l 0 -0.3 l 2.5 -0.1 Z" fill="#bc6354"/><path d="M 53.4 62 h -2.6 l 0 -0.3 l 2.6 -0.1 Z" fill="#b55143"/><path d="M 53.4 39 h -2.6 l 0 -0.3 l 2.6 -0.1 Z" fill="#bb5e4f"/><path d="M 53.4 45.6 H 50.9 l 0 -0.3 h 2.5 Z" fill="#bb5e4f"/><path d="M 50.9 67.1 h 2.5 l 0 0.4 l -2.6 0.2 Z" fill="#bc6354"/><ellipse cx="52.2" cy="57.8" rx="1.8" ry="0.2" fill="#b65446"/><path d="M 53.5 68.8 l -2.6 0.1 l 0 -0.4 l 2.5 -0.2 Z" fill="#b55143"/><path d="M 50 60.1 l -2 0.4 l -0.1 -0.4 l 2 -0.5 Z" fill="#c06b5b"/><path d="M 53.4 60.6 l -2.5 0.1 l 0 -0.4 l 2.5 -0.2 Z" fill="#b65749"/><path d="M 50.9 50.6 h 2.5 l 0 0.4 l -2.5 0.1 Z" fill="#b55143"/><path d="M 50.9 52.1 h 2.5 l 0 0.4 l -2.5 0.2 Z" fill="#b65446"/><path d="M 50.9 53.7 h 2.5 l 0 0.4 l -2.5 0.2 Z" fill="#bb5e4f"/><path d="M 50 67.3 l -2 0.3 l -0.1 -0.4 L 49.9 66.8 Z" fill="#bc6354"/><path d="M 49.9 70.2 l -1.9 0.3 l -0.1 -0.4 l 1.9 -0.4 Z" fill="#b55143"/><path d="M 48 41.5 l 1.9 -0.3 l 0.1 0.4 l -1.9 0.3 Z" fill="#b85a4b"/><path d="M 53.4 63.3 H 50.9 l 0 -0.3 h 2.5 Z" fill="#b65446"/><path d="M 49.9 40.1 l -1.9 0.4 l -0.1 -0.4 l 1.9 -0.4 Z" fill="#b55143"/><path d="M 53.4 41.7 H 50.9 l 0 -0.3 l 2.5 -0.1 Z" fill="#b85a4b"/><path d="M 49.9 71.6 l -1.9 0.4 l -0.1 -0.4 l 1.9 -0.4 Z" fill="#b65446"/><path d="M 62.7 65.6 l 2 -0.1 l 0 0.5 l -2 0.1 Z" fill="#bb5e4f"/><path d="M 62.7 49.3 H 64.7 l 0 0.4 L 62.7 49.8 Z" fill="#bb5e4f"/><path d="M 62.8 43.9 l 1.9 -0.1 l 0 0.4 l -1.9 0.1 Z" fill="#b85a4b"/><path d="M 62.7 45.2 l 2 -0.1 l 0 0.5 H 62.7 Z" fill="#b55143"/><path d="M 62.7 41.2 h 2 l 0 0.3 H 62.7 Z" fill="#bb5e4f"/><path d="M 64.7 67.4 l -2 0.1 l 0 -0.5 l 2 -0.1 Z" fill="#bc6354"/><path d="M 50.9 40 h 2.5 l 0 0.3 l -2.5 0.1 Z" fill="#b65446"/><path d="M 62.7 39.8 h 2 l 0 0.3 l -2 0.1 Z" fill="#bc6354"/><path d="M 64.7 55.1 h -2 l 0 -0.3 l 2 -0.1 Z" fill="#b85a4b"/><path d="M 64.7 46.9 H 62.7 l 0 -0.3 l 2 -0.1 Z" fill="#b55143"/><path d="M 62.7 47.9 l 2 -0.1 l 0 0.4 H 62.7 Z" fill="#bc6354"/><path d="M 49.9 61.5 l -1.9 0.4 l -0.1 -0.4 l 1.9 -0.4 Z" fill="#b65446"/><path d="M 64.7 63.2 l -2 0.1 l 0 -0.4 h 2 Z" fill="#bb5e4f"/><path d="M 49.9 44.4 l -1.9 0.4 l -0.1 -0.4 l 1.9 -0.4 Z" fill="#b85a4b"/><path d="M 52.6 47.9 h 0.8 l 0 0.6 L 50.9 48.1 l 0.5 -0.1 l 0.6 0 Z" fill="#b34e40"/><path d="M 48 62.9 l 1.9 -0.4 l 0.1 0.4 l -1.9 0.3 Z" fill="#b65749"/><path d="M 62.7 42.5 l 2 -0.1 l 0 0.5 l -2 0.2 Z" fill="#b65749"/><path d="M 49.9 43 l -1.9 0.3 l -0.1 -0.4 l 1.9 -0.4 Z" fill="#b65446"/><path d="M 50 68.7 l -1.9 0.3 l -0.1 -0.4 l 1.9 -0.3 Z" fill="#b34e40"/><path d="M 52.6 64.8 H 50.9 l 0 -0.3 l 2.5 -0.1 l 0.1 0.2 q -0.2 0.1 -0.5 0.2 Q 52.8 64.7 52.6 64.8 Z" fill="#b04136"/><path d="M 64.7 70.1 l -2 0.1 l 0 -0.4 h 2 Z" fill="#b65446"/><path d="M 49.9 38.9 l -1.9 0.4 l -0.1 -0.4 l 1.9 -0.4 Z" fill="#b65446"/><path d="M 64.6 53.9 H 62.7 l 0 -0.3 l 2 -0.1 Z" fill="#b65749"/><path d="M 49.9 45.9 l -1.8 0.3 L 48 45.8 l 1.9 -0.4 Z" fill="#bb5e4f"/><path d="M 47.9 65.8 l 1.9 -0.4 l 0.1 0.4 l -1.9 0.4 Z" fill="#b65749"/><path d="M 49.9 47.3 l -1.9 0.3 l -0.1 -0.4 l 1.9 -0.4 Z" fill="#b65446"/><path d="M 50 58.7 l -1.9 0.3 l -0.1 -0.4 l 1.9 -0.4 Z" fill="#b65446"/><path d="M 61.5 49.8 l -1.5 -0.3 l 0.1 -0.5 l 1.6 0.2 Z" fill="#bc6354"/><path d="M 56.2 41.7 l -1.5 0.2 l -0.1 -0.4 l 1.5 -0.3 Z" fill="#c06b5b"/><path d="M 62.7 57.5 l 2 -0.1 l 0 0.5 l -2 0.1 Z" fill="#b55143"/><path d="M 56.1 63.3 l -1.5 0.2 l -0.1 -0.4 L 56.1 62.8 Z" fill="#bc6354"/><path d="M 48 64.2 l 1.9 -0.3 l 0.1 0.4 l -1.9 0.4 Z" fill="#b34e40"/><path d="M 62.7 71 l 2 -0.1 l 0 0.4 l -2 0.1 Z" fill="#b65446"/><path d="M 62.7 38.6 H 64.7 l 0 0.3 l -2 0.1 Z" fill="#b65446"/><path d="M 60 47.7 l 1.5 0.2 l 0 0.4 l -1.5 -0.1 Z" fill="#bc6354"/><path d="M 62.7 52 h 2 l 0 0.3 h -2 Z" fill="#b55143"/><path d="M 56.1 57.9 l -1.5 0.1 l 0 -0.4 l 1.5 -0.2 Z" fill="#b85a4b"/><path d="M 64.7 59.3 H 62.7 l 0 -0.3 l 2 -0.1 Z" fill="#b65749"/><path d="M 62.7 60.2 h 2 l 0 0.3 h -2 Z" fill="#b55143"/><path d="M 64.7 64.6 H 62.7 l 0 -0.3 H 64.7 Z" fill="#b65446"/><path d="M 60 68 l 1.5 0.3 l -0.1 0.4 L 59.9 68.5 Z" fill="#bc6354"/><path d="M 64.7 68.6 H 62.7 l 0 -0.3 h 2 Z" fill="#b34e40"/><path d="M 47.9 54.3 l 1.9 -0.4 l 0.1 0.4 c -0.3 0.1 -0.6 0.1 -0.9 0.2 c -0.3 0.1 -0.7 0.1 -1 0.2 Z" fill="#b34e40"/><path d="M 60 65.4 l 1.5 0.2 l 0 0.4 l -1.5 -0.1 Z" fill="#b65749"/><path d="M 60 69.5 l 1.5 0.2 l -0.1 0.4 l -1.5 -0.2 Z" fill="#b65749"/><path d="M 61.4 62.1 l -1.4 -0.2 l 0.1 -0.5 l 1.5 0.2 Z" fill="#b65749"/><path d="M 54.6 38.7 l 1.5 -0.2 l 0.1 0.4 l -1.5 0.2 Z" fill="#b55143"/><path d="M 54.6 40 l 1.5 -0.2 l 0.1 0.4 l -1.5 0.2 Z" fill="#b65446"/><path d="M 47.9 52.9 l 1.9 -0.3 l 0.1 0.4 l -1.9 0.4 Z" fill="#b74e43"/><path d="M 49.9 48.7 l -1.8 0.4 l -0.1 -0.4 l 1.9 -0.5 Z" fill="#b34e40"/><path d="M 61.5 45.7 l -1.5 -0.3 l 0.1 -0.4 l 1.5 0.2 Z" fill="#b65446"/><path d="M 56.1 64.6 l -1.4 0.2 l -0.1 -0.3 l 1.4 -0.3 Z" fill="#b34e40"/><path d="M 49.9 57.3 l -1.9 0.3 l -0.1 -0.4 l 1.9 -0.4 Z" fill="#b65749"/><path d="M 47.9 55.7 l 1.9 -0.3 l 0.1 0.4 l -1.9 0.4 Z" fill="#b65446"/><path d="M 61.5 52.4 l -1.5 -0.2 l 0.1 -0.4 l 1.5 0.2 Z" fill="#b85a4b"/><path d="M 54.6 69.9 l 1.5 -0.2 l 0.1 0.4 l -1.5 0.2 Z" fill="#bb5e4f"/><path d="M 52.8 46.7 l 0.5 0 a 0.3 0.3 0 0 0 0.1 0.2 l 0 0 q -0.1 0.1 -0.3 0.2 l -2.1 0.1 l -0.1 -0.3 l 0.5 -0.2 l 0.7 0.2 Z" fill="#ae322c"/><path d="M 60 57.3 l 1.5 0.2 l 0 0.4 l -1.5 -0.1 Z" fill="#b85a4b"/><path d="M 56.2 59.3 l -1.5 0.2 l 0 -0.4 l 1.5 -0.2 Z" fill="#b65749"/><path d="M 48 51.5 l 1.9 -0.3 l 0.1 0.4 l -1.9 0.4 Z" fill="#b34e40"/><path d="M 47.9 50.1 l 1.9 -0.4 l 0.1 0.4 l -1.9 0.4 Z" fill="#b34e40"/><path d="M 61.4 60.6 l -1.5 -0.2 l 0 -0.4 l 1.5 0.2 Z" fill="#b65749"/><path d="M 54.6 61.7 l 1.5 -0.1 l 0 0.4 l -1.5 0.2 Z" fill="#b55143"/><path d="M 64.6 61.5 l 0.1 0.3 l -1.9 0.1 l 0 -0.4 l 1.2 -0.1 Z" fill="#b65446"/><path d="M 61.3 59.4 l -1.4 -0.2 l 0.1 -0.4 l 1.5 0.3 Z" fill="#bc6354"/><path d="M 61.4 54 l -1.5 -0.2 l 0.1 -0.4 l 1.5 0.2 Z" fill="#b65446"/><path d="M 56.2 68.7 l -1.5 0.2 l 0 -0.4 l 1.5 -0.2 Z" fill="#b55143"/><path d="M 56.1 71.4 l -1.4 0.2 l -0.1 -0.4 l 1.5 -0.2 Z" fill="#b34e40"/><path d="M 56.1 44.4 l -1.4 0.2 l -0.1 -0.4 l 1.4 -0.2 Z" fill="#bb5e4f"/><path d="M 54.6 52.2 l 1.5 -0.3 l 0.1 0.4 l -1.5 0.2 Z" fill="#b55143"/><path d="M 61.4 55.3 l -1.4 -0.2 l 0 -0.4 l 1.5 0.2 Z" fill="#b55143"/><path d="M 60.1 50.3 l 1.5 0.2 l -0.1 0.4 l -1.5 -0.2 Z" fill="#b65749"/><path d="M 61.4 41.7 l -1.5 -0.2 l 0.1 -0.4 l 1.5 0.2 Z" fill="#b65749"/><path d="M 57.4 69.7 l 1.2 -0.1 l 0.1 0.4 l -1.2 0.2 Z" fill="#b65749"/><path d="M 52.8 44.4 H 50.9 l 0 -0.4 H 52.6 Z" fill="#b65446"/><path d="M 56.2 60.5 L 54.7 60.7 l -0.1 -0.4 l 1.4 -0.2 Z" fill="#b65446"/><path d="M 62.9 50.9 l 0 -0.4 h 1.8 l 0 0.3 l -1.1 0.1 Z" fill="#bc6354"/><path d="M 56.1 51 l -1.4 0.2 l -0.1 -0.4 l 1.4 -0.3 Z" fill="#b65749"/><path d="M 56.1 49.8 l -1.4 0.1 l 0 -0.4 l 1.5 -0.2 Z" fill="#b65446"/><path d="M 58.6 48.1 L 57.5 48.3 l -0.1 -0.4 l 1.1 -0.3 Z" fill="#b65446"/><path d="M 54.6 45.3 l 1.5 -0.2 l 0.1 0.4 l -1.5 0.2 Z" fill="#b65446"/><path d="M 57.4 61.6 l 1.2 -0.2 l 0.1 0.4 l -1.2 0.2 Z" fill="#b65749"/><path d="M 60 70.8 l 1.5 0.2 l -0.1 0.4 l -1.5 -0.1 Z" fill="#b34e40"/><path d="M 61.4 47.1 l -1.5 -0.2 l 0 -0.4 l 1.5 0.2 Z" fill="#b55143"/><path d="M 58.6 45.5 l -1.1 0.2 l -0.1 -0.4 l 1.2 -0.2 Z" fill="#b85a4b"/><path d="M 58.6 56.5 l -1.2 0.2 l -0.1 -0.4 l 1.2 -0.2 Z" fill="#b85a4b"/><path d="M 56.1 42.9 l -1.4 0.1 l 0 -0.4 l 1.4 -0.1 Z" fill="#b65446"/><path d="M 58.7 60.4 l -1.2 0.1 l -0.1 -0.4 l 1.2 -0.2 Z" fill="#b65749"/><path d="M 54.6 55 l 1.5 -0.2 l 0.1 0.4 l -1.5 0.2 Z" fill="#b65446"/><path d="M 57.4 65.6 l 1.2 -0.2 l 0.1 0.4 l -1.1 0.3 Z" fill="#b65749"/><path d="M 56.2 66 l -1.5 0.2 l -0.1 -0.4 l 1.5 -0.2 Z" fill="#b55143"/><path d="M 60 39.6 l 1.5 0.2 l -0.1 0.4 l -1.5 -0.2 Z" fill="#b65446"/><path d="M 60 43.7 l 1.5 0.2 l 0 0.4 l -1.5 -0.2 Z" fill="#b85a4b"/><path d="M 61.4 67.5 l -1.4 -0.2 l 0 -0.4 l 1.4 0.1 Z" fill="#b34e40"/><path d="M 57.4 58.9 l 1.2 -0.1 l 0.1 0.4 l -1.1 0.2 Z" fill="#bb5e4f"/><path d="M 57.5 51.9 l 1.1 -0.1 l 0 0.4 l -1.2 0.1 Z" fill="#bb5e4f"/><path d="M 56.1 48.3 l -1.4 0.2 l -0.1 -0.4 l 1.4 -0.2 Z" fill="#bb5e4f"/><path d="M 56.1 67.4 l -1.4 0.1 l -0.1 -0.4 l 1.4 -0.2 Z" fill="#b65749"/><path d="M 58.6 55.1 l -1.2 0.2 l -0.1 -0.4 l 1.2 -0.2 Z" fill="#b55143"/><path d="M 54.6 46.8 l 1.5 -0.2 l 0.1 0.4 l -1.5 0.3 Z" fill="#b65749"/><path d="M 58.6 57.8 l -1.2 0.1 l -0.1 -0.4 l 1.2 -0.2 Z" fill="#b85a4b"/><path d="M 58.6 46.9 l -1.2 0.2 l -0.1 -0.4 l 1.1 -0.3 Z" fill="#bb5e4f"/><path d="M 56.1 54 l -1.4 0.1 l -0.1 -0.4 l 1.4 -0.2 Z" fill="#b65749"/><path d="M 57.4 53.5 l 1.2 -0.1 l 0.1 0.4 l -1.2 0.2 Z" fill="#b65446"/><path d="M 58.6 49.5 l -1.2 0.2 l -0.1 -0.4 l 1.2 -0.2 Z" fill="#b55143"/><path d="M 58.1 67.3 l -0.6 0.1 l 0.1 -0.4 l 1 0.3 Z" fill="#b34e40"/><path d="M 52.2 71.4 l 1.1 -0.5 l 0.2 0.4 l -0.7 0.1 Z" fill="#b34e40"/><path d="M 57.4 50.5 l 1.1 -0.1 l 0.1 0.4 l -1.1 0.2 Z" fill="#b85a4b"/><path d="M 61.4 39 l -1.4 -0.2 l 0.1 -0.4 l 1.4 0.2 Z" fill="#b34e40"/><path d="M 60.1 62.6 l 1.4 0.3 l -0.1 0.4 l -1.4 -0.2 Z" fill="#b55143"/><path d="M 62.9 56.3 l 1.7 0 l 0 0.3 l 0 0 q -0.1 0 -0.3 0.1 l -0.7 0.1 l -0.6 0 a 0.2 0.2 0 0 1 -0.1 0 Z" fill="#b04136"/><path d="M 60.6 56.5 l -0.7 -0.1 l 0.1 -0.3 l 1.4 0.2 l 0 0.3 l -0.5 0.1 Z" fill="#b34e40"/><path d="M 57.4 42.5 l 1.1 -0.2 l 0.1 0.4 l -1.1 0.2 Z" fill="#b55143"/><path d="M 61.4 64.7 l -1.5 -0.2 l 0.1 -0.4 l 1.4 0.2 Z" fill="#b55143"/><path d="M 52.1 42.6 l 1.3 -0.1 l 0 0.4 l -1.1 0.2 Z" fill="#b55143"/><path d="M 57.4 41.3 l 1.1 -0.2 l 0.1 0.4 l -1.1 0.2 Z" fill="#b34e40"/><path d="M 58.6 38.8 l -1.1 0.2 l -0.1 -0.4 l 1.1 -0.2 Z" fill="#b55143"/><path d="M 57.4 39.8 l 1.1 -0.1 l 0.1 0.4 l -1.2 0.2 Z" fill="#b55143"/><path d="M 57.4 62.8 l 1.1 -0.2 l 0.1 0.4 l -1.1 0.2 Z" fill="#b65446"/><path d="M 57.4 71 l 1.2 -0.2 l 0.1 0.4 l -1.2 0.2 Z" fill="#b34e40"/><path d="M 57.4 64.3 l 1.2 -0.2 l 0.1 0.4 l -1.2 0.2 Z" fill="#b34e40"/><path d="M 58.6 44.2 l -1.1 0.1 l 0 -0.3 l 1.1 -0.2 Z" fill="#b74e43"/><path d="M 50.9 71 l 1.1 0.1 l 0 0.3 H 50.9 Z" fill="#b85a4b"/><path d="M 61.1 42.4 l 0.4 0.2 l -0.1 0.2 l -1.4 -0.2 l 0 -0.2 l 0.5 -0.2 Z" fill="#b04136"/><path d="M 55.2 56.3 l 0.9 0 l 0 0.4 l -0.9 0.1 Z" fill="#bb5e4f"/><path d="M 52.1 42.6 l 0.2 0.4 l -1.2 0 l 0.2 -0.4 Z" fill="#a52926"/><path d="M 55.2 56.3 l 0 0.5 l -0.6 0.1 l -0.1 -0.2 Z" fill="#b85a4b"/><path d="M 52.8 44.4 l -0.2 -0.4 h 0.8 l 0 0.2 Z" fill="#b74e43"/><path d="M 58.6 68.5 l -1.1 0.1 l 0.2 -0.3 Z" fill="#c06b5b"/><path d="M 58.6 68.5 l -0.9 -0.2 Z" fill="#a52926"/><path d="M 51.4 42.6 l -0.2 0.4 l -0.5 -0.4 Z" fill="#b55143"/><path d="M 64.6 61.5 l -0.7 0 Z" fill="#a52926"/><path d="M 62.9 50.9 l 0.7 0 Z" fill="#ae322c"/><path d="M 52.8 46.7 q -0.4 0.1 -0.7 0.2 a 0.6 0.6 0 0 0 0 -0.2 Z" fill="#b85a4b"/><path d="M 52.1 46.7 a 0.6 0.6 0 0 1 0 0.2 q -0.4 -0.1 -0.7 -0.2 Z" fill="#ca7e71"/><path d="M 52.6 47.9 l -0.6 0.1 Z" fill="#ca7e71"/><path d="M 58.1 67.3 l 0.5 -0.1 Z" fill="#ca7e71"/><path d="M 51.4 48 l -0.5 0.1 Z" fill="#ca7e71"/><path d="M 63 56.7 l 0.6 0 Z" fill="#c06b5b"/><path d="M 52.2 71.4 l 0.6 0 Z" fill="#b85a4b"/><path d="M 62.9 56.3 l 0 0.4 Z" fill="#c06b5b"/><path d="M 61.1 42.4 l -0.6 -0.1 Z" fill="#c67466"/><path d="M 60.6 56.5 l 0.3 0.1 Z" fill="#c06b5b"/><path d="M 64.6 56.5 l 0 -0.3 l 0.2 0.1 Z" fill="#c06b5b"/><path d="M 53.1 47.1 q 0.1 -0.1 0.3 -0.2 Q 53.2 47 53.1 47.1 Z" fill="#b85a4b"/><path d="M 53.3 46.9 a 0.3 0.3 0 0 1 -0.1 -0.2 Z" fill="#b85a4b"/><path d="M 64.3 56.6 q 0.1 0 0.3 -0.1 Q 64.5 56.5 64.3 56.6 Z" fill="#c06b5b"/><path d="M 52.6 64.8 q 0.2 0 0.3 -0.1 Q 52.8 64.7 52.6 64.8 Z" fill="#b65749"/><path d="M 56.9 76.7 l 1.9 0.1 Z" fill="#e0b3a9"/><path d="M 50.6 76.5 l 0.8 0.1 Q 51 76.5 50.6 76.5 Z" fill="#bc6354"/><path d="M 49.7 76.5 l 0.5 0 Z" fill="#e0b3a9"/><path d="M 67.7 75.2 l 0.2 0.5 l -7.2 -0.1 l 0 -0.4 l 3.3 0 q 1.8 -0.1 3.6 -0.1 Z" fill="#a52926"/><path d="M 56.2 75.6 l 0 -0.4 L 58.8 75.2 l 0.8 0.5 c -0.6 0.2 -1.2 0.3 -1.8 0.5 c -0.2 0 -0.4 0 -0.7 0 l 0 0 Z" fill="#b34e40"/><path d="M 61.3 76.3 l -2.7 -0.1 Z" fill="#c06b5b"/><path d="M 60.8 75.3 l 0 0.4 l -0.6 0 Z" fill="#b34e40"/><path d="M 67.7 75.2 q -1.8 0.1 -3.6 0.1 Z" fill="#ca7e71"/><path d="M 56.2 75.6 q 0.5 0.3 1 0.5 c -0.3 0 -0.5 0 -0.8 0.1 c -0.4 -0.3 -1.2 0.6 -1.3 -0.5 Q 55.6 75.6 56.2 75.6 Z" fill="#f6eae7"/><path d="M 40 76.5 l -2 0.1 Z" fill="#bc6354"/><path d="M 30.4 76.7 l -1.8 0.1 Z" fill="#bc6354"/><path d="M 30.4 76.3 l 1.3 -0.1 Q 31.1 76.3 30.4 76.3 Z" fill="#bc6354"/><path d="M 56.4 76.2 c 0.3 0 0.5 0 0.8 -0.1 l 0 0 Z" fill="#c06b5b"/><path d="M 27.1 76.8 l -0.7 0 l 0 -0.4 l 0.7 0 Z" fill="#ae322c"/><path d="M 29.6 74.8 c -1.7 0 -3.5 0 -5.2 -0.1 c -0.4 0 -0.7 -0.4 -1.1 -0.6 q 8 0.1 15.9 0.2 c 0.6 0 1.1 0 1.7 0 l -0.1 0.4 c -2.6 0 -5.1 0 -7.7 0.1 a 4.1 4.1 0 0 0 -1.1 0.3 l -0.1 0 Z" fill="#b04136"/><path d="M 40.2 49.9 l -2.6 -0.1 l 0 -0.4 H 40.2 Z" fill="#bc6354"/><path d="M 40.2 66.1 H 37.5 l 0 -0.3 h 2.6 Z" fill="#bc6354"/><path d="M 40.2 47.1 H 37.5 L 37.5 46.7 h 2.6 Z" fill="#bb5e4f"/><path d="M 37.5 45.3 h 2.6 l 0 0.3 H 37.5 Z" fill="#bc6354"/><path d="M 40.1 55.3 H 37.5 l 0 -0.3 H 40.1 Z" fill="#b85a4b"/><path d="M 37.5 68.3 l 2.6 0.1 l 0 0.3 H 37.5 Z" fill="#b85a4b"/><path d="M 40.1 59.6 l -2.6 -0.1 l 0 -0.4 h 2.6 Z" fill="#bb5e4f"/><path d="M 37.5 61.7 h 2.6 l 0 0.3 H 37.5 Z" fill="#bb5e4f"/><path d="M 40.1 58 H 37.5 l 0 -0.4 h 2.6 Z" fill="#b85a4b"/><ellipse cx="38.8" cy="38.9" rx="1.9" ry="0.2" fill="#bb5e4f"/><path d="M 37.3 69.8 h 2.7 C 39.8 70.5 38.7 70.6 37.3 69.8 Z" fill="#b55143"/><path d="M 37.6 56.4 H 40.1 l 0 0.3 H 37.6 Z" fill="#b85a4b"/><path d="M 37.6 50.6 h 2.5 l 0 0.3 H 37.5 Z" fill="#b65446"/><path d="M 37.5 53.7 c 0.1 0 0.2 -0.1 0.3 -0.1 a 6 6 0 0 1 2.3 0.4 H 37.6 Z" fill="#b85a4b"/><path d="M 40.1 60.7 l -2.6 -0.1 l 0 -0.4 h 2.6 Z" fill="#bb5e4f"/><path d="M 37.6 52 l 2.5 0.1 l 0 0.4 q -1.3 -0.1 -2.5 -0.1 Z" fill="#b65446"/><path d="M 28.3 54 H 26.3 L 26.3 53.6 h 2 Z" fill="#c06b5b"/><path d="M 37.6 47.9 l 2.6 0.1 l 0 0.3 H 37.6 Z" fill="#b65749"/><path d="M 40.1 64.9 l -2.6 -0.1 l 0 -0.4 h 2.6 Z" fill="#b85a4b"/><path d="M 41.1 59.7 l 2 0.3 l -0.1 0.5 l -2 -0.4 Z" fill="#c06b5b"/><path d="M 37.6 71 l 2.6 0.1 l 0 0.3 H 37.5 Z" fill="#b85a4b"/><path d="M 41.1 66.9 l 2 0.3 l -0.1 0.5 L 41 67.3 Z" fill="#bb5e4f"/><path d="M 37.6 62.9 h 2.6 l 0 0.3 H 37.5 Z" fill="#b65749"/><path d="M 41.1 65.5 l 2 0.3 l -0.1 0.4 l -2 -0.4 Z" fill="#b65749"/><path d="M 41.1 69.7 l 1.9 0.3 l -0.1 0.4 l -2 -0.3 Z" fill="#b65446"/><path d="M 26.2 45.2 h 2 l 0 0.3 H 26.2 Z" fill="#b65749"/><path d="M 41.1 41.1 l 1.9 0.4 l -0.1 0.4 l -1.9 -0.3 Z" fill="#b85a4b"/><path d="M 26.3 42.4 l 2 0.2 l 0 0.4 l -2 -0.1 Z" fill="#bb5e4f"/><path d="M 40.1 42.9 H 37.6 l 0 -0.3 h 2.6 Z" fill="#b34e40"/><path d="M 26.3 66.9 l 2 0.1 l 0 0.3 h -2 Z" fill="#bc6354"/><path d="M 28.2 41.7 l -2 -0.1 l 0 -0.3 h 2 Z" fill="#bb5e4f"/><path d="M 41.2 58.2 l 1.9 0.4 l -0.1 0.4 l -1.9 -0.4 Z" fill="#b65446"/><path d="M 28.3 49.8 l -2 -0.1 l 0 -0.4 h 2 Z" fill="#bb5e4f"/><path d="M 28.3 65.9 H 26.3 l 0 -0.3 h 2 Z" fill="#bc6354"/><path d="M 41.1 71.1 l 1.9 0.4 l -0.1 0.4 l -1.9 -0.3 Z" fill="#b65749"/><ellipse cx="27.2" cy="46.8" rx="1.4" ry="0.2" fill="#b85a4b"/><path d="M 43 64.7 l -1.9 -0.4 l 0.1 -0.4 l 2 0.3 Z" fill="#bb5e4f"/><path d="M 42.9 61.8 l -1.8 -0.3 l 0.1 -0.4 l 1.9 0.3 Z" fill="#b65749"/><path d="M 41.1 68.3 l 1.9 0.4 l -0.1 0.4 l -1.9 -0.3 Z" fill="#b34e40"/><path d="M 28.3 48.2 H 26.3 l 0 -0.3 H 28.3 Z" fill="#bc6354"/><path d="M 26.3 39.8 h 2 l 0 0.3 H 26.3 Z" fill="#bc6354"/><path d="M 41.2 39.7 l 1.9 0.4 l -0.1 0.4 l -1.9 -0.3 Z" fill="#b55143"/><path d="M 42.9 43.4 l -1.8 -0.4 l 0.1 -0.4 l 1.9 0.4 Z" fill="#b55143"/><path d="M 43 44.8 l -1.9 -0.3 l 0.1 -0.4 l 1.9 0.3 Z" fill="#b85a4b"/><path d="M 42.9 63.3 l -1.9 -0.3 l 0.1 -0.4 l 1.9 0.3 Z" fill="#bb5e4f"/><path d="M 26.3 62.8 h 1.9 l 0 0.3 H 26.3 Z" fill="#bb5e4f"/><path d="M 26.3 54.7 l 2 0.1 l 0 0.3 H 26.3 Z" fill="#bb5e4f"/><path d="M 41.2 38.4 l 1.9 0.4 l -0.1 0.4 L 41.1 38.9 Z" fill="#b65749"/><path d="M 41.1 56.8 l 1.9 0.3 l -0.1 0.4 l -1.9 -0.3 Z" fill="#b65749"/><path d="M 39 67.2 q 0.4 0 0.8 -0.1 q 0.2 0.1 0.4 0.1 l 0 0 l -0.1 0.2 H 37.6 l 0 -0.3 l 0.9 -0.1 Z" fill="#b04136"/><path d="M 31 49.5 l -1.5 0.3 l -0.1 -0.4 l 1.5 -0.3 Z" fill="#bc6354"/><path d="M 31 69.9 l -1.5 0.3 l -0.1 -0.5 l 1.5 -0.3 Z" fill="#bc6354"/><path d="M 34.9 62.8 l 1.5 0.2 l 0 0.4 l -1.5 -0.1 Z" fill="#b65446"/><path d="M 31.1 48.1 l -1.5 0.3 l -0.1 -0.5 L 31 47.6 Z" fill="#c06b5b"/><path d="M 29.4 57.5 l 1.6 -0.3 l 0.1 0.4 l -1.5 0.3 Z" fill="#bc6354"/><path d="M 34.9 39.8 l 1.5 0.2 l 0 0.4 l -1.5 -0.2 Z" fill="#c06b5b"/><path d="M 28.2 39 l -2 -0.1 l 0 -0.3 H 28.3 Z" fill="#b65446"/><path d="M 28.3 70 H 26.3 l 0 -0.2 h 2 Z" fill="#b65446"/><path d="M 34.9 41.2 l 1.5 0.2 l 0 0.5 l -1.5 -0.2 Z" fill="#c06b5b"/><path d="M 26.3 43.8 l 1.9 0.1 l 0 0.3 h -1.9 Z" fill="#b85a4b"/><path d="M 41.1 55.4 l 1.9 0.3 l -0.1 0.4 l -1.9 -0.3 Z" fill="#b65749"/><path d="M 28.2 71.3 H 26.3 l 0 -0.3 h 2 Z" fill="#b55143"/><path d="M 26.3 68.3 h 2 l 0 0.3 H 26.3 Z" fill="#b34e40"/><path d="M 43 46.2 l -1.9 -0.3 l 0.1 -0.4 l 1.9 0.4 Z" fill="#b65749"/><path d="M 41.1 46.9 l 1.9 0.3 l -0.1 0.4 L 41.1 47.3 Z" fill="#b65446"/><path d="M 26.3 51.9 l 2 0.1 l 0 0.3 H 26.3 Z" fill="#b74e43"/><path d="M 43 53.3 l -1.9 -0.3 l 0.1 -0.4 l 1.9 0.3 Z" fill="#b74e43"/><path d="M 43 54.8 L 41.1 54.4 l 0.1 -0.4 l 1.9 0.4 Z" fill="#b34e40"/><path d="M 31 55.1 L 29.5 55.3 l -0.1 -0.4 l 1.5 -0.3 Z" fill="#c06b5b"/><path d="M 28.2 50.9 H 26.3 l 0 -0.3 H 28.2 Z" fill="#bb5e4f"/><path d="M 28.2 58 l -2 -0.1 l 0 -0.3 h 2 Z" fill="#b55143"/><path d="M 30.9 59.2 l -1.5 0.2 l -0.1 -0.4 l 1.5 -0.2 Z" fill="#bc6354"/><ellipse cx="27.3" cy="59.1" rx="1.4" ry="0.2" fill="#b65749"/><path d="M 28.3 60.5 h -2 l 0 -0.3 h 2 Z" fill="#b55143"/><path d="M 29.4 61.6 l 1.5 -0.2 l 0.1 0.4 l -1.5 0.2 Z" fill="#b85a4b"/><path d="M 28.3 61.9 H 26.3 l 0 -0.3 h 2 Z" fill="#b34e40"/><path d="M 28.2 64.6 H 26.2 l 0 -0.3 h 2 Z" fill="#b65446"/><path d="M 29.4 65.6 l 1.5 -0.2 l 0.1 0.4 l -1.5 0.3 Z" fill="#b65749"/><path d="M 31 68.6 l -1.5 0.2 l -0.1 -0.4 l 1.5 -0.3 Z" fill="#bc6354"/><path d="M 34.9 50.5 l 1.5 0.2 l 0 0.4 l -1.5 -0.1 Z" fill="#b65749"/><path d="M 34.9 38.6 l 1.5 0.1 l 0 0.4 l -1.5 -0.1 Z" fill="#b55143"/><path d="M 41.2 48.3 l 1.9 0.4 l -0.1 0.4 l -1.9 -0.3 Z" fill="#b34e40"/><path d="M 36.3 44.5 L 34.8 44.3 l 0 -0.4 l 1.5 0.1 Z" fill="#bb5e4f"/><path d="M 36.3 64.8 l -1.4 -0.2 l 0 -0.4 l 1.5 0.1 Z" fill="#b34e40"/><path d="M 43 51.9 l -1.9 -0.3 l 0.1 -0.4 l 1.9 0.3 Z" fill="#b65446"/><path d="M 31 45.4 L 29.5 45.7 l -0.1 -0.4 l 1.5 -0.3 Z" fill="#b65446"/><path d="M 29.4 67 l 1.5 -0.2 l 0.1 0.4 l -1.5 0.3 Z" fill="#b65749"/><path d="M 34.9 57.6 H 36.3 l 0 0.3 h -1.5 Z" fill="#b55143"/><path d="M 36.3 43.1 l -1.4 -0.2 l 0.1 -0.4 l 1.4 0.2 Z" fill="#b65446"/><path d="M 34.9 58.9 l 1.5 0.2 l -0.1 0.4 l -1.5 -0.2 Z" fill="#b65446"/><path d="M 31 52.2 l -1.5 0.2 l -0.1 -0.4 l 1.5 -0.2 Z" fill="#b85a4b"/><path d="M 31 50.8 l -1.4 0.2 l -0.1 -0.4 l 1.5 -0.3 Z" fill="#bc6354"/><path d="M 31 60.4 l -1.5 0.2 l -0.1 -0.4 l 1.5 -0.3 Z" fill="#b85a4b"/><path d="M 34.9 69.7 l 1.5 0.2 l -0.1 0.4 l -1.5 -0.2 Z" fill="#b65749"/><path d="M 43 50.5 l -1.9 -0.3 l 0.1 -0.4 l 1.9 0.3 Z" fill="#b65446"/><path d="M 34.9 61.5 l 1.5 0.2 l 0 0.4 l -1.5 -0.2 Z" fill="#b34e40"/><path d="M 31 53.8 l -1.5 0.2 l -0.1 -0.4 l 1.5 -0.3 Z" fill="#b55143"/><path d="M 29.4 41.3 l 1.5 -0.2 l 0.1 0.4 l -1.5 0.3 Z" fill="#b65446"/><path d="M 34.9 70.9 l 1.5 0.2 l 0 0.4 l -1.4 -0.2 Z" fill="#b34e40"/><path d="M 34.9 60.1 l 1.5 0.2 l 0 0.4 l -1.5 -0.2 Z" fill="#b65749"/><path d="M 33.5 45.6 l -1.2 -0.2 l 0 -0.4 l 1.2 0.1 Z" fill="#b85a4b"/><path d="M 34.9 68.2 l 1.5 0.2 l 0 0.4 l -1.5 -0.1 Z" fill="#b65446"/><path d="M 36.3 67.6 l -1.5 -0.1 l 0 -0.4 l 1.5 0.1 Z" fill="#b65749"/><path d="M 32.4 61.4 l 1.2 0.2 l -0.1 0.4 l -1.2 -0.1 Z" fill="#b65749"/><path d="M 36.2 49.9 l -1.4 -0.2 l 0 -0.4 l 1.4 0.1 Z" fill="#b34e40"/><path d="M 30.9 46.9 l -1.4 0.2 l 0 -0.4 l 1.5 -0.2 Z" fill="#b55143"/><path d="M 33.5 56.7 l -1.1 -0.2 l 0 -0.4 l 1.2 0.1 Z" fill="#b85a4b"/><path d="M 38.3 44.1 h 1.8 l 0 0.3 H 38.3 Z" fill="#b65446"/><path d="M 29.5 44 l 1.5 -0.2 l 0.1 0.4 l -1.5 0.3 Z" fill="#bb5e4f"/><path d="M 31 38.8 l -1.5 0.2 l -0.1 -0.4 l 1.5 -0.2 Z" fill="#b65446"/><path d="M 31 42.7 l -1.5 0.2 l -0.1 -0.4 l 1.5 -0.3 Z" fill="#b85a4b"/><path d="M 29.5 39.9 l 1.5 -0.2 l 0.1 0.4 l -1.5 0.3 Z" fill="#b65749"/><path d="M 36.3 55.4 l -1.4 -0.2 l 0 -0.4 l 1.5 0.1 Z" fill="#b65446"/><path d="M 33.5 66 L 32.3 65.8 l 0 -0.4 l 1.2 0.1 Z" fill="#b65749"/><path d="M 38.4 39.9 h 1.7 l 0 0.4 q -0.9 0 -1.7 0 Z" fill="#b65446"/><path d="M 32.4 57.3 l 1.2 0.2 l -0.1 0.4 l -1.2 -0.1 Z" fill="#bb5e4f"/><path d="M 34.9 47.8 l 1.4 0.2 l 0 0.4 L 34.8 48.3 Z" fill="#b65749"/><path d="M 36.3 45.8 l -1.4 -0.2 l 0 -0.4 l 1.5 0.1 Z" fill="#b65446"/><path d="M 32.4 58.8 l 1.2 0.1 l 0 0.4 l -1.2 -0.1 Z" fill="#b85a4b"/><path d="M 33.5 52.4 l -1.2 -0.1 l 0 -0.4 l 1.2 0.1 Z" fill="#b55143"/><path d="M 36.3 54.1 L 34.8 54 l 0 -0.4 l 1.4 0.1 Z" fill="#b55143"/><path d="M 32.4 60 l 1.2 0.1 l 0 0.4 l -1.2 -0.1 Z" fill="#bb5e4f"/><path d="M 36.2 52.6 l -1.3 -0.2 l 0 -0.4 l 1.4 0.2 Z" fill="#b55143"/><path d="M 34.9 46.6 l 1.5 0.2 l -0.1 0.4 l -1.5 -0.2 Z" fill="#b65749"/><path d="M 36.3 66.2 l -1.4 -0.2 l 0 -0.4 l 1.5 0.1 Z" fill="#b65446"/><path d="M 29.5 71 l 1.5 -0.2 l 0.1 0.4 l -1.5 0.2 Z" fill="#b34e40"/><path d="M 33.5 55.3 l -1.1 -0.2 l 0 -0.4 l 1.2 0.1 Z" fill="#b55143"/><path d="M 32.4 66.8 l 1.2 0.2 l 0 0.4 L 32.3 67.3 Z" fill="#b85a4b"/><path d="M 33.5 47 l -1.2 -0.2 l 0.1 -0.4 l 1.2 0.2 Z" fill="#bb5e4f"/><path d="M 32.4 50.4 l 1.2 0.1 l 0 0.4 L 32.4 50.9 Z" fill="#b85a4b"/><path d="M 40.8 74.7 l 0.1 -0.4 c 0.8 0 1.6 -0.1 2.3 0 c 0.2 0 0.4 0.3 0.6 0.4 Z" fill="#b34e40"/><path d="M 38.7 41.4 H 40.1 l 0 0.4 q -0.8 0 -1.5 0 Z" fill="#b65446"/><path d="M 30.4 56.5 l -0.9 0.1 l -0.1 -0.4 l 1.4 -0.1 l -0.1 0.4 Z" fill="#b04136"/><path d="M 32.4 53.4 l 1.2 0.1 l 0 0.4 l -1.2 -0.1 Z" fill="#b65446"/><path d="M 32.4 70.8 l 1.2 0.1 l 0 0.3 h -1.2 Z" fill="#b65446"/><path d="M 32.4 49.5 l 1.1 -0.4 l 0.1 0.4 l -0.5 0.2 Z" fill="#b55143"/><path d="M 28.1 56.3 c -0.1 0.2 -0.1 0.5 -0.2 0.4 c -0.5 0 -1 -0.1 -1.5 -0.2 l 1 -0.3 l 0.5 0 Z" fill="#c06b5b"/><path d="M 31 63.1 l -1.4 0.2 l -0.1 -0.4 l 1.5 -0.2 Z" fill="#b65446"/><path d="M 32.4 42.3 l 1.1 0.2 l 0 0.4 l -1.2 -0.1 Z" fill="#b65749"/><path d="M 35.8 56.7 l -0.9 0 l 0 -0.4 l 1.4 0.3 Z" fill="#bb5e4f"/><path d="M 29.5 64.3 l 1.5 -0.2 l 0.1 0.4 l -1.4 0.2 Z" fill="#b55143"/><path d="M 32.4 64.1 l 1.2 0.2 l -0.1 0.4 l -1.2 -0.1 Z" fill="#b34e40"/><path d="M 32.4 48.1 l 1.1 -0.4 l 0.1 0.4 l -0.4 0.1 Z" fill="#b34e40"/><path d="M 33.5 38.9 l -1.1 -0.1 l 0 -0.4 l 1.1 0.1 Z" fill="#b55143"/><path d="M 32.4 39.6 l 1.1 0.1 l 0 0.4 l -1.1 -0.1 Z" fill="#b55143"/><path d="M 32.4 62.7 L 33.6 62.8 l 0 0.4 l -1.2 -0.1 Z" fill="#b65446"/><path d="M 32.4 41.1 l 1.2 0.2 l 0 0.4 L 32.4 41.5 Z" fill="#b34e40"/><path d="M 33.5 44.3 L 32.4 44.2 l 0 -0.4 l 1.1 0.1 Z" fill="#b74e43"/><path d="M 33.4 68.3 l 0.2 0.3 l -1.1 -0.1 Z" fill="#c06b5b"/><path d="M 38.7 41.4 l -0.1 0.4 q -0.5 -0.1 -1.1 -0.2 l 0 -0.4 Z" fill="#b04136"/><path d="M 33.4 69.7 l 0.2 0.4 q -0.4 0 -0.7 -0.1 Z" fill="#c67466"/><path d="M 33.4 69.7 l -0.5 0.3 l -0.4 -0.2 l 0 -0.2 Z" fill="#a52926"/><path d="M 38.4 39.9 l 0 0.4 q -0.4 -0.1 -0.9 -0.1 l 0 -0.3 Z" fill="#b04136"/><path d="M 27.4 56.2 l -1 0.3 l 0 0 q 0 -0.1 0 -0.3 Z" fill="#ae322c"/><path d="M 33.4 68.3 l -0.9 0.2 Z" fill="#a52926"/><path d="M 35.8 56.7 l 0.5 -0.2 Z" fill="#b34e40"/><path d="M 32.4 49.5 l 0.7 0.2 Z" fill="#ca7e71"/><path d="M 32.4 48.1 l 0.7 0.2 Z" fill="#ca7e71"/><path d="M 37.6 44.1 h 0.6 l 0 0.3 l -0.6 0 Z" fill="#b34e40"/><path d="M 39 67.2 l -0.6 -0.1 Z" fill="#c67466"/><path d="M 30.4 56.5 l 0.4 0 Z" fill="#c06b5b"/><path d="M 26.4 56.2 q 0 0.1 0 0.3 q -0.1 -0.1 -0.1 -0.1 Z" fill="#c06b5b"/><path d="M 40.1 67.5 l 0.1 -0.2 Z" fill="#c67466"/><path d="M 40.1 67.2 q -0.2 -0.1 -0.4 -0.1 Q 39.9 67.2 40.1 67.2 Z" fill="#c67466"/><path d="M 28.1 56.3 l -0.2 0 A 0.2 0.2 0 0 1 28.1 56.3 Z" fill="#ae322c"/><path d="M 29.6 74.8 q 1.2 0.1 2.4 0.3 q -0.4 0.3 -0.8 0.6 l -0.7 0 l -0.5 -0.4 l -0.3 -0.1 Z" fill="#f6eae7"/><path d="M 31.1 75.7 q 0.4 -0.3 0.8 -0.6 l 0.1 0 q 0.7 0.1 1.4 0.2 l 0 0.4 Z" fill="#c06b5b"/><path d="M 26.4 76.4 l 0 0.4 l -1.2 0 l 0 -0.4 Z" fill="#b04136"/><path d="M 23.3 76.5 l -0.7 0 Z" fill="#bc6354"/><path d="M 24.3 76.5 l -0.6 0 Z" fill="#bc6354"/><path d="M 29.9 75.3 l 0.5 0.4 l -0.6 0 Z" fill="#b04136"/><path d="M 34.3 75.6 l 0.3 0 Z" fill="#c06b5b"/><path d="M 21.5 75.9 a 1.1 1.1 0 0 1 -0.1 -0.2 c 0 0 0 -0.1 0.1 -0.1 Z" fill="#bc6354"/><path d="M 22.1 76.5 l -0.3 0 Z" fill="#bc6354"/><path d="M 40.9 75.1 l -0.3 0 Z" fill="#c67466"/><path d="M 50.4 75.1 q -0.4 0 -0.8 0 Q 50.1 75.1 50.4 75.1 Z" fill="#c67466"/><path d="M 49.7 75.5 l 1 0 Z" fill="#e0b3a9"/></svg>