<svg id="b9d38deb-1998-452f-ba13-05ab8a3d2b40" data-name="Layer 1" xmlns="http://www.w3.org/2000/svg" viewBox="0 0 38.20983 25.91489"><defs><style>.b012e61c-75a2-4eca-ac4e-418f601b9181{fill:none;stroke-linecap:round;stroke-width:1.12557px;}.b012e61c-75a2-4eca-ac4e-418f601b9181,.ec479637-2b57-4dbf-b465-01afe09d5233{stroke:#4e7582;stroke-linejoin:round;}.ec479637-2b57-4dbf-b465-01afe09d5233{fill:#fff;stroke-width:1.35068px;}</style></defs><title>Artboard 125 copy</title><path class="b012e61c-75a2-4eca-ac4e-418f601b9181" d="M37.64705,12.93118l-4.53341.02011a.10074.10074,0,0,1-.09049-.06635l-.7386-2.36683c-.06827-.21879-.151-.21221-.18374.01463l-.58552,4.05136c-.04948.3424-.13359.34287-.1869.001l-.416-2.87749s-.02239-.18677-.04223-.18741c-.0206-.00066-.04647.14079-.04647.14079l-.22209,1.224a.09919.09919,0,0,1-.092.074l-20.59579.02667-.46946,0c-.38788.00168-1.245.04225-1.245.04225a.0992.0992,0,0,1-.0924-.07341l-.22932-1.22266s-.02671-.1413-.0473-.14051c-.01984.00075-.04112.18765-.04112.18765l-.399,2.8799c-.05129.34214-.1354.34216-.18691.00006L6.59056,9.45243c-.03412-.22664-.11684-.23274-.18382-.01355l-.72118,3.52985a.10071.10071,0,0,1-.0901.06688l-5.03267.02011"/><path class="ec479637-2b57-4dbf-b465-01afe09d5233" d="M19.09267,7.90132c4.49326-7.77146,16.70019,1.2312.08449,12.51766l.00008.0128-.00917-.00631-.009.00642-.00007-.0128C2.40858,9.33351,14.50615.18453,19.09267,7.90132Z"/></svg>