<svg id="f3d34a1a-413f-48fc-b770-e52e271ba3de" data-name="Layer 1" xmlns="http://www.w3.org/2000/svg" xmlns:xlink="http://www.w3.org/1999/xlink" viewBox="0 0 38.20983 25.91489"><defs><style>.ababa6ac-a84e-4e90-9298-32fc8d9dc658,.b4610e27-e3d3-4ca4-b8f5-a695c80f5ac5,.f4cba12b-1a7b-471d-80c7-3a7bbd234d31{fill:#fff;}.ababa6ac-a84e-4e90-9298-32fc8d9dc658,.b11a8a4f-ff26-4645-98cc-bc4f56aa6cd7,.bd2ccbc2-284e-4d14-bce6-6a5cac6c4b15,.e6961b9b-fee0-4a79-8015-3416ff2d3a3e,.f4cba12b-1a7b-471d-80c7-3a7bbd234d31{stroke:#4e7582;stroke-miterlimit:10;}.bd2ccbc2-284e-4d14-bce6-6a5cac6c4b15,.e6961b9b-fee0-4a79-8015-3416ff2d3a3e,.f4cba12b-1a7b-471d-80c7-3a7bbd234d31{stroke-width:0.95674px;}.bd2ccbc2-284e-4d14-bce6-6a5cac6c4b15{fill:none;}.b11a8a4f-ff26-4645-98cc-bc4f56aa6cd7,.e6961b9b-fee0-4a79-8015-3416ff2d3a3e{fill:#4e7582;}.ababa6ac-a84e-4e90-9298-32fc8d9dc658,.b11a8a4f-ff26-4645-98cc-bc4f56aa6cd7{stroke-width:0.46604px;}.a00e21a0-d783-47e2-9c6b-d63bfbc9372f{clip-path:url(#acd6ad34-82af-4914-b81f-b8eac4d6c7d9);}</style><clipPath id="acd6ad34-82af-4914-b81f-b8eac4d6c7d9"><path class="f4cba12b-1a7b-471d-80c7-3a7bbd234d31" d="M6.61985,4.41021A9.2597,9.2597,0,0,1,8.274,3.09855a2.69571,2.69571,0,0,0-.67322-.6744L6.3538,3.59838Z"/></clipPath></defs><title>Artboard 125 copy 6</title><path class="bd2ccbc2-284e-4d14-bce6-6a5cac6c4b15" d="M15.36577,10.65838S29.937,23.42291,30.70635,25.13425c0,0-7.54523-.05613-16.81262-9.83209l1.71371-1.59261-1.675-1.77529Z"/><path class="e6961b9b-fee0-4a79-8015-3416ff2d3a3e" d="M7.99251,2.8151l7.51789,7.9387-1.4871,1.21282S9.40167,8.50235,8.25166,7.587A4.49109,4.49109,0,0,1,6.61985,4.41021C6.56457,3.48739,7.99251,2.8151,7.99251,2.8151Z"/><path class="ababa6ac-a84e-4e90-9298-32fc8d9dc658" d="M14.57376,12.70572A6.66588,6.66588,0,0,1,16.153,11.41953a3.14541,3.14541,0,0,0-.79733-.76115l-1.462,1.31036Z"/><path class="b4610e27-e3d3-4ca4-b8f5-a695c80f5ac5" d="M6.61985,4.41021A9.2597,9.2597,0,0,1,8.274,3.09855a2.69571,2.69571,0,0,0-.67322-.6744L6.3538,3.59838Z"/><g class="a00e21a0-d783-47e2-9c6b-d63bfbc9372f"><path class="b11a8a4f-ff26-4645-98cc-bc4f56aa6cd7" d="M6.61985,4.41021A9.2597,9.2597,0,0,1,8.274,3.09855a2.69571,2.69571,0,0,0-.67322-.6744L6.3538,3.59838Z"/></g><path class="bd2ccbc2-284e-4d14-bce6-6a5cac6c4b15" d="M6.61985,4.41021A9.2597,9.2597,0,0,1,8.274,3.09855a2.69571,2.69571,0,0,0-.67322-.6744L6.3538,3.59838Z"/></svg>