<?xml version="1.0" encoding="utf-8"?>
<!-- Generator: Adobe Illustrator 23.0.0, SVG Export Plug-In . SVG Version: 6.00 Build 0)  -->
<svg version="1.1" id="a93d3123-d69c-4459-8352-6eaaa11b7c0f"
	 xmlns="http://www.w3.org/2000/svg" xmlns:xlink="http://www.w3.org/1999/xlink" x="0px" y="0px" viewBox="0 0 61.6 30.7"
	 style="enable-background:new 0 0 61.6 30.7;" xml:space="preserve">
<style type="text/css">
	.st0{fill:#0F2849;}
	.st1{fill:none;stroke:#0F2849;stroke-width:0.9552;stroke-miterlimit:10;}
	.st2{fill:none;stroke:#0F2849;stroke-width:1.062;stroke-miterlimit:10;}
	.st3{fill:none;stroke:#0F2849;stroke-width:1.1293;stroke-miterlimit:10;}
	.st4{fill:#FFFFFF;}
	.st5{fill:#EB2828;}
	.st6{fill:#262D1A;}
	.st7{fill:#AD2C27;}
	.st8{fill:#EC3B32;}
	.st9{fill:#EE4B3F;}
	.st10{fill:#FBE5DD;}
	.st11{fill:#AE322C;}
	.st12{fill:#B34E40;}
	.st13{fill:#B74E43;}
	.st14{fill:#B65749;}
	.st15{fill:#C06B5B;}
	.st16{fill:#E0B3A9;}
	.st17{fill:#BC6354;}
	.st18{fill:#BB5E4F;}
	.st19{fill:#B85A4B;}
	.st20{fill:#B55143;}
	.st21{fill:#B65446;}
	.st22{fill:#B04136;}
	.st23{fill:#C67466;}
	.st24{fill:#A52926;}
	.st25{fill:#CA7E71;}
	.st26{clip-path:url(#SVGID_2_);fill:#262D1A;}
	.st27{clip-path:url(#SVGID_2_);fill:#AE322C;}
	.st28{clip-path:url(#SVGID_2_);fill:#AD2C27;}
	.st29{clip-path:url(#SVGID_2_);fill:#F8F0ED;}
	.st30{clip-path:url(#SVGID_2_);fill:#F6EAE7;}
	.st31{clip-path:url(#SVGID_2_);fill:#B74E43;}
	.st32{clip-path:url(#SVGID_2_);fill:#D39086;}
	.st33{clip-path:url(#SVGID_2_);fill:#E8C8C1;}
	.st34{clip-path:url(#SVGID_2_);fill:#B34E40;}
	.st35{clip-path:url(#SVGID_2_);fill:#C06B5B;}
	.st36{clip-path:url(#SVGID_2_);fill:#BC6354;}
	.st37{clip-path:url(#SVGID_2_);fill:#B85A4B;}
	.st38{clip-path:url(#SVGID_2_);fill:#BB5E4F;}
	.st39{clip-path:url(#SVGID_2_);fill:#B55143;}
	.st40{clip-path:url(#SVGID_2_);fill:#B65446;}
	.st41{clip-path:url(#SVGID_2_);fill:#B65749;}
	.st42{clip-path:url(#SVGID_2_);fill:#B04136;}
	.st43{clip-path:url(#SVGID_2_);fill:#A52926;}
	.st44{clip-path:url(#SVGID_2_);fill:#CA7E71;}
	.st45{clip-path:url(#SVGID_2_);fill:#C67466;}
	.st46{fill:none;stroke:#AD2C27;stroke-width:0.5;stroke-miterlimit:10;}
	.st47{fill:#FEF5F2;}
</style>
<title>Artboard 113</title>
<path class="st0" d="M5.5,9.2c-2.1,0.3-3.6,2.1-3.3,4.2s2.1,3.6,4.2,3.3c1.9-0.2,3.3-1.8,3.3-3.7c0-0.2,0-0.4,0-0.6
	C8.1,11.6,6.7,10.5,5.5,9.2z"/>
<path class="st1" d="M4.2,7.8c-2.9,1-4.4,4.1-3.4,7s4.1,4.4,7,3.4c2.2-0.7,3.7-2.8,3.7-5.1C8.6,12,6.1,10.2,4.2,7.8z"/>
<path class="st0" d="M23,9.2c2.1,0.3,3.5,2.2,3.2,4.2C26,15.5,24.1,17,22,16.7c-1.9-0.2-3.3-1.8-3.3-3.7c0-0.2,0-0.4,0-0.6
	C20.3,11.6,21.7,10.5,23,9.2z"/>
<path class="st1" d="M24.3,7.8c2.9,1,4.4,4.1,3.4,7s-4.1,4.4-7,3.4c-2.2-0.7-3.7-2.8-3.7-5.1C19.9,12,22.4,10.2,24.3,7.8z"/>
<path class="st1" d="M4.2,7.8c0,0,4.3,5.8,10,5.8c4.8,0,7.6-3.4,14.4-10.4"/>
<path class="st1" d="M14.1,10c-1.5,0-2.7,1.2-2.7,2.6c0,0,0,0.1,0,0.1c0,0.1,0.1,0.3,0.1,0.4c0.9,0.3,1.8,0.5,2.7,0.4
	c0.9,0,1.8-0.1,2.7-0.4c0-0.1,0.1-0.3,0-0.4C17,11.2,15.7,9.9,14.1,10z"/>
<path class="st1" d="M8.8,9.2c3-2.9,7.8-2.9,10.8,0"/>
<path class="st2" d="M6.9,7.2c0,0,6.9-6.7,14.6,0"/>
<path class="st3" d="M5,5.4c0,0,9-8.5,18.3,0"/>
<polygon class="st0" points="12.8,16.1 15.8,16.1 14.2,18.5 "/>
<path class="st0" d="M27.6,2.8l1.9-0.6L29,4.2C29,4.2,28.6,3,27.6,2.8z"/>
<path class="st4" d="M2,27.5c0,0.1,0.1,0.2,0,0.3v1.8H1.7v-1.8c0-0.4-0.2-0.6-0.7-0.6H0.2V27c0.3,0,0.6,0,0.9,0c0.2,0,0.4,0,0.6,0.1
	C1.8,27.2,2,27.3,2,27.5z M0.5,29.6H0.2V28h0.3L0.5,29.6z"/>
<path class="st4" d="M3.2,27c0.1,0,0.2,0,0.3,0c0.1,0,0.2,0,0.3,0c0.1,0,0.2,0,0.2,0.1s0.1,0.1,0.2,0.1s0.1,0.1,0.1,0.2
	s0,0.1,0.1,0.2c0,0.1,0.1,0.3,0,0.4v0.7c0,0.1,0,0.2,0,0.2c0,0.1-0.1,0.2-0.1,0.2c0,0.1-0.1,0.2-0.2,0.2c-0.1,0.1-0.2,0.1-0.2,0.1
	c-0.1,0-0.2,0.1-0.3,0H3.2c-0.1,0-0.1,0-0.2,0h0v-0.3c0.2,0.1,0.4,0.1,0.6,0.1c0.1,0,0.2,0,0.2,0c0,0,0.1,0,0.1-0.1
	c0,0,0.1-0.1,0.1-0.1c0,0,0-0.1,0.1-0.1c0,0,0.1-0.1,0-0.1c0-0.1,0-0.2,0-0.2v-0.4c0-0.1,0-0.3,0-0.4c0,0,0-0.1-0.1-0.1
	s0-0.1-0.1-0.1s-0.1,0-0.2-0.1c-0.1,0-0.3-0.1-0.4,0c-0.1,0-0.2,0-0.3,0c-0.1,0-0.1,0-0.2,0l0,0v-0.3c0,0,0,0,0,0c0,0,0,0,0,0
	C3,27.1,3.1,27.1,3.2,27z"/>
<path class="st4" d="M5.1,27h0.5c0.1,0,0.3,0,0.4,0c0.1,0,0.2,0,0.3,0.1c0.1,0,0.1,0.1,0.2,0.1c0.1,0.1,0.2,0.3,0.2,0.5v1.8H6.3
	v-1.8c0-0.3-0.2-0.5-0.7-0.5H5.1V27z"/>
<path class="st4" d="M9.3,27v0.2c-0.3,0.1-0.4,0.3-0.4,0.6v1.8H8.5v-1.8c0-0.1,0-0.2,0-0.2c0,0,0-0.1,0-0.1c0-0.1,0.1-0.1,0.1-0.1
	H7.5v-0.2L9.3,27L9.3,27z"/>
<path class="st4" d="M11.9,27.5c0,0.1,0.1,0.2,0,0.3v1.8h-0.3v-1.8c0-0.3-0.2-0.5-0.7-0.5h-0.8V27c0.3,0,0.6,0,0.9,0
	c0.2,0,0.4,0,0.6,0.1C11.8,27.2,11.9,27.3,11.9,27.5z M10.5,29.6h-0.3V28h0.3V29.6z"/>
<path class="st4" d="M14.9,27.5c0,0.1,0.1,0.2,0,0.3v1.8h-0.3v-1.8c0-0.3-0.2-0.5-0.7-0.5H13V27c0.3,0,0.6,0,0.9,0
	c0.2,0,0.4,0,0.6,0.1C14.7,27.1,14.8,27.3,14.9,27.5z M13.3,29.6H13V28h0.3L13.3,29.6z"/>
<path class="st4" d="M18.4,29.6c-0.1,0-0.1,0-0.2,0v-0.3h0.1c0.2,0,0.3-0.1,0.3-0.3v-1.7l-0.3,0V27c0.3,0,0.6-0.1,1,0
	c0.2,0,0.4,0,0.6,0.1c0.2,0.1,0.3,0.2,0.3,0.4c0,0.1,0.1,0.2,0,0.3v1.8h-0.3v-1.8c0-0.3-0.2-0.5-0.7-0.5h-0.3V29
	c0,0.2,0,0.3-0.1,0.5C18.8,29.6,18.6,29.6,18.4,29.6z"/>
<path class="st4" d="M21.3,28.8v-1.7h0.3v1.3L21.3,28.8L21.3,28.8z"/>
<path class="st4" d="M22.6,28.8v-1.7H23v1.3L22.6,28.8L22.6,28.8z"/>
<path class="st4" d="M23.7,27h0.5c0.1,0,0.3,0,0.4,0c0.1,0,0.2,0,0.3,0.1c0.1,0,0.1,0.1,0.2,0.1c0.1,0.1,0.2,0.3,0.2,0.5v1.8h-0.3
	v-1.8c0-0.3-0.2-0.5-0.7-0.5h-0.5L23.7,27z"/>
<path class="st4" d="M27.6,29.5L27.6,29.5l-0.3,0v0c0-0.1,0-0.3,0-0.4c0-0.1,0.1-0.2,0.1-0.3c0-0.1,0.1-0.3,0.1-0.5l0.3-1h-1.6v-0.2
	h1.9v0.2l-0.3,1c0,0.1,0,0.2-0.1,0.3c0,0.1,0,0.1,0,0.2s0,0.1,0,0.2s0,0.1,0,0.2L27.6,29.5z M26.6,30.6h-0.3v-2.5h0.3V30.6z"/>
<path class="st4" d="M2,27.5c0,0.1,0.1,0.2,0,0.3v1.8H1.7v-1.8c0-0.4-0.2-0.6-0.7-0.6H0.2V27c0.3,0,0.6,0,0.9,0c0.2,0,0.4,0,0.6,0.1
	C1.8,27.2,2,27.3,2,27.5z M0.5,29.6H0.2V28h0.3L0.5,29.6z"/>
<path class="st4" d="M3.2,27c0.1,0,0.2,0,0.3,0c0.1,0,0.2,0,0.3,0c0.1,0,0.2,0,0.2,0.1s0.1,0.1,0.2,0.1s0.1,0.1,0.1,0.2
	s0,0.1,0.1,0.2c0,0.1,0.1,0.3,0,0.4v0.7c0,0.1,0,0.2,0,0.2c0,0.1-0.1,0.2-0.1,0.2c0,0.1-0.1,0.2-0.2,0.2c-0.1,0.1-0.2,0.1-0.2,0.1
	c-0.1,0-0.2,0.1-0.3,0H3.2c-0.1,0-0.1,0-0.2,0h0v-0.3c0.2,0.1,0.4,0.1,0.6,0.1c0.1,0,0.2,0,0.2,0c0,0,0.1,0,0.1-0.1
	c0,0,0.1-0.1,0.1-0.1c0,0,0-0.1,0.1-0.1c0,0,0.1-0.1,0-0.1c0-0.1,0-0.2,0-0.2v-0.4c0-0.1,0-0.3,0-0.4c0,0,0-0.1-0.1-0.1
	s0-0.1-0.1-0.1s-0.1,0-0.2-0.1c-0.1,0-0.3-0.1-0.4,0c-0.1,0-0.2,0-0.3,0c-0.1,0-0.1,0-0.2,0l0,0v-0.3c0,0,0,0,0,0c0,0,0,0,0,0
	C3,27.1,3.1,27.1,3.2,27z"/>
<path class="st4" d="M5.1,27h0.5c0.1,0,0.3,0,0.4,0c0.1,0,0.2,0,0.3,0.1c0.1,0,0.1,0.1,0.2,0.1c0.1,0.1,0.2,0.3,0.2,0.5v1.8H6.3
	v-1.8c0-0.3-0.2-0.5-0.7-0.5H5.1V27z"/>
<path class="st4" d="M9.3,27v0.2c-0.3,0.1-0.4,0.3-0.4,0.6v1.8H8.5v-1.8c0-0.1,0-0.2,0-0.2c0,0,0-0.1,0-0.1c0-0.1,0.1-0.1,0.1-0.1
	H7.5v-0.2L9.3,27L9.3,27z"/>
<path class="st4" d="M11.9,27.5c0,0.1,0.1,0.2,0,0.3v1.8h-0.3v-1.8c0-0.3-0.2-0.5-0.7-0.5h-0.8V27c0.3,0,0.6,0,0.9,0
	c0.2,0,0.4,0,0.6,0.1C11.8,27.2,11.9,27.3,11.9,27.5z M10.5,29.6h-0.3V28h0.3V29.6z"/>
<path class="st4" d="M14.9,27.5c0,0.1,0.1,0.2,0,0.3v1.8h-0.3v-1.8c0-0.3-0.2-0.5-0.7-0.5H13V27c0.3,0,0.6,0,0.9,0
	c0.2,0,0.4,0,0.6,0.1C14.7,27.1,14.8,27.3,14.9,27.5z M13.3,29.6H13V28h0.3L13.3,29.6z"/>
<path class="st4" d="M18.4,29.6c-0.1,0-0.1,0-0.2,0v-0.3h0.1c0.2,0,0.3-0.1,0.3-0.3v-1.7l-0.3,0V27c0.3,0,0.6-0.1,1,0
	c0.2,0,0.4,0,0.6,0.1c0.2,0.1,0.3,0.2,0.3,0.4c0,0.1,0.1,0.2,0,0.3v1.8h-0.3v-1.8c0-0.3-0.2-0.5-0.7-0.5h-0.3V29
	c0,0.2,0,0.3-0.1,0.5C18.8,29.6,18.6,29.6,18.4,29.6z"/>
<path class="st4" d="M21.3,28.8v-1.7h0.3v1.3L21.3,28.8L21.3,28.8z"/>
<path class="st4" d="M22.6,28.8v-1.7H23v1.3L22.6,28.8L22.6,28.8z"/>
<path class="st4" d="M23.7,27h0.5c0.1,0,0.3,0,0.4,0c0.1,0,0.2,0,0.3,0.1c0.1,0,0.1,0.1,0.2,0.1c0.1,0.1,0.2,0.3,0.2,0.5v1.8h-0.3
	v-1.8c0-0.3-0.2-0.5-0.7-0.5h-0.5L23.7,27z"/>
<path class="st4" d="M27.6,29.5L27.6,29.5l-0.3,0v0c0-0.1,0-0.3,0-0.4c0-0.1,0.1-0.2,0.1-0.3c0-0.1,0.1-0.3,0.1-0.5l0.3-1h-1.6v-0.2
	h1.9v0.2l-0.3,1c0,0.1,0,0.2-0.1,0.3c0,0.1,0,0.1,0,0.2s0,0.1,0,0.2s0,0.1,0,0.2L27.6,29.5z M26.6,30.6h-0.3v-2.5h0.3V30.6z"/>
<path class="st4" d="M2,27.5c0,0.1,0.1,0.2,0,0.3v1.8H1.7v-1.8c0-0.4-0.2-0.6-0.7-0.6H0.2V27c0.3,0,0.6,0,0.9,0c0.2,0,0.4,0,0.6,0.1
	C1.8,27.2,2,27.3,2,27.5z M0.5,29.6H0.2V28h0.3L0.5,29.6z"/>
<path class="st4" d="M3.2,27c0.1,0,0.2,0,0.3,0c0.1,0,0.2,0,0.3,0c0.1,0,0.2,0,0.2,0.1s0.1,0.1,0.2,0.1s0.1,0.1,0.1,0.2
	s0,0.1,0.1,0.2c0,0.1,0.1,0.3,0,0.4v0.7c0,0.1,0,0.2,0,0.2c0,0.1-0.1,0.2-0.1,0.2c0,0.1-0.1,0.2-0.2,0.2c-0.1,0.1-0.2,0.1-0.2,0.1
	c-0.1,0-0.2,0.1-0.3,0H3.2c-0.1,0-0.1,0-0.2,0h0v-0.3c0.2,0.1,0.4,0.1,0.6,0.1c0.1,0,0.2,0,0.2,0c0,0,0.1,0,0.1-0.1
	c0,0,0.1-0.1,0.1-0.1c0,0,0-0.1,0.1-0.1c0,0,0.1-0.1,0-0.1c0-0.1,0-0.2,0-0.2v-0.4c0-0.1,0-0.3,0-0.4c0,0,0-0.1-0.1-0.1
	s0-0.1-0.1-0.1s-0.1,0-0.2-0.1c-0.1,0-0.3-0.1-0.4,0c-0.1,0-0.2,0-0.3,0c-0.1,0-0.1,0-0.2,0l0,0v-0.3c0,0,0,0,0,0c0,0,0,0,0,0
	C3,27.1,3.1,27.1,3.2,27z"/>
<path class="st4" d="M5.1,27h0.5c0.1,0,0.3,0,0.4,0c0.1,0,0.2,0,0.3,0.1c0.1,0,0.1,0.1,0.2,0.1c0.1,0.1,0.2,0.3,0.2,0.5v1.8H6.3
	v-1.8c0-0.3-0.2-0.5-0.7-0.5H5.1V27z"/>
<path class="st4" d="M9.3,27v0.2c-0.3,0.1-0.4,0.3-0.4,0.6v1.8H8.5v-1.8c0-0.1,0-0.2,0-0.2c0,0,0-0.1,0-0.1c0-0.1,0.1-0.1,0.1-0.1
	H7.5v-0.2L9.3,27L9.3,27z"/>
<path class="st4" d="M11.9,27.5c0,0.1,0.1,0.2,0,0.3v1.8h-0.3v-1.8c0-0.3-0.2-0.5-0.7-0.5h-0.8V27c0.3,0,0.6,0,0.9,0
	c0.2,0,0.4,0,0.6,0.1C11.8,27.2,11.9,27.3,11.9,27.5z M10.5,29.6h-0.3V28h0.3V29.6z"/>
<path class="st4" d="M14.9,27.5c0,0.1,0.1,0.2,0,0.3v1.8h-0.3v-1.8c0-0.3-0.2-0.5-0.7-0.5H13V27c0.3,0,0.6,0,0.9,0
	c0.2,0,0.4,0,0.6,0.1C14.7,27.1,14.8,27.3,14.9,27.5z M13.3,29.6H13V28h0.3L13.3,29.6z"/>
<path class="st4" d="M18.4,29.6c-0.1,0-0.1,0-0.2,0v-0.3h0.1c0.2,0,0.3-0.1,0.3-0.3v-1.7l-0.3,0V27c0.3,0,0.6-0.1,1,0
	c0.2,0,0.4,0,0.6,0.1c0.2,0.1,0.3,0.2,0.3,0.4c0,0.1,0.1,0.2,0,0.3v1.8h-0.3v-1.8c0-0.3-0.2-0.5-0.7-0.5h-0.3V29
	c0,0.2,0,0.3-0.1,0.5C18.8,29.6,18.6,29.6,18.4,29.6z"/>
<path class="st4" d="M21.3,28.8v-1.7h0.3v1.3L21.3,28.8L21.3,28.8z"/>
<path class="st4" d="M22.6,28.8v-1.7H23v1.3L22.6,28.8L22.6,28.8z"/>
<path class="st4" d="M23.7,27h0.5c0.1,0,0.3,0,0.4,0c0.1,0,0.2,0,0.3,0.1c0.1,0,0.1,0.1,0.2,0.1c0.1,0.1,0.2,0.3,0.2,0.5v1.8h-0.3
	v-1.8c0-0.3-0.2-0.5-0.7-0.5h-0.5L23.7,27z"/>
<path class="st4" d="M27.6,29.5L27.6,29.5l-0.3,0v0c0-0.1,0-0.3,0-0.4c0-0.1,0.1-0.2,0.1-0.3c0-0.1,0.1-0.3,0.1-0.5l0.3-1h-1.6v-0.2
	h1.9v0.2l-0.3,1c0,0.1,0,0.2-0.1,0.3c0,0.1,0,0.1,0,0.2s0,0.1,0,0.2s0,0.1,0,0.2L27.6,29.5z M26.6,30.6h-0.3v-2.5h0.3V30.6z"/>
<path class="st0" d="M2,27.5c0,0.1,0.1,0.2,0,0.3v1.8H1.7v-1.8c0-0.4-0.2-0.6-0.7-0.6H0.2V27c0.3,0,0.6,0,0.9,0c0.2,0,0.4,0,0.6,0.1
	C1.8,27.2,2,27.3,2,27.5z M0.5,29.6H0.2V28h0.3L0.5,29.6z"/>
<path class="st0" d="M3.2,27c0.1,0,0.2,0,0.3,0c0.1,0,0.2,0,0.3,0c0.1,0,0.2,0,0.2,0.1s0.1,0.1,0.2,0.1s0.1,0.1,0.1,0.2
	s0,0.1,0.1,0.2c0,0.1,0.1,0.3,0,0.4v0.7c0,0.1,0,0.2,0,0.2c0,0.1-0.1,0.2-0.1,0.2c0,0.1-0.1,0.2-0.2,0.2c-0.1,0.1-0.2,0.1-0.2,0.1
	c-0.1,0-0.2,0.1-0.3,0H3.2c-0.1,0-0.1,0-0.2,0h0v-0.3c0.2,0.1,0.4,0.1,0.6,0.1c0.1,0,0.2,0,0.2,0c0,0,0.1,0,0.1-0.1
	c0,0,0.1-0.1,0.1-0.1c0,0,0-0.1,0.1-0.1c0,0,0.1-0.1,0-0.1c0-0.1,0-0.2,0-0.2v-0.4c0-0.1,0-0.3,0-0.4c0,0,0-0.1-0.1-0.1
	s0-0.1-0.1-0.1s-0.1,0-0.2-0.1c-0.1,0-0.3-0.1-0.4,0c-0.1,0-0.2,0-0.3,0c-0.1,0-0.1,0-0.2,0l0,0v-0.3c0,0,0,0,0,0c0,0,0,0,0,0
	C3,27.1,3.1,27.1,3.2,27z"/>
<path class="st0" d="M5.1,27h0.5c0.1,0,0.3,0,0.4,0c0.1,0,0.2,0,0.3,0.1c0.1,0,0.1,0.1,0.2,0.1c0.1,0.1,0.2,0.3,0.2,0.5v1.8H6.3
	v-1.8c0-0.3-0.2-0.5-0.7-0.5H5.1V27z"/>
<path class="st0" d="M9.3,27v0.2c-0.3,0.1-0.4,0.3-0.4,0.6v1.8H8.5v-1.8c0-0.1,0-0.2,0-0.2c0,0,0-0.1,0-0.1c0-0.1,0.1-0.1,0.1-0.1
	H7.5v-0.2L9.3,27L9.3,27z"/>
<path class="st0" d="M11.9,27.5c0,0.1,0.1,0.2,0,0.3v1.8h-0.3v-1.8c0-0.3-0.2-0.5-0.7-0.5h-0.8V27c0.3,0,0.6,0,0.9,0
	c0.2,0,0.4,0,0.6,0.1C11.8,27.2,11.9,27.3,11.9,27.5z M10.5,29.6h-0.3V28h0.3V29.6z"/>
<path class="st0" d="M14.9,27.5c0,0.1,0.1,0.2,0,0.3v1.8h-0.3v-1.8c0-0.3-0.2-0.5-0.7-0.5H13V27c0.3,0,0.6,0,0.9,0
	c0.2,0,0.4,0,0.6,0.1C14.7,27.1,14.8,27.3,14.9,27.5z M13.3,29.6H13V28h0.3L13.3,29.6z"/>
<path class="st0" d="M18.4,29.6c-0.1,0-0.1,0-0.2,0v-0.3h0.1c0.2,0,0.3-0.1,0.3-0.3v-1.7l-0.3,0V27c0.3,0,0.6-0.1,1,0
	c0.2,0,0.4,0,0.6,0.1c0.2,0.1,0.3,0.2,0.3,0.4c0,0.1,0.1,0.2,0,0.3v1.8h-0.3v-1.8c0-0.3-0.2-0.5-0.7-0.5h-0.3V29
	c0,0.2,0,0.3-0.1,0.5C18.8,29.6,18.6,29.6,18.4,29.6z"/>
<path class="st0" d="M21.3,28.8v-1.7h0.3v1.3L21.3,28.8L21.3,28.8z"/>
<path class="st0" d="M22.6,28.8v-1.7H23v1.3L22.6,28.8L22.6,28.8z"/>
<path class="st0" d="M23.7,27h0.5c0.1,0,0.3,0,0.4,0c0.1,0,0.2,0,0.3,0.1c0.1,0,0.1,0.1,0.2,0.1c0.1,0.1,0.2,0.3,0.2,0.5v1.8h-0.3
	v-1.8c0-0.3-0.2-0.5-0.7-0.5h-0.5L23.7,27z"/>
<path class="st0" d="M27.6,29.5L27.6,29.5l-0.3,0v0c0-0.1,0-0.3,0-0.4c0-0.1,0.1-0.2,0.1-0.3c0-0.1,0.1-0.3,0.1-0.5l0.3-1h-1.6v-0.2
	h1.9v0.2l-0.3,1c0,0.1,0,0.2-0.1,0.3c0,0.1,0,0.1,0,0.2s0,0.1,0,0.2s0,0.1,0,0.2L27.6,29.5z M26.6,30.6h-0.3v-2.5h0.3V30.6z"/>
<path class="st0" d="M1.2,21.9h1.7v0.6L2.5,24l0,0l-0.3,1.2h-1L1.5,24l0.4-1.3H0.2v-1.4h1V21.9z"/>
<path class="st0" d="M4.1,21.6h0.7c-0.1,0.5-0.2,1-0.2,1.5H3.6v0C3.7,22.5,3.9,22,4.1,21.6z M5.3,21.6h0.7c-0.1,0.5-0.2,1-0.2,1.5H5
	l0,0C5.1,22.3,5.3,21.8,5.3,21.6z"/>
<path class="st0" d="M7,24.2V22h1v1.5l-0.6,0.7H7z"/>
<path class="st0" d="M10.6,21.9c0.1,0,0.3,0,0.4,0c0.1,0,0.3,0,0.4,0c0.1,0,0.2,0.1,0.3,0.1c0.1,0.1,0.2,0.2,0.2,0.3
	c0.2,0.4,0.2,0.8,0.2,1.1c0,0.5-0.1,0.9-0.4,1.3c-0.3,0.3-0.7,0.5-1.1,0.5c-0.2,0-0.4,0-0.6-0.1c-0.2-0.1-0.3-0.2-0.4-0.3
	c-0.2-0.2-0.3-0.4-0.3-0.6c-0.1-0.2-0.1-0.5-0.1-0.7v-1.6h1v1.6c0,0.6,0.1,1,0.4,1c0.2,0,0.3-0.1,0.3-0.2c0.1-0.2,0.1-0.5,0.1-0.7
	c0-0.2,0-0.5-0.1-0.7c-0.1-0.1-0.2-0.2-0.3-0.2h-0.1L10.6,21.9z"/>
<path class="st0" d="M15.9,22c0.3,0,0.6-0.1,0.9,0c0.2,0,0.4,0,0.6,0c0.1,0,0.3,0,0.4,0.1c0.1,0,0.2,0.1,0.2,0.2
	c0.1,0.1,0.1,0.2,0.1,0.2c0,0.1,0,0.2,0.1,0.3v2.5h-1v-2.1c0-0.3-0.2-0.5-0.5-0.5c-0.3,0-0.6,0-0.9,0L15.9,22L15.9,22z"/>
<path class="st0" d="M20.5,25.3h-1v-3.3h1V25.3z"/>
<path class="st0" d="M24.3,21.9v0.7c-0.1,0-0.3,0.1-0.3,0.2c-0.1,0.1-0.1,0.2-0.1,0.4v2h-1v-2c0-0.2,0.1-0.4,0.2-0.5h-1.6V22
	L24.3,21.9L24.3,21.9z"/>
<path class="st0" d="M26,21.9c0.1,0.1,0.1,0.2,0.1,0.3h0l0.1-0.1c0,0,0.1-0.1,0.2-0.1s0.1,0,0.2-0.1c0.1,0,0.3-0.1,0.4,0
	c0.1,0,0.3,0,0.4,0.1c0.1,0,0.2,0.1,0.3,0.2c0.1,0.1,0.2,0.2,0.2,0.3c0.1,0.3,0.2,0.6,0.1,0.9v1.9h-1.6v-0.8h0.6v-1.1
	c0-0.1,0-0.3,0-0.4c0-0.1,0-0.1-0.1-0.2c-0.1-0.1-0.2-0.2-0.3-0.1c-0.1,0-0.1,0-0.2,0c0,0-0.1,0-0.1,0.1c-0.1,0.1-0.1,0.1-0.1,0.2v0
	l-0.1,2.2h-1l0.2-2.1v-0.3c0-0.3,0-0.6-0.1-0.9L26,21.9L26,21.9z"/>
<g>
	<path class="st4" d="M40.3,0.4h21.1v0.3c0,4.3,0,8.7,0,13c0,2.3-0.5,4.5-1.4,6.6c-1.1,2.7-2.7,5.1-4.9,7.1c-1.2,1.1-2.5,2.1-4,2.9
		c-0.1,0.1-0.3,0.1-0.4,0c-1.7-0.9-3.2-2.1-4.6-3.5c-2.1-2.1-3.7-4.6-4.6-7.4c-0.6-1.7-1-3.6-1.1-5.5c-0.1-1.2,0-2.4,0-3.5
		c0-3.3,0-6.6,0-9.9C40.3,0.6,40.3,0.5,40.3,0.4z"/>
	<path class="st5" d="M40.1,0.2h21.3v0.4c0,4.4,0,8.7,0,13.1c-0.1,2.3-0.5,4.6-1.4,6.7c-1.1,2.7-2.8,5.2-4.9,7.2
		c-1.2,1.2-2.6,2.2-4,2.9c-0.2,0.1-0.3,0.1-0.5,0c-1.7-0.9-3.2-2.1-4.6-3.5c-2.1-2.1-3.7-4.6-4.7-7.5c-0.6-1.8-1-3.6-1.2-5.5
		c-0.1-1.2-0.1-2.4-0.1-3.6c0-3.3,0-6.6,0-10C40.1,0.4,40.1,0.4,40.1,0.2z M46.3,5.2c-0.4,0-0.9,0.1-1.3,0.1
		c0.4,0.2,0.9,0.5,1.3,0.7c-0.1,0.1-0.2,0.2-0.4,0.4c-0.2,0.1-0.5,0.2-0.6,0.2c1,0.2,1.8,0.2,2.3,0.1c0.7-0.1,1.3-0.3,2.3-0.3
		c0.3,0,0.8,0,1.5,0.1c0.2,0,0.3,0.1,0.4,0.1c-0.1,0.1-0.2,0.1-0.3,0.2c-0.1,0-0.3,0-0.4,0c0,0.6,0,1.2,0,1.8c0,0.1-0.1,0.2-0.1,0.2
		c0-0.1-0.1-0.1-0.1-0.2c0-0.6,0-1.2,0-1.8c-0.3,0-0.5,0-0.8,0c0,0.5,0,1,0,1.5c-1.5,0-3.1,0-4.6,0c0,0,0,0-0.1,0c0,0.1,0,0.2,0,0.3
		c-0.1,0-0.1,0-0.2,0c0,0.1,0,0.2,0,0.2c-0.1,0-0.2,0-0.3,0c0,0.1,0,0.2,0,0.3c-0.1,0-0.1,0-0.2,0c0,3.3,0,6.7,0,10c0,0,0.1,0,0.2,0
		c1,0,1.8,0,2.1-0.1c1,0,2-0.1,3.1-0.1v3.1h0.7c0-1.1,0-2.1,0-3.1h0.3v3.2l0.7-0.1l0,0c0,0,0,0,0-0.1v-0.9H52
		c0.5-0.6,0.7-1.4,0.7-2.1l0.1,0c1.5,0,3,0.1,4.5,0.1c0-0.5,0-1,0-1.5c0-2.8,0-5.7,0-8.5c-0.1,0-0.2,0-0.2,0c0-0.1,0-0.2,0-0.4
		c-0.1,0-0.2,0-0.3,0c0-0.1,0-0.2,0-0.3c-0.1,0-0.2,0-0.3,0c0-0.1,0-0.2,0-0.4c-0.9,0-1.9,0-2.8,0c0-0.2,0.1-1.4-0.3-2
		c0-0.1-0.1-0.2-0.3-0.3c-0.3-0.3-0.7-0.3-0.9-0.3c-0.6,0-1.9-0.1-3.6-0.2c-0.1-0.1-0.2-0.2-0.4-0.3c-0.2-0.1-0.4-0.1-0.5-0.1
		c0,0.1-0.1,0.2-0.2,0.3c-0.1,0.1-0.3,0.1-0.4,0.2c-0.1,0-0.3,0-0.5-0.1C46.4,5.4,46.3,5.3,46.3,5.2z M51.7,28.4c0-0.2,0-0.5,0-0.7
		c0,0,0,0,0,0c0,0.1,0.1,0.2,0.1,0.3c0,0.1,0,0.3,0,0.4c0.1-0.2,0.2-0.8,0-1.4c-0.1-0.4-0.4-0.8-0.5-0.9l0.3-0.1v-0.5l-0.7,0.2
		c-0.1-0.2-0.2-0.3-0.3-0.5c0.3-0.1,0.7-0.2,1-0.3v-0.6l-1.4,0.4c-0.1-0.1-0.2-0.3-0.3-0.5c-0.1-0.2-0.1-0.4-0.2-0.6
		c-0.3-0.1-0.7-0.3-1-0.4c0.1,1,0.6,2,1.4,2.7v0.6l0.6-0.2l0.4,0.4l-1,0.3v0.6l1.3-0.4c0,0,0.1,0.1,0.1,0.2c0.1,0.1,0.1,0.2,0.1,0.3
		c-0.5,0.2-1,0.4-1.5,0.6c0,0,0,0.1,0,0.1c-0.1,0-0.3,0-0.4,0c0,0.1,0,0.2,0,0.2c0.7,0,1.5,0,2.2,0c0-0.1,0-0.2,0-0.2
		C51.9,28.4,51.8,28.4,51.7,28.4z M50.8,1.8c-0.9,1.1-0.7,2.3-0.7,3.5h0.7V1.8z M51.9,5.3c0-1.2,0.2-2.4-0.7-3.4v3.4H51.9z M50,21.2
		c-0.6,0.4-1,1-1.1,1.6l1.1-0.6V21.2z M44.7,6.3c0.4-0.1,0.8-0.1,1.2-0.2l-1.7-0.1c0.2,0.2,0.2,0.4,0,0.6c-0.1,0.1-0.3,0.1-0.4,0
		c0.1,0.2,0.2,0.3,0.4,0.3C44.5,6.8,44.7,6.6,44.7,6.3z M52.3,23.1h-2.7c0.2,0.1,0.3,0.2,0.5,0.3c0.3-0.1,0.6-0.1,0.9-0.2
		c0.3,0,0.6,0.1,0.8,0.1C52,23.3,52.2,23.2,52.3,23.1z M50.3,24.1l1.5-0.4l0-0.1h-1.5V24.1z M52.4,22.7c-0.2-0.1-0.3-0.2-0.5-0.3
		c-0.3,0.1-0.6,0.1-0.9,0.2c-0.3-0.1-0.6-0.1-0.9-0.2c-0.2,0.1-0.3,0.2-0.5,0.3C50.6,22.7,51.5,22.7,52.4,22.7z"/>
	<path class="st6" d="M53.7,25.1c0.3,0.4,0.3,0.7,0.2,1.5c0.5-0.2,0.9-0.2,1.4,0.1c-0.2,0.7-1,1.1-1.8,0.8c0,0-0.1,0-0.1-0.1
		c-0.3-0.1-0.3-0.4-0.4-0.7C52.9,26,53.2,25.4,53.7,25.1z"/>
	<path class="st6" d="M59.4,16.5c0.3-0.4,0.7-0.7,1.2-0.7c0.2,0.8-0.6,1.8-1.4,1.7c-0.1,0-0.1,0-0.2-0.1c-0.7-0.5-0.8-1.4-0.4-2.1
		C59.1,15.5,59.3,16,59.4,16.5z"/>
	<path class="st6" d="M40.8,4.1c0.5,0.1,0.8,0.4,1.1,1c0.1-0.5,0.5-0.8,1-1c0.4,0.6-0.1,1.7-1,2C41,5.8,40.6,5,40.8,4.1z"/>
	<path class="st6" d="M43.5,15.4c0.5,0.7,0.3,1.6-0.3,2.1c-0.1,0.1-0.2,0.1-0.4,0.1c-0.8,0-1.4-0.7-1.3-1.5c0,0,0,0,0,0
		c0.4-0.1,0.8,0.1,1.3,0.6C42.8,16.2,43,15.7,43.5,15.4z"/>
	<path class="st6" d="M55.5,24.7c0.4-0.3,0.9-0.5,1.4-0.3c-0.1,0.8-0.8,1.3-1.6,1.2c0,0-0.1,0-0.2,0c0,0-0.1,0-0.1-0.1
		c-0.6-0.5-0.5-1.7,0.1-2.2C55.5,23.6,55.5,24.1,55.5,24.7z"/>
	<path class="st6" d="M58.9,8.4c0.5,0.1,0.9,0.5,1,1c0.1-0.5,0.5-0.9,1-1.1c0.4,0.8-0.1,1.9-1,2c0,0-0.1,0-0.1,0
		C59.1,10.2,58.6,9.1,58.9,8.4z"/>
	<path class="st6" d="M43,10.8c0.3,0.7-0.1,1.7-0.9,2c-0.1,0-0.2,0-0.3,0c-0.8-0.3-1.2-1.2-0.9-2c0.5,0.1,0.8,0.5,1,1
		C42.1,11.4,42.5,11,43,10.8z"/>
	<path class="st6" d="M44.1,17.6c0.5,0.6,0.4,1.8-0.2,2.2c-0.2,0.1-0.4,0.1-0.6,0c-0.7-0.1-1.1-0.8-1.1-1.4c0.5,0,1,0.1,1.3,0.6
		C43.5,18.4,43.7,17.9,44.1,17.6z"/>
	<path class="st6" d="M48.5,26.5c0-0.3,0-0.7,0-1c0-0.2,0.1-0.3,0.1-0.5c0.7,0.3,1.1,1.5,0.6,2.1c-0.2,0.3-1,0.4-1.5,0.2
		c-0.3-0.2-0.5-0.4-0.7-0.6C47.4,26.3,48,26.3,48.5,26.5z"/>
	<path class="st6" d="M40.9,8.6c0.5,0.1,0.9,0.5,1,1c0.2-0.5,0.5-0.8,1-1c0.3,0.7-0.1,1.8-0.9,1.9c-0.2,0-0.4,0-0.5-0.1
		C40.9,10,40.6,9.2,40.9,8.6z"/>
	<path class="st6" d="M56.8,22.7c0.4-0.2,0.8-0.5,1.3-0.3c0,0.8-1.1,1.5-1.8,1.2c-0.2-0.1-0.3-0.3-0.4-0.5c-0.2-0.6-0.1-1.3,0.4-1.7
		C56.7,21.7,56.7,22.2,56.8,22.7C56.7,22.7,56.7,22.7,56.8,22.7L56.8,22.7z"/>
	<path class="st6" d="M59,10.7c0.5,0.1,0.8,0.5,1.1,0.9c0.1-0.5,0.5-0.9,1-1c0.1,0.4,0.1,0.8,0,1.2c-0.2,0.4-0.5,0.8-1,0.8
		c-0.5,0-0.8-0.4-1-0.8C58.9,11.4,58.9,11.1,59,10.7z"/>
	<path class="st6" d="M46.9,24.7c0-0.6,0-1,0.4-1.4c0.6,0.5,0.7,1.6,0.2,2.2c0,0-0.1,0.1-0.1,0.1c-0.7,0.2-1.5-0.1-1.8-0.9
		c0-0.1,0-0.1,0-0.2C46,24.2,46.4,24.4,46.9,24.7z"/>
	<path class="st6" d="M40.9,6.2c0.5,0.1,0.9,0.5,1,1c0.3-0.6,0.6-0.9,1-0.9C43.3,6.9,42.8,8,42,8.2c-0.2,0-0.4,0-0.6-0.2
		C40.9,7.6,40.6,6.8,40.9,6.2z"/>
	<path class="st6" d="M57.4,19.4c0.4,0.4,0.5,0.9,0.5,1.4c0.4-0.3,0.9-0.5,1.4-0.3c-0.1,0.8-0.8,1.3-1.6,1.3c-0.1,0-0.1,0-0.2,0
		c-0.1,0-0.1-0.1-0.2-0.1C56.7,20.9,56.8,19.9,57.4,19.4z"/>
	<path class="st6" d="M58,17.5c0.4,0.2,0.5,0.4,0.7,1.2c0.2-0.1,0.4-0.3,0.6-0.4c0.2-0.1,0.4-0.1,0.7-0.2c0.1,0.9-0.8,1.8-1.6,1.5
		c-0.2-0.1-0.4-0.3-0.5-0.6C57.6,18.6,57.6,17.9,58,17.5z"/>
	<path class="st6" d="M43,13.4c0.4,0.7,0,1.8-0.7,2c-0.2,0-0.3,0-0.5-0.1c-0.7-0.3-1-1-0.8-1.7c0.5,0.1,0.9,0.4,1.1,0.9
		C42.2,14,42.5,13.6,43,13.4z"/>
	<path class="st6" d="M58.8,4c0.5,0.1,0.8,0.5,1.1,0.9c0.1-0.5,0.5-0.9,1-1c0.3,0.8,0,1.7-0.8,2c0,0,0,0-0.1,0c-0.1,0-0.1,0-0.2,0
		C59,5.7,58.5,4.7,58.8,4z"/>
	<path class="st6" d="M43,20.6c0.5-0.1,1,0,1.4,0.3c-0.1-0.5,0.1-1,0.4-1.4c0.6,0.5,0.7,1.5,0.2,2.1c-0.1,0.1-0.2,0.2-0.4,0.2
		C43.9,21.9,43.1,21.3,43,20.6C43,20.6,43,20.6,43,20.6z"/>
	<path class="st6" d="M44.2,22.5c0.5-0.2,0.9,0,1.4,0.3c-0.1-0.5,0.1-1,0.4-1.4c0.6,0.4,0.7,1.7,0.1,2.2c-0.3,0.2-0.7,0.2-1,0
		C44.6,23.5,44.3,23,44.2,22.5z"/>
	<path class="st6" d="M60.9,6c0.4,0.7-0.1,1.9-0.9,2c-0.1,0-0.2,0-0.3,0c-0.7-0.3-1.1-1.1-0.9-1.8c0.4,0,0.7,0.3,1.1,0.9
		C60.1,6.5,60.5,6.1,60.9,6z"/>
	<path class="st6" d="M60,14.3c0.2-0.5,0.6-0.8,1.1-0.9c0.2,0.8-0.2,1.6-1,1.9c0,0,0,0-0.1,0c-0.1,0-0.1,0-0.2,0
		c-0.7-0.2-1.2-1.3-0.8-2C59.5,13.4,59.8,13.7,60,14.3z"/>
	<path class="st6" d="M41.9,1.6c0.6,0.5,0.6,1.6,0,2.2C41.2,3.4,41.2,2.2,41.9,1.6z"/>
	<path class="st6" d="M59.8,3.7c-0.6-0.6-0.7-1.6-0.1-2.2l0,0C60.4,1.9,60.5,3.1,59.8,3.7z"/>
	<path class="st7" d="M51.1,19.1C51,19.1,51,19.1,51.1,19.1c-2.1,0.1-4.2,0.1-6.2,0.2c0-3.3,0-6.7,0-10c0.1,0,0.2,0,0.2,0
		c0-0.1,0-0.3,0-0.4c0,0,0.1,0,0.1,0c0,0.2,0,0.4,0,0.5h-0.1h-0.2c0,3.1,0,6.2,0,9.4c0,0.1,0,0.3,0,0.4c2-0.1,4.1-0.1,6.1-0.2
		C51.1,19,51.1,19,51.1,19.1z"/>
	<path class="st7" d="M45.2,8.8c0.1,0,0.1,0,0.2,0c0-0.1,0-0.1,0-0.2c0.1,0,0.1,0,0.2,0c0-0.1,0-0.2,0-0.3c0,0,0.1,0,0.1,0
		c0,0.1,0,0.2,0,0.3c0,0.1,0,0.1,0,0.2c-0.1,0-0.2,0-0.2,0v9.9c1.9,0,3.7-0.1,5.6-0.1c0,0,0,0,0,0.1c-1.9,0-3.8,0.1-5.7,0.1
		c0-0.1,0-0.2,0-0.3c0-4.3,0-5.9,0-9c0-0.1,0-0.2,0-0.4c-0.1,0-0.1,0-0.2,0C45.2,8.9,45.2,8.9,45.2,8.8z"/>
	<path class="st8" d="M52,8.3V6.8c-0.2,0-0.3,0-0.5,0c0.1-0.1,0.2-0.1,0.3-0.2c0.1,0,0.3,0.1,0.4,0.3c0.1,0.1,0.1,0.2,0.1,0.4
		c0,0.3,0,0.6,0,0.9C52.3,8.3,52.2,8.3,52,8.3z"/>
	<path class="st7" d="M50.4,8.3c0,0,0.1,0.1,0.1,0.1c0.1,0.1,0.2,0.1,0.2,0.1c0,0-0.1,0-0.2,0c0,0-0.1,0-0.2,0c-0.2,0-0.3,0-0.3,0
		c-1.4,0-2.8,0-4.2,0c0,0,0-0.1,0-0.1c1.3,0,2.7,0,4,0C49.9,8.2,50.1,8.2,50.4,8.3z"/>
	<path class="st5" d="M52.1,19.1c0,0.7,0,1.4,0,2.1c0,0-0.1,0-0.1,0c0-0.7,0-1.4,0-2.1C52,19.1,52,19.1,52.1,19.1z"/>
	<path class="st8" d="M51.4,6.8L51.4,6.8L51.4,6.8z"/>
	<path class="st9" d="M52,22.1L52,22.1C52,22.1,52.1,22.1,52,22.1C52.1,22.1,52,22.1,52,22.1z"/>
	<path class="st5" d="M48.5,26.5L48.5,26.5L48.5,26.5L48.5,26.5z"/>
	<path class="st10" d="M51.3,18.6L51.3,18.6L51.3,18.6L51.3,18.6L51.3,18.6z"/>
	<path class="st11" d="M51.2,18.9c-2,0-4.1,0.1-6.1,0.1c0-3.2,0-6.4,0-9.6c0,0,0.1,0,0.1,0c0,3.2,0,6.3,0,9.5c2,0,4-0.1,5.9-0.1
		C51.2,18.8,51.2,18.8,51.2,18.9z"/>
	<path class="st12" d="M45.2,19.2h0.4H45.2z"/>
	<path class="st12" d="M45.1,9.4c0,0-0.1,0-0.2,0C45,9.4,45,9.4,45.1,9.4z"/>
	<path class="st12" d="M45,19.2h0.1H45z"/>
	<path class="st13" d="M50.2,19L50.2,19L50.2,19z"/>
	<path class="st14" d="M53.2,19h0.4H53.2z"/>
	<path class="st7" d="M45.7,18.4c0-3.3,0-6.5,0-9.8c0,0,0.1,0,0.1,0c0,3.3,0,6.5,0,9.8C45.7,18.4,45.7,18.4,45.7,18.4z"/>
	<path class="st7" d="M56.5,18.4c0-3.3,0-6.5,0-9.8c0,0,0.1,0,0.1,0c0,3.3,0,6.5,0,9.8C56.6,18.4,56.5,18.4,56.5,18.4z"/>
	<path class="st15" d="M46,18.6c0.1,0,0.2,0,0.4,0C46.3,18.6,46.2,18.6,46,18.6z"/>
	<path class="st16" d="M52.7,19h0.1H52.7z"/>
	<path class="st7" d="M45.7,18.4c0-0.1,0-0.1,0-0.2c1.8,0,3.6,0,5.4,0c0,0.1,0,0.1,0,0.2C49.3,18.4,47.5,18.4,45.7,18.4z"/>
	<path class="st17" d="M49.9,12.3l-0.6,0v-0.1h0.6V12.3z"/>
	<path class="st17" d="M49.9,16.3h-0.7v-0.1L49.9,16.3L49.9,16.3z"/>
	<path class="st18" d="M49.9,11.6h-0.6v-0.1L49.9,11.6L49.9,11.6z"/>
	<path class="st17" d="M49.2,11.1h0.6v0.1L49.2,11.1L49.2,11.1z"/>
	<path class="st19" d="M49.8,13.6h-0.6v-0.1L49.8,13.6L49.8,13.6z"/>
	<path class="st19" d="M49.2,16.8l0.6,0v0.1L49.2,16.8L49.2,16.8z"/>
	<path class="st18" d="M49.8,14.7l-0.6,0v-0.1h0.6V14.7z"/>
	<path class="st18" d="M49.2,15.2h0.6v0.1L49.2,15.2L49.2,15.2z"/>
	<path class="st19" d="M49.8,14.3h-0.6v-0.1L49.8,14.3L49.8,14.3z"/>
	<ellipse class="st18" cx="49.5" cy="9.5" rx="0.5" ry="0"/>
	<path class="st20" d="M49.1,17.2h0.7C49.8,17.4,49.5,17.4,49.1,17.2z"/>
	<path class="st19" d="M49.2,13.9h0.6V14L49.2,13.9L49.2,13.9z"/>
	<path class="st21" d="M49.2,12.4h0.6v0.1L49.2,12.4L49.2,12.4z"/>
	<path class="st19" d="M49.2,13.2C49.2,13.2,49.2,13.2,49.2,13.2c0.3,0,0.5,0,0.6,0.1L49.2,13.2L49.2,13.2z"/>
	<path class="st18" d="M49.8,14.9l-0.6,0v-0.1h0.6V14.9z"/>
	<path class="st21" d="M49.2,12.8l0.6,0v0.1L49.2,12.8L49.2,12.8z"/>
	<path class="st15" d="M46.9,13.3h-0.5v-0.1L46.9,13.3L46.9,13.3z"/>
	<path class="st14" d="M49.2,11.8l0.6,0v0.1L49.2,11.8L49.2,11.8z"/>
	<path class="st19" d="M49.8,16l-0.6,0v-0.1h0.6V16z"/>
	<path class="st15" d="M50.1,14.7l0.5,0.1l0,0.1L50.1,14.7L50.1,14.7z"/>
	<path class="st19" d="M49.2,17.5l0.6,0v0.1L49.2,17.5L49.2,17.5z"/>
	<path class="st18" d="M50.1,16.5l0.5,0.1l0,0.1l-0.5-0.1L50.1,16.5z"/>
	<path class="st14" d="M49.2,15.5h0.6v0.1L49.2,15.5L49.2,15.5z"/>
	<path class="st14" d="M50.1,16.1l0.5,0.1l0,0.1L50.1,16.1L50.1,16.1z"/>
	<path class="st21" d="M50.1,17.2l0.5,0.1v0.1l-0.5-0.1L50.1,17.2z"/>
	<path class="st14" d="M46.4,11.1h0.5v0.1L46.4,11.1L46.4,11.1z"/>
	<path class="st19" d="M50.1,10.1l0.5,0.1v0.1l-0.5-0.1L50.1,10.1z"/>
	<path class="st18" d="M46.4,10.4l0.5,0v0.1l-0.5,0V10.4z"/>
	<path class="st12" d="M49.8,10.5h-0.6v-0.1L49.8,10.5L49.8,10.5z"/>
	<path class="st17" d="M46.4,16.5l0.5,0v0.1L46.4,16.5L46.4,16.5z"/>
	<path class="st18" d="M46.9,10.2l-0.5,0v-0.1L46.9,10.2L46.9,10.2z"/>
	<path class="st21" d="M50.1,14.3l0.5,0.1l0,0.1l-0.5-0.1L50.1,14.3z"/>
	<path class="st18" d="M46.9,12.2l-0.5,0v-0.1h0.5V12.2z"/>
	<path class="st17" d="M46.9,16.2h-0.5v-0.1L46.9,16.2L46.9,16.2z"/>
	<path class="st14" d="M50.1,17.5l0.5,0.1v0.1l-0.5-0.1V17.5z"/>
	<ellipse class="st19" cx="46.6" cy="11.5" rx="0.3" ry="0"/>
	<path class="st18" d="M50.6,15.9l-0.5-0.1l0-0.1L50.6,15.9L50.6,15.9z"/>
	<path class="st14" d="M50.5,15.2l-0.4-0.1l0-0.1L50.5,15.2L50.5,15.2z"/>
	<path class="st12" d="M50.1,16.8l0.5,0.1V17L50.1,17V16.8z"/>
	<path class="st17" d="M46.9,11.8h-0.5v-0.1L46.9,11.8L46.9,11.8z"/>
	<path class="st17" d="M46.4,9.7h0.5v0.1L46.4,9.7L46.4,9.7z"/>
	<path class="st20" d="M50.1,9.7l0.5,0.1l0,0.1l-0.5-0.1L50.1,9.7z"/>
	<path class="st20" d="M50.5,10.6l-0.4-0.1l0-0.1L50.5,10.6L50.5,10.6z"/>
	<path class="st19" d="M50.6,11l-0.5-0.1l0-0.1L50.6,11L50.6,11z"/>
	<path class="st18" d="M50.5,15.6l-0.5-0.1l0-0.1l0.5,0.1L50.5,15.6z"/>
	<path class="st18" d="M46.4,15.5h0.5v0.1L46.4,15.5L46.4,15.5z"/>
	<path class="st18" d="M46.4,13.5l0.5,0v0.1L46.4,13.5L46.4,13.5z"/>
	<path class="st14" d="M50.1,9.4l0.5,0.1l0,0.1l-0.5-0.1L50.1,9.4z"/>
	<path class="st14" d="M50.1,14l0.5,0.1v0.1l-0.5-0.1V14z"/>
	<path class="st22" d="M49.6,16.6c0.1,0,0.1,0,0.2,0c0,0,0,0,0.1,0l0,0l0,0h-0.6v-0.1l0.2,0L49.6,16.6z"/>
	<path class="st17" d="M47.6,12.2l-0.4,0.1l0-0.1L47.6,12.2L47.6,12.2z"/>
	<path class="st17" d="M47.6,17.2l-0.4,0.1l0-0.1l0.4-0.1L47.6,17.2z"/>
	<path class="st21" d="M48.5,15.5l0.4,0v0.1l-0.4,0V15.5z"/>
	<path class="st15" d="M47.6,11.8l-0.4,0.1l0-0.1l0.4-0.1L47.6,11.8z"/>
	<path class="st17" d="M47.2,14.2l0.4-0.1l0,0.1l-0.4,0.1L47.2,14.2z"/>
	<path class="st15" d="M48.5,9.7l0.4,0v0.1L48.5,9.7L48.5,9.7z"/>
	<path class="st21" d="M46.9,9.5l-0.5,0V9.4L46.9,9.5L46.9,9.5z"/>
	<path class="st21" d="M46.9,17.3h-0.5v0L46.9,17.3L46.9,17.3z"/>
	<path class="st15" d="M48.5,10.1l0.4,0v0.1l-0.4,0V10.1z"/>
	<path class="st19" d="M46.4,10.7l0.5,0v0.1L46.4,10.7L46.4,10.7z"/>
	<path class="st14" d="M50.1,13.6l0.5,0.1v0.1L50.1,13.6L50.1,13.6z"/>
	<path class="st20" d="M46.9,17.6h-0.5v-0.1L46.9,17.6L46.9,17.6z"/>
	<path class="st12" d="M46.4,16.8h0.5v0.1L46.4,16.8L46.4,16.8z"/>
	<path class="st14" d="M50.6,11.3l-0.5-0.1l0-0.1L50.6,11.3L50.6,11.3z"/>
	<path class="st21" d="M50.1,11.5l0.5,0.1v0.1L50.1,11.5L50.1,11.5z"/>
	<path class="st13" d="M46.4,12.8l0.5,0v0.1L46.4,12.8L46.4,12.8z"/>
	<path class="st13" d="M50.6,13.1L50.1,13l0-0.1L50.6,13.1L50.6,13.1z"/>
	<path class="st12" d="M50.6,13.5l-0.5-0.1l0-0.1L50.6,13.5L50.6,13.5z"/>
	<path class="st15" d="M47.6,13.6l-0.4,0l0-0.1l0.4-0.1L47.6,13.6z"/>
	<path class="st18" d="M46.9,12.5h-0.5v-0.1L46.9,12.5L46.9,12.5z"/>
	<path class="st20" d="M46.9,14.3l-0.5,0v-0.1L46.9,14.3L46.9,14.3z"/>
	<path class="st17" d="M47.5,14.6l-0.4,0v-0.1L47.5,14.6L47.5,14.6z"/>
	<ellipse class="st14" cx="46.6" cy="14.6" rx="0.3" ry="0"/>
	<path class="st20" d="M46.9,14.9h-0.5v-0.1L46.9,14.9L46.9,14.9z"/>
	<path class="st19" d="M47.2,15.2l0.4,0l0,0.1L47.2,15.2L47.2,15.2z"/>
	<path class="st12" d="M46.9,15.2h-0.5v-0.1L46.9,15.2L46.9,15.2z"/>
	<path class="st21" d="M46.9,15.9h-0.5v-0.1L46.9,15.9L46.9,15.9z"/>
	<path class="st14" d="M47.2,16.2l0.4,0l0,0.1l-0.4,0.1L47.2,16.2z"/>
	<path class="st17" d="M47.6,16.9l-0.4,0l0-0.1l0.4-0.1V16.9z"/>
	<path class="st14" d="M48.5,12.4l0.4,0v0.1l-0.4,0V12.4z"/>
	<path class="st20" d="M48.5,9.4l0.4,0v0.1L48.5,9.4L48.5,9.4z"/>
	<path class="st12" d="M50.1,11.9l0.5,0.1l0,0.1L50.1,11.9L50.1,11.9z"/>
	<path class="st18" d="M48.9,10.9l-0.4,0v-0.1l0.4,0V10.9z"/>
	<path class="st12" d="M48.9,16l-0.3,0v-0.1l0.4,0L48.9,16z"/>
	<path class="st21" d="M50.6,12.8l-0.5-0.1l0-0.1L50.6,12.8L50.6,12.8z"/>
	<path class="st21" d="M47.6,11.1l-0.4,0.1l0-0.1L47.6,11.1L47.6,11.1z"/>
	<path class="st14" d="M47.2,16.5l0.4,0l0,0.1l-0.4,0.1L47.2,16.5z"/>
	<path class="st20" d="M48.5,14.2h0.4v0.1L48.5,14.2L48.5,14.2z"/>
	<path class="st21" d="M48.9,10.6l-0.3,0l0-0.1L48.9,10.6L48.9,10.6z"/>
	<path class="st21" d="M48.5,14.5l0.4,0v0.1L48.5,14.5L48.5,14.5z"/>
	<path class="st19" d="M47.6,12.8l-0.4,0v-0.1L47.6,12.8L47.6,12.8z"/>
	<path class="st17" d="M47.6,12.5l-0.4,0l0-0.1l0.4-0.1L47.6,12.5z"/>
	<path class="st19" d="M47.6,14.9l-0.4,0l0-0.1l0.4-0.1L47.6,14.9z"/>
	<path class="st14" d="M48.5,17.2l0.4,0l0,0.1L48.5,17.2L48.5,17.2z"/>
	<path class="st21" d="M50.6,12.4l-0.5-0.1l0-0.1L50.6,12.4L50.6,12.4z"/>
	<path class="st12" d="M48.5,15.1l0.4,0v0.1l-0.4,0L48.5,15.1z"/>
	<path class="st20" d="M47.6,13.2l-0.4,0l0-0.1l0.4-0.1L47.6,13.2z"/>
	<path class="st21" d="M47.2,10.1l0.4,0l0,0.1l-0.4,0.1L47.2,10.1z"/>
	<path class="st12" d="M48.5,17.5l0.4,0v0.1L48.5,17.5L48.5,17.5z"/>
	<path class="st14" d="M48.5,14.8l0.4,0v0.1L48.5,14.8L48.5,14.8z"/>
	<path class="st19" d="M48.2,11.2l-0.3,0V11l0.3,0V11.2z"/>
	<path class="st21" d="M48.5,16.8l0.4,0V17l-0.4,0V16.8z"/>
	<path class="st14" d="M48.9,16.7l-0.4,0v-0.1L48.9,16.7L48.9,16.7z"/>
	<path class="st14" d="M47.9,15.1l0.3,0v0.1l-0.3,0L47.9,15.1z"/>
	<path class="st12" d="M48.9,12.3l-0.3,0v-0.1l0.3,0V12.3z"/>
	<path class="st20" d="M47.5,11.5l-0.3,0v-0.1l0.4,0L47.5,11.5z"/>
	<path class="st19" d="M48.2,14l-0.3,0v-0.1l0.3,0L48.2,14z"/>
	<path class="st21" d="M49.4,10.8h0.4v0.1L49.4,10.8L49.4,10.8z"/>
	<path class="st18" d="M47.2,10.8l0.4,0l0,0.1l-0.4,0.1L47.2,10.8z"/>
	<path class="st21" d="M47.6,9.5l-0.4,0l0-0.1L47.6,9.5L47.6,9.5z"/>
	<path class="st19" d="M47.6,10.5l-0.4,0.1l0-0.1L47.6,10.5L47.6,10.5z"/>
	<path class="st14" d="M47.2,9.8l0.4,0v0.1L47.2,9.8L47.2,9.8z"/>
	<path class="st21" d="M48.9,13.6l-0.3,0v-0.1l0.4,0L48.9,13.6z"/>
	<path class="st14" d="M48.2,16.3l-0.3,0v-0.1l0.3,0V16.3z"/>
	<path class="st21" d="M49.4,9.8h0.4v0.1C49.7,9.9,49.5,9.9,49.4,9.8L49.4,9.8z"/>
	<path class="st18" d="M47.9,14.1l0.3,0l0,0.1l-0.3,0L47.9,14.1z"/>
	<path class="st14" d="M48.5,11.7l0.3,0v0.1l-0.3,0V11.7z"/>
	<path class="st21" d="M48.9,11.2l-0.3,0v-0.1l0.4,0L48.9,11.2z"/>
	<path class="st19" d="M47.9,14.5l0.3,0v0.1L47.9,14.5L47.9,14.5z"/>
	<path class="st20" d="M48.2,12.9l-0.3,0v-0.1L48.2,12.9L48.2,12.9z"/>
	<path class="st20" d="M48.9,13.3l-0.4,0v-0.1L48.9,13.3L48.9,13.3z"/>
	<path class="st18" d="M47.9,14.8l0.3,0v0.1L47.9,14.8L47.9,14.8z"/>
	<path class="st20" d="M48.9,12.9l-0.3,0v-0.1L48.9,12.9L48.9,12.9z"/>
	<path class="st14" d="M48.5,11.4l0.4,0l0,0.1L48.5,11.4L48.5,11.4z"/>
	<path class="st21" d="M48.9,16.3l-0.4,0v-0.1l0.4,0V16.3z"/>
	<path class="st12" d="M47.2,17.5l0.4,0l0,0.1L47.2,17.5L47.2,17.5z"/>
	<path class="st20" d="M48.2,13.6l-0.3,0v-0.1l0.3,0L48.2,13.6z"/>
	<path class="st19" d="M47.9,16.5l0.3,0v0.1l-0.3,0V16.5z"/>
	<path class="st18" d="M48.2,11.5l-0.3,0l0-0.1L48.2,11.5L48.2,11.5z"/>
	<path class="st19" d="M47.9,12.4l0.3,0v0.1L47.9,12.4L47.9,12.4z"/>
	<path class="st21" d="M49.5,10.1h0.4v0.1C49.7,10.2,49.6,10.2,49.5,10.1L49.5,10.1z"/>
	<path class="st22" d="M47.4,13.9l-0.2,0l0-0.1L47.4,13.9L47.4,13.9L47.4,13.9z"/>
	<path class="st21" d="M47.9,13.1l0.3,0v0.1L47.9,13.1L47.9,13.1z"/>
	<path class="st21" d="M47.9,17.5l0.3,0v0.1L47.9,17.5L47.9,17.5z"/>
	<path class="st20" d="M47.9,12.2l0.3-0.1l0,0.1l-0.1,0L47.9,12.2z"/>
	<path class="st15" d="M46.8,13.9C46.8,13.9,46.8,14,46.8,13.9c-0.2,0.1-0.3,0.1-0.4,0l0.2-0.1L46.8,13.9L46.8,13.9z"/>
	<path class="st21" d="M47.6,15.5l-0.3,0l0-0.1L47.6,15.5L47.6,15.5z"/>
	<path class="st14" d="M47.9,10.4l0.3,0v0.1l-0.3,0L47.9,10.4z"/>
	<path class="st18" d="M48.8,14h-0.2v-0.1l0.3,0.1L48.8,14z"/>
	<path class="st20" d="M47.2,15.8l0.4,0l0,0.1L47.2,15.8L47.2,15.8z"/>
	<path class="st12" d="M47.9,15.8l0.3,0l0,0.1l-0.3,0L47.9,15.8z"/>
	<path class="st12" d="M47.9,11.8l0.3-0.1l0,0.1l-0.1,0L47.9,11.8z"/>
	<path class="st20" d="M48.2,9.5l-0.3,0V9.4L48.2,9.5L48.2,9.5z"/>
	<path class="st20" d="M47.9,9.7l0.3,0v0.1L47.9,9.7L47.9,9.7z"/>
	<path class="st21" d="M47.9,15.4l0.3,0v0.1l-0.3,0V15.4z"/>
	<path class="st12" d="M47.9,10.1l0.3,0v0.1l-0.3,0L47.9,10.1z"/>
	<path class="st13" d="M48.2,10.9l-0.3,0v-0.1L48.2,10.9L48.2,10.9z"/>
	<path class="st15" d="M48.2,16.8L48.2,16.8l-0.2,0L48.2,16.8z"/>
	<path class="st22" d="M49.5,10.1L49.5,10.1c-0.1,0.1-0.2,0.1-0.3,0v-0.1L49.5,10.1z"/>
	<path class="st23" d="M48.2,17.2L48.2,17.2c0,0.1-0.1,0.1-0.1,0.1L48.2,17.2z"/>
	<path class="st24" d="M48.2,17.2L48,17.3l-0.1,0v0L48.2,17.2z"/>
	<path class="st22" d="M49.4,9.8L49.4,9.8c-0.1,0.1-0.1,0.1-0.2,0.1V9.8C49.2,9.8,49.4,9.8,49.4,9.8z"/>
	<path class="st11" d="M46.7,13.8l-0.2,0.1l0,0c0,0,0,0,0-0.1H46.7z"/>
	<path class="st24" d="M48.2,16.8l-0.2,0L48.2,16.8z"/>
	<path class="st12" d="M48.8,14l0.1,0L48.8,14z"/>
	<path class="st25" d="M47.9,12.2l0.2,0L47.9,12.2z"/>
	<path class="st25" d="M47.9,11.8l0.2,0L47.9,11.8z"/>
	<path class="st12" d="M49.2,10.8h0.1v0.1L49.2,10.8L49.2,10.8z"/>
	<path class="st23" d="M49.6,16.6l-0.1,0L49.6,16.6z"/>
	<path class="st15" d="M47.4,13.9L47.4,13.9L47.4,13.9z"/>
	<path class="st15" d="M46.4,13.8C46.4,13.9,46.4,13.9,46.4,13.8C46.4,13.9,46.4,13.9,46.4,13.8L46.4,13.8z"/>
	<path class="st23" d="M49.8,16.6L49.8,16.6L49.8,16.6z"/>
	<path class="st23" d="M49.8,16.6C49.8,16.6,49.8,16.5,49.8,16.6C49.8,16.6,49.8,16.6,49.8,16.6z"/>
	<path class="st11" d="M46.8,13.9L46.8,13.9C46.8,13.8,46.8,13.8,46.8,13.9z"/>
	<path class="st17" d="M45.6,18.9h-0.2H45.6z"/>
	<path class="st17" d="M45.9,18.9h-0.1H45.9z"/>
	<path class="st15" d="M48.4,18.7L48.4,18.7L48.4,18.7z"/>
	<path class="st17" d="M45.3,18.9L45.3,18.9L45.3,18.9z"/>
	<path class="st23" d="M50,18.5L50,18.5L50,18.5z"/>
	<path class="st23" d="M52.4,18.5c-0.1,0-0.1,0-0.2,0C52.3,18.5,52.3,18.5,52.4,18.5z"/>
	<path class="st16" d="M52.2,18.6h0.2H52.2z"/>
	<path class="st22" d="M45.8,11.8"/>
	<path class="st22" d="M45.9,8.3"/>
	<path class="st7" d="M45.2,9.4"/>
	<path class="st22" d="M46,18.4"/>
	<path class="st22" d="M50.4,18.4"/>
	<path class="st7" d="M45.7,8.8"/>
	<path class="st7" d="M45.4,8.7"/>
	<path class="st7" d="M52,8.3c0,0,0,0.1,0,0.1c-0.1,0-0.3,0-0.5,0.1c-0.1,0.1-0.2,0.2-0.2,0.2c-0.1,0.1-0.1,0.3-0.1,0.3
		c0,0.3,0,4.4,0.1,10c-0.1,0-0.1,0-0.2,0c0-5.6,0-9.7,0-10c0-0.3-0.2-0.4-0.2-0.4c-0.1-0.1-0.1-0.1-0.2-0.2c-0.1,0-0.2-0.1-0.3-0.1
		c0,0,0-0.1,0-0.1c0.1,0,0.4,0,0.6,0.3c0.1,0.1,0.1,0.1,0.2,0.2c0,0,0-0.1,0.1-0.2c0,0,0-0.1,0.1-0.1C51.4,8.4,51.7,8.3,52,8.3z"/>
	<path class="st4" d="M47.2,5.5c-0.1,0-0.1,0-0.1,0V4.9c0.1,0,0.2,0,0.3,0.1c0.1,0,0.1,0.1,0.2,0.1c0,0,0.1,0.1,0.1,0.1
		C47.6,5.4,47.4,5.5,47.2,5.5z"/>
	<path class="st5" d="M47.5,5.5"/>
	<path class="st4" d="M46.7,5.1C46.8,5,46.9,5,47,4.9v0.6c0,0-0.1,0-0.2-0.1c-0.1-0.1-0.1-0.2-0.1-0.2C46.6,5.2,46.7,5.2,46.7,5.1z"
		/>
	<g>
		<defs>
			
				<rect id="SVGID_1_" x="51" y="8.2" transform="matrix(-1 -4.422919e-11 4.422919e-11 -1 108.3586 27.3328)" width="6.4" height="10.9"/>
		</defs>
		<clipPath id="SVGID_2_">
			<use xlink:href="#SVGID_1_"  style="overflow:visible;"/>
		</clipPath>
		<path class="st26" d="M43.6,15.3c0.4,0.7,0.3,1.6-0.4,2.1c-0.1,0-0.1,0-0.2,0.1c-0.8,0.1-1.6-0.9-1.4-1.7c0.5,0,0.9,0.3,1.2,0.7
			C42.9,16,43.1,15.6,43.6,15.3z"/>
		<path class="st26" d="M42.3,10.4c0,0-0.1,0-0.1,0c-0.8-0.1-1.3-1.3-1-2c0.5,0.2,0.9,0.6,1,1.1c0.2-0.5,0.5-0.8,1-1
			C43.6,9.2,43.1,10.2,42.3,10.4z"/>
		<path class="st26" d="M43.2,11.8c-0.2,0.4-0.5,0.8-1,0.8c-0.5,0-0.8-0.4-1-0.8c-0.2-0.4-0.2-0.8,0-1.2c0.5,0.2,0.9,0.5,1,1
			c0.2-0.5,0.5-0.8,1.1-0.9C43.4,11.1,43.3,11.5,43.2,11.8z"/>
		<path class="st26" d="M44.3,19.1c-0.1,0.2-0.3,0.4-0.5,0.6c-0.8,0.2-1.7-0.6-1.6-1.5c0.2,0,0.4,0.1,0.7,0.2
			c0.2,0.1,0.4,0.2,0.6,0.4c0.3-0.8,0.3-1,0.7-1.2C44.6,18,44.6,18.6,44.3,19.1z"/>
		<path class="st26" d="M43.2,13.3c0.4,0.6,0,1.8-0.8,2c-0.1,0-0.1,0-0.2,0c0,0,0,0-0.1,0c-0.8-0.2-1.2-1.1-1-1.9
			c0.5,0.1,0.9,0.4,1.1,0.9C42.5,13.7,42.7,13.4,43.2,13.3z"/>
		<path class="st27" d="M50.2,8.4l0.2,0.1l-0.1,0c0,0,0,0,0,0h-0.1l-0.4,0h-0.1c-1.2,0-2.4,0-3.6,0c-0.1,0-0.2,0-0.3,0v0.3
			c0,0.1,0,0.3,0,0.4c0,3,0,5.9,0,8.9c0,0.1,0,0.2,0,0.3l0,0.1c0,0,0,0,0,0l0-0.3c0-3,0-6.1,0-9.2c0,0,0-0.1-0.1-0.2l0,0.2l0,0.1
			h-0.1l-0.1,0v0.1v0.1v0.1v1.1v0.3c0,0.4,0,0.7,0,1.1v0.3V13v0.6v0.7v0.7v0.7v1v0.7V18v0.4l0,0.5V19c0-0.1-0.1-0.2-0.1-0.3
			c0-3,0-6,0-9c0-0.1,0-0.2,0-0.3c0,0,0-0.1,0-0.1c0-0.1,0-0.2,0-0.3l0.2-0.1l0,0l0.3-0.3l0-0.2c0.9,0,1.9,0,2.8,0
			c0.4,0,0.8,0,1.3,0L50.2,8.4z"/>
		<path class="st28" d="M45,9.6c0,3.1,0,6.1,0,9.2c0,0.1,0,0.2,0,0.3h1.7h0.1h0.2h0.4l1.4,0H49h0.2v0.1c-1.5,0-2.9,0.1-4.4,0.1v-10
			c0.1,0,0.2,0,0.3,0c0,0,0,0.1,0,0.1C45.1,9.4,45,9.5,45,9.6z"/>
		<path class="st28" d="M52.5,8.2c1.3,0,2.7,0,4,0c0,0,0,0.1,0,0.1c-2.7,0-4.1,0-4.2,0c0,0-0.1,0-0.3,0c-0.1,0-0.3,0-0.3,0
			c-0.1,0-0.2,0-0.2,0c0,0,0.1,0,0.2-0.1c0,0,0.1-0.1,0.1-0.1C52.1,8.2,52.3,8.2,52.5,8.2z"/>
		<path class="st29" d="M49.1,11.5L49.1,11.5l0.6,0.1l0-0.1l-0.1,0h-0.2h-0.2L49.1,11.5L49.1,11.5L49.1,11.5z M46.4,13.9l0.2,0h0.1
			c0,0,0,0,0,0v-0.1L46.4,13.9l-0.1,0L46.4,13.9L46.4,13.9L46.4,13.9z M48.1,16.9L48.1,16.9l-0.3,0L48.1,16.9z M49.4,10.4l-0.3,0
			v0.1l0.3,0h0.3l0.1-0.1h-0.2L49.4,10.4z M48.4,13.9L48.4,13.9l0.2,0.1l0.1,0l0,0l-0.1-0.1L48.4,13.9z M47.2,10.4L47.2,10.4
			L47.2,10.4l0.3,0v0l-0.1,0L47.2,10.4z M47.5,13.9L47.5,13.9l-0.3,0v0.1l0.1,0l0.1,0L47.5,13.9z M49.1,17.5L49.1,17.5l0.1,0.1h0.1
			L49.1,17.5z M47.9,16.6l0.1,0l0-0.1l-0.2,0.1H47.9z M46.7,12.4h-0.4v0.1l0.3,0L46.7,12.4L46.7,12.4z M49.7,10.9L49.7,10.9
			l-0.6-0.1v0l0.1,0H49.7z M46.3,15.3l0.5,0v-0.1l-0.3,0L46.3,15.3L46.3,15.3z M49.7,16L49.7,16l-0.6-0.1l0,0l0.1,0l0.1,0L49.7,16z
			 M49.3,11.8h-0.2v0.1l0.6-0.1l-0.1,0h-0.1L49.3,11.8z M49.7,13.9h-0.6V14l0.6,0V13.9L49.7,13.9z M49.7,17.3L49.7,17.3l-0.6-0.1
			v0.1H49.7z M49.1,12.1v0.1l0.6,0v-0.1L49.1,12.1z M49.1,14.6L49.1,14.6l0.6,0.1v-0.1C49.7,14.6,49.1,14.6,49.1,14.6z M49.1,16.2
			L49.1,16.2l0.6,0.1v-0.1H49.1z M49.1,13.6h0.6v-0.1L49.1,13.6L49.1,13.6L49.1,13.6z M49.1,15.3h0.6v-0.1L49.1,15.3L49.1,15.3
			L49.1,15.3z M49.1,9.5h0.6V9.5L49.1,9.5L49.1,9.5L49.1,9.5z M49.7,11.2L49.7,11.2l-0.6-0.1v0.1H49.7z M49.1,16.5L49.1,16.5
			l0.6,0.1v-0.1L49.1,16.5z M49.1,14.2L49.1,14.2l0.6,0.1v-0.1H49.1z M49.7,17L49.7,17l-0.6-0.1V17L49.7,17z M50.4,14.9L50.4,14.9
			L50,14.7l0,0.1L50.4,14.9z M49.7,15L49.7,15l-0.6-0.1v0.1L49.7,15z M49.1,12.5L49.1,12.5l0.6,0.1v-0.1H49.1z M49.1,12.8L49.1,12.8
			l0.6,0.1v-0.1L49.1,12.8z M49.7,13.2h-0.6v0.1l0.6,0V13.2L49.7,13.2z M50.4,16.7L50.4,16.7L50,16.5l0,0.1L50.4,16.7z M50.4,17.4
			L50.4,17.4L50,17.2l0,0.1L50.4,17.4z M50,10.1L50,10.1l0.4,0.2l0-0.1L50,10.1z M49.7,15.6L49.7,15.6l-0.6-0.1v0.1H49.7z M50.4,9.9
			L50.4,9.9L50,9.7l0,0.1L50.4,9.9z M49.7,10.2L49.7,10.2l-0.6-0.1v0.1L49.7,10.2z M50.4,17.8L50.4,17.8L50,17.6l0,0.1L50.4,17.8z
			 M46.3,16.2v0.1l0.5,0v-0.1L46.3,16.2z M46.3,12.1L46.3,12.1l0.5,0.1v-0.1H46.3z M46.3,10.8L46.3,10.8l0.5,0.1v-0.1H46.3z
			 M46.3,11.1v0.1h0.5v-0.1L46.3,11.1z M46.3,10.1L46.3,10.1l0.5,0.1v-0.1H46.3z M46.8,16.7v-0.1l-0.5,0v0.1L46.8,16.7z M49.1,9.8
			L49.1,9.8l0.6,0.1V9.8C49.7,9.8,49.1,9.8,49.1,9.8z M46.8,9.8h-0.5v0.1L46.8,9.8L46.8,9.8L46.8,9.8z M46.8,13.6L46.8,13.6
			l-0.5-0.1v0.1L46.8,13.6z M46.8,11.5L46.8,11.5l-0.5-0.1v0.1C46.3,11.5,46.8,11.5,46.8,11.5z M46.3,11.8L46.3,11.8l0.5,0.1v-0.1
			L46.3,11.8z M50.4,15.2L50.4,15.2L50,15l0,0.1L50.4,15.2z M46.8,15.6L46.8,15.6l-0.5-0.1v0.1L46.8,15.6z M50.4,11L50.4,11L50,10.8
			l0,0.1L50.4,11z M50,15.4L50,15.4l0.4,0.2l0-0.1L50,15.4z M46.3,10.4v0.1l0.5,0v-0.1L46.3,10.4z M50.4,10.6L50.4,10.6L50,10.4
			l0,0.1L50.4,10.6z M50.4,17.1L50.4,17.1L50,16.9l0,0.1L50.4,17.1z M46.8,17.3L46.8,17.3l-0.5-0.1v0.1L46.8,17.3z M50.4,9.6
			L50.4,9.6L50,9.4l0,0.1L50.4,9.6z M46.8,13.3L46.8,13.3l-0.5-0.1l0,0.1L46.8,13.3z M50.4,11.4L50.4,11.4L50,11.2v0.1L50.4,11.4z
			 M50,16.1L50,16.1l0.4,0.2l0-0.1L50,16.1z M50.4,11.7L50.4,11.7L50,11.5l0,0.1L50.4,11.7z M50.4,14.6L50.4,14.6L50,14.4l0,0.1
			L50.4,14.6z M47.5,12.2l0-0.1l-0.4,0l0,0.1L47.5,12.2z M48.8,10.3L48.8,10.3l-0.3-0.2l0,0.1L48.8,10.3z M46.3,14.2v0.1l0.5,0v-0.1
			L46.3,14.2z M48.8,15.6L48.8,15.6l-0.3-0.1v0.1L48.8,15.6z M50,15.8L50,15.8l0.4,0.2l0-0.1L50,15.8z M46.3,17.5L46.3,17.5l0.5,0.1
			v-0.1H46.3z M46.8,9.5h-0.5v0.1L46.8,9.5L46.8,9.5L46.8,9.5z M47.1,11.8L47.1,11.8l0.4,0.1v-0.1L47.1,11.8z M46.3,12.8L46.3,12.8
			l0.5,0.1v-0.1H46.3z M48.8,14.3L48.8,14.3l-0.4-0.1v0.1L48.8,14.3z M46.8,14.6L46.8,14.6l-0.5-0.1v0.1
			C46.3,14.6,46.8,14.6,46.8,14.6z M46.3,14.8L46.3,14.8l0.5,0.1v-0.1H46.3z M46.8,15.9L46.8,15.9l-0.5-0.1v0.1H46.8z M47.1,16.9
			L47.1,16.9l0.4,0l0-0.1L47.1,16.9z M46.8,16.9L46.8,16.9l-0.5-0.1v0.1H46.8z M50,13.3L50,13.3c0.1,0.1,0.1,0.1,0.2,0.1
			c0.1,0,0.2,0,0.2,0l0-0.1L50,13.3z M47.1,16.2L47.1,16.2l0.4,0.1v-0.1L47.1,16.2z M47.1,17.2L47.1,17.2l0.4,0v-0.1L47.1,17.2z
			 M47.5,15.3l0-0.1l-0.4,0.1l0,0.1L47.5,15.3z M48.4,9.5L48.4,9.5l0.3,0.1l0-0.1L48.4,9.5z M48.4,9.8L48.4,9.8l0.3,0.1l0-0.1
			L48.4,9.8z M50,12.9L50,12.9l0.4,0.2l0-0.1L50,12.9z M50.4,12.1L50.4,12.1L50,11.9l0,0.1L50.4,12.1z M47.5,11.2L47.5,11.2l-0.4,0
			l0,0.1L47.5,11.2z M48.8,16L48.8,16l-0.3-0.1l0,0.1L48.8,16z M50.4,14.2L50.4,14.2L50,14l0,0.1L50.4,14.2z M50,13.7L50,13.7
			l0.4,0.2l0-0.1L50,13.7z M47.5,12.9L47.5,12.9l-0.4,0l0,0.1L47.5,12.9z M48.4,17.2L48.4,17.2l0.3,0.1l0-0.1L48.4,17.2z M47.1,14.2
			L47.1,14.2l0.4,0.1v-0.1L47.1,14.2z M48.8,14.7L48.8,14.7l-0.4-0.1v0.1L48.8,14.7z M50,12.6L50,12.6l0.4,0.2l0-0.1L50,12.6z
			 M50,12.2L50,12.2l0.4,0.2l0-0.1L50,12.2z M47.5,14.9L47.5,14.9l-0.3-0.1v0.1L47.5,14.9z M48.4,15.2L48.4,15.2l0.4,0.1v-0.1
			L48.4,15.2z M47.5,14.6v-0.1l-0.4,0.1l0,0.1L47.5,14.6z M47.5,13.3L47.5,13.3l-0.4-0.1l0,0.1L47.5,13.3z M48.8,17L48.8,17
			l-0.4-0.1V17L48.8,17z M48.8,17.7L48.8,17.7l-0.3-0.1v0.1L48.8,17.7z M48.8,10.9L48.8,10.9l-0.3-0.1l0,0.1L48.8,10.9z M48.4,12.8
			L48.4,12.8l0.3,0.1l0-0.1L48.4,12.8z M47.5,13.6L47.5,13.6l-0.4,0l0,0.1L47.5,13.6z M47.1,12.4L47.1,12.4l0.4,0l0-0.1L47.1,12.4z
			 M47.5,10.2L47.5,10.2l-0.4-0.1l0,0.1L47.5,10.2z M47.8,17.2L47.8,17.2l0.3,0.1l0-0.1L47.8,17.2z M48.7,15L48.7,15l-0.3-0.1l0,0.1
			L48.7,15z M48.7,12.6L48.7,12.6l-0.3-0.2v0.1L48.7,12.6z M48.8,12.3L48.8,12.3l-0.4-0.1v0.1L48.8,12.3z M48.1,11.9L48.1,11.9
			l-0.2-0.2l0,0.1L48.1,11.9z M48.4,11.1L48.4,11.1l0.3,0.1l0-0.1L48.4,11.1z M47.8,15.1L47.8,15.1l0.3,0.1l0-0.1L47.8,15.1z
			 M47.1,17.5L47.1,17.5l0.4,0.1v-0.1L47.1,17.5z M47.5,11.5L47.5,11.5l-0.4,0l0,0.1L47.5,11.5z M48.1,11.2L48.1,11.2l-0.3-0.1v0.1
			L48.1,11.2z M48.1,14L48.1,14l-0.3-0.1l0,0.1L48.1,14z M48.8,10.6L48.8,10.6l-0.3-0.1v0.1L48.8,10.6z M48.1,14.9L48.1,14.9
			l-0.3-0.1l0,0.1L48.1,14.9z M48.4,13.5L48.4,13.5l0.3,0.1l0-0.1L48.4,13.5z M47.8,16.1L47.8,16.1l0.2,0.2l0-0.1L47.8,16.1z
			 M48.8,16.3L48.8,16.3l-0.3-0.1l0,0.1L48.8,16.3z M47.1,9.8L47.1,9.8l0.4,0V9.7L47.1,9.8z M47.1,10.8L47.1,10.8l0.4,0v-0.1
			L47.1,10.8z M47.5,16.6L47.5,16.6l-0.3,0v0.1L47.5,16.6z M47.8,14.5L47.8,14.5l0.2,0.1l0-0.1L47.8,14.5z M47.8,12.8L47.8,12.8
			l0.3,0.1v-0.1L47.8,12.8z M48.8,11.9L48.8,11.9l-0.3-0.1l0,0.1L48.8,11.9z M48.7,16.7L48.7,16.7l-0.3-0.1v0.1L48.7,16.7z
			 M48.1,13.6L48.1,13.6l-0.3-0.1l0,0.1L48.1,13.6z M48.4,11.5L48.4,11.5l0.3,0.2l0-0.1L48.4,11.5z M48.1,14.3L48.1,14.3l-0.3-0.1
			l0,0.1L48.1,14.3z M48.1,11.6L48.1,11.6l-0.2-0.2l0,0.1L48.1,11.6z M48.7,13.3L48.7,13.3l-0.3-0.1v0.1L48.7,13.3z M47.8,13.2
			L47.8,13.2l0.3,0.1l0-0.1L47.8,13.2z M48.1,12.2L48.1,12.2l-0.3-0.1l0,0.1L48.1,12.2z M47.8,12.4L47.8,12.4l0.2,0.1l0-0.1
			L47.8,12.4z M47.5,9.5L47.5,9.5l-0.3-0.1v0.1L47.5,9.5z M47.1,15.5L47.1,15.5l0.4,0l0-0.1L47.1,15.5z M47.8,10.4L47.8,10.4
			l0.2,0.1l0-0.1L47.8,10.4z M47.5,15.9L47.5,15.9l-0.3,0V16L47.5,15.9z M47.8,10.1L47.8,10.1l0.2,0.1l0-0.1L47.8,10.1z M48.1,9.6
			L48.1,9.6l-0.2-0.1l0,0.1L48.1,9.6z M47.8,9.7L47.8,9.7l0.3,0.1V9.8L47.8,9.7z M47.8,15.4L47.8,15.4l0.2,0.1l0-0.1L47.8,15.4z
			 M47.8,17.5L47.8,17.5l0.3,0.1l0-0.1L47.8,17.5z M47.8,15.8L47.8,15.8l0.3,0.1l0-0.1L47.8,15.8z M48.1,10.9L48.1,10.9l-0.3-0.1
			v0.1L48.1,10.9z M49.4,17.6L49.4,17.6l0.3,0.1v-0.1L49.4,17.6z"/>
		<path class="st30" d="M45.3,12.1c0-0.1,0-0.2,0-0.3c0-0.4,0-0.7,0-1.1c0-0.1,0-0.2,0-0.3c0-0.4,0-0.8,0-1.1V9.2V9.1V9l0.1,0l0,0
			c0,3.1,0,6.2,0,9.4c0,0.1,0,0.2,0,0.3l1.8,0h0.1h0.1c0.1,0,0.3,0.1,0.4,0.1c0,0-0.1,0-0.2,0l-0.7,0c-0.5,0-1.1,0-1.6,0
			c-0.1,0-0.2,0-0.3,0l0-0.5c0-0.1,0-0.3,0-0.4c0-0.2,0-0.4,0-0.6c0-0.2,0-0.5,0-0.7c0-0.3,0-0.7,0-1c0-0.2,0-0.5,0-0.7
			c0-0.2,0-0.5,0-0.7s0-0.5,0-0.7c0-0.2,0-0.4,0-0.6C45.3,12.6,45.3,12.4,45.3,12.1z"/>
		<path class="st31" d="M45.5,18.7c0-0.1,0-0.2,0-0.3c0-3.1,0-6.2,0-9.4h0.1c0,0,0,0,0,0c0,3.2,0,6.4,0,9.6L45.5,18.7z"/>
		<path class="st32" d="M45.3,9.3c0,0.4,0,0.8,0,1.1C45.3,10.1,45.3,9.7,45.3,9.3z"/>
		<path class="st32" d="M45.3,10.7c0,0.4,0,0.7,0,1.1C45.3,11.5,45.3,11.1,45.3,10.7z"/>
		<path class="st32" d="M45.3,14.9c0,0.2,0,0.5,0,0.7C45.3,15.3,45.3,15.1,45.3,14.9z"/>
		<path class="st32" d="M45.3,13.5c0,0.2,0,0.5,0,0.7C45.3,13.9,45.3,13.7,45.3,13.5z"/>
		<path class="st32" d="M45.3,16.6c0,0.2,0,0.5,0,0.7C45.3,17.1,45.3,16.8,45.3,16.6z"/>
		<path class="st32" d="M45.3,12.1c0,0.2,0,0.5,0,0.7C45.3,12.6,45.3,12.4,45.3,12.1z"/>
		<path class="st32" d="M45.3,17.9c0,0.1,0,0.3,0,0.4C45.3,18.2,45.3,18.1,45.3,17.9z"/>
		<path class="st33" d="M45.7,18.5l0-0.3L45.7,18.5z"/>
		<path class="st34" d="M45.7,8.4c0,0.1,0,0.2,0,0.3C45.7,8.6,45.8,8.5,45.7,8.4z"/>
		<path class="st35" d="M45.4,9l-0.1,0L45.4,9z"/>
		<path class="st34" d="M50.2,8.4h-0.1H50.2z"/>
		<path class="st32" d="M45.3,9.1L45.3,9.1L45.3,9.1z"/>
		<path class="st36" d="M45.5,8.9L45.5,8.9C45.5,9,45.5,9,45.5,8.9L45.5,8.9z"/>
		<path class="st34" d="M49.7,8.4L49.7,8.4L49.7,8.4z"/>
		<path class="st35" d="M49.7,14l-0.6,0v-0.1h0.6L49.7,14z"/>
		<path class="st37" d="M49.1,17.2h0.6v0.1L49.1,17.2L49.1,17.2z"/>
		<path class="st38" d="M49.7,12.3l-0.6,0v-0.1l0.6,0V12.3z"/>
		<path class="st38" d="M49.7,14.7l-0.6,0v-0.1h0.6V14.7z"/>
		<path class="st36" d="M49.7,16.3l-0.6,0v-0.1h0.6L49.7,16.3z"/>
		<path class="st36" d="M49.1,13.5l0.6,0v0.1L49.1,13.5L49.1,13.5z"/>
		<path class="st39" d="M49.1,15.2l0.6,0v0.1L49.1,15.2L49.1,15.2z"/>
		<path class="st38" d="M49.1,9.5l0.6,0v0.1L49.1,9.5L49.1,9.5z"/>
		<path class="st38" d="M49.1,11.1h0.6v0.1L49.1,11.1L49.1,11.1z"/>
		<path class="st36" d="M49.7,16.7l-0.6,0v-0.1h0.6L49.7,16.7z"/>
		<ellipse class="st40" cx="49.4" cy="14.3" rx="0.4" ry="0"/>
		<path class="st39" d="M49.1,16.9l0.6,0V17l-0.6,0L49.1,16.9z"/>
		<path class="st35" d="M50,14.7l0.5,0.1l0,0.1l-0.5-0.1L50,14.7z"/>
		<path class="st41" d="M49.1,14.8l0.6,0V15l-0.6,0V14.8z"/>
		<path class="st39" d="M49.7,12.6l-0.6,0v-0.1h0.6V12.6z"/>
		<path class="st40" d="M49.7,13l-0.6,0v-0.1h0.6V13z"/>
		<path class="st38" d="M49.7,13.4l-0.6,0v-0.1h0.6V13.4z"/>
		<path class="st36" d="M50,16.5l0.5,0.1l0,0.1l-0.5-0.1L50,16.5z"/>
		<path class="st39" d="M50,17.2l0.5,0.1v0.1L50,17.3V17.2z"/>
		<path class="st37" d="M50.4,10.3l-0.5-0.1l0-0.1L50.4,10.3L50.4,10.3z"/>
		<path class="st40" d="M49.1,15.5h0.6v0.1L49.1,15.5L49.1,15.5z"/>
		<path class="st39" d="M50,9.7l0.5,0.1l0,0.1L50,9.7L50,9.7z"/>
		<path class="st37" d="M49.1,10.1l0.6,0v0.1L49.1,10.1L49.1,10.1z"/>
		<path class="st40" d="M50,17.6l0.5,0.1l0,0.1L50,17.7L50,17.6z"/>
		<path class="st38" d="M46.8,16.3l-0.5,0v-0.1l0.5,0L46.8,16.3z"/>
		<path class="st38" d="M46.8,12.3l-0.5,0v-0.1h0.5L46.8,12.3z"/>
		<path class="st37" d="M46.8,10.9l-0.5,0v-0.1L46.8,10.9L46.8,10.9z"/>
		<path class="st39" d="M46.8,11.2h-0.5v-0.1L46.8,11.2L46.8,11.2z"/>
		<path class="st38" d="M46.8,10.2h-0.5v-0.1L46.8,10.2L46.8,10.2z"/>
		<path class="st36" d="M46.3,16.5l0.5,0v0.1l-0.5,0V16.5z"/>
		<path class="st40" d="M49.7,9.9l-0.6,0V9.8L49.7,9.9L49.7,9.9z"/>
		<path class="st36" d="M46.8,9.9l-0.5,0V9.8L46.8,9.9L46.8,9.9z"/>
		<path class="st37" d="M46.3,13.5l0.5,0v0.1L46.3,13.5L46.3,13.5z"/>
		<path class="st39" d="M46.3,11.4l0.5,0v0.1L46.3,11.4L46.3,11.4z"/>
		<path class="st36" d="M46.8,11.9h-0.5v-0.1L46.8,11.9L46.8,11.9z"/>
		<path class="st40" d="M50,15.1l0.5,0.1l0,0.1L50,15.1L50,15.1z"/>
		<path class="st38" d="M46.3,15.5h0.5v0.1L46.3,15.5L46.3,15.5z"/>
		<path class="st37" d="M50,10.8l0.5,0.1l0,0.1L50,10.8L50,10.8z"/>
		<path class="st34" d="M49.4,11.8h0.1l0.1,0l-0.6,0.1v-0.1h0.2L49.4,11.8z"/>
		<path class="st41" d="M50.4,15.6l-0.5-0.1l0-0.1L50.4,15.6L50.4,15.6z"/>
		<path class="st41" d="M46.8,10.6l-0.5,0v-0.1l0.5,0L46.8,10.6z"/>
		<path class="st40" d="M50,10.4l0.5,0.1v0.1L50,10.6V10.4z"/>
		<path class="st34" d="M50,16.9l0.5,0.1l0,0.1L50,16.9L50,16.9z"/>
		<path class="st42" d="M49.2,16c0,0-0.1,0-0.1,0L49.2,16l0.5-0.1V16L49.2,16C49.3,16,49.2,16,49.2,16z"/>
		<path class="st40" d="M46.3,17.2h0.5v0.1L46.3,17.2L46.3,17.2z"/>
		<path class="st40" d="M50,9.4l0.5,0.1l0,0.1L50,9.4L50,9.4z"/>
		<path class="st41" d="M46.3,13.2l0.5,0v0.1L46.3,13.2L46.3,13.2z"/>
		<path class="st38" d="M50,11.2l0.5,0.1v0.1L50,11.3V11.2z"/>
		<path class="st41" d="M50.4,16.3L50,16.2l0-0.1L50.4,16.3L50.4,16.3z"/>
		<path class="st40" d="M50,11.5l0.5,0.1v0.1L50,11.6V11.5z"/>
		<path class="st40" d="M50,14.4l0.5,0.1l0,0.1L50,14.4L50,14.4z"/>
		<path class="st36" d="M47,12.1l0.4,0l0,0.1l-0.4,0.1L47,12.1z"/>
		<path class="st35" d="M48.4,10.1l0.4,0.1l0,0.1l-0.4,0L48.4,10.1z"/>
		<path class="st39" d="M46.8,14.3l-0.5,0v-0.1l0.5,0L46.8,14.3z"/>
		<path class="st36" d="M48.4,15.5l0.4,0.1v0.1l-0.4,0V15.5z"/>
		<path class="st34" d="M50.4,16l-0.5-0.1l0-0.1l0.5,0.1L50.4,16z"/>
		<path class="st40" d="M46.8,17.6l-0.5,0v-0.1L46.8,17.6L46.8,17.6z"/>
		<path class="st40" d="M46.8,9.6l-0.5,0V9.5L46.8,9.6L46.8,9.6z"/>
		<path class="st36" d="M47.5,11.9l-0.4,0v-0.1l0.4,0V11.9z"/>
		<path class="st39" d="M46.8,12.9h-0.5v-0.1L46.8,12.9L46.8,12.9z"/>
		<path class="st37" d="M48.4,14.2l0.4,0v0.1l-0.4,0V14.2z"/>
		<path class="st41" d="M46.3,14.5l0.5,0v0.1L46.3,14.5L46.3,14.5z"/>
		<path class="st39" d="M46.8,14.9h-0.5v-0.1L46.8,14.9L46.8,14.9z"/>
		<path class="st40" d="M46.3,15.9h0.5v0.1L46.3,15.9L46.3,15.9z"/>
		<path class="st36" d="M47.5,16.9l-0.4,0l0-0.1l0.4-0.1L47.5,16.9z"/>
		<path class="st34" d="M46.3,16.9h0.5v0.1L46.3,16.9L46.3,16.9z"/>
		<path class="st34" d="M50.4,13.5c-0.1,0-0.2,0-0.2,0c-0.1,0-0.1,0-0.2,0l0-0.1L50.4,13.5L50.4,13.5z"/>
		<path class="st41" d="M47.5,16.3l-0.4,0v-0.1l0.4,0V16.3z"/>
		<path class="st41" d="M47.5,17.3l-0.3,0l0-0.1l0.4,0V17.3z"/>
		<path class="st41" d="M47.1,15.2l0.4,0l0,0.1l-0.3,0L47.1,15.2z"/>
		<path class="st39" d="M48.8,9.6l-0.4,0l0-0.1L48.8,9.6L48.8,9.6z"/>
		<path class="st40" d="M48.8,9.9l-0.4,0l0-0.1L48.8,9.9L48.8,9.9z"/>
		<path class="st31" d="M50.4,13.2L50,13.1l0-0.1l0.5,0.1L50.4,13.2z"/>
		<path class="st34" d="M50,11.9l0.5,0.1l0,0.1L50,12V11.9z"/>
		<path class="st40" d="M47.1,11.1l0.4,0v0.1l-0.4,0.1V11.1z"/>
		<path class="st34" d="M48.4,15.8l0.3,0.1l0,0.1L48.4,15.8L48.4,15.8z"/>
		<path class="st41" d="M50,14l0.5,0.1l0,0.1L50,14.1L50,14z"/>
		<path class="st40" d="M50.4,13.9L50,13.8l0-0.1l0.5,0.1L50.4,13.9z"/>
		<path class="st37" d="M47.1,12.8l0.4,0l0,0.1L47.1,12.8L47.1,12.8z"/>
		<path class="st38" d="M48.8,17.4l-0.4,0l0-0.1L48.8,17.4L48.8,17.4z"/>
		<path class="st27" d="M49.4,11.5l0.2,0l0.1,0l0,0.1l-0.5,0c0,0,0,0-0.1,0l0,0c0,0,0,0,0,0h0.1L49.4,11.5z"/>
		<path class="st37" d="M47.5,14.3l-0.4,0v-0.1l0.4,0V14.3z"/>
		<path class="st41" d="M48.4,14.5l0.4,0v0.1L48.4,14.5L48.4,14.5z"/>
		<path class="st34" d="M50.4,12.8l-0.5-0.1l0-0.1L50.4,12.8L50.4,12.8z"/>
		<path class="st34" d="M50.4,12.4L50,12.3l0-0.1L50.4,12.4L50.4,12.4z"/>
		<path class="st41" d="M47.1,14.8l0.4,0v0.1L47.1,14.8L47.1,14.8z"/>
		<path class="st39" d="M48.8,15.3l-0.4,0v-0.1l0.4,0V15.3z"/>
		<path class="st40" d="M46.5,15.2l0.3,0v0.1l-0.5,0l0-0.1H46.5z"/>
		<path class="st36" d="M47.1,14.6l0.4-0.1l0,0.1L47.1,14.6L47.1,14.6z"/>
		<path class="st40" d="M47.1,13.2l0.4,0l0,0.1L47.1,13.2L47.1,13.2z"/>
		<path class="st39" d="M48.4,16.9l0.4,0V17L48.4,16.9L48.4,16.9z"/>
		<path class="st34" d="M48.4,17.5l0.4,0l0,0.1L48.4,17.5L48.4,17.5z"/>
		<path class="st38" d="M48.4,10.8l0.3,0l0,0.1L48.4,10.8L48.4,10.8z"/>
		<path class="st39" d="M48.8,12.9l-0.4,0l0-0.1L48.8,12.9L48.8,12.9z"/>
		<path class="st39" d="M47.1,13.5l0.4,0v0.1L47.1,13.5L47.1,13.5z"/>
		<path class="st41" d="M47.5,12.5l-0.3,0.1l0-0.1L47.5,12.5L47.5,12.5z"/>
		<path class="st41" d="M47.1,10.1l0.4,0l0,0.1L47.1,10.1L47.1,10.1z"/>
		<path class="st41" d="M48.1,17.3l-0.3,0l0-0.1l0.3,0L48.1,17.3z"/>
		<path class="st40" d="M49.3,10.8h0.4v0.1L49.3,10.8L49.3,10.8z"/>
		<path class="st40" d="M48.4,14.8l0.3,0l0,0.1L48.4,14.8L48.4,14.8z"/>
		<path class="st36" d="M46.6,12.5l-0.3,0v-0.1h0.4v0.1L46.6,12.5z"/>
		<path class="st41" d="M48.4,12.4l0.3,0.1l0,0.1l-0.3,0L48.4,12.4z"/>
		<path class="st40" d="M48.4,12.1l0.4,0v0.1l-0.3,0L48.4,12.1z"/>
		<path class="st40" d="M47.8,11.7l0.3,0.1l0,0.1l-0.3,0L47.8,11.7z"/>
		<path class="st40" d="M48.8,11.2l-0.4,0l0-0.1L48.8,11.2L48.8,11.2z"/>
		<path class="st41" d="M48.1,15.3l-0.3,0l0-0.1L48.1,15.3L48.1,15.3z"/>
		<path class="st34" d="M47.5,17.6l-0.3,0l0-0.1l0.4,0V17.6z"/>
		<path class="st39" d="M47.1,11.5l0.4,0v0.1l-0.3,0.1L47.1,11.5z"/>
		<path class="st37" d="M47.8,11.1l0.3,0l0,0.1L47.8,11.1L47.8,11.1z"/>
		<path class="st37" d="M47.8,13.8l0.3,0l0,0.1L47.8,13.8L47.8,13.8z"/>
		<path class="st40" d="M48.4,10.4l0.3,0v0.1L48.4,10.4L48.4,10.4z"/>
		<path class="st41" d="M47.8,14.8l0.3,0l0,0.1l-0.3,0L47.8,14.8z"/>
		<path class="st40" d="M48.8,13.7l-0.4,0l0-0.1L48.8,13.7L48.8,13.7z"/>
		<path class="st41" d="M48.1,16.3l-0.3,0l0-0.1L48.1,16.3L48.1,16.3z"/>
		<path class="st39" d="M48.4,16.2l0.4,0l0,0.1L48.4,16.2L48.4,16.2z"/>
		<path class="st40" d="M47.5,9.8l-0.3,0l0-0.1L47.5,9.8L47.5,9.8z"/>
		<path class="st37" d="M47.5,10.9l-0.4,0v-0.1l0.4,0V10.9z"/>
		<path class="st34" d="M47.1,16.5l0.3,0v0.1l-0.3,0V16.5z"/>
		<path class="st38" d="M48,14.6l-0.3,0l0-0.1l0.3,0L48,14.6z"/>
		<path class="st38" d="M48.1,12.9l-0.3,0v-0.1L48.1,12.9L48.1,12.9z"/>
		<path class="st38" d="M48.4,11.8l0.3,0l0,0.1L48.4,11.8L48.4,11.8z"/>
		<path class="st41" d="M48.4,16.5l0.3,0l0,0.1l-0.3,0L48.4,16.5z"/>
		<path class="st39" d="M47.8,13.5l0.3,0l0,0.1L47.8,13.5L47.8,13.5z"/>
		<path class="st41" d="M48.8,11.6l-0.4-0.1l0-0.1l0.4,0L48.8,11.6z"/>
		<path class="st37" d="M47.8,14.1l0.3,0l0,0.1l-0.3,0L47.8,14.1z"/>
		<path class="st38" d="M47.8,11.4l0.3,0.1l0,0.1l-0.3,0L47.8,11.4z"/>
		<path class="st41" d="M48.4,13.2l0.3,0l0,0.1l-0.3,0L48.4,13.2z"/>
		<path class="st40" d="M48.1,13.3l-0.3,0l0-0.1l0.3,0L48.1,13.3z"/>
		<path class="st39" d="M47.8,12.1l0.3,0l0,0.1L47.8,12.1L47.8,12.1z"/>
		<path class="st34" d="M47.8,16.6l0.2-0.1l0,0.1l-0.1,0H47.8z"/>
		<path class="st34" d="M49.2,17.6l-0.2,0l0-0.1l0.3,0.1H49.2z"/>
		<path class="st37" d="M48.1,12.6l-0.3,0l0-0.1l0.3,0L48.1,12.6z"/>
		<path class="st34" d="M47.1,9.5l0.3,0l0,0.1L47.1,9.5L47.1,9.5z"/>
		<path class="st39" d="M47.5,15.6l-0.3,0l0-0.1l0.3-0.1L47.5,15.6z"/>
		<path class="st42" d="M46.7,14C46.7,14,46.7,14,46.7,14h-0.2l-0.2,0c0,0,0,0-0.1,0l0,0v-0.1h0.4L46.7,14z"/>
		<path class="st34" d="M47.2,14l-0.1,0v-0.1l0.3,0l0,0.1L47.2,14L47.2,14z"/>
		<path class="st39" d="M48.1,10.5l-0.3,0l0-0.1L48.1,10.5L48.1,10.5z"/>
		<path class="st39" d="M47.1,15.9l0.3,0l0,0.1L47.1,15.9L47.1,15.9z"/>
		<path class="st39" d="M49.4,10.6l-0.3,0v-0.1L49.4,10.6L49.4,10.6z"/>
		<path class="st34" d="M48.1,10.2l-0.3,0l0-0.1L48.1,10.2L48.1,10.2z"/>
		<path class="st39" d="M47.8,9.4l0.3,0l0,0.1L47.8,9.4L47.8,9.4z"/>
		<path class="st39" d="M48.1,9.9l-0.3,0l0-0.1l0.3,0V9.9z"/>
		<path class="st40" d="M48.1,15.6l-0.3,0l0-0.1L48.1,15.6L48.1,15.6z"/>
		<path class="st34" d="M48.1,17.6l-0.3,0l0-0.1L48.1,17.6L48.1,17.6z"/>
		<path class="st34" d="M48.1,16l-0.3,0l0-0.1L48.1,16L48.1,16z"/>
		<path class="st31" d="M47.8,10.8l0.3,0v0.1L47.8,10.8L47.8,10.8z"/>
		<path class="st37" d="M49.7,17.6h-0.3v-0.1L49.7,17.6L49.7,17.6z"/>
		<path class="st42" d="M47.3,10.4l0.1,0v0l-0.3,0l0,0l0.1,0L47.3,10.4z"/>
		<path class="st38" d="M48.6,14l-0.2,0v-0.1h0.2V14z"/>
		<path class="st43" d="M49.6,10.5L49.6,10.5l-0.2,0.1l0-0.1H49.6z"/>
		<path class="st37" d="M48.8,14L48.8,14l-0.2,0v-0.1L48.8,14z"/>
		<path class="st31" d="M49.1,10.9L49.1,10.9l0.2,0l0,0.1L49.1,10.9z"/>
		<path class="st35" d="M48,16.9L48,16.9l-0.2,0L48,16.9z"/>
		<path class="st43" d="M48,16.9l-0.2,0L48,16.9z"/>
		<path class="st39" d="M49.8,10.5l-0.1,0.1l-0.1-0.1H49.8z"/>
		<path class="st43" d="M46.5,15.2h-0.2H46.5z"/>
		<path class="st27" d="M46.6,12.5h0.2H46.6z"/>
		<path class="st37" d="M49.4,11.5C49.4,11.5,49.4,11.5,49.4,11.5c0,0-0.1,0-0.2,0H49.4z"/>
		<path class="st44" d="M49.6,11.5c0,0-0.1,0-0.2,0c0,0,0,0,0,0H49.6z"/>
		<path class="st44" d="M49.4,11.8l-0.1,0L49.4,11.8z"/>
		<path class="st44" d="M47.8,16.6l0.1,0L47.8,16.6z"/>
		<path class="st44" d="M49.7,11.8l-0.1,0L49.7,11.8z"/>
		<path class="st35" d="M46.6,14h0.1H46.6z"/>
		<path class="st37" d="M49.2,17.6h0.1H49.2z"/>
		<path class="st35" d="M46.7,14L46.7,14L46.7,14z"/>
		<path class="st45" d="M47.3,10.4l-0.1,0L47.3,10.4z"/>
		<path class="st35" d="M47.2,14L47.2,14L47.2,14z"/>
		<path class="st35" d="M46.3,13.9L46.3,13.9L46.3,13.9L46.3,13.9z"/>
		<path class="st37" d="M49.1,11.5C49.1,11.6,49.1,11.6,49.1,11.5C49.2,11.6,49.1,11.6,49.1,11.5z"/>
		<path class="st37" d="M49.1,11.5C49.1,11.5,49.1,11.5,49.1,11.5L49.1,11.5z"/>
		<path class="st35" d="M46.3,13.9C46.3,14,46.4,14,46.3,13.9C46.4,14,46.3,13.9,46.3,13.9z"/>
		<path class="st41" d="M49.2,16C49.2,16,49.3,16,49.2,16C49.3,16,49.2,16,49.2,16z"/>
		<path class="st36" d="M52.4,12.2H53v0.1l-0.6,0V12.2z"/>
		<path class="st36" d="M52.4,16.2h0.6v0.1L52.4,16.2L52.4,16.2z"/>
		<path class="st38" d="M52.4,11.5H53v0.1L52.4,11.5L52.4,11.5z"/>
		<path class="st36" d="M53.1,11.2h-0.6v-0.1L53.1,11.2L53.1,11.2z"/>
		<path class="st37" d="M52.4,13.6h0.6v0.1L52.4,13.6L52.4,13.6z"/>
		<path class="st37" d="M53.1,17h-0.7v-0.1L53.1,17L53.1,17z"/>
		<path class="st38" d="M52.4,14.6h0.6v0.1l-0.6,0V14.6z"/>
		<path class="st38" d="M53.1,15.3h-0.6v-0.1L53.1,15.3L53.1,15.3z"/>
		<path class="st37" d="M52.4,14.2h0.6v0.1L52.4,14.2L52.4,14.2z"/>
		<ellipse class="st38" cx="52.7" cy="9.5" rx="0.5" ry="0"/>
		<path class="st39" d="M52.4,17.2h0.7C52.8,17.4,52.5,17.4,52.4,17.2z"/>
		<path class="st37" d="M53,14h-0.6v-0.1L53,14L53,14z"/>
		<path class="st40" d="M53.1,12.5h-0.6v-0.1L53.1,12.5L53.1,12.5z"/>
		<path class="st37" d="M53.1,13.3h-0.6C52.6,13.2,52.8,13.2,53.1,13.3C53,13.2,53,13.2,53.1,13.3L53.1,13.3z"/>
		<path class="st38" d="M52.4,14.8h0.6v0.1l-0.6,0V14.8z"/>
		<path class="st40" d="M53,12.9l-0.6,0v-0.1L53,12.9L53,12.9z"/>
		<path class="st41" d="M53,11.9h-0.6v-0.1L53,11.9L53,11.9z"/>
		<path class="st37" d="M52.4,15.9h0.6V16l-0.6,0V15.9z"/>
		<path class="st35" d="M52.2,14.8l-0.5,0.1l0-0.1L52.2,14.8L52.2,14.8z"/>
		<path class="st37" d="M53,17.6h-0.6v-0.1L53,17.6L53,17.6z"/>
		<path class="st38" d="M52.2,16.6l-0.5,0.1l0-0.1l0.5-0.1L52.2,16.6z"/>
		<path class="st41" d="M53,15.6h-0.6v-0.1L53,15.6L53,15.6z"/>
		<path class="st41" d="M52.2,16.2l-0.5,0.1l0-0.1L52.2,16.2L52.2,16.2z"/>
		<path class="st40" d="M52.2,17.3l-0.5,0.1v-0.1l0.5-0.1L52.2,17.3z"/>
		<path class="st37" d="M52.2,10.2l-0.5,0.1v-0.1l0.5-0.1L52.2,10.2z"/>
		<path class="st34" d="M52.4,10.5h0.6v0.1L52.4,10.5L52.4,10.5z"/>
		<path class="st40" d="M52.2,14.5l-0.5,0.1l0-0.1l0.5-0.1L52.2,14.5z"/>
		<path class="st41" d="M52.2,17.7l-0.5,0.1v-0.1l0.5-0.1V17.7z"/>
		<path class="st38" d="M51.7,15.9l0.5-0.1l0,0.1L51.7,15.9L51.7,15.9z"/>
		<path class="st41" d="M51.7,15.1l0.5-0.1l0,0.1L51.7,15.1L51.7,15.1z"/>
		<path class="st34" d="M52.2,17l-0.5,0.1V17l0.5-0.1V17z"/>
		<path class="st39" d="M52.2,9.9l-0.5,0.1l0-0.1l0.5-0.1L52.2,9.9z"/>
		<path class="st39" d="M51.7,10.6l0.5-0.1l0,0.1H51.7L51.7,10.6z"/>
		<path class="st37" d="M51.7,10.9l0.5-0.1l0,0.1L51.7,10.9L51.7,10.9z"/>
		<path class="st38" d="M51.7,15.5l0.5-0.1l0,0.1l-0.5,0.1L51.7,15.5z"/>
		<path class="st41" d="M52.2,9.5l-0.5,0.1l0-0.1l0.5-0.1L52.2,9.5z"/>
		<path class="st41" d="M52.2,14.1l-0.5,0.1v-0.1l0.5-0.1V14.1z"/>
		<path class="st42" d="M52.8,16.5l0.2,0v0.1h-0.6l0,0l0,0c0,0,0.1,0,0.1,0c0.1,0,0.1,0,0.2,0L52.8,16.5z"/>
		<path class="st36" d="M54.7,12.1l0.4,0.1l0,0.1L54.7,12.1L54.7,12.1z"/>
		<path class="st36" d="M54.7,17.1l0.4,0.1l0,0.1l-0.4-0.1L54.7,17.1z"/>
		<path class="st40" d="M53.7,15.6l-0.4,0v-0.1l0.4,0V15.6z"/>
		<path class="st35" d="M54.7,11.7l0.4,0.1l0,0.1l-0.4-0.1L54.7,11.7z"/>
		<path class="st36" d="M55,14.3l-0.4-0.1l0-0.1l0.4,0.1L55,14.3z"/>
		<path class="st35" d="M53.7,9.9l-0.4,0V9.8L53.7,9.9L53.7,9.9z"/>
		<path class="st35" d="M53.7,10.2l-0.4,0v-0.1l0.4,0V10.2z"/>
		<path class="st41" d="M52.2,13.8l-0.5,0.1v-0.1L52.2,13.8L52.2,13.8z"/>
		<path class="st41" d="M51.7,11.3l0.5-0.1l0,0.1H51.7L51.7,11.3z"/>
		<path class="st40" d="M52.2,11.6l-0.5,0.1v-0.1L52.2,11.6L52.2,11.6z"/>
		<path class="st31" d="M51.7,13l0.5-0.1l0,0.1L51.7,13L51.7,13z"/>
		<path class="st34" d="M51.7,13.4l0.5-0.1l0,0.1H51.7L51.7,13.4z"/>
		<path class="st35" d="M54.7,13.5l0.4,0.1l0,0.1l-0.4,0L54.7,13.5z"/>
		<path class="st36" d="M54.7,14.5l0.4,0v0.1L54.7,14.5L54.7,14.5z"/>
		<path class="st37" d="M55,15.3l-0.4,0l0-0.1L55,15.3L55,15.3z"/>
		<path class="st41" d="M55,16.3l-0.4-0.1l0-0.1l0.4,0L55,16.3z"/>
		<path class="st36" d="M54.7,16.8l0.4,0.1l0,0.1l-0.4,0V16.8z"/>
		<path class="st41" d="M53.7,12.6l-0.4,0v-0.1l0.4,0V12.6z"/>
		<path class="st39" d="M53.7,9.6l-0.4,0V9.5L53.7,9.6L53.7,9.6z"/>
		<path class="st34" d="M52.2,12l-0.5,0.1l0-0.1H52.2L52.2,12z"/>
		<path class="st38" d="M53.4,10.8l0.4,0v0.1l-0.4,0V10.8z"/>
		<path class="st34" d="M53.3,15.9l0.4,0v0.1l-0.3,0L53.3,15.9z"/>
		<path class="st40" d="M51.7,12.7l0.5-0.1l0,0.1L51.7,12.7L51.7,12.7z"/>
		<path class="st40" d="M54.7,11.1l0.4,0.1l0,0.1L54.7,11.1L54.7,11.1z"/>
		<path class="st41" d="M55,16.7l-0.4-0.1l0-0.1l0.4,0L55,16.7z"/>
		<path class="st39" d="M53.7,14.3h-0.4v-0.1L53.7,14.3L53.7,14.3z"/>
		<path class="st40" d="M53.3,10.5l0.3,0l0,0.1L53.3,10.5L53.3,10.5z"/>
		<path class="st40" d="M53.7,14.6l-0.4,0v-0.1L53.7,14.6L53.7,14.6z"/>
		<path class="st37" d="M54.7,12.8l0.4,0v0.1L54.7,12.8L54.7,12.8z"/>
		<path class="st36" d="M54.7,12.4l0.4,0.1l0,0.1l-0.4,0L54.7,12.4z"/>
		<path class="st37" d="M54.7,14.8l0.4,0.1l0,0.1l-0.4,0L54.7,14.8z"/>
		<path class="st41" d="M53.7,17.3l-0.4,0l0-0.1L53.7,17.3L53.7,17.3z"/>
		<path class="st40" d="M51.7,12.3l0.5-0.1l0,0.1L51.7,12.3L51.7,12.3z"/>
		<path class="st34" d="M53.7,15.3l-0.4,0v-0.1l0.4,0L53.7,15.3z"/>
		<path class="st39" d="M54.7,13.1l0.4,0.1l0,0.1l-0.4,0L54.7,13.1z"/>
		<path class="st40" d="M55,10.3l-0.4-0.1l0-0.1l0.4,0L55,10.3z"/>
		<path class="st34" d="M53.7,17.6l-0.3,0v-0.1L53.7,17.6L53.7,17.6z"/>
		<path class="st41" d="M53.7,14.9l-0.4,0v-0.1L53.7,14.9L53.7,14.9z"/>
		<path class="st37" d="M54,11.1l0.3,0v0.1l-0.3,0V11.1z"/>
		<path class="st40" d="M53.7,17l-0.4,0v-0.1l0.4,0V17z"/>
		<path class="st41" d="M53.4,16.6l0.4,0v0.1L53.4,16.6L53.4,16.6z"/>
		<path class="st41" d="M54.3,15.3l-0.3,0v-0.1l0.3,0V15.3z"/>
		<path class="st34" d="M53.4,12.2l0.3,0v0.1l-0.3,0V12.2z"/>
		<path class="st39" d="M54.7,11.4l0.4,0v0.1l-0.3,0L54.7,11.4z"/>
		<path class="st37" d="M54,13.9l0.3,0v0.1L54,14L54,13.9z"/>
		<path class="st40" d="M52.9,10.9h-0.4v-0.1L52.9,10.9L52.9,10.9z"/>
		<path class="st38" d="M55,10.9l-0.4-0.1l0-0.1l0.4,0L55,10.9z"/>
		<path class="st40" d="M54.7,9.4l0.4,0l0,0.1L54.7,9.4L54.7,9.4z"/>
		<path class="st37" d="M54.7,10.4l0.4,0.1l0,0.1L54.7,10.4L54.7,10.4z"/>
		<path class="st41" d="M55,9.9l-0.4-0.1V9.7L55,9.9L55,9.9z"/>
		<path class="st40" d="M53.3,13.5l0.4,0v0.1l-0.3,0L53.3,13.5z"/>
		<path class="st41" d="M54,16.2l0.3,0v0.1l-0.3,0V16.2z"/>
		<path class="st40" d="M52.8,9.9c-0.1,0-0.3,0-0.4,0V9.8L52.8,9.9L52.8,9.9z"/>
		<path class="st38" d="M54.3,14.3l-0.3,0l0-0.1l0.3,0L54.3,14.3z"/>
		<path class="st41" d="M53.7,11.9l-0.3,0v-0.1l0.3,0V11.9z"/>
		<path class="st40" d="M53.3,11.1l0.4,0v0.1l-0.3,0L53.3,11.1z"/>
		<path class="st37" d="M54.3,14.6l-0.3,0v-0.1L54.3,14.6L54.3,14.6z"/>
		<path class="st39" d="M54,12.8l0.3,0v0.1L54,12.8L54,12.8z"/>
		<path class="st39" d="M53.4,13.2l0.3,0v0.1L53.4,13.2L53.4,13.2z"/>
		<path class="st38" d="M54.3,14.9l-0.3,0v-0.1L54.3,14.9L54.3,14.9z"/>
		<path class="st39" d="M53.4,12.9l0.3,0v0.1L53.4,12.9L53.4,12.9z"/>
		<path class="st41" d="M53.7,11.6l-0.4,0l0-0.1L53.7,11.6L53.7,11.6z"/>
		<path class="st40" d="M53.4,16.2l0.4,0v0.1l-0.4,0V16.2z"/>
		<path class="st34" d="M55,17.6l-0.4,0l0-0.1L55,17.6L55,17.6z"/>
		<path class="st39" d="M54,13.5l0.3,0v0.1l-0.3,0L54,13.5z"/>
		<path class="st37" d="M54.3,16.6l-0.3,0v-0.1l0.3,0V16.6z"/>
		<path class="st38" d="M54,11.5l0.3,0l0,0.1L54,11.5L54,11.5z"/>
		<path class="st37" d="M54.3,12.5l-0.3,0v-0.1L54.3,12.5L54.3,12.5z"/>
		<path class="st40" d="M52.8,10.3c-0.1,0-0.2,0-0.4,0v-0.1L52.8,10.3L52.8,10.3z"/>
		<path class="st42" d="M54.7,13.9L54.7,13.9l0.3-0.1l0,0.1L54.7,13.9L54.7,13.9z"/>
		<path class="st40" d="M54.3,13.3l-0.3,0v-0.1L54.3,13.3L54.3,13.3z"/>
		<path class="st40" d="M54.3,17.6H54v-0.1L54.3,17.6L54.3,17.6z"/>
		<path class="st39" d="M54.1,12.2l-0.1,0l0-0.1l0.3,0.1L54.1,12.2z"/>
		<path class="st40" d="M54.7,15.5l0.4,0l0,0.1L54.7,15.5L54.7,15.5z"/>
		<path class="st41" d="M54.3,10.5l-0.3,0v-0.1l0.3,0L54.3,10.5z"/>
		<path class="st38" d="M53.4,14l0.3-0.1V14h-0.2L53.4,14z"/>
		<path class="st39" d="M55,16l-0.3,0l0-0.1L55,16L55,16z"/>
		<path class="st34" d="M54.3,15.9L54,16l0-0.1l0.3,0L54.3,15.9z"/>
		<path class="st34" d="M54.1,11.9L54.1,11.9L54,11.7l0.3,0.1L54.1,11.9z"/>
		<path class="st39" d="M54,9.4l0.3,0v0.1L54,9.4L54,9.4z"/>
		<path class="st39" d="M54.3,9.8l-0.3,0V9.7L54.3,9.8L54.3,9.8z"/>
		<path class="st40" d="M54.3,15.6l-0.3,0v-0.1l0.3,0V15.6z"/>
		<path class="st34" d="M54.3,10.2l-0.3,0v-0.1l0.3,0L54.3,10.2z"/>
		<path class="st31" d="M54,10.8l0.3,0v0.1L54,10.8L54,10.8z"/>
		<path class="st35" d="M54.3,16.9l-0.3,0l0-0.1L54.3,16.9z"/>
		<path class="st42" d="M53.1,10.1L53.1,10.1c-0.1,0.1-0.2,0.1-0.3,0.1l0-0.1L53.1,10.1z"/>
		<path class="st45" d="M54.2,17.3c0,0-0.1,0-0.2,0l0-0.1L54.2,17.3z"/>
		<path class="st43" d="M54.3,17.2L54.3,17.2L54.3,17.2l-0.2,0L54.3,17.2z"/>
		<path class="st42" d="M53.1,9.8L53.1,9.8c-0.1,0.1-0.1,0.1-0.2,0.1V9.8C52.8,9.8,53.1,9.8,53.1,9.8z"/>
		<path class="st43" d="M54.3,16.9l-0.2,0L54.3,16.9z"/>
		<path class="st34" d="M53.4,13.9l0.1,0L53.4,13.9z"/>
		<path class="st44" d="M54.1,12.2l0.2,0L54.1,12.2z"/>
		<path class="st44" d="M54.1,11.9l0.2,0L54.1,11.9z"/>
		<path class="st34" d="M53,10.9h-0.1v-0.1L53,10.9L53,10.9z"/>
		<path class="st45" d="M52.8,16.6l-0.1,0L52.8,16.6z"/>
		<path class="st35" d="M54.7,13.9L54.7,13.9L54.7,13.9z"/>
		<path class="st45" d="M52.4,16.6L52.4,16.6L52.4,16.6z"/>
		<path class="st45" d="M52.5,16.6C52.5,16.6,52.4,16.6,52.5,16.6C52.4,16.6,52.5,16.6,52.5,16.6z"/>
		<path class="st28" d="M51.1,19c2,0.1,4.1,0.1,6.1,0.2c0-0.1,0-0.3,0-0.4c0-3.1,0-6.3,0-9.4h-0.2H57c0-0.2,0-0.3,0-0.5
			c0,0,0.1,0,0.1,0c0,0.1,0,0.3,0,0.4c0.1,0,0.2,0,0.2,0c0,3.3,0,6.7,0,10c-2.1-0.1-4.1-0.1-6.2-0.2c0,0,0,0-0.1,0
			C51.2,19,51.1,19,51.1,19z"/>
		<path class="st28" d="M57,9c-0.1,0-0.1,0-0.2,0c0,0.1,0,0.3,0,0.4c0,3,0,4.7,0,9c0,0.1,0,0.2,0,0.3c-1.9,0-3.8-0.1-5.7-0.1
			c0,0,0,0,0-0.1c1.9,0,3.7,0.1,5.6,0.1V8.7c-0.1,0-0.2,0-0.2,0c0-0.1,0-0.1,0-0.2c0-0.1,0-0.2,0-0.3c0,0,0.1,0,0.1,0
			c0,0.1,0,0.2,0,0.3c0.1,0,0.1,0,0.2,0c0,0.1,0,0.1,0,0.2c0.1,0,0.1,0,0.2,0C57,8.9,57,8.9,57,9z"/>
		<path class="st27" d="M51.1,18.8c2,0,3.9,0.1,5.9,0.1c0-3.2,0-6.4,0-9.5c0,0,0.1,0,0.1,0c0,3.2,0,6.4,0,9.6c-2,0-4-0.1-6-0.1
			C51.1,18.8,51.1,18.8,51.1,18.8z"/>
		<path class="st27" d="M51.1,18.4c0-0.1,0-0.1,0-0.2c1.8,0,3.6,0,5.4,0c0,0.1,0,0.1,0,0.2C54.8,18.5,52.9,18.4,51.1,18.4z"/>
		<path class="st35" d="M55.3,13.2h0.5v0.1L55.3,13.2L55.3,13.2z"/>
		<path class="st41" d="M55.9,11.2h-0.5v-0.1L55.9,11.2L55.9,11.2z"/>
		<path class="st38" d="M55.8,10.5l-0.5,0v-0.1l0.5,0V10.5z"/>
		<path class="st36" d="M55.8,16.6h-0.5v-0.1L55.8,16.6L55.8,16.6z"/>
		<path class="st38" d="M55.4,10.1h0.5v0.1L55.4,10.1L55.4,10.1z"/>
		<path class="st38" d="M55.3,12.1h0.5v0.1l-0.5,0V12.1z"/>
		<path class="st36" d="M55.3,16.2h0.5v0.1L55.3,16.2L55.3,16.2z"/>
		<ellipse class="st37" cx="55.6" cy="11.5" rx="0.3" ry="0"/>
		<path class="st36" d="M55.3,11.8h0.5v0.1L55.3,11.8L55.3,11.8z"/>
		<path class="st36" d="M55.8,9.8h-0.5V9.8L55.8,9.8L55.8,9.8z"/>
		<path class="st38" d="M55.9,15.6h-0.5v-0.1L55.9,15.6L55.9,15.6z"/>
		<path class="st38" d="M55.8,13.6h-0.5v-0.1L55.8,13.6L55.8,13.6z"/>
		<path class="st40" d="M55.4,9.5h0.5v0.1L55.4,9.5L55.4,9.5z"/>
		<path class="st40" d="M55.3,17.2h0.5v0L55.3,17.2L55.3,17.2z"/>
		<path class="st37" d="M55.8,10.9h-0.5v-0.1L55.8,10.9L55.8,10.9z"/>
		<path class="st39" d="M55.4,17.5h0.5v0.1L55.4,17.5L55.4,17.5z"/>
		<path class="st34" d="M55.8,16.9h-0.5v-0.1L55.8,16.9L55.8,16.9z"/>
		<path class="st31" d="M55.8,12.9h-0.5v-0.1L55.8,12.9L55.8,12.9z"/>
		<path class="st38" d="M55.4,12.5h0.5v0.1L55.4,12.5L55.4,12.5z"/>
		<path class="st39" d="M55.4,14.2h0.5v0.1L55.4,14.2L55.4,14.2z"/>
		<ellipse class="st41" cx="55.6" cy="14.6" rx="0.3" ry="0"/>
		<path class="st39" d="M55.3,14.8h0.5v0.1L55.3,14.8L55.3,14.8z"/>
		<path class="st34" d="M55.3,15.2h0.5v0.1L55.3,15.2L55.3,15.2z"/>
		<path class="st40" d="M55.4,15.9h0.5v0.1L55.4,15.9L55.4,15.9z"/>
		<path class="st35" d="M55.4,13.9h0.1l0.2,0.1c-0.1,0-0.2,0-0.4,0C55.4,14,55.4,13.9,55.4,13.9L55.4,13.9z"/>
		<path class="st27" d="M55.8,13.9C55.8,13.9,55.8,13.9,55.8,13.9L55.8,13.9h-0.2H55.8z"/>
	</g>
	<path class="st46" d="M51.1,19c2.1,0,4.2,0.1,6.3,0.1c0-0.1,0-0.2,0-0.3"/>
	<path class="st5" d="M44.7,10.5"/>
	<line class="st47" x1="47.1" y1="5.6" x2="47.1" y2="5.6"/>
	<path class="st5" d="M51.9,27.7"/>
</g>
</svg>
