<svg id="a415dda4-9ec2-4025-a741-a20d47b36a56" data-name="Layer 1" xmlns="http://www.w3.org/2000/svg" xmlns:xlink="http://www.w3.org/1999/xlink" viewBox="0 0 26.29787 25.84247"><defs><style>.a52f4729-7fee-4760-9154-318d9297517d,.b128888a-96f3-4744-aca6-967ccc84ec1a,.e47482df-327e-40a0-a58a-7f99de2b3fa4,.f6b3a276-b7f0-413e-8c80-fa28c8f574b1{fill:none;}.a52f4729-7fee-4760-9154-318d9297517d,.b128888a-96f3-4744-aca6-967ccc84ec1a,.f6b3a276-b7f0-413e-8c80-fa28c8f574b1{stroke:#fff;stroke-miterlimit:10;}.f6b3a276-b7f0-413e-8c80-fa28c8f574b1{stroke-width:0.70802px;}.e037049f-0148-477a-844f-50aa5092f2cd{clip-path:url(#ae3d881a-d4dd-46b2-86b6-8a1a91d3ef13);}.baf0b183-6532-4c96-afc4-d5642fdc8fdb{clip-path:url(#ea1414e1-2df8-41cf-b14f-39cba29bd00c);}.a52f4729-7fee-4760-9154-318d9297517d{stroke-width:0.41323px;}.b128888a-96f3-4744-aca6-967ccc84ec1a{stroke-width:0.20662px;}.b60ced43-f2c2-4264-9312-d62aef25c027{clip-path:url(#b96415b1-3e20-427e-a232-891ec33d63cd);}</style><clipPath id="ae3d881a-d4dd-46b2-86b6-8a1a91d3ef13"><rect class="e47482df-327e-40a0-a58a-7f99de2b3fa4" x="8.8392" y="-2.59393" width="13.18823" height="30.9132" transform="translate(35.44159 11.04496) rotate(135)"/></clipPath><clipPath id="ea1414e1-2df8-41cf-b14f-39cba29bd00c"><path class="f6b3a276-b7f0-413e-8c80-fa28c8f574b1" d="M6.3166.55983C7.94086,2.0669,7.40181,4.18919,7.66809,8.6018A10.05764,10.05764,0,0,0,13.90153,15.229c2.78644.93547,5.76158.68288,8.565,1.56644a3.7969,3.7969,0,0,1,1.85628,1.0952c.77928.95376.67215,2.32272.60669,3.55262a5.16909,5.16909,0,0,0,.3348,2.49158c.15905.331.92126.90682.6376,1.26094-.14813.18492-.94334.20184-1.15142.22629A6.57249,6.57249,0,0,1,19.682,24.04179a9.04023,9.04023,0,0,1-2.688-5.46533c-1.54922-9.00083,1.47456-10.5296-.5697-11.53239-1.40038-.6869-3.59964-.06676-5.05366.12181-1.674.21709-3.988.75051-5.59949-.00067-1.29087-.60178-2.889-2.06295-2.93631-3.59865"/></clipPath><clipPath id="b96415b1-3e20-427e-a232-891ec33d63cd"><path class="f6b3a276-b7f0-413e-8c80-fa28c8f574b1" d="M6.7573.30579c1.62427,1.50707,1.08521,3.62936,1.35149,8.042A10.05769,10.05769,0,0,0,14.34224,14.975c2.78644.93547,5.76158.68288,8.565,1.56643a3.79692,3.79692,0,0,1,1.85628,1.09521c.77928.95376.67215,2.32271.60668,3.55261a5.16926,5.16926,0,0,0,.33481,2.49159c.15905.331.92125.90681.63759,1.26093-.14812.18492-.94333.20185-1.15142.2263a6.57253,6.57253,0,0,1-5.06846-1.38032,9.0402,9.0402,0,0,1-2.688-5.46532C15.88546,9.32159,18.90924,7.79282,16.865,6.79c-1.40038-.6869-3.59964-.06677-5.05366.1218-1.674.2171-3.988.75051-5.5995-.00067C4.921,6.3094,3.32284,4.84822,3.27552,3.31253"/></clipPath></defs><title>Artboard 111</title><g class="e037049f-0148-477a-844f-50aa5092f2cd"><g class="baf0b183-6532-4c96-afc4-d5642fdc8fdb"><line class="a52f4729-7fee-4760-9154-318d9297517d" x1="32.79048" y1="17.63006" x2="20.05164" y2="31.64366"/><line class="b128888a-96f3-4744-aca6-967ccc84ec1a" x1="31.92371" y1="16.84214" x2="19.18488" y2="30.85574"/><line class="b128888a-96f3-4744-aca6-967ccc84ec1a" x1="31.05695" y1="16.05422" x2="18.31811" y2="30.06782"/><line class="b128888a-96f3-4744-aca6-967ccc84ec1a" x1="30.19019" y1="15.26631" x2="17.45135" y2="29.2799"/><line class="b128888a-96f3-4744-aca6-967ccc84ec1a" x1="27.5899" y1="12.90255" x2="14.85106" y2="26.91615"/><line class="b128888a-96f3-4744-aca6-967ccc84ec1a" x1="26.72313" y1="12.11464" x2="13.9843" y2="26.12823"/><line class="b128888a-96f3-4744-aca6-967ccc84ec1a" x1="24.12284" y1="9.75088" x2="11.38401" y2="23.76448"/><line class="b128888a-96f3-4744-aca6-967ccc84ec1a" x1="23.25608" y1="8.96297" x2="10.51724" y2="22.97657"/><line class="b128888a-96f3-4744-aca6-967ccc84ec1a" x1="25.85637" y1="11.32672" x2="13.11753" y2="25.34032"/><line class="b128888a-96f3-4744-aca6-967ccc84ec1a" x1="24.98961" y1="10.5388" x2="12.25077" y2="24.5524"/><line class="b128888a-96f3-4744-aca6-967ccc84ec1a" x1="29.32342" y1="14.47839" x2="16.58459" y2="28.49199"/><line class="b128888a-96f3-4744-aca6-967ccc84ec1a" x1="28.45666" y1="13.69047" x2="15.71782" y2="27.70407"/><line class="b128888a-96f3-4744-aca6-967ccc84ec1a" x1="22.38932" y1="8.17505" x2="9.65048" y2="22.18865"/><line class="b128888a-96f3-4744-aca6-967ccc84ec1a" x1="21.52255" y1="7.38713" x2="8.78372" y2="21.40073"/><line class="b128888a-96f3-4744-aca6-967ccc84ec1a" x1="20.65579" y1="6.59921" x2="7.91695" y2="20.61281"/><line class="b128888a-96f3-4744-aca6-967ccc84ec1a" x1="19.78902" y1="5.8113" x2="7.05019" y2="19.8249"/><line class="b128888a-96f3-4744-aca6-967ccc84ec1a" x1="17.18873" y1="3.44754" x2="4.4499" y2="17.46114"/><line class="b128888a-96f3-4744-aca6-967ccc84ec1a" x1="16.32197" y1="2.65963" x2="3.58313" y2="16.67323"/><line class="b128888a-96f3-4744-aca6-967ccc84ec1a" x1="13.72168" y1="0.29587" x2="0.98284" y2="14.30947"/><line class="b128888a-96f3-4744-aca6-967ccc84ec1a" x1="12.85492" y1="-0.49204" x2="0.11608" y2="13.52156"/><line class="b128888a-96f3-4744-aca6-967ccc84ec1a" x1="15.45521" y1="1.87171" x2="2.71637" y2="15.88531"/><line class="b128888a-96f3-4744-aca6-967ccc84ec1a" x1="14.58844" y1="1.08379" x2="1.84961" y2="15.09739"/><line class="b128888a-96f3-4744-aca6-967ccc84ec1a" x1="18.92226" y1="5.02338" x2="6.18342" y2="19.03698"/><line class="b128888a-96f3-4744-aca6-967ccc84ec1a" x1="18.0555" y1="4.23546" x2="5.31666" y2="18.24906"/><line class="b128888a-96f3-4744-aca6-967ccc84ec1a" x1="11.12139" y1="-2.06788" x2="-1.61745" y2="11.94572"/><line class="b128888a-96f3-4744-aca6-967ccc84ec1a" x1="10.25463" y1="-2.85579" x2="-2.48421" y2="11.1578"/><line class="b128888a-96f3-4744-aca6-967ccc84ec1a" x1="7.65434" y1="-5.21955" x2="-5.0845" y2="8.79405"/><line class="b128888a-96f3-4744-aca6-967ccc84ec1a" x1="6.78757" y1="-6.00746" x2="-5.95126" y2="8.00613"/><line class="b128888a-96f3-4744-aca6-967ccc84ec1a" x1="8.5211" y1="-4.43163" x2="-4.21774" y2="9.58197"/><line class="b128888a-96f3-4744-aca6-967ccc84ec1a" x1="11.98815" y1="-1.27996" x2="-0.75068" y2="12.73364"/></g><path class="f6b3a276-b7f0-413e-8c80-fa28c8f574b1" d="M6.3166.55983C7.94086,2.0669,7.40181,4.18919,7.66809,8.6018A10.05764,10.05764,0,0,0,13.90153,15.229c2.78644.93547,5.76158.68288,8.565,1.56644a3.7969,3.7969,0,0,1,1.85628,1.0952c.77928.95376.67215,2.32272.60669,3.55262a5.16909,5.16909,0,0,0,.3348,2.49158c.15905.331.92126.90682.6376,1.26094-.14813.18492-.94334.20184-1.15142.22629A6.57249,6.57249,0,0,1,19.682,24.04179a9.04023,9.04023,0,0,1-2.688-5.46533c-1.54922-9.00083,1.47456-10.5296-.5697-11.53239-1.40038-.6869-3.59964-.06676-5.05366.12181-1.674.21709-3.988.75051-5.59949-.00067-1.29087-.60178-2.889-2.06295-2.93631-3.59865"/><g class="b60ced43-f2c2-4264-9312-d62aef25c027"><line class="a52f4729-7fee-4760-9154-318d9297517d" x1="33.23118" y1="17.37602" x2="20.49235" y2="31.38962"/><line class="b128888a-96f3-4744-aca6-967ccc84ec1a" x1="32.36442" y1="16.5881" x2="19.62558" y2="30.6017"/><line class="b128888a-96f3-4744-aca6-967ccc84ec1a" x1="31.49766" y1="15.80019" x2="18.75882" y2="29.81379"/><line class="b128888a-96f3-4744-aca6-967ccc84ec1a" x1="30.63089" y1="15.01227" x2="17.89206" y2="29.02587"/><line class="b128888a-96f3-4744-aca6-967ccc84ec1a" x1="28.0306" y1="12.64852" x2="15.29177" y2="26.66212"/><line class="b128888a-96f3-4744-aca6-967ccc84ec1a" x1="27.16384" y1="11.8606" x2="14.425" y2="25.8742"/><line class="b128888a-96f3-4744-aca6-967ccc84ec1a" x1="24.56355" y1="9.49685" x2="11.82471" y2="23.51045"/><line class="b128888a-96f3-4744-aca6-967ccc84ec1a" x1="23.69679" y1="8.70893" x2="10.95795" y2="22.72253"/><line class="b128888a-96f3-4744-aca6-967ccc84ec1a" x1="26.29708" y1="11.07268" x2="13.55824" y2="25.08628"/><line class="b128888a-96f3-4744-aca6-967ccc84ec1a" x1="25.43031" y1="10.28477" x2="12.69148" y2="24.29836"/><line class="b128888a-96f3-4744-aca6-967ccc84ec1a" x1="29.76413" y1="14.22435" x2="17.02529" y2="28.23795"/><line class="b128888a-96f3-4744-aca6-967ccc84ec1a" x1="28.89737" y1="13.43644" x2="16.15853" y2="27.45003"/><line class="b128888a-96f3-4744-aca6-967ccc84ec1a" x1="22.83002" y1="7.92101" x2="10.09119" y2="21.93461"/><line class="b128888a-96f3-4744-aca6-967ccc84ec1a" x1="21.96326" y1="7.1331" x2="9.22442" y2="21.14669"/><line class="b128888a-96f3-4744-aca6-967ccc84ec1a" x1="21.0965" y1="6.34518" x2="8.35766" y2="20.35878"/><line class="b128888a-96f3-4744-aca6-967ccc84ec1a" x1="20.22973" y1="5.55726" x2="7.4909" y2="19.57086"/><line class="b128888a-96f3-4744-aca6-967ccc84ec1a" x1="17.62944" y1="3.19351" x2="4.89061" y2="17.20711"/><line class="b128888a-96f3-4744-aca6-967ccc84ec1a" x1="16.76268" y1="2.40559" x2="4.02384" y2="16.41919"/><line class="b128888a-96f3-4744-aca6-967ccc84ec1a" x1="14.16239" y1="0.04184" x2="1.42355" y2="14.05544"/><line class="b128888a-96f3-4744-aca6-967ccc84ec1a" x1="13.29562" y1="-0.74608" x2="0.55679" y2="13.26752"/><line class="b128888a-96f3-4744-aca6-967ccc84ec1a" x1="15.89591" y1="1.61767" x2="3.15708" y2="15.63127"/><line class="b128888a-96f3-4744-aca6-967ccc84ec1a" x1="15.02915" y1="0.82976" x2="2.29031" y2="14.84336"/><line class="b128888a-96f3-4744-aca6-967ccc84ec1a" x1="19.36297" y1="4.76934" x2="6.62413" y2="18.78294"/><line class="b128888a-96f3-4744-aca6-967ccc84ec1a" x1="18.49621" y1="3.98143" x2="5.75737" y2="17.99502"/><line class="b128888a-96f3-4744-aca6-967ccc84ec1a" x1="11.5621" y1="-2.32191" x2="-1.17674" y2="11.69169"/><line class="b128888a-96f3-4744-aca6-967ccc84ec1a" x1="10.69533" y1="-3.10983" x2="-2.0435" y2="10.90377"/><line class="b128888a-96f3-4744-aca6-967ccc84ec1a" x1="8.09504" y1="-5.47358" x2="-4.64379" y2="8.54002"/><line class="b128888a-96f3-4744-aca6-967ccc84ec1a" x1="7.22828" y1="-6.2615" x2="-5.51056" y2="7.7521"/><line class="b128888a-96f3-4744-aca6-967ccc84ec1a" x1="8.96181" y1="-4.68567" x2="-3.77703" y2="9.32793"/><line class="b128888a-96f3-4744-aca6-967ccc84ec1a" x1="12.42886" y1="-1.534" x2="-0.30998" y2="12.4796"/></g><path class="f6b3a276-b7f0-413e-8c80-fa28c8f574b1" d="M6.7573.30579c1.62427,1.50707,1.08521,3.62936,1.35149,8.042A10.05769,10.05769,0,0,0,14.34224,14.975c2.78644.93547,5.76158.68288,8.565,1.56643a3.79692,3.79692,0,0,1,1.85628,1.09521c.77928.95376.67215,2.32271.60668,3.55261a5.16926,5.16926,0,0,0,.33481,2.49159c.15905.331.92125.90681.63759,1.26093-.14812.18492-.94333.20185-1.15142.2263a6.57253,6.57253,0,0,1-5.06846-1.38032,9.0402,9.0402,0,0,1-2.688-5.46532C15.88546,9.32159,18.90924,7.79282,16.865,6.79c-1.40038-.6869-3.59964-.06677-5.05366.1218-1.674.2171-3.988.75051-5.5995-.00067C4.921,6.3094,3.32284,4.84822,3.27552,3.31253"/></g></svg>