<svg id="bacc073d-c8f2-4e7a-9687-e773417a18db" data-name="Layer 1" xmlns="http://www.w3.org/2000/svg" viewBox="0 0 38.20983 16.79593"><defs><style>.e5750d5b-df01-4d5c-a71e-645d81c26baf{fill:none;stroke-linecap:round;stroke-width:1.12557px;}.ba91bd53-05aa-4981-b8ce-3d57d8077a4c,.e5750d5b-df01-4d5c-a71e-645d81c26baf{stroke:#fff;stroke-linejoin:round;}.ba91bd53-05aa-4981-b8ce-3d57d8077a4c{fill:#ef5b5b;stroke-width:1.35068px;}</style></defs><title>Artboard 109</title><path class="e5750d5b-df01-4d5c-a71e-645d81c26baf" d="M37.64705,8.61988,33.11364,8.64a.10074.10074,0,0,1-.09049-.06635l-.7386-2.36683c-.06827-.21879-.151-.21221-.18374.01463l-.58552,4.05136c-.04948.3424-.13359.34287-.1869.001l-.416-2.87749s-.02239-.18677-.04223-.18741c-.0206-.00066-.04647.14079-.04647.14079l-.22209,1.224a.09919.09919,0,0,1-.092.074L9.91388,8.67435l-.46946,0c-.38788.00168-1.245.04225-1.245.04225a.0992.0992,0,0,1-.0924-.07341L7.87772,7.42055S7.851,7.27925,7.83042,7.28c-.01984.00075-.04112.18765-.04112.18765l-.399,2.8799c-.05129.34214-.1354.34216-.18691.00006L6.59056,5.14113c-.03412-.22664-.11684-.23274-.18382-.01355L5.68556,8.65743a.10071.10071,0,0,1-.0901.06688L.56279,8.74442"/><path class="ba91bd53-05aa-4981-b8ce-3d57d8077a4c" d="M19.09267,3.59c4.49326-7.77146,16.70019,1.2312.08449,12.51766l.00008.0128-.00917-.00631-.009.00642-.00007-.0128C2.40858,5.02221,14.50615-4.12677,19.09267,3.59Z"/></svg>