<svg id="a04ebce1-b23c-46de-a19a-1215a4e757fb" data-name="Layer 1" xmlns="http://www.w3.org/2000/svg" viewBox="0 0 27.44641 25.94595"><defs><style>.b09e57d4-0438-46b9-a06f-b36c9fcf7c5c{fill:none;stroke-width:1.11157px;}.a0fe21ec-ba27-4c95-9fee-60e5158360c0,.a5bcd08d-495f-408c-924c-64107e26c9ea,.b09e57d4-0438-46b9-a06f-b36c9fcf7c5c,.e04332c1-3168-4462-ae33-ab18a07785a9,.e046fce7-7a49-4f4a-ae3c-164500e9af00,.ed7b8fe1-06e8-40b6-9860-5606b7b86dad{stroke:#fff;}.a0fe21ec-ba27-4c95-9fee-60e5158360c0,.b09e57d4-0438-46b9-a06f-b36c9fcf7c5c,.ed7b8fe1-06e8-40b6-9860-5606b7b86dad{stroke-linecap:round;}.a0fe21ec-ba27-4c95-9fee-60e5158360c0,.b09e57d4-0438-46b9-a06f-b36c9fcf7c5c,.e046fce7-7a49-4f4a-ae3c-164500e9af00,.ed7b8fe1-06e8-40b6-9860-5606b7b86dad{stroke-linejoin:round;}.a0fe21ec-ba27-4c95-9fee-60e5158360c0,.a5bcd08d-495f-408c-924c-64107e26c9ea,.e04332c1-3168-4462-ae33-ab18a07785a9,.e046fce7-7a49-4f4a-ae3c-164500e9af00,.ed7b8fe1-06e8-40b6-9860-5606b7b86dad,.f603bf17-4a2a-4772-b564-8937264e7d29{fill:#fff;}.a5bcd08d-495f-408c-924c-64107e26c9ea,.e04332c1-3168-4462-ae33-ab18a07785a9{stroke-miterlimit:10;}.e04332c1-3168-4462-ae33-ab18a07785a9,.e046fce7-7a49-4f4a-ae3c-164500e9af00,.ed7b8fe1-06e8-40b6-9860-5606b7b86dad{stroke-width:0.44463px;}.a5bcd08d-495f-408c-924c-64107e26c9ea{stroke-width:0.29642px;}.a0fe21ec-ba27-4c95-9fee-60e5158360c0{stroke-width:0.69124px;}</style></defs><title>Artboard 103</title><path class="b09e57d4-0438-46b9-a06f-b36c9fcf7c5c" d="M16.051,18.08879c-1.35847,1.9135-1.36007,4.59025-2.87931,6.37877a2.54131,2.54131,0,0,1-1.28476.8807,1.346,1.346,0,0,1-1.41511-.46339,1.86166,1.86166,0,0,1-.2569-.94575c-.07979-1.24382.15767-2.50066-.01816-3.73457-.10866-.76258-.50284-1.617-1.26129-1.75146a1.682,1.682,0,0,0-1.54138.78887c-.36075.49-.57644,1.07331-.926,1.57139a2.586,2.586,0,0,1-1.63306,1.112A1.70274,1.70274,0,0,1,3.089,21.165c-.4519-.8047-.03616-1.791.11722-2.70107a4.60779,4.60779,0,0,0-.35636-2.675c-.115-.24946-.12229-.69181.14857-.64625"/><path class="e04332c1-3168-4462-ae33-ab18a07785a9" d="M16.1568,18.0849a.37618.37618,0,0,1-.04313-.00239.40089.40089,0,0,1-.356-.44133c.12567-1.17592,1.38653-1.75142,2.1398-2.09524a21.71024,21.71024,0,0,0,6.475-4.6663.401.401,0,0,1,.5767.55729,22.51782,22.51782,0,0,1-6.71865,4.83833c-.80875.36921-1.60431.78538-1.67547,1.45121A.40093.40093,0,0,1,16.1568,18.0849Z"/><path class="e046fce7-7a49-4f4a-ae3c-164500e9af00" d="M25.15613,2.89618a4.02847,4.02847,0,0,0-4.256.36849l.0017.00219-.011-.00428a2.085,2.085,0,0,0-1.408.44772L20.496,4.99043A2.08508,2.08508,0,0,0,21.2552,3.723l-.00039-.0085a3.43861,3.43861,0,0,1,3.63177-.31273,3.40979,3.40979,0,0,1,1.76281,3.205,7.9973,7.9973,0,0,1-2.19,4.34788l.40276.40731A8.59052,8.59052,0,0,0,27.222,6.62352,3.97153,3.97153,0,0,0,25.15613,2.89618Z"/><ellipse class="f603bf17-4a2a-4772-b564-8937264e7d29" cx="19.93902" cy="4.39228" rx="0.4864" ry="0.90896" transform="translate(1.40457 12.95562) rotate(-37.22105)"/><path class="e04332c1-3168-4462-ae33-ab18a07785a9" d="M16.17872,17.76073a.40092.40092,0,0,1-.38407-.51656c.19287-.64091-.37844-1.33357-.98017-1.98814a22.51505,22.51505,0,0,1-4.31135-7.06845.40091.40091,0,1,1,.74777-.28943,21.70747,21.70747,0,0,0,4.15393,6.815c.56041.60976,1.49842,1.62994,1.15771,2.762A.401.401,0,0,1,16.17872,17.76073Z"/><path class="ed7b8fe1-06e8-40b6-9860-5606b7b86dad" d="M17.41807,2.23193l-.01249-.00033.00309-.00173A4.02341,4.02341,0,0,0,13.63005.23766a3.97071,3.97071,0,0,0-3.35153,2.63169,8.58969,8.58969,0,0,0,.33387,5.283l.52926-.219a7.99617,7.99617,0,0,1-.32908-4.857A3.40962,3.40962,0,0,1,13.68205.80789a3.44377,3.44377,0,0,1,3.22513,1.699l-.0037.00774a2.08512,2.08512,0,0,0,.20725,1.46288l1.43083-.786A2.08494,2.08494,0,0,0,17.41807,2.23193Z"/><ellipse class="f603bf17-4a2a-4772-b564-8937264e7d29" cx="17.85628" cy="3.64266" rx="0.97988" ry="0.52434" transform="translate(0.56288 9.3919) rotate(-29.91961)"/><path class="a5bcd08d-495f-408c-924c-64107e26c9ea" d="M15.43713,18.29708a.782.782,0,0,0,.36049.27832,1.08816,1.08816,0,0,0,.46167-.00749,3.07408,3.07408,0,0,0,1.36943-1.694l-2.28606-.75307A3.07407,3.07407,0,0,0,15.43713,18.29708Z"/><ellipse class="a0fe21ec-ba27-4c95-9fee-60e5158360c0" cx="2.36398" cy="14.45451" rx="2.14994" ry="1.50795" transform="translate(-6.7038 2.95248) rotate(-28.96269)"/><ellipse class="f603bf17-4a2a-4772-b564-8937264e7d29" cx="2.19728" cy="14.31981" rx="1.93495" ry="1.35715" transform="translate(-6.65942 2.85492) rotate(-28.96269)"/></svg>