<svg id="a1ab7e7a-19e1-4d49-8403-da40ce366048" data-name="Layer 1" xmlns="http://www.w3.org/2000/svg" xmlns:xlink="http://www.w3.org/1999/xlink" viewBox="0 0 25.75532 23.93617"><defs><style>.ad316a5a-b40f-40ae-a2e3-1285444403f6,.b8ff7ba5-ec48-43a3-91ce-27f1eb770db9,.e0d54da3-9ef7-49e2-85ba-b53c5cefb884{fill:#ef5b5b;}.a95a732c-b57b-4603-a785-668ab644c68d,.ad316a5a-b40f-40ae-a2e3-1285444403f6,.b6e254f8-0016-4435-afa5-93375d06d995,.b8ff7ba5-ec48-43a3-91ce-27f1eb770db9,.e72287e1-6ee8-4986-99b7-16328ac81f0c{stroke:#fff;stroke-miterlimit:10;}.a95a732c-b57b-4603-a785-668ab644c68d,.b6e254f8-0016-4435-afa5-93375d06d995,.b8ff7ba5-ec48-43a3-91ce-27f1eb770db9{stroke-width:0.95674px;}.b6e254f8-0016-4435-afa5-93375d06d995{fill:none;}.a95a732c-b57b-4603-a785-668ab644c68d,.e72287e1-6ee8-4986-99b7-16328ac81f0c{fill:#fff;}.ad316a5a-b40f-40ae-a2e3-1285444403f6,.e72287e1-6ee8-4986-99b7-16328ac81f0c{stroke-width:0.46604px;}.a0a314d2-bcd0-4914-b594-f2dbd2cdd319{clip-path:url(#bc5a6565-ed6a-404c-8379-e2d30d39bfd7);}</style><clipPath id="bc5a6565-ed6a-404c-8379-e2d30d39bfd7"><path class="b8ff7ba5-ec48-43a3-91ce-27f1eb770db9" d="M.90316,2.67937A9.26008,9.26008,0,0,1,2.55735,1.36771a2.69577,2.69577,0,0,0-.67321-.6744L.63711,1.86754Z"/></clipPath></defs><title>Artboard 101</title><path class="b6e254f8-0016-4435-afa5-93375d06d995" d="M9.64908,8.92754S24.22027,21.69207,24.98966,23.40341c0,0-7.54523-.05613-16.81262-9.8321l1.71371-1.5926-1.675-1.77529Z"/><path class="a95a732c-b57b-4603-a785-668ab644c68d" d="M2.27582,1.08426,9.79371,9.023,8.30662,10.23578S3.685,6.7715,2.535,5.85615A4.49115,4.49115,0,0,1,.90316,2.67937C.84788,1.75655,2.27582,1.08426,2.27582,1.08426Z"/><path class="ad316a5a-b40f-40ae-a2e3-1285444403f6" d="M8.85707,10.97488a6.66563,6.66563,0,0,1,1.57928-1.28619A3.14541,3.14541,0,0,0,9.639,8.92754L8.177,10.2379Z"/><path class="e0d54da3-9ef7-49e2-85ba-b53c5cefb884" d="M.90316,2.67937A9.26008,9.26008,0,0,1,2.55735,1.36771a2.69577,2.69577,0,0,0-.67321-.6744L.63711,1.86754Z"/><g class="a0a314d2-bcd0-4914-b594-f2dbd2cdd319"><path class="e72287e1-6ee8-4986-99b7-16328ac81f0c" d="M.90316,2.67937A9.26008,9.26008,0,0,1,2.55735,1.36771a2.69577,2.69577,0,0,0-.67321-.6744L.63711,1.86754Z"/></g><path class="b6e254f8-0016-4435-afa5-93375d06d995" d="M.90316,2.67937A9.26008,9.26008,0,0,1,2.55735,1.36771a2.69577,2.69577,0,0,0-.67321-.6744L.63711,1.86754Z"/></svg>