<svg id="ea915d74-c782-443f-9381-d493ea75b0c2" data-name="Layer 1" xmlns="http://www.w3.org/2000/svg" xmlns:xlink="http://www.w3.org/1999/xlink" viewBox="0 0 67.60167 73.20713"><defs><style>.a7db19c3-4e3b-4797-8b12-c295944bf616,.ae2d21d0-4b16-41c1-823a-29eb68d916ac,.b416b758-908d-4040-8870-6d07dbf5b70a,.baa3691c-88e7-4ca0-884e-a0ba7e741f12{fill:none;}.a7db19c3-4e3b-4797-8b12-c295944bf616,.b416b758-908d-4040-8870-6d07dbf5b70a,.baa3691c-88e7-4ca0-884e-a0ba7e741f12{stroke:#ef5b5b;stroke-miterlimit:10;}.baa3691c-88e7-4ca0-884e-a0ba7e741f12{stroke-width:2.02008px;}.ba9ee46b-ed30-4e9d-b8fd-ddd76e76e3aa{clip-path:url(#bd1205d7-9b6c-4740-bcdb-0a969dbc4ffa);}.ee07e431-37e3-40fc-8abb-032722fbaf7c{clip-path:url(#bf077f28-6808-48ac-8a41-975ac3e5f95c);}.a7db19c3-4e3b-4797-8b12-c295944bf616{stroke-width:1.17901px;}.b416b758-908d-4040-8870-6d07dbf5b70a{stroke-width:0.5895px;}.b27887dc-f0a0-4454-b2eb-c24dc012ea22{clip-path:url(#b144454d-dd14-4801-a6ff-c43b31c11574);}</style><clipPath id="bd1205d7-9b6c-4740-bcdb-0a969dbc4ffa"><rect class="ae2d21d0-4b16-41c1-823a-29eb68d916ac" x="18.06437" y="-7.76221" width="37.62797" height="88.19996" transform="translate(88.64997 35.95552) rotate(135)"/></clipPath><clipPath id="bf077f28-6808-48ac-8a41-975ac3e5f95c"><path class="baa3691c-88e7-4ca0-884e-a0ba7e741f12" d="M10.867,1.23592c4.63426,4.29989,3.09626,10.35512,3.856,22.945,3.02572,8.7763,8.82515,15.90047,17.785,18.90848,7.95012,2.669,16.43865,1.94836,24.43715,4.46928a10.83313,10.83313,0,0,1,5.29626,3.12477c2.22339,2.72122,1.91773,6.62706,1.731,10.13615a14.74873,14.74873,0,0,0,.95524,7.10886c.4538.94448,2.62849,2.58727,1.81916,3.59764-.42262.5276-2.69147.57589-3.28517.64564a18.75238,18.75238,0,0,1-14.46109-3.93824c-4.55493-3.88331-6.68153-9.85442-7.66932-15.59338C36.911,26.95935,45.53829,22.59754,39.70572,19.73644c-3.9955-1.95982-10.27032-.19049-14.41886.34753-4.776.6194-11.37847,2.14132-15.97618-.00191C5.62764,18.3651,1.068,14.19615.933,9.81459"/></clipPath><clipPath id="b144454d-dd14-4801-a6ff-c43b31c11574"><path class="baa3691c-88e7-4ca0-884e-a0ba7e741f12" d="M12.12442.51112c4.63427,4.29989,3.09626,10.35512,3.856,22.945,3.02572,8.7763,8.82515,15.90047,17.78495,18.90847,7.95012,2.669,16.43865,1.94837,24.43715,4.46929a10.83313,10.83313,0,0,1,5.29626,3.12477c2.22339,2.72122,1.91773,6.62705,1.731,10.13614a14.74852,14.74852,0,0,0,.95524,7.10887c.45379.94448,2.62848,2.58727,1.81916,3.59764-.42262.5276-2.69147.57589-3.28517.64564a18.75241,18.75241,0,0,1-14.4611-3.93824c-4.55492-3.88332-6.68153-9.85443-7.66931-15.59338-4.42016-25.68072,4.20713-30.04253-1.62544-32.90363-3.99549-1.95982-10.27032-.1905-14.41885.34753-4.77605.6194-11.37847,2.14131-15.97618-.00191-3.683-1.717-8.2427-5.88591-8.37772-10.26747"/></clipPath></defs><title>Artboard 77</title><g class="ba9ee46b-ed30-4e9d-b8fd-ddd76e76e3aa"><g class="ee07e431-37e3-40fc-8abb-032722fbaf7c"><line class="a7db19c3-4e3b-4797-8b12-c295944bf616" x1="86.40094" y1="49.93983" x2="50.05514" y2="89.92271"/><line class="b416b758-908d-4040-8870-6d07dbf5b70a" x1="83.92793" y1="47.69179" x2="47.58214" y2="87.67467"/><line class="b416b758-908d-4040-8870-6d07dbf5b70a" x1="81.45493" y1="45.44374" x2="45.10913" y2="85.42662"/><line class="b416b758-908d-4040-8870-6d07dbf5b70a" x1="78.98192" y1="43.1957" x2="42.63613" y2="83.17858"/><line class="b416b758-908d-4040-8870-6d07dbf5b70a" x1="71.56291" y1="36.45156" x2="35.21711" y2="76.43444"/><line class="b416b758-908d-4040-8870-6d07dbf5b70a" x1="69.0899" y1="34.20351" x2="32.74411" y2="74.1864"/><line class="b416b758-908d-4040-8870-6d07dbf5b70a" x1="61.67089" y1="27.45938" x2="25.32509" y2="67.44226"/><line class="b416b758-908d-4040-8870-6d07dbf5b70a" x1="59.19788" y1="25.21133" x2="22.85209" y2="65.19421"/><line class="b416b758-908d-4040-8870-6d07dbf5b70a" x1="66.6169" y1="31.95547" x2="30.2711" y2="71.93835"/><line class="b416b758-908d-4040-8870-6d07dbf5b70a" x1="64.14389" y1="29.70742" x2="27.7981" y2="69.6903"/><line class="b416b758-908d-4040-8870-6d07dbf5b70a" x1="76.50892" y1="40.94765" x2="40.16312" y2="80.93053"/><line class="b416b758-908d-4040-8870-6d07dbf5b70a" x1="74.03591" y1="38.6996" x2="37.69012" y2="78.68249"/><line class="b416b758-908d-4040-8870-6d07dbf5b70a" x1="56.72488" y1="22.96328" x2="20.37908" y2="62.94617"/><line class="b416b758-908d-4040-8870-6d07dbf5b70a" x1="54.25187" y1="20.71524" x2="17.90608" y2="60.69812"/><line class="b416b758-908d-4040-8870-6d07dbf5b70a" x1="51.77887" y1="18.46719" x2="15.43307" y2="58.45008"/><line class="b416b758-908d-4040-8870-6d07dbf5b70a" x1="49.30586" y1="16.21915" x2="12.96006" y2="56.20203"/><line class="b416b758-908d-4040-8870-6d07dbf5b70a" x1="41.88685" y1="9.47501" x2="5.54105" y2="49.45789"/><line class="b416b758-908d-4040-8870-6d07dbf5b70a" x1="39.41384" y1="7.22697" x2="3.06804" y2="47.20985"/><line class="b416b758-908d-4040-8870-6d07dbf5b70a" x1="31.99482" y1="0.48283" x2="-4.35097" y2="40.46571"/><line class="b416b758-908d-4040-8870-6d07dbf5b70a" x1="29.52182" y1="-1.76522" x2="-6.82398" y2="38.21766"/><line class="b416b758-908d-4040-8870-6d07dbf5b70a" x1="36.94083" y1="4.97892" x2="0.59504" y2="44.9618"/><line class="b416b758-908d-4040-8870-6d07dbf5b70a" x1="34.46783" y1="2.73087" x2="-1.87797" y2="42.71376"/><line class="b416b758-908d-4040-8870-6d07dbf5b70a" x1="46.83286" y1="13.9711" x2="10.48706" y2="53.95398"/><line class="b416b758-908d-4040-8870-6d07dbf5b70a" x1="44.35985" y1="11.72306" x2="8.01405" y2="51.70594"/><line class="b416b758-908d-4040-8870-6d07dbf5b70a" x1="24.57581" y1="-6.26131" x2="-11.76999" y2="33.72157"/><line class="b416b758-908d-4040-8870-6d07dbf5b70a" x1="22.1028" y1="-8.50935" x2="-14.24299" y2="31.47353"/><line class="b416b758-908d-4040-8870-6d07dbf5b70a" x1="14.68379" y1="-15.25349" x2="-21.66201" y2="24.72939"/><line class="b416b758-908d-4040-8870-6d07dbf5b70a" x1="12.21078" y1="-17.50154" x2="-24.13501" y2="22.48135"/><line class="b416b758-908d-4040-8870-6d07dbf5b70a" x1="17.15679" y1="-13.00545" x2="-19.189" y2="26.97744"/><line class="b416b758-908d-4040-8870-6d07dbf5b70a" x1="27.04881" y1="-4.01326" x2="-9.29698" y2="35.96962"/></g><path class="baa3691c-88e7-4ca0-884e-a0ba7e741f12" d="M10.867,1.23592c4.63426,4.29989,3.09626,10.35512,3.856,22.945,3.02572,8.7763,8.82515,15.90047,17.785,18.90848,7.95012,2.669,16.43865,1.94836,24.43715,4.46928a10.83313,10.83313,0,0,1,5.29626,3.12477c2.22339,2.72122,1.91773,6.62706,1.731,10.13615a14.74873,14.74873,0,0,0,.95524,7.10886c.4538.94448,2.62849,2.58727,1.81916,3.59764-.42262.5276-2.69147.57589-3.28517.64564a18.75238,18.75238,0,0,1-14.46109-3.93824c-4.55493-3.88331-6.68153-9.85442-7.66932-15.59338C36.911,26.95935,45.53829,22.59754,39.70572,19.73644c-3.9955-1.95982-10.27032-.19049-14.41886.34753-4.776.6194-11.37847,2.14132-15.97618-.00191C5.62764,18.3651,1.068,14.19615.933,9.81459"/><g class="b27887dc-f0a0-4454-b2eb-c24dc012ea22"><line class="a7db19c3-4e3b-4797-8b12-c295944bf616" x1="87.65834" y1="49.21503" x2="51.31255" y2="89.19791"/><line class="b416b758-908d-4040-8870-6d07dbf5b70a" x1="85.18534" y1="46.96699" x2="48.83954" y2="86.94987"/><line class="b416b758-908d-4040-8870-6d07dbf5b70a" x1="82.71233" y1="44.71894" x2="46.36654" y2="84.70182"/><line class="b416b758-908d-4040-8870-6d07dbf5b70a" x1="80.23933" y1="42.47089" x2="43.89353" y2="82.45378"/><line class="b416b758-908d-4040-8870-6d07dbf5b70a" x1="72.82031" y1="35.72676" x2="36.47452" y2="75.70964"/><line class="b416b758-908d-4040-8870-6d07dbf5b70a" x1="70.34731" y1="33.47871" x2="34.00151" y2="73.46159"/><line class="b416b758-908d-4040-8870-6d07dbf5b70a" x1="62.92829" y1="26.73457" x2="26.58249" y2="66.71746"/><line class="b416b758-908d-4040-8870-6d07dbf5b70a" x1="60.45529" y1="24.48653" x2="24.10949" y2="64.46941"/><line class="b416b758-908d-4040-8870-6d07dbf5b70a" x1="67.8743" y1="31.23067" x2="31.5285" y2="71.21355"/><line class="b416b758-908d-4040-8870-6d07dbf5b70a" x1="65.4013" y1="28.98262" x2="29.0555" y2="68.9655"/><line class="b416b758-908d-4040-8870-6d07dbf5b70a" x1="77.76632" y1="40.22285" x2="41.42053" y2="80.20573"/><line class="b416b758-908d-4040-8870-6d07dbf5b70a" x1="75.29332" y1="37.9748" x2="38.94752" y2="77.95768"/><line class="b416b758-908d-4040-8870-6d07dbf5b70a" x1="57.98228" y1="22.23848" x2="21.63648" y2="62.22137"/><line class="b416b758-908d-4040-8870-6d07dbf5b70a" x1="55.50927" y1="19.99044" x2="19.16348" y2="59.97332"/><line class="b416b758-908d-4040-8870-6d07dbf5b70a" x1="53.03627" y1="17.74239" x2="16.69047" y2="57.72527"/><line class="b416b758-908d-4040-8870-6d07dbf5b70a" x1="50.56326" y1="15.49435" x2="14.21747" y2="55.47723"/><line class="b416b758-908d-4040-8870-6d07dbf5b70a" x1="43.14425" y1="8.75021" x2="6.79845" y2="48.73309"/><line class="b416b758-908d-4040-8870-6d07dbf5b70a" x1="40.67124" y1="6.50216" x2="4.32545" y2="46.48505"/><line class="b416b758-908d-4040-8870-6d07dbf5b70a" x1="33.25223" y1="-0.24197" x2="-3.09357" y2="39.74091"/><line class="b416b758-908d-4040-8870-6d07dbf5b70a" x1="30.77922" y1="-2.49002" x2="-5.56657" y2="37.49286"/><line class="b416b758-908d-4040-8870-6d07dbf5b70a" x1="38.19824" y1="4.25412" x2="1.85244" y2="44.237"/><line class="b416b758-908d-4040-8870-6d07dbf5b70a" x1="35.72523" y1="2.00607" x2="-0.62056" y2="41.98895"/><line class="b416b758-908d-4040-8870-6d07dbf5b70a" x1="48.09026" y1="13.2463" x2="11.74446" y2="53.22918"/><line class="b416b758-908d-4040-8870-6d07dbf5b70a" x1="45.61725" y1="10.99825" x2="9.27146" y2="50.98114"/><line class="b416b758-908d-4040-8870-6d07dbf5b70a" x1="25.83321" y1="-6.98611" x2="-10.51258" y2="32.99677"/><line class="b416b758-908d-4040-8870-6d07dbf5b70a" x1="23.36021" y1="-9.23416" x2="-12.98559" y2="30.74873"/><line class="b416b758-908d-4040-8870-6d07dbf5b70a" x1="15.94119" y1="-15.97829" x2="-20.40461" y2="24.00459"/><line class="b416b758-908d-4040-8870-6d07dbf5b70a" x1="13.46819" y1="-18.22634" x2="-22.87761" y2="21.75654"/><line class="b416b758-908d-4040-8870-6d07dbf5b70a" x1="18.4142" y1="-13.73025" x2="-17.9316" y2="26.25264"/><line class="b416b758-908d-4040-8870-6d07dbf5b70a" x1="28.30622" y1="-4.73806" x2="-8.03958" y2="35.24482"/></g><path class="baa3691c-88e7-4ca0-884e-a0ba7e741f12" d="M12.12442.51112c4.63427,4.29989,3.09626,10.35512,3.856,22.945,3.02572,8.7763,8.82515,15.90047,17.78495,18.90847,7.95012,2.669,16.43865,1.94837,24.43715,4.46929a10.83313,10.83313,0,0,1,5.29626,3.12477c2.22339,2.72122,1.91773,6.62705,1.731,10.13614a14.74852,14.74852,0,0,0,.95524,7.10887c.45379.94448,2.62848,2.58727,1.81916,3.59764-.42262.5276-2.69147.57589-3.28517.64564a18.75241,18.75241,0,0,1-14.4611-3.93824c-4.55492-3.88332-6.68153-9.85443-7.66931-15.59338-4.42016-25.68072,4.20713-30.04253-1.62544-32.90363-3.99549-1.95982-10.27032-.1905-14.41885.34753-4.77605.6194-11.37847,2.14131-15.97618-.00191-3.683-1.717-8.2427-5.88591-8.37772-10.26747"/></g></svg>