<?xml version="1.0" encoding="utf-8"?>
<!-- Generator: Adobe Illustrator 19.1.0, SVG Export Plug-In . SVG Version: 6.00 Build 0)  -->
<svg version="1.1" id="eda1a358-9899-49f0-8085-bad4450e6c5e"
	 xmlns="http://www.w3.org/2000/svg" xmlns:xlink="http://www.w3.org/1999/xlink" x="0px" y="0px" viewBox="-245 397.8 104.9 47.1"
	 style="enable-background:new -245 397.8 104.9 47.1;" xml:space="preserve">
<style type="text/css">
	.st0{fill:none;stroke:#EF5B5B;stroke-width:2.0254;stroke-linecap:round;stroke-linejoin:round;}
	.st1{fill:#FFFFFF;stroke:#EF5B5B;stroke-width:2.4305;stroke-linejoin:round;}
</style>
<title>Artboard 79</title>
<path class="st0" d="M-158.8,421.8l-8.2,0c-0.1,0-0.1-0.1-0.2-0.1l-1.3-4.3c-0.1-0.4-0.3-0.4-0.3,0l-1.1,7.3c-0.1,0.6-0.2,0.6-0.3,0
	l-0.7-5.2c0,0,0-0.3-0.1-0.3c0,0-0.1,0.3-0.1,0.3l-0.4,2.2c0,0.1-0.1,0.1-0.2,0.1l-37.1,0c0,0-0.8,0-0.8,0c-0.7,0-2.2,0.1-2.2,0.1
	c-0.1,0-0.1-0.1-0.2-0.1l-0.4-2.2c0,0,0-0.3-0.1-0.3c0,0-0.1,0.3-0.1,0.3l-0.7,5.2c-0.1,0.6-0.2,0.6-0.3,0l-1.1-9.4
	c-0.1-0.4-0.2-0.4-0.3,0l-1.3,6.4c0,0.1-0.1,0.1-0.2,0.1l-9.1,0"/>
<path class="st1" d="M-192.1,412.7c8.1-14,30.1,2.2,0.2,22.5l0,0l0,0l0,0l0,0C-222.2,415.3-200.4,398.8-192.1,412.7z"/>
</svg>
