<?xml version="1.0" encoding="utf-8"?>
<!-- Generator: Adobe Illustrator 19.1.0, SVG Export Plug-In . SVG Version: 6.00 Build 0)  -->
<svg version="1.1" id="a7dd6c2d-abb4-40f3-ba3e-fe6345aae045"
	 xmlns="http://www.w3.org/2000/svg" xmlns:xlink="http://www.w3.org/1999/xlink" x="0px" y="0px" viewBox="-262 392.2 69.1 57.7"
	 style="enable-background:new -262 392.2 69.1 57.7;" xml:space="preserve">
<style type="text/css">
	.st0{fill:none;stroke:#EF5B5B;stroke-width:2.8712;stroke-miterlimit:10;}
	.st1{fill:#FFFFFF;stroke:#EF5B5B;stroke-width:2.1534;stroke-miterlimit:10;}
	.st2{fill:none;stroke:#EF5B5B;stroke-width:5.4901;stroke-miterlimit:10;}
</style>
<title>Artboard 81</title>
<path class="st0" d="M-232.9,402.2h10.9c1.7,0,3,1.3,3,3v1.3c0,1.7-1.3,3-3,3h-10.9c-1.7,0-3-1.3-3-3v-1.3
	C-235.9,403.5-234.6,402.2-232.9,402.2z"/>
<path class="st1" d="M-246.7,408h38.5c2.3,0,4.2,1.9,4.2,4.2v24.1c0,2.3-1.9,4.2-4.2,4.2h-38.5c-2.3,0-4.2-1.9-4.2-4.2v-24.1
	C-250.9,409.9-249,408-246.7,408z"/>
<line class="st2" x1="-237.3" y1="424.3" x2="-217.6" y2="424.3"/>
<line class="st2" x1="-227.4" y1="434.1" x2="-227.4" y2="414.4"/>
</svg>
