<?xml version="1.0" encoding="utf-8"?>
<!-- Generator: Adobe Illustrator 19.1.0, SVG Export Plug-In . SVG Version: 6.00 Build 0)  -->
<svg version="1.1" id="b33cfcd1-ddbc-49ac-8985-dea6fa45ac9b"
	 xmlns="http://www.w3.org/2000/svg" xmlns:xlink="http://www.w3.org/1999/xlink" x="0px" y="0px" viewBox="-258 383.3 78.9 74.6"
	 style="enable-background:new -258 383.3 78.9 74.6;" xml:space="preserve">
<style type="text/css">
	.st0{fill:none;stroke:#EF5B5B;stroke-width:3.0876;stroke-linecap:round;stroke-linejoin:round;}
	.st1{fill:#EF5B5B;stroke:#EF5B5B;stroke-width:1.2351;stroke-miterlimit:10;}
	.st2{fill:#EF5B5B;stroke:#EF5B5B;stroke-width:1.2351;stroke-linejoin:round;}
	.st3{fill:#EF5B5B;}
	.st4{fill:#EF5B5B;stroke:#EF5B5B;stroke-width:1.2351;stroke-linecap:round;stroke-linejoin:round;}
	.st5{fill:#EF5B5B;stroke:#EF5B5B;stroke-width:0.8234;stroke-miterlimit:10;}
	.st6{fill:#EF5B5B;stroke:#EF5B5B;stroke-width:1.9201;stroke-linecap:round;stroke-linejoin:round;}
</style>
<title>Artboard 85</title>
<path class="st0" d="M-212.1,434.9c-3.8,5.3-3.8,12.8-8,17.7c-0.9,1.2-2.2,2-3.6,2.4c-1.4,0.4-3-0.1-3.9-1.3
	c-0.5-0.8-0.7-1.7-0.7-2.6c-0.2-3.5,0.4-6.9-0.1-10.4c-0.3-2.1-1.4-4.5-3.5-4.9c-1.7-0.3-3.3,0.8-4.3,2.2c-1,1.4-1.6,3-2.6,4.4
	c-1,1.6-2.7,2.7-4.5,3.1c-1.9,0.4-3.8-0.5-4.9-2.1c-1.3-2.2-0.1-5,0.3-7.5c0.4-2.5,0.1-5.1-1-7.4c-0.3-0.7-0.3-1.9,0.4-1.8"/>
<path class="st1" d="M-211.8,434.8c0,0-0.1,0-0.1,0c-0.6-0.1-1.1-0.6-1-1.2c0,0,0,0,0,0c0.3-3.3,3.9-4.9,5.9-5.8
	c6.7-3.2,12.8-7.6,18-13c0.4-0.4,1.1-0.4,1.6,0c0.4,0.4,0.4,1.1,0,1.6c-5.3,5.6-11.7,10.2-18.7,13.4c-2.2,1-4.5,2.2-4.7,4
	C-210.8,434.4-211.3,434.8-211.8,434.8z"/>
<path class="st2" d="M-186.8,392.7c-3.8-1.9-8.4-1.6-11.8,1l0,0l0,0c-1.4-0.1-2.8,0.4-3.9,1.2l2.8,3.6c1.1-0.9,1.9-2.1,2.1-3.5l0,0
	c2.9-2.2,6.8-2.5,10.1-0.9c3.2,1.8,5.1,5.2,4.9,8.9c-0.1,3.7-3.3,9.3-6.1,12.1l1.1,1.1c2.7-2.6,6.4-8.7,6.6-13.2
	C-180.8,398.7-183.1,394.7-186.8,392.7z"/>
<ellipse transform="matrix(-0.6049 -0.7963 0.7963 -0.6049 -639.0742 476.5205)" class="st3" cx="-201.3" cy="396.8" rx="2.5" ry="1.4"/>
<path class="st1" d="M-211.8,433.9c-0.6,0-1.1-0.5-1.1-1.1c0-0.1,0-0.2,0-0.3c0.5-1.8-1.1-3.7-2.7-5.5c-5.2-5.7-9.2-12.4-12-19.6
	c-0.2-0.6,0.1-1.2,0.6-1.4c0.6-0.2,1.2,0.1,1.4,0.6c0,0,0,0,0,0c2.6,7,6.6,13.4,11.5,18.9c1.6,1.7,4.2,4.5,3.2,7.7
	C-210.8,433.6-211.3,433.9-211.8,433.9z"/>
<path class="st4" d="M-208.3,390.8L-208.3,390.8L-208.3,390.8c-2.2-3.7-6.3-5.9-10.5-5.5c-4.3,0.4-7.9,3.3-9.3,7.3
	c-1.6,4.2-0.5,11.2,0.9,14.7l1.5-0.6c-1.5-3.6-2.2-10.1-0.9-13.5c1.6-4.9,6.9-7.5,11.8-5.9c2.2,0.7,4,2.3,5.2,4.3l0,0
	c-0.3,1.4-0.1,2.8,0.6,4.1l4-2.2C-205.9,392.2-207,391.3-208.3,390.8z"/>
<ellipse transform="matrix(-0.4988 -0.8667 0.8667 -0.4988 -652.5215 412.1048)" class="st3" cx="-207.1" cy="394.7" rx="1.5" ry="2.7"/>
<path class="st5" d="M-213.8,435.4c0.2,0.4,0.6,0.6,1,0.8c0.4,0.1,0.9,0.1,1.3,0c2.7-1.3,3.8-4.7,3.8-4.7l-6.4-2.1
	C-214.1,429.4-215.3,432.7-213.8,435.4z"/>
<ellipse transform="matrix(-0.4842 -0.8749 0.8749 -0.4842 -742.8978 411.5875)" class="st6" cx="-250.1" cy="424.8" rx="4.2" ry="6"/>
<ellipse transform="matrix(-0.4842 -0.8749 0.8749 -0.4842 -743.2577 410.627)" class="st3" cx="-250.6" cy="424.4" rx="3.8" ry="5.4"/>
</svg>
