<?xml version="1.0" encoding="utf-8"?>
<!-- Generator: Adobe Illustrator 19.1.0, SVG Export Plug-In . SVG Version: 6.00 Build 0)  -->
<svg version="1.1" id="e2cefe96-0a80-41d5-9993-eb5c32d93af8"
	 xmlns="http://www.w3.org/2000/svg" xmlns:xlink="http://www.w3.org/1999/xlink" x="0px" y="0px" viewBox="-260 387.2 73.3 67.7"
	 style="enable-background:new -260 387.2 73.3 67.7;" xml:space="preserve">
<style type="text/css">
	.st0{fill:none;stroke:#EF5B5B;stroke-width:2.3139;stroke-miterlimit:10;}
	.st1{fill:#EF5B5B;stroke:#EF5B5B;stroke-width:2.3139;stroke-miterlimit:10;}
	.st2{fill:#FFFFFF;stroke:#EF5B5B;stroke-width:1.1271;stroke-miterlimit:10;}
	.st3{fill:#FFFFFF;}
	.st4{clip-path:url(#SVGID_2_);}
	.st5{fill:#EF5B5B;stroke:#EF5B5B;stroke-width:1.1271;stroke-miterlimit:10;}
</style>
<title>Artboard 87</title>
<path class="st0" d="M-231.1,413.5c0,0,35.2,30.9,37.1,35c0,0-18.2-0.1-40.7-23.8l4.1-3.9l-4.1-4.3L-231.1,413.5z"/>
<path class="st1" d="M-248.9,394.6l18.2,19.2l-3.6,2.9c0,0-11.2-8.4-14-10.6c-2.3-1.9-3.7-4.7-3.9-7.7
	C-252.4,396.2-248.9,394.6-248.9,394.6z"/>
<path class="st2" d="M-233,418.5c0,0,2.5-2.7,3.8-3.1c-0.5-0.7-1.2-1.3-1.9-1.8l-3.5,3.2L-233,418.5z"/>
<path class="st3" d="M-252.3,398.4c0,0,2.9-2.8,4-3.2c-0.4-0.6-1-1.2-1.6-1.6l-3,2.8L-252.3,398.4z"/>
<g>
	<defs>
		<path id="SVGID_1_" d="M-252.3,398.4c0,0,2.9-2.8,4-3.2c-0.4-0.6-1-1.2-1.6-1.6l-3,2.8L-252.3,398.4z"/>
	</defs>
	<clipPath id="SVGID_2_">
		<use xlink:href="#SVGID_1_"  style="overflow:visible;"/>
	</clipPath>
	<g class="st4">
		<path class="st5" d="M-252.3,398.4c0,0,2.9-2.8,4-3.2c-0.4-0.6-1-1.2-1.6-1.6l-3,2.8L-252.3,398.4z"/>
	</g>
</g>
<path class="st0" d="M-252.3,398.4c0,0,2.9-2.8,4-3.2c-0.4-0.6-1-1.2-1.6-1.6l-3,2.8L-252.3,398.4z"/>
</svg>
