<?xml version="1.0" encoding="utf-8"?>
<!-- Generator: Adobe Illustrator 19.1.0, SVG Export Plug-In . SVG Version: 6.00 Build 0)  -->
<svg version="1.1" id="Layer_1" xmlns="http://www.w3.org/2000/svg" xmlns:xlink="http://www.w3.org/1999/xlink" x="0px" y="0px"
	 viewBox="-287 411.8 20.4 18.1" style="enable-background:new -287 411.8 20.4 18.1;" xml:space="preserve">
<style type="text/css">
	.st0{fill:#ED8895;}
</style>
<path class="st0" d="M-270.1,418.7l-3,3.4l-5.6-1.3l5.6-1.3l4.5-6c-1.2-1.1-2.9-1.5-4.4-1.1c-1.5,0.4-2.8,1.2-3.7,2.8
	c-0.3-0.4-0.4-0.6-0.6-0.9c-1.3-1.7-3-2.3-5.1-2.1c-1.9,0.1-3.6,1.7-3.8,3.6c-0.4,3.3,0.8,6,2.9,8.3c1.7,1.9,3.8,3.4,5.7,5.1
	c0.5,0.5,0.9,0.4,1.5,0.1c2.7-1.9,5.3-3.8,7.1-6.6c0.8-1.2,1.4-2.3,1.7-3.6L-270.1,418.7z"/>
</svg>
