<svg xmlns="http://www.w3.org/2000/svg" xmlns:xlink="http://www.w3.org/1999/xlink" viewBox="0 0 59.98946 45.16677"><defs><style>.a6dc58f5-d2f9-4902-9651-2ef8a5083440{fill:none;}.a82ca780-16ab-4a00-9f7a-4aa7f416a65f{isolation:isolate;}.a00f502a-c687-4093-ba5c-8badc562a74f,.b76e2984-dc8a-40f5-826b-2e9bc144108b{fill:#fff;}.b56edf27-249e-43ee-acc6-b00db321bb47{clip-path:url(#ff4f1935-1751-45fc-843e-2151d418b266);}.b71d4fbc-a74e-4d33-b20b-bd9c1c012eed{fill:#9acfda;}.a00f502a-c687-4093-ba5c-8badc562a74f{stroke:#f1f2f2;stroke-miterlimit:10;stroke-width:0.09817px;}.fe596515-1a66-474a-8bad-e4e6f6142f14{fill:#70adb6;}.ed8894bf-99a0-4d11-844c-0e92be91a075{fill:#4d7582;}.a9b51943-4403-463b-9cc0-1adafa66a3e1{fill:#6ba097;}.b817cd86-19ea-418b-bfcb-68f3d5d50f84{fill:#c3d7dc;}.a642c8e4-9547-4f85-82d6-a7ce4505a74a{fill:#f1f2f2;}.ee40b878-07bc-4226-8dd0-79b707d98593{fill:#90c66c;}.a6b4e032-e17f-4b5a-93fd-9c3d053ca687{fill:#7db25a;}.b17364ae-f39e-4423-8a2d-7bd1a6d07441{fill:#a7a9ac;opacity:0.33;mix-blend-mode:multiply;}.eb6d17df-db0d-4d6b-8040-654e622fdcc7{fill:#beccaa;}.bdd59916-ad36-4e9b-9931-05299a86fa1b{fill:#a2b08b;}.b0f71542-b2d8-4bc1-8faf-7cc508faf4f4{clip-path:url(#a5154b39-537a-445f-b179-797dbbba0c7a);}.fc760906-c28c-4fe1-b0ee-8d7587c75d7f{fill:#dbded7;}.aec852ba-6a59-4223-8429-3d67140f82b5{fill:#80896f;}.bcfc4d3c-86f5-4e0e-9692-cefa8837a19a{fill:#aab692;}.fd71924c-9cec-4be5-8830-8ae22191f909{fill:#415829;}.adefefad-4b22-4c85-a7b0-6f272c46b15e{clip-path:url(#f760a2fa-741a-4d3d-a8e1-9d3899638d14);}.ad191dc0-4647-4f18-822a-dd5544d62481{fill:#3b4923;}.adf7974c-9e58-4b95-8d4c-709671f7c065{fill:#4b6b33;}.aaca46a0-bf0d-4964-8791-2913e78c7fb5{fill:#678e3d;}.aa1b3545-e919-4ec7-a06c-195d0bc20917{fill:#527938;}.b0066cc6-eb26-4818-88c2-aabcc3d19728{fill:#537435;}</style><clipPath id="ff4f1935-1751-45fc-843e-2151d418b266"><ellipse class="a6dc58f5-d2f9-4902-9651-2ef8a5083440" cx="29.99473" cy="22.58339" rx="24.9432" ry="18.78003"/></clipPath><clipPath id="a5154b39-537a-445f-b179-797dbbba0c7a"><path class="a6dc58f5-d2f9-4902-9651-2ef8a5083440" d="M35.452,29.27152a13.63468,13.63468,0,0,1,.16413,3.26459s1.47684.20608,2.13287.2779a1.60465,1.60465,0,0,0,.58419-.15111l.29393-3.49317s-.07116-.67675-.11378-1.01387a12.71757,12.71757,0,0,1-.05883-2.29263,8.71246,8.71246,0,0,0-.27376-1.90789l-2.838-.30851S35.02517,28.00919,35.452,29.27152Z"/></clipPath><clipPath id="f760a2fa-741a-4d3d-a8e1-9d3899638d14"><path class="a6dc58f5-d2f9-4902-9651-2ef8a5083440" d="M45.62048,21.13715a1.383,1.383,0,0,0,.18777-.39428,1.88206,1.88206,0,0,0-.12189-.89416c-.18122-.756-.0228-1.62759-.57257-2.22941-.07952-.087-.23368-.16615-.3195-.08388a.88011.88011,0,0,1-.15484.90616,1.26248,1.26248,0,0,1-.69163.52969c.15039.18955.29693.21728.37976.46492a1.6791,1.6791,0,0,1-.76,2.02484,1.30222,1.30222,0,0,1-1.189.15946,2.03289,2.03289,0,0,1-.86829,1.21607c-1.37839.971-2.99075.62885-4.52014.19786a2.17964,2.17964,0,0,1-1.26354.86409c-.02117.00542-.04515.01261-.05351.0306s.003.03787.01417.05455a1.4646,1.4646,0,0,0,1.06857.77134,9.43326,9.43326,0,0,0,1.81369.26983c1.048-.08218,2.07353-.64862,3.08855-.40453.73944.17782.63934-.36437.79225-.8497.19846-.62992.5479-.82427,1.2647-.78336a1.34162,1.34162,0,0,0,.80433-.12325c.3242-.21031.20646-.56755.40254-.8392C45.11264,21.7605,45.41706,21.44962,45.62048,21.13715Z"/></clipPath></defs><title>Artboard 50</title><g class="a82ca780-16ab-4a00-9f7a-4aa7f416a65f"><g id="a2019fa8-1698-4138-a206-3a62eb081165" data-name="Layer 1"><ellipse class="b76e2984-dc8a-40f5-826b-2e9bc144108b" cx="29.99473" cy="22.58339" rx="29.99473" ry="22.58339"/><g class="b56edf27-249e-43ee-acc6-b00db321bb47"><polygon class="b71d4fbc-a74e-4d33-b20b-bd9c1c012eed" points="19.629 28.689 14.302 29.573 14.302 12.131 19.629 12.835 19.629 28.689"/><polygon class="a00f502a-c687-4093-ba5c-8badc562a74f" points="16.843 22.279 17.939 22.101 17.939 23.92 16.843 24.098 16.843 22.279"/><polygon class="fe596515-1a66-474a-8bad-e4e6f6142f14" points="14.327 29.573 13.066 28.591 13.066 12.966 14.327 12.131 14.327 29.573"/><polygon class="ed8894bf-99a0-4d11-844c-0e92be91a075" points="18.467 24.03 16.481 24.31 16.143 24.46 18.129 24.18 18.467 24.03"/><polygon class="a9b51943-4403-463b-9cc0-1adafa66a3e1" points="16.487 24.313 16.143 24.46 16.143 23.891 16.487 23.711 16.487 24.313"/><polygon class="b817cd86-19ea-418b-bfcb-68f3d5d50f84" points="16.487 23.711 18.459 23.434 18.459 24.036 16.487 24.313 16.487 23.711"/><polygon class="a642c8e4-9547-4f85-82d6-a7ce4505a74a" points="15.088 19.299 16.184 19.211 16.184 21.03 15.088 21.119 15.088 19.299"/><polygon class="a642c8e4-9547-4f85-82d6-a7ce4505a74a" points="17.334 25.831 18.43 25.653 18.43 27.472 17.334 27.65 17.334 25.831"/><polygon class="a642c8e4-9547-4f85-82d6-a7ce4505a74a" points="15.935 26.025 17.031 25.847 17.031 27.666 15.935 27.844 15.935 26.025"/><polygon class="a642c8e4-9547-4f85-82d6-a7ce4505a74a" points="14.99 12.966 16.086 13.112 16.086 14.932 14.99 14.786 14.99 12.966"/><polygon class="a642c8e4-9547-4f85-82d6-a7ce4505a74a" points="16.634 13.187 17.731 13.333 17.731 15.152 16.634 15.007 16.634 13.187"/><polygon class="a642c8e4-9547-4f85-82d6-a7ce4505a74a" points="17.182 16.427 18.279 16.573 18.279 18.392 17.182 18.246 17.182 16.427"/><polygon class="a9b51943-4403-463b-9cc0-1adafa66a3e1" points="20.091 29.698 19.045 28.884 19.045 15.933 20.091 15.241 20.091 29.698"/><polygon class="b817cd86-19ea-418b-bfcb-68f3d5d50f84" points="24.485 28.966 20.07 29.698 20.07 15.241 24.485 15.825 24.485 28.966"/><polygon class="a642c8e4-9547-4f85-82d6-a7ce4505a74a" points="21.525 16.192 22.473 16.318 22.473 17.892 21.525 17.766 21.525 16.192"/><polygon class="a642c8e4-9547-4f85-82d6-a7ce4505a74a" points="22.948 16.383 23.897 16.509 23.897 18.084 22.948 17.957 22.948 16.383"/><polygon class="a642c8e4-9547-4f85-82d6-a7ce4505a74a" points="20.748 18.686 21.696 18.813 21.696 20.387 20.748 20.261 20.748 18.686"/><polygon class="a642c8e4-9547-4f85-82d6-a7ce4505a74a" points="22.768 22.077 23.717 22 23.717 23.575 22.768 23.652 22.768 22.077"/><polygon class="a642c8e4-9547-4f85-82d6-a7ce4505a74a" points="21.181 24.399 22.13 24.245 22.13 25.82 21.181 25.974 21.181 24.399"/><polygon class="a642c8e4-9547-4f85-82d6-a7ce4505a74a" points="22.13 26.964 23.079 26.81 23.079 28.385 22.13 28.539 22.13 26.964"/><polygon class="a642c8e4-9547-4f85-82d6-a7ce4505a74a" points="20.919 27.132 21.868 26.978 21.868 28.553 20.919 28.707 20.919 27.132"/><ellipse class="ee40b878-07bc-4226-8dd0-79b707d98593" cx="33.63714" cy="39.27857" rx="11.82605" ry="45.52205" transform="matrix(0.03306, -0.99945, 0.99945, 0.03306, -6.73212, 71.59862)"/><path class="a6b4e032-e17f-4b5a-93fd-9c3d053ca687" d="M35.909,42.787a3.01057,3.01057,0,0,0-.84144-.92806,1.55523,1.55523,0,0,1,.48053.19122.7239.7239,0,0,1,.31244.40092,1.0924,1.0924,0,0,1,.18373-.62183,1.02108,1.02108,0,0,0,.03675.58841,1.8913,1.8913,0,0,1,.52267-.32989.52522.52522,0,0,0-.17924.45438.72272.72272,0,0,1,.26866-.05728.61606.61606,0,0,0-.08056.4l.01655-.08973"/><path class="a6b4e032-e17f-4b5a-93fd-9c3d053ca687" d="M53.328,34.00185a3.01069,3.01069,0,0,0-.84144-.92806,1.555,1.555,0,0,1,.48053.19123.72379.72379,0,0,1,.31243.40091,1.09243,1.09243,0,0,1,.18374-.62182,1.021,1.021,0,0,0,.03675.5884,1.8913,1.8913,0,0,1,.52267-.32989.52523.52523,0,0,0-.17924.45438.72292.72292,0,0,1,.26866-.05728.61606.61606,0,0,0-.08056.4l.01655-.08973"/><path class="a6b4e032-e17f-4b5a-93fd-9c3d053ca687" d="M44.93985,39.10385l-.47094-1.20411a.99272.99272,0,0,1,.3571.25688,1.87961,1.87961,0,0,1,.23884-.44843c-.03567.01466-.00053.07614.03723.06832s.058-.04777.075-.08241.04341-.073.082-.07229c.03436.08076-.0319.16509-.06445.24659s.02157.21407.10123.17723a.31611.31611,0,0,0-.09159.28613l.21268-.01884a.6234.6234,0,0,0-.14207.66532"/><path class="a6b4e032-e17f-4b5a-93fd-9c3d053ca687" d="M33.07813,36.80506c.066-.16358.289-.25548.17435-.38949l-.383-.4475a1.28692,1.28692,0,0,1,.32179.36406l.05873-.21929a.12973.12973,0,1,0,.2571.031.6448.6448,0,0,0,.04358.30991,1.46467,1.46467,0,0,1,.57583-.81893,1.22753,1.22753,0,0,0-.25762.75407.10141.10141,0,0,0,.112-.10125.061.061,0,0,0,.11182.01818l-.02256.14216.19622.03694c-.05053.0658-.00789.173.0463.23582"/><path class="a6b4e032-e17f-4b5a-93fd-9c3d053ca687" d="M18.18445,43.72114c.066-.16358.289-.25548.17434-.38949l-.383-.4475a1.28694,1.28694,0,0,1,.3218.36406l.05873-.21929a.12973.12973,0,1,0,.2571.03095.64471.64471,0,0,0,.04358.30992,1.46463,1.46463,0,0,1,.57583-.81893,1.2275,1.2275,0,0,0-.25762.75406.1014.1014,0,0,0,.112-.10125.061.061,0,0,0,.11183.01819l-.02256.14216.19622.03693c-.05053.06581-.00789.173.04629.23583"/><path class="a6b4e032-e17f-4b5a-93fd-9c3d053ca687" d="M14.434,31.85084a2.62783,2.62783,0,0,1-.3597-.926l.199.35674a.89217.89217,0,0,0,.10131-.3514.24856.24856,0,0,1,.00947.26321A.424.424,0,0,0,14.6,31.03655a.95717.95717,0,0,1-.02082.264l.15176.01207a.81888.81888,0,0,0,.0683.41471"/><path class="a6b4e032-e17f-4b5a-93fd-9c3d053ca687" d="M27.08635,34.15206c.20408-.24995-.00452-.58576-.05308-.853l.199.35674a.89235.89235,0,0,0,.10132-.3514.24862.24862,0,0,1,.00948.26321.52371.52371,0,0,0,.21015-.14072c-.1356.14162.164.40542.33907.17485a.3057.3057,0,0,0,.1149.41065"/><path class="a6b4e032-e17f-4b5a-93fd-9c3d053ca687" d="M8.45882,37.33045a.67985.67985,0,0,0,.26242-.83345,2.38129,2.38129,0,0,1,.20362.49828.356.356,0,0,1,.19073-.16746,1.56507,1.56507,0,0,1-.00889.28928l.28542-.16114a.12975.12975,0,1,0,.21575.13976,3.61885,3.61885,0,0,0,.38977.26034"/><path class="a6b4e032-e17f-4b5a-93fd-9c3d053ca687" d="M56.28647,41.21249a.67985.67985,0,0,0,.26243-.83345,2.38126,2.38126,0,0,1,.20361.49828.356.356,0,0,1,.19074-.16746,1.565,1.565,0,0,1-.00889.28928l.28542-.16114a.12975.12975,0,1,0,.21575.13976,3.61823,3.61823,0,0,0,.38976.26034"/><path class="a6b4e032-e17f-4b5a-93fd-9c3d053ca687" d="M38.75747,30.5234a1.39818,1.39818,0,0,1-.25927-.62063,1.07009,1.07009,0,0,0,.21875.34854l.14837-.30711.06983.18757.22886-.22845a.13718.13718,0,0,0,.20232.18531.43484.43484,0,0,0-.06306.22c.00614.077.07088.155.14759.14566"/><ellipse class="b17364ae-f39e-4423-8a2d-7bd1a6d07441" cx="35.87393" cy="32.40646" rx="7.69658" ry="0.74995"/><path class="eb6d17df-db0d-4d6b-8040-654e622fdcc7" d="M34.02013,27.26453a6.16359,6.16359,0,0,1,1.49573.98069q.07177-.92727.21-1.8425-.55443-.09981-1.111-.17658-.31547-1.705-.53047-3.4395c.02961.23888-1.29229.40119-1.42084.41626a13.8966,13.8966,0,0,0,.56018,1.89C33.36835,25.865,33.37963,26.971,34.02013,27.26453Z"/><path class="bdd59916-ad36-4e9b-9931-05299a86fa1b" d="M35.452,29.27152a13.63468,13.63468,0,0,1,.16413,3.26459s1.47684.20608,2.13287.2779a1.60465,1.60465,0,0,0,.58419-.15111l.29393-3.49317s-.07116-.67675-.11378-1.01387a12.71757,12.71757,0,0,1-.05883-2.29263,8.71246,8.71246,0,0,0-.27376-1.90789l-2.838-.30851S35.02517,28.00919,35.452,29.27152Z"/><path class="eb6d17df-db0d-4d6b-8040-654e622fdcc7" d="M37.15237,28.30019a1.54521,1.54521,0,0,1,.72392.57974A9.96,9.96,0,0,1,41.1049,27.0805a.43788.43788,0,0,0,.10649-.07452.791.791,0,0,0,.01866-.1268L41.22156,24.001l.046-.35413-1.256.18543a10.45543,10.45543,0,0,1,.1793,1.78152.25563.25563,0,0,1-.13753.24706c-.42637.16876-1.69764.827-1.8247.888a5.6509,5.6509,0,0,1-.96172.25468S37.15527,27.89441,37.15237,28.30019Z"/><g class="b0f71542-b2d8-4bc1-8faf-7cc508faf4f4"><path class="fc760906-c28c-4fe1-b0ee-8d7587c75d7f" d="M36.73552,30.634q.00357.07088.00427.14251.00854.95159-.01288,1.90306a3.52955,3.52955,0,0,1-.11576.97757c-.31048.97188-1.27138.4461-1.75944.11677a.75463.75463,0,0,1-.314-.33831,1.38088,1.38088,0,0,1-.06555-.4847q-.05364-3.21954-.04681-6.44041a6.45236,6.45236,0,0,1,.12727-1.53846c.21116-.841,1.12015-1.48485,1.691-.96614.32056.29129.18047,1.16506.1768,1.66126q-.00843,1.14058-.01683,2.28134C36.39663,28.89028,36.68876,29.70481,36.73552,30.634Z"/></g><path class="aec852ba-6a59-4223-8429-3d67140f82b5" d="M37.28612,29.28883c.06378.20573.1426.40866.22808.62909.05552.14317.13765.303.25842.30161.10522-.00122.183-.12607.24431-.24027q.2101-.39168.4072-.79541a1.90362,1.90362,0,0,0,.24787-.84.35423.35423,0,0,0-.03956-.18291c-.06571-.10318-.18894-.06763-.28479-.02323a1.5184,1.5184,0,0,1-.54751.18469c-.20309.01013-.4043-.051-.60706-.05726a.05515.05515,0,0,0-.05528.023.1119.1119,0,0,0-.00831.05494A3.28222,3.28222,0,0,0,37.28612,29.28883Z"/><path class="bcfc4d3c-86f5-4e0e-9692-cefa8837a19a" d="M41.23929,26.75685c.00135.071.001.14225.0017.21314a.118.118,0,0,1-.00941.05883.069.069,0,0,1-.0311.02532,3.66457,3.66457,0,0,1-.50389.23916,6.51334,6.51334,0,0,0-1.44307.62275c-.41695.245-.79249.624-1.21621.83626a.35441.35441,0,0,1-.303.02363.65837.65837,0,0,1-.16142-.117c-.14574-.12937-.30121-.217-.449-.33906.15932-.1737.435-.18117.63771-.25377a10.46854,10.46854,0,0,0,1.15232-.5368c.33711-.16991.68843-.301,1.03375-.43694.23212-.09136.46511-.18019.70033-.25637a5.82757,5.82757,0,0,1,.58622-.20862C41.237,26.67032,41.23847,26.71352,41.23929,26.75685Z"/><path class="fd71924c-9cec-4be5-8830-8ae22191f909" d="M28.8084,18.20558a3.871,3.871,0,0,0,.2214,1.54761.49673.49673,0,0,1,.04575.29814.56028.56028,0,0,1-.10729.17623,2.08435,2.08435,0,0,0-.45964,1.98227,2.51185,2.51185,0,0,0,2.97045,1.52207,2.78218,2.78218,0,0,0,2.04375.83915,3.6531,3.6531,0,0,0,2.29085-.75737,5.15394,5.15394,0,0,0,1.07824.53825,7.828,7.828,0,0,0,1.44211.24662A5.48089,5.48089,0,0,0,41.0511,24.318a4.41171,4.41171,0,0,0,1.86338-1.80357,1.83547,1.83547,0,0,0,1.90165-.61128,2.49178,2.49178,0,0,0,.71758-1.57569,1.8181,1.8181,0,0,0-.74675-1.53356.92424.92424,0,0,0-.45892-1.46276,1.40572,1.40572,0,0,0-.18962-1.75938,3.78093,3.78093,0,0,0-1.79191-.98484,1.94632,1.94632,0,0,0-.56433-2.15436,2.64684,2.64684,0,0,0-2.44789-.482c.039-.08063.16608.01986.18718.10552a3.50764,3.50764,0,0,0-4.42335-1.42383,2.414,2.414,0,0,0-1.47833,1.77616,2.44558,2.44558,0,0,0-3.08133,2.60033c.00276.21171.05539.42124.06048.6309.00633.26135.0289.18584-.20877.27185a2.53539,2.53539,0,0,0-1.53491,1.89A3.80306,3.80306,0,0,0,28.8084,18.20558Z"/><g class="adefefad-4b22-4c85-a7b0-6f272c46b15e"><path class="ad191dc0-4647-4f18-822a-dd5544d62481" d="M28.8084,18.20558a3.871,3.871,0,0,0,.2214,1.54761.49673.49673,0,0,1,.04575.29814.56028.56028,0,0,1-.10729.17623,2.08435,2.08435,0,0,0-.45964,1.98227,2.51185,2.51185,0,0,0,2.97045,1.52207,2.78218,2.78218,0,0,0,2.04375.83915,3.6531,3.6531,0,0,0,2.29085-.75737,5.15394,5.15394,0,0,0,1.07824.53825,7.828,7.828,0,0,0,1.44211.24662A5.48089,5.48089,0,0,0,41.0511,24.318a4.41171,4.41171,0,0,0,1.86338-1.80357,1.83547,1.83547,0,0,0,1.90165-.61128,2.49178,2.49178,0,0,0,.71758-1.57569,1.8181,1.8181,0,0,0-.74675-1.53356.92424.92424,0,0,0-.45892-1.46276,1.40572,1.40572,0,0,0-.18962-1.75938,3.78093,3.78093,0,0,0-1.79191-.98484,1.94632,1.94632,0,0,0-.56433-2.15436,2.64684,2.64684,0,0,0-2.44789-.482c.039-.08063.16608.01986.18718.10552a3.50764,3.50764,0,0,0-4.42335-1.42383,2.414,2.414,0,0,0-1.47833,1.77616,2.44558,2.44558,0,0,0-3.08133,2.60033c.00276.21171.05539.42124.06048.6309.00633.26135.0289.18584-.20877.27185a2.53539,2.53539,0,0,0-1.53491,1.89A3.80306,3.80306,0,0,0,28.8084,18.20558Z"/></g><ellipse class="adf7974c-9e58-4b95-8d4c-709671f7c065" cx="39.46232" cy="19.35361" rx="3.53714" ry="3.11808"/><ellipse class="adf7974c-9e58-4b95-8d4c-709671f7c065" cx="38.55611" cy="16.10668" rx="3.53714" ry="3.11808"/><ellipse class="adf7974c-9e58-4b95-8d4c-709671f7c065" cx="34.25" cy="20.23071" rx="3.55239" ry="3.13153"/><path class="adf7974c-9e58-4b95-8d4c-709671f7c065" d="M33.41829,20.7937c-.028.68816-.62653,1.12322-1.34527,1.53029a1.82782,1.82782,0,0,1-.845.28168,1.94591,1.94591,0,0,1-2.13223-1.81191A2.04724,2.04724,0,0,1,31.259,18.88683a2.15436,2.15436,0,0,1,2.09437,1.42774A1.48135,1.48135,0,0,1,33.41829,20.7937Z"/><path class="aaca46a0-bf0d-4964-8791-2913e78c7fb5" d="M29.10873,18.41787a2.28463,2.28463,0,0,0,.71,1.44113,3.37794,3.37794,0,0,0,1.02284.699,3.56911,3.56911,0,0,0,1.74477.20151,4.709,4.709,0,0,0,1.6309-.55862,2.48067,2.48067,0,0,0,1.2209-1.715,1.90474,1.90474,0,0,0,1.73883.84474,2.93992,2.93992,0,0,0,1.6432-.4583,2.05472,2.05472,0,0,0,.39874-3.10291,3.52809,3.52809,0,0,0-1.04366-.65743,4.43056,4.43056,0,0,0,.96983-.69053,1.95727,1.95727,0,0,0-.3828-2.65625,3.36552,3.36552,0,0,0-3.44348-.63695,2.33058,2.33058,0,0,0-1.23839,1.80631,2.50855,2.50855,0,0,0-2.35439.38882,1.98,1.98,0,0,0-.7315,1.5589,2.21392,2.21392,0,0,0,.28539,1.28238,1.66107,1.66107,0,0,0-1.00429.12017A2.04266,2.04266,0,0,0,29.10873,18.41787Z"/><path class="aa1b3545-e919-4ec7-a06c-195d0bc20917" d="M35.65785,13.42172c-.66038.08385-.80183.5968-1.08961,1.01145-.3571.51455-1.16732.41772-1.7427.37516a1.52457,1.52457,0,0,0-1.37761.47062.76046.76046,0,0,0,.00524.75754,1.52156,1.52156,0,0,0,.60219.56636,3.16336,3.16336,0,0,0,2.29992.25858,3.78238,3.78238,0,0,0,1.91024-1.207,1.7829,1.7829,0,0,0,.52222-1.36057A1.0626,1.0626,0,0,0,35.65785,13.42172Z"/><path class="b0066cc6-eb26-4818-88c2-aabcc3d19728" d="M34.51866,32.91708c.64786.35086,2.05764.20837,2.05289-.75669-.00585-1.18817-1.72391-1.498-2.37353-.66353A.95516.95516,0,0,0,34.51866,32.91708Z"/><path class="b0066cc6-eb26-4818-88c2-aabcc3d19728" d="M38.98535,32.00918a.72317.72317,0,0,0-.41542-.20485,1.38787,1.38787,0,0,0-.90024.03244.60119.60119,0,0,0-.32745.75639.71091.71091,0,0,0,.45976.3233,1.6236,1.6236,0,0,0,1.14022-.09793c.22988-.111.456-.345.381-.589-.05956-.19386-.2759-.285-.46746-.35162-.04481-.01558-.11929-.00754-.10925.03883"/><path class="b0066cc6-eb26-4818-88c2-aabcc3d19728" d="M34.67232,31.70679a.72314.72314,0,0,0-.41542-.20485,1.38787,1.38787,0,0,0-.90024.03244.60119.60119,0,0,0-.32745.75639.71091.71091,0,0,0,.45976.3233,1.62368,1.62368,0,0,0,1.14023-.09792c.22987-.111.456-.345.381-.589-.05955-.19386-.2759-.285-.46745-.35162-.04482-.01558-.11929-.00754-.10925.03883"/><path class="b0066cc6-eb26-4818-88c2-aabcc3d19728" d="M39.65383,31.62687c.12329.02337.25977-.03326.37195.023a.27485.27485,0,0,1,.03788.41475.64874.64874,0,0,1-.43812.17059c-.5533.04792-1.81042-.24306-1.22151-1.02561C39.01429,30.39867,39.18918,31.5388,39.65383,31.62687Z"/></g></g></g></svg>