<svg id="b0c1fa44-f57f-4497-ac95-ff2cc89beb9d" data-name="Layer 1" xmlns="http://www.w3.org/2000/svg" viewBox="0 0 31.77127 29.9338"><defs><style>.a944197e-d833-4d40-a00e-58bb7d4f1220{fill:#eeb95b;}.a214baf3-cf5a-4e8d-b3f9-1fefedcf8665{fill:none;stroke:#eeddc4;stroke-miterlimit:10;stroke-dasharray:4 0.5 3 0.2;}.fc176e4e-32d8-4ffa-88f9-8e51aeb6602b,.fe927875-0e04-47ea-9d22-72b1483fd789{fill:#a97c50;}.fc176e4e-32d8-4ffa-88f9-8e51aeb6602b{opacity:0.38;}.a0bf2710-b14e-49d6-9a8a-6ba2e21c07bf{fill:#fff;opacity:0.5;}.fe927875-0e04-47ea-9d22-72b1483fd789{opacity:0.2;}</style></defs><title>Artboard 53</title><path class="a944197e-d833-4d40-a00e-58bb7d4f1220" d="M13.55193,10.283A10.79208,10.79208,0,0,0,8.66258,7.65485c-2.50644-.59867-5.99317.09249-7.00728,2.79061a4.50426,4.50426,0,0,0,.4472,4.02842A7.058,7.058,0,0,0,5.45268,17.297c1.28371.473,2.4877,1.0946,3.74705,1.59315,2.57621,1.01986,3.73195,3.66314,5.35314,5.7467a16.41112,16.41112,0,0,0,5.55434,4.4595,8.96333,8.96333,0,0,0,4.77918.7975,8.65243,8.65243,0,0,0,2.87929-.47651,6.05091,6.05091,0,0,0,1.54724-1.42715,9.7643,9.7643,0,0,0,2.22417-4.03749,8.53727,8.53727,0,0,0-5.37785-9.94565,12.696,12.696,0,0,0-4.9925-.64336,13.34513,13.34513,0,0,1-4.14865-.45148C15.53433,12.417,14.64778,11.32172,13.55193,10.283Z"/><path class="a214baf3-cf5a-4e8d-b3f9-1fefedcf8665" d="M2.512,10.871a2.55169,2.55169,0,0,0-.27392,1.64049c.21531,1.88,1.574,2.7866,3.12471,3.67543,1.64832.94475,3.62011,1.23108,5.22726,2.2443,2.61718,1.65,3.996,4.69823,6.36844,6.64521a17.13476,17.13476,0,0,0,5.73833,3.44964,9.61437,9.61437,0,0,0,3.733.357,3.96625,3.96625,0,0,0,3.222-1.73158"/><path class="a214baf3-cf5a-4e8d-b3f9-1fefedcf8665" d="M3.484,9.7252a5.89238,5.89238,0,0,0,1.20808,4.23817c.358-.11814.84412.46894,1.19442.6717A8.13073,8.13073,0,0,0,7.44,15.30048a22.28059,22.28059,0,0,1,4.45215,1.65008c2.05079,1.18537,3.20084,3.39239,4.78737,5.10149a14.50368,14.50368,0,0,0,5.29687,3.85566A12.5867,12.5867,0,0,0,25.642,26.91005a6.63592,6.63592,0,0,0,2.76556-.42632,3.87723,3.87723,0,0,0,2.10623-2.08608"/><path class="a214baf3-cf5a-4e8d-b3f9-1fefedcf8665" d="M3.89859,9.25726a8.48421,8.48421,0,0,1,8.99962,1.7232c.54687.53628,1.01817,1.14727,1.58356,1.664a6.65219,6.65219,0,0,0,3.51064,1.66144c1.53194.22151,3.09444-.09956,4.63751.02228,3.96318.31291,8.81079,3.72721,7.94594,8.24065"/><path class="a214baf3-cf5a-4e8d-b3f9-1fefedcf8665" d="M3.92268,10.27475c-.10206-.03193-.09363.18107.01311.18746s.18229-.09723.24538-.18358A2.1746,2.1746,0,0,1,5.89883,9.478a5.0643,5.0643,0,0,1,1.90525.41973,15.79155,15.79155,0,0,1,5.36844,3.4519,15.53379,15.53379,0,0,0,1.89224,1.754c2.33826,1.631,5.27236.69322,7.898.94846,3.88828.378,5.64962,3.525,7.33273,6.61035.01307.024.02549.05579.00741.07625s-.05847-.01968-.03256-.02829"/><path class="a214baf3-cf5a-4e8d-b3f9-1fefedcf8665" d="M30.40758,23.6989c-4.27078,1.72035-9.15112-.34535-12.24786-3.41786-1.03747-1.02936-1.87865-2.26267-2.95058-3.25384a8.31769,8.31769,0,0,0-3.61375-1.75087,22.18209,22.18209,0,0,1-3.83074-1.14889c-1.09716-.51475-2.84946-1.7137-2.76858-3.10949a9.30634,9.30634,0,0,1,3.97414.80475,22.96863,22.96863,0,0,1,4.74256,3.07608,21.85206,21.85206,0,0,0,3.21535,2.2948c2.01537,1.06645,4.342.46476,6.44582,1.116a9.25794,9.25794,0,0,1,3.24036,1.63618c1.32561,1.10639,2.20571,2.79511,3.70485,3.6747"/><path class="a214baf3-cf5a-4e8d-b3f9-1fefedcf8665" d="M7.55212,12.50879,10.56706,13.931"/><path class="a214baf3-cf5a-4e8d-b3f9-1fefedcf8665" d="M19.71944,19.3011c1.3637.53038,2.65928,1.17457,3.968,1.82367,1.00605.499,2.40416.74181,3.23937,1.50174"/><path class="a214baf3-cf5a-4e8d-b3f9-1fefedcf8665" d="M5.10447,9.64116a1.86833,1.86833,0,0,0-2.38381,1.25416c-.23832-.41044.8083-1.375,1.27945-1.43223A1.23233,1.23233,0,0,1,5.151,10.152a3.61889,3.61889,0,0,1,.33953,1.37261l.24687,2.21609a3.00706,3.00706,0,0,0,.45441,1.52139,1.03587,1.03587,0,0,0,1.40734.2938A1.50374,1.50374,0,0,0,7.99,14.86011l1.05233-3.05669c1.49321.981,1.78887,3.04679,2.92356,4.4268a.72529.72529,0,0,0,.44054.30542.73233.73233,0,0,0,.57827-.318c.84811-.95656,1.27075-2.24692,2.18691-3.13852a.7767.7767,0,0,1,.406-.24477c.3059-.04463.55611.2382.70411.50961,1.59378,2.92285-1.29707,6.946.51248,9.74039a.91361.91361,0,0,0,.51958.44085c.40106.0896.74145-.29607.93889-.65647,1.15034-2.09985.94729-4.73424,2.07558-6.846a1.12759,1.12759,0,0,1,.7301-.67043,1.06956,1.06956,0,0,1,.92487.52675,6.398,6.398,0,0,1,.79669,4.65885,14.08411,14.08411,0,0,0-.19781,4.81653c.13816.60362.58989,1.30246,1.19286,1.16151.43062-.10066.64233-.57966.76284-1.00515.70259-2.48069.49464-5.23741,1.724-7.50372,1.70865,1.68453,1.26621,4.59173,2.46619,6.6695.11512.19933.28033.4109.51039.41844a.70165.70165,0,0,0,.53388-.3715,5.16386,5.16386,0,0,0,.80853-1.81587"/><path class="fc176e4e-32d8-4ffa-88f9-8e51aeb6602b" d="M18.23542,15.43988c.16018,2.03428.67567,4.02689.85771,6.05932a9.2375,9.2375,0,0,1-1.12353,5.90022c-.045.06875-.102.14319-.18387.151a.28656.28656,0,0,1-.20015-.096l-2.34622-2.04183a2.40035,2.40035,0,0,1-.557-.61134,2.32693,2.32693,0,0,1-.22162-.92958q-.15591-1.70486-.15076-3.41934a12.97272,12.97272,0,0,1,.44692-3.75985,5.71263,5.71263,0,0,1,2.10733-3.07643,2.39229,2.39229,0,0,1,1.80928-.52133A4.91959,4.91959,0,0,0,18.23542,15.43988Z"/><path class="a944197e-d833-4d40-a00e-58bb7d4f1220" d="M20.21385,12.26411a10.792,10.792,0,0,0,2.89533-4.736c.7368-2.46937.24014-5.98908-2.39756-7.15131a4.50427,4.50427,0,0,0-4.047.223A7.058,7.058,0,0,0,13.66,3.78821c-.54346,1.2555-1.23092,2.42315-1.79857,3.6529-1.16121,2.51566-3.86453,3.523-6.03483,5.02608a16.41122,16.41122,0,0,0-4.76078,5.29838A8.96345,8.96345,0,0,0,.00436,22.49315a8.65258,8.65258,0,0,0,.316,2.90129,6.051,6.051,0,0,0,1.33912,1.624A9.764,9.764,0,0,0,5.5674,29.4632a8.53726,8.53726,0,0,0,10.22868-4.8178,12.69561,12.69561,0,0,0,.91934-4.94911,13.34546,13.34546,0,0,1,.68094-4.11722C17.9731,14.12507,19.11591,13.30065,20.21385,12.26411Z"/><path class="a214baf3-cf5a-4e8d-b3f9-1fefedcf8665" d="M20.23919,1.20857A2.55175,2.55175,0,0,0,18.61642.84406c-1.889.11068-2.86963,1.417-3.84312,2.916-1.03474,1.59337-1.43,3.54624-2.53084,5.09471-1.79264,2.5216-4.91268,3.7292-6.98829,5.99a17.13454,17.13454,0,0,0-3.76266,5.53811A9.61429,9.61429,0,0,0,.928,24.09029a3.96626,3.96626,0,0,0,1.55017,3.31308"/><path class="a214baf3-cf5a-4e8d-b3f9-1fefedcf8665" d="M21.32931,2.24266a5.89237,5.89237,0,0,0-4.29866.9711c.09809.364-.51505.8168-.73694,1.15532a8.13068,8.13068,0,0,0-.75056,1.51412A22.28,22.28,0,0,1,13.64861,10.237c-1.29731,1.98186-3.56473,3.00771-5.35922,4.497a14.50365,14.50365,0,0,0-4.14358,5.07481,12.58686,12.58686,0,0,0-1.20416,3.60438,6.636,6.636,0,0,0,.27223,2.785,3.87731,3.87731,0,0,0,1.966,2.21872"/><path class="a214baf3-cf5a-4e8d-b3f9-1fefedcf8665" d="M21.77353,2.68254a8.48424,8.48424,0,0,1-2.21982,8.89017c-.56579.51627-1.202.95295-1.74928,1.4888a6.65227,6.65227,0,0,0-1.85364,3.41306c-.30616,1.5173-.07227,3.0952-.27952,4.62914-.5323,3.93971-4.21027,8.59044-8.66878,7.47652"/><path class="a214baf3-cf5a-4e8d-b3f9-1fefedcf8665" d="M20.75627,2.65015c.03755-.10013-.1756-.10354-.18789.00269s.087.1874.16968.25518a2.17466,2.17466,0,0,1,.70414,1.75944,5.06456,5.06456,0,0,1-.52479,1.879A15.79133,15.79133,0,0,1,17.173,11.71515a15.53488,15.53488,0,0,0-1.85625,1.792c-1.75816,2.24419-.98465,5.22578-1.38516,7.83318-.59311,3.86132-3.833,5.44537-7.007,6.95471-.02466.01173-.05711.02236-.07653.00317s.02289-.05729.03-.03094"/><path class="a214baf3-cf5a-4e8d-b3f9-1fefedcf8665" d="M5.88347,28.34951c-1.48076-4.35964.85251-9.11786,4.09209-12.03937,1.08532-.97877,2.3634-1.75023,3.41251-2.76552a8.31765,8.31765,0,0,0,1.94866-3.51106,22.18279,22.18279,0,0,1,1.35964-3.7611c.57483-1.06691,1.86914-2.75,3.2583-2.5918a9.3065,9.3065,0,0,1-1.024,3.92337,22.96894,22.96894,0,0,1-3.33445,4.5646,21.85266,21.85266,0,0,0-2.46965,3.08309c-1.17661,1.9531-.70493,4.30955-1.47189,6.374A9.25834,9.25834,0,0,1,9.84125,24.7703C8.663,26.03248,6.92809,26.81754,5.96668,28.26557"/><path class="a214baf3-cf5a-4e8d-b3f9-1fefedcf8665" d="M18.32432,6.15006,16.737,9.08145"/><path class="a214baf3-cf5a-4e8d-b3f9-1fefedcf8665" d="M10.86745,17.92182c-.60521,1.33218-1.32029,2.59-2.041,3.86073-.554.97681-.874,2.3593-1.67913,3.15107"/><path class="a214baf3-cf5a-4e8d-b3f9-1fefedcf8665" d="M21.32332,3.86527a1.86833,1.86833,0,0,0-1.12-2.44972c.423-.21518,1.328.88334,1.359,1.35693a1.23232,1.23232,0,0,1-.75167,1.111,3.61892,3.61892,0,0,1-1.38933.26286L17.195,4.26983a3.00716,3.00716,0,0,0-1.54426.36931A1.03588,1.03588,0,0,0,15.27933,6.028a1.50377,1.50377,0,0,0,.673.42883l2.99361,1.22028c-1.06228,1.4365-3.14135,1.61709-4.58217,2.67348a.72527.72527,0,0,0-.3294.42291.73234.73234,0,0,0,.2854.595c.908.89987,2.173,1.39345,3.01236,2.35766a.77674.77674,0,0,1,.22187.419c.02759.3079-.26868.542-.54788.67475-3.00677,1.42917-6.86333-1.68042-9.75383-.02868a.91356.91356,0,0,0-.469.49431c-.11172.39548.25447.75674.60337.97387,2.0328,1.26507,4.67439,1.20848,6.72032,2.45219a1.12759,1.12759,0,0,1,.62889.76617,1.06954,1.06954,0,0,1-.57725.89422,6.398,6.398,0,0,1-4.69588.537,14.08378,14.08378,0,0,0-4.79813-.46472c-.61035.10446-1.33318.51672-1.2259,1.12659.07661.43554.54314.6735.96128.81743,2.43789.83913,5.2019.78444,7.39652,2.13762-1.77673,1.61256-4.6549,1.00951-6.796,2.09237-.20541.10388-.42582.2571-.44611.48639a.7016.7016,0,0,0,.34131.55367,5.164,5.164,0,0,0,1.76821.908"/><path class="a0bf2710-b14e-49d6-9a8a-6ba2e21c07bf" d="M7.69142,11.882A15.20736,15.20736,0,0,1,9.12364,11.035,12.37285,12.37285,0,0,1,6.43419,17.505a27.42445,27.42445,0,0,1-2.08555,1.84026,13.50526,13.50526,0,0,0-3.11781,4.048,11.73648,11.73648,0,0,1,1.14132-6.41992,13.08423,13.08423,0,0,1,2.4699-2.78556A22.43445,22.43445,0,0,1,7.69142,11.882Z"/><path class="a0bf2710-b14e-49d6-9a8a-6ba2e21c07bf" d="M16.0795,8.93307A6.30738,6.30738,0,0,1,18.52624,5.667a17.287,17.287,0,0,1,3.6879-1.89673,7.20209,7.20209,0,0,1-.48906,4.73291,11.787,11.787,0,0,1-2.61741,3.56088c-.3893.38087-.8626.68736-1.23966,1.06931A9.25178,9.25178,0,0,0,16.62885,15.143C16.30274,13.21042,15.53341,10.8705,16.0795,8.93307Z"/><path class="fe927875-0e04-47ea-9d22-72b1483fd789" d="M15.99033,16.15422a10.89839,10.89839,0,0,1-.4514,5.23877,5.32086,5.32086,0,0,0-.782-2.48376c-.411-.66512-.96706-1.23579-1.33857-1.92376-1.44824-2.68186.40425-5.98685,2.10657-8.08033a9.09974,9.09974,0,0,0-.1315,3.64427C15.59572,13.75456,15.85105,14.93649,15.99033,16.15422Z"/><path class="a0bf2710-b14e-49d6-9a8a-6ba2e21c07bf" d="M24.1695,17.83618c1.034,1.12418,2.271,2.0469,3.30651,3.16963a6.22317,6.22317,0,0,1,1.887,4.05786,6.48753,6.48753,0,0,0-2.29742-9.56562c-.83882-.44234-2.09324-1.06-3.032-.59068C22.70624,15.571,23.40511,17.00509,24.1695,17.83618Z"/></svg>