<svg id="ffdd4e43-4b10-460c-93fc-22d3108b5f3b" data-name="Layer 1" xmlns="http://www.w3.org/2000/svg" xmlns:xlink="http://www.w3.org/1999/xlink" viewBox="0 0 57.61837 41.49306"><defs><style>.bfa0387c-ef91-4de6-ba9c-d293d56325f5,.fb11b322-17aa-4096-b8a6-38b5184eab6b{fill:none;}.eb8ba7ac-0038-496d-902d-7a47f1a796fd{fill:#bcbec0;}.a2fbf208-ecdf-4ddf-bb87-f998f1c8159c{clip-path:url(#e489bb9a-b52c-4793-b472-9980e6c39503);}.b2acf804-6dea-4663-b02b-adf44553a0c2{fill:#fff;}.f2b846bb-89f2-4507-b182-1ff1b87a350e{fill:#e6e7e8;}.aaa6f2fe-8417-43f7-84f7-ecbbef537e3c{fill:#e86978;}.bdecc7b7-2598-43e4-aa4c-6bcf6fb12ab9{fill:#f26522;}.befe4ce3-71e5-445e-a0e0-9fdf4d2b1224{clip-path:url(#a56a3540-54d5-46e2-906c-f805dc739215);}.bfa0387c-ef91-4de6-ba9c-d293d56325f5{stroke:#eeddc4;stroke-miterlimit:10;stroke-width:0.63002px;}</style><clipPath id="e489bb9a-b52c-4793-b472-9980e6c39503"><ellipse class="fb11b322-17aa-4096-b8a6-38b5184eab6b" cx="49.1498" cy="30.64254" rx="6.70121" ry="7.30777" transform="translate(1.97091 64.24046) rotate(-67.39771)"/></clipPath><clipPath id="a56a3540-54d5-46e2-906c-f805dc739215"><path class="fb11b322-17aa-4096-b8a6-38b5184eab6b" d="M35.32642,8.11019,9.1454,27.86405a5.078,5.078,0,0,0,.91715,4.39825A4.63431,4.63431,0,0,0,14.042,34.35377L40.223,14.5999Z"/></clipPath></defs><title>Artboard 58</title><ellipse class="eb8ba7ac-0038-496d-902d-7a47f1a796fd" cx="50.01693" cy="31.03335" rx="7.05206" ry="7.69037" transform="translate(2.14398 65.28161) rotate(-67.39771)"/><g class="a2fbf208-ecdf-4ddf-bb87-f998f1c8159c"><ellipse class="b2acf804-6dea-4663-b02b-adf44553a0c2" cx="49.1498" cy="30.64254" rx="6.70121" ry="7.30777" transform="translate(1.97091 64.24046) rotate(-67.39771)"/><polygon class="eb8ba7ac-0038-496d-902d-7a47f1a796fd" points="42.841 33.93 54.874 26.672 55.9 27.459 43.112 35.173 42.841 33.93"/></g><path class="f2b846bb-89f2-4507-b182-1ff1b87a350e" d="M38.53277,27.16027h0a4.17554,4.17554,0,0,1,4.17554,4.17554v9.29263A4.17554,4.17554,0,0,1,38.53277,44.804h0a4.17553,4.17553,0,0,1-4.17553-4.17553V31.33581A4.17554,4.17554,0,0,1,38.53277,27.16027Z" transform="translate(-0.88442 70.99317) rotate(-84.65158)"/><path class="aaa6f2fe-8417-43f7-84f7-ecbbef537e3c" d="M38.32462,40.15644l4.445.41614a4.17554,4.17554,0,1,0,.77842-8.31472l-4.305-.403A13.14917,13.14917,0,0,1,38.32462,40.15644Z"/><ellipse class="b2acf804-6dea-4663-b02b-adf44553a0c2" cx="4.18746" cy="36.8213" rx="3.44608" ry="5.24162" transform="translate(-21.3328 9.95014) rotate(-37.03495)"/><path class="f2b846bb-89f2-4507-b182-1ff1b87a350e" d="M10.25235,28.41971,1.63177,34.924s-.43035,1.20944.98363,3.08347a4.18616,4.18616,0,0,0,2.57331,1.63077l8.62058-6.50433A4.00769,4.00769,0,0,0,10.25235,28.41971Z"/><ellipse class="b2acf804-6dea-4663-b02b-adf44553a0c2" cx="11.57386" cy="31.24819" rx="3.44608" ry="5.24162" transform="translate(-16.48603 13.27471) rotate(-37.03495)"/><path class="bdecc7b7-2598-43e4-aa4c-6bcf6fb12ab9" d="M35.32642,8.11019,9.1454,27.86405a5.078,5.078,0,0,0,.91715,4.39825A4.63431,4.63431,0,0,0,14.042,34.35377L40.223,14.5999Z"/><ellipse class="b2acf804-6dea-4663-b02b-adf44553a0c2" cx="37.83449" cy="11.43426" rx="2.76617" ry="5.24162" transform="matrix(0.79827, -0.6023, 0.6023, 0.79827, 0.74554, 25.09444)"/><path class="f2b846bb-89f2-4507-b182-1ff1b87a350e" d="M40.479,14.40675s2.39212-2.11091,1.69252-6.32651c-3.78813-1.73226-6.27834.24864-6.27834.24864A5.65552,5.65552,0,0,0,40.479,14.40675Z"/><polygon class="b2acf804-6dea-4663-b02b-adf44553a0c2" points="41.458 8.224 52.844 0.028 41.837 8.727 41.458 8.224"/><g class="befe4ce3-71e5-445e-a0e0-9fdf4d2b1224"><path class="bfa0387c-ef91-4de6-ba9c-d293d56325f5" d="M27.46428,12.85493a5.63524,5.63524,0,0,0,1.48478,4.38579"/><path class="bfa0387c-ef91-4de6-ba9c-d293d56325f5" d="M24.54072,15.26072c-.08989.06029-.36578,2.96165,1.28567,4.3839"/><path class="bfa0387c-ef91-4de6-ba9c-d293d56325f5" d="M21.50827,17.56807c-.08989.06028-.51129,2.8283,1.14016,4.25056"/><path class="bfa0387c-ef91-4de6-ba9c-d293d56325f5" d="M18.59621,19.725c-.08989.06029-.75112,2.867.90032,4.28927"/><path class="bfa0387c-ef91-4de6-ba9c-d293d56325f5" d="M15.66227,21.87426a4.12567,4.12567,0,0,0,1.08759,3.96494"/><path class="bfa0387c-ef91-4de6-ba9c-d293d56325f5" d="M25.94944,14.53009a3.81738,3.81738,0,0,0,.77518,2.705"/><path class="bfa0387c-ef91-4de6-ba9c-d293d56325f5" d="M22.78584,16.89691A3.81735,3.81735,0,0,0,23.561,19.602"/><path class="bfa0387c-ef91-4de6-ba9c-d293d56325f5" d="M19.75331,18.64782a4.07975,4.07975,0,0,0,.50923,3.14179"/><path class="bfa0387c-ef91-4de6-ba9c-d293d56325f5" d="M16.87066,20.89a3.63486,3.63486,0,0,0,.577,2.87943"/></g><path class="bdecc7b7-2598-43e4-aa4c-6bcf6fb12ab9" d="M52.73377.29272A3.08506,3.08506,0,0,1,54.88724.11725a1.746,1.746,0,0,1,1.1258.835.95534.95534,0,0,1-.34767,1.25221,1.10258,1.10258,0,0,1-1.09723-.195,10.01484,10.01484,0,0,1-.83489-.82055A3.2104,3.2104,0,0,0,52.0006.356"/></svg>