<svg id="e9c14222-eaa8-4368-a01f-2709ad90280c" data-name="Layer 1" xmlns="http://www.w3.org/2000/svg" viewBox="0 0 175.87702 32.78409"><defs><style>.e26876fe-e26e-459c-bf09-7a5def74bdc0{fill:#6d6e71;}.bd34e16a-bd94-4962-a36d-68a46249c5d4{fill:#231f20;}.b1355f2c-5225-4d7c-8929-e611f017954f{fill:#414042;}.e5b9abb3-b840-41a2-9553-3336d4f1cbd0{fill:#434247;}.a2452ada-b7e2-4842-bab6-8e824a977026{fill:#232323;}.f7c64c8d-5708-4591-aae5-3830f1659671{fill:#4a4b4d;}.e8bef9df-b9c6-45b3-bf16-733045529916{fill:#58595b;}.ed6a0b5e-4e92-4d9e-a9b9-0b471c78a76b{fill:#57575f;}.f0e7b6c1-da9e-44aa-bee7-2ad3abe92f2f{fill:#f1f2f2;}.ee3acd08-a7a6-4a17-9253-9023e72992b3{fill:#ef5b5b;}.ab86b1fa-062c-44de-9eab-f60f94bb848a,.b8f430d9-871f-416f-b7d2-34ba556f2d56{fill:none;stroke-miterlimit:10;}.b8f430d9-871f-416f-b7d2-34ba556f2d56{stroke:#dd4747;stroke-linecap:round;stroke-width:0.30481px;}.e5d49174-c2ab-4aa3-a0c0-0c92bc827867{fill:#f6d2ba;}.ab86b1fa-062c-44de-9eab-f60f94bb848a{stroke:#ef5b5b;stroke-width:3.86375px;}</style></defs><title>Artboard 60</title><rect class="e26876fe-e26e-459c-bf09-7a5def74bdc0" x="-5.31514" y="10.64139" width="27.4714" height="10.9358" rx="1.74861" transform="translate(24.52985 7.68873) rotate(90)"/><rect class="e26876fe-e26e-459c-bf09-7a5def74bdc0" x="18.79129" y="10.00021" width="27.4714" height="12.21816" rx="1.84829" transform="translate(48.63628 -16.4177) rotate(90)"/><rect class="bd34e16a-bd94-4962-a36d-68a46249c5d4" x="56.92971" y="-0.93919" width="23.50244" height="34.09695" transform="translate(84.79022 -52.57164) rotate(90)"/><rect class="b1355f2c-5225-4d7c-8929-e611f017954f" x="16.37878" y="-7.39316" width="23.50245" height="47.00489" transform="translate(44.2393 -12.02072) rotate(90)"/><rect class="e5b9abb3-b840-41a2-9553-3336d4f1cbd0" x="42.81904" y="-1.67319" width="2.25686" height="15.36998" transform="translate(49.95926 -37.93566) rotate(90)"/><rect class="e5b9abb3-b840-41a2-9553-3336d4f1cbd0" x="42.81904" y="18.3856" width="2.25686" height="15.36998" transform="translate(70.01806 -17.87687) rotate(90)"/><path class="e5b9abb3-b840-41a2-9553-3336d4f1cbd0" d="M81.36609,10.31681h20.31159a1.59543,1.59543,0,0,1,1.59543,1.59543v9.98952a0,0,0,0,1,0,0H79.77066a0,0,0,0,1,0,0V11.91225A1.59543,1.59543,0,0,1,81.36609,10.31681Z" transform="translate(107.63117 -75.41259) rotate(90)"/><rect class="b1355f2c-5225-4d7c-8929-e611f017954f" x="59.43172" y="-2.9159" width="2.18394" height="17.78248" transform="translate(66.49903 -54.54835) rotate(90)"/><rect class="b1355f2c-5225-4d7c-8929-e611f017954f" x="57.45985" y="16.00929" width="23.6063" height="0.30386" transform="translate(85.42422 -53.10178) rotate(90)"/><rect class="b1355f2c-5225-4d7c-8929-e611f017954f" x="59.43172" y="17.17935" width="2.18394" height="17.78248" transform="translate(86.59428 -34.4531) rotate(90)"/><path class="a2452ada-b7e2-4842-bab6-8e824a977026" d="M42.15054,23.5996a14.58906,14.58906,0,0,1-4.71435.58473,1.85424,1.85424,0,0,1,.695-.9687c.4526-.41677.9122-.82788,1.32363-1.28535.37181-.4134.31025-.935.70313-1.37546,1.67058-1.8794,4.1062-2.06774,6.1494-3.24525,1.751-1.0091,1.49222,2.42143,1.15595,3.26675a3.07859,3.07859,0,0,1-1.44806,1.51393A21.30723,21.30723,0,0,1,42.15054,23.5996Z"/><path class="f7c64c8d-5708-4591-aae5-3830f1659671" d="M35.75491,17.647a36.60773,36.60773,0,0,0,.1137,6.15841.6599.6599,0,0,0,.82532.77909,13.47337,13.47337,0,0,0,7.43343-2.84474,2.03573,2.03573,0,0,0,.95844-2.126A2.3597,2.3597,0,0,0,43.81631,18.46a23.3662,23.3662,0,0,0-5.94046-2.06843,1.86021,1.86021,0,0,0-1.76469.26767A1.74187,1.74187,0,0,0,35.75491,17.647Z"/><rect class="a2452ada-b7e2-4842-bab6-8e824a977026" x="33.82572" y="21.71625" width="5.30497" height="0.43145" transform="translate(58.41018 -14.54623) rotate(90)"/><polygon class="e26876fe-e26e-459c-bf09-7a5def74bdc0" points="37.354 27.861 36.922 27.043 28.401 27.043 27.7 28.446 37.354 27.861"/><polygon class="e26876fe-e26e-459c-bf09-7a5def74bdc0" points="37.354 4.242 36.922 5.059 28.401 5.059 27.7 3.657 37.354 4.242"/><rect class="f7c64c8d-5708-4591-aae5-3830f1659671" x="23.46065" y="14.53338" width="22.45184" height="3.15182" rx="0.83459" transform="translate(50.79586 -18.57728) rotate(90)"/><rect class="e8bef9df-b9c6-45b3-bf16-733045529916" x="19.87108" y="13.80379" width="22.45184" height="4.61099" rx="1.00946" transform="translate(47.20629 -14.98771) rotate(90)"/><polygon class="e26876fe-e26e-459c-bf09-7a5def74bdc0" points="12.606 27.861 12.175 27.043 3.653 27.043 2.953 28.446 12.606 27.861"/><polygon class="e26876fe-e26e-459c-bf09-7a5def74bdc0" points="12.606 4.242 12.175 5.059 3.653 5.059 2.953 3.657 12.606 4.242"/><rect class="b1355f2c-5225-4d7c-8929-e611f017954f" x="-4.56389" y="13.81008" width="23.79846" height="4.59842" rx="0.61248" transform="translate(23.44463 8.77395) rotate(90)"/><rect class="e8bef9df-b9c6-45b3-bf16-733045529916" x="-5.66549" y="13.42441" width="23.27099" height="5.36976" rx="1.10905" transform="translate(22.0793 10.13929) rotate(90)"/><rect class="f7c64c8d-5708-4591-aae5-3830f1659671" x="-1.28696" y="14.53338" width="22.45184" height="3.15182" rx="0.83459" transform="translate(26.04825 6.17033) rotate(90)"/><circle class="f7c64c8d-5708-4591-aae5-3830f1659671" cx="31.097" cy="25.7593" r="0.81714"/><rect class="e5b9abb3-b840-41a2-9553-3336d4f1cbd0" x="24.04107" y="24.79625" width="1.28407" height="1.92611" transform="translate(50.44241 1.07619) rotate(90)"/><rect class="e5b9abb3-b840-41a2-9553-3336d4f1cbd0" x="19.45845" y="24.79625" width="1.28407" height="1.92611" transform="translate(45.85979 5.65881) rotate(90)"/><rect class="e5b9abb3-b840-41a2-9553-3336d4f1cbd0" x="14.87583" y="24.79625" width="1.28407" height="1.92611" transform="translate(41.27717 10.24143) rotate(90)"/><rect class="e5b9abb3-b840-41a2-9553-3336d4f1cbd0" x="24.04107" y="5.53514" width="1.28407" height="1.92611" transform="translate(31.1813 -18.18492) rotate(90)"/><rect class="e5b9abb3-b840-41a2-9553-3336d4f1cbd0" x="19.45845" y="5.53514" width="1.28407" height="1.92611" transform="translate(26.59868 -13.6023) rotate(90)"/><rect class="e5b9abb3-b840-41a2-9553-3336d4f1cbd0" x="14.87583" y="5.53514" width="1.28407" height="1.92611" transform="translate(22.01606 -9.01967) rotate(90)"/><rect class="e5b9abb3-b840-41a2-9553-3336d4f1cbd0" x="14.23837" y="9.07645" width="3.38567" height="5.90381" rx="1.0556" transform="translate(31.63213 -0.29908) rotate(104.80962)"/><rect class="e5b9abb3-b840-41a2-9553-3336d4f1cbd0" x="9.18594" y="7.74063" width="3.38567" height="5.90381" rx="1.0556" transform="translate(23.99681 2.90825) rotate(104.80962)"/><rect class="e5b9abb3-b840-41a2-9553-3336d4f1cbd0" x="3.87835" y="6.33735" width="3.38567" height="5.90381" rx="1.0556" transform="translate(15.97589 6.27755) rotate(104.80962)"/><path class="e5b9abb3-b840-41a2-9553-3336d4f1cbd0" d="M.01721,8.856.52885,6.9209A.74674.74674,0,0,1,1.55612,6.555l1.26482.4508a.72777.72777,0,0,1,.52423.81157l-.4366,1.65134a.72778.72778,0,0,1-.85684.44643L.72939,9.68188C.24845,9.59705-.08048,9.22553.01721,8.856Z"/><polygon class="e5b9abb3-b840-41a2-9553-3336d4f1cbd0" points="23.258 15.857 24.203 12.283 17.974 10.918 17.168 13.965 23.258 15.857"/><path class="e5b9abb3-b840-41a2-9553-3336d4f1cbd0" d="M23.25792,15.85729,70.535,28.35694a1.993,1.993,0,0,0,2.52061-1.22525,1.993,1.993,0,0,0-1.58568-2.31091L24.19285,12.32113Z"/><path class="ed6a0b5e-4e92-4d9e-a9b9-0b471c78a76b" d="M72.72773,25.65392a2.306,2.306,0,0,0-1.25791-.83316L23.7255,12.15058l-.00714.02664-5.18884-1.13707a1.04029,1.04029,0,0,0-.33219-.16371L14.53073,9.907a1.04653,1.04653,0,0,0-.76677.09637,1.04743,1.04743,0,0,0-.61914-.46272L9.47823,8.5712A1.03637,1.03637,0,0,0,8.54,8.7998a1.03644,1.03644,0,0,0-.70278-.66244L4.17062,7.168A1.03682,1.03682,0,0,0,3.266,7.367a.846.846,0,0,0-.445-.36122L1.55626,6.555a.747.747,0,0,0-1.02753.3659l-.14168.53564a1.06691,1.06691,0,0,0,.34231.12412l1.32221.23322a.84584.84584,0,0,0,.56556-.094,1.037,1.037,0,0,0,.68819.62l3.6666.96949a1.0368,1.0368,0,0,0,.93823-.22861,1.03656,1.03656,0,0,0,.70248.66245l3.66659.96941a1.04759,1.04759,0,0,0,.76708-.09637,1.04694,1.04694,0,0,0,.61883.46279l3.6666.96941a1.03659,1.03659,0,0,0,.46137.00982l5.46477,1.69779.01161-.04346L70.53516,26.25572A2.1445,2.1445,0,0,0,72.72773,25.65392Z"/><polygon class="a2452ada-b7e2-4842-bab6-8e824a977026" points="45.63 18.711 36.554 16.552 36.759 16.109 45.747 18.332 45.63 18.711"/><path class="f7c64c8d-5708-4591-aae5-3830f1659671" d="M45.54283,18.52179l-8.98852-2.10121v-.58367l3.83284-.29183,6.73159,1.58045A3.05794,3.05794,0,0,1,45.54283,18.52179Z"/><rect class="f0e7b6c1-da9e-44aa-bee7-2ad3abe92f2f" x="47.002" y="10.68116" width="32.21858" height="10.85626" rx="0.98004" transform="translate(79.22059 -47.002) rotate(90)"/><path class="b1355f2c-5225-4d7c-8929-e611f017954f" d="M64.41133,4.701V3.9246h.49121V6.0662h-.49121V5.28593H62.11641V4.701Z"/><path class="b1355f2c-5225-4d7c-8929-e611f017954f" d="M64.90254,6.50956v.585H62.11641v-.585Z"/><path class="b1355f2c-5225-4d7c-8929-e611f017954f" d="M64.90254,7.76835v.64453l-1.28027.46485c-.123.043-.23828.08008-.34961.11133l-.17578.05566v.0166l.24414.07715c.15332.04492.24707.07519.28125.08984l1.28027.45215V10.325H62.11641V9.79081h1.10547c.15625,0,.4082.01856.75879.05567l.167.01758V9.84648l-.65332-.22559-1.13086-.41406v-.333l1.13086-.41406.65332-.22168V8.2205l-.167.01758c-.35059.03711-.60254.05566-.75879.05566H62.11641V7.76835Z"/><path class="b1355f2c-5225-4d7c-8929-e611f017954f" d="M64.90254,10.99882v1.72461h-.49121V11.58378H63.802v.96875h-.49121v-.96875h-.7041v1.18164h-.49024v-1.7666Z"/><path class="b1355f2c-5225-4d7c-8929-e611f017954f" d="M62.1711,13.35527a.40423.40423,0,0,1,.53809,0,.36074.36074,0,0,1,0,.51172.40426.40426,0,0,1-.53809,0,.36071.36071,0,0,1,0-.51172Zm1.4082,0a.40423.40423,0,0,1,.53809,0,.36074.36074,0,0,1,0,.51172.40426.40426,0,0,1-.53809,0,.36074.36074,0,0,1,0-.51172Z"/><path class="b1355f2c-5225-4d7c-8929-e611f017954f" d="M89.83372-2.19849h.92408a0,0,0,0,1,0,0v15.37a0,0,0,0,1,0,0H88.50094a0,0,0,0,1,0,0V-.86571A1.33278,1.33278,0,0,1,89.83372-2.19849Z" transform="translate(95.11586 -84.14287) rotate(90)"/><path class="b1355f2c-5225-4d7c-8929-e611f017954f" d="M88.50094,19.086h.30218a1.95468,1.95468,0,0,1,1.95468,1.95468V34.456a0,0,0,0,1,0,0H88.50094a0,0,0,0,1,0,0V19.086A0,0,0,0,1,88.50094,19.086Z" transform="translate(116.40036 -62.85837) rotate(90)"/><path class="ee3acd08-a7a6-4a17-9253-9023e72992b3" d="M73.97832,16.1093A11.75121,11.75121,0,0,0,85.72941,27.86053V4.35806A11.75121,11.75121,0,0,0,73.97832,16.1093Z"/><circle class="b1355f2c-5225-4d7c-8929-e611f017954f" cx="84.14287" cy="7.63153" r="0.56421"/><circle class="b1355f2c-5225-4d7c-8929-e611f017954f" cx="84.14287" cy="11.87041" r="0.56421"/><circle class="b1355f2c-5225-4d7c-8929-e611f017954f" cx="84.14287" cy="16.1093" r="0.56421"/><circle class="b1355f2c-5225-4d7c-8929-e611f017954f" cx="84.14287" cy="20.34818" r="0.56421"/><circle class="b1355f2c-5225-4d7c-8929-e611f017954f" cx="84.14287" cy="24.58706" r="0.56421"/><circle class="b1355f2c-5225-4d7c-8929-e611f017954f" cx="80.5952" cy="7.63153" r="0.56421"/><circle class="b1355f2c-5225-4d7c-8929-e611f017954f" cx="80.5952" cy="11.87041" r="0.56421"/><circle class="b1355f2c-5225-4d7c-8929-e611f017954f" cx="80.5952" cy="16.1093" r="0.56421"/><circle class="b1355f2c-5225-4d7c-8929-e611f017954f" cx="80.5952" cy="20.34818" r="0.56421"/><circle class="b1355f2c-5225-4d7c-8929-e611f017954f" cx="80.5952" cy="24.58706" r="0.56421"/><circle class="b1355f2c-5225-4d7c-8929-e611f017954f" cx="77.04753" cy="11.87041" r="0.56421"/><circle class="b1355f2c-5225-4d7c-8929-e611f017954f" cx="77.04753" cy="16.1093" r="0.56421"/><circle class="b1355f2c-5225-4d7c-8929-e611f017954f" cx="77.04753" cy="20.34818" r="0.56421"/><line class="b8f430d9-871f-416f-b7d2-34ba556f2d56" x1="82.41131" y1="6.65384" x2="82.41131" y2="25.64257"/><line class="b8f430d9-871f-416f-b7d2-34ba556f2d56" x1="78.83147" y1="7.70934" x2="78.83147" y2="24.58706"/><line class="b8f430d9-871f-416f-b7d2-34ba556f2d56" x1="84.70708" y1="10.00021" x2="77.04753" y2="10.00021"/><line class="b8f430d9-871f-416f-b7d2-34ba556f2d56" x1="84.70708" y1="14.13794" x2="75.77693" y2="14.13794"/><line class="b8f430d9-871f-416f-b7d2-34ba556f2d56" x1="84.70708" y1="18.27567" x2="75.77693" y2="18.27567"/><line class="b8f430d9-871f-416f-b7d2-34ba556f2d56" x1="84.70708" y1="22.41339" x2="77.04753" y2="22.41339"/><circle class="b1355f2c-5225-4d7c-8929-e611f017954f" cx="94.92131" cy="7.63152" r="0.56421"/><circle class="b1355f2c-5225-4d7c-8929-e611f017954f" cx="94.92131" cy="11.8704" r="0.56421"/><circle class="b1355f2c-5225-4d7c-8929-e611f017954f" cx="94.92131" cy="16.10929" r="0.56421"/><circle class="b1355f2c-5225-4d7c-8929-e611f017954f" cx="94.92131" cy="20.34817" r="0.56421"/><circle class="b1355f2c-5225-4d7c-8929-e611f017954f" cx="94.92131" cy="24.58706" r="0.56421"/><circle class="b1355f2c-5225-4d7c-8929-e611f017954f" cx="91.37364" cy="7.63152" r="0.56421"/><circle class="b1355f2c-5225-4d7c-8929-e611f017954f" cx="91.37364" cy="11.8704" r="0.56421"/><circle class="b1355f2c-5225-4d7c-8929-e611f017954f" cx="91.37364" cy="16.10929" r="0.56421"/><circle class="b1355f2c-5225-4d7c-8929-e611f017954f" cx="91.37364" cy="20.34817" r="0.56421"/><circle class="b1355f2c-5225-4d7c-8929-e611f017954f" cx="91.37364" cy="24.58706" r="0.56421"/><circle class="b1355f2c-5225-4d7c-8929-e611f017954f" cx="87.8589" cy="7.63152" r="0.56421"/><circle class="b1355f2c-5225-4d7c-8929-e611f017954f" cx="87.8589" cy="11.8704" r="0.56421"/><circle class="b1355f2c-5225-4d7c-8929-e611f017954f" cx="87.8589" cy="16.10929" r="0.56421"/><circle class="b1355f2c-5225-4d7c-8929-e611f017954f" cx="87.8589" cy="20.34817" r="0.56421"/><circle class="b1355f2c-5225-4d7c-8929-e611f017954f" cx="87.8589" cy="24.58706" r="0.56421"/><rect class="f0e7b6c1-da9e-44aa-bee7-2ad3abe92f2f" x="155.41279" y="-0.64332" width="11.29787" height="37.22423" rx="5.64893" transform="translate(59.87981 -108.62496) rotate(45.00003)"/><rect class="e5d49174-c2ab-4aa3-a0c0-0c92bc827867" x="157.80696" y="10.79883" width="8.04255" height="12.71665" transform="translate(59.53033 -109.40463) rotate(45)"/><line class="ab86b1fa-062c-44de-9eab-f60f94bb848a" x1="113.37851" y1="16.67355" x2="131.04758" y2="16.67355"/><polygon class="ee3acd08-a7a6-4a17-9253-9023e72992b3" points="123.352 23.224 129.906 16.674 123.352 10.123 128.913 10.123 135.464 16.674 128.913 23.224 123.352 23.224"/></svg>