<svg id="ac0bc478-9e56-4c71-8a19-eaf2412a967f" data-name="Layer 1" xmlns="http://www.w3.org/2000/svg" viewBox="0 0 80.0939 67.87391"><defs><style>.a715a03b-1ef5-49a0-8f10-27e8f925adb3{fill:#9acfda;}.aa9a8652-4704-4e67-89ef-25002c9804cb{fill:#b6e2e7;}.e93c01c3-231a-48ba-b088-86b942a2f4a8{fill:#73b5c4;}.b97d6077-582d-4af7-b880-7e89994e54f5{fill:#579eaa;}</style></defs><title>Artboard 64</title><polygon class="a715a03b-1ef5-49a0-8f10-27e8f925adb3" points="60.07 0 20.023 0 0 17.463 20.023 34.925 60.07 34.925 80.094 17.463 60.07 0"/><polygon class="a715a03b-1ef5-49a0-8f10-27e8f925adb3" points="40.047 67.874 20.023 42.668 0 17.463 40.047 17.463 80.094 17.463 60.07 42.668 40.047 67.874"/><polygon class="a715a03b-1ef5-49a0-8f10-27e8f925adb3" points="59.833 0 20.239 0 20.002 0.171 30.019 5.243 50.053 5.243 60.07 0.171 59.833 0"/><polygon class="aa9a8652-4704-4e67-89ef-25002c9804cb" points="19.999 26.556 30.019 5.243 20.023 0 0 17.463 19.999 26.556"/><polygon class="e93c01c3-231a-48ba-b088-86b942a2f4a8" points="30.019 5.243 50.053 5.243 60.062 26.556 19.999 26.556 30.019 5.243"/><polygon class="b97d6077-582d-4af7-b880-7e89994e54f5" points="50.053 5.243 60.07 0 80.094 17.463 60.062 26.556 50.053 5.243"/><polygon class="b97d6077-582d-4af7-b880-7e89994e54f5" points="0 17.463 40.047 67.874 19.999 26.556 0 17.463"/><polygon class="a715a03b-1ef5-49a0-8f10-27e8f925adb3" points="19.999 26.556 60.062 26.556 40.047 67.874 19.999 26.556"/><polygon class="e93c01c3-231a-48ba-b088-86b942a2f4a8" points="60.062 26.556 80.094 17.463 40.047 67.874 60.062 26.556"/></svg>