<?xml version="1.0" encoding="utf-8"?>
<!-- Generator: Adobe Illustrator 23.0.0, SVG Export Plug-In . SVG Version: 6.00 Build 0)  -->
<svg version="1.1" id="Layer_1" xmlns="http://www.w3.org/2000/svg" xmlns:xlink="http://www.w3.org/1999/xlink" x="0px" y="0px"
	 viewBox="0 0 180.2 63.4" style="enable-background:new 0 0 180.2 63.4;" xml:space="preserve">
<style type="text/css">
	.st0{fill:#FFFFFF;}
	.st1{clip-path:url(#SVGID_2_);}
	.st2{fill:#9ACFDA;}
	.st3{fill:#FFFFFF;stroke:#F1F2F2;stroke-width:0.145;stroke-miterlimit:10;}
	.st4{fill:#70ADB6;}
	.st5{fill:#4D7582;}
	.st6{fill:#6BA097;}
	.st7{fill:#C3D7DC;}
	.st8{fill:#F1F2F2;}
	.st9{fill:#90C66C;}
	.st10{fill:#7DB25A;}
	.st11{opacity:0.33;fill:#A7A9AC;enable-background:new    ;}
	.st12{fill:#BECCAA;}
	.st13{fill:#A2B08B;}
	.st14{clip-path:url(#SVGID_4_);}
	.st15{fill:#DBDED7;}
	.st16{fill:#80896F;}
	.st17{fill:#AAB692;}
	.st18{fill:#415829;}
	.st19{clip-path:url(#SVGID_6_);}
	.st20{fill:#3B4923;}
	.st21{fill:#4B6B33;}
	.st22{fill:#678E3D;}
	.st23{fill:#527938;}
	.st24{fill:#537435;}
	.st25{fill:#D1D3D4;}
	.st26{fill:#4E7582;stroke:#4E7582;stroke-width:1.2391;stroke-linejoin:round;}
	.st27{fill:#4E7582;}
	.st28{fill:none;stroke:#0F2849;stroke-width:3;stroke-linecap:round;stroke-miterlimit:10;}
	.st29{fill:none;stroke:#EF5B5B;stroke-miterlimit:10;}
</style>
<title>Artboard 2</title>
<g>
	<g id="a1b2368a-d27e-4ee1-b764-ad046ea2d0a9">
		<ellipse class="st0" cx="143.3" cy="34" rx="36.8" ry="27.7"/>
		<g>
			<g>
				<defs>
					<ellipse id="SVGID_1_" cx="143.3" cy="34" rx="36.8" ry="27.7"/>
				</defs>
				<clipPath id="SVGID_2_">
					<use xlink:href="#SVGID_1_"  style="overflow:visible;"/>
				</clipPath>
				<g class="st1">
					<polygon class="st2" points="128,43 120.1,44.3 120.1,18.6 128,19.6 					"/>
					<polygon class="st3" points="123.9,33.5 125.5,33.3 125.5,36 123.9,36.2 					"/>
					<polygon class="st4" points="120.2,44.3 118.3,42.9 118.3,19.8 120.2,18.6 					"/>
					<polygon class="st5" points="126.3,36.1 123.4,36.5 122.9,36.8 125.8,36.3 					"/>
					<polygon class="st6" points="123.4,36.5 122.9,36.8 122.9,35.9 123.4,35.7 					"/>
					<polygon class="st7" points="123.4,35.7 126.3,35.2 126.3,36.1 123.4,36.5 					"/>
					<polygon class="st8" points="121.3,29.1 122.9,29 122.9,31.7 121.3,31.8 					"/>
					<polygon class="st8" points="124.6,38.8 126.2,38.5 126.2,41.2 124.6,41.5 					"/>
					<polygon class="st8" points="122.6,39.1 124.2,38.8 124.2,41.5 122.6,41.8 					"/>
					<polygon class="st8" points="121.2,19.8 122.8,20 122.8,22.7 121.2,22.5 					"/>
					<polygon class="st8" points="123.6,20.1 125.2,20.3 125.2,23 123.6,22.8 					"/>
					<polygon class="st8" points="124.4,24.9 126,25.1 126,27.8 124.4,27.6 					"/>
					<polygon class="st6" points="128.7,44.5 127.1,43.3 127.1,24.2 128.7,23.1 					"/>
					<polygon class="st7" points="135.2,43.4 128.7,44.5 128.7,23.1 135.2,24 					"/>
					<polygon class="st8" points="130.8,24.5 132.2,24.7 132.2,27.1 130.8,26.9 					"/>
					<polygon class="st8" points="132.9,24.8 134.3,25 134.3,27.3 132.9,27.2 					"/>
					<polygon class="st8" points="129.7,28.2 131.1,28.4 131.1,30.7 129.7,30.6 					"/>
					<polygon class="st8" points="132.6,33.2 134,33.1 134,35.5 132.6,35.6 					"/>
					<polygon class="st8" points="130.3,36.7 131.7,36.4 131.7,38.8 130.3,39 					"/>
					<polygon class="st8" points="131.7,40.5 133.1,40.2 133.1,42.6 131.7,42.8 					"/>
					<polygon class="st8" points="129.9,40.7 131.3,40.5 131.3,42.8 129.9,43 					"/>
					
						<ellipse transform="matrix(3.306210e-02 -0.9995 0.9995 3.306210e-02 85.1311 205.277)" class="st9" cx="148.7" cy="58.6" rx="17.5" ry="67.2"/>
					<path class="st10" d="M152.1,63.8c-0.3-0.5-0.7-1-1.2-1.4c0.3,0.1,0.5,0.1,0.7,0.3c0.2,0.1,0.4,0.3,0.5,0.6
						c0-0.3,0.1-0.6,0.3-0.9c-0.1,0.3,0,0.6,0.1,0.9c0.2-0.2,0.5-0.4,0.8-0.5c-0.2,0.2-0.3,0.4-0.3,0.7c0.1-0.1,0.3-0.1,0.4-0.1
						c-0.1,0.2-0.1,0.4-0.1,0.6v-0.1"/>
					<path class="st10" d="M177.8,50.9c-0.3-0.5-0.7-1-1.2-1.4c0.3,0.1,0.5,0.1,0.7,0.3c0.2,0.1,0.4,0.3,0.5,0.6
						c0-0.3,0.1-0.6,0.3-0.9c-0.1,0.3,0,0.6,0.1,0.9c0.2-0.2,0.5-0.4,0.8-0.5c-0.2,0.2-0.3,0.4-0.3,0.7c0.1-0.1,0.3-0.1,0.4-0.1
						c-0.1,0.2-0.1,0.4-0.1,0.6V51"/>
					<path class="st10" d="M165.4,58.4l-0.7-1.8c0.2,0.1,0.4,0.2,0.5,0.4c0.1-0.2,0.2-0.5,0.4-0.7c-0.1,0,0,0.1,0.1,0.1
						s0.1-0.1,0.1-0.1l0.1-0.1c0.1,0.1,0,0.2-0.1,0.4s0,0.3,0.1,0.3c-0.1,0.1-0.2,0.3-0.1,0.4h0.3c-0.3,0.3-0.3,0.6-0.2,1"/>
					<path class="st10" d="M147.9,55c0.1-0.2,0.4-0.4,0.3-0.6l-0.6-0.7c0.2,0.1,0.4,0.3,0.5,0.5l0.1-0.3c0,0.1,0,0.2,0.2,0.2
						c0.1,0,0.2,0,0.2-0.2l0,0c0,0.2,0,0.3,0.1,0.5c0.1-0.5,0.4-0.9,0.9-1.2c-0.2,0.3-0.4,0.7-0.4,1.1c0.1,0,0.2-0.1,0.2-0.1l0,0
						l0.1,0.1c0,0,0,0,0.1,0v0.2l0.3,0.1c-0.1,0.1,0,0.3,0.1,0.3"/>
					<path class="st10" d="M120.3,47.7c-0.3-0.4-0.4-0.9-0.5-1.4l0.3,0.5c0.1-0.2,0.1-0.3,0.1-0.5c0.1,0.1,0.1,0.3,0,0.4
						c0.1,0,0.2-0.1,0.3-0.2c0,0.1,0,0.3,0,0.4h0.2c0,0.2,0,0.4,0.1,0.6"/>
					<path class="st10" d="M139,51.1c0.3-0.4,0-0.9-0.1-1.3l0.3,0.5c0.1-0.2,0.1-0.3,0.1-0.5c0.1,0.1,0.1,0.3,0,0.4
						c0.1,0,0.2-0.1,0.3-0.2c-0.2,0.2,0.2,0.6,0.5,0.3c-0.1,0.2,0,0.5,0.2,0.6"/>
					<path class="st10" d="M111.5,55.8c0.4-0.3,0.6-0.8,0.4-1.2c0.1,0.2,0.2,0.5,0.3,0.7c0.1-0.1,0.2-0.2,0.3-0.2c0,0.1,0,0.3,0,0.4
						l0.4-0.2c-0.1,0.1-0.1,0.2,0,0.3s0.2,0.1,0.3,0l0,0c0.2,0.1,0.4,0.3,0.6,0.4"/>
					<path class="st10" d="M156.3,45.7c-0.2-0.3-0.3-0.6-0.4-0.9c0.1,0.2,0.2,0.4,0.3,0.5l0.2-0.5l0.1,0.3l0.3-0.3
						c-0.1,0.1-0.1,0.2,0,0.3s0.2,0.1,0.3,0c-0.1,0.1-0.1,0.2-0.1,0.3s0.1,0.2,0.2,0.2"/>
					<ellipse class="st11" cx="152" cy="48.5" rx="11.4" ry="1.1"/>
					<path class="st12" d="M149.3,40.9c0.8,0.4,1.5,0.9,2.2,1.4c0.1-0.9,0.2-1.8,0.3-2.7c-0.5-0.1-1.1-0.2-1.6-0.3
						c-0.3-1.7-0.6-3.4-0.8-5.1c0,0.4-1.9,0.6-2.1,0.6c0.2,0.9,0.5,1.9,0.8,2.8C148.3,38.8,148.3,40.5,149.3,40.9z"/>
					<path class="st13" d="M151.4,43.9c0.3,1.6,0.4,3.2,0.2,4.8c0,0,2.2,0.3,3.2,0.4c0.3,0,0.6-0.1,0.9-0.2l0.4-5.2
						c0,0-0.1-1-0.2-1.5c-0.1-1.1-0.2-2.3-0.1-3.4c0-1-0.2-1.9-0.4-2.8l-4.2-0.5C151.2,35.6,150.8,42,151.4,43.9z"/>
					<path class="st12" d="M153.9,42.4c0.4,0.2,0.8,0.5,1.1,0.9c1.4-1.2,3-2.1,4.8-2.7c0.1,0,0.1-0.1,0.2-0.1c0-0.1,0-0.1,0-0.2V36
						l0.1-0.5l-1.9,0.3c0.2,0.9,0.3,1.7,0.3,2.6c0,0.2-0.1,0.3-0.2,0.4c-0.6,0.2-2.5,1.2-2.7,1.3c-0.5,0.2-0.9,0.3-1.4,0.4
						C154.1,40.5,153.9,41.8,153.9,42.4z"/>
					<g>
						<g>
							<defs>
								<path id="SVGID_3_" d="M151.4,43.9c0.3,1.6,0.4,3.2,0.2,4.8c0,0,2.2,0.3,3.2,0.4c0.3,0,0.6-0.1,0.9-0.2l0.4-5.2
									c0,0-0.1-1-0.2-1.5c-0.1-1.1-0.2-2.3-0.1-3.4c0-1-0.2-1.9-0.4-2.8l-4.2-0.5C151.2,35.6,150.8,42,151.4,43.9z"/>
							</defs>
							<clipPath id="SVGID_4_">
								<use xlink:href="#SVGID_3_"  style="overflow:visible;"/>
							</clipPath>
							<g class="st14">
								<path class="st15" d="M153.3,45.9c0,0.1,0,0.1,0,0.2c0,0.9,0,1.9,0,2.8c0,0.5,0,1-0.2,1.4c-0.5,1.4-1.9,0.7-2.6,0.2
									c-0.2-0.1-0.4-0.3-0.5-0.5s-0.1-0.5-0.1-0.7c-0.1-3.2-0.1-6.3-0.1-9.5c0-0.8,0-1.5,0.2-2.3c0.3-1.2,1.7-2.2,2.5-1.4
									c0.5,0.4,0.3,1.7,0.3,2.5c0,1.1,0,2.2,0,3.4C152.8,43.3,153.2,44.5,153.3,45.9z"/>
							</g>
						</g>
					</g>
					<path class="st16" d="M154.1,43.9c0.1,0.3,0.2,0.6,0.3,0.9c0.1,0.2,0.2,0.4,0.4,0.4s0.3-0.2,0.4-0.4c0.2-0.4,0.4-0.8,0.6-1.2
						c0.2-0.4,0.3-0.8,0.4-1.2c0-0.1,0-0.2-0.1-0.3c-0.1-0.2-0.3-0.1-0.4,0c-0.2,0.1-0.5,0.2-0.8,0.3c-0.3,0-0.6-0.1-0.9-0.1h-0.1
						v0.1C153.9,43,153.9,43.4,154.1,43.9z"/>
					<path class="st17" d="M159.9,40.2c0,0.1,0,0.2,0,0.3v0.1l0,0c-0.2,0.1-0.5,0.3-0.7,0.4c-0.7,0.2-1.5,0.5-2.1,0.9
						s-1.2,0.9-1.8,1.2c-0.1,0.1-0.3,0.1-0.4,0c-0.1,0-0.2-0.1-0.2-0.2c-0.2-0.2-0.4-0.3-0.7-0.5c0.2-0.3,0.6-0.3,0.9-0.4
						c0.6-0.2,1.2-0.5,1.7-0.8s1-0.4,1.5-0.6c0.3-0.1,0.7-0.3,1-0.4c0.3-0.1,0.6-0.2,0.9-0.3C159.9,40,159.9,40.1,159.9,40.2z"/>
					<path class="st18" d="M141.6,27.5c0,0.8,0.1,1.6,0.3,2.3c0.1,0.1,0.1,0.3,0.1,0.4s-0.1,0.2-0.2,0.3c-0.7,0.8-1,1.9-0.7,2.9
						c0.7,1.8,2.6,2.7,4.4,2.2c0.8,0.8,1.9,1.3,3,1.2c1.2,0,2.4-0.4,3.4-1.1c0.5,0.3,1,0.6,1.6,0.8c0.7,0.2,1.4,0.3,2.1,0.4
						c1.4,0.2,2.7,0.1,4-0.4c1.2-0.6,2.1-1.5,2.8-2.7c1,0.3,2.1-0.1,2.8-0.9c0.6-0.6,1-1.4,1.1-2.3c0-0.9-0.4-1.7-1.1-2.3
						c0.5-0.6,0.4-1.4-0.2-1.9c-0.1-0.1-0.3-0.2-0.5-0.2c0.5-0.8,0.4-1.9-0.3-2.6s-1.6-1.2-2.6-1.5c0.4-1.1,0.1-2.4-0.8-3.2
						c-1-0.8-2.4-1.1-3.6-0.7c0.1-0.1,0.2,0,0.3,0.2c-0.9-1-2.4-3.5-6.5-2.1c-1.1,0.4-1.9,1.4-2.2,2.6c-1.9-0.5-3.9,0.6-4.4,2.5
						c-0.1,0.4-0.2,0.9-0.1,1.3c0,0.3,0.1,0.6,0.1,0.9c0,0.4,0,0.3-0.3,0.4c-1.2,0.5-2,1.5-2.3,2.8
						C141.6,27.1,141.6,27.3,141.6,27.5z"/>
					<g>
						<g>
							<defs>
								<path id="SVGID_5_" d="M166.4,31.9c0.1-0.2,0.2-0.4,0.3-0.6c0-0.4,0-0.9-0.2-1.3c-0.3-1.1,0-2.4-0.8-3.3
									c-0.1-0.1-0.3-0.2-0.5-0.1c0.2,0.5,0.1,1-0.2,1.3c-0.2,0.4-0.6,0.7-1,0.8c0.2,0.3,0.4,0.3,0.6,0.7c0.4,1.1-0.1,2.4-1.1,3
									c-0.5,0.4-1.2,0.4-1.8,0.2c-0.2,0.7-0.6,1.4-1.3,1.8c-2,1.4-4.4,0.9-6.7,0.3c-0.4,0.6-1.1,1.1-1.9,1.3h-0.1v0.1
									c0.3,0.6,0.9,1,1.6,1.1c0.9,0.2,1.8,0.4,2.7,0.4c1.5-0.1,3.1-1,4.6-0.6c1.1,0.3,0.9-0.5,1.2-1.3c0.3-0.9,0.8-1.2,1.9-1.2
									c0.4,0.1,0.8,0,1.2-0.2c0.5-0.3,0.3-0.8,0.6-1.2C165.7,32.8,166.1,32.3,166.4,31.9z"/>
							</defs>
							<clipPath id="SVGID_6_">
								<use xlink:href="#SVGID_5_"  style="overflow:visible;"/>
							</clipPath>
							<g class="st19">
								<path class="st20" d="M141.6,27.5c0,0.8,0.1,1.6,0.3,2.3c0.1,0.1,0.1,0.3,0.1,0.4s-0.1,0.2-0.2,0.3c-0.7,0.8-1,1.9-0.7,2.9
									c0.7,1.8,2.6,2.7,4.4,2.2c0.8,0.8,1.9,1.3,3,1.2c1.2,0,2.4-0.4,3.4-1.1c0.5,0.3,1,0.6,1.6,0.8c0.7,0.2,1.4,0.3,2.1,0.4
									c1.4,0.2,2.7,0.1,4-0.4c1.2-0.6,2.1-1.5,2.8-2.7c1,0.3,2.1-0.1,2.8-0.9c0.6-0.6,1-1.4,1.1-2.3c0-0.9-0.4-1.7-1.1-2.3
									c0.5-0.6,0.4-1.4-0.2-1.9c-0.1-0.1-0.3-0.2-0.5-0.2c0.5-0.8,0.4-1.9-0.3-2.6s-1.6-1.2-2.6-1.5c0.4-1.1,0.1-2.4-0.8-3.2
									c-1-0.8-2.4-1.1-3.6-0.7c0.1-0.1,0.2,0,0.3,0.2c-0.9-1-2.4-3.5-6.5-2.1c-1.1,0.4-1.9,1.4-2.2,2.6c-1.9-0.5-3.9,0.6-4.4,2.5
									c-0.1,0.4-0.2,0.9-0.1,1.3c0,0.3,0.1,0.6,0.1,0.9c0,0.4,0,0.3-0.3,0.4c-1.2,0.5-2,1.5-2.3,2.8
									C141.6,27.1,141.6,27.3,141.6,27.5z"/>
							</g>
						</g>
					</g>
					<ellipse class="st21" cx="157.3" cy="29.2" rx="5.2" ry="4.6"/>
					<ellipse class="st21" cx="156" cy="24.4" rx="5.2" ry="4.6"/>
					<ellipse class="st21" cx="149.6" cy="30.5" rx="5.2" ry="4.6"/>
					<path class="st21" d="M148.4,31.3c0,1-0.9,1.7-2,2.3c-0.4,0.2-0.8,0.4-1.2,0.4c-1.6,0.2-3-1-3.1-2.6v-0.1
						c0.1-1.7,1.5-2.9,3.2-2.8c1.4,0,2.6,0.8,3.1,2.1C148.4,30.9,148.4,31.1,148.4,31.3z"/>
					<path class="st22" d="M142,27.8c0.1,0.8,0.5,1.6,1,2.1c0.4,0.4,0.9,0.8,1.5,1c0.8,0.3,1.7,0.4,2.6,0.3c0.8-0.1,1.7-0.4,2.4-0.8
						c0.9-0.5,1.6-1.5,1.8-2.5c0.6,0.9,1.5,1.3,2.6,1.2c0.9,0,1.7-0.2,2.4-0.7c1.4-0.9,1.8-2.8,0.9-4.2c-0.1-0.1-0.2-0.3-0.3-0.4
						c-0.5-0.4-1-0.7-1.5-1c0.5-0.3,1-0.6,1.4-1c1.1-1.2,0.5-2.9-0.6-3.9c-1.4-1.2-3.3-1.6-5.1-0.9c-1,0.5-1.7,1.5-1.8,2.7
						c-1.2-0.4-2.5-0.2-3.5,0.6c-0.7,0.6-1.1,1.4-1.1,2.3c-0.1,0.7,0.1,1.3,0.4,1.9c-0.5-0.1-1,0-1.5,0.2
						C142.5,25.2,141.8,26.5,142,27.8z"/>
					<path class="st23" d="M151.7,20.5c-1,0.1-1.2,0.9-1.6,1.5c-0.5,0.8-1.7,0.6-2.6,0.6c-0.8-0.1-1.5,0.1-2,0.7
						c-0.2,0.3-0.2,0.8,0,1.1c0.2,0.4,0.5,0.6,0.9,0.8c1,0.6,2.3,0.7,3.4,0.4c1.1-0.3,2.1-0.9,2.8-1.8c0.5-0.5,0.8-1.3,0.8-2
						C153.2,21,152.5,20.4,151.7,20.5z"/>
					<path class="st24" d="M150,49.3c1,0.5,3,0.3,3-1.1c0-1.8-2.5-2.2-3.5-1c-0.5,0.6-0.3,1.5,0.3,2C149.9,49.2,149.9,49.2,150,49.3
						z"/>
					<path class="st24" d="M156.6,47.9c-0.2-0.2-0.4-0.3-0.6-0.3c-0.4-0.1-0.9-0.1-1.3,0c-0.4,0.2-0.6,0.7-0.5,1.1
						c0.2,0.2,0.4,0.4,0.7,0.5c0.6,0.2,1.2,0.1,1.7-0.1c0.3-0.2,0.7-0.5,0.6-0.9c-0.1-0.3-0.4-0.4-0.7-0.5c-0.1,0-0.2,0-0.2,0.1"/>
					<path class="st24" d="M150.2,47.5c-0.2-0.2-0.4-0.3-0.6-0.3c-0.4-0.1-0.9-0.1-1.3,0c-0.4,0.2-0.6,0.7-0.5,1.1
						c0.2,0.2,0.4,0.4,0.7,0.5c0.6,0.2,1.2,0.1,1.7-0.1c0.3-0.2,0.7-0.5,0.6-0.9c-0.1-0.3-0.4-0.4-0.7-0.5c-0.1,0-0.2,0-0.2,0.1"/>
					<path class="st24" d="M157.6,47.3c0.2,0,0.4,0,0.5,0c0.2,0.1,0.2,0.4,0.1,0.6l0,0c-0.2,0.2-0.4,0.3-0.6,0.3
						c-0.8,0.1-2.7-0.4-1.8-1.5C156.6,45.5,156.9,47.2,157.6,47.3z"/>
				</g>
			</g>
		</g>
		<path class="st25" d="M2.7,47.2h-2c-0.4,0-0.7-0.3-0.7-0.7V21.6c0-1.8,1.4-3.2,3.2-3.2l0,0h34.5c1,0,2,0.5,2.6,1.3l8,10.7l7.2,1.2
			c1.7,0.4,2.9,2,2.9,3.7V44c0,1.8-1.4,3.2-3.2,3.2l0,0H2.7z"/>
		<circle class="st26" cx="10.9" cy="48.9" r="4.5"/>
		<circle class="st26" cx="46.4" cy="48.9" r="4.5"/>
		<path class="st27" d="M27.9,22.1v7c0,0.5,0.4,0.8,0.8,0.8l0,0h14.7c0.2,0,0.4-0.2,0.4-0.4c0-0.1,0-0.2-0.1-0.2L39.2,23
			c-0.8-1.1-2.2-1.8-3.6-1.8h-6.8C28.3,21.2,27.9,21.6,27.9,22.1z"/>
		<line class="st28" x1="94.2" y1="1.5" x2="76.9" y2="62.1"/>
		<g>
			<polygon class="st29" points="10.5,25.5 13,29.9 15.6,34.3 10.5,34.3 5.4,34.3 7.9,29.9 			"/>
			<polygon class="st29" points="10.5,37.6 13,33.2 15.6,28.8 10.5,28.8 5.4,28.8 7.9,33.2 			"/>
		</g>
	</g>
</g>
</svg>
