<svg id="aef9a57c-e81d-41c1-bbd0-83473fd60241" data-name="Layer 1" xmlns="http://www.w3.org/2000/svg" viewBox="0 0 53.45751 56.65142"><defs><style>.a45bf048-f050-4367-87db-6803f881da2a{fill:#4e7582;}.e2cc476e-99f0-4bed-b890-fdf555397a6b{fill:#fff;}.bf7446b7-098d-41e6-9fac-30d9e7e25fb3{fill:#ef5b5b;}.bfad7c9f-af67-4a70-af84-d9cfda1620b4{fill:#eeb95b;}.ae33174e-af78-4e05-bbc3-2abef7ff7700{fill:#00aed6;}</style></defs><title>Artboard 8</title><polygon class="a45bf048-f050-4367-87db-6803f881da2a" points="45.507 45.937 13.667 56.651 0 16.039 29.012 5.805 35.053 14.872 45.507 45.937"/><polygon class="e2cc476e-99f0-4bed-b890-fdf555397a6b" points="49.609 34.625 19.469 52.08 0.184 16.587 27.46 1.767 34.801 12.656 35.531 18.91 40.373 20.922 49.609 34.625"/><path class="bf7446b7-098d-41e6-9fac-30d9e7e25fb3" d="M36.13748,17.25967,33.97161,5.15824c-.0762.01218-.15195.01538-.22823.029A12.30533,12.30533,0,1,0,47.69978,20.793Z"/><path class="bfad7c9f-af67-4a70-af84-d9cfda1620b4" d="M36.46436.1557l2.12534,11.875L49.53032,7.06848A12.29809,12.29809,0,0,0,36.46436.1557Z"/><path class="ae33174e-af78-4e05-bbc3-2abef7ff7700" d="M53.26665,13.01148a12.27605,12.27605,0,0,0-.986-3.06129l-10.941,4.96229.04052.22639,11.56263,3.53325A12.23744,12.23744,0,0,0,53.26665,13.01148Z"/></svg>