<svg xmlns="http://www.w3.org/2000/svg" xmlns:xlink="http://www.w3.org/1999/xlink" viewBox="0 0 205.44376 307.64143"><defs><style>.a49def39-d39d-4e7e-adcc-ca99366804ca,.ab410c49-6b5a-4867-a190-d5a9e1306688,.b16c8420-a6ef-46ed-b6e5-c90eab2dfbf5,.fa0153f5-4e8f-4696-8ef1-9c00e10ca426{fill:none;}.b250943d-d1c2-4b22-a060-8e7fa3b90821{isolation:isolate;}.b16c8420-a6ef-46ed-b6e5-c90eab2dfbf5{stroke:#0f2849;stroke-linecap:round;stroke-linejoin:round;stroke-width:4px;}.a7d8ed2b-c618-4f4f-bf50-cccd6514f490{fill:#0f2849;}.f8d662e5-36ea-460a-9a69-987bcb20f7b0{fill:#4d7582;}.b8654943-a4f4-4a99-998d-121f2e2376fb{fill:#fff;}.bfb83f80-5136-4087-bc6c-89697c39df9a{fill:#e6e7e8;}.add95984-426b-4e40-b0d8-7bf3337c4dcd{fill:#00aed6;}.a957d113-f56c-4ded-a0f1-f99726c62b2b{clip-path:url(#f86739c4-dab2-4809-b3c6-62f5a4ba7084);}.ab410c49-6b5a-4867-a190-d5a9e1306688{stroke:#037c99;stroke-width:0.63002px;}.ab410c49-6b5a-4867-a190-d5a9e1306688,.fa0153f5-4e8f-4696-8ef1-9c00e10ca426{stroke-miterlimit:10;}.af553410-e327-48bc-b117-a3fb582a3de1{fill:#bcbec0;}.b4e90932-7bb1-4357-b951-94c55112ea52{fill:#939598;}.b07c8922-802c-4668-901d-54fd50faab52{clip-path:url(#a8a4fd16-3e7b-43a3-a850-f23d87d77386);}.a0b3796e-537e-4d72-bb63-7bac00571018,.be815ed2-62e9-4beb-a858-c2eb8f2e5255,.fdb86d7e-7131-4913-ab11-8658e24e55e9{fill:#c3d7dc;}.fdb86d7e-7131-4913-ab11-8658e24e55e9{opacity:0.76;}.bab9c4a3-d7bc-4ca5-b65d-c1ef76a8a47a{fill:#e7f6fc;}.a0b3796e-537e-4d72-bb63-7bac00571018{mix-blend-mode:soft-light;}.f2b74a03-bd59-4d09-b41e-f9a0878bb778{clip-path:url(#e1050906-22b7-4ac2-91d2-90f9cd311acf);}.badabaec-d02a-4a10-bdce-1cfca8b9bcba{fill:#e86978;}.be62d202-6f60-47e4-a1a9-fd530f9eb801{clip-path:url(#e91a0d34-8e3f-4392-b204-fc87030bb9ca);}.b2ea128b-a53d-4811-a85d-6b2677e40e2f{clip-path:url(#e26dbe6a-cb2f-4faf-ab9e-a33a9943a704);}.f4034e13-4380-442d-ab5b-e6d61d8b386a{clip-path:url(#f869df67-d975-40fe-b326-9176356fe86d);}.ff831812-2bfb-4bd0-92e0-d19dcb62e48d{clip-path:url(#b5a0e039-74cd-4d2c-9bad-6e52712ec3d4);}.b4920800-1f0c-486b-921b-9e849fb63256{fill:#dbae95;}.bcb060a2-d92b-4a4a-bff0-f6fab76a9773{fill:#af2027;}.ef7582ba-888e-49e9-9a92-bcbaccc800a8{fill:#a7a9ac;opacity:0.33;mix-blend-mode:multiply;}.b81b046e-ab63-4a4b-ad91-b940bb81f227{fill:#1a242d;}.be70487a-57e9-447b-bea7-f3629e93bea2{fill:#566345;}.bc4a071b-a5ca-4627-959b-62f874089f20{fill:#63774e;}.f163ed7f-f6ab-4ee3-89a8-f11dbfcfce53{fill:#6f825a;}.b4fc94d0-d688-4d4f-9904-a58ca6ba2d16{fill:#3c2415;}.a9b9744c-6356-4ec6-bb9f-badab700eb18{fill:#938c6c;}.f3bff433-5e18-446e-949b-6bbdc60bcab2{fill:url(#eabeaffc-e758-4e5d-a5fa-152c716e9e8e);}.abcbd03b-af60-46dd-a66b-2a5201a97975{fill:url(#bfdc758d-0211-4450-b99d-4415a0276ea3);}.e8a94684-baef-4dec-806d-f324a3c35e69{fill:url(#b37c0edb-0ca2-44e9-9725-ac02741da086);}.b0204a2f-2fb3-420e-b3e8-f9671175d922{fill:url(#bd6137f0-0428-4fbd-877d-cc8d72717af0);}.fa0153f5-4e8f-4696-8ef1-9c00e10ca426{stroke:#05bce7;stroke-width:2.03717px;}</style><clipPath id="f86739c4-dab2-4809-b3c6-62f5a4ba7084"><path class="a49def39-d39d-4e7e-adcc-ca99366804ca" d="M31.29464,137.281l-23.19,23.19237a5.078,5.078,0,0,0,1.518,4.22865,4.63433,4.63433,0,0,0,4.23091,1.51965l23.19-23.19238Z"/></clipPath><clipPath id="a8a4fd16-3e7b-43a3-a850-f23d87d77386"><path class="a49def39-d39d-4e7e-adcc-ca99366804ca" d="M185.90635,124.35992c-4.81189,0-8.71277,1.32886-8.71277,2.968l1.62768,25.55664h.032c0,1.32715,3.15771,2.40283,7.0531,2.40283s7.05322-1.07568,7.05322-2.40283h.03186l1.62769-25.55664C194.61912,125.68878,190.71824,124.35992,185.90635,124.35992Z"/></clipPath><clipPath id="e1050906-22b7-4ac2-91d2-90f9cd311acf"><ellipse class="a49def39-d39d-4e7e-adcc-ca99366804ca" cx="196.97518" cy="149.74341" rx="6.70121" ry="7.30777" transform="translate(-16.97107 274.03866) rotate(-67.39771)"/></clipPath><clipPath id="e91a0d34-8e3f-4392-b204-fc87030bb9ca"><path class="a49def39-d39d-4e7e-adcc-ca99366804ca" d="M71.61191,253.30377c-4.81189,0-8.71277,1.32886-8.71277,2.968l1.62769,25.55664h.032c0,1.32715,3.15772,2.40283,7.0531,2.40283s7.05322-1.07568,7.05322-2.40283H78.697l1.62769-25.55664C80.32468,254.63263,76.4238,253.30377,71.61191,253.30377Z"/></clipPath><clipPath id="e26dbe6a-cb2f-4faf-ab9e-a33a9943a704"><ellipse class="a49def39-d39d-4e7e-adcc-ca99366804ca" cx="82.68074" cy="278.68726" rx="6.70121" ry="7.30777" transform="translate(-206.37878 247.9092) rotate(-67.39771)"/></clipPath><clipPath id="f869df67-d975-40fe-b326-9176356fe86d"><path class="a49def39-d39d-4e7e-adcc-ca99366804ca" d="M77.32531,290.42058,49.69819,272.74564a5.078,5.078,0,0,0-3.80457,2.38976,4.63431,4.63431,0,0,0-.57667,4.4584l27.62713,17.67494Z"/></clipPath><clipPath id="b5a0e039-74cd-4d2c-9bad-6e52712ec3d4"><rect class="a49def39-d39d-4e7e-adcc-ca99366804ca" x="74.33307" y="2.55252" width="71.30639" height="77.13208"/></clipPath><radialGradient id="eabeaffc-e758-4e5d-a5fa-152c716e9e8e" cx="1730.08805" cy="1187.26362" r="5.56671" gradientTransform="translate(-1412.48928 999.158) rotate(-49.25705) scale(1 0.5)" gradientUnits="userSpaceOnUse"><stop offset="0" stop-color="#ec2429"/><stop offset="0.08988" stop-color="#ec2429" stop-opacity="0.96071"/><stop offset="0.23853" stop-color="#ec2429" stop-opacity="0.85421"/><stop offset="0.42755" stop-color="#ec2429" stop-opacity="0.68066"/><stop offset="0.64961" stop-color="#ec2429" stop-opacity="0.43985"/><stop offset="0.89663" stop-color="#ec2429" stop-opacity="0.13635"/><stop offset="1" stop-color="#ec2429" stop-opacity="0"/></radialGradient><radialGradient id="bfdc758d-0211-4450-b99d-4415a0276ea3" cx="1723.38924" cy="1183.64387" r="2.44255" gradientTransform="translate(-1858.41079 -474.43106) rotate(-19.25705)" xlink:href="#eabeaffc-e758-4e5d-a5fa-152c716e9e8e"/><radialGradient id="b37c0edb-0ca2-44e9-9725-ac02741da086" cx="1731.1248" cy="1186.40247" r="1.95356" gradientTransform="translate(-1858.41079 -474.43106) rotate(-19.25705)" gradientUnits="userSpaceOnUse"><stop offset="0" stop-color="#f6d2ba"/><stop offset="0.08715" stop-color="#f6d2ba" stop-opacity="0.9623"/><stop offset="0.23131" stop-color="#f6d2ba" stop-opacity="0.8601"/><stop offset="0.41466" stop-color="#f6d2ba" stop-opacity="0.69353"/><stop offset="0.63007" stop-color="#f6d2ba" stop-opacity="0.46237"/><stop offset="0.8695" stop-color="#f6d2ba" stop-opacity="0.17127"/><stop offset="1" stop-color="#f6d2ba" stop-opacity="0"/></radialGradient><radialGradient id="bd6137f0-0428-4fbd-877d-cc8d72717af0" cx="1723.03807" cy="1183.61849" r="0.53022" xlink:href="#b37c0edb-0ca2-44e9-9725-ac02741da086"/></defs><title>Artboard 14</title><g class="b250943d-d1c2-4b22-a060-8e7fa3b90821"><g id="f030978b-94d0-400f-8b1f-3a193f30185a" data-name="Layer 1"><path class="b16c8420-a6ef-46ed-b6e5-c90eab2dfbf5" d="M126.931,72.32816h40.846c10.01245,0,18.12939,7.11573,18.12939,15.89356v21.875"/><polygon class="a7d8ed2b-c618-4f4f-bf50-cccd6514f490" points="179.125 102.129 185.906 108.915 192.688 102.129 192.688 107.887 185.906 114.668 179.125 107.887 179.125 102.129"/><path class="b16c8420-a6ef-46ed-b6e5-c90eab2dfbf5" d="M84.45569,72.32816H43.60974c-10.01269,0-18.12939,7.11573-18.12939,15.89356v32.76855"/><polygon class="a7d8ed2b-c618-4f4f-bf50-cccd6514f490" points="18.699 113.023 25.48 119.808 32.262 113.023 32.262 118.781 25.48 125.562 18.699 118.781 18.699 113.023"/><path class="f8d662e5-36ea-460a-9a69-987bcb20f7b0" d="M177.29816,59.2709,177.179,58.101h1.05957l.12988,1.16993v6.45019h-1.07031Z"/><path class="f8d662e5-36ea-460a-9a69-987bcb20f7b0" d="M179.37823,62.90078h1.43946a1.28714,1.28714,0,0,0,1.06054-.42969,1.88751,1.88751,0,0,0,.34961-1.2207V60.5707a1.88459,1.88459,0,0,0-.34961-1.21973,1.28427,1.28427,0,0,0-1.06054-.42968h-1.43946V58.101h1.7002a2.0641,2.0641,0,0,1,1.64551.66016,2.74253,2.74253,0,0,1,.57422,1.85938v.58007a2.747,2.747,0,0,1-.57422,1.86036,2.06725,2.06725,0,0,1-1.64551.66015h-1.7002Z"/><path class="f8d662e5-36ea-460a-9a69-987bcb20f7b0" d="M76.60089,4.73965a1.71893,1.71893,0,0,1,.19922-.835A5.07525,5.07525,0,0,1,77.37042,3.1a5.09257,5.09257,0,0,0,.43946-.59961,1.01093,1.01093,0,0,0,.15039-.53027.86919.86919,0,0,0-.23047-.62989A.85415.85415,0,0,0,77.08038,1.1a1.44183,1.44183,0,0,0-1.08007.54L75.431,1.11953A2.30867,2.30867,0,0,1,77.2005.26992a1.81447,1.81447,0,0,1,1.26465.42969,1.5361,1.5361,0,0,1,.47558,1.20019,1.475,1.475,0,0,1-.17968.73047,5.30886,5.30886,0,0,1-.541.75,4.43378,4.43378,0,0,0-.53906.72949,1.4363,1.4363,0,0,0-.18066.72071,1.03992,1.03992,0,0,0,.01074.17968h-.89063C76.60675,4.87637,76.60089,4.78652,76.60089,4.73965ZM76.595,7.01015a.70217.70217,0,0,1-.19531-.50976.71937.71937,0,0,1,.19531-.51563.67689.67689,0,0,1,.9707,0,.7235.7235,0,0,1,.19532.51563.70617.70617,0,0,1-.19532.50976.68842.68842,0,0,1-.9707,0Z"/><path class="f8d662e5-36ea-460a-9a69-987bcb20f7b0" d="M83.86066,1.47012v.88964l-1.8711,4.73047H80.92023l1.87011-4.7998H79.78058V-.07969h.96973V1.47012Z"/><path class="f8d662e5-36ea-460a-9a69-987bcb20f7b0" d="M89.25031,6.26992v.82031h-4.54V6.26992h2.77929V3.29043a1.06821,1.06821,0,0,0-.22949-.76563.89786.89786,0,0,0-.66992-.23437H84.71027V1.47012h2.15039a1.68788,1.68788,0,0,1,1.25.45019,1.94558,1.94558,0,0,1,.44922,1.41992V6.26992Z"/><path class="f8d662e5-36ea-460a-9a69-987bcb20f7b0" d="M93.87042,6.34512a5.83848,5.83848,0,0,1-3.14062.84472l-.58008-4.89941-.09961-.82031H92.93a1.88184,1.88184,0,0,1,1.44434.5498,2.21258,2.21258,0,0,1,.54492,1.5l.01074.32031A2.70571,2.70571,0,0,1,93.87042,6.34512Zm-.52051-.77051a2.26066,2.26066,0,0,0,.52051-1.75489V3.55019A1.44539,1.44539,0,0,0,93.59991,2.64a.89511.89511,0,0,0-.75-.34961H91.22l.44922,3.92969A2.67587,2.67587,0,0,0,93.34991,5.57461Z"/><path class="f8d662e5-36ea-460a-9a69-987bcb20f7b0" d="M95.56964,6.26992h1.62109V3.13027a.93955.93955,0,0,0-.16992-.625.809.809,0,0,0-.51074-.24512l-.67969-.10058L95.97,1.35l1.04.15039a1.38225,1.38225,0,0,1,.92481.50488,1.74047,1.74047,0,0,1,.32519,1.10449V7.09023H95.56964Z"/><path class="f8d662e5-36ea-460a-9a69-987bcb20f7b0" d="M105.86066,6.26992v.82031h-4.541V6.26992h2.78027V3.29043a1.07268,1.07268,0,0,0-.22949-.76563.89936.89936,0,0,0-.66992-.23437h-1.88086V1.47012H103.47a1.68788,1.68788,0,0,1,1.25.45019,1.9413,1.9413,0,0,1,.44922,1.41992V6.26992Z"/><path class="f8d662e5-36ea-460a-9a69-987bcb20f7b0" d="M110.59991,7.09023,108.49933,3.8998l-.99024,3.19043h-1.01953l1.09961-3.44043.28125-.71-.91992-1.46972h1.08984l.83985,1.3496L109.72,4.08047l.25-.87012.50977-1.74023h1.02929l-1.15918,3.54,1.38965,2.08008Z"/><path class="f8d662e5-36ea-460a-9a69-987bcb20f7b0" d="M112.4505,6.26992H113.89a1.2897,1.2897,0,0,0,1.06055-.42969,1.89323,1.89323,0,0,0,.34961-1.2207V3.93984a1.89026,1.89026,0,0,0-.34961-1.21972A1.28682,1.28682,0,0,0,113.89,2.29043H112.4505V1.47012h1.69922a2.06409,2.06409,0,0,1,1.64551.66015,2.73774,2.73774,0,0,1,.57519,1.85938v.58007a2.7422,2.7422,0,0,1-.57519,1.86036,2.06725,2.06725,0,0,1-1.64551.66015H112.4505Z"/><path class="f8d662e5-36ea-460a-9a69-987bcb20f7b0" d="M117.39972,4.36953l.15039-.66992H118.47V7.09023h-1.07031Zm3.39062-1.0791a1.06818,1.06818,0,0,0-.23046-.76563.89788.89788,0,0,0-.66993-.23437h-2.46V1.47012h2.72949a1.68634,1.68634,0,0,1,1.25.45019,1.9372,1.9372,0,0,1,.4502,1.41992v3.75h-1.06934Z"/><path class="f8d662e5-36ea-460a-9a69-987bcb20f7b0" d="M129.2298,1.92031A1.93725,1.93725,0,0,1,129.68,3.34023v3.75h-4.60058V1.47012h2.90039A1.68637,1.68637,0,0,1,129.2298,1.92031Zm-.61914,4.34961V3.29043a1.06818,1.06818,0,0,0-.23047-.76563.89939.89939,0,0,0-.66992-.23437h-1.56055V6.26992Z"/><path class="f8d662e5-36ea-460a-9a69-987bcb20f7b0" d="M134.66925,7.09023,132.56964,3.8998l-.99023,3.19043h-1.01953l1.0996-3.44043.28028-.71-.91992-1.46972h1.08984l.83984,1.3496.83985,1.26075.25-.87012.51074-1.74023h1.0293l-1.16016,3.54,1.39063,2.08008Z"/><path class="f8d662e5-36ea-460a-9a69-987bcb20f7b0" d="M136.68878,4.36953l.15039-.66992h.91992V7.09023h-1.07031Zm3.39063-1.0791a1.06376,1.06376,0,0,0-.23047-.76563.89488.89488,0,0,0-.66992-.23437H136.72V1.47012h2.72949a1.68634,1.68634,0,0,1,1.25.45019,1.94141,1.94141,0,0,1,.4502,1.41992v3.75h-1.07031Z"/><path class="f8d662e5-36ea-460a-9a69-987bcb20f7b0" d="M106.67706,153.1332l-.11914-1.16992h1.05957l.12989,1.16992v6.4502h-1.07032Z"/><path class="f8d662e5-36ea-460a-9a69-987bcb20f7b0" d="M109.07745,153.1332l-.12011-1.16992h1.05957l.13086,1.16992v1.51953l-.01075.63086-1.05957.19922Z"/><path class="f8d662e5-36ea-460a-9a69-987bcb20f7b0" d="M113.27667,157.5834l-.21972-1.23047a3.01626,3.01626,0,0,1-.69043.8457,3.11583,3.11583,0,0,1-.9795.54492l-.38964-.85058a3.96441,3.96441,0,0,0,1.15429-.6045,2.5982,2.5982,0,0,0,.73535-.915v-1.75a1.32122,1.32122,0,0,0-.11425-.63575.574.574,0,0,0-.43555-.24414l-.62988-.09082.13964-.80957.99024.13965a1.229,1.229,0,0,1,.85547.46,1.83238,1.83238,0,0,1,.26465,1.07031V155.433l.33984,2.15039Z"/><path class="f8d662e5-36ea-460a-9a69-987bcb20f7b0" d="M119.18683,151.96328v.88965l-1.87012,4.73047h-1.06933l1.86914-4.79981h-3.00977v-2.37012h.9707v1.54981Z"/><path class="f8d662e5-36ea-460a-9a69-987bcb20f7b0" d="M120.03644,151.96328h1.07031l.54,4.75a2.1496,2.1496,0,0,0,2.23926-2.41992v-.28028a1.3461,1.3461,0,0,0-.28907-.88964,1.16909,1.16909,0,0,0-.86035-.39063l-.5-.0293.08008-.84082.58985.03028a2.285,2.285,0,0,1,1.44042.55566,1.97192,1.97192,0,0,1,.58008,1.43457l.00977.28027a2.87842,2.87842,0,0,1-1.0752,2.585,5.618,5.618,0,0,1-3.15527.93457Z"/><path class="f8d662e5-36ea-460a-9a69-987bcb20f7b0" d="M125.94659,156.76308h1.81055a1.45189,1.45189,0,0,0,1.08984-.41015,1.727,1.727,0,0,0,.4004-1.25V154.433a2.01481,2.01481,0,0,0-.32032-1.21973,1.11784,1.11784,0,0,0-.96-.42969h-.90039l-.21973.98926a1.91133,1.91133,0,0,0-.05078.39062.61634.61634,0,0,0,.1709.46485,1.1335,1.1335,0,0,0,.55957.24512l-.18945.68945a1.75208,1.75208,0,0,1-1.13477-.39453,1.26931,1.26931,0,0,1-.35547-.95508,2.61705,2.61705,0,0,1,.04981-.53027l.38965-1.71973h1.91015a1.93427,1.93427,0,0,1,1.56055.66016,2.77508,2.77508,0,0,1,.55957,1.84961v.58007a2.56494,2.56494,0,0,1-.63965,1.88965,2.29937,2.29937,0,0,1-1.70019.64063h-2.03028Z"/><path class="f8d662e5-36ea-460a-9a69-987bcb20f7b0" d="M131.4671,153.1332l-.12012-1.16992h1.06055l.12891,1.16992v4.4502H131.4671Z"/><path class="f8d662e5-36ea-460a-9a69-987bcb20f7b0" d="M137.557,157.5834l-2.10059-3.19043-.99023,3.19043h-1.01954l1.09961-3.44043.28125-.71-.91992-1.46973h1.08985l.83984,1.34961.83984,1.26074.25-.87012.50977-1.74023h1.0293l-1.15918,3.54,1.38964,2.08008Z"/><path class="f8d662e5-36ea-460a-9a69-987bcb20f7b0" d="M143.61652,150.48281h.70019l-2.47949,8.7002h-.70117Z"/><path class="f8d662e5-36ea-460a-9a69-987bcb20f7b0" d="M150.95636,151.96328v.88965l-1.87012,4.73047h-1.06933l1.86914-4.79981h-3.00977v-2.37012h.9707v1.54981Z"/><path class="f8d662e5-36ea-460a-9a69-987bcb20f7b0" d="M152.056,153.1332l-.11914-1.16992h1.05957l.12988,1.16992v4.4502H152.056Z"/><path class="f8d662e5-36ea-460a-9a69-987bcb20f7b0" d="M158.89581,156.92812a2.124,2.124,0,0,1-1.75976.77539,3.88812,3.88812,0,0,1-.85938-.10058l.10938-.81934a3.27794,3.27794,0,0,0,.65039.0791,1.23154,1.23154,0,0,0,1.10937-.52929,3.71011,3.71011,0,0,0,.01563-3.11524,1.09981,1.09981,0,0,0-.95508-.47461,1.13005,1.13005,0,0,0-.78516.27442,1.34981,1.34981,0,0,0-.40527.73535l-.66992,3.83008h-1.06934l.71973-3.87012-.78027-1.75h1.10937l.45117,1.17969a1.84687,1.84687,0,0,1,.63965-.94434,1.60857,1.60857,0,0,1,.97949-.31543,1.89056,1.89056,0,0,1,1.56055.69531,3.44894,3.44894,0,0,1,.55957,2.17481A3.39369,3.39369,0,0,1,158.89581,156.92812Z"/><path class="f8d662e5-36ea-460a-9a69-987bcb20f7b0" d="M160.48566,154.76308l.15039-.67968h.91992v5.5h-1.07031Zm1.791,2a2.12855,2.12855,0,0,0,.82422-.23535,1.31176,1.31176,0,0,0,.54-.61914,3.3815,3.3815,0,0,0,.25488-1.19531l.15039-1.92969h-3.54v-.82031h4.69043l-.041.71973-.13965,1.78027a3.81973,3.81973,0,0,1-.72949,2.28027,2.4284,2.4284,0,0,1-1.91016.84961Z"/><path class="f8d662e5-36ea-460a-9a69-987bcb20f7b0" d="M170.02667,157.5834l-2.10058-3.19043-.99024,3.19043h-1.02051l1.10059-3.44043.28027-.71-.91992-1.46973h1.08985l.83984,1.34961.83984,1.26074.25-.87012.50977-1.74023h1.03027l-1.15918,3.54,1.38867,2.08008Z"/><path class="f8d662e5-36ea-460a-9a69-987bcb20f7b0" d="M137.44659,169.5834l-.2207-1.23047a2.99627,2.99627,0,0,1-.68945.8457,3.11019,3.11019,0,0,1-.98047.54492l-.38867-.85058a3.98968,3.98968,0,0,0,1.15429-.6045,2.59578,2.59578,0,0,0,.73438-.915v-1.75a1.30951,1.30951,0,0,0-.11426-.63575.57194.57194,0,0,0-.43457-.24414l-.63086-.09082.14063-.80957.99023.13965a1.2246,1.2246,0,0,1,.85449.46,1.825,1.825,0,0,1,.26465,1.07031V167.433l.33985,2.15039Z"/><path class="f8d662e5-36ea-460a-9a69-987bcb20f7b0" d="M140.60089,164.518a.52667.52667,0,0,1,.17578.415.62721.62721,0,0,1-.166.46.57589.57589,0,0,1-.43457.16992.61568.61568,0,0,1-.53028-.26465,1.28124,1.28124,0,0,1-.18945-.75488,2.03436,2.03436,0,0,1,1.16992-1.87989l.25977.46a1.91205,1.91205,0,0,0-.60547.54,1.25085,1.25085,0,0,0-.19434.71.29425.29425,0,0,1,.08985-.01075A.616.616,0,0,1,140.60089,164.518Zm1.94043,0a.52914.52914,0,0,1,.17481.415.63068.63068,0,0,1-.165.46.57889.57889,0,0,1-.43457.16992.6145.6145,0,0,1-.53028-.26465,1.28824,1.28824,0,0,1-.19043-.75488,2.03438,2.03438,0,0,1,1.16992-1.87989l.26075.46a1.8864,1.8864,0,0,0-.6045.54,1.2363,1.2363,0,0,0-.19531.71.28984.28984,0,0,1,.08985-.01075A.61769.61769,0,0,1,142.54132,164.518Z"/><path class="f8d662e5-36ea-460a-9a69-987bcb20f7b0" d="M148.61652,168.92812a2.12531,2.12531,0,0,1-1.75977.77539,3.89659,3.89659,0,0,1-.86035-.10058l.11035-.81934a3.26121,3.26121,0,0,0,.64941.0791,1.23328,1.23328,0,0,0,1.11036-.52929,2.83166,2.83166,0,0,0,.34961-1.54981,2.78833,2.78833,0,0,0-.335-1.56543,1.09925,1.09925,0,0,0-.9541-.47461,1.13,1.13,0,0,0-.78515.27442,1.34489,1.34489,0,0,0-.40625.73535l-.66993,3.83008H143.9964l.71973-3.87012-.7793-1.75h1.10937l.4502,1.17969a1.84687,1.84687,0,0,1,.63965-.94434,1.61143,1.61143,0,0,1,.98047-.31543,1.89311,1.89311,0,0,1,1.56054.69531,3.44929,3.44929,0,0,1,.5586,2.17481A3.39951,3.39951,0,0,1,148.61652,168.92812Z"/><path class="f8d662e5-36ea-460a-9a69-987bcb20f7b0" d="M152.13605,168.75332h1.44043v-4.40039h-1.16992v-.63965a4.05282,4.05282,0,0,0,1.41992-.5h.75976v5.54h1.28028v.83008h-3.73047Z"/><path class="f8d662e5-36ea-460a-9a69-987bcb20f7b0" d="M157.2962,168.8334a4.54373,4.54373,0,0,1-.56054-2.46,4.41127,4.41127,0,0,1,.56054-2.43555,1.84119,1.84119,0,0,1,3.09961.00488,4.41765,4.41765,0,0,1,.56055,2.43067,4.54364,4.54364,0,0,1-.56055,2.46,1.81528,1.81528,0,0,1-3.09961,0Zm2.38477-.54a4.53212,4.53212,0,0,0,.30469-1.91992q0-2.48-1.13965-2.48047-1.13966,0-1.13965,2.48047a4.532,4.532,0,0,0,.30469,1.91992.87672.87672,0,0,0,1.66992,0Z"/><path class="f8d662e5-36ea-460a-9a69-987bcb20f7b0" d="M162.35675,168.8334a4.53494,4.53494,0,0,1-.56055-2.46,4.40285,4.40285,0,0,1,.56055-2.43555,1.84119,1.84119,0,0,1,3.09961.00488,4.41765,4.41765,0,0,1,.56055,2.43067,4.54364,4.54364,0,0,1-.56055,2.46,1.81528,1.81528,0,0,1-3.09961,0Zm2.38477-.54a4.53215,4.53215,0,0,0,.30468-1.91992q0-2.48-1.14062-2.48047-1.13965,0-1.13867,2.48047a4.53215,4.53215,0,0,0,.30468,1.91992.87672.87672,0,0,0,1.66993,0Z"/><path class="f8d662e5-36ea-460a-9a69-987bcb20f7b0" d="M167.41632,168.8334a4.53546,4.53546,0,0,1-.55957-2.46,4.40338,4.40338,0,0,1,.55957-2.43555,1.84209,1.84209,0,0,1,3.10059.00488,4.41824,4.41824,0,0,1,.55957,2.43067,4.54425,4.54425,0,0,1-.55957,2.46,1.81615,1.81615,0,0,1-3.10059,0Zm2.38574-.54a4.532,4.532,0,0,0,.30469-1.91992q0-2.48-1.14062-2.48047-1.13966,0-1.13965,2.48047a4.53215,4.53215,0,0,0,.30468,1.91992.87739.87739,0,0,0,1.6709,0Z"/><path class="f8d662e5-36ea-460a-9a69-987bcb20f7b0" d="M27.0423,175.66543a1.06371,1.06371,0,0,0-.23047-.76563.89637.89637,0,0,0-.66992-.23437H24.2923v-.82031h2.12011a1.68634,1.68634,0,0,1,1.25.45019,1.94141,1.94141,0,0,1,.4502,1.41992v3.75H27.0423Z"/><path class="f8d662e5-36ea-460a-9a69-987bcb20f7b0" d="M29.44269,175.015l-.1211-1.16992h1.06055L30.512,175.015v1.51953l-.01074.63086-1.05859.19922Z"/><path class="f8d662e5-36ea-460a-9a69-987bcb20f7b0" d="M34.24152,175.66543a1.06821,1.06821,0,0,0-.2295-.76563.89786.89786,0,0,0-.66992-.23437H31.49152v-.82031h2.12109a1.68788,1.68788,0,0,1,1.25.45019,1.94554,1.94554,0,0,1,.44922,1.41992v3.75H34.24152Z"/><path class="f8d662e5-36ea-460a-9a69-987bcb20f7b0" d="M40.80206,178.54043a5.42171,5.42171,0,0,1-3.67968,1.02441l-.73047-5.71972h1.0205l.31934,2.66015a1.50413,1.50413,0,0,0,.75-.71,3.53272,3.53272,0,0,0,.2207-1.32031v-.62012H39.722l-.00976.60059a3.398,3.398,0,0,1-.43945,1.76465,2.92344,2.92344,0,0,1-1.44043,1.07519l.15918,1.35938a3.13069,3.13069,0,0,0,2.22558-.89942,3.33855,3.33855,0,0,0,.70508-2.32031l-.02051-1.58984H41.972l.00977,1.54A3.9063,3.9063,0,0,1,40.80206,178.54043Z"/><path class="f8d662e5-36ea-460a-9a69-987bcb20f7b0" d="M46.9212,173.84512v.88964l-1.86914,4.73047H43.98175l1.87012-4.7998H42.84113v-2.37012h.9707v1.54981Z"/><path class="f8d662e5-36ea-460a-9a69-987bcb20f7b0" d="M54.1214,174.29531a1.94146,1.94146,0,0,1,.45019,1.41992v3.75H49.972v-5.62011H52.8714A1.68485,1.68485,0,0,1,54.1214,174.29531Zm-.62012,4.34961v-2.97949a1.06821,1.06821,0,0,0-.22949-.76563.89875.89875,0,0,0-.6709-.23437H51.0423v3.97949Z"/><path class="f8d662e5-36ea-460a-9a69-987bcb20f7b0" d="M55.87238,175.015l-.1211-1.16992h1.06055l.12988,1.16992v4.45019H55.87238Z"/><path class="f8d662e5-36ea-460a-9a69-987bcb20f7b0" d="M58.27179,175.015l-.12012-1.16992h1.06055l.12891,1.16992v1.51953l-.00977.63086-1.05957.19922Z"/><path class="f8d662e5-36ea-460a-9a69-987bcb20f7b0" d="M60.63214,178.64492h1.80957a1.45194,1.45194,0,0,0,1.08985-.41016,1.72681,1.72681,0,0,0,.39941-1.25v-.66992a2.00819,2.00819,0,0,0-.31934-1.21972,1.12022,1.12022,0,0,0-.96-.42969h-.90039l-.21972.98926a1.83565,1.83565,0,0,0-.04981.39062.61957.61957,0,0,0,.16992.46484,1.13311,1.13311,0,0,0,.56055.24512l-.19141.68945a1.75413,1.75413,0,0,1-1.13476-.39453,1.27245,1.27245,0,0,1-.35449-.95507,2.61726,2.61726,0,0,1,.0498-.53028l.39062-1.71972h1.91016a1.93489,1.93489,0,0,1,1.55957.66015,2.77508,2.77508,0,0,1,.55957,1.84961v.58008a2.56089,2.56089,0,0,1-.63965,1.88965,2.29783,2.29783,0,0,1-1.70019.64062h-2.0293Z"/><path class="f8d662e5-36ea-460a-9a69-987bcb20f7b0" d="M68.55206,175.66543a1.06818,1.06818,0,0,0-.23047-.76563.89786.89786,0,0,0-.66992-.23437H65.80206v-.82031H67.9212a1.68634,1.68634,0,0,1,1.25.45019,1.93725,1.93725,0,0,1,.4502,1.41992v3.75H68.55206Z"/><path class="f8d662e5-36ea-460a-9a69-987bcb20f7b0" d="M70.95148,175.015l-.12012-1.16992h1.06055l.1289,1.16992v4.45019H70.95148Z"/><path class="f8d662e5-36ea-460a-9a69-987bcb20f7b0" d="M77.79132,178.81a2.1247,2.1247,0,0,1-1.76074.77539,3.88755,3.88755,0,0,1-.85938-.10059l.10938-.81933a3.27869,3.27869,0,0,0,.65039.0791,1.23325,1.23325,0,0,0,1.11035-.5293,2.82237,2.82237,0,0,0,.35059-1.5498A2.78734,2.78734,0,0,0,77.056,175.1a1.09749,1.09749,0,0,0-.95508-.47461,1.13009,1.13009,0,0,0-.78516.27441,1.34255,1.34255,0,0,0-.40429.73535l-.66992,3.83008H73.1712l.72071-3.87011-.78125-1.75H74.221l.45019,1.17968a1.854,1.854,0,0,1,.64063-.94433,1.60857,1.60857,0,0,1,.97949-.31543,1.88862,1.88862,0,0,1,1.55957.69531,3.44858,3.44858,0,0,1,.56055,2.1748A3.39954,3.39954,0,0,1,77.79132,178.81Z"/><path class="f8d662e5-36ea-460a-9a69-987bcb20f7b0" d="M54.931,191.46523l-.21973-1.23047a3.01582,3.01582,0,0,1-.69043.84571,3.11578,3.11578,0,0,1-.97949.54492l-.38965-.85059a3.96446,3.96446,0,0,0,1.1543-.60449,2.59835,2.59835,0,0,0,.73535-.915v-1.75a1.32118,1.32118,0,0,0-.11426-.63574.574.574,0,0,0-.43554-.24414l-.62989-.09082.13965-.80957.99024.13965a1.2289,1.2289,0,0,1,.85546.46,1.83228,1.83228,0,0,1,.26465,1.07031v1.91992l.33985,2.15039Z"/><path class="f8d662e5-36ea-460a-9a69-987bcb20f7b0" d="M58.08624,186.3998a.52916.52916,0,0,1,.17481.415.63068.63068,0,0,1-.165.46.57885.57885,0,0,1-.43457.16992.61453.61453,0,0,1-.53028-.26464,1.281,1.281,0,0,1-.19043-.75489,2.03436,2.03436,0,0,1,1.16993-1.87988l.26074.46a1.90136,1.90136,0,0,0-.60547.54,1.24333,1.24333,0,0,0-.19434.71.29025.29025,0,0,1,.08985-.01074A.61773.61773,0,0,1,58.08624,186.3998Zm1.94043,0a.52844.52844,0,0,1,.17383.415.63424.63424,0,0,1-.16406.46.58109.58109,0,0,1-.43555.16992.61281.61281,0,0,1-.5293-.26464,1.281,1.281,0,0,1-.19043-.75489,2.03273,2.03273,0,0,1,1.16993-1.87988l.26074.46a1.90136,1.90136,0,0,0-.60547.54,1.23621,1.23621,0,0,0-.19531.71.29455.29455,0,0,1,.08984-.01074A.6202.6202,0,0,1,60.02667,186.3998Z"/><path class="f8d662e5-36ea-460a-9a69-987bcb20f7b0" d="M66.10089,190.81a2.124,2.124,0,0,1-1.75976.77539,3.88755,3.88755,0,0,1-.85938-.10059l.10938-.81933a3.27869,3.27869,0,0,0,.65039.0791,1.23152,1.23152,0,0,0,1.10937-.5293A3.71009,3.71009,0,0,0,65.36652,187.1a1.09981,1.09981,0,0,0-.95508-.47461,1.13009,1.13009,0,0,0-.78516.27441,1.34984,1.34984,0,0,0-.40527.73535l-.66992,3.83008H61.48175l.71973-3.87011-.78028-1.75h1.10938l.45117,1.17968a1.84684,1.84684,0,0,1,.63965-.94433,1.60857,1.60857,0,0,1,.97949-.31543,1.89054,1.89054,0,0,1,1.56055.69531,3.449,3.449,0,0,1,.55957,2.1748A3.39376,3.39376,0,0,1,66.10089,190.81Z"/><path class="f8d662e5-36ea-460a-9a69-987bcb20f7b0" d="M69.6214,190.63515h1.44043v-4.40039H69.89191v-.63964a4.06013,4.06013,0,0,0,1.41992-.5h.75976v5.54h1.2793v.83008H69.6214Z"/><path class="f8d662e5-36ea-460a-9a69-987bcb20f7b0" d="M74.78058,190.71523a4.54416,4.54416,0,0,1-.55957-2.46,4.41172,4.41172,0,0,1,.55957-2.43555,1.84208,1.84208,0,0,1,3.10058.00489,4.41814,4.41814,0,0,1,.55957,2.43066,4.54416,4.54416,0,0,1-.55957,2.46,1.81613,1.81613,0,0,1-3.10058,0Zm2.38574-.54a4.5319,4.5319,0,0,0,.30469-1.91992q0-2.48-1.13965-2.48047-1.13966,0-1.14063,2.48047a4.53206,4.53206,0,0,0,.30469,1.91992.87738.87738,0,0,0,1.6709,0Z"/><path class="f8d662e5-36ea-460a-9a69-987bcb20f7b0" d="M113.11945,260.50039a1.1242,1.1242,0,0,0,.78027-.31055,1.30338,1.30338,0,0,0,.19922-.80957v-3.91015h2.70019a1.68634,1.68634,0,0,1,1.25.45019,1.94141,1.94141,0,0,1,.4502,1.41992v3.75H117.429v-3.7998a1.06376,1.06376,0,0,0-.23047-.76563.89488.89488,0,0,0-.66992-.23437h-1.35938v2.96972a1.94306,1.94306,0,0,1-.46,1.43946,2.42707,2.42707,0,0,1-1.49023.55078Z"/><path class="f8d662e5-36ea-460a-9a69-987bcb20f7b0" d="M123.5589,255.47012v.88964l-1.87012,4.73047h-1.07031l1.87109-4.7998h-3.01074v-2.37012h.96973v1.54981Z"/><path class="f8d662e5-36ea-460a-9a69-987bcb20f7b0" d="M124.65948,256.64l-.12011-1.16992h1.05957l.13086,1.16992v4.45019h-1.07032Z"/><path class="f8d662e5-36ea-460a-9a69-987bcb20f7b0" d="M126.73956,260.26992H128.179a1.28969,1.28969,0,0,0,1.06054-.42969,1.89323,1.89323,0,0,0,.34961-1.2207v-.67969a1.89026,1.89026,0,0,0-.34961-1.21972,1.28682,1.28682,0,0,0-1.06054-.42969h-1.43946v-.82031h1.69922a2.06409,2.06409,0,0,1,1.64551.66015,2.73774,2.73774,0,0,1,.57519,1.85938v.58007a2.7422,2.7422,0,0,1-.57519,1.86036,2.06725,2.06725,0,0,1-1.64551.66015h-1.69922Z"/><path class="f8d662e5-36ea-460a-9a69-987bcb20f7b0" d="M131.83917,256.64l-.12011-1.16992h1.05957l.13085,1.16992v1.51953l-.01074.63086-1.05957.19922Z"/><path class="f8d662e5-36ea-460a-9a69-987bcb20f7b0" d="M140.39874,260.16543a5.42171,5.42171,0,0,1-3.67968,1.02441l-.7295-5.71972h1.01953l.32032,2.66015a1.51221,1.51221,0,0,0,.75-.71,3.53913,3.53913,0,0,0,.21875-1.32031v-.62012h1.0205l-.00976.60059a3.38839,3.38839,0,0,1-.44043,1.76465,2.91147,2.91147,0,0,1-1.43945,1.07519l.16015,1.35938a3.13187,3.13187,0,0,0,2.22461-.89942,3.34335,3.34335,0,0,0,.70508-2.32031l-.01953-1.58984h1.06933l.01075,1.54A3.913,3.913,0,0,1,140.39874,260.16543Z"/><path class="f8d662e5-36ea-460a-9a69-987bcb20f7b0" d="M142.75909,256.64l-.12011-1.16992h1.05957l.13086,1.16992v1.51953l-.01075.63086-1.05957.19922Z"/><path class="f8d662e5-36ea-460a-9a69-987bcb20f7b0" d="M151.48859,255.47012a21.79937,21.79937,0,0,1-.15528,3.03515,3.00734,3.00734,0,0,1-.75,1.64942,3.4899,3.4899,0,0,1-1.91406.8955l-1.88086.37012-.14941-.83984,1.69043-.33008-1.23047-4.78027h1.07031l1.11914,4.53027a1.52639,1.52639,0,0,0,.78027-.7207,3.30038,3.30038,0,0,0,.29981-1.21485q.06151-.73534.06055-2.20508v-.38964Z"/><path class="f8d662e5-36ea-460a-9a69-987bcb20f7b0" d="M152.66925,256.64l-.12109-1.16992h1.06054l.12989,1.16992v4.45019h-1.06934Z"/><path class="f8d662e5-36ea-460a-9a69-987bcb20f7b0" d="M157.83917,258.68008l1.39942,2.41015h-4.52051v-.82031h2.95019l-2.79-4.7998h1.08985l1.291,2.21972.92969-2.21972h1.07031Z"/><path class="f8d662e5-36ea-460a-9a69-987bcb20f7b0" d="M160.388,260.26992h1.81055a1.4519,1.4519,0,0,0,1.08984-.41016,1.727,1.727,0,0,0,.40039-1.25v-.66992a2.01477,2.01477,0,0,0-.32031-1.21972,1.11784,1.11784,0,0,0-.96-.42969h-.90039l-.21973.98926a1.91133,1.91133,0,0,0-.05078.39062.61631.61631,0,0,0,.1709.46484,1.13328,1.13328,0,0,0,.55957.24512l-.18945.68945a1.752,1.752,0,0,1-1.13477-.39453,1.26929,1.26929,0,0,1-.35547-.95507,2.61651,2.61651,0,0,1,.04981-.53028l.38964-1.71972H162.638a1.93428,1.93428,0,0,1,1.56055.66015,2.77513,2.77513,0,0,1,.55957,1.84961V258.56a2.56494,2.56494,0,0,1-.63965,1.88965,2.29939,2.29939,0,0,1-1.7002.64062H160.388Z"/><path class="f8d662e5-36ea-460a-9a69-987bcb20f7b0" d="M169.66827,255.47012v.88964l-1.87011,4.73047h-1.07032l1.8711-4.7998H165.5882v-2.37012h.96972v1.54981Z"/><path class="f8d662e5-36ea-460a-9a69-987bcb20f7b0" d="M176.86847,255.92031a1.94134,1.94134,0,0,1,.44922,1.41992v3.75h-4.59961v-5.62011h2.90039A1.68788,1.68788,0,0,1,176.86847,255.92031Zm-.62012,4.34961v-2.97949a1.07273,1.07273,0,0,0-.22949-.76563.90026.90026,0,0,0-.6709-.23437h-1.55957v3.97949Z"/><path class="f8d662e5-36ea-460a-9a69-987bcb20f7b0" d="M182.30792,261.09023l-2.09961-3.19043-.99023,3.19043h-1.01953l1.09961-3.44043.28027-.71-.91992-1.46972h1.08984l.83985,1.3496.83984,1.26075.25-.87012.51074-1.74023h1.0293l-1.16016,3.54,1.39063,2.08008Z"/><path class="f8d662e5-36ea-460a-9a69-987bcb20f7b0" d="M99.13019,272.50039a1.11936,1.11936,0,0,0,.77929-.31055,1.30278,1.30278,0,0,0,.2002-.80957v-3.91015h2.7002a1.6879,1.6879,0,0,1,1.25.45019,1.94134,1.94134,0,0,1,.44921,1.41992v3.75h-1.07031v-3.7998a1.06821,1.06821,0,0,0-.22949-.76563.89637.89637,0,0,0-.66992-.23437H101.179v2.96972a1.943,1.943,0,0,1-.459,1.43946,2.42955,2.42955,0,0,1-1.49023.55078Z"/><path class="f8d662e5-36ea-460a-9a69-987bcb20f7b0" d="M105.30988,272.50039a1.11733,1.11733,0,0,0,.77929-.31055,1.29588,1.29588,0,0,0,.20117-.80957v-3.91015h2.69922a1.68634,1.68634,0,0,1,1.25.45019,1.93725,1.93725,0,0,1,.4502,1.41992v3.75h-1.07031v-3.7998a1.07268,1.07268,0,0,0-.2295-.76563.89936.89936,0,0,0-.66992-.23437h-1.36035v2.96972a1.94306,1.94306,0,0,1-.46,1.43946,2.42708,2.42708,0,0,1-1.49024.55078Z"/><path class="f8d662e5-36ea-460a-9a69-987bcb20f7b0" d="M115.74933,267.47012v.88964l-1.87012,4.73047h-1.06933l1.86914-4.7998h-3.00977v-2.37012h.9707v1.54981Z"/><path class="f8d662e5-36ea-460a-9a69-987bcb20f7b0" d="M116.84894,268.64l-.11914-1.16992h1.05957l.12988,1.16992v4.45019h-1.07031Z"/><path class="f8d662e5-36ea-460a-9a69-987bcb20f7b0" d="M125.53937,272.26992v.82031h-4.54v-.82031h2.7793v-2.97949a1.06821,1.06821,0,0,0-.2295-.76563.89786.89786,0,0,0-.66992-.23437h-1.87988v-.82031h2.15039a1.68788,1.68788,0,0,1,1.25.45019,1.94554,1.94554,0,0,1,.44922,1.41992v2.92969Z"/><path class="f8d662e5-36ea-460a-9a69-987bcb20f7b0" d="M130.34894,267.47012v.88964l-1.87012,4.73047h-1.06934l1.86915-4.7998h-3.00977v-2.37012h.9707v1.54981Z"/><path class="f8d662e5-36ea-460a-9a69-987bcb20f7b0" d="M135.6087,272.16543a5.41835,5.41835,0,0,1-3.67968,1.02441l-.7295-5.71972H132.22l.31934,2.66015a1.51221,1.51221,0,0,0,.75-.71,3.53584,3.53584,0,0,0,.21972-1.32031v-.62012h1.01954l-.00977.60059a3.398,3.398,0,0,1-.43945,1.76465,2.916,2.916,0,0,1-1.43946,1.07519l.15918,1.35938a3.13253,3.13253,0,0,0,2.22559-.89942,3.34335,3.34335,0,0,0,.70508-2.32031l-.02051-1.58984h1.06934l.01074,1.54A3.90989,3.90989,0,0,1,135.6087,272.16543Z"/><path class="f8d662e5-36ea-460a-9a69-987bcb20f7b0" d="M141.72882,267.47012v.88964l-1.87012,4.73047h-1.07031l1.87109-4.7998h-3.01074v-2.37012h.96973v1.54981Z"/><path class="f8d662e5-36ea-460a-9a69-987bcb20f7b0" d="M144.82941,268.64l-.1211-1.16992h1.06055l.12988,1.16992v6.45019h-1.06933Z"/><path class="f8d662e5-36ea-460a-9a69-987bcb20f7b0" d="M146.72882,272.50039a1.12418,1.12418,0,0,0,.78027-.31055,1.30331,1.30331,0,0,0,.19922-.80957v-3.91015h2.7002a1.68637,1.68637,0,0,1,1.25.45019,1.94146,1.94146,0,0,1,.45019,1.41992v3.75h-1.07031v-3.7998a1.06371,1.06371,0,0,0-.23047-.76563.89485.89485,0,0,0-.66992-.23437h-1.35937v2.96972a1.943,1.943,0,0,1-.46,1.43946,2.42707,2.42707,0,0,1-1.49023.55078Z"/><path class="f8d662e5-36ea-460a-9a69-987bcb20f7b0" d="M153.40948,268.64l-.12109-1.16992h1.06055l.12988,1.16992v1.51953l-.01074.63086-1.0586.19922Z"/><path class="f8d662e5-36ea-460a-9a69-987bcb20f7b0" d="M155.54816,272.26992h1.62109v-3.13965a.93955.93955,0,0,0-.16992-.625.809.809,0,0,0-.51074-.24512l-.67969-.10058.13965-.80957,1.04.15039a1.38222,1.38222,0,0,1,.9248.50488,1.74041,1.74041,0,0,1,.3252,1.10449v3.98047h-2.69043Z"/><path class="f8d662e5-36ea-460a-9a69-987bcb20f7b0" d="M161.39777,270.36953l.15039-.66992h.91992v3.39062h-1.07031Zm3.39062-1.0791a1.06371,1.06371,0,0,0-.23047-.76563.89485.89485,0,0,0-.66992-.23437h-2.459v-.82031h2.72949a1.68637,1.68637,0,0,1,1.25.45019,1.94146,1.94146,0,0,1,.45019,1.41992v3.75h-1.07031Z"/><path class="f8d662e5-36ea-460a-9a69-987bcb20f7b0" d="M167.12823,268.64l-.11914-1.16992h1.05957l.12989,1.16992v1.51953l-.00977.63086-1.06055.19922Z"/><path class="f8d662e5-36ea-460a-9a69-987bcb20f7b0" d="M169.52863,268.64l-.12012-1.16992h1.05957l.13086,1.16992v1.51953l-.01074.63086-1.05957.19922Z"/><path class="f8d662e5-36ea-460a-9a69-987bcb20f7b0" d="M171.27863,272.50039a1.11733,1.11733,0,0,0,.77929-.31055,1.29588,1.29588,0,0,0,.20117-.80957v-3.91015h2.69922a1.68634,1.68634,0,0,1,1.25.45019,1.93725,1.93725,0,0,1,.4502,1.41992v3.75H175.5882v-3.7998a1.07268,1.07268,0,0,0-.2295-.76563.89936.89936,0,0,0-.66992-.23437h-1.36035v2.96972a1.94306,1.94306,0,0,1-.46,1.43946,2.42708,2.42708,0,0,1-1.49024.55078Z"/><path class="f8d662e5-36ea-460a-9a69-987bcb20f7b0" d="M182.11847,272.16543a5.42511,5.42511,0,0,1-3.67969,1.02441l-.73047-5.71972h1.01953l.32032,2.66015a1.50421,1.50421,0,0,0,.75-.71,3.53584,3.53584,0,0,0,.21972-1.32031v-.62012h1.02051l-.00976.60059a3.38849,3.38849,0,0,1-.44043,1.76465,2.919,2.919,0,0,1-1.44043,1.07519l.16015,1.35938a3.13,3.13,0,0,0,2.22461-.89942,3.33855,3.33855,0,0,0,.70508-2.32031l-.01953-1.58984h1.07031l.00977,1.54A3.90946,3.90946,0,0,1,182.11847,272.16543Z"/><path class="f8d662e5-36ea-460a-9a69-987bcb20f7b0" d="M101.80011,280.12539a2.92307,2.92307,0,0,1,.51953,1.85449v5.11035h-1.07031v-5.15039q0-1.64941-1.22949-1.64941h-.91993l-.16015.80957a2.48216,2.48216,0,0,0-.04.46.942.942,0,0,0,.12012.50976.56056.56056,0,0,0,.39941.24024l-.21973.66016a1.48751,1.48751,0,0,1-.99511-.38965,1.27762,1.27762,0,0,1-.30469-.90039,2.83747,2.83747,0,0,1,.07031-.62989l.33985-1.58007h1.96972A1.82733,1.82733,0,0,1,101.80011,280.12539Z"/><path class="f8d662e5-36ea-460a-9a69-987bcb20f7b0" d="M107.22,284.34512a5.83848,5.83848,0,0,1-3.14062.84472l-.58008-4.89941-.09961-.82031h2.87988a1.88185,1.88185,0,0,1,1.44434.5498,2.21258,2.21258,0,0,1,.54492,1.5l.01074.32031A2.70571,2.70571,0,0,1,107.22,284.34512Zm-.52051-.77051a2.26066,2.26066,0,0,0,.52051-1.75489v-.26953a1.44539,1.44539,0,0,0-.27051-.91015.89511.89511,0,0,0-.75-.34961h-1.62988l.44922,3.92969A2.67587,2.67587,0,0,0,106.69952,283.57461Z"/><path class="f8d662e5-36ea-460a-9a69-987bcb20f7b0" d="M109.4798,280.64l-.12012-1.16992h1.05957l.13086,1.16992v4.45019H109.4798Z"/><path class="f8d662e5-36ea-460a-9a69-987bcb20f7b0" d="M111.61945,284.26992h1.62011v-3.13965a.93955.93955,0,0,0-.16992-.625.80381.80381,0,0,0-.50976-.24512l-.67969-.10058.13867-.80957,1.041.15039a1.38222,1.38222,0,0,1,.9248.50488,1.74633,1.74633,0,0,1,.3252,1.10449v3.98047h-2.69043Z"/><path class="f8d662e5-36ea-460a-9a69-987bcb20f7b0" d="M119.90948,284.26992v.82031h-4.54v-.82031h2.78027v-2.97949a1.06818,1.06818,0,0,0-.23047-.76563.89786.89786,0,0,0-.66992-.23437h-1.87988v-.82031h2.14941a1.68635,1.68635,0,0,1,1.25.45019,1.93725,1.93725,0,0,1,.4502,1.41992v2.92969Z"/><path class="f8d662e5-36ea-460a-9a69-987bcb20f7b0" d="M122.95929,280.64l-.12012-1.16992h1.06055l.12891,1.16992v6.45019h-1.06934Z"/><path class="f8d662e5-36ea-460a-9a69-987bcb20f7b0" d="M125.3587,280.64l-.11914-1.16992h1.05957L126.429,280.64v1.51953l-.00977.63086-1.06055.19922Z"/><path class="f8d662e5-36ea-460a-9a69-987bcb20f7b0" d="M129.5589,285.09023l-.21973-1.23047a3.03283,3.03283,0,0,1-.69043.84571,3.11578,3.11578,0,0,1-.97949.54492l-.39062-.85059a3.95809,3.95809,0,0,0,1.15527-.60449,2.60917,2.60917,0,0,0,.73535-.915v-1.75a1.3193,1.3193,0,0,0-.11523-.63574.57049.57049,0,0,0-.43555-.24414l-.62891-.09082.13867-.80957.99024.13965a1.22478,1.22478,0,0,1,.85547.46,1.8247,1.8247,0,0,1,.26562,1.07031v1.91992l.33985,2.15039Z"/><path class="f8d662e5-36ea-460a-9a69-987bcb20f7b0" d="M135.46906,279.47012v.88964l-1.87012,4.73047h-1.07031l1.87109-4.7998H131.389v-2.37012h.96972v1.54981Z"/><path class="f8d662e5-36ea-460a-9a69-987bcb20f7b0" d="M136.31964,279.47012H137.389l.54,4.75a2.15032,2.15032,0,0,0,2.24023-2.41993v-.28027a1.3472,1.3472,0,0,0-.291-.88965,1.16684,1.16684,0,0,0-.85937-.39062l-.5-.0293.08008-.84082.58984.03027a2.28223,2.28223,0,0,1,1.43945.55567,1.9566,1.9566,0,0,1,.58008,1.43457l.01075.28027a2.87842,2.87842,0,0,1-1.0752,2.585,5.61954,5.61954,0,0,1-3.1543.93457Z"/><path class="f8d662e5-36ea-460a-9a69-987bcb20f7b0" d="M142.22882,284.26992h1.80957a1.4489,1.4489,0,0,0,1.08984-.41016,1.7227,1.7227,0,0,0,.4004-1.25v-.66992a2.00807,2.00807,0,0,0-.32032-1.21972,1.11717,1.11717,0,0,0-.959-.42969h-.90039l-.22071.98926a1.90135,1.90135,0,0,0-.0498.39062.61631.61631,0,0,0,.1709.46484,1.1291,1.1291,0,0,0,.55957.24512l-.19043.68945a1.75416,1.75416,0,0,1-1.13477-.39453,1.273,1.273,0,0,1-.35547-.95507,2.6135,2.6135,0,0,1,.05079-.53028l.38964-1.71972h1.91016a1.93225,1.93225,0,0,1,1.55957.66015,2.77528,2.77528,0,0,1,.56055,1.84961V282.56a2.56121,2.56121,0,0,1-.64063,1.88965,2.29554,2.29554,0,0,1-1.69922.64062h-2.03027Z"/><path class="f8d662e5-36ea-460a-9a69-987bcb20f7b0" d="M147.74933,280.64l-.1211-1.16992h1.06055l.12988,1.16992v4.45019h-1.06933Z"/><path class="f8d662e5-36ea-460a-9a69-987bcb20f7b0" d="M153.83917,285.09023l-2.10058-3.19043-.99024,3.19043h-1.02051l1.10059-3.44043.28027-.71-.91992-1.46972h1.08985l.83984,1.3496.83984,1.26075.25-.87012.50977-1.74023h1.03027l-1.15918,3.54,1.38867,2.08008Z"/><path class="f8d662e5-36ea-460a-9a69-987bcb20f7b0" d="M157.89777,277.98965h.70117l-2.48047,8.70019h-.7002Z"/><path class="f8d662e5-36ea-460a-9a69-987bcb20f7b0" d="M163.23859,279.47012v.88964l-1.87012,4.73047h-1.07031l1.87109-4.7998h-3.01074v-2.37012h.96972v1.54981Z"/><path class="f8d662e5-36ea-460a-9a69-987bcb20f7b0" d="M164.33917,280.64l-.12109-1.16992h1.06055l.12988,1.16992v4.45019h-1.06934Z"/><path class="f8d662e5-36ea-460a-9a69-987bcb20f7b0" d="M171.179,284.435a2.126,2.126,0,0,1-1.76075.77539,3.89609,3.89609,0,0,1-.86035-.10059l.11035-.81933a3.262,3.262,0,0,0,.64942.0791,1.235,1.235,0,0,0,1.11133-.5293,2.8316,2.8316,0,0,0,.34961-1.5498,2.77907,2.77907,0,0,0-.33594-1.56543,1.09693,1.09693,0,0,0-.9541-.47461,1.13008,1.13008,0,0,0-.78516.27441,1.33769,1.33769,0,0,0-.40527.73535l-.66993,3.83008h-1.07031l.72071-3.87011-.78028-1.75h1.11035l.44922,1.17968a1.854,1.854,0,0,1,.64063-.94433,1.61143,1.61143,0,0,1,.98047-.31543,1.89118,1.89118,0,0,1,1.55957.69531,3.449,3.449,0,0,1,.55957,2.1748A3.40532,3.40532,0,0,1,171.179,284.435Z"/><path class="f8d662e5-36ea-460a-9a69-987bcb20f7b0" d="M172.76886,282.26992l.14941-.67969h.91993v5.5h-1.06934Zm1.78906,2a2.13379,2.13379,0,0,0,.8252-.23535,1.31181,1.31181,0,0,0,.54-.61914,3.40112,3.40112,0,0,0,.25586-1.19531l.14941-1.92969h-3.54v-.82031h4.68945l-.03906.71972-.14062,1.78028a3.81988,3.81988,0,0,1-.73047,2.28027,2.42492,2.42492,0,0,1-1.90918.84961Z"/><path class="f8d662e5-36ea-460a-9a69-987bcb20f7b0" d="M182.30792,285.09023l-2.09961-3.19043-.99023,3.19043h-1.01953l1.09961-3.44043.28027-.71-.91992-1.46972h1.08984l.83985,1.3496.83984,1.26075.25-.87012.51074-1.74023h1.0293l-1.16016,3.54,1.39063,2.08008Z"/><path class="f8d662e5-36ea-460a-9a69-987bcb20f7b0" d="M154.179,291.92031a1.94134,1.94134,0,0,1,.44921,1.41992v3.75h-4.5996v-5.62011H152.929A1.6879,1.6879,0,0,1,154.179,291.92031Zm-.62012,4.34961v-2.97949a1.07273,1.07273,0,0,0-.22949-.76563.90028.90028,0,0,0-.6709-.23437h-1.55957v3.97949Z"/><path class="f8d662e5-36ea-460a-9a69-987bcb20f7b0" d="M155.929,292.64l-.12012-1.16992h1.05957l.13086,1.16992v4.45019H155.929Z"/><path class="f8d662e5-36ea-460a-9a69-987bcb20f7b0" d="M158.32941,292.64l-.1211-1.16992h1.06055l.12988,1.16992v1.51953l-.01074.63086-1.05859.19922Z"/><path class="f8d662e5-36ea-460a-9a69-987bcb20f7b0" d="M160.68878,296.26992h1.81055a1.4549,1.4549,0,0,0,1.08984-.41016,1.73109,1.73109,0,0,0,.39942-1.25v-.66992a2.0149,2.0149,0,0,0-.31934-1.21972,1.12091,1.12091,0,0,0-.96094-.42969h-.90039l-.21875.98926a1.84492,1.84492,0,0,0-.05078.39062.61957.61957,0,0,0,.16992.46484,1.1373,1.1373,0,0,0,.56055.24512l-.19043.68945a1.752,1.752,0,0,1-1.13477-.39453,1.26875,1.26875,0,0,1-.35449-.95507,2.62027,2.62027,0,0,1,.04883-.53028l.39063-1.71972h1.91015a1.93692,1.93692,0,0,1,1.56055.66015,2.77488,2.77488,0,0,1,.55859,1.84961V294.56a2.56463,2.56463,0,0,1-.63867,1.88965,2.30168,2.30168,0,0,1-1.70117.64062h-2.0293Z"/><path class="f8d662e5-36ea-460a-9a69-987bcb20f7b0" d="M168.6087,293.29043a1.06814,1.06814,0,0,0-.23047-.76563.89786.89786,0,0,0-.66992-.23437H165.8587v-.82031h2.11914a1.68634,1.68634,0,0,1,1.25.45019,1.9372,1.9372,0,0,1,.4502,1.41992v3.75H168.6087Z"/><path class="f8d662e5-36ea-460a-9a69-987bcb20f7b0" d="M171.00909,292.64l-.12109-1.16992h1.06055l.12988,1.16992v4.45019h-1.06934Z"/><path class="f8d662e5-36ea-460a-9a69-987bcb20f7b0" d="M177.84894,296.435a2.126,2.126,0,0,1-1.76074.77539,3.89611,3.89611,0,0,1-.86036-.10059l.11036-.81933a3.26187,3.26187,0,0,0,.64941.0791,1.235,1.235,0,0,0,1.11133-.5293,2.8316,2.8316,0,0,0,.34961-1.5498,2.77907,2.77907,0,0,0-.33594-1.56543,1.09693,1.09693,0,0,0-.9541-.47461,1.13009,1.13009,0,0,0-.78516.27441,1.33769,1.33769,0,0,0-.40527.73535l-.66992,3.83008h-1.07032l.72071-3.87011-.78028-1.75h1.11036l.44921,1.17968a1.854,1.854,0,0,1,.64063-.94433,1.61143,1.61143,0,0,1,.98047-.31543,1.89118,1.89118,0,0,1,1.55957.69531,3.44893,3.44893,0,0,1,.55957,2.1748A3.40532,3.40532,0,0,1,177.84894,296.435Z"/><path class="f8d662e5-36ea-460a-9a69-987bcb20f7b0" d="M183.37823,291.47012v.88964l-1.87011,4.73047h-1.06934l1.86914-4.7998h-3.00976v-2.37012h.9707v1.54981Z"/><path class="f8d662e5-36ea-460a-9a69-987bcb20f7b0" d="M40.34406,63.72109l-2.10059-3.19043-.99024,3.19043H36.2337l1.09961-3.44043.28125-.71L36.69464,58.101h1.08984l.83985,1.34961.83984,1.26075.25-.87012.50977-1.74024h1.02929l-1.15917,3.54,1.38964,2.08008Z"/><path class="f8d662e5-36ea-460a-9a69-987bcb20f7b0" d="M46.27374,58.101v.88965l-1.87011,4.73047H43.33331l1.8711-4.7998H42.19366V56.55117h.96973V58.101Z"/><path class="b16c8420-a6ef-46ed-b6e5-c90eab2dfbf5" d="M26.92957,193.73246v6.12744c0,8.4607,5.80322,15.31934,12.96167,15.31934H98.2677c4.50122,0,8.15039,4.3125,8.15039,9.63257v9.3081"/><polygon class="a7d8ed2b-c618-4f4f-bf50-cccd6514f490" points="99.637 226.152 106.418 232.938 113.199 226.152 113.199 231.91 106.418 238.692 99.637 231.91 99.637 226.152"/><ellipse class="b8654943-a4f4-4a99-998d-121f2e2376fb" cx="4.43624" cy="170.0314" rx="3.44608" ry="5.24162" transform="translate(-118.93705 52.94431) rotate(-45.00296)"/><path class="bfb83f80-5136-4087-bc6c-89697c39df9a" d="M9.278,160.8702l-7.63573,7.63652s-.25854,1.25741,1.40157,2.91735a4.18612,4.18612,0,0,0,2.77452,1.25831l7.63573-7.63652A4.0077,4.0077,0,0,0,9.278,160.8702Z"/><ellipse class="b8654943-a4f4-4a99-998d-121f2e2376fb" cx="10.97878" cy="163.48819" rx="3.44608" ry="5.24162" transform="translate(-112.39356 55.65412) rotate(-45.00296)"/><path class="add95984-426b-4e40-b0d8-7bf3337c4dcd" d="M31.29464,137.281l-23.19,23.19237a5.078,5.078,0,0,0,1.518,4.22865,4.63433,4.63433,0,0,0,4.23091,1.51965l23.19-23.19238Z"/><ellipse class="b8654943-a4f4-4a99-998d-121f2e2376fb" cx="34.23927" cy="140.2253" rx="2.76617" ry="5.24162" transform="translate(-89.12968 65.28823) rotate(-45.00296)"/><path class="bfb83f80-5136-4087-bc6c-89697c39df9a" d="M37.27029,142.80251s2.07641-2.42213.7992-6.50005c-3.99168-1.19043-6.18326,1.11654-6.18326,1.11654A5.65552,5.65552,0,0,0,37.27029,142.80251Z"/><polygon class="b8654943-a4f4-4a99-998d-121f2e2376fb" points="37.383 136.544 47.523 126.848 37.828 136.989 37.383 136.544"/><g class="a957d113-f56c-4ded-a0f1-f99726c62b2b"><path class="ab410c49-6b5a-4867-a190-d5a9e1306688" d="M24.16611,143.06977a5.63525,5.63525,0,0,0,2.07841,4.13763"/><path class="ab410c49-6b5a-4867-a190-d5a9e1306688" d="M21.60427,145.8576c-.08067.07217.0483,2.98376,1.881,4.16336"/><path class="ab410c49-6b5a-4867-a190-d5a9e1306688" d="M18.92094,148.563c-.08067.07217-.11429,2.87188,1.71836,4.05148"/><path class="ab410c49-6b5a-4867-a190-d5a9e1306688" d="M16.336,151.10286c-.08067.07216-.34645,2.94345,1.48621,4.12305"/><path class="ab410c49-6b5a-4867-a190-d5a9e1306688" d="M13.72831,153.638a4.12562,4.12562,0,0,0,1.62671,3.77589"/><path class="ab410c49-6b5a-4867-a190-d5a9e1306688" d="M22.89811,144.93875a3.81739,3.81739,0,0,0,1.14267,2.57147"/><path class="ab410c49-6b5a-4867-a190-d5a9e1306688" d="M20.09314,147.72126a3.81737,3.81737,0,0,0,1.14267,2.57147"/><path class="ab410c49-6b5a-4867-a190-d5a9e1306688" d="M17.3326,149.87563a4.07975,4.07975,0,0,0,.93983,3.04087"/><path class="ab410c49-6b5a-4867-a190-d5a9e1306688" d="M14.78858,152.49571a3.63485,3.63485,0,0,0,.97056,2.77165"/></g><path class="add95984-426b-4e40-b0d8-7bf3337c4dcd" d="M47.45027,127.126a3.085,3.085,0,0,1,2.10835-.47228,1.74592,1.74592,0,0,1,1.23067.67082.95534.95534,0,0,1-.17072,1.28832,1.10258,1.10258,0,0,1-1.11367-.041,10.01063,10.01063,0,0,1-.94057-.6969,3.21043,3.21043,0,0,0-1.83138-.58465"/><polygon class="af553410-e327-48bc-b117-a3fb582a3de1" points="192.991 152.885 178.821 152.885 177.194 127.328 194.619 127.328 192.991 152.885"/><ellipse class="bfb83f80-5136-4087-bc6c-89697c39df9a" cx="185.90636" cy="127.32795" rx="8.71277" ry="2.96809"/><ellipse class="b4e90932-7bb1-4357-b951-94c55112ea52" cx="185.90636" cy="152.88465" rx="7.05319" ry="2.40274"/><g class="b07c8922-802c-4668-901d-54fd50faab52"><polygon class="fdb86d7e-7131-4913-ab11-8658e24e55e9" points="177.816 137.996 194.093 138.276 194.093 157.816 177.194 159.395 174.417 151.496 177.816 137.996"/></g><ellipse class="bab9c4a3-d7bc-4ca5-b65d-c1ef76a8a47a" cx="185.90636" cy="138.54148" rx="7.74932" ry="2.63988"/><ellipse class="be815ed2-62e9-4beb-a858-c2eb8f2e5255" cx="185.62394" cy="138.27583" rx="7.2573" ry="2.47227"/><ellipse class="af553410-e327-48bc-b117-a3fb582a3de1" cx="185.90636" cy="127.32795" rx="8.18617" ry="2.7887"/><g class="b07c8922-802c-4668-901d-54fd50faab52"><path class="a0b3796e-537e-4d72-bb63-7bac00571018" d="M177.24146,127.89529l1.6117,25.516s4.14716,4.03387,3.84575,2.87234c-4.8432-18.66366.914-26.27874.914-26.27874S179.10848,129.85805,177.24146,127.89529Z"/></g><ellipse class="af553410-e327-48bc-b117-a3fb582a3de1" cx="197.84232" cy="150.13422" rx="7.05206" ry="7.69037" transform="translate(-16.79801 275.07981) rotate(-67.39771)"/><g class="f2b74a03-bd59-4d09-b41e-f9a0878bb778"><ellipse class="b8654943-a4f4-4a99-998d-121f2e2376fb" cx="196.97518" cy="149.74341" rx="6.70121" ry="7.30777" transform="translate(-16.97107 274.03866) rotate(-67.39771)"/><polygon class="af553410-e327-48bc-b117-a3fb582a3de1" points="190.667 153.031 202.7 145.773 203.726 146.56 190.937 154.274 190.667 153.031"/></g><rect class="bfb83f80-5136-4087-bc6c-89697c39df9a" x="183.17238" y="145.42217" width="8.35109" height="17.64372" rx="4.17554" transform="translate(16.31238 326.39891) rotate(-84.65159)"/><path class="badabaec-d02a-4a10-bdce-1cfca8b9bcba" d="M187.13976,158.41834l4.445.41614a4.17554,4.17554,0,1,0,.77843-8.31473l-4.305-.403A13.14925,13.14925,0,0,1,187.13976,158.41834Z"/><polygon class="af553410-e327-48bc-b117-a3fb582a3de1" points="78.697 281.829 64.527 281.829 62.899 256.272 80.325 256.272 78.697 281.829"/><ellipse class="bfb83f80-5136-4087-bc6c-89697c39df9a" cx="71.61192" cy="256.2718" rx="8.71277" ry="2.96809"/><ellipse class="b4e90932-7bb1-4357-b951-94c55112ea52" cx="71.61192" cy="281.82851" rx="7.05319" ry="2.40274"/><g class="be62d202-6f60-47e4-a1a9-fd530f9eb801"><polygon class="fdb86d7e-7131-4913-ab11-8658e24e55e9" points="63.521 266.94 79.798 267.22 79.798 286.759 62.899 288.339 60.123 280.44 63.521 266.94"/></g><ellipse class="bab9c4a3-d7bc-4ca5-b65d-c1ef76a8a47a" cx="71.61192" cy="267.48533" rx="7.74932" ry="2.63988"/><ellipse class="be815ed2-62e9-4beb-a858-c2eb8f2e5255" cx="71.3295" cy="267.21968" rx="7.2573" ry="2.47227"/><ellipse class="af553410-e327-48bc-b117-a3fb582a3de1" cx="71.61192" cy="256.2718" rx="8.18617" ry="2.7887"/><g class="be62d202-6f60-47e4-a1a9-fd530f9eb801"><path class="a0b3796e-537e-4d72-bb63-7bac00571018" d="M62.947,256.83914l1.6117,25.516s4.14716,4.03387,3.84574,2.87234c-4.84319-18.66365.914-26.27873.914-26.27873S64.81405,258.80191,62.947,256.83914Z"/></g><ellipse class="af553410-e327-48bc-b117-a3fb582a3de1" cx="83.54788" cy="279.07808" rx="7.05206" ry="7.69037" transform="translate(-206.20571 248.95035) rotate(-67.39771)"/><g class="b2ea128b-a53d-4811-a85d-6b2677e40e2f"><ellipse class="b8654943-a4f4-4a99-998d-121f2e2376fb" cx="82.68074" cy="278.68726" rx="6.70121" ry="7.30777" transform="translate(-206.37878 247.9092) rotate(-67.39771)"/><polygon class="af553410-e327-48bc-b117-a3fb582a3de1" points="76.372 281.974 88.405 274.717 89.431 275.504 76.643 283.218 76.372 281.974"/></g><rect class="bfb83f80-5136-4087-bc6c-89697c39df9a" x="68.87794" y="274.36602" width="8.35109" height="17.64372" rx="4.17554" transform="translate(-215.71094 329.52681) rotate(-84.65158)"/><path class="badabaec-d02a-4a10-bdce-1cfca8b9bcba" d="M72.84532,287.36219l4.445.41614a4.17554,4.17554,0,0,0,.77842-8.31472l-4.305-.403A13.14916,13.14916,0,0,1,72.84532,287.36219Z"/><ellipse class="b8654943-a4f4-4a99-998d-121f2e2376fb" cx="39.57572" cy="271.21299" rx="5.24162" ry="3.44608" transform="translate(-210.21127 158.3893) rotate(-57.3902)"/><path class="bfb83f80-5136-4087-bc6c-89697c39df9a" d="M49.56228,273.97674l-9.09674-5.8198s-1.28361.01722-2.54877,1.99476a4.18612,4.18612,0,0,0-.63384,2.97987l9.09674,5.8198A4.00771,4.00771,0,0,0,49.56228,273.97674Z"/><ellipse class="b8654943-a4f4-4a99-998d-121f2e2376fb" cx="47.3701" cy="276.19958" rx="5.24162" ry="3.44608" transform="translate(-210.81791 167.25422) rotate(-57.3902)"/><path class="add95984-426b-4e40-b0d8-7bf3337c4dcd" d="M77.32531,290.42058,49.69819,272.74564a5.078,5.078,0,0,0-3.80457,2.38976,4.63431,4.63431,0,0,0-.57667,4.4584l27.62713,17.67494Z"/><ellipse class="b8654943-a4f4-4a99-998d-121f2e2376fb" cx="75.08122" cy="293.92826" rx="5.24162" ry="2.76617" transform="translate(-212.97466 198.7714) rotate(-57.3902)"/><path class="bfb83f80-5136-4087-bc6c-89697c39df9a" d="M73.21422,297.44158s2.81116,1.50848,6.52017-.61379c.30642-4.15412-2.417-5.79979-2.417-5.79979A5.65551,5.65551,0,0,0,73.21422,297.44158Z"/><polygon class="b8654943-a4f4-4a99-998d-121f2e2376fb" points="79.351 296.209 90.996 304.033 79.012 296.74 79.351 296.209"/><g class="f4034e13-4380-442d-ab5b-e6d61d8b386a"><path class="ab410c49-6b5a-4867-a190-d5a9e1306688" d="M70.14209,284.6998a5.63528,5.63528,0,0,0-3.59545,2.91762"/><path class="ab410c49-6b5a-4867-a190-d5a9e1306688" d="M66.8696,282.79564c-.08779-.06331-2.90393.68724-3.66293,2.73028"/><path class="ab410c49-6b5a-4867-a190-d5a9e1306688" d="M63.65153,280.75514c-.08779-.06331-2.82954.50443-3.58853,2.54747"/><path class="ab410c49-6b5a-4867-a190-d5a9e1306688" d="M60.61632,278.77521c-.08779-.06331-2.94925.293-3.70825,2.33608"/><path class="ab410c49-6b5a-4867-a190-d5a9e1306688" d="M57.58077,276.77207a4.12563,4.12563,0,0,0-3.339,2.39884"/><path class="ab410c49-6b5a-4867-a190-d5a9e1306688" d="M68.04462,283.86225a3.81735,3.81735,0,0,0-2.26649,1.6677"/><path class="ab410c49-6b5a-4867-a190-d5a9e1306688" d="M64.72517,281.71947a3.8174,3.8174,0,0,0-2.26649,1.6677"/><path class="ab410c49-6b5a-4867-a190-d5a9e1306688" d="M62.02876,279.48535a4.07979,4.07979,0,0,0-2.76847,1.57027"/><path class="ab410c49-6b5a-4867-a190-d5a9e1306688" d="M58.92394,277.56261a3.63485,3.63485,0,0,0-2.49892,1.54253"/></g><path class="add95984-426b-4e40-b0d8-7bf3337c4dcd" d="M90.70958,304.02167a3.085,3.085,0,0,1,.91357,1.958,1.74591,1.74591,0,0,1-.39121,1.34592.95533.95533,0,0,1-1.29495.10962,1.1026,1.1026,0,0,1-.19884-1.09654,10.01228,10.01228,0,0,1,.4789-1.06817,3.21044,3.21044,0,0,0,.17818-1.91416"/><g class="ff831812-2bfb-4bd0-92e0-d19dcb62e48d"><path class="b4920800-1f0c-486b-921b-9e849fb63256" d="M124.50216,58.46505c.98261-.4,1.54069-1.72264,1.99253-2.62549a15.31836,15.31836,0,0,0,.96353-2.41943,14.98223,14.98223,0,0,0,.57384-1.96045,22.94492,22.94492,0,0,0,.15242-2.9495c.00746-1.70841-.11063-3.41175-.21464-5.11593-.08864-1.45338-.19542-2.89367-.36466-4.29469-.7452-6.17106-2.69937-11.58215-9.63-13.98531a17.67654,17.67654,0,0,0-11.10772.21655,13.93232,13.93232,0,0,0-5.43783,3.00138A13.93432,13.93432,0,0,0,97.7924,35.4405c-1.13192,5.00828-1.404,12.28546,1.56969,16.75107.72108,1.08255,1.91079.95427,2.82542,1.61607,1.15249.83365,1.5983,2.84187,1.72079,4.1593a20.315,20.315,0,0,1-.41085,5.19136c-.16269.97933-.32912,1.95791-.48844,2.93761-.144.88545.02935,1.96446-.14961,2.78689-.3164,1.45282-1.27872,2.2962-1.073,3.99642.35343,2.91947,2.79717,5.902,4.713,8.0048a9.62533,9.62533,0,0,0,3.72451,2.74145,1.208,1.208,0,0,0,.78148.07779,1.31192,1.31192,0,0,0,.61-.58849,37.41809,37.41809,0,0,0,2.3766-5.17846c.86694-1.87451,2.84131-2.95818,3.32826-5.09468a20.251,20.251,0,0,0-.01683-7.90794,4.28344,4.28344,0,0,0-.49555-1.5106c-.28069-.45254-.2762-.653-.80841-.67115-2.054.408-.34764-2.97464,1.28152-3.15266q2.57838-.28191,5.15639-.56381a5.84893,5.84893,0,0,0,1.46524-.34706C124.01587,58.64482,124.26725,58.56066,124.50216,58.46505Z"/><path class="bcb060a2-d92b-4a4a-bff0-f6fab76a9773" d="M127.16629,51.62645l-.08453-.24235A.17457.17457,0,0,0,127.16629,51.62645Z"/><path class="bcb060a2-d92b-4a4a-bff0-f6fab76a9773" d="M128.00648,51.33467c-.08964-.24376-.38444-.28819-.86084-.4611a4.92107,4.92107,0,0,0-2.39959-.45388,3.57987,3.57987,0,0,0-3.21473,3.11531,2.94386,2.94386,0,0,0,1.04731,2.43354,4.46025,4.46025,0,0,0,2.90756.96767c.76946-.16831,1.00557-1.04561,1.343-1.63722a10.66888,10.66888,0,0,0,1.18323-3.546A.81922.81922,0,0,0,128.00648,51.33467Z"/><ellipse class="ef7582ba-888e-49e9-9a92-bcbaccc800a8" cx="75.58149" cy="256.71841" rx="9.7046" ry="70.24611" transform="translate(-186.96289 308.55811) rotate(-84.76428)"/><path class="b81b046e-ab63-4a4b-ad91-b940bb81f227" d="M132.29309,250.89937c-1.75763-.34229-3.32618-.73709-5.01678-.041-2.20414.90759-2.97548,3.01068-3.49122,5a4.0045,4.0045,0,0,0-.01548,2.44559,5.14492,5.14492,0,0,0,1.46231,1.85667,23.18511,23.18511,0,0,0,10.18217,5.24671,12.62734,12.62734,0,0,0,7.448-.18277c2.266-.91642,3.938-3.1191,3.44923-5.35772-.53308-2.44134-3.2156-4.03946-5.6447-5.33136a11.1078,11.1078,0,0,1-3.44176-2.1513,4.00642,4.00642,0,0,0-.64739-.67235c-.47941-.34436-1.32884-.18133-1.9117-.29355C133.87136,251.26543,133.0878,251.05414,132.29309,250.89937Z"/><path class="b81b046e-ab63-4a4b-ad91-b940bb81f227" d="M44.71105,238.90358c-1.35632-1.23908-2.52059-2.42145-4.355-2.73409-2.39168-.4076-4.15127.98067-5.62913,2.40894a3.92,3.92,0,0,0-1.27722,2.0886,5.24772,5.24772,0,0,0,.31618,2.37868,24.25722,24.25722,0,0,0,6.17087,9.97659,13.22484,13.22484,0,0,0,6.5914,3.85023c2.45018.43331,5.04695-.55578,5.77732-2.73822.79652-2.38008-.71767-5.19353-2.169-7.60807A11.58321,11.58321,0,0,1,48.24577,242.83a4.1165,4.1165,0,0,0-.21729-.92479c-.24025-.55317-1.06547-.87037-1.51591-1.28016C45.89864,240.06654,45.32431,239.46383,44.71105,238.90358Z"/><path class="be70487a-57e9-447b-bea7-f3629e93bea2" d="M106.8863,134.6215c2.16964.1078-.18466,12.00536-.37339,13.27253-.99852,6.70414-.16363,11.84587,2.25183,18.2659,2.98,7.92032,6.0498,15.80463,9.10549,23.69578,2.87657,7.42858,1.1524,12.756-.16342,20.44089a63.67745,63.67745,0,0,0,3.94151,34.90986c.62019,1.49312,1.4622,4.69732,2.65622,5.76915,2.46327,2.21081,11.45585,1.49078,14.40074.72814a102.03661,102.03661,0,0,1-2.32594-11.30449,94.29823,94.29823,0,0,1,.1206-28.73569c.84852-5.33227,1.5984-9.863,1.25045-15.31475q-.92432-14.48227-2.57268-28.90167c-1.18008-10.312-1.17294-20.25785-1.73386-30.66029a4.79646,4.79646,0,0,0-.62892-2.56066c-2.05229-2.89735-8.43921-.1261-10.92084.39086C116.9857,135.639,111.84025,134.86764,106.8863,134.6215Z"/><path class="bc4a071b-a5ca-4627-959b-62f874089f20" d="M105.00547,125.995c-2.55209-3.371-6.44931-2.93355-8.822.1-3.71416,4.74862-6.87376,8.16133-8.59487,14.17524-1.70407,5.95435-.53378,11.43373-1.06041,17.32138-.55335,6.18628-2.19225,12.48469-3.25746,18.61615-.82955,4.775-1.47891,9.13422-4.93527,12.79786-1.77131,1.87752-3.90942,2.44556-6.06268,3.57248a47.67877,47.67877,0,0,0-14.70235,12.57176c-5.4684,6.95105-11.0277,14.06378-13.99654,22.39483-.75868,2.129-1.32522,4.31832-2.04,6.46124-.68465,2.05251-2.83575,4.504-.37742,5.62844,2.30585,1.05472,4.77528,1.76263,6.798,3.35617-2.92079-2.30112,16.53106-20.75606,18.3783-22.44536,5.02585-4.59616,10.50454-8.10281,15.80537-12.25654,4.46288-3.49712,9.90076-5.936,13.68128-10.29227a42.05379,42.05379,0,0,0,5.39431-8.75572c4.414-8.70821,8.76091-17.517,11.51723-26.88282a3.20754,3.20754,0,0,1,.49965-1.13681,3.14813,3.14813,0,0,1,1.00195-.727c4.73257-2.55639,6.89864-4.41992,9.58005-9.1468a128.379,128.379,0,0,0,8.89311-19.20964,25.22441,25.22441,0,0,0-12.79831,1.82083"/><path class="f163ed7f-f6ab-4ee3-89a8-f11dbfcfce53" d="M121.04116,134.62131a138.7772,138.7772,0,0,1-2.95791,17.14407c3.19621-5.17866,4.456-11.28521,5.66137-17.25023a2.59064,2.59064,0,0,0,.05883-1.12916,1.58944,1.58944,0,0,0-2.2194-.85952,2.41979,2.41979,0,0,0-1.15115,2.31451"/><path class="b8654943-a4f4-4a99-998d-121f2e2376fb" d="M116.48968,64.83037c-.71377.13416-.70923,1.145-.8233,1.67289-.20011.92607-.59474,1.85-.88494,2.75259-.29322.912-.70154,1.94487-1.6122,2.24209a2.9036,2.9036,0,0,1-2.12212-.40152,37.02138,37.02138,0,0,1-4.84752-3.17065c-.2391-.16839-3.36374-2.55638-3.4806-2.23011-.78688,2.19692.19491,4.87756.38156,7.12434q.30885,3.71778.67725,7.43027.72632,7.34922,1.63914,14.67834c.6,4.88914,1.24472,9.77265,1.90473,14.654.17511,1.29511,1.52523,14.51366,1.98694,14.549a58.364,58.364,0,0,0,19.8122-1.89459q-.57354-6.475-1.3932-12.92507-2.15629-16.96977-5.99934-33.66788a40.63664,40.63664,0,0,0-2.33607-7.5882c-.39692-.88385-1.22141-2.54869-2.0871-3.02473A1.25328,1.25328,0,0,0,116.48968,64.83037Z"/><path class="bc4a071b-a5ca-4627-959b-62f874089f20" d="M99.55428,63.35468c1.37151-.50666,3.00788-.92847,4.21014-.09642a4.81336,4.81336,0,0,1,1.4445,2.0817c.4008,3.63348,2.97941,6.1654,5.31254,8.64779a35.90041,35.90041,0,0,1,4.78982,7.08852,87.60122,87.60122,0,0,0,.31632-10.04971c.01086-2.63151.2204-5.76248-.55811-8.30287-.08762-.2859,2.79644.5372,3.08958.753a10.06256,10.06256,0,0,1,2.31413,2.91447,19.31213,19.31213,0,0,1,1.711,4.44728c1.64128,6.01826,7.85914,9.3605,7.73042,16.10642-.05252,2.75233-1.12508,5.26264-1.15393,7.99155-.03451,3.26314-.86443,6.4415-.6965,9.73714.19151,3.75848,1.81652,6.82449,2.56088,10.41221.66844,3.22183,3.62311,14.23454.60706,17.05289-1.40293,1.311-6.95916.3734-8.93473.56231-3.61324.34551-7.18933,1.01114-10.824,1.13024a98.9226,98.9226,0,0,1-14.47949-.6753c.2831-2.85246-.21958-5.87613.1684-8.67658.3234-2.33431,1.35172-4.55827,1.55475-6.99758a29.235,29.235,0,0,0-3.1543-15.864c-3.47515-6.65442-6.03372-14.24049-6.3542-21.78448A24.19907,24.19907,0,0,1,90.777,69.31969C92.34354,65.73088,95.9662,64.6802,99.55428,63.35468Z"/><path class="b4fc94d0-d688-4d4f-9904-a58ca6ba2d16" d="M104.47183,55.09117a11.48924,11.48924,0,0,0,4.40746-4.23555c.88568-1.727,1.18476-4.9139-.35133-6.371a6.15008,6.15008,0,0,1-2.10322-4.05007,2.25665,2.25665,0,0,1,1.69105-2.387c1.62059-.215,2.32264,1.42942,3.30123,2.32711,2.25884,2.07209,3.78954-.74979,5.40618-1.86027a7.16065,7.16065,0,0,1,1.8709-.81467c1.5761-.5139,3.20071-.89267,4.80168-1.31963a11.67718,11.67718,0,0,1,2.34159-.66785,1.61691,1.61691,0,0,1,1.0247.401c.15445.1273.6349,1.03211.72645,1.04429.85108.11321,1.33871-3.46625,1.41415-4.10328a13.63689,13.63689,0,0,0-.19019-4.46967,10.25123,10.25123,0,0,0-5.10575-6.99336c-2.00315-1.06621-7.342-.762-9.332-1.92-3.977-2.31406-11.06906-1.20308-14.91359,1.06581C93.448,24.28579,90.80993,31.176,90.29075,37.84574a22.53653,22.53653,0,0,0,.78883,8.97776c.92989,2.5429,3.77979,5.27554,6.15272,6.55555.88862.47934,1.85223.823,2.69067,1.38551a6.901,6.901,0,0,0,1.63656,1.00458,2.96114,2.96114,0,0,0,2.26568-.31249C104.039,55.34155,104.25508,55.21965,104.47183,55.09117Z"/><path class="f163ed7f-f6ab-4ee3-89a8-f11dbfcfce53" d="M115.94446,85.47688q-.06084-.26286-.12276-.52339a23.504,23.504,0,0,1-.31756-8.524,2.2383,2.2383,0,0,1,.48061-1.41382c.45364,4.97087,2.21134,9.53722,3.04992,14.39154,2.42474,14.03623,2.45076,28.28608,5.54942,42.20884a.54453.54453,0,0,1-.00714.36976.52342.52342,0,0,1-.3439.21592,4.205,4.205,0,0,1-1.84279.09717.70986.70986,0,0,1-.42711-.18753.7524.7524,0,0,1-.14295-.37765c-.50462-2.85689-.43513-5.9334-.73-8.83492-.46141-4.54-.92288-9.08029-1.47722-13.6101-.55956-4.57238-1.21387-9.13263-1.91528-13.6853a56.52708,56.52708,0,0,0-3.91644-15.48232,9.80166,9.80166,0,0,1-.78612-2.63,7.36866,7.36866,0,0,1,2.78768,3.4923,18.26522,18.26522,0,0,1,.13922-5.33559"/><path class="be70487a-57e9-447b-bea7-f3629e93bea2" d="M118.296,96.76565a42.97575,42.97575,0,0,1-6.97579.81942,22.68986,22.68986,0,0,1-5.14762.24193,36.9578,36.9578,0,0,1,4.1733,1.3921,44.43861,44.43861,0,0,0,5.14925,1.31949,39.30651,39.30651,0,0,0,10.00646-.03865,3.92,3.92,0,0,0,1.38932-.30717c1.1595-.57672,1.45171-2.07165,1.5732-3.36094.10283-1.09126.06384-2.219.22964-3.29954.16563-1.07947.44786-2.16134.663-3.23426a2.22871,2.22871,0,0,0,.06481-.61933c-1.565,1.89631-3.00054,4.09941-5.38333,5.02887a50.50681,50.50681,0,0,1-5.61356,2.0263Q118.36,96.75066,118.296,96.76565Z"/><path class="b4920800-1f0c-486b-921b-9e849fb63256" d="M155.17355,81.19367c-.39207-3.13163,1.58565-5.22106,2.93189-8.26617,1.06761-2.41541,2.763-4.63744,3.31821-.75515-.00639-.04443,2.02329-1.819,2.25708-2.12549.72047-.94444,1.13777-2.11452,2.25681-2.68021a3.34923,3.34923,0,0,1,3.61271.47012,4.59338,4.59338,0,0,1,1.33111,5.24389c-1.27065,3.00512-10.41475,15.73147-14.41455,11.40489a4.0954,4.0954,0,0,1-.74963-1.27185A8.09412,8.09412,0,0,1,155.17355,81.19367Z"/><path class="f163ed7f-f6ab-4ee3-89a8-f11dbfcfce53" d="M117.29816,98.652a46.56469,46.56469,0,0,1-8.5973-5.75025c-6.60632-5.47063-19.72608-12.16427-17.28013-22.72258,2.47144-10.66628,14.01937,4.181,16.63155,6.535,4.24689,3.82713,9.25458,7.19991,13.63515,11.07951,4.07395,3.608,12.15373-1.48778,16.94813-2.8995,2.5491-.75059,5.673-1.07927,8.05832-2.22228,2.39678-1.14847,4.64676-3.42833,6.77858-5.01985.40977-.30591.91952-.62809,1.39683-.4446.42114.1619.60711.64175.76,1.06624a24.4213,24.4213,0,0,0,3.91588,6.69844c-5.78029,5.18658-14.02029,9.25712-20.86123,12.97172-2.87118,1.559-6.53216,4.32688-9.885,4.43043C125.15808,102.48663,120.46431,100.26152,117.29816,98.652Z"/><path class="a9b9744c-6356-4ec6-bb9f-badab700eb18" d="M96.78439,123.13159a19.84856,19.84856,0,0,1-.88768,2.57043c-.17494.32464-1.06787,1.27228-.64373,1.61207a17.83475,17.83475,0,0,0,1.53927,1.15795,25.81427,25.81427,0,0,0,5.53442,2.34789q3.40475,1.18067,6.93469,2.04025a77.32016,77.32016,0,0,0,14.02638,2.07694,35.76871,35.76871,0,0,0,4.89662.11551c1.26005-.1042,3.58258-.64629,4.36149-1.55612a2.60713,2.60713,0,0,0,.42089-1.82858c-.03206-1.38786-.00833-2.804-.00138-4.16407-.31277-.00755-3.90658.05276-3.91269.11945-1.22843.11623-2.38361.57824-3.62194.64362a36.3488,36.3488,0,0,1-5.46463-.1708c-7.56329-.74641-13.97137-3.15922-20.476-6.41551-.48733-.24418-1.02437-.94632-1.62006-.78578C97.27119,121.05622,96.94052,122.68763,96.78439,123.13159Z"/><path class="f3bff433-5e18-446e-949b-6bbdc60bcab2" d="M169.98512,69.73717c-2.7678-.37458-5.318,4.342-6.48092,6.242-.45932.75049-.57341,1.57179-.95968,2.33407-.36388.7181-.94957,1.19132-.97473,2.06977a1.58048,1.58048,0,0,0,1.46772,1.67434,2.41469,2.41469,0,0,0,1.20415-.54477,8.65159,8.65159,0,0,0,2.3293-2.09618,9.076,9.076,0,0,1,1.15191-1.71935c.27158-.25132.60286-.4312.87459-.68237a4.43453,4.43453,0,0,0,.84689-1.24935l1.27718-2.44493a3.92925,3.92925,0,0,0,.638-2.18982c-.08794-.76737-.854-1.50159-1.58476-1.25143"/><path class="abcbd03b-af60-46dd-a66b-2a5201a97975" d="M159.326,72.66434l-.40324-.1069a3.76589,3.76589,0,0,0-1.01391,2.374,1.61344,1.61344,0,0,1-.10348.64917c-.22623.45258-.85379.49928-1.24942.81469a1.95216,1.95216,0,0,0,.559.63668.66731.66731,0,0,0,.79313-.02231,1.55091,1.55091,0,0,0,.24182-.4c.50448-.91847,1.8368-.92219,2.65737-1.5739a1.77055,1.77055,0,0,0,.61321-1.8717,1.44536,1.44536,0,0,0-1.64474-.95958"/><path class="e8a94684-baef-4dec-806d-f324a3c35e69" d="M168.8911,73.00352c-.02441-.2266-.33858-.31766-.54006-.21112a1.06414,1.06414,0,0,0-.40622.53406l-.36313.78268c-.16465.35489-.38658.7552-.77294.8167-.24842.03955-.49881-.07861-.74941-.05667a.92335.92335,0,0,0-.73379.66368,2.71342,2.71342,0,0,0-.06359,1.039,3.5218,3.5218,0,0,0,2.15273-.92154c.24826.32224.77707.146,1.06811-.13815a2.67482,2.67482,0,0,0,.523-2.8007"/><path class="b0204a2f-2fb3-420e-b3e8-f9671175d922" d="M158.58891,74.15407a.856.856,0,0,0-.13729,1.24221,1.23945,1.23945,0,0,0,.41288-1.18541.39344.39344,0,0,0-.32038-.16031"/></g><line class="fa0153f5-4e8f-4696-8ef1-9c00e10ca426" x1="134.74175" y1="46.27742" x2="139.99867" y2="43.04603"/><line class="fa0153f5-4e8f-4696-8ef1-9c00e10ca426" x1="136.04028" y1="52.84817" x2="142.14167" y2="53.77018"/><line class="fa0153f5-4e8f-4696-8ef1-9c00e10ca426" x1="131.29675" y1="59.18543" x2="135.57574" y2="63.63148"/><path class="be815ed2-62e9-4beb-a858-c2eb8f2e5255" d="M127.25585,43.70193l2.68012,1.94745c.28238.20518.5978.4835.547.82884-.06543.44461-.67953.5638-1.1011.40811a3.26521,3.26521,0,0,1-1.68358-2.5743"/><path class="be815ed2-62e9-4beb-a858-c2eb8f2e5255" d="M129.07431,42.38311l3.28088-.45979c.34568-.04844.76592-.0672.96916.21658.26166.36536-.09747.87758-.50892,1.05829a3.26522,3.26522,0,0,1-2.99911-.68329"/><path class="be815ed2-62e9-4beb-a858-c2eb8f2e5255" d="M117.19377,48.22768a2.37029,2.37029,0,0,1-.48584,1.611.62984.62984,0,0,1-.42823.22985.57274.57274,0,0,1-.48547-.34806,1.23911,1.23911,0,0,1,.00558-.99266,3.6742,3.6742,0,0,1,.54383-.86167,8.82415,8.82415,0,0,1,.82964-1.041A5.3128,5.3128,0,0,1,117.19377,48.22768Z"/><path class="be815ed2-62e9-4beb-a858-c2eb8f2e5255" d="M113.59319,47.09675a2.37029,2.37029,0,0,1-1.48267.79559.62983.62983,0,0,1-.46532-.14028.5727.5727,0,0,1-.09717-.58939,1.23911,1.23911,0,0,1,.70587-.698,3.67378,3.67378,0,0,1,.99383-.22475,8.82417,8.82417,0,0,1,1.32274-.14945A5.31263,5.31263,0,0,1,113.59319,47.09675Z"/><path class="b4fc94d0-d688-4d4f-9904-a58ca6ba2d16" d="M122.29042,41.28388c-.3833.10791-.51514.37256-.78125.624a3.31464,3.31464,0,0,1-.96924.67286,5.0233,5.0233,0,0,1-2.2666.627l-.01123-.07568a6.13047,6.13047,0,0,0,1.95068-1.0691,8.75448,8.75448,0,0,1,.81788-.75317,1.77064,1.77064,0,0,1,.60839-.25488.72191.72191,0,0,1,.67823.15722Z"/><path class="b4fc94d0-d688-4d4f-9904-a58ca6ba2d16" d="M126.23622,40.59028a1.33944,1.33944,0,0,1,.65137.01977,1.19162,1.19162,0,0,1,.46289.38355,2.42567,2.42567,0,0,1,.40088.51245.96873.96873,0,0,1,.09375.64355l-.07617.00122c-.127-.36523-.45215-.50512-.77-.65527a1.30433,1.30433,0,0,1-.50733-.22974.991.991,0,0,1-.30371-.61621Z"/><path class="b4fc94d0-d688-4d4f-9904-a58ca6ba2d16" d="M94.73584,19.932a7.27978,7.27978,0,0,0-4.19512-2.08228,6.93215,6.93215,0,0,0-3.82726.31763c-.378.15943-.77553.41721-.84369.82175a.96368.96368,0,0,0,.78871.9921,2.80547,2.80547,0,0,0,1.37361-.13812c.08721-.48128-.47183-.80816-.94259-.94087a9.387,9.387,0,0,0-7.83256,1.33933,3.54291,3.54291,0,0,0,2.55988,1.04816,10.1495,10.1495,0,0,0-4.814,3.3766,4.86079,4.86079,0,0,0,4.16779,1.48721,3.57285,3.57285,0,0,0-2.33549.67029,2.25547,2.25547,0,0,0-.86867,2.1851c.25122,1.12088,1.44032,1.746,2.53907,2.081a3.96685,3.96685,0,0,0,1.91156.208,1.66784,1.66784,0,0,0,1.35718-1.2258,2.71986,2.71986,0,0,0-2.797,1.019,2.30282,2.30282,0,0,0-.60392.93347c-.299,1.08128.791,2.02539,1.80563,2.50392a5.77612,5.77612,0,0,0,3.81768.60865,2.84694,2.84694,0,0,0,2.2402-2.83641,3.311,3.311,0,0,0-1.214.821,1.13261,1.13261,0,0,0-.10932,1.36429,1.31022,1.31022,0,0,0,.70909.404c1.84773.49168,3.765-.86906,4.638-2.57012-.34346.38045.00056,1.05066.49587,1.1825a1.87747,1.87747,0,0,0,1.44273-.381,6.86725,6.86725,0,0,0,2.62587-3.16651,3.19266,3.19266,0,0,0,.1453-2.4387,1.57473,1.57473,0,0,0-2.00274-.89536C98.14584,26.56729,95.71956,21.002,94.73584,19.932Z"/></g></g></svg>