<svg id="fa81ad4b-7ef1-4208-828b-06faf0458d78" data-name="Layer 1" xmlns="http://www.w3.org/2000/svg" xmlns:xlink="http://www.w3.org/1999/xlink" viewBox="0 0 76.11502 42.96529"><defs><style>.b4fb0548-f555-4eb5-ae15-d5d1b4b8f8a7,.beebef82-f6db-4106-a20c-92d0b5259361,.e8d68fcb-a4a8-4b44-a779-68d3a278db5d,.f549f8fa-a77f-4c75-84de-becbb98fe42d,.f97813e5-ba1a-4c61-bbcd-bab02b20a08b{fill:none;}.aa32547e-29df-4fa4-8118-8db0646690fa{fill:#fff;}.b48f1ef3-8c16-4e46-aa74-8e55ec8349e1{fill:#e6e7e8;}.f8231162-1ff4-4a31-b910-42b5cb6985fa{fill:#00aed6;}.a4a9e711-02ff-4859-8555-cea275e62fab{clip-path:url(#a1cd7359-b07b-4e8b-b82c-a10aeb24a235);}.f97813e5-ba1a-4c61-bbcd-bab02b20a08b{stroke:#c3d7dc;}.b4fb0548-f555-4eb5-ae15-d5d1b4b8f8a7,.beebef82-f6db-4106-a20c-92d0b5259361,.f97813e5-ba1a-4c61-bbcd-bab02b20a08b{stroke-miterlimit:10;stroke-width:0.63002px;}.f58fc2d2-de8a-41cd-980b-2c757bc87cf0{fill:#1ca36d;}.ac3f640e-cdbd-4ea1-a45e-113eb704f44a{clip-path:url(#e1a26ceb-bc53-407e-9303-01a8978631a8);}.beebef82-f6db-4106-a20c-92d0b5259361{stroke:#b0ceb2;}.bf5152dd-1b28-45c2-84b2-dbb03ea1a937{fill:#f26522;}.f32a499e-f78e-41a7-a0ec-8359a9ab4d3c{fill:#eeb95b;}.fe07f134-a48d-4b37-a4b1-05caaf22f494{clip-path:url(#a49df325-32fa-41e1-bb9c-8b26748ca03c);}.b4fb0548-f555-4eb5-ae15-d5d1b4b8f8a7{stroke:#eeddc4;}.f549f8fa-a77f-4c75-84de-becbb98fe42d{stroke:#ef5b5b;stroke-linecap:round;stroke-linejoin:round;stroke-width:2.72837px;}</style><clipPath id="a1cd7359-b07b-4e8b-b82c-a10aeb24a235"><path class="e8d68fcb-a4a8-4b44-a779-68d3a278db5d" d="M45.59588,21.9644l-32.79728.00169a5.078,5.078,0,0,0-1.91673,4.06348A4.63432,4.63432,0,0,0,12.799,30.09583l32.79728-.00169Z"/></clipPath><clipPath id="e1a26ceb-bc53-407e-9303-01a8978631a8"><path class="e8d68fcb-a4a8-4b44-a779-68d3a278db5d" d="M57.26629,21.88713,25.33516,14.39952a5.078,5.078,0,0,0-2.794,3.51844,4.6343,4.6343,0,0,0,.938,4.3966l31.93113,7.4876Z"/></clipPath><clipPath id="a49df325-32fa-41e1-bb9c-8b26748ca03c"><path class="e8d68fcb-a4a8-4b44-a779-68d3a278db5d" d="M48.648,9.59463,22.01115,28.72944A5.078,5.078,0,0,0,22.825,33.148a4.63434,4.63434,0,0,0,3.9293,2.18417L53.39108,16.19732Z"/></clipPath></defs><title>Artboard 35</title><ellipse class="aa32547e-29df-4fa4-8118-8db0646690fa" cx="3.44608" cy="26.13069" rx="3.44608" ry="5.24162"/><path class="b48f1ef3-8c16-4e46-aa74-8e55ec8349e1" d="M13.34763,23.07634,2.54852,23.0769s-1.07193.70631-1.07181,3.05393a4.18612,4.18612,0,0,0,1.07212,2.85165l10.79911-.00056A4.0077,4.0077,0,0,0,13.34763,23.07634Z"/><ellipse class="aa32547e-29df-4fa4-8118-8db0646690fa" cx="12.69911" cy="26.13021" rx="3.44608" ry="5.24162"/><path class="f8231162-1ff4-4a31-b910-42b5cb6985fa" d="M45.59588,21.9644l-32.79728.00169a5.078,5.078,0,0,0-1.91673,4.06348A4.63432,4.63432,0,0,0,12.799,30.09583l32.79728-.00169Z"/><ellipse class="aa32547e-29df-4fa4-8118-8db0646690fa" cx="45.5961" cy="26.12851" rx="2.76617" ry="5.24162"/><path class="b48f1ef3-8c16-4e46-aa74-8e55ec8349e1" d="M45.917,30.09413s3.18094-.24446,5.16134-4.03111c-1.98078-3.66431-5.16174-3.58271-5.16174-3.58271A5.65551,5.65551,0,0,0,45.917,30.09413Z"/><polygon class="aa32547e-29df-4fa4-8118-8db0646690fa" points="50.422 25.748 64.448 26.062 50.422 26.378 50.422 25.748"/><g class="a4a9e711-02ff-4859-8555-cea275e62fab"><path class="f97813e5-ba1a-4c61-bbcd-bab02b20a08b" d="M36.462,21.01706a5.63527,5.63527,0,0,0-1.45609,4.39541"/><path class="f97813e5-ba1a-4c61-bbcd-bab02b20a08b" d="M32.67917,21.17686c-.10807-.006-2.07568,2.144-1.6139,4.274"/><path class="f97813e5-ba1a-4c61-bbcd-bab02b20a08b" d="M28.86874,21.19248c-.10807-.006-2.11154,1.94991-1.64976,4.0799"/><path class="f97813e5-ba1a-4c61-bbcd-bab02b20a08b" d="M25.245,21.16058c-.10806-.006-2.32631,1.83636-1.86453,3.96635"/><path class="f97813e5-ba1a-4c61-bbcd-bab02b20a08b" d="M21.60844,21.1093a4.12565,4.12565,0,0,0-1.51971,3.82022"/><path class="f97813e5-ba1a-4c61-bbcd-bab02b20a08b" d="M34.24379,21.442a3.81738,3.81738,0,0,0-1.01032,2.6263"/><path class="f97813e5-ba1a-4c61-bbcd-bab02b20a08b" d="M30.29284,21.42613a3.81738,3.81738,0,0,0-1.01032,2.6263"/><path class="f97813e5-ba1a-4c61-bbcd-bab02b20a08b" d="M26.81747,20.9975a4.07979,4.07979,0,0,0-1.48567,2.81479"/><path class="f97813e5-ba1a-4c61-bbcd-bab02b20a08b" d="M23.1659,21.05129a3.63484,3.63484,0,0,0-1.27357,2.64614"/></g><path class="f8231162-1ff4-4a31-b910-42b5cb6985fa" d="M64.20031,26.20748a3.0851,3.0851,0,0,1,1.82479,1.15688,1.746,1.746,0,0,1,.39586,1.34456.95534.95534,0,0,1-1.03169.79026,1.10259,1.10259,0,0,1-.75849-.81649,10.01163,10.01163,0,0,1-.1723-1.15786,3.21048,3.21048,0,0,0-.88157-1.70839"/><ellipse class="aa32547e-29df-4fa4-8118-8db0646690fa" cx="15.27876" cy="16.31844" rx="5.24162" ry="3.44608" transform="translate(-4.09686 27.46821) rotate(-76.80302)"/><path class="b48f1ef3-8c16-4e46-aa74-8e55ec8349e1" d="M25.61616,15.60581,15.10224,13.14038s-1.2049.44288-1.74086,2.7285A4.18614,4.18614,0,0,0,13.754,18.89l10.51392,2.46543A4.0077,4.0077,0,0,0,25.61616,15.60581Z"/><ellipse class="aa32547e-29df-4fa4-8118-8db0646690fa" cx="24.28742" cy="18.4309" rx="5.24162" ry="3.44608" transform="translate(0.79845 37.86914) rotate(-76.80302)"/><path class="f58fc2d2-de8a-41cd-980b-2c757bc87cf0" d="M57.26629,21.88713,25.33516,14.39952a5.078,5.078,0,0,0-2.794,3.51844,4.6343,4.6343,0,0,0,.938,4.3966l31.93113,7.4876Z"/><ellipse class="aa32547e-29df-4fa4-8118-8db0646690fa" cx="56.31563" cy="25.94127" rx="5.24162" ry="2.76617" transform="translate(18.20261 74.84728) rotate(-76.80302)"/><path class="b48f1ef3-8c16-4e46-aa74-8e55ec8349e1" d="M55.7225,29.87539s3.15273.48836,5.94549-2.746c-1.09171-4.0198-4.20726-4.66673-4.20726-4.66673A5.65552,5.65552,0,0,0,55.7225,29.87539Z"/><polygon class="aa32547e-29df-4fa4-8118-8db0646690fa" points="61.101 26.673 74.684 30.182 60.957 27.286 61.101 26.673"/><g class="ac3f640e-cdbd-4ea1-a45e-113eb704f44a"><path class="beebef82-f6db-4106-a20c-92d0b5259361" d="M48.59,18.87909a5.63526,5.63526,0,0,0-2.42131,3.94678"/><path class="beebef82-f6db-4106-a20c-92d0b5259361" d="M44.87068,18.17086c-.10384-.03053-2.51041,1.61337-2.54721,3.79252"/><path class="beebef82-f6db-4106-a20c-92d0b5259361" d="M41.15736,17.316c-.10384-.03053-2.501,1.41622-2.53781,3.59537"/><path class="beebef82-f6db-4106-a20c-92d0b5259361" d="M37.63664,16.45742c-.10384-.03053-2.68419,1.25663-2.721,3.43579"/><path class="beebef82-f6db-4106-a20c-92d0b5259361" d="M34.10788,15.57709a4.12566,4.12566,0,0,0-2.3519,3.37227"/><path class="beebef82-f6db-4106-a20c-92d0b5259361" d="M46.33341,18.78629a3.81738,3.81738,0,0,0-1.58333,2.32621"/><path class="beebef82-f6db-4106-a20c-92d0b5259361" d="M42.49048,17.86863a3.81737,3.81737,0,0,0-1.58334,2.32621"/><path class="beebef82-f6db-4106-a20c-92d0b5259361" d="M39.20481,16.65773a4.07979,4.07979,0,0,0-2.08917,2.40116"/><path class="beebef82-f6db-4106-a20c-92d0b5259361" d="M35.63744,15.87626a3.63484,3.63484,0,0,0-1.84416,2.28541"/></g><path class="bf5152dd-1b28-45c2-84b2-dbb03ea1a937" d="M74.41027,30.26642a3.085,3.085,0,0,1,1.5124,1.543,1.746,1.746,0,0,1,.07838,1.39943.95535.95535,0,0,1-1.1849.53379,1.10257,1.10257,0,0,1-.552-.96811,10.01023,10.01023,0,0,1,.09664-1.16662,3.21052,3.21052,0,0,0-.46816-1.86456"/><ellipse class="aa32547e-29df-4fa4-8118-8db0646690fa" cx="16.84464" cy="37.56803" rx="3.44608" ry="5.24162" transform="translate(-18.7542 16.88418) rotate(-35.69194)"/><path class="b48f1ef3-8c16-4e46-aa74-8e55ec8349e1" d="M23.10477,29.31089l-8.77066,6.30049s-.45857,1.199.91109,3.10567a4.18612,4.18612,0,0,0,2.53438,1.69063l8.77067-6.30049A4.00769,4.00769,0,0,0,23.10477,29.31089Z"/><ellipse class="aa32547e-29df-4fa4-8118-8db0646690fa" cx="24.35962" cy="32.16956" rx="3.44608" ry="5.24162" transform="matrix(0.81217, -0.58343, 0.58343, 0.81217, -14.19301, 20.25461)"/><path class="f32a499e-f78e-41a7-a0ec-8359a9ab4d3c" d="M48.648,9.59463,22.01115,28.72944A5.078,5.078,0,0,0,22.825,33.148a4.63434,4.63434,0,0,0,3.9293,2.18417L53.39108,16.19732Z"/><ellipse class="aa32547e-29df-4fa4-8118-8db0646690fa" cx="51.07743" cy="12.97657" rx="2.76617" ry="5.24162" transform="translate(2.02322 32.2374) rotate(-35.69194)"/><path class="b48f1ef3-8c16-4e46-aa74-8e55ec8349e1" d="M53.65154,16.01022s2.44094-2.05426,1.84034-6.2851c-3.74649-1.82057-6.28244.10142-6.28244.10142A5.65551,5.65551,0,0,0,53.65154,16.01022Z"/><polygon class="aa32547e-29df-4fa4-8118-8db0646690fa" points="54.775 9.852 66.35 1.925 55.143 10.364 54.775 9.852"/><g class="fe07f134-a48d-4b37-a4b1-05caaf22f494"><path class="b4fb0548-f555-4eb5-ae15-d5d1b4b8f8a7" d="M40.67677,14.15379a5.63526,5.63526,0,0,0,1.38159,4.41939"/><path class="b4fb0548-f555-4eb5-ae15-d5d1b4b8f8a7" d="M37.69763,16.4904c-.09128.05817-.43508,2.95226,1.18258,4.41283"/><path class="b4fb0548-f555-4eb5-ae15-d5d1b4b8f8a7" d="M34.61194,18.726c-.09128.05816-.57744,2.81555,1.04022,4.27612"/><path class="b4fb0548-f555-4eb5-ae15-d5d1b4b8f8a7" d="M31.65013,20.81417c-.09128.05817-.81812,2.84863.79954,4.3092"/><path class="b4fb0548-f555-4eb5-ae15-d5d1b4b8f8a7" d="M28.66662,22.894a4.12565,4.12565,0,0,0,.99436,3.98933"/><path class="b4fb0548-f555-4eb5-ae15-d5d1b4b8f8a7" d="M39.1231,15.793a3.81735,3.81735,0,0,0,.71156,2.72247"/><path class="b4fb0548-f555-4eb5-ae15-d5d1b4b8f8a7" d="M35.90489,18.085a3.81741,3.81741,0,0,0,.71157,2.72248"/><path class="b4fb0548-f555-4eb5-ae15-d5d1b4b8f8a7" d="M32.83215,19.76436a4.07977,4.07977,0,0,0,.43546,3.15287"/><path class="b4fb0548-f555-4eb5-ae15-d5d1b4b8f8a7" d="M29.89774,21.93832a3.63485,3.63485,0,0,0,.50933,2.89216"/></g><path class="f32a499e-f78e-41a7-a0ec-8359a9ab4d3c" d="M66.23376,2.18729a3.085,3.085,0,0,1,2.157-.12494,1.746,1.746,0,0,1,1.10592.8611.95536.95536,0,0,1-.37692,1.24373,1.1026,1.1026,0,0,1-1.09236-.22066,10.01454,10.01454,0,0,1-.81543-.83989,3.21039,3.21039,0,0,0-1.71265-.87326"/><line class="f549f8fa-a77f-4c75-84de-becbb98fe42d" x1="17.48646" y1="1.36418" x2="57.72338" y2="41.60111"/><line class="f549f8fa-a77f-4c75-84de-becbb98fe42d" x1="57.72338" y1="1.36418" x2="17.48646" y2="41.60111"/></svg>