<svg id="e2053ca3-3286-4c05-a7a0-40125f59dced" data-name="Layer 1" xmlns="http://www.w3.org/2000/svg" viewBox="0 0 93.07803 35.12869"><defs><style>.b0c9f4a6-9692-487f-bd6d-f7e4ac5cf80a{fill:#ef5b5b;}.f63ac910-1fb7-4e7d-aabb-c119e2857cd8{fill:#00aed6;}.a6f8db50-703b-4ae9-a563-d6de7107f145{fill:#eeb95b;}.be33b969-de8e-41cf-a861-49619376be59{fill:none;stroke:#ef5b5b;stroke-linecap:round;stroke-linejoin:round;stroke-width:1.5px;}</style></defs><title>Artboard 37</title><path class="b0c9f4a6-9692-487f-bd6d-f7e4ac5cf80a" d="M12.53046,17.43375,9.353,5.55774c-.0749.01856-.15012.02813-.225.04816A12.30534,12.30534,0,1,0,24.34927,19.98064Z"/><path class="f63ac910-1fb7-4e7d-aabb-c119e2857cd8" d="M11.41556.363l3.118,11.65379,10.48379-5.8661A12.29807,12.29807,0,0,0,11.41556.363Z"/><path class="a6f8db50-703b-4ae9-a563-d6de7107f145" d="M29.24094,11.75791a12.276,12.276,0,0,0-1.24035-2.96737L17.51647,14.65673l.05945.22217,11.81914,2.54681A12.23739,12.23739,0,0,0,29.24094,11.75791Z"/><path class="b0c9f4a6-9692-487f-bd6d-f7e4ac5cf80a" d="M80.71009,16.99262c6.5033-11.248,24.171,1.782.12229,18.11739l.00012.01853-.01328-.00914-.01306.00929-.00012-.01852C56.56244,19.06551,74.07182,5.82376,80.71009,16.99262Z"/><path class="be33b969-de8e-41cf-a861-49619376be59" d="M72.10593,24.727l-9.36869.035a.17539.17539,0,0,1-.1576-.11555l-1.28633-4.122c-.11891-.381-.26291-.36957-.32.02549l-1.01972,7.05576c-.08618.59632-.23266.59714-.32551.00182l-.72445-5.01139s-.039-.32526-.07354-.32638c-.03587-.00115-.08093.24519-.08093.24519l-.38679,2.13168a.17276.17276,0,0,1-.16016.12881l-16.94759.04645-.8176,0c-.67552.00292-2.16823.07358-2.16823.07358a.1728.1728,0,0,1-.16093-.12786l-.39937-2.12936s-.04652-.24608-.08238-.24471c-.03454.00132-.07161.32681-.07161.32681l-.69482,5.01558c-.08933.59586-.23581.5959-.32552.0001l-1.06736-9.06757c-.05942-.39471-.20349-.40533-.32015-.02359l-1.256,6.14751a.1754.1754,0,0,1-.15691.11649l-13.51585.035"/></svg>