<svg id="eb33a1a7-f9e1-4c00-b92b-bf6e75223a4b" data-name="Layer 1" xmlns="http://www.w3.org/2000/svg" viewBox="0 0 58.60499 40.06104"><defs><style>.bc9e0c4b-4acc-4204-aee6-fa01098faf5b{fill:#a7a9ac;}.e68648c0-1046-49a8-a7a8-70f40510bc46{fill:#f1f2f2;}.ae1a507d-1d62-4416-8cb2-073617a96c82{fill:#4e7582;stroke:#4e7582;stroke-width:1.14071px;}.ae1a507d-1d62-4416-8cb2-073617a96c82,.bf300ff5-0697-4d2c-9ba5-b456fc58e67d{stroke-linejoin:round;}.bf300ff5-0697-4d2c-9ba5-b456fc58e67d,.ef58c9ea-fcc3-423f-bf5e-d685f9e98c0a{fill:#231f20;}.bf300ff5-0697-4d2c-9ba5-b456fc58e67d{stroke:#231f20;stroke-width:1.40358px;}</style></defs><title>Artboard 41</title><polygon class="bc9e0c4b-4acc-4204-aee6-fa01098faf5b" points="11.16 8.983 11.375 39.599 54.224 39.349 54.474 11.312 43.936 8.792 11.16 8.983"/><polygon class="e68648c0-1046-49a8-a7a8-70f40510bc46" points="8.958 10.337 21.179 40.061 58.605 26.212 46.927 0 34.344 3.426 24.792 6.026 8.958 10.337"/><path class="ae1a507d-1d62-4416-8cb2-073617a96c82" d="M9.10618-.03256H14.4276a0,0,0,0,1,0,0V27.5927a2.66071,2.66071,0,0,1-2.66071,2.66071h0a2.6607,2.6607,0,0,1-2.6607-2.6607V-.03256a0,0,0,0,1,0,0Z" transform="translate(30.68548 18.08893) rotate(136.85596)"/><path class="bf300ff5-0697-4d2c-9ba5-b456fc58e67d" d="M27.36974,31.75832,25.65793,28.1041l-1.71182-3.65423a18.07079,18.07079,0,0,0-2.17453,1.37167,17.042,17.042,0,0,0-1.47332,2.04719l3.53574,1.9448Z"/><path class="ef58c9ea-fcc3-423f-bf5e-d685f9e98c0a" d="M27.99,32.33062a2.90529,2.90529,0,0,1,1.94226-1.13989,8.71363,8.71363,0,0,1,2.27637.002,5.85931,5.85931,0,0,0,1.99182-.04834c.53967-.14209.87549-.60815.74353-.95629a9.62821,9.62821,0,0,1-.36414-1.08789,1.85846,1.85846,0,0,1,.39527-1.43873,3.4551,3.4551,0,0,1,2.206-1.16333,7.80817,7.80817,0,0,0,2.044-.459,1.34913,1.34913,0,0,0,.70153-.63867.80915.80915,0,0,0-.08459-.95069.88755.88755,0,0,1,.36462,1.04664,1.77478,1.77478,0,0,1-.691,1.00683,6.53788,6.53788,0,0,1-2.13928.84448,2.75384,2.75384,0,0,0-1.55469.94751.82119.82119,0,0,0-.165.627c.02844.21142.22717.50976.36767.98462a1.71341,1.71341,0,0,1-.34326,1.51171,2.16539,2.16539,0,0,1-1.21057.74537,5.7839,5.7839,0,0,1-2.38391-.11133,11.56568,11.56568,0,0,0-2.10572-.31983A2.96685,2.96685,0,0,0,27.99,32.33062Z"/></svg>