<svg id="b2e698eb-3f38-422a-a632-81bc322a0374" data-name="Layer 1" xmlns="http://www.w3.org/2000/svg" xmlns:xlink="http://www.w3.org/1999/xlink" viewBox="0 0 65.13883 61.96169"><defs><style>.ac3820b1-d78a-4ecf-8dc5-1720f92435c6,.f9f2515f-a061-43fa-97c0-571d230c493a{fill:none;}.efa6f047-7693-4c26-b3b9-d470077e88eb{clip-path:url(#bf475eda-833b-42ee-a7a7-c3875d0a8c2e);}.e49c0bf3-17d8-4023-bad6-afe766507471{fill:#dbae95;}.b21ee707-8188-47ee-b2f6-1f139cf836b7{fill:#af2027;}.aa785a68-fa6e-4bb5-af98-4051790c28d9{fill:#fff;}.fbfbd50b-78c4-4b39-82e1-c585b8a40765{fill:#63774e;}.b0f225cc-5b2d-4b74-81e6-ec83d303928c{fill:#3c2415;}.b7bacbe9-fada-4bd7-8fe9-90cd4ac3f0c8{fill:#6f825a;}.ac3820b1-d78a-4ecf-8dc5-1720f92435c6{stroke:#05bce7;stroke-miterlimit:10;stroke-width:2.03717px;}.a6d42435-216c-40a2-818c-e57d8a7ecab3{fill:#c3d7dc;}</style><clipPath id="bf475eda-833b-42ee-a7a7-c3875d0a8c2e"><rect class="f9f2515f-a061-43fa-97c0-571d230c493a" x="-2.66977" y="-15.17038" width="71.30639" height="77.13208"/></clipPath></defs><title>Artboard 17</title><g class="efa6f047-7693-4c26-b3b9-d470077e88eb"><path class="e49c0bf3-17d8-4023-bad6-afe766507471" d="M47.49932,40.74214c.98261-.4,1.54069-1.72264,1.99253-2.62549a15.317,15.317,0,0,0,.96353-2.41943,14.98223,14.98223,0,0,0,.57384-1.96045,22.94467,22.94467,0,0,0,.15242-2.94949c.00747-1.70841-.11063-3.41176-.21464-5.11593-.08864-1.45338-.19542-2.89367-.36466-4.29469-.7452-6.17106-2.69937-11.58215-9.63-13.98531a17.67657,17.67657,0,0,0-11.10773.21654,13.93221,13.93221,0,0,0-5.43783,3.00139,13.93436,13.93436,0,0,0-3.63719,7.10831c-1.13192,5.00829-1.404,12.28547,1.5697,16.75107.72107,1.08256,1.91078.95428,2.82541,1.61608,1.15249.83365,1.5983,2.84186,1.72079,4.15929a20.31536,20.31536,0,0,1-.41084,5.19136c-.1627.97933-.32913,1.95791-.48845,2.93762-.144.88545.02936,1.96445-.1496,2.78689-.31641,1.45281-1.27872,2.29619-1.073,3.99641.35343,2.91948,2.79717,5.902,4.713,8.00481a9.62539,9.62539,0,0,0,3.72452,2.74145,1.208,1.208,0,0,0,.78148.07779,1.312,1.312,0,0,0,.61-.5885,37.41851,37.41851,0,0,0,2.3766-5.17845c.867-1.87451,2.84131-2.95819,3.32826-5.09468a20.25075,20.25075,0,0,0-.01683-7.90794,4.28338,4.28338,0,0,0-.49555-1.5106c-.28069-.45255-.2762-.653-.80841-.67115-2.054.408-.34764-2.97464,1.28152-3.15267q2.57838-.28189,5.15639-.56381a5.84881,5.84881,0,0,0,1.46524-.347C47.013,40.92192,47.26441,40.83776,47.49932,40.74214Z"/><path class="b21ee707-8188-47ee-b2f6-1f139cf836b7" d="M50.16345,33.90354l-.08452-.24235A.17455.17455,0,0,0,50.16345,33.90354Z"/><path class="b21ee707-8188-47ee-b2f6-1f139cf836b7" d="M51.00364,33.61176c-.08964-.24375-.38444-.28819-.86084-.46109a4.92082,4.92082,0,0,0-2.39959-.45388,3.57984,3.57984,0,0,0-3.21472,3.1153,2.94384,2.94384,0,0,0,1.0473,2.43355,4.46025,4.46025,0,0,0,2.90756.96767c.76947-.16832,1.00557-1.04562,1.343-1.63722a10.66863,10.66863,0,0,0,1.18323-3.546A.81923.81923,0,0,0,51.00364,33.61176Z"/><path class="aa785a68-fa6e-4bb5-af98-4051790c28d9" d="M39.48685,47.10746c-.71378.13416-.70924,1.145-.82331,1.6729-.20011.92606-.59473,1.85-.88494,2.75258-.29322.912-.70153,1.94487-1.6122,2.24209a2.9035,2.9035,0,0,1-2.12212-.40152,37.02233,37.02233,0,0,1-4.84752-3.17064c-.2391-.1684-3.36373-2.55639-3.4806-2.23012-.78688,2.19693.19491,4.87757.38156,7.12435q.30885,3.71777.67725,7.43027.72632,7.34922,1.63915,14.67833c.59995,4.88914,1.24471,9.77266,1.90472,14.654.17511,1.29511,1.52523,14.51366,1.98694,14.549a58.364,58.364,0,0,0,19.8122-1.89459q-.57354-6.475-1.3932-12.92508-2.1563-16.96977-5.99934-33.66787a40.63641,40.63641,0,0,0-2.33607-7.5882c-.39692-.88386-1.22141-2.54869-2.0871-3.02474A1.25339,1.25339,0,0,0,39.48685,47.10746Z"/><path class="fbfbd50b-78c4-4b39-82e1-c585b8a40765" d="M22.55144,45.63178c1.37151-.50667,3.00788-.92847,4.21014-.09642a4.81336,4.81336,0,0,1,1.4445,2.0817c.4008,3.63347,2.97941,6.16539,5.31255,8.64779a35.90072,35.90072,0,0,1,4.78981,7.08851,87.6034,87.6034,0,0,0,.31633-10.0497c.01085-2.63152.22039-5.76248-.55812-8.30288-.08761-.28589,2.79644.5372,3.08958.753a10.0626,10.0626,0,0,1,2.31414,2.91447,19.31281,19.31281,0,0,1,1.711,4.44729c1.64128,6.01826,7.85915,9.3605,7.73042,16.10642-.05252,2.75232-1.12508,5.26264-1.15393,7.99154-.0345,3.26314-.86443,6.44151-.6965,9.73714.19151,3.75849,1.81652,6.8245,2.56088,10.41222.66844,3.22182,3.62312,14.23454.60706,17.05288-1.40293,1.311-6.95916.3734-8.93473.56232-3.61324.34551-7.18933,1.01113-10.824,1.13023A98.92259,98.92259,0,0,1,19.991,115.433c.2831-2.85246-.21958-5.87614.1684-8.67658.3234-2.33432,1.35173-4.55828,1.55475-6.99759a29.23483,29.23483,0,0,0-3.1543-15.864c-3.47514-6.65443-6.03372-14.24049-6.3542-21.78448a24.19909,24.19909,0,0,1,1.56843-10.51365C15.34071,48.008,18.96336,46.95729,22.55144,45.63178Z"/><path class="b0f225cc-5b2d-4b74-81e6-ec83d303928c" d="M27.469,37.36826a11.48919,11.48919,0,0,0,4.40745-4.23554c.88568-1.727,1.18476-4.91391-.35132-6.371a6.15007,6.15007,0,0,1-2.10323-4.05006A2.25664,2.25664,0,0,1,31.113,20.32466c1.62059-.215,2.32264,1.42941,3.30123,2.3271,2.25884,2.07209,3.78954-.74978,5.40618-1.86026a7.16082,7.16082,0,0,1,1.8709-.81468c1.5761-.51389,3.20071-.89267,4.80168-1.31963a11.67781,11.67781,0,0,1,2.34159-.66784,1.61685,1.61685,0,0,1,1.0247.401c.15445.12729.6349,1.03211.72645,1.04428.85109.11322,1.33871-3.46625,1.41415-4.10328a13.63662,13.63662,0,0,0-.19019-4.46967,10.25122,10.25122,0,0,0-5.10575-6.99335c-2.00314-1.06622-7.342-.762-9.33205-1.92C33.39479-.36566,26.30278.74532,22.45825,3.0142c-6.01309,3.54869-8.65116,10.43892-9.17034,17.10864a22.53655,22.53655,0,0,0,.78883,8.97776c.92989,2.5429,3.7798,5.27554,6.15272,6.55555.88862.47934,1.85223.823,2.69068,1.3855a6.90077,6.90077,0,0,0,1.63655,1.00459,2.96109,2.96109,0,0,0,2.26568-.3125C27.03611,37.61865,27.25224,37.49675,27.469,37.36826Z"/><path class="b7bacbe9-fada-4bd7-8fe9-90cd4ac3f0c8" d="M38.94162,67.754q-.06084-.26286-.12276-.5234a23.5042,23.5042,0,0,1-.31756-8.524,2.23833,2.23833,0,0,1,.48061-1.41383c.45364,4.97087,2.21134,9.53722,3.04992,14.39154,2.42474,14.03624,2.45076,28.28609,5.54942,42.20885a.54453.54453,0,0,1-.00714.36976.52345.52345,0,0,1-.3439.21591,4.205,4.205,0,0,1-1.84279.09717.70977.70977,0,0,1-.42711-.18753.75236.75236,0,0,1-.14295-.37765c-.50462-2.85688-.43513-5.9334-.73-8.83492-.46142-4.54-.92288-9.08028-1.47723-13.6101-.55956-4.57238-1.21387-9.13263-1.91528-13.68529a56.52706,56.52706,0,0,0-3.91644-15.48233,9.8011,9.8011,0,0,1-.78611-2.63A7.36866,7.36866,0,0,1,38.78,63.26048a18.26523,18.26523,0,0,1,.13922-5.33559"/><path class="b7bacbe9-fada-4bd7-8fe9-90cd4ac3f0c8" d="M40.29533,80.92905A46.564,46.564,0,0,1,31.698,75.17879C25.0917,69.70816,11.972,63.01452,14.41789,52.45622c2.47144-10.66628,14.01937,4.181,16.63155,6.53495,4.24689,3.82713,9.25458,7.19992,13.63515,11.07951,4.074,3.608,12.15373-1.48777,16.94813-2.89949,2.54911-.75059,5.673-1.07928,8.05833-2.22228,2.39677-1.14847,4.64675-3.42834,6.77857-5.01985.40977-.30591.91953-.6281,1.39683-.44461.42114.1619.60711.64176.76,1.06625a24.42139,24.42139,0,0,0,3.91588,6.69843c-5.78029,5.18659-14.02029,9.25712-20.86123,12.97173-2.87118,1.559-6.53216,4.32688-9.885,4.43042C48.15524,84.76373,43.46147,82.53862,40.29533,80.92905Z"/></g><line class="ac3820b1-d78a-4ecf-8dc5-1720f92435c6" x1="57.73891" y1="28.55451" x2="62.99583" y2="25.32313"/><line class="ac3820b1-d78a-4ecf-8dc5-1720f92435c6" x1="59.03744" y1="35.12526" x2="65.13883" y2="36.04727"/><line class="ac3820b1-d78a-4ecf-8dc5-1720f92435c6" x1="54.29391" y1="41.46253" x2="58.5729" y2="45.90857"/><path class="a6d42435-216c-40a2-818c-e57d8a7ecab3" d="M50.253,25.979l2.68012,1.94745c.28238.20519.5978.48351.547.82885-.06542.4446-.67953.56379-1.10109.40811a3.2652,3.2652,0,0,1-1.68359-2.57431"/><path class="a6d42435-216c-40a2-818c-e57d8a7ecab3" d="M52.07147,24.66021l3.28088-.45979c.34568-.04845.76592-.06721.96916.21658.26166.36536-.09747.87757-.50892,1.05828a3.26517,3.26517,0,0,1-2.99911-.68329"/><path class="a6d42435-216c-40a2-818c-e57d8a7ecab3" d="M40.19093,30.50477a2.3703,2.3703,0,0,1-.48584,1.611.62983.62983,0,0,1-.42823.22984.57271.57271,0,0,1-.48547-.34805,1.23909,1.23909,0,0,1,.00559-.99267,3.67378,3.67378,0,0,1,.54382-.86166,8.82517,8.82517,0,0,1,.82964-1.041A5.31273,5.31273,0,0,1,40.19093,30.50477Z"/><path class="a6d42435-216c-40a2-818c-e57d8a7ecab3" d="M36.59035,29.37384a2.37026,2.37026,0,0,1-1.48267.7956.62983.62983,0,0,1-.46532-.14028.5727.5727,0,0,1-.09717-.58939,1.23913,1.23913,0,0,1,.70587-.698,3.67431,3.67431,0,0,1,.99383-.22474,8.82434,8.82434,0,0,1,1.32274-.14946A5.31263,5.31263,0,0,1,36.59035,29.37384Z"/><path class="b0f225cc-5b2d-4b74-81e6-ec83d303928c" d="M45.28758,23.561c-.3833.10791-.51513.37255-.78125.624a3.31444,3.31444,0,0,1-.96924.67285,5.023,5.023,0,0,1-2.2666.627l-.01123-.07568A6.13061,6.13061,0,0,0,43.21,24.34a8.753,8.753,0,0,1,.81787-.75317,1.77082,1.77082,0,0,1,.6084-.25489.72193.72193,0,0,1,.67822.15723Z"/><path class="b0f225cc-5b2d-4b74-81e6-ec83d303928c" d="M49.23338,22.86737a1.33955,1.33955,0,0,1,.65137.01978,1.19168,1.19168,0,0,1,.46289.38354,2.42567,2.42567,0,0,1,.40088.51245.96876.96876,0,0,1,.09375.64356l-.07617.00122c-.127-.36523-.45215-.50513-.77-.65527a1.30447,1.30447,0,0,1-.50733-.22974.99107.99107,0,0,1-.30371-.61621Z"/><path class="b0f225cc-5b2d-4b74-81e6-ec83d303928c" d="M17.733,2.209A7.27975,7.27975,0,0,0,13.53788.12676,6.93208,6.93208,0,0,0,9.71062.4444c-.378.15943-.77553.41721-.84369.82174a.96368.96368,0,0,0,.78871.9921,2.80535,2.80535,0,0,0,1.37361-.13812c.08722-.48127-.47183-.80815-.94259-.94086A9.387,9.387,0,0,0,2.2541,2.51859,3.54291,3.54291,0,0,0,4.814,3.56674,10.14964,10.14964,0,0,0,0,6.94334,4.86083,4.86083,0,0,0,4.16779,8.43056a3.57287,3.57287,0,0,0-2.33549.67029A2.25546,2.25546,0,0,0,.96363,11.286c.25122,1.12087,1.44033,1.746,2.53907,2.081a3.967,3.967,0,0,0,1.91156.208,1.66783,1.66783,0,0,0,1.35718-1.2258,2.71985,2.71985,0,0,0-2.797,1.019,2.30286,2.30286,0,0,0-.60392.93346c-.299,1.08128.791,2.02539,1.80563,2.50393a5.77612,5.77612,0,0,0,3.81768.60865,2.847,2.847,0,0,0,2.2402-2.83642,3.311,3.311,0,0,0-1.214.821,1.13263,1.13263,0,0,0-.10932,1.3643,1.31029,1.31029,0,0,0,.70909.404c1.84773.49168,3.765-.86907,4.63805-2.57012-.34346.38045.00056,1.05065.49587,1.18249a1.8775,1.8775,0,0,0,1.44273-.381A6.8673,6.8673,0,0,0,19.82228,12.232a3.19266,3.19266,0,0,0,.1453-2.4387,1.57472,1.57472,0,0,0-2.00273-.89537C21.143,8.84439,18.71673,3.27911,17.733,2.209Z"/></svg>