<svg xmlns="http://www.w3.org/2000/svg" xmlns:xlink="http://www.w3.org/1999/xlink" viewBox="0 0 28.25018 34.47462"><defs><style>.bf687142-d099-44c0-a7b4-62a552de0f9d{fill:none;}.bda99d1e-ba59-4ab7-9129-0b2cc9e4615e{isolation:isolate;}.b18abe94-74fd-454b-8341-6ac8a0484a53{fill:#bcbec0;}.b40723b3-b9d2-44f2-8182-cd583fcc9ddb{fill:#e6e7e8;}.f778e72c-4593-4c74-b8cf-ea43d852c3c0{fill:#939598;}.ef97bc12-c570-4f72-9d07-843d8092010e{clip-path:url(#af6358ff-3f3e-4014-93b0-565c49d7266d);}.a4b2962b-8391-44e5-8b7c-9014df52bfa7,.aace5227-c8e0-4e0a-aa55-bac7baf55ddf,.adcbe58a-9e26-42aa-9cd1-a10a7e25f423{fill:#c3d7dc;}.a4b2962b-8391-44e5-8b7c-9014df52bfa7{opacity:0.76;}.fcd78ea7-304e-4441-aac6-a3a67e080c80{fill:#e7f6fc;}.adcbe58a-9e26-42aa-9cd1-a10a7e25f423{mix-blend-mode:soft-light;}.ff1e140f-2a8b-426a-902b-bc03ceb16979{clip-path:url(#b9b5e4cc-aa0b-46b7-bb56-b66a4280ba4f);}.fa7985e4-9619-4da5-8432-6e50626224a4{fill:#fff;}.f1480c58-3577-41b2-a341-b43f0b0ed968{fill:#e86978;}</style><clipPath id="af6358ff-3f3e-4014-93b0-565c49d7266d"><path class="bf687142-d099-44c0-a7b4-62a552de0f9d" d="M8.71277.00006C3.90088.00006,0,1.32891,0,2.96807L1.62769,28.52471h.032c0,1.32715,3.15771,2.40284,7.0531,2.40284S15.766,29.85186,15.766,28.52471h.03186L17.42554,2.96807C17.42554,1.32891,13.52466.00006,8.71277.00006Z"/></clipPath><clipPath id="b9b5e4cc-aa0b-46b7-bb56-b66a4280ba4f"><ellipse class="bf687142-d099-44c0-a7b4-62a552de0f9d" cx="19.7816" cy="25.38354" rx="6.70121" ry="7.30777" transform="translate(-11.25506 33.8901) rotate(-67.39771)"/></clipPath></defs><title>Artboard 26</title><g class="bda99d1e-ba59-4ab7-9129-0b2cc9e4615e"><g id="e0a7e2ab-f922-4d72-bcad-5da358469cf8" data-name="Layer 1"><polygon class="b18abe94-74fd-454b-8341-6ac8a0484a53" points="15.798 28.525 1.628 28.525 0 2.968 17.426 2.968 15.798 28.525"/><ellipse class="b40723b3-b9d2-44f2-8182-cd583fcc9ddb" cx="8.71278" cy="2.96809" rx="8.71277" ry="2.96809"/><ellipse class="f778e72c-4593-4c74-b8cf-ea43d852c3c0" cx="8.71278" cy="28.52479" rx="7.05319" ry="2.40274"/><g class="ef97bc12-c570-4f72-9d07-843d8092010e"><polygon class="a4b2962b-8391-44e5-8b7c-9014df52bfa7" points="0.622 13.636 16.899 13.916 16.899 33.456 0 35.035 -2.777 27.136 0.622 13.636"/></g><ellipse class="fcd78ea7-304e-4441-aac6-a3a67e080c80" cx="8.71278" cy="14.18161" rx="7.74932" ry="2.63988"/><ellipse class="aace5227-c8e0-4e0a-aa55-bac7baf55ddf" cx="8.43036" cy="13.91596" rx="7.2573" ry="2.47227"/><ellipse class="b18abe94-74fd-454b-8341-6ac8a0484a53" cx="8.71278" cy="2.96809" rx="8.18617" ry="2.7887"/><g class="ef97bc12-c570-4f72-9d07-843d8092010e"><path class="adcbe58a-9e26-42aa-9cd1-a10a7e25f423" d="M.04788,3.53543l1.6117,25.516s4.14717,4.03387,3.84575,2.87234c-4.8432-18.66365.914-26.27873.914-26.27873S1.9149,5.49819.04788,3.53543Z"/></g><ellipse class="b18abe94-74fd-454b-8341-6ac8a0484a53" cx="20.64874" cy="25.77436" rx="7.05206" ry="7.69037" transform="translate(-11.08199 34.93125) rotate(-67.39771)"/><g class="ff1e140f-2a8b-426a-902b-bc03ceb16979"><ellipse class="fa7985e4-9619-4da5-8432-6e50626224a4" cx="19.7816" cy="25.38354" rx="6.70121" ry="7.30777" transform="translate(-11.25506 33.8901) rotate(-67.39771)"/><polygon class="b18abe94-74fd-454b-8341-6ac8a0484a53" points="13.473 28.671 25.506 21.413 26.532 22.2 13.744 29.914 13.473 28.671"/></g><rect class="b40723b3-b9d2-44f2-8182-cd583fcc9ddb" x="5.9788" y="21.0623" width="8.35109" height="17.64372" rx="4.17554" transform="translate(-20.54622 37.20873) rotate(-84.65159)"/><path class="f1480c58-3577-41b2-a341-b43f0b0ed968" d="M9.94618,34.05847l4.445.41615a4.17554,4.17554,0,0,0,.77842-8.31473l-4.305-.403A13.14915,13.14915,0,0,1,9.94618,34.05847Z"/></g></g></svg>