<svg id="a9bee12e-fc1e-45be-bac4-8ad817778f8d" data-name="Layer 1" xmlns="http://www.w3.org/2000/svg" xmlns:xlink="http://www.w3.org/1999/xlink" viewBox="0 0 50.96064 47.84335"><defs><style>.aca474aa-f8e7-4c62-90fa-cac96b42e6b0,.b87fad1a-f3e9-4a5b-aae8-1d671b343356{fill:none;}.a4ed03c8-5c56-49e1-90d7-bd1d10c0473e{fill:#fff;}.b778eec0-3e83-4aa2-a402-c1c1997f2389{fill:#e6e7e8;}.e25775f5-f002-47bc-9e4b-bb347eeab772{fill:#00aed6;}.b34f5d3e-74c3-47a6-ac0c-a7a17e22fac8{clip-path:url(#f8420e56-1c97-4835-93c1-fa9146772224);}.aca474aa-f8e7-4c62-90fa-cac96b42e6b0{stroke:#037c99;stroke-miterlimit:10;stroke-width:0.63002px;}</style><clipPath id="f8420e56-1c97-4835-93c1-fa9146772224"><path class="b87fad1a-f3e9-4a5b-aae8-1d671b343356" d="M31.29464,10.65688l-23.19,23.19237a5.078,5.078,0,0,0,1.518,4.22865,4.63433,4.63433,0,0,0,4.23091,1.51965l23.19-23.19238Z"/></clipPath></defs><title>Artboard 27</title><ellipse class="a4ed03c8-5c56-49e1-90d7-bd1d10c0473e" cx="4.43624" cy="43.40729" rx="3.44608" ry="5.24162" transform="translate(-29.39567 15.85234) rotate(-45.00296)"/><path class="b778eec0-3e83-4aa2-a402-c1c1997f2389" d="M9.278,34.24609,1.64222,41.88261S1.38368,43.14,3.04379,44.8a4.18612,4.18612,0,0,0,2.77452,1.25831L13.454,38.42175A4.0077,4.0077,0,0,0,9.278,34.24609Z"/><ellipse class="a4ed03c8-5c56-49e1-90d7-bd1d10c0473e" cx="10.97878" cy="36.86408" rx="3.44608" ry="5.24162" transform="translate(-22.85217 18.56215) rotate(-45.00296)"/><path class="e25775f5-f002-47bc-9e4b-bb347eeab772" d="M31.29464,10.65688l-23.19,23.19237a5.078,5.078,0,0,0,1.518,4.22865,4.63433,4.63433,0,0,0,4.23091,1.51965l23.19-23.19238Z"/><ellipse class="a4ed03c8-5c56-49e1-90d7-bd1d10c0473e" cx="34.23927" cy="13.60119" rx="2.76617" ry="5.24162" transform="translate(0.41171 28.19626) rotate(-45.00296)"/><path class="b778eec0-3e83-4aa2-a402-c1c1997f2389" d="M37.27029,16.1784s2.07641-2.42213.7992-6.5c-3.99168-1.19043-6.18326,1.11654-6.18326,1.11654A5.65552,5.65552,0,0,0,37.27029,16.1784Z"/><polygon class="a4ed03c8-5c56-49e1-90d7-bd1d10c0473e" points="37.383 9.92 47.523 0.224 37.828 10.365 37.383 9.92"/><g class="b34f5d3e-74c3-47a6-ac0c-a7a17e22fac8"><path class="aca474aa-f8e7-4c62-90fa-cac96b42e6b0" d="M24.16611,16.44566a5.63525,5.63525,0,0,0,2.07841,4.13763"/><path class="aca474aa-f8e7-4c62-90fa-cac96b42e6b0" d="M21.60427,19.23349c-.08067.07217.0483,2.98376,1.881,4.16336"/><path class="aca474aa-f8e7-4c62-90fa-cac96b42e6b0" d="M18.92094,21.93892c-.08067.07217-.11429,2.87188,1.71836,4.05148"/><path class="aca474aa-f8e7-4c62-90fa-cac96b42e6b0" d="M16.336,24.47874c-.08067.07217-.34645,2.94346,1.48621,4.12306"/><path class="aca474aa-f8e7-4c62-90fa-cac96b42e6b0" d="M13.72831,27.01392A4.12562,4.12562,0,0,0,15.355,30.78981"/><path class="aca474aa-f8e7-4c62-90fa-cac96b42e6b0" d="M22.89811,18.31464a3.81739,3.81739,0,0,0,1.14267,2.57147"/><path class="aca474aa-f8e7-4c62-90fa-cac96b42e6b0" d="M20.09314,21.09715a3.81737,3.81737,0,0,0,1.14267,2.57147"/><path class="aca474aa-f8e7-4c62-90fa-cac96b42e6b0" d="M17.3326,23.25152a4.07975,4.07975,0,0,0,.93983,3.04087"/><path class="aca474aa-f8e7-4c62-90fa-cac96b42e6b0" d="M14.78858,25.8716a3.63485,3.63485,0,0,0,.97056,2.77165"/></g><path class="e25775f5-f002-47bc-9e4b-bb347eeab772" d="M47.45027.50187A3.085,3.085,0,0,1,49.55862.02959a1.74592,1.74592,0,0,1,1.23067.67082.95534.95534,0,0,1-.17072,1.28832,1.10258,1.10258,0,0,1-1.11367-.041,10.01063,10.01063,0,0,1-.94057-.6969A3.21043,3.21043,0,0,0,46.733.66617"/></svg>