<svg xmlns="http://www.w3.org/2000/svg" xmlns:xlink="http://www.w3.org/1999/xlink" viewBox="0 0 56.10508 54.33771"><defs><style>.a0925c9f-b88f-48d8-8711-5f84cbf66028,.bff390c9-c236-4c55-9384-08ce21a386be{fill:none;}.ac1956e6-e392-40f8-a009-d0ea53af777f{isolation:isolate;}.e4975356-de12-4139-b066-d83696678278{fill:#bcbec0;}.a2ad084f-82e2-4e28-a03b-04dda226f513{fill:#e6e7e8;}.a2066b48-a9e9-47a2-b309-0e6db1d268dc{fill:#939598;}.bf903b72-d4c4-4533-9985-da9f5b276200{clip-path:url(#ea7b8ed4-108b-4a04-b780-2e3bd6345483);}.acc45f2c-dc40-4b6f-995d-e774eeec933b,.bab762f6-88a0-43cd-8012-54f5d291295f,.bdc99058-60b3-44e1-b062-3dad61a2bfef{fill:#c3d7dc;}.acc45f2c-dc40-4b6f-995d-e774eeec933b{opacity:0.76;}.ffdea8dd-46fd-4413-a13e-87275e1410b4{fill:#e7f6fc;}.bab762f6-88a0-43cd-8012-54f5d291295f{mix-blend-mode:soft-light;}.b6a6818b-94df-432f-965f-604e6777edcd{clip-path:url(#a94d4e55-6f4b-4817-9cae-77fd3e7880ac);}.a1673652-5366-4fc8-ab58-05a466d93816{fill:#fff;}.b4bb0e6b-3a56-4862-b4b4-b3bbf29a0fb9{fill:#e86978;}.bc96f036-161a-4027-b2fc-575f94318d3a{fill:#00aed6;}.f1e83088-dda9-4e2a-a165-6d849cceb6e1{clip-path:url(#fc86743f-4571-474f-890f-9a7583bc98f1);}.bff390c9-c236-4c55-9384-08ce21a386be{stroke:#037c99;stroke-miterlimit:10;stroke-width:0.63002px;}</style><clipPath id="ea7b8ed4-108b-4a04-b780-2e3bd6345483"><path class="a0925c9f-b88f-48d8-8711-5f84cbf66028" d="M36.08662.00006c-4.81189,0-8.71277,1.32885-8.71277,2.968l1.62768,25.55664h.032c0,1.32715,3.15771,2.40284,7.0531,2.40284s7.05322-1.07569,7.05322-2.40284h.03186L44.79939,2.96807C44.79939,1.32891,40.89851.00006,36.08662.00006Z"/></clipPath><clipPath id="a94d4e55-6f4b-4817-9cae-77fd3e7880ac"><ellipse class="a0925c9f-b88f-48d8-8711-5f84cbf66028" cx="47.15545" cy="25.38354" rx="6.70121" ry="7.30777" transform="translate(5.59813 59.1615) rotate(-67.39771)"/></clipPath><clipPath id="fc86743f-4571-474f-890f-9a7583bc98f1"><path class="a0925c9f-b88f-48d8-8711-5f84cbf66028" d="M41.8,37.11686,14.17289,19.44192a5.078,5.078,0,0,0-3.80456,2.38976,4.6343,4.6343,0,0,0-.57667,4.45841L37.41878,43.965Z"/></clipPath></defs><title>Artboard 32</title><g class="ac1956e6-e392-40f8-a009-d0ea53af777f"><g id="b7eea47d-77a7-47d5-bc98-f26671065530" data-name="Layer 1"><polygon class="e4975356-de12-4139-b066-d83696678278" points="43.172 28.525 29.002 28.525 27.374 2.968 44.799 2.968 43.172 28.525"/><ellipse class="a2ad084f-82e2-4e28-a03b-04dda226f513" cx="36.08662" cy="2.96809" rx="8.71277" ry="2.96809"/><ellipse class="a2066b48-a9e9-47a2-b309-0e6db1d268dc" cx="36.08662" cy="28.52479" rx="7.05319" ry="2.40274"/><g class="bf903b72-d4c4-4533-9985-da9f5b276200"><polygon class="acc45f2c-dc40-4b6f-995d-e774eeec933b" points="27.996 13.636 44.273 13.916 44.273 33.456 27.374 35.035 24.597 27.136 27.996 13.636"/></g><ellipse class="ffdea8dd-46fd-4413-a13e-87275e1410b4" cx="36.08662" cy="14.18161" rx="7.74932" ry="2.63988"/><ellipse class="bdc99058-60b3-44e1-b062-3dad61a2bfef" cx="35.8042" cy="13.91596" rx="7.2573" ry="2.47227"/><ellipse class="e4975356-de12-4139-b066-d83696678278" cx="36.08662" cy="2.96809" rx="8.18617" ry="2.7887"/><g class="bf903b72-d4c4-4533-9985-da9f5b276200"><path class="bab762f6-88a0-43cd-8012-54f5d291295f" d="M27.42173,3.53543l1.6117,25.516s4.14716,4.03387,3.84575,2.87234c-4.8432-18.66365.914-26.27873.914-26.27873S29.28875,5.49819,27.42173,3.53543Z"/></g><ellipse class="e4975356-de12-4139-b066-d83696678278" cx="48.02259" cy="25.77436" rx="7.05206" ry="7.69037" transform="translate(5.7712 60.20265) rotate(-67.39771)"/><g class="b6a6818b-94df-432f-965f-604e6777edcd"><ellipse class="a1673652-5366-4fc8-ab58-05a466d93816" cx="47.15545" cy="25.38354" rx="6.70121" ry="7.30777" transform="translate(5.59813 59.1615) rotate(-67.39771)"/><polygon class="e4975356-de12-4139-b066-d83696678278" points="40.847 28.671 52.88 21.413 53.906 22.2 41.117 29.914 40.847 28.671"/></g><rect class="a2ad084f-82e2-4e28-a03b-04dda226f513" x="33.35265" y="21.0623" width="8.35109" height="17.64372" rx="4.17554" transform="translate(4.27606 64.4634) rotate(-84.65158)"/><path class="b4bb0e6b-3a56-4862-b4b4-b3bbf29a0fb9" d="M37.32,34.05847l4.445.41615a4.17554,4.17554,0,1,0,.77842-8.31473l-4.305-.403A13.14922,13.14922,0,0,1,37.32,34.05847Z"/><ellipse class="a1673652-5366-4fc8-ab58-05a466d93816" cx="4.05042" cy="17.90927" rx="5.24162" ry="3.44608" transform="translate(-13.21847 11.66962) rotate(-57.3902)"/><path class="a2ad084f-82e2-4e28-a03b-04dda226f513" d="M14.037,20.673,4.94024,14.85323s-1.2836.01722-2.54877,1.99476a4.18611,4.18611,0,0,0-.63383,2.97986l9.09674,5.8198A4.0077,4.0077,0,0,0,14.037,20.673Z"/><ellipse class="a1673652-5366-4fc8-ab58-05a466d93816" cx="11.8448" cy="22.89587" rx="5.24162" ry="3.44608" transform="translate(-13.8251 20.53454) rotate(-57.3902)"/><path class="bc96f036-161a-4027-b2fc-575f94318d3a" d="M41.8,37.11686,14.17289,19.44192a5.078,5.078,0,0,0-3.80456,2.38976,4.6343,4.6343,0,0,0-.57667,4.45841L37.41878,43.965Z"/><ellipse class="a1673652-5366-4fc8-ab58-05a466d93816" cx="39.55592" cy="40.62455" rx="5.24162" ry="2.76617" transform="translate(-15.98185 52.05171) rotate(-57.3902)"/><path class="a2ad084f-82e2-4e28-a03b-04dda226f513" d="M37.68892,44.13786s2.81117,1.50848,6.52017-.61378c.30643-4.15413-2.417-5.7998-2.417-5.7998A5.65551,5.65551,0,0,0,37.68892,44.13786Z"/><polygon class="a1673652-5366-4fc8-ab58-05a466d93816" points="43.826 42.905 55.471 50.729 43.487 43.436 43.826 42.905"/><g class="f1e83088-dda9-4e2a-a165-6d849cceb6e1"><path class="bff390c9-c236-4c55-9384-08ce21a386be" d="M34.6168,31.39608a5.63528,5.63528,0,0,0-3.59545,2.91762"/><path class="bff390c9-c236-4c55-9384-08ce21a386be" d="M31.34431,29.49192c-.08779-.06331-2.90394.68725-3.66294,2.73028"/><path class="bff390c9-c236-4c55-9384-08ce21a386be" d="M28.12624,27.45142c-.08779-.06331-2.82954.50444-3.58854,2.54747"/><path class="bff390c9-c236-4c55-9384-08ce21a386be" d="M25.091,25.47149c-.08779-.06331-2.94926.29305-3.70826,2.33608"/><path class="bff390c9-c236-4c55-9384-08ce21a386be" d="M22.05548,23.46835a4.12563,4.12563,0,0,0-3.339,2.39884"/><path class="bff390c9-c236-4c55-9384-08ce21a386be" d="M32.51933,30.55853a3.81738,3.81738,0,0,0-2.26649,1.6677"/><path class="bff390c9-c236-4c55-9384-08ce21a386be" d="M29.19987,28.41576a3.81733,3.81733,0,0,0-2.26648,1.66769"/><path class="bff390c9-c236-4c55-9384-08ce21a386be" d="M26.50347,26.18163A4.07978,4.07978,0,0,0,23.735,27.7519"/><path class="bff390c9-c236-4c55-9384-08ce21a386be" d="M23.39864,24.2589a3.63484,3.63484,0,0,0-2.49892,1.54252"/></g><path class="bc96f036-161a-4027-b2fc-575f94318d3a" d="M55.18429,50.718a3.08512,3.08512,0,0,1,.91357,1.958,1.74594,1.74594,0,0,1-.39121,1.34593.95535.95535,0,0,1-1.29495.10962,1.10259,1.10259,0,0,1-.19884-1.09655,10.01228,10.01228,0,0,1,.4789-1.06817,3.21043,3.21043,0,0,0,.17818-1.91416"/></g></g></svg>