<?xml version="1.0" encoding="utf-8"?>
<!-- Generator: Adobe Illustrator 19.1.0, SVG Export Plug-In . SVG Version: 6.00 Build 0)  -->
<svg version="1.1" id="Layer_1" xmlns="http://www.w3.org/2000/svg" xmlns:xlink="http://www.w3.org/1999/xlink" x="0px" y="0px"
	 viewBox="0 0 31.2 29.4" enable-background="new 0 0 31.2 29.4" xml:space="preserve">
<g>
	<path fill="none" stroke="#4E7582" stroke-width="1.6655" stroke-linejoin="round" stroke-miterlimit="10" d="M15.6,10.4
		c0,0-4.4-6.2-14.8-4.5v20.6c0,0,10.1-2.2,14.8,2.1c4.7-4.3,14.8-2.1,14.8-2.1V6C20,4.2,15.6,10.4,15.6,10.4z"/>
	<g>
		<path fill="#FFFFFF" d="M11.6,17.3c-0.1,0-0.3,0-0.4-0.1c-0.3-0.1-0.4-0.4-0.4-0.7V1.7c0-0.3,0.2-0.6,0.4-0.7
			c0.1-0.1,0.3-0.1,0.4-0.1c0.2,0,0.3,0,0.5,0.1l10.9,7.4c0.2,0.2,0.4,0.4,0.4,0.7s-0.1,0.5-0.4,0.7L12,17.2
			C11.9,17.3,11.7,17.3,11.6,17.3z"/>
		<path fill="#4E7582" d="M11.6,1.7l10.9,7.4l-10.9,7.4V1.7 M11.6,0c-0.3,0-0.5,0.1-0.8,0.2C10.2,0.5,9.9,1,9.9,1.7v14.8
			c0,0.6,0.3,1.2,0.9,1.5c0.2,0.1,0.5,0.2,0.8,0.2c0.3,0,0.7-0.1,0.9-0.3l10.9-7.4c0.5-0.3,0.7-0.8,0.7-1.4S23.8,8,23.4,7.7
			L12.5,0.3C12.2,0.1,11.9,0,11.6,0L11.6,0z"/>
	</g>
</g>
</svg>
