<?xml version="1.0" encoding="utf-8"?>
<!-- Generator: Adobe Illustrator 19.1.0, SVG Export Plug-In . SVG Version: 6.00 Build 0)  -->
<svg version="1.1" id="Layer_1" xmlns="http://www.w3.org/2000/svg" xmlns:xlink="http://www.w3.org/1999/xlink" x="0px" y="0px"
	 viewBox="0 0 33.5 31.6" enable-background="new 0 0 33.5 31.6" xml:space="preserve">
<g>
	<g>
		<path fill="none" stroke="#4E7582" stroke-width="1.788" stroke-linejoin="round" stroke-miterlimit="10" d="M16.7,11.2
			c0,0-4.7-6.7-15.8-4.8v22.1c0,0,10.8-2.3,15.8,2.2c5-4.6,15.8-2.2,15.8-2.2V6.4C21.4,4.5,16.7,11.2,16.7,11.2z"/>
		<g>
			<path fill="#4E7582" d="M12.4,18.6c-0.1,0-0.3,0-0.4-0.1c-0.3-0.2-0.5-0.5-0.5-0.8V1.8c0-0.3,0.2-0.6,0.5-0.8
				c0.1-0.1,0.3-0.1,0.4-0.1c0.2,0,0.4,0.1,0.5,0.2l11.7,8C24.8,9.2,25,9.5,25,9.8s-0.1,0.6-0.4,0.7l-11.7,8
				C12.8,18.6,12.6,18.6,12.4,18.6z"/>
			<path fill="#4E7582" d="M12.4,1.8l11.7,8l-11.7,8V1.8 M12.4,0c-0.3,0-0.6,0.1-0.8,0.2c-0.6,0.3-1,0.9-1,1.6v15.9
				c0,0.7,0.4,1.3,1,1.6c0.3,0.1,0.5,0.2,0.8,0.2c0.4,0,0.7-0.1,1-0.3l11.7-8c0.5-0.3,0.8-0.9,0.8-1.5s-0.3-1.1-0.8-1.5l-11.7-8
				C13.1,0.1,12.8,0,12.4,0L12.4,0z"/>
		</g>
	</g>
	<g>
		
			<line fill="none" stroke="#4E7582" stroke-width="1.788" stroke-linejoin="round" stroke-miterlimit="10" x1="1.4" y1="16.7" x2="11" y2="7.1"/>
		
			<line fill="none" stroke="#4E7582" stroke-width="1.788" stroke-linejoin="round" stroke-miterlimit="10" x1="0.9" y1="26.2" x2="19" y2="8"/>
		
			<line fill="none" stroke="#4E7582" stroke-width="1.788" stroke-linejoin="round" stroke-miterlimit="10" x1="9.2" y1="27.5" x2="30.9" y2="5.8"/>
		
			<line fill="none" stroke="#4E7582" stroke-width="1.788" stroke-linejoin="round" stroke-miterlimit="10" x1="15.5" y1="29.8" x2="32.7" y2="12.5"/>
		
			<line fill="none" stroke="#4E7582" stroke-width="1.788" stroke-linejoin="round" stroke-miterlimit="10" x1="25.3" y1="27.5" x2="32.6" y2="20.3"/>
		
			<line fill="none" stroke="#4E7582" stroke-width="1.788" stroke-linejoin="round" stroke-miterlimit="10" x1="16.5" y1="30" x2="16.5" y2="6.9"/>
	</g>
</g>
</svg>
