<?xml version="1.0" encoding="utf-8"?>
<!-- Generator: Adobe Illustrator 19.1.0, SVG Export Plug-In . SVG Version: 6.00 Build 0)  -->
<svg version="1.1" id="Layer_1" xmlns="http://www.w3.org/2000/svg" xmlns:xlink="http://www.w3.org/1999/xlink" x="0px" y="0px"
	 viewBox="0 0 34.6 29.7" enable-background="new 0 0 34.6 29.7" xml:space="preserve">
<g>
	<g>
		<g>
			<path fill="none" stroke="#4E7582" stroke-width="2.2351" stroke-miterlimit="10" d="M34,2.1c0,0-0.7-0.3-1.8-0.5"/>
			<path fill="none" stroke="#4E7582" stroke-width="2.2351" stroke-miterlimit="10" stroke-dasharray="3.7002,0.9251" d="M31.3,1.4
				c-3.8-0.7-10.6-0.8-13.1,6.8c-3.1,9.3-7.3,6.6-12.5,7.8c-1.5,0.3-2.6,1.1-3.3,1.9"/>
			<path fill="none" stroke="#4E7582" stroke-width="2.2351" stroke-miterlimit="10" d="M2.1,18.2c-0.7,0.8-1,1.5-1,1.5"/>
		</g>
	</g>
	<g>
		<g>
			<path fill="none" stroke="#4E7582" stroke-width="2.2351" stroke-miterlimit="10" d="M1,29.2c0,0,0.3-0.7,1.1-1.5"/>
			<path fill="none" stroke="#4E7582" stroke-width="2.2351" stroke-miterlimit="10" stroke-dasharray="3.7721,0.943" d="M2.8,27.1
				c1.7-1.4,5-2.9,10.8-2.4c10.3,0.8,10.6-12,14.4-14.5c1.5-1,2.8-1.2,3.8-1.1"/>
			<path fill="none" stroke="#4E7582" stroke-width="2.2351" stroke-miterlimit="10" d="M32.3,9.2C33.3,9.4,34,9.8,34,9.8"/>
		</g>
	</g>
	<g>
		<path fill="#4E7582" d="M12.3,20.6c-0.1,0-0.3,0-0.4-0.1c-0.3-0.2-0.5-0.5-0.5-0.8V5.5c0-0.3,0.2-0.6,0.5-0.8
			c0.1-0.1,0.3-0.1,0.4-0.1c0.2,0,0.4,0.1,0.5,0.2l10.5,7.1c0.2,0.2,0.4,0.4,0.4,0.7s-0.1,0.6-0.4,0.7l-10.5,7.1
			C12.6,20.6,12.5,20.6,12.3,20.6z"/>
		<path fill="#4E7582" d="M12.3,5.5l10.5,7.1l-10.5,7.1V5.5 M12.3,3.7c-0.3,0-0.6,0.1-0.8,0.2c-0.6,0.3-1,0.9-1,1.6v14.3
			c0,0.7,0.4,1.3,1,1.6c0.3,0.1,0.5,0.2,0.8,0.2c0.4,0,0.7-0.1,1-0.3l10.5-7.1c0.5-0.3,0.8-0.9,0.8-1.5s-0.3-1.1-0.8-1.5L13.3,4
			C13,3.8,12.6,3.7,12.3,3.7L12.3,3.7z"/>
	</g>
</g>
</svg>
