<?xml version="1.0" encoding="utf-8"?>
<!-- Generator: Adobe Illustrator 19.1.0, SVG Export Plug-In . SVG Version: 6.00 Build 0)  -->
<svg version="1.1" id="Layer_1" xmlns="http://www.w3.org/2000/svg" xmlns:xlink="http://www.w3.org/1999/xlink" x="0px" y="0px"
	 viewBox="0 0 32.3 27.6" enable-background="new 0 0 32.3 27.6" xml:space="preserve">
<g>
	<g>
		<g>
			<path fill="none" stroke="#4E7582" stroke-width="2.0819" stroke-miterlimit="10" d="M31.7,2c0,0-0.6-0.2-1.7-0.5"/>
			<path fill="none" stroke="#4E7582" stroke-width="2.0819" stroke-miterlimit="10" stroke-dasharray="3.4464,0.8616" d="M29.2,1.3
				C25.6,0.7,19.3,0.6,17,7.6c-2.9,8.7-6.8,6.2-11.7,7.2c-1.4,0.3-2.4,1-3.1,1.8"/>
			<path fill="none" stroke="#4E7582" stroke-width="2.0819" stroke-miterlimit="10" d="M1.9,17c-0.7,0.8-1,1.4-1,1.4"/>
		</g>
	</g>
	<g>
		<g>
			<path fill="none" stroke="#4E7582" stroke-width="2.0819" stroke-miterlimit="10" d="M1,27.2c0,0,0.3-0.6,1-1.4"/>
			<path fill="none" stroke="#4E7582" stroke-width="2.0819" stroke-miterlimit="10" stroke-dasharray="3.5134,0.8784" d="M2.6,25.3
				c1.6-1.3,4.6-2.7,10-2.3c9.6,0.7,9.9-11.2,13.4-13.5c1.4-0.9,2.6-1.1,3.6-1"/>
			<path fill="none" stroke="#4E7582" stroke-width="2.0819" stroke-miterlimit="10" d="M30.1,8.5c1,0.2,1.6,0.6,1.6,0.6"/>
		</g>
	</g>
	<g>
		<path fill="#FFFFFF" d="M11.4,19.2c-0.1,0-0.3,0-0.4-0.1c-0.3-0.1-0.4-0.4-0.4-0.7V5.1c0-0.3,0.2-0.6,0.4-0.7
			c0.1-0.1,0.3-0.1,0.4-0.1c0.2,0,0.3,0,0.5,0.1l9.8,6.7c0.2,0.2,0.4,0.4,0.4,0.7s-0.1,0.5-0.4,0.7l-9.8,6.7
			C11.8,19.2,11.6,19.2,11.4,19.2z"/>
		<path fill="#4E7582" d="M11.4,5.1l9.8,6.7l-9.8,6.7V5.1 M11.4,3.4c-0.3,0-0.5,0.1-0.8,0.2c-0.5,0.3-0.9,0.9-0.9,1.5v13.3
			c0,0.6,0.3,1.2,0.9,1.5c0.2,0.1,0.5,0.2,0.8,0.2c0.3,0,0.7-0.1,0.9-0.3l9.8-6.7c0.5-0.3,0.7-0.8,0.7-1.4c0-0.6-0.3-1.1-0.7-1.4
			l-9.8-6.7C12.1,3.5,11.8,3.4,11.4,3.4L11.4,3.4z"/>
	</g>
</g>
</svg>
