<?xml version="1.0" encoding="utf-8"?>
<!-- Generator: Adobe Illustrator 19.1.0, SVG Export Plug-In . SVG Version: 6.00 Build 0)  -->
<svg version="1.1" xmlns="http://www.w3.org/2000/svg" xmlns:xlink="http://www.w3.org/1999/xlink" x="0px" y="0px"
	 viewBox="0 0 128.6 128.6" style="enable-background:new 0 0 128.6 128.6;" xml:space="preserve">
<style type="text/css">
	.st0{opacity:0.65;fill:#C3D7DC;}
	.st1{fill:#C3D7DC;}
	.st2{opacity:0.4;}
	.st3{fill:#FFFFFF;}
	.st4{fill:none;stroke:#FFFFFF;stroke-width:10;stroke-miterlimit:10;}
	.st5{fill:none;}
	.st6{opacity:0.65;}
	.st7{fill:none;stroke:#FFFFFF;stroke-width:2;stroke-miterlimit:10;}
	.st8{fill:#FFFFFF;stroke:#FFFFFF;stroke-width:2;stroke-miterlimit:10;}
	.st9{fill:#FFFFFF;stroke:#FFFFFF;stroke-miterlimit:10;}
	.st10{fill:none;stroke:#FFFFFF;stroke-width:1.9932;stroke-linecap:round;stroke-linejoin:round;stroke-miterlimit:10;}
	.st11{fill:none;stroke:#C3D7DC;stroke-miterlimit:10;}
</style>
<g id="Layer_1">
</g>
<g id="Layer_2">
</g>
<g id="Layer_3">
</g>
<g id="Layer_4">
</g>
<g id="Layer_5">
</g>
<g id="Layer_6">
</g>
<g id="Layer_7">
	<g id="XMLID_309_">
		<g id="XMLID_310_">
			<polygon id="XMLID_312_" class="st0" points="112.9,115.9 100.3,128.2 0,128.2 0,-0.1 128.2,-0.1 128.2,100.9 			"/>
			<path id="XMLID_311_" class="st1" d="M100.3,129.7c0,0,27.9-27.4,27.9-27.3c0,0.2-27.8-2-34.1-5.1
				C94.2,97.3,101.4,121.6,100.3,129.7z"/>
		</g>
	</g>
	<g id="XMLID_14_" class="st2">
		<g id="XMLID_182_">
			<path id="XMLID_146_" class="st3" d="M45,86.7L45,86.7c-3.3,0-6.1-2.7-6.1-6.1V49c0-3.3,2.7-6.1,6.1-6.1h0c3.3,0,6.1,2.7,6.1,6.1
				v31.6C51.1,84,48.3,86.7,45,86.7z"/>
			<path id="XMLID_148_" class="st3" d="M48.6,40.1h-7.2c-2.2,0-4,1.8-4,4v0c0,2.2,1.8,4,4,4h7.2c2.2,0,4-1.8,4-4v0
				C52.6,41.9,50.8,40.1,48.6,40.1z"/>
		</g>
		<g id="XMLID_132_">
			<path id="XMLID_149_" class="st3" d="M83.3,86.5L83.3,86.5c-3.3,0-6.1-2.7-6.1-6.1V48.8c0-3.3,2.7-6.1,6.1-6.1h0
				c3.3,0,6.1,2.7,6.1,6.1v31.6C89.4,83.8,86.7,86.5,83.3,86.5z"/>
			<path id="XMLID_151_" class="st3" d="M87.1,40.3h-7.4c-2.1,0-3.8,1.7-3.8,3.8v0c0,2.1,1.7,3.8,3.8,3.8h7.4c2.1,0,3.8-1.7,3.8-3.8
				v0C90.9,42,89.2,40.3,87.1,40.3z"/>
		</g>
		<g id="XMLID_180_">
			<path id="XMLID_150_" class="st3" d="M67.7,40.2h-7.1c-2.1,0-3.9,1.8-3.9,3.9v0c0,2.1,1.8,3.9,3.9,3.9h7.1c2.1,0,3.9-1.8,3.9-3.9
				v0C71.6,41.9,69.9,40.2,67.7,40.2z"/>
			<path id="XMLID_1561_" class="st3" d="M68.4,45.8H60c-1,0-1.9,0.8-1.9,1.9v40c0,1,0.8,1.9,1.9,1.9h8.4c1,0,1.9-0.8,1.9-1.9v-40
				C70.2,46.6,69.4,45.8,68.4,45.8z M67.7,67.1h-2.6v2.5h-1.9v-2.5h-2.9v-1.9h2.9v-3h1.9v3h2.6V67.1z"/>
		</g>
	</g>
</g>
<g id="Layer_8">
</g>
<g id="Layer_9">
</g>
<g id="Layer_10">
</g>
<g id="Layer_11">
</g>
<g id="Layer_12">
</g>
<g id="Layer_13">
</g>
<g id="Layer_14">
</g>
</svg>
