<?xml version="1.0" encoding="utf-8"?>
<!-- Generator: Adobe Illustrator 19.1.0, SVG Export Plug-In . SVG Version: 6.00 Build 0)  -->
<svg version="1.1" xmlns="http://www.w3.org/2000/svg" xmlns:xlink="http://www.w3.org/1999/xlink" x="0px" y="0px"
	 viewBox="0 0 128.6 128.6" style="enable-background:new 0 0 128.6 128.6;" xml:space="preserve">
<style type="text/css">
	.st0{opacity:0.65;fill:#C3D7DC;}
	.st1{fill:#C3D7DC;}
	.st2{opacity:0.4;}
	.st3{fill:#FFFFFF;}
	.st4{fill:none;stroke:#FFFFFF;stroke-width:10;stroke-miterlimit:10;}
	.st5{fill:none;}
	.st6{opacity:0.65;}
	.st7{fill:none;stroke:#FFFFFF;stroke-width:2;stroke-miterlimit:10;}
	.st8{fill:#FFFFFF;stroke:#FFFFFF;stroke-width:2;stroke-miterlimit:10;}
	.st9{fill:#FFFFFF;stroke:#FFFFFF;stroke-miterlimit:10;}
	.st10{fill:none;stroke:#FFFFFF;stroke-width:1.9932;stroke-linecap:round;stroke-linejoin:round;stroke-miterlimit:10;}
	.st11{fill:none;stroke:#C3D7DC;stroke-miterlimit:10;}
</style>
<g id="Layer_1">
</g>
<g id="Layer_2">
</g>
<g id="Layer_3">
</g>
<g id="Layer_4">
	<g id="XMLID_258_">
		<g id="XMLID_259_">
			<polygon id="XMLID_261_" class="st0" points="112.9,116 100.3,128.2 0,128.2 0,0 128.2,0 128.2,100.9 			"/>
			<path id="XMLID_260_" class="st1" d="M100.3,129.8c0,0,27.9-27.4,27.9-27.3s-27.8-2-34.1-5.1C94.2,97.4,101.4,121.6,100.3,129.8z
				"/>
		</g>
	</g>
	<g id="XMLID_603_" class="st2">
		<g id="לב">
			<path id="XMLID_614_" class="st5" d="M97.2,39.2c-7.4-11.9-21.4-12.1-29-0.3c-1.1,1.8-2,3.7-3.5,6.3c-1.4-2.5-2.3-4.1-3.3-5.7
				c-8.1-12.8-22-12.5-29.7,0.6c-3.9,6.6-5.1,14.3-3.5,21.2l72.9-0.3C102.7,53.8,101.4,46,97.2,39.2z"/>
			<path id="XMLID_613_" class="st3" d="M31.6,40.1c7.7-13.1,21.6-13.4,29.7-0.6c1,1.5,1.8,3.2,3.3,5.7c1.4-2.6,2.3-4.5,3.5-6.3
				c7.6-11.8,21.7-11.6,29,0.3c4.2,6.7,5.5,14.6,3.9,21.8l2.9,0c0.5-3.4,0.5-7,0-10.8c-1.4-10.1-5.4-18.8-15.3-22.4
				c-10-3.6-18,1.1-24,9.9c-12.6-16.8-29-12.3-36,0.9c-3.8,7.1-5.1,15.2-3.6,22.7l3,0C26.5,54.3,27.8,46.7,31.6,40.1z"/>
			<path id="XMLID_612_" d="M33.5,76.8c0.3,0.3,0.7,0.6,1,0.9l-3.9-4.1C31.5,74.7,32.4,75.8,33.5,76.8z"/>
			<path id="XMLID_611_" class="st3" d="M35.2,73.7c8,7.6,17.1,14,26.1,20.5c1.5,1.1,5.2,1,6.8-0.2c8.6-6.1,17.3-12.1,25-19.3
				c4.2-3.9,6.8-8.7,7.9-13.8l-72.9,0.3C29.2,65.9,31.5,70.3,35.2,73.7z"/>
			<path id="XMLID_610_" class="st3" d="M67.9,98.3c8.7-6,17.4-12.1,25.5-18.9c6.1-5.1,9.5-11.3,10.6-18.4l-2.9,0
				c-1.1,5.1-3.8,9.9-7.9,13.8c-7.7,7.1-16.4,13.2-25,19.3c-1.6,1.1-5.3,1.3-6.8,0.2c-8.9-6.5-18.1-12.9-26.1-20.5
				c-3.6-3.5-6-7.8-7-12.4l-3,0c0.9,4.5,2.7,8.7,5.5,12.3l3.9,4.1c8.4,7.7,18,14.1,27.2,20.8C63.1,99.5,66.4,99.3,67.9,98.3z"/>
		</g>
		<path id="נים" class="st3" d="M121.9,40.4l6.7,0.5l-0.1-2.2c0,0-7.3-1.7-8.7,0c-1.1,1.3,1.2,5.5,0,6.7
			c-3.3,3.4-18.8,0.7-18.8,0.7l0.7,3.3c0,0,16.6-0.4,20.6-0.6"/>
		<g id="כדוריות_דם_2_">
			<g id="XMLID_780_" class="st6">
				
					<ellipse id="XMLID_648_" transform="matrix(0.892 0.452 -0.452 0.892 36.8087 -12.6347)" class="st1" cx="44.8" cy="70.7" rx="2.4" ry="1.8"/>
			</g>
			<g id="XMLID_777_">
				<path id="XMLID_628_" class="st3" d="M43.4,69.8c0,0,0.1,0.2,0.3,0.6c0.1,0.2,0.2,0.3,0.3,0.5c0.1,0.2,0.3,0.3,0.5,0.4
					c0.2,0.1,0.4,0.2,0.6,0.2c0.2,0,0.4,0.1,0.6,0c0.2,0,0.3,0,0.4,0c0.1,0,0.2,0,0.2,0s0,0-0.1,0.1c-0.1,0-0.2,0.2-0.4,0.2
					c-0.2,0.1-0.4,0.1-0.7,0.1c-0.1,0-0.3,0-0.4-0.1c-0.1,0-0.3-0.1-0.4-0.2c-0.2-0.2-0.4-0.4-0.6-0.6c-0.1-0.2-0.2-0.5-0.2-0.6
					C43.4,70.1,43.4,69.8,43.4,69.8z"/>
			</g>
		</g>
		<g id="כדוריות_דם_5_">
			<g id="XMLID_787_" class="st6">
				
					<ellipse id="XMLID_646_" transform="matrix(0.4871 0.8734 -0.8734 0.4871 90.311 -17.4944)" class="st1" cx="60" cy="68.1" rx="1.3" ry="1"/>
			</g>
			<g id="XMLID_784_">
				<path id="XMLID_634_" class="st3" d="M59.7,67.3c0,0,0,0.2,0,0.4c0,0.2,0.1,0.4,0.1,0.6c0.1,0.3,0.7,0.7,0.6,0.7
					c0,0-0.1,0.1-0.4,0c-0.2,0-0.6-0.2-0.7-0.5c-0.2-0.3-0.1-0.7,0.1-0.9C59.5,67.4,59.7,67.3,59.7,67.3z"/>
			</g>
		</g>
		<g id="כדוריות_דם_8_">
			
				<ellipse id="XMLID_799_" transform="matrix(0.892 0.452 -0.452 0.892 39.8662 -28.9614)" class="st1" cx="80.5" cy="69" rx="1.1" ry="0.8"/>
			<g id="XMLID_796_">
				<path id="XMLID_632_" class="st3" d="M79.9,68.5c0,0,0,0.1,0.1,0.3c0.1,0.2,0.2,0.4,0.4,0.5c0.2,0.1,0.4,0.1,0.6,0.1
					c0.2,0,0.3-0.1,0.3-0.1c0,0-0.1,0.1-0.3,0.1c-0.2,0.1-0.4,0.1-0.6-0.1c-0.2-0.1-0.3-0.4-0.4-0.5C79.9,68.7,79.9,68.5,79.9,68.5z
					"/>
			</g>
		</g>
		<g id="כדוריות_דם_6_">
			
				<ellipse id="XMLID_791_" transform="matrix(0.892 0.452 -0.452 0.892 41.6524 -14.7203)" class="st0" cx="51.6" cy="79.8" rx="4.7" ry="3.5"/>
			<g id="XMLID_788_">
				<path id="XMLID_630_" class="st3" d="M48.9,78.1c0,0,0.2,0.5,0.6,1.1c0.1,0.1,0.2,0.3,0.3,0.5c0.1,0.2,0.2,0.3,0.4,0.5
					c0.1,0.2,0.3,0.3,0.4,0.5c0.2,0.1,0.3,0.3,0.5,0.4c0.2,0.1,0.4,0.2,0.5,0.3c0.2,0.1,0.4,0.1,0.6,0.2c0.2,0,0.4,0,0.6,0.1
					c0.2,0,0.4,0,0.6,0c0.4,0,0.6-0.1,0.9-0.1c0.2,0,0.4,0,0.4,0s-0.1,0.1-0.3,0.2c-0.2,0.1-0.4,0.3-0.8,0.4
					c-0.2,0.1-0.4,0.2-0.6,0.2c-0.2,0-0.5,0.1-0.7,0.1c-0.3,0-0.5,0-0.8-0.1c-0.3-0.1-0.5-0.2-0.8-0.3c-0.3-0.1-0.4-0.3-0.6-0.5
					c-0.2-0.2-0.3-0.4-0.5-0.6c-0.3-0.4-0.4-0.9-0.5-1.3C48.8,78.6,48.9,78.1,48.9,78.1z"/>
			</g>
		</g>
		<g id="כדוריות_דם_7_">
			<g id="XMLID_795_" class="st6">
				
					<ellipse id="XMLID_644_" transform="matrix(0.6489 -0.7608 0.7608 0.6489 -35.2206 87.6359)" class="st1" cx="77.4" cy="82" rx="2.4" ry="1.8"/>
			</g>
			<g id="XMLID_792_">
				<path id="XMLID_627_" class="st3" d="M76.2,83.2c0,0,0.3-0.1,0.6-0.2c0.2-0.1,0.4-0.1,0.6-0.2c0.2-0.1,0.4-0.2,0.5-0.4
					c0.2-0.1,0.3-0.3,0.4-0.5c0.1-0.2,0.1-0.4,0.2-0.6c0-0.2,0.1-0.3,0.1-0.4c0-0.1,0-0.2,0-0.2s0,0.1,0.1,0.2
					c0,0.1,0.1,0.3,0.1,0.5c0,0.2,0,0.4,0,0.7c-0.1,0.1-0.1,0.3-0.2,0.4c-0.1,0.1-0.2,0.2-0.3,0.3c-0.2,0.2-0.5,0.3-0.7,0.4
					c-0.2,0.1-0.5,0.1-0.7,0.1C76.4,83.3,76.2,83.2,76.2,83.2z"/>
			</g>
		</g>
		<g id="כדוריות_דם_3_">
			<g id="XMLID_609_" class="st6">
				
					<ellipse id="XMLID_645_" transform="matrix(-0.9742 0.2259 -0.2259 -0.9742 153.8659 157.4923)" class="st1" cx="67.9" cy="87.5" rx="2.4" ry="1.8"/>
			</g>
			<g id="XMLID_608_">
				<path id="XMLID_620_" class="st3" d="M69.6,87.3c0,0-0.2-0.1-0.6-0.2c-0.2-0.1-0.4-0.1-0.6-0.2c-0.2,0-0.4-0.1-0.6,0
					c-0.2,0-0.4,0.1-0.6,0.2c-0.2,0.1-0.3,0.2-0.5,0.4c-0.1,0.1-0.2,0.2-0.3,0.3c-0.1,0.1-0.1,0.1-0.1,0.1s0-0.1,0-0.2
					c0-0.1,0.1-0.3,0.2-0.4c0.1-0.2,0.2-0.4,0.4-0.5c0.1-0.1,0.2-0.2,0.4-0.2c0.1-0.1,0.3-0.1,0.4-0.1c0.3,0,0.6,0,0.8,0.1
					c0.2,0.1,0.4,0.2,0.6,0.3C69.4,87.1,69.6,87.3,69.6,87.3z"/>
			</g>
		</g>
		<g id="כדוריות_דם_4_">
			<g id="XMLID_783_">
				
					<ellipse id="XMLID_636_" transform="matrix(0.892 0.452 -0.452 0.892 42.1704 -31.0051)" class="st1" cx="86" cy="72.8" rx="3.2" ry="2.4"/>
			</g>
			<g id="XMLID_776_">
				<path id="XMLID_623_" class="st3" d="M84,71.6c0,0,0.1,0.3,0.4,0.8c0.1,0.2,0.3,0.5,0.4,0.7c0.2,0.2,0.4,0.5,0.7,0.6
					c0.1,0.1,0.3,0.1,0.4,0.2c0.1,0.1,0.3,0.1,0.4,0.1c0.3,0,0.6,0.1,0.8,0c0.2,0,0.5-0.1,0.6-0.1c0.1,0,0.2,0,0.2,0s-0.1,0-0.2,0.1
					c-0.1,0.1-0.3,0.2-0.6,0.3c-0.2,0.1-0.6,0.2-0.9,0.1c-0.2,0-0.4,0-0.5-0.1c-0.2-0.1-0.4-0.1-0.5-0.2c-0.3-0.2-0.6-0.5-0.7-0.8
					c-0.2-0.3-0.3-0.6-0.3-0.8C84,71.9,84,71.6,84,71.6z"/>
			</g>
		</g>
		<g id="כדוריות_דם_1_">
			<g id="XMLID_606_" class="st6">
				
					<ellipse id="XMLID_647_" transform="matrix(0.8926 -0.4508 0.4508 0.8926 -26.4634 37.6542)" class="st1" cx="65.8" cy="74.4" rx="7.3" ry="5.4"/>
			</g>
			<g id="XMLID_602_">
				<path id="XMLID_624_" class="st3" d="M61.1,76.3c0,0,0.8,0.2,1.8,0.4c0.3,0,0.6,0.1,0.9,0.1c0.3,0,0.6,0,1,0
					c0.3,0,0.7-0.1,1-0.1c0.3-0.1,0.7-0.1,1-0.3c0.3-0.1,0.6-0.3,0.9-0.5c0.3-0.2,0.5-0.4,0.8-0.6c0.2-0.2,0.4-0.5,0.6-0.7
					c0.2-0.2,0.3-0.5,0.5-0.7c0.1-0.2,0.3-0.5,0.4-0.7c0.1-0.2,0.2-0.4,0.3-0.5c0.2-0.3,0.2-0.5,0.2-0.5s0,0.2-0.1,0.5
					c0,0.2-0.1,0.4-0.1,0.6c0,0.2-0.1,0.5-0.2,0.8c-0.1,0.3-0.2,0.6-0.4,0.9c-0.2,0.3-0.4,0.6-0.6,0.9c-0.3,0.3-0.5,0.6-0.9,0.8
					c-0.3,0.2-0.7,0.5-1.1,0.6c-0.4,0.2-0.8,0.2-1.2,0.3c-0.4,0-0.8,0.1-1.2,0c-0.4,0-0.7-0.1-1.1-0.2c-0.3-0.1-0.6-0.2-0.9-0.3
					C61.7,76.8,61.1,76.3,61.1,76.3z"/>
			</g>
		</g>
	</g>
</g>
<g id="Layer_5">
</g>
<g id="Layer_6">
</g>
<g id="Layer_7">
</g>
<g id="Layer_8">
</g>
<g id="Layer_9">
</g>
<g id="Layer_10">
</g>
<g id="Layer_11">
</g>
<g id="Layer_12">
</g>
<g id="Layer_13">
</g>
<g id="Layer_14">
</g>
</svg>
