<?xml version="1.0" encoding="utf-8"?>
<!-- Generator: Adobe Illustrator 19.1.0, SVG Export Plug-In . SVG Version: 6.00 Build 0)  -->
<svg version="1.1" xmlns="http://www.w3.org/2000/svg" xmlns:xlink="http://www.w3.org/1999/xlink" x="0px" y="0px"
	 viewBox="0 0 128.6 128.6" style="enable-background:new 0 0 128.6 128.6;" xml:space="preserve">
<style type="text/css">
	.st0{opacity:0.65;fill:#C3D7DC;}
	.st1{fill:#C3D7DC;}
	.st2{opacity:0.4;}
	.st3{fill:#FFFFFF;}
	.st4{fill:none;stroke:#FFFFFF;stroke-width:10;stroke-miterlimit:10;}
	.st5{fill:none;}
	.st6{opacity:0.65;}
	.st7{fill:none;stroke:#FFFFFF;stroke-width:2;stroke-miterlimit:10;}
	.st8{fill:#FFFFFF;stroke:#FFFFFF;stroke-width:2;stroke-miterlimit:10;}
	.st9{fill:#FFFFFF;stroke:#FFFFFF;stroke-miterlimit:10;}
	.st10{fill:none;stroke:#FFFFFF;stroke-width:1.9932;stroke-linecap:round;stroke-linejoin:round;stroke-miterlimit:10;}
	.st11{fill:none;stroke:#C3D7DC;stroke-miterlimit:10;}
</style>
<g id="Layer_1">
</g>
<g id="Layer_2">
</g>
<g id="Layer_3">
</g>
<g id="Layer_4">
</g>
<g id="Layer_5">
</g>
<g id="Layer_6">
</g>
<g id="Layer_7">
</g>
<g id="Layer_8">
	<g id="XMLID_326_">
		<g id="XMLID_327_">
			<polygon id="XMLID_329_" class="st0" points="113.2,116 100.6,128.2 0.3,128.2 0.3,0 128.6,0 128.6,100.9 			"/>
			<path id="XMLID_328_" class="st1" d="M100.6,129.8c0,0,27.9-27.4,27.9-27.3s-27.8-2-34.1-5.1C94.5,97.4,101.7,121.6,100.6,129.8z
				"/>
		</g>
	</g>
	<g id="לב_חצי_מלא_2_" class="st2">
		<path id="XMLID_1542_" class="st7" d="M111.2,53.2c0-13-10.5-23.5-23.5-23.5c-11.3,0-20.7,7.9-23,18.5c0,0-0.2-0.4-0.2,0
			C62.7,36.9,53,29.5,41.2,29.5c-13,0-23.5,10.5-23.5,23.5c0,6.5,4.6,12.4,10.3,17.8c2.7-1.8,5.4-2.8,8.2-2.5
			c6.9,0.8,9.2,9.2,15.2,8.8c6-0.4,7-9.2,13.2-9.5c5.1-0.3,6.1,5.4,12.7,6.2c6.5,0.8,7.8-4.6,14.4-4.3c3,0.2,5.6,1.4,7.9,2.8
			C105.9,66.5,111.2,60.2,111.2,53.2z"/>
		<path id="XMLID_1541_" class="st8" d="M77.3,73.8c-6.6-0.8-7.6-6.5-12.7-6.2c-6.2,0.4-7.2,9.1-13.2,9.5c-6,0.4-8.2-8-15.2-8.8
			C33.5,68,30.7,69,28,70.8c5.7,5.5,12.5,10.4,17,15c0,0,18.1,13.3,19.3,14.2l0,0.3l0,0c0,0,19.4-14.2,19.4-14.2
			c4.2-4.2,10.3-8.8,15.8-13.8c-2.3-1.4-4.9-2.6-7.9-2.8C85,69.1,83.8,74.6,77.3,73.8z"/>
	</g>
</g>
<g id="Layer_9">
</g>
<g id="Layer_10">
</g>
<g id="Layer_11">
</g>
<g id="Layer_12">
</g>
<g id="Layer_13">
</g>
<g id="Layer_14">
</g>
</svg>
