<?xml version="1.0" encoding="utf-8"?>
<!-- Generator: Adobe Illustrator 19.1.0, SVG Export Plug-In . SVG Version: 6.00 Build 0)  -->
<svg version="1.1" xmlns="http://www.w3.org/2000/svg" xmlns:xlink="http://www.w3.org/1999/xlink" x="0px" y="0px"
	 viewBox="0 0 128.6 128.6" style="enable-background:new 0 0 128.6 128.6;" xml:space="preserve">
<style type="text/css">
	.st0{opacity:0.65;fill:#C3D7DC;}
	.st1{fill:#C3D7DC;}
	.st2{opacity:0.4;}
	.st3{fill:#FFFFFF;}
	.st4{fill:none;stroke:#FFFFFF;stroke-width:10;stroke-miterlimit:10;}
	.st5{fill:none;}
	.st6{opacity:0.65;}
	.st7{fill:none;stroke:#FFFFFF;stroke-width:2;stroke-miterlimit:10;}
	.st8{fill:#FFFFFF;stroke:#FFFFFF;stroke-width:2;stroke-miterlimit:10;}
	.st9{fill:#FFFFFF;stroke:#FFFFFF;stroke-miterlimit:10;}
	.st10{fill:none;stroke:#FFFFFF;stroke-width:1.9932;stroke-linecap:round;stroke-linejoin:round;stroke-miterlimit:10;}
	.st11{fill:none;stroke:#C3D7DC;stroke-miterlimit:10;}
</style>
<g id="Layer_1">
</g>
<g id="Layer_2">
</g>
<g id="Layer_3">
	<g id="XMLID_241_">
		<g id="XMLID_242_">
			<polygon id="XMLID_244_" class="st0" points="113.2,116 100.6,128.2 0.3,128.2 0.3,0 128.6,0 128.6,100.9 			"/>
			<path id="XMLID_243_" class="st1" d="M100.6,129.8c0,0,27.9-27.4,27.9-27.3s-27.8-2-34.1-5.1C94.5,97.4,101.7,121.6,100.6,129.8z
				"/>
		</g>
	</g>
	<g id="XMLID_562_" class="st2">
		<path id="טיפת_דם_חצי" class="st3" d="M50.5,20.9C57.7,33.4,64.2,43.4,69.2,54c3.8,8.1,0.1,17.6-7,22.7
			c-7,5-17.1,4.8-23.9-0.3c-7.3-5.6-10.1-14.1-6-22.7C37.3,43.2,43.5,33.4,50.5,20.9z M50.5,28.1C46,35.3,42.4,41.2,38,48.3
			c9,0,16.4,0,24.7,0C61.1,45.1,53.9,33.3,50.5,28.1z"/>
		<g id="טיפת_דם_ריקה">
			<path id="XMLID_558_" class="st4" d="M87.5,53.7c3.9,6.8,7.4,12.2,10.2,18c2.1,4.4,0.1,9.6-3.8,12.3c-3.8,2.7-9.3,2.6-13-0.2
				c-4-3-5.5-7.7-3.3-12.4C80.3,65.8,83.6,60.5,87.5,53.7z"/>
		</g>
		<path id="טיפת_דם_מלאה" class="st3" d="M85.7,15.4c1.8,3.1,3.4,5.7,4.7,8.3c1,2,0,4.4-1.8,5.7c-1.8,1.3-4.3,1.2-6-0.1
			c-1.8-1.4-2.6-3.5-1.5-5.7C82.4,21,84,18.6,85.7,15.4z"/>
	</g>
</g>
<g id="Layer_4">
</g>
<g id="Layer_5">
</g>
<g id="Layer_6">
</g>
<g id="Layer_7">
</g>
<g id="Layer_8">
</g>
<g id="Layer_9">
</g>
<g id="Layer_10">
</g>
<g id="Layer_11">
</g>
<g id="Layer_12">
</g>
<g id="Layer_13">
</g>
<g id="Layer_14">
</g>
</svg>
