<?xml version="1.0" encoding="utf-8"?>
<!-- Generator: Adobe Illustrator 19.1.0, SVG Export Plug-In . SVG Version: 6.00 Build 0)  -->
<svg version="1.1" xmlns="http://www.w3.org/2000/svg" xmlns:xlink="http://www.w3.org/1999/xlink" x="0px" y="0px"
	 viewBox="0 0 128.6 128.6" style="enable-background:new 0 0 128.6 128.6;" xml:space="preserve">
<style type="text/css">
	.st0{opacity:0.65;fill:#C3D7DC;}
	.st1{fill:#C3D7DC;}
	.st2{opacity:0.4;}
	.st3{fill:#FFFFFF;}
	.st4{fill:none;stroke:#FFFFFF;stroke-width:10;stroke-miterlimit:10;}
	.st5{fill:none;}
	.st6{opacity:0.65;}
	.st7{fill:none;stroke:#FFFFFF;stroke-width:2;stroke-miterlimit:10;}
	.st8{fill:#FFFFFF;stroke:#FFFFFF;stroke-width:2;stroke-miterlimit:10;}
	.st9{fill:#FFFFFF;stroke:#FFFFFF;stroke-miterlimit:10;}
	.st10{fill:none;stroke:#FFFFFF;stroke-width:1.9932;stroke-linecap:round;stroke-linejoin:round;stroke-miterlimit:10;}
	.st11{fill:none;stroke:#C3D7DC;stroke-miterlimit:10;}
</style>
<g id="Layer_1">
</g>
<g id="Layer_2">
</g>
<g id="Layer_3">
</g>
<g id="Layer_4">
</g>
<g id="Layer_5">
</g>
<g id="Layer_6">
	<g id="XMLID_292_">
		<g id="XMLID_293_">
			<polygon id="XMLID_295_" class="st0" points="113.2,116 100.6,128.2 0.3,128.2 0.3,0 128.6,0 128.6,100.9 			"/>
			<path id="XMLID_294_" class="st1" d="M100.6,129.8c0,0,27.9-27.4,27.9-27.3s-27.8-2-34.1-5.1C94.5,97.4,101.7,121.6,100.6,129.8z
				"/>
		</g>
	</g>
	<g id="XMLID_710_" class="st2">
		<path id="XMLID_713_" class="st3" d="M66.7,45.1c-7.3-5.7-11.5-6.4-16.2-2.6c-4.9,3.9-7.3,13.2-3,18.8c4.7,6.2,11.2,11,17.1,16.1
			c0.9,0.8,3.6,0.6,4.7-0.2c5.7-4.1,11.1-8.5,17.5-13.6c-10.2-5.5-15.4-12.2-11.5-24.2C71.7,41.9,69.4,43.4,66.7,45.1z"/>
		<path id="XMLID_712_" class="st3" d="M90.4,19.5c-4.4,6.9-7.8,12.2-11.5,18.1c10.7,4.5,12.6,12.8,10.9,22.5
			c10.3-0.2,16.7-7.9,13.2-17C99.9,35.2,95.1,28.1,90.4,19.5z"/>
		<path id="XMLID_711_" class="st3" d="M87.1,59.6c2-11.5-0.3-16.4-8.9-19C73.9,49.9,77.2,57.2,87.1,59.6z"/>
	</g>
</g>
<g id="Layer_7">
</g>
<g id="Layer_8">
</g>
<g id="Layer_9">
</g>
<g id="Layer_10">
</g>
<g id="Layer_11">
</g>
<g id="Layer_12">
</g>
<g id="Layer_13">
</g>
<g id="Layer_14">
</g>
</svg>
