<?xml version="1.0" encoding="utf-8"?>
<!-- Generator: Adobe Illustrator 19.1.0, SVG Export Plug-In . SVG Version: 6.00 Build 0)  -->
<svg version="1.1" id="Layer_1" xmlns="http://www.w3.org/2000/svg" xmlns:xlink="http://www.w3.org/1999/xlink" x="0px" y="0px"
	 viewBox="0 0 52.8 52.8" enable-background="new 0 0 52.8 52.8" xml:space="preserve">
<g>
	<polygon fill="#B0CEB2" points="6.3,5.1 8.6,0 52.8,0 52.8,52.8 0,52.8 0,8.4 	"/>
	<path fill="#1CA36D" d="M8.6,0C8.6,0,0,8.4,0,8.4C0,8.3,8.6,9,10.5,10C10.5,10,8.3,2.5,8.6,0z"/>
</g>
<g>
	<rect x="40.4" y="0" fill="#EFBE78" width="12.3" height="16"/>
	<g>
		<path fill="#0F2849" d="M49.6,10.4h-1.3v2.7h-1.5v-2.7h-4.5V9.3L46.4,3h1.9v6.2h1.3V10.4z M46.8,9.1V6.6c0-0.4,0-1.1,0.1-2h-0.1
			c0,0.1-0.2,0.4-0.5,1c0,0.1-0.1,0.1-0.1,0.2C46.1,5.8,46,5.9,46,6l-2.1,3.1H46.8z"/>
	</g>
</g>
</svg>
