<?xml version="1.0" encoding="utf-8"?>
<!-- Generator: Adobe Illustrator 19.1.0, SVG Export Plug-In . SVG Version: 6.00 Build 0)  -->
<svg version="1.1" id="Layer_1" xmlns="http://www.w3.org/2000/svg" xmlns:xlink="http://www.w3.org/1999/xlink" x="0px" y="0px"
	 viewBox="0 0 52.8 52.8" enable-background="new 0 0 52.8 52.8" xml:space="preserve">
<g>
	<polygon fill="#B0CEB2" points="6.3,5.1 8.6,0 52.8,0 52.8,52.8 0,52.8 0,8.4 	"/>
	<path fill="#1CA36D" d="M8.6,0C8.6,0,0,8.4,0,8.4C0,8.3,8.6,9,10.5,10C10.5,10,8.3,2.5,8.6,0z"/>
</g>
<g>
	<rect x="40.4" y="0" fill="#EFBE78" width="12.3" height="16"/>
	<g>
		<path fill="#0F2849" d="M45.5,8.3c0.4-1.3,1.1-2.6,2.1-4h-4.9V3h6.7v1c-0.8,1-1.4,1.9-1.8,2.8s-0.7,1.8-0.9,2.8
			c-0.2,1-0.3,2.1-0.3,3.6h-1.6C44.8,11.2,45.1,9.6,45.5,8.3z"/>
	</g>
</g>
</svg>
