<?xml version="1.0" encoding="utf-8"?>
<!-- Generator: Adobe Illustrator 19.1.0, SVG Export Plug-In . SVG Version: 6.00 Build 0)  -->
<svg version="1.1" id="Layer_1" xmlns="http://www.w3.org/2000/svg" xmlns:xlink="http://www.w3.org/1999/xlink" x="0px" y="0px"
	 viewBox="0 0 52.8 52.8" enable-background="new 0 0 52.8 52.8" xml:space="preserve">
<g>
	<polygon fill="#B0CEB2" points="6.3,5.1 8.6,0 52.8,0 52.8,52.8 0,52.8 0,8.4 	"/>
	<path fill="#1CA36D" d="M8.6,0C8.6,0,0,8.4,0,8.4C0,8.3,8.6,9,10.5,10C10.5,10,8.3,2.5,8.6,0z"/>
</g>
<g>
	<rect x="40.4" y="0" fill="#EFBE78" width="12.3" height="16"/>
	<g>
		<path fill="#0F2849" d="M48.6,7.6c0.5,0.5,0.8,1.3,0.8,2.3c0,0.6-0.1,1.2-0.4,1.7c-0.3,0.5-0.7,0.9-1.1,1.2
			c-0.5,0.3-1,0.4-1.5,0.4c-0.7,0-1.3-0.2-1.8-0.5c-0.5-0.4-1-0.9-1.3-1.6c-0.3-0.7-0.5-1.6-0.5-2.7c0-1.3,0.2-2.3,0.5-3.2
			c0.4-0.8,0.8-1.4,1.4-1.8s1.2-0.6,2-0.6c1,0,1.9,0.4,2.6,1.1l-0.9,1c-0.2-0.2-0.4-0.4-0.7-0.6S47,4.1,46.7,4.1
			C46,4.1,45.4,4.4,45,5s-0.7,1.6-0.7,3c0.3-0.4,0.6-0.7,1.1-0.9c0.4-0.2,0.8-0.3,1.2-0.3C47.4,6.8,48.1,7.1,48.6,7.6z M47.5,11.5
			c0.3-0.4,0.5-0.9,0.5-1.5s-0.1-1.1-0.4-1.4C47.2,8.2,46.8,8,46.2,8c-0.3,0-0.7,0.1-1,0.3c-0.3,0.2-0.6,0.5-0.9,1
			c0.1,0.9,0.3,1.6,0.7,2.1s0.8,0.7,1.4,0.7C46.8,12,47.2,11.8,47.5,11.5z"/>
	</g>
</g>
</svg>
