<?xml version="1.0" encoding="utf-8"?>
<!-- Generator: Adobe Illustrator 19.1.0, SVG Export Plug-In . SVG Version: 6.00 Build 0)  -->
<svg version="1.1" id="Layer_1" xmlns="http://www.w3.org/2000/svg" xmlns:xlink="http://www.w3.org/1999/xlink" x="0px" y="0px"
	 viewBox="0 0 64.8 64.8" enable-background="new 0 0 64.8 64.8" xml:space="preserve">
<g>
	<polygon fill="#B0CEB2" points="7.8,6.2 10.5,0 64.8,0 64.8,64.8 0,64.8 0,10.3 	"/>
	<g>
		<path opacity="0.4" fill="#EC2429" d="M36.8,33.6l18.3-18.3c1.2-1.2,1.2-3.2,0-4.4c-1.2-1.2-3.2-1.2-4.4,0L32.4,29.2L14.1,10.9
			c-1.2-1.2-3.2-1.2-4.4,0c-1.2,1.2-1.2,3.2,0,4.4L28,33.6L9.6,52c-1.2,1.2-1.2,3.2,0,4.4c0.6,0.6,1.4,0.9,2.2,0.9s1.6-0.3,2.2-0.9
			l18.3-18.3l18.3,18.3c0.6,0.6,1.4,0.9,2.2,0.9s1.6-0.3,2.2-0.9c1.2-1.2,1.2-3.2,0-4.4L36.8,33.6z"/>
	</g>
	<path fill="#1CA36D" d="M10.5,0C10.5,0,0,10.4,0,10.3c0-0.1,10.5,0.8,12.9,1.9C12.9,12.2,10.1,3.1,10.5,0z"/>
</g>
</svg>
