<?xml version="1.0" encoding="utf-8"?>
<!-- Generator: Adobe Illustrator 23.0.0, SVG Export Plug-In . SVG Version: 6.00 Build 0)  -->
<svg version="1.1" id="Layer_1" xmlns="http://www.w3.org/2000/svg" xmlns:xlink="http://www.w3.org/1999/xlink" x="0px" y="0px"
	 viewBox="0 0 25.37 18.79" enable-background="new 0 0 25.37 18.79" xml:space="preserve">
<g>
	<g>
		<g>
			<g>
				<path fill="#661420" d="M13.34,18.79c0.97-0.09,1.82-0.66,2.63-1.19c1.21-0.79,2.46-1.53,3.72-2.22
					c0.5-0.27,1.01-0.54,1.58-0.58c1.66-0.12,2.28,2.51,3.54,3.3c0.68-0.78,0.66-1.86,0.32-2.78c-0.19-0.51-0.47-0.99-0.8-1.42
					c-0.38-0.48-0.79-0.71-1.22-1.11c-0.23-0.21-0.39-0.51-0.38-0.82c0.02-0.5,0.44-0.81,0.62-1.24c0.27-0.67-0.14-1.04-0.47-1.6
					c-0.24-0.4-0.41-0.73-0.79-1.03c-0.26-0.21-0.61-0.34-0.82-0.61c-0.19-0.25-0.19-0.56-0.32-0.84c-0.21-0.46-0.61-0.88-0.93-1.26
					c-1.07-1.29-2.63-2.71-4.19-2.1c-0.34,0.13-0.65,0.36-1.01,0.43c-1.01,0.18-1.73-0.89-2.4-1.66c-1.32-1.53-3.46-2.3-5.45-1.96
					c-0.34,0.06-0.7,0.17-0.88,0.46c-0.55,0.9,1.24,1.83,0.93,2.84C6.79,4.13,5.71,4.07,4.96,3.85c-1.57-0.47-3.6-0.83-4.58,0.49
					c-0.98,1.31,0.08,3.33,1.61,3.9c0.96,0.36,2.33,0.64,2.34,1.66c0.01,0.59-0.32,0.96-0.61,1.43c-0.31,0.51-0.35,0.75-0.94,0.99
					c-0.26,0.11-0.5,0.3-0.62,0.55c-0.12,0.25-0.12,0.58,0.03,0.81c0.41,0.61,1.49,0.34,1.92,0.94c0.26,0.35,0.16,0.83,0.08,1.26
					c-0.07,0.43-0.07,0.95,0.28,1.19c0.21,0.14,0.48,0.15,0.73,0.13c0.33-0.02,0.71-0.09,0.87-0.39c0.1-0.19,0.07-0.42,0.09-0.63
					c0.03-0.41,0.26-0.82,0.64-1c0.37-0.18,0.88-0.08,1.11,0.26c0.17,0.25,0.22,0.63,0.51,0.72c0.18,0.06,0.37-0.03,0.51-0.16
					c0.14-0.13,0.23-0.29,0.36-0.43c0.4-0.44,1.18-0.56,1.56-0.1c0.1,0.12,0.16,0.27,0.23,0.41c0.28,0.66-0.11,1.4,0.29,2.04
					C11.76,18.55,12.61,18.85,13.34,18.79z"/>
			</g>
		</g>
	</g>
</g>
</svg>
