<?xml version="1.0" encoding="utf-8"?>
<!-- Generator: Adobe Illustrator 19.1.0, SVG Export Plug-In . SVG Version: 6.00 Build 0)  -->
<svg version="1.1" id="Layer_1" xmlns="http://www.w3.org/2000/svg" xmlns:xlink="http://www.w3.org/1999/xlink" x="0px" y="0px"
	 viewBox="0 0 250.1 132.1" enable-background="new 0 0 250.1 132.1" xml:space="preserve" preserveAspectRatio="none">
<g>
	<polygon fill="#C3D7DC" points="238.9,11.2 119.1,11.2 119.1,11.1 19.4,11.1 14.3,22.5 0,30 0,132.1 119.1,132.1 119.1,131.8 
		238.9,131.7 	"/>
	<path fill="#9ACFDA" d="M19.4,11.1c0,0-19.4,19-19.4,18.9c0-0.1,19.3,1.4,23.6,3.6C23.6,33.6,18.6,16.8,19.4,11.1z"/>
	<g>
		<g>
			
				<line fill="none" stroke="#89B8BF" stroke-width="0.5836" stroke-linecap="round" stroke-linejoin="round" stroke-miterlimit="10" x1="111.5" y1="39.3" x2="37.2" y2="39.3"/>
		</g>
		
			<line fill="none" stroke="#89B8BF" stroke-width="0.5836" stroke-linecap="round" stroke-linejoin="round" stroke-miterlimit="10" x1="111.5" y1="62" x2="37.2" y2="62"/>
		
			<line fill="none" stroke="#89B8BF" stroke-width="0.5836" stroke-linecap="round" stroke-linejoin="round" stroke-miterlimit="10" x1="111.5" y1="84.7" x2="37.2" y2="84.7"/>
		
			<line fill="none" stroke="#89B8BF" stroke-width="0.5836" stroke-linecap="round" stroke-linejoin="round" stroke-miterlimit="10" x1="111.5" y1="107.3" x2="37.2" y2="107.3"/>
	</g>
	<g>
		
			<rect x="204.4" y="15" transform="matrix(0.7071 0.7071 -0.7071 0.7071 82.2089 -155.1647)" opacity="0.8" fill="#E86978" width="48" height="13.2"/>
	</g>
</g>
</svg>
