<?xml version="1.0" encoding="utf-8"?>
<!-- Generator: Adobe Illustrator 19.1.0, SVG Export Plug-In . SVG Version: 6.00 Build 0)  -->
<svg version="1.1" id="Layer_1" xmlns="http://www.w3.org/2000/svg" xmlns:xlink="http://www.w3.org/1999/xlink" x="0px" y="0px"
	 viewBox="-241 393.8 128.8 7.2" style="enable-background:new -241 393.8 128.8 7.2;" xml:space="preserve">
<style type="text/css">
	.st0{fill:none;}
	.st1{enable-background:new    ;}
	.st2{fill:#0F2849;}
	.st3{fill:none;stroke:#EF5B5B;stroke-miterlimit:10;}
	.st4{fill:#EF5B5B;}
</style>
<rect x="-271.5" y="378.4" class="st0" width="159.3" height="53.8"/>
<g class="st1">
	<path class="st2" d="M-200.1,396.5c0-0.3-0.1-0.5-0.2-0.6c-0.1-0.1-0.3-0.2-0.5-0.2h-1.4v-0.6h1.6c0.4,0,0.7,0.1,0.9,0.3
		c0.2,0.2,0.3,0.6,0.3,1.1v2.8h-0.8V396.5z"/>
	<path class="st2" d="M-195.6,399.3l-1.6-2.4l-0.7,2.4h-0.8l0.8-2.6l0.2-0.5l-0.7-1.1h0.8l0.6,1l0.6,0.9l0.2-0.7l0.4-1.3h0.8
		l-0.9,2.7l1,1.6H-195.6z"/>
	<path class="st2" d="M-193.9,396l-0.1-0.9h0.8l0.1,0.9v3.3h-0.8V396z"/>
	<path class="st2" d="M-192.1,396l-0.1-0.9h0.8l0.1,0.9v3.3h-0.8V396z"/>
	<path class="st2" d="M-188.3,397.5l1.1,1.8h-0.8h-2.6v-0.6h2.2l-2.1-3.6h0.8l1,1.7l0.7-1.7h0.8L-188.3,397.5z"/>
	<path class="st2" d="M-171.5,395.1v0.7l-1.4,3.5h-0.8l1.4-3.6h-2.3v-1.8h0.7v1.2H-171.5z"/>
	<path class="st2" d="M-167.9,399.3l-1.6-2.4l-0.7,2.4h-0.8l0.8-2.6l0.2-0.5l-0.7-1.1h0.8l0.6,1l0.6,0.9l0.2-0.7l0.4-1.3h0.8
		l-0.9,2.7l1,1.6H-167.9z"/>
	<path class="st2" d="M-162.9,398.8c-0.3,0.4-0.8,0.6-1.3,0.6c-0.2,0-0.4,0-0.6-0.1l0.1-0.6c0.2,0,0.4,0.1,0.5,0.1
		c0.4,0,0.7-0.1,0.8-0.4c0.2-0.3,0.3-0.7,0.3-1.2c0-0.5-0.1-0.9-0.3-1.2c-0.2-0.2-0.4-0.4-0.7-0.4c-0.2,0-0.4,0.1-0.6,0.2
		c-0.2,0.1-0.3,0.3-0.3,0.6l-0.5,2.9h-0.8l0.5-2.9l-0.6-1.3h0.8l0.3,0.9c0.1-0.3,0.3-0.6,0.5-0.7c0.2-0.2,0.5-0.2,0.7-0.2
		c0.5,0,0.9,0.2,1.2,0.5s0.4,0.9,0.4,1.6C-162.5,397.9-162.6,398.4-162.9,398.8z"/>
	<path class="st2" d="M-158.5,398.6c-0.6,0.5-1.5,0.8-2.8,0.8l-0.5-4.3h0.8l0.2,2c0.3-0.1,0.5-0.3,0.6-0.5c0.1-0.2,0.2-0.5,0.2-1
		v-0.5h0.8l0,0.5c0,0.6-0.1,1-0.3,1.3c-0.2,0.3-0.6,0.6-1.1,0.8l0.1,1c0.8-0.1,1.3-0.3,1.7-0.7c0.4-0.4,0.5-1,0.5-1.7l0-1.2h0.8
		l0,1.2C-157.6,397.3-157.9,398.1-158.5,398.6z"/>
	<path class="st2" d="M-152.4,395.1v0.7l-1.4,3.5h-0.8l1.4-3.6h-2.3v-1.8h0.7v1.2H-152.4z"/>
	<path class="st2" d="M-150.2,399.3l-0.2-0.9c-0.1,0.3-0.3,0.5-0.5,0.6s-0.5,0.3-0.7,0.4l-0.3-0.6c0.3-0.1,0.6-0.3,0.9-0.5
		s0.4-0.4,0.6-0.7v-1.3c0-0.2,0-0.4-0.1-0.5s-0.2-0.2-0.3-0.2l-0.5-0.1l0.1-0.6l0.7,0.1c0.3,0,0.5,0.2,0.6,0.3
		c0.1,0.2,0.2,0.5,0.2,0.8v1.4l0.3,1.6H-150.2z"/>
	<path class="st2" d="M-146.8,396.5c0-0.3-0.1-0.5-0.2-0.6c-0.1-0.1-0.3-0.2-0.5-0.2h-1.4v-0.6h1.6c0.4,0,0.7,0.1,0.9,0.3
		c0.2,0.2,0.3,0.6,0.3,1.1v2.8h-0.8V396.5z"/>
	<path class="st2" d="M-133,396l-0.1-0.9h0.8l0.1,0.9v4.8h-0.8V396z"/>
	<path class="st2" d="M-131.2,396l-0.1-0.9h0.8l0.1,0.9v1.1l0,0.5l-0.8,0.1V396z"/>
	<path class="st2" d="M-126.1,398.8c-0.3,0.4-0.8,0.6-1.3,0.6c-0.2,0-0.4,0-0.6-0.1l0.1-0.6c0.2,0,0.4,0.1,0.5,0.1
		c0.4,0,0.7-0.1,0.8-0.4c0.2-0.3,0.3-0.7,0.3-1.2c0-0.5-0.1-0.9-0.3-1.2c-0.2-0.2-0.4-0.4-0.7-0.4c-0.2,0-0.4,0.1-0.6,0.2
		c-0.2,0.1-0.3,0.3-0.3,0.6l-0.5,2.9h-0.8l0.5-2.9l-0.6-1.3h0.8l0.3,0.9c0.1-0.3,0.3-0.6,0.5-0.7c0.2-0.2,0.5-0.2,0.7-0.2
		c0.5,0,0.9,0.2,1.2,0.5s0.4,0.9,0.4,1.6C-125.6,397.9-125.8,398.4-126.1,398.8z"/>
	<path class="st2" d="M-124.7,396l-0.1-0.9h0.8l0.1,0.9v1.1l0,0.5l-0.8,0.1V396z"/>
	<path class="st2" d="M-118.6,395.1v0.7l-1.4,3.5h-0.8l1.4-3.6h-2.3v-1.8h0.7v1.2H-118.6z"/>
	<path class="st2" d="M-116.4,399.3l-0.2-0.9c-0.1,0.3-0.3,0.5-0.5,0.6s-0.5,0.3-0.7,0.4l-0.3-0.6c0.3-0.1,0.6-0.3,0.9-0.5
		s0.4-0.4,0.6-0.7v-1.3c0-0.2,0-0.4-0.1-0.5s-0.2-0.2-0.3-0.2l-0.5-0.1l0.1-0.6l0.7,0.1c0.3,0,0.5,0.2,0.6,0.3
		c0.1,0.2,0.2,0.5,0.2,0.8v1.4l0.3,1.6H-116.4z"/>
	<path class="st2" d="M-113,396.5c0-0.3-0.1-0.5-0.2-0.6c-0.1-0.1-0.3-0.2-0.5-0.2h-1.4v-0.6h1.6c0.4,0,0.7,0.1,0.9,0.3
		c0.2,0.2,0.3,0.6,0.3,1.1v2.8h-0.8V396.5z"/>
</g>
<g>
	<g>
		<line class="st3" x1="-137" y1="397.1" x2="-141.8" y2="397.1"/>
		<g>
			<polygon class="st4" points="-139.8,395.4 -141.5,397.1 -139.8,398.8 -141.3,398.8 -143,397.1 -141.3,395.4 			"/>
		</g>
	</g>
</g>
<g>
	<g>
		<line class="st3" x1="-177.6" y1="397.1" x2="-182.5" y2="397.1"/>
		<g>
			<polygon class="st4" points="-180.5,395.4 -182.2,397.1 -180.5,398.8 -181.9,398.8 -183.6,397.1 -181.9,395.4 			"/>
		</g>
	</g>
</g>
</svg>
