<?xml version="1.0" encoding="utf-8"?>
<!-- Generator: Adobe Illustrator 19.1.0, SVG Export Plug-In . SVG Version: 6.00 Build 0)  -->
<svg version="1.1" id="Layer_1" xmlns="http://www.w3.org/2000/svg" xmlns:xlink="http://www.w3.org/1999/xlink" x="0px" y="0px"
	 viewBox="-241 393.8 128.8 7.2" style="enable-background:new -241 393.8 128.8 7.2;" xml:space="preserve">
<style type="text/css">
	.st0{fill:none;}
	.st1{enable-background:new    ;}
	.st2{fill:#0F2849;}
	.st3{fill:none;stroke:#EF5B5B;stroke-miterlimit:10;}
	.st4{fill:#EF5B5B;}
</style>
<g>
	<rect x="-400.9" y="362.9" class="st0" width="159.3" height="53.8"/>
</g>
<g class="st1">
	<path class="st2" d="M-237.8,395.1v0.7l-1.4,3.5h-0.8l1.4-3.6h-2.3V394h0.7v1.2H-237.8z"/>
	<path class="st2" d="M-234.2,399.3l-1.6-2.4l-0.7,2.4h-0.8l0.8-2.6l0.2-0.5l-0.7-1.1h0.8l0.6,1l0.6,0.9l0.2-0.7l0.4-1.3h0.8
		l-0.9,2.7l1,1.6H-234.2z"/>
	<path class="st2" d="M-229.2,398.8c-0.3,0.4-0.8,0.6-1.3,0.6c-0.2,0-0.4,0-0.6-0.1l0.1-0.6c0.2,0,0.4,0.1,0.5,0.1
		c0.4,0,0.7-0.1,0.8-0.4c0.2-0.3,0.3-0.7,0.3-1.2c0-0.5-0.1-0.9-0.3-1.2s-0.4-0.4-0.7-0.4c-0.2,0-0.4,0.1-0.6,0.2
		c-0.2,0.1-0.3,0.3-0.3,0.6l-0.5,2.9h-0.8l0.5-2.9l-0.6-1.3h0.8l0.3,0.9c0.1-0.3,0.3-0.6,0.5-0.7c0.2-0.2,0.5-0.2,0.7-0.2
		c0.5,0,0.9,0.2,1.2,0.5s0.4,0.9,0.4,1.6C-228.8,397.9-228.9,398.5-229.2,398.8z"/>
	<path class="st2" d="M-224.8,398.6c-0.6,0.5-1.5,0.8-2.8,0.8l-0.5-4.3h0.8l0.2,2c0.3-0.1,0.5-0.3,0.6-0.5c0.1-0.2,0.2-0.5,0.2-1
		v-0.5h0.8l0,0.5c0,0.6-0.1,1-0.3,1.3c-0.2,0.3-0.6,0.6-1.1,0.8l0.1,1c0.8-0.1,1.3-0.3,1.7-0.7c0.4-0.4,0.5-1,0.5-1.7l0-1.2h0.8
		l0,1.2C-223.9,397.3-224.2,398.1-224.8,398.6z"/>
	<path class="st2" d="M-218.7,395.1v0.7l-1.4,3.5h-0.8l1.4-3.6h-2.3V394h0.7v1.2H-218.7z"/>
	<path class="st2" d="M-216.5,399.3l-0.2-0.9c-0.1,0.3-0.3,0.5-0.5,0.6s-0.5,0.3-0.7,0.4l-0.3-0.6c0.3-0.1,0.6-0.3,0.9-0.5
		s0.4-0.4,0.6-0.7v-1.3c0-0.2,0-0.4-0.1-0.5c-0.1-0.1-0.2-0.2-0.3-0.2l-0.5-0.1l0.1-0.6l0.7,0.1c0.3,0,0.5,0.2,0.6,0.3
		c0.1,0.2,0.2,0.5,0.2,0.8v1.4l0.3,1.6H-216.5z"/>
	<path class="st2" d="M-213.1,396.5c0-0.3-0.1-0.5-0.2-0.6c-0.1-0.1-0.3-0.2-0.5-0.2h-1.4v-0.6h1.6c0.4,0,0.7,0.1,0.9,0.3
		c0.2,0.2,0.3,0.6,0.3,1.1v2.8h-0.8V396.5z"/>
	<path class="st2" d="M-199.3,396l-0.1-0.9h0.8l0.1,0.9v4.8h-0.8V396z"/>
	<path class="st2" d="M-197.5,396l-0.1-0.9h0.8l0.1,0.9v1.1l0,0.5l-0.8,0.1V396z"/>
	<path class="st2" d="M-192.4,398.8c-0.3,0.4-0.8,0.6-1.3,0.6c-0.2,0-0.4,0-0.6-0.1l0.1-0.6c0.2,0,0.4,0.1,0.5,0.1
		c0.4,0,0.7-0.1,0.8-0.4c0.2-0.3,0.3-0.7,0.3-1.2c0-0.5-0.1-0.9-0.3-1.2s-0.4-0.4-0.7-0.4c-0.2,0-0.4,0.1-0.6,0.2
		c-0.2,0.1-0.3,0.3-0.3,0.6l-0.5,2.9h-0.8l0.5-2.9l-0.6-1.3h0.8l0.3,0.9c0.1-0.3,0.3-0.6,0.5-0.7c0.2-0.2,0.5-0.2,0.7-0.2
		c0.5,0,0.9,0.2,1.2,0.5s0.4,0.9,0.4,1.6C-191.9,397.9-192,398.5-192.4,398.8z"/>
	<path class="st2" d="M-191,396l-0.1-0.9h0.8l0.1,0.9v1.1l0,0.5l-0.8,0.1V396z"/>
	<path class="st2" d="M-184.9,395.1v0.7l-1.4,3.5h-0.8l1.4-3.6h-2.3V394h0.7v1.2H-184.9z"/>
	<path class="st2" d="M-182.7,399.3l-0.2-0.9c-0.1,0.3-0.3,0.5-0.5,0.6s-0.5,0.3-0.7,0.4l-0.3-0.6c0.3-0.1,0.6-0.3,0.9-0.5
		s0.4-0.4,0.6-0.7v-1.3c0-0.2,0-0.4-0.1-0.5c-0.1-0.1-0.2-0.2-0.3-0.2l-0.5-0.1l0.1-0.6l0.7,0.1c0.3,0,0.5,0.2,0.6,0.3
		c0.1,0.2,0.2,0.5,0.2,0.8v1.4l0.3,1.6H-182.7z"/>
	<path class="st2" d="M-179.3,396.5c0-0.3-0.1-0.5-0.2-0.6c-0.1-0.1-0.3-0.2-0.5-0.2h-1.4v-0.6h1.6c0.4,0,0.7,0.1,0.9,0.3
		c0.2,0.2,0.3,0.6,0.3,1.1v2.8h-0.8V396.5z"/>
	<path class="st2" d="M-162.7,395.1v0.7l-1.4,3.5h-0.8l1.4-3.6h-2.3V394h0.7v1.2H-162.7z"/>
	<path class="st2" d="M-159.1,399.3l-1.6-2.4l-0.7,2.4h-0.8l0.8-2.6l0.2-0.5l-0.7-1.1h0.8l0.6,1l0.6,0.9l0.2-0.7l0.4-1.3h0.8
		l-0.9,2.7l1,1.6H-159.1z"/>
	<path class="st2" d="M-154.1,398.8c-0.3,0.4-0.8,0.6-1.3,0.6c-0.2,0-0.4,0-0.6-0.1l0.1-0.6c0.2,0,0.4,0.1,0.5,0.1
		c0.4,0,0.7-0.1,0.8-0.4c0.2-0.3,0.3-0.7,0.3-1.2c0-0.5-0.1-0.9-0.3-1.2c-0.2-0.2-0.4-0.4-0.7-0.4c-0.2,0-0.4,0.1-0.6,0.2
		c-0.2,0.1-0.3,0.3-0.3,0.6l-0.5,2.9h-0.8l0.5-2.9l-0.6-1.3h0.8l0.3,0.9c0.1-0.3,0.3-0.6,0.5-0.7c0.2-0.2,0.5-0.2,0.7-0.2
		c0.5,0,0.9,0.2,1.2,0.5s0.4,0.9,0.4,1.6C-153.7,397.9-153.8,398.5-154.1,398.8z"/>
	<path class="st2" d="M-149.7,398.6c-0.6,0.5-1.5,0.8-2.8,0.8l-0.5-4.3h0.8l0.2,2c0.3-0.1,0.5-0.3,0.6-0.5c0.1-0.2,0.2-0.5,0.2-1
		v-0.5h0.8l0,0.5c0,0.6-0.1,1-0.3,1.3c-0.2,0.3-0.6,0.6-1.1,0.8l0.1,1c0.8-0.1,1.3-0.3,1.7-0.7s0.5-1,0.5-1.7l0-1.2h0.8l0,1.2
		C-148.8,397.3-149.1,398.1-149.7,398.6z"/>
	<path class="st2" d="M-144.8,396.6c0-0.4,0.1-0.7,0.2-0.9h-2v-0.6h3.3v0.6h-0.6c-0.1,0.2-0.2,0.5-0.2,0.9v2.7h-0.8V396.6z"/>
	<path class="st2" d="M-142.4,396l-0.1-0.9h0.8l0.1,0.9v1.1l0,0.5l-0.8,0.1V396z"/>
	<path class="st2" d="M-128.6,396l-0.1-0.9h0.8l0.1,0.9v4.8h-0.8V396z"/>
	<path class="st2" d="M-126.8,396l-0.1-0.9h0.8l0.1,0.9v1.1l0,0.5l-0.8,0.1V396z"/>
	<path class="st2" d="M-121.6,398.8c-0.3,0.4-0.8,0.6-1.3,0.6c-0.2,0-0.4,0-0.6-0.1l0.1-0.6c0.2,0,0.4,0.1,0.5,0.1
		c0.4,0,0.7-0.1,0.8-0.4c0.2-0.3,0.3-0.7,0.3-1.2c0-0.5-0.1-0.9-0.3-1.2c-0.2-0.2-0.4-0.4-0.7-0.4c-0.2,0-0.4,0.1-0.6,0.2
		c-0.2,0.1-0.3,0.3-0.3,0.6l-0.5,2.9h-0.8l0.5-2.9l-0.6-1.3h0.8l0.3,0.9c0.1-0.3,0.3-0.6,0.5-0.7c0.2-0.2,0.5-0.2,0.7-0.2
		c0.5,0,0.9,0.2,1.2,0.5s0.4,0.9,0.4,1.6C-121.2,397.9-121.3,398.5-121.6,398.8z"/>
	<path class="st2" d="M-120.3,396l-0.1-0.9h0.8l0.1,0.9v1.1l0,0.5l-0.8,0.1V396z"/>
	<path class="st2" d="M-115.4,396.6c0-0.4,0.1-0.7,0.2-0.9h-2v-0.6h3.3v0.6h-0.6c-0.1,0.2-0.2,0.5-0.2,0.9v2.7h-0.8V396.6z"/>
	<path class="st2" d="M-113,396l-0.1-0.9h0.8l0.1,0.9v1.1l0,0.5l-0.8,0.1V396z"/>
</g>
<g>
	<g>
		<line class="st3" x1="-132.5" y1="397.1" x2="-137.3" y2="397.1"/>
		<g>
			<polygon class="st4" points="-135.3,395.4 -137,397.1 -135.3,398.8 -136.8,398.8 -138.5,397.1 -136.8,395.4 			"/>
		</g>
	</g>
</g>
<g>
	<g>
		<line class="st3" x1="-169.1" y1="397.1" x2="-174" y2="397.1"/>
		<g>
			<polygon class="st4" points="-172,395.4 -173.7,397.1 -172,398.8 -173.4,398.8 -175.1,397.1 -173.4,395.4 			"/>
		</g>
	</g>
</g>
<g>
	<g>
		<line class="st3" x1="-202.6" y1="397.1" x2="-207.5" y2="397.1"/>
		<g>
			<polygon class="st4" points="-205.5,395.4 -207.2,397.1 -205.5,398.8 -206.9,398.8 -208.6,397.1 -206.9,395.4 			"/>
		</g>
	</g>
</g>
</svg>
