<?xml version="1.0" encoding="utf-8"?>
<!-- Generator: Adobe Illustrator 19.1.0, SVG Export Plug-In . SVG Version: 6.00 Build 0)  -->
<svg version="1.1" id="Layer_1" xmlns="http://www.w3.org/2000/svg" xmlns:xlink="http://www.w3.org/1999/xlink" x="0px" y="0px"
	 viewBox="-299 389 12.3 16" enable-background="new -299 389 12.3 16" xml:space="preserve">
<g>
	<rect x="-299" y="389" fill="#EFBE78" width="12.3" height="16"/>
	<g>
		<g enable-background="new    ">
			<path fill="#0F2849" d="M-296.5,400.9l0.8-1c0.3,0.3,0.7,0.6,1.1,0.8s0.8,0.3,1.3,0.3c0.6,0,1.1-0.2,1.4-0.5
				c0.4-0.3,0.5-0.7,0.5-1.2c0-0.6-0.2-1-0.7-1.4c-0.5-0.3-1.3-0.5-2.4-0.5v-1.2c1.8,0,2.7-0.6,2.7-1.7c0-0.5-0.1-0.8-0.4-1.1
				c-0.3-0.3-0.7-0.4-1.2-0.4c-0.7,0-1.4,0.3-2.1,1l-0.8-1c0.9-0.8,1.9-1.3,3-1.3c1,0,1.7,0.2,2.3,0.7c0.6,0.5,0.9,1.1,0.9,1.9
				c0,1.1-0.6,1.9-1.8,2.4v0.1c0.6,0.2,1.1,0.5,1.5,0.9c0.4,0.4,0.6,1,0.6,1.6c0,0.6-0.2,1.1-0.5,1.5c-0.3,0.4-0.7,0.8-1.2,1
				c-0.5,0.2-1.1,0.3-1.8,0.3C-294.5,402.3-295.6,401.8-296.5,400.9z"/>
		</g>
	</g>
</g>
</svg>
