<?xml version="1.0" encoding="utf-8"?>
<!-- Generator: Adobe Illustrator 19.1.0, SVG Export Plug-In . SVG Version: 6.00 Build 0)  -->
<svg version="1.1" id="Layer_1" xmlns="http://www.w3.org/2000/svg" xmlns:xlink="http://www.w3.org/1999/xlink" x="0px" y="0px"
	 viewBox="0 0 52.8 52.8" enable-background="new 0 0 52.8 52.8" xml:space="preserve">
<g>
	<polygon fill="#B0CEB2" points="6.3,5.1 8.6,0 52.8,0 52.8,52.8 0,52.8 0,8.4 	"/>
	<path fill="#1CA36D" d="M8.6,0C8.6,0,0,8.4,0,8.4C0,8.3,8.6,9,10.5,10C10.5,10,8.3,2.5,8.6,0z"/>
</g>
<g>
	<rect x="40.4" y="0" fill="#EFBE78" width="12.3" height="16"/>
	<g>
		<path fill="#0F2849" d="M43.9,12.9c-0.5-0.3-1-0.6-1.4-1l0.8-1c0.3,0.3,0.7,0.6,1.1,0.8c0.4,0.2,0.8,0.3,1.3,0.3
			c0.6,0,1.1-0.2,1.5-0.6c0.4-0.4,0.6-0.9,0.6-1.5s-0.2-1.1-0.5-1.5c-0.4-0.4-0.8-0.5-1.4-0.5c-0.3,0-0.6,0-0.8,0.1
			C44.6,8,44.3,8.2,44,8.4l-0.8-0.5L43.5,3h5.2v1.4h-3.8L44.7,7c0.5-0.2,0.9-0.4,1.4-0.4c0.9,0,1.7,0.3,2.3,0.8s0.9,1.3,0.9,2.4
			c0,0.7-0.2,1.3-0.5,1.8c-0.3,0.5-0.7,0.9-1.3,1.2s-1.1,0.4-1.7,0.4C45,13.2,44.4,13.1,43.9,12.9z"/>
	</g>
</g>
</svg>
