<?xml version="1.0" encoding="utf-8"?>
<!-- Generator: Adobe Illustrator 19.1.0, SVG Export Plug-In . SVG Version: 6.00 Build 0)  -->
<svg version="1.1" id="Layer_1" xmlns="http://www.w3.org/2000/svg" xmlns:xlink="http://www.w3.org/1999/xlink" x="0px" y="0px"
	 viewBox="0 0 52.8 52.8" enable-background="new 0 0 52.8 52.8" xml:space="preserve">
<g>
	<polygon fill="#B0CEB2" points="6.3,5.1 8.6,0 52.8,0 52.8,52.8 0,52.8 0,8.4 	"/>
	<path fill="#1CA36D" d="M8.6,0C8.6,0,0,8.4,0,8.4C0,8.3,8.6,9,10.5,10C10.5,10,8.3,2.5,8.6,0z"/>
</g>
<g>
	<rect x="40.4" y="0" fill="#EFBE78" width="12.3" height="16"/>
	<g>
		<path fill="#0F2849" d="M42.6,12.1c1.2-1.1,2-2,2.7-2.7c0.6-0.7,1.1-1.3,1.5-1.9s0.5-1.1,0.5-1.6c0-0.6-0.2-1-0.5-1.3
			c-0.3-0.3-0.7-0.5-1.3-0.5c-0.7,0-1.4,0.4-2,1.2l-0.9-0.9c0.5-0.5,1-0.9,1.4-1.2s1.1-0.4,1.7-0.4c1,0,1.7,0.3,2.3,0.8
			c0.6,0.6,0.8,1.3,0.8,2.2c0,0.6-0.2,1.2-0.5,1.8s-0.7,1.2-1.3,1.8c-0.5,0.6-1.2,1.4-2.1,2.3c0.7-0.1,1.3-0.1,1.7-0.1h2.7v1.4h-6.7
			V12.1z"/>
	</g>
</g>
</svg>
