<?xml version="1.0" encoding="utf-8"?>
<!-- Generator: Adobe Illustrator 19.1.0, SVG Export Plug-In . SVG Version: 6.00 Build 0)  -->
<svg version="1.1" id="Layer_1" xmlns="http://www.w3.org/2000/svg" xmlns:xlink="http://www.w3.org/1999/xlink" x="0px" y="0px"
	 viewBox="0 0 21.3 24.1" enable-background="new 0 0 21.3 24.1" xml:space="preserve">
<g>
	<circle fill="#70ADB6" cx="10.7" cy="11.4" r="10.7"/>
	<g>
		<path fill="#FFFFFF" d="M6.2,4.6h4.3c1.5,0,2.7,0.3,3.6,0.8s1.3,1.4,1.3,2.6c0,0.7-0.2,1.3-0.5,1.9c-0.4,0.5-0.8,0.9-1.4,1.1v0.1
			c0.8,0.2,1.5,0.6,2,1.1s0.7,1.3,0.7,2.2c0,1.3-0.5,2.3-1.4,3s-2.2,1-3.8,1H6.2V4.6z M10.3,10.4c2,0,3-0.7,3-2.1
			c0-0.7-0.2-1.2-0.7-1.5c-0.5-0.3-1.2-0.5-2.2-0.5H8.4v4.1H10.3z M10.6,16.8c1.1,0,2-0.2,2.5-0.6c0.6-0.4,0.9-1,0.9-1.9
			c0-1.5-1.1-2.3-3.4-2.3H8.4v4.7H10.6z"/>
	</g>
</g>
</svg>
