<?xml version="1.0" encoding="utf-8"?>
<!-- Generator: Adobe Illustrator 19.1.0, SVG Export Plug-In . SVG Version: 6.00 Build 0)  -->
<svg version="1.1" id="Layer_1" xmlns="http://www.w3.org/2000/svg" xmlns:xlink="http://www.w3.org/1999/xlink" x="0px" y="0px"
	 viewBox="0 0 493.7 234.3" enable-background="new 0 0 493.7 234.3" xml:space="preserve" preserveAspectRatio="none">
<g>
	<defs>
		<rect id="SVGID_1797_" x="0" y="0.5" width="493.7" height="233.8"/>
	</defs>
	<clipPath id="SVGID_2_">
		<use xlink:href="#SVGID_1797_"  overflow="visible"/>
	</clipPath>
	
		<linearGradient id="SVGID_3_" gradientUnits="userSpaceOnUse" x1="-5095.3154" y1="3899.1272" x2="-4861.5562" y2="3899.1272" gradientTransform="matrix(4.489700e-011 -1 1 4.489700e-011 -3651.6707 -4861.0562)">
		<stop  offset="5.102041e-003" style="stop-color:#F1F2F2"/>
		<stop  offset="1" style="stop-color:#E6E7E8"/>
	</linearGradient>
	<rect x="0" y="0.5" clip-path="url(#SVGID_2_)" fill="url(#SVGID_3_)" width="494.9" height="233.8"/>
	<g clip-path="url(#SVGID_2_)">
		
			<ellipse transform="matrix(1 -3.963841e-003 3.963841e-003 1 -0.5958 1.1965)" fill="#90C66C" cx="301.6" cy="150.9" rx="529.1" ry="137.5"/>
		<path fill="#7DB25A" d="M329.5,190.7c-2.6-4.1-6.1-7.7-10.2-10.4c2,0.4,3.9,1,5.7,2c1.7,1,3.2,2.6,3.8,4.5
			c-0.1-2.5,0.5-5.1,1.9-7.3c-0.5,2.3-0.2,4.7,0.7,6.8c1.7-1.7,3.7-3,5.9-4.1c-1.6,1.1-1.9,3.4-1.9,5.4c1-0.5,2-0.7,3.1-0.8
			c-0.8,1.4-1.1,3.1-0.8,4.7c0.1-0.3,0.1-0.7,0.2-1"/>
		<path fill="#7DB25A" d="M432.8,144c-2-4.6-4-9.2-6-13.8c1.6,0.6,3.1,1.6,4.3,2.8c0.6-1.9,1.5-3.7,2.6-5.3c-0.4,0.2,0,0.9,0.5,0.8
			s0.7-0.6,0.8-1c0.2-0.4,0.5-0.9,0.9-0.9c0.4,0.9-0.3,1.9-0.6,2.9c-0.3,1,0.3,2.5,1.3,2c-0.9,0.9-1.2,2.2-0.9,3.4
			c0.8-0.1,1.6-0.2,2.5-0.3c-1.9,2-2.5,5.2-1.4,7.8"/>
		<path fill="#7DB25A" d="M294,122.4c0.7-1.9,3.2-3.1,1.9-4.6c-1.5-1.7-3.1-3.4-4.6-5c1.5,1.1,2.9,2.5,3.9,4.1
			c0.2-0.9,0.4-1.7,0.6-2.6c-0.1,0.8,0.5,1.7,1.4,1.7c0.8,0.1,1.6-0.7,1.6-1.5c-0.1,1.2,0.1,2.5,0.6,3.6c0.9-3.9,3.2-7.4,6.3-9.8
			c-1.8,2.5-2.8,5.7-2.7,8.9c0.7,0.1,1.3-0.6,1.3-1.2c0.1,0.6,1.1,0.7,1.3,0.2c-0.1,0.6-0.1,1.1-0.2,1.7c0.8,0.1,1.5,0.2,2.3,0.3
			c-0.6,0.8,0,2,0.6,2.7"/>
		<path fill="#7DB25A" d="M124,209.2c0.7-1.9,3.2-3.1,1.9-4.6c-1.5-1.7-3.1-3.4-4.6-5c1.5,1.1,2.9,2.5,3.9,4.1
			c0.2-0.9,0.4-1.7,0.6-2.6c-0.1,0.8,0.5,1.7,1.4,1.7c0.8,0.1,1.6-0.7,1.6-1.5c-0.1,1.2,0.1,2.5,0.6,3.6c0.9-3.9,3.2-7.4,6.3-9.8
			c-1.8,2.5-2.8,5.7-2.7,8.9c0.7,0.1,1.3-0.6,1.3-1.2c0.1,0.6,1.1,0.7,1.3,0.2c-0.1,0.6-0.1,1.1-0.2,1.7c0.8,0.1,1.5,0.2,2.3,0.3
			c-0.6,0.8,0,2,0.6,2.7"/>
		<path fill="#7DB25A" d="M75.3,72.9c-2.2-3.2-3.7-6.8-4.6-10.6c0.8,1.4,1.6,2.7,2.5,4.1c0.6-1.3,1-2.7,1-4.1
			c0.6,0.9,0.7,2.1,0.2,3.1c1-0.4,1.9-1,2.4-1.9c0.1,1,0.1,2.1-0.1,3.1c0.6,0,1.2,0,1.8,0.1c-0.1,1.6,0.2,3.3,1,4.8"/>
		<path fill="#7DB25A" d="M223.3,94.2c2.3-3-0.3-6.8-1-9.9c0.8,1.4,1.6,2.7,2.5,4.1c0.6-1.3,1-2.7,1-4.1c0.6,0.9,0.7,2.1,0.2,3.1
			c0.9-0.3,1.7-1,2.4-1.7c-1.5,1.7,2.1,4.6,4,1.9c-0.9,1.6-0.2,3.9,1.5,4.7"/>
		<path fill="#7DB25A" d="M8.3,139.1c3.1-2,4.3-6.5,2.7-9.8c1.1,1.8,1.9,3.7,2.6,5.7c0.4-0.9,1.2-1.6,2.1-2c0.1,1.1,0.1,2.2,0,3.4
			c1.1-0.7,2.2-1.3,3.2-2c-0.5,0.7-0.3,1.8,0.4,2.2c0.7,0.4,1.8,0.1,2.2-0.7c1.5,1.1,3,2,4.6,2.9"/>
		<path fill="#7DB25A" d="M357.3,47c-1.6-2.1-2.8-4.5-3.3-7.1c0.6,1.5,1.5,2.8,2.7,4c0.5-1.2,1.1-2.4,1.6-3.6
			c0.3,0.7,0.6,1.4,0.9,2.1c0.9-0.9,1.7-1.8,2.6-2.8c-0.5,0.6-0.4,1.7,0.2,2.2s1.7,0.5,2.2-0.2c-0.4,0.8-0.7,1.7-0.6,2.6
			c0.1,0.9,0.9,1.8,1.8,1.6"/>
	</g>
	<use xlink:href="#SVGID_1797_"  overflow="visible" fill="none" stroke="#BCBEC0" stroke-miterlimit="10"/>
</g>
</svg>
