<?xml version="1.0" encoding="utf-8"?>
<!-- Generator: Adobe Illustrator 19.1.0, SVG Export Plug-In . SVG Version: 6.00 Build 0)  -->
<svg version="1.1" id="Layer_1" xmlns="http://www.w3.org/2000/svg" xmlns:xlink="http://www.w3.org/1999/xlink" x="0px" y="0px"
	 viewBox="0 0 72.7 36.4" enable-background="new 0 0 72.7 36.4" xml:space="preserve">
<g>
	<ellipse opacity="0.33" fill="#A7A9AC" cx="36.3" cy="20.5" rx="36.3" ry="10.3"/>
	<g>
		<g>
			<path fill="#A7A9AC" d="M56.2,25.4L13,18.7l0.2,3.4c0,0.7,0.7,1.3,1,1.3l42.5,5.8c0.4,0.1,0.9-0.2,1.2-0.8l4.9-9.5
				c0.3-0.5,0.4-1.3,0.3-2.2L63,14.6l-5.3,9.9C57.3,25.2,56.8,25.5,56.2,25.4z"/>
			<g>
				<g>
					<g>
						<path d="M55.7,27.1c-0.2,0-0.3,0-0.5,0l-40.5-5.8c-0.7-0.1-1.2-0.4-1.4-0.8c-0.1-0.3-0.1-0.5,0-0.8L18.4,9
							c0.3-0.6,1.1-0.9,2-0.9c0.2,0,0.3,0,0.5,0l40.5,5.8c0.7,0.1,1.2,0.4,1.4,0.8c0.1,0.3,0.1,0.5,0,0.8l-0.7,1.5l-0.1,0
							c-0.2,0.1-0.3,0.2-0.4,0.3c-0.1,0.1,0,0.2,0,0.3l0.1,0.1l-3,6.2l-0.1,0c-0.2,0.1-0.3,0.2-0.4,0.3c-0.1,0.1,0,0.2,0,0.3
							l0.1,0.1l-0.8,1.6C57.5,26.7,56.6,27.1,55.7,27.1L55.7,27.1z"/>
						<path fill="#414042" d="M20.5,8.2c0.1,0,0.3,0,0.4,0L61.5,14c1,0.1,1.5,0.7,1.3,1.3l-0.7,1.4c-0.2,0.1-0.4,0.2-0.5,0.4
							c-0.1,0.2-0.1,0.4,0.1,0.5l-2.9,6c-0.2,0.1-0.4,0.2-0.5,0.4s-0.1,0.4,0.1,0.5l-0.7,1.5c-0.2,0.5-1,0.8-1.8,0.8
							c-0.1,0-0.3,0-0.4,0l-40.5-5.8c-1-0.1-1.5-0.7-1.3-1.3l5.2-10.8C18.9,8.6,19.7,8.2,20.5,8.2 M20.5,7.8c-1,0-1.9,0.4-2.3,1.1
							L13,19.6c-0.2,0.3-0.2,0.7,0,1c0.3,0.5,0.8,0.8,1.6,0.9l40.5,5.8c0.2,0,0.3,0,0.5,0c1,0,1.9-0.4,2.3-1.1l0.7-1.5l0.1-0.3
							l-0.2-0.2c0-0.1,0.1-0.2,0.3-0.3L59,24l0.1-0.2l2.9-6l0.1-0.3l-0.2-0.2c0-0.1,0.1-0.2,0.3-0.3l0.2-0.1l0.1-0.2l0.7-1.4
							c0.2-0.3,0.2-0.7,0-1c-0.3-0.5-0.8-0.8-1.6-0.9L21,7.8C20.8,7.8,20.6,7.8,20.5,7.8L20.5,7.8z"/>
					</g>
					<g>
						<path fill="#1CA36D" d="M42.2,20.1c-0.6,0.4-2.2,0.5-2.9,0.2c-0.7-0.3-1.3-1-0.8-1.4c0.4-0.3,0.9-0.7,0.7-0.8l-5.1-2.3
							c-0.2-0.1-0.7,0.3-1.2,0.6c-0.6,0.4-1.9,0.2-2.6-0.1c-0.7-0.3-0.9-1.2-0.4-1.6c1.4-1,4.4-1.3,6.2-0.5l5.1,2.3
							C43.1,17.3,43.6,19.1,42.2,20.1z"/>
					</g>
					<g>
						<polygon opacity="0.56" fill="#939598" points="30,9.6 44.8,25.4 49.6,26.1 34.8,10.2 						"/>
					</g>
					<g>
						<path opacity="0.56" fill="#939598" d="M53.9,26.7l1.4,0.2c0.1,0,0.1,0,0.2,0L40.7,11.1l-1.6-0.2L53.9,26.7z"/>
					</g>
				</g>
				<path fill="#414042" stroke="#58595B" stroke-width="0.178" stroke-miterlimit="10" d="M21,9.3c0.5,0.1,0.7,0.3,0.6,0.6
					s-0.6,0.5-1.1,0.4c-0.5-0.1-0.7-0.3-0.6-0.6C20,9.4,20.5,9.2,21,9.3z"/>
				<path fill="#414042" d="M29.5,9l-0.1,0.3c0,0.1-0.1,0.1-0.2,0.1l-3.1-0.4c-0.1,0-0.2-0.1-0.1-0.1l0.1-0.3c0-0.1,0.1-0.1,0.2-0.1
					l3.1,0.4C29.5,8.9,29.6,9,29.5,9z"/>
				<path fill="#414042" d="M29.2,23.6L29.1,24c0,0.1-0.1,0.1-0.2,0.1l-2.5-0.4c-0.1,0-0.1-0.1-0.1-0.2l0.1-0.4
					c0-0.1,0.1-0.1,0.2-0.1l2.5,0.4C29.2,23.4,29.3,23.5,29.2,23.6z"/>
				<path fill="#414042" d="M24.4,22.9l-0.1,0.3c0,0.1-0.1,0.2-0.3,0.2l-5.8-0.6c-0.1,0-0.2-0.1-0.2-0.2l0.1-0.3
					c0-0.1,0.1-0.2,0.3-0.2l5.8,0.6C24.4,22.7,24.5,22.8,24.4,22.9z"/>
				<path fill="#414042" d="M17.5,13.1l-1.4,2.8c0,0-0.1,0.1-0.1,0l-0.2,0c-0.1,0-0.1,0-0.1-0.1l1.4-2.8c0,0,0.1-0.1,0.1,0
					L17.5,13.1C17.4,13,17.5,13,17.5,13.1z"/>
			</g>
			
				<ellipse transform="matrix(0.9987 -5.005094e-002 5.005094e-002 0.9987 -1.1864 2.9855)" fill="#414042" cx="59" cy="25.2" rx="0.2" ry="0.6"/>
		</g>
	</g>
</g>
</svg>
