<?xml version="1.0" encoding="utf-8"?>
<!-- Generator: Adobe Illustrator 19.1.0, SVG Export Plug-In . SVG Version: 6.00 Build 0)  -->
<svg version="1.1" id="Layer_1" xmlns="http://www.w3.org/2000/svg" xmlns:xlink="http://www.w3.org/1999/xlink" x="0px" y="0px"
	 viewBox="0 0 21.3 24.1" enable-background="new 0 0 21.3 24.1" xml:space="preserve">
<g>
	<circle fill="#70ADB6" cx="10.7" cy="11.4" r="10.7"/>
	<g>
		<path fill="#FFFFFF" d="M7.9,18.2c-0.9-0.4-1.6-0.9-2.2-1.5L7,15.2c0.5,0.5,1.1,0.9,1.7,1.2s1.3,0.4,2,0.4c0.8,0,1.5-0.2,1.9-0.5
			s0.7-0.8,0.7-1.4c0-0.4-0.1-0.7-0.3-1s-0.4-0.5-0.7-0.6c-0.3-0.2-0.7-0.4-1.3-0.6l-1.9-0.8c-1.9-0.8-2.8-2-2.8-3.6
			c0-0.7,0.2-1.4,0.6-1.9s0.9-1,1.6-1.4c0.7-0.3,1.5-0.5,2.3-0.5c0.8,0,1.6,0.2,2.3,0.5c0.7,0.3,1.4,0.7,1.9,1.3l-1.1,1.4
			C13,6.7,12,6.3,10.8,6.3c-0.7,0-1.3,0.2-1.7,0.5S8.5,7.5,8.5,8.1c0,0.4,0.1,0.7,0.3,0.9C9,9.2,9.3,9.4,9.5,9.6
			c0.3,0.2,0.7,0.3,1.2,0.5l1.9,0.8c0.9,0.4,1.6,0.8,2.1,1.4c0.5,0.6,0.7,1.3,0.7,2.3c0,0.7-0.2,1.4-0.6,2s-1,1.1-1.7,1.5
			c-0.7,0.4-1.6,0.5-2.6,0.5C9.7,18.7,8.8,18.5,7.9,18.2z"/>
	</g>
</g>
</svg>
