<?xml version="1.0" encoding="utf-8"?>
<!-- Generator: Adobe Illustrator 19.1.0, SVG Export Plug-In . SVG Version: 6.00 Build 0)  -->
<svg version="1.1" xmlns="http://www.w3.org/2000/svg" xmlns:xlink="http://www.w3.org/1999/xlink" x="0px" y="0px"
	 viewBox="0 0 128.6 128.6" style="enable-background:new 0 0 128.6 128.6;" xml:space="preserve">
<style type="text/css">
	.st0{opacity:0.65;fill:#C3D7DC;}
	.st1{fill:#C3D7DC;}
	.st2{opacity:0.4;}
	.st3{fill:#FFFFFF;}
	.st4{fill:none;stroke:#FFFFFF;stroke-width:10;stroke-miterlimit:10;}
	.st5{fill:none;}
	.st6{opacity:0.65;}
	.st7{fill:none;stroke:#FFFFFF;stroke-width:2;stroke-miterlimit:10;}
	.st8{fill:#FFFFFF;stroke:#FFFFFF;stroke-width:2;stroke-miterlimit:10;}
	.st9{fill:#FFFFFF;stroke:#FFFFFF;stroke-miterlimit:10;}
	.st10{fill:none;stroke:#FFFFFF;stroke-width:1.9932;stroke-linecap:round;stroke-linejoin:round;stroke-miterlimit:10;}
	.st11{fill:none;stroke:#C3D7DC;stroke-miterlimit:10;}
</style>
<g id="Layer_1">
</g>
<g id="Layer_2">
</g>
<g id="Layer_3">
</g>
<g id="Layer_4">
</g>
<g id="Layer_5">
</g>
<g id="Layer_6">
</g>
<g id="Layer_7">
</g>
<g id="Layer_8">
</g>
<g id="Layer_9">
</g>
<g id="Layer_10">
</g>
<g id="Layer_11">
</g>
<g id="Layer_12">
</g>
<g id="Layer_13">
</g>
<g id="Layer_14">
	<g id="XMLID_457_">
		<g id="XMLID_458_">
			<polygon id="XMLID_460_" class="st0" points="113.2,116 100.6,128.2 0.3,128.2 0.3,0 128.6,0 128.6,100.9 			"/>
			<path id="XMLID_459_" class="st1" d="M100.6,129.8c0,0,27.9-27.4,27.9-27.3s-27.8-2-34.1-5.1C94.5,97.4,101.7,121.6,100.6,129.8z
				"/>
		</g>
	</g>
	<g id="כיווץ_שריר_הלב_1_" class="st2">
		<path id="XMLID_308_" class="st7" d="M44.8,16.1c12.7,0,23,10.2,23.2,22.8c0,0,0,0,0,0c0.2-12.7,10.5-22.8,23.2-22.8
			c12.8,0,23.2,10.4,23.2,23.2c0,12.8-46.3,46.1-46.3,46.1S21.6,52.1,21.6,39.3S32,16.1,44.8,16.1z"/>
		<path id="XMLID_307_" class="st9" d="M49.7,59.2c2.4-6.5,11.2-7.5,14.8-2.7c1.4,1.9,3,2.3,4.9,2.2c2.5-0.1,4,0.7,4.8,2.9
			c0.3,0.8,0.8,1.6,1.3,2.4c0.2,0,0.4,0,0.6-0.1c0.4-5.8,0.7-11.6,1.1-17.5c0.1,0,0.1,0,0.2,0c0.2,5.3,0.5,10.6,0.7,15.9
			c0.2,0,0.4,0.1,0.6,0.1c0.4-0.7,0.9-1.3,1.1-2c0.3-1,0.9-1.3,2-1.2c1.3,0.2,2.1-0.2,3.1-1.2c2.7-2.9,3.2-2.8,5.9,0.3
			c0.6,0.7,1.1,1,2,1c1.7-0.1,3.5,0,5.4-0.3c-0.2-0.2-0.4-0.5-0.7-0.5c-0.4-0.1-0.9-0.1-1.3,0c-2.4,0.1-4.5,0.1-6.1-2.1
			c-1.3-1.8-2.7-1.6-4.5-0.1c-0.4,0.3-0.8,0.7-1.1,1.1c-0.7,0.8-1.5,1.2-2.7,1.2c-0.9,0-1.8,0.5-2.8,0.7c-0.3-8.3-0.7-17-1-25.6
			c-0.2,0-0.5,0-0.7,0c-0.2,1.8-0.4,3.5-0.5,5.3c-0.1,1.8-0.2,3.7-0.3,5.5c-0.1,1.9-0.2,3.8-0.3,5.7c-0.1,1.8-0.2,3.7-0.3,5.5
			c-0.1,1.9-0.2,3.7-0.7,5.7c-0.3-0.5-0.7-1.1-0.9-1.6c-0.4-1.2-1.2-1.7-2.5-1.7c-0.6,0-1.2-0.1-1.8-0.1c-1.9,0-3.4-0.3-4.7-2
			c-3.7-4.6-12-4.4-15.5,1.2c-0.8,1.3-1.6,1.4-2.8,0.7c-2.3-1.3-4.5-1.3-6.7,0.2c-0.7,0.4-1.6,0.6-2.4,0.7c-0.9,0.1-1.8,0-3,0
			c1.1,1,4.2,1.2,5.2,0.5c2.3-1.7,4.5-1.9,7-0.3C47.7,59.4,48.7,59.1,49.7,59.2z"/>
	</g>
</g>
</svg>
