<?xml version="1.0" encoding="utf-8"?>
<!-- Generator: Adobe Illustrator 19.1.0, SVG Export Plug-In . SVG Version: 6.00 Build 0)  -->
<svg version="1.1" xmlns="http://www.w3.org/2000/svg" xmlns:xlink="http://www.w3.org/1999/xlink" x="0px" y="0px"
	 viewBox="0 0 128.6 128.6" style="enable-background:new 0 0 128.6 128.6;" xml:space="preserve">
<style type="text/css">
	.st0{opacity:0.65;fill:#C3D7DC;}
	.st1{fill:#C3D7DC;}
	.st2{opacity:0.4;}
	.st3{fill:#FFFFFF;}
	.st4{fill:none;stroke:#FFFFFF;stroke-width:10;stroke-miterlimit:10;}
	.st5{fill:none;}
	.st6{opacity:0.65;}
	.st7{fill:none;stroke:#FFFFFF;stroke-width:2;stroke-miterlimit:10;}
	.st8{fill:#FFFFFF;stroke:#FFFFFF;stroke-width:2;stroke-miterlimit:10;}
	.st9{fill:#FFFFFF;stroke:#FFFFFF;stroke-miterlimit:10;}
	.st10{fill:none;stroke:#FFFFFF;stroke-width:1.9932;stroke-linecap:round;stroke-linejoin:round;stroke-miterlimit:10;}
	.st11{fill:none;stroke:#C3D7DC;stroke-miterlimit:10;}
</style>
<g id="Layer_1">
</g>
<g id="Layer_2">
</g>
<g id="Layer_3">
</g>
<g id="Layer_4">
</g>
<g id="Layer_5">
</g>
<g id="Layer_6">
</g>
<g id="Layer_7">
</g>
<g id="Layer_8">
</g>
<g id="Layer_9">
</g>
<g id="Layer_10">
</g>
<g id="Layer_11">
</g>
<g id="Layer_12">
	<g id="XMLID_397_">
		<g id="XMLID_398_">
			<polygon id="XMLID_400_" class="st0" points="113.2,116 100.6,128.2 0.3,128.2 0.3,0 128.6,0 128.6,100.9 			"/>
			<path id="XMLID_399_" class="st1" d="M100.6,129.8c0,0,27.9-27.4,27.9-27.3s-27.8-2-34.1-5.1C94.5,97.4,101.7,121.6,100.6,129.8z
				"/>
		</g>
	</g>
	<g id="דופק" class="st2">
		<path id="XMLID_201_" class="st7" d="M86,18.7c-11.7,0-21.3,9.4-21.5,21.1l0,0C64.3,28.1,54.7,18.7,43,18.7
			c-11.9,0-21.5,9.6-21.5,21.5c0,11.8,42.8,42.6,42.8,42.6s43.2-30.7,43.2-42.6S97.8,18.7,86,18.7z"/>
		<polyline id="XMLID_200_" class="st7" points="100.7,51.3 84.4,52.3 76.9,66 70.9,42.6 68.2,67.2 63.7,54 57.7,69.4 53,48.7 
			48.6,61.9 42.2,52.5 27.5,52.1 		"/>
	</g>
</g>
<g id="Layer_13">
</g>
<g id="Layer_14">
</g>
</svg>
