<?xml version="1.0" encoding="utf-8"?>
<!-- Generator: Adobe Illustrator 19.1.0, SVG Export Plug-In . SVG Version: 6.00 Build 0)  -->
<svg version="1.2" baseProfile="tiny" id="Layer_1" xmlns="http://www.w3.org/2000/svg" xmlns:xlink="http://www.w3.org/1999/xlink"
	 x="0px" y="0px" viewBox="0 0 33 33" xml:space="preserve">
<path fill="#0F2849" d="M19.6,16.5L32.4,3.7c0.9-0.9,0.9-2.2,0-3.1c-0.9-0.9-2.2-0.9-3.1,0L16.5,13.4L3.7,0.6
	c-0.9-0.9-2.2-0.9-3.1,0c-0.9,0.9-0.9,2.2,0,3.1l12.8,12.8L0.6,29.3c-0.9,0.9-0.9,2.2,0,3.1c0.4,0.4,1,0.6,1.5,0.6s1.1-0.2,1.5-0.6
	l12.8-12.8l12.8,12.8c0.4,0.4,1,0.6,1.5,0.6c0.6,0,1.1-0.2,1.5-0.6c0.9-0.9,0.9-2.2,0-3.1L19.6,16.5z"/>
</svg>
