<?xml version="1.0" encoding="utf-8"?>
<!-- Generator: Adobe Illustrator 19.1.0, SVG Export Plug-In . SVG Version: 6.00 Build 0)  -->
<svg version="1.1" id="Layer_1" xmlns="http://www.w3.org/2000/svg" xmlns:xlink="http://www.w3.org/1999/xlink" x="0px" y="0px"
	 viewBox="-280.1 372.6 82.1 97.7" style="enable-background:new -280.1 372.6 82.1 97.7;" xml:space="preserve">
<style type="text/css">
	.st0{fill:#B0CEB2;}
	.st1{fill:#4D7582;}
</style>
<g>
	<g>
		<defs>
			<rect id="SVGID_1_" x="-544.7" y="215.7" width="233.8" height="213.1"/>
		</defs>
		<clipPath id="SVGID_2_">
			<use xlink:href="#SVGID_1_"  style="overflow:visible;"/>
		</clipPath>
	</g>
</g>
<g>
	<polygon class="st0" points="-225.5,465.5 -236.4,470 -280.1,459.7 -258.5,372.6 -198,387.6 -216.3,461.6 	"/>
	<path class="st1" d="M-237,470.3l20.7-8.5l-14.5-8.4C-230.8,453.4-229.3,463.2-237,470.3z"/>
	<g>
		<path class="st1" d="M-251.2,438.8c-0.4-1.1-0.3-2.3,0.1-3.5c0.6-1.3,1.4-2.1,2.4-2.6c1.1-0.4,2.3-0.4,3.3,0
			c1.1,0.4,1.8,1.3,2.3,2.4c0.4,1.1,0.3,2.3-0.1,3.5c-0.6,1.3-1.3,2.1-2.4,2.6c-1.1,0.4-2.1,0.4-3.3,0S-250.9,439.9-251.2,438.8z
			 M-245.4,425.3c0.9-1.8,1.8-3.4,3.3-4.4c1.4-1.1,3.1-2.3,5.4-3.4c1.7-0.9,3.1-1.7,4.1-2.4s1.7-1.7,2.3-2.8c0.7-1.6,0.7-3,0.3-4.3
			c-0.4-1.3-1.6-2.4-3.1-3c-2.3-1-4.8-0.9-7.7,0.6l-2-4.7c4.4-2.1,8.5-2.3,12.3-0.6c3,1.3,5.1,3.3,6.1,5.7c1.1,2.6,1,5.2-0.4,8.4
			c-0.7,1.6-1.7,3-3,3.8c-1.3,1-3,2-5.1,3.1c-2.1,1-3.7,2-5,3c-1.3,1-2.3,2.3-2.8,3.8c-0.1,0.4-0.3,0.9-0.4,1.1l-5.1-2.3
			C-245.6,426.2-245.5,425.6-245.4,425.3z"/>
	</g>
</g>
</svg>
