<?xml version="1.0" encoding="utf-8"?>
<!-- Generator: Adobe Illustrator 19.1.0, SVG Export Plug-In . SVG Version: 6.00 Build 0)  -->
<svg version="1.1" id="Layer_1" xmlns="http://www.w3.org/2000/svg" xmlns:xlink="http://www.w3.org/1999/xlink" x="0px" y="0px"
	 viewBox="-260 398.3 73.3 44.6" style="enable-background:new -260 398.3 73.3 44.6;" xml:space="preserve">
<style type="text/css">
	.st0{fill:#9ACFDA;}
	.st1{fill:#4D7582;}
	.st2{enable-background:new    ;}
	.st3{fill:#FFFFFF;}
	.st4{fill:none;stroke:#4D7582;stroke-width:2;stroke-linecap:round;stroke-miterlimit:10;}
</style>
<g>
	<g>
		<polygon class="st0" points="-190.8,439.2 -195.5,442.7 -217.8,442.9 -217.8,398.3 -186.8,398.3 -186.7,436.3 		"/>
		<path class="st1" d="M-195.7,442.9l9-6.6l-8-2.2C-194.7,434-192.9,438.5-195.7,442.9z"/>
		<g>
			<g class="st2">
				<path class="st1" d="M-205.1,422.2c0.2-1,0.5-1.8,1.1-2.5c0.5-0.7,1.3-1.5,2.2-2.3c0.7-0.6,1.3-1.2,1.7-1.7
					c0.4-0.5,0.6-1,0.7-1.6c0.1-0.8,0-1.5-0.4-2.1c-0.4-0.6-1-1-1.9-1.1c-1.2-0.2-2.4,0.2-3.6,1.2l-1.5-1.9c1.9-1.5,3.8-2.1,5.9-1.8
					c1.6,0.3,2.8,0.9,3.7,2c0.8,1.1,1.1,2.4,0.8,4.1c-0.1,0.9-0.5,1.6-0.9,2.2c-0.5,0.6-1.2,1.3-2.1,2.1c-0.9,0.7-1.6,1.4-2,2
					c-0.5,0.6-0.8,1.3-0.9,2.2c0,0.3-0.1,0.4-0.1,0.6l-2.7-0.5C-205.2,422.7-205.2,422.4-205.1,422.2z M-206.4,429.4
					c-0.3-0.5-0.4-1.1-0.3-1.7c0.1-0.7,0.4-1.2,0.9-1.5c0.5-0.4,1-0.5,1.6-0.4s1.1,0.4,1.4,0.9c0.3,0.5,0.4,1.1,0.3,1.7
					c-0.1,0.7-0.4,1.2-0.9,1.5c-0.5,0.4-1,0.5-1.6,0.4C-205.6,430.2-206,429.9-206.4,429.4z"/>
			</g>
		</g>
	</g>
	<g>
		<g>
			<polygon class="st3" points="-259,405.4 -251,399.5 -229.9,399.3 -229.9,441.9 -259,441.9 			"/>
			<path class="st0" d="M-230.9,400.3v40.5l-27.1,0.1v-35l3.2-2.4l4.2-3.1L-230.9,400.3 M-228.9,398.3l-22.4,0.2l-4.7,3.5l-4,3v38
				h31.1V398.3L-228.9,398.3z"/>
		</g>
		<path class="st0" d="M-250.1,399.9l-9,6.6l8,2.2C-251.1,408.7-253,404.2-250.1,399.9z"/>
		<g>
			<g class="st2">
				<path class="st1" d="M-247.5,429.8c-0.3-0.5-0.4-1.1-0.3-1.7s0.4-1.2,0.9-1.5c0.5-0.4,1-0.5,1.6-0.4s1.1,0.4,1.4,0.9
					c0.3,0.5,0.4,1.1,0.3,1.7c-0.1,0.7-0.4,1.2-0.9,1.5c-0.5,0.4-1,0.5-1.6,0.4C-246.7,430.6-247.2,430.3-247.5,429.8z
					 M-244.5,412.2l0.5-3.3l3.1,0.5l-0.7,3.3l-2.3,11.3l-2.1-0.4L-244.5,412.2z"/>
			</g>
		</g>
	</g>
	<g>
		<g>
			<line class="st4" x1="-219.8" y1="420.6" x2="-224.7" y2="420.6"/>
			<g>
				<polygon class="st1" points="-224.2,424.2 -224.2,417 -227.8,420.6 				"/>
			</g>
		</g>
	</g>
</g>
</svg>
