<?xml version="1.0" encoding="utf-8"?>
<!-- Generator: Adobe Illustrator 19.1.0, SVG Export Plug-In . SVG Version: 6.00 Build 0)  -->
<svg version="1.1" id="Layer_1" xmlns="http://www.w3.org/2000/svg" xmlns:xlink="http://www.w3.org/1999/xlink" x="0px" y="0px"
	 viewBox="-246 373.5 101.9 95.4" style="enable-background:new -246 373.5 101.9 95.4;" xml:space="preserve">
<style type="text/css">
	.st0{fill:#FFFFFF;}
	.st1{fill:#FFFFFF;stroke:#FFFFFF;stroke-width:0.9528;stroke-miterlimit:10;}
	.st2{fill:none;}
	.st3{fill:#FFFFFF;stroke:#FFFFFF;stroke-width:1.5101;stroke-miterlimit:10;}
</style>
<g>
	<g>
		<g>
			<g>
				<path class="st0" d="M-158.7,399.3L-158.7,399.3l9.9,0.5c1.5,0.1,2.7,1.4,2.6,2.9l-0.1,1.5c-0.1,1.5-1.3,2.6-2.8,2.6h-0.1
					l-9.8-0.5c-1.5-0.1-2.7-1.4-2.6-2.9l0.1-1.5C-161.4,400.4-160.2,399.3-158.7,399.3 M-158.7,397.3L-158.7,397.3
					c-2.6,0-4.7,2-4.8,4.5l-0.1,1.5c-0.1,2.6,1.9,4.9,4.5,5l9.8,0.5c0.1,0,0.2,0,0.2,0c2.6,0,4.7-2,4.8-4.5l0.1-1.5
					c0.1-1.3-0.4-2.5-1.2-3.5s-2-1.5-3.3-1.6l-9.8-0.5C-158.5,397.3-158.6,397.3-158.7,397.3L-158.7,397.3z"/>
			</g>
			<g>
				<path class="st1" d="M-149.2,399.8l-3.8-0.2l-0.4,7.1l3.8,0.2c1.8,0.1,3.3-1.4,3.4-3.4S-147.4,399.9-149.2,399.8z"/>
			</g>
		</g>
		<g>
			<g>
				<path class="st0" d="M-154.2,375.5c0.1,0,0.2,0,0.3,0l1.5,0.1c1.5,0.1,2.7,1.5,2.5,3l-0.8,9.9c-0.1,1.4-1.3,2.5-2.8,2.5
					c-0.1,0-0.2,0-0.3,0l-1.5-0.1c-1.5-0.1-2.7-1.5-2.5-3l0.9-9.8C-156.8,376.6-155.6,375.5-154.2,375.5 M-154.2,373.5L-154.2,373.5
					c-2.5,0-4.5,1.9-4.8,4.4l-0.9,9.8c-0.1,1.3,0.3,2.5,1.1,3.5s2,1.6,3.2,1.7l1.5,0.1c0.1,0,0.3,0,0.4,0c2.5,0,4.5-1.9,4.8-4.4
					l0.9-9.8c0.2-2.6-1.7-5-4.3-5.2l-1.4-0.1C-153.9,373.5-154,373.5-154.2,373.5L-154.2,373.5z"/>
			</g>
			<g>
				<path class="st1" d="M-150.7,388l0.3-3.7l-7.1-0.6l-0.3,3.7c-0.2,1.8,1.3,3.4,3.2,3.5C-152.6,391.1-150.9,389.8-150.7,388z"/>
			</g>
		</g>
		<path class="st2" d="M-178.7,424.6l4.3-4.3l-23-23l-4.3,4.3c-3.5-1.6-6.3-2.1-7.2-1.1c-0.3,0.2-31.9,31.9-32.3,32.3
			c-2.8,2.8,2,12,10.7,20.7c8.7,8.7,17.9,13.4,20.7,10.7c0.4-0.4,32-32,32.3-32.3C-176.6,430.9-177.1,428.1-178.7,424.6z"/>
		<path class="st3" d="M-181.8,437.4l-0.2,0.2c-1.7,1.7-11.2-4.2-19.8-12.8s-14.7-18-12.9-19.7l-14.8,16.4l0.3,0.3
			c-0.2,2.8,5,10.2,12.7,17.9c7.7,7.7,15.1,12.8,17.8,12.6l0.3,0.3L-181.8,437.4z"/>
		<g>
			<path class="st0" d="M-197.4,397.3l23,23l-4.3,4.3c1.6,3.5,2.1,6.2,1.2,7.1c-0.3,0.3-31.9,31.9-32.3,32.3
				c-0.5,0.5-1.3,0.8-2.3,0.8c-4,0-11.4-4.5-18.4-11.4c-8.7-8.6-13.5-17.9-10.7-20.6c0.4-0.4,32-32,32.3-32.3
				c0.3-0.3,0.8-0.5,1.5-0.5c1.3,0,3.3,0.6,5.6,1.6L-197.4,397.3 M-197.4,391.6l-2.8,2.9l-2.5,2.5c-1.8-0.6-3.3-0.9-4.7-0.9
				c-2.2,0-3.6,0.9-4.4,1.6c-0.2,0.2-31.8,31.8-32.2,32.2c-5.8,5.8,2.1,17.8,10.7,26.3c6.1,6.1,14.9,12.6,21.2,12.6
				c2.6,0,4.2-1.1,5.1-2c0.4-0.4,32-32,32.3-32.3c1.9-1.9,2.1-4.9,0.7-9l2.5-2.5l2.8-2.8l-2.8-2.8l-23-23L-197.4,391.6L-197.4,391.6
				z"/>
		</g>
		<g>
			<path class="st0" d="M-195.6,386.9l-3.6,3.1c-1.3,1.3,2.9,10.9,11.6,19.6c8.7,8.7,18.7,13.3,20,12l3.6-3.1L-195.6,386.9z"/>
			<g>
				<path class="st0" d="M-167.7,418c-3.9,0-13.8-9.7-15.7-11.6c-14.3-14.3-11.8-16.8-10.9-17.7c0.5-0.5,1.1-0.7,1.8-0.7
					c3.9,0,13.8,9.7,15.7,11.6c3.5,3.5,6.6,7,8.7,9.9c2.5,3.4,3.9,6,2.2,7.7C-166.3,417.7-167,418-167.7,418z"/>
				<path class="st0" d="M-192.5,390c1.9,0,7.9,4.6,14.3,11c7.1,7.1,12,13.7,10.9,14.8c-0.1,0.1-0.2,0.1-0.4,0.1
					c-1.9,0-7.9-4.6-14.3-11c-7.1-7.1-12-13.7-10.9-14.8C-192.8,390.1-192.7,390-192.5,390 M-192.5,386L-192.5,386L-192.5,386
					c-1.3,0-2.4,0.5-3.3,1.3c-3.2,3.2,0.2,7.8,2,10.3c2.2,2.9,5.3,6.5,8.9,10.1c5.6,5.6,13.1,12.2,17.2,12.2c1.3,0,2.4-0.5,3.3-1.3
					c3.2-3.2-0.2-7.8-2-10.3c-2.2-2.9-5.3-6.5-8.9-10.1C-180.9,392.7-188.4,386-192.5,386L-192.5,386z"/>
			</g>
		</g>
	</g>
</g>
</svg>
