<svg id="b06ac386-868c-4551-a7fe-6e0f721c27a9" data-name="Layer 1" xmlns="http://www.w3.org/2000/svg" viewBox="0 0 112.17716 46.27669"><defs><style>.b7810c5b-dd3e-4791-86c4-1f3cb27cc0ce{fill:#ef5b5b;}.b4b97d31-3e66-4e7f-969d-06c23ff4a567,.b9064d6c-7ac6-46ef-920d-cfc3d5b8a832,.fafb6eb2-b16f-44e3-afca-edc2ff3d976d{fill:none;stroke-linecap:round;}.fafb6eb2-b16f-44e3-afca-edc2ff3d976d{stroke:#ef5b5b;stroke-width:1.99323px;}.b7d75282-9a3c-41a1-b017-336ae2944e8f,.bd395e82-ce75-4f57-ab09-a927d254b8b2,.fafb6eb2-b16f-44e3-afca-edc2ff3d976d{stroke-linejoin:round;}.bd5c271b-037d-496f-85fb-c9f7740acc16{fill:#fff;}.b4e5220b-5513-40d9-9ad3-3efaa3eea5fd{fill:#808285;}.b476039c-25dc-4ec7-8aa2-21d7ed5fea37{fill:#4d7582;}.f385ad16-5c0d-4527-b6d5-4435f37370ea{fill:#d2d4d5;}.b4b97d31-3e66-4e7f-969d-06c23ff4a567,.b9064d6c-7ac6-46ef-920d-cfc3d5b8a832{stroke:#4d7582;stroke-miterlimit:10;}.b9064d6c-7ac6-46ef-920d-cfc3d5b8a832{stroke-width:0.66441px;}.b4b97d31-3e66-4e7f-969d-06c23ff4a567{stroke-width:0.38743px;}.e02ac01c-1c9c-4a4e-8855-13cfe5b30a2a{fill:#b0ceb2;}.b7d75282-9a3c-41a1-b017-336ae2944e8f{fill:#4e7582;stroke:#4e7582;stroke-width:1.14071px;}.bd395e82-ce75-4f57-ab09-a927d254b8b2{fill:#231f20;stroke:#231f20;stroke-width:1.40358px;}</style></defs><title>Artboard 19</title><path class="b7810c5b-dd3e-4791-86c4-1f3cb27cc0ce" d="M99.80922,28.14062c6.5033-11.248,24.171,1.782.1223,18.11738l.00011.01853-.01327-.00914-.01307.0093-.00011-.01853C75.66158,30.2135,93.171,16.97176,99.80922,28.14062Z"/><path class="fafb6eb2-b16f-44e3-afca-edc2ff3d976d" d="M91.20507,35.875l-9.3687.035a.1754.1754,0,0,1-.1576-.11556l-1.28633-4.122c-.1189-.381-.26291-.36957-.32.02548l-1.01973,7.05576c-.08618.59632-.23266.59714-.32551.00182l-.72444-5.01138s-.039-.32527-.07355-.32638c-.03586-.00116-.08092.24518-.08092.24518l-.38679,2.13169a.17278.17278,0,0,1-.16016.12881l-16.9476.04644-.8176,0c-.67551.00292-2.16823.07358-2.16823.07358a.17277.17277,0,0,1-.16092-.12786l-.39938-2.12936s-.04651-.24607-.08237-.2447c-.03455.00131-.07161.32681-.07161.32681l-.69483,5.01558c-.08933.59585-.23581.5959-.32551.0001l-1.06736-9.06757c-.05943-.39472-.2035-.40533-.32015-.0236l-1.256,6.14751a.17542.17542,0,0,1-.15692.11649l-17.09983.035"/><rect class="bd5c271b-037d-496f-85fb-c9f7740acc16" width="39.47468" height="42.00187" rx="11.66493"/><path class="b4e5220b-5513-40d9-9ad3-3efaa3eea5fd" d="M11.414,2.746H28.0607a8.668,8.668,0,0,1,8.668,8.668V25.00556a4.6809,4.6809,0,0,1-4.6809,4.6809H7.42685a4.6809,4.6809,0,0,1-4.6809-4.6809V11.414A8.668,8.668,0,0,1,11.414,2.746Z"/><rect class="b476039c-25dc-4ec7-8aa2-21d7ed5fea37" x="22.54538" y="31.83605" width="11.04569" height="6.52667" rx="2.58775"/><rect class="f385ad16-5c0d-4527-b6d5-4435f37370ea" x="18.02647" y="5.96556" width="15.65155" height="19.33861" rx="3.94011"/><line class="b9064d6c-7ac6-46ef-920d-cfc3d5b8a832" x1="21.46726" y1="9.42654" x2="21.46726" y2="10.99813"/><line class="b9064d6c-7ac6-46ef-920d-cfc3d5b8a832" x1="21.46726" y1="11.62475" x2="21.46726" y2="13.19634"/><line class="b9064d6c-7ac6-46ef-920d-cfc3d5b8a832" x1="24.54978" y1="11.18897" x2="22.97819" y2="11.18897"/><line class="b9064d6c-7ac6-46ef-920d-cfc3d5b8a832" x1="24.54978" y1="9.42654" x2="22.97819" y2="9.42654"/><line class="b9064d6c-7ac6-46ef-920d-cfc3d5b8a832" x1="24.7818" y1="13.19634" x2="23.21022" y2="13.19634"/><line class="b9064d6c-7ac6-46ef-920d-cfc3d5b8a832" x1="24.7818" y1="9.42654" x2="24.7818" y2="10.99813"/><line class="b9064d6c-7ac6-46ef-920d-cfc3d5b8a832" x1="23.00062" y1="11.62475" x2="23.00062" y2="13.19634"/><line class="b9064d6c-7ac6-46ef-920d-cfc3d5b8a832" x1="26.29274" y1="9.42654" x2="26.29274" y2="10.99813"/><line class="b9064d6c-7ac6-46ef-920d-cfc3d5b8a832" x1="27.86432" y1="9.42654" x2="26.29274" y2="9.42654"/><line class="b9064d6c-7ac6-46ef-920d-cfc3d5b8a832" x1="27.86432" y1="13.19634" x2="26.29274" y2="13.19634"/><line class="b9064d6c-7ac6-46ef-920d-cfc3d5b8a832" x1="28.07392" y1="11.62475" x2="28.07392" y2="13.19634"/><line class="b9064d6c-7ac6-46ef-920d-cfc3d5b8a832" x1="28.07392" y1="9.42654" x2="28.07392" y2="10.99813"/><line class="b9064d6c-7ac6-46ef-920d-cfc3d5b8a832" x1="26.29274" y1="11.62475" x2="26.29274" y2="13.19634"/><line class="b9064d6c-7ac6-46ef-920d-cfc3d5b8a832" x1="26.29274" y1="14.97046" x2="26.29274" y2="16.54204"/><line class="b9064d6c-7ac6-46ef-920d-cfc3d5b8a832" x1="27.86432" y1="14.97046" x2="26.29274" y2="14.97046"/><line class="b9064d6c-7ac6-46ef-920d-cfc3d5b8a832" x1="27.86432" y1="18.74026" x2="26.29274" y2="18.74026"/><line class="b9064d6c-7ac6-46ef-920d-cfc3d5b8a832" x1="28.07392" y1="17.16867" x2="28.07392" y2="18.74026"/><line class="b9064d6c-7ac6-46ef-920d-cfc3d5b8a832" x1="28.07392" y1="14.97046" x2="28.07392" y2="16.54204"/><line class="b9064d6c-7ac6-46ef-920d-cfc3d5b8a832" x1="26.29274" y1="17.16867" x2="26.29274" y2="18.74026"/><line class="b9064d6c-7ac6-46ef-920d-cfc3d5b8a832" x1="23.05162" y1="14.97046" x2="23.05162" y2="16.54204"/><line class="b9064d6c-7ac6-46ef-920d-cfc3d5b8a832" x1="24.62321" y1="14.97046" x2="23.05162" y2="14.97046"/><line class="b9064d6c-7ac6-46ef-920d-cfc3d5b8a832" x1="24.62321" y1="16.81879" x2="23.05162" y2="16.81879"/><line class="b9064d6c-7ac6-46ef-920d-cfc3d5b8a832" x1="24.62321" y1="18.74026" x2="23.05162" y2="18.74026"/><line class="b9064d6c-7ac6-46ef-920d-cfc3d5b8a832" x1="24.83281" y1="17.16867" x2="24.83281" y2="18.74026"/><line class="b9064d6c-7ac6-46ef-920d-cfc3d5b8a832" x1="24.83281" y1="14.97046" x2="24.83281" y2="16.54204"/><line class="b9064d6c-7ac6-46ef-920d-cfc3d5b8a832" x1="23.05162" y1="17.16867" x2="23.05162" y2="18.74026"/><line class="b4b97d31-3e66-4e7f-969d-06c23ff4a567" x1="27.07901" y1="20.48611" x2="27.07901" y2="21.40252"/><line class="b4b97d31-3e66-4e7f-969d-06c23ff4a567" x1="27.99542" y1="20.48611" x2="27.07901" y2="20.48611"/><line class="b4b97d31-3e66-4e7f-969d-06c23ff4a567" x1="27.99542" y1="22.68432" x2="27.07901" y2="22.68432"/><line class="b4b97d31-3e66-4e7f-969d-06c23ff4a567" x1="28.11764" y1="21.76791" x2="28.11764" y2="22.68432"/><line class="b4b97d31-3e66-4e7f-969d-06c23ff4a567" x1="28.11764" y1="20.48611" x2="28.11764" y2="21.40252"/><line class="b4b97d31-3e66-4e7f-969d-06c23ff4a567" x1="27.07901" y1="21.76791" x2="27.07901" y2="22.68432"/><line class="b4b97d31-3e66-4e7f-969d-06c23ff4a567" x1="25.18908" y1="20.48611" x2="25.18908" y2="21.40252"/><line class="b4b97d31-3e66-4e7f-969d-06c23ff4a567" x1="26.10549" y1="20.48611" x2="25.18908" y2="20.48611"/><line class="b4b97d31-3e66-4e7f-969d-06c23ff4a567" x1="26.10549" y1="21.56389" x2="25.18908" y2="21.56389"/><line class="b4b97d31-3e66-4e7f-969d-06c23ff4a567" x1="26.10549" y1="22.68432" x2="25.18908" y2="22.68432"/><line class="b4b97d31-3e66-4e7f-969d-06c23ff4a567" x1="26.22771" y1="21.76791" x2="26.22771" y2="22.68432"/><line class="b4b97d31-3e66-4e7f-969d-06c23ff4a567" x1="26.22771" y1="20.48611" x2="26.22771" y2="21.40252"/><line class="b4b97d31-3e66-4e7f-969d-06c23ff4a567" x1="25.18908" y1="21.76791" x2="25.18908" y2="22.68432"/><path class="bd5c271b-037d-496f-85fb-c9f7740acc16" d="M24.89262,35.99488a1.03984,1.03984,0,0,1-.29688-.166l.207-.28515a.966.966,0,0,0,.22071.13281.55636.55636,0,0,0,.21289.043.27925.27925,0,0,0,.16992-.042.13758.13758,0,0,0,.05664-.11719.12472.12472,0,0,0-.04492-.09375.46777.46777,0,0,0-.12695-.07422l-.166-.06836a1.062,1.062,0,0,1-.32227-.1875.37691.37691,0,0,1-.123-.294.45881.45881,0,0,1,.168-.36718.68357.68357,0,0,1,.44921-.1416.909.909,0,0,1,.56836.206l-.20312.27246a.63253.63253,0,0,0-.35156-.13965.24911.24911,0,0,0-.1543.04.127.127,0,0,0-.05273.10645.12834.12834,0,0,0,.0664.1084.80689.80689,0,0,0,.1543.07128c.05664.01954.09375.03321.11133.03907a1.05766,1.05766,0,0,1,.332.18457.39731.39731,0,0,1,.12109.31054.48305.48305,0,0,1-.07812.26758.53541.53541,0,0,1-.22852.1875.83327.83327,0,0,1-.35742.07031A.964.964,0,0,1,24.89262,35.99488Z"/><path class="bd5c271b-037d-496f-85fb-c9f7740acc16" d="M26.36723,35.89332a.70527.70527,0,0,1-.13282-.46v-.70019H26.004v-.33887l.2539-.02051.05274-.43847h.375v.43847h.40234v.35938h-.40234v.69726c0,.17969.07226.26856.21875.26856a.49351.49351,0,0,0,.16406-.0332l.07226.333a1.14008,1.14008,0,0,1-.35546.05957A.50375.50375,0,0,1,26.36723,35.89332Z"/><path class="bd5c271b-037d-496f-85fb-c9f7740acc16" d="M27.40434,35.91871a.48556.48556,0,0,1-.13477-.35254.45687.45687,0,0,1,.22266-.40625,1.70217,1.70217,0,0,1,.71484-.19825.24439.24439,0,0,0-.27344-.26562.59555.59555,0,0,0-.209.04,1.56545,1.56545,0,0,0-.23242.11328l-.16211-.2998a1.3085,1.3085,0,0,1,.68945-.21582.6021.6021,0,0,1,.47852.18457.80582.80582,0,0,1,.16406.5498v.9502h-.373l-.0332-.17286h-.00977a.75257.75257,0,0,1-.48828.21289A.4692.4692,0,0,1,27.40434,35.91871Zm.65429-.251a.75859.75859,0,0,0,.14844-.11426V35.238a1.03272,1.03272,0,0,0-.38672.10938.21436.21436,0,0,0-.11523.18261.161.161,0,0,0,.05273.13086.22483.22483,0,0,0,.15039.04493A.302.302,0,0,0,28.05863,35.66773Z"/><path class="bd5c271b-037d-496f-85fb-c9f7740acc16" d="M29.08988,34.37378H29.459l.03321.28907h.01367a.66017.66017,0,0,1,.21094-.24414.4399.4399,0,0,1,.2539-.085.49458.49458,0,0,1,.19141.0332l-.07617.39258a.46444.46444,0,0,0-.0586-.01563.50747.50747,0,0,0-.11328-.01074.33533.33533,0,0,0-.207.07617.56478.56478,0,0,0-.166.23926v.96973h-.45118Z"/><path class="bd5c271b-037d-496f-85fb-c9f7740acc16" d="M30.58207,35.89332a.70532.70532,0,0,1-.13281-.46v-.70019h-.23047v-.33887l.25391-.02051.05273-.43847h.375v.43847h.40234v.35938h-.40234v.69726c0,.17969.07227.26856.21875.26856a.49347.49347,0,0,0,.16406-.0332l.07227.333A1.14009,1.14009,0,0,1,31,36.05835.50376.50376,0,0,1,30.58207,35.89332Z"/><circle class="e02ac01c-1c9c-4a4e-8855-13cfe5b30a2a" cx="7.31871" cy="25.87625" r="1.50508"/><circle class="bd5c271b-037d-496f-85fb-c9f7740acc16" cx="11.9668" cy="25.87625" r="1.50508"/><path class="b7d75282-9a3c-41a1-b017-336ae2944e8f" d="M73.134,2.9033h0A2.66071,2.66071,0,0,1,75.79475,5.564V33.18926a0,0,0,0,1,0,0H70.47333a0,0,0,0,1,0,0V5.564A2.66071,2.66071,0,0,1,73.134,2.9033Z" transform="translate(32.11343 -45.13256) rotate(43.14404)"/><path class="bd395e82-ce75-4f57-ab09-a927d254b8b2" d="M57.53119,34.69418,59.243,31.04l1.71182-3.65423a18.07079,18.07079,0,0,1,2.17453,1.37167,17.042,17.042,0,0,1,1.47332,2.04719l-3.53574,1.9448Z"/></svg>