<?xml version="1.0" encoding="utf-8"?>
<!-- Generator: Adobe Illustrator 23.0.0, SVG Export Plug-In . SVG Version: 6.00 Build 0)  -->
<svg version="1.1" id="a176f2b4-c34f-49c1-bc03-a1d9e2086a5b"
	 xmlns="http://www.w3.org/2000/svg" xmlns:xlink="http://www.w3.org/1999/xlink" x="0px" y="0px" viewBox="0 0 105.8 114.4"
	 style="enable-background:new 0 0 105.8 114.4;" xml:space="preserve">
<style type="text/css">
	.st0{fill:none;stroke:#BCBEC0;stroke-miterlimit:10;}
	.st1{fill:#00AED6;}
	.st2{fill:#D1D3D4;}
	.st3{fill:#4E7582;stroke:#4E7582;stroke-width:1.2391;stroke-linejoin:round;}
	.st4{fill:#4E7582;}
	.st5{fill:none;stroke:#EF5B5B;stroke-width:1.9916;stroke-linecap:round;stroke-linejoin:round;}
	.st6{fill:#EF5B5B;stroke:#EF5B5B;stroke-width:0.9958;stroke-linejoin:round;}
	.st7{clip-path:url(#SVGID_2_);}
	.st8{fill:#FFFFFF;}
	.st9{fill:#231F20;}
	.st10{fill:#3C2415;}
	.st11{fill:none;stroke:#EF5B5B;stroke-miterlimit:10;}
</style>
<title>Artboard 2</title>
<rect x="-345.8" y="-147.7" class="st0" width="233.8" height="493.7"/>
<path class="st1" d="M7.5,63.5c-1.8-1-3.3-2.5-4.3-4.3c-1.1-2.1-1.7-4.5-1.6-6.9c-0.1-2.4,0.5-4.8,1.7-6.9c2-3.8,6-6.1,10.3-6.1
	c1.5,0,2.9,0.3,4.3,0.9c1.3,0.6,2.4,1.4,3.4,2.4l-3.4,4.2c-0.6-0.5-1.3-1-2-1.4c-0.7-0.3-1.4-0.5-2.1-0.5c-1,0-1.9,0.3-2.7,0.9
	c-0.9,0.6-1.6,1.5-2,2.5c-0.5,1.2-0.8,2.5-0.7,3.8c-0.1,1.9,0.4,3.8,1.4,5.3c0.9,1.2,2.3,1.9,3.9,1.9c1.7,0,3.4-0.8,4.5-2.1l3.4,4.1
	c-1,1.2-2.2,2.1-3.6,2.7c-1.4,0.6-3,0.9-4.5,0.9C11.4,65,9.4,64.5,7.5,63.5z"/>
<path class="st1" d="M44,39.8h7.3c4,0,7.1,1,9.3,3c2.3,2,3.4,5.1,3.4,9.3c0,4.2-1.1,7.3-3.3,9.4c-2.2,2.1-5.2,3.1-9,3.1H44V39.8z
	 M50.9,59.3c1.7,0.1,3.4-0.5,4.7-1.6c1.1-1.1,1.7-2.9,1.7-5.6c0-2.7-0.6-4.5-1.7-5.5c-1.3-1.1-3-1.6-4.7-1.5h-0.4v14.2H50.9z"/>
<path class="st1" d="M87.4,39.8h16v5.5h-9.4v3.9h8.1v5.5h-8.1V59h9.8v5.5H87.4V39.8z"/>
<path class="st2" d="M31.3,107.6h-2.1c-0.4,0-0.7-0.3-0.7-0.7l0,0V81.9c0-1.8,1.4-3.2,3.2-3.2h34.5c1,0,2,0.5,2.6,1.3l8,10.7
	l7.2,1.2c1.7,0.4,2.9,2,2.9,3.7v8.7c0,1.8-1.4,3.2-3.2,3.2c0,0,0,0,0,0L31.3,107.6z"/>
<circle class="st3" cx="39.4" cy="109.3" r="4.5"/>
<circle class="st3" cx="75" cy="109.3" r="4.5"/>
<path class="st4" d="M56.5,82.4v7c0,0.5,0.4,0.8,0.8,0.8H72c0.2,0,0.4-0.2,0.4-0.4c0-0.1,0-0.2-0.1-0.2l-4.6-6.2
	c-0.8-1.1-2.2-1.8-3.6-1.8h-6.8C56.9,81.6,56.5,82,56.5,82.4z"/>
<path class="st5" d="M30.4,17.9H45c0.1,0,0.2-0.1,0.2-0.2l1.4-8.1c0-0.1,0.1-0.2,0.2-0.1c0.1,0,0.1,0.1,0.1,0.2L49,25.4
	c0,0.2,0.3,0.2,0.3,0.1l1.8-10.3c0,0,0.1-0.5,0.2-0.4c0.1,0.1,0.2,0.4,0.2,0.4l0.8,2.5c0,0.1,0.1,0.1,0.2,0.1h14"/>
<path class="st6" d="M30.5,18.5c0.1,0,0.3-0.1,0.4-0.2c0.3-0.1,0.5-0.3,0.8-0.4c0.5-0.3,1-0.6,1.5-1c0.1,0,0.1-0.1,0.2-0.1
	c0.9-0.7,1.7-1.4,2.5-2.1c1.4-1.3,2.5-2.9,3.4-4.6C40,8.7,40.4,7,40.3,5.4c-0.1-2.2-1.6-4-3.6-4.7c-0.8-0.2-1.6-0.2-2.3-0.1
	c-1.8,0.3-3.4,1.6-4.1,3.2c-0.7-1.7-2.3-2.9-4.1-3.2c-0.8-0.2-1.6-0.2-2.3,0.1c-2.1,0.7-3.5,2.5-3.6,4.7c-0.1,1.6,0.3,3.3,1.1,4.7
	c0.9,1.7,2,3.3,3.4,4.6c0.8,0.8,1.7,1.5,2.6,2.2c0.5,0.3,0.9,0.7,1.4,0.9c0.3,0.1,0.5,0.3,0.8,0.4c0.2,0.1,0.4,0.2,0.6,0.3
	C30.2,18.5,30.4,18.5,30.5,18.5z"/>
<g>
	<defs>
		<path id="SVGID_1_" d="M61.3,18c0,0,6.1,6.9,13.6,6.9S88.6,18,88.6,18s-6.1-6.9-13.6-6.9S61.3,18,61.3,18z"/>
	</defs>
	<clipPath id="SVGID_2_">
		<use xlink:href="#SVGID_1_"  style="overflow:visible;"/>
	</clipPath>
	<g class="st7">
		<path class="st8" d="M61.3,18c0,0,6.1,6.9,13.6,6.9S88.6,18,88.6,18s-6.1-6.9-13.6-6.9S61.3,18,61.3,18z"/>
		<circle class="st4" cx="74.9" cy="17.1" r="7.3"/>
		<circle class="st9" cx="74.9" cy="17.5" r="1.6"/>
	</g>
</g>
<path class="st10" d="M61.3,18c1.3-2.4,3.3-4.4,5.6-5.9c2.4-1.6,5.2-2.4,8-2.5c2.9,0,5.7,0.8,8.1,2.4c2.3,1.5,4.2,3.5,5.5,5.9
	c-2.1-1.5-4.3-2.7-6.7-3.8c-0.6-0.3-1.1-0.4-1.7-0.7c-0.6-0.2-1.1-0.4-1.7-0.5c-1.1-0.3-2.3-0.4-3.5-0.4c-2.4,0.1-4.8,0.6-7,1.6
	C65.6,15.3,63.4,16.5,61.3,18z"/>
<g>
	<polygon class="st11" points="40.3,84.9 42.9,89.3 45.4,93.7 40.3,93.7 35.3,93.7 37.8,89.3 	"/>
	<polygon class="st11" points="40.3,97 42.9,92.6 45.4,88.2 40.3,88.2 35.3,88.2 37.8,92.6 	"/>
</g>
</svg>
