<svg id="bd76fd8e-8f8c-4fb2-b736-e701b9462c9d" data-name="Layer 1" xmlns="http://www.w3.org/2000/svg" xmlns:xlink="http://www.w3.org/1999/xlink" viewBox="0 0 124.95797 84.50032"><defs><style>.efea6a87-b1b0-44cb-b0cb-7abac2da28fd{fill:none;}.af5e9915-680a-4de7-8f7b-8f9ce1940cc1{fill:#f6d2ba;}.a72084b2-95be-4519-85f5-461abd9e87ea{fill:#fee2d4;}.a0f66584-b78c-4709-8c86-33354221b544{fill:#c6a898;}.e617c391-72b9-4a59-9452-af11ee75810a{clip-path:url(#b776a4bf-0dfe-47ac-81cd-a92dcc8e4984);}.b1567065-06a2-4eda-a305-a6784e86b55d{fill:#d1d3d4;}.b125156a-23f6-4354-ac8b-69866b4ae0ce{fill:#e6e7e8;}.bca110fb-86da-4023-9076-19ed07751e55{fill:#edc7c3;}.fbc119e4-0bf3-44ac-9bb3-2e6263793ac8{fill:#ee978f;}.a3cd2474-95a4-496d-a4e7-8872303e4048{fill:#4d5d82;}.a268d4e1-f1b1-487c-9ed7-ed3eaca4c0ec{fill:#0f2849;}.b644a727-03e3-425b-9007-a3d8f5f9308c{fill:#1a242d;}.faf7fa1f-046d-44c0-a638-bf66d06508a3{fill:#c3d7dc;}.e82ba118-94b4-43de-b87c-09672d35829a{fill:#fff;}</style><clipPath id="b776a4bf-0dfe-47ac-81cd-a92dcc8e4984"><path class="efea6a87-b1b0-44cb-b0cb-7abac2da28fd" d="M54.19566,60.70488a7.04528,7.04528,0,0,1,1.54807-2.26075,93.29646,93.29646,0,0,1,7.76959-7.45667c5.44858-4.74592,11.35617-9.2653,18.28-11.332,8.26223-2.46619,17.37107-1.15335,25.16456,2.53557,6.35039,3.00584,11.87569,7.47354,17.33331,11.89811,1.64767,1.33579-12.54661,8.993-13.79341,9.6663a41.23848,41.23848,0,0,1-19.4522,5.24536C81.74806,68.996,72.88738,65.30239,63.7332,63.676c-2.58273-.45887-4.6499.18058-7.135.11254C54.62094,63.7344,53.44728,62.78454,54.19566,60.70488Z"/></clipPath></defs><title>Artboard 4</title><path class="af5e9915-680a-4de7-8f7b-8f9ce1940cc1" d="M31.89176,29.2036A453.627,453.627,0,0,0,0,62.78963,68.89318,68.89318,0,0,1,14.7147,80.1775,257.08612,257.08612,0,0,1,44.685,42.95731a3.169,3.169,0,0,0,1.0852-1.78559A3.06092,3.06092,0,0,0,44.46009,38.859a41.70551,41.70551,0,0,0-13.2673-8.15615"/><path class="af5e9915-680a-4de7-8f7b-8f9ce1940cc1" d="M30.27393,53.95924a12.982,12.982,0,0,0,1.41921,1.624c.34724.35553.65326.89963,1.12675.34678q.73764-.86127,1.41182-1.77432c.53186-.719,1.03525-1.46061,1.61352-2.14286a25.1267,25.1267,0,0,1,2.78748-2.67594,15.85975,15.85975,0,0,1,1.61389-1.27944c.51421-.33957,1.06593-.61787,1.59761-.92939,1.61255-.94481,3.034-2.21882,4.58146-3.27105,5.1537-3.50434,9.36541-8.527,15.14934-10.97792a5.60521,5.60521,0,0,0,1.80862-1.01549,1.67048,1.67048,0,0,0,.44455-1.89386,1.94323,1.94323,0,0,0-1.03921-.80527c-3.92095-1.57109-10.07859,2.0635-13.34138,4.061,1.22356-3.00928,2.15446-5.49952,4.39553-7.86273,2.25366-2.37647,4.07445-5.18319,6.67605-7.23175,2.45377-1.93215,5.87078-3.698,5.52532-7.36441a1.16143,1.16143,0,0,0-.34467-.83693,1.17987,1.17987,0,0,0-.59992-.19321c-2.3-.26928-3.322,1.27209-5.00961,2.36647a34.26421,34.26421,0,0,0-5.31053,4.23862c-2.28986,2.217-4.26246,4.65947-7.21278,5.83582a57.0215,57.0215,0,0,1,7.645-9.7642,22.03568,22.03568,0,0,0,5.25418-8.31581,3.84,3.84,0,0,0,.21878-1.81318A2.26565,2.26565,0,0,0,57.41105.85683,4.33971,4.33971,0,0,0,56.12623,2.41C53.64278,6.60939,49.993,10.00064,46.70178,13.6068c-1.66486,1.82417-3.27011,3.69864-4.89458,5.53656.50621-1.94752.94509-4.03331,1.61287-5.95519.9292-2.6743,3.01227-4.93857,4.54416-7.30926a5.1969,5.1969,0,0,0,1.05524-3.40757A2.26613,2.26613,0,0,0,46.50811.43957C45.30485.7392,45.10787,1.93349,44.46075,2.7854c-.63149.83133-1.45668,1.52-2.08836,2.38887a71.58909,71.58909,0,0,0-4.1369,6.85456c-.57492,1.01179-1.15311,2-1.8003,2.9667-.30118.4499-1.43183,1.51479-1.47169,1.959q.01837-.20478.0367-.40773c.22245-2.46076.44833-4.7343.9063-7.19595.27339-1.46948.858-3.51978.24879-4.96462-.31067-.73686-.95165-1.38225-1.83572-.985-1.1852.53334-1.44594,2.64479-1.757,3.73447-1.20588,4.22435-2.231,8.47475-3.26211,12.754a37.11372,37.11372,0,0,1-1.91819,5.75412c-.82457,1.94958-2.02184,3.74153-2.83361,5.68074-.81638,1.95023-1.66024,3.8903-2.58992,5.78959-.46943.959-.96,1.90776-1.48093,2.83988-.15091.27-2.13063,2.35144-.83983,2.006,2.1527-.57611,5.11013,2.0781,6.28033,3.62363C27.8222,48.09821,28.46962,51.37232,30.27393,53.95924Z"/><path class="a72084b2-95be-4519-85f5-461abd9e87ea" d="M57.27951,1.06817A1.71412,1.71412,0,0,1,58.96832.40545a1.36857,1.36857,0,0,1,1.294,1.20116,1.79513,1.79513,0,0,1-.28659.88993A2.97307,2.97307,0,0,1,58.4441,3.95132a1.446,1.446,0,0,1-1.809-.72843,2.47584,2.47584,0,0,1,.51268-1.97433Q57.213,1.15238,57.27951,1.06817Z"/><path class="a72084b2-95be-4519-85f5-461abd9e87ea" d="M63.26111,10.51484c-.46029.35048-1.18272.7652-1.12337,1.35188A2.35682,2.35682,0,0,0,63.512,13.19078a.62367.62367,0,0,0,.31515-.05686,3.88092,3.88092,0,0,0,2.10338-1.82141,1.68284,1.68284,0,0,0-.19866-1.735c-.72386-.57073-1.79728.34733-2.30717.804C63.37607,10.425,63.3208,10.46939,63.26111,10.51484Z"/><path class="a72084b2-95be-4519-85f5-461abd9e87ea" d="M63.069,29.60131a3.72413,3.72413,0,0,0-.98107.18849,1.736,1.736,0,0,0-1.25456.866,2.68588,2.68588,0,0,0,.12128,1.368,2.40477,2.40477,0,0,0,.09884.46538.50439.50439,0,0,0,.32528.32293.71623.71623,0,0,0,.414-.06938,6.52728,6.52728,0,0,0,1.38074-.65738,2.19449,2.19449,0,0,0,.91591-1.18934A.95092.95092,0,0,0,63.069,29.60131Z"/><path class="a72084b2-95be-4519-85f5-461abd9e87ea" d="M46.25448,3.09935A1.49332,1.49332,0,0,0,47.47694,2.911a1.33146,1.33146,0,0,0,.27784-.41142,7.05941,7.05941,0,0,0,.41655-1.05393,1.02959,1.02959,0,0,0,.05716-.531.8008.8008,0,0,0-.17874-.32492,1.47923,1.47923,0,0,0-2.54767.30049C45.14058,1.83514,45.06452,2.93578,46.25448,3.09935Z"/><path class="a72084b2-95be-4519-85f5-461abd9e87ea" d="M33.95355,4.96511a.61316.61316,0,0,0,.08862.32863.53782.53782,0,0,0,.26726.17518,1.08758,1.08758,0,0,0,1.15825-.25537,1.78336,1.78336,0,0,0,.32887-.78919,1.16526,1.16526,0,0,0-.03711-.91446.761.761,0,0,0-.5244-.301C34.063,3.03172,33.898,4.00259,33.95355,4.96511Z"/><path class="a0f66584-b78c-4709-8c86-33354221b544" d="M92.77887,81.6747a50.11135,50.11135,0,0,1-8.25547.64339c-2.41265-.009-4.99827-.32889-7.34256.04732a15.82347,15.82347,0,0,1-2.30733.25519,15.833,15.833,0,0,1-3.21332-.40251A25.16525,25.16525,0,0,1,65.48242,80.452a22.91716,22.91716,0,0,1-3.15286-1.94494,41.805,41.805,0,0,1-7.76048-6.61975,11.45043,11.45043,0,0,1-1.45888-2.023,13.94445,13.94445,0,0,1-1.24381-4.03423,16.04588,16.04588,0,0,1-.38692-5.17607,13.27679,13.27679,0,0,1,1.37711-4.06533A37.7806,37.7806,0,0,1,57.1876,49.94c7.08348-8.92481,15.9523-16.35934,27.34172-18.80776,16.22223-3.48734,36.34213,9.53967,39.05963,19.56917C127.28728,64.35084,112.07286,78.52553,92.77887,81.6747Z"/><path class="af5e9915-680a-4de7-8f7b-8f9ce1940cc1" d="M124.4241,52.7216c3.69832,13.64946-12.35124,27.97958-31.64523,31.12875a50.8545,50.8545,0,0,1-17.12279-.15662A37.68049,37.68049,0,0,1,61.11192,78.144a24.69486,24.69486,0,0,1-7.91574-8.11025c-2.37111-4.26629-2.56288-10.29382.08-14.4828,2.16012-3.4238,5.30732-6.08091,8.29448-8.75907C64.943,43.76841,68.40893,40.45,72.30182,38.1327a40.65318,40.65318,0,0,1,12.2275-4.82483C100.75155,29.82052,121.7066,42.6921,124.4241,52.7216Z"/><path class="a72084b2-95be-4519-85f5-461abd9e87ea" d="M114.21921,45.44157S102.76,37.12572,91.20673,36.90635c-13.221-.251-23.01178,9.03729-23.01178,9.03729-.08378-3.461,7.53176-11.70978,22.88016-11.70978C104.6795,34.23386,114.13543,41.98058,114.21921,45.44157Z"/><path class="a72084b2-95be-4519-85f5-461abd9e87ea" d="M59.15834,55.06461a10.828,10.828,0,0,1-1.924.273,7.56885,7.56885,0,0,0-3.7551,2.34461c-1.25574,1.4604-2.40587,3.89635-2.01058,5.82672.42577,2.07922,1.97129,4.18442,4.317,3.94981,1.123-.11233,3.44841-1.17424,3.3726-2.60408-.08429-1.58979-5.0206-3.17963-3.34713-5.52249S59.15813,55.06485,59.15834,55.06461Z"/><g class="e617c391-72b9-4a59-9452-af11ee75810a"><path class="b1567065-06a2-4eda-a305-a6784e86b55d" d="M54.19566,60.70488a7.04528,7.04528,0,0,1,1.54807-2.26075,93.29646,93.29646,0,0,1,7.76959-7.45667c5.44858-4.74592,11.35617-9.2653,18.28-11.332,8.26223-2.46619,17.37107-1.15335,25.16456,2.53557,6.35039,3.00584,11.87569,7.47354,17.33331,11.89811,1.64767,1.33579-12.54661,8.993-13.79341,9.6663a41.23848,41.23848,0,0,1-19.4522,5.24536C81.74806,68.996,72.88738,65.30239,63.7332,63.676c-2.58273-.45887-4.6499.18058-7.135.11254C54.62094,63.7344,53.44728,62.78454,54.19566,60.70488Z"/><ellipse class="b125156a-23f6-4354-ac8b-69866b4ae0ce" cx="93.63393" cy="51.17355" rx="26.94451" ry="20.71045"/><path class="bca110fb-86da-4023-9076-19ed07751e55" d="M55.65545,53.33384a6.60141,6.60141,0,0,1,3.3406-.69371c.98715-.06535,1.76784-.88471,2.53549-1.34315.37554-.22427.89547-.41589,1.21146-.11349a.75163.75163,0,0,1,.14729.73706,3.74307,3.74307,0,0,1-.33827.71117,3.686,3.686,0,0,0,.04866,3.33112,33.92669,33.92669,0,0,0,1.56906,3.89325c.60632,1.04041,1.48009,1.905,2.08869,2.9441a3.49369,3.49369,0,0,1,.31372,3.42975,3.7284,3.7284,0,0,1-1.66962,1.36528,17.20234,17.20234,0,0,1-5.15367,1.35419,10.12938,10.12938,0,0,1-5.77979-.4046c-2.72279-1.3022-3.89734-4.72857-3.457-7.71443A10.50973,10.50973,0,0,1,55.65545,53.33384Z"/><path class="fbc119e4-0bf3-44ac-9bb3-2e6263793ac8" d="M61.3984,64.22039a23.52153,23.52153,0,0,0-2.7167.73531,15.10551,15.10551,0,0,1-2.648.43788,3.76788,3.76788,0,0,1-1.61009-.21774,3.27571,3.27571,0,0,1-1.67575-3.63462c.404-2.158,3.309-5.92831,5.88094-5.2037,3.02377.85212,2.03379,5.17614,4.23959,6.732.2978.21005.67421.46988.61237.829a.62744.62744,0,0,1-.60847.4464,3.807,3.807,0,0,1-.80448-.1151A2.60035,2.60035,0,0,0,61.3984,64.22039Z"/><path class="bca110fb-86da-4023-9076-19ed07751e55" d="M55.9763,63.35507a3.66986,3.66986,0,0,1,.34272-2.81348c.40386-.87557.69355-1.803,1.01871-2.71719-.99423.80117-3.23219,2.51311-2.67005,4.01642a2.597,2.597,0,0,0,.42161.85184C55.23823,62.86971,55.93163,63.20167,55.9763,63.35507Z"/><ellipse class="a3cd2474-95a4-496d-a4e7-8872303e4048" cx="89.76771" cy="49.78079" rx="16.12881" ry="16.66411"/><circle class="a268d4e1-f1b1-487c-9ed7-ed3eaca4c0ec" cx="89.23242" cy="49.78079" r="15.59352"/><circle class="a3cd2474-95a4-496d-a4e7-8872303e4048" cx="85.16043" cy="40.56082" r="10.26508"/><path class="a3cd2474-95a4-496d-a4e7-8872303e4048" d="M89.78363,57.06821a7.38886,7.38886,0,0,0,6.42547-4.54484l6.34711,2.89929A13.97478,13.97478,0,0,1,90.64558,64.0422Z"/><path class="a268d4e1-f1b1-487c-9ed7-ed3eaca4c0ec" d="M92.41743,54.03029l5.85324,5.85325a6.40821,6.40821,0,0,0,2.05754-2.67118L93.355,52.94879Z"/><circle class="b644a727-03e3-425b-9007-a3d8f5f9308c" cx="89.82281" cy="50.83864" r="4.11387"/><circle class="faf7fa1f-046d-44c0-a638-bf66d06508a3" cx="101.12316" cy="46.01337" r="1.63173"/><ellipse class="faf7fa1f-046d-44c0-a638-bf66d06508a3" cx="93.23373" cy="54.23615" rx="2.63723" ry="0.67018" transform="translate(-6.70192 13.65348) rotate(-8.08604)"/><circle class="faf7fa1f-046d-44c0-a638-bf66d06508a3" cx="97.37157" cy="53.64207" r="0.3905"/><ellipse class="e82ba118-94b4-43de-b87c-09672d35829a" cx="115.13932" cy="53.6977" rx="2.00829" ry="6.38747" transform="matrix(0.1771, -0.98419, 0.98419, 0.1771, 41.89887, 157.50687)"/><circle class="e82ba118-94b4-43de-b87c-09672d35829a" cx="109.72811" cy="57.29603" r="1.31096"/></g><path class="a0f66584-b78c-4709-8c86-33354221b544" d="M124.00926,54.64621s-7.029,11.22037-33.80616,14.3546C90.2031,69.00081,113.53541,71.884,124.00926,54.64621Z"/></svg>