<svg id="fa482269-1638-4403-81df-22256b61aa82" data-name="Layer 1" xmlns="http://www.w3.org/2000/svg" xmlns:xlink="http://www.w3.org/1999/xlink" viewBox="0 0 105.66121 76.5741"><defs><style>.a34d8b65-d70a-403a-8aa5-f5285ed0be6b,.a6ed5192-687f-46da-b886-c7a3ac07f2ca,.b5b72ea8-bf53-4083-9141-dd801c368547,.f7af98a9-3680-4c18-82b2-20a2d062cfab{fill:none;}.b02e1ef4-81b5-4dbe-8027-7ba2777face7{fill:#414042;}.a87033ec-3028-4ac9-aa15-fc993a0caa3a{fill:#566345;}.f9b74aaa-17ec-4e3c-948c-76d6fe6268e7{clip-path:url(#b3815ae0-5cb3-4b3c-851d-3249d38381dd);}.ebab220b-379c-4224-91d5-ffcc837b4c24{fill:#63774e;}.a6f3d553-946c-4f81-a927-af0335ce52af{fill:#6f825a;}.b5b72ea8-bf53-4083-9141-dd801c368547{stroke:#566345;}.a34d8b65-d70a-403a-8aa5-f5285ed0be6b,.a6ed5192-687f-46da-b886-c7a3ac07f2ca,.b5b72ea8-bf53-4083-9141-dd801c368547{stroke-miterlimit:10;}.a6ed5192-687f-46da-b886-c7a3ac07f2ca,.b5b72ea8-bf53-4083-9141-dd801c368547{stroke-width:2.49765px;}.a34d8b65-d70a-403a-8aa5-f5285ed0be6b{stroke:#6f825a;stroke-width:3.3302px;}.a6ed5192-687f-46da-b886-c7a3ac07f2ca{stroke:#63774e;}</style><clipPath id="b3815ae0-5cb3-4b3c-851d-3249d38381dd"><path class="f7af98a9-3680-4c18-82b2-20a2d062cfab" d="M15.69548,60.13186c5.09849.76252,10.35572.38684,15.413,1.38983,6.4071,1.2707,8.16769,7.3879,13.86756,9.90223,3.36614,1.48487,6.17989.4022,9.87569-.31864,0,0,23.94115.8747,35.46544-2.48468a17.78139,17.78139,0,0,0,8.50182-6.111c1.75984-2.16457,3.651-4.98788,4.07446-7.82778a2.70629,2.70629,0,0,0-.06231-.87874c-1.11931-6.14893-3.29827-12.15794-5.38263-18.06362-1.49117-4.84384-3.4221-9.62981-6.78663-13.49735C82.8427,13.25419,72.20032,11.31422,60.9269,9.92684,52.78753,8.92516,44.41447,8.958,36.44178,11.05471c-7.36707,1.93746-15.36422,5.22958-21.26887,10.16112,0,.90121-1.83509,2.25783-2.3748,2.88467-2.29035,2.66009-3.16472,5.9125-4.344,9.12891C7.15852,36.763,6.02574,40.33394,4.84036,43.90106,3.99151,46.45548,2.9961,48.96844,2.34651,51.585c-.33011,1.32969-.59336,1.92105.11934,2.86371.74318.98292,1.95313,1.09555,2.95388,1.65888.90963.512,1.6708,1.26539,2.60641,1.77035A23.2083,23.2083,0,0,0,15.69548,60.13186Z"/></clipPath></defs><title>Artboard 27</title><path class="b02e1ef4-81b5-4dbe-8027-7ba2777face7" d="M55.871,68.5542a2.3996,2.3996,0,0,0-1.08266-1.25482c-2.596-1.75708-5.807-2.29236-8.864-3.11018.12887.16281.26037.32359.37522.49657A3.89636,3.89636,0,0,1,47,66.43929c.05955.633.25011,1.29191-.23954,1.69762a2.68543,2.68543,0,0,0-2.48515,1.37921,4.3165,4.3165,0,0,1-.49687.89689.71071.71071,0,0,1-.91568.18313.935.935,0,0,1-.24229-.78417c.043-1.794-.32451-3.63227.36723-5.352a1.41485,1.41485,0,0,0,.142-.51391.855.855,0,0,0-.63371-.75241,1.64246,1.64246,0,0,0-1.56447.46406,4.83972,4.83972,0,0,0-.92364,1.43032c-.884,1.80618-.77448,3.32516-2.793,4.18038a4.13064,4.13064,0,0,1-1.84224.44514,1.51983,1.51983,0,0,1-1.426-1.06782,1.76807,1.76807,0,0,1,.58915-1.51408,11.6823,11.6823,0,0,1,2.82358-1.77781,3.91531,3.91531,0,0,0,2.136-2.44094c.026-.13842.06789-.3114.2061-.33792.04817-.00925.07358.0247.08893.06535a3.36921,3.36921,0,0,0,.17917-1.124c-1.72425-1.35289-3.47269-3.11993-5.80072-1.913a9.94923,9.94923,0,0,0-4.173,4.99825c-.77564,2.11969-1.3281,4.579-3.2299,5.79482-.69606.445-1.51641.67381-2.19418,1.14618a1.92712,1.92712,0,0,0-.91335,2.10851c.30062.78438,1.26051,1.05929,2.09561,1.14964a6.78062,6.78062,0,0,0,3.07588-.12979c1.11463-.41465,2.08879-1.081,3.26-1.41364a2.18473,2.18473,0,0,1,1.29525-.07512,2.6917,2.6917,0,0,1,.91761.6833,9.91549,9.91549,0,0,0,8.08358,2.6217,7.1537,7.1537,0,0,0,4.09835-2.44878,10.189,10.189,0,0,1,1.56123-1.6276c2.08463-1.48277,5.41432-.32277,7.23075-2.12426A1.86626,1.86626,0,0,0,55.871,68.5542Z"/><ellipse class="a87033ec-3028-4ac9-aa15-fc993a0caa3a" cx="101.18509" cy="47.08286" rx="1.64739" ry="1.91309" transform="translate(-1.84441 4.18599) rotate(-2.34857)"/><ellipse class="a87033ec-3028-4ac9-aa15-fc993a0caa3a" cx="5.61296" cy="42.57065" rx="1.64739" ry="1.91309" transform="translate(-1.73978 0.26577) rotate(-2.34857)"/><g class="f9b74aaa-17ec-4e3c-948c-76d6fe6268e7"><path class="ebab220b-379c-4224-91d5-ffcc837b4c24" d="M15.69548,60.13186c5.09849.76252,10.35572.38684,15.413,1.38983,6.4071,1.2707,8.16769,7.3879,13.86756,9.90223,3.36614,1.48487,6.17989.4022,9.87569-.31864,0,0,23.94115.8747,35.46544-2.48468a17.78139,17.78139,0,0,0,8.50182-6.111c1.75984-2.16457,3.651-4.98788,4.07446-7.82778a2.70629,2.70629,0,0,0-.06231-.87874c-1.11931-6.14893-3.29827-12.15794-5.38263-18.06362-1.49117-4.84384-3.4221-9.62981-6.78663-13.49735C82.8427,13.25419,72.20032,11.31422,60.9269,9.92684,52.78753,8.92516,44.41447,8.958,36.44178,11.05471c-7.36707,1.93746-15.36422,5.22958-21.26887,10.16112,0,.90121-1.83509,2.25783-2.3748,2.88467-2.29035,2.66009-3.16472,5.9125-4.344,9.12891C7.15852,36.763,6.02574,40.33394,4.84036,43.90106,3.99151,46.45548,2.9961,48.96844,2.34651,51.585c-.33011,1.32969-.59336,1.92105.11934,2.86371.74318.98292,1.95313,1.09555,2.95388,1.65888.90963.512,1.6708,1.26539,2.60641,1.77035A23.2083,23.2083,0,0,0,15.69548,60.13186Z"/><path class="a6f3d553-946c-4f81-a927-af0335ce52af" d="M99.68373,61.4755a25.24562,25.24562,0,0,1-5.00182,4.14291,14.70212,14.70212,0,0,1-2.50685,1.56883,14.71931,14.71931,0,0,1-4.053.96923c-3.111.438-5.95952,1.4738-9.07987,1.76785-5.98769.56427-11.95276,1.4523-17.97654,1.53227a39.91588,39.91588,0,0,0-9.00383.69382,14.65884,14.65884,0,0,1-4.33214.79929C44.38031,72.739,42.195,69.51879,39.92164,67.05a23.206,23.206,0,0,0-9.57227-6.1984c-3.92282-1.33284-7.51625-.65076-11.52556-1.08659A40.05628,40.05628,0,0,1,5.25417,55.43015c-1.30066-.65608-3.12013-1.57409-3.21-3.13615-.09655-1.67739,1.422-4.43133,1.93768-6.05984.98868-3.12254,1.62175-6.51022,3.2034-9.38139-.61322,1.12,3.36643,3.818,7.73,6.35177a54.22777,54.22777,0,0,0,12.021,5.15415,31.651,31.651,0,0,0,8.14041.99157c5.2678.16811,10.77828.28712,15.51439-2.02536,3.0955-1.51144,5.36588-3.87718,3.98459-7.46913a38.14665,38.14665,0,0,0-2.179-4.04953,16.7373,16.7373,0,0,1-1.69933-4.95055,8.4407,8.4407,0,0,1-.09472-2.80066,11.2943,11.2943,0,0,1,1.46805-3.5641,45.36912,45.36912,0,0,0,3.16454-6.05859c.69748-1.89473,1.4929-3.76843,3.29281-4.87547a9.09806,9.09806,0,0,1,5.94568-.82888A24.81963,24.81963,0,0,1,86.10226,36.90265c.05622,3.17413-.49616,6.33-.55238,9.50415-.0601,3.39284.8026,7.45949,3.2927,9.93643a5.95709,5.95709,0,0,0,4.61549,1.81971c2.70861-.15518,3.27148-2.81522,3.52095-5.16623a41.124,41.124,0,0,1,.51653-5.44243c.53973-2.18642,1.10466-4.1895,1.50055-6.40147a.65249.65249,0,0,1,.13337-.34415c.19994-.2118.55524-.07175.78924.10168a8.09431,8.09431,0,0,1,2.51434,4.37237,50.78431,50.78431,0,0,1,1.42926,6.0973,10.534,10.534,0,0,1-.56484,5.83386C102.47592,59.19235,100.9466,59.94205,99.68373,61.4755Z"/><path class="ebab220b-379c-4224-91d5-ffcc837b4c24" d="M32.7046,58.71008c.7762.98529,1.52244,2.02066,2.30457,3.11763a45.04955,45.04955,0,0,0,8.10716,8.05084,13.32751,13.32751,0,0,0,2.5713,1.82589c2.73007,1.34933,5.97916.6904,8.946.00335a8.39188,8.39188,0,0,0,3.53412-1.41509c2.22608-1.83077,1.98117-5.29775,1.15585-8.05926a50.427,50.427,0,0,0-5.94282-12.22588,31.04594,31.04594,0,0,0-5.37548-6.82777,12.55233,12.55233,0,0,0-7.82448-3.42442c-4.23762-.11184-7.87621,2.52243-10.90517,5.20276-1.27017,1.124-3.59569,2.763-4.10242,4.46118-.53549,1.79456,2.02849,3.85535,3.25384,4.856A27.53861,27.53861,0,0,1,32.7046,58.71008Z"/><path class="a87033ec-3028-4ac9-aa15-fc993a0caa3a" d="M42.63438,60.06264c-3.53507-2.67355-7.82426-4.0576-11.90086-5.66309-1.82709-.71957-3.36172-.851-4.89591-2.24649-1.37733-1.2528-2.44747-2.80052-3.74943-4.12613-4.05832-4.132-10.11265-5.74036-14.3681-9.669a2.84625,2.84625,0,0,1-.88939-1.21858c-.31506-1.07766.43453-2.7327.70358-3.81441a21.57245,21.57245,0,0,1,1.60035-4.1608,27.26706,27.26706,0,0,1,4.99408-7.16963c10.20578-10.391,23.442-16.00527,37.75674-17.98663A55.407,55.407,0,0,1,67.863,3.80607,30.41019,30.41019,0,0,1,82.47518,9.94041a18.37,18.37,0,0,1,4.201,5.6351,24.9194,24.9194,0,0,0,1.73207,2.62535c.51164.70115,1.03027,1.39527,1.51764,2.1376,2.47318,3.76706,2.21354,10.24107,1.84923,14.53582a3.50073,3.50073,0,0,1-5.52054,2.69919,39.25885,39.25885,0,0,1-3.16581-2.517,42.66666,42.66666,0,0,0-6.05282-4.811,25.71484,25.71484,0,0,0-9.11156-3.12468,30.16135,30.16135,0,0,1-4.37357-.482,22.71008,22.71008,0,0,1-3.91045-2.12722,8.49489,8.49489,0,0,0-5.1021-1.34314c-2.9681.39547-5.042,3.46483-5.15927,6.45686s1.29655,5.83846,3.01279,8.29214,3.77318,4.67763,5.23573,7.29048c1.16561,2.08235,1.00379,3.405.094,5.44582-.71758,1.6096-.26667,3.52289-.81725,5.197-.73141,2.224-3.03914,3.55335-4.12719,5.62632a8.77818,8.77818,0,0,1-1.31995,2.37077c-1.28344,1.25528-3.416.77982-5.06288.06477-.40554-.17607-1.10289-1.38562-1.438-1.75068A17.30685,17.30685,0,0,0,42.63438,60.06264Z"/><path class="ebab220b-379c-4224-91d5-ffcc837b4c24" d="M39.60071,38.50329c2.11955,2.43171,4.03087,5.06446,2.60275,8.39406A7.51522,7.51522,0,0,1,35.07771,51.149c-6.61416-.28486-11.22594-5.76212-16.12408-9.54766A26.28727,26.28727,0,0,0,6.96831,36.70359a.92431.92431,0,0,0-.51262.01824c-.41314.18043-.35126.78489-.18087,1.20227,1.14059,2.7939,3.87333,4.58548,6.58671,5.90622s5.6329,2.39663,7.82279,4.473c1.269,1.20321,2.24458,2.70272,3.597,3.81138a16.90205,16.90205,0,0,0,3.02616,1.8408A84.81974,84.81974,0,0,0,39.44518,59.245a7.57608,7.57608,0,0,0,1.21788.30824,6.80288,6.80288,0,0,1,.98422.16932c2.97235.91965,6.90225,9.80551,10.6551,6.65179.38554-.324.66834-.75212,1.02281-1.10985.92868-.93723,2.29006-1.33863,3.23792-2.25644a6.74442,6.74442,0,0,0,1.6339-4.49169,17.46537,17.46537,0,0,1,.59735-4.83591c.40276-1.10947,1.28488-1.91787,1.739-2.97987a6.96038,6.96038,0,0,0,.1545-4.24343,17.319,17.319,0,0,0-1.90745-4.384A31.8283,31.8283,0,0,0,56.0727,37.928,35.97924,35.97924,0,0,1,52.827,33.7787a5.65919,5.65919,0,0,1-.59208-5.04243,4.75857,4.75857,0,0,1,3.85588-2.58272,16.13661,16.13661,0,0,1,5.58933.58281c1.45386.39178,2.95847.31388,4.42635.5818a33.05126,33.05126,0,0,1,4.61642,1.66764,37.58859,37.58859,0,0,1,5.7926,3.18276,18.45064,18.45064,0,0,1,2.60065,1.68108c1.25319,1.02589,2.9222,2.63421,2.45882,4.40224a5.20492,5.20492,0,0,1-.72434,1.41875c-1.74331,2.75234-3.49514,7.575-1.718,10.6346.424.72992.99463,1.36542,1.42974,2.08876,1.213,2.01653,1.26519,4.49232,1.76172,6.79258s1.79065,4.77422,4.092,5.26577c2.16452.46234,4.22965-1.01511,5.88513-2.48427,3.93062-3.48825,4.61944-6.27717,3.609-11.30616-.721-3.58848-2.49591-6.89311-3.28063-10.46827-.46541-2.12044.02956-3.00172.92254-4.69529.891-1.68969.716-3.549.56746-5.45394-.20436-2.62152-.11015-6.83132-3.266-7.597-.812-.197-1.44621,1.28368-2.05554,1.67844a5.32741,5.32741,0,0,1-3.153.60422A15.5491,15.5491,0,0,1,81.50675,23.635c-2.477-.90676-5.18265-1.50849-7.5834-2.48048-2.47656-1.00267-4.60314-3.05189-7.0471-4.207-2.83425-1.33962-4.6301-4.13547-6.84269-6.26639a61.84359,61.84359,0,0,0-8.20542-6.64965A23.96783,23.96783,0,0,0,45.07427.60883a18.88534,18.88534,0,0,0-8.71562-.1957,25.83094,25.83094,0,0,0-11.81119,5.6835A7.04274,7.04274,0,0,0,21.88133,9.9519a6.25138,6.25138,0,0,0,1.07361,4.23132,13.38326,13.38326,0,0,0,6.336,5.4118c2.37362.96918,5.09767,1.29127,7.04633,2.95765C41.26831,26.76967,35.58025,33.89073,39.60071,38.50329Z"/></g><path class="b5b72ea8-bf53-4083-9141-dd801c368547" d="M.98965,53.58384c5.52551,4.08362,15.79017,6.65108,24.16768,7.15129,2.81868.16831,5.63029.462,8.42516.86437,3.9195.56436,6.1271,4.16888,8.83245,6.63054a12.14555,12.14555,0,0,0,5.5325,3.0403c3.35932.665,43.62876-4.28243,45.349-4.77311,1.62213-.46269,11.00029-13.86994,11.00029-13.86994"/><path class="a34d8b65-d70a-403a-8aa5-f5285ed0be6b" d="M.98965,54.41639C6.51516,58.5,16.77982,61.06747,25.15733,61.56768c2.81868.16831,5.63029.462,8.42516.86437,3.9195.56436,6.1271,4.16888,8.83245,6.63054a12.14555,12.14555,0,0,0,5.5325,3.0403c3.35932.665,43.62876-4.28243,45.349-4.77311,1.62213-.46269,11.00029-13.86994,11.00029-13.86994"/><path class="a6ed5192-687f-46da-b886-c7a3ac07f2ca" d="M.98965,54.70741c5.52551,4.08362,15.79017,6.65108,24.16768,7.1513,2.81868.1683,5.63029.462,8.42516.86436,3.9195.56437,6.1271,4.16888,8.83245,6.63054a12.14545,12.14545,0,0,0,5.5325,3.0403c3.35932.665,43.62876-4.28243,45.349-4.77311,1.62213-.46269,11.00029-13.86994,11.00029-13.86994"/><ellipse class="a87033ec-3028-4ac9-aa15-fc993a0caa3a" cx="83.94357" cy="55.37293" rx="1.64739" ry="1.91309" transform="translate(-2.19861 3.48642) rotate(-2.34857)"/><ellipse class="a87033ec-3028-4ac9-aa15-fc993a0caa3a" cx="42.01352" cy="58.17507" rx="1.64739" ry="1.91309" transform="translate(-2.34865 1.77053) rotate(-2.34857)"/><ellipse class="a87033ec-3028-4ac9-aa15-fc993a0caa3a" cx="23.5748" cy="50.78331" rx="1.64739" ry="1.91309" transform="translate(-2.06124 1.00872) rotate(-2.34857)"/></svg>