<svg xmlns="http://www.w3.org/2000/svg" viewBox="0 0 154.95032 85.09063"><defs><style>.ba73ff2f-3644-4001-81e9-89678e54b0bd{isolation:isolate;}.b6c46ee7-ccf0-4d77-aeb7-12742cd032a7{fill:none;stroke:#bcbec0;stroke-miterlimit:10;}.bfe0bae1-34a4-4736-8e31-6d5e2283cb3d{fill:#a7a9ac;opacity:0.33;mix-blend-mode:multiply;}.ff81c625-2c28-44d6-aa2d-c92df948631b{fill:#f6d2ba;}.b3c10020-97aa-46fc-b2bd-a7007548e69d{fill:#566345;}.b9afac57-a544-4b5a-8312-a90396cf1e39{fill:#1a242d;}.fe87e48a-2ff4-4387-8e45-a0a2bfe9d5c9{fill:#4c563c;}.af5719c8-2970-4e5d-8451-e7042aa10762{fill:#63774e;}.ae048434-95b1-48ad-93ba-52a0426c331e{fill:#3c2415;}.bcbec7d4-0ed0-4ed0-9260-b517d9e4f6e5{fill:#fff;}.e473f7e7-c7a9-462b-b2b3-6dc2ecb498cb{fill:#6f825a;}.f580fa3b-3512-4b3e-a835-55dcb40407fb{fill:#938c6c;}.fc35b4bd-8045-4816-85be-89961c2108e3{fill:#596846;}.f7e17df0-79b9-4154-8727-3b098a66bc5f{fill:#6b7f54;}.e6da82e6-e270-4884-80b0-c8f2e02f13d2{fill:#8b5e3c;}.b63c50bf-4465-4a38-81c5-3987c6008c51{fill:#231f20;}.fec1a275-8599-4e58-83d6-0636374fe440{fill:#bcbec0;}.b21dfd29-d785-4e7a-98d1-4b5e365224b9{fill:#d1d3d4;}.b3fa3fd0-9205-4c99-aebb-d6f078870201{fill:#e6e7e8;}</style></defs><title>Artboard 9</title><g class="ba73ff2f-3644-4001-81e9-89678e54b0bd"><g id="a9768109-58b5-402f-9cda-2dbe8d25bfbe" data-name="Layer 1"><rect class="b6c46ee7-ccf0-4d77-aeb7-12742cd032a7" x="-355.2608" y="-406.32717" width="233.75906" height="493.74709"/><ellipse class="bfe0bae1-34a4-4736-8e31-6d5e2283cb3d" cx="99.9083" cy="78.69548" rx="55.04202" ry="6.06157"/><path class="ff81c625-2c28-44d6-aa2d-c92df948631b" d="M49.72819,63.0024c1.41342.11776,2.656-.65511,4.05541-.64328,1.06424.00908,2.15239-.26876.78925-1.19463.0156.01061.988-.48237,1.13806-.52067.46248-.118.96275-.07356,1.34492-.42011a1.52768,1.52768,0,0,0,.37729-1.53469,1.97405,1.97405,0,0,0-1.75232-1.48381c-3.18984-.08347-5.957,2.05284-8.5146,4.113A3.1508,3.1508,0,0,0,49.72819,63.0024Z"/><path class="b3c10020-97aa-46fc-b2bd-a7007548e69d" d="M34.4173,66.7156,29.121,66.182a34.69563,34.69563,0,0,1-9.83264-1.96523c.33286-1.19655.5513-3.98266,1.37229-4.8873,1.08957-1.20059,1.55671-.61849,3.171-.18336,3.151.84937,6.46666,1.11,9.508,2.35142a5.96184,5.96184,0,0,0,1.87213.54856,5.75817,5.75817,0,0,0,2.2331-.49525c4.2196-1.52206,8.61113-2.68128,12.896-3.9335-1.02808.30045.6167,4.30324-1.08377,5.19819-3.3649,1.77029-6.74223,3.86489-10.64776,4.13652a19.28479,19.28479,0,0,1-3.26546-.14314Z"/><path class="b9afac57-a544-4b5a-8312-a90396cf1e39" d="M100.10976,62.19657c-.5442.02212-1.08062.01726-1.59373-.00865a.30654.30654,0,0,0-.37882.35686L97.892,64.884l-.11069,1.056a.354.354,0,0,0,.02275.21581c.23.3961,1.58333.68841,2.021.99133.50894.35227.5703.67375,1.24037.79421,1.57121.28247,3.82982-1.03271,5.02163-1.91581a5.47522,5.47522,0,0,0,2.00348-2.44415,2.05654,2.05654,0,0,0-.74326-2.54042c-.92113-.48063-2.16988-.04492-3.25153.39118A12.29437,12.29437,0,0,1,100.10976,62.19657Z"/><path class="fe87e48a-2ff4-4387-8e45-a0a2bfe9d5c9" d="M44.127,72.69278c.76382-.1146,1.30815-4.09135,1.4546-4.72673.577-2.50348,1.41427-4.18975-.11406-6.50208-.5473-.82805,2.41357-.46088,2.87408-.46423a41.301,41.301,0,0,0,5.00394-.63022l10.59839-1.40746a53.50471,53.50471,0,0,1,21.362,1.04488c1.23089.34106,14.13876,1.5167,14.04635,2.35635l-.48763,4.43053a156.1406,156.1406,0,0,1-21.43129-.84022,39.91031,39.91031,0,0,1-4.59125-.96442.99631.99631,0,0,0-.3868-.032,1.05381,1.05381,0,0,0-.39791.19976c-3.83154,2.64662-8.31679,3.74572-12.79326,4.73344Q51.74627,71.5492,44.127,72.69278Z"/><path class="b9afac57-a544-4b5a-8312-a90396cf1e39" d="M97.91415,74.87817c-.52837-.13218-1.04167-.288-1.52667-.45752a.40627.40627,0,0,0-.24606-.03154c-.114.03427-.1727.157-.218.26715l-.8946,2.17526-.40385.982a.35408.35408,0,0,0-.039.21347c.109.44488,1.32509,1.10678,1.65961,1.52077.389.48144.35727.80719.96622,1.11163,1.42788.71388,3.96562.08865,5.358-.42272a5.47522,5.47522,0,0,0,2.61116-1.78035,2.05654,2.05654,0,0,0,.00293-2.64691c-.74831-.72077-2.06924-.65471-3.23-.54117A12.29429,12.29429,0,0,1,97.91415,74.87817Z"/><path class="af5719c8-2970-4e5d-8451-e7042aa10762" d="M42.04945,76.107c.88516.19767,3.264-6.71023,3.49743-7.50919.70828-2.42468.423-4.76837.1876-7.22211.721.04216,1.38031.71765,1.99332,1.06934a20.29148,20.29148,0,0,1,2.73726,1.62407,9.56336,9.56336,0,0,0,1.35559,1.03081c1.05015.56878,2.92521-.0684,4.15044.00163,2.61369.14941,5.23442.11523,7.85047.21476A77.13458,77.13458,0,0,1,96.10574,73.801a15.65478,15.65478,0,0,0-.5487,5.46354L78.31446,76.04413a33.09437,33.09437,0,0,0-6.12889-.75336,47.43648,47.43648,0,0,0-8.35071,1.23834A54.92844,54.92844,0,0,1,42.04945,76.107Z"/><path class="ff81c625-2c28-44d6-aa2d-c92df948631b" d="M48.50885,77.80019c1.3565-.52719,2.7614-.882,4.13609-1.307,1.0454-.32327,2.201-.388,1.138.87246.01215-.01444,1.11868.15427,1.27805.14533a3.0291,3.0291,0,0,1,1.45141-.009,1.45528,1.45528,0,0,1,.83494,1.30916,1.94351,1.94351,0,0,1-1.27783,1.8921c-3.1164,1.021-6.48674-.13806-9.62764-1.28869C46.64118,78.29419,47.55762,78.16987,48.50885,77.80019Z"/><path class="ff81c625-2c28-44d6-aa2d-c92df948631b" d="M1.57525,71.62733a6.94789,6.94789,0,0,1,.15918-4.827c.73211-1.86731,2.63713-2.95662,4.40589-3.6674,1.53146-.61542,4.1826-1.69164,5.85405-1.20416,1.073.313,2.22152,2.382,2.29972,3.40066a1.07277,1.07277,0,0,0,.44756.92181,1.05666,1.05666,0,0,0,.41142.09017,2.05479,2.05479,0,0,0,1.92466-.75463,7.40529,7.40529,0,0,1,2.19086-1.79647,1.61486,1.61486,0,0,1,1.49623-.19233,1.64968,1.64968,0,0,1,.65671,1.29683,9.43982,9.43982,0,0,1-.2203,3.61128,3.44716,3.44716,0,0,1-.44537,1.08507c-.78555,1.15489-2.28132,1.31182-3.544,1.42485-3.36685.3014-6.14688,2.84386-9.46127,3.50817-.567.11363-1.14349.17073-1.7189.22765a4.20182,4.20182,0,0,1-1.53009.05219,3.93119,3.93119,0,0,1-1.26552-.78426A5.60748,5.60748,0,0,1,1.57525,71.62733Z"/><path class="ae048434-95b1-48ad-93ba-52a0426c331e" d="M1.07994,66.003A6.51617,6.51617,0,0,0,.02016,68.61881c-.03706.26114-.07906,3.03608.43005,2.71347A.4318.4318,0,0,0,.571,71.1761a.91337.91337,0,0,1,.40863-.36194A2.099,2.099,0,0,0,.76,72.63156c1.53354-.40731,2.04583,1.68142,3.07317,2.34335a5.36483,5.36483,0,0,0,3.04786.86571c2.54782-.08085,4.52731-1.78865,6.53262-3.185a3.14875,3.14875,0,0,0,.83962-.69834.82012.82012,0,0,0-.16592-1.16788c-.58827-.40738.43282-.14434-.16056-.54393A1.23,1.23,0,0,0,13.588,70.105c-.64657-.19512-1.31265-.36088-1.94019-.61119-.5218-.20813-.6854-.18591-.99862.35386a2.08026,2.08026,0,0,1-1.24232.95576.67774.67774,0,0,1-.44361.00095c-.29379-.12736-.33986-.53673-.261-.84837.23546-.93075.40461-1.00741-.68007-.96416-.61474.02452-1.89986-1.53069-2.45884-1.962-.71311-.55067-.772-1.70906-1.439-2.325C3.14108,63.79683,1.6411,65.167,1.07994,66.003Z"/><path class="bcbec7d4-0ed0-4ed0-9260-b517d9e4f6e5" d="M17.96612,64.40139c.01264.27649.42658.35924.60385.51441a2.2322,2.2322,0,0,1,.52318.83125,2.687,2.687,0,0,1,.06156,1.85431,11.67966,11.67966,0,0,1-1.62983,2.49543c.85513.44951,2.01077.202,2.94259.25538q1.542.0883,3.08521.1519c2.03655.08474,4.07423.13991,6.11218.17658,2.039.03668,4.07828.05467,6.11756.06629.54106.00308,6.03809.21375,6.07927.02652a24.1632,24.1632,0,0,0,.36864-8.23159q-2.6876-.13918-5.37921-.176-7.08146-.097-14.14905.51312a16.82327,16.82327,0,0,0-3.24585.519,3.06581,3.06581,0,0,0-1.36065.68075A.51892.51892,0,0,0,17.96612,64.40139Z"/><path class="af5719c8-2970-4e5d-8451-e7042aa10762" d="M16.88837,74.163c-.18711-.50387-.41021-.9974-.57475-1.50942a3.14382,3.14382,0,0,1,.06053-2.48736,3.10587,3.10587,0,0,1,1.30119-1.28369C19.2311,68.184,20.79178,67.4896,22.334,66.7622c.42288-.19946.83705-.43693,1.2679-.61717a6.97519,6.97519,0,0,0,.92732-.3201,23.16159,23.16159,0,0,0-4.07282-.71193c-.51675-.07505-1.03226-.16-1.551-.22029-.46321-.05382-1.87057.28748-1.97214.879.31158-1.81447.21285-3.51123,1.42876-5.0636.97089-1.23941,1.9599-1.08014,3.28057-.84475,1.738.30977,3.62763.37652,5.39214.55691,4.7228.48281,9.46852.80529,14.19782,1.00321a7.74727,7.74727,0,0,1,2.49729.44362,3.333,3.333,0,0,1,1.0887.59741c.2422.24385.26033.55627.42631.859.1976.36016.4894.62987.718.96677.98964,1.4582.17623,4.52449.00035,6.15648a22.48881,22.48881,0,0,1-1.13663,5.86006,16.30854,16.30854,0,0,1-2.15117-.62079,13.61912,13.61912,0,0,0-3.22515-.10472c-2.129.03768-4.252.22919-6.38088.273-4.18993.08621-8.04723,1.9082-12.271,1.82322-1.10263-.02218-2.79128-.17467-3.32711-1.32562a5.888,5.888,0,0,1-.30941-1.28366A6.49535,6.49535,0,0,0,16.88837,74.163Z"/><path class="e473f7e7-c7a9-462b-b2b3-6dc2ecb498cb" d="M26.39869,65.81847q-.11127.00975-.22166.02007a9.73081,9.73081,0,0,1-3.51281-.36259.92663.92663,0,0,1-.55181-.27876c2.064.10139,4.03764-.3552,6.07616-.41835,5.89436-.1826,11.73763.6305,17.62443.16507a.22548.22548,0,0,1,.15118.0243.21676.21676,0,0,1,.06863.15347,1.74082,1.74082,0,0,1-.0667.76107.29387.29387,0,0,1-.10157.16426.31148.31148,0,0,1-.16308.03676c-1.20036.04172-2.45756-.16462-3.6641-.21146-1.88784-.07329-3.77584-.14659-5.66489-.1812-1.90681-.03494-3.81412-.03033-5.721-.006a23.40293,23.40293,0,0,0-6.57342.71053,4.05785,4.05785,0,0,1-1.1236.17024,3.05064,3.05064,0,0,1,1.59282-.94093,7.562,7.562,0,0,1-2.17929-.36552"/><path class="f580fa3b-3512-4b3e-a835-55dcb40407fb" d="M41.90579,75.65652a5.42335,5.42335,0,0,0,1.70179.34536c.46034-.07114.60584-.59056.7717-.94715A18.14433,18.14433,0,0,0,45.538,70.76029a29.92538,29.92538,0,0,0,.49753-5.65333,13.84432,13.84432,0,0,0-.0782-1.95915c-.07682-.50965-.415-1.85015-.98993-2.00937a1.08916,1.08916,0,0,0-.51317.01925c-.65248.13829-1.30584.21448-1.95976.312a5.40633,5.40633,0,0,0,.33529,1.322c.11483.5387.32936,1.07315.39457,1.6195a14.07189,14.07189,0,0,1,.06991,2.18788,26.15637,26.15637,0,0,1-1.39671,6.75844c-.15624.505-.31213,1.01092-.50284,1.5042-.0603.156-.2722.46416-.18.622.07523.12878.457.12449.584.14938Q41.85059,75.64327,41.90579,75.65652Z"/><path class="e473f7e7-c7a9-462b-b2b3-6dc2ecb498cb" d="M18.676,74.78758c-3.12173,1.88324,1.94031,4.559,3.52532,5.015,1.795.5164,3.484,1.365,5.30992,1.84412a41.49221,41.49221,0,0,0,6.0387,1.435,26.84308,26.84308,0,0,0,6.79327-.45886l3.05184-.46026c1.209-.18233,2.4183-.36411,3.62237-.57691.87617-.15484,2.95373-.1637,3.35468-1.05113l-.34929-2.675a1.29528,1.29528,0,0,0-.187-.61111,1.31,1.31,0,0,0-1.13726-.34235c-3.60342.105-7.23862.25791-10.81448.54039a9.57913,9.57913,0,0,1-2.47835-.0193A9.56793,9.56793,0,0,1,33.98112,77.01a43.991,43.991,0,0,1-5.08832-1.74476,20.02546,20.02546,0,0,0-5.64217-1.52695,6.83428,6.83428,0,0,0-2.98266-.07048,2.54663,2.54663,0,0,0-1.96323,2.03384"/><path class="b9afac57-a544-4b5a-8312-a90396cf1e39" d="M129.30393,75.51739a11.71318,11.71318,0,0,0,.41921-2.03147c1.20082.16273,2.24976-.23378,3.44041.15819a1.62285,1.62285,0,0,1,.85237.54832,2.1724,2.1724,0,0,1,.31078.9436,10.04268,10.04268,0,0,1-.50233,4.83061,5.47525,5.47525,0,0,1-1.763,2.62287,2.05653,2.05653,0,0,1-2.64683.02043c-.72578-.74361-.66836-2.06514-.56249-3.22665a4.79545,4.79545,0,0,0,.03866-1.71841A11.56006,11.56006,0,0,1,129.30393,75.51739Z"/><path class="b9afac57-a544-4b5a-8312-a90396cf1e39" d="M75.40275,79.47633a2.32679,2.32679,0,0,1,2.74544,2.73354,1.80015,1.80015,0,0,1-.18347.99218,1.99353,1.99353,0,0,1-.68141.62775,8.113,8.113,0,0,1-4.15058,1.25891,4.39934,4.39934,0,0,1-2.725-.70813,2.18271,2.18271,0,0,1-.85412-2.46438,3.64922,3.64922,0,0,1,2.48836-1.6795,3.94059,3.94059,0,0,0,1.4322-.57861,1.50824,1.50824,0,0,1,.2901-.2173c.203-.0987.50274.03967.72578.04382C74.794,79.49027,75.09851,79.47138,75.40275,79.47633Z"/><path class="fc35b4bd-8045-4816-85be-89961c2108e3" d="M72.93889,74.78947c.08114,1.51714.0573,3.785.13845,5.30217.01766.33024,4.21592.574,4.69574.16858.67686-.57192.6162-2.52194.75221-3.30753.20546-1.18669.54409-2.35781.77284-3.542a38.28569,38.28569,0,0,0,.78761-7.33648q-.00246-1.04653-.08639-2.0909c-.06543-.81189-.27436-1.63636-.40392-2.44128.05539.32275,7.02924-.7608,7.35386-.81364,2.51145-.40881,5.10747-.57523,7.56206-1.16351,2.17305-.5208,4.10882-.53705,3.44-3.23277-.61988-2.49848-1.95884-8.105-5.2294-8.31295-1.43494-.09111-2.50128,1.43143-3.67383,2.03242-1.976,1.01279-4.38675,1.36478-6.51051,1.98526q-3.63317,1.06147-7.20662,2.31463a5.80319,5.80319,0,0,0-1.83209.90309c-1.41437,1.17327-1.47992,3.21833-1.33181,4.87728.18506,2.07292.21326,4.21473.32483,6.30072Z"/><path class="f7e17df0-79b9-4154-8727-3b098a66bc5f" d="M114.827,77.9007c-2.07428.44612-4.24956.65163-6.36712.93521a5.62484,5.62484,0,0,1-2.61687-.07028c-1.46869-.5129-2.1852-1.9499-2.93021-3.20772a25.87905,25.87905,0,0,1-2.20413-5.00861l-2.8312-8.35488a5.54785,5.54785,0,0,0-.63225-1.41376,6.95013,6.95013,0,0,0-1.27-1.237c-2.61049-2.23171-4.4268-5.64094-4.09327-8.97112.12761-1.274.65254-1.86577,1.78539-1.99725a16.565,16.565,0,0,0,2.97754-.63587c1.85894-.55656,4.19272-1.09774,5.87686.42813a7.58747,7.58747,0,0,1,1.12155,1.36171,26.19981,26.19981,0,0,1,4.37706,9.89688q.06717.40344.12073.80232c.38335,2.84541.21951,5.749.91853,8.56593.14727.59351.3988,2.54485.99594,2.83745.31971.15665,1.4326-.31058,1.78145-.38621.669-.145,1.34078-.28024,2.01679-.39644a26.21511,26.21511,0,0,1,15.599,2.21513.672.672,0,0,1,.32141.267.66011.66011,0,0,1,.04453.30179l-.02829,2.56948a.58584.58584,0,0,1-.095.386.5712.5712,0,0,1-.45149.1232c-2.21331-.03508-4.46241-.16737-6.65986-.01668-.38866.02665-.77565.06624-1.16256.10582A60.46549,60.46549,0,0,0,114.827,77.9007Z"/><path class="e6da82e6-e270-4884-80b0-c8f2e02f13d2" d="M79.20766,16.7506c-1.00621-2.36857-1.42168-4.71382.56964-7.00678A7.31854,7.31854,0,0,1,83.80853,7.529a5.02824,5.02824,0,0,1,5.34354,1.75523c1.44,1.56388,3.0396,4.11955,2.89393,6.336-.05164.78567-1.49582,1.89758-.97113,2.48464a19.6291,19.6291,0,0,1,2.21554,3.42226c.11082.21082.0728.58829.28154.703a2.05063,2.05063,0,0,0,.56861.14236,1.94153,1.94153,0,0,1,1.30519,1.17264,6.89969,6.89969,0,0,1-.03929,3.84561,3.98472,3.98472,0,0,1-.77088,1.75256.50012.50012,0,0,1-.26443.18921.54267.54267,0,0,1-.34039-.08525c-1.04856-.53524-1.81118-1.37959-2.77243-1.9854-.58386-.368-1.51413-.38289-1.85953-1.07815a2.1097,2.1097,0,0,1-.16234-.79781c-.07246-1.02158-.03966-4.30831-2.09227-3.409l-1.96721.862c-2.58482,1.13267-4.33186-2.69582-5.21383-4.4717C79.695,17.82736,79.43612,17.28838,79.20766,16.7506Z"/><path class="ae048434-95b1-48ad-93ba-52a0426c331e" d="M89.99922,19.09449a3.66021,3.66021,0,0,1-2.456-.53885,2.49772,2.49772,0,0,1-1.18886-2.359,2.54617,2.54617,0,0,0-.08108-1.88763.93426.93426,0,0,0-1.09955-.50764c-.626.25733-.53856.99238-.70449,1.51653-.383,1.20987-1.51479.51305-2.32419.44817a2.96457,2.96457,0,0,0-.8396.09376l-1.92706.40412a.22543.22543,0,0,0-.18974.37273l.32446.74256c-2.17274-1.37455-3.5242-4.33735-2.05251-6.68593.49885-.79609,1.19887-1.36894,1.6741-2.19526.94973-1.65133,3.7243-2.71636,5.57236-2.69556,2.89049.03253,5.25937,1.96091,6.82229,4.24746a12.32527,12.32527,0,0,1,1.16226,2.248,8.33088,8.33088,0,0,1,.861,4.50888,1.98283,1.98283,0,0,1-1.236,1.47836,17.71546,17.71546,0,0,1-2.0125.75308Q90.15354,19.07325,89.99922,19.09449Z"/><path class="b63c50bf-4465-4a38-81c5-3987c6008c51" d="M88.13462,5.08988l.01559-.199a2.73667,2.73667,0,0,0-1.01782.459,2.673,2.673,0,0,0-.56276.42751,1.63565,1.63565,0,0,0,.02072,2.05807,2.55945,2.55945,0,0,0,1.98946.86113,1.37126,1.37126,0,0,0,.44285-.05417,1.16725,1.16725,0,0,0,.64222-1.34391,3.40319,3.40319,0,0,0-.79353-1.40276l-.73028-.91229.01659.02456"/><path class="ae048434-95b1-48ad-93ba-52a0426c331e" d="M90.11685,9.19309A7.36125,7.36125,0,0,0,89.074,7.75487c-1.29875-1.39632-3.23541-2.76076-2.84261-4.93378.341-1.88653,3.05944-3.09,4.77024-2.76953a5.99389,5.99389,0,0,1,4.14971,3.079,6.51571,6.51571,0,0,1,.73081,2.50161c.07082.94625.00112,1.99773.84786,2.65855.688.537,1.69817.47206,2.41169.97468.98014.69043,1.08915,2.21138,2.08459,2.87958.63769.42805,1.529.41825,2.0761.95725a7.56168,7.56168,0,0,1,1.22753,2.45847c-.123-.298-1.82459-.43985-2.13644-.38282a9.03036,9.03036,0,0,0-1.577.71813c-1.25016.50753-2.81659,1.04578-4.091.31742-.97916-.55963-1.48345-1.74266-2.47644-2.27737-.74032-.39865-1.67256-.38883-2.34523-.89331-.88533-.664-.88977-1.88133-1.28819-2.82115A10.39439,10.39439,0,0,0,90.11685,9.19309Z"/><path class="e6da82e6-e270-4884-80b0-c8f2e02f13d2" d="M68.99916,48.8972c-.80038,1.17091-2.184,1.64735-3.0577,2.74056-.66438.83143-1.56647,1.50039-1.42479-.14135-.00161.01879-.99759.4622-1.122.55447-.38335.28434-.66447.70054-1.17446.77841a1.52766,1.52766,0,0,1-1.42873-.67553,1.974,1.974,0,0,1-.04567-2.29569c1.94773-2.52752,5.351-3.32665,8.56306-4.01115A3.15084,3.15084,0,0,1,68.99916,48.8972Z"/><path class="b3c10020-97aa-46fc-b2bd-a7007548e69d" d="M73.16891,41.25846c1.81986-1.18831,4.17309-2.21639,5.47883-3.96644.10489-.14059.211-.28528.32249-.43409A41.64413,41.64413,0,0,0,81.84378,31.793c1.1543-2.09025,2.395-4.13207,3.69231-6.13646a6.05554,6.05554,0,0,1,2.189-2.32334.57667.57667,0,0,1,.36132-.10547c.2717.04565.325.41.3039.68468-.11723,1.5286-.6393,2.93063-.66407,4.45q-.04413,2.70677-.10888,5.41316a3.16019,3.16019,0,0,1-.21489,1.30459,2.82046,2.82046,0,0,1-.7578.83521c-1.547,1.35828-2.32479,3.21522-3.56446,4.804-1.20322,1.542-2.94051,2.44643-4.42756,3.66148a25.69547,25.69547,0,0,1-5.26654,3.28139l-5.3873,2.59969c.03462-.13367.16674.0317.11335-.09565a29.17588,29.17588,0,0,0-2.11961-4.108,23.53268,23.53268,0,0,0,2.06268-1.26091C69.76316,43.62448,71.428,42.3952,73.16891,41.25846Z"/><path class="bcbec7d4-0ed0-4ed0-9260-b517d9e4f6e5" d="M88.72273,24.00868c.30053-.00958.38908.39943.48239.60264.16369.35646.40583.69466.60384,1.03357.20007.34243.45748.72347.85218.76219a1.2021,1.2021,0,0,0,.82194-.35205,15.32782,15.32782,0,0,0,1.67606-1.71512c.0816-.08945,1.13118-1.33415,1.20759-1.2127.51452.81772.35732,1.98912.48276,2.914q.20757,1.53048.39058,3.06415.36351,3.03577.64982,6.0801c.19462,2.03.37063,4.06177.54028,6.094.045.53919.68113,6.00334.49765,6.05892A24.16315,24.16315,0,0,1,88.74958,48.344q-.34708-2.66873-.59246-5.34937Q87.51148,35.942,87.572,28.84839a16.82394,16.82394,0,0,1,.26585-3.27631,3.06581,3.06581,0,0,1,.57324-1.40932A.519.519,0,0,1,88.72273,24.00868Z"/><path class="af5719c8-2970-4e5d-8451-e7042aa10762" d="M100.7,23.28865a22.36908,22.36908,0,0,0-5.26326-1.39072,1.93552,1.93552,0,0,0-1.71052.33746,1.99274,1.99274,0,0,0-.39779.97066c.16286,1.50462-.65313,2.75868-1.37432,3.97077a14.8634,14.8634,0,0,0-1.30243,3.29371,36.27051,36.27051,0,0,1-1.02643-4.03419,12.10237,12.10237,0,0,1-.51676-3.40624c.00985-.1234-1.0824.46719-1.1816.58066a4.16614,4.16614,0,0,0-.67487,1.385,7.99586,7.99586,0,0,0-.294,1.95075c-.12536,2.57955-2.34,4.48656-1.68483,7.202.26732,1.1079.92535,2.02676,1.181,3.12731.30571,1.316.92538,2.52661,1.15216,3.87385.25865,1.53651-.12415,2.92126-.10422,4.43818q.02818,2.146.16019,4.289c.08878,1.44373-.11552,1.91762,1.41775,2.107a25.83677,25.83677,0,0,0,7.84-.53093,40.96008,40.96008,0,0,0,5.79273-1.56757c-1.7254-5.26638-1.046-10.653-1.4258-16.04754l-.73113-10.38558"/><path class="e473f7e7-c7a9-462b-b2b3-6dc2ecb498cb" d="M90.78918,32.306q.00108-.11171.00282-.22256a9.7306,9.7306,0,0,0-.63378-3.47412.92659.92659,0,0,0-.32069-.52855c.26108,2.05-.04117,4.053.05388,6.0903.27483,5.89078,1.53842,11.65343,1.53068,17.5586a.22542.22542,0,0,0,.03595.14883.2167.2167,0,0,0,.15832.05653,1.74094,1.74094,0,0,0,.75362-.12549.29386.29386,0,0,0,.15589-.114.31152.31152,0,0,0,.024-.16544c-.05145-1.2-.35462-2.43741-.49484-3.63669-.2194-1.87647-.43882-3.7531-.61975-5.63379-.18263-1.89836-.32588-3.80029-.4494-5.70337a23.40231,23.40231,0,0,1,.19887-6.60871,4.058,4.058,0,0,0,.08263-1.13342,3.05071,3.05071,0,0,0-.81463,1.661,7.56175,7.56175,0,0,0-.53335-2.1444"/><path class="e6da82e6-e270-4884-80b0-c8f2e02f13d2" d="M92.68412,43.44433c-1.40865-.39078-2.81538.15314-4.2302-.12767-1.07593-.21366-2.2312-.14135-1.02871,1.05808-.01376-.01374-1.09313.29867-1.25246.30862-.491.03068-.989-.11046-1.44261.167a1.57458,1.57458,0,0,0-.67688,1.4816,2.03462,2.03462,0,0,0,1.4894,1.83917c3.21408.69733,6.42662-.93436,9.41226-2.52925A3.24748,3.24748,0,0,0,92.68412,43.44433Z"/><path class="e473f7e7-c7a9-462b-b2b3-6dc2ecb498cb" d="M100.6966,24.433c2.51912,2.41454,3.50228,5.99031,4.17372,9.4145.41271,2.10472.75488,4.226,1.00609,6.35628.46919,3.97858-5.64463,5.239-8.33045,6.01287-1.94363.56-4.02029.57835-5.91081,1.31168a12.89748,12.89748,0,0,1-1.11593-3.2111A.764.764,0,0,1,91.0258,43.213c.88739-.37027,10.11531-3.42987,9.92359-4.28356A63.41114,63.41114,0,0,0,97.64661,29.469c-.65879-1.65312-2.25488-4.74292-.25366-5.97731,2.51838-1.55338,4.75925,1.91936,5.15568,3.97217"/><path class="f580fa3b-3512-4b3e-a835-55dcb40407fb" d="M102.50461,46.87023a8.21724,8.21724,0,0,0,.385,1.058c.07462.13319.45071.51938.27745.66293a7.38132,7.38132,0,0,1-.6293.48982,10.68821,10.68821,0,0,1-2.275,1.00961q-1.40134.51192-2.85673.89178a32.01091,32.01091,0,0,1-5.79211.95528,14.80831,14.80831,0,0,1-2.02617.08116,3.28384,3.28384,0,0,1-1.81605-.61445,1.07941,1.07941,0,0,1-.18668-.75408c.00382-.57473-.01565-1.16078-.02778-1.72374.12941-.00525,1.61749-.00476,1.62047.02281.5093.03974.99064.22313,1.5037.24176a15.04929,15.04929,0,0,0,2.26093-.10792,23.64162,23.64162,0,0,0,8.4324-2.79516c.20007-.1044.4176-.39871.66528-.33631C102.289,46.01444,102.437,46.68751,102.50461,46.87023Z"/><path class="b3c10020-97aa-46fc-b2bd-a7007548e69d" d="M90.84794,37.07964a17.792,17.792,0,0,0,2.89314-.29248,9.39326,9.39326,0,0,0,2.1025-.36246,15.30241,15.30241,0,0,0-1.56254.93588,18.39612,18.39612,0,0,1-1.96354.99379,16.27262,16.27262,0,0,1-4.04845.87907,1.62267,1.62267,0,0,1-.58908.00006c-.52028-.12946-.77206-.70764-.93645-1.218-.13914-.43193-.22421-.89128-.38785-1.31326-.16347-.42156-.37429-.83366-.55719-1.24813a.92231.92231,0,0,1-.08157-.24457,6.01924,6.01924,0,0,0,2.62578,1.55153,20.91091,20.91091,0,0,0,2.45039.31719Z"/><rect class="fec1a275-8599-4e58-83d6-0636374fe440" x="86.71566" y="31.76527" width="0.25157" height="0.10795" transform="translate(176.60295 54.10763) rotate(173.82175)"/><path class="b21dfd29-d785-4e7a-98d1-4b5e365224b9" d="M86.7296,31.68122h.2055a.05176.05176,0,0,1,.05176.05176v.05619a0,0,0,0,1,0,0h-.309a0,0,0,0,1,0,0V31.733a.05176.05176,0,0,1,.05176-.05176Z" transform="matrix(-0.99419, 0.10762, -0.10762, -0.99419, 176.57576, 53.941)"/><path class="b3fa3fd0-9205-4c99-aebb-d6f078870201" d="M87.05668,33.36577l.1153-.10941c-.03718-.06455-.11932-.08157-.16959-.11769-.02248-.01615-.04371-.03141-.06254-.048l-.08378.09512a.9062.9062,0,0,0,.07235.05582A.51368.51368,0,0,1,87.05668,33.36577Z"/><path class="b3fa3fd0-9205-4c99-aebb-d6f078870201" d="M87.00446,32.38468a.06307.06307,0,0,0,.03522-.01564c.02619-.02327.053-.07447.02971-.10064a.63275.63275,0,0,0-.27-.13651.06338.06338,0,1,0-.04.12029.42353.42353,0,0,1,.19074.11162A.06338.06338,0,0,0,87.00446,32.38468Z"/><path class="fec1a275-8599-4e58-83d6-0636374fe440" d="M86.70925,31.58374h.2251a.08158.08158,0,0,1,.08158.08158v.02637a0,0,0,0,1,0,0h-.38825a0,0,0,0,1,0,0v-.02637A.08158.08158,0,0,1,86.70925,31.58374Z" transform="translate(176.54423 53.74775) rotate(173.82175)"/><path class="b21dfd29-d785-4e7a-98d1-4b5e365224b9" d="M87,33.8615a.53614.53614,0,0,0,.14882.1354l.00794-.00422-.20314-2.13129-.21269.023.24082,1.92194A.14933.14933,0,0,0,87,33.8615Z"/><path class="b3fa3fd0-9205-4c99-aebb-d6f078870201" d="M86.99558,33.77684a.19474.19474,0,0,1,.02637-.04469c.0123-.01928.03579-.04506.05126-.06662.07012-.09768.17955-.23933.11012-.38747l-.01135-.0217-.08034.05333s.01739.10719-.12142.28191a.79681.79681,0,0,0-.04629.067.18787.18787,0,0,0-.03243.07689c-.01.07517.06138.12139.12934.15821A.88914.88914,0,0,1,86.99558,33.77684Z"/><path class="b3fa3fd0-9205-4c99-aebb-d6f078870201" d="M87.00745,32.45568a.30676.30676,0,0,1-.07665.15851l-.03249.03863a.397.397,0,0,0-.13271.40928.31784.31784,0,0,0,.09047.12371l.04222-.04618-.014-.1144-.00083-.00983c-.02266-.10329.01963-.17271.11136-.28036l.03409-.04053a.32584.32584,0,0,0,.05952-.403l-.019-.02315-.07113.06312"/><path class="b3fa3fd0-9205-4c99-aebb-d6f078870201" d="M86.99826,32.33152a1.18234,1.18234,0,0,1,.00919.12416"/><path class="b3fa3fd0-9205-4c99-aebb-d6f078870201" d="M87.20174,31.83453l-.20378.02206-.36589.03961a.9522.9522,0,0,0-.099.01389.21571.21571,0,0,0-.03147.00874.147.147,0,0,0-.08608.09025.14471.14471,0,0,0,.03517.12425.213.213,0,0,0,.07007.04684.40374.40374,0,0,0,.0894.031c.04974.0123.10121.025.14933.041l.02-.06016-.00867-.06926c-.029-.0088-.05825-.0166-.08759-.024a.23848.23848,0,0,1-.084-.03074l-.00884-.0078a.019.019,0,0,1,.00523-.018l.0124-.0066a.27316.27316,0,0,1,.06846-.01046l.134-.0145.25409-.02751.09806-.01061.03349-.00363.01182-.00128.00462-.00049c.00471-.00423.0005-.0238.00029-.03031-.00051-.01631-.00356-.03294-.00532-.04917Z"/><ellipse class="b3fa3fd0-9205-4c99-aebb-d6f078870201" cx="87.32039" cy="31.89071" rx="0.17597" ry="0.10194" transform="translate(-2.92497 9.58281) rotate(-6.17825)"/><path class="b21dfd29-d785-4e7a-98d1-4b5e365224b9" d="M87.25288,31.22909a.49533.49533,0,0,1-.93963.10172s.35711-.02192.47161-.03432C86.90527,31.28346,87.25288,31.22909,87.25288,31.22909Z"/></g></g></svg>