<svg xmlns="http://www.w3.org/2000/svg" viewBox="0 0 190.31714 41.54152"><defs><style>.a2a3d234-3173-47df-a46d-eea182668050{isolation:isolate;}.fd2983f2-1dee-49af-816c-e0b57e507275{fill:#a7a9ac;opacity:0.33;}.ba2246a9-56d2-440f-bec0-19247caf592e,.fd2983f2-1dee-49af-816c-e0b57e507275{mix-blend-mode:multiply;}.bcbfb9bc-c076-4537-a679-8596f92250e7{fill:#754c29;}.bcc1e74d-94bc-4a61-8705-e147ee1fbb6f{fill:#566345;}.a8cdcc04-d7bf-4532-8c01-897c93a18542{fill:#8b5e3c;}.aaf7cbc0-4254-4eeb-a2f5-d407b282411e{fill:#1a242d;}.f41f0323-511f-40df-9f93-2eb5a93c229b{fill:#4c563c;}.a1bb7575-f718-4e99-bfee-f6ec64428dab{fill:#63774e;}.e53d5c79-1eee-4334-a09b-014a9e82e8ed{fill:#3c2415;}.ee4cb08d-403c-47d8-882e-c1b08b35b79b{fill:#fff;}.f75c71ad-1ba2-452a-b8bd-fb7402028195{fill:#6f825a;}.e97949f9-92e5-4223-879c-41ff5896e2ad{fill:#938c6c;}.ba2246a9-56d2-440f-bec0-19247caf592e{fill:#af2027;}</style></defs><title>Artboard 17</title><g class="a2a3d234-3173-47df-a46d-eea182668050"><g id="b33353ea-ff54-45d1-8f26-1deca103c674" data-name="Layer 1"><ellipse class="fd2983f2-1dee-49af-816c-e0b57e507275" cx="95.15857" cy="24.87937" rx="95.15857" ry="16.66214"/><path class="bcbfb9bc-c076-4537-a679-8596f92250e7" d="M79.87266,8.2c1.99844.1665,3.7553-.92626,5.73393-.90954,1.50472.01285,3.04325-.38,1.11592-1.68907.02205.015,1.3969-.682,1.60909-.73618.65389-.16688,1.36122-.104,1.90157-.594a2.16,2.16,0,0,0,.53345-2.1699A2.79109,2.79109,0,0,0,88.289.00335c-4.5101-.118-8.42262,2.90249-12.03875,5.8154A4.45493,4.45493,0,0,0,79.87266,8.2Z"/><path class="bcc1e74d-94bc-4a61-8705-e147ee1fbb6f" d="M58.22469,13.45l-7.48837-.75441C46.01665,12.22013,41.2192,11.7257,36.834,9.917c.47061-1.6918.77947-5.63106,1.94027-6.91013,1.54052-1.6975,2.201-.87448,4.48338-.25925C47.71279,3.94851,52.40083,4.317,56.70092,6.07226a8.42938,8.42938,0,0,0,2.647.77561,8.14159,8.14159,0,0,0,3.15737-.70023C68.47133,3.9956,74.6805,2.35658,80.73879.58609c-1.45359.4248.872,6.08431-1.53234,7.34967-4.7576,2.503-9.5328,5.46455-15.0548,5.84861a27.26675,27.26675,0,0,1-4.617-.20238Z"/><path class="a8cdcc04-d7bf-4532-8c01-897c93a18542" d="M78.14865,29.12245c1.91795-.74538,3.90432-1.24705,5.848-1.84791,1.47808-.45708,3.112-.54858,1.609,1.23355.01719-.02041,1.5817.21813,1.807.20549a4.28279,4.28279,0,0,1,2.05215-.01269,2.05762,2.05762,0,0,1,1.18051,1.851,2.74791,2.74791,0,0,1-1.80672,2.67523c-4.40625,1.44359-9.17156-.19521-13.61245-1.82207C75.508,29.82092,76.80372,29.64515,78.14865,29.12245Z"/><path class="aaf7cbc0-4254-4eeb-a2f5-d407b282411e" d="M151.10686,7.06061c-.76944.03126-1.52789.02439-2.25337-.01224a.57445.57445,0,0,0-.34636.05527.57989.57989,0,0,0-.18924.44929l-.3467,3.30741-.15651,1.493a.50059.50059,0,0,0,.03216.30512c.32522.56005,2.23866.97334,2.85744,1.40164.71958.49807.80634.95261,1.75375,1.12294,2.22152.39938,5.415-1.46015,7.10006-2.70876a7.74141,7.74141,0,0,0,2.8327-3.45577,2.90775,2.90775,0,0,0-1.05089-3.59189c-1.30238-.67955-3.068-.0635-4.59731.55309A17.3831,17.3831,0,0,1,151.10686,7.06061Z"/><path class="f41f0323-511f-40df-9f93-2eb5a93c229b" d="M71.95313,21.90113c1.08-.162,1.84958-5.78473,2.05665-6.6831.81588-3.53966,1.99962-5.92386-.16128-9.19324-.77383-1.17078,3.41253-.65165,4.06364-.65638a58.391,58.391,0,0,0,7.075-.89107l14.985-1.99A75.65032,75.65032,0,0,1,130.17583,3.9647c1.74034.48222,19.9907,2.14445,19.86,3.33163l-.68945,6.2643a220.77036,220.77036,0,0,1-30.30157-1.188,56.43222,56.43222,0,0,1-6.49154-1.3636,1.40861,1.40861,0,0,0-.5469-.0452,1.48984,1.48984,0,0,0-.56259.28244c-5.4174,3.742-11.75907,5.296-18.08832,6.69258Q82.726,20.28423,71.95313,21.90113Z"/><path class="aaf7cbc0-4254-4eeb-a2f5-d407b282411e" d="M148.0025,24.991c-.74706-.18688-1.47282-.40724-2.15856-.64688a.57445.57445,0,0,0-.3479-.0446c-.16121.04845-.24417.222-.3082.37773L143.923,27.75287l-.571,1.3884a.50061.50061,0,0,0-.05514.30182c.15418.629,1.87354,1.56487,2.34651,2.15021.55.68071.50514,1.14127,1.36613,1.57173,2.01888,1.00935,5.607.12533,7.57568-.59769a7.74135,7.74135,0,0,0,3.69191-2.51722,2.90777,2.90777,0,0,0,.00414-3.74246c-1.058-1.01909-2.9257-.92568-4.56681-.76515A17.38266,17.38266,0,0,1,148.0025,24.991Z"/><path class="a1bb7575-f718-4e99-bfee-f6ec64428dab" d="M69.01575,26.72844c1.25152.27948,4.615-9.48755,4.945-10.61719,1.00143-3.42825.598-6.742.26524-10.21131,1.01935.05962,1.95162,1.01468,2.81835,1.51193a28.69059,28.69059,0,0,1,3.8702,2.29627,13.52048,13.52048,0,0,0,1.91665,1.45746c1.4848.80419,4.13594-.09672,5.86829.00231,3.69547.21124,7.4009.16291,11.09973.30365a109.05976,109.05976,0,0,1,45.6464,11.9965,22.13436,22.13436,0,0,0-.77581,7.72486l-24.37917-4.55333a46.79234,46.79234,0,0,0-8.6656-1.06519c-3.98522.00965-7.88687,1.03366-11.807,1.7509A77.66307,77.66307,0,0,1,69.01575,26.72844Z"/><path class="a8cdcc04-d7bf-4532-8c01-897c93a18542" d="M11.78952,20.3947a9.82356,9.82356,0,0,1,.22507-6.82493c1.03512-2.64018,3.72863-4.18034,6.22945-5.18531,2.16533-.87014,5.91376-2.39181,8.277-1.70256,1.51713.4425,3.141,3.36784,3.25156,4.80817a1.5168,1.5168,0,0,0,.63281,1.30335,1.49427,1.49427,0,0,0,.5817.12749,2.90526,2.90526,0,0,0,2.72126-1.067,10.47034,10.47034,0,0,1,3.09765-2.54A2.28323,2.28323,0,0,1,38.92154,9.042a2.33244,2.33244,0,0,1,.92852,1.83357,13.347,13.347,0,0,1-.31149,5.106,4.87377,4.87377,0,0,1-.6297,1.53418c-1.11069,1.63289-3.22554,1.85477-5.01088,2.01459-4.76036.42614-8.691,4.02091-13.37724,4.96017-.8016.16067-1.61677.24139-2.43034.32188a5.94087,5.94087,0,0,1-2.16339.07379,5.55823,5.55823,0,0,1-1.78931-1.10887A7.92848,7.92848,0,0,1,11.78952,20.3947Z"/><path class="e53d5c79-1eee-4334-a09b-014a9e82e8ed" d="M11.0892,12.44245A9.21328,9.21328,0,0,0,9.59079,16.141c-.0524.36922-.11178,4.29269.608,3.83655a.61047.61047,0,0,0,.17078-.22082,1.29135,1.29135,0,0,1,.57776-.51174,2.96769,2.96769,0,0,0-.31052,2.5696c2.16825-.57588,2.89259,2.37735,4.34513,3.31326a7.58527,7.58527,0,0,0,4.30935,1.224c3.60236-.11431,6.40115-2.529,9.23644-4.50318a4.45192,4.45192,0,0,0,1.18713-.98737A1.15957,1.15957,0,0,0,29.4803,19.21c-.83174-.576.612-.20407-.227-.769a1.73924,1.73924,0,0,0-.479-.19869c-.91417-.27587-1.85594-.51024-2.74321-.86415-.73777-.29427-.96909-.26285-1.412.50032a2.94121,2.94121,0,0,1-1.7565,1.35134.95817.95817,0,0,1-.62722.00135c-.41539-.18008-.48053-.75888-.36906-1.19951.33291-1.316.57207-1.42437-.96155-1.36321-.86918.03466-2.6862-2.16423-3.47654-2.77407-1.00826-.77859-1.09152-2.41642-2.03465-3.28736C14.00344,9.32319,11.88263,11.26052,11.0892,12.44245Z"/><path class="ee4cb08d-403c-47d8-882e-c1b08b35b79b" d="M34.96447,10.178c.01788.39093.60314.50793.85379.72732a3.1562,3.1562,0,0,1,.73971,1.1753,3.79909,3.79909,0,0,1,.087,2.6218c-.11482.3325-2.06157,3.65593-2.30441,3.52828,1.20907.63556,2.843.28562,4.16052.36107q2.18017.12486,4.36216.21477c2.87946.11981,5.76052.19782,8.642.24966,2.88293.05187,5.76626.07731,8.64958.09373.765.00436,8.53721.30223,8.59544.0375a34.16388,34.16388,0,0,0,.52122-11.63859q-3.8-.1968-7.60563-.24891-10.01242-.13719-20.00525.7255a23.78688,23.78688,0,0,0-4.58929.73382,4.33473,4.33473,0,0,0-1.92382.96252A.73368.73368,0,0,0,34.96447,10.178Z"/><path class="a1bb7575-f718-4e99-bfee-f6ec64428dab" d="M33.44065,23.97988c-.26456-.71242-.58-1.41023-.81263-2.13417a4.445,4.445,0,0,1,.08558-3.51686,4.39132,4.39132,0,0,1,1.83974-1.815c2.19968-.98763,4.40632-1.96947,6.58687-2.99794.5979-.282,1.1835-.61776,1.79267-.87261a9.86029,9.86029,0,0,0,1.31113-.45259,32.74778,32.74778,0,0,0-5.75853-1.00659c-.73063-.10611-1.4595-.22624-2.193-.31146-.65493-.07609-2.64478.40646-2.78839,1.24278C33.9446,9.55,33.805,7.15093,35.52417,4.956c1.37274-1.75239,2.7711-1.52719,4.63839-1.19438,2.45735.438,5.12907.53236,7.6239.78741C54.464,5.23171,61.174,5.68767,67.86068,5.9675a10.95374,10.95374,0,0,1,3.5309.62724,4.7123,4.7123,0,0,1,1.5393.84467c.34245.34477.36809.78651.60276,1.21456.2794.50923.692.89057,1.01525,1.36692,1.39924,2.06173.24918,6.39715.0005,8.7046A31.79718,31.79718,0,0,1,72.94231,27.011a23.0602,23.0602,0,0,1-3.04153-.87773,19.25543,19.25543,0,0,0-4.56-.14807c-3.01021.05327-6.01186.324-9.02188.386-5.92412.1219-11.37793,2.698-17.34989,2.57784-1.559-.03136-3.94657-.247-4.70417-1.87429a8.32307,8.32307,0,0,1-.43748-1.81495A9.18416,9.18416,0,0,0,33.44065,23.97988Z"/><path class="f75c71ad-1ba2-452a-b8bd-fb7402028195" d="M46.88724,12.18158q-.15733.01379-.31341.02838a13.75875,13.75875,0,0,1-4.96674-.51266,1.31027,1.31027,0,0,1-.78021-.39414c2.91834.14336,5.7088-.50222,8.591-.59151,8.334-.25818,16.59577.89147,24.91908.23339a.31874.31874,0,0,1,.21374.03437.30637.30637,0,0,1,.097.217,2.46151,2.46151,0,0,1-.0943,1.07608.4155.4155,0,0,1-.14361.23224.44037.44037,0,0,1-.23058.052c-1.69718.059-3.47474-.23276-5.18065-.299-2.6692-.10362-5.33863-.20726-8.00956-.25619-2.696-.0494-5.39275-.04288-8.08894-.00844A33.08913,33.08913,0,0,0,43.606,12.99768a5.7373,5.7373,0,0,1-1.58865.2407A4.31324,4.31324,0,0,1,44.26946,11.908a10.69225,10.69225,0,0,1-3.08129-.51681"/><path class="e97949f9-92e5-4223-879c-41ff5896e2ad" d="M68.81263,26.09154a7.66837,7.66837,0,0,0,2.40615.48831c.65086-.10059.85659-.835,1.0911-1.33918a25.65417,25.65417,0,0,0,1.63832-6.07189,42.31159,42.31159,0,0,0,.70346-7.9932,19.57531,19.57531,0,0,0-.11058-2.77c-.10861-.7206-.58681-2.61592-1.39965-2.841a1.54,1.54,0,0,0-.72557.02722c-.92254.19554-1.84632.30325-2.7709.44117A7.64475,7.64475,0,0,0,70.119,7.902c.16236.76167.46569,1.51731.55789,2.2898a19.896,19.896,0,0,1,.09884,3.09343A36.982,36.982,0,0,1,68.801,22.841c-.22091.714-.44132,1.42933-.711,2.12679-.08525.22052-.38485.65627-.25448.87942.10637.18208.64611.176.82564.21121Q68.73457,26.0728,68.81263,26.09154Z"/><path class="f75c71ad-1ba2-452a-b8bd-fb7402028195" d="M35.96815,24.863c-4.4138,2.66271,2.74339,6.4459,4.98443,7.09062,2.53792.73014,4.926,1.93,7.50766,2.6074a58.6666,58.6666,0,0,0,8.53809,2.02893,37.95323,37.95323,0,0,0,9.605-.64878l4.315-.65076c1.70936-.2578,3.41921-.51481,5.12164-.81568,1.23881-.21894,4.17627-.23147,4.74317-1.4862l-.49386-3.78221a1.83147,1.83147,0,0,0-.26443-.864,1.85226,1.85226,0,0,0-1.608-.484c-5.09486.14849-10.23465.36467-15.29054.76406a13.54382,13.54382,0,0,1-3.50412-.02729,13.5282,13.5282,0,0,1-2.01419-.5897c-2.34384-.82018-4.98743-1.36567-7.19434-2.46692-2.57859-1.2867-5.15806-1.64455-7.97744-2.15893a9.66247,9.66247,0,0,0-4.21716-.09966,3.60064,3.60064,0,0,0-2.77579,2.87563"/><path class="ba2246a9-56d2-440f-bec0-19247caf592e" d="M51.38234,31.60362a2.38122,2.38122,0,0,0,.365-1.06807q.14949-.83394.36209-1.6549a1.56257,1.56257,0,0,1,.25578-.60479c.40839-.50586,1.3276.01963,1.88992-.12905a1.06769,1.06769,0,0,0-.7082-.836,2.06817,2.06817,0,0,0-.62117-.15044,3.71821,3.71821,0,0,0-.64294.05.43157.43157,0,0,1-.33692-.11167c-.13631-.13938-.11127-.34236-.18958-.50743-.12124-.25555-.33521-.23691-.58248-.29124a1.27957,1.27957,0,0,0-.50535-.05023,1.55609,1.55609,0,0,1-.39219.0701,1.55293,1.55293,0,0,1-.3245-.13489,2.35,2.35,0,0,0-.61031-.07064c-.65454-.03732-1.47795.026-1.7202.63525a2.235,2.235,0,0,1-.14722.401c-.21666.33717-.715.2576-1.11542.24052a2.3387,2.3387,0,0,0-2.01477,1.03272.48206.48206,0,0,0-.10406.375c.1085.39768.85417.135,1.05843.49308.152.26639-.15236.55634-.41711.71114-.55442.32416-1.1981.80677-1.08488,1.43894a1.08223,1.08223,0,0,0,1.54163.58287c.36-.17808.80243-.49408,1.09963-.224a1.00829,1.00829,0,0,1,.24426.55575c.06187.22494.11977.29826.02945.53231a.45714.45714,0,0,0-.00874.32452.3255.3255,0,0,0,.24052.20688c.28222.04666.49686-.33387.78081-.29929.16778.02044.279.177.38091.31189s.25049.274.41563.23793A.45162.45162,0,0,0,48.753,33.497a.38619.38619,0,0,0,.12061-.35083.62729.62729,0,0,0-.15848-.19393.4726.4726,0,0,1-.11606-.44907.35239.35239,0,0,1,.37117-.24673c.11721.01876.23919.1048.34307.04738a.211.211,0,0,0,.09158-.1867c.00069-.07269-.01944-.14392-.02559-.21635a.42381.42381,0,0,1,.38857-.4734.63524.63524,0,0,1,.17786.04553c.26336.09537.36925.40569.65841.46121A.84128.84128,0,0,0,51.38234,31.60362Z"/></g></g></svg>