<svg id="e76db0d6-b4c2-432e-bdf0-1b8d20cef4bf" data-name="Layer 1" xmlns="http://www.w3.org/2000/svg" xmlns:xlink="http://www.w3.org/1999/xlink" viewBox="0 0 51.46099 95.89001"><defs><style>.b501c145-ec5d-4684-9428-8a4747ac7b85,.b5affacb-0034-4461-9346-7bfc24ba9747,.e04b7fe3-ee75-4171-8a4c-db2a8376ef1c,.e214ae74-3c4d-4f83-851c-9208f955d0fa,.ed35868b-1405-42a4-9d0b-38499d510b14,.f01631f9-aacf-4452-a84b-4187b0242128{fill:none;}.b501c145-ec5d-4684-9428-8a4747ac7b85,.b7401365-97a7-44fe-9fe8-95f82271e92f,.ed35868b-1405-42a4-9d0b-38499d510b14{stroke:#0f2849;}.b5affacb-0034-4461-9346-7bfc24ba9747,.ed35868b-1405-42a4-9d0b-38499d510b14{stroke-linecap:round;}.b501c145-ec5d-4684-9428-8a4747ac7b85,.b5affacb-0034-4461-9346-7bfc24ba9747,.b7401365-97a7-44fe-9fe8-95f82271e92f,.e04b7fe3-ee75-4171-8a4c-db2a8376ef1c,.ed35868b-1405-42a4-9d0b-38499d510b14,.f01631f9-aacf-4452-a84b-4187b0242128{stroke-miterlimit:10;}.ed35868b-1405-42a4-9d0b-38499d510b14{stroke-width:12.60748px;}.b501c145-ec5d-4684-9428-8a4747ac7b85,.b7401365-97a7-44fe-9fe8-95f82271e92f{stroke-width:5.60333px;}.b7401365-97a7-44fe-9fe8-95f82271e92f{fill:#e7f6fc;}.b7401365-97a7-44fe-9fe8-95f82271e92f,.e04b7fe3-ee75-4171-8a4c-db2a8376ef1c,.f01631f9-aacf-4452-a84b-4187b0242128{opacity:0.7;}.a106fcbd-f2f2-4408-8c59-896653f6b9f0{clip-path:url(#e7e063e4-00ad-49e8-ae7e-ace272e232e0);}.e04b7fe3-ee75-4171-8a4c-db2a8376ef1c,.f01631f9-aacf-4452-a84b-4187b0242128{stroke:#fff;}.f01631f9-aacf-4452-a84b-4187b0242128{stroke-width:7.31375px;}.e04b7fe3-ee75-4171-8a4c-db2a8376ef1c{stroke-width:3.65687px;}.b5affacb-0034-4461-9346-7bfc24ba9747{stroke:#4e7582;stroke-width:2.10125px;}.af31a5fb-21fc-4394-ad1f-07a6f16b02d5{fill:#4e7582;}</style><clipPath id="e7e063e4-00ad-49e8-ae7e-ace272e232e0"><circle class="e214ae74-3c4d-4f83-851c-9208f955d0fa" cx="25.73049" cy="25.73049" r="19.95182"/></clipPath></defs><title>Artboard 32</title><line class="ed35868b-1405-42a4-9d0b-38499d510b14" x1="26.32769" y1="52.46834" x2="27.15673" y2="89.58627"/><circle class="b501c145-ec5d-4684-9428-8a4747ac7b85" cx="25.73049" cy="25.73049" r="22.92872"/><circle class="b7401365-97a7-44fe-9fe8-95f82271e92f" cx="25.73049" cy="25.73049" r="22.92872"/><g class="a106fcbd-f2f2-4408-8c59-896653f6b9f0"><line class="f01631f9-aacf-4452-a84b-4187b0242128" x1="27.90912" y1="3.76331" x2="38.93223" y2="41.77578"/><line class="e04b7fe3-ee75-4171-8a4c-db2a8376ef1c" x1="19.24714" y1="3.37309" x2="32.21385" y2="48.0879"/></g><line class="b5affacb-0034-4461-9346-7bfc24ba9747" x1="23.22914" y1="49.50518" x2="24.15772" y2="91.07996"/><path class="af31a5fb-21fc-4394-ad1f-07a6f16b02d5" d="M48.35192,25.54019A23.46569,23.46569,0,0,1,8.94836,43.27957a23.71926,23.71926,0,0,1-5.436-7.57239,23.46628,23.46628,0,0,1-.41088-18.32251,23.46159,23.46159,0,0,1,45.25048,8.15552Zm0,0a23.03177,23.03177,0,0,0-1.97924-8.719A22.36392,22.36392,0,0,0,24.92248,3.65079a22.41583,22.41583,0,1,0,16.97022,38.152A22.61093,22.61093,0,0,0,46.764,34.339,23.02851,23.02851,0,0,0,48.35192,25.54019Z"/></svg>