<svg id="bbc9afd2-f750-4baf-ba99-b5af896cb9f8" data-name="Layer 1" xmlns="http://www.w3.org/2000/svg" viewBox="0 0 109.85515 51.59565"><defs><style>.af7a7534-8858-474d-af6e-80dee60830fc,.e8a57d3b-da70-47bf-ae8a-1cff7da26ecb{fill:#4e7582;}.af7a7534-8858-474d-af6e-80dee60830fc{stroke:#4e7582;stroke-width:1.14071px;}.af7a7534-8858-474d-af6e-80dee60830fc,.bea0924b-9beb-4b2d-a9e7-15eb097f9e68{stroke-linejoin:round;}.bea0924b-9beb-4b2d-a9e7-15eb097f9e68{fill:#231f20;stroke:#231f20;stroke-width:1.40358px;}.adaa66b1-0a6a-4307-a516-434450deb17a{fill:#fff;}.ec028a5b-0962-471c-b39e-62ab2fccf622{fill:#ef5b5b;}.a658b304-b49a-4eb8-bffc-a630b4b3bf7a{fill:#eeb95b;}.e4f3accd-8941-4286-b78c-238e213f1604{fill:#4d7582;}</style></defs><title>Artboard 25</title><path class="af7a7534-8858-474d-af6e-80dee60830fc" d="M98.08825,3.35117h0A2.66071,2.66071,0,0,1,100.749,6.01187V33.63713a0,0,0,0,1,0,0H95.42755a0,0,0,0,1,0,0V6.01187a2.66071,2.66071,0,0,1,2.66071-2.66071Z" transform="matrix(0.72964, 0.68383, -0.68383, 0.72964, 39.1664, -62.07603)"/><path class="bea0924b-9beb-4b2d-a9e7-15eb097f9e68" d="M82.48541,35.14205l1.71181-3.65422L85.909,27.8336a18.0698,18.0698,0,0,1,2.17454,1.37168,17.04088,17.04088,0,0,1,1.47331,2.04718l-3.53574,1.9448Z"/><polygon class="e8a57d3b-da70-47bf-ae8a-1cff7da26ecb" points="39.528 46.658 6.298 51.596 0 9.211 30.362 4.248 34.71 14.237 39.528 46.658"/><polygon class="adaa66b1-0a6a-4307-a516-434450deb17a" points="45.559 36.246 12.815 48.118 0.085 9.783 29.545 0 34.852 12.012 34.469 18.297 38.881 21.13 45.559 36.246"/><path class="ec028a5b-0962-471c-b39e-62ab2fccf622" d="M35.35727,16.77885V4.48512c-.07716-.00143-.15229-.01162-.22979-.01162A12.30534,12.30534,0,1,0,46.11623,22.2939Z"/><path class="a658b304-b49a-4eb8-bffc-a630b4b3bf7a" d="M38.69235,0V12.0637L50.33608,9.10657A12.29809,12.29809,0,0,0,38.69235,0Z"/><path class="e8a57d3b-da70-47bf-ae8a-1cff7da26ecb" d="M52.96694,15.61486a12.27648,12.27648,0,0,0-.43126-3.18712L40.89162,15.38487v.23l10.7593,5.515A12.23748,12.23748,0,0,0,52.96694,15.61486Z"/><path class="e4f3accd-8941-4286-b78c-238e213f1604" d="M51.2691,21.47559a2.71542,2.71542,0,0,1,2.76117-.43763,3.55828,3.55828,0,0,1,2.17087,1.98865,6.884,6.884,0,0,1,.15906,2.96155c-.10813.96667-.28387,1.91211-.42731,2.84985a12.70978,12.70978,0,0,0-.20264,2.74451,2.06713,2.06713,0,0,0,.36605,1.10071,1.4188,1.4188,0,0,0,.95873.45862c1.71267.22338,3.308-1.0149,5.14942-1.72828a13.82609,13.82609,0,0,1,5.83689-.93249A4.52911,4.52911,0,0,1,70.866,31.75977,13.48266,13.48266,0,0,1,72.571,34.15918a4.85475,4.85475,0,0,0,1.909,1.846,6.00492,6.00492,0,0,0,2.643.61609,15.64176,15.64176,0,0,0,5.49986-1.254,14.61616,14.61616,0,0,1-5.49509,1.74426,6.47943,6.47943,0,0,1-2.9228-.53772,5.56487,5.56487,0,0,1-2.26687-1.97742,17.2101,17.2101,0,0,0-1.67643-2.21814,3.62648,3.62648,0,0,0-2.31269-.9917,13.01789,13.01789,0,0,0-5.38486.959c-.86419.31531-1.68374.76843-2.60073,1.15881a5.7,5.7,0,0,1-3.03209.53748,2.31019,2.31019,0,0,1-1.529-.80811,2.90466,2.90466,0,0,1-.53214-1.57788,11.01785,11.01785,0,0,1,.30882-2.9519c.19116-.94422.40913-1.87122.5578-2.79944a6.52905,6.52905,0,0,0,.00239-2.72254C55.24266,21.54016,52.90429,20.32422,51.2691,21.47559Z"/></svg>