<svg id="b245083b-d262-460d-a65d-5397f260316f" data-name="Layer 1" xmlns="http://www.w3.org/2000/svg" viewBox="0 0 49.79508 38.93218"><defs><style>.faf661f8-d4e6-48ef-b8ac-a50f972dac94{fill:#fff;}.ba1d9f13-a3d7-4a42-be8c-656ded5117a7{fill:#a7a9ac;}.bd2fcfd1-1953-425a-84a1-03559f3268cc{fill:#231f20;}.b6d75799-1a4e-41b0-a2a8-4ecdadbc724c,.f79e3ab3-a8bd-4707-8c1d-0450a80583c8{fill:#414042;}.e4915125-a7c0-4e08-ad47-c97ac3e2b23c{fill:#1ca36d;}.b09e7c60-3c70-4481-a761-f42582e8b48d{fill:#939598;opacity:0.56;}.b6d75799-1a4e-41b0-a2a8-4ecdadbc724c{stroke:#58595b;stroke-miterlimit:10;stroke-width:0.13152px;}</style></defs><title>Artboard 30</title><ellipse class="faf661f8-d4e6-48ef-b8ac-a50f972dac94" cx="35.97008" cy="10.40901" rx="13.825" ry="10.40901"/><path class="faf661f8-d4e6-48ef-b8ac-a50f972dac94" d="M25.83086,15.06179a.61815.61815,0,0,0-1.01874.32939l-.50073,2.33926-.50074,2.33925a.61815.61815,0,0,0,.79462.71756l2.27623-.736,2.27622-.736a.61815.61815,0,0,0,.22411-1.04695l-1.77549-1.60328Z"/><path class="ba1d9f13-a3d7-4a42-be8c-656ded5117a7" d="M30.80047,36.04262.3266,25.43039l-.32036,2.4781a1.25853,1.25853,0,0,0,.534,1.08475L30.644,38.90062c.31727.10441.66069-.05155.98635-.448l4.81423-6.22081a3.24285,3.24285,0,0,0,.53119-1.53172l.20942-1.61995-5.18381,6.5086A1.08636,1.08636,0,0,1,30.80047,36.04262Z"/><path class="bd2fcfd1-1953-425a-84a1-03559f3268cc" d="M30.65253,37.26909a2.46514,2.46514,0,0,1-.77246-.125L1.18769,27.54741A1.37769,1.37769,0,0,1,.26093,26.773a.647.647,0,0,1,.09863-.5918l5.21192-7.12011a1.43693,1.43693,0,0,1,1.1709-.458,2.47666,2.47666,0,0,1,.77343.126l28.69141,9.5957a1.37769,1.37769,0,0,1,.92676.77441.647.647,0,0,1-.09863.5918l-.71094.97168-.0625.01367a.56189.56189,0,0,0-.33594.18652.182.182,0,0,0-.01855.209l.0498.09277-2.98926,4.084-.0625.01367a.56656.56656,0,0,0-.33691.18652.18348.18348,0,0,0-.01758.209l.0498.09277-.77734,1.06055A1.43557,1.43557,0,0,1,30.65253,37.26909Z"/><path class="f79e3ab3-a8bd-4707-8c1d-0450a80583c8" d="M6.74238,18.7708a2.29094,2.29094,0,0,1,.72.11695L36.155,28.48369c.69092.23108,1.02442.72754.74537,1.10889l-.67334.92a.72068.72068,0,0,0-.436.2511.34959.34959,0,0,0-.031.38672l-2.88989,3.94812a.72092.72092,0,0,0-.436.25122.34952.34952,0,0,0-.03076.38672l-.71436.97583a1.29171,1.29171,0,0,1-1.03613.38916,2.29158,2.29158,0,0,1-.72022-.11694L1.23994,27.3886c-.69068-.231-1.02466-.72742-.74537-1.10889L5.706,19.16a1.29193,1.29193,0,0,1,1.03638-.38916m0-.335a1.60109,1.60109,0,0,0-1.30664.52625L.22431,26.08184a.81172.81172,0,0,0-.123.74194,1.52035,1.52035,0,0,0,1.03247.88257l28.69263,9.596a2.63921,2.63921,0,0,0,.82642.13427,1.60094,1.60094,0,0,0,1.30639-.52636l.71436-.97583.12451-.16992-.09936-.1858a.32244.32244,0,0,1,.24145-.15246l.12476-.02673.07544-.103,2.88989-3.94812.12427-.16968-.09888-.18555a.32111.32111,0,0,1,.24145-.15283l.12476-.02673.07544-.103.67334-.92a.81123.81123,0,0,0,.1228-.74207,1.51983,1.51983,0,0,0-1.03222-.88232L7.56855,18.57a2.63755,2.63755,0,0,0-.82617-.13416Z"/><path class="e4915125-a7c0-4e08-ad47-c97ac3e2b23c" d="M21.33562,30.33138a2.82279,2.82279,0,0,1-2.1127-.22662c-.4718-.32288-.829-.90347-.35891-1.13718.34692-.17246.75068-.42355.61232-.51823l-3.3888-2.31917c-.13836-.09468-.5855.12671-.93242.29917a2.44061,2.44061,0,0,1-1.91-.41557.68852.68852,0,0,1-.05209-1.20153,5.38415,5.38415,0,0,1,4.59722.47148l3.3888,2.31916C22.40892,28.44457,22.46814,29.76838,21.33562,30.33138Z"/><polygon class="b09e7c60-3c70-4481-a761-f42582e8b48d" points="13.878 21.033 22.546 34.514 25.929 35.646 17.26 22.164 13.878 21.033"/><path class="b09e7c60-3c70-4481-a761-f42582e8b48d" d="M28.97426,36.6641l.95825.32048c.05184.01734.105.02886.1578.04217L21.466,23.57115,20.34136,23.195Z"/><ellipse class="b6d75799-1a4e-41b0-a2a8-4ecdadbc724c" cx="7.10788" cy="19.9875" rx="0.3846" ry="0.66015" transform="translate(-13.69668 24.13386) rotate(-81.69519)"/><path class="f79e3ab3-a8bd-4707-8c1d-0450a80583c8" d="M13.62626,20.58984l-.13914.19009a.16421.16421,0,0,1-.1719.02664l-2.1865-.73126c-.06761-.02261-.10028-.0712-.07295-.10853l.13913-.19009a.16422.16422,0,0,1,.1719-.02664l2.1865.73126C13.62092,20.50392,13.65358,20.55251,13.62626,20.58984Z"/><path class="f79e3ab3-a8bd-4707-8c1d-0450a80583c8" d="M11.47238,31.10526l-.13158.28484a.11948.11948,0,0,1-.14594.062l-1.7605-.63373a.09679.09679,0,0,1-.05519-.13442l.13158-.28484a.11949.11949,0,0,1,.14594-.062l1.76049.63373A.09679.09679,0,0,1,11.47238,31.10526Z"/><path class="f79e3ab3-a8bd-4707-8c1d-0450a80583c8" d="M8.08031,29.99813l-.08084.17406a.18684.18684,0,0,1-.2167.09315l-4.167-1.21264a.12953.12953,0,0,1-.08888-.18207l.08084-.17407a.18684.18684,0,0,1,.2167-.09315l4.167,1.21264A.12954.12954,0,0,1,8.08031,29.99813Z"/><path class="f79e3ab3-a8bd-4707-8c1d-0450a80583c8" d="M4.30812,21.91734l-1.3574,1.85447a.09112.09112,0,0,1-.09539.01478l-.1174-.03926c-.03752-.01255-.05564-.03951-.04048-.06022l1.35741-1.85447a.0911.0911,0,0,1,.09538-.01478l.1174.03926C4.30516,21.86967,4.32329,21.89663,4.30812,21.91734Z"/><ellipse class="f79e3ab3-a8bd-4707-8c1d-0450a80583c8" cx="32.89484" cy="36.25654" rx="0.4756" ry="0.17423" transform="translate(-7.35566 64.12238) rotate(-82.47843)"/></svg>