<?xml version="1.0" encoding="utf-8"?>
<!-- Generator: Adobe Illustrator 19.1.0, SVG Export Plug-In . SVG Version: 6.00 Build 0)  -->
<svg version="1.1" id="Layer_1" xmlns="http://www.w3.org/2000/svg" xmlns:xlink="http://www.w3.org/1999/xlink" x="0px" y="0px"
	 viewBox="0 0 94.5 98.3" enable-background="new 0 0 94.5 98.3" xml:space="preserve">
<g>
	<g>
		<g>
			<path fill="#2C2C2D" d="M58.8,95.2L48.5,83l33.4-28.1c3.4-2.8,7.4-1.5,10.3,1.9l0,0c2.8,3.4,3.3,7.5,0,10.3L58.8,95.2z"/>
			<g>
				<defs>
					<path id="SVGID_773_" d="M58.8,95.2L48.5,83l33.4-28.1c3.4-2.8,7.4-1.5,10.3,1.9l0,0c2.8,3.4,3.3,7.5,0,10.3L58.8,95.2z"/>
				</defs>
				<clipPath id="SVGID_2_">
					<use xlink:href="#SVGID_773_"  overflow="visible"/>
				</clipPath>
				<path clip-path="url(#SVGID_2_)" fill="#414042" d="M57.6,93.5L47.4,81.3l33.4-28.1c3.4-2.8,7.4-1.5,10.3,1.9l0,0
					c2.8,3.4,3.3,7.5,0,10.3L57.6,93.5z"/>
			</g>
			<path fill="#58595B" d="M61.4,91.3c1.1,4.3-0.9,6.4-4.4,4.8s-7.2-6.3-8.3-10.6c-1.1-4.3,0.9-6.4,4.4-4.8S60.3,87,61.4,91.3z"/>
			<path fill="#414042" d="M59.4,92.6c1.1,4.3-0.9,6.4-4.4,4.8s-7.2-6.3-8.3-10.6c-1.1-4.3,0.9-6.4,4.4-4.8S58.3,88.4,59.4,92.6z"/>
			<path fill="#58595B" d="M58,93.4c1,3.9-0.8,5.9-4,4.4s-6.6-5.8-7.6-9.7s0.8-5.9,4-4.4S57,89.5,58,93.4z"/>
			<path fill="#414042" d="M56.9,92.8c0.8,3.1-0.6,4.7-3.2,3.5s-5.3-4.6-6.1-7.8c-0.8-3.1,0.6-4.7,3.2-3.5S56.1,89.7,56.9,92.8z"/>
			<g>
				<defs>
					<path id="SVGID_775_" d="M56.9,92.8c0.8,3.1-0.6,4.7-3.2,3.5s-5.3-4.6-6.1-7.8c-0.8-3.1,0.6-4.7,3.2-3.5S56.1,89.7,56.9,92.8z"
						/>
				</defs>
				<clipPath id="SVGID_4_">
					<use xlink:href="#SVGID_775_"  overflow="visible"/>
				</clipPath>
				<path clip-path="url(#SVGID_4_)" fill="#6D6E71" d="M56.7,91.5c0.7,2.6-0.5,3.9-2.6,2.9c-2.1-1-4.4-3.8-5-6.4
					c-0.7-2.6,0.5-3.9,2.6-2.9C53.8,86.1,56,88.9,56.7,91.5z"/>
				<path clip-path="url(#SVGID_4_)" fill="#808285" d="M57.7,90.6c0.7,2.6-0.5,3.9-2.6,2.9c-2.1-1-4.4-3.8-5-6.4s0.5-3.9,2.6-2.9
					C54.8,85.2,57.1,88.1,57.7,90.6z"/>
			</g>
		</g>
		<path fill="#2C2C2D" d="M37.9,76.8L27.6,64.7L61,36.5c3.4-2.8,7.4-1.5,10.3,1.9l0,0c2.8,3.4,3.3,7.5,0,10.3L37.9,76.8z"/>
		<g>
			<defs>
				<path id="SVGID_777_" d="M37.9,76.8L27.6,64.7L61,36.5c3.4-2.8,7.4-1.5,10.3,1.9l0,0c2.8,3.4,3.3,7.5,0,10.3L37.9,76.8z"/>
			</defs>
			<clipPath id="SVGID_6_">
				<use xlink:href="#SVGID_777_"  overflow="visible"/>
			</clipPath>
			<path clip-path="url(#SVGID_6_)" fill="#414042" d="M36.7,75.1L26.5,63l33.4-28.1c3.4-2.8,7.4-1.5,10.3,1.9l0,0
				c2.8,3.4,3.3,7.5,0,10.3L36.7,75.1z"/>
		</g>
		<polygon fill="#2C2C2D" points="46.4,58.1 51.2,65.6 60,73.5 65.9,72.4 		"/>
		<g>
			<path fill="#414042" d="M61,66.9l-2-1c-2-2.4-5.3-3-4.2-3.9l15.4-13c2.2-1.8,5.4-1.6,7.3,0.6l0,0c1.4,1.7,1.9,3.6,1.3,5.4
				c-0.3,0.9-0.9,1.6-1.6,2.2L63.8,68.6C61.6,70.4,62.8,69.1,61,66.9z"/>
			<g>
				<defs>
					<path id="SVGID_779_" d="M59.8,65.6L59,65.9c-1.9-2.3-5.7-2.7-5.7-2.7l17.3-14.6c2.3-1.9,4.6-1,6.5,1.3l0,0
						c1.8,2.2,2.2,4.5,0.4,7l-14.2,12C61.1,70.8,61.8,67.9,59.8,65.6z"/>
				</defs>
				<clipPath id="SVGID_8_">
					<use xlink:href="#SVGID_779_"  overflow="visible"/>
				</clipPath>
				<path clip-path="url(#SVGID_8_)" fill="#58595B" d="M51.3,69.8L51.3,69.8c-2-2.4-0.6-4.9,1.7-6.9L69.8,49c1.7-1,3.5-2.1,5.3,0.1
					l0,0c2,2.4,1.7,6-0.7,8L58.6,70.4C56.4,72.3,53.1,72,51.3,69.8z"/>
			</g>
		</g>
		<polygon fill="#414042" points="82.5,59.6 64.5,46.1 48.4,59.6 66.5,73.1 		"/>
		<path fill="#58595B" d="M40.5,73c1.1,4.3-0.9,6.4-4.4,4.8s-7.2-6.3-8.3-10.6c-1.1-4.3,0.9-6.4,4.4-4.8S39.4,68.7,40.5,73z"/>
		<path fill="#414042" d="M38.5,74.3c1.1,4.3-0.9,6.4-4.4,4.8s-7.2-6.3-8.3-10.6c-1.1-4.3,0.9-6.4,4.4-4.8S37.4,70.1,38.5,74.3z"/>
		<path fill="#2C2C2D" d="M68.6,46c-1.4-3.3-5-6.6-8-7.5c-1.9-0.5-3.1,0.1-3.4,1.5c0.5-0.2,1.2-0.1,2,0.1c3,0.8,6.6,4.2,8,7.5
			c0.5,1.2,0.6,2.2,0.5,3C69.2,50.1,69.6,48.4,68.6,46z"/>
		<path fill="#2C2C2D" d="M89,64.8c-1.4-3.3-5-6.6-8-7.5c-1.9-0.5-3.1,0.1-3.4,1.5c0.5-0.2,1.2-0.1,2,0.1c3,0.8,6.6,4.2,8,7.5
			c0.5,1.2,0.6,2.2,0.5,3C89.6,68.9,90,67.2,89,64.8z"/>
		<path fill="#58595B" d="M37.1,75c1,3.9-0.8,5.9-4,4.4s-6.6-5.8-7.6-9.7c-1-3.9,0.8-5.9,4-4.4S36.1,71.1,37.1,75z"/>
		<path fill="#414042" d="M36,74.5c0.8,3.1-0.6,4.7-3.2,3.5s-5.3-4.6-6.1-7.8c-0.8-3.1,0.6-4.7,3.2-3.5S35.2,71.4,36,74.5z"/>
		<g>
			<defs>
				<path id="SVGID_781_" d="M36,74.5c0.8,3.1-0.6,4.7-3.2,3.5s-5.3-4.6-6.1-7.8c-0.8-3.1,0.6-4.7,3.2-3.5S35.2,71.4,36,74.5z"/>
			</defs>
			<clipPath id="SVGID_10_">
				<use xlink:href="#SVGID_781_"  overflow="visible"/>
			</clipPath>
			<path clip-path="url(#SVGID_10_)" fill="#6D6E71" d="M35.8,73.2c0.7,2.6-0.5,3.9-2.6,2.9c-2.1-1-4.4-3.8-5-6.4
				c-0.7-2.6,0.5-3.9,2.6-2.9C32.9,67.7,35.1,70.6,35.8,73.2z"/>
			<path clip-path="url(#SVGID_10_)" fill="#808285" d="M36.8,72.3c0.7,2.6-0.5,3.9-2.6,2.9c-2.1-1-4.4-3.8-5-6.4s0.5-3.9,2.6-2.9
				S36.2,69.7,36.8,72.3z"/>
		</g>
		<g>
			<defs>
				<polygon id="SVGID_783_" points="48.4,59.6 51.2,65.6 62.7,75.8 68.6,74.7 				"/>
			</defs>
			<clipPath id="SVGID_12_">
				<use xlink:href="#SVGID_783_"  overflow="visible"/>
			</clipPath>
			<path clip-path="url(#SVGID_12_)" fill="#232323" d="M58.5,71.5c-1.1,1.1-3.1,0.9-4.6-0.5s-1.9-3.4-0.8-4.5s3.1-0.9,4.6,0.5
				S59.6,70.4,58.5,71.5z"/>
		</g>
		<g>
			<path fill="#6D6E71" d="M57.6,72.4c-1.2,1.2-3.5,1-5.2-0.6c-1.7-1.6-2.1-3.8-0.9-5c1.2-1.2,3.5-1,5.2,0.6
				C58.4,68.9,58.8,71.1,57.6,72.4z"/>
			<g>
				<g>
					<defs>
						<path id="SVGID_785_" d="M57.6,72.4c-1.2,1.2-3.5,1-5.2-0.6c-1.7-1.6-2.1-3.8-0.9-5c1.2-1.2,3.5-1,5.2,0.6
							C58.4,68.9,58.8,71.1,57.6,72.4z"/>
					</defs>
					<clipPath id="SVGID_14_">
						<use xlink:href="#SVGID_785_"  overflow="visible"/>
					</clipPath>
					<ellipse clip-path="url(#SVGID_14_)" fill="#808285" cx="53.3" cy="68.2" rx="4.3" ry="4.1"/>
				</g>
				<g>
					<defs>
						<path id="SVGID_787_" d="M57.6,72.4c-1.2,1.2-3.5,1-5.2-0.6c-1.7-1.6-2.1-3.8-0.9-5c1.2-1.2,3.5-1,5.2,0.6
							C58.4,68.9,58.8,71.1,57.6,72.4z"/>
					</defs>
					<clipPath id="SVGID_16_">
						<use xlink:href="#SVGID_787_"  overflow="visible"/>
					</clipPath>
					<path clip-path="url(#SVGID_16_)" fill="#58595B" d="M56.3,72.9c-1.1,1.1-3.2,0.9-4.7-0.5c-1.5-1.4-1.9-3.5-0.8-4.6
						c1.1-1.1,3.2-0.9,4.7,0.5C57,69.7,57.4,71.8,56.3,72.9z"/>
					<ellipse clip-path="url(#SVGID_16_)" fill="#414042" cx="52.4" cy="70" rx="3.4" ry="3.3"/>
				</g>
			</g>
		</g>
		<g>
			<defs>
				<polygon id="SVGID_789_" points="84.6,61.2 62.2,43.8 46.2,57.3 68.6,74.7 				"/>
			</defs>
			<clipPath id="SVGID_18_">
				<use xlink:href="#SVGID_789_"  overflow="visible"/>
			</clipPath>
			<polygon clip-path="url(#SVGID_18_)" fill="#58595B" points="81.9,59.3 61.8,44.4 46.4,57.3 66.5,72.2 			"/>
		</g>
	</g>
	<g>
		<ellipse fill="#FFFFFF" cx="25.3" cy="19.1" rx="25.3" ry="19.1"/>
		<path fill="#FFFFFF" d="M43.9,27.6c0.6-0.6,1.7-0.2,1.9,0.6l0.9,4.3l0.9,4.3c0.2,0.9-0.6,1.6-1.5,1.3L42,36.7l-4.2-1.3
			c-0.8-0.3-1.1-1.3-0.4-1.9l3.3-2.9L43.9,27.6z"/>
	</g>
</g>
</svg>
