<?xml version="1.0" encoding="utf-8"?>
<!-- Generator: Adobe Illustrator 19.1.0, SVG Export Plug-In . SVG Version: 6.00 Build 0)  -->
<svg version="1.1" id="Layer_1" xmlns="http://www.w3.org/2000/svg" xmlns:xlink="http://www.w3.org/1999/xlink" x="0px" y="0px"
	 viewBox="0 0 62 91.2" enable-background="new 0 0 62 91.2" xml:space="preserve">
<g>
	<defs>
		<rect id="SVGID_797_" x="-9.5" y="-9.5" width="93.1" height="100.7"/>
	</defs>
	<clipPath id="SVGID_2_">
		<use xlink:href="#SVGID_797_"  overflow="visible"/>
	</clipPath>
	<g clip-path="url(#SVGID_2_)">
		<path fill="#3C2415" d="M18.6,28.4c1.2-1,2.1-2.4,3.6-4.1c3.9-4.6,9.8-9.1,8.3-15.9c-1.3-5.9-10-9.4-15.4-8.1
			C7.8,1.9-0.6,10,0.6,18.1c0.3,2.1,1.3,4.1,2.5,5.9c0.7,1.1,1.6,2.2,2.6,3.1c2.3,2.1,5.6,3.1,8.7,2.8
			C16.3,29.8,17.6,29.2,18.6,28.4z"/>
		<path fill="#DBAE95" d="M39.2,95.7c-0.2,0.3-0.4,0.6-0.8,0.8c-0.3,0.1-0.7,0-1-0.1c-1.9-0.7-3.5-2.1-4.9-3.6
			c-2.5-2.7-5.7-6.6-6.2-10.5c-0.3-2.2,1-3.3,1.4-5.2c0.2-1.1,0-2.5,0.2-3.6c0.2-1.3,0.4-2.6,0.6-3.8c0.4-2.2,0.7-4.5,0.5-6.8
			c-0.2-1.7-0.7-4.3-2.2-5.4c-1.2-0.9-2.7-0.7-3.7-2.1c-3.9-5.8-3.5-15.3-2-21.9c0.8-3.4,2.2-6.8,4.7-9.3c2-1.9,4.5-3.1,7.1-3.9
			c4.7-1.5,9.9-1.9,14.5-0.3c9,3.1,11.6,10.2,12.6,18.3c0.2,1.8,0.4,3.7,0.5,5.6c0.4,6.2,1.6,19.5-7.2,20.4
			c-2.2,0.2-4.5,0.5-6.7,0.7c-2.1,0.2-4.4,4.6-1.7,4.1c0.7,0,0.7,0.3,1.1,0.9c0.4,0.6,0.5,1.3,0.6,2c0.6,3.3,0.8,7,0,10.3
			c-0.6,2.8-3.2,4.2-4.3,6.7C41.2,91.2,40.6,93.5,39.2,95.7z"/>
		<path fill="#FFFFFF" d="M45.6,71.8c-0.9,0.2-0.9,1.5-1.1,2.2c-0.3,1.2-0.8,2.4-1.2,3.6c-0.4,1.2-0.9,2.5-2.1,2.9
			c-0.9,0.3-1.9-0.1-2.8-0.5c-2.3-1.1-4.2-2.7-6.3-4.1c-0.3-0.2-4.4-3.3-4.5-2.9c-1,2.9,0.3,6.4,0.5,9.3c0.3,3.2,0.6,6.5,0.9,9.7
			c0.6,6.4,1.4,12.8,2.1,19.2c0.8,6.4,1.6,12.8,2.5,19.1c0.2,1.7,2,18.9,2.6,19c8.7,0.7,17.5-0.2,25.9-2.5
			c-0.5-5.6-1.1-11.3-1.8-16.9c-1.9-14.8-4.5-29.4-7.8-44c-0.8-3.4-1.6-6.7-3-9.9c-0.5-1.2-1.6-3.3-2.7-3.9
			C46.2,71.8,45.8,71.7,45.6,71.8z"/>
		<path fill="#63774E" d="M23.4,69.9c1.8-0.7,3.9-1.2,5.5-0.1c0.9,0.6,1.4,1.7,1.9,2.7c0.5,4.7,3.9,8,6.9,11.3
			c2.7,2.8,4.3,5.9,6.3,9.3c0.5-4.3,0.4-8.8,0.4-13.1c0-3.4,0.3-7.5-0.7-10.8c-0.1-0.4,3.7,0.7,4,1c1.2,0.9,2.3,2.6,3,3.8
			c1,1.8,1.7,3.8,2.2,5.8c2.1,7.9,10.3,12.2,10.1,21c-0.1,3.6-1.5,6.9-1.5,10.4c0,4.3-1.1,8.4-0.9,12.7c0.3,4.9,2.4,8.9,3.3,13.6
			c0.9,4.2,4.7,18.6,0.8,22.3c-1.8,1.7-9.1,0.5-11.7,0.7c-4.7,0.5-9.4,1.3-14.1,1.5c-6.1,0.2-12.8-0.2-18.9-0.9
			c0.4-3.7-0.3-7.7,0.2-11.3c0.4-3,1.8-6,2-9.1c0.6-7.1-0.8-14.4-4.1-20.7c-4.5-8.7-7.9-18.6-8.3-28.4c-0.2-4.5,0.2-9.5,2-13.7
			C14,73,18.8,71.6,23.4,69.9z"/>
		<path fill="#3C2415" d="M29.9,59.1c2.3-1.3,4.6-3.2,5.8-5.5c1.2-2.3,1.5-6.4-0.5-8.3c-1.4-1.4-2.7-3.2-2.7-5.3
			c-0.1-1.4,0.8-2.9,2.2-3.1c2.1-0.3,3,1.9,4.3,3c2.9,2.7,4.9-1,7.1-2.4c0.7-0.5,1.6-0.8,2.4-1.1c2.1-0.7,4.2-1.2,6.3-1.7
			c0.9-0.2,2.1-0.8,3.1-0.9c0.5,0,1,0.2,1.3,0.5c0.2,0.2,0.8,1.3,0.9,1.4c1.1,0.1,1.7-4.5,1.8-5.4c0.2-1.9,0.2-3.9-0.2-5.8
			c-0.8-3.9-3.1-7.3-6.7-9.1c-2.6-1.4-9.6-1-12.2-2.5c-5.2-3-14.5-1.6-19.5,1.4c-7.9,4.6-11.3,13.6-12,22.3c-0.3,3.7-0.3,8.2,1,11.7
			c1.2,3.3,4.9,6.9,8,8.6c1.2,0.6,2.4,1.1,3.5,1.8c0.7,0.5,1.3,1.1,2.1,1.3c1,0.3,2.1,0.1,3-0.4C29.3,59.4,29.6,59.2,29.9,59.1z"/>
		<path fill="#6F825A" d="M44.8,98.7c-0.1-0.2-0.1-0.5-0.2-0.7c-0.9-4-0.8-7-0.4-11.1c0.1-0.7,0.2-1.4,0.6-1.8
			c0.6,6.5,2.9,12.5,4,18.8c3.2,18.3,3.2,36.9,7.2,55.1c0,0.2,0.1,0.3,0,0.5c-0.1,0.2-0.3,0.2-0.4,0.3c-0.8,0.2-1.6,0.3-2.4,0.1
			c-0.2,0-0.4-0.1-0.6-0.2c-0.1-0.1-0.2-0.3-0.2-0.5c-0.7-3.7-0.6-7.7-1-11.5c-0.6-5.9-1.2-11.9-1.9-17.8c-0.7-6-1.6-11.9-2.5-17.9
			c-0.8-7.2-2.4-13.5-5.1-20.2c-0.4-1.1-0.9-2.2-1-3.4c1.6,1.1,2.9,2.7,3.6,4.6c-0.3-2.3-0.2-4.7,0.2-7"/>
		<g>
			<path fill="#6F825A" d="M46.6,115.9c-3.9-2-7.5-4.5-11.2-7.5c-8.6-7.1-25.8-15.9-22.6-29.7c3.2-13.9,18.3,5.5,21.7,8.5
				c5.5,5,12.1,9.4,17.8,14.5c5.3,4.7,15.9-1.9,22.1-3.8c3.3-1,7.4-1.4,10.5-2.9c3.1-1.5,6.1-4.5,8.8-6.6c0.5-0.4,1.2-0.8,1.8-0.6
				c0.5,0.2,0.8,0.8,1,1.4c1.2,3.3,3.1,6.1,5.1,8.7c-7.5,6.8-18.3,12.1-27.2,16.9c-3.7,2-8.5,5.6-12.9,5.8
				C56.9,121,50.7,118,46.6,115.9z"/>
		</g>
		
			<radialGradient id="SVGID_4_" cx="-287.5106" cy="1632.7896" r="8.2873" gradientTransform="matrix(0.944 -0.3298 0.3298 0.944 -220.4247 -1581.7633)" gradientUnits="userSpaceOnUse">
			<stop  offset="0" style="stop-color:#EC2429"/>
			<stop  offset="1" style="stop-color:#EC2429;stop-opacity:0"/>
		</radialGradient>
		<path fill="url(#SVGID_4_)" d="M47.4,49.2c0-1.3-0.9-2.6-2.1-3.2c-1.2-0.6-2.8-0.3-3.8,0.5c-0.7,0.6-1.1,1.3-1.4,2.1
			c-0.9,2.2-1,4.8-0.3,7.1c0.7,2.1,2,4,3.2,5.9c0.5,0.7,1.1,1.5,1.9,1.8c0.6,0.2,1.2,0.1,1.8,0c1.9-0.3,3.7-0.6,5.6-1
			c0.6-0.1,1.2-0.2,1.8-0.5c0.8-0.5,1.4-1.4,1.4-2.4c0-1-0.5-1.9-1.3-2.4c-0.9-0.5-2-0.6-2.7-1.3c-0.6-0.6-0.7-1.5-0.9-2.3
			c-0.3-0.8-0.8-1.6-1.3-2.3c-0.5-0.7-1-1.4-1.5-2.1"/>
		
			<radialGradient id="SVGID_6_" cx="-272.6075" cy="1622.7715" r="3.6854" gradientTransform="matrix(0.944 -0.3298 0.3298 0.944 -220.4247 -1581.7633)" gradientUnits="userSpaceOnUse">
			<stop  offset="0" style="stop-color:#F6D2BA"/>
			<stop  offset="1" style="stop-color:#F6D2BA;stop-opacity:0"/>
		</radialGradient>
		<path fill="url(#SVGID_6_)" d="M57.5,36.5c0-0.4-0.4-0.7-0.9-0.8s-0.8,0.1-1.3,0.2C55.2,36,55,36,54.9,36.2
			c-0.1,0.1-0.1,0.3-0.1,0.4c0,0.6,0.1,1.4,0.7,1.5c0.2,0.1,0.4,0,0.6,0.1c0.2,0.2,0.2,0.5,0.1,0.7c-0.1,0.3-0.3,0.5-0.3,0.7
			c-0.2,0.8,0.5,1.7,0.2,2.5c-0.1,0.3-0.4,0.5-0.3,0.8c0.1,0.3,0.4,0.4,0.7,0.6c0.5,0.3,0.9,0.7,1,1.3c1.2-0.5,2-1.8,2.2-3.1
			c0.2-1.3-0.2-2.6-0.8-3.8c-0.3-0.5-0.7-1.1-1.3-1.1"/>
		
			<radialGradient id="SVGID_8_" cx="-286.5497" cy="1631.5568" r="2.2855" gradientTransform="matrix(-0.7576 -0.6527 0.4569 -0.5304 -915.3499 731.2888)" gradientUnits="userSpaceOnUse">
			<stop  offset="0" style="stop-color:#F6D2BA"/>
			<stop  offset="1" style="stop-color:#F6D2BA;stop-opacity:0"/>
		</radialGradient>
		<path fill="url(#SVGID_8_)" d="M46.1,50.3c-0.3,0.3-0.6,0.8-0.7,1.2c-0.1,0.5,0,1,0.4,1.3c0.3,0.2,0.6,0.3,0.8,0.7
			c0.1,0.2,0,0.5,0,0.7c0,0.2,0.1,0.6,0.3,0.6c0.2,0,0.4-0.2,0.6-0.1c0.1,0.1,0.1,0.3,0.2,0.4c0.1,0.1,0.2,0.2,0.3,0.3
			c0.3,0.2,0.7,0.2,1,0s0.4-0.6,0.3-0.9c-0.5-0.3-1-0.7-1.1-1.3c-0.1-0.5,0.2-1.1,0-1.6c-0.2-0.6-1-0.9-1-1.6
			c-0.3,0-0.7,0.2-0.8,0.5"/>
		
			<radialGradient id="SVGID_10_" cx="-289.454" cy="1638.1064" r="1.3971" gradientTransform="matrix(0.944 -0.3298 0.3298 0.944 -220.4247 -1581.7633)" gradientUnits="userSpaceOnUse">
			<stop  offset="0" style="stop-color:#F6D2BA"/>
			<stop  offset="1" style="stop-color:#F6D2BA;stop-opacity:0"/>
		</radialGradient>
		<path fill="url(#SVGID_10_)" d="M45.9,59.6c-0.4-0.3-1.1-0.2-1.1,0.3c0,0.4,0.3,0.6,0.7,0.8c0.1,0.1,0.2,0.1,0.4,0.1
			c0.2,0,0.4-0.2,0.5-0.3c0.4-0.2,1,0,1.1,0.5c0.4-0.3,0.9-0.9,0.7-1.4c-0.1-0.2-0.3-0.3-0.5-0.4c-0.6-0.2-1.3-0.1-1.8,0.2"/>
		
			<radialGradient id="SVGID_12_" cx="-271.3392" cy="1621.8597" r="0.9772" gradientTransform="matrix(0.944 -0.3298 0.3298 0.944 -220.4247 -1581.7633)" gradientUnits="userSpaceOnUse">
			<stop  offset="0" style="stop-color:#F6D2BA"/>
			<stop  offset="1" style="stop-color:#F6D2BA;stop-opacity:0"/>
		</radialGradient>
		<path fill="url(#SVGID_12_)" d="M58.2,37.8c-0.4-0.3-0.9,0.2-0.8,0.6s0.4,0.8,0.7,1.1c0.2,0.2,0.6,0.5,0.9,0.3
			c0.2-0.1,0.3-0.5,0.2-0.7c-0.1-0.5-0.3-0.9-0.7-1.2"/>
		
			<radialGradient id="SVGID_14_" cx="-259.2097" cy="-3016.4897" r="3.6696" gradientTransform="matrix(0.9994 3.370064e-002 -4.567809e-002 1.3546 161.7739 4165.0698)" gradientUnits="userSpaceOnUse">
			<stop  offset="0" style="stop-color:#F6D2BA"/>
			<stop  offset="1" style="stop-color:#F6D2BA;stop-opacity:0"/>
		</radialGradient>
		<path fill="url(#SVGID_14_)" d="M44.2,70.2c-0.1,2.7-1.8,4.9-3.8,4.8c-2-0.1-3.6-2.3-3.5-5.1s1.8-4.9,3.8-4.8S44.3,67.5,44.2,70.2
			z"/>
		<g>
			<path fill="#AF2027" d="M56.8,54.7c0.2-1.3,0.4-2.5,0.9-3.7c0.3-0.8,0.8-1.7,1.4-2.3c0.2-0.2,0.4-0.3,0.6-0.5
				c0.2-0.3,0.2-0.6,0.3-0.9c0-0.1,0.1-0.1,0.1-0.2c0,0,0-0.1-0.1-0.1c-0.6-0.8-1.5-1.3-1.8-2.2c-0.3,0.5-0.3,1.2-0.4,1.8
				c-0.1,0.6-0.1,1.2-0.2,1.8C57.1,50.4,57.1,52.6,56.8,54.7z"/>
			<path fill="#EC2429" d="M58.4,48.6c-0.1,0.8,0.2,1.7,0.9,2.2c0.2-0.1,0.1-0.4,0.1-0.6c-0.2-0.4-0.4-0.8-0.7-1.1
				C58.5,48.9,58.4,48.7,58.4,48.6"/>
			<path fill="#5E0C16" d="M58.7,46.1c0.2,0.9,0.3,1.8,0.5,2.7c0.1-0.5,0.2-1.1,0.2-1.6c0,0-0.1-0.1-0.1-0.1c0,0,0.1,0.1,0.1,0.1
				c-0.3-0.7-0.6-1.3-1-1.9c0,0.6,1.1,1.4,1.5,1.8c-0.2,0-0.3,0.2-0.4,0.4c-0.1,0.2-0.1,0.4-0.2,0.6s-0.3,0.3-0.5,0.2
				C59,47.6,59.1,46.8,58.7,46.1C58.7,46.1,58.7,46.1,58.7,46.1c0-0.1-0.1-0.1,0-0.1C58.7,46,58.7,46,58.7,46.1"/>
			<path fill="#EC2429" d="M58.7,51.5c0,0.4,0,0.7,0,1.1c0,0.1,0,0.2,0.1,0.2c0.1,0.1,0.4,0,0.4-0.2c0-0.2-0.1-0.3-0.2-0.5
				C58.9,51.9,58.8,51.7,58.7,51.5"/>
		</g>
		<g>
			<path d="M50,34c0,0-0.1,0-0.2,0c-0.1,0-0.4,0.1-0.6,0.3c-0.5,0.3-1,0.9-1.3,1.9c-0.1,0.5-0.2,1-0.2,1.5c0,0.5,0.2,1.1-0.1,1.8
				c-0.3,0.7-0.9,1.1-1.6,1.2c-0.7,0.1-1.3,0.2-2,0.1c-0.7-0.1-1.3-0.2-1.9-0.4c-0.6-0.2-1.2-0.4-1.7-0.4c-0.5,0.1-1,0.4-1.5,0.7
				c-0.4,0.3-0.8,0.7-1.1,1.1c-0.6,0.7-1.1,1.4-1.4,1.9c-0.3,0.5-0.4,0.8-0.4,0.8s0.1-0.3,0.3-0.8c0.2-0.5,0.6-1.3,1.2-2
				c0.3-0.4,0.7-0.8,1.1-1.1c0.4-0.4,1-0.8,1.6-0.8c0.7-0.1,1.3,0.2,1.9,0.4c0.6,0.2,1.2,0.3,1.9,0.4c0.6,0,1.3,0,1.9-0.1
				c0.6-0.1,1.1-0.4,1.3-0.9c0.2-0.5,0.1-1.1,0.1-1.7c0-0.6,0.1-1.1,0.3-1.6c0.3-1,1-1.6,1.5-1.8c0.3-0.1,0.5-0.2,0.6-0.2
				C50,34,50,34,50,34z"/>
		</g>
		<g>
			<path d="M54.4,34.1c0,0,0,0.1-0.1,0.2c-0.1,0.1-0.2,0.3-0.3,0.5c-0.3,0.4-0.9,1-1.8,1.2c-0.9,0.3-2,0.3-3.1,0
				c-1.1-0.3-2.2-0.8-3.4-1.1c-1.1-0.4-2.3-0.5-3.4-0.3c-1,0.3-1.9,0.9-2.6,1.5c-0.6,0.6-1.1,1.2-1.3,1.7c-0.3,0.4-0.4,0.7-0.4,0.7
				s0.1-0.3,0.3-0.8c0.2-0.5,0.6-1.1,1.2-1.8c0.6-0.7,1.5-1.4,2.7-1.7c0.6-0.2,1.2-0.2,1.8-0.1c0.6,0,1.2,0.2,1.8,0.4
				c1.2,0.4,2.3,0.9,3.3,1.2c1.1,0.3,2.1,0.4,3,0.2c0.9-0.2,1.5-0.6,1.8-1c0.2-0.2,0.3-0.4,0.4-0.5C54.4,34.2,54.4,34.1,54.4,34.1z"
				/>
		</g>
		<g>
			<path d="M41.4,41c0,0,0,0.3-0.1,0.7c-0.1,0.5-0.2,1.1-0.6,1.8c-0.4,0.7-0.9,1.5-1.5,2.3c-0.6,0.8-1.3,1.6-1.8,2.5
				c-1,1.8-1.2,4-1,5.5c0.1,0.8,0.3,1.4,0.4,1.9c0.1,0.4,0.3,0.7,0.3,0.7s-0.1-0.2-0.3-0.7c-0.2-0.4-0.4-1.1-0.6-1.9
				c-0.1-0.8-0.2-1.8-0.1-2.8c0.1-1,0.5-2.1,1-3c0.5-0.9,1.2-1.8,1.8-2.6c0.6-0.8,1.2-1.5,1.6-2.2c0.4-0.7,0.6-1.3,0.7-1.7
				C41.4,41.2,41.4,41,41.4,41z"/>
		</g>
	</g>
</g>
</svg>
