<?xml version="1.0" encoding="utf-8"?>
<!-- Generator: Adobe Illustrator 19.1.0, SVG Export Plug-In . SVG Version: 6.00 Build 0)  -->
<svg version="1.1" id="Layer_1" xmlns="http://www.w3.org/2000/svg" xmlns:xlink="http://www.w3.org/1999/xlink" x="0px" y="0px"
	 viewBox="-281 373.9 47.7 47.1" style="enable-background:new -281 373.9 47.7 47.1;" xml:space="preserve">
<style type="text/css">
	.st0{fill:#A97C50;}
	.st1{fill:#8B5E3C;}
	.st2{fill:none;}
	.st3{clip-path:url(#SVGID_2_);}
	.st4{fill:#7F5B3B;}
	.st5{fill:none;stroke:#05BCE7;stroke-width:1.4986;stroke-miterlimit:10;}
</style>
<g>
	<g>
		<path class="st0" d="M-243.3,393.8c-4.5,0.8-7.1,5.1-5.6,9.4c1.1,3.3,2.9,6,4.4,9.1c1,2.1,1.5,4.4,2.9,6.3c1,1.3,2.4,2.3,4,2.4
			c2.2,0.2,3.7-1.5,4.2-3.5c0.5-2.3-0.5-5.2-1.7-7.1c-1.9-3,0.1-6.4,0.7-9.5c0.3-1.5,0.4-3.4-0.6-4.7c-1.1-1.4-3.3-2.2-5.1-2.5
			C-241.2,393.6-242.3,393.6-243.3,393.8z"/>
		<path class="st1" d="M-245.8,397.5c-1.6,1.3-2,3.1-1.6,5c0.2,1.4,0.8,4,2.2,4.7c0.3,0.1,0.6,0.2,0.8,0.4c0.2,0.2,0.3,0.5,0.4,0.7
			c0.4,0.8,1.3,1.4,2.2,1.5c0.2,0,0.4,0,0.7,0c1.1,0,1.6-0.1,2.4,0.8c0.2,0.3,0.5,0.6,0.8,0.7c0.7,0.3,1.3-0.1,1.1-0.8
			c-0.1-0.7-0.7-1.3-1.2-1.7c-0.5-0.4-1.3-0.7-1.6-1.3c-0.3-0.7,0.3-1.3,0.7-1.9c0.8-1,1.4-2.1,1.7-3.4c0.3-1.2-0.1-2.1-0.2-3.3
			c-0.2-1.5-1.9-2.2-3.2-2.6C-242.5,395.9-244.4,396.3-245.8,397.5z"/>
		<path class="st0" d="M-243.7,403.9c0.2-0.6,0.5-1.1,1.1-1.6c0.9-0.7,1.8-0.9,2.7-1.3c0.3-0.2,0.6-0.4,0.8-0.7
			c0.4-0.9-0.9-1.6-1.5-2c-0.8-0.5-1.8-0.7-2.8-0.6c-1,0.1-2,0.4-2.4,1.3c-0.4,1-0.5,2.1-0.4,3.1c0,1,0.1,2,0.6,2.8
			c0.3,0.5,0.8,0.8,1.2,1.2c0.4,0.4,0.6,0.9,1.1,1.3C-243.8,406.2-244.1,405-243.7,403.9z"/>
	</g>
	<g>
		<g>
			<path class="st2" d="M-261.1,391.1l0.1-0.1c0.1-0.1,0.2-0.2,0.2-0.3C-260.9,390.8-261,391-261.1,391.1z"/>
			<path class="st2" d="M-259,388.8c-0.5,0.5-0.9,1-1.4,1.4c0.7-0.7,1.4-1.5,2.1-2.2C-258.5,388.3-258.7,388.6-259,388.8z"/>
			<path class="st0" d="M-267.4,393.6c0.9-0.3,1.5-1.3,2-2c0.6-0.8,1.2-1.6,1.7-2.4c0.6-0.8,1.2-1.6,1.8-2.4
				c0.6-0.8,1.2-1.4,1.9-2.1c0.7-0.6,1.8-0.7,1.9,0.5c0.1,0.9-0.5,1.6-0.8,2.4c0.4-0.4,0.7-0.8,1.1-1.3c0.3-0.3,0.5-0.7,0.8-1
				c0.6-0.6,1.8-1,2.3,0c0.6,1.2-0.6,2.4-1.1,3.3c0.2,0,0.3-0.3,0.5-0.4c0.2-0.2,0.4-0.4,0.7-0.5c0.9-0.3,1.7,0.2,1.8,1.1
				c0,0.7-0.3,1.2-0.7,1.7c-0.2,0.3-0.4,0.7-0.6,1c-0.1,0.2-0.2,0.6-0.5,0.7c0.5-0.3,1.1-0.7,1.7-0.6c0.5,0.1,0.8,0.5,0.8,1
				c0,0.1,0,0.2,0,0.3c-0.1,0.9-0.9,1.5-1.4,2.2c-0.7,0.9-1.4,1.7-2.1,2.6c-0.4,0.5-0.8,1-1.1,1.7c-0.4,0.9-0.9,1.8-1.5,2.6
				c-1,1.4-2.3,2.6-3.6,3.7c-0.9,0.8-1.9,1.6-3,1.9c-0.8,0.2-1.4,1-2,1.5c-0.7,0.7-1.5,1.4-2.3,2c-1,0.8-1.8,0.4-2.9-0.1
				c-2.1-0.9-6-4.3-3.8-6.7c0.5-0.5,1-1.1,1.4-1.7c0.3-0.4,0.8-1,0.9-1.5c0.1-0.8,0.2-1.6,0.2-2.4c0.1-1.2,0.6-2.2,1.2-3.3
				c0.9-1.8,2-3.4,2.4-5.4c0.1-0.4,0.2-0.9,0.3-1.3c0.1-0.8,0.1-1.6,1.1-0.9c0.7,0.5,1,1.3,1.1,2.1c0.1,0.6,0,1.2-0.1,1.9
				c0,0.3-0.3,1.3-0.1,1.5c0.2,0.2,0.5-0.2,0.6-0.3c0,0.1-0.3,0.4-0.4,0.4s-0.2,0-0.3-0.1"/>
			<g>
				<line class="st2" x1="-258.8" y1="387.7" x2="-263" y2="393.3"/>
				<path class="st1" d="M-258.8,387.7c0,0-0.2,0.4-0.6,0.9s-0.9,1.3-1.4,2c-0.5,0.7-1.1,1.4-1.5,1.9c-0.4,0.5-0.7,0.8-0.7,0.8
					s0.2-0.4,0.6-0.9s0.9-1.3,1.4-2s1.1-1.4,1.5-1.9S-258.8,387.7-258.8,387.7z"/>
			</g>
			<g>
				<line class="st2" x1="-255.8" y1="388.7" x2="-260.3" y2="394.7"/>
				<path class="st1" d="M-255.8,388.7c0,0-0.3,0.4-0.6,1c-0.4,0.6-0.9,1.3-1.5,2.1c-0.6,0.8-1.1,1.5-1.6,2
					c-0.4,0.5-0.8,0.9-0.8,0.9s0.3-0.4,0.6-1c0.4-0.6,0.9-1.3,1.5-2.1c0.6-0.8,1.1-1.5,1.6-2S-255.8,388.7-255.8,388.7z"/>
			</g>
			<g>
				<line class="st2" x1="-254.6" y1="392.4" x2="-258.7" y2="397.7"/>
				<path class="st1" d="M-254.6,392.4c0,0-0.2,0.3-0.6,0.9c-0.4,0.5-0.9,1.2-1.4,1.8c-0.5,0.6-1,1.3-1.4,1.8s-0.7,0.8-0.7,0.8
					s0.2-0.3,0.6-0.9c0.4-0.5,0.9-1.2,1.4-1.8c0.5-0.6,1-1.3,1.4-1.8C-254.9,392.7-254.6,392.4-254.6,392.4z"/>
			</g>
		</g>
		<g>
			<g>
				<defs>
					<path id="SVGID_1_" d="M-267.2,395.4c0.8-0.4,1.3-1.5,1.8-2.3c0.5-0.9,0.9-1.7,1.4-2.6s0.9-1.8,1.5-2.6c0.5-0.8,1-1.6,1.6-2.3
						c0.7-0.7,1.7-0.9,2,0.3c0.2,0.9-0.3,1.7-0.4,2.5c0.3-0.5,0.6-0.9,0.9-1.4c0.2-0.3,0.4-0.7,0.6-1.1c0.5-0.7,1.6-1.2,2.2-0.3
						c0.7,1.1-0.2,2.4-0.7,3.4c0.2,0,0.3-0.3,0.4-0.5c0.2-0.2,0.4-0.4,0.6-0.6c0.8-0.4,1.8,0,1.9,0.9c0.1,0.6-0.2,1.2-0.4,1.8
						c-0.2,0.4-0.3,0.7-0.5,1.1c-0.1,0.3-0.2,0.6-0.4,0.8c0.5-0.4,1-0.9,1.6-0.9c0.5,0,0.9,0.4,0.9,0.9c0,0.1,0,0.2,0,0.3
						c0,0.9-0.7,1.7-1.1,2.4c-0.6,1-1.1,1.9-1.7,2.9c-0.3,0.6-0.7,1.2-0.9,1.8c-0.3,0.9-0.6,1.9-1.1,2.8c-0.8,1.5-1.9,2.9-3,4.2
						c-0.8,0.9-1.6,1.8-2.7,2.3c-0.8,0.3-1.3,1.1-1.7,1.8c-0.6,0.8-1.3,1.6-2,2.3c-0.9,0.9-1.8,0.6-2.8,0.3
						c-2.2-0.6-6.5-3.4-4.6-6.2c0.4-0.6,0.8-1.2,1.1-1.9c0.3-0.5,0.7-1.1,0.7-1.7c0-0.8-0.1-1.6-0.1-2.4c-0.1-1.2,0.3-2.3,0.7-3.4
						c0.7-1.9,1.6-3.6,1.7-5.6c0-0.4,0.1-0.9,0.1-1.3c0-0.8-0.2-1.6,1-1c0.7,0.4,1.2,1.1,1.4,1.9c0.1,0.6,0.1,1.2,0.1,1.8
						c0,0.3-0.1,1.3,0.1,1.5c0.3,0.2,0.4-0.3,0.5-0.4c0,0.1-0.2,0.4-0.3,0.5c-0.1,0-0.2,0-0.3-0.1"/>
				</defs>
				<clipPath id="SVGID_2_">
					<use xlink:href="#SVGID_1_"  style="overflow:visible;"/>
				</clipPath>
				<g class="st3">
					<path class="st4" d="M-275.9,408.3c0.3-1,1.1-1.9,1-3c0-1-0.5-1.9-0.5-2.9c0-0.7,0.1-1.4,0.3-2c0.2-0.8,0.5-1.6,0.9-2.3
						c0.3-0.6,0.8-1.2,1.2-1.8c0.6-1.1,0.5-2.3,0.9-3.4c0.1-0.3,0.2-0.5,0.4-0.7c0.9-1.4,1.2-3,1.7-4.6c0.5-1.6,1.3-3.1,2.7-4
						c0.8-0.5,1.8-0.7,2.7-0.7c1.3-0.1,2.6,0,3.9,0.4c0.5,0.2,1.1,0.4,1.4,0.8c0.9,1,0.5,2.5,0.1,3.8c0.9-0.5,2-1.6,2.4,0.1
						c0.2,1.1,0,2.4-0.8,3.3c0.8,0.1,1.6,0.2,2.1,0.8c0.6,0.7,0.3,1.8,0,2.6c-0.6,1.6-1.8,3.1-2.6,4.6c-0.8,1.4-1.5,3-2.5,4.2
						c-1.2,1.4-2.2,2.8-3.5,4.1c-0.6,0.7-1.4,1.2-2.2,1.6c-0.4,0.2-0.8,0.5-1.2,0.7c-0.5,0.1-0.9,0-1.3,0.2
						c-0.5,0.1-0.9,0.8-1.3,1.1c-1.3,1.2-3.1,1.9-4.6,0.6c-0.9-0.8-1.1-1.9-0.9-3C-275.9,408.5-275.9,408.4-275.9,408.3z"/>
				</g>
			</g>
		</g>
		<g>
			<path class="st2" d="M-268.1,386.4c0,0,0-0.1,0.1-0.1c0.1-0.1,0.1-0.2,0.2-0.3C-267.9,386.1-268,386.3-268.1,386.4z"/>
			<path class="st2" d="M-266.3,383.9c-0.4,0.5-0.8,1.1-1.2,1.6c0.6-0.8,1.1-1.7,1.7-2.5C-266,383.3-266.2,383.6-266.3,383.9z"/>
			<path class="st0" d="M-274,389.8c0.8-0.4,1.3-1.5,1.7-2.3c0.5-0.9,0.9-1.8,1.4-2.6c0.5-0.9,0.9-1.8,1.4-2.7
				c0.5-0.8,0.9-1.5,1.6-2.3c0.6-0.7,1.7-0.9,2,0.2c0.2,0.9-0.2,1.7-0.4,2.5c0.3-0.5,0.6-0.9,0.9-1.4c0.2-0.4,0.4-0.7,0.6-1.1
				c0.5-0.7,1.6-1.2,2.2-0.4c0.7,1.1-0.2,2.4-0.6,3.4c0.2,0,0.3-0.3,0.4-0.5c0.2-0.2,0.4-0.4,0.6-0.6c0.8-0.4,1.8,0,1.9,0.9
				c0.1,0.6-0.2,1.2-0.4,1.8c-0.2,0.4-0.3,0.7-0.5,1.1c-0.1,0.3-0.1,0.6-0.4,0.8c0.5-0.4,1-0.9,1.6-0.9c0.5,0,0.9,0.4,0.9,0.8
				c0,0.1,0,0.2,0,0.3c0,0.9-0.6,1.7-1.1,2.4c-0.6,1-1.1,1.9-1.7,2.9c-0.3,0.6-0.7,1.2-0.9,1.8c-0.3,1-0.6,1.9-1.1,2.8
				c-0.8,1.5-1.9,2.9-3,4.2c-0.8,0.9-1.6,1.9-2.7,2.4c-0.7,0.3-1.2,1.1-1.7,1.8c-0.6,0.8-1.3,1.6-2,2.3c-0.8,0.9-1.8,0.6-2.8,0.4
				c-2.2-0.6-6.6-3.4-4.7-6.1c0.4-0.6,0.8-1.2,1.1-1.9c0.2-0.5,0.7-1.1,0.7-1.7c0-0.8-0.1-1.6-0.1-2.4c-0.1-1.2,0.3-2.3,0.7-3.4
				c0.9-1.7,1.7-3.4,1.8-5.4c0-0.4,0.1-0.9,0.1-1.3c0-0.8-0.2-1.6,1-1c0.7,0.4,1.2,1.1,1.4,1.9c0.1,0.5,0.1,1.1,0.1,1.8
				c0,0.3-0.1,1.3,0.1,1.5c0.3,0.2,0.4-0.3,0.5-0.4c0,0.1-0.2,0.4-0.3,0.5C-273.8,389.9-273.9,389.9-274,389.8"/>
			<g>
				<line class="st2" x1="-266.3" y1="382.7" x2="-269.7" y2="388.9"/>
				<path class="st1" d="M-266.3,382.7c0,0-0.2,0.4-0.5,1c-0.3,0.6-0.7,1.4-1.1,2.1c-0.4,0.8-0.8,1.5-1.2,2.1
					c-0.3,0.6-0.6,0.9-0.6,0.9s0.2-0.4,0.5-1c0.3-0.6,0.7-1.4,1.1-2.1c0.4-0.8,0.8-1.5,1.2-2.1
					C-266.6,383.1-266.3,382.7-266.3,382.7z"/>
			</g>
			<g>
				<line class="st2" x1="-263.3" y1="383.3" x2="-266.8" y2="389.9"/>
				<path class="st1" d="M-263.3,383.3c0,0-0.2,0.4-0.5,1.1c-0.3,0.7-0.7,1.5-1.2,2.3c-0.5,0.8-0.9,1.6-1.3,2.3
					c-0.4,0.6-0.6,1-0.6,1s0.2-0.4,0.5-1.1c0.3-0.6,0.7-1.5,1.2-2.3c0.5-0.8,0.9-1.6,1.3-2.3C-263.5,383.7-263.3,383.3-263.3,383.3z
					"/>
			</g>
			<g>
				<line class="st2" x1="-261.5" y1="386.8" x2="-264.8" y2="392.6"/>
				<path class="st1" d="M-261.5,386.8c0,0-0.2,0.4-0.5,0.9c-0.3,0.6-0.7,1.3-1.1,2c-0.4,0.7-0.8,1.4-1.2,2
					c-0.3,0.5-0.6,0.9-0.6,0.9s0.2-0.4,0.5-0.9c0.3-0.6,0.7-1.3,1.1-2c0.4-0.7,0.8-1.4,1.2-2C-261.8,387.1-261.5,386.8-261.5,386.8z
					"/>
			</g>
		</g>
		<g>
			<line class="st5" x1="-257.8" y1="378.5" x2="-258.4" y2="374"/>
			<line class="st5" x1="-253" y1="379.6" x2="-250.5" y2="375.7"/>
			<line class="st5" x1="-250.1" y1="384.6" x2="-245.8" y2="383.1"/>
		</g>
	</g>
</g>
</svg>
