<?xml version="1.0" encoding="utf-8"?>
<!-- Generator: Adobe Illustrator 19.1.0, SVG Export Plug-In . SVG Version: 6.00 Build 0)  -->
<svg version="1.1" id="Layer_1" xmlns="http://www.w3.org/2000/svg" xmlns:xlink="http://www.w3.org/1999/xlink" x="0px" y="0px"
	 viewBox="0 0 88.5 57.5" enable-background="new 0 0 88.5 57.5" xml:space="preserve">
<g>
	<g>
		<g>
			<path fill="#F6D2BA" d="M7.9,15.2c-4.6-0.4-8.2,3-7.9,7.6c0.2,3.4,1.3,6.6,1.9,10c0.4,2.2,0.3,4.7,1.2,6.8
				c0.6,1.5,1.7,2.8,3.2,3.4c2,0.7,4-0.5,4.9-2.3c1.1-2,0.9-5.1,0.2-7.3c-1-3.4,1.7-6.1,3.2-9c0.7-1.4,1.3-3.2,0.6-4.7
				c-0.7-1.7-2.6-3-4.2-3.7C10,15.6,9,15.3,7.9,15.2z"/>
			<path fill="#BFA291" d="M4.5,18.1c-1.8,0.8-2.7,2.5-2.9,4.4c-0.1,1.4-0.3,4.1,0.9,5.1c0.2,0.2,0.5,0.4,0.7,0.6
				c0.1,0.2,0.2,0.5,0.2,0.8c0.2,0.9,0.9,1.7,1.7,2c0.2,0.1,0.4,0.1,0.6,0.2c1.1,0.3,1.6,0.3,2.1,1.4c0.2,0.3,0.3,0.7,0.6,0.9
				c0.6,0.5,1.2,0.3,1.3-0.4c0.1-0.7-0.3-1.4-0.7-2c-0.4-0.5-1.1-1-1.2-1.7c-0.1-0.7,0.6-1.2,1.2-1.6c1-0.7,1.9-1.7,2.5-2.8
				c0.6-1.1,0.5-2.1,0.6-3.3c0.2-1.5-1.2-2.6-2.4-3.3C8.2,17.5,6.2,17.4,4.5,18.1z"/>
			<path fill="#F6D2BA" d="M4.9,24.9c0.3-0.5,0.8-0.9,1.5-1.2c1-0.4,1.9-0.4,2.9-0.6c0.4-0.1,0.7-0.2,1-0.5c0.7-0.8-0.4-1.8-1-2.3
				c-0.7-0.7-1.6-1.2-2.5-1.4c-1-0.2-2-0.1-2.6,0.7c-0.7,0.8-1,1.9-1.2,2.9c-0.2,0.9-0.4,1.9-0.1,2.8c0.2,0.5,0.6,1,0.9,1.5
				c0.3,0.5,0.3,1,0.7,1.5C4.2,27.1,4.2,25.8,4.9,24.9z"/>
		</g>
	</g>
	<g>
		<g>
			<defs>
				<rect id="SVGID_828_" x="16.8" y="-8.2" width="41.8" height="62.1"/>
			</defs>
			<clipPath id="SVGID_2_">
				<use xlink:href="#SVGID_828_"  overflow="visible"/>
			</clipPath>
			<g clip-path="url(#SVGID_2_)">
				<g>
					<path fill="#566345" d="M19.6,60.2c-1.6,2.8-4.5,5.3-6.6,7.3c-2.1,2.1-4.4,4.1-6.8,5.9c-1.2,0.9-2.5,1.8-3.8,2.6
						c-0.7,0.4-1.3,0.6-1.4,1.3c-0.1,0.8,0.5,2,0.7,2.8c0.4,1.1,1.1,2.5,2.4,2.8c1.2,0.3,2.7,0.4,3.9,0.2c1.4-0.2,2.8-1.7,4-2.5
						c4.5-3.5,9-6.9,13.5-10.4c0.8-0.6,1.7-1.3,2.3-2.2c1.2-1.6,1.4-4,2-5.9c0.8-2.6,1.5-5.3,2.5-7.8c0.3-0.7,0.5-1.4,0.6-2.1
						c0.5-3.8-2.5-8.7-3.8-12.2c-0.7-1.8-0.9-3.7-1.3-5.5c-0.4-1.6-0.6-3.8-2.3-2.2c-1.3,1.3-2.8,3.8-3.4,5.6
						c-1.9,5.9-0.4,13.1-1.3,19.1C20.6,58.1,20.2,59.2,19.6,60.2z"/>
					<path fill="#A97C50" d="M38.4,2.6c-2.8-0.6-5.8,0-8.3,1.3c-3.1,1.7-4.5,5.2-5.4,8.4c-0.7,2.8-2,7.6-0.8,10.4
						c0.8,1.8,4.6,3.3,6.4,3.2c0.6,0,1.3,0.1,1.7,0.6c0.1,0.2,0.2,0.4,0.2,0.7c0.3,1.4,0.1,2.4-0.9,3.5c-1.1,1.2-2,2.6-2.6,4.2
						c-0.3,0.9-0.5,1.9,0,2.6c0.5,0.7,1.5,0.8,2.4,0.8c2.1,0,4.2-0.4,6.2-1.2c0.6-0.3,1.3-0.6,1.8-1c1.8-1.6,1.8-4.2,1.7-6.4
						c-0.2-5.9,3.5-11.2,4-17.1c0.1-1,0-2,0-3c0-0.9,0.1-1.9-0.2-2.7c-0.3-0.7-1-1.5-1.6-2C41.6,3.8,40,3,38.4,2.6z"/>
					<path fill="#603913" d="M28.5,3c1.2-1.1,2.7-2,4.3-2.4c0.4-0.1,5.2-0.8,4.8,0.1c0,0.1-0.2,0.2-0.2,0.2
						c-0.3,0.2-0.4,0.5-0.5,0.8c0.7-0.8,2-0.8,3.1-0.8c-0.4,2.7,3.4,3.2,4.7,4.8c1.2,1.4,2,3.2,2.2,5.1c0.4,4.4-2.1,8.2-4.1,12
						c-0.3,0.5-0.6,1.2-1,1.6c-0.6,0.6-1.5,0.6-2.1,0c-0.8-0.9-0.2,0.8-1-0.2c-0.1-0.2-0.2-0.4-0.3-0.6c-0.5-1.1-0.9-2.2-1.5-3.2
						c-0.5-0.9-0.5-1.1,0.4-1.8c0.7-0.6,1.2-1.4,1.4-2.4c0-0.3,0-0.5-0.1-0.8c-0.3-0.5-1-0.5-1.5-0.3c-1.6,0.6-1.7,0.9-1.8-1
						c-0.1-1.1-3.1-2.9-3.9-3.8c-1.1-1.1-3.1-1-4.3-2C25.2,7.1,27.2,4.2,28.5,3z"/>
					<path fill="#FFFFFF" d="M31.9,30.2c0.5,0,0.6,0.8,0.8,1.1c0.3,0.4,0.9,0.8,1.4,1c1,0.5,2.2,0.6,3.2,0.3
						c0.4-0.1,4.6-2.3,4.5-2.6c0.7,1.5,0.2,3.5,0.2,5.1c0,1.8,0,3.6,0,5.4c0,3.5-0.1,7.1-0.2,10.6c-0.1,3.5-0.3,7.1-0.4,10.6
						c0,0.9-0.1,10.5-0.5,10.6c-4.7,0.8-9.6,0.8-14.3-0.1c0-3.1,0-6.2,0.1-9.4c0.3-8.2,1-16.4,2.1-24.6c0.3-1.9,0.6-3.8,1.2-5.6
						c0.2-0.7,0.7-1.9,1.3-2.3C31.6,30.2,31.8,30.1,31.9,30.2z"/>
					<path fill="#63774E" d="M49,29.1c-0.9-0.4-1.7-0.8-2.6-1.1c-1.4-0.5-3-0.8-4.3-0.1c-0.9,0.5-1.9,1.2-2.3,2.2
						c-1.3,2.6-2.7,5.3-4.1,7.9c-0.4,0.7-0.8,1.4-1.2,2.2c-0.2,0.5-0.3,1.1-0.6,1.6c-0.6-2.3-0.7-4.8-0.9-7.1
						c-0.1-0.9-0.2-1.8-0.3-2.7c0-0.5-0.1-0.9-0.1-1.4c0-0.3,0.2-1.2,0-1.4c-1-1.6-6.2,0.8-7.2,1.5c-2.2,1.6-2,3.3-1.7,5.6
						c0.4,3,0.3,6.3,0.5,9.4c0.4,8.3,0.6,16.5,0.5,24.8c0,1.5,0.1,3,0.6,4.4c0.2,0.6,0.5,1.5,0.9,1.9c0.4,0.4,0.9,0.5,1.5,0.8
						c0.6,0.4,1.1,0.9,1.6,1.3c2.5,1.8,7.9,0.7,10.7,0.5c3.3-0.2,7.2-0.4,10.3-1.5c-0.1-1.4-0.7-2.5-0.9-3.8c-0.3-1.8,0-3.8,0.1-5.6
						c0.2-3.7,0.8-7.4,1-11.1c0.5-7.3,4-13.8,4.2-21.2c0.1-1.9-0.1-4.9-2-5.9c-0.7-0.4-1.5-0.5-2.2-0.6C50,29.5,49.5,29.3,49,29.1z"
						/>
					<path fill="#6F825A" d="M33.7,45c0-0.1,0-0.3,0.1-0.4c0.3-2.2,0.1-3.9-0.3-6.1c-0.1-0.4-0.2-0.7-0.4-1c0,3.6-1,7-1.2,10.5
						c-0.8,10.2,0.1,20.5-1.2,30.7c0,0.1,0,0.2,0,0.3c0.1,0.1,0.2,0.1,0.3,0.1c0.4,0.1,0.9,0.1,1.3-0.1c0.1,0,0.2-0.1,0.3-0.2
						c0.1-0.1,0.1-0.2,0.1-0.3c0.2-2.1-0.1-4.3-0.1-6.4c0-3.3,0.1-6.6,0.2-9.9c0.1-3.3,0.3-6.6,0.5-10c0.1-4,0.6-7.6,1.8-11.4
						c0.2-0.6,0.4-1.3,0.4-1.9c-0.8,0.7-1.5,1.6-1.8,2.7c0-1.3-0.1-2.6-0.5-3.8"/>
					<g>
						<g>
							<path fill="#6F825A" d="M57.4,41.8c0.7,3.8,1.2,7.7,1.6,11.5c0.2,1.7,0.3,3.5-0.6,5c-0.9,1.5-2.6,2.4-4.3,3.1
								c-1.9,0.8-3.7,1.6-5.6,2.5c-3.1,1.4-6,2.9-9.1,4.4c-1.2,0.6-2.4,1.6-3.4,0.4c-1.2-1.4-2.1-3.1-2.8-4.7
								c-0.3-0.5-0.7-1-0.3-1.4c0.3-0.4,1.2-0.5,1.7-0.7c3.6-1.7,6.4-4.2,10-6c1.9-1,3.4-2.5,5.7-2.7c0.5,0-3.9-15.5-3.9-16.8
								c-0.1-2.4-0.2-5.8,3.3-6.3C56.3,29.3,56.5,37.1,57.4,41.8z"/>
						</g>
					</g>
				</g>
			</g>
		</g>
		<path fill="#F6D2BA" d="M38.7,53.8c-1.6-1.1-3-2.7-4.8-3.5c-0.2-0.1-0.4-0.2-0.6-0.3c-0.2-0.2-0.2-0.4-0.1-0.6
			c0.1-0.1,0.2-0.2,0.3-0.3c1.2-0.5,3.2,0.7,4.2,1.3c-0.4-1-0.7-1.7-1.4-2.5c-0.7-0.8-1.3-1.6-2.1-2.3c-0.8-0.6-1.9-1.2-1.7-2.3
			c0-0.1,0-0.2,0.1-0.3c0.1,0,0.1-0.1,0.2-0.1c0.7-0.1,1.1,0.4,1.6,0.7c0.6,0.4,1.1,0.8,1.7,1.3c0.7,0.7,1.3,1.5,2.3,1.8
			c-0.6-1.1-1.5-2.1-2.4-3.1c-0.7-0.8-1.3-1.6-1.7-2.6c-0.1-0.2-0.1-0.4-0.1-0.6c0.1-0.4,0.7-0.7,1-0.5c0.2,0.1,0.3,0.3,0.4,0.5
			c0.8,1.3,1.9,2.4,3,3.5c0.5,0.6,1,1.2,1.5,1.8c-0.2-0.6-0.3-1.3-0.5-1.9c-0.3-0.8-1-1.6-1.4-2.3c-0.2-0.3-0.4-0.7-0.3-1.1
			c0.1-0.4,0.4-0.7,0.8-0.6c0.4,0.1,0.4,0.5,0.6,0.7c0.2,0.3,0.5,0.5,0.7,0.8c0.5,0.7,0.9,1.4,1.3,2.2c0.2,0.3,0.4,0.6,0.6,0.9
			c0.1,0.1,0.5,0.5,0.5,0.6c0,0,0-0.1,0-0.1c-0.1-0.8-0.1-1.5-0.3-2.3c-0.1-0.5-0.3-1.1-0.1-1.6c0.1-0.2,0.3-0.4,0.6-0.3
			c0.4,0.2,0.5,0.8,0.6,1.2c0.4,1.3,0.7,2.7,1,4c0.3,1.2,1,2.4,1.3,3.6c0.2,1,0.8,1.9,1.4,2.8c0.3,0.5,1.8,1.3,1.6,1.8
			c-0.1,0.3-0.3,0.5-0.6,0.7c-1,0.7-2.1,1.4-3.3,1.8c-0.3,0.1-0.6,0.2-0.9,0.3c-0.4,0.2-0.9,0.5-1.3,0.3c-0.6-0.3-0.5-1.2-1.1-1.6
			C40.3,55.3,39.6,54.4,38.7,53.8z"/>
	</g>
	<g>
		<g>
			<g>
				<path fill="#E6E7E8" d="M60,31.1c0,0,5.5,6.3,12.4,6.3c6.8,0,12.4-6.3,12.4-6.3s-5.5-6.3-12.4-6.3C65.5,24.8,60,31.1,60,31.1z"
					/>
			</g>
			<g>
				<circle fill="#4E7582" cx="70.5" cy="30.3" r="6.6"/>
				<circle fill="#3C2415" cx="70.5" cy="30.6" r="1.4"/>
				<path fill="none" d="M60,31.1c0,0,5.5,6.3,12.4,6.3c6.8,0,12.4-6.3,12.4-6.3s-5.5-6.3-12.4-6.3C65.5,24.8,60,31.1,60,31.1z"/>
			</g>
			<g>
				<path fill="#3C2415" d="M59.7,31.3c0.5-1.2,1.1-2.3,1.9-3.3c0.4-0.5,0.8-1,1.3-1.5c0.5-0.5,0.9-0.9,1.4-1.3
					c1-0.8,2.2-1.6,3.4-2.1c0.6-0.3,1.3-0.5,2-0.6c0.3-0.1,0.7-0.1,1-0.2c0.3-0.1,0.7-0.1,1-0.1c0.7-0.1,1.4,0,2.1,0.1l1,0.2l1,0.3
					c0.7,0.2,1.3,0.4,1.9,0.7l0.9,0.5c0.3,0.2,0.6,0.4,0.9,0.5c0.6,0.3,1.1,0.8,1.6,1.2c0.5,0.4,1,0.9,1.5,1.3l1.3,1.4l1.2,1.5
					l-0.8-0.3c0.2,0,0.4,0,0.6-0.1c0.2,0,0.4-0.1,0.6-0.1c0.4-0.1,0.8-0.3,1.2-0.4c0.4-0.2,0.7-0.4,1-0.7c0.1-0.2,0.3-0.3,0.4-0.5
					c0.1-0.2,0.2-0.4,0.4-0.6c0,0.2,0,0.5-0.1,0.7c-0.1,0.2-0.1,0.5-0.3,0.7c-0.2,0.4-0.5,0.8-0.9,1.2c-0.4,0.3-0.8,0.6-1.2,0.9
					c-0.2,0.1-0.4,0.2-0.7,0.4c-0.2,0.1-0.4,0.2-0.7,0.3l-0.3,0.1L83.9,31c-0.9-0.8-1.9-1.5-2.8-2.2c-0.5-0.3-1-0.7-1.5-1
					c-0.5-0.3-1-0.6-1.5-0.9c-0.5-0.3-1-0.5-1.5-0.7c-0.3-0.1-0.5-0.2-0.8-0.3c-0.3-0.1-0.5-0.2-0.8-0.3l-0.8-0.2l-0.8-0.1
					c-0.5-0.1-1.1-0.1-1.6-0.1c-0.3,0-0.5,0-0.8,0c-0.3,0-0.5,0-0.8,0.1c-0.5,0.1-1.1,0.2-1.6,0.3c-1.1,0.3-2.1,0.7-3.1,1.3
					c-0.5,0.3-1,0.6-1.5,0.9c-0.5,0.3-1,0.7-1.5,1C61.5,29.7,60.6,30.5,59.7,31.3z"/>
			</g>
		</g>
	</g>
</g>
</svg>
