<?xml version="1.0" encoding="utf-8"?>
<!-- Generator: Adobe Illustrator 19.1.0, SVG Export Plug-In . SVG Version: 6.00 Build 0)  -->
<svg version="1.1" id="Layer_1" xmlns="http://www.w3.org/2000/svg" xmlns:xlink="http://www.w3.org/1999/xlink" x="0px" y="0px"
	 viewBox="0 0 139.4 97.1" enable-background="new 0 0 139.4 97.1" xml:space="preserve">
<g>
	<ellipse opacity="0.33" fill="#A7A9AC" cx="84.4" cy="91" rx="55" ry="6.1"/>
	<path fill="#1A242D" d="M119.1,87.2c1-0.4,1.9-0.7,1.9-0.8c0.5,1.1,1.4,1.7,1.7,2.9c0.1,0.3,0.1,0.7,0,1c-0.1,0.3-0.4,0.5-0.6,0.8
		c-1.2,1.1-2.7,1.8-4.3,2.2c-1,0.3-2.2,0.3-3.1,0c-1-0.4-1.7-1.3-1.5-2.2c0.2-1,1.3-1.7,2.4-2.2c0.5-0.3,1.1-0.5,1.4-0.9
		C117.2,87.9,118.2,87.6,119.1,87.2z"/>
	<path fill="#1A242D" d="M93.7,85.3c0.5-0.6,0.9-1.2,1.6-1.5c1-0.4,1.8,0.1,2.5,0.5c0.3,0.2,0.5,0.4,0.7,0.8c0.1,0.3,0.1,0.7,0,1
		c-0.2,1.6-0.9,3.3-1.9,4.7c-0.7,0.9-1.5,1.8-2.5,2.2c-1,0.4-2.1,0.2-2.6-0.6c-0.5-0.9,0-2.2,0.4-3.4c0.2-0.6,0.5-1.1,0.6-1.7
		c0-0.1,0-0.3,0-0.4c0.1-0.3,0.4-0.5,0.5-0.7C93.3,85.9,93.5,85.6,93.7,85.3z"/>
	<path fill="#566345" d="M90.9,80.4c0.6,1.4,1.3,3.5,1.9,4.9c0.1,0.3,4.1-0.8,4.4-1.4c0.4-0.8-0.2-2.6-0.4-3.3
		c-0.2-1.2-0.3-2.4-0.4-3.6c-0.4-2.4-0.8-4.8-1.7-7.1c-0.2-0.7-0.5-1.3-0.8-1.9c-0.3-0.7-0.8-1.4-1.2-2.2c0.2,0.3,6.3-3,6.6-3.2
		c2.2-1.2,4.6-2.2,6.7-3.6c1.9-1.2,3.7-1.8,2.2-4.1c-1.4-2.1-4.5-6.9-7.6-6.1c-1.4,0.4-1.9,2.2-2.8,3.1c-1.5,1.6-3.7,2.7-5.4,4
		c-2,1.5-4,3-6,4.5C85.9,61,85.4,61.4,85,62c-0.9,1.6-0.3,3.5,0.3,5c0.8,1.9,1.6,3.9,2.4,5.8C88.8,75.3,89.8,77.9,90.9,80.4z"/>
	<path fill="#63774E" d="M106.7,81.2c-1.8-1.1-3.5-2.4-5.3-3.6c-0.7-0.5-1.4-1-1.9-1.8c-0.7-1.4-0.3-2.9,0-4.3
		c0.4-1.8,1-3.5,1.7-5.1c1-2.3,3.1-5.3,3.4-7.7c0.3-2.4-1.2-3.2-2.3-5.3c-0.2-0.5-0.5-1-0.4-1.5c0.1-1.1,1.2-1.8,2.2-2.3
		c2.6-1.3,4-5.1,7.1-3.8c2.2,0.9,4.2,4.3,4.8,6.5c1,3.6-0.1,7.9-2.1,11c-0.1,0.2-0.3,0.4-0.4,0.7c-1.6,2.3-3.7,4.3-5.1,6.9
		c-0.3,0.5-1.4,2.1-1.2,2.7c0.1,0.3,1.3,0.7,1.6,0.9c0.6,0.3,1.2,0.7,1.7,1.1c3.9,2.5,7.1,6.3,9.5,10.2c0.1,0.1,0.1,0.2,0.1,0.3
		c0,0.1-0.1,0.2-0.2,0.3c-0.7,0.8-1.5,1.5-2.2,2.3c-0.2,0.2-0.4,0.4-0.7,0.5c-0.4,0.1-0.7-0.2-1-0.5c-1.4-1.2-2.5-2.6-3.9-3.7
		C110.4,83.7,108.6,82.4,106.7,81.2z"/>
	<g>
		<path fill="#8B5E3C" d="M84.6,18.3c-1.4-2.1-2.2-4.4-0.6-6.9c0.8-1.3,2.1-2.3,3.6-2.9C88.3,8.2,89.1,8,90,8c1.1,0.1,2.1,0.6,3,1.3
			c1.7,1.3,3.7,3.5,3.9,5.7c0.1,0.8-1.1,2.1-0.5,2.6c0.8,0.6,1.9,1.9,2.8,3c0.1,0.2,0.2,0.6,0.4,0.6c0.2,0.1,0.4,0,0.6,0
			c0.6,0,1.1,0.4,1.5,0.9c0.7,1,0.7,2.6,0.6,3.8c0,0.6-0.1,1.3-0.5,1.8c-0.1,0.1-0.1,0.2-0.2,0.2c-0.1,0-0.2,0-0.3,0
			c-1.1-0.3-2-1-3-1.5c-0.6-0.3-1.5-0.1-2-0.7c-0.2-0.2-0.2-0.5-0.3-0.8c-0.2-1-0.8-4.2-2.6-3c-0.6,0.4-1.2,0.8-1.8,1.2
			c-2.3,1.5-4.7-1.9-5.9-3.5C85.2,19.3,84.9,18.8,84.6,18.3z"/>
		<path fill="#3C2415" d="M95.5,18.8C94.7,19,93.8,19,93,18.7c-0.7-0.3-1.7-1.2-1.6-2.1c0.1-0.6,0-1.3-0.4-1.8
			c-0.3-0.3-0.8-0.5-1.2-0.3c-0.6,0.4-0.4,1.1-0.4,1.6c-0.2,1.2-1.4,0.8-2.2,0.8c-0.3,0-0.5,0.1-0.8,0.2c-0.6,0.2-1.2,0.5-1.8,0.7
			c-0.1,0-0.2,0.1-0.2,0.2c0,0.1,0,0.2,0.1,0.2c0.1,0.2,0.3,0.4,0.4,0.7c-2.4-1-4.2-3.6-3.2-6.2c0.3-0.9,0.9-1.5,1.3-2.4
			c0.6-1.8,3.2-3.3,5-3.6c2.8-0.5,5.5,1,7.4,3c0.6,0.6,1.1,1.3,1.5,2c0.8,1.2,1.6,2.8,1.6,4.3c0,0.7-0.4,1.3-1,1.7
			c-0.6,0.3-1.2,0.8-1.8,1.1C95.7,18.7,95.6,18.7,95.5,18.8z"/>
		<path d="M91.3,5.4c0-0.1,0-0.1,0-0.2c-0.4,0.1-0.6,0.4-0.9,0.6C90.2,6,90,6.2,89.9,6.3c-0.4,0.6-0.2,1.5,0.4,2
			c0.6,0.5,1.4,0.6,2.1,0.5c0.1,0,0.3-0.1,0.4-0.1c0.5-0.3,0.6-0.9,0.4-1.4s-0.6-0.9-1-1.2c-0.3-0.3-0.6-0.5-0.9-0.8
			C91.3,5.3,91.3,5.3,91.3,5.4"/>
		<path fill="#3C2415" d="M93.9,9.1c-0.4-0.5-0.8-0.9-1.3-1.2C91.1,6.7,89,5.7,89,3.5C89,1.6,91.5,0,93.2,0c1.8,0,3.5,0.9,4.6,2.3
			c0.5,0.7,0.9,1.5,1.1,2.3c0.2,0.9,0.3,1.9,1.3,2.4c0.8,0.4,1.7,0.2,2.5,0.5c1.1,0.5,1.4,2,2.5,2.5c0.7,0.3,1.6,0.1,2.2,0.6
			c0.7,0.5,1.2,1.5,1.6,2.2c-0.2-0.3-1.9-0.1-2.2,0c-0.5,0.2-1,0.7-1.4,1c-1.1,0.7-2.6,1.5-3.9,1c-1.1-0.4-1.7-1.4-2.8-1.8
			c-0.8-0.3-1.7-0.1-2.4-0.5c-1-0.5-1.2-1.7-1.7-2.5C94.4,9.7,94.1,9.4,93.9,9.1z"/>
	</g>
	<path fill="#566345" d="M82.9,45.4c1.5-1.6,3.5-3.1,4.3-5.1c0.1-0.2,0.1-0.3,0.2-0.5c0.8-1.8,1.1-3.7,1.6-5.6
		c0.6-2.3,1.3-4.5,2.1-6.8c0.7-2,1.5-3.6,3.6-4.4c0.5,3.2-0.3,6.4,0.2,9.6c0.5,3.6-1.1,6.7-2.5,9.9c-0.8,1.8-2.3,3-3.4,4.6
		c-1.3,1.7-2.7,3.1-4.3,4.4c-1.5,1.3-3,2.5-4.6,3.8c0-0.1,0.2,0,0.1-0.1c-0.9-1.2-1.9-2.4-3-3.5c0.6-0.5,1.2-1.1,1.7-1.7
		C80.2,48.5,81.5,46.9,82.9,45.4z"/>
	<path fill="#FFFFFF" d="M95.1,23.8c0.3-0.1,0.4,0.3,0.6,0.5c0.2,0.3,0.5,0.6,0.8,0.9c0.3,0.3,0.6,0.6,1,0.6c0.3,0,0.5-0.3,0.7-0.5
		c0.5-0.6,0.9-1.3,1.3-2c0.1-0.1,0.9-1.5,1-1.4c0.6,0.7,0.7,1.9,1,2.8c0.3,1,0.6,1.9,0.9,2.9c0.6,1.9,1.1,3.9,1.7,5.8
		c0.5,1.9,1.1,3.9,1.6,5.9c0.1,0.5,1.7,5.7,1.5,5.8c-2.4,1.2-5.1,2-7.8,2.4c-0.5-1.7-1-3.4-1.5-5.1c-1.2-4.5-2.2-9.1-3-13.7
		c-0.2-1.1-0.3-2.2-0.3-3.2c0-0.4,0.1-1.2,0.3-1.5C94.9,23.9,95,23.8,95.1,23.8z"/>
	<path fill="#63774E" d="M106.7,21c-1.8-0.4-3.6-0.5-5.4-0.5c-0.6,0-1.3,0.1-1.6,0.6c-0.2,0.3-0.2,0.7-0.2,1
		c0.4,1.4-0.2,2.8-0.7,4.1c-0.4,1.1-0.5,2.2-0.7,3.4c-0.7-1.2-1.2-2.5-1.7-3.8c-0.4-1-1-2.1-1.1-3.2c0-0.1-1,0.6-1.1,0.8
		c-0.2,0.4-0.4,1-0.4,1.5c-0.1,0.7,0,1.3,0,2c0.3,2.5-1.5,4.8-0.4,7.3c0.5,1,1.3,1.8,1.7,2.8c0.5,1.2,1.3,2.3,1.8,3.6
		c0.5,1.5,0.4,2.9,0.7,4.3c0.3,1.4,0.6,2.8,0.9,4.2c0.3,1.4,0.2,1.9,1.7,1.8c2.6-0.1,5.1-1,7.6-1.9c1.8-0.7,3.7-1.6,5.4-2.5
		c-2.6-4.8-2.9-10.2-4.1-15.4c-0.8-3.3-1.7-6.7-2.5-10"/>
	<path fill="#6F825A" d="M98.5,31.5c0-0.1,0-0.1,0-0.2c-0.2-1.3-0.6-2.1-1.2-3.3c-0.1-0.2-0.2-0.4-0.4-0.5c0.6,2,0.7,4,1.1,5.9
		c1.3,5.7,3.5,11.1,4.5,16.9c0,0.1,0,0.1,0.1,0.1c0,0,0.1,0,0.2,0c0.3,0,0.5-0.1,0.7-0.3c0.1,0,0.1-0.1,0.1-0.1c0-0.1,0-0.1,0-0.2
		c-0.3-1.2-0.8-2.3-1.1-3.5c-0.5-1.8-1.1-3.6-1.6-5.4c-0.5-1.8-1-3.7-1.4-5.5c-0.6-2.2-0.9-4.2-0.9-6.5c0-0.4,0-0.8-0.1-1.1
		c-0.3,0.5-0.5,1.1-0.5,1.8c-0.2-0.7-0.5-1.4-0.9-2"/>
	<path fill="#938C6C" d="M113.4,46c0.1,0.3,0.2,0.7,0.4,1c0.1,0.1,0.4,0.5,0.3,0.7c-0.2,0.2-0.4,0.3-0.6,0.5c-0.7,0.5-1.5,0.7-2.3,1
		c-0.9,0.3-1.9,0.6-2.8,0.9c-1.9,0.5-3.8,0.8-5.7,0.9c-0.7,0-1.3,0.1-2,0.1c-0.5,0-1.5-0.2-1.8-0.6c-0.2-0.2-0.2-0.5-0.2-0.7
		c0-0.6,0-1.2,0-1.7c0.1,0,1.6,0,1.6,0c0.5,0,1,0.2,1.5,0.2c0.7,0,1.5,0,2.2-0.1c3.1-0.4,5.7-1.4,8.4-2.8c0.2-0.1,0.4-0.4,0.7-0.3
		C113.2,45.1,113.4,45.8,113.4,46z"/>
	<path fill="#566345" d="M99.4,36.2c0.9-0.2,1.9-0.5,2.8-0.8c0.7-0.2,1.4-0.3,2-0.7c-0.5,0.3-0.9,0.8-1.4,1.2
		c-0.6,0.5-1.1,0.9-1.7,1.3c-1.2,0.7-2.5,1.2-3.8,1.6c-0.2,0.1-0.4,0.1-0.6,0.1c-0.5,0-0.9-0.6-1.1-1c-0.2-0.4-0.4-0.8-0.6-1.2
		c-0.2-0.4-0.5-0.7-0.8-1.1c0-0.1-0.1-0.1-0.1-0.2c0.9,0.5,1.8,1.1,2.8,1.1C97.7,36.3,98.5,36.3,99.4,36.2
		C99.4,36.2,99.4,36.2,99.4,36.2z"/>
	<g>
		
			<rect x="94.5" y="31.7" transform="matrix(-0.9605 0.2784 -0.2784 -0.9605 194.2857 35.8332)" fill="#BCBEC0" width="0.2" height="0.1"/>
		<path fill="#D1D3D4" d="M94.5,31.7l0.2-0.1c0,0,0,0,0-0.1l0-0.1L94.5,31.7L94.5,31.7C94.4,31.7,94.5,31.7,94.5,31.7z"/>
		<g>
			<path fill="#E6E7E8" d="M95.1,33.2l0.1-0.1C95.1,33,95,33,95,33c0,0,0,0-0.1,0L94.8,33c0,0,0.1,0,0.1,0
				C95,33.1,95,33.2,95.1,33.2z"/>
		</g>
		<g>
			<path fill="#E6E7E8" d="M94.9,32.2C94.9,32.2,94.9,32.2,94.9,32.2c0.1,0,0.1-0.1,0-0.1c-0.1-0.1-0.2-0.1-0.3-0.1
				c0,0-0.1,0-0.1,0.1c0,0,0,0.1,0.1,0.1C94.7,32.2,94.7,32.2,94.9,32.2C94.8,32.2,94.8,32.2,94.9,32.2z"/>
		</g>
		<path fill="#BCBEC0" d="M94.5,31.6l0.2-0.1c0,0,0.1-0.1,0.1-0.1l0,0l-0.4,0.1l0,0C94.4,31.6,94.4,31.6,94.5,31.6z"/>
		<path fill="#D1D3D4" d="M95.1,33.7c0,0.1,0.1,0.1,0.2,0.1c0,0,0,0,0,0l-0.6-2l-0.2,0.1L95.1,33.7C95.1,33.6,95.1,33.7,95.1,33.7z"
			/>
		<g>
			<path fill="#E6E7E8" d="M95.1,33.6C95.1,33.6,95.1,33.6,95.1,33.6c0-0.1,0-0.1,0.1-0.1c0.1-0.1,0.1-0.3,0-0.4c0,0,0,0,0,0
				l-0.1,0.1c0,0,0,0.1-0.1,0.3c0,0,0,0,0,0.1c0,0,0,0,0,0.1c0,0.1,0.1,0.1,0.2,0.1C95.1,33.7,95.1,33.6,95.1,33.6z"/>
		</g>
		<g>
			<path fill="#E6E7E8" d="M94.9,32.3c0,0.1,0,0.1,0,0.2c0,0,0,0,0,0c-0.1,0.1-0.2,0.3-0.1,0.4c0,0,0.1,0.1,0.1,0.1l0-0.1l0-0.1
				c0,0,0,0,0,0c0-0.1,0-0.2,0.1-0.3c0,0,0,0,0,0c0.1-0.1,0.1-0.3,0-0.4c0,0,0,0,0,0l-0.1,0.1"/>
			<path fill="#E6E7E8" d="M94.8,32.2c0,0,0,0.1,0,0.1"/>
		</g>
		<g>
			<path fill="#E6E7E8" d="M95,31.7c-0.1,0-0.1,0-0.2,0.1c-0.1,0-0.2,0.1-0.4,0.1c0,0-0.1,0-0.1,0c0,0,0,0,0,0c0,0-0.1,0.1-0.1,0.1
				c0,0,0,0.1,0.1,0.1c0,0,0,0,0.1,0c0,0,0.1,0,0.1,0c0.1,0,0.1,0,0.2,0l0-0.1l0-0.1c0,0-0.1,0-0.1,0c0,0-0.1,0-0.1,0c0,0,0,0,0,0
				c0,0,0,0,0,0c0,0,0,0,0,0c0,0,0,0,0.1,0c0,0,0.1,0,0.1,0c0.1,0,0.2,0,0.2-0.1c0,0,0.1,0,0.1,0c0,0,0,0,0,0c0,0,0,0,0,0l0,0
				C95,31.8,95,31.8,95,31.7C95,31.7,95,31.7,95,31.7C95,31.7,95,31.7,95,31.7z"/>
		</g>
		
			<ellipse transform="matrix(-0.9605 0.2784 -0.2784 -0.9605 195.2225 35.675)" fill="#E6E7E8" cx="95.1" cy="31.7" rx="0.2" ry="0.1"/>
		<path fill="#D1D3D4" d="M94.9,31.1c0,0.2-0.1,0.4-0.4,0.5s-0.4,0-0.5-0.2c0,0,0.3-0.1,0.5-0.1C94.6,31.2,94.9,31.1,94.9,31.1z"/>
	</g>
	<path fill="#1A242D" d="M6.8,88.4c0.8,0,1.4,0.1,2,0.5c0.8,0.6,0.9,1.5,0.9,2.3c0,0.3,0,0.7-0.3,1c-0.2,0.3-0.5,0.4-0.8,0.6
		c-1.4,0.7-3.1,1.1-4.7,1c-1.1,0-2.2-0.3-3-0.9s-1.3-1.6-0.8-2.5C0.6,89.6,1.9,89.2,3,89c0.6-0.1,1.1-0.2,1.6-0.5
		c0.1-0.1,0.2-0.2,0.3-0.2c0.2-0.1,0.6,0.1,0.8,0.1C6.1,88.4,6.5,88.4,6.8,88.4z"/>
	<path fill="#1A242D" d="M12.2,77.4c0.7,0.4,1.4,0.7,1.8,1.4c0.6,0.9,0.3,1.8-0.1,2.5c-0.1,0.3-0.3,0.6-0.6,0.8
		c-0.3,0.2-0.7,0.2-1,0.2c-1.7,0-3.4-0.4-5-1.1c-1-0.5-2.1-1.2-2.6-2.1c-0.6-0.9-0.6-2.1,0.2-2.6c0.8-0.6,2.2-0.4,3.4-0.1
		c0.6,0.1,1.2,0.3,1.8,0.3c0.1,0,0.3,0,0.4,0c0.3,0,0.5,0.3,0.8,0.4C11.6,77.1,11.9,77.3,12.2,77.4z"/>
	<path fill="#566345" d="M66.4,78.7c-0.3,0-1.2,0.9-1.5,1.1c-3.9,2.9-7.6,4-12.7,3.9c-4.9-0.1-9.8-1.5-14.2-4
		c-2.8-1.6-4.6-1.2-7.6-0.9c-4,0.5-8,1.1-12.1,1.5c-1,0.1-2.1,0.2-3.1,0.3c-1.2,0.2-1.4-0.1-1.9-1.3c-0.4-1.1-1.3-2.6-0.2-3.4
		c0.8-0.7,2-0.9,3-1.3c3.1-1.3,6.3-2.2,9.4-3.2c2.3-0.7,4.6-1.4,7-1.4c2.1,0,4.2,0.6,6.3,1.1c3.9,1,7.8,2,11.7,3c3.8,1,5,0,8-2.3
		c0.3-0.2,0.7-0.5,1-0.7c0.2-0.2,0.5-0.4,0.8-0.3c0.3,0,0.6,0.3,0.7,0.5c0.6,0.8,0.9,1.7,1.3,2.6C63.5,75.7,65,77.1,66.4,78.7z"/>
	<path fill="#63774E" d="M46.6,89.6c-0.3-0.1-0.5-0.2-0.8-0.4c-4.6-2.4-9-6.6-14.7-4.6c-4.5,1.6-8.2,4.7-12.7,6.3
		c-1.2,0.4-2.5,0.7-3.8,1c-1.8,0.4-3.6,0.8-5.3,1.2c0.3-2-0.4-4.1-1.9-5.6c4.3-0.4,7.4-3.7,10.9-5.7c7.4-4.1,15.4-10.1,24.1-6.1
		c1,0.4,2,0.9,3,1.3c0.9,0.3,1.7,0.4,2.5,0.8c2,0.9,4,1.8,6.1,2.7c0,0-0.4-0.8-0.4-0.9c-0.2-0.3-0.6-0.6-0.8-0.9
		c-1-2,0.4-3.2,1.6-4.7c0.5-0.7,1.4-1.4,2.1-1c0.5,0.3,0.6,0.8,0.8,1.3c0.6,1.3,2.1,2,2.9,3.3c0.2,0.3,0.4,0.7,0.5,1.1
		c0.8,2,3.6,1.6,3.2,4.2c-0.3,1.8-2.2,4-3.5,5.3C56.6,92.5,51.2,91.8,46.6,89.6z"/>
	<path fill="#A97C50" d="M93.2,48.8c-0.6-1.5-1.9-2.7-3.4-3.4c-1.8-0.9-3.9-0.4-5.7,0.3c-1.5,0.6-4.2,1.6-5.1,3.1
		c-0.6,1,0,3.2,0.6,4c0.2,0.3,0.4,0.6,0.3,1c0,0.1-0.1,0.2-0.2,0.3c-0.5,0.6-1.1,0.9-1.9,0.7C76.9,54.7,76,54.8,75,55
		c-0.5,0.1-1.1,0.4-1.2,0.9c-0.2,0.5,0.1,1,0.4,1.4c0.7,1,1.6,1.8,2.6,2.5c0.3,0.2,0.7,0.4,1.1,0.5c1.3,0.3,2.5-0.6,3.5-1.4
		c2.7-2,6.4-2.1,9.2-3.8c0.5-0.3,0.9-0.6,1.4-1c0.4-0.3,0.9-0.6,1.1-1c0.2-0.4,0.3-1,0.4-1.4C93.7,50.7,93.6,49.7,93.2,48.8z"/>
	<path fill="#3C2415" d="M89.8,44.4c0.9,0.2,1.8,0.6,2.5,1.2c0.2,0.2,2.1,2.2,1.5,2.3c-0.1,0-0.1,0-0.2,0c-0.2-0.1-0.4,0-0.5,0
		c0.6,0.1,1,0.6,1.4,1.2c-1.4,0.7-0.4,2.6-0.7,3.8c-0.3,1-0.8,2-1.6,2.7c-1.9,1.7-4.5,1.7-6.9,2.1c-0.3,0-0.7,0.1-1.1,0.1
		c-0.5-0.1-0.8-0.5-0.7-1c0.2-0.7-0.4,0.2-0.2-0.5c0-0.1,0.1-0.2,0.2-0.3c0.3-0.6,0.7-1.1,1-1.8c0.2-0.5,0.4-0.6,1-0.4
		c0.5,0.2,1.1,0.1,1.5-0.1c0.1-0.1,0.3-0.2,0.3-0.3c0.1-0.3-0.1-0.6-0.4-0.8c-0.8-0.5-1-0.5-0.2-1.2c0.5-0.4,0.4-2.4,0.5-3.1
		c0.1-0.9-0.6-1.8-0.5-2.7C86.8,44.2,88.8,44.2,89.8,44.4z"/>
	<g>
		<path fill="#A97C50" d="M46.8,65.4c-1.3,0.6-2.7,0.3-4,0.8c-1,0.4-2.1,0.5-1.1-0.8c0,0-1.1-0.1-1.2-0.1c-0.5,0-0.9,0.3-1.4,0.1
			c-0.5-0.2-0.8-0.8-0.9-1.3c-0.1-0.8,0.4-1.7,1.1-2c2.9-1.2,6.2-0.1,9.3,0.9C48.5,64.1,47.7,65,46.8,65.4z"/>
		<path fill="#566345" d="M62.4,63.7c1.6-0.8,3.2-1.5,4.7-2.3c3-1.4,6-2.9,8.5-5.2c-0.7-1-1.9-3.5-2.9-4.1c-1.4-0.7-1.7,0-3,0.9
			c-2.6,1.9-5.6,3.2-8,5.4c-0.5,0.4-1,0.9-1.6,1.1c-0.7,0.3-1.5,0.3-2.2,0.3c-4.4,0-8.9,0.4-13.3,0.7c1.1-0.1,0.9,4.2,2.8,4.5
			c3.7,0.5,7.6,1.3,11.3,0.2c1-0.3,2-0.8,3-1.2C61.8,64,62.1,63.8,62.4,63.7z"/>
	</g>
	<path fill="#FFFFFF" d="M76.5,56c0.2,0.2-0.1,0.5-0.1,0.8c0,0.3,0.1,0.7,0.2,1c0.2,0.6,0.6,1.1,1.2,1.4c0.2,0.1,2.8,0.9,2.9,0.8
		c-0.3,0.9-1.4,1.5-2,2.1c-0.7,0.7-1.4,1.4-2.2,2.1c-1.4,1.4-2.9,2.8-4.4,4.2c-1.5,1.4-3,2.7-4.5,4.1c-0.4,0.4-4.3,4.1-4.5,4
		c-2.2-1.6-4.2-3.6-5.7-5.8c1.3-1.3,2.6-2.5,3.9-3.7c3.4-3.2,7.1-6.2,10.8-9c0.9-0.7,1.8-1.3,2.7-1.8c0.4-0.2,1.1-0.5,1.5-0.4
		C76.3,55.9,76.4,56,76.5,56z"/>
	<path fill="#63774E" d="M84.6,61.3c-0.2-0.5-0.4-1-0.6-1.5c-0.3-0.8-0.9-1.5-1.7-1.8c-0.6-0.2-1.2-0.3-1.8-0.1
		c-1.6,0.5-3.2,1-4.8,1.5c-0.4,0.1-0.9,0.2-1.3,0.4c-0.3,0.1-0.6,0.3-0.9,0.4C74.1,59,75.1,58,76,57c0.3-0.4,0.7-0.8,1-1.2
		c0.2-0.2,0.3-0.4,0.5-0.6c0.1-0.1,0.5-0.4,0.6-0.5c0.3-1.1-2.8-2.2-3.5-2.4c-1.5-0.3-2.2,0.5-3,1.5c-1.1,1.4-2.4,2.7-3.6,4
		c-3.2,3.5-6.5,6.8-9.8,10.1c-0.6,0.6-1.2,1.2-1.6,2c-0.2,0.3-0.4,0.8-0.4,1.2c0,0.3,0.2,0.6,0.3,0.9c0.1,0.4,0.1,0.8,0.1,1.2
		c0.2,1.7,2.9,3.5,4.1,4.6c1.4,1.3,3,2.8,4.7,3.6c0.5-0.6,0.7-1.3,1.2-1.9c0.6-0.8,1.5-1.5,2.3-2.2c1.6-1.4,3.3-2.6,4.9-4
		c3.2-2.7,7.2-3.9,10.3-6.7c0.8-0.7,1.9-2,1.6-3.2c-0.1-0.4-0.4-0.8-0.6-1.2C84.8,61.9,84.7,61.6,84.6,61.3z"/>
	<path fill="#6F825A" d="M72.1,61.4c0.1,0,0.1-0.1,0.2-0.1c1-0.8,1.6-1.5,2.4-2.6c0.1-0.2,0.2-0.4,0.2-0.6c-1.5,1.4-3.2,2.4-4.8,3.7
		c-4.5,3.8-8.3,8.2-12.9,11.7c0,0-0.1,0.1-0.1,0.1c0,0.1,0,0.1,0.1,0.2c0.1,0.2,0.3,0.4,0.6,0.5c0.1,0,0.1,0.1,0.2,0.1
		c0.1,0,0.1,0,0.1-0.1c0.9-0.8,1.7-1.7,2.6-2.6c1.3-1.3,2.7-2.6,4.1-3.9c1.4-1.3,2.8-2.5,4.2-3.8c1.6-1.6,3.3-2.8,5.3-3.8
		c0.3-0.2,0.7-0.4,0.9-0.6c-0.6-0.1-1.3,0.1-1.8,0.4c0.5-0.5,1-1.1,1.4-1.7"/>
	<g>
		<path fill="#A97C50" d="M71.8,73.4c-0.7-1.3-1.5-2.5-2.2-3.7c-0.6-0.9-1.4-1.7-1.4-0.1c0,0-0.9-0.6-1-0.7c-0.3-0.3-0.6-0.8-1.1-1
			c-0.5-0.2-1.1,0-1.5,0.4c-0.5,0.6-0.7,1.5-0.3,2.2c1.7,2.8,4.9,4.1,8,5.3C72.9,75,72.3,74.3,71.8,73.4z"/>
		<path fill="#6F825A" d="M86,65.8c1,2.9,0.5,5.7-0.3,8.1c-0.6,2.1-1.4,4.1-2.2,6c-0.1,0.2-1.6,0.9-1.8,1c-0.3,0.1-0.7,0.1-1.1,0
			c-2.2-0.6-4.3-1.7-6.5-2.8c-1.7-0.8-3.3-2-5-2.7c0-1.1,0.7-2.7,1-3.7c0.1-0.2,0.1-0.4,0.4-0.5c0.1,0,0.3,0,0.4,0.1
			c1.9,0.7,3.8,1.5,6.2,2.4c1.8,0.8,2.4,0.1,2.5-1.3c0.1-1.3,0.2-2.7,0.3-4c0.1-1.1,0.2-2.1,0.5-3c0.5-1.2,1.2-2.9,3-2.1
			c2.2,1,3.3,3.9,2.9,5.3"/>
	</g>
	<path fill="#938C6C" d="M64.9,82c-0.4,0.4-0.8,1-1.3,1.2c-0.4,0.2-0.8-0.2-1.1-0.4c-1.2-0.8-2.2-2-3.2-3c-1.3-1.4-2.4-2.9-3.3-4.5
		c-0.3-0.6-0.7-1.1-0.9-1.7c-0.3-0.8-0.3-1-0.1-1.7c0.1-0.3,1.4-1.4,1.3-1.6c0.9,1.7,1.8,3.3,2.8,4.9c1.3,1.9,3,3.5,4.7,5
		c0.4,0.3,0.8,0.7,1.2,1c0.1,0.1,0.5,0.3,0.5,0.4C65.4,81.7,65.1,81.8,64.9,82C65,82,64.9,82,64.9,82z"/>
	<path fill="#8B5E3C" d="M80.1,52.6c-0.7,1.2-2.1,1.8-2.8,2.9c-0.6,0.9-1.4,1.6-1.4,0c0,0-1,0.5-1.1,0.6c-0.4,0.3-0.6,0.7-1.1,0.8
		c-0.5,0.1-1.1-0.1-1.5-0.6c-0.5-0.6-0.7-1.6-0.2-2.3c1.8-2.6,5.1-3.6,8.2-4.5C80.8,50.6,80.6,51.7,80.1,52.6z"/>
	<path fill="#8B5E3C" d="M88.5,57.7c0-0.1,0-0.1,0-0.2c-1,0.4-1.7,1.1-2.7,1.4c-1.1,0.2-2.1,0.7-0.5,1.4c0,0-0.9,0.7-1,0.8
		c-0.4,0.2-0.9,0.3-1.3,0.7c-0.3,0.5-0.3,1.1,0,1.6c0.4,0.7,1.2,1.3,2.1,1.1c2.4-0.5,3.6-1.8,4.8-3.9c0.1-0.1,0.1-0.2,0.1-0.4
		c0-0.2-0.1-0.3-0.2-0.5C89.1,59.2,88.7,58.5,88.5,57.7z"/>
	<path fill="#6F825A" d="M90.8,54.6c2.1-2,4-4.3,5.8-6.5c1.4-1.7,3.5-3.5,4.3-5.4c1.7-4.1,1.6-8.7,1.6-13c0-2.6-1-9.7,3.8-8.4
		c0.5,0.1,1,0.4,1.4,0.8c0.3,0.3,0.4,0.8,0.5,1.2c0.7,3,1.1,6.2,0.8,9.2c-1.1,11.9-9.1,22.5-19.3,28.6c-1.3-0.4-1.8-2.1-1.3-3.3
		C88.8,56.5,89.8,55.6,90.8,54.6z"/>
	<path fill="#A97C50" d="M77.8,55.8c0.7-0.7,1.4-1.3,2.1-2c0.1-0.1,0.2-0.2,0.2-0.4c0-0.1-0.1-0.2-0.2-0.3c-0.7-0.9-1.1-2-1.2-3.1
		c0-0.4,0-0.8,0.2-1.1c0.2-0.4,0.7-0.6,1.1-0.8c0.5-0.2,0.9-0.4,1.4-0.6c0.6-0.3,1.4-0.6,2-0.3c0.7,0.3,0.9,1.1,1,1.8
		c0.1,1.3-0.4,2.5-1,3.6c-0.4,0.7-0.8,1.3-1.4,1.8c-0.8,0.7-1.7,1.1-2.7,1.5c-0.6,0.2-1.2,0.5-1.8,0.7"/>
</g>
</svg>
