<?xml version="1.0" encoding="utf-8"?>
<!-- Generator: Adobe Illustrator 19.1.0, SVG Export Plug-In . SVG Version: 6.00 Build 0)  -->
<svg version="1.1" id="Layer_1" xmlns="http://www.w3.org/2000/svg" xmlns:xlink="http://www.w3.org/1999/xlink" x="0px" y="0px"
	 viewBox="0 0 68.9 102.3" enable-background="new 0 0 68.9 102.3" xml:space="preserve">
<g>
	<defs>
		<rect id="SVGID_821_" x="-11.1" y="-10.4" width="104" height="112.5"/>
	</defs>
	<clipPath id="SVGID_2_">
		<use xlink:href="#SVGID_821_"  overflow="visible"/>
	</clipPath>
	<g clip-path="url(#SVGID_2_)">
		<path fill="#3C2415" d="M20.3,31.9c1.4-1.1,2.4-2.7,4-4.6c4.4-5.1,11-10.2,9.3-17.8C32.1,2.9,22.4-0.9,16.4,0.5
			C8.2,2.3-1.1,11.3,0.2,20.4C0.5,22.8,1.6,25,3,27c0.8,1.3,1.8,2.5,2.9,3.5c2.6,2.3,6.2,3.4,9.7,3.1C17.7,33.4,19.1,32.8,20.3,31.9
			z"/>
		<path fill="#DBAE95" d="M43.3,107.1c-0.2,0.4-0.5,0.7-0.9,0.9c-0.4,0.1-0.8,0-1.1-0.1c-2.1-0.8-3.9-2.3-5.4-4
			c-2.8-3.1-6.4-7.4-6.9-11.7c-0.3-2.5,1.1-3.7,1.6-5.8c0.3-1.2,0-2.8,0.2-4.1c0.2-1.4,0.5-2.9,0.7-4.3c0.4-2.5,0.8-5,0.6-7.6
			c-0.2-1.9-0.8-4.8-2.5-6.1c-1.3-1-3.1-0.8-4.1-2.4c-4.3-6.5-3.9-17.1-2.3-24.4c0.9-3.8,2.5-7.6,5.3-10.4c2.2-2.1,5-3.4,7.9-4.4
			c5.2-1.7,11-2.1,16.2-0.3c10.1,3.5,13,11.4,14,20.4c0.2,2,0.4,4.1,0.5,6.3c0.4,7,1.8,21.7-8.1,22.8c-2.5,0.3-5,0.5-7.5,0.8
			c-2.4,0.3-4.9,5.2-1.9,4.6c0.8,0,0.8,0.3,1.2,1c0.4,0.7,0.6,1.4,0.7,2.2c0.7,3.7,0.9,7.8,0,11.5c-0.7,3.1-3.6,4.7-4.9,7.4
			C45.6,102.1,44.9,104.6,43.3,107.1z"/>
		<path fill="#FFFFFF" d="M50.4,80.4c-1,0.2-1,1.7-1.2,2.4c-0.3,1.4-0.9,2.7-1.3,4c-0.4,1.3-1,2.8-2.4,3.3c-1,0.3-2.1-0.1-3.1-0.6
			c-2.6-1.3-4.7-3-7.1-4.6c-0.3-0.2-4.9-3.7-5.1-3.3c-1.1,3.2,0.3,7.1,0.6,10.4c0.3,3.6,0.6,7.2,1,10.8c0.7,7.1,1.5,14.3,2.4,21.4
			c0.9,7.1,1.8,14.3,2.8,21.4c0.3,1.9,2.2,21.2,2.9,21.2c9.7,0.7,19.5-0.2,28.9-2.8c-0.6-6.3-1.2-12.6-2-18.8
			c-2.1-16.5-5-32.9-8.7-49.1c-0.9-3.8-1.8-7.5-3.4-11.1c-0.6-1.3-1.8-3.7-3-4.4C51.1,80.4,50.7,80.3,50.4,80.4z"/>
		<path fill="#63774E" d="M25.7,78.2c2-0.7,4.4-1.4,6.1-0.1c1,0.7,1.6,1.9,2.1,3c0.6,5.3,4.3,9,7.7,12.6c3,3.2,4.8,6.6,7,10.3
			c0.6-4.8,0.4-9.8,0.5-14.7c0-3.8,0.3-8.4-0.8-12.1c-0.1-0.4,4.1,0.8,4.5,1.1c1.3,1,2.6,2.9,3.4,4.3c1.1,2,1.9,4.2,2.5,6.5
			c2.4,8.8,11.5,13.7,11.3,23.5c-0.1,4-1.6,7.7-1.7,11.7c-0.1,4.8-1.3,9.4-1,14.2c0.3,5.5,2.6,10,3.7,15.2c1,4.7,5.3,20.8,0.9,24.9
			c-2,1.9-10.1,0.5-13,0.8c-5.3,0.5-10.5,1.5-15.8,1.6c-6.8,0.2-14.3-0.2-21.1-1c0.4-4.2-0.3-8.6,0.2-12.7c0.5-3.4,2-6.6,2.3-10.2
			c0.7-7.9-0.9-16.1-4.6-23.1c-5.1-9.7-8.8-20.8-9.3-31.8c-0.2-5.1,0.2-10.6,2.3-15.3C15.2,81.7,20.5,80.2,25.7,78.2z"/>
		<path fill="#3C2415" d="M32.9,66.2c2.5-1.5,5.1-3.6,6.4-6.2c1.3-2.5,1.7-7.2-0.5-9.3c-1.6-1.5-3-3.6-3.1-5.9
			c-0.1-1.6,0.9-3.3,2.5-3.5c2.4-0.3,3.4,2.1,4.8,3.4c3.3,3,5.5-1.1,7.9-2.7c0.8-0.6,1.8-0.9,2.7-1.2c2.3-0.7,4.7-1.3,7-1.9
			c1-0.3,2.3-0.9,3.4-1c0.5,0,1.1,0.2,1.5,0.6c0.2,0.2,0.9,1.5,1.1,1.5c1.2,0.2,2-5.1,2.1-6c0.3-2.2,0.2-4.4-0.3-6.5
			c-0.9-4.3-3.5-8.1-7.4-10.2c-2.9-1.6-10.7-1.1-13.6-2.8c-5.8-3.4-16.1-1.8-21.7,1.6C16.8,21.3,12.9,31.3,12.2,41
			c-0.3,4.1-0.3,9.2,1.2,13.1c1.4,3.7,5.5,7.7,9,9.6c1.3,0.7,2.7,1.2,3.9,2c0.8,0.5,1.5,1.2,2.4,1.5c1.1,0.3,2.3,0.1,3.3-0.5
			C32.2,66.6,32.6,66.4,32.9,66.2z"/>
		<path fill="#6F825A" d="M49.6,110.5c-0.1-0.3-0.1-0.5-0.2-0.8c-1.1-4.4-0.9-7.8-0.5-12.4c0.1-0.7,0.2-1.5,0.7-2.1
			c0.7,7.2,3.2,13.9,4.4,21c3.5,20.5,3.6,41.2,8.1,61.6c0,0.2,0.1,0.4,0,0.5c-0.1,0.2-0.3,0.3-0.5,0.3c-0.9,0.2-1.8,0.3-2.7,0.1
			c-0.2,0-0.5-0.1-0.6-0.3c-0.1-0.1-0.2-0.4-0.2-0.6c-0.7-4.2-0.6-8.7-1.1-12.9c-0.7-6.6-1.3-13.2-2.2-19.8
			c-0.8-6.7-1.8-13.3-2.8-20c-0.9-8-2.7-15.1-5.7-22.6c-0.5-1.2-1-2.5-1.1-3.8c1.8,1.2,3.3,3,4.1,5.1c-0.3-2.6-0.2-5.2,0.2-7.8"/>
		<g>
			<path fill="#6F825A" d="M51.6,129.7c-4.3-2.2-8.4-5-12.5-8.4c-9.6-8-28.8-17.7-25.2-33.1c3.6-15.6,20.4,6.1,24.3,9.5
				c6.2,5.6,13.5,10.5,19.9,16.2c5.9,5.3,17.7-2.2,24.7-4.2c3.7-1.1,8.3-1.6,11.8-3.2c3.5-1.7,6.8-5,9.9-7.3c0.6-0.4,1.3-0.9,2-0.6
				c0.6,0.2,0.9,0.9,1.1,1.6c1.3,3.6,3.4,6.8,5.7,9.8c-8.4,7.6-20.4,13.5-30.4,18.9c-4.2,2.3-9.5,6.3-14.4,6.5
				C63,135.3,56.2,132.1,51.6,129.7z"/>
		</g>
		
			<radialGradient id="SVGID_4_" cx="-255.1026" cy="-3026.052" r="4.099" gradientTransform="matrix(0.9994 3.370064e-002 -4.567809e-002 1.3546 161.4792 4186.2837)" gradientUnits="userSpaceOnUse">
			<stop  offset="0" style="stop-color:#4D7582"/>
			<stop  offset="0.1109" style="stop-color:#577582;stop-opacity:0.8891"/>
			<stop  offset="0.2941" style="stop-color:#707581;stop-opacity:0.7059"/>
			<stop  offset="0.5272" style="stop-color:#92737F;stop-opacity:0.4728"/>
			<stop  offset="0.7979" style="stop-color:#C06F7B;stop-opacity:0.2021"/>
			<stop  offset="1" style="stop-color:#E86978;stop-opacity:0"/>
		</radialGradient>
		<path fill="url(#SVGID_4_)" d="M48.8,78.6c-0.1,3.1-2,5.5-4.3,5.4c-2.3-0.1-4-2.6-3.9-5.7s2-5.5,4.3-5.4
			C47.2,73,48.9,75.6,48.8,78.6z"/>
		<g>
			<path fill="#AF2027" d="M36.3,78.9c0.2-1.4,0.4-2.8,1-4.1c0.4-0.9,0.9-1.9,1.6-2.6c0.2-0.2,0.5-0.3,0.6-0.6
				c0.2-0.3,0.2-0.7,0.3-1c0-0.1,0.1-0.1,0.1-0.2c0-0.1,0-0.1-0.1-0.1c-0.7-0.8-1.7-1.5-2-2.5c-0.3,0.5-0.3,1.4-0.5,2
				c-0.1,0.7-0.2,1.3-0.3,2C36.7,74.2,36.7,76.6,36.3,78.9z"/>
			<path fill="#EC2429" d="M38.1,72.2c-0.1,0.9,0.2,1.9,1,2.4c0.2-0.1,0.2-0.4,0.1-0.7c-0.2-0.4-0.4-0.9-0.7-1.2
				C38.3,72.5,38.1,72.3,38.1,72.2"/>
			<path fill="#5E0C16" d="M38.4,69.4c0.2,1,0.4,2,0.6,3c0.1-0.6,0.2-1.2,0.3-1.8c0-0.1-0.1-0.1-0.1-0.1c0,0.1,0.1,0.1,0.1,0.2
				c-0.3-0.7-0.7-1.5-1.1-2.1c0,0.7,1.2,1.6,1.7,2c-0.2,0-0.4,0.2-0.4,0.5c-0.1,0.2-0.1,0.4-0.2,0.6S39,72,38.8,71.9
				C38.8,71.1,38.9,70.2,38.4,69.4C38.4,69.4,38.4,69.4,38.4,69.4c-0.1-0.1-0.1-0.1,0-0.2c0,0,0.1,0.1,0,0.1"/>
			<path fill="#EC2429" d="M38.5,75.4c-0.1,0.4,0,0.8,0,1.2c0,0.1,0,0.2,0.1,0.2c0.1,0.1,0.4,0,0.4-0.2c0-0.2-0.1-0.4-0.2-0.6
				C38.7,75.9,38.5,75.6,38.5,75.4"/>
		</g>
		<g>
			<path fill="#4E7582" stroke="#4E7582" stroke-width="1.1407" stroke-linejoin="round" stroke-miterlimit="10" d="M26.1,68.3
				l3.9-3.6L11.1,44.5c-1-1.1-2.7-1.1-3.8-0.1l0,0c-1.1,1-1.1,2.7-0.1,3.8L26.1,68.3z"/>
			<path stroke="#000000" stroke-width="1.4036" stroke-linejoin="round" stroke-miterlimit="10" d="M33.3,72.1l-1.7-3.7l-1.7-3.7
				c0,0-1.7,0.9-2.2,1.4c-0.5,0.4-1.5,2-1.5,2l3.5,1.9L33.3,72.1z"/>
		</g>
		<g>
			<path d="M33.6,72.5c0,0,0.1,0,0.2,0.1c0.1,0.1,0.3,0.2,0.4,0.4c0.3,0.4,0.7,1.1,0.8,1.9c0.1,0.9,0,1.9,0.1,2.8
				c0,0.5,0.1,0.9,0.4,1.2c0.1,0.1,0.3,0.2,0.4,0.3c0.2,0.1,0.3,0.1,0.4,0c0.2-0.1,0.4-0.2,0.7-0.3c0.3-0.1,0.7-0.2,1.1-0.1
				c0.8,0.2,1.2,0.7,1.5,1.2c0.3,0.5,0.5,1.1,0.6,1.5c0.1,0.5,0.2,0.9,0.3,1.2c0.1,0.3,0.3,0.7,0.5,0.9c0.2,0.2,0.5,0.3,0.7,0.3
				c0.2,0,0.4,0,0.5-0.1c0.1-0.1,0.1-0.1,0.1-0.1c0,0,0,0.1-0.1,0.2c-0.1,0.1-0.3,0.2-0.5,0.3c-0.3,0-0.6,0-0.9-0.2
				c-0.3-0.2-0.6-0.5-0.9-0.9c-0.2-0.4-0.4-0.8-0.6-1.3c-0.2-0.5-0.3-0.9-0.6-1.2c-0.3-0.4-0.6-0.6-0.9-0.7c-0.1,0-0.3,0-0.5,0.1
				c-0.2,0.1-0.4,0.3-0.8,0.4c-0.4,0.1-0.8,0.1-1.2,0c-0.4-0.2-0.6-0.4-0.9-0.7c-0.4-0.6-0.5-1.3-0.5-1.8c0-1.1,0.2-2,0.2-2.8
				c0-0.8-0.1-1.4-0.3-1.8C33.8,72.6,33.6,72.5,33.6,72.5z"/>
		</g>
	</g>
</g>
</svg>
