<?xml version="1.0" encoding="utf-8"?>
<!-- Generator: Adobe Illustrator 19.1.0, SVG Export Plug-In . SVG Version: 6.00 Build 0)  -->
<svg version="1.1" id="Layer_1" xmlns="http://www.w3.org/2000/svg" xmlns:xlink="http://www.w3.org/1999/xlink" x="0px" y="0px"
	 viewBox="0 0 181.4 39.2" enable-background="new 0 0 181.4 39.2" xml:space="preserve">
<g>
	<defs>
		<rect id="SVGID_17_" x="-271" y="-293.9" width="233.8" height="493.7"/>
	</defs>
	<clipPath id="SVGID_2_">
		<use xlink:href="#SVGID_17_"  overflow="visible"/>
	</clipPath>
	<use xlink:href="#SVGID_17_"  overflow="visible" fill="none" stroke="#BCBEC0" stroke-miterlimit="10"/>
</g>
<g>
	<defs>
		<rect id="SVGID_28_" x="-69.2" y="-865.4" width="233.8" height="493.7"/>
	</defs>
	<clipPath id="SVGID_4_">
		<use xlink:href="#SVGID_28_"  overflow="visible"/>
	</clipPath>
	<g clip-path="url(#SVGID_4_)">
		<polygon fill="#C3D7DC" points="132.7,151.6 -70.1,151.6 -69.9,-502.5 -61,-509 -40.2,-527.3 165,-527.3 165.4,125.7 		"/>
		<g>
			<path fill="#0F2849" d="M1,29.4l-0.1-1.2h1.1L2,29.4v6.5H1V29.4z"/>
			<path fill="#0F2849" d="M3.4,29.4l-0.1-1.2h1.1l0.1,1.2v4.5H3.4V29.4z"/>
			<path fill="#0F2849" d="M9.8,28.7c0.3,0.3,0.4,0.8,0.4,1.5v3.6H9.2v-3.7c0-0.7-0.3-1.1-0.9-1.1H6.7v4.8H5.7v-5.2v-0.4h2.9
				C9.1,28.2,9.5,28.3,9.8,28.7z"/>
			<path fill="#0F2849" d="M11.3,28.2h1.1l0.5,4.8c1.5-0.2,2.3-1,2.2-2.4v-0.3c0-0.4-0.1-0.7-0.3-0.9S14.4,29,14,29l-0.5,0l0.1-0.8
				l0.6,0c0.6,0,1.1,0.2,1.4,0.6s0.6,0.8,0.6,1.4l0,0.3c0,1.2-0.3,2-1.1,2.6c-0.8,0.6-1.8,0.9-3.2,0.9L11.3,28.2z"/>
			<path fill="#0F2849" d="M21.5,33v0.8h-1.8H17V33h2.8v-3c0-0.4-0.1-0.6-0.2-0.8c-0.2-0.2-0.4-0.2-0.7-0.2H17v-0.8h2.1
				c0.5,0,1,0.2,1.3,0.5c0.3,0.3,0.5,0.8,0.5,1.4V33H21.5z"/>
			<path fill="#0F2849" d="M26.4,28.2v0.9l-1.9,4.7h-1.1l1.9-4.8h-3v-2.4h1v1.5H26.4z"/>
			<path fill="#0F2849" d="M29.3,31.1l0.2-0.7h0.9v3.4h-1.1V31.1z M32.7,30c0-0.4-0.1-0.6-0.2-0.8c-0.2-0.2-0.4-0.2-0.7-0.2h-2.5
				v-0.8h2.7c0.5,0,0.9,0.2,1.3,0.5c0.3,0.3,0.4,0.8,0.4,1.4v3.8h-1.1V30z"/>
			<path fill="#0F2849" d="M36.8,33.8l-0.2-1.2c-0.2,0.3-0.4,0.6-0.7,0.8s-0.6,0.4-1,0.5l-0.4-0.8c0.5-0.2,0.8-0.4,1.2-0.6
				c0.3-0.2,0.6-0.5,0.7-0.9v-1.8c0-0.3,0-0.5-0.1-0.6c-0.1-0.1-0.2-0.2-0.4-0.2l-0.6-0.1l0.1-0.8l1,0.1c0.4,0.1,0.7,0.2,0.9,0.5
				c0.2,0.2,0.3,0.6,0.3,1.1v1.9l0.3,2.1H36.8z"/>
			<path fill="#0F2849" d="M42.7,33.8l-2.1-3.2l-1,3.2h-1l1.1-3.4l0.3-0.7L39,28.2h1.1l0.8,1.4l0.8,1.3l0.3-0.9l0.5-1.7h1l-1.2,3.5
				l1.4,2.1H42.7z"/>
			<path fill="#0F2849" d="M47,30.2c0-0.5,0.1-0.9,0.3-1.2h-2.7v-0.8h4.5V29h-0.8c-0.1,0.3-0.2,0.7-0.2,1.2v3.6H47V30.2z"/>
			<path fill="#0F2849" d="M55.9,33.8l-2.1-3.2l-1,3.2h-1l1.1-3.4l0.3-0.7l-0.9-1.5h1.1l0.8,1.4l0.8,1.3l0.3-0.9l0.5-1.7h1l-1.2,3.5
				l1.4,2.1H55.9z"/>
			<path fill="#0F2849" d="M61.9,28.2v0.9L60,33.8h-1.1l1.9-4.8h-3v-2.4h1v1.5H61.9z"/>
			<path fill="#0F2849" d="M66.7,28.2v0.9l-1.9,4.7h-1.1l1.9-4.8h-3v-2.4h1v1.5H66.7z"/>
			<path fill="#0F2849" d="M74.1,28.2c0,1.3-0.1,2.4-0.2,3s-0.4,1.2-0.8,1.7c-0.4,0.4-1,0.7-1.9,0.9l-1.9,0.4l-0.1-0.8L71,33
				l-1.2-4.8h1.1l1.1,4.5c0.4-0.2,0.6-0.4,0.8-0.7c0.2-0.3,0.3-0.7,0.3-1.2c0-0.5,0.1-1.2,0.1-2.2v-0.4H74.1z"/>
			<path fill="#0F2849" d="M75.3,29.4l-0.1-1.2h1.1l0.1,1.2v4.5h-1.1V29.4z"/>
			<path fill="#0F2849" d="M80.5,31.4l1.4,2.4h-1.1h-3.4V33h3l-2.8-4.8h1.1l1.3,2.2l0.9-2.2h1.1L80.5,31.4z"/>
			<path fill="#0F2849" d="M83,33h1.8c0.5,0,0.8-0.1,1.1-0.4c0.3-0.3,0.4-0.7,0.4-1.3v-0.7c0-0.5-0.1-0.9-0.3-1.2
				c-0.2-0.3-0.5-0.4-1-0.4h-0.9l-0.2,1c0,0.2,0,0.3,0,0.4c0,0.2,0.1,0.4,0.2,0.5c0.1,0.1,0.3,0.2,0.6,0.2l-0.2,0.7
				c-0.5,0-0.9-0.2-1.1-0.4c-0.2-0.2-0.4-0.5-0.4-1c0-0.2,0-0.4,0.1-0.5l0.4-1.7h1.9c0.7,0,1.2,0.2,1.6,0.7c0.4,0.4,0.6,1.1,0.6,1.9
				v0.6c0,0.8-0.2,1.5-0.6,1.9c-0.4,0.4-1,0.6-1.7,0.6h-2V33z"/>
			<path fill="#0F2849" d="M94.3,28.2v0.9l-1.9,4.7h-1.1l1.9-4.8h-3v-2.4h1v1.5H94.3z"/>
			<path fill="#0F2849" d="M99.8,28.2c0,1.3-0.1,2.4-0.2,3s-0.4,1.2-0.8,1.7c-0.4,0.4-1,0.7-1.9,0.9l-1.9,0.4l-0.1-0.8l1.7-0.3
				l-1.2-4.8h1.1l1.1,4.5c0.4-0.2,0.6-0.4,0.8-0.7c0.2-0.3,0.3-0.7,0.3-1.2c0-0.5,0.1-1.2,0.1-2.2v-0.4H99.8z"/>
			<path fill="#0F2849" d="M102.4,33.2c0.4,0,0.6-0.1,0.8-0.3c0.1-0.2,0.2-0.4,0.2-0.8v-3.9h2.7c0.5,0,1,0.2,1.3,0.5
				c0.3,0.3,0.5,0.8,0.5,1.4v3.8h-1.1V30c0-0.4-0.1-0.6-0.2-0.8c-0.2-0.2-0.4-0.2-0.7-0.2h-1.4v3c0,0.7-0.2,1.1-0.5,1.4
				s-0.8,0.5-1.5,0.5L102.4,33.2z"/>
			<path fill="#0F2849" d="M109.1,29.4l-0.1-1.2h1.1l0.1,1.2v4.5h-1.1V29.4z"/>
			<path fill="#0F2849" d="M113.9,30c0-0.4-0.1-0.6-0.2-0.8c-0.2-0.2-0.4-0.2-0.7-0.2h-1.9v-0.8h2.1c0.5,0,0.9,0.2,1.3,0.5
				c0.3,0.3,0.4,0.8,0.4,1.4v3.8h-1.1V30z"/>
			<path fill="#0F2849" d="M120.6,28.2c0,1.3-0.1,2.4-0.2,3s-0.4,1.2-0.8,1.7c-0.4,0.4-1,0.7-1.9,0.9l-1.9,0.4l-0.2-0.8l1.7-0.3
				l-1.2-4.8h1.1l1.1,4.5c0.4-0.2,0.6-0.4,0.8-0.7c0.2-0.3,0.3-0.7,0.3-1.2c0-0.5,0.1-1.2,0.1-2.2v-0.4H120.6z"/>
			<path fill="#0F2849" d="M121.3,33.2c0.4,0,0.6-0.1,0.8-0.3c0.1-0.2,0.2-0.4,0.2-0.8v-3.9h2.7c0.5,0,1,0.2,1.3,0.5
				s0.5,0.8,0.5,1.4v3.8h-1.1V30c0-0.4-0.1-0.6-0.2-0.8c-0.2-0.2-0.4-0.2-0.7-0.2h-1.4v3c0,0.7-0.2,1.1-0.5,1.4s-0.8,0.5-1.5,0.5
				L121.3,33.2z"/>
			<path fill="#0F2849" d="M131.6,33.1c-0.7,0.5-1.8,0.8-3.1,0.8l-0.6-4.9l-0.1-0.8h2.9c0.6,0,1.1,0.2,1.4,0.6
				c0.3,0.4,0.5,0.9,0.5,1.5l0,0.3C132.7,31.7,132.3,32.5,131.6,33.1z M131.1,32.3c0.4-0.4,0.5-0.9,0.5-1.8v-0.3
				c0-0.4-0.1-0.7-0.3-0.9c-0.2-0.2-0.4-0.3-0.8-0.3h-1.6l0.4,3.9C130.1,32.9,130.7,32.7,131.1,32.3z"/>
			<path fill="#0F2849" d="M133.7,31.1l0.2-0.7h0.9v3.4h-1.1V31.1z M137.1,30c0-0.4-0.1-0.6-0.2-0.8c-0.2-0.2-0.4-0.2-0.7-0.2h-2.5
				v-0.8h2.7c0.5,0,0.9,0.2,1.3,0.5c0.3,0.3,0.4,0.8,0.4,1.4v3.8h-1.1V30z"/>
		</g>
		<g>
			<path fill="#0F2849" d="M1,29.4l-0.1-1.2h1.1L2,29.4v6.5H1V29.4z"/>
			<path fill="#0F2849" d="M3.4,29.4l-0.1-1.2h1.1l0.1,1.2v4.5H3.4V29.4z"/>
			<path fill="#0F2849" d="M9.8,28.7c0.3,0.3,0.4,0.8,0.4,1.5v3.6H9.2v-3.7c0-0.7-0.3-1.1-0.9-1.1H6.7v4.8H5.7v-5.2v-0.4h2.9
				C9.1,28.2,9.5,28.3,9.8,28.7z"/>
			<path fill="#0F2849" d="M11.3,28.2h1.1l0.5,4.8c1.5-0.2,2.3-1,2.2-2.4v-0.3c0-0.4-0.1-0.7-0.3-0.9S14.4,29,14,29l-0.5,0l0.1-0.8
				l0.6,0c0.6,0,1.1,0.2,1.4,0.6s0.6,0.8,0.6,1.4l0,0.3c0,1.2-0.3,2-1.1,2.6c-0.8,0.6-1.8,0.9-3.2,0.9L11.3,28.2z"/>
			<path fill="#0F2849" d="M21.5,33v0.8h-1.8H17V33h2.8v-3c0-0.4-0.1-0.6-0.2-0.8c-0.2-0.2-0.4-0.2-0.7-0.2H17v-0.8h2.1
				c0.5,0,1,0.2,1.3,0.5c0.3,0.3,0.5,0.8,0.5,1.4V33H21.5z"/>
			<path fill="#0F2849" d="M26.4,28.2v0.9l-1.9,4.7h-1.1l1.9-4.8h-3v-2.4h1v1.5H26.4z"/>
			<path fill="#0F2849" d="M29.3,31.1l0.2-0.7h0.9v3.4h-1.1V31.1z M32.7,30c0-0.4-0.1-0.6-0.2-0.8c-0.2-0.2-0.4-0.2-0.7-0.2h-2.5
				v-0.8h2.7c0.5,0,0.9,0.2,1.3,0.5c0.3,0.3,0.4,0.8,0.4,1.4v3.8h-1.1V30z"/>
			<path fill="#0F2849" d="M36.8,33.8l-0.2-1.2c-0.2,0.3-0.4,0.6-0.7,0.8s-0.6,0.4-1,0.5l-0.4-0.8c0.5-0.2,0.8-0.4,1.2-0.6
				c0.3-0.2,0.6-0.5,0.7-0.9v-1.8c0-0.3,0-0.5-0.1-0.6c-0.1-0.1-0.2-0.2-0.4-0.2l-0.6-0.1l0.1-0.8l1,0.1c0.4,0.1,0.7,0.2,0.9,0.5
				c0.2,0.2,0.3,0.6,0.3,1.1v1.9l0.3,2.1H36.8z"/>
			<path fill="#0F2849" d="M42.7,33.8l-2.1-3.2l-1,3.2h-1l1.1-3.4l0.3-0.7L39,28.2h1.1l0.8,1.4l0.8,1.3l0.3-0.9l0.5-1.7h1l-1.2,3.5
				l1.4,2.1H42.7z"/>
			<path fill="#0F2849" d="M47,30.2c0-0.5,0.1-0.9,0.3-1.2h-2.7v-0.8h4.5V29h-0.8c-0.1,0.3-0.2,0.7-0.2,1.2v3.6H47V30.2z"/>
			<path fill="#0F2849" d="M55.9,33.8l-2.1-3.2l-1,3.2h-1l1.1-3.4l0.3-0.7l-0.9-1.5h1.1l0.8,1.4l0.8,1.3l0.3-0.9l0.5-1.7h1l-1.2,3.5
				l1.4,2.1H55.9z"/>
			<path fill="#0F2849" d="M61.9,28.2v0.9L60,33.8h-1.1l1.9-4.8h-3v-2.4h1v1.5H61.9z"/>
			<path fill="#0F2849" d="M66.7,28.2v0.9l-1.9,4.7h-1.1l1.9-4.8h-3v-2.4h1v1.5H66.7z"/>
			<path fill="#0F2849" d="M74.1,28.2c0,1.3-0.1,2.4-0.2,3s-0.4,1.2-0.8,1.7c-0.4,0.4-1,0.7-1.9,0.9l-1.9,0.4l-0.1-0.8L71,33
				l-1.2-4.8h1.1l1.1,4.5c0.4-0.2,0.6-0.4,0.8-0.7c0.2-0.3,0.3-0.7,0.3-1.2c0-0.5,0.1-1.2,0.1-2.2v-0.4H74.1z"/>
			<path fill="#0F2849" d="M75.3,29.4l-0.1-1.2h1.1l0.1,1.2v4.5h-1.1V29.4z"/>
			<path fill="#0F2849" d="M80.5,31.4l1.4,2.4h-1.1h-3.4V33h3l-2.8-4.8h1.1l1.3,2.2l0.9-2.2h1.1L80.5,31.4z"/>
			<path fill="#0F2849" d="M83,33h1.8c0.5,0,0.8-0.1,1.1-0.4c0.3-0.3,0.4-0.7,0.4-1.3v-0.7c0-0.5-0.1-0.9-0.3-1.2
				c-0.2-0.3-0.5-0.4-1-0.4h-0.9l-0.2,1c0,0.2,0,0.3,0,0.4c0,0.2,0.1,0.4,0.2,0.5c0.1,0.1,0.3,0.2,0.6,0.2l-0.2,0.7
				c-0.5,0-0.9-0.2-1.1-0.4c-0.2-0.2-0.4-0.5-0.4-1c0-0.2,0-0.4,0.1-0.5l0.4-1.7h1.9c0.7,0,1.2,0.2,1.6,0.7c0.4,0.4,0.6,1.1,0.6,1.9
				v0.6c0,0.8-0.2,1.5-0.6,1.9c-0.4,0.4-1,0.6-1.7,0.6h-2V33z"/>
			<path fill="#0F2849" d="M94.3,28.2v0.9l-1.9,4.7h-1.1l1.9-4.8h-3v-2.4h1v1.5H94.3z"/>
			<path fill="#0F2849" d="M99.8,28.2c0,1.3-0.1,2.4-0.2,3s-0.4,1.2-0.8,1.7c-0.4,0.4-1,0.7-1.9,0.9l-1.9,0.4l-0.1-0.8l1.7-0.3
				l-1.2-4.8h1.1l1.1,4.5c0.4-0.2,0.6-0.4,0.8-0.7c0.2-0.3,0.3-0.7,0.3-1.2c0-0.5,0.1-1.2,0.1-2.2v-0.4H99.8z"/>
			<path fill="#0F2849" d="M102.4,33.2c0.4,0,0.6-0.1,0.8-0.3c0.1-0.2,0.2-0.4,0.2-0.8v-3.9h2.7c0.5,0,1,0.2,1.3,0.5
				c0.3,0.3,0.5,0.8,0.5,1.4v3.8h-1.1V30c0-0.4-0.1-0.6-0.2-0.8c-0.2-0.2-0.4-0.2-0.7-0.2h-1.4v3c0,0.7-0.2,1.1-0.5,1.4
				s-0.8,0.5-1.5,0.5L102.4,33.2z"/>
			<path fill="#0F2849" d="M109.1,29.4l-0.1-1.2h1.1l0.1,1.2v4.5h-1.1V29.4z"/>
			<path fill="#0F2849" d="M113.9,30c0-0.4-0.1-0.6-0.2-0.8c-0.2-0.2-0.4-0.2-0.7-0.2h-1.9v-0.8h2.1c0.5,0,0.9,0.2,1.3,0.5
				c0.3,0.3,0.4,0.8,0.4,1.4v3.8h-1.1V30z"/>
			<path fill="#0F2849" d="M120.6,28.2c0,1.3-0.1,2.4-0.2,3s-0.4,1.2-0.8,1.7c-0.4,0.4-1,0.7-1.9,0.9l-1.9,0.4l-0.2-0.8l1.7-0.3
				l-1.2-4.8h1.1l1.1,4.5c0.4-0.2,0.6-0.4,0.8-0.7c0.2-0.3,0.3-0.7,0.3-1.2c0-0.5,0.1-1.2,0.1-2.2v-0.4H120.6z"/>
			<path fill="#0F2849" d="M121.3,33.2c0.4,0,0.6-0.1,0.8-0.3c0.1-0.2,0.2-0.4,0.2-0.8v-3.9h2.7c0.5,0,1,0.2,1.3,0.5
				s0.5,0.8,0.5,1.4v3.8h-1.1V30c0-0.4-0.1-0.6-0.2-0.8c-0.2-0.2-0.4-0.2-0.7-0.2h-1.4v3c0,0.7-0.2,1.1-0.5,1.4s-0.8,0.5-1.5,0.5
				L121.3,33.2z"/>
			<path fill="#0F2849" d="M131.6,33.1c-0.7,0.5-1.8,0.8-3.1,0.8l-0.6-4.9l-0.1-0.8h2.9c0.6,0,1.1,0.2,1.4,0.6
				c0.3,0.4,0.5,0.9,0.5,1.5l0,0.3C132.7,31.7,132.3,32.5,131.6,33.1z M131.1,32.3c0.4-0.4,0.5-0.9,0.5-1.8v-0.3
				c0-0.4-0.1-0.7-0.3-0.9c-0.2-0.2-0.4-0.3-0.8-0.3h-1.6l0.4,3.9C130.1,32.9,130.7,32.7,131.1,32.3z"/>
			<path fill="#0F2849" d="M133.7,31.1l0.2-0.7h0.9v3.4h-1.1V31.1z M137.1,30c0-0.4-0.1-0.6-0.2-0.8c-0.2-0.2-0.4-0.2-0.7-0.2h-2.5
				v-0.8h2.7c0.5,0,0.9,0.2,1.3,0.5c0.3,0.3,0.4,0.8,0.4,1.4v3.8h-1.1V30z"/>
		</g>
		<g>
			<path fill="#0F2849" d="M1,29.4l-0.1-1.2h1.1L2,29.4v6.5H1V29.4z"/>
			<path fill="#0F2849" d="M3.4,29.4l-0.1-1.2h1.1l0.1,1.2v4.5H3.4V29.4z"/>
			<path fill="#0F2849" d="M9.8,28.7c0.3,0.3,0.4,0.8,0.4,1.5v3.6H9.2v-3.7c0-0.7-0.3-1.1-0.9-1.1H6.7v4.8H5.7v-5.2v-0.4h2.9
				C9.1,28.2,9.5,28.3,9.8,28.7z"/>
			<path fill="#0F2849" d="M11.3,28.2h1.1l0.5,4.8c1.5-0.2,2.3-1,2.2-2.4v-0.3c0-0.4-0.1-0.7-0.3-0.9S14.4,29,14,29l-0.5,0l0.1-0.8
				l0.6,0c0.6,0,1.1,0.2,1.4,0.6s0.6,0.8,0.6,1.4l0,0.3c0,1.2-0.3,2-1.1,2.6c-0.8,0.6-1.8,0.9-3.2,0.9L11.3,28.2z"/>
			<path fill="#0F2849" d="M21.5,33v0.8h-1.8H17V33h2.8v-3c0-0.4-0.1-0.6-0.2-0.8c-0.2-0.2-0.4-0.2-0.7-0.2H17v-0.8h2.1
				c0.5,0,1,0.2,1.3,0.5c0.3,0.3,0.5,0.8,0.5,1.4V33H21.5z"/>
			<path fill="#0F2849" d="M26.4,28.2v0.9l-1.9,4.7h-1.1l1.9-4.8h-3v-2.4h1v1.5H26.4z"/>
			<path fill="#0F2849" d="M29.3,31.1l0.2-0.7h0.9v3.4h-1.1V31.1z M32.7,30c0-0.4-0.1-0.6-0.2-0.8c-0.2-0.2-0.4-0.2-0.7-0.2h-2.5
				v-0.8h2.7c0.5,0,0.9,0.2,1.3,0.5c0.3,0.3,0.4,0.8,0.4,1.4v3.8h-1.1V30z"/>
			<path fill="#0F2849" d="M36.8,33.8l-0.2-1.2c-0.2,0.3-0.4,0.6-0.7,0.8s-0.6,0.4-1,0.5l-0.4-0.8c0.5-0.2,0.8-0.4,1.2-0.6
				c0.3-0.2,0.6-0.5,0.7-0.9v-1.8c0-0.3,0-0.5-0.1-0.6c-0.1-0.1-0.2-0.2-0.4-0.2l-0.6-0.1l0.1-0.8l1,0.1c0.4,0.1,0.7,0.2,0.9,0.5
				c0.2,0.2,0.3,0.6,0.3,1.1v1.9l0.3,2.1H36.8z"/>
			<path fill="#0F2849" d="M42.7,33.8l-2.1-3.2l-1,3.2h-1l1.1-3.4l0.3-0.7L39,28.2h1.1l0.8,1.4l0.8,1.3l0.3-0.9l0.5-1.7h1l-1.2,3.5
				l1.4,2.1H42.7z"/>
			<path fill="#0F2849" d="M47,30.2c0-0.5,0.1-0.9,0.3-1.2h-2.7v-0.8h4.5V29h-0.8c-0.1,0.3-0.2,0.7-0.2,1.2v3.6H47V30.2z"/>
			<path fill="#0F2849" d="M55.9,33.8l-2.1-3.2l-1,3.2h-1l1.1-3.4l0.3-0.7l-0.9-1.5h1.1l0.8,1.4l0.8,1.3l0.3-0.9l0.5-1.7h1l-1.2,3.5
				l1.4,2.1H55.9z"/>
			<path fill="#0F2849" d="M61.9,28.2v0.9L60,33.8h-1.1l1.9-4.8h-3v-2.4h1v1.5H61.9z"/>
			<path fill="#0F2849" d="M66.7,28.2v0.9l-1.9,4.7h-1.1l1.9-4.8h-3v-2.4h1v1.5H66.7z"/>
			<path fill="#0F2849" d="M74.1,28.2c0,1.3-0.1,2.4-0.2,3s-0.4,1.2-0.8,1.7c-0.4,0.4-1,0.7-1.9,0.9l-1.9,0.4l-0.1-0.8L71,33
				l-1.2-4.8h1.1l1.1,4.5c0.4-0.2,0.6-0.4,0.8-0.7c0.2-0.3,0.3-0.7,0.3-1.2c0-0.5,0.1-1.2,0.1-2.2v-0.4H74.1z"/>
			<path fill="#0F2849" d="M75.3,29.4l-0.1-1.2h1.1l0.1,1.2v4.5h-1.1V29.4z"/>
			<path fill="#0F2849" d="M80.5,31.4l1.4,2.4h-1.1h-3.4V33h3l-2.8-4.8h1.1l1.3,2.2l0.9-2.2h1.1L80.5,31.4z"/>
			<path fill="#0F2849" d="M83,33h1.8c0.5,0,0.8-0.1,1.1-0.4c0.3-0.3,0.4-0.7,0.4-1.3v-0.7c0-0.5-0.1-0.9-0.3-1.2
				c-0.2-0.3-0.5-0.4-1-0.4h-0.9l-0.2,1c0,0.2,0,0.3,0,0.4c0,0.2,0.1,0.4,0.2,0.5c0.1,0.1,0.3,0.2,0.6,0.2l-0.2,0.7
				c-0.5,0-0.9-0.2-1.1-0.4c-0.2-0.2-0.4-0.5-0.4-1c0-0.2,0-0.4,0.1-0.5l0.4-1.7h1.9c0.7,0,1.2,0.2,1.6,0.7c0.4,0.4,0.6,1.1,0.6,1.9
				v0.6c0,0.8-0.2,1.5-0.6,1.9c-0.4,0.4-1,0.6-1.7,0.6h-2V33z"/>
			<path fill="#0F2849" d="M94.3,28.2v0.9l-1.9,4.7h-1.1l1.9-4.8h-3v-2.4h1v1.5H94.3z"/>
			<path fill="#0F2849" d="M99.8,28.2c0,1.3-0.1,2.4-0.2,3s-0.4,1.2-0.8,1.7c-0.4,0.4-1,0.7-1.9,0.9l-1.9,0.4l-0.1-0.8l1.7-0.3
				l-1.2-4.8h1.1l1.1,4.5c0.4-0.2,0.6-0.4,0.8-0.7c0.2-0.3,0.3-0.7,0.3-1.2c0-0.5,0.1-1.2,0.1-2.2v-0.4H99.8z"/>
			<path fill="#0F2849" d="M102.4,33.2c0.4,0,0.6-0.1,0.8-0.3c0.1-0.2,0.2-0.4,0.2-0.8v-3.9h2.7c0.5,0,1,0.2,1.3,0.5
				c0.3,0.3,0.5,0.8,0.5,1.4v3.8h-1.1V30c0-0.4-0.1-0.6-0.2-0.8c-0.2-0.2-0.4-0.2-0.7-0.2h-1.4v3c0,0.7-0.2,1.1-0.5,1.4
				s-0.8,0.5-1.5,0.5L102.4,33.2z"/>
			<path fill="#0F2849" d="M109.1,29.4l-0.1-1.2h1.1l0.1,1.2v4.5h-1.1V29.4z"/>
			<path fill="#0F2849" d="M113.9,30c0-0.4-0.1-0.6-0.2-0.8c-0.2-0.2-0.4-0.2-0.7-0.2h-1.9v-0.8h2.1c0.5,0,0.9,0.2,1.3,0.5
				c0.3,0.3,0.4,0.8,0.4,1.4v3.8h-1.1V30z"/>
			<path fill="#0F2849" d="M120.6,28.2c0,1.3-0.1,2.4-0.2,3s-0.4,1.2-0.8,1.7c-0.4,0.4-1,0.7-1.9,0.9l-1.9,0.4l-0.2-0.8l1.7-0.3
				l-1.2-4.8h1.1l1.1,4.5c0.4-0.2,0.6-0.4,0.8-0.7c0.2-0.3,0.3-0.7,0.3-1.2c0-0.5,0.1-1.2,0.1-2.2v-0.4H120.6z"/>
			<path fill="#0F2849" d="M121.3,33.2c0.4,0,0.6-0.1,0.8-0.3c0.1-0.2,0.2-0.4,0.2-0.8v-3.9h2.7c0.5,0,1,0.2,1.3,0.5
				s0.5,0.8,0.5,1.4v3.8h-1.1V30c0-0.4-0.1-0.6-0.2-0.8c-0.2-0.2-0.4-0.2-0.7-0.2h-1.4v3c0,0.7-0.2,1.1-0.5,1.4s-0.8,0.5-1.5,0.5
				L121.3,33.2z"/>
			<path fill="#0F2849" d="M131.6,33.1c-0.7,0.5-1.8,0.8-3.1,0.8l-0.6-4.9l-0.1-0.8h2.9c0.6,0,1.1,0.2,1.4,0.6
				c0.3,0.4,0.5,0.9,0.5,1.5l0,0.3C132.7,31.7,132.3,32.5,131.6,33.1z M131.1,32.3c0.4-0.4,0.5-0.9,0.5-1.8v-0.3
				c0-0.4-0.1-0.7-0.3-0.9c-0.2-0.2-0.4-0.3-0.8-0.3h-1.6l0.4,3.9C130.1,32.9,130.7,32.7,131.1,32.3z"/>
			<path fill="#0F2849" d="M133.7,31.1l0.2-0.7h0.9v3.4h-1.1V31.1z M137.1,30c0-0.4-0.1-0.6-0.2-0.8c-0.2-0.2-0.4-0.2-0.7-0.2h-2.5
				v-0.8h2.7c0.5,0,0.9,0.2,1.3,0.5c0.3,0.3,0.4,0.8,0.4,1.4v3.8h-1.1V30z"/>
		</g>
		<g>
			<path fill="#0F2849" d="M1,29.4l-0.1-1.2h1.1L2,29.4v6.5H1V29.4z"/>
			<path fill="#0F2849" d="M3.4,29.4l-0.1-1.2h1.1l0.1,1.2v4.5H3.4V29.4z"/>
			<path fill="#0F2849" d="M9.8,28.7c0.3,0.3,0.4,0.8,0.4,1.5v3.6H9.2v-3.7c0-0.7-0.3-1.1-0.9-1.1H6.7v4.8H5.7v-5.2v-0.4h2.9
				C9.1,28.2,9.5,28.3,9.8,28.7z"/>
			<path fill="#0F2849" d="M11.3,28.2h1.1l0.5,4.8c1.5-0.2,2.3-1,2.2-2.4v-0.3c0-0.4-0.1-0.7-0.3-0.9S14.4,29,14,29l-0.5,0l0.1-0.8
				l0.6,0c0.6,0,1.1,0.2,1.4,0.6s0.6,0.8,0.6,1.4l0,0.3c0,1.2-0.3,2-1.1,2.6c-0.8,0.6-1.8,0.9-3.2,0.9L11.3,28.2z"/>
			<path fill="#0F2849" d="M21.5,33v0.8h-1.8H17V33h2.8v-3c0-0.4-0.1-0.6-0.2-0.8c-0.2-0.2-0.4-0.2-0.7-0.2H17v-0.8h2.1
				c0.5,0,1,0.2,1.3,0.5c0.3,0.3,0.5,0.8,0.5,1.4V33H21.5z"/>
			<path fill="#0F2849" d="M26.4,28.2v0.9l-1.9,4.7h-1.1l1.9-4.8h-3v-2.4h1v1.5H26.4z"/>
			<path fill="#0F2849" d="M29.3,31.1l0.2-0.7h0.9v3.4h-1.1V31.1z M32.7,30c0-0.4-0.1-0.6-0.2-0.8c-0.2-0.2-0.4-0.2-0.7-0.2h-2.5
				v-0.8h2.7c0.5,0,0.9,0.2,1.3,0.5c0.3,0.3,0.4,0.8,0.4,1.4v3.8h-1.1V30z"/>
			<path fill="#0F2849" d="M36.8,33.8l-0.2-1.2c-0.2,0.3-0.4,0.6-0.7,0.8s-0.6,0.4-1,0.5l-0.4-0.8c0.5-0.2,0.8-0.4,1.2-0.6
				c0.3-0.2,0.6-0.5,0.7-0.9v-1.8c0-0.3,0-0.5-0.1-0.6c-0.1-0.1-0.2-0.2-0.4-0.2l-0.6-0.1l0.1-0.8l1,0.1c0.4,0.1,0.7,0.2,0.9,0.5
				c0.2,0.2,0.3,0.6,0.3,1.1v1.9l0.3,2.1H36.8z"/>
			<path fill="#0F2849" d="M42.7,33.8l-2.1-3.2l-1,3.2h-1l1.1-3.4l0.3-0.7L39,28.2h1.1l0.8,1.4l0.8,1.3l0.3-0.9l0.5-1.7h1l-1.2,3.5
				l1.4,2.1H42.7z"/>
			<path fill="#0F2849" d="M47,30.2c0-0.5,0.1-0.9,0.3-1.2h-2.7v-0.8h4.5V29h-0.8c-0.1,0.3-0.2,0.7-0.2,1.2v3.6H47V30.2z"/>
			<path fill="#0F2849" d="M55.9,33.8l-2.1-3.2l-1,3.2h-1l1.1-3.4l0.3-0.7l-0.9-1.5h1.1l0.8,1.4l0.8,1.3l0.3-0.9l0.5-1.7h1l-1.2,3.5
				l1.4,2.1H55.9z"/>
			<path fill="#0F2849" d="M61.9,28.2v0.9L60,33.8h-1.1l1.9-4.8h-3v-2.4h1v1.5H61.9z"/>
			<path fill="#0F2849" d="M66.7,28.2v0.9l-1.9,4.7h-1.1l1.9-4.8h-3v-2.4h1v1.5H66.7z"/>
			<path fill="#0F2849" d="M74.1,28.2c0,1.3-0.1,2.4-0.2,3s-0.4,1.2-0.8,1.7c-0.4,0.4-1,0.7-1.9,0.9l-1.9,0.4l-0.1-0.8L71,33
				l-1.2-4.8h1.1l1.1,4.5c0.4-0.2,0.6-0.4,0.8-0.7c0.2-0.3,0.3-0.7,0.3-1.2c0-0.5,0.1-1.2,0.1-2.2v-0.4H74.1z"/>
			<path fill="#0F2849" d="M75.3,29.4l-0.1-1.2h1.1l0.1,1.2v4.5h-1.1V29.4z"/>
			<path fill="#0F2849" d="M80.5,31.4l1.4,2.4h-1.1h-3.4V33h3l-2.8-4.8h1.1l1.3,2.2l0.9-2.2h1.1L80.5,31.4z"/>
			<path fill="#0F2849" d="M83,33h1.8c0.5,0,0.8-0.1,1.1-0.4c0.3-0.3,0.4-0.7,0.4-1.3v-0.7c0-0.5-0.1-0.9-0.3-1.2
				c-0.2-0.3-0.5-0.4-1-0.4h-0.9l-0.2,1c0,0.2,0,0.3,0,0.4c0,0.2,0.1,0.4,0.2,0.5c0.1,0.1,0.3,0.2,0.6,0.2l-0.2,0.7
				c-0.5,0-0.9-0.2-1.1-0.4c-0.2-0.2-0.4-0.5-0.4-1c0-0.2,0-0.4,0.1-0.5l0.4-1.7h1.9c0.7,0,1.2,0.2,1.6,0.7c0.4,0.4,0.6,1.1,0.6,1.9
				v0.6c0,0.8-0.2,1.5-0.6,1.9c-0.4,0.4-1,0.6-1.7,0.6h-2V33z"/>
			<path fill="#0F2849" d="M94.3,28.2v0.9l-1.9,4.7h-1.1l1.9-4.8h-3v-2.4h1v1.5H94.3z"/>
			<path fill="#0F2849" d="M99.8,28.2c0,1.3-0.1,2.4-0.2,3s-0.4,1.2-0.8,1.7c-0.4,0.4-1,0.7-1.9,0.9l-1.9,0.4l-0.1-0.8l1.7-0.3
				l-1.2-4.8h1.1l1.1,4.5c0.4-0.2,0.6-0.4,0.8-0.7c0.2-0.3,0.3-0.7,0.3-1.2c0-0.5,0.1-1.2,0.1-2.2v-0.4H99.8z"/>
			<path fill="#0F2849" d="M102.4,33.2c0.4,0,0.6-0.1,0.8-0.3c0.1-0.2,0.2-0.4,0.2-0.8v-3.9h2.7c0.5,0,1,0.2,1.3,0.5
				c0.3,0.3,0.5,0.8,0.5,1.4v3.8h-1.1V30c0-0.4-0.1-0.6-0.2-0.8c-0.2-0.2-0.4-0.2-0.7-0.2h-1.4v3c0,0.7-0.2,1.1-0.5,1.4
				s-0.8,0.5-1.5,0.5L102.4,33.2z"/>
			<path fill="#0F2849" d="M109.1,29.4l-0.1-1.2h1.1l0.1,1.2v4.5h-1.1V29.4z"/>
			<path fill="#0F2849" d="M113.9,30c0-0.4-0.1-0.6-0.2-0.8c-0.2-0.2-0.4-0.2-0.7-0.2h-1.9v-0.8h2.1c0.5,0,0.9,0.2,1.3,0.5
				c0.3,0.3,0.4,0.8,0.4,1.4v3.8h-1.1V30z"/>
			<path fill="#0F2849" d="M120.6,28.2c0,1.3-0.1,2.4-0.2,3s-0.4,1.2-0.8,1.7c-0.4,0.4-1,0.7-1.9,0.9l-1.9,0.4l-0.2-0.8l1.7-0.3
				l-1.2-4.8h1.1l1.1,4.5c0.4-0.2,0.6-0.4,0.8-0.7c0.2-0.3,0.3-0.7,0.3-1.2c0-0.5,0.1-1.2,0.1-2.2v-0.4H120.6z"/>
			<path fill="#0F2849" d="M121.3,33.2c0.4,0,0.6-0.1,0.8-0.3c0.1-0.2,0.2-0.4,0.2-0.8v-3.9h2.7c0.5,0,1,0.2,1.3,0.5
				s0.5,0.8,0.5,1.4v3.8h-1.1V30c0-0.4-0.1-0.6-0.2-0.8c-0.2-0.2-0.4-0.2-0.7-0.2h-1.4v3c0,0.7-0.2,1.1-0.5,1.4s-0.8,0.5-1.5,0.5
				L121.3,33.2z"/>
			<path fill="#0F2849" d="M131.6,33.1c-0.7,0.5-1.8,0.8-3.1,0.8l-0.6-4.9l-0.1-0.8h2.9c0.6,0,1.1,0.2,1.4,0.6
				c0.3,0.4,0.5,0.9,0.5,1.5l0,0.3C132.7,31.7,132.3,32.5,131.6,33.1z M131.1,32.3c0.4-0.4,0.5-0.9,0.5-1.8v-0.3
				c0-0.4-0.1-0.7-0.3-0.9c-0.2-0.2-0.4-0.3-0.8-0.3h-1.6l0.4,3.9C130.1,32.9,130.7,32.7,131.1,32.3z"/>
			<path fill="#0F2849" d="M133.7,31.1l0.2-0.7h0.9v3.4h-1.1V31.1z M137.1,30c0-0.4-0.1-0.6-0.2-0.8c-0.2-0.2-0.4-0.2-0.7-0.2h-2.5
				v-0.8h2.7c0.5,0,0.9,0.2,1.3,0.5c0.3,0.3,0.4,0.8,0.4,1.4v3.8h-1.1V30z"/>
		</g>
		<g>
			<path fill="#0F2849" d="M1,29.4l-0.1-1.2h1.1L2,29.4v6.5H1V29.4z"/>
			<path fill="#0F2849" d="M3.4,29.4l-0.1-1.2h1.1l0.1,1.2v4.5H3.4V29.4z"/>
			<path fill="#0F2849" d="M9.8,28.7c0.3,0.3,0.4,0.8,0.4,1.5v3.6H9.2v-3.7c0-0.7-0.3-1.1-0.9-1.1H6.7v4.8H5.7v-5.2v-0.4h2.9
				C9.1,28.2,9.5,28.3,9.8,28.7z"/>
			<path fill="#0F2849" d="M11.3,28.2h1.1l0.5,4.8c1.5-0.2,2.3-1,2.2-2.4v-0.3c0-0.4-0.1-0.7-0.3-0.9S14.4,29,14,29l-0.5,0l0.1-0.8
				l0.6,0c0.6,0,1.1,0.2,1.4,0.6s0.6,0.8,0.6,1.4l0,0.3c0,1.2-0.3,2-1.1,2.6c-0.8,0.6-1.8,0.9-3.2,0.9L11.3,28.2z"/>
			<path fill="#0F2849" d="M21.5,33v0.8h-1.8H17V33h2.8v-3c0-0.4-0.1-0.6-0.2-0.8c-0.2-0.2-0.4-0.2-0.7-0.2H17v-0.8h2.1
				c0.5,0,1,0.2,1.3,0.5c0.3,0.3,0.5,0.8,0.5,1.4V33H21.5z"/>
			<path fill="#0F2849" d="M26.4,28.2v0.9l-1.9,4.7h-1.1l1.9-4.8h-3v-2.4h1v1.5H26.4z"/>
			<path fill="#0F2849" d="M29.3,31.1l0.2-0.7h0.9v3.4h-1.1V31.1z M32.7,30c0-0.4-0.1-0.6-0.2-0.8c-0.2-0.2-0.4-0.2-0.7-0.2h-2.5
				v-0.8h2.7c0.5,0,0.9,0.2,1.3,0.5c0.3,0.3,0.4,0.8,0.4,1.4v3.8h-1.1V30z"/>
			<path fill="#0F2849" d="M36.8,33.8l-0.2-1.2c-0.2,0.3-0.4,0.6-0.7,0.8s-0.6,0.4-1,0.5l-0.4-0.8c0.5-0.2,0.8-0.4,1.2-0.6
				c0.3-0.2,0.6-0.5,0.7-0.9v-1.8c0-0.3,0-0.5-0.1-0.6c-0.1-0.1-0.2-0.2-0.4-0.2l-0.6-0.1l0.1-0.8l1,0.1c0.4,0.1,0.7,0.2,0.9,0.5
				c0.2,0.2,0.3,0.6,0.3,1.1v1.9l0.3,2.1H36.8z"/>
			<path fill="#0F2849" d="M42.7,33.8l-2.1-3.2l-1,3.2h-1l1.1-3.4l0.3-0.7L39,28.2h1.1l0.8,1.4l0.8,1.3l0.3-0.9l0.5-1.7h1l-1.2,3.5
				l1.4,2.1H42.7z"/>
			<path fill="#0F2849" d="M47,30.2c0-0.5,0.1-0.9,0.3-1.2h-2.7v-0.8h4.5V29h-0.8c-0.1,0.3-0.2,0.7-0.2,1.2v3.6H47V30.2z"/>
			<path fill="#0F2849" d="M55.9,33.8l-2.1-3.2l-1,3.2h-1l1.1-3.4l0.3-0.7l-0.9-1.5h1.1l0.8,1.4l0.8,1.3l0.3-0.9l0.5-1.7h1l-1.2,3.5
				l1.4,2.1H55.9z"/>
			<path fill="#0F2849" d="M61.9,28.2v0.9L60,33.8h-1.1l1.9-4.8h-3v-2.4h1v1.5H61.9z"/>
			<path fill="#0F2849" d="M66.7,28.2v0.9l-1.9,4.7h-1.1l1.9-4.8h-3v-2.4h1v1.5H66.7z"/>
			<path fill="#0F2849" d="M74.1,28.2c0,1.3-0.1,2.4-0.2,3s-0.4,1.2-0.8,1.7c-0.4,0.4-1,0.7-1.9,0.9l-1.9,0.4l-0.1-0.8L71,33
				l-1.2-4.8h1.1l1.1,4.5c0.4-0.2,0.6-0.4,0.8-0.7c0.2-0.3,0.3-0.7,0.3-1.2c0-0.5,0.1-1.2,0.1-2.2v-0.4H74.1z"/>
			<path fill="#0F2849" d="M75.3,29.4l-0.1-1.2h1.1l0.1,1.2v4.5h-1.1V29.4z"/>
			<path fill="#0F2849" d="M80.5,31.4l1.4,2.4h-1.1h-3.4V33h3l-2.8-4.8h1.1l1.3,2.2l0.9-2.2h1.1L80.5,31.4z"/>
			<path fill="#0F2849" d="M83,33h1.8c0.5,0,0.8-0.1,1.1-0.4c0.3-0.3,0.4-0.7,0.4-1.3v-0.7c0-0.5-0.1-0.9-0.3-1.2
				c-0.2-0.3-0.5-0.4-1-0.4h-0.9l-0.2,1c0,0.2,0,0.3,0,0.4c0,0.2,0.1,0.4,0.2,0.5c0.1,0.1,0.3,0.2,0.6,0.2l-0.2,0.7
				c-0.5,0-0.9-0.2-1.1-0.4c-0.2-0.2-0.4-0.5-0.4-1c0-0.2,0-0.4,0.1-0.5l0.4-1.7h1.9c0.7,0,1.2,0.2,1.6,0.7c0.4,0.4,0.6,1.1,0.6,1.9
				v0.6c0,0.8-0.2,1.5-0.6,1.9c-0.4,0.4-1,0.6-1.7,0.6h-2V33z"/>
			<path fill="#0F2849" d="M94.3,28.2v0.9l-1.9,4.7h-1.1l1.9-4.8h-3v-2.4h1v1.5H94.3z"/>
			<path fill="#0F2849" d="M99.8,28.2c0,1.3-0.1,2.4-0.2,3s-0.4,1.2-0.8,1.7c-0.4,0.4-1,0.7-1.9,0.9l-1.9,0.4l-0.1-0.8l1.7-0.3
				l-1.2-4.8h1.1l1.1,4.5c0.4-0.2,0.6-0.4,0.8-0.7c0.2-0.3,0.3-0.7,0.3-1.2c0-0.5,0.1-1.2,0.1-2.2v-0.4H99.8z"/>
			<path fill="#0F2849" d="M102.4,33.2c0.4,0,0.6-0.1,0.8-0.3c0.1-0.2,0.2-0.4,0.2-0.8v-3.9h2.7c0.5,0,1,0.2,1.3,0.5
				c0.3,0.3,0.5,0.8,0.5,1.4v3.8h-1.1V30c0-0.4-0.1-0.6-0.2-0.8c-0.2-0.2-0.4-0.2-0.7-0.2h-1.4v3c0,0.7-0.2,1.1-0.5,1.4
				s-0.8,0.5-1.5,0.5L102.4,33.2z"/>
			<path fill="#0F2849" d="M109.1,29.4l-0.1-1.2h1.1l0.1,1.2v4.5h-1.1V29.4z"/>
			<path fill="#0F2849" d="M113.9,30c0-0.4-0.1-0.6-0.2-0.8c-0.2-0.2-0.4-0.2-0.7-0.2h-1.9v-0.8h2.1c0.5,0,0.9,0.2,1.3,0.5
				c0.3,0.3,0.4,0.8,0.4,1.4v3.8h-1.1V30z"/>
			<path fill="#0F2849" d="M120.6,28.2c0,1.3-0.1,2.4-0.2,3s-0.4,1.2-0.8,1.7c-0.4,0.4-1,0.7-1.9,0.9l-1.9,0.4l-0.2-0.8l1.7-0.3
				l-1.2-4.8h1.1l1.1,4.5c0.4-0.2,0.6-0.4,0.8-0.7c0.2-0.3,0.3-0.7,0.3-1.2c0-0.5,0.1-1.2,0.1-2.2v-0.4H120.6z"/>
			<path fill="#0F2849" d="M121.3,33.2c0.4,0,0.6-0.1,0.8-0.3c0.1-0.2,0.2-0.4,0.2-0.8v-3.9h2.7c0.5,0,1,0.2,1.3,0.5
				s0.5,0.8,0.5,1.4v3.8h-1.1V30c0-0.4-0.1-0.6-0.2-0.8c-0.2-0.2-0.4-0.2-0.7-0.2h-1.4v3c0,0.7-0.2,1.1-0.5,1.4s-0.8,0.5-1.5,0.5
				L121.3,33.2z"/>
			<path fill="#0F2849" d="M131.6,33.1c-0.7,0.5-1.8,0.8-3.1,0.8l-0.6-4.9l-0.1-0.8h2.9c0.6,0,1.1,0.2,1.4,0.6
				c0.3,0.4,0.5,0.9,0.5,1.5l0,0.3C132.7,31.7,132.3,32.5,131.6,33.1z M131.1,32.3c0.4-0.4,0.5-0.9,0.5-1.8v-0.3
				c0-0.4-0.1-0.7-0.3-0.9c-0.2-0.2-0.4-0.3-0.8-0.3h-1.6l0.4,3.9C130.1,32.9,130.7,32.7,131.1,32.3z"/>
			<path fill="#0F2849" d="M133.7,31.1l0.2-0.7h0.9v3.4h-1.1V31.1z M137.1,30c0-0.4-0.1-0.6-0.2-0.8c-0.2-0.2-0.4-0.2-0.7-0.2h-2.5
				v-0.8h2.7c0.5,0,0.9,0.2,1.3,0.5c0.3,0.3,0.4,0.8,0.4,1.4v3.8h-1.1V30z"/>
		</g>
		<g>
			<g>
				<path fill="#0F2849" d="M106,8.5h2.4v1H106V8.5z"/>
				<path fill="#0F2849" d="M116,10.4v1.1h-2.1h-2.6v-1.1h2.6V7.6c0-0.5-0.2-0.7-0.7-0.7h-2V5.8h2.4c0.5,0,1,0.2,1.3,0.5
					s0.5,0.8,0.5,1.4v2.7H116z"/>
				<path fill="#0F2849" d="M116.9,7l-0.1-1.2h1.4l0.1,1.2v4.5h-1.4V7z"/>
				<path fill="#0F2849" d="M124.1,10.6c-0.8,0.7-2.1,1-3.8,1h-0.3l-0.8-5.8h1.4l0.3,2.5c0.3-0.1,0.4-0.3,0.5-0.6
					c0.1-0.3,0.1-0.7,0.1-1.2V5.8h1.4v0.6c0,0.7-0.2,1.3-0.4,1.8c-0.3,0.5-0.8,0.8-1.5,1l0.1,1.2c1-0.1,1.6-0.3,2-0.8
					c0.4-0.5,0.6-1.2,0.6-2l0-1.8h1.4l0,1.7C125.3,8.8,124.9,9.9,124.1,10.6z"/>
				<path fill="#0F2849" d="M130.7,6.3c0.3,0.3,0.5,0.8,0.5,1.5v3.8h-1.5V7.7c0-0.5-0.2-0.8-0.7-0.8h-1.3v4.6h-1.4V6.5V5.8h3.2
					C129.9,5.8,130.4,6,130.7,6.3z"/>
			</g>
			<g>
				<path fill="#0F2849" d="M106,8.5h2.4v1H106V8.5z"/>
				<path fill="#0F2849" d="M116,10.4v1.1h-2.1h-2.6v-1.1h2.6V7.6c0-0.5-0.2-0.7-0.7-0.7h-2V5.8h2.4c0.5,0,1,0.2,1.3,0.5
					s0.5,0.8,0.5,1.4v2.7H116z"/>
				<path fill="#0F2849" d="M116.9,7l-0.1-1.2h1.4l0.1,1.2v4.5h-1.4V7z"/>
				<path fill="#0F2849" d="M124.1,10.6c-0.8,0.7-2.1,1-3.8,1h-0.3l-0.8-5.8h1.4l0.3,2.5c0.3-0.1,0.4-0.3,0.5-0.6
					c0.1-0.3,0.1-0.7,0.1-1.2V5.8h1.4v0.6c0,0.7-0.2,1.3-0.4,1.8c-0.3,0.5-0.8,0.8-1.5,1l0.1,1.2c1-0.1,1.6-0.3,2-0.8
					c0.4-0.5,0.6-1.2,0.6-2l0-1.8h1.4l0,1.7C125.3,8.8,124.9,9.9,124.1,10.6z"/>
				<path fill="#0F2849" d="M130.7,6.3c0.3,0.3,0.5,0.8,0.5,1.5v3.8h-1.5V7.7c0-0.5-0.2-0.8-0.7-0.8h-1.3v4.6h-1.4V6.5V5.8h3.2
					C129.9,5.8,130.4,6,130.7,6.3z"/>
			</g>
			<g>
				<path fill="#0F2849" d="M106,8.5h2.4v1H106V8.5z"/>
				<path fill="#0F2849" d="M116,10.4v1.1h-2.1h-2.6v-1.1h2.6V7.6c0-0.5-0.2-0.7-0.7-0.7h-2V5.8h2.4c0.5,0,1,0.2,1.3,0.5
					s0.5,0.8,0.5,1.4v2.7H116z"/>
				<path fill="#0F2849" d="M116.9,7l-0.1-1.2h1.4l0.1,1.2v4.5h-1.4V7z"/>
				<path fill="#0F2849" d="M124.1,10.6c-0.8,0.7-2.1,1-3.8,1h-0.3l-0.8-5.8h1.4l0.3,2.5c0.3-0.1,0.4-0.3,0.5-0.6
					c0.1-0.3,0.1-0.7,0.1-1.2V5.8h1.4v0.6c0,0.7-0.2,1.3-0.4,1.8c-0.3,0.5-0.8,0.8-1.5,1l0.1,1.2c1-0.1,1.6-0.3,2-0.8
					c0.4-0.5,0.6-1.2,0.6-2l0-1.8h1.4l0,1.7C125.3,8.8,124.9,9.9,124.1,10.6z"/>
				<path fill="#0F2849" d="M130.7,6.3c0.3,0.3,0.5,0.8,0.5,1.5v3.8h-1.5V7.7c0-0.5-0.2-0.8-0.7-0.8h-1.3v4.6h-1.4V6.5V5.8h3.2
					C129.9,5.8,130.4,6,130.7,6.3z"/>
			</g>
			<g>
				<path fill="#0F2849" d="M106,8.5h2.4v1H106V8.5z"/>
				<path fill="#0F2849" d="M116,10.4v1.1h-2.1h-2.6v-1.1h2.6V7.6c0-0.5-0.2-0.7-0.7-0.7h-2V5.8h2.4c0.5,0,1,0.2,1.3,0.5
					s0.5,0.8,0.5,1.4v2.7H116z"/>
				<path fill="#0F2849" d="M116.9,7l-0.1-1.2h1.4l0.1,1.2v4.5h-1.4V7z"/>
				<path fill="#0F2849" d="M124.1,10.6c-0.8,0.7-2.1,1-3.8,1h-0.3l-0.8-5.8h1.4l0.3,2.5c0.3-0.1,0.4-0.3,0.5-0.6
					c0.1-0.3,0.1-0.7,0.1-1.2V5.8h1.4v0.6c0,0.7-0.2,1.3-0.4,1.8c-0.3,0.5-0.8,0.8-1.5,1l0.1,1.2c1-0.1,1.6-0.3,2-0.8
					c0.4-0.5,0.6-1.2,0.6-2l0-1.8h1.4l0,1.7C125.3,8.8,124.9,9.9,124.1,10.6z"/>
				<path fill="#0F2849" d="M130.7,6.3c0.3,0.3,0.5,0.8,0.5,1.5v3.8h-1.5V7.7c0-0.5-0.2-0.8-0.7-0.8h-1.3v4.6h-1.4V6.5V5.8h3.2
					C129.9,5.8,130.4,6,130.7,6.3z"/>
			</g>
			<g>
				<g>
					<rect x="100.9" y="-0.4" opacity="0.8" fill="#EEB95B" width="38" height="17.5"/>
				</g>
			</g>
		</g>
		<g>
			
				<ellipse transform="matrix(-0.8497 0.5273 -0.5273 -0.8497 189.0008 -21.931)" opacity="0.33" fill="#A7A9AC" cx="97.6" cy="16" rx="8.5" ry="3.6"/>
			<g>
				<polygon fill="#A7A9AC" points="99.2,1.5 104.3,11.5 96.9,3.1 				"/>
			</g>
			<g>
				
					<ellipse transform="matrix(-0.85 0.5267 -0.5267 -0.85 178.166 -52.0792)" fill="#AF2027" cx="96.5" cy="-0.7" rx="7.6" ry="6.1"/>
				<path fill="#EC2429" d="M94.1,0.9c2.1,0.1,4.2-1.3,4.9-3l-5.7-9.3l-4.9,3L94.1,0.9z"/>
			</g>
		</g>
	</g>
	<use xlink:href="#SVGID_28_"  overflow="visible" fill="none" stroke="#BCBEC0" stroke-miterlimit="10"/>
</g>
<g>
	<ellipse opacity="0.33" fill="#A7A9AC" cx="99.4" cy="23.1" rx="80.2" ry="14"/>
	<g>
		<path fill="#AF2027" d="M0.5,22c0.4,1,1.1,1.9,2,2.6c1.5,1,3.3,1.4,4.9,2.4c1.5,1,2.6,2.5,4.1,3.7c2.8,2.3,6.5,1.2,9.7,0.5
			c0.7-0.2,1.5-0.3,2.2,0c0.7,0.3,1.2,0.9,1.7,1.5c3.1,3.5,7.9,4.5,12.3,4c5-0.6,9.6-2.6,14.2-4.6c4.1-1.8,6.8,0.6,10.2,2.8
			c3.1,2,6.4,3.8,10,4.3c6.2,0.9,5.5-4.5,10.5-5.7c3.1-0.7,7.4,0.6,10.5,1c3.5,0.5,7.1,1.1,10.6,1.5c5.3,0.5,14.2,1.4,18-3.5
			c0.6-0.8,0.9-1.7,1.6-2.4c1.7-1.7,7.8-1.2,10.3-1.7c1.9-0.4,3.9-1,4.7-2.8c0.5-1.2,0.2-2.7-0.7-3.6c-1.7-1.6-3.8-0.2-5.8-0.2
			c-2.3,0-4.8-1.1-6.4-2.8c-1.9-2.1-2.6-5.2-4.6-7.1c-3.7-3.4-9.1-1.2-13.8-0.4c-10.9,1.7-21.3-6-32.3-7.1
			c-7.4-0.7-14.7,1.6-21.7,3.4c-4,1-7.2,1.9-11.2,1.6C37.5,9,33.7,9.3,30,9.9c-2.5,0.5-4.5-0.3-7,0.1c-3,0.4-5.8,0.5-8,3
			c-1.3,1.6-2.5,3.8-4.5,3.8c-1.4,0-2.5-1.2-3.8-1.7c-2.3-1-5.3,0.4-6.3,2.8C-0.2,19.2-0.1,20.7,0.5,22z"/>
	</g>
	<g>
		<g>
			<path fill="#8B5E3C" d="M80.2,7.1c-1.7,0.1-3.3-0.8-5-0.8c-1.3,0-2.6-0.3-1-1.5c0,0-1.2-0.6-1.4-0.6c-0.6-0.1-1.2-0.1-1.7-0.5
				c-0.5-0.5-0.7-1.2-0.5-1.9C71,0.8,71.8,0,72.9,0c3.9-0.1,7.3,2.5,10.5,5C82.7,6.3,81.4,7,80.2,7.1z"/>
			<path fill="#566345" d="M99,11.7c2.2-0.2,4.3-0.4,6.5-0.7c4.1-0.4,8.3-0.8,12.1-2.4c-0.4-1.5-0.7-4.9-1.7-6
				c-1.3-1.5-1.9-0.8-3.9-0.2c-3.9,1-7.9,1.4-11.7,2.9c-0.7,0.3-1.5,0.6-2.3,0.7C97,6,96.1,5.7,95.2,5.3C90.1,3.5,84.7,2,79.4,0.5
				c1.3,0.4-0.8,5.3,1.3,6.4c4.1,2.2,8.3,4.7,13.1,5.1c1.3,0.1,2.7,0,4-0.2C98.2,11.8,98.6,11.7,99,11.7z"/>
		</g>
		<g>
			<path fill="#1A242D" d="M18.3,6.1c0.7,0,1.3,0,2,0c0.1,0,0.2,0,0.3,0c0.1,0.1,0.1,0.2,0.2,0.4c0.1,1,0.2,1.9,0.3,2.9
				c0,0.4,0.1,0.9,0.1,1.3c0,0.1,0,0.2,0,0.3c-0.3,0.5-1.9,0.8-2.5,1.2c-0.6,0.4-0.7,0.8-1.5,1c-1.9,0.3-4.7-1.3-6.2-2.4
				c-1.1-0.8-2-1.8-2.5-3S8.4,5.3,9.4,4.7c1.1-0.6,2.7-0.1,4,0.5C14.9,5.8,16.7,6.1,18.3,6.1z"/>
			<path fill="#4C563C" d="M87,19c-0.9-0.1-1.6-5-1.8-5.8c-0.7-3.1-1.7-5.1,0.1-8c0.7-1-3-0.6-3.5-0.6c-2,0-4.1-0.5-6.1-0.8
				c-4.3-0.6-8.7-1.2-13-1.7c-2.4-0.3-4.9-0.6-7.3-0.7c-6-0.2-13.1,0.4-18.9,2C35,3.9,19.1,5.3,19.3,6.3c0.2,1.8,0.4,3.6,0.6,5.4
				c8.8,0.3,17.6-0.1,26.3-1c2-0.2,3.6-0.7,5.6-1.2c0.2,0,0.3-0.1,0.5,0c0.2,0,0.3,0.1,0.5,0.2c4.7,3.2,10.2,4.6,15.7,5.8
				C74.6,16.9,80.8,18.1,87,19z"/>
			<path fill="#1A242D" d="M21,21.7c0.6-0.2,1.3-0.4,1.9-0.6c0.1,0,0.2-0.1,0.3,0c0.1,0,0.2,0.2,0.3,0.3c0.4,0.9,0.7,1.8,1.1,2.7
				c0.2,0.4,0.3,0.8,0.5,1.2c0,0.1,0.1,0.2,0,0.3c-0.1,0.5-1.6,1.4-2,1.9c-0.5,0.6-0.4,1-1.2,1.4c-1.8,0.9-4.9,0.1-6.6-0.5
				c-1.2-0.5-2.5-1.2-3.2-2.2c-0.7-1-0.8-2.4,0-3.2c0.9-0.9,2.5-0.8,4-0.7C17.7,22.3,19.4,22.1,21,21.7z"/>
			<path fill="#63774E" d="M89.6,23.2c-1.1,0.2-4-8.2-4.3-9.2c-0.9-3-0.5-5.9-0.2-8.9c-0.9,0.1-1.7,0.9-2.4,1.3
				c-1.1,0.7-2.3,1.2-3.4,2c-0.5,0.4-1.1,0.9-1.7,1.3c-1.3,0.7-3.6-0.1-5.1,0c-3.2,0.2-6.4,0.1-9.6,0.3
				c-13.8,0.5-27.4,4.1-39.6,10.4c0.6,2.2,0.8,4.5,0.7,6.7c7.1-1.3,14.1-2.6,21.2-4c2.5-0.5,5-0.9,7.5-0.9c3.5,0,6.8,0.9,10.3,1.5
				C71.7,25.3,80.8,25.2,89.6,23.2z"/>
		</g>
		<path fill="#8B5E3C" d="M81.7,25.3c-1.7-0.6-3.4-1.1-5.1-1.6c-1.3-0.4-2.7-0.5-1.4,1.1c0,0-1.4,0.2-1.6,0.2c-0.6,0-1.2-0.3-1.8,0
			c-0.6,0.3-1,0.9-1,1.6c0,1,0.6,2,1.6,2.3c3.8,1.3,8-0.2,11.8-1.6C84,25.9,82.8,25.7,81.7,25.3z"/>
		<path fill="#8B5E3C" d="M139.3,17.7c0.7-1.9,0.5-4-0.2-5.9c-0.9-2.3-3.2-3.6-5.4-4.5c-1.9-0.8-5.1-2.1-7.2-1.5
			c-1.3,0.4-2.7,2.9-2.8,4.2c0,0.4-0.2,0.9-0.5,1.1c-0.2,0.1-0.3,0.1-0.5,0.1c-1,0.1-1.7-0.1-2.4-0.9c-0.7-0.9-1.7-1.7-2.7-2.2
			c-0.6-0.3-1.3-0.5-1.8-0.2c-0.5,0.3-0.7,1-0.8,1.6c-0.2,1.5-0.1,3,0.3,4.4c0.1,0.5,0.3,0.9,0.5,1.3c1,1.4,2.8,1.6,4.4,1.7
			c4.1,0.4,7.5,3.5,11.6,4.3c0.7,0.1,1.4,0.2,2.1,0.3c0.6,0.1,1.3,0.2,1.9,0.1c0.6-0.2,1.1-0.6,1.6-1
			C138.2,19.9,138.9,18.8,139.3,17.7z"/>
		<path fill="#3C2415" d="M139.9,10.8c0.6,0.9,1.1,2.1,1.3,3.2c0,0.3,0.1,3.7-0.5,3.3c-0.1,0-0.1-0.1-0.1-0.2
			c-0.1-0.2-0.3-0.4-0.5-0.4c0.5,0.6,0.4,1.5,0.3,2.2c-1.9-0.5-2.5,2.1-3.8,2.9c-1.1,0.7-2.4,1.1-3.7,1.1c-3.1-0.1-5.6-2.2-8-3.9
			c-0.3-0.2-0.8-0.5-1-0.9c-0.3-0.5-0.3-1.1,0.2-1.4c0.7-0.5-0.5-0.2,0.2-0.7c0.1-0.1,0.3-0.1,0.4-0.2c0.8-0.2,1.6-0.4,2.4-0.8
			c0.6-0.3,0.8-0.2,1.2,0.4c0.3,0.6,0.9,1,1.5,1.2c0.2,0,0.4,0.1,0.5,0c0.4-0.2,0.4-0.7,0.3-1c-0.3-1.1-0.5-1.2,0.8-1.2
			c0.8,0,2.3-1.9,3-2.4c0.9-0.7,0.9-2.1,1.8-2.9C137.3,8.1,139.2,9.8,139.9,10.8z"/>
		<path fill="#3C2415" d="M127.5,20.5c2.3,3.7,8.1,5.1,12.1,3.7c2.1-0.7,3.7-2.4,6.1-2.2c1.7,0.1,2.9,1.7,4.1,2.8
			c1.4,1.4,3.2,2.4,5.2,2.7c2,0.3,4.1-0.2,5.5-1.5c2.6-2.4,4-5.2,8-5.1c2.2,0,4.4,0.5,6.4-0.1c3.1-0.9,5-3.8,6.5-6.6
			c-0.7,1.4-3.3,1.3-4.4,0.8c-1.9-0.8-2-2.6-3.2-4.1c-2-2.6-4.5-0.9-7.1-1.7c-3.4-1.1-5.3-3.6-9.4-3.2c-0.6,0.1-1.1,0.2-1.6,0.4
			c-1.4,0.6-3.1,2-4.8,2c-1.7,0-3.1-1.5-4.7-2.1c-3-1-6.5,0.4-8.3,2.9c-1,1.5-1.2,3.1-2.1,4.6c-0.6,1-1.4,3.4-2.5,3.8
			c-1.8,0.7-3.6,1.4-5.3,2.1c-0.2,0.1-0.5,0.2-0.5,0.5C127.4,20.3,127.4,20.4,127.5,20.5z"/>
		<path fill="#FFFFFF" d="M119.1,8.8c0,0.3-0.5,0.4-0.7,0.6c-0.3,0.3-0.5,0.7-0.6,1c-0.3,0.7-0.3,1.5-0.1,2.3c0.1,0.3,1.8,3.2,2,3.1
			c-1,0.6-2.5,0.2-3.6,0.3c-1.3,0.1-2.5,0.1-3.8,0.2c-2.5,0.1-5,0.2-7.5,0.2c-2.5,0-5,0.1-7.5,0.1c-0.7,0-7.4,0.3-7.5,0
			c-0.7-3.3-0.9-6.7-0.5-10.1c2.2-0.1,4.4-0.2,6.6-0.2c5.8-0.1,11.6,0.1,17.4,0.6c1.3,0.1,2.7,0.3,4,0.6c0.5,0.1,1.4,0.4,1.7,0.8
			C119.1,8.6,119.2,8.7,119.1,8.8z"/>
		<path fill="#63774E" d="M84.8,16.3c0.2,2.3,0.5,5,1.4,7.2c0,0,6.9-1.8,7.4-1.9c1.6-0.3,3.3-0.6,4.9-0.4c1.3,0.2,2.6,0.7,3.9,1.1
			c4.1,1.6,8.8,2.9,13.3,2.8c1.4,0,3.4-0.2,4.1-1.6c0.2-0.5,0.3-1,0.4-1.6c0.1-0.4,0.2-0.7,0.3-1.1c0.2-0.6,0.5-1.2,0.7-1.9
			c0.3-1,0.4-2.1-0.1-3.1c-0.4-0.6-0.9-1.3-1.6-1.6c-1.9-0.9-3.8-1.7-5.7-2.6c-0.5-0.2-1-0.5-1.6-0.8c-0.4-0.2-0.8-0.2-1.1-0.4
			c1.6-0.5,3.4-0.6,5-0.9c0.6-0.1,1.3-0.2,1.9-0.3c0.6-0.1,2.3,0.4,2.4,1.1c-0.4-2.2-0.3-4.3-1.8-6.2c-1.2-1.5-2.4-1.3-4-1
			c-1.2,0.2-2.5,0.5-3.7,0.2c-1.5-0.4-2.8-1.1-4.4-1.4c-1.3-0.2-2.8-0.1-4,0.6c-1.1,0.7-1.6,1.8-3,2c-2.8,0.5-5.4,0.6-8.2,0.3
			c-1.7-0.2-3.2,0.1-4.9,0.4c-1.4,0.3-2.1,3.7-2.2,5C84,12.4,84.6,14.3,84.8,16.3z"/>
		<path fill="#6F825A" d="M108.8,10.6c0.1,0,0.2,0,0.3,0c1.6,0.1,2.7-0.1,4.3-0.4c0.3-0.1,0.5-0.1,0.7-0.3c-2.5,0.1-5-0.4-7.5-0.5
			C99.4,9.1,92.2,10.1,85,9.5c-0.1,0-0.1,0-0.2,0c-0.1,0-0.1,0.1-0.1,0.2c0,0.3,0,0.6,0.1,0.9c0,0.1,0.1,0.2,0.1,0.2
			c0.1,0,0.1,0,0.2,0c1.5,0.1,3-0.2,4.5-0.3c2.3-0.1,4.6-0.2,7-0.2c2.3,0,4.7,0,7,0c2.8-0.1,5.4,0.2,8.1,0.9
			c0.5,0.1,0.9,0.2,1.4,0.2c-0.5-0.6-1.2-1-2-1.2c0.9,0,1.8-0.2,2.7-0.4"/>
		<path fill="#938C6C" d="M89.8,22.7c-0.6,0.2-1.5,0.5-2.1,0.4c-0.6-0.1-0.7-0.7-0.9-1.2c-0.8-1.6-1.1-3.5-1.4-5.3
			c-0.4-2.3-0.6-4.6-0.6-6.9c0-0.8,0-1.6,0.1-2.4C84.9,6.7,85.3,5,86,4.8c0.2-0.1,0.4,0,0.6,0C87.4,5,88.2,5.1,89,5.2
			c0,0.5-0.3,1.1-0.4,1.6c-0.1,0.7-0.4,1.3-0.5,2c-0.1,0.9-0.1,1.8-0.1,2.7c0.1,2.9,0.9,5.6,1.7,8.3c0.2,0.6,0.4,1.2,0.6,1.8
			c0.1,0.2,0.3,0.6,0.2,0.8c-0.1,0.2-0.6,0.2-0.7,0.2C89.9,22.6,89.8,22.6,89.8,22.7z"/>
		<path fill="#4C563C" d="M100.8,4.1C100.3,5.5,100,7,100,8.5c-0.6-1.2-0.6-2.7-0.1-4c0.2-0.1,0.5-0.1,0.7-0.2c0,0,0.1,0,0.1-0.1
			c0,0-0.1,0-0.1,0"/>
		<path fill="#6F825A" d="M118.3,21.6c3.8,2.3-2.4,5.6-4.3,6.2c-2.2,0.6-4.3,1.7-6.5,2.3c-2.4,0.6-4.9,1.5-7.4,1.8
			c-2.8,0.3-5.6-0.1-8.3-0.6c-1.2-0.2-2.5-0.4-3.7-0.6c-1.5-0.2-3-0.4-4.4-0.7c-1.1-0.2-3.6-0.2-4.1-1.3c0.1-1.1,0.3-2.2,0.4-3.3
			c0-0.3,0.1-0.5,0.2-0.8c0.3-0.4,0.9-0.4,1.4-0.4c4.4,0.1,8.9,0.3,13.3,0.7c1,0.1,2,0.2,3,0c0.6-0.1,1.2-0.3,1.7-0.5
			c2-0.7,4.3-1.2,6.2-2.1c2.2-1.1,4.5-1.4,6.9-1.9c1.2-0.2,2.5-0.4,3.7-0.1s2.3,1.3,2.4,2.5"/>
	</g>
	<g>
		<g>
			<path fill="#AF2027" d="M61.1,14c-0.3,0.3-0.5,0.5-0.9,0.7c-0.5,0.3-0.9,0.8-0.5,1.2c0.5,0.5,1.6,0.6,2,1.2
				c0.6,0.7-0.8,1.2-0.7,2c0.1,0.8,1.6,1.3,1.9,2.1c0.5,1-1.4,1.7-0.8,2.7c0.4,0.6,1.6,1,2.4,0.8c0.8-0.2,1.1-0.8,1.1-1.4
				s-0.2-1.3-0.2-1.9c0-0.5,0-0.9,0.4-1.2c0.6-0.4,1.7-0.3,2.5-0.5c1.4-0.2,2.3-1.1,2.2-2.1c0-0.2,0-0.3-0.2-0.5
				c-0.1-0.2-0.4-0.3-0.6-0.5c-0.5-0.4-0.6-0.9-0.6-1.4c0-0.5,0-0.9-0.3-1.4c-0.5-0.8-2.8-2.2-3.9-2.2C63.1,11.4,62.2,13,61.1,14z"
				/>
		</g>
	</g>
</g>
</svg>
