<?xml version="1.0" encoding="utf-8"?>
<!-- Generator: Adobe Illustrator 19.1.0, SVG Export Plug-In . SVG Version: 6.00 Build 0)  -->
<svg version="1.1" id="Layer_1" xmlns="http://www.w3.org/2000/svg" xmlns:xlink="http://www.w3.org/1999/xlink" x="0px" y="0px"
	 viewBox="0 0 56 64.7" enable-background="new 0 0 56 64.7" xml:space="preserve">
<g>
	<path fill="#F6D2BA" d="M23.4,21.1c-8.2,7.8-16,16-23.4,24.6c4.3,3.6,7.9,7.9,10.8,12.7c6.5-9.8,13.8-18.9,22-27.3
		c0.4-0.4,0.7-0.8,0.8-1.3c0.1-0.7-0.5-1.2-1-1.7c-2.8-2.6-6.1-4.6-9.7-6"/>
	<path fill="#05BCE7" d="M25.7,11.8c0,0.1,0,0.2,0,0.3c0-0.3,0.9-1.1,1.1-1.4c0.5-0.7,0.9-1.4,1.3-2.2c1-1.7,1.9-3.4,3-5
		c0.5-0.6,1.1-1.1,1.5-1.8c0.5-0.6,0.6-1.5,1.5-1.7c0.9-0.2,1.7,0.6,1.8,1.5c0.1,0.9-0.3,1.8-0.8,2.5c-1.1,1.7-2.7,3.4-3.3,5.4
		c-0.5,1.4-0.8,2.9-1.2,4.4c1.2-1.3,2.4-2.7,3.6-4.1c2.4-2.6,5.1-5.1,6.9-8.2c0.3-0.4,0.5-0.9,0.9-1.1c0.9-0.6,2.2,0,2.4,1
		c0.1,0.4,0,0.9-0.2,1.3c-0.7,2.3-2.2,4.3-3.9,6.1c-2,2.2-4.1,4.6-5.6,7.2c2.2-0.9,3.6-2.7,5.3-4.3c1.2-1.2,2.5-2.2,3.9-3.1
		c1.2-0.8,2-1.9,3.7-1.7c0.2,0,0.3,0,0.4,0.1c0.2,0.1,0.2,0.4,0.3,0.6c0.3,2.7-2.3,4-4.1,5.4c-1.9,1.5-3.2,3.6-4.9,5.3
		c-1.6,1.7-2.3,3.6-3.2,5.8c2.4-1.5,6.9-4.1,9.8-3c0.3,0.1,0.6,0.3,0.8,0.6c0.2,0.4,0,1-0.3,1.4s-0.9,0.5-1.3,0.7
		c-4.2,1.8-7.3,5.5-11.1,8c-2,1.3-3.8,2.5-4.5,4.8c-0.2,0.6-0.4,6.1,0.8,5.9c-3,0.6-6.4-0.8-8.1-3.3c-1.3-1.9-1.8-4.3-3.2-6.1
		c-1.3-1.8-3.5-2.9-5.7-2.9c3.2-5.1,6.8-9.9,8.2-15.9c0.8-3.1,1.5-6.3,2.4-9.4c0.2-0.8,0.4-2.3,1.3-2.7c0.6-0.3,1.1,0.2,1.3,0.7
		c0.4,1.1,0,2.6-0.2,3.6C26,8.4,25.8,10,25.7,11.8z"/>
	<g>
		<path fill="#F6D2BA" d="M30.8,42.4c-0.4,0.1-0.8,0.4-1,0.8c-1,1.8,0.1,4.5,0.9,6.2c0.4,0.8,0.8,1.6,1.1,2.4c0.3,1,0.1,2.1,0.4,3.2
			c0.3,1.1,0.8,2,1.4,3c1.4,2.3,3.1,4.5,4.7,6.7c4.1-2.2,9.1-1.8,13.8-1.3c-0.8-2.8-1.9-6.4-0.9-9.3c0.2-0.5,0.3-1,0.4-1.5
			c0.2-0.3,0.4-0.6,0.4-0.9c0.3-2.8,1.4-5.3,2.3-7.9c0.9-2.6,1.2-5.1,1.7-7.8c0.1-0.5,0-1.1-0.4-1.2c-0.3-0.1-0.6,0.2-0.8,0.5
			c-0.8,1.1-1.3,2.4-1.4,3.8c-0.1,0.2-0.1,0.4-0.2,0.5c0.1-1.5,0.1-3-0.3-4.3c-0.1-0.2-0.1-0.4-0.2-0.6c-0.2-0.4-0.5-0.7-0.7-1
			c-0.9-1-1.9-1.9-2.9-2.8c-0.8-0.8-1.6-1.7-2.5-2.4c-0.6-0.4-1.3-0.7-2-0.6c-0.6,0.1-0.9,0.5-0.7,1.2c0.1,0.2,0.3,0.4,0.4,0.6
			c1.4,1.6,2.5,3.4,3.7,5.1c0.5,0.7,1.1,1.3,1.3,2.2c0.1,0.6,0.1,1.3,0.1,1.9c0,0.4-0.3,1-0.1,1.4c-0.6-1.7-0.7-3.6-1.9-5
			c-2.1-2.4-5-4.1-8.2-4.8c-0.5-0.1-1.1-0.2-1.6,0c-1,0.3-1.2,1.3-0.5,2.1c0.3,0.3,0.7,0.5,1.1,0.7c0.5,0.3,1,0.3,1.5,0.4
			c0.5,0.1,0.9,0.5,1.3,0.7c0.9,0.5,1.7,1.1,2.3,1.8c0.7,0.9,1.2,1.9,1.4,3.3c0.2,1.2-0.1,2.6-0.2,3.8c0.1-0.2-2.8-2.3-3.1-2.5
			c-0.6-0.5-1-0.9-1.6-1.3c-0.7-0.5-1.5-0.7-2.3-0.8c-0.5-0.1-1.1,0.1-1.7,0.2c-0.8,0.1-1.6,0.2-2.3,0.4c-0.8,0.1-1.6,0.6-2.3,0.9
			c-0.7,0.3-1.4,0.8-1.6,1.5C29.9,42.1,30.3,42.3,30.8,42.4z M31.7,42.4c0.5,0.1,0.9,0,1.4-0.1c0.6-0.1,1.2-0.1,1.7-0.2
			c0.5-0.1,1.1-0.2,1.6,0c0.5,0.3,1,0.7,1.5,1.1c0.2,0.2,0.5,0.4,0.7,0.6c0.2,0.2,0.3,0.4,0.4,0.6c0.5,0.8,1.5,2.5,1.2,3.5
			c-0.1,0.4-0.4,0.7-0.8,0.9c-0.8,0.6-1.6,1.1-2.4,1.6c-0.3,0.2-0.5,0.3-0.7,0.3c-0.1,0-0.2-0.2-0.4-0.4c-0.3-0.4-0.5-0.8-0.8-1.3
			c-0.6-1.1-1.2-2.3-1.7-3.5C33.1,44.5,32.9,43,31.7,42.4z"/>
		<path fill="#D7B7A5" d="M48.6,38.4c0.4,2.2,0.8,4.4,2.1,6.2c-0.7-1.7-1.3-3.5-1.8-5.3c-0.1-0.4-0.2-0.7-0.3-1.1"/>
		<path fill="#D7B7A5" d="M53.6,38.8c0.1-0.5,0.2-1.1,0.4-1.6c0,0.1-0.1,0.2-0.2,0.3c-0.8,1.3-1,3-1.2,4.5c-0.1,0.6-0.2,1.1-0.2,1.7
			c0,0.6,0.2,1.1,0.3,1.6c0-0.6,0-1.2,0.1-1.8c0.3-1.8,0.7-3.7,1-5.5c0.1-0.4,0.3-0.9,0.4-1.3C53.9,37.3,53.7,38,53.6,38.8"/>
		<path fill="#D7B7A5" d="M44.8,41.3c0.1,0.1,0.1,0.3,0.2,0.5c0.3,1.2,0.7,2.3,1.3,3.3c-0.4-0.2-0.6-0.6-0.9-0.9
			c-0.3-0.2-0.7-0.4-0.8-0.8c0-0.1,0-0.3,0-0.4c0.1-0.5,0.2-1,0.2-1.5"/>
		<path fill="#D7B7A5" d="M38.3,50.3c-0.6,0.6-1.4,1.4-2.1,0.4c-0.1-0.2-0.2-0.4-0.3-0.5c0.4,0.3,0.5,0.4,1,0.1
			c0.5-0.3,0.9-0.5,1.3-0.8c1-0.8,2.2-1.7,1.9-3.1c0.2,0.5,0.3,1,0.2,1.5C40,48.7,39,49.6,38.3,50.3z"/>
	</g>
</g>
</svg>
