<?xml version="1.0" encoding="utf-8"?>
<!-- Generator: Adobe Illustrator 19.1.0, SVG Export Plug-In . SVG Version: 6.00 Build 0)  -->
<svg version="1.1" id="Layer_1" xmlns="http://www.w3.org/2000/svg" xmlns:xlink="http://www.w3.org/1999/xlink" x="0px" y="0px"
	 viewBox="0 0 73.8 85.7" enable-background="new 0 0 73.8 85.7" xml:space="preserve">
<g>
	<ellipse opacity="0.33" fill="#A7A9AC" cx="50.4" cy="80.3" rx="23.3" ry="5.4"/>
	<path fill="#A97C50" d="M46.4,8.2c-0.2-0.4-0.3-0.9-0.6-1.3c-0.8-1.3-2.1-2.6-1.5-4.3c0.5-1.4,2.9-2,4.2-1.5c1.3,0.5,2.4,1.7,2.8,3
		c0.2,0.7,0.3,1.4,0.2,2.1c-0.1,0.8-0.3,1.6,0.3,2.2C52.2,9,53,9.1,53.5,9.6c0.7,0.7,0.5,1.9,1.2,2.6c0.4,0.4,1.1,0.6,1.5,1.1
		c0.4,0.6,0.5,1.5,0.6,2.1c-0.1-0.3-1.4-0.6-1.6-0.6c-0.4,0-0.9,0.2-1.3,0.3c-1.1,0.2-2.4,0.4-3.3-0.3c-0.7-0.6-0.9-1.6-1.6-2.2
		c-0.5-0.4-1.3-0.5-1.7-1c-0.6-0.7-0.4-1.6-0.6-2.4C46.6,8.8,46.5,8.5,46.4,8.2z"/>
	<path fill="#566345" d="M29.9,27.4c-0.3,0.1-0.6,0-1.3-0.4c-1.1-0.6-2.1-1.3-3.1-2c-0.5-0.4-1-0.7-1.5-1.1
		c-0.4-0.3-0.9-0.9-1.4-0.8c-0.5,0.1-0.8,1-1.2,1.3c-0.5,0.3-0.3,0.6-0.8,0.3c2.1,1.9,3.4,2.8,5,4.2c0.4,0.4,1.5,1.1,2,1.4
		c0.8,0.5,0.7,0.1,1.6,0.5c1.6,0.6,2.8,0.2,3.6-1.1c0.9-1.4,2-2.7,2.8-4.1c1-1.7,1.6-3.2,1.6-5.2c0-1.2,0.4-2.3,0.5-3.6
		c0-0.2,0-0.5-0.2-0.5c-0.1,0-0.2,0-0.3,0.1c-0.8,0.5-1.2,1.1-1.7,1.9c-1,1.6-2,3.3-2.9,4.9c-0.6,1-1.1,2.1-1.7,3.1
		C30.4,26.8,30.2,27.3,29.9,27.4z"/>
	<path fill="#1A242D" d="M32.1,76.5c0.6-0.1,1.1-0.1,1.7,0.1c0.7,0.4,0.9,1.1,1,1.8c0,0.3,0.1,0.6-0.1,0.8c-0.1,0.2-0.3,0.4-0.5,0.6
		c-1,0.7-2.2,1.2-3.5,1.4c-0.8,0.1-1.7,0.1-2.5-0.3c-0.7-0.4-1.2-1.1-1-1.9c0.3-0.8,1.2-1.2,2-1.6c0.4-0.2,0.9-0.3,1.2-0.6
		c0.1-0.1,0.1-0.1,0.2-0.2c0.2-0.1,0.4,0,0.6,0C31.5,76.5,31.8,76.5,32.1,76.5z"/>
	<path fill="#1A242D" d="M61.4,75.2c0.5-0.4,0.9-0.7,1.5-0.8c0.8-0.1,1.3,0.4,1.8,1c0.2,0.2,0.3,0.4,0.4,0.7c0,0.3-0.1,0.5-0.2,0.8
		c-0.5,1.2-1.3,2.3-2.3,3.1c-0.7,0.5-1.5,1-2.3,1.1c-0.8,0.1-1.7-0.3-1.8-1.1c-0.2-0.8,0.4-1.7,0.9-2.4c0.3-0.4,0.6-0.7,0.7-1.2
		c0-0.1,0-0.2,0.1-0.3c0.1-0.2,0.4-0.3,0.5-0.4C60.9,75.5,61.2,75.3,61.4,75.2z"/>
	<path fill="#566345" d="M43.9,38.8c0,10.9-3.8,14.3-5.3,19.2c-1.2,4,0.8,7.2-0.3,11.4c-0.4,1.5-1.5,4.3-2.3,5.6
		c-0.3,0.5-0.8,1.4-1.2,1.7c-0.9,0.7-3.8,0.1-4.8-0.2c0.4-1.2,0.8-2.4,1.1-3.7c0.8-3.1,1-6.3,0.8-9.5c-0.1-1.8-0.2-3.3,0.1-5.1
		c0.5-3.2,1.1-6.3,1.7-9.5c0.7-3.4,1-6.7,1.5-10.1c0-0.3,0.1-0.6,0.3-0.8c0.8-0.9,2.8,0.2,3.6,0.5C40.6,38.8,42.3,38.8,43.9,38.8z"
		/>
	<path fill="#63774E" d="M44.9,36c2.7-2.9,5.3,3.7,5.7,5.5c0.4,2.1-0.2,4.1-0.1,6.2c0.1,2.2-0.8,6.7,0.7,8.4c0.7,0.9,2.1,1.6,3,2.3
		c1,0.9,2,1.8,2.9,2.8c3.4,3.8,6.1,8.4,7.4,13.3c-0.6,0.2-1.2,0.7-1.9,0.9c-0.8,0.3-1.6,0.4-2.3,0.9c1-0.7-4.8-7.4-5.4-8
		c-1.7-1.8-3.3-3.7-5.5-4.8c-2-1-3.9-2.3-4.9-4.4c-0.4-0.8-0.6-1.6-0.8-2.4c-0.7-2.9-1.7-5.6-2.8-8.4c-0.4-1-0.7-1.4-1.5-2.1
		c-0.7-0.7-1.1-1.6-1.5-2.5c-1-2.1-1.8-4.4-2.4-6.6c1.5,0,2.9,0.3,4.2,1"/>
	<path fill="#F6D2BA" d="M33.8,7.6c0-2.1,0.5-3.9,2.7-5c1.1-0.5,2.4-0.6,3.7-0.3c0.7,0.1,1.4,0.4,1.9,0.8c0.7,0.5,1.2,1.4,1.5,2.2
		c0.6,1.6,0.9,4,0.1,5.6c-0.2,0.4-0.6,0.4-0.9,0.6c-0.3,0.3-0.4,1-0.4,1.4c0,0.6,0.2,1.1,0.3,1.7c0.1,0.3,0.2,0.6,0.3,1
		c0.1,0.3,0.1,0.6,0.2,0.9c0.2,0.5,0.5,0.7,0.5,1.3c0,1-0.7,2-1.3,2.8c-0.3,0.4-0.7,0.8-1.1,1c-0.1,0-0.2,0.1-0.3,0.1
		c-0.1,0-0.2-0.1-0.2-0.2c-0.6-0.8-1.1-1.6-1.5-2.5c-0.2-0.6-0.4-1.2-0.3-1.8c0.1-0.5,0.3-0.8,0.3-1.3c0-0.7-0.3-2-1.2-2
		c-0.6,0-1.1,0-1.7,0c-2.3,0-2.3-3.4-2.4-5C33.8,8.5,33.8,8,33.8,7.6z"/>
	<path fill="#FFFFFF" d="M38.4,15.6c0.2,0,0.3,0.4,0.3,0.5c0.1,0.3,0.3,0.6,0.4,0.9c0.1,0.3,0.3,0.6,0.6,0.7
		c0.2,0.1,0.5-0.1,0.7-0.2c0.6-0.4,1-0.8,1.5-1.2c0.1-0.1,1-1,1.1-0.9c0.3,0.7,0.1,1.6,0.1,2.4c0,0.8,0,1.6,0,2.5c0,1.6,0,3.3,0,4.9
		c0,1.6-0.1,3.3-0.1,4.9c0,0.4,0,4.8-0.1,4.9c-2.2,0.4-4.4,0.4-6.6,0.1c0-1.4,0-2.9,0-4.3c0.1-3.8,0.3-7.6,0.8-11.3
		c0.1-0.9,0.2-1.7,0.5-2.6c0.1-0.3,0.3-0.9,0.6-1.1C38.3,15.7,38.3,15.6,38.4,15.6z"/>
	<path fill="#63774E" d="M48,16.1c-1.3-0.7-2.7-1.2-4.1-1.6c-0.5-0.1-1-0.2-1.4,0.1c-0.2,0.2-0.3,0.5-0.4,0.7c0,1.2-0.8,2.1-1.4,3
		c-0.6,0.8-0.9,1.6-1.3,2.5c-0.3-1.1-0.3-2.2-0.5-3.3c-0.1-0.9-0.3-1.9-0.1-2.8c0-0.1-0.9,0.3-1,0.4c-0.3,0.3-0.5,0.7-0.7,1
		c-0.2,0.5-0.3,1-0.4,1.5c-0.3,2-2.3,3.4-2,5.6c0.1,0.9,0.6,1.7,0.7,2.6c0.1,1.1,0.5,2.1,0.6,3.2c0.1,1.2-0.4,2.3-0.5,3.5
		c-0.1,1.5-0.2,3-0.3,4.5c0,0.4,0,0.9,0.3,1.1c0.3,0.2,0.7,0.2,1.1,0.1c2-0.4,3.9-0.1,5.9-0.2c1.5-0.1,3.2-0.4,4.8-0.7
		c-0.9-4.3,0.1-8.6,0.2-12.9c0.1-2.8,0.2-5.6,0.3-8.3"/>
	<path fill="#A97C50" d="M42,12c-0.6-0.3-1.2-0.7-1.6-1.2c-0.4-0.5-0.6-1.6-0.1-2.1c0.3-0.4,0.6-0.9,0.5-1.4c0-0.4-0.3-0.7-0.6-0.7
		c-0.5,0-0.7,0.6-1,0.9c-0.7,0.8-1.3-0.1-1.9-0.4c-0.2-0.1-0.4-0.2-0.6-0.2c-0.5-0.1-1.1-0.2-1.6-0.3c-0.2,0-0.6-0.2-0.8-0.1
		c-0.1,0-0.2,0.1-0.3,0.2c0,0-0.2,0.4-0.2,0.4c-0.3,0.1-0.6-1.1-0.6-1.3C33,5.1,33,4.6,33,4.1c0.1-1,0.6-1.9,1.4-2.5
		c0.6-0.4,2.4-0.5,3-1c1.2-0.9,3.6-0.8,5-0.2c2.1,1,3.2,3.1,3.6,5.3c0.2,0.9,0.3,2.1,0.1,3c-0.2,0.9-1.1,1.9-1.8,2.4
		c-0.3,0.2-0.6,0.3-0.8,0.6c-0.2,0.1-0.3,0.3-0.5,0.4c-0.2,0.1-0.5,0.1-0.8,0C42.2,12.1,42.1,12,42,12z"/>
	<path fill="#6F825A" d="M39.3,22.4c0-0.1,0-0.1,0-0.2c0.1-1,0-1.8-0.2-2.8c0-0.2-0.1-0.3-0.2-0.4c0,1.7-0.4,3.2-0.5,4.9
		c-0.3,4.7,0.2,9.4-0.3,14.1c0,0,0,0.1,0,0.1c0,0,0.1,0.1,0.1,0.1c0.2,0,0.4,0,0.6,0c0.1,0,0.1,0,0.1-0.1c0,0,0-0.1,0-0.1
		c0.1-1-0.1-2-0.1-2.9c0-1.5,0-3,0-4.5c0-1.5,0.1-3.1,0.1-4.6c0-1.8,0.2-3.5,0.7-5.2c0.1-0.3,0.2-0.6,0.2-0.9
		c-0.4,0.3-0.7,0.8-0.8,1.3c0-0.6-0.1-1.2-0.2-1.8"/>
	<path fill="#6F825A" d="M39.3,38.4c0,1.9,0.2,3.8,0.5,5.8c-0.9-1.8-1.1-3.9-1.3-5.9c0-0.1,0-0.3,0-0.4c0.1-0.3,0.5-0.4,0.8-0.2
		c0.3,0.2,0.4,0.5,0.3,0.8"/>
	<path fill="#938C6C" d="M47.4,35c0.1,0.3,0.1,0.6,0.2,0.9c0,0.1,0.3,0.5,0.2,0.6c-0.2,0.1-0.4,0.2-0.5,0.3
		c-0.6,0.3-1.3,0.5-1.9,0.6c-0.8,0.2-1.6,0.3-2.4,0.5c-1.5,0.2-3.1,0.3-4.7,0.3c-0.5,0-1.1,0-1.6-0.1c-0.4-0.1-1.2-0.3-1.4-0.6
		c-0.1-0.2-0.1-0.4-0.1-0.6c0.1-0.5,0.1-0.9,0.1-1.4c0.1,0,1.3,0.1,1.3,0.2c0.4,0.1,0.8,0.3,1.2,0.3C38.4,36,39,36,39.6,36
		c2.5,0,4.7-0.6,7-1.5c0.2-0.1,0.4-0.3,0.6-0.2C47.3,34.3,47.4,34.9,47.4,35z"/>
	<path fill="#566345" d="M39,26.2c0.8,0.1,1.6,0.1,2.3,0c0.6,0,1.2,0,1.7-0.1c-0.5,0.1-0.9,0.4-1.3,0.6c-0.5,0.2-1.1,0.5-1.7,0.6
		c-1.1,0.3-2.2,0.3-3.3,0.4c-0.2,0-0.3,0-0.5-0.1c-0.4-0.1-0.6-0.6-0.6-1.1c-0.1-0.4-0.1-0.7-0.2-1.1c-0.1-0.3-0.2-0.7-0.3-1
		c0-0.1,0-0.1,0-0.2c0.6,0.6,1.1,1.2,2,1.5C37.6,25.9,38.3,26.1,39,26.2C39,26.2,39,26.2,39,26.2z"/>
	<path fill="#6F825A" d="M47.3,20.8c-0.9-1-1.9-2.1-2.5-3.2c-0.5-1-0.6-2.5,0.8-2.7c1.1-0.2,2.1,0.5,2.9,1.2
		c1.4,1.2,2.9,2.8,3.9,4.3c0.8,1.2,1.5,2.5,2.1,3.9c0.3,0.7,1.1,1.6,0.7,2.4c-0.3,0.6-1.3,1.3-1.9,1.6c-1.4,1-3.1,1.5-4.7,1.8
		c-0.4,0.1-5.1,0.8-5.1,0.4c0-1.2-0.1-2.4-0.1-3.6c1.1,0,2.4,0.1,3.5,0c1.1-0.1,2.2-0.6,3.3-0.9c0.2,0,0.4-0.1,0.5-0.2
		c0.2-0.1,0.3-0.3,0.2-0.5c0-0.1-0.1-0.3-0.2-0.4C49.6,23.5,48.4,22.1,47.3,20.8z"/>
	<g>
		<path fill="#414042" d="M36.8,19.2l10.5-0.8c0.3,0,0.5,0.2,0.6,0.4l1,4.1c0.1,0.5-0.1,0.9-0.6,0.9c-1.2,0.1-2.1-0.4-3.3-0.7
			c-1.3-0.4-2.5-0.7-3.8-0.9c-0.7-0.1-1.4-0.3-2.2-0.5c-0.6-0.2-0.7-0.4-1-0.9C37.5,20.4,37.2,19.8,36.8,19.2z"/>
		<path fill="#414042" d="M35.8,19.1c-0.3,0-1.3-2-1.3-2l-7,0.2c0,0-0.7-0.4-0.6,0.6c0.1,1,0.5,1.7,0.5,1.7l1.6,0.1
			c0,0-2.2-1.3-1.6-1.9l5.9-0.3l0.6,1.6L35.8,19.1z"/>
		<g>
			<polyline fill="#414042" points="13.4,21.2 11.4,21.2 11.1,21.6 13.3,21.6 			"/>
			<polygon fill="#414042" points="11.1,21.6 11,22.3 11.5,22.9 13.7,22.9 13.5,22.4 11.5,22.4 			"/>
		</g>
		<polygon fill="#414042" points="13.7,20.4 11.3,17.4 10.5,17.3 10.1,17.4 10.2,23.8 9.3,23.6 9,24.1 10.8,24.9 10.6,23.9 
			10.8,23.2 10.5,21.5 10.4,19.3 11.3,19 11.1,18.4 11.5,18.5 13.6,20.6 		"/>
		<line fill="none" stroke="#414042" stroke-width="0.8767" stroke-miterlimit="10" x1="3.8" y1="22.7" x2="11.2" y2="22.2"/>
		<line fill="none" stroke="#414042" stroke-width="0.3859" stroke-miterlimit="10" x1="11.1" y1="22" x2="13.6" y2="21.9"/>
		<g>
			<path fill="#414042" d="M3.7,21.8L0.4,22c0,0-0.1,0-0.1,0.1c-0.5,0.5-0.1,1.2,0,1.4c0,0,0.1,0.1,0.1,0.1l3.3-0.1
				c0.1,0,0.2-0.1,0.2-0.2l0-1.2C3.8,21.9,3.7,21.8,3.7,21.8z M0.5,23.2c-0.2-0.3-0.1-0.3-0.1-0.3L3,23.2L0.5,23.2z M0.4,22.5
				c0,0-0.1-0.1,0.1-0.3L3,22.4L0.4,22.5z"/>
			
				<path fill="none" stroke="#414042" stroke-width="0.3424" stroke-linecap="round" stroke-linejoin="round" stroke-miterlimit="10" d="
				M2.2,22.1c0,0-0.1,0.6,0.2,1.2"/>
		</g>
		<polyline fill="none" stroke="#414042" stroke-width="0.3492" stroke-miterlimit="10" points="31,24.9 31.9,26 35.6,25.4 		"/>
		<g>
			<path fill="#414042" d="M33.2,23.5c0,0,0.1,0,0.3,0.1c0.1,0.1,0.2,0.1,0.3,0.2c0.1,0.1,0.2,0.2,0.2,0.4c0,0.1,0.1,0.3,0,0.4
				c0,0.1-0.1,0.3-0.1,0.3c-0.1,0.2-0.2,0.2-0.2,0.2c0,0,0-0.1,0-0.3c0-0.2,0-0.4-0.1-0.6c0-0.1-0.1-0.2-0.1-0.3
				c0-0.1-0.1-0.2-0.1-0.3C33.2,23.7,33.2,23.5,33.2,23.5z"/>
		</g>
		<g>
			<defs>
				<path id="SVGID_767_" d="M24.7,20.2l0.3,1.9c0.1,0.5-0.3,1-0.8,1l-9.4,0.6c-0.3,0-0.7-0.1-0.8-0.4c-0.3-0.5-0.7-1.5-0.4-2.5
					c0.1-0.3,0.4-0.6,0.8-0.6l9.4-0.7C24.2,19.5,24.6,19.8,24.7,20.2z"/>
			</defs>
			<clipPath id="SVGID_2_">
				<use xlink:href="#SVGID_767_"  overflow="visible"/>
			</clipPath>
			<path clip-path="url(#SVGID_2_)" fill="#58595B" d="M24.7,20.2l0.3,1.9c0.1,0.5-0.3,1-0.8,1l-9.4,0.6c-0.3,0-0.7-0.1-0.8-0.4
				c-0.3-0.5-0.7-1.5-0.4-2.5c0.1-0.3,0.4-0.6,0.8-0.6l9.4-0.7C24.2,19.5,24.6,19.8,24.7,20.2z"/>
			
				<path clip-path="url(#SVGID_2_)" fill="#6D6E71" stroke="#808285" stroke-width="0.9312" stroke-linecap="round" stroke-miterlimit="10" d="
				M14.8,19.5c0,0-0.6,1.4-0.4,2.2"/>
			
				<path clip-path="url(#SVGID_2_)" fill="#6D6E71" stroke="#808285" stroke-width="0.9312" stroke-linecap="round" stroke-miterlimit="10" d="
				M13.5,19.7c0,0-0.6,1.4-0.4,2.2"/>
			
				<path clip-path="url(#SVGID_2_)" fill="#6D6E71" stroke="#808285" stroke-width="0.9312" stroke-linecap="round" stroke-miterlimit="10" d="
				M16.1,19.4c0,0-0.6,1.4-0.4,2.2"/>
			
				<path clip-path="url(#SVGID_2_)" fill="#6D6E71" stroke="#808285" stroke-width="0.9312" stroke-linecap="round" stroke-miterlimit="10" d="
				M17.4,19.3c0,0-0.6,1.4-0.4,2.2"/>
			
				<path clip-path="url(#SVGID_2_)" fill="#6D6E71" stroke="#808285" stroke-width="0.9312" stroke-linecap="round" stroke-miterlimit="10" d="
				M18.7,19.2c0,0-0.6,1.4-0.4,2.2"/>
			
				<path clip-path="url(#SVGID_2_)" fill="#6D6E71" stroke="#808285" stroke-width="0.9312" stroke-linecap="round" stroke-miterlimit="10" d="
				M20,19.1c0,0-0.6,1.4-0.4,2.2"/>
			
				<path clip-path="url(#SVGID_2_)" fill="#6D6E71" stroke="#808285" stroke-width="0.9312" stroke-linecap="round" stroke-miterlimit="10" d="
				M21.3,19c0,0-0.6,1.4-0.4,2.2"/>
			
				<path clip-path="url(#SVGID_2_)" fill="#6D6E71" stroke="#808285" stroke-width="0.9312" stroke-linecap="round" stroke-miterlimit="10" d="
				M22.5,18.9c0,0-0.6,1.4-0.4,2.2"/>
			
				<path clip-path="url(#SVGID_2_)" fill="#6D6E71" stroke="#808285" stroke-width="0.9312" stroke-linecap="round" stroke-miterlimit="10" d="
				M23.8,18.8c0,0-0.6,1.4-0.4,2.2"/>
			
				<path clip-path="url(#SVGID_2_)" fill="#6D6E71" stroke="#808285" stroke-width="0.9312" stroke-linecap="round" stroke-miterlimit="10" d="
				M25.1,18.7c0,0-0.6,1.4-0.4,2.2"/>
			<g clip-path="url(#SVGID_2_)">
				<path fill="#6D6E71" stroke="#414042" stroke-width="1.164" stroke-linecap="round" stroke-miterlimit="10" d="M15.2,24.3
					c0,0-0.8-1.3-0.8-2.1"/>
				<path fill="#6D6E71" stroke="#414042" stroke-width="1.164" stroke-linecap="round" stroke-miterlimit="10" d="M13.9,24.4
					c0,0-0.8-1.3-0.8-2.1"/>
				<path fill="#6D6E71" stroke="#414042" stroke-width="1.164" stroke-linecap="round" stroke-miterlimit="10" d="M16.5,24.2
					c0,0-0.8-1.3-0.8-2.1"/>
				<path fill="#6D6E71" stroke="#414042" stroke-width="1.164" stroke-linecap="round" stroke-miterlimit="10" d="M17.8,24
					c0,0-0.8-1.3-0.8-2.1"/>
				<path fill="#6D6E71" stroke="#414042" stroke-width="1.164" stroke-linecap="round" stroke-miterlimit="10" d="M19.1,23.9
					c0,0-0.8-1.3-0.8-2.1"/>
				<path fill="#6D6E71" stroke="#414042" stroke-width="1.164" stroke-linecap="round" stroke-miterlimit="10" d="M20.4,23.8
					c0,0-0.8-1.3-0.8-2.1"/>
				<path fill="#6D6E71" stroke="#414042" stroke-width="1.164" stroke-linecap="round" stroke-miterlimit="10" d="M21.6,23.7
					c0,0-0.8-1.3-0.8-2.1"/>
				<path fill="#6D6E71" stroke="#414042" stroke-width="1.164" stroke-linecap="round" stroke-miterlimit="10" d="M22.9,23.6
					c0,0-0.8-1.3-0.8-2.1"/>
				<path fill="#6D6E71" stroke="#414042" stroke-width="1.164" stroke-linecap="round" stroke-miterlimit="10" d="M24.2,23.5
					c0,0-0.8-1.3-0.8-2.1"/>
				<path fill="#6D6E71" stroke="#414042" stroke-width="1.164" stroke-linecap="round" stroke-miterlimit="10" d="M25.5,23.4
					c0,0-0.8-1.3-0.8-2.1"/>
			</g>
		</g>
		<path fill="#58595B" d="M37.1,19.7l9.5-0.1c0.2,0,0.4,0.1,0.4,0.3l0.4,1.6c0.1,0.3-0.2,0.5-0.5,0.4L37,20.4
			c-0.2,0-0.3-0.2-0.3-0.3l0,0C36.6,19.9,36.8,19.7,37.1,19.7z"/>
		<path fill="#414042" d="M37.6,19l-10.9,0.4l0.1,0.4l-2.2,0.2l0.2,2.1c0,0,2.9,0.6,2.8,0.8s-0.1,1.9-0.1,1.9l3.8,0.6
			c0,0-0.2-1.2,0.1-1.4c0.4-0.1,1.9-0.2,2.7-0.1c0.8,0.2,0.5,1.1,0.9,1.4s4.1,4.6,4.1,4.6l1.9-1.3l-4.1-4.2c0,0,0.1-1.5,1.4-1.8
			l-1-1.7l1.3,0L37.6,19z"/>
		<polygon fill="#808285" points="36.8,19.2 37.9,20.9 38.8,21.1 37.6,19 36.8,19.1 		"/>
		<path fill="#58595B" d="M26.1,20.4l0,0.4c0,0.1,0.1,0.2,0.2,0.2l3.1,0c0.1,0,0.2-0.1,0.2-0.2l0-0.5c0-0.1-0.1-0.2-0.2-0.2
			l-3.1,0.1C26.2,20.1,26.1,20.2,26.1,20.4z"/>
		<path fill="#58595B" d="M30.1,20.1l0.1,0.6c0,0.1,0.1,0.1,0.1,0.1l6.1-0.2c0.1,0,0.1-0.1,0.1-0.1l-0.1-0.8c0-0.1-0.1-0.1-0.1-0.1
			L30.2,20C30.1,20,30.1,20,30.1,20.1z"/>
		<path fill="#58595B" d="M26.4,21.3l0.1,1.2l1.5,0.5l-0.2,2l3.3,0.5c0,0-0.3-1.5,0.1-1.6c1.7-0.7,5.6,0.1,5.6,0.1l1-1.6l-0.3-0.5
			l-0.4-0.7L26.4,21.3z"/>
		<line fill="none" stroke="#58595B" stroke-width="0.3288" stroke-miterlimit="10" x1="3.9" y1="22.5" x2="11" y2="22"/>
		<path fill="#808285" d="M46.6,19.5l0.5,2.3c0,0,0.7,2,1.4,1.9c0.7,0,0.3-0.9,0.3-0.9L48,19.3L46.6,19.5z"/>
		<line fill="none" stroke="#808285" stroke-width="0.3492" stroke-miterlimit="10" x1="36.3" y1="19.6" x2="36.5" y2="20.5"/>
		<polygon fill="#58595B" points="36.8,24 36.8,24.6 40.3,28.6 36,24.9 35.8,23.8 		"/>
		<line fill="none" stroke="#808285" stroke-width="0.4656" stroke-miterlimit="10" x1="26.1" y1="20.3" x2="29.6" y2="20.2"/>
		<line fill="none" stroke="#808285" stroke-width="0.4656" stroke-miterlimit="10" x1="30.1" y1="20.1" x2="36.4" y2="19.8"/>
		<g>
			<defs>
				<path id="SVGID_769_" d="M26.4,21.3l0.1,1.2l1.5,0.5l-0.2,2l3.3,0.5c0,0-0.3-1.5,0.1-1.6c1.7-0.7,5.6,0.1,5.6,0.1l1-1.6
					l-0.3-0.5l-0.4-0.7L26.4,21.3z"/>
			</defs>
			<clipPath id="SVGID_4_">
				<use xlink:href="#SVGID_769_"  overflow="visible"/>
			</clipPath>
			<path clip-path="url(#SVGID_4_)" fill="#808285" d="M36.8,24l0.9-1.4c0.1-0.1-2.4,0.9-6.8,0.9c-0.1,0-0.2,1.8-0.3,1.8
				c-0.5,0-2.4-0.4-2.4-0.4l-0.2-2c0,0-0.8-0.4-1.6-0.6c-0.1,0,0,0.3,0,0.3l1.5,0.5l0,1.9l3.2,0.6l0.9-1.9L36.8,24z"/>
		</g>
		<line fill="none" stroke="#414042" stroke-width="0.582" stroke-miterlimit="10" x1="32.6" y1="21.6" x2="32.9" y2="23.6"/>
	</g>
	<path fill="#F6D2BA" d="M21,24.7c0.5-0.1,1.1-0.5,1.4-0.8c0.3-0.3,0.7-1.1,0-1.2c-0.3,0-0.5,0.3-0.8,0.4c-0.4-0.6-1.3-1-2.1-1
		c-0.3,0-0.6,0-0.9,0.1c-0.2,0.1-0.3,0.3-0.4,0.5c-0.1,0.3-0.2,0.7,0,0.9c0.2,0.3,0.6,0.4,1,0.5c0.5,0.2,1.2,0.5,1.7,0.5
		C20.9,24.7,21,24.7,21,24.7z"/>
	<path fill="#F6D2BA" d="M43.4,27.6c-0.8-0.7-1.7-0.6-2.8-0.8c-0.9-0.2-1.8-0.1-0.8,0.8c0,0-0.9,0.2-1,0.2c-0.4,0-0.8-0.1-1.2,0.1
		C37.2,28.1,37,28.5,37,29c0.1,0.6,0.5,1.2,1.2,1.4c1.1,0.2,6.3,0.1,5.8-1.8c0-0.2-0.1-0.3-0.2-0.4C43.7,27.9,43.6,27.7,43.4,27.6z"
		/>
	<path fill="#6F825A" d="M42.1,26.8c0.4,1.2,0.5,2.5,0.5,3.8c0.5-0.1,1.1,0,1.6-0.1c0.4,0,1,0,1.3-0.1c0.1-0.1,0.2-0.1,0.3-0.2
		c0.2-0.2,0.5-0.2,0.7-0.4c0.3-0.3,0.2-0.8,0-1.1c-0.2-0.5-0.4-1.1-0.9-1.4c-0.6-0.4-1.2-0.4-1.9-0.4C43.2,26.8,42.6,26.6,42.1,26.8
		c0-0.1,0.1-0.1,0.1-0.1"/>
</g>
</svg>
