<?xml version="1.0" encoding="utf-8"?>
<!-- Generator: Adobe Illustrator 19.1.0, SVG Export Plug-In . SVG Version: 6.00 Build 0)  -->
<svg version="1.1" id="Layer_1" xmlns="http://www.w3.org/2000/svg" xmlns:xlink="http://www.w3.org/1999/xlink" x="0px" y="0px"
	 viewBox="0 0 75.1 15.8" enable-background="new 0 0 75.1 15.8" xml:space="preserve">
<g>
	<defs>
		<rect id="SVGID_28_" x="-417.4" y="-882.2" width="233.8" height="493.7"/>
	</defs>
	<clipPath id="SVGID_2_">
		<use xlink:href="#SVGID_28_"  overflow="visible"/>
	</clipPath>
	<use xlink:href="#SVGID_28_"  overflow="visible" fill="none" stroke="#BCBEC0" stroke-miterlimit="10"/>
</g>
<g>
	
		<path fill="none" stroke="#05BCE7" stroke-width="0.9936" stroke-linecap="round" stroke-linejoin="round" stroke-miterlimit="10" d="
		M0.5,10.1l28.4,0.1c0.1,0,0.2-0.1,0.2-0.2l1.9-6.2c0.2-0.6,0.4-0.6,0.5,0l1.5,10.6c0.1,0.9,0.4,0.9,0.5,0l1.1-7.5
		c0,0,0.1-0.5,0.1-0.5c0.1,0,0.1,0.4,0.1,0.4l0.6,3.2c0,0.1,0.1,0.2,0.2,0.2l9.7,0.1c0,0,1.2,0,1.2,0c1,0,3.3,0.1,3.3,0.1
		c0.1,0,0.2-0.1,0.2-0.2l0.6-3.2c0,0,0.1-0.4,0.1-0.4c0.1,0,0.1,0.5,0.1,0.5l1,7.5c0.1,0.9,0.4,0.9,0.5,0L54.1,1
		c0.1-0.6,0.3-0.6,0.5,0l1.9,9.3c0,0.1,0.1,0.2,0.2,0.2l17.8,0.1"/>
</g>
</svg>
