<?xml version="1.0" encoding="utf-8"?>
<!-- Generator: Adobe Illustrator 19.1.0, SVG Export Plug-In . SVG Version: 6.00 Build 0)  -->
<svg version="1.1" id="Layer_1" xmlns="http://www.w3.org/2000/svg" xmlns:xlink="http://www.w3.org/1999/xlink" x="0px" y="0px"
	 viewBox="0 0 75.1 15.8" enable-background="new 0 0 75.1 15.8" xml:space="preserve">
<path fill="none" stroke="#E86978" stroke-width="0.9936" stroke-linecap="round" stroke-linejoin="round" stroke-miterlimit="10" d="
	M0.5,10.2h16.6c0,0,1.2,0,1.2,0c1,0,3.3,0.1,3.3,0.1c0.1,0,0.2-0.1,0.2-0.2l0.6-3.2c0,0,0.1-0.4,0.1-0.4c0.1,0,0.1,0.5,0.1,0.5
	l1,7.5c0.1,0.9,0.4,0.9,0.5,0L25.9,1c0.1-0.6,0.3-0.6,0.5,0l1.9,9.3c0,0.1,0.1,0.2,0.2,0.2l46.1,0.1"/>
</svg>
