<?xml version="1.0" encoding="utf-8"?>
<!-- Generator: Adobe Illustrator 19.1.0, SVG Export Plug-In . SVG Version: 6.00 Build 0)  -->
<svg version="1.2" baseProfile="tiny" id="Layer_1" xmlns="http://www.w3.org/2000/svg" xmlns:xlink="http://www.w3.org/1999/xlink"
	 x="0px" y="0px" viewBox="-274 383.8 62.2 26.2" xml:space="preserve">
<g>
	<g>
		<g>
			<path fill="#0F2849" d="M-232.7,391.8l-2.9-4.5l-1.4,4.5h-1.4l1.5-4.8l0.4-1l-1.3-2.1h1.5l1.2,1.9l1.2,1.8l0.3-1.2l0.7-2.4h1.4
				l-1.5,4.8l1.9,3H-232.7z"/>
			<path fill="#0F2849" d="M-229.6,385.5l-0.2-1.6h1.5l0.2,1.6v6.3h-1.5V385.5z"/>
			<path fill="#0F2849" d="M-220.3,390.6v1.2h-2.5h-3.9v-1.2h3.9v-4.2c0-0.5-0.1-0.9-0.3-1.1c-0.2-0.2-0.5-0.3-0.9-0.3h-2.6v-1.1h3
				c0.7,0,1.3,0.2,1.8,0.6c0.4,0.4,0.6,1.1,0.6,2v4.1H-220.3z"/>
			<path fill="#0F2849" d="M-212.6,390.8c-0.6,0.8-1.4,1.1-2.4,1.1c-0.4,0-0.8,0-1.2-0.1l0.2-1.1c0.4,0.1,0.7,0.1,0.9,0.1
				c0.7,0,1.2-0.2,1.6-0.7c0.2-0.6,0.4-1.3,0.4-2.3s-0.2-1.7-0.5-2.2c-0.3-0.5-0.8-0.7-1.3-0.7c-0.4,0-0.8,0.1-1.1,0.4
				c-0.3,0.3-0.5,0.6-0.6,1l-0.9,5.5h-1.5l1-5.4l-1.1-2.5h1.6l0.6,1.7c0.2-0.6,0.5-1,0.9-1.3c0.4-0.4,0.8-0.5,1.3-0.5
				c0.9,0,1.7,0.3,2.2,1c0.5,0.6,0.8,1.7,0.8,3S-212,390.1-212.6,390.8z"/>
		</g>
		<g>
			<path fill="#0F2849" d="M-232.7,391.8l-2.9-4.5l-1.4,4.5h-1.4l1.5-4.8l0.4-1l-1.3-2.1h1.5l1.2,1.9l1.2,1.8l0.3-1.2l0.7-2.4h1.4
				l-1.5,4.8l1.9,3H-232.7z"/>
			<path fill="#0F2849" d="M-229.6,385.5l-0.2-1.6h1.5l0.2,1.6v6.3h-1.5V385.5z"/>
			<path fill="#0F2849" d="M-220.3,390.6v1.2h-2.5h-3.9v-1.2h3.9v-4.2c0-0.5-0.1-0.9-0.3-1.1c-0.2-0.2-0.5-0.3-0.9-0.3h-2.6v-1.1h3
				c0.7,0,1.3,0.2,1.8,0.6c0.4,0.4,0.6,1.1,0.6,2v4.1H-220.3z"/>
			<path fill="#0F2849" d="M-212.6,390.8c-0.6,0.8-1.4,1.1-2.4,1.1c-0.4,0-0.8,0-1.2-0.1l0.2-1.1c0.4,0.1,0.7,0.1,0.9,0.1
				c0.7,0,1.2-0.2,1.6-0.7c0.2-0.6,0.4-1.3,0.4-2.3s-0.2-1.7-0.5-2.2c-0.3-0.5-0.8-0.7-1.3-0.7c-0.4,0-0.8,0.1-1.1,0.4
				c-0.3,0.3-0.5,0.6-0.6,1l-0.9,5.5h-1.5l1-5.4l-1.1-2.5h1.6l0.6,1.7c0.2-0.6,0.5-1,0.9-1.3c0.4-0.4,0.8-0.5,1.3-0.5
				c0.9,0,1.7,0.3,2.2,1c0.5,0.6,0.8,1.7,0.8,3S-212,390.1-212.6,390.8z"/>
		</g>
		<g>
			<path fill="#0F2849" d="M-232.7,391.8l-2.9-4.5l-1.4,4.5h-1.4l1.5-4.8l0.4-1l-1.3-2.1h1.5l1.2,1.9l1.2,1.8l0.3-1.2l0.7-2.4h1.4
				l-1.5,4.8l1.9,3H-232.7z"/>
			<path fill="#0F2849" d="M-229.6,385.5l-0.2-1.6h1.5l0.2,1.6v6.3h-1.5V385.5z"/>
			<path fill="#0F2849" d="M-220.3,390.6v1.2h-2.5h-3.9v-1.2h3.9v-4.2c0-0.5-0.1-0.9-0.3-1.1c-0.2-0.2-0.5-0.3-0.9-0.3h-2.6v-1.1h3
				c0.7,0,1.3,0.2,1.8,0.6c0.4,0.4,0.6,1.1,0.6,2v4.1H-220.3z"/>
			<path fill="#0F2849" d="M-212.6,390.8c-0.6,0.8-1.4,1.1-2.4,1.1c-0.4,0-0.8,0-1.2-0.1l0.2-1.1c0.4,0.1,0.7,0.1,0.9,0.1
				c0.7,0,1.2-0.2,1.6-0.7c0.2-0.6,0.4-1.3,0.4-2.3s-0.2-1.7-0.5-2.2c-0.3-0.5-0.8-0.7-1.3-0.7c-0.4,0-0.8,0.1-1.1,0.4
				c-0.3,0.3-0.5,0.6-0.6,1l-0.9,5.5h-1.5l1-5.4l-1.1-2.5h1.6l0.6,1.7c0.2-0.6,0.5-1,0.9-1.3c0.4-0.4,0.8-0.5,1.3-0.5
				c0.9,0,1.7,0.3,2.2,1c0.5,0.6,0.8,1.7,0.8,3S-212,390.1-212.6,390.8z"/>
		</g>
		<g>
			<path fill="#0F2849" d="M-232.7,391.8l-2.9-4.5l-1.4,4.5h-1.4l1.5-4.8l0.4-1l-1.3-2.1h1.5l1.2,1.9l1.2,1.8l0.3-1.2l0.7-2.4h1.4
				l-1.5,4.8l1.9,3H-232.7z"/>
			<path fill="#0F2849" d="M-229.6,385.5l-0.2-1.6h1.5l0.2,1.6v6.3h-1.5V385.5z"/>
			<path fill="#0F2849" d="M-220.3,390.6v1.2h-2.5h-3.9v-1.2h3.9v-4.2c0-0.5-0.1-0.9-0.3-1.1c-0.2-0.2-0.5-0.3-0.9-0.3h-2.6v-1.1h3
				c0.7,0,1.3,0.2,1.8,0.6c0.4,0.4,0.6,1.1,0.6,2v4.1H-220.3z"/>
			<path fill="#0F2849" d="M-212.6,390.8c-0.6,0.8-1.4,1.1-2.4,1.1c-0.4,0-0.8,0-1.2-0.1l0.2-1.1c0.4,0.1,0.7,0.1,0.9,0.1
				c0.7,0,1.2-0.2,1.6-0.7c0.2-0.6,0.4-1.3,0.4-2.3s-0.2-1.7-0.5-2.2c-0.3-0.5-0.8-0.7-1.3-0.7c-0.4,0-0.8,0.1-1.1,0.4
				c-0.3,0.3-0.5,0.6-0.6,1l-0.9,5.5h-1.5l1-5.4l-1.1-2.5h1.6l0.6,1.7c0.2-0.6,0.5-1,0.9-1.3c0.4-0.4,0.8-0.5,1.3-0.5
				c0.9,0,1.7,0.3,2.2,1c0.5,0.6,0.8,1.7,0.8,3S-212,390.1-212.6,390.8z"/>
		</g>
		<g>
			<path fill="#0F2849" d="M-232.7,391.8l-2.9-4.5l-1.4,4.5h-1.4l1.5-4.8l0.4-1l-1.3-2.1h1.5l1.2,1.9l1.2,1.8l0.3-1.2l0.7-2.4h1.4
				l-1.5,4.8l1.9,3H-232.7z"/>
			<path fill="#0F2849" d="M-229.6,385.5l-0.2-1.6h1.5l0.2,1.6v6.3h-1.5V385.5z"/>
			<path fill="#0F2849" d="M-220.3,390.6v1.2h-2.5h-3.9v-1.2h3.9v-4.2c0-0.5-0.1-0.9-0.3-1.1c-0.2-0.2-0.5-0.3-0.9-0.3h-2.6v-1.1h3
				c0.7,0,1.3,0.2,1.8,0.6c0.4,0.4,0.6,1.1,0.6,2v4.1H-220.3z"/>
			<path fill="#0F2849" d="M-212.6,390.8c-0.6,0.8-1.4,1.1-2.4,1.1c-0.4,0-0.8,0-1.2-0.1l0.2-1.1c0.4,0.1,0.7,0.1,0.9,0.1
				c0.7,0,1.2-0.2,1.6-0.7c0.2-0.6,0.4-1.3,0.4-2.3s-0.2-1.7-0.5-2.2c-0.3-0.5-0.8-0.7-1.3-0.7c-0.4,0-0.8,0.1-1.1,0.4
				c-0.3,0.3-0.5,0.6-0.6,1l-0.9,5.5h-1.5l1-5.4l-1.1-2.5h1.6l0.6,1.7c0.2-0.6,0.5-1,0.9-1.3c0.4-0.4,0.8-0.5,1.3-0.5
				c0.9,0,1.7,0.3,2.2,1c0.5,0.6,0.8,1.7,0.8,3S-212,390.1-212.6,390.8z"/>
		</g>
		<g>
			<path fill="#0F2849" d="M-232.7,391.8l-2.9-4.5l-1.4,4.5h-1.4l1.5-4.8l0.4-1l-1.3-2.1h1.5l1.2,1.9l1.2,1.8l0.3-1.2l0.7-2.4h1.4
				l-1.5,4.8l1.9,3H-232.7z"/>
			<path fill="#0F2849" d="M-229.6,385.5l-0.2-1.6h1.5l0.2,1.6v6.3h-1.5V385.5z"/>
			<path fill="#0F2849" d="M-220.3,390.6v1.2h-2.5h-3.9v-1.2h3.9v-4.2c0-0.5-0.1-0.9-0.3-1.1c-0.2-0.2-0.5-0.3-0.9-0.3h-2.6v-1.1h3
				c0.7,0,1.3,0.2,1.8,0.6c0.4,0.4,0.6,1.1,0.6,2v4.1H-220.3z"/>
			<path fill="#0F2849" d="M-212.6,390.8c-0.6,0.8-1.4,1.1-2.4,1.1c-0.4,0-0.8,0-1.2-0.1l0.2-1.1c0.4,0.1,0.7,0.1,0.9,0.1
				c0.7,0,1.2-0.2,1.6-0.7c0.2-0.6,0.4-1.3,0.4-2.3s-0.2-1.7-0.5-2.2c-0.3-0.5-0.8-0.7-1.3-0.7c-0.4,0-0.8,0.1-1.1,0.4
				c-0.3,0.3-0.5,0.6-0.6,1l-0.9,5.5h-1.5l1-5.4l-1.1-2.5h1.6l0.6,1.7c0.2-0.6,0.5-1,0.9-1.3c0.4-0.4,0.8-0.5,1.3-0.5
				c0.9,0,1.7,0.3,2.2,1c0.5,0.6,0.8,1.7,0.8,3S-212,390.1-212.6,390.8z"/>
		</g>
		<g>
			<path fill="#0F2849" d="M-232.7,391.8l-2.9-4.5l-1.4,4.5h-1.4l1.5-4.8l0.4-1l-1.3-2.1h1.5l1.2,1.9l1.2,1.8l0.3-1.2l0.7-2.4h1.4
				l-1.5,4.8l1.9,3H-232.7z"/>
			<path fill="#0F2849" d="M-229.6,385.5l-0.2-1.6h1.5l0.2,1.6v6.3h-1.5V385.5z"/>
			<path fill="#0F2849" d="M-220.3,390.6v1.2h-2.5h-3.9v-1.2h3.9v-4.2c0-0.5-0.1-0.9-0.3-1.1c-0.2-0.2-0.5-0.3-0.9-0.3h-2.6v-1.1h3
				c0.7,0,1.3,0.2,1.8,0.6c0.4,0.4,0.6,1.1,0.6,2v4.1H-220.3z"/>
			<path fill="#0F2849" d="M-212.6,390.8c-0.6,0.8-1.4,1.1-2.4,1.1c-0.4,0-0.8,0-1.2-0.1l0.2-1.1c0.4,0.1,0.7,0.1,0.9,0.1
				c0.7,0,1.2-0.2,1.6-0.7c0.2-0.6,0.4-1.3,0.4-2.3s-0.2-1.7-0.5-2.2c-0.3-0.5-0.8-0.7-1.3-0.7c-0.4,0-0.8,0.1-1.1,0.4
				c-0.3,0.3-0.5,0.6-0.6,1l-0.9,5.5h-1.5l1-5.4l-1.1-2.5h1.6l0.6,1.7c0.2-0.6,0.5-1,0.9-1.3c0.4-0.4,0.8-0.5,1.3-0.5
				c0.9,0,1.7,0.3,2.2,1c0.5,0.6,0.8,1.7,0.8,3S-212,390.1-212.6,390.8z"/>
		</g>
	</g>
	<path fill="none" stroke="#EE755B" stroke-width="2" stroke-linecap="round" stroke-linejoin="round" stroke-miterlimit="10" d="
		M-273,399.2l13.7,0.1c0.2,0,0.4-0.2,0.5-0.3l3.8-12.4c0.4-1.1,0.8-1.1,1,0.1l3,21c0.3,1.8,0.7,1.8,1,0l2.1-14.9c0,0,0.1-1,0.2-1
		c0.1,0,0.2,0.7,0.2,0.7l1.2,6.3c0,0.2,0.3,0.4,0.5,0.4l25.1,0.1"/>
</g>
</svg>
