<?xml version="1.0" encoding="utf-8"?>
<!-- Generator: Adobe Illustrator 19.1.0, SVG Export Plug-In . SVG Version: 6.00 Build 0)  -->
<svg version="1.1" id="Layer_1" xmlns="http://www.w3.org/2000/svg" xmlns:xlink="http://www.w3.org/1999/xlink" x="0px" y="0px"
	 viewBox="0 0 52 73.9" enable-background="new 0 0 52 73.9" xml:space="preserve">
<g>
	<path fill="#DD4747" d="M21.4,0c-1.3-0.1-2.7,0.3-3.9,0.8C8.8,4.4,3,13.1,1,22.3s-0.7,18.8,1.6,28c1.1,4.3,2.4,8.7,5,12.4
		c2,2.9,4.7,5.3,7.6,7.4c9.9,7.2,22.6,4,29-6.1c5.5-8.7,8.1-20.2,7.9-30.5c-0.2-10.3-3.9-20.9-11.3-28.3c-2-2-4.5-4-7.4-4.5
		c-1.3-0.2-2.6-0.2-3.8,0.4c-1.2,0.6-1.9,2.4-3.4,1.9C24.3,2.4,23.8,0.3,21.4,0z"/>
	<path fill="#E6E7E8" d="M46.9,20.2C42.3,12.5,34.8,7.4,26.2,7.4c-8.5,0-16.1,5-20.6,12.6c5.8-3.3,12.8-3.5,19.5-3.6
		C32.5,16.4,40.4,16.5,46.9,20.2z"/>
	<g>
		<path fill="#E86978" d="M40.5,33c-5.2-0.9-10.9,0.8-14.2,4.8c-3.5-3.4-8.5-5.1-13.3-4.7c-4.6,0.4-9,2.8-11.9,6.4
			c0.3,4.5,1.5,8.8,3.4,12.5c20.2,20.5,37.4,6.4,43.1,0.5c2.1-4,3.4-8.7,3.7-13.7C48.3,35.9,44.6,33.7,40.5,33z"/>
		<path fill="#E6E6E6" d="M4.5,52c4.4,8.7,12.4,14.5,21.7,14.5c9,0,17-5.6,21.4-14C41.9,58.4,24.7,72.5,4.5,52z"/>
	</g>
	<g>
		<path fill="#89181D" d="M44,25c-0.7-2.5-3.2-3.7-5.5-4.3c-1.6-0.4-3.2-0.3-4.8-0.3c-1,0-2.1,0.1-3.1,0.4c-4.5,1.5-0.6,6-2,9
			c-0.8,1.8-3.7,1.9-4.7,0.2c-1.1-1.9,0.6-4.4,0.1-6.6c-0.4-1.8-2.2-2.9-4-3.2c-1.8-0.2-3.6,0.2-5.4,0.7c-3.6,1-7,2.1-6.5,6.8
			c0.2,1.5,1,3.9,1.5,6c1.1-0.3,2.2-0.6,3.4-0.7c4.8-0.4,9.8,1.3,13.3,4.7c3.4-4,9.1-5.7,14.2-4.8c0.8,0.1,1.6,0.4,2.4,0.6
			C43.2,30.4,44.3,26.1,44,25z"/>
		<path fill="#AF2027" d="M51.3,37c0-6.2-1.6-12-4.4-16.8c-6.4-3.8-14.4-3.8-21.9-3.8c-6.7,0.1-13.7,0.3-19.5,3.6
			C2.7,24.9,1,30.7,1,37c0,0.9,0.1,1.7,0.2,2.6c2.2-2.7,5.2-4.8,8.5-5.8c-0.4-2.1-1.3-4.5-1.5-6C7.6,23.1,11,22,14.6,21
			c1.8-0.5,3.6-1,5.4-0.7c1.8,0.2,3.6,1.4,4,3.2c0.5,2.2-1.2,4.6-0.1,6.6c1,1.7,3.9,1.5,4.7-0.2c1.3-3-2.5-7.4,2-9
			c1-0.3,2.1-0.4,3.1-0.4c1.6-0.1,3.2-0.1,4.8,0.3c2.3,0.6,4.8,1.8,5.5,4.3c0.3,1.1-0.9,5.5-1.1,8.6c3.1,1,6,2.9,8.3,5.2
			C51.3,38.2,51.3,37.6,51.3,37z"/>
	</g>
	<path fill="#EFBE78" d="M16.8,41.3c-1.1-0.8-2.7-0.9-4-0.4c-1.3,0.6-2.3,1.7-2.9,2.9c-0.3,0.7-0.5,1.4-0.4,2.1
		c0.2,1.3,1.5,2.2,2.7,2.4c1.3,0.2,2.6,0,3.8-0.4c0.6-0.2,1.3-0.3,1.7,0.1c0.2,0.2,0.3,0.6,0.3,1c0,1.4-0.5,2.7-0.6,4.1
		c-0.2,1.4,0.1,3,1.2,3.8c0.5,0.3,1,0.5,1.6,0.6c1.2,0.3,2.4,0.6,3.7,0.8c0.6,0.1,1.4-0.1,1.6-0.7c0.2-0.5-0.2-1.1-0.6-1.5
		c-0.4-0.4-0.9-0.7-1.2-1.2c-0.4-0.8,0-1.8,0.7-2.3c1.4-1.2,4.6-2.1,5.6,0.1c0.2,0.6,0.4,1.4,1,1.5c0.4,0.1,0.7-0.2,1-0.5
		c1.2-1.1,2.3-2.2,2.9-3.7c0.5-1.4,0.3-3.3-1.1-4.2c-0.3-0.2-0.7-0.4-1-0.6c-0.8-0.8-0.5-2.6,0.4-3.3c0.8-0.6,1.9-0.1,2.6-0.8
		c1.4-1.5-1-3.1-2.4-3.3c-1.5-0.3-3.1,0.4-4,1.6c-0.8,1.1-1,2.6-1.7,3.8c-0.7,1.2-2.6,2-3.5,0.9c-0.5-0.6-0.4-1.3-0.6-2
		c-0.4-1.8-2.2-3.2-4.1-3.1c-1.8,0.1-3.5,1.7-3.7,3.6"/>
	<path fill="#EFBE78" d="M40.2,45.3c-0.2-0.5-0.9-0.7-1.4-0.5c-0.5,0.1-0.9,0.6-1.2,1c-0.1,0.2-0.2,0.5-0.1,0.7
		c0.1,0.2,0.4,0.2,0.6,0.3c2.5,0.6-0.4,3.8,2.1,4.1c1,0.1,1.9-0.9,1.6-1.9c-0.1-0.3-0.2-0.5-0.3-0.7c-0.3-0.8,0.3-1.9,1.2-2
		c0.3-0.1,0.6,0,0.8-0.1c0.7-0.2,0.9-1.2,0.4-1.7c-1.6-1.6,0.6-1.5-0.5-3c-0.3-0.5-1-0.7-1.6-0.6c-0.6,0.1-1.1,0.5-1.5,0.9
		c-0.4,0.6-0.6,1.4-0.2,2"/>
</g>
</svg>
