<?xml version="1.0" encoding="utf-8"?>
<!-- Generator: Adobe Illustrator 19.1.0, SVG Export Plug-In . SVG Version: 6.00 Build 0)  -->
<svg version="1.1" id="Layer_1" xmlns="http://www.w3.org/2000/svg" xmlns:xlink="http://www.w3.org/1999/xlink" x="0px" y="0px"
	 viewBox="0 0 55.5 47.9" enable-background="new 0 0 55.5 47.9" xml:space="preserve">
<g>
	<circle fill="#58595B" cx="16.4" cy="26.3" r="15.9"/>
	<path fill="#58595B" d="M51.1,30.8H29.6c-2.4,0-4.4-2-4.4-4.4v0c0-2.4,2-4.4,4.4-4.4h21.5c2.4,0,4.4,2,4.4,4.4v0
		C55.5,28.8,53.5,30.8,51.1,30.8z"/>
	<circle fill="#6D6E71" cx="15.9" cy="25.5" r="15.9"/>
	<circle fill="#808285" cx="16.2" cy="25.5" r="14.7"/>
	<path fill="#6D6E71" d="M50.6,29.9H29.1c-2.4,0-4.4-2-4.4-4.4v0c0-2.4,2-4.4,4.4-4.4h21.5c2.4,0,4.4,2,4.4,4.4v0
		C55,27.9,53,29.9,50.6,29.9z"/>
	<path fill="#6D6E71" d="M50.6,29.9H29.1c-2.4,0-4.4-2-4.4-4.4v0c0-2.4,2-4.4,4.4-4.4h21.5c2.4,0,4.4,2,4.4,4.4v0
		C55,27.9,53,29.9,50.6,29.9z"/>
	
		<line fill="none" stroke="#58595B" stroke-width="7" stroke-linecap="round" stroke-miterlimit="10" x1="29" y1="25.5" x2="50.3" y2="25.5"/>
	
		<line fill="none" stroke="#808285" stroke-width="6" stroke-linecap="round" stroke-miterlimit="10" x1="29" y1="25.5" x2="50.3" y2="25.5"/>
	
		<line fill="none" stroke="#6D6E71" stroke-width="4" stroke-linecap="round" stroke-miterlimit="10" x1="29" y1="25.5" x2="50.3" y2="25.5"/>
	
		<line fill="none" stroke="#808285" stroke-width="3" stroke-linecap="round" stroke-miterlimit="10" x1="29" y1="25.5" x2="50.3" y2="25.5"/>
	<g>
		<circle fill="#6D6E71" stroke="#808285" stroke-width="0.6709" stroke-miterlimit="10" cx="15.9" cy="25.5" r="4.4"/>
		<circle fill="#58595B" cx="16.3" cy="25.5" r="3.5"/>
		<circle fill="#808285" cx="15.9" cy="25.5" r="2.9"/>
		<circle fill="#939598" cx="15.9" cy="25.5" r="1.6"/>
	</g>
	<g>
		<defs>
			<circle id="SVGID_771_" cx="15.9" cy="25.5" r="15.9"/>
		</defs>
		<clipPath id="SVGID_2_">
			<use xlink:href="#SVGID_771_"  overflow="visible"/>
		</clipPath>
		<polygon clip-path="url(#SVGID_2_)" fill="#939598" points="1.9,33.6 30.3,33.6 22,47.9 3.3,46.6 		"/>
		<rect x="0.7" y="0" clip-path="url(#SVGID_2_)" fill="#6D6E71" width="35.6" height="17.3"/>
	</g>
	<g>
		<path fill="#939598" d="M2.7,25.8c-0.3-0.2-0.3-0.5,0-0.7l2.7-1.6L8.2,22c0.3-0.2,0.6,0,0.6,0.3v3.2v3.2c0,0.3-0.3,0.5-0.6,0.3
			l-2.7-1.6L2.7,25.8z"/>
		<path fill="#6D6E71" d="M2.7,25.8c0,0-0.1,0-0.2-0.2c-0.1-0.1-0.1-0.4,0.2-0.6c0.5-0.3,1.2-0.7,2.1-1.3c0.9-0.5,1.8-1.2,2.9-1.8
			c0.2-0.1,0.2-0.2,0.5-0.3c0.2-0.1,0.5,0,0.6,0.2C8.9,22.1,9,22.2,9,22.3l0,0.2l0,0.5c0,0.7,0,1.3,0,2c0,0.7,0,1.3,0,2
			c0,0.3,0,0.7,0,1l0,0.5c0,0.1,0,0.4-0.2,0.6c-0.2,0.1-0.4,0.1-0.6,0l-0.4-0.2c-0.3-0.2-0.5-0.3-0.8-0.5c-0.5-0.3-1-0.6-1.4-0.9
			C4.7,27,4,26.6,3.5,26.3C3,26,2.7,25.8,2.7,25.8z M2.7,25.8c0,0,0.3,0.2,0.8,0.4C4,26.6,4.7,27,5.6,27.4c0.4,0.2,0.9,0.5,1.4,0.8
			c0.3,0.1,0.5,0.3,0.8,0.4l0.4,0.2c0.1,0,0.2,0,0.3,0c0.1-0.1,0.1-0.1,0.1-0.3l0-0.5c0-0.3,0-0.7,0-1c0-0.7,0-1.3,0-2
			c0-0.7,0-1.3,0-2l0-0.5l0-0.2c0,0,0-0.1,0-0.1c0-0.1-0.1-0.1-0.2-0.1c-0.1,0-0.3,0.1-0.4,0.2c-1.1,0.6-2.1,1.1-3,1.6
			c-0.9,0.5-1.6,0.9-2.1,1.2c-0.3,0.1-0.3,0.4-0.2,0.5C2.6,25.8,2.7,25.8,2.7,25.8z"/>
	</g>
	
		<line fill="none" stroke="#939598" stroke-width="2" stroke-linecap="round" stroke-miterlimit="10" x1="29" y1="25.5" x2="50.3" y2="25.5"/>
</g>
</svg>
