<?xml version="1.0" encoding="utf-8"?>
<!-- Generator: Adobe Illustrator 19.1.0, SVG Export Plug-In . SVG Version: 6.00 Build 0)  -->
<svg version="1.1" id="Layer_1" xmlns="http://www.w3.org/2000/svg" xmlns:xlink="http://www.w3.org/1999/xlink" x="0px" y="0px"
	 viewBox="0 0 155 85.1" enable-background="new 0 0 155 85.1" xml:space="preserve">
<g>
	<defs>
		<rect id="SVGID_28_" x="-241.3" y="-698.7" width="233.8" height="493.7"/>
	</defs>
	<clipPath id="SVGID_2_">
		<use xlink:href="#SVGID_28_"  overflow="visible"/>
	</clipPath>
	<g clip-path="url(#SVGID_2_)">
		<g>
			<circle fill="#58595B" cx="117.6" cy="-3.9" r="15.9"/>
			<path fill="#58595B" d="M152.2,0.5l-21.5,0c-2.4,0-4.4-2-4.4-4.4v0c0-2.4,2-4.4,4.4-4.4h21.5c2.4,0,4.4,2,4.4,4.4v0
				C156.7-1.5,154.7,0.5,152.2,0.5z"/>
			<circle fill="#6D6E71" cx="117.1" cy="-4.8" r="15.9"/>
			<circle fill="#808285" cx="117.3" cy="-4.8" r="14.7"/>
			<g>
				<defs>
					<circle id="SVGID_45_" cx="117.1" cy="-4.8" r="15.9"/>
				</defs>
				<clipPath id="SVGID_4_">
					<use xlink:href="#SVGID_45_"  overflow="visible"/>
				</clipPath>
				<polygon clip-path="url(#SVGID_4_)" fill="#939598" points="103,3.4 131.5,3.4 123.2,17.6 104.4,16.3 				"/>
			</g>
		</g>
	</g>
	<use xlink:href="#SVGID_28_"  overflow="visible" fill="none" stroke="#BCBEC0" stroke-miterlimit="10"/>
</g>
<g>
	<ellipse opacity="0.33" fill="#A7A9AC" cx="99.9" cy="78.7" rx="55" ry="6.1"/>
	<g>
		<g>
			<path fill="#F6D2BA" d="M49.7,63c1.4,0.1,2.7-0.7,4.1-0.6c1.1,0,2.2-0.3,0.8-1.2c0,0,1-0.5,1.1-0.5c0.5-0.1,1-0.1,1.3-0.4
				c0.4-0.4,0.5-1,0.4-1.5c-0.2-0.8-0.9-1.5-1.8-1.5c-3.2-0.1-6,2.1-8.5,4.1C47.7,62.4,48.7,62.9,49.7,63z"/>
			<path fill="#566345" d="M34.4,66.7c-1.8-0.2-3.5-0.4-5.3-0.5c-3.3-0.3-6.7-0.7-9.8-2c0.3-1.2,0.6-4,1.4-4.9
				c1.1-1.2,1.6-0.6,3.2-0.2c3.2,0.8,6.5,1.1,9.5,2.4c0.6,0.2,1.2,0.5,1.9,0.5c0.8,0,1.5-0.2,2.2-0.5c4.2-1.5,8.6-2.7,12.9-3.9
				c-1,0.3,0.6,4.3-1.1,5.2c-3.4,1.8-6.7,3.9-10.6,4.1c-1.1,0.1-2.2,0-3.3-0.1C35,66.8,34.7,66.7,34.4,66.7z"/>
		</g>
		<g>
			<path fill="#1A242D" d="M100.1,62.2c-0.5,0-1.1,0-1.6,0c-0.1,0-0.2,0-0.2,0c-0.1,0.1-0.1,0.2-0.1,0.3c-0.1,0.8-0.2,1.6-0.2,2.3
				c0,0.4-0.1,0.7-0.1,1.1c0,0.1,0,0.2,0,0.2c0.2,0.4,1.6,0.7,2,1c0.5,0.4,0.6,0.7,1.2,0.8c1.6,0.3,3.8-1,5-1.9
				c0.9-0.6,1.7-1.5,2-2.4c0.3-1,0.1-2.1-0.7-2.5c-0.9-0.5-2.2,0-3.3,0.4C102.9,61.9,101.5,62.1,100.1,62.2z"/>
			<path fill="#4C563C" d="M44.1,72.7c0.8-0.1,1.3-4.1,1.5-4.7c0.6-2.5,1.4-4.2-0.1-6.5c-0.5-0.8,2.4-0.5,2.9-0.5
				c1.7,0,3.4-0.4,5-0.6c3.5-0.5,7.1-0.9,10.6-1.4c2-0.3,4-0.5,5.9-0.6c4.9-0.1,10.7,0.3,15.4,1.6c1.2,0.3,14.1,1.5,14,2.4
				c-0.2,1.5-0.3,3-0.5,4.4C91.7,67,84.5,66.7,77.4,66c-1.7-0.2-3-0.6-4.6-1c-0.1,0-0.3-0.1-0.4,0c-0.1,0-0.3,0.1-0.4,0.2
				c-3.8,2.6-8.3,3.7-12.8,4.7C54.3,71,49.2,71.9,44.1,72.7z"/>
			<path fill="#1A242D" d="M97.9,74.9c-0.5-0.1-1-0.3-1.5-0.5c-0.1,0-0.2-0.1-0.2,0c-0.1,0-0.2,0.2-0.2,0.3
				c-0.3,0.7-0.6,1.5-0.9,2.2c-0.1,0.3-0.3,0.7-0.4,1c0,0.1-0.1,0.1,0,0.2c0.1,0.4,1.3,1.1,1.7,1.5c0.4,0.5,0.4,0.8,1,1.1
				c1.4,0.7,4,0.1,5.4-0.4c1-0.4,2-0.9,2.6-1.8s0.7-2,0-2.6c-0.7-0.7-2.1-0.7-3.2-0.5C100.7,75.4,99.2,75.2,97.9,74.9z"/>
			<path fill="#63774E" d="M42,76.1c0.9,0.2,3.3-6.7,3.5-7.5c0.7-2.4,0.4-4.8,0.2-7.2c0.7,0,1.4,0.7,2,1.1c0.9,0.5,1.9,0.9,2.7,1.6
				c0.4,0.4,0.9,0.8,1.4,1c1.1,0.6,2.9-0.1,4.2,0c2.6,0.1,5.2,0.1,7.9,0.2c11.2,0.4,22.3,3.3,32.3,8.5c-0.5,1.8-0.7,3.6-0.5,5.5
				c-5.7-1.1-11.5-2.1-17.2-3.2c-2-0.4-4.1-0.8-6.1-0.8c-2.8,0-5.6,0.7-8.4,1.2C56.6,77.8,49.2,77.7,42,76.1z"/>
		</g>
		<path fill="#F6D2BA" d="M48.5,77.8c1.4-0.5,2.8-0.9,4.1-1.3c1-0.3,2.2-0.4,1.1,0.9c0,0,1.1,0.2,1.3,0.1c0.5,0,1-0.2,1.5,0
			c0.5,0.2,0.8,0.8,0.8,1.3c0,0.8-0.5,1.6-1.3,1.9c-3.1,1-6.5-0.1-9.6-1.3C46.6,78.3,47.6,78.2,48.5,77.8z"/>
		<g>
			<path fill="#F6D2BA" d="M1.6,71.6c-0.6-1.5-0.4-3.3,0.2-4.8c0.7-1.9,2.6-3,4.4-3.7c1.5-0.6,4.2-1.7,5.9-1.2
				c1.1,0.3,2.2,2.4,2.3,3.4c0,0.4,0.1,0.8,0.4,0.9c0.1,0.1,0.3,0.1,0.4,0.1c0.8,0.1,1.4-0.1,1.9-0.8c0.6-0.7,1.4-1.3,2.2-1.8
				c0.5-0.2,1-0.4,1.5-0.2c0.4,0.2,0.6,0.8,0.7,1.3c0.2,1.2,0.1,2.4-0.2,3.6c-0.1,0.4-0.2,0.8-0.4,1.1c-0.8,1.2-2.3,1.3-3.5,1.4
				c-3.4,0.3-6.1,2.8-9.5,3.5c-0.6,0.1-1.1,0.2-1.7,0.2c-0.5,0-1.1,0.2-1.5,0.1c-0.5-0.1-0.9-0.5-1.3-0.8
				C2.5,73.4,1.9,72.6,1.6,71.6z"/>
			<path fill="#3C2415" d="M1.1,66c-0.5,0.8-0.9,1.7-1.1,2.6c0,0.3-0.1,3,0.4,2.7c0.1,0,0.1-0.1,0.1-0.2C0.7,71,0.8,70.9,1,70.8
				c-0.4,0.5-0.3,1.2-0.2,1.8c1.5-0.4,2,1.7,3.1,2.3c0.9,0.6,2,0.9,3,0.9c2.5-0.1,4.5-1.8,6.5-3.2c0.3-0.2,0.6-0.4,0.8-0.7
				c0.3-0.4,0.2-0.9-0.2-1.2c-0.6-0.4,0.4-0.1-0.2-0.5c-0.1-0.1-0.2-0.1-0.3-0.1c-0.6-0.2-1.3-0.4-1.9-0.6c-0.5-0.2-0.7-0.2-1,0.4
				c-0.3,0.5-0.7,0.8-1.2,1c-0.1,0-0.3,0.1-0.4,0c-0.3-0.1-0.3-0.5-0.3-0.8c0.2-0.9,0.4-1-0.7-1c-0.6,0-1.9-1.5-2.5-2
				c-0.7-0.6-0.8-1.7-1.4-2.3C3.1,63.8,1.6,65.2,1.1,66z"/>
			<path fill="#FFFFFF" d="M18,64.4c0,0.3,0.4,0.4,0.6,0.5c0.2,0.2,0.4,0.5,0.5,0.8c0.2,0.6,0.3,1.3,0.1,1.9
				c-0.1,0.2-1.5,2.6-1.6,2.5c0.9,0.4,2,0.2,2.9,0.3c1,0.1,2.1,0.1,3.1,0.2c2,0.1,4.1,0.1,6.1,0.2c2,0,4.1,0.1,6.1,0.1
				c0.5,0,6,0.2,6.1,0c0.6-2.7,0.7-5.5,0.4-8.2c-1.8-0.1-3.6-0.2-5.4-0.2c-4.7-0.1-9.4,0.1-14.1,0.5c-1.1,0.1-2.2,0.2-3.2,0.5
				c-0.4,0.1-1.1,0.4-1.4,0.7C18,64.2,18,64.3,18,64.4z"/>
			<path fill="#63774E" d="M16.9,74.2c-0.2-0.5-0.4-1-0.6-1.5c-0.3-0.8-0.4-1.7,0.1-2.5c0.3-0.5,0.8-1,1.3-1.3
				c1.6-0.7,3.1-1.4,4.7-2.1c0.4-0.2,0.8-0.4,1.3-0.6c0.3-0.1,0.7-0.2,0.9-0.3c-1.3-0.4-2.7-0.5-4.1-0.7c-0.5-0.1-1-0.2-1.6-0.2
				c-0.5-0.1-1.9,0.3-2,0.9c0.3-1.8,0.2-3.5,1.4-5.1c1-1.2,2-1.1,3.3-0.8c1.7,0.3,3.6,0.4,5.4,0.6c4.7,0.5,9.5,0.8,14.2,1
				c0.8,0,1.7,0.1,2.5,0.4c0.3,0.1,0.8,0.3,1.1,0.6c0.2,0.2,0.3,0.6,0.4,0.9c0.2,0.4,0.5,0.6,0.7,1c1,1.5,0.2,4.5,0,6.2
				c-0.2,1.9-0.4,4.1-1.1,5.9c-0.8-0.1-1.4-0.4-2.2-0.6c-1-0.2-2.2-0.1-3.2-0.1c-2.1,0-4.3,0.2-6.4,0.3c-4.2,0.1-8,1.9-12.3,1.8
				c-1.1,0-2.8-0.2-3.3-1.3c-0.2-0.4-0.2-0.9-0.3-1.3C17.1,74.8,17,74.5,16.9,74.2z"/>
			<path fill="#6F825A" d="M26.4,65.8c-0.1,0-0.1,0-0.2,0c-1.3,0.1-2.2-0.1-3.5-0.4c-0.2,0-0.4-0.1-0.6-0.3c2.1,0.1,4-0.4,6.1-0.4
				c5.9-0.2,11.7,0.6,17.6,0.2c0.1,0,0.1,0,0.2,0c0,0,0.1,0.1,0.1,0.2c0,0.3,0,0.5-0.1,0.8c0,0.1,0,0.1-0.1,0.2c0,0-0.1,0-0.2,0
				c-1.2,0-2.5-0.2-3.7-0.2c-1.9-0.1-3.8-0.1-5.7-0.2c-1.9,0-3.8,0-5.7,0c-2.3-0.1-4.4,0.2-6.6,0.7c-0.4,0.1-0.7,0.2-1.1,0.2
				c0.4-0.5,1-0.8,1.6-0.9c-0.7,0-1.5-0.1-2.2-0.4"/>
			<path fill="#938C6C" d="M41.9,75.7c0.5,0.1,1.2,0.4,1.7,0.3c0.5-0.1,0.6-0.6,0.8-0.9c0.6-1.3,0.9-2.9,1.2-4.3
				c0.3-1.9,0.5-3.8,0.5-5.7c0-0.7,0-1.3-0.1-2c-0.1-0.5-0.4-1.9-1-2c-0.2,0-0.3,0-0.5,0c-0.7,0.1-1.3,0.2-2,0.3
				c0,0.4,0.2,0.9,0.3,1.3c0.1,0.5,0.3,1.1,0.4,1.6c0.1,0.7,0.1,1.5,0.1,2.2c-0.1,2.3-0.7,4.5-1.4,6.8c-0.2,0.5-0.3,1-0.5,1.5
				c-0.1,0.2-0.3,0.5-0.2,0.6c0.1,0.1,0.5,0.1,0.6,0.1C41.8,75.6,41.9,75.6,41.9,75.7z"/>
		</g>
		<path fill="#6F825A" d="M18.7,74.8c-3.1,1.9,1.9,4.6,3.5,5c1.8,0.5,3.5,1.4,5.3,1.8c2,0.5,4,1.2,6,1.4c2.3,0.2,4.6-0.1,6.8-0.5
			c1-0.2,2-0.3,3.1-0.5c1.2-0.2,2.4-0.4,3.6-0.6c0.9-0.2,3-0.2,3.4-1.1c-0.1-0.9-0.2-1.8-0.3-2.7c0-0.2-0.1-0.4-0.2-0.6
			c-0.2-0.3-0.7-0.4-1.1-0.3c-3.6,0.1-7.2,0.3-10.8,0.5c-0.8,0.1-1.7,0.1-2.5,0c-0.5-0.1-1-0.3-1.4-0.4c-1.7-0.6-3.5-1-5.1-1.7
			c-1.8-0.9-3.6-1.2-5.6-1.5c-1-0.2-2-0.3-3-0.1c-1,0.3-1.9,1-2,2"/>
	</g>
	<g>
		<path fill="#1A242D" d="M129.3,75.5c0.2-1,0.5-2,0.4-2c1.2,0.2,2.2-0.2,3.4,0.2c0.3,0.1,0.6,0.3,0.9,0.5c0.2,0.3,0.3,0.6,0.3,0.9
			c0.2,1.6,0.1,3.3-0.5,4.8c-0.4,1-0.9,2-1.8,2.6c-0.8,0.6-2,0.7-2.6,0c-0.7-0.7-0.7-2.1-0.6-3.2c0.1-0.6,0.2-1.2,0-1.7
			C128.8,77.5,129.1,76.5,129.3,75.5z"/>
		<g>
			<path fill="#1A242D" d="M75.4,79.5c0.7,0,1.3,0,1.8,0.4c0.7,0.6,0.9,1.5,0.9,2.3c0,0.3,0,0.7-0.2,1c-0.2,0.3-0.4,0.5-0.7,0.6
				c-1.2,0.8-2.7,1.2-4.2,1.3c-1,0-2-0.1-2.7-0.7s-1.2-1.6-0.9-2.5c0.4-0.9,1.5-1.4,2.5-1.7c0.5-0.2,1-0.2,1.4-0.6
				c0.1-0.1,0.2-0.2,0.3-0.2c0.2-0.1,0.5,0,0.7,0C74.8,79.5,75.1,79.5,75.4,79.5z"/>
			<path fill="#596846" d="M72.9,74.8c0.1,1.5,0.1,3.8,0.1,5.3c0,0.3,4.2,0.6,4.7,0.2c0.7-0.6,0.6-2.5,0.8-3.3
				c0.2-1.2,0.5-2.4,0.8-3.5c0.5-2.4,0.8-4.9,0.8-7.3c0-0.7,0-1.4-0.1-2.1c-0.1-0.8-0.3-1.6-0.4-2.4c0.1,0.3,7-0.8,7.4-0.8
				c2.5-0.4,5.1-0.6,7.6-1.2c2.2-0.5,4.1-0.5,3.4-3.2c-0.6-2.5-2-8.1-5.2-8.3c-1.4-0.1-2.5,1.4-3.7,2c-2,1-4.4,1.4-6.5,2
				c-2.4,0.7-4.8,1.5-7.2,2.3c-0.6,0.2-1.3,0.5-1.8,0.9c-1.4,1.2-1.5,3.2-1.3,4.9c0.2,2.1,0.2,4.2,0.3,6.3
				C72.6,69.2,72.8,72,72.9,74.8z"/>
			<path fill="#6B7F54" d="M114.8,77.9c-2.1,0.4-4.2,0.7-6.4,0.9c-0.9,0.1-1.8,0.2-2.6-0.1c-1.5-0.5-2.2-1.9-2.9-3.2
				c-1-1.6-1.6-3.3-2.2-5c-0.9-2.8-1.9-5.6-2.8-8.4c-0.2-0.5-0.3-1-0.6-1.4c-0.3-0.5-0.8-0.9-1.3-1.2c-2.6-2.2-4.4-5.6-4.1-9
				c0.1-1.3,0.7-1.9,1.8-2c1-0.1,1.9-0.3,3-0.6c1.9-0.6,4.2-1.1,5.9,0.4c0.4,0.4,0.8,0.9,1.1,1.4c2,2.9,3.8,6.5,4.4,9.9
				c0,0.3,0.1,0.5,0.1,0.8c0.4,2.8,0.2,5.7,0.9,8.6c0.1,0.6,0.4,2.5,1,2.8c0.3,0.2,1.4-0.3,1.8-0.4c0.7-0.1,1.3-0.3,2-0.4
				c4.9-0.8,11-0.2,15.6,2.2c0.1,0.1,0.3,0.1,0.3,0.3c0,0.1,0,0.2,0,0.3c0,0.9,0,1.7,0,2.6c0,0.1,0,0.3-0.1,0.4
				c-0.1,0.1-0.3,0.1-0.5,0.1c-2.2,0-4.5-0.2-6.7,0c-0.4,0-0.8,0.1-1.2,0.1C119.2,77.2,117,77.4,114.8,77.9z"/>
			<g>
				<g>
					<path fill="#8B5E3C" d="M79.2,16.8c-1-2.4-1.4-4.7,0.6-7c1-1.2,2.5-1.9,4-2.2c0.8-0.2,1.7-0.3,2.6,0c1.1,0.3,2,1,2.8,1.8
						c1.4,1.6,3,4.1,2.9,6.3c-0.1,0.8-1.5,1.9-1,2.5c0.7,0.8,1.6,2.3,2.2,3.4c0.1,0.2,0.1,0.6,0.3,0.7c0.2,0.1,0.4,0.1,0.6,0.1
						c0.6,0.1,1.1,0.6,1.3,1.2c0.5,1.1,0.2,2.7,0,3.8c-0.1,0.6-0.4,1.3-0.8,1.8c-0.1,0.1-0.2,0.2-0.3,0.2c-0.1,0-0.2,0-0.3-0.1
						c-1-0.5-1.8-1.4-2.8-2c-0.6-0.4-1.5-0.4-1.9-1.1c-0.1-0.2-0.1-0.5-0.2-0.8c-0.1-1,0-4.3-2.1-3.4c-0.7,0.3-1.3,0.6-2,0.9
						c-2.6,1.1-4.3-2.7-5.2-4.5C79.7,17.8,79.4,17.3,79.2,16.8z"/>
					<path fill="#3C2415" d="M90,19.1c-0.8,0.1-1.7-0.1-2.5-0.5c-0.7-0.4-1.4-1.5-1.2-2.4c0.2-0.6,0.2-1.3-0.1-1.9
						c-0.2-0.4-0.7-0.7-1.1-0.5c-0.6,0.3-0.5,1-0.7,1.5c-0.4,1.2-1.5,0.5-2.3,0.4c-0.3,0-0.6,0-0.8,0.1c-0.6,0.1-1.3,0.3-1.9,0.4
						c-0.1,0-0.2,0-0.2,0.1c0,0.1,0,0.2,0,0.3c0.1,0.2,0.2,0.5,0.3,0.7C77.3,16,76,13,77.5,10.7c0.5-0.8,1.2-1.4,1.7-2.2
						c0.9-1.7,3.7-2.7,5.6-2.7c2.9,0,5.3,2,6.8,4.2c0.5,0.7,0.8,1.5,1.2,2.2c0.6,1.4,1.1,3,0.9,4.5c-0.1,0.7-0.6,1.2-1.2,1.5
						c-0.7,0.2-1.3,0.6-2,0.8C90.2,19.1,90.1,19.1,90,19.1z"/>
					<path d="M88.1,5.1c0-0.1,0-0.1,0-0.2c-0.4,0.1-0.7,0.3-1,0.5c-0.2,0.1-0.4,0.3-0.6,0.4c-0.5,0.5-0.4,1.5,0,2.1s1.2,0.9,2,0.9
						c0.1,0,0.3,0,0.4-0.1c0.5-0.2,0.7-0.8,0.6-1.3s-0.5-1-0.8-1.4c-0.2-0.3-0.5-0.6-0.7-0.9C88.1,5,88.2,5,88.1,5.1"/>
					<path fill="#3C2415" d="M90.1,9.2c-0.3-0.5-0.6-1-1-1.4c-1.3-1.4-3.2-2.8-2.8-4.9c0.3-1.9,3.1-3.1,4.8-2.8
						c1.8,0.3,3.3,1.5,4.1,3.1c0.4,0.8,0.7,1.6,0.7,2.5c0.1,0.9,0,2,0.8,2.7c0.7,0.5,1.7,0.5,2.4,1c1,0.7,1.1,2.2,2.1,2.9
						c0.6,0.4,1.5,0.4,2.1,1c0.6,0.6,0.9,1.7,1.2,2.5c-0.1-0.3-1.8-0.4-2.1-0.4c-0.5,0.1-1.1,0.5-1.6,0.7c-1.3,0.5-2.8,1-4.1,0.3
						c-1-0.6-1.5-1.7-2.5-2.3c-0.7-0.4-1.7-0.4-2.3-0.9c-0.9-0.7-0.9-1.9-1.3-2.8C90.5,9.9,90.3,9.5,90.1,9.2z"/>
				</g>
				<path fill="#8B5E3C" d="M69,48.9c-0.8,1.2-2.2,1.6-3.1,2.7c-0.7,0.8-1.6,1.5-1.4-0.1c0,0-1,0.5-1.1,0.6
					c-0.4,0.3-0.7,0.7-1.2,0.8c-0.5,0.1-1.1-0.2-1.4-0.7c-0.5-0.7-0.6-1.6,0-2.3c1.9-2.5,5.4-3.3,8.6-4C69.8,46.9,69.6,48.1,69,48.9
					z"/>
				<path fill="#566345" d="M73.2,41.3c1.8-1.2,4.2-2.2,5.5-4c0.1-0.1,0.2-0.3,0.3-0.4c1.2-1.6,1.9-3.3,2.9-5.1
					c1.2-2.1,2.4-4.1,3.7-6.1c0.6-1,1.1-1.7,2.2-2.3c0.1-0.1,0.2-0.1,0.4-0.1c0.3,0,0.3,0.4,0.3,0.7c-0.1,1.5-0.6,2.9-0.7,4.5
					c0,1.8-0.1,3.6-0.1,5.4c0,0.5,0,0.9-0.2,1.3c-0.2,0.4-0.5,0.6-0.8,0.8c-1.5,1.4-2.3,3.2-3.6,4.8c-1.2,1.5-2.9,2.4-4.4,3.7
					c-1.7,1.3-3.3,2.4-5.3,3.3c-1.8,0.9-3.6,1.7-5.4,2.6c0-0.1,0.2,0,0.1-0.1c-0.6-1.4-1.3-2.8-2.1-4.1c0.7-0.4,1.4-0.8,2.1-1.3
					C69.8,43.6,71.4,42.4,73.2,41.3z"/>
				<path fill="#FFFFFF" d="M88.7,24c0.3,0,0.4,0.4,0.5,0.6c0.2,0.4,0.4,0.7,0.6,1c0.2,0.3,0.5,0.7,0.9,0.8c0.3,0,0.6-0.2,0.8-0.4
					c0.6-0.5,1.1-1.1,1.7-1.7c0.1-0.1,1.1-1.3,1.2-1.2c0.5,0.8,0.4,2,0.5,2.9c0.1,1,0.3,2,0.4,3.1c0.2,2,0.5,4.1,0.6,6.1
					c0.2,2,0.4,4.1,0.5,6.1c0,0.5,0.7,6,0.5,6.1c-2.6,0.8-5.4,1.1-8.2,1c-0.2-1.8-0.4-3.6-0.6-5.3c-0.4-4.7-0.6-9.4-0.6-14.1
					c0-1.1,0-2.2,0.3-3.3c0.1-0.4,0.3-1.1,0.6-1.4C88.5,24.1,88.6,24,88.7,24z"/>
				<path fill="#63774E" d="M100.7,23.3c-1.7-0.7-3.5-1.1-5.3-1.4c-0.6-0.1-1.3-0.1-1.7,0.3c-0.2,0.3-0.3,0.6-0.4,1
					c0.2,1.5-0.7,2.8-1.4,4c-0.6,1.1-0.9,2.1-1.3,3.3c-0.5-1.3-0.7-2.7-1-4c-0.2-1.1-0.6-2.3-0.5-3.4c0-0.1-1.1,0.5-1.2,0.6
					c-0.3,0.3-0.5,1-0.7,1.4c-0.2,0.6-0.3,1.3-0.3,2c-0.1,2.6-2.3,4.5-1.7,7.2c0.3,1.1,0.9,2,1.2,3.1c0.3,1.3,0.9,2.5,1.2,3.9
					c0.3,1.5-0.1,2.9-0.1,4.4c0,1.4,0.1,2.9,0.2,4.3c0.1,1.4-0.1,1.9,1.4,2.1c2.6,0.3,5.3-0.1,7.8-0.5c1.9-0.4,4-0.9,5.8-1.6
					c-1.7-5.3-1-10.7-1.4-16c-0.2-3.5-0.5-6.9-0.7-10.4"/>
				<path fill="#6F825A" d="M90.8,32.3c0-0.1,0-0.1,0-0.2c0-1.3-0.2-2.2-0.6-3.5c-0.1-0.2-0.1-0.4-0.3-0.5c0.3,2,0,4.1,0.1,6.1
					c0.3,5.9,1.5,11.7,1.5,17.6c0,0.1,0,0.1,0,0.1c0,0,0.1,0.1,0.2,0.1c0.3,0,0.5,0,0.8-0.1c0.1,0,0.1-0.1,0.2-0.1c0,0,0-0.1,0-0.2
					c-0.1-1.2-0.4-2.4-0.5-3.6c-0.2-1.9-0.4-3.8-0.6-5.6c-0.2-1.9-0.3-3.8-0.4-5.7c-0.2-2.3-0.2-4.4,0.2-6.6
					c0.1-0.4,0.1-0.8,0.1-1.1c-0.4,0.5-0.7,1-0.8,1.7c-0.1-0.7-0.3-1.5-0.5-2.1"/>
				<g>
					<path fill="#8B5E3C" d="M92.7,43.4c-1.4-0.4-2.8,0.2-4.2-0.1c-1.1-0.2-2.2-0.1-1,1.1c0,0-1.1,0.3-1.3,0.3c-0.5,0-1-0.1-1.4,0.2
						c-0.5,0.3-0.7,0.9-0.7,1.5c0.1,0.9,0.7,1.7,1.5,1.8c3.2,0.7,6.4-0.9,9.4-2.5C94.6,44.5,93.7,43.7,92.7,43.4z"/>
					<path fill="#6F825A" d="M100.7,24.4c2.5,2.4,3.5,6,4.2,9.4c0.4,2.1,0.8,4.2,1,6.4c0.5,4-5.6,5.2-8.3,6c-1.9,0.6-4,0.6-5.9,1.3
						c-0.6-1.3-0.8-1.8-1.1-3.2c-0.1-0.3-0.1-0.6,0.1-0.8c0.1-0.1,0.3-0.2,0.4-0.3c0.9-0.4,10.1-3.4,9.9-4.3
						c-0.7-3.3-2.1-6.4-3.3-9.5c-0.7-1.7-2.3-4.7-0.3-6c2.5-1.6,4.8,1.9,5.2,4"/>
				</g>
				<path fill="#938C6C" d="M102.5,46.9c0.1,0.3,0.2,0.7,0.4,1.1c0.1,0.1,0.5,0.5,0.3,0.7c-0.2,0.2-0.4,0.3-0.6,0.5
					c-0.7,0.5-1.5,0.7-2.3,1c-0.9,0.3-1.9,0.6-2.9,0.9c-1.9,0.5-3.8,0.8-5.8,1c-0.7,0-1.4,0.1-2,0.1c-0.5,0-1.5-0.2-1.8-0.6
					c-0.2-0.2-0.2-0.5-0.2-0.8c0-0.6,0-1.2,0-1.7c0.1,0,1.6,0,1.6,0c0.5,0,1,0.2,1.5,0.2c0.8,0,1.5,0,2.3-0.1
					c3.1-0.4,5.8-1.4,8.4-2.8c0.2-0.1,0.4-0.4,0.7-0.3C102.3,46,102.4,46.7,102.5,46.9z"/>
				<path fill="#566345" d="M90.8,37.1c1,0,1.9-0.1,2.9-0.3c0.7-0.1,1.4-0.1,2.1-0.4c-0.6,0.2-1,0.7-1.6,0.9c-0.6,0.3-1.3,0.7-2,1
					c-1.3,0.5-2.7,0.7-4,0.9c-0.2,0-0.4,0-0.6,0c-0.5-0.1-0.8-0.7-0.9-1.2c-0.1-0.4-0.2-0.9-0.4-1.3c-0.2-0.4-0.4-0.8-0.6-1.2
					c0-0.1-0.1-0.2-0.1-0.2c0.8,0.6,1.6,1.4,2.6,1.6C89.2,36.9,90,37,90.8,37.1C90.8,37.1,90.8,37.1,90.8,37.1z"/>
				<g>
					
						<rect x="86.7" y="31.8" transform="matrix(-0.9942 0.1076 -0.1076 -0.9942 176.603 54.1076)" fill="#BCBEC0" width="0.3" height="0.1"/>
					<path fill="#D1D3D4" d="M86.7,31.8l0.2,0c0,0,0,0,0-0.1l0-0.1l-0.3,0L86.7,31.8C86.7,31.8,86.7,31.8,86.7,31.8z"/>
					<g>
						<path fill="#E6E7E8" d="M87.1,33.4l0.1-0.1c0-0.1-0.1-0.1-0.2-0.1c0,0,0,0-0.1,0l-0.1,0.1c0,0,0,0,0.1,0.1
							C87,33.3,87,33.3,87.1,33.4z"/>
					</g>
					<g>
						<path fill="#E6E7E8" d="M87,32.4C87,32.4,87,32.4,87,32.4c0.1,0,0.1-0.1,0.1-0.1c-0.1-0.1-0.2-0.1-0.3-0.1c0,0-0.1,0-0.1,0
							c0,0,0,0.1,0,0.1C86.8,32.3,86.9,32.3,87,32.4C87,32.4,87,32.4,87,32.4z"/>
					</g>
					<path fill="#BCBEC0" d="M86.7,31.7l0.2,0c0,0,0.1,0,0.1-0.1l0,0L86.7,31.7L86.7,31.7C86.6,31.7,86.7,31.7,86.7,31.7z"/>
					<path fill="#D1D3D4" d="M87,33.9c0,0.1,0.1,0.1,0.1,0.1c0,0,0,0,0,0L87,31.9l-0.2,0L87,33.9C87,33.8,87,33.8,87,33.9z"/>
					<g>
						<path fill="#E6E7E8" d="M87,33.8C87,33.8,87,33.7,87,33.8c0-0.1,0.1-0.1,0.1-0.1c0.1-0.1,0.2-0.2,0.1-0.4c0,0,0,0,0,0l-0.1,0
							c0,0,0,0.1-0.1,0.3c0,0,0,0,0,0.1c0,0,0,0,0,0.1c0,0.1,0.1,0.1,0.1,0.2C87,33.9,87,33.8,87,33.8z"/>
					</g>
					<g>
						<path fill="#E6E7E8" d="M87,32.5c0,0.1-0.1,0.1-0.1,0.2c0,0,0,0,0,0c-0.1,0.1-0.2,0.2-0.1,0.4c0,0,0,0.1,0.1,0.1l0,0l0-0.1
							c0,0,0,0,0,0c0-0.1,0-0.2,0.1-0.3c0,0,0,0,0,0c0.1-0.1,0.1-0.3,0.1-0.4c0,0,0,0,0,0L87,32.3"/>
						<path fill="#E6E7E8" d="M87,32.3c0,0,0,0.1,0,0.1"/>
					</g>
					<g>
						<path fill="#E6E7E8" d="M87.2,31.8c-0.1,0-0.1,0-0.2,0c-0.1,0-0.2,0-0.4,0c0,0-0.1,0-0.1,0c0,0,0,0,0,0c0,0-0.1,0.1-0.1,0.1
							c0,0,0,0.1,0,0.1c0,0,0,0,0.1,0c0,0,0.1,0,0.1,0c0,0,0.1,0,0.1,0l0-0.1l0-0.1c0,0-0.1,0-0.1,0c0,0-0.1,0-0.1,0c0,0,0,0,0,0
							c0,0,0,0,0,0l0,0c0,0,0,0,0.1,0c0,0,0.1,0,0.1,0c0.1,0,0.2,0,0.3,0c0,0,0.1,0,0.1,0c0,0,0,0,0,0l0,0l0,0c0,0,0,0,0,0
							C87.2,31.9,87.2,31.9,87.2,31.8C87.2,31.9,87.2,31.9,87.2,31.8z"/>
					</g>
					
						<ellipse transform="matrix(-0.9942 0.1076 -0.1076 -0.9942 177.5658 54.1986)" fill="#E6E7E8" cx="87.3" cy="31.9" rx="0.2" ry="0.1"/>
					<path fill="#D1D3D4" d="M87.3,31.2c0,0.2-0.2,0.4-0.4,0.4s-0.4-0.1-0.5-0.3c0,0,0.4,0,0.5,0C86.9,31.3,87.3,31.2,87.3,31.2z"/>
				</g>
			</g>
		</g>
	</g>
</g>
</svg>
