<?xml version="1.0" encoding="utf-8"?>
<!-- Generator: Adobe Illustrator 19.1.0, SVG Export Plug-In . SVG Version: 6.00 Build 0)  -->
<svg version="1.1" id="Layer_1" xmlns="http://www.w3.org/2000/svg" xmlns:xlink="http://www.w3.org/1999/xlink" x="0px" y="0px"
	 viewBox="0 0 63.6 122.2" enable-background="new 0 0 63.6 122.2" xml:space="preserve">
<g>
	<g>
		<g>
			<path d="M7.3,121.4c-3.1,0-5.5-2.5-5.5-5.5L1.6,6.4c0-1.5,0.6-2.9,1.6-3.9c1-1,2.4-1.6,3.9-1.6l49.2-0.1c3.1,0,5.6,2.5,5.6,5.5
				l0.2,109.5c0,1.5-0.6,2.9-1.6,3.9c-1,1-2.4,1.6-3.9,1.6l-6.6,0l-0.2-0.2c-0.4-0.4-1-0.6-1.7-0.6c-0.7,0-1.3,0.2-1.7,0.6l-0.2,0.2
				l-27.9,0.1l-0.2-0.2c-0.4-0.4-1-0.6-1.7-0.6c-0.7,0-1.3,0.2-1.7,0.6l-0.2,0.2L7.3,121.4z"/>
			<path fill="#414042" d="M56.3,1.5c2.6,0,4.8,2.1,4.8,4.8l0.2,109.5c0,2.6-2.1,4.8-4.8,4.8l-6.4,0c-0.6-0.5-1.3-0.8-2.2-0.8
				c0,0,0,0,0,0c-0.9,0-1.7,0.3-2.2,0.8l-27.3,0.1c-0.6-0.5-1.3-0.8-2.2-0.8c0,0,0,0,0,0c-0.9,0-1.7,0.3-2.2,0.8l-6.7,0c0,0,0,0,0,0
				c-2.6,0-4.8-2.1-4.8-4.8L2.3,6.4c0-2.6,2.1-4.8,4.8-4.8L56.3,1.5C56.3,1.5,56.3,1.5,56.3,1.5 M56.3,0L56.3,0L56.3,0L7.1,0.1
				c-3.5,0-6.3,2.8-6.3,6.3L1,115.9c0,3.5,2.8,6.3,6.3,6.3l6.8,0l0.6,0l0.4-0.4c0.3-0.3,0.7-0.4,1.2-0.4c0.5,0,0.9,0.1,1.2,0.4
				l0.4,0.4l0.6,0l27.3-0.1l0.6,0l0.4-0.4c0.3-0.3,0.7-0.4,1.2-0.4c0.5,0,0.9,0.1,1.2,0.4l0.4,0.4l0.6,0l6.4,0
				c3.5,0,6.3-2.8,6.3-6.3L62.6,6.3C62.6,2.8,59.8,0,56.3,0L56.3,0z"/>
		</g>
		<g>
			<path fill="#1CA36D" d="M23.4,74.6c-2.2-0.9-3.6-4.8-2.7-7c0.9-2.2,3.5-4.6,5.6-3.7c1.6,0.7,3.7,1.3,4,0.7L37,49
				c0.3-0.6-1.8-1.5-3.4-2.2c-2.2-0.9-2.2-4.6-1.3-6.8c0.9-2.2,4.4-3.8,6.6-2.9c5.2,2.2,8.3,9.5,5.9,15.1L38.3,68
				C35.9,73.6,28.7,76.8,23.4,74.6z"/>
		</g>
		<g>
			<polygon opacity="0.56" fill="#939598" points="61.1,30.8 2.5,87.7 2.5,100.6 61.2,43.7 			"/>
		</g>
		<g>
			<path opacity="0.56" fill="#939598" d="M2.5,112.3l0,3.7c0,0.2,0,0.4,0.1,0.6l58.6-56.7l0-4.3L2.5,112.3z"/>
		</g>
	</g>
	<circle fill="#414042" stroke="#58595B" stroke-width="0.6071" stroke-miterlimit="10" cx="54.3" cy="7.7" r="2.3"/>
	<path fill="#414042" d="M63.1,29l-1.3,0c-0.3,0-0.5-0.2-0.5-0.5l0-8.3c0-0.3,0.2-0.5,0.5-0.5l1.3,0c0.3,0,0.5,0.2,0.5,0.5l0,8.3
		C63.6,28.8,63.4,29,63.1,29z"/>
	<path fill="#414042" d="M1.6,45.9l-1.1,0c-0.2,0-0.4-0.2-0.4-0.4l0-6.7c0-0.2,0.2-0.4,0.4-0.4l1.1,0c0.2,0,0.4,0.2,0.4,0.4l0,6.7
		C1.9,45.7,1.8,45.9,1.6,45.9z"/>
	<path fill="#414042" d="M1.3,32.9l-0.7,0c-0.3,0-0.6-0.3-0.6-0.6l0-15.7c0-0.3,0.3-0.6,0.6-0.6l0.7,0c0.3,0,0.6,0.3,0.6,0.6l0,15.7
		C1.9,32.7,1.7,32.9,1.3,32.9z"/>
	<path fill="#414042" d="M38.4,3.5l-12.8,0c-0.1,0-0.3-0.1-0.3-0.3l0-0.4c0-0.1,0.1-0.3,0.3-0.3l12.8,0c0.1,0,0.3,0.1,0.3,0.3l0,0.4
		C38.7,3.4,38.6,3.5,38.4,3.5z"/>
</g>
</svg>
