<?xml version="1.0" encoding="utf-8"?>
<!-- Generator: Adobe Illustrator 19.1.0, SVG Export Plug-In . SVG Version: 6.00 Build 0)  -->
<svg version="1.1" id="Layer_1" xmlns="http://www.w3.org/2000/svg" xmlns:xlink="http://www.w3.org/1999/xlink" x="0px" y="0px"
	 viewBox="0 0 80 58.9" enable-background="new 0 0 80 58.9" xml:space="preserve">
<g>
	<g>
		<ellipse fill="#FFFFFF" cx="18.1" cy="13.6" rx="18.1" ry="13.6"/>
		<path fill="#FFFFFF" d="M31.3,19.7c0.5-0.4,1.2-0.2,1.3,0.4l0.7,3.1l0.7,3.1c0.1,0.6-0.4,1.1-1,0.9l-3-1l-3-1
			c-0.6-0.2-0.8-1-0.3-1.4l2.3-2.1L31.3,19.7z"/>
	</g>
	<g>
		<g>
			<path d="M56,58.3c-0.4,0-0.9-0.1-1.2-0.4l-2.3-1.4l-0.1-0.2c0-0.1-0.1-0.3-0.3-0.3c-0.1-0.1-0.3-0.1-0.3-0.1l-0.2,0l-0.3-0.1
				l-8.6-5.4l-0.1-0.2c0-0.1-0.1-0.3-0.3-0.3c-0.1-0.1-0.3-0.1-0.3-0.1l-0.2,0l-0.3-0.1l-2-1.2c-0.5-0.3-0.9-0.8-1-1.5
				c-0.1-0.6,0-1.2,0.3-1.8L60,11.6c0.4-0.7,1.2-1.1,2-1.1c0.4,0,0.9,0.1,1.2,0.4l15.1,9.5c0.5,0.3,0.9,0.8,1,1.5
				c0.1,0.6,0,1.2-0.3,1.8L58,57.2C57.5,57.9,56.8,58.3,56,58.3z"/>
			<path fill="#F1F2F2" d="M62,11.1c0.3,0,0.6,0.1,0.9,0.3L78,20.8c0.8,0.5,1.1,1.6,0.5,2.4L57.5,56.9c-0.3,0.5-0.9,0.8-1.5,0.8
				c-0.3,0-0.6-0.1-0.9-0.3L53,56.1c-0.1-0.3-0.3-0.5-0.5-0.7c-0.2-0.1-0.5-0.2-0.7-0.2c-0.1,0-0.1,0-0.2,0L43.2,50
				c-0.1-0.3-0.3-0.5-0.5-0.7c-0.2-0.1-0.5-0.2-0.7-0.2c-0.1,0-0.1,0-0.2,0l-2-1.2c-0.8-0.5-1.1-1.6-0.5-2.4l21.1-33.7
				C60.8,11.4,61.4,11.1,62,11.1 M62,9.9L62,9.9c-1,0-1.9,0.5-2.5,1.4L38.4,44.9c-0.9,1.4-0.4,3.2,0.9,4l2,1.2l0.4,0.2l0.4-0.1
				l1-0.6l-1,0.7l0.1,0.4l0.4,0.2l8.4,5.3l0.4,0.2l0.4-0.1l0,0l0.1,0.4l0.4,0.2l2.1,1.3c0.5,0.3,1,0.4,1.6,0.4c1,0,1.9-0.5,2.5-1.4
				l21.1-33.7c0.9-1.4,0.4-3.2-0.9-4l-15.1-9.5C63,10,62.5,9.9,62,9.9L62,9.9z"/>
		</g>
		<circle fill="#414042" stroke="#58595B" stroke-width="0.2203" stroke-miterlimit="10" cx="62.3" cy="13.6" r="0.8"/>
		<path fill="#F1F2F2" d="M54.8,18l0.4,0.3c0.1,0.1,0.2,0,0.3-0.1l1.7-2.8c0.1-0.1,0-0.2-0.1-0.3l-0.4-0.3c-0.1-0.1-0.2,0-0.3,0.1
			l-1.7,2.8C54.7,17.8,54.7,17.9,54.8,18z"/>
		<path fill="#F1F2F2" d="M71.7,36.3l0.4,0.2c0.1,0,0.2,0,0.2,0l1.4-2.2c0-0.1,0-0.2,0-0.2l-0.4-0.2c-0.1,0-0.2,0-0.2,0l-1.4,2.2
			C71.6,36.1,71.6,36.2,71.7,36.3z"/>
		<path fill="#F1F2F2" d="M74.4,32l0.2,0.2c0.1,0.1,0.2,0,0.3-0.1l3.2-5.2c0.1-0.1,0-0.2-0.1-0.3l-0.2-0.2c-0.1-0.1-0.2,0-0.3,0.1
			l-3.2,5.2C74.3,31.8,74.3,32,74.4,32z"/>
		<path fill="#BCBEC0" d="M68,15.4l3.9,2.5c0,0,0.1,0,0.1,0l0.1-0.1c0,0,0-0.1,0-0.1l-3.9-2.5c0,0-0.1,0-0.1,0L68,15.2
			C68,15.3,68,15.3,68,15.4z"/>
		<g opacity="0.5">
			<polygon fill="#939598" points="55.8,19.4 62.9,48.2 60.4,52.2 53.3,23.4 			"/>
		</g>
		<g opacity="0.5">
			<path fill="#939598" d="M58.2,55.7l-0.7,1.1c0,0.1-0.1,0.1-0.1,0.2l-7.1-28.7L51,27L58.2,55.7z"/>
		</g>
	</g>
</g>
</svg>
