<?xml version="1.0" encoding="utf-8"?>
<!-- Generator: Adobe Illustrator 19.1.0, SVG Export Plug-In . SVG Version: 6.00 Build 0)  -->
<svg version="1.1" id="Layer_1" xmlns="http://www.w3.org/2000/svg" xmlns:xlink="http://www.w3.org/1999/xlink" x="0px" y="0px"
	 viewBox="0 0 104.9 104.5" enable-background="new 0 0 104.9 104.5" xml:space="preserve">
<g>
	<defs>
		<rect id="SVGID_17_" x="-278.5" y="-117.5" width="233.8" height="493.7"/>
	</defs>
	<clipPath id="SVGID_2_">
		<use xlink:href="#SVGID_17_"  overflow="visible"/>
	</clipPath>
	<use xlink:href="#SVGID_17_"  overflow="visible" fill="none" stroke="#BCBEC0" stroke-miterlimit="10"/>
</g>
<g>
	<defs>
		<rect id="SVGID_28_" x="-76.7" y="-689" width="233.8" height="493.7"/>
	</defs>
	<clipPath id="SVGID_4_">
		<use xlink:href="#SVGID_28_"  overflow="visible"/>
	</clipPath>
	<g clip-path="url(#SVGID_4_)">
		<polygon fill="#C3D7DC" points="125.2,328 -77.5,328 -77.4,-326 -68.5,-332.6 -47.7,-350.9 157.5,-350.9 157.9,302.1 		"/>
		<g>
			<path fill="#0F2849" d="M5.4,9.9v0.9l-1.9,4.7H2.5l1.9-4.8h-3V8.3h1v1.5H5.4z"/>
			<path fill="#0F2849" d="M6.5,11L6.4,9.9h1.1L7.6,11v4.5H6.5V11z"/>
			<path fill="#0F2849" d="M8.6,14.7H10c0.5,0,0.8-0.1,1.1-0.4s0.3-0.7,0.3-1.2v-0.7c0-0.5-0.1-0.9-0.3-1.2s-0.6-0.4-1.1-0.4H8.6
				V9.9h1.7c0.7,0,1.3,0.2,1.6,0.7c0.4,0.4,0.6,1.1,0.6,1.9V13c0,0.8-0.2,1.4-0.6,1.9c-0.4,0.4-0.9,0.7-1.6,0.7H8.6V14.7z"/>
			<path fill="#0F2849" d="M13.7,11l-0.1-1.2h1.1l0.1,1.2v1.5l0,0.6l-1.1,0.2V11z"/>
			<path fill="#0F2849" d="M21.8,15.5l-2.1-3.2l-1,3.2h-1l1.1-3.4l0.3-0.7l-0.9-1.5h1.1l0.8,1.4l0.8,1.3l0.3-0.9l0.5-1.7h1l-1.2,3.5
				l1.4,2.1H21.8z"/>
			<path fill="#0F2849" d="M27.7,9.9v0.9l-1.9,4.7h-1.1l1.9-4.8h-3V8.3h1v1.5H27.7z"/>
			<path fill="#0F2849" d="M35.1,9.9c0,1.3-0.1,2.4-0.2,3s-0.4,1.2-0.8,1.6c-0.4,0.4-1,0.7-1.9,0.9l-1.9,0.4L30.3,15l1.7-0.3
				l-1.2-4.8h1.1l1.1,4.5c0.4-0.2,0.6-0.4,0.8-0.7c0.2-0.3,0.3-0.7,0.3-1.2c0-0.5,0.1-1.2,0.1-2.2V9.9H35.1z"/>
			<path fill="#0F2849" d="M36.3,11l-0.1-1.2h1.1l0.1,1.2v4.5h-1.1V11z"/>
			<path fill="#0F2849" d="M41.5,13.1l1.4,2.4h-1.1h-3.4v-0.8h3l-2.8-4.8h1.1l1.3,2.2l0.9-2.2h1.1L41.5,13.1z"/>
			<path fill="#0F2849" d="M44,14.7h1.8c0.5,0,0.8-0.1,1.1-0.4c0.3-0.3,0.4-0.7,0.4-1.3v-0.7c0-0.5-0.1-0.9-0.3-1.2
				c-0.2-0.3-0.5-0.4-1-0.4h-0.9l-0.2,1c0,0.2,0,0.3,0,0.4c0,0.2,0.1,0.4,0.2,0.5c0.1,0.1,0.3,0.2,0.6,0.2l-0.2,0.7
				c-0.5,0-0.9-0.2-1.1-0.4s-0.4-0.5-0.4-1c0-0.2,0-0.4,0.1-0.5l0.4-1.7h1.9c0.7,0,1.2,0.2,1.6,0.7s0.6,1.1,0.6,1.9v0.6
				c0,0.8-0.2,1.5-0.6,1.9c-0.4,0.4-1,0.6-1.7,0.6h-2V14.7z"/>
			<path fill="#0F2849" d="M49.4,12.8l0.2-0.7h0.9v3.4h-1.1V12.8z M52.8,11.7c0-0.4-0.1-0.6-0.2-0.8c-0.2-0.2-0.4-0.2-0.7-0.2h-2.5
				V9.9h2.7c0.5,0,0.9,0.1,1.3,0.5c0.3,0.3,0.4,0.8,0.4,1.4v3.8h-1.1V11.7z"/>
			<path fill="#0F2849" d="M61.2,10.3c0.3,0.3,0.5,0.8,0.5,1.4v3.8h-1.1h-3.3h-0.3V9.9h1.1H60C60.5,9.9,60.9,10,61.2,10.3z
				 M60.6,14.7v-3c0-0.4-0.1-0.6-0.2-0.8c-0.2-0.2-0.4-0.2-0.7-0.2h-1.6v4H60.6z"/>
			<path fill="#0F2849" d="M66.7,15.5l-2.1-3.2l-1,3.2h-1l1.1-3.4l0.3-0.7L63,9.9h1.1l0.8,1.4l0.8,1.3l0.3-0.9l0.5-1.7h1l-1.2,3.5
				l1.4,2.1H66.7z"/>
			<path fill="#0F2849" d="M68.9,11l-0.1-1.2h1.1l0.1,1.2v4.5h-1.1V11z"/>
			<path fill="#0F2849" d="M74.9,10.5h4.6v1h-4.6V10.5z M74.9,12.8h4.6v1h-4.6V12.8z"/>
			<path fill="#0F2849" d="M84.2,12.7l0.2-0.7h1.3v5.5h-1.5V12.7z M86.2,14.4c0.5,0,0.8-0.2,1-0.5c0.2-0.3,0.4-0.7,0.4-1.4l0.1-1.7
				h-3.5V9.8h5l0,0.9l-0.1,1.5c-0.1,2.2-1,3.3-2.8,3.3L86.2,14.4z"/>
			<path fill="#0F2849" d="M94.9,14.5c-0.8,0.7-2.1,1-3.8,1h-0.3l-0.8-5.8h1.4l0.3,2.5c0.3-0.1,0.4-0.3,0.5-0.6s0.1-0.7,0.1-1.2V9.8
				h1.4v0.6c0,0.7-0.2,1.3-0.4,1.8c-0.3,0.5-0.8,0.8-1.5,1l0.1,1.2c1-0.1,1.6-0.3,2-0.8c0.4-0.5,0.6-1.2,0.6-2l0-1.8h1.5l0,1.7
				C96.1,12.8,95.7,13.8,94.9,14.5z"/>
			<path fill="#0F2849" d="M96.9,14.4h1.5v-2.9c0-0.2,0-0.4-0.1-0.5c-0.1-0.1-0.2-0.2-0.4-0.2l-0.7-0.1l0.2-1.1l1.3,0.2
				c0.4,0.1,0.7,0.2,0.9,0.5c0.2,0.3,0.3,0.7,0.3,1.1v4h-2.9V14.4z"/>
			<path fill="#0F2849" d="M100.8,12.7l0.2-0.7h1.3v3.4h-1.5V12.7z M104.1,11.6c0-0.5-0.2-0.7-0.7-0.7h-2.6V9.8h3
				c0.5,0,1,0.2,1.3,0.5s0.5,0.8,0.5,1.4v3.8h-1.5V11.6z"/>
			<path fill="#0F2849" d="M40.8,33.4c-0.1-0.1-0.2-0.3-0.2-0.5s0.1-0.4,0.2-0.5s0.3-0.2,0.5-0.2s0.4,0.1,0.5,0.2
				c0.1,0.1,0.2,0.3,0.2,0.5s-0.1,0.4-0.2,0.5c-0.1,0.1-0.3,0.2-0.5,0.2S40.9,33.5,40.8,33.4z"/>
			<path fill="#0F2849" d="M43.1,30.7l0.2-0.7h0.9v5.5h-1.1V30.7z M44.9,32.7c0.3,0,0.6-0.1,0.8-0.2c0.2-0.1,0.4-0.3,0.5-0.6
				c0.1-0.3,0.2-0.7,0.3-1.2l0.2-1.9h-3.5v-0.8h4.7l0,0.7l-0.1,1.8c0,1-0.3,1.7-0.7,2.3c-0.4,0.5-1.1,0.8-1.9,0.8L44.9,32.7z"/>
			<path fill="#0F2849" d="M53.1,32.6c-0.8,0.7-2,1-3.7,1l-0.7-5.7h1l0.3,2.7c0.4-0.2,0.6-0.4,0.8-0.7s0.2-0.7,0.2-1.3v-0.6h1l0,0.6
				c0,0.7-0.2,1.3-0.4,1.8c-0.3,0.4-0.8,0.8-1.4,1.1l0.2,1.4c1-0.1,1.7-0.4,2.2-0.9c0.5-0.5,0.7-1.3,0.7-2.3l0-1.6h1.1l0,1.5
				C54.3,30.8,53.9,31.9,53.1,32.6z"/>
			<path fill="#0F2849" d="M55.2,32.7h1.6v-3.1c0-0.3-0.1-0.5-0.2-0.6s-0.3-0.2-0.5-0.2l-0.7-0.1l0.1-0.8l1,0.2
				c0.4,0.1,0.7,0.2,0.9,0.5c0.2,0.3,0.3,0.6,0.3,1.1v4h-2.7V32.7z"/>
			<path fill="#0F2849" d="M59.1,30.8l0.2-0.7h0.9v3.4h-1.1V30.8z M62.5,29.7c0-0.4-0.1-0.6-0.2-0.8c-0.2-0.2-0.4-0.2-0.7-0.2h-2.5
				v-0.8h2.7c0.5,0,0.9,0.1,1.3,0.5c0.3,0.3,0.4,0.8,0.4,1.4v3.7h-1.1V29.7z"/>
			<path fill="#0F2849" d="M66.3,32.9c0.4,0,0.6-0.1,0.8-0.3c0.1-0.2,0.2-0.4,0.2-0.8v-3.9H70c0.5,0,1,0.1,1.3,0.5
				c0.3,0.3,0.5,0.8,0.5,1.4v3.7h-1.1v-3.8c0-0.4-0.1-0.6-0.2-0.8c-0.2-0.2-0.4-0.2-0.7-0.2h-1.4v3c0,0.7-0.2,1.1-0.5,1.4
				c-0.3,0.3-0.8,0.5-1.5,0.6L66.3,32.9z"/>
			<path fill="#0F2849" d="M76.7,33.5l-2.1-3.2l-1,3.2h-1l1.1-3.4l0.3-0.7L73,27.9h1.1l0.8,1.4l0.8,1.3l0.3-0.9l0.5-1.7h1l-1.2,3.5
				l1.4,2.1H76.7z"/>
			<path fill="#0F2849" d="M80.8,29l-0.1-1.2h1.1l0.1,1.2v4.5h-1.1V29z"/>
			<path fill="#0F2849" d="M83,32.7h1.6v-3.1c0-0.3-0.1-0.5-0.2-0.6s-0.3-0.2-0.5-0.2l-0.7-0.1l0.1-0.8l1,0.2
				c0.4,0.1,0.7,0.2,0.9,0.5c0.2,0.3,0.3,0.6,0.3,1.1v4H83V32.7z"/>
			<path fill="#0F2849" d="M91.4,32.8c-0.4,0.5-1,0.8-1.8,0.8c-0.3,0-0.6,0-0.9-0.1l0.1-0.8c0.3,0.1,0.5,0.1,0.6,0.1
				c0.5,0,0.9-0.2,1.1-0.5c0.2-0.4,0.3-0.9,0.3-1.5c0-0.7-0.1-1.2-0.3-1.6c-0.2-0.3-0.5-0.5-1-0.5c-0.3,0-0.6,0.1-0.8,0.3
				c-0.2,0.2-0.3,0.4-0.4,0.7l-0.7,3.8h-1.1l0.7-3.9l-0.8-1.8h1.1l0.4,1.2c0.1-0.4,0.4-0.7,0.6-0.9c0.3-0.2,0.6-0.3,1-0.3
				c0.7,0,1.2,0.2,1.6,0.7c0.4,0.5,0.6,1.2,0.6,2.2C92,31.6,91.8,32.3,91.4,32.8z"/>
			<path fill="#0F2849" d="M97.6,32.8c-0.4,0.5-1,0.8-1.8,0.8c-0.3,0-0.6,0-0.9-0.1l0.1-0.8c0.3,0.1,0.5,0.1,0.7,0.1
				c0.5,0,0.9-0.2,1.1-0.5c0.2-0.4,0.4-0.9,0.4-1.5c0-0.7-0.1-1.2-0.3-1.6c-0.2-0.3-0.5-0.5-1-0.5c-0.3,0-0.6,0.1-0.8,0.3
				s-0.3,0.4-0.4,0.7l-0.7,3.8H93l0.7-3.9l-0.8-1.8H94l0.5,1.2c0.1-0.4,0.4-0.7,0.6-0.9c0.3-0.2,0.6-0.3,1-0.3
				c0.7,0,1.2,0.2,1.6,0.7s0.6,1.2,0.6,2.2C98.2,31.6,98,32.3,97.6,32.8z"/>
			<path fill="#0F2849" d="M103.6,29.8c0-0.5,0.1-0.9,0.3-1.2h-2.7v-0.8h4.5v0.8h-0.8c-0.1,0.3-0.2,0.7-0.2,1.2v3.6h-1.1V29.8z"/>
		</g>
		<g>
			<path fill="#0F2849" d="M5.4,9.9v0.9l-1.9,4.7H2.5l1.9-4.8h-3V8.3h1v1.5H5.4z"/>
			<path fill="#0F2849" d="M6.5,11L6.4,9.9h1.1L7.6,11v4.5H6.5V11z"/>
			<path fill="#0F2849" d="M8.6,14.7H10c0.5,0,0.8-0.1,1.1-0.4s0.3-0.7,0.3-1.2v-0.7c0-0.5-0.1-0.9-0.3-1.2s-0.6-0.4-1.1-0.4H8.6
				V9.9h1.7c0.7,0,1.3,0.2,1.6,0.7c0.4,0.4,0.6,1.1,0.6,1.9V13c0,0.8-0.2,1.4-0.6,1.9c-0.4,0.4-0.9,0.7-1.6,0.7H8.6V14.7z"/>
			<path fill="#0F2849" d="M13.7,11l-0.1-1.2h1.1l0.1,1.2v1.5l0,0.6l-1.1,0.2V11z"/>
			<path fill="#0F2849" d="M21.8,15.5l-2.1-3.2l-1,3.2h-1l1.1-3.4l0.3-0.7l-0.9-1.5h1.1l0.8,1.4l0.8,1.3l0.3-0.9l0.5-1.7h1l-1.2,3.5
				l1.4,2.1H21.8z"/>
			<path fill="#0F2849" d="M27.7,9.9v0.9l-1.9,4.7h-1.1l1.9-4.8h-3V8.3h1v1.5H27.7z"/>
			<path fill="#0F2849" d="M35.1,9.9c0,1.3-0.1,2.4-0.2,3s-0.4,1.2-0.8,1.6c-0.4,0.4-1,0.7-1.9,0.9l-1.9,0.4L30.3,15l1.7-0.3
				l-1.2-4.8h1.1l1.1,4.5c0.4-0.2,0.6-0.4,0.8-0.7c0.2-0.3,0.3-0.7,0.3-1.2c0-0.5,0.1-1.2,0.1-2.2V9.9H35.1z"/>
			<path fill="#0F2849" d="M36.3,11l-0.1-1.2h1.1l0.1,1.2v4.5h-1.1V11z"/>
			<path fill="#0F2849" d="M41.5,13.1l1.4,2.4h-1.1h-3.4v-0.8h3l-2.8-4.8h1.1l1.3,2.2l0.9-2.2h1.1L41.5,13.1z"/>
			<path fill="#0F2849" d="M44,14.7h1.8c0.5,0,0.8-0.1,1.1-0.4c0.3-0.3,0.4-0.7,0.4-1.3v-0.7c0-0.5-0.1-0.9-0.3-1.2
				c-0.2-0.3-0.5-0.4-1-0.4h-0.9l-0.2,1c0,0.2,0,0.3,0,0.4c0,0.2,0.1,0.4,0.2,0.5c0.1,0.1,0.3,0.2,0.6,0.2l-0.2,0.7
				c-0.5,0-0.9-0.2-1.1-0.4s-0.4-0.5-0.4-1c0-0.2,0-0.4,0.1-0.5l0.4-1.7h1.9c0.7,0,1.2,0.2,1.6,0.7s0.6,1.1,0.6,1.9v0.6
				c0,0.8-0.2,1.5-0.6,1.9c-0.4,0.4-1,0.6-1.7,0.6h-2V14.7z"/>
			<path fill="#0F2849" d="M49.4,12.8l0.2-0.7h0.9v3.4h-1.1V12.8z M52.8,11.7c0-0.4-0.1-0.6-0.2-0.8c-0.2-0.2-0.4-0.2-0.7-0.2h-2.5
				V9.9h2.7c0.5,0,0.9,0.1,1.3,0.5c0.3,0.3,0.4,0.8,0.4,1.4v3.8h-1.1V11.7z"/>
			<path fill="#0F2849" d="M61.2,10.3c0.3,0.3,0.5,0.8,0.5,1.4v3.8h-1.1h-3.3h-0.3V9.9h1.1H60C60.5,9.9,60.9,10,61.2,10.3z
				 M60.6,14.7v-3c0-0.4-0.1-0.6-0.2-0.8c-0.2-0.2-0.4-0.2-0.7-0.2h-1.6v4H60.6z"/>
			<path fill="#0F2849" d="M66.7,15.5l-2.1-3.2l-1,3.2h-1l1.1-3.4l0.3-0.7L63,9.9h1.1l0.8,1.4l0.8,1.3l0.3-0.9l0.5-1.7h1l-1.2,3.5
				l1.4,2.1H66.7z"/>
			<path fill="#0F2849" d="M68.9,11l-0.1-1.2h1.1l0.1,1.2v4.5h-1.1V11z"/>
			<path fill="#0F2849" d="M74.9,10.5h4.6v1h-4.6V10.5z M74.9,12.8h4.6v1h-4.6V12.8z"/>
			<path fill="#0F2849" d="M84.2,12.7l0.2-0.7h1.3v5.5h-1.5V12.7z M86.2,14.4c0.5,0,0.8-0.2,1-0.5c0.2-0.3,0.4-0.7,0.4-1.4l0.1-1.7
				h-3.5V9.8h5l0,0.9l-0.1,1.5c-0.1,2.2-1,3.3-2.8,3.3L86.2,14.4z"/>
			<path fill="#0F2849" d="M94.9,14.5c-0.8,0.7-2.1,1-3.8,1h-0.3l-0.8-5.8h1.4l0.3,2.5c0.3-0.1,0.4-0.3,0.5-0.6s0.1-0.7,0.1-1.2V9.8
				h1.4v0.6c0,0.7-0.2,1.3-0.4,1.8c-0.3,0.5-0.8,0.8-1.5,1l0.1,1.2c1-0.1,1.6-0.3,2-0.8c0.4-0.5,0.6-1.2,0.6-2l0-1.8h1.5l0,1.7
				C96.1,12.8,95.7,13.8,94.9,14.5z"/>
			<path fill="#0F2849" d="M96.9,14.4h1.5v-2.9c0-0.2,0-0.4-0.1-0.5c-0.1-0.1-0.2-0.2-0.4-0.2l-0.7-0.1l0.2-1.1l1.3,0.2
				c0.4,0.1,0.7,0.2,0.9,0.5c0.2,0.3,0.3,0.7,0.3,1.1v4h-2.9V14.4z"/>
			<path fill="#0F2849" d="M100.8,12.7l0.2-0.7h1.3v3.4h-1.5V12.7z M104.1,11.6c0-0.5-0.2-0.7-0.7-0.7h-2.6V9.8h3
				c0.5,0,1,0.2,1.3,0.5s0.5,0.8,0.5,1.4v3.8h-1.5V11.6z"/>
			<path fill="#0F2849" d="M40.8,33.4c-0.1-0.1-0.2-0.3-0.2-0.5s0.1-0.4,0.2-0.5s0.3-0.2,0.5-0.2s0.4,0.1,0.5,0.2
				c0.1,0.1,0.2,0.3,0.2,0.5s-0.1,0.4-0.2,0.5c-0.1,0.1-0.3,0.2-0.5,0.2S40.9,33.5,40.8,33.4z"/>
			<path fill="#0F2849" d="M43.1,30.7l0.2-0.7h0.9v5.5h-1.1V30.7z M44.9,32.7c0.3,0,0.6-0.1,0.8-0.2c0.2-0.1,0.4-0.3,0.5-0.6
				c0.1-0.3,0.2-0.7,0.3-1.2l0.2-1.9h-3.5v-0.8h4.7l0,0.7l-0.1,1.8c0,1-0.3,1.7-0.7,2.3c-0.4,0.5-1.1,0.8-1.9,0.8L44.9,32.7z"/>
			<path fill="#0F2849" d="M53.1,32.6c-0.8,0.7-2,1-3.7,1l-0.7-5.7h1l0.3,2.7c0.4-0.2,0.6-0.4,0.8-0.7s0.2-0.7,0.2-1.3v-0.6h1l0,0.6
				c0,0.7-0.2,1.3-0.4,1.8c-0.3,0.4-0.8,0.8-1.4,1.1l0.2,1.4c1-0.1,1.7-0.4,2.2-0.9c0.5-0.5,0.7-1.3,0.7-2.3l0-1.6h1.1l0,1.5
				C54.3,30.8,53.9,31.9,53.1,32.6z"/>
			<path fill="#0F2849" d="M55.2,32.7h1.6v-3.1c0-0.3-0.1-0.5-0.2-0.6s-0.3-0.2-0.5-0.2l-0.7-0.1l0.1-0.8l1,0.2
				c0.4,0.1,0.7,0.2,0.9,0.5c0.2,0.3,0.3,0.6,0.3,1.1v4h-2.7V32.7z"/>
			<path fill="#0F2849" d="M59.1,30.8l0.2-0.7h0.9v3.4h-1.1V30.8z M62.5,29.7c0-0.4-0.1-0.6-0.2-0.8c-0.2-0.2-0.4-0.2-0.7-0.2h-2.5
				v-0.8h2.7c0.5,0,0.9,0.1,1.3,0.5c0.3,0.3,0.4,0.8,0.4,1.4v3.7h-1.1V29.7z"/>
			<path fill="#0F2849" d="M66.3,32.9c0.4,0,0.6-0.1,0.8-0.3c0.1-0.2,0.2-0.4,0.2-0.8v-3.9H70c0.5,0,1,0.1,1.3,0.5
				c0.3,0.3,0.5,0.8,0.5,1.4v3.7h-1.1v-3.8c0-0.4-0.1-0.6-0.2-0.8c-0.2-0.2-0.4-0.2-0.7-0.2h-1.4v3c0,0.7-0.2,1.1-0.5,1.4
				c-0.3,0.3-0.8,0.5-1.5,0.6L66.3,32.9z"/>
			<path fill="#0F2849" d="M76.7,33.5l-2.1-3.2l-1,3.2h-1l1.1-3.4l0.3-0.7L73,27.9h1.1l0.8,1.4l0.8,1.3l0.3-0.9l0.5-1.7h1l-1.2,3.5
				l1.4,2.1H76.7z"/>
			<path fill="#0F2849" d="M80.8,29l-0.1-1.2h1.1l0.1,1.2v4.5h-1.1V29z"/>
			<path fill="#0F2849" d="M83,32.7h1.6v-3.1c0-0.3-0.1-0.5-0.2-0.6s-0.3-0.2-0.5-0.2l-0.7-0.1l0.1-0.8l1,0.2
				c0.4,0.1,0.7,0.2,0.9,0.5c0.2,0.3,0.3,0.6,0.3,1.1v4H83V32.7z"/>
			<path fill="#0F2849" d="M91.4,32.8c-0.4,0.5-1,0.8-1.8,0.8c-0.3,0-0.6,0-0.9-0.1l0.1-0.8c0.3,0.1,0.5,0.1,0.6,0.1
				c0.5,0,0.9-0.2,1.1-0.5c0.2-0.4,0.3-0.9,0.3-1.5c0-0.7-0.1-1.2-0.3-1.6c-0.2-0.3-0.5-0.5-1-0.5c-0.3,0-0.6,0.1-0.8,0.3
				c-0.2,0.2-0.3,0.4-0.4,0.7l-0.7,3.8h-1.1l0.7-3.9l-0.8-1.8h1.1l0.4,1.2c0.1-0.4,0.4-0.7,0.6-0.9c0.3-0.2,0.6-0.3,1-0.3
				c0.7,0,1.2,0.2,1.6,0.7c0.4,0.5,0.6,1.2,0.6,2.2C92,31.6,91.8,32.3,91.4,32.8z"/>
			<path fill="#0F2849" d="M97.6,32.8c-0.4,0.5-1,0.8-1.8,0.8c-0.3,0-0.6,0-0.9-0.1l0.1-0.8c0.3,0.1,0.5,0.1,0.7,0.1
				c0.5,0,0.9-0.2,1.1-0.5c0.2-0.4,0.4-0.9,0.4-1.5c0-0.7-0.1-1.2-0.3-1.6c-0.2-0.3-0.5-0.5-1-0.5c-0.3,0-0.6,0.1-0.8,0.3
				s-0.3,0.4-0.4,0.7l-0.7,3.8H93l0.7-3.9l-0.8-1.8H94l0.5,1.2c0.1-0.4,0.4-0.7,0.6-0.9c0.3-0.2,0.6-0.3,1-0.3
				c0.7,0,1.2,0.2,1.6,0.7s0.6,1.2,0.6,2.2C98.2,31.6,98,32.3,97.6,32.8z"/>
			<path fill="#0F2849" d="M103.6,29.8c0-0.5,0.1-0.9,0.3-1.2h-2.7v-0.8h4.5v0.8h-0.8c-0.1,0.3-0.2,0.7-0.2,1.2v3.6h-1.1V29.8z"/>
		</g>
		<g>
			<path fill="#0F2849" d="M5.4,9.9v0.9l-1.9,4.7H2.5l1.9-4.8h-3V8.3h1v1.5H5.4z"/>
			<path fill="#0F2849" d="M6.5,11L6.4,9.9h1.1L7.6,11v4.5H6.5V11z"/>
			<path fill="#0F2849" d="M8.6,14.7H10c0.5,0,0.8-0.1,1.1-0.4s0.3-0.7,0.3-1.2v-0.7c0-0.5-0.1-0.9-0.3-1.2s-0.6-0.4-1.1-0.4H8.6
				V9.9h1.7c0.7,0,1.3,0.2,1.6,0.7c0.4,0.4,0.6,1.1,0.6,1.9V13c0,0.8-0.2,1.4-0.6,1.9c-0.4,0.4-0.9,0.7-1.6,0.7H8.6V14.7z"/>
			<path fill="#0F2849" d="M13.7,11l-0.1-1.2h1.1l0.1,1.2v1.5l0,0.6l-1.1,0.2V11z"/>
			<path fill="#0F2849" d="M21.8,15.5l-2.1-3.2l-1,3.2h-1l1.1-3.4l0.3-0.7l-0.9-1.5h1.1l0.8,1.4l0.8,1.3l0.3-0.9l0.5-1.7h1l-1.2,3.5
				l1.4,2.1H21.8z"/>
			<path fill="#0F2849" d="M27.7,9.9v0.9l-1.9,4.7h-1.1l1.9-4.8h-3V8.3h1v1.5H27.7z"/>
			<path fill="#0F2849" d="M35.1,9.9c0,1.3-0.1,2.4-0.2,3s-0.4,1.2-0.8,1.6c-0.4,0.4-1,0.7-1.9,0.9l-1.9,0.4L30.3,15l1.7-0.3
				l-1.2-4.8h1.1l1.1,4.5c0.4-0.2,0.6-0.4,0.8-0.7c0.2-0.3,0.3-0.7,0.3-1.2c0-0.5,0.1-1.2,0.1-2.2V9.9H35.1z"/>
			<path fill="#0F2849" d="M36.3,11l-0.1-1.2h1.1l0.1,1.2v4.5h-1.1V11z"/>
			<path fill="#0F2849" d="M41.5,13.1l1.4,2.4h-1.1h-3.4v-0.8h3l-2.8-4.8h1.1l1.3,2.2l0.9-2.2h1.1L41.5,13.1z"/>
			<path fill="#0F2849" d="M44,14.7h1.8c0.5,0,0.8-0.1,1.1-0.4c0.3-0.3,0.4-0.7,0.4-1.3v-0.7c0-0.5-0.1-0.9-0.3-1.2
				c-0.2-0.3-0.5-0.4-1-0.4h-0.9l-0.2,1c0,0.2,0,0.3,0,0.4c0,0.2,0.1,0.4,0.2,0.5c0.1,0.1,0.3,0.2,0.6,0.2l-0.2,0.7
				c-0.5,0-0.9-0.2-1.1-0.4s-0.4-0.5-0.4-1c0-0.2,0-0.4,0.1-0.5l0.4-1.7h1.9c0.7,0,1.2,0.2,1.6,0.7s0.6,1.1,0.6,1.9v0.6
				c0,0.8-0.2,1.5-0.6,1.9c-0.4,0.4-1,0.6-1.7,0.6h-2V14.7z"/>
			<path fill="#0F2849" d="M49.4,12.8l0.2-0.7h0.9v3.4h-1.1V12.8z M52.8,11.7c0-0.4-0.1-0.6-0.2-0.8c-0.2-0.2-0.4-0.2-0.7-0.2h-2.5
				V9.9h2.7c0.5,0,0.9,0.1,1.3,0.5c0.3,0.3,0.4,0.8,0.4,1.4v3.8h-1.1V11.7z"/>
			<path fill="#0F2849" d="M61.2,10.3c0.3,0.3,0.5,0.8,0.5,1.4v3.8h-1.1h-3.3h-0.3V9.9h1.1H60C60.5,9.9,60.9,10,61.2,10.3z
				 M60.6,14.7v-3c0-0.4-0.1-0.6-0.2-0.8c-0.2-0.2-0.4-0.2-0.7-0.2h-1.6v4H60.6z"/>
			<path fill="#0F2849" d="M66.7,15.5l-2.1-3.2l-1,3.2h-1l1.1-3.4l0.3-0.7L63,9.9h1.1l0.8,1.4l0.8,1.3l0.3-0.9l0.5-1.7h1l-1.2,3.5
				l1.4,2.1H66.7z"/>
			<path fill="#0F2849" d="M68.9,11l-0.1-1.2h1.1l0.1,1.2v4.5h-1.1V11z"/>
			<path fill="#0F2849" d="M74.9,10.5h4.6v1h-4.6V10.5z M74.9,12.8h4.6v1h-4.6V12.8z"/>
			<path fill="#0F2849" d="M84.2,12.7l0.2-0.7h1.3v5.5h-1.5V12.7z M86.2,14.4c0.5,0,0.8-0.2,1-0.5c0.2-0.3,0.4-0.7,0.4-1.4l0.1-1.7
				h-3.5V9.8h5l0,0.9l-0.1,1.5c-0.1,2.2-1,3.3-2.8,3.3L86.2,14.4z"/>
			<path fill="#0F2849" d="M94.9,14.5c-0.8,0.7-2.1,1-3.8,1h-0.3l-0.8-5.8h1.4l0.3,2.5c0.3-0.1,0.4-0.3,0.5-0.6s0.1-0.7,0.1-1.2V9.8
				h1.4v0.6c0,0.7-0.2,1.3-0.4,1.8c-0.3,0.5-0.8,0.8-1.5,1l0.1,1.2c1-0.1,1.6-0.3,2-0.8c0.4-0.5,0.6-1.2,0.6-2l0-1.8h1.5l0,1.7
				C96.1,12.8,95.7,13.8,94.9,14.5z"/>
			<path fill="#0F2849" d="M96.9,14.4h1.5v-2.9c0-0.2,0-0.4-0.1-0.5c-0.1-0.1-0.2-0.2-0.4-0.2l-0.7-0.1l0.2-1.1l1.3,0.2
				c0.4,0.1,0.7,0.2,0.9,0.5c0.2,0.3,0.3,0.7,0.3,1.1v4h-2.9V14.4z"/>
			<path fill="#0F2849" d="M100.8,12.7l0.2-0.7h1.3v3.4h-1.5V12.7z M104.1,11.6c0-0.5-0.2-0.7-0.7-0.7h-2.6V9.8h3
				c0.5,0,1,0.2,1.3,0.5s0.5,0.8,0.5,1.4v3.8h-1.5V11.6z"/>
			<path fill="#0F2849" d="M40.8,33.4c-0.1-0.1-0.2-0.3-0.2-0.5s0.1-0.4,0.2-0.5s0.3-0.2,0.5-0.2s0.4,0.1,0.5,0.2
				c0.1,0.1,0.2,0.3,0.2,0.5s-0.1,0.4-0.2,0.5c-0.1,0.1-0.3,0.2-0.5,0.2S40.9,33.5,40.8,33.4z"/>
			<path fill="#0F2849" d="M43.1,30.7l0.2-0.7h0.9v5.5h-1.1V30.7z M44.9,32.7c0.3,0,0.6-0.1,0.8-0.2c0.2-0.1,0.4-0.3,0.5-0.6
				c0.1-0.3,0.2-0.7,0.3-1.2l0.2-1.9h-3.5v-0.8h4.7l0,0.7l-0.1,1.8c0,1-0.3,1.7-0.7,2.3c-0.4,0.5-1.1,0.8-1.9,0.8L44.9,32.7z"/>
			<path fill="#0F2849" d="M53.1,32.6c-0.8,0.7-2,1-3.7,1l-0.7-5.7h1l0.3,2.7c0.4-0.2,0.6-0.4,0.8-0.7s0.2-0.7,0.2-1.3v-0.6h1l0,0.6
				c0,0.7-0.2,1.3-0.4,1.8c-0.3,0.4-0.8,0.8-1.4,1.1l0.2,1.4c1-0.1,1.7-0.4,2.2-0.9c0.5-0.5,0.7-1.3,0.7-2.3l0-1.6h1.1l0,1.5
				C54.3,30.8,53.9,31.9,53.1,32.6z"/>
			<path fill="#0F2849" d="M55.2,32.7h1.6v-3.1c0-0.3-0.1-0.5-0.2-0.6s-0.3-0.2-0.5-0.2l-0.7-0.1l0.1-0.8l1,0.2
				c0.4,0.1,0.7,0.2,0.9,0.5c0.2,0.3,0.3,0.6,0.3,1.1v4h-2.7V32.7z"/>
			<path fill="#0F2849" d="M59.1,30.8l0.2-0.7h0.9v3.4h-1.1V30.8z M62.5,29.7c0-0.4-0.1-0.6-0.2-0.8c-0.2-0.2-0.4-0.2-0.7-0.2h-2.5
				v-0.8h2.7c0.5,0,0.9,0.1,1.3,0.5c0.3,0.3,0.4,0.8,0.4,1.4v3.7h-1.1V29.7z"/>
			<path fill="#0F2849" d="M66.3,32.9c0.4,0,0.6-0.1,0.8-0.3c0.1-0.2,0.2-0.4,0.2-0.8v-3.9H70c0.5,0,1,0.1,1.3,0.5
				c0.3,0.3,0.5,0.8,0.5,1.4v3.7h-1.1v-3.8c0-0.4-0.1-0.6-0.2-0.8c-0.2-0.2-0.4-0.2-0.7-0.2h-1.4v3c0,0.7-0.2,1.1-0.5,1.4
				c-0.3,0.3-0.8,0.5-1.5,0.6L66.3,32.9z"/>
			<path fill="#0F2849" d="M76.7,33.5l-2.1-3.2l-1,3.2h-1l1.1-3.4l0.3-0.7L73,27.9h1.1l0.8,1.4l0.8,1.3l0.3-0.9l0.5-1.7h1l-1.2,3.5
				l1.4,2.1H76.7z"/>
			<path fill="#0F2849" d="M80.8,29l-0.1-1.2h1.1l0.1,1.2v4.5h-1.1V29z"/>
			<path fill="#0F2849" d="M83,32.7h1.6v-3.1c0-0.3-0.1-0.5-0.2-0.6s-0.3-0.2-0.5-0.2l-0.7-0.1l0.1-0.8l1,0.2
				c0.4,0.1,0.7,0.2,0.9,0.5c0.2,0.3,0.3,0.6,0.3,1.1v4H83V32.7z"/>
			<path fill="#0F2849" d="M91.4,32.8c-0.4,0.5-1,0.8-1.8,0.8c-0.3,0-0.6,0-0.9-0.1l0.1-0.8c0.3,0.1,0.5,0.1,0.6,0.1
				c0.5,0,0.9-0.2,1.1-0.5c0.2-0.4,0.3-0.9,0.3-1.5c0-0.7-0.1-1.2-0.3-1.6c-0.2-0.3-0.5-0.5-1-0.5c-0.3,0-0.6,0.1-0.8,0.3
				c-0.2,0.2-0.3,0.4-0.4,0.7l-0.7,3.8h-1.1l0.7-3.9l-0.8-1.8h1.1l0.4,1.2c0.1-0.4,0.4-0.7,0.6-0.9c0.3-0.2,0.6-0.3,1-0.3
				c0.7,0,1.2,0.2,1.6,0.7c0.4,0.5,0.6,1.2,0.6,2.2C92,31.6,91.8,32.3,91.4,32.8z"/>
			<path fill="#0F2849" d="M97.6,32.8c-0.4,0.5-1,0.8-1.8,0.8c-0.3,0-0.6,0-0.9-0.1l0.1-0.8c0.3,0.1,0.5,0.1,0.7,0.1
				c0.5,0,0.9-0.2,1.1-0.5c0.2-0.4,0.4-0.9,0.4-1.5c0-0.7-0.1-1.2-0.3-1.6c-0.2-0.3-0.5-0.5-1-0.5c-0.3,0-0.6,0.1-0.8,0.3
				s-0.3,0.4-0.4,0.7l-0.7,3.8H93l0.7-3.9l-0.8-1.8H94l0.5,1.2c0.1-0.4,0.4-0.7,0.6-0.9c0.3-0.2,0.6-0.3,1-0.3
				c0.7,0,1.2,0.2,1.6,0.7s0.6,1.2,0.6,2.2C98.2,31.6,98,32.3,97.6,32.8z"/>
			<path fill="#0F2849" d="M103.6,29.8c0-0.5,0.1-0.9,0.3-1.2h-2.7v-0.8h4.5v0.8h-0.8c-0.1,0.3-0.2,0.7-0.2,1.2v3.6h-1.1V29.8z"/>
		</g>
		<g>
			<path fill="#0F2849" d="M5.4,9.9v0.9l-1.9,4.7H2.5l1.9-4.8h-3V8.3h1v1.5H5.4z"/>
			<path fill="#0F2849" d="M6.5,11L6.4,9.9h1.1L7.6,11v4.5H6.5V11z"/>
			<path fill="#0F2849" d="M8.6,14.7H10c0.5,0,0.8-0.1,1.1-0.4s0.3-0.7,0.3-1.2v-0.7c0-0.5-0.1-0.9-0.3-1.2s-0.6-0.4-1.1-0.4H8.6
				V9.9h1.7c0.7,0,1.3,0.2,1.6,0.7c0.4,0.4,0.6,1.1,0.6,1.9V13c0,0.8-0.2,1.4-0.6,1.9c-0.4,0.4-0.9,0.7-1.6,0.7H8.6V14.7z"/>
			<path fill="#0F2849" d="M13.7,11l-0.1-1.2h1.1l0.1,1.2v1.5l0,0.6l-1.1,0.2V11z"/>
			<path fill="#0F2849" d="M21.8,15.5l-2.1-3.2l-1,3.2h-1l1.1-3.4l0.3-0.7l-0.9-1.5h1.1l0.8,1.4l0.8,1.3l0.3-0.9l0.5-1.7h1l-1.2,3.5
				l1.4,2.1H21.8z"/>
			<path fill="#0F2849" d="M27.7,9.9v0.9l-1.9,4.7h-1.1l1.9-4.8h-3V8.3h1v1.5H27.7z"/>
			<path fill="#0F2849" d="M35.1,9.9c0,1.3-0.1,2.4-0.2,3s-0.4,1.2-0.8,1.6c-0.4,0.4-1,0.7-1.9,0.9l-1.9,0.4L30.3,15l1.7-0.3
				l-1.2-4.8h1.1l1.1,4.5c0.4-0.2,0.6-0.4,0.8-0.7c0.2-0.3,0.3-0.7,0.3-1.2c0-0.5,0.1-1.2,0.1-2.2V9.9H35.1z"/>
			<path fill="#0F2849" d="M36.3,11l-0.1-1.2h1.1l0.1,1.2v4.5h-1.1V11z"/>
			<path fill="#0F2849" d="M41.5,13.1l1.4,2.4h-1.1h-3.4v-0.8h3l-2.8-4.8h1.1l1.3,2.2l0.9-2.2h1.1L41.5,13.1z"/>
			<path fill="#0F2849" d="M44,14.7h1.8c0.5,0,0.8-0.1,1.1-0.4c0.3-0.3,0.4-0.7,0.4-1.3v-0.7c0-0.5-0.1-0.9-0.3-1.2
				c-0.2-0.3-0.5-0.4-1-0.4h-0.9l-0.2,1c0,0.2,0,0.3,0,0.4c0,0.2,0.1,0.4,0.2,0.5c0.1,0.1,0.3,0.2,0.6,0.2l-0.2,0.7
				c-0.5,0-0.9-0.2-1.1-0.4s-0.4-0.5-0.4-1c0-0.2,0-0.4,0.1-0.5l0.4-1.7h1.9c0.7,0,1.2,0.2,1.6,0.7s0.6,1.1,0.6,1.9v0.6
				c0,0.8-0.2,1.5-0.6,1.9c-0.4,0.4-1,0.6-1.7,0.6h-2V14.7z"/>
			<path fill="#0F2849" d="M49.4,12.8l0.2-0.7h0.9v3.4h-1.1V12.8z M52.8,11.7c0-0.4-0.1-0.6-0.2-0.8c-0.2-0.2-0.4-0.2-0.7-0.2h-2.5
				V9.9h2.7c0.5,0,0.9,0.1,1.3,0.5c0.3,0.3,0.4,0.8,0.4,1.4v3.8h-1.1V11.7z"/>
			<path fill="#0F2849" d="M61.2,10.3c0.3,0.3,0.5,0.8,0.5,1.4v3.8h-1.1h-3.3h-0.3V9.9h1.1H60C60.5,9.9,60.9,10,61.2,10.3z
				 M60.6,14.7v-3c0-0.4-0.1-0.6-0.2-0.8c-0.2-0.2-0.4-0.2-0.7-0.2h-1.6v4H60.6z"/>
			<path fill="#0F2849" d="M66.7,15.5l-2.1-3.2l-1,3.2h-1l1.1-3.4l0.3-0.7L63,9.9h1.1l0.8,1.4l0.8,1.3l0.3-0.9l0.5-1.7h1l-1.2,3.5
				l1.4,2.1H66.7z"/>
			<path fill="#0F2849" d="M68.9,11l-0.1-1.2h1.1l0.1,1.2v4.5h-1.1V11z"/>
			<path fill="#0F2849" d="M74.9,10.5h4.6v1h-4.6V10.5z M74.9,12.8h4.6v1h-4.6V12.8z"/>
			<path fill="#0F2849" d="M84.2,12.7l0.2-0.7h1.3v5.5h-1.5V12.7z M86.2,14.4c0.5,0,0.8-0.2,1-0.5c0.2-0.3,0.4-0.7,0.4-1.4l0.1-1.7
				h-3.5V9.8h5l0,0.9l-0.1,1.5c-0.1,2.2-1,3.3-2.8,3.3L86.2,14.4z"/>
			<path fill="#0F2849" d="M94.9,14.5c-0.8,0.7-2.1,1-3.8,1h-0.3l-0.8-5.8h1.4l0.3,2.5c0.3-0.1,0.4-0.3,0.5-0.6s0.1-0.7,0.1-1.2V9.8
				h1.4v0.6c0,0.7-0.2,1.3-0.4,1.8c-0.3,0.5-0.8,0.8-1.5,1l0.1,1.2c1-0.1,1.6-0.3,2-0.8c0.4-0.5,0.6-1.2,0.6-2l0-1.8h1.5l0,1.7
				C96.1,12.8,95.7,13.8,94.9,14.5z"/>
			<path fill="#0F2849" d="M96.9,14.4h1.5v-2.9c0-0.2,0-0.4-0.1-0.5c-0.1-0.1-0.2-0.2-0.4-0.2l-0.7-0.1l0.2-1.1l1.3,0.2
				c0.4,0.1,0.7,0.2,0.9,0.5c0.2,0.3,0.3,0.7,0.3,1.1v4h-2.9V14.4z"/>
			<path fill="#0F2849" d="M100.8,12.7l0.2-0.7h1.3v3.4h-1.5V12.7z M104.1,11.6c0-0.5-0.2-0.7-0.7-0.7h-2.6V9.8h3
				c0.5,0,1,0.2,1.3,0.5s0.5,0.8,0.5,1.4v3.8h-1.5V11.6z"/>
			<path fill="#0F2849" d="M40.8,33.4c-0.1-0.1-0.2-0.3-0.2-0.5s0.1-0.4,0.2-0.5s0.3-0.2,0.5-0.2s0.4,0.1,0.5,0.2
				c0.1,0.1,0.2,0.3,0.2,0.5s-0.1,0.4-0.2,0.5c-0.1,0.1-0.3,0.2-0.5,0.2S40.9,33.5,40.8,33.4z"/>
			<path fill="#0F2849" d="M43.1,30.7l0.2-0.7h0.9v5.5h-1.1V30.7z M44.9,32.7c0.3,0,0.6-0.1,0.8-0.2c0.2-0.1,0.4-0.3,0.5-0.6
				c0.1-0.3,0.2-0.7,0.3-1.2l0.2-1.9h-3.5v-0.8h4.7l0,0.7l-0.1,1.8c0,1-0.3,1.7-0.7,2.3c-0.4,0.5-1.1,0.8-1.9,0.8L44.9,32.7z"/>
			<path fill="#0F2849" d="M53.1,32.6c-0.8,0.7-2,1-3.7,1l-0.7-5.7h1l0.3,2.7c0.4-0.2,0.6-0.4,0.8-0.7s0.2-0.7,0.2-1.3v-0.6h1l0,0.6
				c0,0.7-0.2,1.3-0.4,1.8c-0.3,0.4-0.8,0.8-1.4,1.1l0.2,1.4c1-0.1,1.7-0.4,2.2-0.9c0.5-0.5,0.7-1.3,0.7-2.3l0-1.6h1.1l0,1.5
				C54.3,30.8,53.9,31.9,53.1,32.6z"/>
			<path fill="#0F2849" d="M55.2,32.7h1.6v-3.1c0-0.3-0.1-0.5-0.2-0.6s-0.3-0.2-0.5-0.2l-0.7-0.1l0.1-0.8l1,0.2
				c0.4,0.1,0.7,0.2,0.9,0.5c0.2,0.3,0.3,0.6,0.3,1.1v4h-2.7V32.7z"/>
			<path fill="#0F2849" d="M59.1,30.8l0.2-0.7h0.9v3.4h-1.1V30.8z M62.5,29.7c0-0.4-0.1-0.6-0.2-0.8c-0.2-0.2-0.4-0.2-0.7-0.2h-2.5
				v-0.8h2.7c0.5,0,0.9,0.1,1.3,0.5c0.3,0.3,0.4,0.8,0.4,1.4v3.7h-1.1V29.7z"/>
			<path fill="#0F2849" d="M66.3,32.9c0.4,0,0.6-0.1,0.8-0.3c0.1-0.2,0.2-0.4,0.2-0.8v-3.9H70c0.5,0,1,0.1,1.3,0.5
				c0.3,0.3,0.5,0.8,0.5,1.4v3.7h-1.1v-3.8c0-0.4-0.1-0.6-0.2-0.8c-0.2-0.2-0.4-0.2-0.7-0.2h-1.4v3c0,0.7-0.2,1.1-0.5,1.4
				c-0.3,0.3-0.8,0.5-1.5,0.6L66.3,32.9z"/>
			<path fill="#0F2849" d="M76.7,33.5l-2.1-3.2l-1,3.2h-1l1.1-3.4l0.3-0.7L73,27.9h1.1l0.8,1.4l0.8,1.3l0.3-0.9l0.5-1.7h1l-1.2,3.5
				l1.4,2.1H76.7z"/>
			<path fill="#0F2849" d="M80.8,29l-0.1-1.2h1.1l0.1,1.2v4.5h-1.1V29z"/>
			<path fill="#0F2849" d="M83,32.7h1.6v-3.1c0-0.3-0.1-0.5-0.2-0.6s-0.3-0.2-0.5-0.2l-0.7-0.1l0.1-0.8l1,0.2
				c0.4,0.1,0.7,0.2,0.9,0.5c0.2,0.3,0.3,0.6,0.3,1.1v4H83V32.7z"/>
			<path fill="#0F2849" d="M91.4,32.8c-0.4,0.5-1,0.8-1.8,0.8c-0.3,0-0.6,0-0.9-0.1l0.1-0.8c0.3,0.1,0.5,0.1,0.6,0.1
				c0.5,0,0.9-0.2,1.1-0.5c0.2-0.4,0.3-0.9,0.3-1.5c0-0.7-0.1-1.2-0.3-1.6c-0.2-0.3-0.5-0.5-1-0.5c-0.3,0-0.6,0.1-0.8,0.3
				c-0.2,0.2-0.3,0.4-0.4,0.7l-0.7,3.8h-1.1l0.7-3.9l-0.8-1.8h1.1l0.4,1.2c0.1-0.4,0.4-0.7,0.6-0.9c0.3-0.2,0.6-0.3,1-0.3
				c0.7,0,1.2,0.2,1.6,0.7c0.4,0.5,0.6,1.2,0.6,2.2C92,31.6,91.8,32.3,91.4,32.8z"/>
			<path fill="#0F2849" d="M97.6,32.8c-0.4,0.5-1,0.8-1.8,0.8c-0.3,0-0.6,0-0.9-0.1l0.1-0.8c0.3,0.1,0.5,0.1,0.7,0.1
				c0.5,0,0.9-0.2,1.1-0.5c0.2-0.4,0.4-0.9,0.4-1.5c0-0.7-0.1-1.2-0.3-1.6c-0.2-0.3-0.5-0.5-1-0.5c-0.3,0-0.6,0.1-0.8,0.3
				s-0.3,0.4-0.4,0.7l-0.7,3.8H93l0.7-3.9l-0.8-1.8H94l0.5,1.2c0.1-0.4,0.4-0.7,0.6-0.9c0.3-0.2,0.6-0.3,1-0.3
				c0.7,0,1.2,0.2,1.6,0.7s0.6,1.2,0.6,2.2C98.2,31.6,98,32.3,97.6,32.8z"/>
			<path fill="#0F2849" d="M103.6,29.8c0-0.5,0.1-0.9,0.3-1.2h-2.7v-0.8h4.5v0.8h-0.8c-0.1,0.3-0.2,0.7-0.2,1.2v3.6h-1.1V29.8z"/>
		</g>
		<g>
			<rect x="80.5" y="6.7" opacity="0.8" fill="#EFBE78" width="54.3" height="13.1"/>
		</g>
		<g>
			<g>
				<circle fill="#58595B" cx="-8.3" cy="51.6" r="15.9"/>
				<path fill="#58595B" d="M26.4,56H4.9c-2.4,0-4.4-2-4.4-4.4v0c0-2.4,2-4.4,4.4-4.4h21.5c2.4,0,4.4,2,4.4,4.4v0
					C30.8,54,28.8,56,26.4,56z"/>
				<circle fill="#6D6E71" cx="-8.8" cy="50.7" r="15.9"/>
				<circle fill="#808285" cx="-8.5" cy="50.7" r="14.7"/>
				<path fill="#6D6E71" d="M25.9,55.1H4.4c-2.4,0-4.4-2-4.4-4.4v0c0-2.4,2-4.4,4.4-4.4h21.5c2.4,0,4.4,2,4.4,4.4v0
					C30.3,53.1,28.3,55.1,25.9,55.1z"/>
				<path fill="#6D6E71" d="M25.9,55.1H4.4c-2.4,0-4.4-2-4.4-4.4v0c0-2.4,2-4.4,4.4-4.4h21.5c2.4,0,4.4,2,4.4,4.4v0
					C30.3,53.1,28.3,55.1,25.9,55.1z"/>
				
					<line fill="none" stroke="#58595B" stroke-width="7" stroke-linecap="round" stroke-miterlimit="10" x1="4.3" y1="50.7" x2="25.6" y2="50.7"/>
				
					<line fill="none" stroke="#808285" stroke-width="6" stroke-linecap="round" stroke-miterlimit="10" x1="4.3" y1="50.7" x2="25.6" y2="50.7"/>
				
					<line fill="none" stroke="#6D6E71" stroke-width="4" stroke-linecap="round" stroke-miterlimit="10" x1="4.3" y1="50.7" x2="25.6" y2="50.7"/>
				
					<line fill="none" stroke="#808285" stroke-width="3" stroke-linecap="round" stroke-miterlimit="10" x1="4.3" y1="50.7" x2="25.6" y2="50.7"/>
				<g>
					<defs>
						<circle id="SVGID_47_" cx="-8.8" cy="50.7" r="15.9"/>
					</defs>
					<clipPath id="SVGID_6_">
						<use xlink:href="#SVGID_47_"  overflow="visible"/>
					</clipPath>
					<polygon clip-path="url(#SVGID_6_)" fill="#939598" points="-22.8,58.9 5.6,58.9 -2.7,73.1 -21.4,71.8 					"/>
					<rect x="-24" y="25.2" clip-path="url(#SVGID_6_)" fill="#6D6E71" width="35.6" height="17.3"/>
				</g>
				
					<line fill="none" stroke="#939598" stroke-width="2" stroke-linecap="round" stroke-miterlimit="10" x1="4.3" y1="50.7" x2="25.6" y2="50.7"/>
			</g>
		</g>
	</g>
	<use xlink:href="#SVGID_28_"  overflow="visible" fill="none" stroke="#BCBEC0" stroke-miterlimit="10"/>
</g>
<g>
	<g>
		<line fill="none" stroke="#F26522" stroke-width="5.8828" stroke-miterlimit="10" x1="40.8" y1="93.9" x2="61.9" y2="93.9"/>
		<line fill="none" stroke="#F26522" stroke-width="5.8828" stroke-miterlimit="10" x1="51.3" y1="104.5" x2="51.3" y2="83.3"/>
	</g>
	<g>
		<path fill="#F6D2BA" d="M73.4,7.5c-1.2-2.1-3.1-3.3-5.6-2.7c-3.3,0.8-5.9-0.4-8.7-2.1c-1.4-0.8-2.8-1.6-4.3-2.1
			C53.5,0.2,52.2,0,51,0v0l0,0l0,0v0c-1.3,0-2.6,0.2-3.8,0.6c-1.5,0.5-2.9,1.3-4.3,2.1c-2.9,1.7-5.5,2.9-8.7,2.1
			c-2.5-0.6-4.4,0.6-5.6,2.7c-1.3,2.2-2,5-1.9,7.6c0,3.3,1.2,6.2,3.7,8.3c2.7,2.3,6.4,4.2,10,3c2-0.7,3.4-2.7,1.4-4.1
			c-0.2-0.2-0.4-0.4-0.4-0.6c0-0.1,2.2,0.4,2.5,0.5c2.7,1.2,4,5.5,7.2,5.4v0h0h0v0c3.3,0.1,4.5-4.2,7.2-5.4c0.3-0.1,2.5-0.7,2.5-0.5
			c0,0.3-0.2,0.5-0.4,0.6c-2.1,1.4-0.6,3.5,1.4,4.1c3.6,1.2,7.3-0.7,10-3c2.4-2.1,3.6-5.1,3.7-8.3C75.4,12.6,74.7,9.8,73.4,7.5z"/>
		<g>
			<path fill="#8B5E3C" d="M35,20.8c0,0,0.2-0.2,0.5-0.6c0.1-0.2,0.4-0.3,0.6-0.5c0.3-0.2,0.6-0.3,0.9-0.5c0.3-0.1,0.7-0.2,1.1-0.3
				c0.4,0,0.8-0.1,1.3,0c0.4,0.1,0.9,0.2,1.3,0.4c0.4,0.2,0.8,0.4,1.2,0.6c0.8,0.4,1.6,0.9,2.2,1.5c0.6,0.6,1.2,1.1,1.6,1.7
				c0.2,0.3,0.4,0.5,0.5,0.8c0.1,0.2,0.3,0.4,0.3,0.6c0.2,0.3,0.3,0.5,0.3,0.5l-0.3,0.2c0,0-0.2-0.1-0.4-0.3
				c-0.3-0.2-0.7-0.5-1.2-0.8c-0.5-0.3-1.1-0.6-1.8-0.9c-0.3-0.1-0.7-0.2-1-0.3c-0.4-0.1-0.7-0.2-1.1-0.3c-0.4-0.1-0.7-0.1-1.1-0.1
				c-0.4,0-0.7,0-1,0c-0.3-0.1-0.6-0.1-0.9-0.2c-0.3-0.1-0.6-0.2-0.9-0.3c-0.3-0.1-0.5-0.2-0.8-0.3c-0.2-0.1-0.4-0.2-0.6-0.3
				c-0.4-0.2-0.6-0.3-0.6-0.3L35,20.8z"/>
		</g>
		<g>
			<path fill="#8B5E3C" d="M66.9,21.1c0,0-0.2,0.2-0.6,0.3c-0.2,0.1-0.4,0.2-0.6,0.3c-0.2,0.1-0.5,0.2-0.8,0.3
				c-0.3,0.1-0.6,0.2-0.9,0.3c-0.3,0.1-0.6,0.2-0.9,0.2c-0.3,0-0.7,0-1,0c-0.4,0-0.7,0-1.1,0.1c-0.4,0.1-0.7,0.2-1.1,0.3
				c-0.3,0.1-0.7,0.2-1,0.3c-0.7,0.3-1.3,0.6-1.8,0.9c-0.5,0.3-0.9,0.6-1.2,0.8c-0.3,0.2-0.4,0.3-0.4,0.3l-0.3-0.2
				c0,0,0.1-0.2,0.3-0.5c0.1-0.2,0.2-0.4,0.3-0.6c0.1-0.2,0.3-0.5,0.5-0.8c0.4-0.5,0.9-1.1,1.6-1.7c0.6-0.6,1.4-1.1,2.2-1.5
				c0.4-0.2,0.8-0.4,1.2-0.6c0.4-0.2,0.9-0.4,1.3-0.4c0.4-0.1,0.9-0.1,1.3,0c0.4,0.1,0.8,0.1,1.1,0.3c0.3,0.1,0.6,0.3,0.9,0.5
				c0.3,0.2,0.5,0.3,0.6,0.5c0.3,0.3,0.5,0.6,0.5,0.6L66.9,21.1z"/>
		</g>
		<path fill="#C3D7DC" d="M22.9,47.5c0,0,9.5-3.4,14.2-13.9"/>
		<path fill="#C3D7DC" d="M33.4,50c0,0,7.2-7.1,7-18.6"/>
		<path fill="#C3D7DC" d="M79.4,47.5c0,0-9.5-3.4-14.2-13.9"/>
		<path fill="#C3D7DC" d="M69,50c0,0-7.2-7.1-7-18.6"/>
	</g>
	<g>
		<path fill="#00AED6" d="M5.6,72.2c-1.7-0.6-3.1-1.5-4.4-2.6l3.7-4.5c0.9,0.7,1.8,1.3,2.9,1.7c1,0.4,2,0.7,2.9,0.7
			c1.9,0,2.8-0.6,2.8-1.7c0-0.4-0.1-0.7-0.4-0.9c-0.3-0.2-0.6-0.5-1.2-0.7c-0.5-0.2-1.1-0.5-1.8-0.7l-3.1-1.3
			c-1.5-0.6-2.7-1.5-3.6-2.6s-1.4-2.6-1.4-4.3c0-1.4,0.4-2.7,1.2-3.9s1.9-2.1,3.3-2.8c1.4-0.7,3-1,4.7-1c1.5,0,2.9,0.3,4.4,0.8
			c1.5,0.6,2.7,1.4,3.8,2.5l-3.3,4.1c-0.9-0.6-1.7-1.1-2.5-1.3c-0.8-0.3-1.6-0.4-2.5-0.4c-0.8,0-1.4,0.1-1.9,0.4s-0.7,0.7-0.7,1.2
			c0,0.4,0.1,0.7,0.4,1c0.3,0.3,0.7,0.5,1.3,0.8c0.6,0.3,1.2,0.5,1.9,0.8l3,1.2c3.2,1.3,4.8,3.5,4.8,6.8c0,1.4-0.4,2.7-1.2,3.9
			s-1.9,2.2-3.3,2.9s-3.2,1.1-5.1,1.1C8.9,73.1,7.3,72.8,5.6,72.2z"/>
		<path fill="#00AED6" d="M54.9,67.4H48l-1.2,5.2h-6.7L47.6,48h7.9L63,72.7h-6.9L54.9,67.4z M53.7,62.4l-0.4-1.7
			c-0.3-1.3-0.7-2.7-1-4.3l-0.8-3.6h-0.2l-0.2,1.1c-0.6,2.8-1.1,5-1.5,6.8l-0.4,1.7H53.7z"/>
		<path fill="#00AED6" d="M84.4,48h8.9c2.9,0,5.2,0.5,6.8,1.4c1.7,0.9,2.5,2.5,2.5,4.8c0,1.1-0.3,2.2-0.9,3.2s-1.3,1.7-2.2,2.1v0.2
			c1.3,0.4,2.3,1.1,3.1,2c0.8,1,1.2,2.2,1.2,3.8c0,2.4-0.9,4.3-2.7,5.5s-4.2,1.8-7,1.8h-9.7V48z M93.1,57.6c1,0,1.8-0.2,2.3-0.7
			c0.5-0.4,0.8-1.1,0.8-1.8c0-0.8-0.3-1.3-0.8-1.6c-0.5-0.3-1.3-0.5-2.4-0.5h-2.2v4.6H93.1z M93.6,67.6c2.5,0,3.8-0.9,3.8-2.7
			c0-0.9-0.3-1.5-0.9-1.9c-0.6-0.4-1.6-0.6-2.9-0.6h-2.7v5.2H93.6z"/>
	</g>
</g>
</svg>
