<?xml version="1.0" encoding="utf-8"?>
<!-- Generator: Adobe Illustrator 19.1.0, SVG Export Plug-In . SVG Version: 6.00 Build 0)  -->
<svg version="1.1" id="Layer_1" xmlns="http://www.w3.org/2000/svg" xmlns:xlink="http://www.w3.org/1999/xlink" x="0px" y="0px"
	 viewBox="0 0 21.8 6.8" enable-background="new 0 0 21.8 6.8" xml:space="preserve">
<g>
	<g>
		<path fill="#808285" d="M1.4,6.5c0.4,0.2,0.9,0.2,1.3,0.2c0.5,0,0.9-0.1,1.3-0.3c0.4-0.2,0.6-0.4,0.8-0.7s0.3-0.6,0.3-1
			C5.1,4.3,5,4,4.8,3.7S4.2,3.2,3.8,3L3,2.7C2.7,2.6,2.5,2.5,2.4,2.4C2.3,2.4,2.2,2.3,2.1,2.2C2,2.1,2,2,2,1.8C2,1.6,2,1.5,2.2,1.4
			s0.4-0.2,0.7-0.2c0.3,0,0.5,0,0.7,0.1c0.1,0,0.2,0.1,0.3,0.2c0.1,0,0.4,0,0.5-0.1c0,0,0,0,0.1,0c0.1-0.1,0.2-0.2,0.2-0.3
			C4.8,1,4.9,0.9,4.9,0.9C4.7,0.6,4.3,0.4,4,0.2C3.6,0.1,3.2,0,2.9,0C2.4,0,2,0.1,1.7,0.3C1.3,0.4,1.1,0.7,0.9,0.9s-0.3,0.6-0.3,1
			c0,0.4,0.1,0.8,0.4,1.1c0.2,0.3,0.6,0.5,1,0.7l0.9,0.4C3,4.2,3.2,4.2,3.3,4.3c0.1,0.1,0.2,0.1,0.3,0.2c0.1,0.1,0.1,0.2,0.1,0.4
			c0,0.2-0.1,0.4-0.3,0.5S3.1,5.6,2.7,5.6c-0.3,0-0.6-0.1-0.8-0.2C1.6,5.3,1.3,5,1,4.9C0.9,5,0.8,5.1,0.6,5.2
			c-0.1,0-0.1,0.3-0.1,0.3c0,0.1-0.1,0.2-0.2,0.3C0.6,6.1,1,6.4,1.4,6.5z"/>
		<path fill="#808285" d="M7.2,0.9C7.2,0.9,7.2,0.9,7.2,0.9c0.1-0.2,0-0.5,0-0.7c0,0,0,0,0,0C7.5,0,8,0.1,8.3,0.1c0.3,0,0.6,0,0.8,0
			c0.2,0.5,0.3,1.1,0.5,1.6c0.3,1,0.6,2,1,3.1c0.1,0.3,0.2,0.7,0.3,1C11,6,11,6.1,11.1,6.2c0,0,0,0.1,0,0.2c0,0,0,0,0,0.1
			c0,0-0.2,0.1-0.3,0.1c-0.1,0-0.1,0.1-0.2,0.1c-0.1,0-0.1,0-0.2,0.1c-0.1,0-0.1,0-0.2-0.1c-0.1,0-0.2,0-0.3,0c0,0-0.3,0-0.3,0
			c0,0-0.4-1.6-0.4-1.6s-2,0-2,0C7.2,5.2,7.1,5.5,7.1,5.7C7,5.8,7,6,6.9,6.2C6.9,6.4,6.6,6.5,6.4,6.5c-0.1,0-0.2,0.1-0.2,0.1
			c-0.1,0-0.1,0-0.2,0.1c-0.1,0-0.6-0.1-0.6,0c0,0,2-6.1,2.1-6.5 M9,4L8.8,3.3C8.8,3,8.6,2.5,8.5,1.9L8.3,1.2h0
			C8.1,2,7.9,2.7,7.7,3.3L7.5,4H9z"/>
		<path fill="#808285" d="M13.3,6c0,0-0.6,0.5-0.8,0.6c0,0-0.1,0-0.1,0c0,0-0.1,0-0.1,0c-0.1,0-0.2,0-0.3,0c0,0,0,0,0-0.1
			c0-0.9,0-1.7,0-2.6c0-0.6,0-1.2,0-1.8c0-0.3,0-0.5,0-0.8c0-0.3,0-0.5-0.2-0.7c-0.1-0.1-0.2-0.3-0.3-0.4c0.2,0,0.3,0,0.5-0.1
			c0.7,0,1.3,0,2,0c0.7,0,0.9,0,1.6,0v0.7L15.3,1h-1.9c0,0,0,1.9,0,1.9c0.3,0,0.7,0,1,0c0.3,0,0.5,0,0.7,0l0,0.8l-0.2,0.2l-0.1,0
			c0,0-0.1,0-0.1,0c-0.2,0-0.4,0-0.6-0.1c-0.2,0-0.6-0.1-0.7,0.1C13.2,4,13.3,6,13.3,6z"/>
		<path fill="#808285" d="M17.1,0.1h3.6l0,0.8L20.3,1h-1.8l0,1.7l1.6,0v0.8l-0.3,0.2h-1.3l0,1.8h2.3l0,0.9l-0.5,0.4l-3.2-0.1V0.1z"
			/>
	</g>
	<g>
		<path fill="#414042" d="M1.1,6.6C0.7,6.4,0.3,6.2,0,5.9l0.6-0.7c0.2,0.2,0.5,0.4,0.8,0.6C1.7,5.9,2,5.9,2.3,5.9
			c0.4,0,0.7-0.1,0.9-0.3S3.6,5.3,3.6,5c0-0.2,0-0.3-0.1-0.5C3.4,4.4,3.3,4.3,3.1,4.2C3,4.2,2.8,4.1,2.5,4L1.6,3.5
			C0.7,3.2,0.3,2.6,0.3,1.8c0-0.3,0.1-0.6,0.3-0.9C0.8,0.6,1,0.4,1.3,0.3C1.7,0.1,2,0,2.4,0c0.4,0,0.7,0.1,1.1,0.2s0.6,0.3,0.9,0.6
			L3.9,1.5C3.4,1.1,3,0.9,2.4,0.9C2.1,0.9,1.8,1,1.6,1.2S1.3,1.5,1.3,1.8c0,0.2,0,0.3,0.1,0.4s0.2,0.2,0.3,0.3s0.3,0.2,0.6,0.3
			l0.9,0.4c0.4,0.2,0.8,0.4,1,0.7c0.2,0.3,0.3,0.6,0.3,1.1c0,0.4-0.1,0.7-0.3,1S3.9,6.4,3.5,6.6S2.8,6.8,2.3,6.8
			C1.9,6.8,1.5,6.7,1.1,6.6z"/>
		<path fill="#414042" d="M8.9,4.8H6.6L6,6.7H5l2.2-6.5h1.2l2.2,6.5H9.4L8.9,4.8z M8.6,4L8.4,3.2C8.3,2.8,8.2,2.5,8.1,2.1
			C7.9,1.6,7.9,1.3,7.8,1.2c0-0.1,0-0.1,0-0.2h0C7.5,1.8,7.3,2.5,7.1,3.2L6.8,4H8.6z"/>
		<path fill="#414042" d="M11.4,0.2h3.9V1h-2.9v2h2.4v0.9h-2.4v2.8h-1V0.2z"/>
		<path fill="#414042" d="M16.4,0.2h3.9V1h-2.9v1.8h2.4v0.9h-2.4v2.1h3v0.9h-4V0.2z"/>
	</g>
</g>
</svg>
