<?xml version="1.0" encoding="utf-8"?>
<!-- Generator: Adobe Illustrator 19.1.0, SVG Export Plug-In . SVG Version: 6.00 Build 0)  -->
<svg version="1.1" id="Layer_1" xmlns="http://www.w3.org/2000/svg" xmlns:xlink="http://www.w3.org/1999/xlink" x="0px" y="0px"
	 viewBox="0 0 138.1 87.6" enable-background="new 0 0 138.1 87.6" xml:space="preserve">
<g>
	<g>
		<defs>
			<rect id="SVGID_791_" x="122.4" y="-180.9" width="92.5" height="79"/>
		</defs>
		<clipPath id="SVGID_2_">
			<use xlink:href="#SVGID_791_"  overflow="visible"/>
		</clipPath>
		<path clip-path="url(#SVGID_2_)" fill="#63774E" d="M148.1-87.9c-6.5-7.2-13,8.9-13.8,13.3c-1,5.1,0.4,10.1,0.3,15.2
			c-0.2,5.3,1.8,16.3-1.7,20.5c-1.8,2.1-5.2,3.8-7.4,5.6c-2.5,2.1-4.8,4.4-7,6.8c-8.4,9.2-14.9,20.4-18,32.4c1.5,0.4,3,1.7,4.7,2.2
			c1.9,0.7,4,1.1,5.7,2.2C108.3,8.7,122.6-7.6,124-9c4-4.4,8.1-8.9,13.3-11.7c4.8-2.5,9.5-5.7,11.9-10.7c0.9-1.8,1.4-3.8,1.8-5.8
			c1.7-7.2,4.3-13.6,6.9-20.5c0.9-2.4,1.8-3.4,3.5-5c1.7-1.7,2.7-4,3.7-6.2c2.4-5.2,4.3-10.6,5.7-16.1c-3.5-0.1-7.1,0.7-10.2,2.4"/>
	</g>
</g>
<g>
	<ellipse opacity="0.33" fill="#A7A9AC" cx="49.6" cy="82.1" rx="49.6" ry="5.5"/>
	<g>
		<ellipse fill="#FFFFFF" cx="86.1" cy="39.4" rx="14.8" ry="11.1"/>
		<path fill="#FFFFFF" d="M75.3,44.3c-0.4-0.3-1-0.1-1.1,0.4l-0.5,2.5l-0.5,2.5c-0.1,0.5,0.4,0.9,0.8,0.8l2.4-0.8l2.4-0.8
			c0.5-0.2,0.6-0.8,0.2-1.1l-1.9-1.7L75.3,44.3z"/>
	</g>
	<g>
		<ellipse fill="#FFFFFF" cx="14.8" cy="11.1" rx="14.8" ry="11.1"/>
		<path fill="#FFFFFF" d="M25.7,16.1c0.4-0.3,1-0.1,1.1,0.4l0.5,2.5l0.5,2.5c0.1,0.5-0.4,0.9-0.8,0.8l-2.4-0.8l-2.4-0.8
			c-0.5-0.2-0.6-0.8-0.2-1.1l1.9-1.7L25.7,16.1z"/>
	</g>
	<g>
		<path fill="#1A242D" d="M13.5,75.2c-0.2-0.9-0.4-1.8-0.4-1.8c-1,0.1-2-0.2-3,0.1c-0.3,0.1-0.6,0.2-0.7,0.5
			c-0.2,0.2-0.2,0.5-0.3,0.8c-0.2,1.4-0.1,2.9,0.4,4.2c0.3,0.9,0.8,1.8,1.5,2.3c0.7,0.5,1.7,0.6,2.3,0c0.6-0.7,0.6-1.8,0.5-2.8
			c0-0.5-0.2-1,0-1.5C13.9,77,13.7,76.1,13.5,75.2z"/>
		<path fill="#1A242D" d="M60.6,78.7c-0.6,0-1.1,0-1.6,0.4c-0.6,0.5-0.8,1.3-0.8,2c0,0.3,0,0.6,0.2,0.9c0.1,0.2,0.4,0.4,0.6,0.5
			c1.1,0.7,2.3,1.1,3.6,1.1c0.8,0,1.7-0.1,2.4-0.6s1.1-1.4,0.7-2.2c-0.3-0.8-1.3-1.2-2.2-1.5c-0.4-0.1-0.9-0.2-1.3-0.5
			c-0.1-0.1-0.2-0.1-0.3-0.2c-0.2-0.1-0.4,0-0.6,0C61.1,78.7,60.9,78.7,60.6,78.7z"/>
		<path fill="#596846" d="M62.7,74.6c-0.1,1.3-0.1,3.3-0.1,4.6c0,0.3-3.7,0.5-4.1,0.1c-0.6-0.5-0.5-2.2-0.7-2.9
			c-0.2-1-0.5-2.1-0.7-3.1c-0.4-2.1-0.7-4.3-0.7-6.4c0-0.6,0-1.2,0.1-1.8c0.1-0.7,0.2-1.4,0.4-2.1c0,0.3-6.1-0.7-6.4-0.7
			c-2.2-0.4-4.5-0.5-6.6-1c-1.9-0.5-3.6-0.5-3-2.8c0.5-2.2,1.7-7.1,4.6-7.3c1.3-0.1,2.2,1.3,3.2,1.8c1.7,0.9,3.8,1.2,5.7,1.7
			c2.1,0.6,4.2,1.3,6.3,2c0.6,0.2,1.1,0.4,1.6,0.8c1.2,1,1.3,2.8,1.2,4.3c-0.2,1.8-0.2,3.7-0.3,5.5C63,69.7,62.9,72.2,62.7,74.6z"/>
		<path fill="#6B7F54" d="M26.1,77.3c1.8,0.4,3.7,0.6,5.6,0.8c0.8,0.1,1.5,0.2,2.3-0.1c1.3-0.4,1.9-1.7,2.6-2.8
			c0.8-1.4,1.4-2.8,1.9-4.4c0.8-2.4,1.7-4.9,2.5-7.3c0.1-0.4,0.3-0.9,0.6-1.2c0.3-0.4,0.7-0.7,1.1-1.1c2.3-2,3.9-4.9,3.6-7.8
			c-0.1-1.1-0.6-1.6-1.6-1.7c-0.9-0.1-1.7-0.3-2.6-0.6c-1.6-0.5-3.7-1-5.1,0.4c-0.4,0.3-0.7,0.8-1,1.2c-1.7,2.5-3.3,5.7-3.8,8.7
			c0,0.2-0.1,0.5-0.1,0.7c-0.3,2.5-0.2,5-0.8,7.5C31,70,30.8,71.8,30.3,72c-0.3,0.1-1.3-0.3-1.6-0.3c-0.6-0.1-1.2-0.2-1.8-0.3
			c-4.3-0.7-9.6-0.1-13.6,1.9c-0.1,0.1-0.2,0.1-0.3,0.2c0,0.1,0,0.2,0,0.3c0,0.7,0,1.5,0,2.2c0,0.1,0,0.3,0.1,0.3
			c0.1,0.1,0.3,0.1,0.4,0.1c1.9,0,3.9-0.1,5.8,0c0.3,0,0.7,0.1,1,0.1C22.3,76.7,24.2,76.9,26.1,77.3z"/>
		<g>
			<path fill="#F6D2BA" d="M57.3,23.8c0.9-2.1,1.2-4.1-0.5-6.1c-0.9-1-2.2-1.7-3.5-1.9c-0.7-0.2-1.5-0.2-2.2,0
				c-0.9,0.2-1.8,0.9-2.4,1.6c-1.3,1.4-2.7,3.6-2.5,5.5c0,0.7,1.3,1.7,0.8,2.2c-0.6,0.7-1.4,2-1.9,3c-0.1,0.2-0.1,0.5-0.2,0.6
				c-0.2,0.1-0.3,0.1-0.5,0.1c-0.5,0.1-0.9,0.5-1.1,1c-0.4,1-0.2,2.4,0,3.4c0.1,0.6,0.3,1.1,0.7,1.5c0.1,0.1,0.1,0.1,0.2,0.2
				c0.1,0,0.2,0,0.3-0.1c0.9-0.5,1.6-1.2,2.4-1.7c0.5-0.3,1.3-0.3,1.6-0.9c0.1-0.2,0.1-0.5,0.1-0.7c0.1-0.9,0-3.8,1.8-3
				c0.6,0.3,1.1,0.5,1.7,0.8c2.3,1,3.8-2.4,4.6-3.9C56.8,24.8,57.1,24.3,57.3,23.8z"/>
			<path fill="#8B5E3C" d="M47.8,25.9c0.7,0.1,1.5-0.1,2.1-0.5c0.6-0.4,1.3-1.3,1-2.1c-0.2-0.5-0.2-1.1,0.1-1.7
				c0.2-0.3,0.6-0.6,1-0.4c0.5,0.2,0.5,0.9,0.6,1.3c0.3,1.1,1.3,0.4,2,0.4c0.2,0,0.5,0,0.7,0.1c0.6,0.1,1.1,0.2,1.7,0.4
				c0.1,0,0.2,0,0.2,0.1c0,0.1,0,0.2,0,0.2c-0.1,0.2-0.2,0.4-0.3,0.6c1.9-1.2,3.1-3.8,1.8-5.8c-0.4-0.7-1-1.2-1.5-1.9
				c-0.8-1.4-3.3-2.4-4.9-2.4c-2.5,0-4.6,1.7-6,3.7c-0.4,0.6-0.7,1.3-1,2c-0.5,1.2-1,2.6-0.8,3.9c0.1,0.6,0.5,1.1,1.1,1.3
				c0.6,0.2,1.1,0.5,1.8,0.7C47.6,25.9,47.7,25.9,47.8,25.9z"/>
			<path d="M49.5,13.7c0-0.1,0-0.1,0-0.2c0.3,0,0.6,0.2,0.9,0.4c0.2,0.1,0.4,0.2,0.5,0.4c0.4,0.5,0.4,1.3,0,1.8
				c-0.4,0.5-1.1,0.7-1.7,0.8c-0.1,0-0.3,0-0.4,0c-0.5-0.1-0.7-0.7-0.6-1.2c0.1-0.5,0.4-0.9,0.7-1.2C49,14.1,49.2,13.8,49.5,13.7
				C49.4,13.6,49.4,13.6,49.5,13.7"/>
			<path fill="#8B5E3C" d="M47.7,17.2c0.3-0.4,0.5-0.9,0.9-1.3c1.1-1.2,2.8-2.4,2.5-4.3C50.8,10,48.4,9,46.9,9.2
				c-1.5,0.3-2.9,1.3-3.6,2.7c-0.4,0.7-0.6,1.4-0.6,2.2c-0.1,0.8,0,1.7-0.7,2.3c-0.6,0.5-1.5,0.4-2.1,0.9c-0.9,0.6-1,1.9-1.8,2.5
				c-0.6,0.4-1.3,0.4-1.8,0.8c-0.5,0.5-0.8,1.5-1.1,2.1c0.1-0.3,1.6-0.4,1.9-0.3c0.5,0.1,0.9,0.4,1.4,0.6c1.1,0.4,2.5,0.9,3.6,0.3
				c0.9-0.5,1.3-1.5,2.2-2c0.6-0.3,1.5-0.3,2.1-0.8c0.8-0.6,0.8-1.6,1.1-2.5C47.4,17.8,47.6,17.5,47.7,17.2z"/>
		</g>
		<path fill="#566345" d="M62.8,47.1c-1.5-1.1-3.5-2.2-4.5-3.8c-0.1-0.1-0.2-0.3-0.3-0.4c-0.9-1.4-1.5-3-2.2-4.6
			c-1.4-3-2.9-8.1-6.9-8.1c-0.5,1.4,0.2,2.8,0.7,4.1c0.8,2,0.4,6,1.8,7.3c1.3,1.3,1.8,2.9,2.8,4.4c1,1.4,2.4,2.3,3.6,3.5
			c1.4,1.3,2.8,2.2,4.4,3.2c1.5,0.9,3,1.7,4.5,2.6c0-0.1-0.1,0-0.1-0.1c0.6-1.2,1.3-2.4,2.1-3.5c-0.6-0.4-1.2-0.8-1.7-1.2
			C65.7,49.4,64.3,48.2,62.8,47.1z"/>
		<path fill="#FFFFFF" d="M48.9,30.2c-0.3,0-0.3,0.3-0.4,0.5c-0.1,0.3-0.4,0.6-0.5,0.9c-0.2,0.3-0.4,0.6-0.7,0.7
			c-0.3,0-0.5-0.1-0.7-0.3c-0.6-0.4-1-1-1.5-1.5c-0.1-0.1-1-1.2-1.1-1.1c-0.4,0.7-0.3,1.7-0.4,2.5c-0.1,0.9-0.2,1.8-0.3,2.7
			c-0.2,1.8-0.4,3.5-0.6,5.3c-0.2,1.8-0.3,3.6-0.5,5.3c0,0.5-0.6,5.2-0.4,5.3c2.3,0.7,4.7,1,7.2,0.9c0.2-1.6,0.4-3.1,0.5-4.7
			c0.4-4.1,0.5-8.2,0.5-12.4c0-1,0-1.9-0.2-2.9c-0.1-0.3-0.2-1-0.5-1.2C49.1,30.2,49,30.2,48.9,30.2z"/>
		<path fill="#63774E" d="M38.5,29.6c1.5-0.6,3-1,4.6-1.2c0.5-0.1,1.1-0.1,1.5,0.3c0.2,0.2,0.3,0.5,0.3,0.8
			c-0.1,1.3,0.6,2.4,1.2,3.5c0.6,0.9,0.8,1.9,1.1,2.9c0.4-1.1,0.6-2.4,0.9-3.5c0.2-0.9,0.5-2,0.5-3c0-0.1,0.9,0.4,1,0.5
			c0.3,0.3,0.5,0.8,0.6,1.2c0.2,0.6,0.2,1.1,0.3,1.7c0.1,2.3,2,3.9,1.5,6.3c-0.2,1-0.8,1.8-1,2.7c-0.3,1.2-0.8,2.2-1,3.4
			c-0.2,1.3,0.1,2.6,0.1,3.9c0,1.3-0.1,2.5-0.1,3.7c-0.1,1.3,0.1,1.7-1.2,1.8c-2.3,0.3-4.6,0-6.9-0.5c-1.7-0.3-3.5-0.8-5.1-1.4
			c1.5-4.6,0.9-9.3,1.2-14c0.2-3,0.4-6.1,0.6-9.1"/>
		<path fill="#6F825A" d="M47.1,37.4c0-0.1,0-0.1,0-0.2c0-1.1,0.2-1.9,0.6-3c0.1-0.2,0.1-0.4,0.3-0.5c-0.2,1.8,0,3.5,0,5.3
			c-0.2,5.2-1.3,10.2-1.3,15.4c0,0,0,0.1,0,0.1c0,0-0.1,0-0.1,0c-0.2,0-0.5,0-0.7-0.1c-0.1,0-0.1,0-0.1-0.1c0,0,0-0.1,0-0.1
			c0-1,0.3-2.1,0.4-3.2c0.2-1.6,0.4-3.3,0.5-4.9c0.2-1.7,0.3-3.3,0.4-5c0.2-2,0.2-3.8-0.2-5.8c-0.1-0.3-0.1-0.7-0.1-1
			c0.4,0.4,0.6,0.9,0.7,1.5c0.1-0.6,0.2-1.3,0.5-1.9"/>
		<path fill="#938C6C" d="M36.9,50.2c-0.1,0.3-0.2,0.6-0.3,0.9c-0.1,0.1-0.4,0.5-0.2,0.6c0.2,0.2,0.4,0.3,0.6,0.4
			c0.6,0.4,1.3,0.6,2,0.9c0.8,0.3,1.7,0.6,2.5,0.8c1.7,0.4,3.4,0.7,5.1,0.8c0.6,0,1.2,0.1,1.8,0.1c0.5,0,1.3-0.2,1.6-0.5
			c0.2-0.2,0.2-0.4,0.2-0.7c0-0.5,0-1,0-1.5c-0.1,0-1.4,0-1.4,0c-0.4,0-0.9,0.2-1.3,0.2c-0.7,0-1.3,0-2-0.1c-2.7-0.3-5-1.2-7.4-2.4
			c-0.2-0.1-0.4-0.3-0.6-0.3C37.1,49.4,36.9,50,36.9,50.2z"/>
		<path fill="#566345" d="M47.1,41.6c-0.8,0-1.7-0.1-2.5-0.3c-0.6-0.1-1.3-0.1-1.8-0.3c0.5,0.2,0.9,0.6,1.4,0.8
			c0.6,0.3,1.1,0.6,1.7,0.9c1.1,0.4,2.3,0.6,3.5,0.8c0.2,0,0.3,0,0.5,0c0.5-0.1,0.7-0.6,0.8-1.1c0.1-0.4,0.2-0.8,0.3-1.1
			c0.1-0.4,0.3-0.7,0.5-1.1c0-0.1,0.1-0.1,0.1-0.2c-0.7,0.5-1.4,1.2-2.3,1.4C48.6,41.5,47.9,41.6,47.1,41.6
			C47.1,41.6,47.1,41.6,47.1,41.6z"/>
		<g>
			
				<rect x="50.5" y="37" transform="matrix(0.9942 0.1076 -0.1076 0.9942 4.2783 -5.2289)" fill="#BCBEC0" width="0.2" height="0.1"/>
			<path fill="#D1D3D4" d="M50.7,37l-0.2,0c0,0,0,0,0,0l0,0L50.7,37L50.7,37C50.7,37,50.7,37,50.7,37z"/>
			<g>
				<path fill="#E6E7E8" d="M50.4,38.4l-0.1-0.1c0-0.1,0.1-0.1,0.1-0.1c0,0,0,0,0.1,0l0.1,0.1c0,0,0,0-0.1,0
					C50.5,38.3,50.4,38.3,50.4,38.4z"/>
			</g>
			<g>
				<path fill="#E6E7E8" d="M50.4,37.5C50.4,37.5,50.4,37.5,50.4,37.5c-0.1,0-0.1-0.1-0.1-0.1c0-0.1,0.1-0.1,0.2-0.1
					c0,0,0.1,0,0.1,0c0,0,0,0.1,0,0.1C50.6,37.4,50.5,37.5,50.4,37.5C50.5,37.5,50.5,37.5,50.4,37.5z"/>
			</g>
			<path fill="#BCBEC0" d="M50.7,36.9l-0.2,0c0,0-0.1,0-0.1-0.1l0,0L50.7,36.9L50.7,36.9C50.8,36.9,50.7,36.9,50.7,36.9z"/>
			<path fill="#D1D3D4" d="M50.4,38.8c0,0.1-0.1,0.1-0.1,0.1c0,0,0,0,0,0l0.2-1.9l0.2,0L50.4,38.8C50.5,38.8,50.5,38.8,50.4,38.8z"
				/>
			<g>
				<path fill="#E6E7E8" d="M50.4,38.7C50.4,38.7,50.4,38.7,50.4,38.7C50.4,38.7,50.4,38.7,50.4,38.7c-0.1-0.2-0.2-0.3-0.2-0.4
					c0,0,0,0,0,0l0.1,0c0,0,0,0.1,0.1,0.2c0,0,0,0,0,0.1C50.5,38.6,50.5,38.7,50.4,38.7c0.1,0,0,0.1,0,0.1
					C50.4,38.8,50.4,38.8,50.4,38.7z"/>
			</g>
			<g>
				<path fill="#E6E7E8" d="M50.4,37.6c0,0.1,0,0.1,0.1,0.1c0,0,0,0,0,0c0.1,0.1,0.2,0.2,0.1,0.4c0,0,0,0.1-0.1,0.1l0,0l0-0.1l0,0
					c0-0.1,0-0.2-0.1-0.2c0,0,0,0,0,0c-0.1-0.1-0.1-0.3-0.1-0.4c0,0,0,0,0,0l0.1,0.1"/>
				<path fill="#E6E7E8" d="M50.4,37.5c0,0,0,0.1,0,0.1"/>
			</g>
			<g>
				<path fill="#E6E7E8" d="M50.3,37c0.1,0,0.1,0,0.2,0c0.1,0,0.2,0,0.3,0c0,0,0.1,0,0.1,0c0,0,0,0,0,0c0,0,0.1,0,0.1,0.1
					c0,0,0,0.1,0,0.1c0,0,0,0-0.1,0c0,0,0,0-0.1,0c0,0-0.1,0-0.1,0l0-0.1l0-0.1c0,0,0.1,0,0.1,0c0,0,0.1,0,0.1,0c0,0,0,0,0,0l0,0
					c0,0,0,0,0,0c0,0,0,0-0.1,0c0,0-0.1,0-0.1,0c-0.1,0-0.1,0-0.2,0c0,0-0.1,0-0.1,0c0,0,0,0,0,0c0,0,0,0,0,0l0,0L50.3,37
					C50.3,37.1,50.3,37.1,50.3,37C50.3,37.1,50.3,37.1,50.3,37z"/>
			</g>
			
				<ellipse transform="matrix(0.9942 0.1076 -0.1076 0.9942 4.2826 -5.1834)" fill="#E6E7E8" cx="50.2" cy="37.1" rx="0.2" ry="0.1"/>
			<path fill="#D1D3D4" d="M50.2,36.5c0,0.2,0.2,0.3,0.4,0.3c0.2,0,0.4-0.1,0.4-0.3c0,0-0.3,0-0.4,0C50.5,36.6,50.2,36.5,50.2,36.5z
				"/>
		</g>
		<path fill="#1A242D" d="M131.9,75.9c-0.3,0.6-0.7,1.1-0.6,1.8c0,0.9,0.7,1.4,1.3,1.8c0.2,0.2,0.5,0.3,0.8,0.3
			c0.3,0,0.6-0.2,0.8-0.3c1.2-0.7,2.3-1.7,3-3c0.5-0.8,0.9-1.7,0.8-2.6c0-0.9-0.6-1.7-1.4-1.8c-0.9-0.1-1.8,0.7-2.5,1.4
			c-0.4,0.4-0.7,0.8-1.2,1c-0.1,0-0.2,0.1-0.3,0.1c-0.2,0.1-0.2,0.4-0.3,0.6C132.2,75.4,132.1,75.7,131.9,75.9z"/>
		<g>
			<path fill="#1A242D" d="M126.4,67.2c-0.1,0.6-0.3,1.1,0,1.7c0.3,0.7,1.1,1,1.8,1.2c0.3,0.1,0.6,0.1,0.9,0
				c0.3-0.1,0.5-0.3,0.7-0.5c0.9-0.9,1.6-2,1.9-3.3c0.2-0.8,0.3-1.7-0.1-2.5c-0.3-0.8-1.1-1.3-1.9-1.2c-0.9,0.1-1.5,1-1.9,1.8
				c-0.2,0.4-0.4,0.8-0.8,1.1c-0.1,0.1-0.2,0.1-0.2,0.2c-0.1,0.2-0.1,0.4-0.1,0.6C126.5,66.6,126.5,66.9,126.4,67.2z"/>
			<path fill="#566345" d="M80.6,74.4c0.3-0.1,1.2,0.6,1.4,0.7c3.8,2,7.2,2.5,11.6,1.7c4.3-0.8,8.4-2.6,11.8-5.4
				c2.2-1.8,3.8-1.7,6.5-1.8c3.6-0.1,7.2-0.1,10.7-0.3c0.9-0.1,1.8-0.1,2.7-0.1c1,0,1.2-0.3,1.5-1.4c0.2-1,0.8-2.4-0.3-3
				c-0.8-0.5-1.9-0.5-2.8-0.8c-2.8-0.7-5.8-1.1-8.6-1.6c-2.1-0.3-4.2-0.6-6.3-0.3c-1.9,0.3-3.6,1-5.4,1.8c-3.3,1.4-6.6,2.8-9.8,4.2
				c-3.1,1.3-4.4,0.6-7.3-0.9c-0.3-0.2-0.6-0.3-1-0.5c-0.2-0.1-0.5-0.2-0.8-0.2c-0.3,0.1-0.5,0.3-0.6,0.6c-0.4,0.8-0.5,1.6-0.8,2.5
				C82.8,71.4,81.6,72.9,80.6,74.4z"/>
		</g>
		<path fill="#63774E" d="M99.4,81.4c0.2-0.1,0.4-0.3,0.6-0.4c3.7-2.7,7-6.9,12.2-5.9c4.2,0.8,7.8,3,11.9,3.8
			c1.1,0.2,2.3,0.3,3.4,0.4c1.6,0.1,3.2,0.3,4.8,0.4c-0.5-1.7-0.2-3.7,1-5.2c-3.8,0.2-6.9-2.3-10.2-3.5c-7-2.6-14.7-6.8-21.8-2.2
			c-0.8,0.5-1.6,1-2.4,1.5c-0.7,0.4-1.4,0.6-2.1,1c-1.6,1-3.3,2.1-4.9,3.1c0,0,0.2-0.7,0.3-0.8c0.2-0.3,0.4-0.6,0.5-0.9
			c0.2-0.8,0-1.7-0.1-2.5c0-0.2-0.1-0.6-0.4-0.5c-0.1,0-0.2,0.1-0.3,0.2c-0.5,0.6-1,1.2-1.3,1.8c-0.6,1.2-1.1,2.8-2.7,3.1
			c-0.7,0.1-1.4,0.2-2.1,0.3c-5.5,1-0.7,5,1.5,6.9C91,85.2,95.6,83.9,99.4,81.4z"/>
		<path fill="#A97C50" d="M57,53.6c0.5-1.3,1.6-2.4,2.9-3.1c1.6-0.8,3.4-0.4,5,0.2c1.4,0.5,3.7,1.3,4.5,2.6c0.5,0.8,0.1,2.8-0.5,3.6
			c-0.2,0.2-0.4,0.6-0.2,0.9c0,0.1,0.1,0.2,0.2,0.3c0.5,0.5,1,0.7,1.7,0.6c0.8-0.1,1.7-0.1,2.5,0.1c0.4,0.1,0.9,0.3,1.1,0.7
			c0.1,0.4-0.1,0.9-0.3,1.2c-0.6,0.9-1.4,1.6-2.2,2.2c-0.3,0.2-0.6,0.4-0.9,0.5c-1.2,0.3-2.3-0.5-3.1-1.1c-2.4-1.8-5.7-1.7-8.2-3.2
			c-0.4-0.3-0.8-0.6-1.3-0.8c-0.4-0.3-0.8-0.5-1-0.9c-0.2-0.3-0.3-0.8-0.4-1.2C56.6,55.3,56.7,54.4,57,53.6z"/>
		<path fill="#603913" d="M60,49.7c-0.8,0.2-1.6,0.6-2.2,1.1c-0.2,0.1-1.8,1.9-1.3,2c0.1,0,0.1,0,0.2,0c0.2,0,0.3,0,0.5,0
			c-0.6,0.1-0.9,0.6-1.2,1.1c1.2,0.6,0.4,2.3,0.6,3.3c0.3,0.9,0.8,1.7,1.5,2.3c1.7,1.4,4,1.5,6.1,1.7c0.3,0,0.7,0.1,1,0
			c0.4-0.1,0.7-0.5,0.6-0.9c-0.1-0.6,0.4,0.2,0.2-0.4c0-0.1-0.1-0.2-0.1-0.3c-0.3-0.5-0.6-1-0.9-1.5c-0.2-0.4-0.3-0.5-0.9-0.3
			c-0.4,0.1-0.9,0.1-1.4-0.1c-0.1-0.1-0.2-0.1-0.3-0.3c-0.1-0.3,0.1-0.5,0.3-0.7c0.7-0.5,0.8-0.4,0.1-1c-0.4-0.3-0.4-2.1-0.5-2.7
			c-0.1-0.8,0.5-1.6,0.4-2.4C62.6,49.4,60.8,49.5,60,49.7z"/>
		<g>
			<path fill="#A97C50" d="M98.4,63.2c1.2,0.3,2.4-0.2,3.6,0.1c0.9,0.2,1.9,0.1,0.9-0.9c0,0,0.9-0.3,1.1-0.3c0.4,0,0.8,0.1,1.2-0.2
				c0.4-0.3,0.6-0.8,0.6-1.3c-0.1-0.7-0.6-1.4-1.3-1.5c-2.7-0.6-5.4,0.9-8,2.3C96.8,62.4,97.6,63,98.4,63.2z"/>
			<path fill="#566345" d="M84.7,64.1c-1.5-0.4-3-0.8-4.5-1.3c-2.8-0.8-5.7-1.6-8.2-3.2c0.5-1,1.1-3.3,1.9-4
				c1.1-0.9,1.4-0.3,2.8,0.3c2.6,1.2,5.4,1.9,7.8,3.5c0.5,0.3,1,0.6,1.5,0.8c0.7,0.2,1.3,0,2-0.1c3.9-0.7,7.8-1,11.7-1.5
				c-0.9,0.1-0.1,3.8-1.7,4.3c-3.2,1-6.4,2.3-9.8,2c-0.9-0.1-1.9-0.4-2.8-0.6C85.2,64.3,85,64.2,84.7,64.1z"/>
		</g>
		<path fill="#FFFFFF" d="M70.3,58.8c-0.1,0.2,0.2,0.5,0.2,0.7c0.1,0.3,0.1,0.6,0,0.9c-0.1,0.5-0.4,1.1-0.8,1.4
			c-0.2,0.1-2.3,1.3-2.4,1.1c0.4,0.7,1.4,1.1,2.1,1.5c0.7,0.5,1.5,1,2.2,1.5c1.5,1,3,2,4.5,2.9c1.5,1,3,1.9,4.5,2.8
			c0.4,0.2,4.4,2.9,4.5,2.8c1.7-1.7,3-3.8,4-6c-1.3-0.9-2.6-1.8-3.9-2.6c-3.5-2.2-7.1-4.2-10.8-6.1c-0.9-0.4-1.7-0.8-2.7-1.1
			c-0.3-0.1-1-0.2-1.3-0.1C70.4,58.6,70.3,58.7,70.3,58.8z"/>
		<path fill="#63774E" d="M65,65.5c0.1-0.5,0.2-0.9,0.3-1.4c0.2-0.7,0.5-1.5,1.2-1.8c0.4-0.2,1-0.4,1.6-0.4c1.5,0.2,3,0.4,4.4,0.5
			c0.4,0,0.8,0.1,1.2,0.1c0.3,0,0.6,0.2,0.8,0.2c-0.8-0.9-1.8-1.6-2.7-2.4c-0.4-0.3-0.7-0.6-1.1-0.9c-0.2-0.1-0.4-0.3-0.6-0.4
			c-0.1-0.1-0.5-0.3-0.6-0.4c-0.4-0.9,2.1-2.4,2.6-2.6c1.3-0.5,2,0.1,2.8,0.9c1.2,1,2.5,1.9,3.8,2.9c3.3,2.5,6.7,4.9,10.1,7.2
			c0.6,0.4,1.2,0.9,1.7,1.5c0.2,0.3,0.5,0.6,0.5,0.9c0.1,0.3-0.1,0.5-0.1,0.8c0,0.4,0.1,0.7,0.1,1c0.1,1.5-1.9,3.5-2.8,4.6
			c-1,1.3-2.2,2.9-3.5,3.8c-0.5-0.4-0.8-1-1.3-1.4c-0.6-0.6-1.6-1.1-2.4-1.6c-1.6-0.9-3.3-1.8-4.9-2.7c-3.2-1.9-6.9-2.3-10-4.3
			c-0.8-0.5-2-1.4-1.9-2.5c0-0.4,0.2-0.7,0.4-1.1C64.9,66.1,64.9,65.8,65,65.5z"/>
		<path fill="#6F825A" d="M75.9,63.7c-0.1,0-0.1-0.1-0.2-0.1c-1-0.5-1.6-1.1-2.5-1.9c-0.1-0.1-0.3-0.3-0.3-0.5
			c1.5,1,3.2,1.6,4.7,2.5c4.5,2.6,8.5,5.8,13.1,8.2c0,0,0.1,0,0.1,0.1c0,0,0,0.1,0,0.1c-0.1,0.2-0.2,0.4-0.4,0.5
			c0,0-0.1,0.1-0.2,0.1c0,0-0.1,0-0.1,0c-0.9-0.5-1.8-1.2-2.6-1.8c-1.4-0.9-2.7-1.8-4.1-2.7c-1.4-0.9-2.8-1.8-4.3-2.6
			c-1.7-1.1-3.3-1.9-5.2-2.5c-0.3-0.1-0.6-0.2-0.9-0.4c0.5-0.2,1.1-0.1,1.6,0c-0.5-0.3-1-0.8-1.5-1.3"/>
		<g>
			<path fill="#A97C50" d="M78,74c0.4-1.2,0.9-2.4,1.4-3.5c0.4-0.9,0.9-1.7,1.2-0.3c0,0,0.7-0.7,0.8-0.8c0.2-0.4,0.4-0.8,0.8-1
				c0.4-0.2,1-0.1,1.3,0.1c0.6,0.4,0.9,1.2,0.6,1.9c-1,2.7-3.6,4.4-6.1,5.9C77.3,75.6,77.7,74.9,78,74z"/>
			<path fill="#6F825A" d="M64.5,69.6c-0.4,2.7,0.5,5,1.5,7c0.9,1.7,1.8,3.3,2.9,4.9c0.1,0.2,1.5,0.5,1.7,0.6
				c0.3,0.1,0.6-0.1,0.9-0.2c1.9-0.9,3.5-2.2,5.2-3.4c1.3-1,2.5-2.3,3.9-3.1c-0.2-1-1-2.3-1.4-3.1c-0.1-0.2-0.2-0.3-0.4-0.3
				c-0.1,0-0.2,0.1-0.4,0.1c-1.5,0.9-3.1,1.9-5,3.1c-1.4,0.9-2,0.5-2.4-0.8c-0.3-1.1-0.6-2.3-0.9-3.4c-0.2-0.9-0.5-1.8-1-2.6
				c-0.6-1-1.5-2.3-2.9-1.4c-1.8,1.2-2.3,3.9-1.7,5.1"/>
		</g>
		<path fill="#938C6C" d="M83,78.1c0.3,0.3,0.7,0.9,1.1,1c0.4,0.2,0.7-0.2,1-0.4c1.1-0.7,2-1.7,2.8-2.7c1.1-1.2,2.1-2.6,3-4
			c0.3-0.5,0.6-1,0.8-1.5c0.2-0.4,0.5-1.6,0.2-2c-0.1-0.1-0.2-0.2-0.4-0.2c-0.5-0.2-1.1-0.4-1.6-0.7c-0.2,0.3-0.2,0.8-0.4,1.1
			c-0.2,0.5-0.2,1-0.4,1.4c-0.3,0.6-0.6,1.1-0.9,1.7C87,73.7,85.5,75,84,76.4c-0.3,0.3-0.7,0.6-1.1,0.9c-0.1,0.1-0.4,0.2-0.4,0.4
			C82.5,77.8,82.8,78,83,78.1C82.9,78,82.9,78.1,83,78.1z"/>
		<path fill="#F6D2BA" d="M66,54c0.6,1.1,1.8,1.6,2.5,2.6c0.5,0.8,1.3,1.4,1.3,0c0,0,0.8,0.5,0.9,0.5c0.3,0.3,0.5,0.6,1,0.7
			c0.5,0.1,1-0.1,1.3-0.5c0.5-0.6,0.6-1.4,0.2-2c-1.6-2.3-4.5-3.2-7.2-4C65.5,52.2,65.6,53.3,66,54z"/>
		<path fill="#A97C50" d="M62.9,53.1c0-0.5,0-1,0.2-1.5c0.1-0.3,0.2-0.6,0.5-0.8c0.8-0.8,2.3,0.2,3.2,0.6c1,0.4,2.2,1,2.8,1.9
			c0.6,0.9,0.2,3.5-1,3.8c-0.3,0.1-0.7,0-1-0.1c-1-0.3-1.9-0.3-2.8-0.9C63.6,55.5,63,54.3,62.9,53.1z"/>
		<g>
			<path fill="#F6D2BA" d="M47.1,54.4c0,0,0-0.1,0.1-0.1c0.8,0.4,1.4,1.1,2.3,1.4c0.9,0.3,1.8,0.8,0.4,1.2c0,0,0.7,0.7,0.9,0.7
				c0.4,0.2,0.8,0.3,1.1,0.7c0.3,0.4,0.2,1-0.1,1.4c-0.4,0.6-1.2,1-1.9,0.8c-2.1-0.6-3.1-1.8-3.9-3.7c0-0.1-0.1-0.2-0.1-0.3
				c0-0.2,0.1-0.3,0.2-0.4C46.5,55.6,46.9,55,47.1,54.4z"/>
			<path fill="#6F825A" d="M38.6,30.1c-2.2,2.1-3.1,5.2-3.6,8.2c-0.4,1.9-0.8,3.8-0.6,5.7c0.2,1.7,1.5,3.2,2.5,4.5
				c2.3,3,5,5.6,8,7.7c0.2,0.1,0.4,0.3,0.7,0.3c0.8,0.1,1.7-1.4,2.2-1.9c-2.9-2.9-5.5-6.1-7.8-9.4c-0.4-0.6-1.3-1.6-1.5-2.3
				c-0.2-0.8,0.4-2,0.6-2.8c0.6-1.9,1.4-3.8,2.2-5.7c0.6-1.4,2-4.1,0.2-5.2c-2.2-1.4-4.2,1.7-4.5,3.5"/>
		</g>
	</g>
</g>
</svg>
