<?xml version="1.0" encoding="utf-8"?>
<!-- Generator: Adobe Illustrator 19.1.0, SVG Export Plug-In . SVG Version: 6.00 Build 0)  -->
<svg version="1.1" id="Layer_1" xmlns="http://www.w3.org/2000/svg" xmlns:xlink="http://www.w3.org/1999/xlink" x="0px" y="0px"
	 viewBox="0 0 123.3 90" enable-background="new 0 0 123.3 90" xml:space="preserve">
<g>
	<ellipse transform="matrix(0.9662 -0.2578 0.2578 0.9662 -7.9951 21.0106)" fill="#FFFFFF" cx="76.1" cy="41" rx="4" ry="3"/>
	<ellipse transform="matrix(0.9662 -0.2578 0.2578 0.9662 -9.2214 22.659)" fill="#FFFFFF" cx="81.8" cy="46.5" rx="2.6" ry="1.9"/>
	<g>
		<defs>
			<rect id="SVGID_793_" x="46.5" y="11.1" width="92.5" height="79"/>
		</defs>
		<clipPath id="SVGID_2_">
			<use xlink:href="#SVGID_793_"  overflow="visible"/>
		</clipPath>
		<path clip-path="url(#SVGID_2_)" fill="#566345" d="M91.4,55.5c1.4,0.5,0.7,2.8,0.7,4c0.1,1.6,0.3,3.2,0.6,4.8
			c0.9,6.3,1.1,12.6,0.8,18.9c-0.2,3-0.5,6-1.9,8.6c-0.8,1.6-4.1,5-5.8,2.6c0,0.2,0,0.5,0,0.7c0-0.2-1.2-0.1-1.3-0.2
			c-1-0.6-2-1.2-2.9-1.9c-0.2-0.2-0.5-0.4-0.6-0.7c-0.1-0.3,0-0.5,0-0.8c0.7-3.7,1.4-7.4,2-11.1c0.6-3.3,0.9-6.6,1.6-9.9
			c0.6-3,1.5-5.9,2.4-8.8c0.7-2.1,1.1-4.6,2.9-6C90.1,55.3,90.9,55.3,91.4,55.5z"/>
		<path clip-path="url(#SVGID_2_)" fill="#8B5E3C" d="M97.2,56.7c0,0.2,0,0.5-0.1,0.7c-0.3,1.7-0.9,3.1-0.8,4.9
			c0.2,2.4,0.8,4.7,1.7,6.9c0.1,0.2,0.2,0.4,0.4,0.6c0.2,0.1,0.4,0.1,0.6,0.1c1.2-0.2,2.4-0.9,3.4-1.6c1.8-1.4,4.2-3.4,5-5.6
			c0.4-1.3-0.3-2.5-0.2-3.8c0-1.3,0.6-2.6,1.4-3.6c0.5-0.7,1.2-1.3,1.6-2.1c0.1-0.1,0.2-0.3,0.1-0.5c0-0.1-0.1-0.2-0.2-0.3
			c-2.4-2.4-1.3-6.9,0-9.6c0.7-1.4,1.4-2.8,1.8-4.3c0.5-1.9,0.6-3.9,0-5.8c-0.5-1.4-1.3-2.5-2.2-3.7c-0.9-1.2-1.8-2.4-2.7-3.6
			c-1-1.4-2.8-1.7-4.3-2.2c-0.8-0.3-1.7-0.6-2.5-0.5c-4.4,0.6-6.9,5.6-8.1,9.3c-0.3,1.1-0.6,2.2-0.9,3.4c-1,3.7-3.2,11.6,2,13.2
			c1.4,0.4,3.4,0.7,4.7,1.5c1.4,1,0.8,1.8,0.2,2.9C97.2,54.2,97.3,55.4,97.2,56.7z"/>
		<path clip-path="url(#SVGID_2_)" fill="#FFFFFF" d="M97.6,54.4c0.6,0,0.7,0.9,0.8,1.3c0.2,0.7,0.6,1.4,1,2.1
			c0.3,0.7,0.7,1.5,1.5,1.7c0.6,0.1,1.2-0.2,1.7-0.5c1.3-0.9,2.4-1.9,3.6-3c0.2-0.2,2.5-2.3,2.6-2.1c0.8,1.7,0.3,3.9,0.3,5.8
			c0.1,2,0.1,4,0.1,6c0,4,0,8,0,11.9c0,4-0.1,8-0.2,11.9c0,1.1,0.1,11.8-0.3,11.9c-5.3,1-10.8,1.1-16.1,0.2c-0.1-3.5-0.1-7,0-10.5
			c0.2-9.2,0.8-18.4,1.8-27.6c0.2-2.1,0.5-4.3,1.2-6.3c0.2-0.7,0.8-2.2,1.4-2.6C97.2,54.5,97.4,54.4,97.6,54.4z"/>
		<path clip-path="url(#SVGID_2_)" fill="#63774E" d="M119.3,107.6c-3.7,0.9-7.8,1.5-11.6,1.8c-4.8,0.4-9.5-0.4-14.3,0.5
			c-0.9,0.2-1.9,0.3-2.6-0.2C90,109.1,90,108,90,107c0.3-8,0.2-16-0.6-23.9c-0.7-7.1-2-14.2-1.4-21.3c0.1-1.6,0.3-3.2,1.3-4.5
			c0.9-1.3,2.3-2.1,3.8-2.7c1.7-0.8,3.9-1.1,5.5-2c0,2.3,0.1,4.5,0.3,6.8c0.3,2.7,0.5,5.4,1.1,8c1-2.2,1.8-4.2,3.2-6.1
			c1.2-1.5,2-3.2,3-4.8c0.9-1.3,1.9-2.5,2.9-3.7c0.9-1.2,1.5-1,3-0.7c3.1,0.6,6.1,2.1,8.9,3.5c1.2,0.6,1.3,1.9,1.5,3.2
			c0.6,4,0,8.1-0.7,12.1c-0.4,2.4-0.9,4.9-1.6,7.3c-1.6,6.4-1.9,13.6-1.9,20.1C118.3,99,119,107.6,119.3,107.6z"/>
		<path clip-path="url(#SVGID_2_)" fill="#6F825A" d="M99.8,71c0-0.1,0-0.3,0.1-0.4c0.3-2.5,0-4.3-0.5-6.9c-0.1-0.4-0.2-0.8-0.5-1.1
			c0.1,4-0.9,7.9-1.2,11.8C97,85.9,98.2,97.3,97,108.8c0,0.1,0,0.2,0,0.3c0.1,0.1,0.2,0.1,0.3,0.1c0.5,0.1,1,0.1,1.5-0.1
			c0.1,0,0.3-0.1,0.3-0.2c0.1-0.1,0.1-0.2,0.1-0.3c0.2-2.3-0.2-4.8-0.2-7.2c0-3.7-0.1-7.4,0-11.1c0-3.7,0.2-7.4,0.3-11.2
			c0-4.5,0.6-8.5,1.8-12.8c0.2-0.7,0.4-1.4,0.4-2.2c-0.9,0.8-1.6,1.9-1.9,3c0-1.4-0.2-2.9-0.6-4.3"/>
		<g clip-path="url(#SVGID_2_)">
			<path fill="#A97C50" d="M95.2,57.8c0.9-1.1,1-2.4,0.8-3.7c-0.2-1.5-0.4-3-0.8-4.4c-0.4-1.5-0.9-3.1-0.3-4.6
				c-0.7-0.4-1.6-0.2-2.2,0.4c-0.6,0.6-0.8,1.4-1.1,2.1c-0.5-0.9-1.3-1.9-2.2-1.7c-0.2,0.1-0.4,0.2-0.6,0.3c-1,0.6-1.9,1.3-2.7,2.1
				c-0.3,0.3-0.6,0.6-0.8,1c-0.2,0.8,0.2,1.5,0.7,2.2c0.8,1.1,1.5,2.2,2.3,3.4c1.2,1.7,2.5,3.5,4.5,3.9c0.4,0.1,0.9,0.1,1.3-0.1
				C94.6,58.5,95,58.2,95.2,57.8z"/>
			<path fill="#A97C50" d="M91.8,47.6c0.3-0.7,0.4-1.5,1-2.1c0.6-0.6,1.5-0.8,2.2-0.4c-0.4,1-0.4,2.1-0.1,3.1c0.1,0.5,0.3,1,0.4,1.5
				c0.1,0.3,0.2,0.5,0.2,0.8c0,0.1,0,0.3,0.1,0.4c0,0.1,0.1,0.2,0.1,0.2c0,0.2,0,0.3,0,0.5c0,0.2,0,0.3-0.1,0.4
				c-0.1,0.2-0.4,0.1-0.6,0.1c-0.4-0.1-0.7-0.2-1.1-0.3c-0.2,0-0.3-0.1-0.5-0.1c-0.2-0.1-0.4-0.2-0.6-0.3c-0.7-0.5-1.3-1.1-1.9-1.8
				c-0.2-0.2-0.5-0.5-0.4-0.8c0-0.2,0.4-0.4,0.6-0.4c0.1,0,0.3-0.1,0.4-0.2c0.1-0.1,0.1-0.1,0.2-0.2C91.7,47.8,91.7,47.7,91.8,47.6z
				"/>
			<path fill="#A97C50" d="M87.8,41.6c-0.2-0.3-0.5-0.7-1-0.7c-0.5,0-0.9,0.5-0.8,1c0,0.5,0.3,0.9,0.6,1.3c1.1,1.7,2.2,3.4,3.3,5.1
				c0.1,0.2,0.3,0.4,0.4,0.5c0.6,0.4,1.3-0.2,1.5-0.8c0.2-0.5-0.1-0.8-0.4-1.2c-0.3-0.5-0.6-1-1-1.5c-0.7-1-1.3-2-2-3
				C88.2,42.2,88,41.9,87.8,41.6z"/>
		</g>
		<path clip-path="url(#SVGID_2_)" fill="#6F825A" d="M97.2,56.7c1,2.3,3.6,6.5,3.9,7.1c0.8,1.4,1.6,2.8,2.4,4.1
			c0.3,0.5,2.3,3.3,2.1,3.7c0.9-1.9,2.4-3.2,3.6-4.8c1-1.4,1.7-3,2.7-4.4c1.4-2.3,3.3-4.2,5.1-6.1c0.5-0.5,1.4-1.7,2-1.8
			c0.9,0,1.9,0.1,2.7,0.8c0.7,0.7,1.1,1.7,1.4,2.8c1.4,6.3-2.6,11.3-5.9,15.3c-1.7,2-3.6,3.9-5.5,5.6c-1.5,1.4-2.9,3.5-4.7,4.4
			c-2.8,1.5-6.2-4.2-7.5-6.5c-1.3-2.4-2.5-4.8-3.7-7.2c-1-1.9-1.9-3.8-2.8-5.8c-0.9-1.9-1.7-3.6-2.4-5.5c2.3-0.7,4.4-1.8,6.4-3.2
			C96.7,55.4,96.9,55.9,97.2,56.7z"/>
		<g clip-path="url(#SVGID_2_)">
			
				<rect x="91.6" y="68.9" transform="matrix(-0.9997 2.498377e-002 -2.498377e-002 -0.9997 185.2005 135.7196)" fill="#BCBEC0" width="0.4" height="0.2"/>
			<path fill="#D1D3D4" d="M91.6,69l0.3,0c0,0,0.1,0,0.1-0.1l0-0.1l-0.5,0L91.6,69C91.5,68.9,91.6,69,91.6,69z"/>
			<g>
				<path fill="#E6E7E8" d="M91.9,71.3l0.2-0.1c0-0.1-0.2-0.1-0.2-0.2c0,0-0.1-0.1-0.1-0.1L91.6,71c0,0,0.1,0.1,0.1,0.1
					C91.8,71.2,91.9,71.3,91.9,71.3z"/>
			</g>
			<g>
				<path fill="#E6E7E8" d="M91.9,69.9C91.9,69.9,92,69.9,91.9,69.9c0.1,0,0.1-0.1,0.1-0.2c-0.1-0.1-0.2-0.2-0.4-0.2
					c0,0-0.1,0-0.1,0c0,0,0,0.1,0,0.1C91.7,69.7,91.8,69.8,91.9,69.9C91.9,69.9,91.9,69.9,91.9,69.9z"/>
			</g>
			<path fill="#BCBEC0" d="M91.6,68.8l0.3,0c0.1,0,0.1-0.1,0.1-0.1l0,0l-0.6,0l0,0C91.5,68.8,91.5,68.8,91.6,68.8z"/>
			<path fill="#D1D3D4" d="M91.7,72.1c0,0.1,0.2,0.2,0.2,0.2c0,0,0,0,0,0l0-3.2l-0.3,0L91.7,72.1C91.7,72,91.7,72,91.7,72.1z"/>
			<g>
				<path fill="#E6E7E8" d="M91.7,71.9C91.7,71.9,91.8,71.9,91.7,71.9c0.1-0.1,0.1-0.1,0.1-0.2c0.1-0.1,0.3-0.3,0.2-0.6c0,0,0,0,0,0
					l-0.1,0.1c0,0,0,0.2-0.2,0.4c0,0-0.1,0.1-0.1,0.1c0,0,0,0.1-0.1,0.1c0,0.1,0.1,0.2,0.2,0.2C91.8,72.1,91.7,72,91.7,71.9z"/>
			</g>
			<g>
				<path fill="#E6E7E8" d="M91.9,70c0,0.1-0.1,0.2-0.1,0.2c0,0,0,0-0.1,0.1c-0.1,0.1-0.3,0.3-0.2,0.6c0,0.1,0.1,0.1,0.1,0.2
					l0.1-0.1c0,0,0-0.2,0-0.2l0,0c0-0.2,0.1-0.3,0.2-0.4c0,0,0,0,0.1-0.1c0.2-0.2,0.3-0.4,0.1-0.6c0,0,0,0,0,0l-0.1,0.1"/>
				<path fill="#E6E7E8" d="M91.9,69.8c0,0,0,0.1,0,0.2"/>
			</g>
			<g>
				<path fill="#E6E7E8" d="M92.3,69.1c-0.1,0-0.2,0-0.3,0c-0.2,0-0.4,0-0.5,0c0,0-0.1,0-0.1,0c0,0,0,0,0,0c-0.1,0-0.1,0.1-0.1,0.1
					c0,0.1,0,0.1,0,0.2c0,0,0.1,0.1,0.1,0.1c0,0,0.1,0,0.1,0.1c0.1,0,0.1,0,0.2,0.1l0-0.1l0-0.1c0,0-0.1,0-0.1,0c0,0-0.1,0-0.1-0.1
					c0,0,0,0,0,0c0,0,0,0,0,0c0,0,0,0,0,0c0,0,0.1,0,0.1,0c0.1,0,0.1,0,0.2,0c0.1,0,0.3,0,0.4,0c0,0,0.1,0,0.1,0c0,0,0,0,0,0
					c0,0,0,0,0,0l0,0c0,0,0,0,0,0C92.3,69.2,92.3,69.2,92.3,69.1C92.3,69.1,92.3,69.1,92.3,69.1z"/>
			</g>
			
				<ellipse transform="matrix(-0.9997 2.498377e-002 -2.498377e-002 -0.9997 186.6018 136.0307)" fill="#E6E7E8" cx="92.5" cy="69.2" rx="0.3" ry="0.2"/>
			<path fill="#D1D3D4" d="M92.4,68.2c-0.1,0.3-0.4,0.5-0.7,0.5c-0.3,0-0.6-0.2-0.7-0.5c0,0,0.5,0,0.7,0
				C91.9,68.2,92.4,68.2,92.4,68.2z"/>
		</g>
		<path clip-path="url(#SVGID_2_)" fill="#3C2415" d="M93,24.9c1.2-1.3,2.8-2.4,4.5-3.1c0.5-0.2,5.7-1.4,5.3-0.3
			c0,0.1-0.2,0.2-0.2,0.3c-0.3,0.2-0.4,0.6-0.5,0.9c0.7-1,2.1-1.1,3.3-1.2c-0.1,3.1,4,3.2,5.7,4.8c1.5,1.5,2.5,3.3,2.9,5.4
			c0.9,4.8-1.5,9.3-3.3,13.6c-0.3,0.6-0.5,1.4-1,1.9c-0.6,0.7-1.6,0.8-2.3,0.2c-1-0.9-0.1,0.9-1.1-0.1c-0.2-0.2-0.3-0.4-0.4-0.6
			c-0.6-1.1-1.2-2.3-1.9-3.4c-0.6-0.9-0.6-1.2,0.3-2c0.8-0.7,1.2-1.7,1.3-2.7c0-0.3,0-0.6-0.2-0.8c-0.4-0.5-1.1-0.4-1.7-0.1
			c-1.7,0.8-1.7,1.2-2.1-0.9c-0.2-1.2-3.7-2.9-4.7-3.8c-1.3-1.1-3.5-0.8-5-1.8C89.7,29.7,91.7,26.3,93,24.9z"/>
	</g>
	<g>
		<ellipse fill="#FFFFFF" cx="36.1" cy="27.2" rx="36.1" ry="27.2"/>
		<g>
			<defs>
				<ellipse id="SVGID_795_" cx="36.1" cy="27.2" rx="30" ry="22.6"/>
			</defs>
			<clipPath id="SVGID_4_">
				<use xlink:href="#SVGID_795_"  overflow="visible"/>
			</clipPath>
			<g clip-path="url(#SVGID_4_)">
				<g>
					<polygon fill="#9ACFDA" points="23.6,34.5 17.2,35.6 17.2,14.6 23.6,15.4 					"/>
					<polygon fill="#FFFFFF" stroke="#F1F2F2" stroke-width="0.1181" stroke-miterlimit="10" points="20.3,26.8 21.6,26.6 
						21.6,28.8 20.3,29 					"/>
					<polygon fill="#70ADB6" points="17.2,35.6 15.7,34.4 15.7,15.6 17.2,14.6 					"/>
					<g>
						<polygon fill="#4D7582" points="22.2,28.9 19.8,29.2 19.4,29.4 21.8,29.1 						"/>
						<polygon fill="#6BA097" points="19.8,29.2 19.4,29.4 19.4,28.7 19.8,28.5 						"/>
						<polygon fill="#C3D7DC" points="19.8,28.5 22.2,28.2 22.2,28.9 19.8,29.2 						"/>
					</g>
					<polygon fill="#F1F2F2" points="18.1,23.2 19.5,23.1 19.5,25.3 18.1,25.4 					"/>
					<polygon fill="#F1F2F2" points="20.8,31.1 22.2,30.8 22.2,33 20.8,33.3 					"/>
					<polygon fill="#F1F2F2" points="19.2,31.3 20.5,31.1 20.5,33.3 19.2,33.5 					"/>
					<polygon fill="#F1F2F2" points="18,15.6 19.3,15.8 19.3,18 18,17.8 					"/>
					<polygon fill="#F1F2F2" points="20,15.9 21.3,16 21.3,18.2 20,18 					"/>
					<polygon fill="#F1F2F2" points="20.7,19.8 22,19.9 22,22.1 20.7,21.9 					"/>
				</g>
				<g>
					<polygon fill="#6BA097" points="24.2,35.7 22.9,34.7 22.9,19.2 24.2,18.3 					"/>
					<polygon fill="#C3D7DC" points="29.4,34.8 24.1,35.7 24.1,18.3 29.4,19 					"/>
					<g>
						<polygon fill="#F1F2F2" points="25.9,19.5 27,19.6 27,21.5 25.9,21.4 						"/>
						<polygon fill="#F1F2F2" points="27.6,19.7 28.7,19.9 28.7,21.7 27.6,21.6 						"/>
						<polygon fill="#F1F2F2" points="24.9,22.5 26.1,22.6 26.1,24.5 24.9,24.4 						"/>
						<polygon fill="#F1F2F2" points="27.4,26.5 28.5,26.5 28.5,28.3 27.4,28.4 						"/>
						<polygon fill="#F1F2F2" points="25.5,29.3 26.6,29.2 26.6,31 25.5,31.2 						"/>
						<polygon fill="#F1F2F2" points="26.6,32.4 27.8,32.2 27.8,34.1 26.6,34.3 						"/>
						<polygon fill="#F1F2F2" points="25.2,32.6 26.3,32.4 26.3,34.3 25.2,34.5 						"/>
					</g>
				</g>
			</g>
			<g clip-path="url(#SVGID_4_)">
				
					<ellipse transform="matrix(0.9995 3.306369e-002 -3.306369e-002 0.9995 1.5838 -1.3116)" fill="#90C66C" cx="40.4" cy="47.2" rx="54.7" ry="14.2"/>
				<path fill="#7DB25A" d="M43.2,51.5c-0.3-0.4-0.6-0.8-1-1.1c0.2,0.1,0.4,0.1,0.6,0.2s0.3,0.3,0.4,0.5c0-0.3,0.1-0.5,0.2-0.7
					c-0.1,0.2,0,0.5,0,0.7c0.2-0.2,0.4-0.3,0.6-0.4c-0.2,0.1-0.2,0.3-0.2,0.5c0.1,0,0.2-0.1,0.3-0.1C44,51.2,44,51.4,44,51.6
					c0,0,0-0.1,0-0.1"/>
				<path fill="#7DB25A" d="M64.1,40.9c-0.3-0.4-0.6-0.8-1-1.1c0.2,0.1,0.4,0.1,0.6,0.2c0.2,0.1,0.3,0.3,0.4,0.5
					c0-0.3,0.1-0.5,0.2-0.7c-0.1,0.2,0,0.5,0,0.7c0.2-0.2,0.4-0.3,0.6-0.4c-0.2,0.1-0.2,0.3-0.2,0.5c0.1,0,0.2-0.1,0.3-0.1
					C65,40.7,65,40.8,65,41c0,0,0-0.1,0-0.1"/>
				<path fill="#7DB25A" d="M54,47c-0.2-0.5-0.4-1-0.6-1.4c0.2,0.1,0.3,0.2,0.4,0.3c0.1-0.2,0.2-0.4,0.3-0.5c0,0,0,0.1,0,0.1
					c0,0,0.1-0.1,0.1-0.1c0,0,0.1-0.1,0.1-0.1c0,0.1,0,0.2-0.1,0.3s0,0.3,0.1,0.2c-0.1,0.1-0.1,0.2-0.1,0.3c0.1,0,0.2,0,0.3,0
					c-0.2,0.2-0.3,0.5-0.2,0.8"/>
				<path fill="#7DB25A" d="M39.8,44.3c0.1-0.2,0.3-0.3,0.2-0.5c-0.2-0.2-0.3-0.4-0.5-0.5c0.2,0.1,0.3,0.3,0.4,0.4
					c0-0.1,0-0.2,0.1-0.3c0,0.1,0.1,0.2,0.1,0.2c0.1,0,0.2-0.1,0.2-0.1c0,0.1,0,0.3,0.1,0.4c0.1-0.4,0.4-0.8,0.7-1
					c-0.2,0.3-0.3,0.6-0.3,0.9c0.1,0,0.1-0.1,0.1-0.1c0,0.1,0.1,0.1,0.1,0c0,0.1,0,0.1,0,0.2c0.1,0,0.2,0,0.2,0
					c-0.1,0.1,0,0.2,0.1,0.3"/>
				<path fill="#7DB25A" d="M21.9,52.6c0.1-0.2,0.3-0.3,0.2-0.5c-0.2-0.2-0.3-0.4-0.5-0.5c0.2,0.1,0.3,0.3,0.4,0.4
					c0-0.1,0-0.2,0.1-0.3c0,0.1,0.1,0.2,0.1,0.2c0.1,0,0.2-0.1,0.2-0.1c0,0.1,0,0.3,0.1,0.4c0.1-0.4,0.4-0.8,0.7-1
					c-0.2,0.3-0.3,0.6-0.3,0.9c0.1,0,0.1-0.1,0.1-0.1c0,0.1,0.1,0.1,0.1,0c0,0.1,0,0.1,0,0.2c0.1,0,0.2,0,0.2,0
					c-0.1,0.1,0,0.2,0.1,0.3"/>
				<path fill="#7DB25A" d="M17.4,38.3c-0.2-0.3-0.4-0.7-0.4-1.1c0.1,0.1,0.2,0.3,0.2,0.4c0.1-0.1,0.1-0.3,0.1-0.4
					c0.1,0.1,0.1,0.2,0,0.3c0.1,0,0.2-0.1,0.3-0.2c0,0.1,0,0.2,0,0.3c0.1,0,0.1,0,0.2,0c0,0.2,0,0.3,0.1,0.5"/>
				<path fill="#7DB25A" d="M32.6,41.1c0.2-0.3,0-0.7-0.1-1c0.1,0.1,0.2,0.3,0.2,0.4c0.1-0.1,0.1-0.3,0.1-0.4c0.1,0.1,0.1,0.2,0,0.3
					c0.1,0,0.2-0.1,0.3-0.2c-0.2,0.2,0.2,0.5,0.4,0.2c-0.1,0.2,0,0.4,0.1,0.5"/>
				<path fill="#7DB25A" d="M10.2,44.9c0.3-0.2,0.5-0.7,0.3-1c0.1,0.2,0.2,0.4,0.2,0.6c0-0.1,0.1-0.2,0.2-0.2c0,0.1,0,0.2,0,0.3
					c0.1-0.1,0.2-0.1,0.3-0.2c-0.1,0.1,0,0.2,0,0.2c0.1,0,0.2,0,0.2-0.1c0.1,0.1,0.3,0.2,0.5,0.3"/>
				<path fill="#7DB25A" d="M67.7,49.6c0.3-0.2,0.5-0.7,0.3-1c0.1,0.2,0.2,0.4,0.2,0.6c0-0.1,0.1-0.2,0.2-0.2c0,0.1,0,0.2,0,0.3
					c0.1-0.1,0.2-0.1,0.3-0.2c-0.1,0.1,0,0.2,0,0.2s0.2,0,0.2-0.1c0.1,0.1,0.3,0.2,0.5,0.3"/>
				<path fill="#7DB25A" d="M46.6,36.7c-0.2-0.2-0.3-0.5-0.3-0.7c0.1,0.2,0.1,0.3,0.3,0.4c0.1-0.1,0.1-0.2,0.2-0.4
					c0,0.1,0.1,0.2,0.1,0.2c0.1-0.1,0.2-0.2,0.3-0.3c-0.1,0.1-0.1,0.2,0,0.2c0.1,0.1,0.2,0.1,0.2,0c0,0.1-0.1,0.2-0.1,0.3
					c0,0.1,0.1,0.2,0.2,0.2"/>
			</g>
			<g clip-path="url(#SVGID_4_)">
				<g>
					<ellipse opacity="0.33" fill="#A7A9AC" cx="43.1" cy="39" rx="9.3" ry="0.9"/>
					<g id="XMLID_49_">
						<g id="XMLID_50_">
							<g>
								<path id="XMLID_72_" fill="#BECCAA" d="M40.9,32.8c0.6,0.3,1.2,0.7,1.8,1.2c0.1-0.7,0.1-1.5,0.3-2.2
									c-0.4-0.1-0.9-0.2-1.3-0.2c-0.3-1.4-0.5-2.7-0.6-4.1c0,0.3-1.6,0.5-1.7,0.5c0,0.7,0.5,1.5,0.7,2.3
									C40.1,31.1,40.1,32.4,40.9,32.8z"/>
								<path id="XMLID_71_" fill="#A2B08B" d="M42.6,35.2c0.4,1.1,0.2,3.9,0.2,3.9s1.8,0.2,2.6,0.3c0.2,0,0.7-0.2,0.7-0.2l0.4-4.2
									c0,0-0.1-0.8-0.1-1.2c-0.1-0.9-0.1-1.8-0.1-2.8c0-0.8-0.3-2.3-0.3-2.3l-3.4-0.4C42.5,28.4,42.1,33.7,42.6,35.2z"/>
								<path id="XMLID_70_" fill="#BECCAA" d="M44.7,34c0.3,0.1,0.6,0.4,0.9,0.7c1.2-1,2.5-1.7,3.9-2.2c0,0,0.1-0.1,0.1-0.1
									s0-0.1,0-0.2c0-1.2,0-2.3,0-3.5c0-0.1,0-0.3,0.1-0.4c-0.5,0.1-1,0.1-1.5,0.2c0.1,0.7,0.2,1.4,0.2,2.1c0,0.1-0.1,0.3-0.2,0.3
									c-0.5,0.2-2,1-2.2,1.1c-0.3,0.2-1.2,0.3-1.2,0.3S44.7,33.5,44.7,34z"/>
								<g id="XMLID_67_">
									<defs>
										<path id="XMLID_68_" d="M42.6,35.2c0.4,1.1,0.2,3.9,0.2,3.9s1.8,0.2,2.6,0.3c0.2,0,0.7-0.2,0.7-0.2l0.4-4.2
											c0,0-0.1-0.8-0.1-1.2c-0.1-0.9-0.1-1.8-0.1-2.8c0-0.8-0.3-2.3-0.3-2.3l-3.4-0.4C42.5,28.4,42.1,33.7,42.6,35.2z"/>
									</defs>
									<clipPath id="XMLID_74_">
										<use xlink:href="#XMLID_68_"  overflow="visible"/>
									</clipPath>
									<path id="XMLID_69_" clip-path="url(#XMLID_74_)" fill="#DBDED7" d="M44.2,36.8c0,0.1,0,0.1,0,0.2c0,0.8,0,1.5,0,2.3
										c0,0.4,0,0.8-0.1,1.2c-0.4,1.2-1.5,0.5-2.1,0.1c-0.1-0.1-0.3-0.2-0.4-0.4c-0.1-0.2-0.1-0.4-0.1-0.6c0-2.6-0.1-5.2-0.1-7.7
										c0-0.6,0-1.3,0.2-1.9c0.3-1,1.3-1.8,2-1.2c0.4,0.4,0.2,1.4,0.2,2c0,0.9,0,1.8,0,2.7C43.8,34.7,44.1,35.7,44.2,36.8z"/>
								</g>
								<path id="XMLID_66_" fill="#80896F" d="M44.8,35.2c0.1,0.2,0.2,0.5,0.3,0.8c0.1,0.2,0.2,0.4,0.3,0.4c0.1,0,0.2-0.2,0.3-0.3
									c0.2-0.3,0.3-0.6,0.5-1c0.2-0.3,0.3-0.6,0.3-1c0-0.1,0-0.2,0-0.2c-0.1-0.1-0.2-0.1-0.3,0c-0.2,0.1-0.4,0.2-0.7,0.2
									c-0.2,0-0.5-0.1-0.7-0.1c0,0-0.1,0-0.1,0c0,0,0,0,0,0.1C44.7,34.5,44.7,34.9,44.8,35.2z"/>
								<path id="XMLID_65_" fill="#AAB692" d="M49.6,32.2c0,0.1,0,0.2,0,0.3c0,0,0,0.1,0,0.1c0,0,0,0,0,0c-0.2,0.1-0.4,0.2-0.6,0.3
									c-0.6,0.2-1.2,0.4-1.7,0.7c-0.5,0.3-1,0.8-1.5,1c-0.1,0.1-0.2,0.1-0.4,0c-0.1,0-0.1-0.1-0.2-0.1c-0.2-0.2-0.4-0.3-0.5-0.4
									c0.2-0.2,0.5-0.2,0.8-0.3c0.5-0.2,0.9-0.4,1.4-0.6c0.4-0.2,0.8-0.4,1.2-0.5c0.3-0.1,0.6-0.2,0.8-0.3
									c0.2-0.1,0.5-0.2,0.7-0.3C49.6,32.1,49.6,32.1,49.6,32.2z"/>
							</g>
							<g>
								<path id="XMLID_64_" fill="#415829" d="M34.6,21.9c0,0.6,0.1,1.3,0.3,1.9c0,0.1,0.1,0.2,0.1,0.4c0,0.1-0.1,0.1-0.1,0.2
									c-0.6,0.7-0.8,1.5-0.6,2.4c0.4,1.3,2.1,2.3,3.6,1.8c0.5,0.7,1.6,1,2.5,1c1,0,2-0.3,2.8-0.9c-0.1,0.1,1.2,0.6,1.3,0.6
									c0.6,0.2,1.1,0.2,1.7,0.3c1.1,0.1,2.3,0.1,3.3-0.3c1-0.4,1.7-1.3,2.2-2.2c0.8,0.3,1.7-0.1,2.3-0.7c0.5-0.5,0.8-1.2,0.9-1.9
									c0-0.7-0.3-1.4-0.9-1.8c0.5-0.6,0.2-1.5-0.6-1.8c0.5-0.6,0.3-1.5-0.2-2.1c-0.5-0.6-1.3-0.9-2.2-1.2c0.3-0.9,0.1-1.9-0.7-2.6
									c-0.8-0.7-1.9-0.9-2.9-0.6c0-0.1,0.2,0,0.2,0.1c-0.7-0.8-1.9-2.8-5.3-1.7c-1,0.3-1.6,1.2-1.8,2.1c-0.8-0.2-1.8,0-2.5,0.4
									C37,16,36.7,17.1,36.7,18c0,0.3,0.1,0.5,0.1,0.8c0,0.3,0,0.2-0.3,0.3c-1,0.4-1.7,1.4-1.8,2.3C34.7,21.6,34.7,21.7,34.6,21.9
									z"/>
								<g id="XMLID_61_">
									<defs>
										<path id="XMLID_62_" d="M54.9,25.4c0.1-0.2,0.2-0.3,0.2-0.5c0.1-0.4-0.1-0.7-0.1-1.1c-0.2-0.9,0-2-0.7-2.7
											c-0.1-0.1-0.3-0.2-0.4-0.1c0.1,0.4,0.1,0.8-0.2,1.1c-0.2,0.2-0.5,0.6-0.8,0.6c0.2,0.2,0.4,0.3,0.5,0.6
											c0.3,0.9,0,1.8-0.9,2.4c-0.5,0.3-0.9,0.3-1.4,0.2c-0.1,0.6-0.5,1.1-1,1.5c-1.7,1.2-3.6,0.8-5.4,0.2
											c-0.3,0.5-0.9,0.9-1.5,1c0,0-0.1,0-0.1,0c0,0,0,0,0,0.1c0.3,0.5,0.7,0.9,1.3,0.9c0.8,0.1,1.4,0.4,2.2,0.3
											c1.3-0.1,2.5-0.8,3.7-0.5c0.9,0.2,0.8-0.4,1-1c0.2-0.8,0.7-1,1.5-0.9c0.3,0,0.7,0,1-0.1c0.4-0.3,0.2-0.7,0.5-1
											C54.2,26.2,54.6,25.8,54.9,25.4z"/>
									</defs>
									<clipPath id="XMLID_75_">
										<use xlink:href="#XMLID_62_"  overflow="visible"/>
									</clipPath>
									<path id="XMLID_63_" clip-path="url(#XMLID_75_)" fill="#3B4923" d="M34.6,21.9c0,0.6,0.1,1.3,0.3,1.9
										c0,0.1,0.1,0.2,0.1,0.4c0,0.1-0.1,0.1-0.1,0.2c-0.6,0.7-0.8,1.5-0.6,2.4c0.4,1.3,2.1,2.3,3.6,1.8c0.5,0.7,1.6,1,2.5,1
										c1,0,2-0.3,2.8-0.9c-0.1,0.1,1.2,0.6,1.3,0.6c0.6,0.2,1.1,0.2,1.7,0.3c1.1,0.1,2.3,0.1,3.3-0.3c1-0.4,1.7-1.3,2.2-2.2
										c0.8,0.3,1.7-0.1,2.3-0.7c0.5-0.5,0.8-1.2,0.9-1.9c0-0.7-0.3-1.4-0.9-1.8c0.5-0.6,0.2-1.5-0.6-1.8c0.5-0.6,0.3-1.5-0.2-2.1
										c-0.5-0.6-1.3-0.9-2.2-1.2c0.3-0.9,0.1-1.9-0.7-2.6c-0.8-0.7-1.9-0.9-2.9-0.6c0-0.1,0.2,0,0.2,0.1
										c-0.7-0.8-1.9-2.8-5.3-1.7c-1,0.3-1.6,1.2-1.8,2.1c-0.8-0.2-1.8,0-2.5,0.4C37,16,36.7,17.1,36.7,18c0,0.3,0.1,0.5,0.1,0.8
										c0,0.3,0,0.2-0.3,0.3c-1,0.4-1.7,1.4-1.8,2.3C34.7,21.6,34.7,21.7,34.6,21.9z"/>
								</g>
								<ellipse id="XMLID_60_" fill="#4B6B33" cx="47.5" cy="23.3" rx="4.3" ry="3.7"/>
								<ellipse id="XMLID_59_" fill="#4B6B33" cx="46.4" cy="19.4" rx="4.3" ry="3.7"/>
								<ellipse id="XMLID_58_" fill="#4B6B33" cx="41.2" cy="24.3" rx="4.3" ry="3.8"/>
								<path id="XMLID_57_" fill="#4B6B33" d="M40.2,25c0,0.8-0.8,1.4-1.6,1.8c-0.3,0.2-0.6,0.3-1,0.3c-1.4,0-2.6-0.9-2.6-2.2
									c0-1.3,1.2-2.3,2.6-2.3c1.2,0,2.2,0.7,2.5,1.7C40.2,24.6,40.2,24.8,40.2,25z"/>
								<path id="XMLID_56_" fill="#678E3D" d="M35,22.1c0.1,0.6,0.4,1.3,0.9,1.7c0.4,0.3,0.8,0.7,1.2,0.8c0.6,0.2,1.4,0.3,2.1,0.2
									c0.7-0.1,1.4-0.3,2-0.7c0.8-0.5,1.4-1.3,1.5-2.1c0.3,0.7,1.2,1,2.1,1c0.7,0,1.4-0.2,2-0.6c1.3-0.9,1.5-2.6,0.5-3.7
									c-0.3-0.4-0.8-0.6-1.3-0.8c0.4-0.3,0.8-0.5,1.2-0.8c0.9-1,0.4-2.4-0.5-3.2c-0.9-0.9-2.8-1.4-4.1-0.8c-0.4,0.2-0.8,0.5-1,0.9
									c-0.2,0.4-0.5,0.8-0.5,1.3c-1-0.3-2-0.2-2.8,0.5c-0.6,0.5-0.8,1.1-0.9,1.9c0,0.5,0.1,1.1,0.3,1.5c-0.4-0.1-0.8,0-1.2,0.1
									C35.3,20.1,34.9,21.1,35,22.1z"/>
								<path id="XMLID_55_" fill="#527938" d="M42.9,16.1c-0.8,0.1-1,0.7-1.3,1.2c-0.4,0.6-1.4,0.5-2.1,0.5c-0.6,0-1.4,0.1-1.7,0.6
									c-0.2,0.3-0.1,0.6,0,0.9c0.2,0.3,0.4,0.5,0.7,0.7c0.8,0.5,1.8,0.5,2.8,0.3c0.9-0.2,1.7-0.8,2.3-1.5c0.4-0.5,0.7-1.1,0.6-1.6
									C44.2,16.6,43.5,16.1,42.9,16.1z"/>
							</g>
							<path id="XMLID_54_" fill="#537435" d="M41.5,39.6c0.8,0.4,2.5,0.3,2.5-0.9c0-1.4-2.1-1.8-2.9-0.8
								C40.7,38.4,40.9,39.2,41.5,39.6z"/>
							<path id="XMLID_53_" fill="#537435" d="M46.9,38.5c-0.1-0.1-0.3-0.2-0.5-0.2c-0.4-0.1-0.8-0.1-1.1,0
								c-0.3,0.2-0.6,0.6-0.4,0.9c0.1,0.2,0.3,0.3,0.6,0.4c0.5,0.1,0.9,0.1,1.4-0.1c0.3-0.1,0.5-0.4,0.5-0.7
								c-0.1-0.2-0.3-0.3-0.6-0.4c-0.1,0-0.1,0-0.1,0"/>
							<path id="XMLID_52_" fill="#537435" d="M41.7,38.1c-0.1-0.1-0.3-0.2-0.5-0.2c-0.4-0.1-0.8-0.1-1.1,0
								c-0.3,0.2-0.6,0.6-0.4,0.9c0.1,0.2,0.3,0.3,0.6,0.4c0.5,0.1,0.9,0.1,1.4-0.1c0.3-0.1,0.5-0.4,0.5-0.7
								c-0.1-0.2-0.3-0.3-0.6-0.4c-0.1,0-0.1,0-0.1,0"/>
							<path id="XMLID_51_" fill="#537435" d="M47.7,38c0.1,0,0.3,0,0.4,0c0.2,0.1,0.2,0.4,0,0.5c-0.1,0.1-0.3,0.2-0.5,0.2
								c-0.7,0.1-2.2-0.3-1.5-1.2C46.9,36.6,47.1,37.9,47.7,38z"/>
						</g>
					</g>
				</g>
			</g>
		</g>
	</g>
</g>
</svg>
