<?xml version="1.0" encoding="utf-8"?>
<!-- Generator: Adobe Illustrator 19.1.0, SVG Export Plug-In . SVG Version: 6.00 Build 0)  -->
<svg version="1.1" id="Layer_1" xmlns="http://www.w3.org/2000/svg" xmlns:xlink="http://www.w3.org/1999/xlink" x="0px" y="0px"
	 viewBox="0 0 104.2 88" enable-background="new 0 0 104.2 88" xml:space="preserve">
<g>
	<g>
		<ellipse fill="#FFFFFF" cx="78.2" cy="19.6" rx="26.1" ry="19.6"/>
		
			<ellipse transform="matrix(-0.9662 -0.2578 0.2578 -0.9662 106.2982 91.6473)" fill="#FFFFFF" cx="59.2" cy="38.9" rx="4" ry="3"/>
		
			<ellipse transform="matrix(-0.9662 -0.2578 0.2578 -0.9662 93.7279 100.9984)" fill="#FFFFFF" cx="53.5" cy="44.4" rx="2.6" ry="1.9"/>
	</g>
	<g>
		<defs>
			<rect id="SVGID_791_" x="-3.7" y="8.9" width="92.5" height="79"/>
		</defs>
		<clipPath id="SVGID_2_">
			<use xlink:href="#SVGID_791_"  overflow="visible"/>
		</clipPath>
		<path clip-path="url(#SVGID_2_)" fill="#566345" d="M40.2,53.4c-1.4,0.5-0.7,2.8-0.7,4c-0.1,1.6-0.3,3.2-0.6,4.8
			c-0.9,6.3-1.1,12.6-0.8,18.9c0.2,3,0.5,6,1.9,8.6c0.8,1.6,4.1,5,5.8,2.6c0,0.2,0,0.5,0,0.7c0-0.2,1.2-0.1,1.3-0.2
			c1-0.6,2-1.2,2.9-1.9c0.2-0.2,0.5-0.4,0.6-0.7c0.1-0.3,0-0.5,0-0.8c-0.7-3.7-1.4-7.4-2-11.1c-0.6-3.3-0.9-6.6-1.6-9.9
			c-0.6-3-1.5-5.9-2.4-8.8c-0.7-2.1-1.1-4.6-2.9-6C41.5,53.2,40.7,53.2,40.2,53.4z"/>
		<path clip-path="url(#SVGID_2_)" fill="#3C2415" d="M19.8,47.9c0-1.1,0.2-2.3,0.5-3.4c1-3.6,3.1-7.7,0.5-11.1
			c-2.3-3-8.1-2.6-10.7-0.5c-2.7,2.1-4.4,5.6-4.4,9.1c0,1.7,0.3,3.4,1,5c0.7,1.7,1.8,3.5,0.9,5.4c-0.7,1.5-2.5,2.3-3.3,3.9
			c-1.1,2.1,0.1,4.8-1,6.9c-0.7,1.3-2.3,2.1-2.7,3.5c-0.5,1.6,0,3.7,0.1,5.4c-0.1-0.6,2.8-2.4,3.3-2.6c1-0.3,2.3-0.1,3.4-0.2
			c2.6-0.3,5.8-0.7,7.4-3.1c1.2-1.9,1-4.4,2.2-6.2c0.9-1.4,2.5-2.2,3.2-3.7c0.9-1.9-0.2-4.1-0.3-6C19.8,49.3,19.7,48.6,19.8,47.9z"
			/>
		<path clip-path="url(#SVGID_2_)" fill="#DBAE95" d="M43.5,28.6c-1.5-4.8-3.9-8.8-9.8-9.6c-3-0.4-6.1,0.4-8.8,1.9
			c-1.5,0.8-2.9,1.8-3.9,3.2c-1.3,1.8-1.7,4-1.8,6.2c-0.1,4.1,0.7,10,3.8,13c0.7,0.7,1.7,0.5,2.5,0.9c1,0.5,1.7,2,2,3
			c0.4,1.4,0.4,2.8,0.5,4.2c0,0.8,0,1.6,0.1,2.4c0,0.7,0.3,1.6,0.3,2.2c0,1.2-0.7,2-0.2,3.3c0.7,2.3,3.1,4.3,5,5.6
			c1,0.8,2.1,1.4,3.4,1.6c0.2,0,0.4,0,0.6-0.1c0.2-0.1,0.3-0.3,0.4-0.6c0.9-2.2,1.5-4.6,1.7-6.9c0.1-1.5,0.1-3-0.5-4.3
			c-0.5-1-1.3-1.7-1.6-2.8c-0.5-1.6-0.6-4.8,1.4-5.4c1.3-0.4,2.7-0.8,4-1.2c5.3-1.6,3-9.5,2-13.2C44.2,30.8,43.9,29.7,43.5,28.6z"/>
		<path clip-path="url(#SVGID_2_)" fill="#FFFFFF" d="M37.7,52.3c-0.6,0-0.7,0.9-0.8,1.3c-0.2,0.7-0.6,1.4-1,2.1
			c-0.3,0.7-0.7,1.5-1.5,1.7c-0.6,0.1-1.2-0.2-1.7-0.5c-1.3-0.9-2.4-1.9-3.6-3c-0.2-0.2-2.5-2.3-2.6-2.1c-0.8,1.7-0.3,3.9-0.3,5.8
			c-0.1,2-0.1,4-0.1,6c0,4,0,8,0,11.9c0,4,0.1,8,0.2,11.9c0,1.1-0.1,11.8,0.3,11.9c5.3,1,10.8,1.1,16.1,0.2c0.1-3.5,0.1-7,0-10.5
			c-0.2-9.2-0.8-18.4-1.8-27.6c-0.2-2.1-0.5-4.3-1.2-6.3c-0.2-0.7-0.8-2.2-1.4-2.6C38.1,52.4,37.9,52.3,37.7,52.3z"/>
		<path clip-path="url(#SVGID_2_)" fill="#63774E" d="M14.3,53.4c3.1-1.7,6.5-2.9,9.9-3.8c1.1-0.3,2.5-0.5,3.4,0.3
			c0.5,0.5,0.8,1.1,1,1.8c0,3,1.8,5.2,3.5,7.4c1.4,1.9,2.3,3.9,3.2,6.1c0.6-2.6,0.8-5.4,1.1-8c0.2-2.1,0.7-4.6,0.3-6.7
			c0-0.2,2.2,0.7,2.4,0.9c0.7,0.6,1.3,1.7,1.6,2.5c0.5,1.2,0.8,2.5,1,3.7c0.8,5,5.5,8.2,4.8,13.6c-0.3,2.2-1.4,4.1-1.6,6.3
			c-0.3,2.6-1.3,5.1-1.4,7.8c-0.2,3,0.9,5.6,1.1,8.6c0.3,3.6,0.6,7.3,0.7,11c0,1,0,2.1-0.8,2.7c-0.7,0.6-1.7,0.4-2.6,0.2
			c-4.9-0.9-9.5-0.1-14.3-0.5c-3.8-0.3-7.9-1-11.6-1.8c2.2-10.6-0.2-20.9-0.6-31.4c-0.3-6.8-0.5-13.5-0.8-20.3"/>
		<path clip-path="url(#SVGID_2_)" fill="#3C2415" d="M27.6,44.8c1.2-1.1,2.4-2.5,2.9-4c0.4-1.5,0.2-4.1-1.2-5c-1-0.7-2-1.6-2.3-2.9
			c-0.2-0.8,0.2-1.9,1-2.1c1.3-0.4,2.1,0.8,3,1.3c2.1,1.3,2.9-1.2,4-2.3c0.4-0.4,0.9-0.7,1.4-0.9c1.2-0.6,2.4-1.2,3.6-1.8
			c0.5-0.3,1.2-0.8,1.8-0.9c0.3-0.1,0.6,0,0.9,0.2c0.1,0.1,0.7,0.7,0.7,0.7c0.7,0,0.5-3,0.5-3.5c-0.1-1.2-0.4-2.4-0.8-3.5
			c-1-2.2-2.8-4-5.1-4.8c-1.8-0.5-5.9,0.5-7.7-0.1c-3.5-1.2-9,0.7-11.7,3.1c-4.2,3.7-5.3,9.6-4.7,15c0.3,2.3,0.8,5,2,7
			c1.1,1.9,3.8,3.6,5.9,4.3c0.8,0.2,1.6,0.4,2.3,0.7c0.5,0.2,0.9,0.5,1.5,0.5c0.6,0.1,1.3-0.2,1.7-0.6
			C27.3,45.1,27.4,44.9,27.6,44.8z"/>
		<path clip-path="url(#SVGID_2_)" fill="#6F825A" d="M35.4,68.8c0-0.1,0-0.3-0.1-0.4c-0.3-2.5,0-4.3,0.5-6.9
			c0.1-0.4,0.2-0.8,0.5-1.1c-0.1,4,0.9,7.9,1.2,11.8c0.7,11.5-0.5,22.9,0.7,34.4c0,0.1,0,0.2,0,0.3c-0.1,0.1-0.2,0.1-0.3,0.1
			c-0.5,0.1-1,0.1-1.5-0.1c-0.1,0-0.3-0.1-0.3-0.2c-0.1-0.1-0.1-0.2-0.1-0.3c-0.2-2.3,0.2-4.8,0.2-7.2c0-3.7,0.1-7.4,0-11.1
			c0-3.7-0.2-7.4-0.3-11.2c0-4.5-0.6-8.5-1.8-12.8c-0.2-0.7-0.4-1.4-0.4-2.2c0.9,0.8,1.6,1.9,1.9,3c0-1.4,0.2-2.9,0.6-4.3"/>
		<path clip-path="url(#SVGID_2_)" fill="#566345" d="M36.3,78.1c-1.9,0.2-3.8,0.1-5.7,0c-1.4-0.1-2.8,0.1-4.2-0.3
			c1.1,0.3,2.2,1,3.2,1.5c1.3,0.5,2.6,1.1,4,1.5c2.6,0.7,5.3,0.8,8,0.9c0.4,0,0.8,0,1.1-0.1c1-0.4,1.3-1.5,1.6-2.6
			c0.2-0.9,0.2-1.8,0.5-2.6c0.2-0.9,0.6-1.7,0.8-2.5c0.1-0.2,0.1-0.3,0.1-0.5c-1.4,1.4-2.8,3-4.8,3.6c-1.6,0.4-3.1,0.9-4.7,1.1
			C36.4,78.1,36.3,78.1,36.3,78.1z"/>
		<g clip-path="url(#SVGID_2_)">
			<path fill="#EEBCA5" d="M39,55.2c-0.8-1.2-0.8-2.4-0.5-3.8c0.3-1.5,0.7-3,1.2-4.4c0.6-1.4,1.2-3,0.7-4.5c0.7-0.4,1.6,0,2.1,0.6
				c0.5,0.6,0.7,1.4,0.9,2.2c0.6-0.8,1.4-1.8,2.4-1.5c0.2,0.1,0.4,0.2,0.6,0.4c0.9,0.7,1.7,1.5,2.5,2.3c0.3,0.3,0.6,0.7,0.7,1.1
				c0.2,0.8-0.4,1.5-0.9,2.1c-0.9,1-1.7,2.1-2.6,3.1c-1.3,1.6-2.8,3.3-4.8,3.5c-0.4,0-0.9,0-1.3-0.2C39.5,55.9,39.2,55.6,39,55.2z"
				/>
			<path fill="#EEBCA5" d="M43.3,45.3c-0.3-0.7-0.3-1.5-0.8-2.2c-0.5-0.6-1.4-1-2.1-0.6c0.3,1,0.2,2.1-0.1,3.1
				c-0.2,0.5-0.4,1-0.6,1.4c-0.1,0.3-0.2,0.5-0.3,0.8c0,0.1-0.1,0.3-0.1,0.4c0,0.1-0.1,0.2-0.1,0.2c0,0.2,0,0.3-0.1,0.5
				c0,0.2,0,0.3,0.1,0.5c0.1,0.2,0.4,0.2,0.6,0.1c0.4-0.1,0.7-0.1,1.1-0.2c0.2,0,0.3-0.1,0.5-0.1c0.2-0.1,0.4-0.2,0.6-0.3
				c0.7-0.4,1.4-1,2-1.6c0.2-0.2,0.5-0.5,0.5-0.7c0-0.2-0.4-0.4-0.6-0.5c-0.1-0.1-0.3-0.1-0.4-0.2c-0.1-0.1-0.1-0.2-0.2-0.2
				C43.4,45.5,43.4,45.4,43.3,45.3z"/>
			<path fill="#EEBCA5" d="M47.8,39.7c0.3-0.3,0.6-0.6,1-0.6c0.5,0,0.8,0.6,0.7,1.1c-0.1,0.5-0.4,0.9-0.7,1.3
				c-1.2,1.6-2.5,3.2-3.7,4.8c-0.1,0.2-0.3,0.4-0.5,0.5c-0.7,0.4-1.3-0.3-1.5-0.9c-0.1-0.5,0.2-0.8,0.5-1.1c0.4-0.5,0.7-1,1.1-1.4
				c0.7-0.9,1.5-1.9,2.3-2.8C47.4,40.3,47.6,40,47.8,39.7z"/>
		</g>
		<path clip-path="url(#SVGID_2_)" fill="#6F825A" d="M37.6,54.3c-0.9,2.1-3.3,6.1-3.7,6.6c-0.7,1.3-1.5,2.6-2.2,3.9
			c-0.2,0.4-2.2,3.1-2,3.5c-0.9-1.7-2.3-2.9-3.4-4.5c-0.9-1.3-1.6-2.8-2.5-4.1c-1.3-2.2-3-3.9-4.7-5.7c-0.5-0.5-1.3-1.6-1.9-1.6
			c-0.9,0-1.8,0.1-2.5,0.8c-0.7,0.6-1.1,1.6-1.3,2.6C12.2,61.6,15.9,66.3,19,70c1.6,1.8,3.4,3.6,5.1,5.2c1.4,1.3,2.7,3.2,4.4,4.1
			c2.7,1.4,5.8-3.9,7-6.1c1.2-2.2,2.3-4.5,3.4-6.7c0.9-1.8,1.8-3.6,2.6-5.4c0.8-1.7,1.6-3.4,2.2-5.2c-2.1-0.7-4.1-1.7-5.9-3
			C38,53.1,37.9,53.6,37.6,54.3z"/>
		<g clip-path="url(#SVGID_2_)">
			
				<rect x="43.3" y="66.8" transform="matrix(0.9997 2.498377e-002 -2.498377e-002 0.9997 1.6845 -1.0663)" fill="#BCBEC0" width="0.4" height="0.2"/>
			<path fill="#D1D3D4" d="M43.7,66.8l-0.3,0c0,0-0.1,0-0.1-0.1l0-0.1l0.5,0L43.7,66.8C43.7,66.8,43.7,66.8,43.7,66.8z"/>
			<g>
				<path fill="#E6E7E8" d="M43.4,69.2L43.2,69c0-0.1,0.2-0.1,0.2-0.2c0,0,0.1-0.1,0.1-0.1l0.1,0.1c0,0-0.1,0.1-0.1,0.1
					C43.5,69,43.4,69.1,43.4,69.2z"/>
			</g>
			<g>
				<path fill="#E6E7E8" d="M43.3,67.7C43.3,67.7,43.3,67.7,43.3,67.7c-0.1,0-0.1-0.1-0.1-0.2c0.1-0.1,0.2-0.2,0.4-0.2
					c0,0,0.1,0,0.1,0c0,0,0,0.1,0,0.1C43.6,67.6,43.5,67.6,43.3,67.7C43.4,67.7,43.4,67.7,43.3,67.7z"/>
			</g>
			<path fill="#BCBEC0" d="M43.7,66.7l-0.3,0c-0.1,0-0.1-0.1-0.1-0.1l0,0l0.6,0l0,0C43.8,66.6,43.8,66.7,43.7,66.7z"/>
			<path fill="#D1D3D4" d="M43.5,69.9c0,0.1-0.2,0.2-0.2,0.2c0,0,0,0,0,0l0-3.2l0.3,0L43.5,69.9C43.6,69.9,43.5,69.9,43.5,69.9z"/>
			<g>
				<path fill="#E6E7E8" d="M43.5,69.8C43.5,69.8,43.5,69.7,43.5,69.8c-0.1-0.1-0.1-0.1-0.1-0.2c-0.1-0.1-0.3-0.3-0.2-0.6
					c0,0,0,0,0,0l0.1,0.1c0,0,0,0.2,0.2,0.4c0,0,0.1,0.1,0.1,0.1c0,0,0,0.1,0.1,0.1c0,0.1-0.1,0.2-0.2,0.2
					C43.5,70,43.5,69.8,43.5,69.8z"/>
			</g>
			<g>
				<path fill="#E6E7E8" d="M43.3,67.8c0,0.1,0.1,0.2,0.1,0.2c0,0,0,0,0.1,0.1c0.1,0.1,0.3,0.3,0.2,0.6c0,0.1-0.1,0.1-0.1,0.2
					l-0.1-0.1c0,0,0-0.2,0-0.2c0,0,0,0,0,0c0-0.2-0.1-0.3-0.2-0.4c0,0,0,0-0.1-0.1c-0.2-0.2-0.3-0.4-0.1-0.6c0,0,0,0,0,0l0.1,0.1"/>
				<path fill="#E6E7E8" d="M43.3,67.7c0,0,0,0.1,0,0.2"/>
			</g>
			<g>
				<path fill="#E6E7E8" d="M43,66.9c0.1,0,0.2,0,0.3,0c0.2,0,0.4,0,0.5,0c0,0,0.1,0,0.1,0c0,0,0,0,0,0c0.1,0,0.1,0.1,0.1,0.1
					c0,0.1,0,0.1,0,0.2c0,0-0.1,0.1-0.1,0.1c0,0-0.1,0-0.1,0.1c-0.1,0-0.1,0-0.2,0.1l0-0.1l0-0.1c0,0,0.1,0,0.1,0c0,0,0.1,0,0.1-0.1
					c0,0,0,0,0,0c0,0,0,0,0,0c0,0,0,0,0,0c0,0-0.1,0-0.1,0c-0.1,0-0.1,0-0.2,0c-0.1,0-0.3,0-0.4,0c0,0-0.1,0-0.1,0c0,0,0,0,0,0
					c0,0,0,0,0,0l0,0c0,0,0,0,0,0C43,67.1,43,67.1,43,66.9C43,67,43,67,43,66.9z"/>
			</g>
			
				<ellipse transform="matrix(0.9997 2.498377e-002 -2.498377e-002 0.9997 1.6884 -1.0488)" fill="#E6E7E8" cx="42.8" cy="67" rx="0.3" ry="0.2"/>
			<path fill="#D1D3D4" d="M42.8,66.1c0.1,0.3,0.4,0.5,0.7,0.5c0.3,0,0.6-0.2,0.7-0.5c0,0-0.5,0-0.7,0
				C43.4,66.1,42.8,66.1,42.8,66.1z"/>
		</g>
	</g>
	<g>
		<path fill="none" stroke="#4E7582" stroke-width="2.45" stroke-linejoin="round" stroke-miterlimit="10" d="M64.5,28.8V14.1
			c0-2,1.5-3.6,3.4-3.6h19.6c1.9,0,3.4,1.6,3.4,3.6v14.7"/>
		<g>
			<g>
				<circle fill="#4E7582" cx="68.7" cy="25.8" r="2.1"/>
				<circle fill="#4E7582" cx="73" cy="25.8" r="2.1"/>
				<circle fill="#4E7582" cx="77.3" cy="25.8" r="2.1"/>
				<line fill="none" stroke="#9ACFDA" stroke-width="0.7407" stroke-miterlimit="10" x1="68.7" y1="23.7" x2="68.7" y2="11.4"/>
				<line fill="none" stroke="#9ACFDA" stroke-width="0.7493" stroke-miterlimit="10" x1="73" y1="23.7" x2="73" y2="11.1"/>
				<line fill="none" stroke="#9ACFDA" stroke-width="0.7493" stroke-miterlimit="10" x1="77.3" y1="23.7" x2="77.3" y2="11.1"/>
			</g>
			<circle fill="#9ACFDA" cx="68.7" cy="11.1" r="0.6"/>
			<circle fill="#9ACFDA" cx="73" cy="11.1" r="0.6"/>
			<circle fill="#9ACFDA" cx="77.3" cy="11.1" r="0.6"/>
		</g>
		<g>
			<g>
				<circle fill="#9ACFDA" cx="86.7" cy="25.2" r="2.1"/>
				<line fill="none" stroke="#9ACFDA" stroke-width="0.7524" stroke-miterlimit="10" x1="86" y1="23.2" x2="81.5" y2="11.3"/>
			</g>
			<circle fill="#9ACFDA" cx="81.4" cy="11.1" r="0.6"/>
		</g>
	</g>
</g>
</svg>
