<?xml version="1.0" encoding="utf-8"?>
<!-- Generator: Adobe Illustrator 19.1.0, SVG Export Plug-In . SVG Version: 6.00 Build 0)  -->
<svg version="1.1" id="Layer_1" xmlns="http://www.w3.org/2000/svg" xmlns:xlink="http://www.w3.org/1999/xlink" x="0px" y="0px"
	 viewBox="0 0 43.8 53.1" enable-background="new 0 0 43.8 53.1" xml:space="preserve">
<g>
	<g>
		<defs>
			<rect id="SVGID_765_" x="-3.9" y="0" width="41.8" height="53.1"/>
		</defs>
		<clipPath id="SVGID_2_">
			<use xlink:href="#SVGID_765_"  overflow="visible"/>
		</clipPath>
		<g clip-path="url(#SVGID_2_)">
			<g>
				<polygon fill="#EFBE78" points="7,45.3 47.4,58.3 42.8,105.7 3.6,101.5 				"/>
			</g>
			<g>
				<path fill="#566345" d="M-1.1,68.3c-1.6,2.8-4.5,5.3-6.6,7.3c-2.1,2.1-4.4,4.1-6.8,5.9c-1.2,0.9-2.5,1.8-3.8,2.6
					c-0.7,0.4-1.3,0.6-1.4,1.3c-0.1,0.8,0.5,2,0.7,2.8c0.4,1.1,1.1,2.5,2.4,2.8c1.2,0.3,2.7,0.4,3.9,0.2c1.4-0.2,2.8-1.7,4-2.5
					c4.5-3.5,9-6.9,13.5-10.4c0.8-0.6,1.7-1.3,2.3-2.2c1.2-1.6,1.4-4,2-5.9c0.8-2.6,1.5-5.3,2.5-7.8c0.3-0.7,0.5-1.4,0.6-2.1
					c0.5-3.8-2.5-8.7-3.8-12.2c-0.7-1.8-0.9-3.7-1.3-5.5c-0.4-1.6-0.6-3.8-2.3-2.2c-1.3,1.3-2.8,3.8-3.4,5.6
					C-0.5,52,1,59.2,0.1,65.2C-0.1,66.3-0.5,67.3-1.1,68.3z"/>
				<path fill="#A97C50" d="M17.7,10.8c-2.8-0.6-5.8,0-8.3,1.3c-3.1,1.7-4.5,5.2-5.4,8.4c-0.7,2.8-2,7.6-0.8,10.4
					c0.8,1.8,4.6,3.3,6.4,3.2c0.6,0,1.3,0.1,1.7,0.6c0.1,0.2,0.2,0.4,0.2,0.7c0.3,1.4,0.1,2.4-0.9,3.5c-1.1,1.2-2,2.6-2.6,4.2
					c-0.3,0.9-0.5,1.9,0,2.6c0.5,0.7,1.5,0.8,2.4,0.8c2.1,0,4.2-0.4,6.2-1.2c0.6-0.3,1.3-0.6,1.8-1c1.8-1.6,1.8-4.2,1.7-6.4
					c-0.2-5.9,3.5-11.2,4-17.1c0.1-1,0-2,0-3c0-0.9,0.1-1.9-0.2-2.7c-0.3-0.7-1-1.5-1.6-2C20.9,12,19.3,11.2,17.7,10.8z"/>
				<path fill="#603913" d="M7.8,11.2c1.2-1.1,2.7-2,4.3-2.4c0.4-0.1,5.2-0.8,4.8,0.1c0,0.1-0.2,0.2-0.2,0.2
					c-0.3,0.2-0.4,0.5-0.5,0.8c0.7-0.8,2-0.8,3.1-0.8c-0.4,2.7,3.4,3.2,4.7,4.8c1.2,1.4,2,3.2,2.2,5.1c0.4,4.4-2.1,8.2-4.1,12
					c-0.3,0.5-0.6,1.2-1,1.6c-0.6,0.6-1.5,0.6-2.1,0c-0.8-0.9-0.2,0.8-1-0.2c-0.1-0.2-0.2-0.4-0.3-0.6c-0.5-1.1-0.9-2.2-1.5-3.2
					c-0.5-0.9-0.5-1.1,0.4-1.8c0.7-0.6,1.2-1.4,1.4-2.4c0-0.3,0-0.5-0.1-0.8c-0.3-0.5-1-0.5-1.5-0.3c-1.6,0.6-1.7,0.9-1.8-1
					c-0.1-1.1-3.1-2.9-3.9-3.8c-1.1-1.1-3.1-1-4.3-2C4.5,15.2,6.5,12.3,7.8,11.2z"/>
				<path fill="#FFFFFF" d="M11.2,38.3c0.5,0,0.6,0.8,0.8,1.1c0.3,0.4,0.9,0.8,1.4,1c1,0.5,2.2,0.6,3.2,0.3c0.4-0.1,4.6-2.3,4.5-2.6
					c0.7,1.5,0.2,3.5,0.2,5.1c0,1.8,0,3.6,0,5.4c0,3.5-0.1,7.1-0.2,10.6c-0.1,3.5-0.3,7.1-0.4,10.6c0,0.9-0.1,10.5-0.5,10.6
					c-4.7,0.8-9.6,0.8-14.3-0.1c0-3.1,0-6.2,0.1-9.4c0.3-8.2,1-16.4,2.1-24.6c0.3-1.9,0.6-3.8,1.2-5.6c0.2-0.7,0.7-1.9,1.3-2.3
					C10.9,38.4,11.1,38.3,11.2,38.3z"/>
				<path fill="#63774E" d="M28.3,37.3c-0.9-0.4-1.7-0.8-2.6-1.1c-1.4-0.5-3-0.8-4.3-0.1c-0.9,0.5-1.9,1.2-2.3,2.2
					c-1.3,2.6-2.7,5.3-4.1,7.9c-0.4,0.7-0.8,1.4-1.2,2.2c-0.2,0.5-0.3,1.1-0.6,1.6c-0.6-2.3-0.7-4.8-0.9-7.1
					c-0.1-0.9-0.2-1.8-0.3-2.7c0-0.5-0.1-0.9-0.1-1.4c0-0.3,0.2-1.2,0-1.4c-1-1.6-6.2,0.8-7.2,1.5c-2.2,1.6-2,3.3-1.7,5.6
					c0.4,3,0.3,6.3,0.5,9.4C4,62,4.1,70.3,4.1,78.5c0,1.5,0.1,3,0.6,4.4c0.2,0.6,0.5,1.5,0.9,1.9c0.4,0.4,0.9,0.5,1.5,0.8
					C7.7,86,8.1,86.6,8.7,87c2.5,1.8,7.9,0.7,10.7,0.5c3.3-0.2,7.2-0.4,10.3-1.5c-0.1-1.4-0.7-2.5-0.9-3.8c-0.3-1.8,0-3.8,0.1-5.6
					c0.2-3.7,0.8-7.4,1-11.1c0.5-7.3,4-13.8,4.2-21.2c0.1-1.9-0.1-4.9-2-5.9c-0.7-0.4-1.5-0.5-2.2-0.6
					C29.3,37.7,28.8,37.5,28.3,37.3z"/>
				<path fill="#6F825A" d="M13,53.1c0-0.1,0-0.3,0.1-0.4c0.3-2.2,0.1-3.9-0.3-6.1c-0.1-0.4-0.2-0.7-0.4-1c0,3.6-1,7-1.2,10.5
					c-0.8,10.2,0.1,20.5-1.2,30.7c0,0.1,0,0.2,0,0.3c0.1,0.1,0.2,0.1,0.3,0.1c0.4,0.1,0.9,0.1,1.3-0.1c0.1,0,0.2-0.1,0.3-0.2
					c0.1-0.1,0.1-0.2,0.1-0.3c0.2-2.1-0.1-4.3-0.1-6.4c0-3.3,0.1-6.6,0.2-9.9c0.1-3.3,0.3-6.6,0.5-10c0.1-4,0.6-7.6,1.8-11.4
					c0.2-0.6,0.4-1.3,0.4-1.9c-0.8,0.7-1.5,1.6-1.8,2.7c0-1.3-0.1-2.6-0.5-3.8"/>
				<g>
					<g>
						<path fill="#6F825A" d="M36.7,50c0.7,3.8,1.2,7.7,1.6,11.5c0.2,1.7,0.3,3.5-0.6,5c-0.9,1.5-2.6,2.4-4.3,3.1
							c-1.9,0.8-3.7,1.6-5.6,2.5c-3.1,1.4-6,2.9-9.1,4.4c-1.2,0.6-2.4,1.6-3.4,0.4c-1.2-1.4-2.1-3.1-2.8-4.7c-0.3-0.5-0.7-1-0.3-1.4
							c0.3-0.4,1.2-0.5,1.7-0.7c3.6-1.7,6.4-4.2,10-6c1.9-1,3.4-2.5,5.7-2.7c0.5,0-3.9-15.5-3.9-16.8c-0.1-2.4-0.2-5.8,3.3-6.3
							C35.6,37.4,35.9,45.2,36.7,50z"/>
					</g>
				</g>
			</g>
		</g>
	</g>
	<path fill="#8B5E3C" d="M34.1,49.4c-1.6-1.1-3-2.7-4.8-3.5c-0.2-0.1-0.4-0.2-0.6-0.3c-0.2-0.2-0.2-0.4-0.1-0.6
		c0.1-0.1,0.2-0.2,0.3-0.3c1.2-0.5,3.2,0.7,4.2,1.3c-0.4-1-0.7-1.7-1.4-2.5c-0.7-0.8-1.3-1.6-2.1-2.3c-0.8-0.6-1.9-1.2-1.7-2.3
		c0-0.1,0-0.2,0.1-0.3c0.1,0,0.1-0.1,0.2-0.1c0.7-0.1,1.1,0.4,1.6,0.7c0.6,0.4,1.1,0.8,1.7,1.3c0.7,0.7,1.3,1.5,2.3,1.8
		c-0.6-1.1-1.5-2.1-2.4-3.1c-0.7-0.8-1.3-1.6-1.7-2.6c-0.1-0.2-0.1-0.4-0.1-0.6c0.1-0.4,0.7-0.7,1-0.5c0.2,0.1,0.3,0.3,0.4,0.5
		c0.8,1.3,1.9,2.4,3,3.5c0.5,0.6,1,1.2,1.5,1.8c-0.2-0.6-0.3-1.3-0.5-1.9c-0.3-0.8-1-1.6-1.4-2.3c-0.2-0.3-0.4-0.7-0.3-1.1
		c0.1-0.4,0.4-0.7,0.8-0.6c0.4,0.1,0.4,0.5,0.6,0.7c0.2,0.3,0.5,0.5,0.7,0.8c0.5,0.7,0.9,1.4,1.3,2.2c0.2,0.3,0.4,0.6,0.6,0.9
		c0.1,0.1,0.5,0.5,0.5,0.6c0,0,0-0.1,0-0.1c-0.1-0.8-0.1-1.5-0.3-2.3c-0.1-0.5-0.3-1.1-0.1-1.6c0.1-0.2,0.3-0.4,0.6-0.3
		c0.4,0.2,0.5,0.8,0.6,1.2c0.4,1.3,0.7,2.7,1,4c0.3,1.2,1,2.4,1.3,3.6c0.2,1,0.8,1.9,1.4,2.8c0.3,0.5,1.8,1.3,1.6,1.8
		c-0.1,0.3-0.3,0.5-0.6,0.7c-1,0.7-2.1,1.4-3.3,1.8c-0.3,0.1-0.6,0.2-0.9,0.3c-0.4,0.2-0.9,0.5-1.3,0.3c-0.6-0.3-0.5-1.2-1.1-1.6
		C35.7,50.8,35,50,34.1,49.4z"/>
</g>
</svg>
