<?xml version="1.0" encoding="utf-8"?>
<!-- Generator: Adobe Illustrator 19.1.0, SVG Export Plug-In . SVG Version: 6.00 Build 0)  -->
<svg version="1.1" id="Layer_1" xmlns="http://www.w3.org/2000/svg" xmlns:xlink="http://www.w3.org/1999/xlink" x="0px" y="0px"
	 viewBox="0 0 49.8 38.9" enable-background="new 0 0 49.8 38.9" xml:space="preserve">
<g>
	<defs>
		<rect id="SVGID_28_" x="-323.9" y="-860.6" width="233.8" height="493.7"/>
	</defs>
	<clipPath id="SVGID_2_">
		<use xlink:href="#SVGID_28_"  overflow="visible"/>
	</clipPath>
	<g clip-path="url(#SVGID_2_)">
	</g>
	<use xlink:href="#SVGID_28_"  overflow="visible" fill="none" stroke="#BCBEC0" stroke-miterlimit="10"/>
</g>
<g>
	<g>
		<ellipse fill="#FFFFFF" cx="36" cy="10.4" rx="13.8" ry="10.4"/>
		<path fill="#FFFFFF" d="M25.8,15.1c-0.4-0.3-0.9-0.1-1,0.3l-0.5,2.3l-0.5,2.3c-0.1,0.5,0.3,0.9,0.8,0.7l2.3-0.7l2.3-0.7
			c0.5-0.1,0.6-0.7,0.2-1l-1.8-1.6L25.8,15.1z"/>
	</g>
	<g>
		<path fill="#A7A9AC" d="M30.8,36L0.3,25.4L0,27.9c-0.1,0.5,0.4,1,0.5,1.1l30.1,9.9c0.3,0.1,0.7-0.1,1-0.4l4.8-6.2
			c0.2-0.3,0.4-0.9,0.5-1.5l0.2-1.6L32,35.6C31.7,36,31.2,36.2,30.8,36z"/>
		<g>
			<g>
				<g>
					<path d="M30.7,37.3c-0.3,0-0.5,0-0.8-0.1L1.2,27.5c-0.5-0.2-0.8-0.4-0.9-0.8c-0.1-0.2,0-0.4,0.1-0.6l5.2-7.1
						c0.2-0.3,0.6-0.5,1.2-0.5c0.3,0,0.5,0,0.8,0.1l28.7,9.6c0.5,0.2,0.8,0.4,0.9,0.8c0.1,0.2,0,0.4-0.1,0.6l-0.7,1l-0.1,0
						c-0.1,0-0.3,0.1-0.3,0.2c0,0.1-0.1,0.1,0,0.2l0,0.1l-3,4.1l-0.1,0c-0.1,0-0.3,0.1-0.3,0.2c0,0.1-0.1,0.1,0,0.2l0,0.1l-0.8,1.1
						C31.6,37.1,31.2,37.3,30.7,37.3L30.7,37.3z"/>
					<path fill="#414042" d="M6.7,18.8c0.2,0,0.5,0,0.7,0.1l28.7,9.6c0.7,0.2,1,0.7,0.7,1.1l-0.7,0.9c-0.2,0-0.3,0.1-0.4,0.3
						c-0.1,0.1-0.1,0.3,0,0.4l-2.9,3.9c-0.2,0-0.3,0.1-0.4,0.3s-0.1,0.3,0,0.4l-0.7,1c-0.2,0.3-0.6,0.4-1,0.4c-0.2,0-0.5,0-0.7-0.1
						L1.2,27.4c-0.7-0.2-1-0.7-0.7-1.1l5.2-7.1C5.9,18.9,6.3,18.8,6.7,18.8 M6.7,18.4c-0.6,0-1.1,0.2-1.3,0.5l-5.2,7.1
						c-0.2,0.2-0.2,0.5-0.1,0.7c0.1,0.4,0.5,0.7,1,0.9l28.7,9.6c0.3,0.1,0.5,0.1,0.8,0.1c0.6,0,1.1-0.2,1.3-0.5l0.7-1l0.1-0.2
						l-0.1-0.2c0-0.1,0.1-0.1,0.2-0.2l0.1,0l0.1-0.1l2.9-3.9l0.1-0.2L36.1,31c0-0.1,0.1-0.1,0.2-0.2l0.1,0l0.1-0.1l0.7-0.9
						c0.2-0.2,0.2-0.5,0.1-0.7c-0.1-0.4-0.5-0.7-1-0.9L7.6,18.6C7.3,18.5,7,18.4,6.7,18.4L6.7,18.4z"/>
				</g>
				<g>
					<path fill="#1CA36D" d="M21.3,30.3c-0.5,0.2-1.6,0.1-2.1-0.2c-0.5-0.3-0.8-0.9-0.4-1.1c0.3-0.2,0.8-0.4,0.6-0.5l-3.4-2.3
						c-0.1-0.1-0.6,0.1-0.9,0.3c-0.5,0.2-1.4-0.1-1.9-0.4c-0.5-0.3-0.5-1-0.1-1.2c1.1-0.6,3.4-0.4,4.6,0.5l3.4,2.3
						C22.4,28.4,22.5,29.8,21.3,30.3z"/>
				</g>
				<g>
					<polygon opacity="0.56" fill="#939598" points="13.9,21 22.5,34.5 25.9,35.6 17.3,22.2 					"/>
				</g>
				<g>
					<path opacity="0.56" fill="#939598" d="M29,36.7l1,0.3c0.1,0,0.1,0,0.2,0l-8.6-13.5l-1.1-0.4L29,36.7z"/>
				</g>
			</g>
			<path fill="#414042" stroke="#58595B" stroke-width="0.1315" stroke-miterlimit="10" d="M7.4,19.7c0.3,0.1,0.5,0.4,0.4,0.5
				c-0.1,0.2-0.5,0.2-0.9,0.1c-0.3-0.1-0.5-0.4-0.4-0.5C6.6,19.6,7,19.5,7.4,19.7z"/>
			<path fill="#414042" d="M13.6,20.6l-0.1,0.2c0,0-0.1,0-0.2,0l-2.2-0.7c-0.1,0-0.1-0.1-0.1-0.1l0.1-0.2c0,0,0.1,0,0.2,0l2.2,0.7
				C13.6,20.5,13.7,20.6,13.6,20.6z"/>
			<path fill="#414042" d="M11.5,31.1l-0.1,0.3c0,0.1-0.1,0.1-0.1,0.1l-1.8-0.6c-0.1,0-0.1-0.1-0.1-0.1l0.1-0.3
				c0-0.1,0.1-0.1,0.1-0.1l1.8,0.6C11.5,31,11.5,31.1,11.5,31.1z"/>
			<path fill="#414042" d="M8.1,30L8,30.2c0,0.1-0.1,0.1-0.2,0.1l-4.2-1.2c-0.1,0-0.1-0.1-0.1-0.2l0.1-0.2c0-0.1,0.1-0.1,0.2-0.1
				L8,29.8C8.1,29.8,8.1,29.9,8.1,30z"/>
			<path fill="#414042" d="M4.3,21.9L3,23.8c0,0-0.1,0-0.1,0l-0.1,0c0,0-0.1,0,0-0.1l1.4-1.9c0,0,0.1,0,0.1,0L4.3,21.9
				C4.3,21.9,4.3,21.9,4.3,21.9z"/>
		</g>
		<ellipse transform="matrix(0.9914 0.1309 -0.1309 0.9914 5.029 -3.994)" fill="#414042" cx="32.9" cy="36.3" rx="0.2" ry="0.5"/>
	</g>
</g>
</svg>
