<?xml version="1.0" encoding="utf-8"?>
<!-- Generator: Adobe Illustrator 19.1.0, SVG Export Plug-In . SVG Version: 6.00 Build 0)  -->
<svg version="1.1" id="Layer_1" xmlns="http://www.w3.org/2000/svg" xmlns:xlink="http://www.w3.org/1999/xlink" x="0px" y="0px"
	 viewBox="0 0 216.1 219.1" style="enable-background:new 0 0 216.1 219.1;" xml:space="preserve">
<style type="text/css">
	.st0{fill:#EDC7C3;}
	.st1{fill:#EE978F;}
	.st2{opacity:0.65;fill:#C3D7DC;}
</style>
<g id="XMLID_600_">
	<g id="XMLID_1036_">
		<polygon id="XMLID_1038_" class="st0" points="1.1,219.1 1.2,33.8 8.9,28.1 27,12.2 204.8,12.2 205.2,218.7 		"/>
		<path id="XMLID_1037_" class="st1" d="M26.7,12.2c0,0-26.7,21.6-26.7,21.5c0-0.2,23.4,3.5,29.4,6.5C29.4,40.2,25.6,20,26.7,12.2z"
			/>
	</g>
	
		<rect id="XMLID_1030_" x="171.7" y="14.6" transform="matrix(0.7071 0.7071 -0.7071 0.7071 72.0033 -131.7532)" class="st2" width="46.7" height="12.8"/>
	<path id="XMLID_602_" class="st1" d="M168.7,196.2L168.7,196.2c-3.2,2.5-7.8,2-10.3-1.2L46.9,55.5c-2.5-3.2-2-7.8,1.2-10.3l0,0
		c3.2-2.5,7.8-2,10.3,1.2l111.5,139.6C172.4,189.1,171.9,193.7,168.7,196.2z"/>
	<path id="XMLID_601_" class="st1" d="M44.7,194.9L44.7,194.9c3.2,2.5,7.8,2,10.3-1.2L166.5,54.1c2.5-3.2,2-7.8-1.2-10.3l0,0
		c-3.2-2.5-7.8-2-10.3,1.2L43.6,184.6C41,187.8,41.6,192.4,44.7,194.9z"/>
</g>
</svg>
