<?xml version="1.0" encoding="utf-8"?>
<!-- Generator: Adobe Illustrator 19.1.0, SVG Export Plug-In . SVG Version: 6.00 Build 0)  -->
<svg version="1.1" xmlns="http://www.w3.org/2000/svg" xmlns:xlink="http://www.w3.org/1999/xlink" x="0px" y="0px"
	 viewBox="0 0 128.6 128.6" style="enable-background:new 0 0 128.6 128.6;" xml:space="preserve">
<style type="text/css">
	.st0{opacity:0.65;fill:#C3D7DC;}
	.st1{fill:#C3D7DC;}
	.st2{opacity:0.4;}
	.st3{fill:#FFFFFF;}
	.st4{fill:none;stroke:#FFFFFF;stroke-width:10;stroke-miterlimit:10;}
	.st5{fill:none;}
	.st6{opacity:0.65;}
	.st7{fill:none;stroke:#FFFFFF;stroke-width:2;stroke-miterlimit:10;}
	.st8{fill:#FFFFFF;stroke:#FFFFFF;stroke-width:2;stroke-miterlimit:10;}
	.st9{fill:#FFFFFF;stroke:#FFFFFF;stroke-miterlimit:10;}
	.st10{fill:none;stroke:#FFFFFF;stroke-width:1.9932;stroke-linecap:round;stroke-linejoin:round;stroke-miterlimit:10;}
	.st11{fill:none;stroke:#C3D7DC;stroke-miterlimit:10;}
	.st12{font-family:'Assistant-Bold';}
	.st13{font-size:3.5747px;}
</style>
<g id="Layer_1">
</g>
<g id="Layer_2">
</g>
<g id="Layer_3">
</g>
<g id="Layer_4">
</g>
<g id="Layer_5">
</g>
<g id="Layer_6">
</g>
<g id="Layer_7">
</g>
<g id="Layer_8">
</g>
<g id="Layer_9">
</g>
<g id="Layer_10">
</g>
<g id="Layer_11">
	<g id="XMLID_377_">
		<g id="XMLID_378_">
			<polygon id="XMLID_380_" class="st0" points="113.2,116 100.6,128.2 0.3,128.2 0.3,0 128.6,0 128.6,100.9 			"/>
			<path id="XMLID_379_" class="st1" d="M100.6,129.8c0,0,27.9-27.4,27.9-27.3s-27.8-2-34.1-5.1C94.5,97.4,101.7,121.6,100.6,129.8z
				"/>
		</g>
	</g>
	<g id="XMLID_322_" class="st2">
		<g id="XMLID_800_">
			<path id="XMLID_802_" class="st9" d="M114.1,69.4c9.6-10.1,24.8,7.9-4.4,19l0,0c0,0,0,0,0,0c0,0,0,0,0,0l0,0
				C88.3,65.5,109.9,56,114.1,69.4z"/>
			<path id="XMLID_801_" class="st10" d="M103.1,75.3L93.3,73c-0.1,0-0.1-0.1-0.1-0.2l-0.3-4.6c0-0.4-0.2-0.5-0.3-0.1l-2.8,7.1
				c-0.2,0.6-0.4,0.6-0.3-0.1l0.5-5.4c0,0,0-0.4,0-0.4c0,0-0.1,0.2-0.1,0.2l-0.9,2.1c0,0.1-0.1,0.1-0.2,0.1l-17.7-4.2
				c0,0-0.8-0.2-0.9-0.2c-0.7-0.2-2.3-0.5-2.3-0.5c-0.1,0-0.1-0.1-0.1-0.2l0.1-2.3c0,0,0-0.3,0-0.3c0,0-0.2,0.3-0.2,0.3l-2,5.1
				c-0.2,0.6-0.4,0.6-0.3-0.1l1.2-9.8c0-0.4-0.1-0.5-0.3-0.1l-2.9,6.1c0,0.1-0.1,0.1-0.2,0.1l-14.2-3.3"/>
		</g>
		<g id="XMLID_336_">
			<g id="XMLID_790_">
				<path id="XMLID_798_" class="st3" d="M35.3,69.5L16.7,65C10.4,63.5,6.5,57.2,8,51l5.1-21.3c1.5-6.3,7.8-10.1,14.1-8.6l18.6,4.5
					c6.3,1.5,10.1,7.8,8.6,14.1l-5.1,21.3C47.8,67.1,41.5,71,35.3,69.5z"/>
				<path id="XMLID_797_" class="st0" d="M42.3,57.5l-26.5-6.3c-2.5-0.6-4.1-3.1-3.5-5.6L16,30.3c1.1-4.7,5.8-7.5,10.4-6.4l18.7,4.5
					c4.7,1.1,7.5,5.8,6.4,10.4l-3.6,15.2C47.3,56.6,44.8,58.1,42.3,57.5z"/>
				<path id="XMLID_794_" class="st0" d="M38.9,66.3l-6.5-1.6c-1.4-0.3-2.2-1.7-1.9-3.1l0.4-1.8c0.3-1.4,1.7-2.2,3.1-1.9l6.5,1.6
					c1.4,0.3,2.2,1.7,1.9,3.1L42,64.4C41.6,65.8,40.3,66.6,38.9,66.3z"/>
				<path id="XMLID_793_" class="st3" d="M40.9,52.3l-8.7-2.1c-2.1-0.5-3.4-2.6-2.9-4.7l3-12.6c0.5-2.1,2.6-3.4,4.7-2.9l8.7,2.1
					c2.1,0.5,3.4,2.6,2.9,4.7l-3,12.6C45.2,51.6,43,52.9,40.9,52.3z"/>
			</g>
			<g id="XMLID_750_" class="st6">
				<g id="XMLID_785_">
					<line id="XMLID_789_" class="st11" x1="35.9" y1="33.6" x2="35.5" y2="35.2"/>
					<line id="XMLID_786_" class="st11" x1="35.4" y1="35.9" x2="35" y2="37.5"/>
				</g>
				<g id="XMLID_774_">
					<line id="XMLID_782_" class="st11" x1="38.7" y1="36.2" x2="37.1" y2="35.8"/>
					<line id="XMLID_781_" class="st11" x1="39.2" y1="34.4" x2="37.5" y2="34"/>
					<line id="XMLID_779_" class="st11" x1="38.5" y1="38.4" x2="36.8" y2="38"/>
					<line id="XMLID_778_" class="st11" x1="39.4" y1="34.4" x2="39" y2="36.1"/>
					<line id="XMLID_775_" class="st11" x1="37" y1="36.3" x2="36.6" y2="37.9"/>
				</g>
				<g id="XMLID_752_">
					<line id="XMLID_773_" class="st11" x1="41" y1="34.8" x2="40.6" y2="36.4"/>
					<line id="XMLID_762_" class="st11" x1="42.6" y1="35.2" x2="41" y2="34.8"/>
					<line id="XMLID_761_" class="st11" x1="41.7" y1="39.1" x2="40" y2="38.7"/>
					<line id="XMLID_759_" class="st11" x1="42.3" y1="37.5" x2="41.9" y2="39.2"/>
					<line id="XMLID_758_" class="st11" x1="42.9" y1="35.2" x2="42.5" y2="36.9"/>
					<line id="XMLID_753_" class="st11" x1="40.4" y1="37.1" x2="40" y2="38.7"/>
				</g>
			</g>
			<g id="XMLID_177_" class="st6">
				<g id="XMLID_740_">
					<line id="XMLID_749_" class="st11" x1="39.6" y1="40.6" x2="39.2" y2="42.2"/>
					<line id="XMLID_747_" class="st11" x1="41.2" y1="41" x2="39.6" y2="40.6"/>
					<line id="XMLID_746_" class="st11" x1="40.3" y1="44.9" x2="38.7" y2="44.5"/>
					<line id="XMLID_744_" class="st11" x1="40.9" y1="43.3" x2="40.5" y2="45"/>
					<line id="XMLID_743_" class="st11" x1="41.5" y1="41" x2="41.1" y2="42.7"/>
					<line id="XMLID_741_" class="st11" x1="39.1" y1="42.9" x2="38.7" y2="44.5"/>
				</g>
				<g id="XMLID_178_">
					<line id="XMLID_187_" class="st11" x1="36.2" y1="39.8" x2="35.8" y2="41.4"/>
					<line id="XMLID_186_" class="st11" x1="37.9" y1="40.2" x2="36.2" y2="39.8"/>
					<line id="XMLID_185_" class="st11" x1="37.4" y1="42.1" x2="35.7" y2="41.7"/>
					<line id="XMLID_184_" class="st11" x1="36.9" y1="44.1" x2="35.3" y2="43.7"/>
					<line id="XMLID_183_" class="st11" x1="37.5" y1="42.5" x2="37.1" y2="44.2"/>
					<line id="XMLID_181_" class="st11" x1="38.1" y1="40.2" x2="37.7" y2="41.9"/>
					<line id="XMLID_179_" class="st11" x1="35.7" y1="42.1" x2="35.3" y2="43.7"/>
				</g>
			</g>
			<g id="XMLID_161_" class="st6">
				<g id="XMLID_170_">
					<line id="XMLID_176_" class="st11" x1="38.3" y1="45.9" x2="38.1" y2="47.4"/>
					<line id="XMLID_175_" class="st11" x1="39.9" y1="46.2" x2="38.3" y2="45.9"/>
					<line id="XMLID_174_" class="st11" x1="39.2" y1="49.8" x2="37.7" y2="49.6"/>
					<line id="XMLID_173_" class="st11" x1="39.7" y1="48.3" x2="39.4" y2="49.9"/>
					<line id="XMLID_172_" class="st11" x1="40.1" y1="46.2" x2="39.8" y2="47.7"/>
					<line id="XMLID_171_" class="st11" x1="38" y1="48" x2="37.7" y2="49.6"/>
				</g>
				<g id="XMLID_162_">
					<line id="XMLID_169_" class="st11" x1="35.2" y1="45.4" x2="35" y2="46.9"/>
					<line id="XMLID_168_" class="st11" x1="36.7" y1="45.6" x2="35.2" y2="45.4"/>
					<line id="XMLID_167_" class="st11" x1="36.4" y1="47.4" x2="34.9" y2="47.2"/>
					<line id="XMLID_166_" class="st11" x1="36.1" y1="49.3" x2="34.6" y2="49"/>
					<line id="XMLID_165_" class="st11" x1="36.6" y1="47.8" x2="36.3" y2="49.3"/>
					<line id="XMLID_164_" class="st11" x1="36.9" y1="45.7" x2="36.7" y2="47.2"/>
					<line id="XMLID_163_" class="st11" x1="34.9" y1="47.5" x2="34.6" y2="49"/>
				</g>
			</g>
			<g id="XMLID_339_">
				
					<rect id="XMLID_10_" x="32" y="61.3" transform="matrix(0.9725 0.2328 -0.2328 0.9725 16.2198 -7.3012)" class="st5" width="14.1" height="7.6"/>
				<text transform="matrix(0.9725 0.2328 -0.2328 0.9725 32.5158 62.2221)" class="st3 st12 st13">start</text>
			</g>
			<circle id="XMLID_338_" class="st3" cx="17" cy="47.3" r="1.6"/>
			<circle id="XMLID_337_" class="st3" cx="21.9" cy="48.4" r="1.6"/>
		</g>
	</g>
</g>
<g id="Layer_12">
</g>
<g id="Layer_13">
</g>
<g id="Layer_14">
</g>
</svg>
