<?xml version="1.0" encoding="utf-8"?>
<!-- Generator: Adobe Illustrator 19.1.0, SVG Export Plug-In . SVG Version: 6.00 Build 0)  -->
<svg version="1.1" xmlns="http://www.w3.org/2000/svg" xmlns:xlink="http://www.w3.org/1999/xlink" x="0px" y="0px"
	 viewBox="0 0 128.6 128.6" style="enable-background:new 0 0 128.6 128.6;" xml:space="preserve">
<style type="text/css">
	.st0{opacity:0.65;fill:#C3D7DC;}
	.st1{fill:#C3D7DC;}
	.st2{opacity:0.4;}
	.st3{fill:#FFFFFF;}
	.st4{fill:none;stroke:#FFFFFF;stroke-width:10;stroke-miterlimit:10;}
	.st5{fill:none;}
	.st6{opacity:0.65;}
	.st7{fill:none;stroke:#FFFFFF;stroke-width:2;stroke-miterlimit:10;}
	.st8{fill:#FFFFFF;stroke:#FFFFFF;stroke-width:2;stroke-miterlimit:10;}
	.st9{fill:#FFFFFF;stroke:#FFFFFF;stroke-miterlimit:10;}
	.st10{fill:none;stroke:#FFFFFF;stroke-width:1.9932;stroke-linecap:round;stroke-linejoin:round;stroke-miterlimit:10;}
	.st11{fill:none;stroke:#C3D7DC;stroke-miterlimit:10;}
</style>
<g id="Layer_1">
</g>
<g id="Layer_2">
	<g id="XMLID_237_">
		<g id="XMLID_238_">
			<polygon id="XMLID_240_" class="st0" points="113.2,116 100.6,128.2 0.3,128.2 0.3,0 128.6,0 128.6,100.9 			"/>
			<path id="XMLID_239_" class="st1" d="M100.6,129.8c0,0,27.9-27.4,27.9-27.3s-27.8-2-34.1-5.1C94.5,97.4,101.7,121.6,100.6,129.8z
				"/>
		</g>
	</g>
	<g id="XMLID_525_" class="st2">
		<path id="XMLID_535_" class="st3" d="M83.1,53.7C78.7,44.4,73,35.6,66.7,24.6c-6.2,11-11.6,19.6-16,28.8c-3.6,7.6-1.1,15.1,5.3,20
			c5.9,4.6,14.8,4.7,21,0.3C83.2,69.2,86.5,60.8,83.1,53.7z M66.7,30.9c3,4.6,9.3,14.9,10.7,17.7c-7.3,0-13.8,0-21.7,0
			C59.6,42.4,62.7,37.3,66.7,30.9z M55.4,57.4c-0.6-1.2,0.2-2.8,1.8-3.6c1.6-0.8,3.4-0.5,4,0.7c0.6,1.2-0.2,2.8-1.8,3.6
			C57.7,58.8,56,58.5,55.4,57.4z M60.2,70.3c-1.6,0.8-3.4,0.5-4-0.7c-0.6-1.2,0.2-2.8,1.8-3.6c1.6-0.8,3.4-0.5,4,0.7
			C62.6,67.9,61.8,69.5,60.2,70.3z M62,64.8c-1-1.9,0.3-4.5,2.9-5.8c2.5-1.3,5.4-0.8,6.3,1.1c1,1.9-0.3,4.5-2.9,5.8S63,66.7,62,64.8
			z M70.6,74.4c-1.6,0.8-3.4,0.5-4-0.7c-0.6-1.2,0.2-2.8,1.8-3.6c1.6-0.8,3.4-0.5,4,0.7C73,72,72.2,73.6,70.6,74.4z M78.9,64.4
			c-1.6,0.8-3.4,0.5-4-0.7c-0.6-1.2,0.2-2.8,1.8-3.6c1.6-0.8,3.4-0.5,4,0.7C81.3,62,80.5,63.6,78.9,64.4z"/>
		<g id="XMLID_845_">
			<g id="כדוריות_דם_71_">
				<g id="XMLID_1241_">
					<path id="XMLID_549_" class="st3" d="M63.4,63.8c0,0,0.6,0.1,1.3,0.2c0.2,0,0.4,0,0.6,0c0.2,0,0.4,0,0.7,0
						c0.2,0,0.5-0.1,0.7-0.1c0.2-0.1,0.5-0.1,0.7-0.2c0.2-0.1,0.4-0.2,0.6-0.3c0.2-0.1,0.4-0.3,0.5-0.4c0.2-0.2,0.3-0.3,0.4-0.5
						c0.1-0.2,0.2-0.3,0.4-0.5c0.2-0.3,0.4-0.6,0.5-0.8c0.1-0.2,0.2-0.3,0.2-0.3s0,0.1,0,0.4c0,0.2,0,0.6-0.2,1
						c-0.1,0.2-0.1,0.4-0.2,0.7c-0.1,0.2-0.2,0.5-0.4,0.7c-0.2,0.2-0.4,0.5-0.6,0.6c-0.2,0.2-0.5,0.3-0.8,0.5
						c-0.3,0.1-0.6,0.2-0.9,0.2c-0.3,0-0.6,0-0.9,0c-0.6,0-1-0.2-1.4-0.4C63.8,64.2,63.4,63.8,63.4,63.8z"/>
				</g>
			</g>
			<g id="כדוריות_דם_12_">
				<g id="XMLID_1226_">
					<path id="XMLID_547_" class="st3" d="M67.5,73.1c0,0,0.3,0,0.9,0c0.2,0,0.5,0,0.8,0c0.1,0,0.3-0.1,0.4-0.1
						c0.1,0,0.3-0.1,0.4-0.1c0.2-0.1,0.4-0.2,0.7-0.4c0.2-0.2,0.4-0.4,0.5-0.6c0.2-0.2,0.3-0.4,0.4-0.5c0.1-0.1,0.2-0.2,0.2-0.2
						s0,0.1,0,0.2c0,0.2,0,0.4,0,0.7c0,0.3-0.2,0.6-0.4,0.9c-0.1,0.1-0.2,0.3-0.4,0.4c-0.2,0.1-0.3,0.2-0.5,0.3
						c-0.4,0.2-0.8,0.2-1.2,0.1c-0.4,0-0.7-0.2-0.9-0.3C67.8,73.4,67.5,73.1,67.5,73.1z"/>
				</g>
			</g>
			<g id="כדוריות_דם_11_">
				<g id="XMLID_1223_">
					<path id="XMLID_545_" class="st3" d="M75.9,63.1c0,0,0.3,0,0.9,0c0.2,0,0.5,0,0.8,0c0.1,0,0.3-0.1,0.4-0.1
						c0.1,0,0.3-0.1,0.4-0.1c0.2-0.1,0.4-0.2,0.7-0.4c0.2-0.2,0.4-0.4,0.5-0.6c0.2-0.2,0.3-0.4,0.4-0.5c0.1-0.1,0.2-0.2,0.2-0.2
						s0,0.1,0,0.2c0,0.2,0,0.4,0,0.7c0,0.3-0.2,0.6-0.4,0.9c-0.1,0.1-0.2,0.3-0.4,0.4c-0.2,0.1-0.3,0.2-0.5,0.3
						c-0.4,0.2-0.8,0.2-1.2,0.1c-0.4,0-0.7-0.2-0.9-0.3C76.1,63.4,75.9,63.1,75.9,63.1z"/>
				</g>
			</g>
			<g id="כדוריות_דם_10_">
				<g id="XMLID_1220_">
					<path id="XMLID_543_" class="st3" d="M56.3,56.7c0,0,0.3,0,0.9,0c0.2,0,0.5,0,0.8,0c0.1,0,0.3-0.1,0.4-0.1
						c0.1,0,0.3-0.1,0.4-0.1c0.2-0.1,0.4-0.2,0.7-0.4c0.2-0.2,0.4-0.4,0.5-0.6c0.2-0.2,0.3-0.4,0.4-0.5c0.1-0.1,0.2-0.2,0.2-0.2
						s0,0.1,0,0.2c0,0.2,0,0.4,0,0.7c0,0.3-0.2,0.6-0.4,0.9c-0.1,0.1-0.2,0.3-0.4,0.4c-0.2,0.1-0.3,0.2-0.5,0.3
						c-0.4,0.2-0.8,0.2-1.2,0.1c-0.4,0-0.7-0.2-0.9-0.3C56.5,57.1,56.3,56.7,56.3,56.7z"/>
				</g>
			</g>
			<g id="כדוריות_דם_9_">
				<g id="XMLID_846_">
					<path id="XMLID_533_" class="st3" d="M57.2,69c0,0,0.3,0,0.9,0c0.2,0,0.5,0,0.8,0c0.1,0,0.3-0.1,0.4-0.1c0.1,0,0.3-0.1,0.4-0.1
						c0.2-0.1,0.4-0.2,0.7-0.4c0.2-0.2,0.4-0.4,0.5-0.6c0.2-0.2,0.3-0.4,0.4-0.5c0.1-0.1,0.2-0.2,0.2-0.2s0,0.1,0,0.2
						c0,0.2,0,0.4,0,0.7c0,0.3-0.2,0.6-0.4,0.9c-0.1,0.1-0.2,0.3-0.4,0.4c-0.2,0.1-0.3,0.2-0.5,0.3c-0.4,0.2-0.8,0.2-1.2,0.1
						c-0.4,0-0.7-0.2-0.9-0.3C57.4,69.3,57.2,69,57.2,69z"/>
				</g>
			</g>
		</g>
	</g>
</g>
<g id="Layer_3">
</g>
<g id="Layer_4">
</g>
<g id="Layer_5">
</g>
<g id="Layer_6">
</g>
<g id="Layer_7">
</g>
<g id="Layer_8">
</g>
<g id="Layer_9">
</g>
<g id="Layer_10">
</g>
<g id="Layer_11">
</g>
<g id="Layer_12">
</g>
<g id="Layer_13">
</g>
<g id="Layer_14">
</g>
</svg>
