<svg id="f954c2c7-a0ec-490f-9532-f055e4691869" data-name="Layer 1" xmlns="http://www.w3.org/2000/svg" xmlns:xlink="http://www.w3.org/1999/xlink" viewBox="0 0 38.20983 25.91489"><defs><style>.a0fd5fae-aab3-44fd-b24d-b8f805c81930,.ab0e0497-4c01-4345-b9ba-4b38e9c1ff89,.acc41ecf-079d-4852-abb7-f9a5bc28e736,.af12704b-5cb8-4267-a144-e5a5bec08b03{fill:none;}.a0fd5fae-aab3-44fd-b24d-b8f805c81930,.acc41ecf-079d-4852-abb7-f9a5bc28e736,.af12704b-5cb8-4267-a144-e5a5bec08b03{stroke:#4e7582;stroke-miterlimit:10;}.acc41ecf-079d-4852-abb7-f9a5bc28e736{stroke-width:0.70802px;}.b7ddc1c2-cc4d-4e8a-82b9-89dc133da2b4{clip-path:url(#fdc3d3d4-eb2c-4538-8863-38d5f0ead73a);}.eba4f0dc-ecda-4dd6-b62d-77d438519692{clip-path:url(#b4d655ba-6965-4e55-8d9f-0b3aa2d274ac);}.af12704b-5cb8-4267-a144-e5a5bec08b03{stroke-width:0.41323px;}.a0fd5fae-aab3-44fd-b24d-b8f805c81930{stroke-width:0.20662px;}.a31fc469-9079-4950-9488-f8e6e8d75c5c{clip-path:url(#e5024ac9-ecdd-4ea3-af44-8e7800d5ecab);}</style><clipPath id="fdc3d3d4-eb2c-4538-8863-38d5f0ead73a"><rect class="ab0e0497-4c01-4345-b9ba-4b38e9c1ff89" x="11.93596" y="-2.62432" width="13.18823" height="30.9132" transform="translate(40.70661 8.80333) rotate(135)"/></clipPath><clipPath id="b4d655ba-6965-4e55-8d9f-0b3aa2d274ac"><path class="acc41ecf-079d-4852-abb7-f9a5bc28e736" d="M9.41336.52944c1.62427,1.50707,1.08521,3.62936,1.35149,8.042a10.05768,10.05768,0,0,0,6.23345,6.62723c2.78644.93547,5.76158.68288,8.565,1.56644a3.79688,3.79688,0,0,1,1.85629,1.0952c.77927.95376.67215,2.32272.60668,3.55262a5.16933,5.16933,0,0,0,.3348,2.49158c.15906.331.92126.90682.6376,1.26094-.14812.18492-.94333.20184-1.15142.22629a6.57251,6.57251,0,0,1-5.06847-1.38031,9.04027,9.04027,0,0,1-2.688-5.46533c-1.54922-9.00083,1.47455-10.5296-.5697-11.53239-1.40038-.6869-3.59965-.06676-5.05367.12181-1.674.21709-3.988.75051-5.59949-.00067C7.577,6.533,5.9789,5.07187,5.93158,3.53617"/></clipPath><clipPath id="e5024ac9-ecdd-4ea3-af44-8e7800d5ecab"><path class="acc41ecf-079d-4852-abb7-f9a5bc28e736" d="M9.85407.2754c1.62426,1.50707,1.08521,3.62936,1.35149,8.042A10.05767,10.05767,0,0,0,17.439,14.94461c2.78643.93547,5.76158.68288,8.565,1.56643a3.797,3.797,0,0,1,1.85629,1.09521c.77927.95376.67214,2.32271.60668,3.55261a5.16925,5.16925,0,0,0,.3348,2.49159c.15905.331.92126.90681.6376,1.26093-.14813.18492-.94333.20185-1.15142.2263a6.57255,6.57255,0,0,1-5.06847-1.38032,9.04026,9.04026,0,0,1-2.688-5.46532C18.98222,9.2912,22.006,7.76243,19.96174,6.75965c-1.40038-.6869-3.59964-.06677-5.05366.1218-1.674.2171-3.988.75051-5.59949-.00067C8.01772,6.279,6.41961,4.81783,6.37228,3.28214"/></clipPath></defs><title>Artboard 125 copy 2</title><g class="b7ddc1c2-cc4d-4e8a-82b9-89dc133da2b4"><g class="eba4f0dc-ecda-4dd6-b62d-77d438519692"><line class="af12704b-5cb8-4267-a144-e5a5bec08b03" x1="35.88724" y1="17.59967" x2="23.14841" y2="31.61327"/><line class="a0fd5fae-aab3-44fd-b24d-b8f805c81930" x1="35.02048" y1="16.81175" x2="22.28164" y2="30.82535"/><line class="a0fd5fae-aab3-44fd-b24d-b8f805c81930" x1="34.15372" y1="16.02383" x2="21.41488" y2="30.03743"/><line class="a0fd5fae-aab3-44fd-b24d-b8f805c81930" x1="33.28695" y1="15.23592" x2="20.54812" y2="29.24951"/><line class="a0fd5fae-aab3-44fd-b24d-b8f805c81930" x1="30.68666" y1="12.87216" x2="17.94783" y2="26.88576"/><line class="a0fd5fae-aab3-44fd-b24d-b8f805c81930" x1="29.8199" y1="12.08425" x2="17.08106" y2="26.09784"/><line class="a0fd5fae-aab3-44fd-b24d-b8f805c81930" x1="27.21961" y1="9.72049" x2="14.48077" y2="23.73409"/><line class="a0fd5fae-aab3-44fd-b24d-b8f805c81930" x1="26.35284" y1="8.93258" x2="13.61401" y2="22.94617"/><line class="a0fd5fae-aab3-44fd-b24d-b8f805c81930" x1="28.95314" y1="11.29633" x2="16.2143" y2="25.30993"/><line class="a0fd5fae-aab3-44fd-b24d-b8f805c81930" x1="28.08637" y1="10.50841" x2="15.34754" y2="24.52201"/><line class="a0fd5fae-aab3-44fd-b24d-b8f805c81930" x1="32.42019" y1="14.448" x2="19.68135" y2="28.4616"/><line class="a0fd5fae-aab3-44fd-b24d-b8f805c81930" x1="31.55343" y1="13.66008" x2="18.81459" y2="27.67368"/><line class="a0fd5fae-aab3-44fd-b24d-b8f805c81930" x1="25.48608" y1="8.14466" x2="12.74725" y2="22.15826"/><line class="a0fd5fae-aab3-44fd-b24d-b8f805c81930" x1="24.61932" y1="7.35674" x2="11.88048" y2="21.37034"/><line class="a0fd5fae-aab3-44fd-b24d-b8f805c81930" x1="23.75255" y1="6.56882" x2="11.01372" y2="20.58242"/><line class="a0fd5fae-aab3-44fd-b24d-b8f805c81930" x1="22.88579" y1="5.78091" x2="10.14695" y2="19.79451"/><line class="a0fd5fae-aab3-44fd-b24d-b8f805c81930" x1="20.2855" y1="3.41715" x2="7.54666" y2="17.43075"/><line class="a0fd5fae-aab3-44fd-b24d-b8f805c81930" x1="19.41874" y1="2.62924" x2="6.6799" y2="16.64284"/><line class="a0fd5fae-aab3-44fd-b24d-b8f805c81930" x1="16.81845" y1="0.26548" x2="4.07961" y2="14.27908"/><line class="a0fd5fae-aab3-44fd-b24d-b8f805c81930" x1="15.95168" y1="-0.52243" x2="3.21285" y2="13.49117"/><line class="a0fd5fae-aab3-44fd-b24d-b8f805c81930" x1="18.55197" y1="1.84132" x2="5.81314" y2="15.85492"/><line class="a0fd5fae-aab3-44fd-b24d-b8f805c81930" x1="17.68521" y1="1.0534" x2="4.94637" y2="15.067"/><line class="a0fd5fae-aab3-44fd-b24d-b8f805c81930" x1="22.01903" y1="4.99299" x2="9.28019" y2="19.00659"/><line class="a0fd5fae-aab3-44fd-b24d-b8f805c81930" x1="21.15226" y1="4.20507" x2="8.41343" y2="18.21867"/><line class="a0fd5fae-aab3-44fd-b24d-b8f805c81930" x1="14.21816" y1="-2.09827" x2="1.47932" y2="11.91533"/><line class="a0fd5fae-aab3-44fd-b24d-b8f805c81930" x1="13.35139" y1="-2.88619" x2="0.61256" y2="11.12741"/><line class="a0fd5fae-aab3-44fd-b24d-b8f805c81930" x1="10.7511" y1="-5.24994" x2="-1.98773" y2="8.76366"/><line class="a0fd5fae-aab3-44fd-b24d-b8f805c81930" x1="9.88434" y1="-6.03785" x2="-2.8545" y2="7.97574"/><line class="a0fd5fae-aab3-44fd-b24d-b8f805c81930" x1="11.61787" y1="-4.46202" x2="-1.12097" y2="9.55158"/><line class="a0fd5fae-aab3-44fd-b24d-b8f805c81930" x1="15.08492" y1="-1.31035" x2="2.34608" y2="12.70325"/></g><path class="acc41ecf-079d-4852-abb7-f9a5bc28e736" d="M9.41336.52944c1.62427,1.50707,1.08521,3.62936,1.35149,8.042a10.05768,10.05768,0,0,0,6.23345,6.62723c2.78644.93547,5.76158.68288,8.565,1.56644a3.79688,3.79688,0,0,1,1.85629,1.0952c.77927.95376.67215,2.32272.60668,3.55262a5.16933,5.16933,0,0,0,.3348,2.49158c.15906.331.92126.90682.6376,1.26094-.14812.18492-.94333.20184-1.15142.22629a6.57251,6.57251,0,0,1-5.06847-1.38031,9.04027,9.04027,0,0,1-2.688-5.46533c-1.54922-9.00083,1.47455-10.5296-.5697-11.53239-1.40038-.6869-3.59965-.06676-5.05367.12181-1.674.21709-3.988.75051-5.59949-.00067C7.577,6.533,5.9789,5.07187,5.93158,3.53617"/><g class="a31fc469-9079-4950-9488-f8e6e8d75c5c"><line class="af12704b-5cb8-4267-a144-e5a5bec08b03" x1="36.32795" y1="17.34563" x2="23.58911" y2="31.35923"/><line class="a0fd5fae-aab3-44fd-b24d-b8f805c81930" x1="35.46119" y1="16.55771" x2="22.72235" y2="30.57131"/><line class="a0fd5fae-aab3-44fd-b24d-b8f805c81930" x1="34.59442" y1="15.7698" x2="21.85559" y2="29.7834"/><line class="a0fd5fae-aab3-44fd-b24d-b8f805c81930" x1="33.72766" y1="14.98188" x2="20.98882" y2="28.99548"/><line class="a0fd5fae-aab3-44fd-b24d-b8f805c81930" x1="31.12737" y1="12.61813" x2="18.38853" y2="26.63173"/><line class="a0fd5fae-aab3-44fd-b24d-b8f805c81930" x1="30.26061" y1="11.83021" x2="17.52177" y2="25.84381"/><line class="a0fd5fae-aab3-44fd-b24d-b8f805c81930" x1="27.66032" y1="9.46646" x2="14.92148" y2="23.48006"/><line class="a0fd5fae-aab3-44fd-b24d-b8f805c81930" x1="26.79355" y1="8.67854" x2="14.05472" y2="22.69214"/><line class="a0fd5fae-aab3-44fd-b24d-b8f805c81930" x1="29.39384" y1="11.04229" x2="16.65501" y2="25.05589"/><line class="a0fd5fae-aab3-44fd-b24d-b8f805c81930" x1="28.52708" y1="10.25438" x2="15.78824" y2="24.26797"/><line class="a0fd5fae-aab3-44fd-b24d-b8f805c81930" x1="32.8609" y1="14.19396" x2="20.12206" y2="28.20756"/><line class="a0fd5fae-aab3-44fd-b24d-b8f805c81930" x1="31.99413" y1="13.40605" x2="19.2553" y2="27.41964"/><line class="a0fd5fae-aab3-44fd-b24d-b8f805c81930" x1="25.92679" y1="7.89062" x2="13.18795" y2="21.90422"/><line class="a0fd5fae-aab3-44fd-b24d-b8f805c81930" x1="25.06003" y1="7.10271" x2="12.32119" y2="21.1163"/><line class="a0fd5fae-aab3-44fd-b24d-b8f805c81930" x1="24.19326" y1="6.31479" x2="11.45443" y2="20.32839"/><line class="a0fd5fae-aab3-44fd-b24d-b8f805c81930" x1="23.3265" y1="5.52687" x2="10.58766" y2="19.54047"/><line class="a0fd5fae-aab3-44fd-b24d-b8f805c81930" x1="20.72621" y1="3.16312" x2="7.98737" y2="17.17672"/><line class="a0fd5fae-aab3-44fd-b24d-b8f805c81930" x1="19.85944" y1="2.3752" x2="7.12061" y2="16.3888"/><line class="a0fd5fae-aab3-44fd-b24d-b8f805c81930" x1="17.25915" y1="0.01145" x2="4.52032" y2="14.02505"/><line class="a0fd5fae-aab3-44fd-b24d-b8f805c81930" x1="16.39239" y1="-0.77647" x2="3.65355" y2="13.23713"/><line class="a0fd5fae-aab3-44fd-b24d-b8f805c81930" x1="18.99268" y1="1.58728" x2="6.25384" y2="15.60088"/><line class="a0fd5fae-aab3-44fd-b24d-b8f805c81930" x1="18.12592" y1="0.79937" x2="5.38708" y2="14.81296"/><line class="a0fd5fae-aab3-44fd-b24d-b8f805c81930" x1="22.45973" y1="4.73895" x2="9.7209" y2="18.75255"/><line class="a0fd5fae-aab3-44fd-b24d-b8f805c81930" x1="21.59297" y1="3.95104" x2="8.85413" y2="17.96463"/><line class="a0fd5fae-aab3-44fd-b24d-b8f805c81930" x1="14.65886" y1="-2.3523" x2="1.92003" y2="11.6613"/><line class="a0fd5fae-aab3-44fd-b24d-b8f805c81930" x1="13.7921" y1="-3.14022" x2="1.05326" y2="10.87338"/><line class="a0fd5fae-aab3-44fd-b24d-b8f805c81930" x1="11.19181" y1="-5.50397" x2="-1.54703" y2="8.50963"/><line class="a0fd5fae-aab3-44fd-b24d-b8f805c81930" x1="10.32505" y1="-6.29189" x2="-2.41379" y2="7.72171"/><line class="a0fd5fae-aab3-44fd-b24d-b8f805c81930" x1="12.05857" y1="-4.71606" x2="-0.68026" y2="9.29754"/><line class="a0fd5fae-aab3-44fd-b24d-b8f805c81930" x1="15.52563" y1="-1.56439" x2="2.78679" y2="12.44921"/></g><path class="acc41ecf-079d-4852-abb7-f9a5bc28e736" d="M9.85407.2754c1.62426,1.50707,1.08521,3.62936,1.35149,8.042A10.05767,10.05767,0,0,0,17.439,14.94461c2.78643.93547,5.76158.68288,8.565,1.56643a3.797,3.797,0,0,1,1.85629,1.09521c.77927.95376.67214,2.32271.60668,3.55261a5.16925,5.16925,0,0,0,.3348,2.49159c.15905.331.92126.90681.6376,1.26093-.14813.18492-.94333.20185-1.15142.2263a6.57255,6.57255,0,0,1-5.06847-1.38032,9.04026,9.04026,0,0,1-2.688-5.46532C18.98222,9.2912,22.006,7.76243,19.96174,6.75965c-1.40038-.6869-3.59964-.06677-5.05366.1218-1.674.2171-3.988.75051-5.59949-.00067C8.01772,6.279,6.41961,4.81783,6.37228,3.28214"/></g></svg>