<svg id="f938bda7-fb5e-49f8-87cb-593923641d91" data-name="Layer 1" xmlns="http://www.w3.org/2000/svg" viewBox="0 0 38.20983 25.91489"><defs><style>.aa0468eb-7c2c-4dcd-81a0-5609e4c20b34{fill:none;stroke-width:1.11157px;}.a90e0509-78fd-4017-8456-64ad1dec9573,.aa0468eb-7c2c-4dcd-81a0-5609e4c20b34,.b83859bc-60f2-42e8-ba6c-f2424d80eb5f,.badace4c-240e-4540-b6b2-1683a2da3fe6,.be387bd7-1943-4a3c-8a1e-2c3ea45d0f47,.fafb6ef0-69af-4a41-85ce-9aa619742fc7{stroke:#4e7582;}.aa0468eb-7c2c-4dcd-81a0-5609e4c20b34,.be387bd7-1943-4a3c-8a1e-2c3ea45d0f47,.fafb6ef0-69af-4a41-85ce-9aa619742fc7{stroke-linecap:round;}.a90e0509-78fd-4017-8456-64ad1dec9573,.aa0468eb-7c2c-4dcd-81a0-5609e4c20b34,.be387bd7-1943-4a3c-8a1e-2c3ea45d0f47,.fafb6ef0-69af-4a41-85ce-9aa619742fc7{stroke-linejoin:round;}.a90e0509-78fd-4017-8456-64ad1dec9573,.b4a1c1dc-8da7-4c59-bf04-53ae14d44048,.b83859bc-60f2-42e8-ba6c-f2424d80eb5f,.badace4c-240e-4540-b6b2-1683a2da3fe6,.be387bd7-1943-4a3c-8a1e-2c3ea45d0f47,.fafb6ef0-69af-4a41-85ce-9aa619742fc7{fill:#4e7582;}.b83859bc-60f2-42e8-ba6c-f2424d80eb5f,.badace4c-240e-4540-b6b2-1683a2da3fe6{stroke-miterlimit:10;}.a90e0509-78fd-4017-8456-64ad1dec9573,.b83859bc-60f2-42e8-ba6c-f2424d80eb5f,.be387bd7-1943-4a3c-8a1e-2c3ea45d0f47{stroke-width:0.44463px;}.badace4c-240e-4540-b6b2-1683a2da3fe6{stroke-width:0.29642px;}.fafb6ef0-69af-4a41-85ce-9aa619742fc7{stroke-width:0.69124px;}</style></defs><title>Artboard 125 copy 5</title><path class="aa0468eb-7c2c-4dcd-81a0-5609e4c20b34" d="M20.85215,18.09689c-1.35846,1.9135-1.36007,4.59025-2.87931,6.37877a2.54121,2.54121,0,0,1-1.28476.8807A1.346,1.346,0,0,1,15.273,24.893a1.86165,1.86165,0,0,1-.25689-.94575c-.0798-1.24382.15767-2.50066-.01816-3.73457-.10867-.76258-.50285-1.617-1.26129-1.75146a1.68205,1.68205,0,0,0-1.54139.78887c-.36074.49-.57644,1.07331-.926,1.57139a2.586,2.586,0,0,1-1.63306,1.112,1.70274,1.70274,0,0,1-1.74609-.76028c-.45189-.8047-.03615-1.791.11722-2.70107a4.60788,4.60788,0,0,0-.35635-2.675c-.115-.24946-.1223-.6918.14857-.64625"/><path class="b83859bc-60f2-42e8-ba6c-f2424d80eb5f" d="M20.958,18.093a.3763.3763,0,0,1-.04313-.00239.40089.40089,0,0,1-.356-.44133c.12566-1.17592,1.38652-1.75142,2.1398-2.09524a21.71015,21.71015,0,0,0,6.475-4.6663.401.401,0,0,1,.5767.55729,22.51782,22.51782,0,0,1-6.71865,4.83833c-.80874.36921-1.60431.78539-1.67547,1.45121A.40092.40092,0,0,1,20.958,18.093Z"/><path class="a90e0509-78fd-4017-8456-64ad1dec9573" d="M29.95729,2.90428a4.02847,4.02847,0,0,0-4.256.36849L25.703,3.275l-.011-.00428a2.085,2.085,0,0,0-1.408.44772l1.01311,1.28013a2.08512,2.08512,0,0,0,.75926-1.26748l-.00039-.0085a3.4386,3.4386,0,0,1,3.63177-.31273,3.4098,3.4098,0,0,1,1.7628,3.205,7.99713,7.99713,0,0,1-2.19,4.34788l.40276.40731a8.59039,8.59039,0,0,0,2.35986-4.73842A3.97151,3.97151,0,0,0,29.95729,2.90428Z"/><ellipse class="b4a1c1dc-8da7-4c59-bf04-53ae14d44048" cx="24.74018" cy="4.40038" rx="0.4864" ry="0.90896" transform="translate(2.37763 15.86145) rotate(-37.22105)"/><path class="b83859bc-60f2-42e8-ba6c-f2424d80eb5f" d="M20.97988,17.76883a.40093.40093,0,0,1-.38407-.51656c.19288-.64091-.37843-1.33357-.98017-1.98813A22.51519,22.51519,0,0,1,15.3043,8.19568a.40091.40091,0,1,1,.74776-.28943,21.70749,21.70749,0,0,0,4.15394,6.815c.5604.60976,1.49841,1.62995,1.15771,2.762A.401.401,0,0,1,20.97988,17.76883Z"/><path class="be387bd7-1943-4a3c-8a1e-2c3ea45d0f47" d="M22.21923,2.24l-.01249-.00033.00309-.00173A4.02339,4.02339,0,0,0,18.43122.24576a3.97072,3.97072,0,0,0-3.35154,2.63169,8.58976,8.58976,0,0,0,.33387,5.283l.52926-.219a7.99624,7.99624,0,0,1-.32908-4.857A3.40963,3.40963,0,0,1,18.48321.816a3.4438,3.4438,0,0,1,3.22514,1.699l-.0037.00774a2.08506,2.08506,0,0,0,.20725,1.46288l1.43083-.786A2.085,2.085,0,0,0,22.21923,2.24Z"/><ellipse class="b4a1c1dc-8da7-4c59-bf04-53ae14d44048" cx="22.65744" cy="3.65076" rx="0.97988" ry="0.52434" transform="translate(1.19871 11.78773) rotate(-29.91961)"/><path class="badace4c-240e-4540-b6b2-1683a2da3fe6" d="M20.2383,18.30518a.782.782,0,0,0,.36049.27832,1.08794,1.08794,0,0,0,.46166-.00749,3.07408,3.07408,0,0,0,1.36943-1.694l-2.28606-.75307A3.0741,3.0741,0,0,0,20.2383,18.30518Z"/><ellipse class="fafb6ef0-69af-4a41-85ce-9aa619742fc7" cx="7.16514" cy="14.46261" rx="2.14994" ry="1.50795" transform="translate(-6.10727 5.27841) rotate(-28.96269)"/><ellipse class="b4a1c1dc-8da7-4c59-bf04-53ae14d44048" cx="6.99845" cy="14.32791" rx="1.93495" ry="1.35715" transform="translate(-6.06289 5.18084) rotate(-28.96269)"/></svg>