<?xml version="1.0" encoding="utf-8"?>
<!-- Generator: Adobe Illustrator 19.1.0, SVG Export Plug-In . SVG Version: 6.00 Build 0)  -->
<svg version="1.1" id="Layer_1" xmlns="http://www.w3.org/2000/svg" xmlns:xlink="http://www.w3.org/1999/xlink" x="0px" y="0px"
	 viewBox="0 0 26.9 22.7" enable-background="new 0 0 26.9 22.7" xml:space="preserve">
<g>
	<defs>
		<rect id="SVGID_1113_" x="-252.3" y="-72.9" width="144.3" height="78.3"/>
	</defs>
	<clipPath id="SVGID_2_">
		<use xlink:href="#SVGID_1113_"  overflow="visible"/>
	</clipPath>
	<rect x="-436.9" y="-83.2" clip-path="url(#SVGID_2_)" fill="#E6E7E8" width="505.5" height="152"/>
	<g clip-path="url(#SVGID_2_)">
		<line fill="none" stroke="#D1D3D4" stroke-miterlimit="10" x1="1.2" y1="-77.8" x2="-90.2" y2="34.5"/>
	</g>
</g>
<g>
	<g>
		<g>
			
				<radialGradient id="SVGID_4_" cx="1680.2257" cy="-4019.4177" r="5.5123" gradientTransform="matrix(-9.082771e-002 0.9959 -0.9959 -9.082771e-002 -3836.8745 -2026.0083)" gradientUnits="userSpaceOnUse">
				<stop  offset="0" style="stop-color:#EC2429"/>
				<stop  offset="1" style="stop-color:#EC2429;stop-opacity:0"/>
			</radialGradient>
			<path fill="url(#SVGID_4_)" d="M16.3,14.3c0.8,0.4,1.8,0.2,2.5-0.4c0.7-0.6,1-1.6,0.7-2.5c-0.2-0.6-0.5-1-0.9-1.4
				C17.5,8.8,16,8,14.4,7.8c-1.5-0.2-3,0.1-4.4,0.3C9.4,8.3,8.8,8.4,8.4,8.9C8.1,9.2,8,9.6,7.9,10c-0.3,1.2-0.6,2.4-1,3.6
				c-0.1,0.4-0.2,0.8-0.2,1.2c0.1,0.6,0.5,1.2,1,1.5c0.6,0.3,1.3,0.2,1.8-0.1c0.6-0.4,0.9-1,1.5-1.2c0.5-0.2,1.1,0,1.7,0.1
				c0.6,0.1,1.2-0.1,1.8-0.2c0.6-0.1,1.1-0.2,1.7-0.3"/>
			
				<radialGradient id="SVGID_6_" cx="1680.8649" cy="-4020.2375" r="1.5202" gradientTransform="matrix(0.9079 -0.4193 0.2935 0.6355 -332.0052 3272.6692)" gradientUnits="userSpaceOnUse">
				<stop  offset="0" style="stop-color:#F6D2BA"/>
				<stop  offset="1" style="stop-color:#F6D2BA;stop-opacity:0"/>
			</radialGradient>
			<path fill="url(#SVGID_6_)" d="M16,13.1c-0.1-0.3-0.3-0.6-0.5-0.8s-0.6-0.3-0.9-0.1c-0.2,0.1-0.4,0.3-0.6,0.3
				c-0.2,0-0.3-0.1-0.4-0.2c-0.1-0.1-0.4-0.1-0.4,0.1c-0.1,0.1,0,0.3-0.1,0.4c-0.1,0.1-0.2,0-0.3,0c-0.1,0-0.2,0-0.3,0.1
				c-0.2,0.1-0.3,0.4-0.3,0.6s0.2,0.4,0.5,0.4c0.3-0.2,0.7-0.4,1.1-0.3c0.3,0.1,0.6,0.4,1,0.4c0.4,0,0.8-0.3,1.2-0.2
				c0.1-0.2,0.1-0.4,0-0.6"/>
			
				<radialGradient id="SVGID_8_" cx="1678.9331" cy="-4015.8811" r="0.9293" gradientTransform="matrix(-9.082771e-002 0.9959 -0.9959 -9.082771e-002 -3836.8745 -2026.0083)" gradientUnits="userSpaceOnUse">
				<stop  offset="0" style="stop-color:#F6D2BA"/>
				<stop  offset="1" style="stop-color:#F6D2BA;stop-opacity:0"/>
			</radialGradient>
			<path fill="url(#SVGID_8_)" d="M10.4,10.5c0.3-0.1,0.4-0.6,0.1-0.8c-0.2-0.1-0.5,0-0.7,0.2C9.8,10,9.8,10,9.7,10.1
				c-0.1,0.1,0,0.3,0,0.4c0,0.3-0.3,0.6-0.6,0.5c0.1,0.4,0.3,0.8,0.6,0.8c0.1,0,0.3-0.1,0.4-0.2c0.3-0.3,0.4-0.8,0.4-1.2"/>
		</g>
	</g>
</g>
</svg>
