<?xml version="1.0" encoding="utf-8"?>
<!-- Generator: Adobe Illustrator 19.1.0, SVG Export Plug-In . SVG Version: 6.00 Build 0)  -->
<svg version="1.1" id="Layer_1" xmlns="http://www.w3.org/2000/svg" xmlns:xlink="http://www.w3.org/1999/xlink" x="0px" y="0px"
	 viewBox="-281 373.7 48 46.3" style="enable-background:new -281 373.7 48 46.3;" xml:space="preserve">
<style type="text/css">
	.st0{fill:#F2F2F2;}
	.st1{clip-path:url(#SVGID_4_);}
	.st2{clip-path:url(#SVGID_7_);}
	.st3{clip-path:url(#SVGID_8_);fill:#F1F2F2;}
	.st4{clip-path:url(#SVGID_8_);fill:none;stroke:#C3D7DC;stroke-width:2.7844;stroke-miterlimit:10;}
</style>
<g>
	<g>
		<g>
			
				<image style="overflow:visible;enable-background:new    ;" width="425" height="421" xlink:href="./50DEAE63.png"  transform="matrix(0.2389 0 0 0.2377 -305.4046 346.8749)">
			</image>
		</g>
		<path class="st0" d="M-270.3,409.4c0,0.3,0.1,0.6,0.2,0.9c0.2,0,0.4,0,0.6,0C-269.8,410.1-270.1,409.8-270.3,409.4z"/>
		<g>
			
				<image style="overflow:visible;enable-background:new    ;" width="346" height="417" xlink:href="./50DEAE61.png"  transform="matrix(0.2358 0 0 0.2371 -307.2489 347.9435)">
			</image>
		</g>
	</g>
	<g>
		
			<image style="overflow:visible;enable-background:new    ;" width="342" height="383" xlink:href="./50DEAE67.png"  transform="matrix(0.2344 0 0 0.2375 -294.7871 355.5175)">
		</image>
		<g>
			<g>
				<g>
					<defs>
						<path id="SVGID_1_" d="M-277.8,401.1c-0.1,2.9-0.1,7.7,2.6,9c1.4,0.7,4.4,0.1,5.9,0.1c2.4,0,4.7,0,7.1,0.1
							c0.9,0,15.5,0.3,15.5-0.3c0-1.8,0.7-4.1,1.4-5.6c0.8-1.8,3.2-3.7,4.5-4.6c-2.4-2.2-5.5-5-8-6.8c-2.2-1.6-4.4-3-6.6-4.5
							c-3.8-2.6-7.6-3.8-11.5-5.5c-1.4-0.8-5.7-3-7.1-2.5c-2.5,0.8-2.9,6-3.1,8c-0.3,3.9-0.6,7.8-0.6,11.8
							C-277.7,400.5-277.8,400.8-277.8,401.1z"/>
					</defs>
					<clipPath id="SVGID_2_">
						<use xlink:href="#SVGID_1_"  style="overflow:visible;"/>
					</clipPath>
				</g>
			</g>
			<g>
				<g>
					<defs>
						<path id="SVGID_3_" d="M-277.8,401.1c-0.1,2.9-0.1,7.7,2.6,9c1.4,0.7,4.4,0.1,5.9,0.1c2.4,0,4.7,0,7.1,0.1
							c0.9,0,15.5,0.3,15.5-0.3c0-1.8,0.7-4.1,1.4-5.6c0.8-1.8,3.2-3.7,4.5-4.6c-2.4-2.2-5.5-5-8-6.8c-2.2-1.6-4.4-3-6.6-4.5
							c-3.8-2.6-7.6-3.8-11.5-5.5c-1.4-0.8-5.7-3-7.1-2.5c-2.5,0.8-2.9,6-3.1,8c-0.3,3.9-0.6,7.8-0.6,11.8
							C-277.7,400.5-277.8,400.8-277.8,401.1z"/>
					</defs>
					<clipPath id="SVGID_4_">
						<use xlink:href="#SVGID_3_"  style="overflow:visible;"/>
					</clipPath>
					<g class="st1">
						<g>
							<defs>
								<path id="SVGID_5_" d="M-232.4,405.1c-2.5,15.5-13,26.2-23.4,23.8c-10.4-2.3-16.9-16.7-14.4-32.2s13-26.2,23.4-23.8
									C-236.4,375.3-229.9,389.6-232.4,405.1z"/>
							</defs>
							<defs>
								<path id="SVGID_6_" d="M-232.4,405.1c-2.5,15.5-13,26.2-23.4,23.8c-10.4-2.3-16.9-16.7-14.4-32.2s13-26.2,23.4-23.8
									C-236.4,375.3-229.9,389.6-232.4,405.1z"/>
							</defs>
							<clipPath id="SVGID_7_">
								<use xlink:href="#SVGID_5_"  style="overflow:visible;"/>
							</clipPath>
							<clipPath id="SVGID_8_" class="st2">
								<use xlink:href="#SVGID_6_"  style="overflow:visible;"/>
							</clipPath>
							<path class="st3" d="M-232.4,405.1c-2.5,15.5-13,26.2-23.4,23.8c-10.4-2.3-16.9-16.7-14.4-32.2s13-26.2,23.4-23.8
								C-236.4,375.3-229.9,389.6-232.4,405.1z"/>
							<path class="st4" d="M-262.8,398.3c-1.2,7.2-3.9,12.7-6.2,12.2s-3-6.8-1.9-14c1.1-7.2,3.9-12.6,6.1-12.1
								C-262.5,384.9-261.7,391.1-262.8,398.3z"/>
						</g>
					</g>
					<g class="st1">
						<g>
							<defs>
								<path id="SVGID_9_" d="M-277.8,401.1c-0.1,2.9-0.1,7.7,2.6,9c1.4,0.7,4.4,0.1,5.9,0.1c2.4,0,4.7,0,7.1,0.1
									c0.9,0,15.5,0.3,15.5-0.3c0-1.8,0.7-4.1,1.4-5.6c0.8-1.8,3.2-3.7,4.5-4.6c-2.4-2.2-5.5-5-8-6.8c-2.2-1.6-4.4-3-6.6-4.5
									c-3.8-2.6-7.6-3.8-11.5-5.5c-1.4-0.8-5.7-3-7.1-2.5c-2.5,0.8-2.9,6-3.1,8c-0.3,3.9-0.6,7.8-0.6,11.8
									C-277.7,400.5-277.8,400.8-277.8,401.1z"/>
							</defs>
							<clipPath id="SVGID_10_">
								<use xlink:href="#SVGID_9_"  style="overflow:visible;"/>
							</clipPath>
						</g>
					</g>
				</g>
			</g>
		</g>
	</g>
</g>
</svg>
