<?xml version="1.0" encoding="utf-8"?>
<!-- Generator: Adobe Illustrator 19.1.0, SVG Export Plug-In . SVG Version: 6.00 Build 0)  -->
<svg version="1.2" baseProfile="tiny" id="Layer_1" xmlns="http://www.w3.org/2000/svg" xmlns:xlink="http://www.w3.org/1999/xlink"
	 x="0px" y="0px" viewBox="0 0 58 61" xml:space="preserve">
<g>
	<g>
		<line fill="none" stroke="#FFFFFF" stroke-width="0.3146" stroke-miterlimit="10" x1="18.9" y1="22.2" x2="41.6" y2="43.4"/>
		<line fill="none" stroke="#FFFFFF" stroke-width="0.3146" stroke-miterlimit="10" x1="16.7" y1="35.4" x2="45.5" y2="24.8"/>
		<line fill="none" stroke="#FFFFFF" stroke-width="0.3146" stroke-miterlimit="10" x1="17.6" y1="29.4" x2="41.1" y2="33.1"/>
		<line fill="none" stroke="#FFFFFF" stroke-width="0.3146" stroke-miterlimit="10" x1="26.5" y1="16" x2="30.1" y2="42.1"/>
		<line fill="none" stroke="#FFFFFF" stroke-width="0.3146" stroke-miterlimit="10" x1="35.1" y1="21.6" x2="20.6" y2="41.8"/>
		<polygon fill="none" stroke="#FFFFFF" stroke-width="0.3146" stroke-miterlimit="10" points="20.6,23.5 27,20.9 34.3,22.7 
			38.7,27.4 39.6,32.9 37.4,39 29.9,40.6 21.5,40.6 18.4,34.8 18.9,29.6 		"/>
		<polygon fill="none" stroke="#FFFFFF" stroke-width="0.3146" stroke-miterlimit="10" points="23,25.6 27.6,23.8 32.8,25 
			35.9,28.4 36.6,32.3 35,36.6 29.7,37.7 23.6,37.7 21.5,33.6 21.8,30 		"/>
		<polygon fill="none" stroke="#FFFFFF" stroke-width="0.3146" stroke-miterlimit="10" points="25.3,27.6 28.1,26.5 31.3,27.3 
			33.2,29.3 33.6,31.7 32.7,34.3 29.4,35 25.7,35 24.4,32.5 24.6,30.3 		"/>
		<polygon fill="none" stroke="#FFFFFF" stroke-width="0.3146" stroke-miterlimit="10" points="27,29.1 28.5,28.5 30.3,28.9 
			31.3,30 31.5,31.3 31,32.7 29.2,33 27.3,33 26.5,31.7 26.7,30.5 		"/>
		<polyline fill="none" stroke="#FFFFFF" stroke-width="0.3146" stroke-miterlimit="10" points="28.9,30.3 30.6,30.3 30.6,31.5 
			33.1,33.1 35.3,35.7 36.1,40.6 		"/>
		<polyline fill="none" stroke="#FFFFFF" stroke-width="0.3146" stroke-miterlimit="10" points="28.9,30.8 31,32.7 31,34.7 
			32.8,37.1 34.8,43.4 		"/>
		<polyline fill="none" stroke="#FFFFFF" stroke-width="0.3146" stroke-miterlimit="10" points="28.3,31.1 24.4,34.6 26,37.1 
			25.9,44.1 		"/>
		<polyline fill="none" stroke="#FFFFFF" stroke-width="0.3146" stroke-miterlimit="10" points="28.1,30.8 26.4,26.5 23.7,22.6 
			23.7,19.4 		"/>
	</g>
</g>
</svg>
