<?xml version="1.0" encoding="utf-8"?>
<!-- Generator: Adobe Illustrator 19.1.0, SVG Export Plug-In . SVG Version: 6.00 Build 0)  -->
<svg version="1.1" xmlns="http://www.w3.org/2000/svg" xmlns:xlink="http://www.w3.org/1999/xlink" x="0px" y="0px"
	 viewBox="0 0 35.6 33.5" enable-background="new 0 0 35.6 33.5" xml:space="preserve">
<g id="Layer_1">
	<g id="XMLID_626_">
		<g id="_x35_0_10_">
			<g id="XMLID_629_">
				
					<ellipse id="XMLID_630_" fill="#70ADB6" stroke="#FFFFFF" stroke-width="2.0647" stroke-miterlimit="10" cx="17.8" cy="16.7" rx="16.8" ry="15.7"/>
			</g>
		</g>
		<g id="XMLID_628_">
			<path fill="#FFFFFF" d="M8.7,18.2l1.1-1.5c0.8,0.7,1.7,1.1,2.6,1.1c0.6,0,1.1-0.2,1.5-0.5c0.4-0.3,0.6-0.8,0.6-1.3
				c0-0.6-0.2-1-0.5-1.3c-0.4-0.3-0.8-0.5-1.4-0.5c-0.3,0-0.6,0-0.9,0.1c-0.2,0.1-0.5,0.2-0.9,0.5l-1.1-0.7L10,8.7h6.4v2h-4.3
				l-0.2,2.2c0.5-0.2,0.9-0.3,1.4-0.3c1.1,0,1.9,0.3,2.6,0.9s1,1.4,1,2.5c0,0.8-0.2,1.4-0.6,2c-0.4,0.6-0.9,1-1.5,1.3
				s-1.3,0.5-2.1,0.5C11.1,19.7,9.8,19.2,8.7,18.2z"/>
			<path fill="#FFFFFF" d="M20.4,19.1c-0.6-0.4-1.1-1.1-1.4-1.9s-0.5-1.9-0.5-3.1c0-1.8,0.4-3.2,1.1-4.1c0.7-1,1.7-1.4,3-1.4
				c1.2,0,2.2,0.5,3,1.4c0.7,1,1.1,2.3,1.1,4.1c0,1.2-0.2,2.2-0.5,3.1s-0.8,1.5-1.4,1.9c-0.6,0.4-1.3,0.7-2.1,0.7S21,19.5,20.4,19.1
				z M23.8,17c0.3-0.6,0.5-1.6,0.5-3c0-1.4-0.2-2.4-0.5-2.9s-0.7-0.8-1.3-0.8c-0.5,0-1,0.3-1.3,0.8s-0.4,1.5-0.4,2.9
				c0,1.4,0.2,2.4,0.5,3c0.3,0.6,0.7,0.9,1.3,0.9S23.5,17.6,23.8,17z"/>
		</g>
		<g id="XMLID_627_">
			<path fill="#FFFFFF" d="M14.4,24.9c-0.3-0.3-0.4-0.8-0.4-1.4c0-0.6,0.1-1,0.4-1.4c0.3-0.3,0.7-0.5,1.1-0.5c0.5,0,0.8,0.2,1.1,0.5
				s0.4,0.8,0.4,1.4c0,0.6-0.1,1-0.4,1.4s-0.7,0.5-1.1,0.5C15.1,25.4,14.7,25.2,14.4,24.9z M16,24.4c0.1-0.2,0.2-0.5,0.2-0.9
				c0-0.4-0.1-0.7-0.2-0.9c-0.1-0.2-0.3-0.3-0.4-0.3c-0.2,0-0.3,0.1-0.5,0.3s-0.2,0.5-0.2,0.9c0,0.4,0.1,0.7,0.2,0.9
				s0.3,0.3,0.5,0.3C15.7,24.7,15.9,24.6,16,24.4z M19.1,21.8h0.8l-3.4,6.1h-0.8L19.1,21.8z M18.9,27.4c-0.3-0.3-0.4-0.8-0.4-1.4
				c0-0.6,0.1-1,0.4-1.4c0.3-0.3,0.7-0.5,1.1-0.5c0.5,0,0.8,0.2,1.1,0.5c0.3,0.3,0.4,0.8,0.4,1.4c0,0.6-0.1,1-0.4,1.4
				c-0.3,0.3-0.7,0.5-1.1,0.5C19.6,27.9,19.2,27.7,18.9,27.4z M20.5,26.9c0.1-0.2,0.2-0.5,0.2-0.9c0-0.4-0.1-0.7-0.2-0.9
				s-0.3-0.3-0.5-0.3s-0.3,0.1-0.4,0.3c-0.1,0.2-0.2,0.5-0.2,0.9c0,0.4,0.1,0.7,0.2,0.9c0.1,0.2,0.3,0.3,0.4,0.3
				S20.4,27.1,20.5,26.9z"/>
		</g>
	</g>
</g>
<g id="Layer_2">
</g>
<g id="Layer_3">
</g>
</svg>
