<?xml version="1.0" encoding="utf-8"?>
<!-- Generator: Adobe Illustrator 19.1.0, SVG Export Plug-In . SVG Version: 6.00 Build 0)  -->
<svg version="1.1" id="Layer_1" xmlns="http://www.w3.org/2000/svg" xmlns:xlink="http://www.w3.org/1999/xlink" x="0px" y="0px"
	 viewBox="0 0 219.4 385.1" style="enable-background:new 0 0 219.4 385.1;" xml:space="preserve">
<style type="text/css">
	.st0{fill:#05BCE7;}
	.st1{fill:#9ACFDA;}
	.st2{fill:url(#XMLID_8_);}
	.st3{fill:#EEB95B;}
	.st4{fill:#EEDDC4;}
	.st5{fill:none;}
</style>
<g id="XMLID_417_">
	<path id="XMLID_522_" class="st0" d="M83,105.3h-2.1H83L62.3,0.5l94.9,1l-21.3,103.8h4.5h-4.5L120,182.8c19.4,2,37.2,9.5,51.8,20.9
		l47.6-142.9L156.6,1L61.8,0L0,60.7l46.2,143.1l0.2,0.4C61,192.6,78.8,185,98.3,182.8L83,105.3z"/>
	<polygon id="XMLID_521_" class="st1" points="157.1,1.5 62.3,0.5 83,105.3 135.8,105.3 	"/>
	<linearGradient id="XMLID_8_" gradientUnits="userSpaceOnUse" x1="82.9912" y1="144.0783" x2="135.8464" y2="144.0783">
		<stop  offset="5.102041e-003" style="stop-color:#F1F2F2"/>
		<stop  offset="1" style="stop-color:#E6E7E8"/>
	</linearGradient>
	<path id="XMLID_520_" class="st2" d="M120,182.8l15.9-77.5H83l15.3,77.5c3.6-0.4,7.4-0.6,11.1-0.6C113,182.2,116.5,182.4,120,182.8
		z"/>
	<path id="XMLID_5_" class="st3" d="M171.8,203.6c-14.6-11.4-32.4-18.9-51.8-20.9c-3.5-0.4-7-0.5-10.5-0.5c-3.8,0-7.5,0.2-11.1,0.6
		c-19.5,2.1-37.4,9.8-51.9,21.4C23,222.8,8,251.5,8,283.7c0,56,45.4,101.4,101.4,101.4c56,0,101.4-45.4,101.4-101.4
		C210.9,251.1,195.6,222.2,171.8,203.6z M109.4,355c-39.4,0-71.4-32-71.4-71.4c0-20.7,8.8-39.4,22.9-52.4
		c11.5-10.7,26.6-17.6,43.2-18.8c1.7-0.1,3.5-0.2,5.2-0.2c1.5,0,3,0.1,4.4,0.2c16.6,1,31.7,7.7,43.4,18.2c14.5,13.1,23.6,32,23.6,53
		C180.8,323.1,148.9,355,109.4,355z"/>
	<path id="XMLID_2_" class="st4" d="M157.3,230.6c-11.6-10.5-26.7-17.2-43.4-18.2c-1.5-0.1-2.9-0.2-4.4-0.2c-1.8,0-3.5,0.1-5.2,0.2
		c-16.6,1.2-31.7,8.1-43.2,18.8c-14.1,13-22.9,31.7-22.9,52.4c0,39.4,32,71.4,71.4,71.4s71.4-32,71.4-71.4
		C180.8,262.6,171.7,243.7,157.3,230.6z"/>
</g>
</svg>
