<?xml version="1.0" encoding="utf-8"?>
<!-- Generator: Adobe Illustrator 19.1.0, SVG Export Plug-In . SVG Version: 6.00 Build 0)  -->
<svg version="1.1" xmlns="http://www.w3.org/2000/svg" xmlns:xlink="http://www.w3.org/1999/xlink" x="0px" y="0px"
	 viewBox="0 0 128.6 128.6" style="enable-background:new 0 0 128.6 128.6;" xml:space="preserve">
<style type="text/css">
	.st0{opacity:0.65;fill:#C3D7DC;}
	.st1{fill:#C3D7DC;}
	.st2{opacity:0.4;}
	.st3{fill:#FFFFFF;}
	.st4{fill:none;stroke:#FFFFFF;stroke-width:10;stroke-miterlimit:10;}
	.st5{fill:none;}
	.st6{opacity:0.65;}
	.st7{fill:none;stroke:#FFFFFF;stroke-width:2;stroke-miterlimit:10;}
	.st8{fill:#FFFFFF;stroke:#FFFFFF;stroke-width:2;stroke-miterlimit:10;}
	.st9{fill:#FFFFFF;stroke:#FFFFFF;stroke-miterlimit:10;}
	.st10{fill:none;stroke:#FFFFFF;stroke-width:1.9932;stroke-linecap:round;stroke-linejoin:round;stroke-miterlimit:10;}
	.st11{fill:none;stroke:#C3D7DC;stroke-miterlimit:10;}
</style>
<g id="Layer_1">
	<g id="XMLID_202_">
		<g id="XMLID_383_">
			<polygon id="XMLID_391_" class="st0" points="113.3,116.3 100.7,128.6 0.4,128.6 0.4,0.3 128.7,0.3 128.7,101.3 			"/>
			<path id="XMLID_390_" class="st1" d="M100.7,130.1c0,0,27.9-27.4,27.9-27.3s-27.8-2-34.1-5.1C94.6,97.7,101.8,122,100.7,130.1z"
				/>
		</g>
	</g>
	<g id="XMLID_1373_" class="st2">
		<path id="XMLID_757_" class="st3" d="M72.5,47.4c7.3-5.7,11.5-6.4,16.2-2.6c4.9,3.9,7.3,13.2,3,18.8c-4.7,6.2-11.2,11-17.1,16.1
			c-0.9,0.8-3.6,0.6-4.7-0.2c-5.7-4.1-11.1-8.5-17.5-13.6c10.2-5.5,15.4-12.2,11.5-24.2C67.5,44.3,69.8,45.7,72.5,47.4z"/>
		<path id="XMLID_756_" class="st3" d="M48.8,21.8c4.4,6.9,7.8,12.2,11.5,18.1c-10.7,4.5-12.6,12.8-10.9,22.5
			c-10.3-0.2-16.7-7.9-13.2-17C39.2,37.6,44.1,30.4,48.8,21.8z"/>
		<path id="XMLID_755_" class="st3" d="M52.1,62c-2-11.5,0.3-16.4,8.9-19C65.3,52.2,62,59.5,52.1,62z"/>
	</g>
</g>
<g id="Layer_2">
</g>
<g id="Layer_3">
</g>
<g id="Layer_4">
</g>
<g id="Layer_5">
</g>
<g id="Layer_6">
</g>
<g id="Layer_7">
</g>
<g id="Layer_8">
</g>
<g id="Layer_9">
</g>
<g id="Layer_10">
</g>
<g id="Layer_11">
</g>
<g id="Layer_12">
</g>
<g id="Layer_13">
</g>
<g id="Layer_14">
</g>
</svg>
