<?xml version="1.0" encoding="utf-8"?>
<!-- Generator: Adobe Illustrator 23.0.0, SVG Export Plug-In . SVG Version: 6.00 Build 0)  -->
<svg version="1.1" id="Layer_1" xmlns="http://www.w3.org/2000/svg" xmlns:xlink="http://www.w3.org/1999/xlink" x="0px" y="0px"
	 viewBox="0 0 87.5 28.5" enable-background="new 0 0 87.5 28.5" xml:space="preserve">
<g>
	<g>
		
			<rect x="0.38" y="0.38" fill="#EE978F" stroke="#EE978F" stroke-width="0.75" stroke-miterlimit="10" width="86.75" height="3.13"/>
		<rect x="0.38" y="25" fill="#EE978F" stroke="#EE978F" stroke-width="0.75" stroke-miterlimit="10" width="86.75" height="3.13"/>
		<rect y="3.94" fill="#EDC7C3" width="87.5" height="20.69"/>
		<rect y="25.38" fill="#EE978F" width="2.05" height="2.38"/>
		<rect x="85.45" y="25.38" fill="#EE978F" width="2.05" height="2.38"/>
		<rect y="0.75" fill="#EE978F" width="2.05" height="2.38"/>
		<rect x="85.45" y="0.75" fill="#EE978F" width="2.05" height="2.38"/>
	</g>
	<g>
		
			<ellipse transform="matrix(0.2078 -0.9782 0.9782 0.2078 4.7339 26.5812)" fill="#AF2027" cx="18.78" cy="10.37" rx="1.81" ry="2.31"/>
		<path fill="#8E1B26" d="M17.98,10.12c-0.2-0.02-0.38-0.07-0.55-0.13c0.03,0.4,0.57,0.78,1.28,0.86c0.76,0.09,1.43-0.19,1.48-0.62
			c0.04-0.3-0.22-0.59-0.63-0.77C19.45,9.91,18.77,10.21,17.98,10.12z"/>
	</g>
	<g>
		
			<ellipse transform="matrix(0.9758 -0.2186 0.2186 0.9758 -2.3297 8.7799)" fill="#AF2027" cx="38.52" cy="14.92" rx="2.31" ry="1.81"/>
		<path fill="#8E1B26" d="M37.69,15.02c-0.19,0.06-0.38,0.09-0.56,0.11c0.2,0.35,0.84,0.47,1.53,0.25c0.73-0.23,1.22-0.76,1.09-1.18
			c-0.09-0.28-0.45-0.44-0.9-0.44C38.94,14.23,38.44,14.78,37.69,15.02z"/>
	</g>
	<g>
		
			<ellipse transform="matrix(0.2078 -0.9782 0.9782 0.2078 25.0793 46.5563)" fill="#AF2027" cx="41.28" cy="7.8" rx="1.81" ry="2.31"/>
		<path fill="#8E1B26" d="M40.49,7.54c-0.2-0.02-0.38-0.07-0.55-0.13c0.03,0.4,0.57,0.78,1.28,0.86c0.76,0.09,1.43-0.19,1.48-0.62
			c0.04-0.3-0.22-0.59-0.63-0.77C41.95,7.34,41.27,7.64,40.49,7.54z"/>
	</g>
	<g>
		
			<ellipse transform="matrix(0.2078 -0.9782 0.9782 0.2078 22.1786 66.4132)" fill="#AF2027" cx="52.09" cy="19.51" rx="1.81" ry="2.31"/>
		<path fill="#8E1B26" d="M51.55,19.47c-0.2-0.02-0.38-0.07-0.55-0.13c0.03,0.4,0.57,0.78,1.28,0.86c0.76,0.09,1.43-0.19,1.48-0.62
			c0.04-0.3-0.22-0.59-0.63-0.77C53.01,19.27,52.33,19.57,51.55,19.47z"/>
	</g>
	<g>
		
			<ellipse transform="matrix(0.2078 -0.9782 0.9782 0.2078 58.7274 89.5121)" fill="#AF2027" cx="84.63" cy="8.5" rx="1.81" ry="2.31"/>
		<path fill="#8E1B26" d="M84.08,8.46c-0.2-0.02-0.38-0.07-0.55-0.13c0.03,0.4,0.57,0.78,1.28,0.86c0.76,0.09,1.43-0.19,1.48-0.62
			c0.04-0.3-0.22-0.59-0.63-0.77C85.55,8.26,84.86,8.55,84.08,8.46z"/>
	</g>
	<g>
		
			<ellipse transform="matrix(0.9496 -0.3135 0.3135 0.9496 -2.3339 2.4858)" fill="#AF2027" cx="6.56" cy="8.5" rx="2.31" ry="1.81"/>
		<path fill="#8E1B26" d="M5.87,8.73C5.69,8.82,5.51,8.88,5.34,8.92c0.25,0.32,0.91,0.33,1.55,0.01C7.57,8.59,7.97,7.99,7.78,7.6
			C7.64,7.33,7.27,7.23,6.82,7.3C6.98,7.75,6.58,8.37,5.87,8.73z"/>
	</g>
	<g>
		
			<ellipse transform="matrix(0.9225 -0.3861 0.3861 0.9225 -7.2017 3.1711)" fill="#AF2027" cx="4.29" cy="19.51" rx="2.31" ry="1.81"/>
		<path fill="#8E1B26" d="M3.58,19.64c-0.18,0.09-0.36,0.15-0.53,0.19c0.25,0.32,0.91,0.33,1.55,0.01c0.69-0.34,1.09-0.94,0.89-1.33
			c-0.13-0.27-0.51-0.37-0.95-0.29C4.7,18.66,4.29,19.28,3.58,19.64z"/>
	</g>
	<g>
		
			<ellipse transform="matrix(0.9225 -0.3861 0.3861 0.9225 -5.694 11.5346)" fill="#AF2027" cx="25.87" cy="19.94" rx="2.31" ry="1.81"/>
		<path fill="#8E1B26" d="M25.16,20.09c-0.18,0.09-0.36,0.15-0.53,0.19c0.25,0.32,0.91,0.33,1.55,0.01
			c0.69-0.34,1.09-0.94,0.89-1.33c-0.13-0.27-0.51-0.37-0.95-0.29C26.27,19.11,25.87,19.74,25.16,20.09z"/>
	</g>
	<g>
		
			<ellipse transform="matrix(0.9225 -0.3861 0.3861 0.9225 0.4331 23.5484)" fill="#AF2027" cx="58.84" cy="10.7" rx="2.31" ry="1.81"/>
		<path fill="#8E1B26" d="M58.13,10.84c-0.18,0.09-0.36,0.15-0.53,0.19c0.25,0.32,0.91,0.33,1.55,0.01
			c0.69-0.34,1.09-0.94,0.89-1.33c-0.13-0.27-0.51-0.37-0.95-0.29C59.24,9.87,58.84,10.49,58.13,10.84z"/>
	</g>
	<g>
		
			<ellipse transform="matrix(0.9225 -0.3861 0.3861 0.9225 -1.9774 32.64)" fill="#AF2027" cx="80.27" cy="21.24" rx="2.31" ry="1.81"/>
		<path fill="#8E1B26" d="M79.56,21.39c-0.18,0.09-0.36,0.15-0.53,0.19c0.25,0.32,0.91,0.33,1.55,0.01
			c0.69-0.34,1.09-0.94,0.89-1.33c-0.13-0.27-0.51-0.37-0.95-0.29C80.67,20.41,80.27,21.04,79.56,21.39z"/>
	</g>
	<g>
		
			<ellipse transform="matrix(0.2378 -0.9713 0.9713 0.2378 40.2369 78.9424)" fill="#AF2027" cx="70.42" cy="13.83" rx="1.81" ry="2.31"/>
		<path fill="#8E1B26" d="M69.76,13.53c-0.2-0.03-0.38-0.09-0.54-0.16c0.01,0.4,0.53,0.81,1.24,0.93c0.76,0.13,1.43-0.11,1.51-0.54
			c0.05-0.29-0.19-0.6-0.59-0.8C71.23,13.41,70.54,13.67,69.76,13.53z"/>
	</g>
</g>
</svg>
