<?xml version="1.0" encoding="utf-8"?>
<!-- Generator: Adobe Illustrator 23.0.0, SVG Export Plug-In . SVG Version: 6.00 Build 0)  -->
<svg version="1.1" id="Layer_1" xmlns="http://www.w3.org/2000/svg" xmlns:xlink="http://www.w3.org/1999/xlink" x="0px" y="0px"
	 viewBox="0 0 62.52 55.86" enable-background="new 0 0 62.52 55.86" xml:space="preserve">
<g>
	<g>
		<path fill="#EDC7C3" d="M3.89,25.74c1.98,1.72,4.44,2.65,6.91,3.42c1.26,0.39,4.39,0.15,5.3,1.02c1.19,1.13,0.31,3.51,1.46,5.1
			c1.63,2.24,7.26,1.66,9.81,1.89c4.79,0.43,3.23,0.56,3.79,4.72c0.18,1.33,0.91,2.67,2.14,3.2c0.38,0.16,0.8,0.25,1.14,0.49
			c0.38,0.27,0.61,0.69,0.83,1.1c0.81,1.52,2.16,3.26,2.64,4.91c0.59,2.01-0.51,4.08,2.3,4.24c1.73,0.09,2.84-1.36,3.06-2.87
			c0.2-1.4,0.41-2.8,0.61-4.21c2.58-0.07,6.37-0.52,8.18-2.57c1.33-1.51,1.93-3.63,1.58-5.61c5.93-0.44,9.3-11.13,8.75-15.92
			C61.5,17.01,56.07,8.9,49.75,4.8c-7.21-4.68-18.1-5.45-26.34-4.24C16.43,1.58,7.86,3.84,3.17,9.47
			c-3.6,4.33-4.58,10.77-0.38,15.23C3.14,25.06,3.5,25.41,3.89,25.74z"/>
		<path fill="#EE978F" d="M3.91,25.71c1.97,1.75,4.49,2.73,6.99,3.48c1.28,0.28,2.62,0.21,3.91,0.47c0.63,0.11,1.33,0.35,1.63,0.97
			c0.31,0.59,0.35,1.26,0.41,1.91c0.05,0.65,0.09,1.32,0.31,1.94c0.2,0.63,0.63,1.17,1.19,1.52c1.14,0.67,2.48,0.86,3.78,0.98
			c1.31,0.11,2.62,0.11,3.93,0.13c0.66,0.01,1.31,0.05,1.96,0.12c0.65,0.07,1.31,0.12,1.94,0.29c0.31,0.08,0.64,0.22,0.82,0.5
			c0.17,0.28,0.2,0.62,0.21,0.95c0.02,0.66,0.01,1.31,0.07,1.97c0.05,1.29,0.39,2.67,1.38,3.58c0.24,0.22,0.51,0.41,0.81,0.55
			c0.3,0.14,0.62,0.21,0.92,0.35c0.63,0.27,0.93,0.92,1.25,1.48c0.65,1.14,1.42,2.21,2.02,3.38c0.29,0.59,0.56,1.2,0.66,1.86
			c0.11,0.66,0.1,1.32,0.18,1.96c0.06,0.64,0.38,1.24,1,1.4c0.58,0.19,1.26,0.21,1.83,0.02c0.58-0.19,1.06-0.62,1.38-1.14
			c0.33-0.53,0.47-1.12,0.52-1.76l0.41-3.92l0-0.02l0.05-0.38l0.4-0.01c1.21-0.04,2.42-0.16,3.59-0.4c1.17-0.24,2.31-0.62,3.26-1.24
			c0.95-0.6,1.62-1.56,2.04-2.62c0.41-1.06,0.54-2.23,0.34-3.34l0-0.03L53,40.07L53.6,40c1.03-0.13,2-0.59,2.83-1.26
			c0.83-0.68,1.53-1.55,2.16-2.46c1.2-1.88,2.04-4.02,2.59-6.22c0.27-1.1,0.45-2.22,0.55-3.33c0.1-1.12,0-2.18-0.19-3.31
			c-0.39-2.23-1.15-4.4-2.13-6.46c-1.97-4.11-4.86-7.84-8.44-10.66c-3.58-2.85-8.07-4.37-12.58-5.19c-4.54-0.8-9.22-0.9-13.82-0.38
			c-4.59,0.56-9.18,1.52-13.44,3.33C9.02,4.99,7,6.15,5.23,7.64c-1.75,1.5-3.22,3.35-4.11,5.48c-0.88,2.13-1.24,4.51-0.76,6.78
			c0.24,1.13,0.68,2.22,1.29,3.2C2.22,24.1,3.08,24.91,3.91,25.71z M3.86,25.77c-0.84-0.8-1.71-1.6-2.31-2.62
			c-0.62-0.99-1.07-2.08-1.32-3.23c-0.5-2.3-0.15-4.71,0.72-6.87C1.84,10.88,3.32,9,5.08,7.47c1.78-1.51,3.82-2.7,5.94-3.65
			c4.29-1.86,8.89-2.86,13.51-3.45c4.63-0.55,9.34-0.48,13.94,0.29c4.57,0.79,9.15,2.3,12.85,5.2c3.69,2.87,6.65,6.63,8.7,10.82
			c1.02,2.1,1.81,4.32,2.23,6.62c0.21,1.15,0.32,2.32,0.22,3.49c-0.09,1.17-0.3,2.32-0.57,3.46c-0.58,2.26-1.45,4.46-2.71,6.43
			c-0.67,0.96-1.4,1.89-2.33,2.61c-0.93,0.71-2.03,1.22-3.22,1.34l0.06-0.08l0,0.03c0.21,1.23,0.06,2.51-0.4,3.67
			c-0.47,1.14-1.22,2.22-2.29,2.88c-1.05,0.68-2.26,1.05-3.47,1.3c-1.21,0.24-2.45,0.35-3.68,0.39l0.06-0.05l0,0.02l-0.57,3.9
			c-0.11,1.29-0.87,2.66-2.19,3.07c-0.64,0.19-1.33,0.14-1.96-0.07c-0.32-0.1-0.6-0.32-0.78-0.6c-0.18-0.29-0.25-0.62-0.29-0.95
			c-0.07-0.66-0.04-1.32-0.15-1.96c-0.1-0.65-0.35-1.26-0.63-1.85c-0.58-1.18-1.34-2.25-1.98-3.4c-0.31-0.56-0.6-1.22-1.23-1.49
			c-0.6-0.24-1.26-0.42-1.73-0.9c-0.99-0.91-1.33-2.28-1.38-3.58c-0.06-0.65-0.05-1.31-0.07-1.97c-0.01-0.32-0.04-0.67-0.21-0.95
			c-0.18-0.28-0.5-0.42-0.82-0.5c-0.63-0.17-1.29-0.22-1.94-0.29c-0.65-0.07-1.31-0.11-1.96-0.12c-1.31-0.02-2.63-0.02-3.93-0.13
			c-1.3-0.13-2.64-0.31-3.78-0.98c-0.56-0.35-0.99-0.89-1.19-1.52c-0.22-0.62-0.26-1.29-0.31-1.94c-0.05-0.65-0.1-1.32-0.41-1.91
			c-0.3-0.62-1-0.85-1.63-0.97c-1.29-0.25-2.62-0.19-3.91-0.47C8.41,28.42,5.88,27.49,3.86,25.77z"/>
	</g>
	<g>
		<g>
			<path fill="#EE978F" d="M31.78,37.52c-0.17-0.01-0.23-0.22-0.19-0.36c0.03-0.16,0.2-0.26,0.35-0.28
				c0.32-0.03,0.61,0.07,0.91,0.12c0.59,0.13,1.18,0.29,1.75,0.48c0.58,0.19,1.15,0.4,1.7,0.65c0.54,0.25,1.16,0.48,1.57,1.03
				c0.41,0.58,0.37,1.28,0.37,1.86l-0.02,1.81c-0.03,0.6,0.05,1.2-0.13,1.87c-0.16,0.65-0.87,1.36-1.74,1.05l0.41-0.25l-0.05,0.85
				l-0.16-0.3c0.12,0.05,0.2,0.05,0.32,0c0.12-0.05,0.26-0.18,0.39-0.31c0.27-0.27,0.52-0.61,0.87-0.91
				c0.17-0.15,0.39-0.3,0.66-0.37c0.27-0.08,0.58-0.04,0.84,0.1c0.53,0.33,0.64,0.84,0.77,1.23c0.12,0.42,0.21,0.77,0.4,1.07
				c0.18,0.3,0.45,0.55,0.76,0.75c0.63,0.4,1.41,0.59,2.19,0.68c0.78,0.09,1.6,0.1,2.41,0.08c0.8-0.02,1.59-0.11,2.33-0.34
				c1.5-0.43,2.58-1.68,3.18-3.15c0.31-0.73,0.53-1.51,0.7-2.3c0.08-0.39,0.19-0.82,0.19-1.14c0-0.32-0.17-0.55-0.46-0.77
				c-1.28-0.81-3-0.89-4.61-0.88c-3.3,0.07-6.63-0.34-9.8-1.23l-0.16-0.05h0.17l0.72,0l-0.71,0.05l0-0.05
				c3.22,0.71,6.5,0.95,9.78,0.8c1.63-0.04,3.39-0.08,4.97,0.85c0.39,0.23,0.76,0.74,0.75,1.26c0,0.5-0.12,0.88-0.19,1.29
				c-0.17,0.82-0.39,1.63-0.71,2.42c-0.32,0.79-0.76,1.55-1.36,2.19c-0.6,0.64-1.39,1.12-2.22,1.39c-0.83,0.27-1.69,0.37-2.53,0.4
				c-0.84,0.01-1.67,0-2.52-0.11c-0.84-0.11-1.7-0.32-2.47-0.81c-0.38-0.25-0.73-0.58-0.97-0.98c-0.25-0.41-0.35-0.86-0.46-1.24
				c-0.1-0.38-0.25-0.73-0.45-0.84c-0.21-0.11-0.47-0.05-0.75,0.2c-0.28,0.23-0.53,0.56-0.84,0.87c-0.16,0.15-0.33,0.32-0.59,0.43
				c-0.25,0.13-0.62,0.11-0.87-0.03l-0.18-0.1l0.02-0.19l0.08-0.85l0.04-0.43l0.37,0.18c0.33,0.16,0.87-0.18,0.99-0.67
				c0.16-0.5,0.12-1.13,0.16-1.73l0.07-1.81c0.03-0.6,0.06-1.2-0.25-1.64c-0.3-0.45-0.85-0.72-1.39-0.98
				c-0.54-0.27-1.09-0.51-1.65-0.72c-0.56-0.21-1.13-0.4-1.71-0.56c-0.29-0.07-0.58-0.19-0.87-0.18c-0.14,0.01-0.29,0.08-0.33,0.23
				C31.57,37.3,31.61,37.5,31.78,37.52z"/>
		</g>
		<g>
			<path fill="#EE978F" d="M16.71,29.82c-0.29-1.25-0.58-2.52-0.56-3.82c0.02-1.29,0.41-2.64,1.33-3.63
				c0.91-1.04,2.41-1.33,3.7-1.18c1.31,0.12,2.56,0.51,3.8,0.64c2.5,0.29,4.94-0.7,7.2-1.82c2.27-1.14,4.53-2.51,7.13-3.1
				c1.29-0.28,2.66-0.39,3.99-0.02c1.32,0.37,2.5,1.14,3.37,2.19c0.88,1.02,1.39,2.48,1.09,3.87c-0.14,0.7-0.44,1.27-0.64,1.86
				c-0.2,0.57-0.35,1.19-0.12,1.61c0.2,0.46,0.82,0.53,1.46,0.93c0.61,0.38,1.04,0.99,1.29,1.63c0.49,1.28,0.33,2.87-0.69,3.87
				c-1.03,0.99-2.42,1.14-3.54,1.65c-0.56,0.24-1.07,0.62-1.44,1.11c-0.37,0.48-0.56,1.11-0.33,1.68l-0.19-0.03l0.55-0.55l0.12-0.13
				l0.04,0.15c0.12,0.46-0.08,0.81-0.22,1.17c-0.16,0.35-0.36,0.68-0.59,0.99c-0.12,0.15-0.25,0.3-0.43,0.4
				c-0.18,0.09-0.38,0.1-0.57,0.08c-0.38-0.06-0.73-0.32-0.87-0.67c0.15,0.35,0.51,0.58,0.87,0.63c0.18,0.02,0.38-0.01,0.53-0.09
				c0.15-0.09,0.27-0.24,0.38-0.39c0.21-0.31,0.39-0.64,0.53-0.99c0.13-0.33,0.27-0.74,0.18-1.02l0.16,0.03l-0.52,0.58l-0.12,0.13
				l-0.08-0.16c-0.3-0.64-0.1-1.41,0.28-1.95c0.38-0.56,0.92-1,1.54-1.28c1.19-0.55,2.52-0.77,3.36-1.64
				c0.83-0.84,0.95-2.24,0.5-3.32c-0.23-0.54-0.59-1.03-1.09-1.32c-0.24-0.15-0.51-0.25-0.84-0.39c-0.32-0.14-0.67-0.41-0.86-0.76
				c-0.38-0.77-0.12-1.52,0.07-2.13c0.21-0.62,0.49-1.21,0.6-1.78c0.24-1.15-0.19-2.37-0.97-3.28c-0.78-0.92-1.85-1.61-3.01-1.92
				c-1.15-0.31-2.44-0.24-3.64,0.01c-2.45,0.53-4.68,1.84-6.99,2.99c-1.16,0.57-2.36,1.1-3.63,1.45c-1.27,0.35-2.61,0.5-3.93,0.31
				c-1.31-0.18-2.53-0.59-3.78-0.74c-1.23-0.18-2.53,0.07-3.41,0.97c-0.88,0.87-1.33,2.14-1.4,3.4
				C16.24,27.28,16.48,28.56,16.71,29.82z"/>
		</g>
		<g>
			<path fill="#EE978F" d="M47.76,22.3c0.57-0.47,0.85-1.14,1.02-1.83c0.2-0.69,0.29-1.4,0.63-2.13c0.35-0.69,0.9-1.33,1.74-1.61
				c0.41-0.14,0.94-0.09,1.33,0.17c0.4,0.25,0.63,0.63,0.81,0.96c0.35,0.66,0.58,1.44,1,1.55c0.39,0.17,1.06-0.33,1.56-0.76
				c0.53-0.45,1.03-0.99,1.6-1.47c0.55-0.49,1.29-0.87,2.05-0.88l0.07,0l0.01,0.06c0.07,0.34-0.08,0.7-0.35,0.87
				c0.22-0.23,0.28-0.57,0.18-0.83l0.09,0.06c-1.43,0.27-2.19,1.61-3.23,2.65c-0.27,0.26-0.56,0.51-0.9,0.72
				c-0.31,0.21-0.82,0.43-1.31,0.26c-0.52-0.16-0.78-0.59-0.96-0.92c-0.19-0.35-0.32-0.68-0.47-0.98c-0.29-0.62-0.74-0.96-1.3-0.81
				c-0.56,0.15-1.09,0.65-1.44,1.21c-0.33,0.56-0.5,1.3-0.78,1.98C48.83,21.26,48.43,21.97,47.76,22.3z"/>
		</g>
		<g>
			<path fill="#EE978F" d="M41.16,16.63c-2.05,0.72-4.57-0.08-5.9-1.94c-0.66-0.9-1.03-2.15-0.64-3.32c0.4-1.17,1.4-1.92,2.38-2.43
				c1.01-0.5,2.06-0.75,3.02-1.16c0.96-0.39,1.8-0.97,2.32-1.83c0.53-0.85,0.88-1.98,1.79-2.72c0.44-0.35,1.06-0.57,1.62-0.42
				c0.54,0.12,1.06,0.56,1.08,1.12c-0.1-0.55-0.63-0.86-1.11-0.92c-0.51-0.08-0.98,0.16-1.34,0.5c-0.75,0.69-1.01,1.74-1.53,2.73
				c-0.51,1.05-1.55,1.74-2.55,2.17c-1.01,0.45-2.05,0.73-2.95,1.2c-0.91,0.45-1.75,1.09-2.07,1.98c-0.33,0.89-0.05,1.93,0.47,2.77
				C36.82,16.08,39.06,17.04,41.16,16.63z"/>
		</g>
		<g>
			<path fill="#EE978F" d="M15.23,26.44c-0.49-0.9-1.34-1.53-2.27-1.9c-0.93-0.39-1.92-0.6-2.91-0.82
				c-0.98-0.23-1.98-0.44-2.92-0.85c-0.94-0.4-1.8-0.97-2.55-1.66c-1.51-1.37-2.6-3.23-2.96-5.26c-0.37-2.03-0.03-4.16,0.9-6
				c0.23-0.46,0.51-0.9,0.81-1.31c0.33-0.4,0.6-0.84,1.12-1.13C5.01,7.2,5.68,7.36,6.11,7.7c0.45,0.33,0.77,0.84,0.88,1.37
				c0.24,1.07-0.04,2.09,0.03,3.06c0.04,0.98,0.21,1.96,0.58,2.88c1.38,3.68,5.03,6.55,8.99,6.58l-0.24,0.15
				c0.47-0.95,0.54-2.05,0.37-3.11c-0.17-1.07-0.55-2.1-1.04-3.08c-0.96-1.97-2.32-3.84-2.81-6.14c-0.26-1.14-0.17-2.37,0.26-3.47
				c0.41-1.09,1.21-2.13,2.39-2.57c0.57-0.21,1.22-0.31,1.86-0.11c0.66,0.17,1.17,0.82,1.28,1.44c0.14,0.62,0.1,1.21,0.09,1.76
				L18.7,8.14c-0.08,2.23-0.15,4.45,0.17,6.62c0.16,1.08,0.42,2.14,0.82,3.14c0.2,0.5,0.44,0.98,0.72,1.44
				c0.28,0.46,0.58,0.92,0.95,1.24c0.36,0.34,0.8,0.51,1.26,0.46c0.46-0.04,0.91-0.28,1.27-0.62c0.74-0.67,0.97-1.76,1.02-2.82
				c0.01-2.19-0.08-4.45-0.11-6.68l-0.12-6.71c0.02-0.57,0.08-1.17,0.31-1.74c0.23-0.58,0.64-1.08,1.2-1.39
				c0.55-0.33,1.31-0.34,1.88,0c0.58,0.36,0.88,0.97,1.01,1.54c0.3,1.17,0.09,2.34-0.05,3.43l-0.43,3.32
				c-0.24,2.2-0.79,4.46-0.14,6.53c0.17,0.5,0.41,0.99,0.75,1.38c0.34,0.38,0.79,0.66,1.29,0.83c0.97,0.33,2.21,0.23,2.85-0.54
				c0.32-0.38,0.42-0.91,0.37-1.41c-0.07-0.51-0.3-1-0.59-1.46c-0.56-0.93-1.36-1.77-1.78-2.87c-0.83-2.18-0.16-4.8,1.61-6.31
				c0.86-0.77,2.09-1.02,2.52-2.05c0.23-0.49,0.36-1.03,0.57-1.56c0.11-0.26,0.23-0.53,0.43-0.76c0.19-0.23,0.49-0.39,0.79-0.41
				l0.01,0l0.01,0c0.47,0.04,0.97,0.13,1.38,0.42c0.43,0.28,0.6,0.82,0.59,1.29c-0.04,0.97-0.49,1.84-0.93,2.66
				c-0.45,0.82-0.97,1.61-1.51,2.38C36.27,8.28,35.66,9,35.25,9.84c0.4-0.85,1-1.58,1.5-2.37c0.52-0.78,1.02-1.57,1.46-2.4
				c0.42-0.82,0.84-1.7,0.87-2.62c0-0.45-0.15-0.91-0.54-1.15c-0.37-0.25-0.83-0.33-1.29-0.36l0.02,0C36.73,0.98,36.42,1.49,36.24,2
				c-0.19,0.51-0.31,1.06-0.55,1.59C35.47,4.13,35,4.56,34.51,4.85c-0.49,0.3-0.96,0.56-1.37,0.92c-1.62,1.44-2.22,3.92-1.44,5.93
				c0.38,1,1.16,1.83,1.76,2.79c0.3,0.48,0.57,1.02,0.66,1.62c0.07,0.6-0.05,1.25-0.45,1.74c-0.84,0.98-2.24,1.06-3.34,0.7
				c-0.56-0.19-1.09-0.5-1.5-0.95c-0.4-0.46-0.66-0.98-0.85-1.54c-0.37-1.11-0.38-2.29-0.3-3.41c0.09-1.13,0.25-2.23,0.38-3.34
				l0.41-3.32c0.14-1.11,0.31-2.2,0.04-3.22c-0.12-0.5-0.37-0.96-0.76-1.19c-0.4-0.22-0.9-0.22-1.31,0.02
				c-0.89,0.48-1.19,1.58-1.19,2.65l0.16,6.68c0.05,2.24,0.15,4.44,0.15,6.72c-0.04,1.12-0.27,2.43-1.21,3.31
				c-0.45,0.42-1.03,0.75-1.69,0.81c-0.66,0.08-1.35-0.21-1.8-0.63c-1.67-1.75-2.42-4.01-2.74-6.26c-0.32-2.26-0.22-4.52-0.13-6.75
				l0.06-1.67c0.02-0.56,0.05-1.1-0.06-1.58c-0.11-0.48-0.38-0.82-0.82-0.96C16.74,3.76,16.22,3.83,15.75,4
				c-0.95,0.34-1.65,1.21-2.03,2.18c-0.38,0.98-0.48,2.07-0.25,3.11c0.44,2.13,1.74,3.98,2.73,6.01c0.49,1.02,0.89,2.11,1.07,3.25
				c0.18,1.14,0.09,2.37-0.44,3.43l-0.08,0.15l-0.17,0c-4.22-0.07-8-3.1-9.42-6.96c-0.38-0.96-0.56-2-0.59-3.03
				c-0.06-1.04,0.21-2.05-0.01-2.98C6.48,8.71,6.22,8.31,5.86,8.04C5.5,7.76,5.03,7.66,4.66,7.86c-0.38,0.2-0.68,0.63-0.99,1.01
				c-0.29,0.4-0.56,0.81-0.79,1.25c-0.9,1.76-1.26,3.81-0.94,5.77c0.31,1.96,1.33,3.79,2.79,5.16c0.73,0.68,1.56,1.26,2.48,1.67
				c0.91,0.43,1.9,0.65,2.88,0.9c0.98,0.24,1.97,0.47,2.9,0.88C13.91,24.89,14.76,25.54,15.23,26.44z"/>
		</g>
		<g>
			<path fill="#EE978F" d="M39.55,16.79c-0.6-1.33-0.87-2.9-0.37-4.37c0.5-1.46,2.01-2.57,3.65-2.46c0.41,0.03,0.81,0.16,1.17,0.37
				c0.35,0.21,0.62,0.47,0.9,0.63c0.52,0.33,1.2,0.27,1.78-0.03c0.58-0.29,1.02-0.82,1.37-1.42c0.36-0.61,0.59-1.27,0.97-1.98
				c0.2-0.34,0.47-0.7,0.9-0.93c0.42-0.22,0.96-0.22,1.37-0.04c0.82,0.38,1.27,1.06,1.68,1.69c0.2,0.32,0.41,0.67,0.49,1.12
				c0.1,0.45-0.07,0.97-0.34,1.29c-0.55,0.64-1.11,1.01-1.64,1.54c-1.06,0.99-2.05,2.07-2.96,3.21c-0.46,0.56-0.91,1.15-1.33,1.75
				c-0.2,0.29-0.34,0.63-0.39,0.98c-0.06,0.33,0.04,0.78,0.44,0.84c-0.41-0.01-0.59-0.49-0.56-0.85c0.02-0.38,0.14-0.75,0.33-1.08
				c0.38-0.63,0.78-1.25,1.2-1.86c0.86-1.2,1.82-2.34,2.85-3.4l0.79-0.78c0.27-0.26,0.55-0.49,0.74-0.74
				c0.41-0.48,0.19-1.04-0.21-1.65c-0.38-0.58-0.84-1.16-1.38-1.39C50.48,7,49.98,7.31,49.67,7.91c-0.64,1.17-1.14,2.86-2.68,3.63
				c-0.71,0.37-1.69,0.45-2.43-0.03c-0.35-0.22-0.62-0.48-0.89-0.65c-0.27-0.17-0.58-0.29-0.9-0.33c-1.32-0.16-2.74,0.72-3.24,2.02
				C38.95,13.86,39.11,15.4,39.55,16.79z"/>
		</g>
		<g>
			<path fill="#EE978F" d="M48.07,27.65c1.03-1.45,2.47-2.63,4.1-3.39c0.82-0.39,1.69-0.65,2.59-0.82c0.89-0.14,1.82-0.26,2.77,0.03
				c0.46,0.15,0.94,0.45,1.19,0.92c0.27,0.47,0.28,1.05,0.12,1.53c-0.31,0.97-1.14,1.66-1.94,2.07c-0.79,0.44-1.61,0.8-2.12,1.39
				c-0.51,0.58-0.75,1.47-0.33,1.99L54,31.28l2.81-1.32l1.41-0.65c0.5-0.2,1.07-0.46,1.77-0.23c0.34,0.13,0.62,0.44,0.71,0.78
				c0.1,0.33,0.08,0.65,0.02,0.94c-0.13,0.58-0.42,1.1-0.82,1.51c-0.79,0.82-1.86,1.28-2.94,1.41c-2.16,0.26-4.2-0.42-6.21-0.06
				c-0.98,0.16-1.97,0.57-2.56,1.4c-0.59,0.79-0.86,1.95-0.29,2.86c-0.65-0.86-0.47-2.11,0.12-2.98c0.58-0.92,1.63-1.44,2.66-1.66
				c2.11-0.44,4.23,0.16,6.19-0.16c0.96-0.15,1.9-0.56,2.54-1.26c0.32-0.34,0.54-0.76,0.63-1.2c0.09-0.44-0.02-0.83-0.32-0.93
				c-0.68-0.2-1.71,0.52-2.62,0.9l-2.82,1.31l-0.27,0.12l-0.18-0.23c-0.35-0.45-0.42-1.06-0.3-1.56c0.11-0.51,0.36-0.95,0.69-1.33
				c0.69-0.75,1.57-1.09,2.32-1.51c0.77-0.39,1.4-0.94,1.66-1.69c0.29-0.73-0.1-1.5-0.89-1.74c-0.76-0.28-1.66-0.21-2.52-0.1
				c-0.86,0.12-1.71,0.36-2.52,0.69C50.67,25.21,49.22,26.29,48.07,27.65z"/>
		</g>
		<g>
			<path fill="#EE978F" d="M17.09,30.16c0.38-1.43,1.85-2.34,3.29-2.44c1.49-0.1,2.91,0.56,4.07,1.42c0.6,0.42,1.1,0.98,1.67,1.32
				c0.57,0.36,1.25,0.29,1.9,0.06c1.32-0.47,2.51-1.25,3.63-2.12c1.13-0.87,2.21-1.82,3.42-2.64c1.21-0.83,2.58-1.47,4.06-1.75
				c1.45-0.28,3.11-0.14,4.39,0.78c0.63,0.41,1.25,1.11,1.3,2c0.05,0.87-0.36,1.65-0.92,2.21c-0.59,0.57-1.32,0.88-2.04,1.09
				c-0.72,0.21-1.43,0.33-2.13,0.48l-4.22,0.88c-1.4,0.3-2.84,0.56-4.19,0.9c-1.33,0.34-2.61,1.09-2.93,2.41
				c-0.17,0.62-0.03,1.29,0.43,1.73c0.44,0.44,1.13,0.62,1.81,0.62c1.39,0.02,2.74-0.53,4.12-0.92c1.38-0.39,2.75-0.83,4.15-1.18
				c1.38-0.32,2.97-0.47,4.2,0.36c-1.26-0.78-2.81-0.56-4.15-0.19c-1.37,0.4-2.72,0.9-4.09,1.35c-1.36,0.42-2.71,1.02-4.23,1.04
				c-0.74,0.02-1.57-0.14-2.17-0.71c-0.61-0.55-0.82-1.48-0.62-2.24c0.18-0.77,0.64-1.46,1.26-1.94c0.62-0.48,1.34-0.75,2.05-0.96
				c1.43-0.37,2.82-0.63,4.23-0.94l4.21-0.91c1.39-0.31,2.87-0.51,3.79-1.41c0.45-0.44,0.75-1.05,0.72-1.63
				c-0.02-0.57-0.44-1.1-0.98-1.47c-1.08-0.78-2.51-0.94-3.86-0.69c-1.36,0.25-2.66,0.83-3.81,1.61C34.27,27.08,33.17,28,32,28.86
				c-1.16,0.86-2.42,1.65-3.83,2.11c-0.36,0.11-0.73,0.2-1.13,0.19c-0.4,0-0.8-0.13-1.13-0.34c-0.66-0.42-1.11-0.97-1.67-1.39
				c-1.09-0.87-2.42-1.56-3.84-1.53C19.01,27.94,17.53,28.76,17.09,30.16z"/>
		</g>
		<g>
			<path fill="#EE978F" d="M39.11,46.29c-0.02,0.33,0.34,0.46,0.6,0.43c0.29-0.01,0.48-0.21,0.62-0.46c0.14-0.24,0.23-0.52,0.37-0.8
				c0.15-0.27,0.36-0.53,0.62-0.71c1.07-0.73,2.36-0.67,3.4-1.04c0.54-0.16,0.95-0.45,1.39-0.83c0.44-0.37,0.89-0.82,1.57-1.05
				c0.71-0.18,1.46-0.03,1.98,0.61c0.27,0.33,0.27,0.87,0.07,1.21c-0.19,0.35-0.45,0.55-0.65,0.75l-2.57,2.36
				c-0.15,0.18-0.17,0.27-0.09,0.41c0.08,0.15,0.28,0.28,0.49,0.33c0.38,0.1,0.84-0.22,1.18-0.64c0.68-0.91,1.48-1.88,2.41-2.61
				c0.46-0.37,0.98-0.73,1.56-0.9c0.29-0.09,0.6-0.14,0.9-0.11c0.3,0.04,0.59,0.19,0.78,0.42c-0.45-0.43-1.1-0.35-1.61-0.13
				c-0.53,0.22-0.97,0.59-1.39,0.99c-0.87,0.79-1.53,1.68-2.2,2.69c-0.19,0.25-0.41,0.49-0.7,0.69c-0.27,0.19-0.7,0.31-1.07,0.23
				c-0.36-0.08-0.71-0.27-0.93-0.63c-0.11-0.18-0.17-0.42-0.12-0.65c0.04-0.23,0.17-0.41,0.28-0.55l2.57-2.46
				c0.22-0.2,0.43-0.38,0.52-0.55c0.08-0.17,0.09-0.31-0.01-0.45c-0.21-0.31-0.79-0.48-1.21-0.36c-0.92,0.26-1.68,1.52-2.99,1.78
				c-1.19,0.32-2.41,0.21-3.36,0.79c-0.5,0.26-0.7,0.79-1.03,1.32c-0.16,0.25-0.46,0.49-0.78,0.46
				C39.42,46.84,39.04,46.62,39.11,46.29z"/>
		</g>
	</g>
	<g>
		<path fill="#FCD7D4" d="M7.82,9.55c0.13,1.43,0.43,2.85,0.9,4.21c0.15,0.45,0.34,0.9,0.69,1.21c0.35,0.31,0.92,0.43,1.3,0.14
			c0.38-0.29,0.41-0.87,0.24-1.32c-0.17-0.45-0.48-0.83-0.69-1.26c-0.41-0.85-0.37-1.81-0.09-2.69c0.19-0.59,1.08-1.47,0.84-2.1
			C10.22,5.65,7.69,8.08,7.82,9.55z"/>
		<path fill="#FCD7D4" d="M3.45,16.23c0.3,0.89,0.82,1.69,1.45,2.38c0.39,0.43,1.02,0.85,1.5,0.53c0.38-0.24,0.4-0.81,0.22-1.22
			c-0.19-0.41-0.53-0.72-0.8-1.08C5,15.76,4.9,14.23,5.36,12.94C5.89,11.47,5.37,9.87,4,11.62C3.07,12.83,2.99,14.85,3.45,16.23z"/>
		<path fill="#FCD7D4" d="M13.22,5.96c-0.51,0.82-0.51,1.9-0.16,2.8c0.24,0.62,0.83,1.26,1.47,1.06c0.33-0.11,0.55-0.41,0.72-0.71
			c0.44-0.78,1.3-3.12,0.54-3.94C15.05,4.39,13.67,5.23,13.22,5.96z"/>
		<path fill="#FCD7D4" d="M18.91,11.75c0.02,1.2,0.13,2.49,0.88,3.42c0.25,0.31,0.68,0.58,1.03,0.39c0.11-0.06,0.19-0.15,0.26-0.25
			c0.61-0.84,0.56-1.97,0.37-2.99c-0.19-1.02-0.48-2.05-0.28-3.07c0.44-2.18,3.01-3.49,3.26-5.7c0.06-0.54-0.07-1.16-0.53-1.47
			c-0.83-0.54-3.12-0.4-3.8,0.35c-0.58,0.64-0.78,1.55-0.84,2.41C19.1,7.13,18.87,9.47,18.91,11.75z"/>
		<path fill="#FCD7D4" d="M26.53,3.37c-0.69,0.45-1.19,1.2-1.34,2.01c-0.02,0.11-0.03,0.22,0.01,0.32c0.14,0.34,0.66,0.18,0.96-0.03
			c0.4-0.28,0.82-0.58,1.05-1.01c0.24-0.43,0.23-1.04-0.15-1.35c-0.38-0.32-1.11-0.08-1.1,0.42"/>
		<path fill="#FCD7D4" d="M20.49,21.99c0.86-0.05,1.71,0.16,2.56,0.28c2.51,0.36,5.13-0.03,7.43-1.1c2.49-1.16,4.77-3.13,7.51-3.13
			c0.4,0,0.85,0.08,1.06,0.41c0.33,0.53-0.21,1.17-0.7,1.55c-3.97,3.06-8.68,5.16-13.61,6.06c-1.56,0.29-4.48,1.03-5.89-0.11
			C17.04,24.48,18.46,22.1,20.49,21.99z"/>
		<path fill="#FCD7D4" d="M30.09,2.34c0.79-1.47,6.48-1.54,7.12,0.11c0.29,0.75-0.45,2.23-1.09,2.62c-1.15,0.72-0.95-0.31-1.52-0.84
			c-0.96-0.9-1.19-0.43-2.47,0.32c-0.7,0.41-1.36,1-1.6,1.78c-0.17,0.55-0.11,1.13-0.2,1.7c-0.09,0.56-0.41,1.17-0.96,1.3
			c-0.2,0.05-0.44,0.01-0.58-0.14c-0.1-0.11-0.13-0.26-0.16-0.41c-0.21-1.27,0.24-2.39,0.65-3.56C29.61,4.31,29.64,3.17,30.09,2.34z
			"/>
		<path fill="#FCD7D4" d="M38.95,2.42c-0.7,0.35-1.22,1.06-1.33,1.84c-0.02,0.13-0.03,0.28,0.04,0.4c0.16,0.28,0.57,0.22,0.86,0.09
			c0.82-0.35,1.54-0.92,2.05-1.65c0.08-0.12,0.16-0.26,0.12-0.39c-0.03-0.1-0.12-0.17-0.21-0.22C40,2.22,39.35,2.24,38.89,2.55"/>
		<path fill="#FCD7D4" d="M44.31,9.09c0.45-0.16,0.98-0.5,1.47-0.52c0.65-0.02,1.02,0.54,1.5,0.55c1.11,0.04,2.07-1.16,2.06-2.3
			c-0.01-1.49-1.49-2.47-2.82-2.65c-1.41-0.2-2.54,0.31-3.14,1.58c-0.2,0.42-0.13,0.9-0.38,1.33c-0.24,0.42-1.09,0.79-1.22,1.18
			C41.32,9.6,43.32,9.44,44.31,9.09z"/>
		<path fill="#FCD7D4" d="M37.3,26.18c1.38-0.94,3.13-1.3,4.77-1c0.58,0.11,1.23,0.38,1.36,0.96c0.09,0.4-0.11,0.81-0.41,1.09
			c-0.3,0.27-0.69,0.43-1.06,0.58c-0.28,0.11-0.55,0.22-0.83,0.34c-0.77,0.31-1.58,0.62-2.39,0.51c-0.82-0.11-1.61-0.83-1.5-1.65
			c0.12-0.89,1.13-1.32,1.99-1.58"/>
		<path fill="#FCD7D4" d="M17.63,33.3c0,0.27,0.01,0.55,0.12,0.8c0.27,0.6,1.07,0.82,1.71,0.66c0.64-0.16,1.17-0.6,1.69-1.01
			c0.52-0.42,1.08-0.83,1.73-0.93c0.46-0.07,0.95,0.02,1.4-0.13c0.77-0.27,1.13-1.26,0.86-2.03c-0.57-1.67-3.47-2.12-5.02-1.92
			C18.05,29,17.64,31.52,17.63,33.3z"/>
	</g>
	<path fill="#FCD7D4" d="M50.34,8.9c-0.18,0.17-0.37,0.35-0.49,0.58c-0.36,0.67,0,1.51,0.53,2.05c0.15,0.15,0.32,0.29,0.42,0.48
		c0.17,0.33,0.11,0.73,0.18,1.1c0.15,0.78,0.98,1.34,1.77,1.27s1.48-0.71,1.7-1.47c0.22-0.77,0.01-1.62-0.47-2.25
		c-0.36-0.48-0.87-0.85-1.12-1.39c-0.15-0.33-0.2-0.71-0.39-1.02C51.81,7.17,50.87,8.4,50.34,8.9z"/>
	<path fill="#FCD7D4" d="M53.04,34.47c1.14-0.06,2.32-0.09,3.36-0.56c-0.03,0.92-0.95,1.53-1.81,1.85c-0.86,0.32-1.84,0.54-2.4,1.26
		c-0.75,0.95-1.06,1.49-2.43,1.3c-0.89-0.12-1.4-0.24-1.4-1.25C48.37,34.92,51.52,34.55,53.04,34.47z"/>
	<path fill="#FCD7D4" d="M47.93,28.76c1.68-1.01,1.35,2.37,0.83,3.08c-0.75,1-2.81,1.76-2.77,0.06
		C46.01,30.99,47.16,29.23,47.93,28.76z"/>
	<path fill="#FCD7D4" d="M38.7,51.82c0.01,0.85-0.16,1.81,0.37,2.48c0.32,0.4,0.87,0.6,1.37,0.51s0.94-0.48,1.09-0.97
		c0.04-0.13,0.06-0.26,0.05-0.39c-0.04-0.43-0.43-0.74-0.76-1.02c-0.72-0.61-1.34-1.34-1.83-2.16c-0.44-0.74-0.82-1.69-1.65-2.02
		C38.07,49.34,38.69,50.44,38.7,51.82z"/>
	<path fill="#D8AEAB" d="M33.73,44.55c0.22,0,0.48-0.08,0.53-0.3c0.04-0.18-0.1-0.35-0.22-0.5c-0.99-1.19-1.59-3.5-1.81-5
		c-0.05-0.32-0.05-0.74,0.25-0.87c0.16-0.07,0.34-0.02,0.5-0.06s0.33-0.23,0.22-0.36c-0.07-0.08-0.2-0.08-0.3-0.06
		c-0.35,0.06-0.7,0.15-1.03,0.27c-0.17,0.06-0.35,0.14-0.47,0.28c-0.16,0.19-0.18,0.47-0.18,0.73
		C31.24,40.25,31.4,44.55,33.73,44.55z"/>
	<path fill="#D8AEAB" d="M39.64,49.58c0.73,0.81,1.4,1.68,2.01,2.58c0.29-0.33,0.57-0.69,0.82-1.05c0.3-0.44,0.57-0.97,0.4-1.47
		c-0.13-0.4-0.51-0.66-0.85-0.92c-0.83-0.63-2.3-3.48-3.24-3.08C36.99,46.41,38.99,48.85,39.64,49.58z"/>
	<path fill="#D8AEAB" d="M42.67,37.48c0.44-0.01,0.98,0.04,1.16,0.44c-0.41,0.66-1.34,0.66-2.11,0.59c-1.33-0.12-2.78-0.12-4.08-0.4
		C39.22,37.65,41.04,37.48,42.67,37.48z"/>
	<path fill="#D8AEAB" d="M12.39,27.88c-1.25,1.4,0.34,1.73,1.55,1.57c0.39-0.05,2.3,0.26,2.5,0.1c0.21-0.17,0.01-1.15,0-1.38
		c-0.04-0.56,0.01-3.08-0.84-3.16C15.03,24.95,12.81,27.41,12.39,27.88z"/>
	<path fill="#D8AEAB" d="M28.3,20.68c0.4-0.66,0.51-1.49,0.29-2.23c1.45,0.17,2.89,0.34,4.34,0.51c-1.22,1.43-3.98,2.96-5.9,2.86
		C27.51,21.51,27.99,21.19,28.3,20.68z"/>
	<path fill="#D8AEAB" d="M53.95,31.82c0.19-0.01,0.47,0.05,0.45,0.24c-0.01,0.05-0.03,0.09-0.06,0.14
		c-0.49,0.68-1.45,0.75-2.28,0.77c-0.82,0-1.64,0.06-2.46,0.02C49.56,29.83,52.29,31.88,53.95,31.82z"/>
</g>
</svg>
