<?xml version="1.0" encoding="utf-8"?>
<!-- Generator: Adobe Illustrator 23.0.0, SVG Export Plug-In . SVG Version: 6.00 Build 0)  -->
<svg version="1.1" id="Layer_1" xmlns="http://www.w3.org/2000/svg" xmlns:xlink="http://www.w3.org/1999/xlink" x="0px" y="0px"
	 viewBox="0 0 48.64 50.08" enable-background="new 0 0 48.64 50.08" xml:space="preserve">
<g>
	<g>
		<ellipse fill="#C49A6C" cx="18.96" cy="22.22" rx="18.96" ry="9.4"/>
		<ellipse fill="#754C29" cx="18.96" cy="19.11" rx="18.47" ry="8.49"/>
		<ellipse fill="#DD4747" cx="18.96" cy="16.22" rx="18.07" ry="8.49"/>
		<path fill="#0D9662" d="M37.38,14.19c0.05,0.52,0.31,1.02,0.22,1.54c-0.09,0.5-0.54,0.85-1,1.07c-0.46,0.21-0.96,0.34-1.37,0.64
			c-0.8,0.58-1.08,1.69-1.85,2.32c-0.88,0.71-2.14,0.62-3.27,0.53s-2.42-0.07-3.18,0.77c-0.33,0.36-0.51,0.83-0.82,1.21
			c-0.55,0.69-1.45,1.01-2.32,1.13c-1.35,0.19-2.75-0.03-3.97-0.61c-0.7-0.33-1.36-0.78-2.11-0.97c-1.2-0.31-2.47,0.08-3.61,0.57
			c-0.72,0.31-1.44,0.66-2.22,0.75c-0.78,0.09-1.65-0.14-2.1-0.79c-0.53-0.77-0.47-2.05-1.37-2.32c-0.97-0.29-1.85,1.1-2.83,0.85
			c-0.76-0.2-0.92-1.17-1.13-1.92c-0.19-0.68-0.54-1.33-1.09-1.77c-0.64-0.51-1.5-0.69-2.17-1.16c-1.24-0.88-0.75-2.81-0.12-3.94
			C1.66,11,2.6,10.15,3.6,9.47c4.35-2.99,10.21-3.77,15.36-3.77c3.82,0,7.71,0.49,11.32,1.78c1.98,0.71,4,1.68,5.5,3.2
			c0.57,0.57,1.07,1.24,1.36,2c0.08,0.21,0.1,0.43,0.17,0.65c0.02,0.08,0.16,0.23,0.16,0.28c0.01,0.12-0.09,0.23-0.1,0.36
			C37.37,14.04,37.38,14.11,37.38,14.19z"/>
		<ellipse fill="#C49A6C" cx="18.96" cy="10.56" rx="18.85" ry="10.56"/>
		<path fill="#DBAC7B" d="M31.58,3.91c0.79,1.39,1.24,2.97,1.24,4.65c0,3.77-2.25,7.05-5.57,8.77c4.67-0.47,8.28-3.59,8.28-7.38
			C35.52,7.46,33.96,5.26,31.58,3.91z"/>
		<path fill="#A97C50" d="M5.87,10.41c0.02-0.82,0.22-1.65,0.55-2.39c0.44-0.99,1.03-1.9,1.74-2.71c2.4-2.73,6.27-4.44,9.93-4.35
			c-0.24-0.01-0.49-0.01-0.73-0.01c-8.88,0-16.53,4-16.08,8.89c0.66,7.16,11.48,9.34,15.58,9.5c-1.45-0.06-2.96-0.46-4.29-1.02
			c-1.7-0.7-3.25-1.76-4.48-3.14c-0.86-0.97-1.67-2.04-2.03-3.3C5.91,11.4,5.86,10.91,5.87,10.41z"/>
		
			<ellipse transform="matrix(0.3673 -0.9301 0.9301 0.3673 12.8962 31.4363)" fill="#DBAC7B" cx="29.56" cy="6.24" rx="2.97" ry="4.55"/>
	</g>
	<g>
		
			<rect x="18.37" y="32" transform="matrix(0.5924 0.8056 -0.8056 0.5924 42.1493 -5.0742)" fill="#841924" width="15.44" height="14.24"/>
		<g>
			
				<rect x="25.94" y="19.93" transform="matrix(0.5924 0.8056 -0.8056 0.5924 40.8682 -12.7958)" fill="#8B5E3C" width="14.27" height="28.13"/>
			<g>
				<g>
					
						<rect x="20.07" y="33.2" transform="matrix(0.5924 0.8056 -0.8056 0.5924 38.3716 -2.991)" fill="#603913" width="4.14" height="6.45"/>
					<polygon fill="#754C29" points="25.97,36.18 23.51,32.85 19.05,36.13 23.39,33.69 					"/>
				</g>
				<g>
					
						<rect x="22.75" y="36.84" transform="matrix(0.5924 0.8056 -0.8056 0.5924 42.395 -3.6637)" fill="#603913" width="4.14" height="6.45"/>
					<polygon fill="#754C29" points="28.64,39.82 26.19,36.49 21.73,39.77 26.06,37.33 					"/>
				</g>
				<g>
					
						<rect x="25.42" y="40.48" transform="matrix(0.5924 0.8056 -0.8056 0.5924 46.4184 -4.3364)" fill="#603913" width="4.14" height="6.45"/>
					<polygon fill="#754C29" points="31.32,43.46 28.87,40.13 24.41,43.41 28.74,40.97 					"/>
				</g>
			</g>
			<g>
				<g>
					
						<rect x="25.57" y="29.16" transform="matrix(0.5924 0.8056 -0.8056 0.5924 37.3552 -9.0706)" fill="#603913" width="4.14" height="6.45"/>
					<polygon fill="#754C29" points="31.47,32.14 29.01,28.8 24.55,32.08 28.89,29.64 					"/>
				</g>
				<g>
					
						<rect x="28.25" y="32.8" transform="matrix(0.5924 0.8056 -0.8056 0.5924 41.3785 -9.7432)" fill="#603913" width="4.14" height="6.45"/>
					<polygon fill="#754C29" points="34.14,35.78 31.69,32.44 27.23,35.72 31.56,33.28 					"/>
				</g>
				<g>
					
						<rect x="30.92" y="36.44" transform="matrix(0.5924 0.8056 -0.8056 0.5924 45.4019 -10.4159)" fill="#603913" width="4.14" height="6.45"/>
					<polygon fill="#754C29" points="36.82,39.42 34.37,36.08 29.91,39.36 34.24,36.92 					"/>
				</g>
			</g>
			<g>
				<g>
					
						<rect x="31.07" y="25.11" transform="matrix(0.5924 0.8056 -0.8056 0.5924 36.3387 -15.1501)" fill="#603913" width="4.14" height="6.45"/>
					<polygon fill="#754C29" points="36.97,28.1 34.51,24.76 30.05,28.04 34.39,25.6 					"/>
				</g>
				<g>
					
						<rect x="33.75" y="28.75" transform="matrix(0.5924 0.8056 -0.8056 0.5924 40.3621 -15.8228)" fill="#603913" width="4.14" height="6.45"/>
					<polygon fill="#754C29" points="39.64,31.74 37.19,28.4 32.73,31.68 37.06,29.24 					"/>
				</g>
				<g>
					
						<rect x="36.42" y="32.39" transform="matrix(0.5924 0.8056 -0.8056 0.5924 44.3855 -16.4955)" fill="#603913" width="4.14" height="6.45"/>
					<polygon fill="#754C29" points="42.32,35.38 39.87,32.04 35.41,35.32 39.74,32.88 					"/>
				</g>
			</g>
			<g>
				<g>
					
						<rect x="36.57" y="21.07" transform="matrix(0.5924 0.8056 -0.8056 0.5924 35.3223 -21.2297)" fill="#603913" width="4.14" height="6.45"/>
					<polygon fill="#754C29" points="42.47,24.05 40.01,20.71 35.55,23.99 39.89,21.55 					"/>
				</g>
				<g>
					
						<rect x="39.25" y="24.71" transform="matrix(0.5924 0.8056 -0.8056 0.5924 39.3456 -21.9024)" fill="#603913" width="4.14" height="6.45"/>
					<polygon fill="#754C29" points="45.14,27.69 42.69,24.35 38.23,27.63 42.56,25.19 					"/>
				</g>
				<g>
					
						<rect x="41.92" y="28.35" transform="matrix(0.5924 0.8056 -0.8056 0.5924 43.369 -22.575)" fill="#603913" width="4.14" height="6.45"/>
					<polygon fill="#754C29" points="47.82,31.33 45.37,27.99 40.91,31.27 45.24,28.83 					"/>
				</g>
			</g>
		</g>
		
			<rect x="17.66" y="32.52" transform="matrix(0.5924 0.8056 -0.8056 0.5924 42.2811 -4.2856)" fill="#AF2027" width="15.44" height="14.24"/>
		<path fill="#EF5B5B" d="M27.25,28.68c0,0-4.51,2.32-6.39,1.76c0,0,10.54,7.01,11.39,10.94c0,0,2.39-0.5,3.42,0.26l-8.89-12.1
			L27.25,28.68z"/>
		<path fill="#841924" d="M15.32,37.67c0,0,8.43,11.46,17.83,5.63l-8.96,6.06L15.32,37.67z"/>
	</g>
</g>
</svg>
