<?xml version="1.0" encoding="utf-8"?>
<!-- Generator: Adobe Illustrator 23.0.0, SVG Export Plug-In . SVG Version: 6.00 Build 0)  -->
<svg version="1.1" id="Layer_1" xmlns="http://www.w3.org/2000/svg" xmlns:xlink="http://www.w3.org/1999/xlink" x="0px" y="0px"
	 viewBox="0 0 61.62 25.71" enable-background="new 0 0 61.62 25.71" xml:space="preserve">
<g>
	<g>
		<path fill="#BCBEC0" d="M6.66,24.44c-0.17-0.61-0.31-1.25-0.21-1.9c0.09-0.65,0.52-1.23,1.04-1.61c1.02-0.78,2.34-1.18,2.98-2.2
			c0.64-1.03,0.37-2.35,0-3.51c-0.38-1.18-0.88-2.45-0.72-3.83c0.08-0.68,0.4-1.39,0.95-1.86c0.54-0.45,1.11-0.71,1.35-1.16
			c0.25-0.45,0.23-1.03,0.04-1.58c-0.19-0.56-0.51-1.03-0.93-1.5c-0.41-0.47-0.86-0.93-1.26-1.47c-0.2-0.27-0.38-0.57-0.51-0.9
			C9.27,2.6,9.18,2.2,9.24,1.8c0.04-0.2,0.11-0.43,0.28-0.61c0.16-0.19,0.41-0.3,0.63-0.33c0.44-0.04,0.75,0.05,1.1,0.15
			c0.34,0.11,0.66,0.27,0.95,0.54c0.29,0.25,0.52,0.72,0.43,1.17l-0.02,0.12L12.53,2.9C11.74,3.62,10.7,3.76,9.8,3.84
			C8.89,3.92,8,3.95,7.25,4.3C6.51,4.61,5.97,5.35,5.86,6.14c-0.14,0.8,0.35,1.59,1.11,1.89c0.37,0.16,0.79,0.19,1.15,0.05
			c0.37-0.13,0.67-0.43,0.66-0.79c0-0.36-0.25-0.74-0.52-1.08C7.97,5.86,7.69,5.5,7.42,5.12C6.9,4.38,6.45,3.54,6.28,2.62
			C6.12,1.72,6.27,0.73,6.82,0c-0.5,0.77-0.56,1.73-0.37,2.59c0.2,0.87,0.67,1.65,1.22,2.35C7.94,5.3,8.24,5.63,8.54,5.97
			c0.29,0.35,0.62,0.75,0.65,1.31C9.22,7.87,8.75,8.33,8.29,8.5C7.8,8.7,7.25,8.67,6.78,8.49C6.31,8.31,5.9,7.99,5.62,7.55
			C5.33,7.12,5.23,6.58,5.28,6.07c0.1-1.01,0.77-1.94,1.7-2.35C7.89,3.3,8.86,3.28,9.74,3.18c0.88-0.08,1.75-0.24,2.33-0.78
			l-0.11,0.19c0.09-0.37-0.39-0.75-0.93-0.91c-0.25-0.08-0.58-0.14-0.78-0.11C10.08,1.59,10,1.68,9.96,1.91
			c-0.07,0.45,0.21,1.01,0.55,1.49c0.34,0.49,0.78,0.94,1.2,1.44c0.42,0.48,0.83,1.08,1.04,1.74c0.22,0.65,0.28,1.44-0.11,2.12
			c-0.41,0.68-1.09,0.95-1.51,1.32c-0.43,0.35-0.67,0.88-0.76,1.45c-0.16,1.18,0.23,2.38,0.6,3.61c0.17,0.62,0.31,1.26,0.33,1.93
			c0.01,0.66-0.1,1.37-0.5,1.94C10,20.11,8.62,20.39,7.62,21.1c-0.51,0.34-0.92,0.85-1.05,1.46C6.44,23.18,6.53,23.82,6.66,24.44z"
			/>
	</g>
	<g>
		<path fill="#BCBEC0" d="M7.72,24.11c-0.73,0.04-1.42-0.44-1.81-1.05c-0.42-0.62-0.55-1.4-0.51-2.13c0.1-1.48,0.76-2.82,0.85-4.18
			c0.12-1.34-0.54-2.65-1.59-3.46c-0.51-0.4-1.15-0.66-1.73-0.59c-0.55,0.04-1.04,0.57-1.09,1.09c-0.07,0.51,0.42,0.9,1.01,0.81
			c0.58-0.05,1-0.51,1.11-1.13c0.12-0.61-0.04-1.26-0.36-1.85c-0.32-0.59-0.77-1.13-1.19-1.73C1.57,8.72,0.84,7.44,0.4,6.05
			c-0.42-1.38-0.56-2.89-0.14-4.27C0,3.19,0.21,4.64,0.73,5.94c0.5,1.31,1.25,2.52,2.12,3.62c0.44,0.55,0.93,1.09,1.29,1.76
			c0.37,0.65,0.6,1.47,0.46,2.27c-0.07,0.4-0.24,0.8-0.53,1.12c-0.31,0.33-0.72,0.52-1.15,0.58c-0.42,0.05-0.89-0.02-1.28-0.31
			c-0.39-0.28-0.59-0.8-0.54-1.26c0.11-0.91,0.85-1.62,1.73-1.71c0.86-0.09,1.63,0.29,2.22,0.76c1.18,0.94,1.97,2.5,1.74,4.04
			c-0.18,1.5-0.9,2.78-1.05,4.16c-0.09,0.68-0.03,1.39,0.32,2C6.4,23.55,6.99,24.06,7.72,24.11z"/>
	</g>
	<g>
		<path fill="#E6E7E8" d="M9.94,25.23l37.13,0.35l0.04-4.31L9.98,20.93c0,0,0.43,0.7,0.41,2.22C10.38,24.72,9.94,25.23,9.94,25.23z"
			/>
		<path fill="#FFFFFF" d="M50.49,25.61l-4.31-0.04c0,0,0.45-0.64,0.47-2.08c0.01-1.31-0.42-2.22-0.42-2.22l4.31,0.04l-0.02,2.15
			L50.49,25.61z"/>
		<path fill="#EEB95B" d="M61.21,25.71L49.63,25.6c0,0,0.42-0.88,0.43-2.15c0.01-1.39-0.39-2.16-0.39-2.16l11.58,0.11
			c0,0,0.38,0.49,0.37,2.16C61.6,25.04,61.21,25.71,61.21,25.71z"/>
		
			<ellipse transform="matrix(9.320577e-03 -1 1 9.320577e-03 -13.2826 32.7486)" fill="#EE755B" cx="9.89" cy="23.08" rx="2.15" ry="0.62"/>
		<path fill="#A7A9AC" d="M7.14,25.02l2.55,0.21c0,0,0.42-0.81,0.43-2.15c0.01-1.53-0.39-2.16-0.39-2.16l-2.7,0.08
			c-0.67,0.11-1.17,0.67-1.21,1.34c-0.01,0.12,0.14,0.61,0.13,0.76c0,0.22,0.01,0.41,0.02,0.58C6.03,24.32,6.52,24.94,7.14,25.02z"
			/>
		<path fill="#BCBEC0" d="M9.66,25.23c0,0,0.42-0.81,0.43-2.15c0.01-1.53-0.39-2.16-0.39-2.16l-1.19-0.01
			c-0.3,0.31,0.1,1.26,0.1,2.15c-0.01,1.2-0.34,1.79,0.05,2.08L9.66,25.23z"/>
	</g>
</g>
</svg>
