<?xml version="1.0" encoding="utf-8"?>
<!-- Generator: Adobe Illustrator 23.0.0, SVG Export Plug-In . SVG Version: 6.00 Build 0)  -->
<svg version="1.1" id="Layer_1" xmlns="http://www.w3.org/2000/svg" xmlns:xlink="http://www.w3.org/1999/xlink" x="0px" y="0px"
	 viewBox="0 0 62.58 61.61" enable-background="new 0 0 62.58 61.61" xml:space="preserve">
<g>
	<circle fill="#EEDDC4" cx="35.36" cy="34.39" r="27.23"/>
	<g>
		
			<ellipse transform="matrix(0.7071 -0.7071 0.7071 0.7071 -29.3957 15.8523)" fill="#D1D3D4" cx="4.44" cy="43.41" rx="3.45" ry="5.24"/>
		<path fill="#A7A9AC" d="M9.28,34.25l-7.64,7.64c0,0-0.26,1.26,1.4,2.92c1.28,1.28,2.77,1.26,2.77,1.26l7.64-7.64
			C13.45,35.97,11.58,34.11,9.28,34.25z"/>
		
			<ellipse transform="matrix(0.7071 -0.7071 0.7071 0.7071 -22.8522 18.5622)" fill="#D1D3D4" cx="10.98" cy="36.86" rx="3.45" ry="5.24"/>
		<path fill="#F26522" d="M31.29,10.66L8.1,33.85c0,0-0.42,2.29,1.52,4.23c2.09,2.09,4.23,1.52,4.23,1.52l23.19-23.19L31.29,10.66z"
			/>
		
			<ellipse transform="matrix(0.7071 -0.7071 0.7071 0.7071 0.4117 28.1963)" fill="#D1D3D4" cx="34.24" cy="13.6" rx="2.77" ry="5.24"/>
		<path fill="#A7A9AC" d="M37.27,16.18c0,0,2.08-2.42,0.8-6.5c-3.99-1.19-6.18,1.12-6.18,1.12S32.03,15.72,37.27,16.18z"/>
		<g>
			<polygon fill="#D1D3D4" points="37.38,9.92 47.52,0.22 37.83,10.37 			"/>
		</g>
		<g>
			<defs>
				<path id="SVGID_754_" d="M31.29,10.66L8.1,33.85c0,0-0.42,2.29,1.52,4.23c2.09,2.09,4.23,1.52,4.23,1.52l23.19-23.19
					L31.29,10.66z"/>
			</defs>
			<clipPath id="SVGID_2_">
				<use xlink:href="#SVGID_754_"  overflow="visible"/>
			</clipPath>
			<g clip-path="url(#SVGID_2_)">
				<path fill="none" stroke="#EEDDC4" stroke-width="0.63" stroke-miterlimit="10" d="M24.17,16.45c-0.08,0.07,0.25,2.96,2.08,4.14
					"/>
				<path fill="none" stroke="#EEDDC4" stroke-width="0.63" stroke-miterlimit="10" d="M21.6,19.23c-0.08,0.07,0.05,2.98,1.88,4.16"
					/>
				<path fill="none" stroke="#EEDDC4" stroke-width="0.63" stroke-miterlimit="10" d="M18.92,21.94c-0.08,0.07-0.11,2.87,1.72,4.05
					"/>
				<path fill="none" stroke="#EEDDC4" stroke-width="0.63" stroke-miterlimit="10" d="M16.34,24.48c-0.08,0.07-0.35,2.94,1.49,4.12
					"/>
				<path fill="none" stroke="#EEDDC4" stroke-width="0.63" stroke-miterlimit="10" d="M13.73,27.01c-0.08,0.07-0.21,2.6,1.63,3.78"
					/>
				<path fill="none" stroke="#EEDDC4" stroke-width="0.63" stroke-miterlimit="10" d="M22.9,18.31c0,0,0.01,1.54,1.14,2.57"/>
				<path fill="none" stroke="#EEDDC4" stroke-width="0.63" stroke-miterlimit="10" d="M20.09,21.1c0,0,0.01,1.54,1.14,2.57"/>
				<path fill="none" stroke="#EEDDC4" stroke-width="0.63" stroke-miterlimit="10" d="M17.33,23.25c0,0-0.2,2.01,0.94,3.04"/>
				<path fill="none" stroke="#EEDDC4" stroke-width="0.63" stroke-miterlimit="10" d="M14.79,25.87c0,0-0.17,1.74,0.97,2.77"/>
			</g>
		</g>
		<path fill="#F26522" d="M47.45,0.5c0.61-0.4,1.38-0.58,2.11-0.47c0.48,0.07,0.96,0.27,1.23,0.67s0.23,1.02-0.17,1.29
			c-0.32,0.22-0.77,0.15-1.11-0.04c-0.34-0.19-0.62-0.47-0.94-0.7c-0.53-0.38-1.18-0.58-1.83-0.58"/>
	</g>
	<g>
		<g>
			<polygon fill="#D1D3D4" points="34.48,38.65 32.25,40.04 32.76,40.59 35.09,38.65 			"/>
			<g>
				<g>
					<g>
						<path fill="#D1D3D4" d="M35.01,38.63c-0.47-0.12-0.47-0.11-0.95-0.11c-0.49,0-0.49,0.11-0.97,0.11
							c-0.48,0-0.48-0.11-0.97-0.11c-0.49,0-0.49,0.11-0.97,0.11c-0.48,0-0.48-0.11-0.97-0.11c-0.49,0-0.49,0.11-0.97,0.11
							c-0.49,0-0.49-0.11-0.97-0.11c-0.49,0-0.49,0.11-0.98,0.11s-0.5-0.18-0.98-0.11c-0.16,0.02-0.1,0.19-0.23,0.27
							c-0.13,0.08-0.19-0.01-0.33,0.07c-0.14,0.09-0.07,0.18-0.21,0.27c-0.14,0.09-0.2-0.01-0.33,0.07
							c-0.13,0.08-0.07,0.18-0.21,0.26c-0.13,0.08-0.2-0.01-0.33,0.07c-0.14,0.09-0.08,0.18-0.21,0.27
							c-0.14,0.09-0.2-0.01-0.34,0.08c-0.14,0.09-0.39,0.13-0.23,0.17c0.47,0.12,0.47,0.11,0.95,0.11c0.49,0,0.49-0.11,0.97-0.11
							c0.48,0,0.48,0.11,0.97,0.11c0.49,0,0.49-0.11,0.97-0.11c0.48,0,0.48,0.11,0.97,0.11c0.49,0,0.49-0.11,0.97-0.11
							c0.49,0,0.49,0.11,0.97,0.11c0.49,0,0.49-0.11,0.98-0.11s0.5,0.18,0.98,0.11c0.16-0.02,0.1-0.19,0.23-0.27
							c0.13-0.08,0.19,0.01,0.33-0.07c0.14-0.09,0.07-0.18,0.21-0.27c0.14-0.09,0.2,0.01,0.33-0.07c0.13-0.08,0.07-0.18,0.21-0.26
							c0.13-0.08,0.2,0.01,0.33-0.07c0.14-0.09,0.08-0.18,0.21-0.27c0.14-0.09,0.17-0.02,0.33-0.07
							C34.94,38.74,35.17,38.67,35.01,38.63z"/>
					</g>
					<g>
						<path fill="#FFFFFF" d="M32.64,48.9c-0.34,0.34-0.52-0.1-1.01-0.1c-0.49,0-0.49,0.11-0.97,0.11c-0.48,0-0.48-0.11-0.97-0.11
							c-0.49,0-0.49,0.11-0.97,0.11c-0.48,0-0.48-0.11-0.97-0.11c-0.49,0-0.49,0.11-0.97,0.11c-0.49,0-0.49-0.11-0.97-0.11
							c-0.49,0-0.49,0.11-0.98,0.11c-0.49,0-0.59,0.25-0.94-0.1c-0.34-0.34-0.1-0.44-0.1-0.93c0-0.49,0.11-0.49,0.11-0.97
							c0-0.48-0.11-0.48-0.11-0.97c0-0.49,0.11-0.49,0.11-0.97c0-0.48-0.11-0.48-0.11-0.97c0-0.49,0.11-0.49,0.11-0.97
							c0-0.49-0.11-0.49-0.11-0.97c0-0.49,0.11-0.49,0.11-0.98c0-0.49-0.44-0.67-0.1-1.02c0.34-0.34,0.52,0.1,1.01,0.1
							c0.49,0,0.49-0.11,0.97-0.11c0.48,0,0.48,0.11,0.97,0.11c0.49,0,0.49-0.11,0.97-0.11c0.48,0,0.48,0.11,0.97,0.11
							c0.49,0,0.49-0.11,0.97-0.11c0.49,0,0.49,0.11,0.97,0.11c0.49,0,0.49-0.11,0.98-0.11c0.49,0,0.59-0.25,0.94,0.1
							c0.34,0.34,0.1,0.44,0.1,0.93c0,0.49-0.11,0.49-0.11,0.97c0,0.48,0.11,0.48,0.11,0.97c0,0.49-0.11,0.49-0.11,0.97
							c0,0.48,0.11,0.48,0.11,0.97c0,0.49-0.11,0.49-0.11,0.97c0,0.49,0.11,0.49,0.11,0.97c0,0.49-0.22,0.51-0.11,0.99
							C32.67,48.42,32.99,48.55,32.64,48.9z"/>
					</g>
					<g>
						<path fill="#BCBEC0" d="M32.66,48.84c0.05,0.15,0.11-0.02,0.24-0.1c0.13-0.08,0.07-0.18,0.21-0.26
							c0.13-0.09,0.19,0.01,0.33-0.07c0.13-0.09,0.07-0.18,0.21-0.27c0.13-0.08,0.19,0.01,0.33-0.07c0.13-0.08,0.07-0.18,0.21-0.27
							c0.14-0.09,0.2,0.01,0.33-0.08c0.14-0.09,0.08-0.18,0.21-0.27c0.14-0.09,0.32,0.05,0.36-0.11c0.11-0.47-0.11-0.5-0.11-0.98
							c0-0.49,0.11-0.49,0.11-0.97c0-0.48-0.11-0.48-0.11-0.97c0-0.49,0.11-0.49,0.11-0.97c0-0.48-0.11-0.48-0.11-0.97
							c0-0.49,0.11-0.49,0.11-0.97c0-0.49-0.11-0.49-0.11-0.97c0-0.49,0.11-0.49,0.11-0.98s0.04-0.49-0.11-0.96
							c-0.05-0.15-0.11,0.02-0.24,0.1c-0.13,0.08-0.07,0.18-0.21,0.26c-0.13,0.09-0.19-0.01-0.33,0.07
							c-0.13,0.09-0.07,0.18-0.21,0.27c-0.13,0.08-0.19-0.01-0.33,0.07c-0.13,0.08-0.07,0.18-0.21,0.27
							c-0.14,0.09-0.2-0.01-0.33,0.08c-0.14,0.09-0.08,0.18-0.21,0.27c-0.14,0.09-0.32-0.05-0.36,0.11
							c-0.11,0.47,0.11,0.5,0.11,0.98c0,0.49-0.11,0.49-0.11,0.97c0,0.48,0.11,0.48,0.11,0.97c0,0.49-0.11,0.49-0.11,0.97
							c0,0.48,0.11,0.48,0.11,0.97c0,0.49-0.11,0.49-0.11,0.97c0,0.49,0.11,0.49,0.11,0.97c0,0.49-0.08,0.49-0.11,0.97
							C32.51,48.37,32.5,48.38,32.66,48.84z"/>
					</g>
				</g>
			</g>
		</g>
		<g>
			<polygon fill="#D1D3D4" points="44.51,41.46 42.27,42.85 42.78,43.4 45.11,41.46 			"/>
			<g>
				<g>
					<g>
						<path fill="#D1D3D4" d="M45.04,41.44c-0.47-0.12-0.47-0.11-0.95-0.11c-0.49,0-0.49,0.11-0.97,0.11
							c-0.48,0-0.48-0.11-0.97-0.11c-0.49,0-0.49,0.11-0.97,0.11c-0.48,0-0.48-0.11-0.97-0.11c-0.49,0-0.49,0.11-0.97,0.11
							c-0.49,0-0.49-0.11-0.97-0.11c-0.49,0-0.49,0.11-0.98,0.11c-0.49,0-0.5-0.18-0.98-0.11c-0.16,0.02-0.1,0.19-0.23,0.27
							c-0.13,0.08-0.19-0.01-0.33,0.07c-0.14,0.09-0.07,0.18-0.21,0.27c-0.14,0.09-0.2-0.01-0.33,0.07
							c-0.13,0.08-0.07,0.18-0.21,0.26c-0.13,0.08-0.2-0.01-0.33,0.07c-0.14,0.09-0.08,0.18-0.21,0.27
							c-0.14,0.09-0.2-0.01-0.34,0.08c-0.14,0.09-0.39,0.13-0.23,0.17c0.47,0.12,0.47,0.11,0.95,0.11c0.49,0,0.49-0.11,0.97-0.11
							c0.48,0,0.48,0.11,0.97,0.11c0.49,0,0.49-0.11,0.97-0.11c0.48,0,0.48,0.11,0.97,0.11c0.49,0,0.49-0.11,0.97-0.11
							c0.49,0,0.49,0.11,0.97,0.11c0.49,0,0.49-0.11,0.98-0.11c0.49,0,0.5,0.18,0.98,0.11c0.16-0.02,0.1-0.19,0.23-0.27
							c0.13-0.08,0.19,0.01,0.33-0.07c0.14-0.09,0.07-0.18,0.21-0.27c0.14-0.09,0.2,0.01,0.33-0.07c0.13-0.08,0.07-0.18,0.21-0.26
							c0.13-0.08,0.2,0.01,0.33-0.07c0.14-0.09,0.08-0.18,0.21-0.27c0.14-0.09,0.17-0.02,0.33-0.07
							C44.96,41.55,45.19,41.48,45.04,41.44z"/>
					</g>
					<g>
						<path fill="#FFFFFF" d="M42.66,51.71c-0.34,0.34-0.52-0.1-1.01-0.1c-0.49,0-0.49,0.11-0.97,0.11c-0.48,0-0.48-0.11-0.97-0.11
							c-0.49,0-0.49,0.11-0.97,0.11c-0.48,0-0.48-0.11-0.97-0.11c-0.49,0-0.49,0.11-0.97,0.11c-0.49,0-0.49-0.11-0.97-0.11
							c-0.49,0-0.49,0.11-0.98,0.11c-0.49,0-0.59,0.25-0.94-0.1c-0.34-0.34-0.1-0.44-0.1-0.93c0-0.49,0.11-0.49,0.11-0.97
							c0-0.48-0.11-0.48-0.11-0.97c0-0.49,0.11-0.49,0.11-0.97c0-0.48-0.11-0.48-0.11-0.97c0-0.49,0.11-0.49,0.11-0.97
							c0-0.49-0.11-0.49-0.11-0.97c0-0.49,0.11-0.49,0.11-0.98c0-0.49-0.44-0.67-0.1-1.02c0.34-0.34,0.52,0.1,1.01,0.1
							c0.49,0,0.49-0.11,0.97-0.11c0.48,0,0.48,0.11,0.97,0.11c0.49,0,0.49-0.11,0.97-0.11c0.48,0,0.48,0.11,0.97,0.11
							c0.49,0,0.49-0.11,0.97-0.11c0.49,0,0.49,0.11,0.97,0.11c0.49,0,0.49-0.11,0.98-0.11c0.49,0,0.59-0.25,0.94,0.1
							c0.34,0.34,0.1,0.44,0.1,0.93c0,0.49-0.11,0.49-0.11,0.97c0,0.48,0.11,0.48,0.11,0.97c0,0.49-0.11,0.49-0.11,0.97
							c0,0.48,0.11,0.48,0.11,0.97c0,0.49-0.11,0.49-0.11,0.97c0,0.49,0.11,0.49,0.11,0.97c0,0.49-0.22,0.51-0.11,0.99
							C42.69,51.23,43.01,51.36,42.66,51.71z"/>
					</g>
					<g>
						<path fill="#BCBEC0" d="M42.68,51.65c0.05,0.15,0.11-0.02,0.24-0.1c0.13-0.08,0.07-0.18,0.21-0.26
							c0.13-0.09,0.19,0.01,0.33-0.07c0.13-0.09,0.07-0.18,0.21-0.27c0.13-0.08,0.19,0.01,0.33-0.07c0.13-0.08,0.07-0.18,0.21-0.27
							c0.14-0.09,0.2,0.01,0.33-0.08c0.14-0.09,0.08-0.18,0.21-0.27c0.14-0.09,0.32,0.05,0.36-0.11c0.11-0.47-0.11-0.5-0.11-0.98
							c0-0.49,0.11-0.49,0.11-0.97c0-0.48-0.11-0.48-0.11-0.97c0-0.49,0.11-0.49,0.11-0.97c0-0.48-0.11-0.48-0.11-0.97
							c0-0.49,0.11-0.49,0.11-0.97c0-0.49-0.11-0.49-0.11-0.97c0-0.49,0.11-0.49,0.11-0.98c0-0.49,0.04-0.49-0.11-0.96
							c-0.05-0.15-0.11,0.02-0.24,0.1c-0.13,0.08-0.07,0.18-0.21,0.26c-0.13,0.09-0.19-0.01-0.33,0.07
							c-0.13,0.09-0.07,0.18-0.21,0.27c-0.13,0.08-0.19-0.01-0.33,0.07c-0.13,0.08-0.07,0.18-0.21,0.27
							c-0.14,0.09-0.2-0.01-0.33,0.08c-0.14,0.09-0.08,0.18-0.21,0.27c-0.14,0.09-0.32-0.05-0.36,0.11
							c-0.11,0.47,0.11,0.5,0.11,0.98c0,0.49-0.11,0.49-0.11,0.97c0,0.48,0.11,0.48,0.11,0.97c0,0.49-0.11,0.49-0.11,0.97
							c0,0.48,0.11,0.48,0.11,0.97c0,0.49-0.11,0.49-0.11,0.97c0,0.49,0.11,0.49,0.11,0.97c0,0.49-0.08,0.49-0.11,0.97
							C42.54,51.17,42.53,51.19,42.68,51.65z"/>
					</g>
				</g>
			</g>
		</g>
		<g>
			<polygon fill="#D1D3D4" points="42.46,34.22 39.86,34.61 40.11,35.32 43.02,34.46 			"/>
			<g>
				<g>
					<g>
						<path fill="#D1D3D4" d="M42.96,34.41c-0.39-0.29-0.39-0.29-0.83-0.48c-0.45-0.19-0.49-0.09-0.94-0.28
							c-0.45-0.19-0.4-0.3-0.85-0.49c-0.45-0.19-0.49-0.09-0.93-0.28c-0.44-0.19-0.4-0.3-0.84-0.49c-0.45-0.19-0.49-0.09-0.94-0.28
							c-0.45-0.19-0.4-0.3-0.85-0.49c-0.45-0.19-0.49-0.09-0.94-0.28c-0.45-0.19-0.39-0.36-0.86-0.49
							c-0.15-0.04-0.16,0.14-0.32,0.16c-0.16,0.02-0.17-0.09-0.33-0.06c-0.16,0.02-0.14,0.14-0.3,0.16
							c-0.16,0.02-0.18-0.09-0.33-0.06c-0.16,0.02-0.14,0.14-0.3,0.16c-0.16,0.02-0.17-0.09-0.33-0.06
							c-0.16,0.03-0.14,0.14-0.3,0.16c-0.16,0.03-0.18-0.09-0.34-0.06s-0.41-0.04-0.28,0.06c0.39,0.29,0.39,0.29,0.83,0.48
							c0.45,0.19,0.49,0.09,0.94,0.28c0.45,0.19,0.4,0.3,0.85,0.49c0.45,0.19,0.49,0.09,0.93,0.28c0.44,0.19,0.4,0.3,0.84,0.49
							c0.45,0.19,0.49,0.09,0.94,0.28c0.45,0.19,0.4,0.3,0.85,0.49c0.45,0.19,0.49,0.09,0.94,0.28s0.39,0.36,0.86,0.49
							c0.15,0.04,0.16-0.14,0.32-0.16c0.16-0.02,0.17,0.09,0.33,0.06c0.16-0.02,0.14-0.14,0.3-0.16c0.16-0.02,0.18,0.09,0.33,0.06
							c0.16-0.02,0.14-0.14,0.3-0.16c0.16-0.02,0.17,0.09,0.33,0.06c0.16-0.03,0.14-0.14,0.3-0.16c0.16-0.03,0.16,0.05,0.33,0.06
							C42.85,34.48,43.09,34.51,42.96,34.41z"/>
					</g>
					<g>
						<path fill="#FFFFFF" d="M36.72,42.9c-0.45,0.18-0.44-0.3-0.89-0.49c-0.45-0.19-0.49-0.09-0.94-0.28
							c-0.45-0.19-0.4-0.3-0.85-0.49c-0.45-0.19-0.49-0.09-0.93-0.28c-0.44-0.19-0.4-0.3-0.84-0.49c-0.45-0.19-0.49-0.09-0.94-0.28
							c-0.45-0.19-0.4-0.3-0.85-0.49c-0.45-0.19-0.49-0.09-0.94-0.28c-0.45-0.19-0.64-0.01-0.82-0.46
							c-0.18-0.45,0.09-0.45,0.28-0.89c0.19-0.45,0.3-0.4,0.49-0.85c0.19-0.45,0.09-0.49,0.28-0.94c0.19-0.45,0.3-0.4,0.49-0.85
							c0.19-0.44,0.09-0.49,0.28-0.93c0.19-0.45,0.3-0.4,0.49-0.85c0.19-0.45,0.09-0.49,0.28-0.94c0.19-0.45,0.3-0.4,0.49-0.85
							c0.19-0.45-0.14-0.79,0.31-0.97c0.45-0.18,0.44,0.3,0.89,0.49c0.45,0.19,0.49,0.09,0.94,0.28c0.45,0.19,0.4,0.3,0.85,0.49
							c0.45,0.19,0.49,0.09,0.93,0.28c0.44,0.19,0.4,0.3,0.84,0.49c0.45,0.19,0.49,0.09,0.94,0.28c0.45,0.19,0.4,0.3,0.85,0.49
							c0.45,0.19,0.49,0.09,0.94,0.28s0.64,0.01,0.82,0.46c0.18,0.45-0.09,0.45-0.28,0.89c-0.19,0.45-0.3,0.4-0.49,0.85
							c-0.19,0.45-0.09,0.49-0.28,0.94c-0.19,0.45-0.3,0.4-0.49,0.85c-0.19,0.44-0.09,0.49-0.28,0.93c-0.19,0.45-0.3,0.4-0.49,0.85
							c-0.19,0.45-0.09,0.49-0.28,0.94c-0.19,0.45-0.41,0.38-0.49,0.86C36.93,42.48,37.17,42.72,36.72,42.9z"/>
					</g>
					<g>
						<path fill="#BCBEC0" d="M36.75,42.86c-0.01,0.16,0.11,0.03,0.26,0c0.16-0.02,0.14-0.14,0.29-0.16
							c0.16-0.03,0.17,0.09,0.33,0.06c0.16-0.03,0.14-0.14,0.3-0.16c0.16-0.03,0.18,0.09,0.33,0.06c0.16-0.02,0.14-0.14,0.29-0.16
							c0.16-0.03,0.18,0.09,0.34,0.06c0.16-0.03,0.14-0.14,0.3-0.16s0.28,0.17,0.37,0.04c0.29-0.39,0.09-0.5,0.29-0.95
							c0.19-0.45,0.3-0.4,0.49-0.85c0.19-0.45,0.09-0.49,0.28-0.94c0.19-0.45,0.3-0.4,0.49-0.85c0.19-0.44,0.09-0.49,0.28-0.93
							c0.19-0.45,0.3-0.4,0.49-0.85c0.19-0.45,0.09-0.49,0.28-0.94c0.19-0.45,0.3-0.4,0.49-0.85s0.23-0.44,0.28-0.92
							c0.01-0.16-0.11-0.03-0.26,0c-0.16,0.02-0.14,0.14-0.29,0.16c-0.16,0.03-0.17-0.09-0.33-0.06c-0.16,0.03-0.14,0.14-0.3,0.16
							c-0.16,0.03-0.18-0.09-0.33-0.06c-0.16,0.02-0.14,0.14-0.29,0.16c-0.16,0.03-0.18-0.09-0.34-0.06
							c-0.16,0.03-0.14,0.14-0.3,0.16s-0.28-0.17-0.37-0.04c-0.29,0.39-0.09,0.5-0.29,0.95c-0.19,0.45-0.3,0.4-0.49,0.85
							c-0.19,0.45-0.09,0.49-0.28,0.94c-0.19,0.45-0.3,0.4-0.49,0.85c-0.19,0.44-0.09,0.49-0.28,0.93c-0.19,0.45-0.3,0.4-0.49,0.85
							c-0.19,0.45-0.09,0.49-0.28,0.94c-0.19,0.45-0.27,0.41-0.49,0.85C36.81,42.36,36.8,42.37,36.75,42.86z"/>
					</g>
				</g>
			</g>
		</g>
	</g>
</g>
</svg>
