<?xml version="1.0" encoding="utf-8"?>
<!-- Generator: Adobe Illustrator 23.0.0, SVG Export Plug-In . SVG Version: 6.00 Build 0)  -->
<svg version="1.1" id="Layer_1" xmlns="http://www.w3.org/2000/svg" xmlns:xlink="http://www.w3.org/1999/xlink" x="0px" y="0px"
	 viewBox="0 0 75.01 26.03" enable-background="new 0 0 75.01 26.03" xml:space="preserve">
<g>
	<defs>
		
			<rect id="SVGID_738_" x="21.65" y="-23.71" transform="matrix(-1.836970e-16 1 -1 -1.836970e-16 51.296 -23.914)" width="31.91" height="74.81"/>
	</defs>
	<clipPath id="SVGID_2_">
		<use xlink:href="#SVGID_738_"  overflow="visible"/>
	</clipPath>
	<g clip-path="url(#SVGID_2_)">
		<defs>
			<path id="SVGID_740_" d="M0.95,8.24c5.36-0.2,8.07,4.35,16.07,11.45c7.08,3.45,14.83,4.24,22.01,0.67
				c6.37-3.17,11.03-8.69,17.34-11.98c1.56-0.81,3.3-1.48,5.05-1.3c2.97,0.3,5.12,2.82,7.12,5.04c1.34,1.49,2.91,3.02,4.84,3.69
				c0.84,0.29,3.13-0.02,3.25,1.07c0.06,0.57-1.27,1.96-1.58,2.36c-2.72,3.44-6.6,5.96-11.03,6.31c-5.06,0.4-9.92-1.9-13.95-4.75
				C32,8.05,34.56,0.26,29.34,2.04c-3.57,1.22-6.27,6.05-8.44,8.86c-2.49,3.24-5.54,8.11-9.58,9.58c-3.24,1.18-8.47,1.41-11.18-1.13
				"/>
		</defs>
		<clipPath id="SVGID_3_">
			<use xlink:href="#SVGID_740_"  overflow="visible"/>
		</clipPath>
		
			<line clip-path="url(#SVGID_3_)" fill="none" stroke="#27AAE1" stroke-miterlimit="10" x1="75.46" y1="-7.85" x2="77.65" y2="37.93"/>
		
			<line clip-path="url(#SVGID_3_)" fill="none" stroke="#27AAE1" stroke-width="0.5" stroke-miterlimit="10" x1="72.63" y1="-7.72" x2="74.81" y2="38.06"/>
		
			<line clip-path="url(#SVGID_3_)" fill="none" stroke="#27AAE1" stroke-width="0.5" stroke-miterlimit="10" x1="69.8" y1="-7.58" x2="71.98" y2="38.2"/>
		
			<line clip-path="url(#SVGID_3_)" fill="none" stroke="#27AAE1" stroke-width="0.5" stroke-miterlimit="10" x1="66.97" y1="-7.45" x2="69.15" y2="38.33"/>
		
			<line clip-path="url(#SVGID_3_)" fill="none" stroke="#27AAE1" stroke-width="0.5" stroke-miterlimit="10" x1="58.48" y1="-7.04" x2="60.66" y2="38.74"/>
		
			<line clip-path="url(#SVGID_3_)" fill="none" stroke="#27AAE1" stroke-width="0.5" stroke-miterlimit="10" x1="55.64" y1="-6.91" x2="57.83" y2="38.87"/>
		
			<line clip-path="url(#SVGID_3_)" fill="none" stroke="#27AAE1" stroke-width="0.5" stroke-miterlimit="10" x1="47.15" y1="-6.5" x2="49.33" y2="39.27"/>
		
			<line clip-path="url(#SVGID_3_)" fill="none" stroke="#27AAE1" stroke-width="0.5" stroke-miterlimit="10" x1="44.32" y1="-6.37" x2="46.5" y2="39.41"/>
		
			<line clip-path="url(#SVGID_3_)" fill="none" stroke="#27AAE1" stroke-width="0.5" stroke-miterlimit="10" x1="52.81" y1="-6.77" x2="54.99" y2="39"/>
		
			<line clip-path="url(#SVGID_3_)" fill="none" stroke="#27AAE1" stroke-width="0.5" stroke-miterlimit="10" x1="49.98" y1="-6.64" x2="52.16" y2="39.14"/>
		
			<line clip-path="url(#SVGID_3_)" fill="none" stroke="#27AAE1" stroke-width="0.5" stroke-miterlimit="10" x1="64.14" y1="-7.31" x2="66.32" y2="38.47"/>
		
			<line clip-path="url(#SVGID_3_)" fill="none" stroke="#27AAE1" stroke-width="0.5" stroke-miterlimit="10" x1="61.31" y1="-7.18" x2="63.49" y2="38.6"/>
		
			<line clip-path="url(#SVGID_3_)" fill="none" stroke="#27AAE1" stroke-width="0.5" stroke-miterlimit="10" x1="41.49" y1="-6.23" x2="43.67" y2="39.54"/>
		
			<line clip-path="url(#SVGID_3_)" fill="none" stroke="#27AAE1" stroke-width="0.5" stroke-miterlimit="10" x1="38.66" y1="-6.1" x2="40.84" y2="39.68"/>
		
			<line clip-path="url(#SVGID_3_)" fill="none" stroke="#27AAE1" stroke-width="0.5" stroke-miterlimit="10" x1="35.82" y1="-5.96" x2="38.01" y2="39.81"/>
		
			<line clip-path="url(#SVGID_3_)" fill="none" stroke="#27AAE1" stroke-width="0.5" stroke-miterlimit="10" x1="32.99" y1="-5.83" x2="35.17" y2="39.95"/>
		
			<line clip-path="url(#SVGID_3_)" fill="none" stroke="#27AAE1" stroke-width="0.5" stroke-miterlimit="10" x1="24.5" y1="-5.42" x2="26.68" y2="40.35"/>
		
			<line clip-path="url(#SVGID_3_)" fill="none" stroke="#27AAE1" stroke-width="0.5" stroke-miterlimit="10" x1="21.67" y1="-5.29" x2="23.85" y2="40.49"/>
		
			<line clip-path="url(#SVGID_3_)" fill="none" stroke="#27AAE1" stroke-width="0.5" stroke-miterlimit="10" x1="13.17" y1="-4.88" x2="15.35" y2="40.89"/>
		
			<line clip-path="url(#SVGID_3_)" fill="none" stroke="#27AAE1" stroke-width="0.5" stroke-miterlimit="10" x1="10.34" y1="-4.75" x2="12.52" y2="41.03"/>
		
			<line clip-path="url(#SVGID_3_)" fill="none" stroke="#27AAE1" stroke-width="0.5" stroke-miterlimit="10" x1="18.84" y1="-5.15" x2="21.02" y2="40.62"/>
		
			<line clip-path="url(#SVGID_3_)" fill="none" stroke="#27AAE1" stroke-width="0.5" stroke-miterlimit="10" x1="16" y1="-5.02" x2="18.19" y2="40.76"/>
		
			<line clip-path="url(#SVGID_3_)" fill="none" stroke="#27AAE1" stroke-width="0.5" stroke-miterlimit="10" x1="30.16" y1="-5.69" x2="32.34" y2="40.08"/>
		
			<line clip-path="url(#SVGID_3_)" fill="none" stroke="#27AAE1" stroke-width="0.5" stroke-miterlimit="10" x1="27.33" y1="-5.56" x2="29.51" y2="40.22"/>
		
			<line clip-path="url(#SVGID_3_)" fill="none" stroke="#27AAE1" stroke-width="0.5" stroke-miterlimit="10" x1="4.68" y1="-4.48" x2="6.86" y2="41.3"/>
		
			<line clip-path="url(#SVGID_3_)" fill="none" stroke="#27AAE1" stroke-width="0.5" stroke-miterlimit="10" x1="1.85" y1="-4.34" x2="4.03" y2="41.43"/>
		
			<line clip-path="url(#SVGID_3_)" fill="none" stroke="#27AAE1" stroke-width="0.5" stroke-miterlimit="10" x1="-0.98" y1="-4.21" x2="1.2" y2="41.57"/>
		
			<line clip-path="url(#SVGID_3_)" fill="none" stroke="#27AAE1" stroke-width="0.5" stroke-miterlimit="10" x1="7.51" y1="-4.61" x2="9.69" y2="41.16"/>
		<use xlink:href="#SVGID_740_"  overflow="visible" fill="none" stroke="#27AAE1" stroke-miterlimit="10"/>
	</g>
	<g clip-path="url(#SVGID_2_)">
		<defs>
			<path id="SVGID_742_" d="M1.27,7.05c5.36-0.2,8.07,4.35,16.07,11.45c7.08,3.45,14.83,4.24,22.01,0.67
				c6.37-3.17,11.03-8.69,17.34-11.98c1.56-0.81,3.3-1.48,5.05-1.3c2.97,0.3,5.12,2.82,7.12,5.04c1.34,1.49,2.91,3.02,4.84,3.69
				c0.84,0.29,3.13-0.02,3.25,1.07c0.06,0.57-1.27,1.96-1.58,2.36c-2.72,3.44-6.6,5.96-11.03,6.31c-5.06,0.4-9.92-1.9-13.95-4.75
				C32.32,6.86,34.88-0.93,29.66,0.85c-3.57,1.22-6.27,6.05-8.44,8.86c-2.49,3.24-5.54,8.11-9.58,9.58
				C8.4,20.47,3.17,20.7,0.46,18.15"/>
		</defs>
		<clipPath id="SVGID_5_">
			<use xlink:href="#SVGID_742_"  overflow="visible"/>
		</clipPath>
		
			<line clip-path="url(#SVGID_5_)" fill="none" stroke="#2B3990" stroke-width="0.5" stroke-miterlimit="10" x1="72.95" y1="-8.91" x2="75.13" y2="36.87"/>
		
			<line clip-path="url(#SVGID_5_)" fill="none" stroke="#2B3990" stroke-width="0.5" stroke-miterlimit="10" x1="70.12" y1="-8.77" x2="72.3" y2="37.01"/>
		
			<line clip-path="url(#SVGID_5_)" fill="none" stroke="#2B3990" stroke-width="0.5" stroke-miterlimit="10" x1="67.29" y1="-8.64" x2="69.47" y2="37.14"/>
		
			<line clip-path="url(#SVGID_5_)" fill="none" stroke="#2B3990" stroke-width="0.5" stroke-miterlimit="10" x1="58.79" y1="-8.23" x2="60.98" y2="37.55"/>
		
			<line clip-path="url(#SVGID_5_)" fill="none" stroke="#2B3990" stroke-width="0.5" stroke-miterlimit="10" x1="55.96" y1="-8.1" x2="58.14" y2="37.68"/>
		
			<line clip-path="url(#SVGID_5_)" fill="none" stroke="#2B3990" stroke-width="0.5" stroke-miterlimit="10" x1="47.47" y1="-7.69" x2="49.65" y2="38.09"/>
		
			<line clip-path="url(#SVGID_5_)" fill="none" stroke="#2B3990" stroke-width="0.5" stroke-miterlimit="10" x1="44.64" y1="-7.56" x2="46.82" y2="38.22"/>
		
			<line clip-path="url(#SVGID_5_)" fill="none" stroke="#2B3990" stroke-width="0.5" stroke-miterlimit="10" x1="53.13" y1="-7.96" x2="55.31" y2="37.82"/>
		
			<line clip-path="url(#SVGID_5_)" fill="none" stroke="#2B3990" stroke-width="0.5" stroke-miterlimit="10" x1="50.3" y1="-7.83" x2="52.48" y2="37.95"/>
		
			<line clip-path="url(#SVGID_5_)" fill="none" stroke="#2B3990" stroke-width="0.5" stroke-miterlimit="10" x1="64.46" y1="-8.5" x2="66.64" y2="37.28"/>
		
			<line clip-path="url(#SVGID_5_)" fill="none" stroke="#2B3990" stroke-width="0.5" stroke-miterlimit="10" x1="61.63" y1="-8.37" x2="63.81" y2="37.41"/>
		
			<line clip-path="url(#SVGID_5_)" fill="none" stroke="#2B3990" stroke-width="0.5" stroke-miterlimit="10" x1="41.81" y1="-7.42" x2="43.99" y2="38.36"/>
		
			<line clip-path="url(#SVGID_5_)" fill="none" stroke="#2B3990" stroke-width="0.5" stroke-miterlimit="10" x1="38.97" y1="-7.29" x2="41.16" y2="38.49"/>
		
			<line clip-path="url(#SVGID_5_)" fill="none" stroke="#2B3990" stroke-width="0.5" stroke-miterlimit="10" x1="36.14" y1="-7.15" x2="38.32" y2="38.63"/>
		
			<line clip-path="url(#SVGID_5_)" fill="none" stroke="#2B3990" stroke-width="0.5" stroke-miterlimit="10" x1="33.31" y1="-7.02" x2="35.49" y2="38.76"/>
		
			<line clip-path="url(#SVGID_5_)" fill="none" stroke="#2B3990" stroke-width="0.5" stroke-miterlimit="10" x1="24.82" y1="-6.61" x2="27" y2="39.17"/>
		
			<line clip-path="url(#SVGID_5_)" fill="none" stroke="#2B3990" stroke-width="0.5" stroke-miterlimit="10" x1="21.99" y1="-6.48" x2="24.17" y2="39.3"/>
		
			<line clip-path="url(#SVGID_5_)" fill="none" stroke="#2B3990" stroke-width="0.5" stroke-miterlimit="10" x1="13.49" y1="-6.07" x2="15.67" y2="39.71"/>
		
			<line clip-path="url(#SVGID_5_)" fill="none" stroke="#2B3990" stroke-width="0.5" stroke-miterlimit="10" x1="10.66" y1="-5.94" x2="12.84" y2="39.84"/>
		
			<line clip-path="url(#SVGID_5_)" fill="none" stroke="#2B3990" stroke-width="0.5" stroke-miterlimit="10" x1="19.15" y1="-6.34" x2="21.34" y2="39.44"/>
		
			<line clip-path="url(#SVGID_5_)" fill="none" stroke="#2B3990" stroke-width="0.5" stroke-miterlimit="10" x1="16.32" y1="-6.21" x2="18.5" y2="39.57"/>
		
			<line clip-path="url(#SVGID_5_)" fill="none" stroke="#2B3990" stroke-width="0.5" stroke-miterlimit="10" x1="30.48" y1="-6.88" x2="32.66" y2="38.9"/>
		
			<line clip-path="url(#SVGID_5_)" fill="none" stroke="#2B3990" stroke-width="0.5" stroke-miterlimit="10" x1="27.65" y1="-6.75" x2="29.83" y2="39.03"/>
		
			<line clip-path="url(#SVGID_5_)" fill="none" stroke="#2B3990" stroke-width="0.5" stroke-miterlimit="10" x1="5" y1="-5.67" x2="7.18" y2="40.11"/>
		
			<line clip-path="url(#SVGID_5_)" fill="none" stroke="#2B3990" stroke-width="0.5" stroke-miterlimit="10" x1="2.17" y1="-5.53" x2="4.35" y2="40.24"/>
		
			<line clip-path="url(#SVGID_5_)" fill="none" stroke="#2B3990" stroke-width="0.5" stroke-miterlimit="10" x1="-0.67" y1="-5.4" x2="1.52" y2="40.38"/>
		
			<line clip-path="url(#SVGID_5_)" fill="none" stroke="#2B3990" stroke-width="0.5" stroke-miterlimit="10" x1="7.83" y1="-5.8" x2="10.01" y2="39.97"/>
		<use xlink:href="#SVGID_742_"  overflow="visible" fill="none" stroke="#2B3990" stroke-miterlimit="10"/>
	</g>
</g>
</svg>
