<?xml version="1.0" encoding="utf-8"?>
<!-- Generator: Adobe Illustrator 23.0.0, SVG Export Plug-In . SVG Version: 6.00 Build 0)  -->
<svg version="1.1" id="Layer_1" xmlns="http://www.w3.org/2000/svg" xmlns:xlink="http://www.w3.org/1999/xlink" x="0px" y="0px"
	 viewBox="0 0 207.15 26.43" enable-background="new 0 0 207.15 26.43" xml:space="preserve">
<g>
	<g>
		<g>
			<path fill="none" stroke="#27AAE1" stroke-miterlimit="10" d="M74.05,20.61c0.94-0.82,1.89-1.61,2.89-2.35
				c0.32-0.24,0.65-0.47,0.97-0.72c4.87-3.74,11.73-4.92,17.49-2.66c3.82,1.5,7.24,4.36,11.34,4.56c4.56,0.22,8.55-2.99,12.91-3.97
				c4.85-1.09,9.98-0.97,14.75,0.44c5.67,1.67,10.91,5.07,16.8,5.44c7.45,0.47,14.25-3.93,21.51-5.64
				c4.28-1.01,8.77-1.08,13.08-0.21c3.56,0.72,6.98,2.08,10.55,2.74c3.58,0.66,7.51,0.53,10.53-1.5"/>
			<path fill="none" stroke="#27AAE1" stroke-miterlimit="10" d="M74.05,16.3c1.75,0.13,3.53-0.02,5.24-0.43
				c1.03-0.25,1.99-0.72,3.01-1.03c1.08-0.33,2.18-0.61,3.3-0.81c1.16-0.21,2.3-0.17,3.46-0.32"/>
		</g>
		<g>
			<path fill="none" stroke="#2B3990" stroke-miterlimit="10" d="M73.98,19.92c0.67-0.64,1.17-1.38,1.86-1.99
				c0.66-0.57,1.38-1.06,2.07-1.59c4.87-3.74,11.73-4.92,17.49-2.66c3.82,1.5,7.24,4.36,11.34,4.56c4.56,0.22,8.55-2.99,12.91-3.97
				c4.85-1.09,9.98-0.97,14.75,0.44c5.67,1.67,10.91,5.07,16.8,5.44c7.45,0.47,14.25-3.93,21.51-5.64
				c4.28-1.01,8.77-1.08,13.08-0.21c3.56,0.72,6.98,2.08,10.55,2.74s7.51,0.53,10.53-1.5"/>
			<path fill="none" stroke="#2B3990" stroke-miterlimit="10" d="M73.91,14.99c0.24,0.03,0.48,0.08,0.72,0.11
				c0.18,0.03,0.35,0,0.54,0.01c0.46,0.04,0.93,0.02,1.37-0.02c0.93-0.07,1.84-0.21,2.75-0.43c1.03-0.25,1.99-0.72,3.01-1.03
				c1.08-0.33,2.18-0.61,3.3-0.81c1.16-0.21,2.3-0.17,3.46-0.32"/>
		</g>
	</g>
	<g>
		<defs>
			
				<rect id="SVGID_756_" x="21.67" y="-23.39" transform="matrix(-1.836970e-16 1 -1 -1.836970e-16 51.6363 -23.615)" width="31.91" height="74.81"/>
		</defs>
		<clipPath id="SVGID_2_">
			<use xlink:href="#SVGID_756_"  overflow="visible"/>
		</clipPath>
		<g clip-path="url(#SVGID_2_)">
			<defs>
				<path id="SVGID_758_" d="M0.97,8.56c5.36-0.2,8.07,4.35,16.07,11.45c7.08,3.45,14.83,4.24,22.01,0.67
					c6.37-3.17,11.03-8.69,17.34-11.98c1.56-0.81,3.3-1.48,5.05-1.3c2.97,0.3,5.12,2.82,7.12,5.04c1.34,1.49,2.91,3.02,4.84,3.69
					c0.84,0.29,3.13-0.02,3.25,1.07c0.06,0.57-1.27,1.96-1.58,2.36c-2.72,3.44-6.6,5.96-11.03,6.31c-5.06,0.4-9.92-1.9-13.95-4.75
					C32.02,8.37,34.58,0.58,29.36,2.36c-3.57,1.22-6.27,6.05-8.44,8.86c-2.49,3.24-5.54,8.11-9.58,9.58
					c-3.24,1.18-8.47,1.41-11.18-1.13"/>
			</defs>
			<clipPath id="SVGID_3_">
				<use xlink:href="#SVGID_758_"  overflow="visible"/>
			</clipPath>
			
				<line clip-path="url(#SVGID_3_)" fill="none" stroke="#27AAE1" stroke-miterlimit="10" x1="75.48" y1="-7.53" x2="77.67" y2="38.25"/>
			
				<line clip-path="url(#SVGID_3_)" fill="none" stroke="#27AAE1" stroke-width="0.5" stroke-miterlimit="10" x1="72.65" y1="-7.4" x2="74.83" y2="38.38"/>
			
				<line clip-path="url(#SVGID_3_)" fill="none" stroke="#27AAE1" stroke-width="0.5" stroke-miterlimit="10" x1="69.82" y1="-7.26" x2="72" y2="38.52"/>
			
				<line clip-path="url(#SVGID_3_)" fill="none" stroke="#27AAE1" stroke-width="0.5" stroke-miterlimit="10" x1="66.99" y1="-7.13" x2="69.17" y2="38.65"/>
			
				<line clip-path="url(#SVGID_3_)" fill="none" stroke="#27AAE1" stroke-width="0.5" stroke-miterlimit="10" x1="58.5" y1="-6.72" x2="60.68" y2="39.05"/>
			
				<line clip-path="url(#SVGID_3_)" fill="none" stroke="#27AAE1" stroke-width="0.5" stroke-miterlimit="10" x1="55.66" y1="-6.59" x2="57.85" y2="39.19"/>
			
				<line clip-path="url(#SVGID_3_)" fill="none" stroke="#27AAE1" stroke-width="0.5" stroke-miterlimit="10" x1="47.17" y1="-6.18" x2="49.35" y2="39.59"/>
			
				<line clip-path="url(#SVGID_3_)" fill="none" stroke="#27AAE1" stroke-width="0.5" stroke-miterlimit="10" x1="44.34" y1="-6.05" x2="46.52" y2="39.73"/>
			
				<line clip-path="url(#SVGID_3_)" fill="none" stroke="#27AAE1" stroke-width="0.5" stroke-miterlimit="10" x1="52.83" y1="-6.45" x2="55.01" y2="39.32"/>
			
				<line clip-path="url(#SVGID_3_)" fill="none" stroke="#27AAE1" stroke-width="0.5" stroke-miterlimit="10" x1="50" y1="-6.32" x2="52.18" y2="39.46"/>
			
				<line clip-path="url(#SVGID_3_)" fill="none" stroke="#27AAE1" stroke-width="0.5" stroke-miterlimit="10" x1="64.16" y1="-6.99" x2="66.34" y2="38.78"/>
			
				<line clip-path="url(#SVGID_3_)" fill="none" stroke="#27AAE1" stroke-width="0.5" stroke-miterlimit="10" x1="61.33" y1="-6.86" x2="63.51" y2="38.92"/>
			
				<line clip-path="url(#SVGID_3_)" fill="none" stroke="#27AAE1" stroke-width="0.5" stroke-miterlimit="10" x1="41.51" y1="-5.91" x2="43.69" y2="39.86"/>
			
				<line clip-path="url(#SVGID_3_)" fill="none" stroke="#27AAE1" stroke-width="0.5" stroke-miterlimit="10" x1="38.68" y1="-5.78" x2="40.86" y2="40"/>
			
				<line clip-path="url(#SVGID_3_)" fill="none" stroke="#27AAE1" stroke-width="0.5" stroke-miterlimit="10" x1="35.84" y1="-5.64" x2="38.03" y2="40.13"/>
			
				<line clip-path="url(#SVGID_3_)" fill="none" stroke="#27AAE1" stroke-width="0.5" stroke-miterlimit="10" x1="33.01" y1="-5.51" x2="35.19" y2="40.27"/>
			
				<line clip-path="url(#SVGID_3_)" fill="none" stroke="#27AAE1" stroke-width="0.5" stroke-miterlimit="10" x1="24.52" y1="-5.1" x2="26.7" y2="40.67"/>
			
				<line clip-path="url(#SVGID_3_)" fill="none" stroke="#27AAE1" stroke-width="0.5" stroke-miterlimit="10" x1="21.69" y1="-4.97" x2="23.87" y2="40.81"/>
			
				<line clip-path="url(#SVGID_3_)" fill="none" stroke="#27AAE1" stroke-width="0.5" stroke-miterlimit="10" x1="13.19" y1="-4.56" x2="15.37" y2="41.21"/>
			
				<line clip-path="url(#SVGID_3_)" fill="none" stroke="#27AAE1" stroke-width="0.5" stroke-miterlimit="10" x1="10.36" y1="-4.43" x2="12.54" y2="41.35"/>
			
				<line clip-path="url(#SVGID_3_)" fill="none" stroke="#27AAE1" stroke-width="0.5" stroke-miterlimit="10" x1="18.86" y1="-4.83" x2="21.04" y2="40.94"/>
			
				<line clip-path="url(#SVGID_3_)" fill="none" stroke="#27AAE1" stroke-width="0.5" stroke-miterlimit="10" x1="16.02" y1="-4.7" x2="18.21" y2="41.08"/>
			
				<line clip-path="url(#SVGID_3_)" fill="none" stroke="#27AAE1" stroke-width="0.5" stroke-miterlimit="10" x1="30.18" y1="-5.37" x2="32.36" y2="40.4"/>
			
				<line clip-path="url(#SVGID_3_)" fill="none" stroke="#27AAE1" stroke-width="0.5" stroke-miterlimit="10" x1="27.35" y1="-5.24" x2="29.53" y2="40.54"/>
			
				<line clip-path="url(#SVGID_3_)" fill="none" stroke="#27AAE1" stroke-width="0.5" stroke-miterlimit="10" x1="4.7" y1="-4.16" x2="6.88" y2="41.62"/>
			
				<line clip-path="url(#SVGID_3_)" fill="none" stroke="#27AAE1" stroke-width="0.5" stroke-miterlimit="10" x1="1.87" y1="-4.02" x2="4.05" y2="41.75"/>
			
				<line clip-path="url(#SVGID_3_)" fill="none" stroke="#27AAE1" stroke-width="0.5" stroke-miterlimit="10" x1="-0.96" y1="-3.89" x2="1.22" y2="41.89"/>
			
				<line clip-path="url(#SVGID_3_)" fill="none" stroke="#27AAE1" stroke-width="0.5" stroke-miterlimit="10" x1="7.53" y1="-4.29" x2="9.71" y2="41.48"/>
			<use xlink:href="#SVGID_758_"  overflow="visible" fill="none" stroke="#27AAE1" stroke-miterlimit="10"/>
		</g>
		<g clip-path="url(#SVGID_2_)">
			<defs>
				<path id="SVGID_760_" d="M1.29,7.37c5.36-0.2,8.07,4.35,16.07,11.45c7.08,3.45,14.83,4.24,22.01,0.67
					c6.37-3.17,11.03-8.69,17.34-11.98c1.56-0.81,3.3-1.48,5.05-1.3c2.97,0.3,5.12,2.82,7.12,5.04c1.34,1.49,2.91,3.02,4.84,3.69
					c0.84,0.29,3.13-0.02,3.25,1.07c0.06,0.57-1.27,1.96-1.58,2.36c-2.72,3.44-6.6,5.96-11.03,6.31c-5.06,0.4-9.92-1.9-13.95-4.75
					C32.34,7.18,34.9-0.61,29.68,1.17c-3.57,1.22-6.27,6.05-8.44,8.86c-2.49,3.24-5.54,8.11-9.58,9.58
					c-3.24,1.18-8.47,1.41-11.18-1.13"/>
			</defs>
			<clipPath id="SVGID_5_">
				<use xlink:href="#SVGID_760_"  overflow="visible"/>
			</clipPath>
			
				<line clip-path="url(#SVGID_5_)" fill="none" stroke="#2B3990" stroke-miterlimit="10" x1="75.8" y1="-8.72" x2="77.99" y2="37.06"/>
			
				<line clip-path="url(#SVGID_5_)" fill="none" stroke="#2B3990" stroke-width="0.5" stroke-miterlimit="10" x1="72.97" y1="-8.59" x2="75.15" y2="37.19"/>
			
				<line clip-path="url(#SVGID_5_)" fill="none" stroke="#2B3990" stroke-width="0.5" stroke-miterlimit="10" x1="70.14" y1="-8.45" x2="72.32" y2="37.33"/>
			
				<line clip-path="url(#SVGID_5_)" fill="none" stroke="#2B3990" stroke-width="0.5" stroke-miterlimit="10" x1="67.31" y1="-8.32" x2="69.49" y2="37.46"/>
			
				<line clip-path="url(#SVGID_5_)" fill="none" stroke="#2B3990" stroke-width="0.5" stroke-miterlimit="10" x1="58.82" y1="-7.91" x2="61" y2="37.87"/>
			
				<line clip-path="url(#SVGID_5_)" fill="none" stroke="#2B3990" stroke-width="0.5" stroke-miterlimit="10" x1="55.98" y1="-7.78" x2="58.17" y2="38"/>
			
				<line clip-path="url(#SVGID_5_)" fill="none" stroke="#2B3990" stroke-width="0.5" stroke-miterlimit="10" x1="47.49" y1="-7.37" x2="49.67" y2="38.41"/>
			
				<line clip-path="url(#SVGID_5_)" fill="none" stroke="#2B3990" stroke-width="0.5" stroke-miterlimit="10" x1="44.66" y1="-7.24" x2="46.84" y2="38.54"/>
			
				<line clip-path="url(#SVGID_5_)" fill="none" stroke="#2B3990" stroke-width="0.5" stroke-miterlimit="10" x1="53.15" y1="-7.64" x2="55.33" y2="38.14"/>
			
				<line clip-path="url(#SVGID_5_)" fill="none" stroke="#2B3990" stroke-width="0.5" stroke-miterlimit="10" x1="50.32" y1="-7.51" x2="52.5" y2="38.27"/>
			
				<line clip-path="url(#SVGID_5_)" fill="none" stroke="#2B3990" stroke-width="0.5" stroke-miterlimit="10" x1="64.48" y1="-8.18" x2="66.66" y2="37.6"/>
			
				<line clip-path="url(#SVGID_5_)" fill="none" stroke="#2B3990" stroke-width="0.5" stroke-miterlimit="10" x1="61.65" y1="-8.05" x2="63.83" y2="37.73"/>
			
				<line clip-path="url(#SVGID_5_)" fill="none" stroke="#2B3990" stroke-width="0.5" stroke-miterlimit="10" x1="41.83" y1="-7.1" x2="44.01" y2="38.68"/>
			
				<line clip-path="url(#SVGID_5_)" fill="none" stroke="#2B3990" stroke-width="0.5" stroke-miterlimit="10" x1="39" y1="-6.97" x2="41.18" y2="38.81"/>
			
				<line clip-path="url(#SVGID_5_)" fill="none" stroke="#2B3990" stroke-width="0.5" stroke-miterlimit="10" x1="36.16" y1="-6.83" x2="38.35" y2="38.95"/>
			
				<line clip-path="url(#SVGID_5_)" fill="none" stroke="#2B3990" stroke-width="0.5" stroke-miterlimit="10" x1="33.33" y1="-6.7" x2="35.51" y2="39.08"/>
			
				<line clip-path="url(#SVGID_5_)" fill="none" stroke="#2B3990" stroke-width="0.5" stroke-miterlimit="10" x1="24.84" y1="-6.29" x2="27.02" y2="39.49"/>
			
				<line clip-path="url(#SVGID_5_)" fill="none" stroke="#2B3990" stroke-width="0.5" stroke-miterlimit="10" x1="22.01" y1="-6.16" x2="24.19" y2="39.62"/>
			
				<line clip-path="url(#SVGID_5_)" fill="none" stroke="#2B3990" stroke-width="0.5" stroke-miterlimit="10" x1="13.51" y1="-5.75" x2="15.69" y2="40.02"/>
			
				<line clip-path="url(#SVGID_5_)" fill="none" stroke="#2B3990" stroke-width="0.5" stroke-miterlimit="10" x1="10.68" y1="-5.62" x2="12.86" y2="40.16"/>
			
				<line clip-path="url(#SVGID_5_)" fill="none" stroke="#2B3990" stroke-width="0.5" stroke-miterlimit="10" x1="19.18" y1="-6.02" x2="21.36" y2="39.75"/>
			
				<line clip-path="url(#SVGID_5_)" fill="none" stroke="#2B3990" stroke-width="0.5" stroke-miterlimit="10" x1="16.34" y1="-5.89" x2="18.53" y2="39.89"/>
			
				<line clip-path="url(#SVGID_5_)" fill="none" stroke="#2B3990" stroke-width="0.5" stroke-miterlimit="10" x1="30.5" y1="-6.56" x2="32.68" y2="39.22"/>
			
				<line clip-path="url(#SVGID_5_)" fill="none" stroke="#2B3990" stroke-width="0.5" stroke-miterlimit="10" x1="27.67" y1="-6.43" x2="29.85" y2="39.35"/>
			
				<line clip-path="url(#SVGID_5_)" fill="none" stroke="#2B3990" stroke-width="0.5" stroke-miterlimit="10" x1="5.02" y1="-5.35" x2="7.2" y2="40.43"/>
			
				<line clip-path="url(#SVGID_5_)" fill="none" stroke="#2B3990" stroke-width="0.5" stroke-miterlimit="10" x1="2.19" y1="-5.21" x2="4.37" y2="40.56"/>
			
				<line clip-path="url(#SVGID_5_)" fill="none" stroke="#2B3990" stroke-width="0.5" stroke-miterlimit="10" x1="-0.64" y1="-5.08" x2="1.54" y2="40.7"/>
			
				<line clip-path="url(#SVGID_5_)" fill="none" stroke="#2B3990" stroke-width="0.5" stroke-miterlimit="10" x1="7.85" y1="-5.48" x2="10.03" y2="40.29"/>
			<use xlink:href="#SVGID_760_"  overflow="visible" fill="none" stroke="#2B3990" stroke-miterlimit="10"/>
		</g>
	</g>
</g>
</svg>
