<?xml version="1.0" encoding="utf-8"?>
<!-- Generator: Adobe Illustrator 23.0.0, SVG Export Plug-In . SVG Version: 6.00 Build 0)  -->
<svg version="1.1" id="Layer_1" xmlns="http://www.w3.org/2000/svg" xmlns:xlink="http://www.w3.org/1999/xlink" x="0px" y="0px"
	 viewBox="0 0 28.88 15.12" enable-background="new 0 0 28.88 15.12" xml:space="preserve">
<g>
	<g>
		<g>
			<path fill="#E6E7E8" d="M0.33,8.84c0,0,5.53,6.27,12.35,6.27s12.35-6.27,12.35-6.27s-5.53-6.27-12.35-6.27S0.33,8.84,0.33,8.84z"
				/>
		</g>
		<g>
			<circle fill="#4E7582" cx="10.81" cy="7.99" r="6.6"/>
			<circle fill="#3C2415" cx="10.81" cy="8.35" r="1.41"/>
			<path fill="none" d="M0.33,8.84c0,0,5.53,6.27,12.35,6.27s12.35-6.27,12.35-6.27s-5.53-6.27-12.35-6.27S0.33,8.84,0.33,8.84z"/>
		</g>
		<g>
			<path fill="#3C2415" d="M0,9.08c0.97-2.35,2.59-4.42,4.62-6.1c2.04-1.65,4.67-2.85,7.48-2.96c2.81-0.15,5.58,0.79,7.81,2.23
				c2.26,1.44,4.09,3.32,5.58,5.39L24.7,7.38c0.35-0.03,0.79-0.13,1.18-0.23c0.4-0.11,0.79-0.25,1.16-0.44
				c0.75-0.36,1.42-0.92,1.84-1.75c-0.03,0.46-0.14,0.93-0.37,1.37c-0.23,0.43-0.54,0.83-0.9,1.17c-0.36,0.33-0.77,0.63-1.19,0.88
				c-0.43,0.26-0.85,0.47-1.38,0.64l-0.35,0.11l-0.44-0.37c-0.94-0.78-1.87-1.53-2.82-2.24c-0.5-0.32-0.97-0.67-1.46-0.97
				c-0.5-0.29-0.98-0.62-1.49-0.86c-2.01-1.07-4.14-1.73-6.29-1.71C10.04,3,7.87,3.65,5.82,4.76C3.77,5.87,1.84,7.36,0,9.08z"/>
		</g>
	</g>
</g>
</svg>
