<?xml version="1.0" encoding="utf-8"?>
<!-- Generator: Adobe Illustrator 23.0.0, SVG Export Plug-In . SVG Version: 6.00 Build 0)  -->
<svg version="1.1" id="Layer_1" xmlns="http://www.w3.org/2000/svg" xmlns:xlink="http://www.w3.org/1999/xlink" x="0px" y="0px"
	 viewBox="0 0 85.28 62.02" enable-background="new 0 0 85.28 62.02" xml:space="preserve">
<g>
	<path fill="#C6A898" d="M48.46,58.79c-3.12,0.51-6.28,0.75-9.45,0.74c-2.76-0.01-5.72-0.38-8.4,0.05
		c-0.88,0.14-1.75,0.28-2.64,0.29c-1.24,0.02-2.46-0.22-3.68-0.46c-2.41-0.47-4.85-0.95-7.07-2.02c-1.27-0.61-2.45-1.41-3.61-2.23
		c-3.19-2.24-6.32-4.63-8.88-7.57c-0.62-0.72-1.22-1.48-1.67-2.31c-0.77-1.42-1.12-3.03-1.42-4.62c-0.38-1.95-0.71-3.95-0.44-5.92
		c0.22-1.63,0.85-3.18,1.58-4.65c1.35-2.72,3.07-5.23,4.96-7.61c8.1-10.21,18.25-18.72,31.28-21.52
		c18.56-3.99,41.58,10.92,44.69,22.39C87.95,38.97,70.54,55.18,48.46,58.79z"/>
	<path fill="#F6D2BA" d="M84.67,25.66c4.23,15.62-14.13,32.01-36.21,35.62C42,62.33,35.32,62.26,28.87,61.1
		c-5.84-1.05-11.7-2.99-16.64-6.35c-3.58-2.43-6.93-5.46-9.06-9.28C0.46,40.59,0.24,33.69,3.27,28.9c2.47-3.92,6.07-6.96,9.49-10.02
		c3.86-3.46,7.82-7.26,12.28-9.91c4.33-2.58,9.07-4.46,13.99-5.52C57.59-0.54,81.56,14.18,84.67,25.66z"/>
	<path fill="#FEE2D4" d="M73,17.33c0,0-13.11-9.51-26.33-9.77C31.54,7.28,20.34,17.9,20.34,17.9c-0.1-3.96,8.62-13.4,26.18-13.4
		C62.08,4.51,72.9,13.37,73,17.33z"/>
	<path fill="#FEE2D4" d="M10,28.34c-0.17,0.2-1.89,0.23-2.2,0.31c-1.66,0.45-3.17,1.37-4.3,2.68C2.06,33.01,0.75,35.79,1.2,38
		c0.49,2.38,2.26,4.79,4.94,4.52c1.28-0.13,3.95-1.34,3.86-2.98c-0.1-1.82-5.74-3.64-3.83-6.32S10,28.34,10,28.34z"/>
	<g>
		<defs>
			<path id="SVGID_764_" d="M4.32,34.79c0.36-0.99,1.06-1.81,1.77-2.59c2.77-3.04,5.79-5.83,8.89-8.53
				c6.23-5.43,12.99-10.6,20.92-12.97c9.45-2.82,19.88-1.32,28.79,2.9c7.27,3.44,13.59,8.55,19.83,13.61
				c1.89,1.53-14.36,10.29-15.78,11.06c-6.82,3.68-14.47,6.01-22.26,6c-10.64-0.01-20.78-4.23-31.25-6.09
				c-2.96-0.53-5.32,0.21-8.16,0.13C4.8,38.26,3.46,37.17,4.32,34.79z"/>
		</defs>
		<clipPath id="SVGID_2_">
			<use xlink:href="#SVGID_764_"  overflow="visible"/>
		</clipPath>
		<path clip-path="url(#SVGID_2_)" fill="#D1D3D4" d="M4.32,34.79c0.36-0.99,1.06-1.81,1.77-2.59c2.77-3.04,5.79-5.83,8.89-8.53
			c6.23-5.43,12.99-10.6,20.92-12.97c9.45-2.82,19.88-1.32,28.79,2.9c7.27,3.44,13.59,8.55,19.83,13.61
			c1.89,1.53-14.36,10.29-15.78,11.06c-6.82,3.68-14.47,6.01-22.26,6c-10.64-0.01-20.78-4.23-31.25-6.09
			c-2.96-0.53-5.32,0.21-8.16,0.13C4.8,38.26,3.46,37.17,4.32,34.79z"/>
		<ellipse clip-path="url(#SVGID_2_)" fill="#E6E7E8" cx="49.44" cy="23.89" rx="30.83" ry="23.7"/>
		<path clip-path="url(#SVGID_2_)" fill="#EDC7C3" d="M5.99,26.36c1.38-0.78,2.38-0.7,3.82-0.79c1.13-0.07,2.02-1.01,2.9-1.54
			c0.43-0.26,1.02-0.48,1.39-0.13c0.22,0.21,0.25,0.55,0.17,0.84c-0.08,0.29-0.25,0.55-0.39,0.81c-0.67,1.29-0.49,2.54,0.06,3.81
			c0.63,1.47,0.99,3.07,1.8,4.45c0.69,1.19,1.69,2.18,2.39,3.37c0.7,1.19,1.05,2.73,0.36,3.92c-0.42,0.72-1.16,1.2-1.91,1.56
			c-1.84,0.89-3.88,1.27-5.9,1.55c-2.22,0.31-4.59,0.5-6.61-0.46c-3.12-1.49-4.46-5.41-3.96-8.83C0.63,31.39,2.86,28.13,5.99,26.36z
			"/>
		<path clip-path="url(#SVGID_2_)" fill="#EE978F" d="M12.56,38.82c-1.03,0.11-2.17,0.63-3.11,0.84c-1,0.23-2.01,0.45-3.03,0.5
			c-0.62,0.03-1.26-0.01-1.84-0.25c-1.53-0.63-2.22-2.53-1.92-4.16c0.46-2.47,3.79-6.78,6.73-5.95c3.46,0.97,2.33,5.92,4.85,7.7
			c0.34,0.24,0.77,0.54,0.7,0.95c-0.05,0.31-0.39,0.49-0.7,0.51c-0.31,0.02-0.61-0.08-0.92-0.13
			C13.08,38.79,12.82,38.79,12.56,38.82z"/>
		<path clip-path="url(#SVGID_2_)" fill="#EDC7C3" d="M6.36,37.83c-0.47-0.93-0.01-2.35,0.39-3.22c0.46-1,0.79-2.06,1.17-3.11
			c-1.14,0.92-3.7,2.88-3.06,4.6c0.14,0.36,0.23,0.67,0.48,0.97C5.51,37.27,6.3,37.65,6.36,37.83z"/>
		<g clip-path="url(#SVGID_2_)">
			<g>
				<ellipse fill="#4D5D82" cx="45.02" cy="22.29" rx="18.45" ry="19.07"/>
			</g>
			<g>
				<circle fill="#0F2849" cx="44.41" cy="22.29" r="17.84"/>
			</g>
			<circle fill="#4D5D82" cx="39.75" cy="11.75" r="11.75"/>
			<path fill="#4D5D82" d="M45.04,30.63c0,0,5.08,0,7.35-5.2l7.26,3.32c0,0-3.32,9.15-13.63,9.86L45.04,30.63z"/>
			<g>
				<path fill="#0F2849" d="M48.05,27.16l6.7,6.7c0,0,1.68-1.21,2.35-3.06l-7.98-4.88L48.05,27.16z"/>
			</g>
			<circle fill="#1A242D" cx="45.08" cy="23.51" r="4.71"/>
			<circle fill="#C3D7DC" cx="58.01" cy="17.98" r="1.87"/>
			
				<ellipse transform="matrix(0.9901 -0.1407 0.1407 0.9901 -3.366 7.1626)" fill="#C3D7DC" cx="48.99" cy="27.39" rx="3.02" ry="0.77"/>
			<circle fill="#C3D7DC" cx="53.72" cy="26.71" r="0.45"/>
		</g>
		
			<ellipse transform="matrix(0.1771 -0.9842 0.9842 0.1771 34.5819 94.9131)" clip-path="url(#SVGID_2_)" fill="#FFFFFF" cx="74.05" cy="26.78" rx="2.3" ry="7.31"/>
		<circle clip-path="url(#SVGID_2_)" fill="#FFFFFF" cx="67.86" cy="30.89" r="1.5"/>
	</g>
	<path fill="#C6A898" d="M84.2,27.86c0,0-8.04,12.84-38.68,16.42C45.52,44.29,72.21,47.59,84.2,27.86z"/>
</g>
</svg>
