<?xml version="1.0" encoding="utf-8"?>
<!-- Generator: Adobe Illustrator 23.0.0, SVG Export Plug-In . SVG Version: 6.00 Build 0)  -->
<svg version="1.1" id="Layer_1" xmlns="http://www.w3.org/2000/svg" xmlns:xlink="http://www.w3.org/1999/xlink" x="0px" y="0px"
	 viewBox="0 0 133.19 251.21" enable-background="new 0 0 133.19 251.21" xml:space="preserve">
<g>
	<g>
		<path fill="#F6D2BA" d="M100.78,112.41c2.16,2.6,5.55,3.43,7.86,5.83c1.76,1.83,4.05,3.22,3.35-0.65
			c0.01,0.04,2.47,0.88,2.78,1.07c0.97,0.59,1.73,1.52,2.96,1.59c1.32,0.08,2.59-0.77,3.24-1.92c0.98-1.73,0.95-4.01-0.4-5.46
			c-5.18-5.57-13.43-6.72-21.2-7.64C98.46,107.87,99.26,110.58,100.78,112.41z"/>
		<path fill="#566345" d="M84.45,82.16c2.24,3.8,6.2,7.29,8.97,10.04c2.93,2.91,6.06,5.62,9.36,8.1c1.69,1.26,3.42,2.47,5.19,3.61
			c0.91,0.58,1.74,0.79,1.89,1.83c0.15,1.08-0.63,2.81-1,3.81c-0.58,1.56-1.49,3.46-3.25,3.84c-1.62,0.35-3.71,0.52-5.36,0.29
			c-1.98-0.27-3.88-2.28-5.41-3.46c-6.16-4.73-12.31-9.46-18.47-14.2c-1.15-0.89-2.33-1.79-3.19-2.97c-1.61-2.19-1.9-5.51-2.7-8.1
			c-1.12-3.59-2.09-7.19-3.38-10.73c-0.34-0.94-0.69-1.88-0.82-2.87c-0.66-5.25,3.4-11.89,5.22-16.64c0.94-2.44,1.23-5.03,1.78-7.57
			c0.48-2.25,0.76-5.23,3.13-2.99c1.84,1.74,3.79,5.22,4.59,7.66c2.63,8.01,0.55,17.87,1.82,26.09
			C83.05,79.36,83.64,80.78,84.45,82.16z"/>
		<path fill="#F6D2BA" d="M65.61,2.82c3.92-0.02,7.75,1.63,10.72,4.2c3.61,3.13,4.55,8.28,4.74,12.82
			c0.17,3.93,0.48,10.74-1.95,14.11c-1.56,2.16-7.12,3.1-9.47,2.46c-0.82-0.22-1.81-0.31-2.43,0.27c-0.24,0.23-0.4,0.54-0.53,0.85
			c-0.76,1.76-0.85,3.23,0.17,4.92c1.16,1.94,1.95,4.11,2.29,6.35c0.19,1.24,0.18,2.68-0.76,3.51c-0.9,0.8-2.26,0.69-3.44,0.44
			c-2.83-0.6-5.54-1.75-7.94-3.37c-0.78-0.52-1.53-1.11-2.08-1.86c-1.97-2.68-1.13-6.17-0.38-9.1c2-7.8-1.5-16.07-0.36-24.05
			c0.2-1.36,0.53-2.71,0.86-4.04c0.28-1.15,0.41-2.53,1.1-3.48c0.66-0.91,1.82-1.66,2.77-2.22C60.93,3.46,63.27,2.83,65.61,2.82z"/>
		<path fill="#3C2415" d="M78.64,6.18c-1.31-1.76-3.08-3.44-5.04-4.46c-0.56-0.29-6.76-2.59-6.44-1.19c0.04,0.15,0.15,0.27,0.25,0.4
			c0.28,0.34,0.45,0.77,0.49,1.21C67.2,0.79,65.5,0.42,64,0.19c-0.3,3.77-5.4,3.26-7.71,5.04c-2.02,1.56-3.59,3.72-4.37,6.16
			c-1.84,5.79,0.42,11.59,1.96,17.21c0.22,0.8,0.4,1.76,0.9,2.44c0.68,0.92,1.85,1.21,2.76,0.56c1.38-1-0.02,1.09,1.35,0.07
			c0.24-0.17,0.41-0.41,0.59-0.65c0.95-1.3,1.85-2.66,2.92-3.87c0.88-1.01,0.96-1.39,0-2.53c-0.83-0.98-1.26-2.28-1.16-3.55
			c0.03-0.36,0.1-0.73,0.35-1c0.52-0.56,1.48-0.34,2.11,0.09c1.9,1.27,1.94,1.71,2.71-0.76c0.43-1.4,4.95-3.05,6.36-3.96
			c1.8-1.16,4.45-0.38,6.37-1.38C81.96,12.56,80.07,8.1,78.64,6.18z"/>
		<path fill="#FFFFFF" d="M67.52,41.1c-0.66,0.06-0.81,1.06-1.15,1.5c-0.47,0.59-1.25,1.04-1.92,1.34
			c-1.37,0.62-2.96,0.78-4.41,0.36c-0.57-0.17-6.32-3.17-6.13-3.59c-0.97,2.09-0.25,4.81-0.27,7.03c-0.02,2.45-0.02,4.91,0,7.36
			c0.03,4.86,0.14,9.72,0.29,14.57c0.15,4.86,0.34,9.72,0.55,14.57c0.06,1.29,0.19,14.4,0.64,14.48c6.49,1.1,13.16,1.07,19.64-0.08
			c0.01-4.28-0.06-8.55-0.2-12.83c-0.39-11.25-1.35-22.47-2.86-33.62c-0.35-2.59-0.76-5.19-1.61-7.67c-0.31-0.9-0.97-2.61-1.78-3.16
			C67.99,41.16,67.73,41.08,67.52,41.1z"/>
		<path fill="#63774E" d="M44.15,39.66c1.18-0.5,2.33-1.09,3.53-1.54c1.91-0.72,4.11-1.06,5.93-0.14c1.25,0.63,2.57,1.69,3.21,2.95
			c1.84,3.62,3.68,7.26,5.59,10.84c0.52,0.98,1.14,1.94,1.62,2.95c0.33,0.69,0.44,1.54,0.87,2.17c0.89-3.11,0.91-6.57,1.22-9.78
			c0.12-1.24,0.26-2.48,0.34-3.72c0.04-0.63,0.07-1.25,0.07-1.88c0-0.39-0.26-1.59-0.07-1.89c1.39-2.22,8.53,1.03,9.89,1.99
			c3.06,2.17,2.8,4.54,2.39,7.71c-0.54,4.17-0.48,8.68-0.7,12.9c-0.6,11.3-0.82,22.63-0.74,33.92c0.01,2.01-0.12,4.08-0.77,6
			c-0.28,0.84-0.69,1.99-1.3,2.66c-0.55,0.6-1.29,0.68-2,1.11c-0.83,0.51-1.44,1.24-2.22,1.82c-3.36,2.53-10.75,0.94-14.66,0.71
			c-4.52-0.27-9.81-0.52-14.08-2.03c0.1-1.87,0.9-3.41,1.23-5.19c0.45-2.42,0.04-5.25-0.12-7.69c-0.34-5.06-1.04-10.1-1.39-15.16
			c-0.69-9.96-5.48-18.94-5.76-29c-0.08-2.63,0.09-6.67,2.77-8.07c0.93-0.49,2-0.62,3.02-0.89C42.76,40.23,43.46,39.96,44.15,39.66z
			"/>
		<path fill="#6F825A" d="M65.12,61.34c-0.02-0.18-0.05-0.35-0.07-0.53c-0.44-3.05-0.14-5.31,0.46-8.4c0.09-0.49,0.21-1.03,0.6-1.35
			c0,4.93,1.31,9.57,1.7,14.42c1.12,14.01-0.14,28.02,1.65,41.98c0.02,0.12,0.03,0.26-0.04,0.36c-0.07,0.12-0.22,0.16-0.36,0.18
			c-0.6,0.11-1.23,0.09-1.82-0.07c-0.15-0.04-0.31-0.1-0.4-0.22c-0.08-0.11-0.1-0.25-0.11-0.38c-0.24-2.85,0.11-5.87,0.08-8.75
			c-0.04-4.5-0.09-9.01-0.23-13.51c-0.14-4.54-0.37-9.08-0.65-13.62c-0.1-5.46-0.88-10.36-2.45-15.57
			c-0.26-0.87-0.53-1.75-0.54-2.66c1.16,0.94,2.02,2.24,2.42,3.68c-0.05-1.76,0.16-3.53,0.62-5.23"/>
		<g>
			<path fill="#F6D2BA" d="M34.04,115.08c0.44,3.44,0.45,6.89,0.63,10.32c0.14,2.6-0.37,5.31-2.67,2.13c0.03,0.04-1,2.5-1.07,2.87
				c-0.22,1.15-0.06,2.37-0.82,3.36c-0.82,1.07-2.26,1.46-3.51,1.17c-1.88-0.44-3.49-2.02-3.64-4.05
				c-0.56-7.8,4.06-14.92,8.54-21.52C33.97,110.48,33.73,112.67,34.04,115.08z"/>
			<g>
				<path fill="#6F825A" d="M32.35,57c-0.81,4.11-1.56,8.25-2.44,12.35c-2.14,9.85-3.65,19.84-4.53,29.89
					c-0.45,5.12-0.77,10.28-0.85,15.42c-0.08,5.36,3.75,4.99,8.37,6.36c0.55,0.16,1.19,0.32,1.67,0c0.49-0.33,0.59-0.99,0.64-1.58
					c1.38-14.57,3.66-29.06,6.83-43.35c1.18-5.3,2.02-10.51,3.37-15.8c0.86-3.36,2.37-7.1,2.55-10.58c0.17-3.27,0.31-7.92-4.48-8.58
					c-5.68-0.78-8.31,3.49-9.51,8.38C33.38,51.98,32.85,54.48,32.35,57z"/>
			</g>
		</g>
	</g>
	<ellipse opacity="0.33" fill="#A7A9AC" cx="65.88" cy="233.21" rx="55.77" ry="13.69"/>
	<g>
		<path fill="#1A242D" d="M72.6,222.71c-1.58,0.02-3-0.06-4.34,0.93c-1.74,1.29-2.04,3.44-2.14,5.43c-0.04,0.8,0.01,1.63,0.42,2.33
			c0.36,0.63,0.97,1.08,1.59,1.48c2.86,1.85,6.27,2.91,9.71,3.01c2.25,0.07,4.6-0.31,6.4-1.62c1.8-1.31,2.85-3.73,2.04-5.76
			c-0.89-2.22-3.48-3.22-5.81-3.97c-1.18-0.38-2.38-0.56-3.35-1.38c-0.22-0.18-0.42-0.39-0.68-0.51c-0.47-0.23-1.18,0.09-1.7,0.09
			C74.03,222.75,73.31,222.7,72.6,222.71z"/>
		<path fill="#1A242D" d="M48.83,222.58c-1.78,0.01-3.39-0.06-4.9,0.93c-1.97,1.29-2.3,3.44-2.41,5.43
			c-0.04,0.8,0.02,1.63,0.47,2.33c0.41,0.63,1.1,1.08,1.8,1.48c3.24,1.86,7.09,2.92,10.98,3.02c2.54,0.07,5.2-0.31,7.23-1.62
			c2.03-1.31,3.22-3.73,2.3-5.76c-1.01-2.22-3.94-3.22-6.57-3.98c-1.33-0.38-2.69-0.57-3.79-1.38c-0.25-0.18-0.48-0.39-0.77-0.51
			c-0.54-0.23-1.33,0.08-1.92,0.09C50.44,222.63,49.64,222.58,48.83,222.58z"/>
		<path fill="#566345" d="M53.7,109.99c0.5,0.65-0.02,3.7-0.02,4.49c-0.01,3.13,0.01,6.27,0.17,9.4c0.14,2.84,0,6.15,1.17,8.78
			c1.08,2.44,3.28,2.55,4.62,4.42c1.62,2.26,1.35,7.83,1.73,10.61c1.02,7.49,1.43,14.53,1.56,22.09
			c0.31,17.77,0.63,35.55,0.99,53.25c2.17,2.13,3.93,1.17,6.55,1.22c0.82,0.02,9.89,0.45,9.76-0.77
			c-0.95-8.54-0.04-16.75,0.24-25.27c0.29-8.98,0.38-17.96,0.24-26.94c-0.14-9.39-0.52-18.77-1.13-28.14
			c-0.6-9.19-2.15-18.52-1.98-27.71c0.02-1.02,0.02-2.05,0.02-3.07c-0.01-0.74-0.04-1.54-0.49-2.1c-0.48-0.6-1.3-0.73-2.04-0.73
			c-2.31,0-4.55,0.8-6.83,1.16C63.44,111.46,58.49,110.47,53.7,109.99z"/>
		<path fill="#63774E" d="M49.01,104.69c-7.06-6.37-7.12,7.63-7.73,12.03c-1.07,7.67-1.61,15.4-1.94,23.13
			c-0.17,3.99-0.27,7.98-0.09,11.96c0.65,13.86,0.78,27.48,1.23,41.34c0.18,5.42,0.41,10.85,0.66,16.27
			c0.12,2.64,0.25,5.28,0.38,7.91c0.07,1.35-0.48,6.12,0.54,7.04c0.26,0.24,0.63,0.3,0.98,0.35c4.08,0.6,7.97,0.64,12.07,0.32
			c0.61-0.05,1.27-0.12,1.73-0.54c0.54-0.5,0.62-1.34,0.66-2.09c1.34-22.57,2.41-44.86,2.9-67.43c0.07-3.29,0.27-6.58,0.4-9.87
			c0.07-1.83-0.34-4.69,1.01-6.18c1.45-1.61,4.44-1.69,6.11-3.42c2.73-2.83,3.41-7.26,4.97-10.74c1.95-4.33,3.53-8.82,4.72-13.41
			c0.3-1.15,0.17-2.37-0.58-3.29c-0.23-0.28-0.53-0.51-0.82-0.73c-0.59-0.45-1.18-0.9-1.77-1.34c-2.71-0.01-5.54-0.33-8.25-0.34
			c-5.73-0.01-11.5-0.03-17.16-0.93"/>
		<path fill="#6F825A" d="M65.39,113.2c-0.12,5.63-0.6,11.25-1.43,16.82c2.66-5.27,3.37-11.28,4.04-17.15
			c0.04-0.37,0.08-0.75-0.04-1.1c-0.29-0.84-1.47-1.12-2.22-0.65c-0.75,0.47-1.05,1.46-0.92,2.33"/>
		<path fill="#938C6C" d="M44.03,101.91c-0.32,1.2-1.06,2.83-0.92,3.96c0.14,1.08,1.34,1.46,2.17,1.87c3.04,1.52,6.67,2.29,9.99,3
			c4.33,0.93,8.77,1.45,13.21,1.54c1.53,0.03,3.07,0.13,4.6-0.05c1.2-0.15,4.36-0.85,4.77-2.19c0.12-0.39,0.06-0.8-0.01-1.2
			c-0.28-1.54-0.42-3.07-0.6-4.61c-0.98-0.1-2.13,0.52-3.12,0.7c-1.27,0.23-2.54,0.7-3.82,0.82c-1.7,0.15-3.42,0.13-5.13,0.02
			c-5.46-0.36-10.6-1.97-15.74-3.72c-1.17-0.4-2.35-0.8-3.49-1.28c-0.36-0.15-1.07-0.67-1.45-0.46c-0.31,0.17-0.32,1.06-0.39,1.36
			C44.08,101.74,44.06,101.82,44.03,101.91z"/>
	</g>
</g>
</svg>
