<?xml version="1.0" encoding="utf-8"?>
<!-- Generator: Adobe Illustrator 23.0.0, SVG Export Plug-In . SVG Version: 6.00 Build 0)  -->
<svg version="1.1" id="Layer_1" xmlns="http://www.w3.org/2000/svg" xmlns:xlink="http://www.w3.org/1999/xlink" x="0px" y="0px"
	 viewBox="0 0 133.19 251.21" enable-background="new 0 0 133.19 251.21" xml:space="preserve">
<g>
	<g>
		<path fill="#F6D2BA" d="M100.79,111.9c2.16,2.6,5.55,3.43,7.86,5.83c1.76,1.83,4.05,3.22,3.35-0.65c0.01,0.04,2.47,0.88,2.78,1.07
			c0.97,0.59,1.73,1.52,2.96,1.59c1.32,0.08,2.59-0.77,3.24-1.92c0.98-1.73,0.95-4.01-0.4-5.46c-5.18-5.57-13.43-6.72-21.2-7.64
			C98.48,107.35,99.28,110.07,100.79,111.9z"/>
		<path fill="#566345" d="M84.47,81.65c2.24,3.8,6.2,7.29,8.97,10.04c2.93,2.91,6.06,5.62,9.36,8.1c1.69,1.26,3.42,2.47,5.19,3.61
			c0.91,0.58,1.74,0.79,1.89,1.83c0.15,1.08-0.63,2.81-1,3.81c-0.58,1.56-1.49,3.46-3.25,3.84c-1.62,0.35-3.71,0.52-5.36,0.29
			c-1.98-0.27-3.88-2.28-5.41-3.46c-6.16-4.73-12.31-9.46-18.47-14.2c-1.15-0.89-2.33-1.79-3.19-2.97c-1.61-2.19-1.9-5.51-2.7-8.1
			c-1.12-3.59-2.09-7.19-3.38-10.73c-0.34-0.94-0.69-1.88-0.82-2.87c-0.66-5.25,3.4-11.89,5.22-16.64c0.94-2.44,1.23-5.03,1.78-7.57
			c0.48-2.25,0.76-5.23,3.13-2.99c1.84,1.74,3.79,5.22,4.59,7.66c2.63,8.01,0.55,17.87,1.82,26.09
			C83.06,78.85,83.65,80.27,84.47,81.65z"/>
		<path fill="#F6D2BA" d="M73.48,3.09c3.84,0.78,7.26,3.17,9.65,6.28c2.9,3.8,2.78,9.03,2.04,13.51
			c-0.63,3.88-1.71,10.62-4.77,13.42c-1.96,1.8-7.6,1.59-9.77,0.49c-0.76-0.38-1.71-0.67-2.43-0.22c-0.29,0.18-0.5,0.45-0.69,0.73
			c-1.1,1.57-1.49,2.99-0.84,4.86c0.75,2.14,1.07,4.42,0.96,6.68c-0.06,1.25-0.37,2.66-1.45,3.29c-1.04,0.6-2.36,0.22-3.45-0.26
			c-2.65-1.16-5.07-2.83-7.09-4.91c-0.65-0.67-1.27-1.4-1.66-2.25c-1.39-3.03,0.14-6.27,1.47-8.99c3.54-7.24,1.79-16.04,4.52-23.62
			c0.47-1.3,1.06-2.54,1.66-3.79c0.51-1.07,0.92-2.4,1.78-3.18c0.83-0.75,2.12-1.26,3.16-1.61C68.76,2.77,71.19,2.62,73.48,3.09z"/>
		<path fill="#3C2415" d="M85.56,9.02c-0.93-1.99-2.32-3.99-4.03-5.39c-0.49-0.4-6.09-3.91-6.06-2.47c0,0.16,0.1,0.3,0.17,0.44
			c0.21,0.39,0.29,0.84,0.23,1.28c-0.43-1.45-2.02-2.16-3.44-2.69c-1.06,3.63-5.95,2.1-8.57,3.38c-2.29,1.12-4.27,2.92-5.53,5.15
			c-2.98,5.3-1.94,11.44-1.57,17.25c0.05,0.82,0.04,1.81,0.39,2.57c0.48,1.04,1.57,1.56,2.59,1.1c1.56-0.7-0.24,1.06,1.31,0.34
			c0.27-0.12,0.49-0.32,0.7-0.52c1.2-1.08,2.36-2.23,3.64-3.2c1.07-0.81,1.22-1.17,0.51-2.47c-0.62-1.13-0.77-2.49-0.42-3.71
			c0.1-0.34,0.25-0.7,0.55-0.91c0.62-0.44,1.51-0.03,2.05,0.51c1.61,1.63,1.56,2.07,2.81-0.2c0.71-1.28,5.47-1.99,7.04-2.59
			c2-0.77,4.44,0.53,6.52-0.07C87.51,15.94,86.57,11.19,85.56,9.02z"/>
		<path fill="#FFFFFF" d="M67.53,40.59c-0.66,0.06-0.81,1.06-1.15,1.5c-0.47,0.59-1.25,1.04-1.92,1.34
			c-1.37,0.62-2.96,0.78-4.41,0.36c-0.57-0.17-6.32-3.17-6.13-3.59c-0.97,2.09-0.25,4.81-0.27,7.03c-0.02,2.45-0.02,4.91,0,7.36
			c0.03,4.86,0.14,9.72,0.29,14.57c0.15,4.86,0.34,9.72,0.55,14.57c0.06,1.29,0.19,14.4,0.64,14.48c6.49,1.1,13.16,1.07,19.64-0.08
			c0.01-4.28-0.06-8.55-0.2-12.83c-0.39-11.25-1.35-22.47-2.86-33.62c-0.35-2.59-0.76-5.19-1.61-7.67c-0.31-0.9-0.97-2.61-1.78-3.16
			C68,40.65,67.75,40.57,67.53,40.59z"/>
		<path fill="#63774E" d="M44.17,39.15c1.18-0.5,2.33-1.09,3.53-1.54c1.91-0.72,4.11-1.06,5.93-0.14c1.25,0.63,2.57,1.69,3.21,2.95
			c1.84,3.62,3.68,7.26,5.59,10.84c0.52,0.98,1.14,1.94,1.62,2.95c0.33,0.69,0.44,1.54,0.87,2.17c0.89-3.11,0.91-6.57,1.22-9.78
			c0.12-1.24,0.26-2.48,0.34-3.72c0.04-0.63,0.07-1.25,0.07-1.88c0-0.39-0.26-1.59-0.07-1.89c1.39-2.22,8.53,1.03,9.89,1.99
			c3.06,2.17,2.8,4.54,2.39,7.71c-0.54,4.17-0.48,8.68-0.7,12.9c-0.6,11.3-0.82,22.63-0.74,33.92c0.01,2.01-0.12,4.08-0.77,6
			c-0.28,0.84-0.69,1.99-1.3,2.66c-0.55,0.6-1.29,0.68-2,1.11c-0.83,0.51-1.44,1.24-2.22,1.82c-3.36,2.53-10.75,0.94-14.66,0.71
			c-4.52-0.27-9.81-0.52-14.08-2.03c0.1-1.87,0.9-3.41,1.23-5.19c0.45-2.42,0.04-5.25-0.12-7.69c-0.34-5.06-1.04-10.1-1.39-15.16
			c-0.69-9.96-5.48-18.94-5.76-29c-0.08-2.63,0.09-6.67,2.77-8.07c0.93-0.49,2-0.62,3.02-0.89C42.77,39.72,43.48,39.45,44.17,39.15z
			"/>
		<path fill="#6F825A" d="M65.14,60.83c-0.02-0.18-0.05-0.35-0.07-0.53c-0.44-3.05-0.14-5.31,0.46-8.4c0.09-0.49,0.21-1.03,0.6-1.35
			c0,4.93,1.31,9.57,1.7,14.42c1.12,14.01-0.14,28.02,1.65,41.98c0.02,0.12,0.03,0.26-0.04,0.36c-0.07,0.12-0.22,0.16-0.36,0.18
			c-0.6,0.11-1.23,0.09-1.82-0.07c-0.15-0.04-0.31-0.1-0.4-0.22c-0.08-0.11-0.1-0.25-0.11-0.38c-0.24-2.85,0.11-5.87,0.08-8.75
			c-0.04-4.5-0.09-9.01-0.23-13.51c-0.14-4.54-0.37-9.08-0.65-13.62c-0.1-5.46-0.88-10.36-2.45-15.57
			c-0.26-0.87-0.53-1.75-0.54-2.66c1.16,0.94,2.02,2.24,2.42,3.68c-0.05-1.76,0.16-3.53,0.62-5.23"/>
		<g>
			<path fill="#F6D2BA" d="M56.47,84.41c3.47,0,6.9,0.43,10.32,0.68c2.6,0.19,5.22,1.05,1.77,2.92c0.04-0.02,2.35,1.31,2.71,1.43
				c1.11,0.36,2.34,0.36,3.23,1.24c0.96,0.94,1.17,2.42,0.72,3.63c-0.67,1.81-2.45,3.21-4.48,3.09c-7.8-0.43-14.28-5.93-20.26-11.2
				C51.89,83.89,54.03,84.41,56.47,84.41z"/>
			<g>
				<path fill="#6F825A" d="M32.7,56.55c-0.92,5.23-1.64,10.5-2.16,15.79c-0.23,2.31-0.38,4.79,0.77,6.8
					c1.22,2.12,3.6,3.23,5.83,4.21c2.55,1.12,5.09,2.24,7.64,3.36c4.29,1.89,8.22,3.93,12.46,6.02c1.58,0.78,3.25,2.22,4.67,0.6
					c1.64-1.87,2.82-4.25,3.9-6.37c0.36-0.7,0.94-1.33,0.45-1.95c-0.41-0.51-1.66-0.69-2.28-0.99c-4.88-2.36-8.79-5.78-13.62-8.19
					c-2.67-1.33-4.63-3.45-7.75-3.64c-0.62-0.04,5.28-21.16,5.38-22.99c0.17-3.27,0.31-7.92-4.48-8.58
					C34.18,39.35,33.84,50.05,32.7,56.55z"/>
			</g>
		</g>
	</g>
	<ellipse opacity="0.33" fill="#A7A9AC" cx="65.89" cy="232.7" rx="55.77" ry="13.69"/>
	<g>
		<path fill="#1A242D" d="M72.61,222.2c-1.58,0.02-3-0.06-4.34,0.93c-1.74,1.29-2.04,3.44-2.14,5.43c-0.04,0.8,0.01,1.63,0.42,2.33
			c0.36,0.63,0.97,1.08,1.59,1.48c2.86,1.85,6.27,2.91,9.71,3.01c2.25,0.07,4.6-0.31,6.4-1.62c1.8-1.31,2.85-3.73,2.04-5.76
			c-0.89-2.22-3.48-3.22-5.81-3.97c-1.18-0.38-2.38-0.56-3.35-1.38c-0.22-0.18-0.42-0.39-0.68-0.51c-0.47-0.23-1.18,0.09-1.7,0.09
			C74.04,222.24,73.33,222.19,72.61,222.2z"/>
		<path fill="#1A242D" d="M48.85,222.07c-1.78,0.01-3.39-0.06-4.9,0.93c-1.97,1.29-2.3,3.44-2.41,5.43
			c-0.04,0.8,0.02,1.63,0.47,2.33c0.41,0.63,1.1,1.08,1.8,1.48c3.24,1.86,7.09,2.92,10.98,3.02c2.54,0.07,5.2-0.31,7.23-1.62
			c2.03-1.31,3.22-3.73,2.3-5.76c-1.01-2.22-3.94-3.22-6.57-3.98c-1.33-0.38-2.69-0.57-3.79-1.38c-0.25-0.18-0.48-0.39-0.77-0.51
			c-0.54-0.23-1.33,0.08-1.92,0.09C50.46,222.11,49.65,222.06,48.85,222.07z"/>
		<path fill="#566345" d="M53.71,109.48c0.5,0.65-0.02,3.7-0.02,4.49c-0.01,3.13,0.01,6.27,0.17,9.4c0.14,2.84,0,6.15,1.17,8.78
			c1.08,2.44,3.28,2.55,4.62,4.42c1.62,2.26,1.35,7.83,1.73,10.61c1.02,7.49,1.43,14.53,1.56,22.09
			c0.31,17.77,0.63,35.55,0.99,53.25c2.17,2.13,3.93,1.17,6.55,1.22c0.82,0.02,9.89,0.45,9.76-0.77
			c-0.95-8.54-0.04-16.75,0.24-25.27c0.29-8.98,0.38-17.96,0.24-26.94c-0.14-9.39-0.52-18.77-1.13-28.14
			c-0.6-9.19-2.15-18.52-1.98-27.71c0.02-1.02,0.02-2.05,0.02-3.07c-0.01-0.74-0.04-1.54-0.49-2.1c-0.48-0.6-1.3-0.73-2.04-0.73
			c-2.31,0-4.55,0.8-6.83,1.16C63.45,110.95,58.5,109.95,53.71,109.48z"/>
		<path fill="#63774E" d="M49.03,104.17c-7.06-6.37-7.12,7.63-7.73,12.03c-1.07,7.67-1.61,15.4-1.94,23.13
			c-0.17,3.99-0.27,7.98-0.09,11.96c0.65,13.86,0.78,27.48,1.23,41.34c0.18,5.42,0.41,10.85,0.66,16.27
			c0.12,2.64,0.25,5.28,0.38,7.91c0.07,1.35-0.48,6.12,0.54,7.04c0.26,0.24,0.63,0.3,0.98,0.35c4.08,0.6,7.97,0.64,12.07,0.32
			c0.61-0.05,1.27-0.12,1.73-0.54c0.54-0.5,0.62-1.34,0.66-2.09c1.34-22.57,2.41-44.86,2.9-67.43c0.07-3.29,0.27-6.58,0.4-9.87
			c0.07-1.83-0.34-4.69,1.01-6.18c1.45-1.61,4.44-1.69,6.11-3.42c2.73-2.83,3.41-7.26,4.97-10.74c1.95-4.33,3.53-8.82,4.72-13.41
			c0.3-1.15,0.17-2.37-0.58-3.29c-0.23-0.28-0.53-0.51-0.82-0.73c-0.59-0.45-1.18-0.9-1.77-1.34c-2.71-0.01-5.54-0.33-8.25-0.34
			c-5.73-0.01-11.5-0.03-17.16-0.93"/>
		<path fill="#6F825A" d="M65.41,112.68c-0.12,5.63-0.6,11.25-1.43,16.82c2.66-5.27,3.37-11.28,4.04-17.15
			c0.04-0.37,0.08-0.75-0.04-1.1c-0.29-0.84-1.47-1.12-2.22-0.65s-1.05,1.46-0.92,2.33"/>
		<path fill="#938C6C" d="M44.05,101.39c-0.32,1.2-1.06,2.83-0.92,3.96c0.14,1.08,1.34,1.46,2.17,1.87c3.04,1.52,6.67,2.29,9.99,3
			c4.33,0.93,8.77,1.45,13.21,1.54c1.53,0.03,3.07,0.13,4.6-0.05c1.2-0.15,4.36-0.85,4.77-2.19c0.12-0.39,0.06-0.8-0.01-1.2
			c-0.28-1.54-0.42-3.07-0.6-4.61c-0.98-0.1-2.13,0.52-3.12,0.7c-1.27,0.23-2.54,0.7-3.82,0.82c-1.7,0.15-3.42,0.13-5.13,0.02
			c-5.46-0.36-10.6-1.97-15.74-3.72c-1.17-0.4-2.35-0.8-3.49-1.28c-0.36-0.15-1.07-0.67-1.45-0.46c-0.31,0.17-0.32,1.06-0.39,1.36
			C44.09,101.23,44.07,101.31,44.05,101.39z"/>
	</g>
</g>
</svg>
