<?xml version="1.0" encoding="utf-8"?>
<!-- Generator: Adobe Illustrator 23.0.0, SVG Export Plug-In . SVG Version: 6.00 Build 0)  -->
<svg version="1.1" id="Layer_1" xmlns="http://www.w3.org/2000/svg" xmlns:xlink="http://www.w3.org/1999/xlink" x="0px" y="0px"
	 viewBox="0 0 133.19 251.21" enable-background="new 0 0 133.19 251.21" xml:space="preserve">
<g>
	<ellipse opacity="0.33" fill="#A7A9AC" cx="65.51" cy="232.72" rx="55.77" ry="13.69"/>
	<g>
		<path fill="#1A242D" d="M78.52,222.22c-1.68,0.02-3.21-0.06-4.63,0.93c-1.86,1.29-2.18,3.44-2.28,5.43
			c-0.04,0.8,0.01,1.63,0.44,2.33c0.39,0.63,1.04,1.08,1.7,1.48c3.06,1.85,6.7,2.91,10.37,3.01c2.4,0.07,4.92-0.31,6.83-1.62
			s3.05-3.73,2.18-5.76c-0.95-2.22-3.72-3.22-6.2-3.97c-1.26-0.38-2.54-0.56-3.58-1.38c-0.23-0.18-0.45-0.39-0.72-0.51
			c-0.51-0.23-1.26,0.09-1.82,0.09C80.05,222.26,79.28,222.21,78.52,222.22z"/>
		<path fill="#1A242D" d="M53.14,222.09c-1.9,0.01-3.62-0.06-5.24,0.93c-2.1,1.29-2.46,3.44-2.58,5.43c-0.05,0.8,0.02,1.63,0.5,2.33
			c0.44,0.63,1.17,1.08,1.92,1.48c3.46,1.86,7.57,2.92,11.72,3.02c2.71,0.07,5.56-0.31,7.72-1.62c2.17-1.31,3.44-3.73,2.46-5.76
			c-1.07-2.22-4.21-3.22-7.01-3.98c-1.42-0.38-2.88-0.57-4.04-1.38c-0.26-0.18-0.51-0.39-0.82-0.51c-0.57-0.23-1.42,0.08-2.05,0.09
			C54.86,222.14,54,222.09,53.14,222.09z"/>
		<path fill="#566345" d="M76.25,223.77c2.3,0.04,7.73,1.05,9.64,0.09c1.94-0.97,1.27-3.44,1.27-5.22c0-3.56,0.93-7.29,1.2-10.86
			c0.54-7.15,0.63-14.33,0.72-21.5c0.06-5.04,0.12-10.08,0.19-15.12c0.05-4.26,0.1-8.52-0.07-12.77c-0.19-4.66-0.65-9.3-1.12-13.95
			c-0.59-5.92-1.18-11.85-1.77-17.77c-0.45-4.53,1.04-16.24-5.26-17.41c-3.31-0.62-7.18,1.13-10.54,1.23
			c-4.08,0.11-8.13-0.6-12.17-0.97c0.53,0.65-0.02,3.7-0.02,4.49c-0.01,3.13,0.01,6.27,0.18,9.4c0.15,2.84,0,6.15,1.25,8.78
			c1.16,2.44,3.51,2.55,4.94,4.42c1.73,2.26,1.45,7.83,1.85,10.61c1.67,11.53,1.03,22.26,0.49,33.78
			c-0.58,12.14,0.36,24.28,1.29,36.39C68.75,223.19,70.77,223.66,76.25,223.77z"/>
		<path fill="#63774E" d="M53.33,104.2c-6.08-5.14-10.57,5.17-11.74,9.52c-3.6,13.38-3.88,27.26-2.77,40.96
			c0.5,6.15,1.72,12.02,2.72,18.01c1.17,6.95,0.26,14.78,0.38,21.82c0.12,7.18,0.24,14.42,1.73,21.48c0.55,2.59,0.99,7.03,3.44,8.26
			c2.98,1.51,9.5,0.54,12.77,0.3c0.65-0.05,1.36-0.12,1.85-0.54c0.58-0.5,0.66-1.34,0.71-2.09c1.44-22.57,2.57-44.86,3.1-67.43
			c0.08-3.29,0.29-6.58,0.43-9.87c0.07-1.83-0.36-4.69,1.08-6.18c1.55-1.61,4.75-1.69,6.53-3.42c2.92-2.83,3.64-7.26,5.31-10.74
			c2.08-4.33,3.77-8.82,5.04-13.41c0.32-1.15,0.18-2.37-0.62-3.29c-0.25-0.28-0.56-0.51-0.88-0.73c-0.63-0.45-1.26-0.9-1.89-1.34
			c-2.9-0.01-5.92-0.33-8.81-0.34c-6.12-0.01-12.28-0.03-18.33-0.93"/>
		<path fill="#6F825A" d="M70.83,112.71c-0.13,5.63-0.64,11.25-1.53,16.82c2.84-5.27,3.6-11.28,4.31-17.15
			c0.04-0.37,0.09-0.75-0.04-1.1c-0.31-0.84-1.57-1.12-2.37-0.65c-0.8,0.47-1.12,1.46-0.98,2.33"/>
		<path fill="#938C6C" d="M44.75,104.08c-0.37,1.19-1.22,2.83-1.05,3.96c0.16,1.08,1.57,1.47,2.53,1.88
			c3.55,1.54,7.77,2.33,11.63,3.05c5.04,0.95,10.21,1.5,15.38,1.61c1.78,0.04,3.58,0.15,5.35-0.03c1.39-0.14,5.07-0.83,5.54-2.16
			c0.14-0.39,0.07-0.8-0.02-1.2c-0.33-1.54-0.5-3.08-0.72-4.62c-1.14-0.1-2.47,0.5-3.63,0.68c-1.48,0.23-2.95,0.69-4.44,0.8
			c-1.98,0.14-3.98,0.11-5.97-0.01c-6.36-0.39-12.34-2.03-18.33-3.81c-1.37-0.41-2.74-0.81-4.07-1.3c-0.42-0.15-1.25-0.67-1.68-0.47
			c-0.36,0.17-0.37,1.06-0.44,1.36C44.8,103.92,44.78,104,44.75,104.08z"/>
	</g>
	<g>
		<path fill="#F6D2BA" d="M101.88,111.92c2.23,2.6,5.73,3.43,8.12,5.83c1.82,1.83,4.18,3.22,3.46-0.65
			c0.01,0.04,2.55,0.88,2.88,1.07c1.01,0.59,1.79,1.52,3.06,1.59c1.37,0.08,2.68-0.77,3.35-1.92c1.01-1.73,0.98-4.01-0.41-5.46
			c-5.35-5.57-13.88-6.72-21.92-7.64C99.49,107.38,100.31,110.09,101.88,111.92z"/>
		<path fill="#566345" d="M85,81.67c2.32,3.8,6.41,7.29,9.27,10.04c3.03,2.91,6.26,5.62,9.68,8.1c1.74,1.26,3.53,2.47,5.36,3.61
			c0.94,0.58,1.8,0.79,1.95,1.83c0.16,1.08-0.65,2.81-1.04,3.81c-0.6,1.56-1.54,3.46-3.36,3.84c-1.67,0.35-3.84,0.52-5.54,0.29
			c-2.04-0.27-4.01-2.28-5.59-3.46c-6.36-4.73-12.73-9.46-19.09-14.2c-1.19-0.89-2.4-1.79-3.3-2.97c-1.66-2.19-1.96-5.51-2.79-8.1
			c-1.16-3.59-2.16-7.19-3.5-10.73c-0.36-0.94-0.71-1.88-0.84-2.87c-0.69-5.25,3.51-11.89,5.4-16.64c0.97-2.44,1.27-5.03,1.84-7.57
			c0.5-2.25,0.79-5.23,3.24-2.99c1.91,1.74,3.92,5.22,4.74,7.66c2.72,8.01,0.57,17.87,1.88,26.09C83.55,78.87,84.16,80.29,85,81.67z
			"/>
		<path fill="#F6D2BA" d="M65.56,0.45c3.92-0.02,7.76,1.61,10.73,4.17c3.62,3.12,4.56,8.27,4.76,12.81
			c0.17,3.93,0.5,10.74-1.92,14.12c-1.55,2.17-7.11,3.11-9.46,2.48c-0.82-0.22-1.81-0.31-2.43,0.28c-0.24,0.23-0.4,0.54-0.53,0.85
			c-0.76,1.76-0.84,3.24,0.18,4.92c1.17,1.94,1.96,4.11,2.31,6.35c0.19,1.24,0.18,2.68-0.75,3.52c-0.9,0.8-2.26,0.7-3.44,0.45
			c-2.83-0.59-5.55-1.74-7.95-3.35c-0.78-0.52-1.53-1.11-2.09-1.86c-1.98-2.68-1.15-6.17-0.4-9.1c1.98-7.81-1.53-16.07-0.41-24.05
			c0.19-1.36,0.52-2.71,0.85-4.04c0.28-1.15,0.41-2.54,1.09-3.48c0.66-0.91,1.82-1.66,2.76-2.23C60.88,1.1,63.22,0.46,65.56,0.45z"
			/>
		<path fill="#3C2415" d="M78.6,3.78c-1.31-1.76-3.08-3.43-5.04-4.45C73-0.96,66.79-3.25,67.11-1.85c0.04,0.15,0.15,0.27,0.26,0.4
			c0.28,0.34,0.46,0.77,0.49,1.2c-0.71-1.33-2.42-1.7-3.91-1.93c-0.3,3.77-5.4,3.27-7.7,5.06c-2.02,1.57-3.58,3.73-4.36,6.17
			c-1.83,5.79,0.44,11.59,2,17.21c0.22,0.8,0.41,1.76,0.91,2.44c0.68,0.92,1.85,1.21,2.76,0.55c1.38-1-0.02,1.09,1.35,0.07
			c0.24-0.18,0.41-0.41,0.58-0.65c0.95-1.3,1.85-2.67,2.91-3.88c0.88-1.01,0.96-1.39-0.01-2.53c-0.83-0.98-1.26-2.28-1.17-3.55
			c0.03-0.36,0.1-0.73,0.35-1c0.52-0.56,1.48-0.34,2.11,0.08c1.91,1.27,1.95,1.71,2.71-0.77c0.43-1.4,4.94-3.06,6.36-3.98
			c1.8-1.17,4.45-0.38,6.37-1.4C81.93,10.16,80.03,5.7,78.6,3.78z"/>
		<path fill="#FFFFFF" d="M67.5,40.61c-0.68,0.06-0.83,1.06-1.19,1.5c-0.48,0.59-1.29,1.04-1.98,1.34
			c-1.41,0.62-3.06,0.78-4.56,0.36c-0.59-0.17-6.54-3.17-6.34-3.59c-1,2.09-0.26,4.81-0.28,7.03c-0.02,2.45-0.02,4.91,0,7.36
			c0.04,4.86,0.14,9.72,0.3,14.57c0.15,4.86,0.35,9.72,0.57,14.57c0.06,1.29,0.2,14.4,0.66,14.48c6.7,1.1,13.61,1.07,20.3-0.08
			c0.01-4.28-0.06-8.55-0.21-12.83c-0.41-11.25-1.39-22.47-2.96-33.62c-0.36-2.59-0.79-5.19-1.67-7.67c-0.32-0.9-1-2.61-1.84-3.16
			C67.98,40.67,67.72,40.59,67.5,40.61z"/>
		<path fill="#63774E" d="M71.7,114.17c-3.65,0-7.17-0.42-9.98-1.22c-3.65-1.04-6.01-3.57-9.29-5.02c-3.18-1.41-6.5-2.1-9.42-4.23
			c-0.37-0.27-0.74-0.57-0.9-1c-0.22-0.62,0.45-1.33,0.57-1.96c0.46-2.42,0.04-5.25-0.13-7.69c-0.35-5.06-1.07-10.1-1.44-15.16
			c-0.71-9.96-5.66-18.94-5.96-29c-0.08-2.63,0.1-6.67,2.86-8.07c0.96-0.49,2.07-0.62,3.12-0.89c0.75-0.19,1.48-0.46,2.19-0.76
			c1.22-0.5,2.41-1.09,3.65-1.54c1.97-0.72,4.25-1.06,6.13-0.14c1.29,0.63,2.65,1.69,3.31,2.95c2.66,5.05,5.67,9.54,9.8,13.61
			c-0.79-0.78-0.39-4.68-0.38-5.75c0.01-1.86,0.42-3.56,0.55-5.39c0.04-0.63,0.07-1.25,0.08-1.88c0-0.39-0.27-1.59-0.07-1.89
			c1.63-2.5,7.47,0.75,9.33,1.48c4.29,1.7,7.81,2.94,9.67,7.58c1,2.5,0.81,4.79,1.3,7.29c0.59,3.01,2.39,6.07,3.7,8.84
			c2.49,5.23,5.17,10.41,6.27,16.13c1.21,6.27,1.73,13.43-0.38,19.58c-1.42,4.13-4.1,7.93-7.88,10.3
			C84.21,112.97,77.77,114.16,71.7,114.17z"/>
		<path fill="#6F825A" d="M77.84,110.37c5.34-12.55,5.76-31.26-2.98-41.53c-3.24-3.81-7.72-7.03-9.95-11.54
			c-1.07-2.15-1.71-4.56-1.39-6.93c1.02,1.04,1.73,2.36,2.03,3.77c0.4-0.83,0.59-2.56,1.3-3.13c-1.79,1.44,2.37,8.46,3.29,9.75
			c2.13,2.96,4.84,5.5,7.04,8.42c9.37,12.48,6.15,31.08,2.04,44.89c-1.06-0.02-2.11-0.03-3.17-0.05
			C76.69,112.89,77.29,111.66,77.84,110.37z"/>
		<g>
			<path fill="#F6D2BA" d="M57.18,86.94c3.59,0,7.13,0.43,10.66,0.68c2.69,0.19,5.4,1.05,1.83,2.92c0.04-0.02,2.43,1.31,2.8,1.43
				c4.1,1.3,5.88,4.49,1.5,7.54c-2.48,1.73-5.66,1.95-8.53,1.11c-1.43-0.42-2.77-1.1-4.06-1.82c-1.71-0.95-4.11-2.08-5.36-3.59
				c-0.91-1.1-0.91-2.61-1.77-3.82c-0.59-0.84-3.12-1.53-3.14-2.57C51.07,86.44,55.84,86.94,57.18,86.94z"/>
			<g>
				<path fill="#6F825A" d="M26.41,55.72c-0.28,1.52-0.49,3.06-0.69,4.59c-0.41,3.04-0.81,6.09-1.22,9.13
					c-0.3,2.22-0.59,4.5-0.03,6.67c1.14,4.42,5.45,7.28,9.43,9.72c7.17,4.4,14.46,8.85,22.6,11.16c0.74,0.21,1.55,0.4,2.28,0.14
					c0.54-0.2,0.95-0.62,1.33-1.03c2.14-2.3,4.61-5.07,5.97-7.9c-4.91-5.99-11.97-9.73-18.54-13.74c-1.32-0.8-4.14-1.94-4.93-3.25
					c-0.69-1.13,0.35-2.38,0.79-3.49c0.91-2.28,1.55-4.64,2.28-6.98c0.98-3.15,1.2-5.73,1.28-8.93c0.11-4.04,1.64-10.38-4.32-11.17
					c-5.92-0.78-11.6,3.04-14.07,8.06C27.49,50.91,26.86,53.29,26.41,55.72z"/>
			</g>
		</g>
	</g>
</g>
</svg>
