<?xml version="1.0" encoding="utf-8"?>
<!-- Generator: Adobe Illustrator 23.0.0, SVG Export Plug-In . SVG Version: 6.00 Build 0)  -->
<svg version="1.1" id="Layer_1" xmlns="http://www.w3.org/2000/svg" xmlns:xlink="http://www.w3.org/1999/xlink" x="0px" y="0px"
	 viewBox="0 0 133.19 251.21" enable-background="new 0 0 133.19 251.21" xml:space="preserve">
<g>
	<ellipse opacity="0.33" fill="#A7A9AC" cx="65.51" cy="232.72" rx="55.77" ry="13.69"/>
	<g>
		<path fill="#F6D2BA" d="M65.55,2.77c3.96-0.02,7.84,1.63,10.84,4.22c3.66,3.15,4.61,8.35,4.81,12.93
			c0.17,3.97,0.5,10.85-1.94,14.26c-1.57,2.19-7.18,3.14-9.56,2.51c-0.83-0.22-1.83-0.31-2.45,0.28c-0.25,0.23-0.4,0.55-0.53,0.86
			c-0.76,1.78-0.85,3.27,0.18,4.97c1.18,1.96,1.98,4.15,2.33,6.41c0.2,1.25,0.19,2.71-0.76,3.55c-0.9,0.81-2.28,0.7-3.47,0.46
			c-2.86-0.6-5.6-1.75-8.03-3.38c-0.78-0.53-1.55-1.12-2.11-1.88c-2-2.71-1.16-6.23-0.41-9.19c2-7.89-1.55-16.23-0.41-24.29
			c0.19-1.38,0.53-2.73,0.86-4.09c0.28-1.17,0.41-2.56,1.1-3.52c0.66-0.92,1.83-1.68,2.79-2.25C60.82,3.43,63.19,2.79,65.55,2.77z"
			/>
		<path fill="#3C2415" d="M78.72,6.14c-1.33-1.78-3.11-3.47-5.09-4.5c-0.56-0.29-6.83-2.6-6.51-1.19c0.04,0.16,0.16,0.28,0.26,0.4
			c0.28,0.34,0.46,0.77,0.5,1.22c-0.72-1.34-2.44-1.72-3.95-1.95c-0.3,3.81-5.45,3.3-7.78,5.11c-2.04,1.58-3.62,3.77-4.4,6.23
			c-1.85,5.85,0.45,11.71,2.02,17.38c0.22,0.8,0.41,1.78,0.92,2.46c0.69,0.93,1.87,1.22,2.78,0.56c1.39-1.01-0.02,1.1,1.36,0.07
			c0.24-0.18,0.42-0.42,0.59-0.66c0.96-1.31,1.87-2.69,2.94-3.92c0.89-1.02,0.97-1.41-0.01-2.55c-0.84-0.99-1.27-2.3-1.18-3.58
			c0.03-0.36,0.1-0.74,0.35-1.01c0.52-0.57,1.49-0.34,2.14,0.08c1.93,1.28,1.96,1.72,2.73-0.77c0.44-1.42,4.99-3.09,6.42-4.02
			c1.82-1.18,4.5-0.39,6.43-1.41C82.08,12.58,80.17,8.08,78.72,6.14z"/>
	</g>
	<g>
		<path fill="#1A242D" d="M80.56,226.77c-1.97,0.02-3.75-0.06-5.43,0.94c-2.18,1.3-2.55,3.47-2.67,5.49
			c-0.05,0.81,0.02,1.65,0.52,2.35c0.45,0.63,1.22,1.09,1.99,1.5c3.58,1.87,7.84,2.94,12.15,3.04c2.81,0.07,5.76-0.31,8-1.64
			c2.25-1.32,3.57-3.77,2.55-5.82c-1.11-2.24-4.36-3.25-7.27-4.01c-1.47-0.39-2.98-0.57-4.19-1.39c-0.27-0.18-0.53-0.39-0.85-0.52
			c-0.59-0.24-1.48,0.09-2.13,0.09C82.35,226.81,81.46,226.76,80.56,226.77z"/>
		<path fill="#1A242D" d="M50.83,226.64c-2.23,0.01-4.24-0.06-6.13,0.94c-2.46,1.3-2.88,3.47-3.02,5.49
			c-0.05,0.81,0.02,1.65,0.59,2.35c0.51,0.63,1.37,1.09,2.25,1.5c4.05,1.88,8.87,2.94,13.73,3.05c3.18,0.07,6.51-0.31,9.05-1.63
			c2.54-1.32,4.03-3.77,2.88-5.82c-1.26-2.24-4.93-3.25-8.22-4.02c-1.66-0.39-3.37-0.57-4.74-1.39c-0.31-0.18-0.6-0.39-0.96-0.52
			c-0.67-0.24-1.67,0.09-2.41,0.09C52.85,226.68,51.84,226.63,50.83,226.64z"/>
		<path fill="#566345" d="M77.9,228.33c2.69,0.04,9.06,1.06,11.29,0.1c2.28-0.98,1.49-3.47,1.49-5.28c0-3.6,1.09-7.36,1.41-10.97
			c0.64-7.23,0.74-14.47,0.84-21.72c0.07-5.09,0.14-10.18,0.22-15.27c0.06-4.3,0.12-8.6-0.08-12.9c-0.22-4.71-0.77-9.4-1.31-14.09
			c-0.69-5.98-1.38-11.97-2.07-17.95c-0.53-4.57,1.22-16.4-6.16-17.59c-3.88-0.62-8.41,1.15-12.35,1.24
			c-4.78,0.11-9.52-0.61-14.26-0.98c0.62,0.65-0.02,3.74-0.03,4.53c-0.02,3.17,0.02,6.33,0.21,9.5c0.17,2.87,0.01,6.21,1.47,8.87
			c1.36,2.46,4.11,2.57,5.78,4.47c2.02,2.28,1.69,7.91,2.17,10.72c1.96,11.65,1.21,22.48,0.57,34.12
			c-0.67,12.26,0.42,24.53,1.51,36.75C69.12,227.75,71.49,228.23,77.9,228.33z"/>
		<path fill="#63774E" d="M51.05,107.56c-7.13-5.2-12.38,5.22-13.75,9.61c-4.22,13.52-4.54,27.53-3.24,41.37
			c0.58,6.21,2.01,12.14,3.19,18.19c1.37,7.02,0.31,14.93,0.44,22.04c0.14,7.25,0.28,14.56,2.03,21.7c0.64,2.62,1.16,7.1,4.03,8.35
			c3.49,1.52,11.13,0.55,14.95,0.31c0.77-0.05,1.59-0.12,2.16-0.55c0.67-0.51,0.78-1.35,0.83-2.11c1.68-22.8,3.01-45.31,3.63-68.11
			c0.09-3.33,0.34-6.65,0.5-9.97c0.09-1.84-0.43-4.73,1.26-6.24c1.82-1.63,5.56-1.71,7.65-3.45c3.42-2.86,4.26-7.34,6.22-10.85
			c2.44-4.37,4.42-8.91,5.91-13.55c0.37-1.16,0.21-2.39-0.73-3.32c-0.29-0.29-0.66-0.51-1.03-0.74c-0.74-0.45-1.48-0.9-2.22-1.36
			c-3.39-0.01-6.93-0.34-10.32-0.34c-7.17-0.01-14.38-0.03-21.46-0.94"/>
		<path fill="#6F825A" d="M71.55,116.16c-0.16,5.69-0.75,11.37-1.79,16.99c3.33-5.33,4.21-11.4,5.05-17.32
			c0.05-0.37,0.1-0.76-0.05-1.11c-0.36-0.85-1.84-1.13-2.77-0.65s-1.32,1.47-1.15,2.36"/>
		<path fill="#938C6C" d="M41.01,107.45c-0.43,1.21-1.43,2.86-1.23,4c0.19,1.1,1.84,1.48,2.97,1.9c4.16,1.55,9.1,2.35,13.62,3.09
			c5.91,0.96,11.96,1.51,18.01,1.63c2.09,0.04,4.19,0.15,6.26-0.03c1.63-0.14,5.94-0.83,6.49-2.18c0.16-0.39,0.08-0.81-0.02-1.22
			c-0.39-1.56-0.59-3.11-0.85-4.66c-1.34-0.1-2.89,0.51-4.25,0.69c-1.73,0.23-3.45,0.69-5.2,0.8c-2.32,0.15-4.66,0.11-6.99-0.01
			c-7.45-0.39-14.45-2.05-21.47-3.85c-1.6-0.41-3.2-0.82-4.76-1.31c-0.49-0.16-1.46-0.68-1.97-0.48c-0.42,0.17-0.43,1.07-0.52,1.37
			C41.07,107.28,41.04,107.36,41.01,107.45z"/>
	</g>
	<path fill="#F6D2BA" d="M107.92,115.36c2.61,2.63,6.71,3.46,9.51,5.89c2.13,1.85,4.9,3.25,4.06-0.65c0.01,0.04,2.99,0.89,3.37,1.08
		c1.18,0.6,2.1,1.53,3.58,1.61c1.6,0.08,3.14-0.77,3.93-1.94c1.18-1.75,1.15-4.05-0.48-5.51c-6.27-5.63-16.26-6.79-25.67-7.72
		C105.12,110.77,106.09,113.52,107.92,115.36z"/>
	<path fill="#566345" d="M88.16,84.81c2.72,3.83,7.51,7.36,10.86,10.14c3.55,2.94,7.34,5.68,11.34,8.18
		c2.04,1.28,4.14,2.49,6.28,3.65c1.1,0.59,2.11,0.8,2.28,1.85c0.18,1.09-0.76,2.83-1.21,3.84c-0.7,1.58-1.81,3.49-3.94,3.88
		c-1.96,0.36-4.5,0.53-6.49,0.3c-2.39-0.27-4.69-2.3-6.55-3.49c-7.45-4.78-14.91-9.56-22.36-14.34c-1.4-0.9-2.82-1.81-3.86-3
		c-1.95-2.21-2.3-5.57-3.27-8.18c-1.35-3.62-2.53-7.27-4.1-10.83c-0.42-0.94-0.84-1.9-0.99-2.9c-0.8-5.3,4.11-12.01,6.33-16.8
		c1.14-2.46,1.49-5.08,2.15-7.64c0.59-2.27,0.93-5.29,3.79-3.02c2.23,1.76,4.59,5.27,5.56,7.73c3.18,8.1,0.66,18.04,2.2,26.35
		C86.45,81.98,87.17,83.42,88.16,84.81z"/>
	<path fill="#FFFFFF" d="M67.65,43.34c-0.8,0.06-0.98,1.07-1.4,1.51c-0.56,0.59-1.51,1.05-2.32,1.36c-1.66,0.63-3.58,0.79-5.34,0.37
		c-0.69-0.17-7.66-3.2-7.42-3.63c-1.18,2.11-0.3,4.86-0.32,7.11c-0.03,2.48-0.03,4.96,0,7.44c0.04,4.91,0.17,9.81,0.35,14.72
		c0.18,4.91,0.41,9.81,0.67,14.72c0.07,1.3,0.23,14.54,0.78,14.62c7.85,1.11,15.94,1.08,23.78-0.08c0.02-4.32-0.07-8.64-0.25-12.95
		c-0.48-11.36-1.63-22.7-3.47-33.96c-0.43-2.61-0.92-5.24-1.95-7.74c-0.38-0.91-1.18-2.64-2.15-3.19
		C68.22,43.4,67.91,43.32,67.65,43.34z"/>
	<path fill="#63774E" d="M72.57,117.63c-4.28,0-8.4-0.43-11.69-1.23c-4.27-1.05-7.04-3.6-10.88-5.07
		c-3.73-1.42-7.61-2.12-11.03-4.27c-0.43-0.27-0.87-0.58-1.05-1.01c-0.26-0.62,0.53-1.35,0.67-1.98c0.54-2.44,0.05-5.3-0.15-7.77
		c-0.41-5.11-1.26-10.2-1.68-15.31c-0.84-10.06-6.63-19.13-6.98-29.29c-0.09-2.65,0.11-6.73,3.35-8.16
		c1.13-0.49,2.43-0.62,3.66-0.89c0.88-0.19,1.73-0.46,2.57-0.76c1.43-0.51,2.82-1.1,4.27-1.56c2.31-0.72,4.98-1.07,7.18-0.15
		c1.51,0.64,3.11,1.71,3.88,2.98c3.11,5.1,6.64,9.63,11.48,13.74c-0.93-0.79-0.46-4.72-0.45-5.81c0.02-1.87,0.49-3.6,0.64-5.44
		c0.05-0.63,0.09-1.26,0.09-1.9c0-0.39-0.31-1.61-0.08-1.91c1.9-2.53,8.75,0.76,10.92,1.5c5.03,1.71,9.15,2.96,11.32,7.66
		c1.17,2.53,0.95,4.83,1.53,7.37c0.69,3.04,2.8,6.14,4.34,8.93c2.91,5.28,6.06,10.51,7.35,16.29c1.41,6.34,2.03,13.57-0.45,19.77
		c-1.66,4.17-4.8,8.01-9.22,10.4C87.23,116.42,79.68,117.63,72.57,117.63z"/>
	<path fill="#6F825A" d="M79.77,113.8c6.26-12.68,6.74-31.57-3.49-41.94c-3.8-3.85-9.04-7.1-11.66-11.65c-1.25-2.17-2-4.61-1.63-7
		c1.19,1.05,2.02,2.39,2.37,3.81c0.47-0.84,0.69-2.59,1.53-3.16c-2.1,1.45,2.77,8.55,3.86,9.84c2.49,2.99,5.67,5.56,8.24,8.5
		c10.98,12.6,7.2,31.39,2.39,45.34c-1.24-0.02-2.48-0.03-3.72-0.05C78.42,116.34,79.12,115.1,79.77,113.8z"/>
	<g>
		<path fill="#F6D2BA" d="M55.57,90.14c4.2,0,8.35,0.44,12.49,0.69c3.15,0.19,6.32,1.06,2.14,2.95c0.05-0.02,2.85,1.32,3.28,1.44
			c4.81,1.31,6.89,4.53,1.76,7.61c-2.91,1.75-6.62,1.97-9.99,1.12c-1.68-0.42-3.24-1.11-4.76-1.84c-2-0.96-4.82-2.1-6.28-3.63
			c-1.07-1.11-1.07-2.64-2.08-3.86c-0.7-0.84-3.66-1.55-3.68-2.6C48.41,89.63,53.99,90.14,55.57,90.14z"/>
		<g>
			<path fill="#6F825A" d="M19.53,58.6c-0.33,1.54-0.57,3.09-0.81,4.63c-0.47,3.08-0.95,6.15-1.42,9.23
				c-0.35,2.24-0.69,4.55-0.03,6.74c1.34,4.47,6.38,7.35,11.04,9.82c8.4,4.44,16.93,8.94,26.48,11.27c0.87,0.21,1.82,0.41,2.67,0.14
				c0.63-0.2,1.11-0.62,1.56-1.04c2.51-2.33,5.41-5.12,6.99-7.98C60.26,85.35,52,81.58,44.3,77.53c-1.54-0.81-4.85-1.96-5.78-3.28
				c-0.8-1.14,0.41-2.4,0.92-3.53c1.06-2.3,1.81-4.69,2.67-7.05c1.15-3.18,1.4-5.79,1.5-9.02c0.13-4.08,1.92-10.48-5.06-11.28
				c-6.93-0.79-13.59,3.07-16.48,8.14C20.79,53.75,20.05,56.15,19.53,58.6z"/>
		</g>
	</g>
</g>
</svg>
