<svg xmlns="http://www.w3.org/2000/svg" xmlns:xlink="http://www.w3.org/1999/xlink" viewBox="0 0 194.25 416.26"><defs><style>.cls-1,.cls-10,.cls-11,.cls-16,.cls-30,.cls-31,.cls-32,.cls-35,.cls-36,.cls-38,.cls-5{fill:none;}.cls-2{isolation:isolate;}.cls-3,.cls-34{fill:#0f2849;}.cls-4{fill:#ef5b5b;}.cls-5{stroke:#ef5b5b;stroke-width:1.99px;}.cls-10,.cls-11,.cls-16,.cls-30,.cls-31,.cls-32,.cls-36,.cls-38,.cls-5{stroke-linecap:round;}.cls-16,.cls-30,.cls-31,.cls-32,.cls-5{stroke-linejoin:round;}.cls-12,.cls-6{fill:#fff;}.cls-7{fill:#808285;}.cls-8{fill:#4d7582;}.cls-9{fill:#d2d4d5;}.cls-10,.cls-11{stroke:#4d7582;}.cls-10,.cls-11,.cls-35,.cls-36,.cls-38{stroke-miterlimit:10;}.cls-10{stroke-width:0.66px;}.cls-11{stroke-width:0.39px;}.cls-12{font-size:3.32px;}.cls-12,.cls-34{font-family:Assistant-Bold, Assistant;font-weight:700;}.cls-13{letter-spacing:-0.01em;}.cls-14{letter-spacing:-0.02em;}.cls-15{fill:#b0ceb2;}.cls-16,.cls-30,.cls-31,.cls-32{stroke:#0f2849;}.cls-16{stroke-width:4px;}.cls-17{fill:#bcbec0;}.cls-18{fill:#e6e7e8;}.cls-19{fill:#939598;}.cls-20{clip-path:url(#clip-path);}.cls-21,.cls-23,.cls-24{fill:#c3d7dc;}.cls-21{opacity:0.76;}.cls-22{fill:#e7f6fc;}.cls-24{mix-blend-mode:soft-light;}.cls-25{clip-path:url(#clip-path-3);}.cls-26{fill:#d1e4f6;}.cls-27{fill:#bed7f0;}.cls-28{fill:#deeffa;}.cls-29{fill:#a4c1dc;}.cls-30{stroke-width:1.9px;}.cls-31{stroke-width:1.34px;}.cls-32{stroke-width:1px;}.cls-33{fill:#eeddc4;}.cls-34{font-size:18.39px;}.cls-35{stroke:#fff;stroke-width:1.5px;}.cls-36,.cls-38{stroke:#009ac4;}.cls-36{stroke-width:2px;}.cls-37{fill:#009ac4;}.cls-38{stroke-width:1.92px;}.cls-39{fill:#d1d3d4;}</style><clipPath id="clip-path"><path class="cls-1" d="M185.07,146c-4.81,0-8.72,1.33-8.72,3L178,174.53h0c0,1.33,3.16,2.4,7.06,2.4s7.05-1.07,7.05-2.4h0L193.78,149C193.78,147.33,189.88,146,185.07,146Z"/></clipPath><clipPath id="clip-path-3"><path class="cls-1" d="M.24,144.52A20.07,20.07,0,0,0,1,153.58a64,64,0,0,0,3.57,9.25,35.49,35.49,0,0,1,2.65,6.93A10.58,10.58,0,0,1,6.54,177a13.93,13.93,0,0,1,8.9-2,25.85,25.85,0,0,1,5.7,1.92,29.1,29.1,0,0,0,6.38,1.4,39.75,39.75,0,0,0,6.54.3c2.13-.07,4.23-.55,6.35-.63,4.11-.15,7.86-1.71,12-.17-1.83-2.34-2.09-5.49-2.86-8.36-1.51-5.68-5.21-10.7-6-16.52A17.08,17.08,0,0,1,46,141.76a8.48,8.48,0,0,1-6.45-.46,42.64,42.64,0,0,1-5.68-3.43,41.09,41.09,0,0,0-15.62-5.93,45.17,45.17,0,0,1-6-1.08,7.41,7.41,0,0,1-4.84-4.22c-.24,1.16-.14,2.47-.47,3.58a16.9,16.9,0,0,1-1.32,2.83c-1.14,2.26-2.53,4.37-3.65,6.64A18.8,18.8,0,0,0,.24,144.52Z"/></clipPath></defs><title>Artboard 85</title><g class="cls-2"><g id="Layer_1" data-name="Layer 1"><path class="cls-3" d="M58.66,262.28H57.28v-1.62h1.56l.26-2.13H57.65v-1.62H59.3l.41-3.09h1.45l-.37,3.09h2l.38-3.09h1.46l-.37,3.09H65.7v1.62H64.05l-.26,2.13h1.54v1.62H63.61l-.43,3.49H61.69l.43-3.49h-2l-.42,3.49H58.24Zm3.64-1.62.28-2.13h-2l-.28,2.13Z"/><path class="cls-4" d="M152.05,22.73c6.51-11.25,24.18,1.78.13,18.12h0C127.91,24.8,145.42,11.56,152.05,22.73Z"/><path class="cls-5" d="M143.45,30.46l-9.37,0a.18.18,0,0,1-.16-.12l-1.28-4.12c-.12-.38-.27-.37-.32,0l-1,7.05c-.09.6-.23.6-.33,0l-.72-5s0-.32-.08-.32-.08.24-.08.24l-.38,2.13a.18.18,0,0,1-.16.13l-17,0h-.82c-.67,0-2.17.07-2.17.07a.18.18,0,0,1-.16-.13l-.4-2.13s0-.24-.08-.24-.07.33-.07.33l-.7,5c-.09.6-.23.6-.32,0l-1.07-9.07c-.06-.39-.2-.4-.32,0l-1.25,6.15a.18.18,0,0,1-.16.11l-13.52,0"/><rect class="cls-6" x="84.24" y="18.06" width="39.47" height="42" rx="11.66"/><path class="cls-7" d="M95.66,20.81H112.3A8.67,8.67,0,0,1,121,29.48V43.07a4.68,4.68,0,0,1-4.68,4.68H91.67A4.68,4.68,0,0,1,87,43.07V29.48A8.67,8.67,0,0,1,95.66,20.81Z"/><rect class="cls-8" x="106.79" y="49.9" width="11.05" height="6.53" rx="2.59"/><rect class="cls-9" x="102.27" y="24.03" width="15.65" height="19.34" rx="3.94"/><line class="cls-10" x1="105.71" y1="27.49" x2="105.71" y2="29.06"/><line class="cls-10" x1="105.71" y1="29.69" x2="105.71" y2="31.26"/><line class="cls-10" x1="108.79" y1="29.25" x2="107.22" y2="29.25"/><line class="cls-10" x1="108.79" y1="27.49" x2="107.22" y2="27.49"/><line class="cls-10" x1="109.03" y1="31.26" x2="107.45" y2="31.26"/><line class="cls-10" x1="109.03" y1="27.49" x2="109.03" y2="29.06"/><line class="cls-10" x1="107.24" y1="29.69" x2="107.24" y2="31.26"/><line class="cls-10" x1="110.54" y1="27.49" x2="110.54" y2="29.06"/><line class="cls-10" x1="112.11" y1="27.49" x2="110.54" y2="27.49"/><line class="cls-10" x1="112.11" y1="31.26" x2="110.54" y2="31.26"/><line class="cls-10" x1="112.32" y1="29.69" x2="112.32" y2="31.26"/><line class="cls-10" x1="112.32" y1="27.49" x2="112.32" y2="29.06"/><line class="cls-10" x1="110.54" y1="29.69" x2="110.54" y2="31.26"/><line class="cls-10" x1="110.54" y1="33.03" x2="110.54" y2="34.6"/><line class="cls-10" x1="112.11" y1="33.03" x2="110.54" y2="33.03"/><line class="cls-10" x1="112.11" y1="36.8" x2="110.54" y2="36.8"/><line class="cls-10" x1="112.32" y1="35.23" x2="112.32" y2="36.8"/><line class="cls-10" x1="112.32" y1="33.03" x2="112.32" y2="34.6"/><line class="cls-10" x1="110.54" y1="35.23" x2="110.54" y2="36.8"/><line class="cls-10" x1="107.3" y1="33.03" x2="107.3" y2="34.6"/><line class="cls-10" x1="108.87" y1="33.03" x2="107.3" y2="33.03"/><line class="cls-10" x1="108.87" y1="34.88" x2="107.3" y2="34.88"/><line class="cls-10" x1="108.87" y1="36.8" x2="107.3" y2="36.8"/><line class="cls-10" x1="109.08" y1="35.23" x2="109.08" y2="36.8"/><line class="cls-10" x1="109.08" y1="33.03" x2="109.08" y2="34.6"/><line class="cls-10" x1="107.3" y1="35.23" x2="107.3" y2="36.8"/><line class="cls-11" x1="111.32" y1="38.55" x2="111.32" y2="39.46"/><line class="cls-11" x1="112.24" y1="38.55" x2="111.32" y2="38.55"/><line class="cls-11" x1="112.24" y1="40.75" x2="111.32" y2="40.75"/><line class="cls-11" x1="112.36" y1="39.83" x2="112.36" y2="40.75"/><line class="cls-11" x1="112.36" y1="38.55" x2="112.36" y2="39.46"/><line class="cls-11" x1="111.32" y1="39.83" x2="111.32" y2="40.75"/><line class="cls-11" x1="109.43" y1="38.55" x2="109.43" y2="39.46"/><line class="cls-11" x1="110.35" y1="38.55" x2="109.43" y2="38.55"/><line class="cls-11" x1="110.35" y1="39.63" x2="109.43" y2="39.63"/><line class="cls-11" x1="110.35" y1="40.75" x2="109.43" y2="40.75"/><line class="cls-11" x1="110.47" y1="39.83" x2="110.47" y2="40.75"/><line class="cls-11" x1="110.47" y1="38.55" x2="110.47" y2="39.46"/><line class="cls-11" x1="109.43" y1="39.83" x2="109.43" y2="40.75"/><text class="cls-12" transform="translate(108.77 54.08)"><tspan class="cls-13">s</tspan><tspan class="cls-14" x="1.42" y="0">t</tspan><tspan x="2.6" y="0">art</tspan></text><circle class="cls-15" cx="91.56" cy="43.94" r="1.51"/><circle class="cls-6" cx="96.21" cy="43.94" r="1.51"/><path class="cls-16" d="M126.09,66.73h40.85c10,0,18.13,7.11,18.13,15.89v43.49"/><polygon class="cls-3" points="178.29 118.15 185.07 124.93 191.85 118.15 191.85 123.9 185.07 130.69 178.29 123.9 178.29 118.15"/><path class="cls-16" d="M83.62,66.73H42.77c-10,0-18.13,7.11-18.13,15.89v32.77"/><polygon class="cls-3" points="17.86 107.42 24.64 114.21 31.42 107.42 31.42 113.18 24.64 119.96 17.86 113.18 17.86 107.42"/><polygon class="cls-17" points="192.15 174.53 177.98 174.53 176.35 148.97 193.78 148.97 192.15 174.53"/><ellipse class="cls-18" cx="185.07" cy="148.97" rx="8.71" ry="2.97"/><ellipse class="cls-19" cx="185.07" cy="174.53" rx="7.05" ry="2.4"/><g class="cls-20"><polygon class="cls-21" points="176.98 159.64 193.25 159.92 193.25 179.46 176.35 181.04 173.58 173.14 176.98 159.64"/></g><ellipse class="cls-22" cx="185.07" cy="160.19" rx="7.75" ry="2.64"/><ellipse class="cls-23" cx="184.79" cy="159.92" rx="7.26" ry="2.47"/><ellipse class="cls-17" cx="185.07" cy="148.97" rx="8.19" ry="2.79"/><g class="cls-20"><path class="cls-24" d="M176.4,149.54,178,175.06s4.15,4,3.85,2.87c-4.84-18.67.91-26.28.91-26.28S178.27,151.5,176.4,149.54Z"/></g><g class="cls-25"><path class="cls-26" d="M.24,144.52A20.07,20.07,0,0,0,1,153.58a64,64,0,0,0,3.57,9.25,35.49,35.49,0,0,1,2.65,6.93A10.58,10.58,0,0,1,6.54,177a13.93,13.93,0,0,1,8.9-2,25.85,25.85,0,0,1,5.7,1.92,29.1,29.1,0,0,0,6.38,1.4,39.75,39.75,0,0,0,6.54.3c2.13-.07,4.23-.55,6.35-.63,4.11-.15,7.86-1.71,12-.17-1.83-2.34-2.09-5.49-2.86-8.36-1.51-5.68-5.21-10.7-6-16.52A17.08,17.08,0,0,1,46,141.76a8.48,8.48,0,0,1-6.45-.46,42.64,42.64,0,0,1-5.68-3.43,41.09,41.09,0,0,0-15.62-5.93,45.17,45.17,0,0,1-6-1.08,7.41,7.41,0,0,1-4.84-4.22c-.24,1.16-.14,2.47-.47,3.58a16.9,16.9,0,0,1-1.32,2.83c-1.14,2.26-2.53,4.37-3.65,6.64A18.8,18.8,0,0,0,.24,144.52Z"/><path class="cls-27" d="M20.31,147.38c1-.81,3.25-.08,4.32.19a62,62,0,0,1,10.08,3.5,13.44,13.44,0,0,0,4.13,1.39,10.68,10.68,0,0,0,5-1c-.31,1.4,1.1,5.06-1.15,5.07-4.24,0-8.54,0-12.61-1.14a18.9,18.9,0,0,1-6.86-3.6C22.52,151.21,18.89,148.53,20.31,147.38Z"/><path class="cls-28" d="M40.9,143.11c-.61-.67-1.26-1.29-1.87-1.84-2.65-2.41-6-3.93-9.22-5.36a37.25,37.25,0,0,0-6.53-2.38,14.62,14.62,0,0,0-4.42-.4c-1.2.08-2.26.1-3.44.12.59,1.16,1.12,2.36,1.76,3.49a31.8,31.8,0,0,0,3.38,4.89,29.07,29.07,0,0,0,4.05,3.87,31.55,31.55,0,0,0,4,2.84,43.61,43.61,0,0,0,6,2.91,16.3,16.3,0,0,0,4.72,1.09c1.71.1,4-.85,4.28-2.74C44,147.16,42.57,144.93,40.9,143.11Z"/><path class="cls-29" d="M44.59,160c.52.26,2.75,2.68,2.38,1a15.48,15.48,0,0,0-1.47-3.67c-.25-.47-.71-1.65-1.28-1.82s-1.09.27-1.58.36a20.12,20.12,0,0,1-5.74-.27,45.8,45.8,0,0,1-5.46-1.07,18.68,18.68,0,0,1-4.65-1.43A31.94,31.94,0,0,1,20,147.88c.36.33.55,1.61.81,2.1a9.3,9.3,0,0,0,1.37,1.86c1.1,1.23,2.16,2.88,3.8,3.32,1.92.51,4,.08,5.93.33A15.37,15.37,0,0,1,34,156,59.64,59.64,0,0,1,44.59,160Z"/><path class="cls-29" d="M33.34,156.1a27.59,27.59,0,0,0-7.15-.9,27,27,0,0,0-7.13,1l0-.07.5-.18-.47.25,0-.07a18.84,18.84,0,0,1,7.16-1.41A18.6,18.6,0,0,1,33.34,156.1Z"/><path class="cls-28" d="M38.56,157.11a33.57,33.57,0,0,0-8.24-2,19.12,19.12,0,0,0-5.7.32c-1.57.3-3.25.11-4.81.63-.14,0-.3.18-.22.3.25.34,2.94.34,3.47.47a16.67,16.67,0,0,1,3.81,1.37,17.16,17.16,0,0,1,6.07,5,15.59,15.59,0,0,0,3,3.61A10.35,10.35,0,0,0,38.73,168l4.57,1.58c2.26.77,4.62,1.61,6.26,3.34.3-2.52.58-5.16-.34-7.52-1.31-3.35-4.44-5.86-7.71-7.19C40.54,157.86,39.55,157.47,38.56,157.11Z"/><path class="cls-27" d="M18,173.18a10.3,10.3,0,0,1,3.23-.34,61.89,61.89,0,0,1,22.91,4.63,14.13,14.13,0,0,1-5.45,1.4,57.36,57.36,0,0,1-16-.63,10.06,10.06,0,0,1-2.6-.74,15.14,15.14,0,0,1-1.61-1,11,11,0,0,1-1.72-1C15.81,174.53,17,173.49,18,173.18Z"/><path class="cls-27" d="M11.26,169.59a12,12,0,0,0-1-4.7,40,40,0,0,0-3.51-7.63c-1.21-1.93-2.61-3.8-3.15-6A23.32,23.32,0,0,1,3,144.13a26.57,26.57,0,0,1,1.86-8.2,39.53,39.53,0,0,0,1.64-4.19,6.6,6.6,0,0,0-.13-4.41c-.45,3.79-3.24,6.79-5.1,10.12a23.2,23.2,0,0,0,1.07,23.67c.8,1.21,1.73,2.36,2.45,3.62a15.76,15.76,0,0,1,1.82,5.15c.5,2.75-.2,6.1-.6,8.86a1.7,1.7,0,0,0,1.31-.86,45.16,45.16,0,0,0,2.31-4.19A8.21,8.21,0,0,0,11.26,169.59Z"/><path class="cls-28" d="M10.07,171.83a2.53,2.53,0,0,1,.49-.49,1.79,1.79,0,0,1,2.26.37,2.92,2.92,0,0,1,.58,2.35,6.45,6.45,0,0,0-3.23.55c-.94.39-1.81,1.13-2.75,1.45C7.75,174.59,9.13,173,10.07,171.83Z"/></g><polyline class="cls-30" points="38.3 141.98 44.49 141.98 38.36 148.11 44.49 148.11"/><polyline class="cls-31" points="48.33 136.75 52.68 136.75 48.37 141.07 52.68 141.07"/><polyline class="cls-32" points="41.9 131.1 45.15 131.1 41.93 134.32 45.15 134.32"/><path class="cls-33" d="M56,121.86a15.31,15.31,0,0,0-5.44,1,15.4,15.4,0,0,1,0,28.8A15.39,15.39,0,1,0,56,121.86Z"/><text class="cls-34" transform="translate(67.76 43.2)">1</text><path class="cls-8" d="M168.9,54.32a1.06,1.06,0,0,0-.23-.76.89.89,0,0,0-.67-.24h-2V52.5h2.27a1.69,1.69,0,0,1,1.25.45,1.94,1.94,0,0,1,.45,1.42v5.75H168.9Z"/><path class="cls-8" d="M171.29,53.67l-.12-1.17h1.06l.13,1.17v4.45h-1.07Z"/><path class="cls-8" d="M178.13,57.47a2.14,2.14,0,0,1-1.76.77,3.67,3.67,0,0,1-.86-.1l.11-.82a3.46,3.46,0,0,0,.65.08,1.23,1.23,0,0,0,1.11-.53,2.84,2.84,0,0,0,.35-1.55,2.69,2.69,0,0,0-.34-1.56,1.09,1.09,0,0,0-.95-.48,1.12,1.12,0,0,0-.79.28,1.34,1.34,0,0,0-.4.73l-.67,3.83h-1.07l.72-3.87-.78-1.75h1.11l.45,1.18a1.82,1.82,0,0,1,.64-.94,1.62,1.62,0,0,1,1-.32,1.87,1.87,0,0,1,1.56.7,4.31,4.31,0,0,1-.06,4.35Z"/><path class="cls-8" d="M179.64,57.3h1.62V54.16a.94.94,0,0,0-.17-.62.78.78,0,0,0-.51-.25l-.68-.1.14-.81,1,.15A1.39,1.39,0,0,1,182,53a1.75,1.75,0,0,1,.32,1.1v4h-2.69Z"/><path class="cls-8" d="M92.84,4.37,93,3.7h.92V7.09H92.84Zm3.4-1.08A1.11,1.11,0,0,0,96,2.52a.94.94,0,0,0-.67-.23H92.88V1.47h2.73a1.69,1.69,0,0,1,1.25.45,1.94,1.94,0,0,1,.45,1.42V7.09H96.24Z"/><path class="cls-8" d="M98.32,6.27h1.62V3.13a1,1,0,0,0-.17-.63.82.82,0,0,0-.51-.24l-.68-.1.14-.81,1,.15a1.4,1.4,0,0,1,.92.5A1.75,1.75,0,0,1,101,3.11v4H98.32Z"/><path class="cls-8" d="M102.32,2.64l-.12-1.17h1.06l.13,1.17V7.09h-1.07Z"/><path class="cls-8" d="M108.88,6.16a5.43,5.43,0,0,1-3.68,1l-.73-5.72h1l.32,2.66a1.58,1.58,0,0,0,.75-.71,3.54,3.54,0,0,0,.21-1.32V1.48h1v.6a3.34,3.34,0,0,1-.45,1.76,2.79,2.79,0,0,1-1.43,1.08l.16,1.36a3.17,3.17,0,0,0,2.22-.9A3.36,3.36,0,0,0,109,3.06l0-1.59h1.07V3A3.89,3.89,0,0,1,108.88,6.16Z"/><path class="cls-8" d="M114.63,7.09l-2.1-3.19-1,3.19h-1l1.11-3.44.28-.71L111,1.47h1.09l.84,1.35.84,1.26.25-.87.51-1.74h1L114.38,5l1.38,2.08Z"/><path class="cls-8" d="M119.2,3.29a1.11,1.11,0,0,0-.23-.77.94.94,0,0,0-.67-.23h-1.85V1.47h2.12a1.71,1.71,0,0,1,1.25.45,1.93,1.93,0,0,1,.44,1.42V7.09H119.2Z"/><path class="cls-8" d="M125.76,3.46a2,2,0,0,1,.29-1.17h-2.71V1.47h4.47v.82h-.75a2.51,2.51,0,0,0-.22,1.17V7.09h-1.08Z"/><path class="cls-8" d="M130,2a.54.54,0,0,1,.18.42.64.64,0,0,1-.17.46.59.59,0,0,1-.44.17A.62.62,0,0,1,129,2.8a1.29,1.29,0,0,1-.19-.75A2.05,2.05,0,0,1,130,.17l.26.46a2,2,0,0,0-.6.54,1.24,1.24,0,0,0-.2.71h.09A.64.64,0,0,1,130,2Zm1.94,0a.54.54,0,0,1,.17.42.63.63,0,0,1-.16.46.6.6,0,0,1-.43.17A.63.63,0,0,1,131,2.8a1.29,1.29,0,0,1-.19-.75A2.05,2.05,0,0,1,132,.17l.27.46a1.94,1.94,0,0,0-.61.54,1.23,1.23,0,0,0-.19.71h.09A.64.64,0,0,1,131.93,2Z"/><path class="cls-8" d="M137.33,1.47v.89l-1.88,4.73h-1.07l1.88-4.8h-3V-.08h1V1.47Z"/><path class="cls-8" d="M139.93,6.5a1.09,1.09,0,0,0,.77-.31,1.27,1.27,0,0,0,.21-.81V1.47h2.69a1.68,1.68,0,0,1,1.25.45,1.89,1.89,0,0,1,.45,1.42V7.09h-1.07V3.29a1.11,1.11,0,0,0-.22-.77.94.94,0,0,0-.67-.23H142v3a1.93,1.93,0,0,1-.46,1.44,2.42,2.42,0,0,1-1.49.55Z"/><path class="cls-8" d="M148.77,3.46a2.06,2.06,0,0,1,.28-1.17h-2.7V1.47h4.47v.82h-.75a2.5,2.5,0,0,0-.23,1.17V7.09h-1.07Z"/><path class="cls-8" d="M152,2.64l-.13-1.17h1.06l.13,1.17V4.79L152,5Z"/><path class="cls-8" d="M156.56,3.46a2.06,2.06,0,0,1,.28-1.17h-2.7V1.47h4.46v.82h-.75a2.65,2.65,0,0,0-.22,1.17V7.09h-1.07Z"/><path class="cls-8" d="M164.22,6.43a2.11,2.11,0,0,1-1.76.78,3.73,3.73,0,0,1-.86-.1l.11-.82a3.56,3.56,0,0,0,.65.08,1.23,1.23,0,0,0,1.11-.53,2.75,2.75,0,0,0,.36-1.55,2.83,2.83,0,0,0-.34-1.57,1.11,1.11,0,0,0-1-.47,1.12,1.12,0,0,0-.78.27,1.42,1.42,0,0,0-.41.74l-.66,3.83H159.6l.73-3.87-.79-1.75h1.11l.45,1.18a1.92,1.92,0,0,1,.65-.95,1.58,1.58,0,0,1,1-.31,1.89,1.89,0,0,1,1.56.69,3.43,3.43,0,0,1,.56,2.18A3.34,3.34,0,0,1,164.22,6.43Z"/><path class="cls-8" d="M129.76,277.05l.16-.67h.92v3.39h-1.08Zm3.4-1.08a1.08,1.08,0,0,0-.23-.76.9.9,0,0,0-.67-.24H129.8v-.82h2.72a1.68,1.68,0,0,1,1.25.45,1.91,1.91,0,0,1,.45,1.42v3.75h-1.06Z"/><path class="cls-8" d="M135.5,275.32l-.12-1.17h1.05l.14,1.17v1.52l0,.63-1.05.2Z"/><path class="cls-8" d="M137.9,275.32l-.13-1.17h1.07l.13,1.17v1.52l0,.63-1,.2Z"/><path class="cls-8" d="M140,279h1.63v-3.14a1,1,0,0,0-.17-.62.88.88,0,0,0-.52-.25l-.67-.1.13-.81,1,.15a1.39,1.39,0,0,1,.93.51,1.69,1.69,0,0,1,.32,1.1v4H140Z"/><path class="cls-8" d="M148.19,278.85a5.41,5.41,0,0,1-3.68,1l-.73-5.72h1l.32,2.66a1.45,1.45,0,0,0,.75-.71,3.32,3.32,0,0,0,.22-1.32v-.62h1v.6a3.48,3.48,0,0,1-.43,1.77,3,3,0,0,1-1.45,1.07l.16,1.36a3.09,3.09,0,0,0,2.23-.9,3.29,3.29,0,0,0,.7-2.32l0-1.59h1.07v1.54A3.87,3.87,0,0,1,148.19,278.85Z"/><path class="cls-8" d="M154.72,276.14A2,2,0,0,1,155,275H152.3v-.82h4.46V275H156a2.65,2.65,0,0,0-.22,1.17v3.63h-1.07Z"/><path class="cls-8" d="M159,274.71a.5.5,0,0,1,.17.41.61.61,0,0,1-.16.46.57.57,0,0,1-.44.17.64.64,0,0,1-.53-.26,1.35,1.35,0,0,1-.19-.76,2,2,0,0,1,1.17-1.88l.26.46a2,2,0,0,0-.6.54,1.26,1.26,0,0,0-.2.71h.09A.6.6,0,0,1,159,274.71Zm1.94,0a.5.5,0,0,1,.17.41.61.61,0,0,1-.16.46.57.57,0,0,1-.44.17.64.64,0,0,1-.53-.26,1.35,1.35,0,0,1-.19-.76,2,2,0,0,1,1.17-1.88l.27.46a1.94,1.94,0,0,0-.61.54,1.26,1.26,0,0,0-.2.71h.09A.6.6,0,0,1,160.89,274.71Z"/><path class="cls-8" d="M166.28,274.15V275l-1.87,4.73h-1.07l1.87-4.8h-3V272.6h1v1.55Z"/><path class="cls-8" d="M168.88,279.18a1.09,1.09,0,0,0,.78-.31,1.23,1.23,0,0,0,.2-.81v-3.91h2.7a1.68,1.68,0,0,1,1.25.45,2,2,0,0,1,.45,1.42v3.75h-1.07V276a1,1,0,0,0-.23-.76.87.87,0,0,0-.67-.24h-1.36v3a1.93,1.93,0,0,1-.46,1.44,2.36,2.36,0,0,1-1.49.55Z"/><path class="cls-8" d="M177.73,276.14A2.06,2.06,0,0,1,178,275h-2.7v-.82h4.46V275H179a2.65,2.65,0,0,0-.22,1.17v3.63h-1.07Z"/><path class="cls-8" d="M181,275.32l-.12-1.17h1.06l.13,1.17v2.15l-1.06.2Z"/><path class="cls-8" d="M185.52,276.14a2.06,2.06,0,0,1,.28-1.17h-2.7v-.82h4.46V275h-.75a2.65,2.65,0,0,0-.22,1.17v3.63h-1.07Z"/><path class="cls-8" d="M193.18,279.12a2.14,2.14,0,0,1-1.76.77,3.73,3.73,0,0,1-.86-.1l.11-.82a2.85,2.85,0,0,0,.65.08,1.21,1.21,0,0,0,1.11-.53,2.76,2.76,0,0,0,.35-1.55,2.8,2.8,0,0,0-.33-1.56,1.09,1.09,0,0,0-1-.48,1.13,1.13,0,0,0-.78.28,1.39,1.39,0,0,0-.41.73l-.67,3.83h-1.07l.72-3.87-.78-1.75h1.11l.45,1.18a1.88,1.88,0,0,1,.64-.94,1.64,1.64,0,0,1,1-.32,1.87,1.87,0,0,1,1.56.7,4.31,4.31,0,0,1-.06,4.35Z"/><path class="cls-3" d="M54.14,415.6,52,412.41l-1,3.19H50l1.1-3.44.28-.71L50.49,410h1.09l.84,1.35.84,1.26.25-.87L54,410h1l-1.16,3.54,1.39,2.08Z"/><path class="cls-3" d="M56.27,414.78h1.81a1.47,1.47,0,0,0,1.09-.41,1.77,1.77,0,0,0,.4-1.25v-.67a2,2,0,0,0-.32-1.22,1.13,1.13,0,0,0-1-.43h-.9l-.22,1a1.49,1.49,0,0,0-.05.39.6.6,0,0,0,.17.46,1.17,1.17,0,0,0,.56.25l-.19.69a1.81,1.81,0,0,1-1.14-.4,1.25,1.25,0,0,1-.35-.95,2.17,2.17,0,0,1,0-.53l.39-1.72h1.91a2,2,0,0,1,1.56.66,2.78,2.78,0,0,1,.56,1.85v.58A2.56,2.56,0,0,1,60,415a2.31,2.31,0,0,1-1.7.65h-2Z"/><path class="cls-3" d="M61.79,411.15,61.67,410h1.06l.13,1.17v4.45H61.79Z"/><path class="cls-3" d="M66.59,411.8a1.09,1.09,0,0,0-.23-.77.9.9,0,0,0-.67-.23H63.84V410H66a1.66,1.66,0,0,1,1.25.45,1.94,1.94,0,0,1,.45,1.42v3.75H66.59Z"/><path class="cls-3" d="M72.75,410v.89l-1.87,4.73H69.81l1.87-4.8h-3v-2.37h1V410Z"/><path class="cls-3" d="M75.84,411.15,75.73,410h1.06l.13,1.17v4.45H75.84Z"/><path class="cls-3" d="M82.27,410.47a2.11,2.11,0,0,1,.45,1.48v3.65H81.65v-3.7c0-.74-.31-1.1-.9-1.1H79.21v4.8H78.13V410H81A1.61,1.61,0,0,1,82.27,410.47Z"/><path class="cls-3" d="M87.79,410v.89l-1.87,4.73H84.84l1.88-4.8h-3v-2.37h1V410Z"/><path class="cls-3" d="M93.05,414.67a5.43,5.43,0,0,1-3.68,1L88.64,410h1l.32,2.66a1.62,1.62,0,0,0,.75-.71,3.62,3.62,0,0,0,.21-1.32V410h1v.6a3.34,3.34,0,0,1-.45,1.76,2.9,2.9,0,0,1-1.43,1.08l.16,1.36a3.17,3.17,0,0,0,2.22-.9,3.37,3.37,0,0,0,.71-2.32l0-1.59h1.07v1.54A4,4,0,0,1,93.05,414.67Z"/><path class="cls-8" d="M144.72,173.28a1.14,1.14,0,0,0,.78-.32,1.28,1.28,0,0,0,.2-.8v-3.91h2.7a1.66,1.66,0,0,1,1.25.45,1.94,1.94,0,0,1,.45,1.42v3.75H149v-3.8a1.09,1.09,0,0,0-.23-.77.9.9,0,0,0-.67-.23h-1.36v3a1.93,1.93,0,0,1-.46,1.43,2.41,2.41,0,0,1-1.49.56Z"/><path class="cls-8" d="M151.4,169.41l-.12-1.16h1.06l.13,1.16v4.46H151.4Z"/><path class="cls-8" d="M153.3,173.28a1.14,1.14,0,0,0,.78-.32,1.28,1.28,0,0,0,.2-.8v-3.91H157a1.66,1.66,0,0,1,1.25.45,1.94,1.94,0,0,1,.45,1.42v3.75h-1.07v-3.8a1.09,1.09,0,0,0-.23-.77.9.9,0,0,0-.67-.23h-1.36v3a1.93,1.93,0,0,1-.46,1.43,2.41,2.41,0,0,1-1.49.56Z"/><path class="cls-8" d="M164.14,172.94a5.38,5.38,0,0,1-3.68,1l-.73-5.71h1l.32,2.66a1.62,1.62,0,0,0,.75-.71,3.83,3.83,0,0,0,.22-1.33v-.61h1v.6a3.43,3.43,0,0,1-.44,1.76,3,3,0,0,1-1.44,1.08l.16,1.35a3.1,3.1,0,0,0,2.22-.89,3.37,3.37,0,0,0,.71-2.32l0-1.59h1.07v1.54A3.92,3.92,0,0,1,164.14,172.94Z"/><path class="cls-8" d="M170.26,168.25v.88l-1.87,4.74h-1.07l1.87-4.8h-3V166.7h1v1.55Z"/><path class="cls-8" d="M66,168.74a2.13,2.13,0,0,1,.44,1.47v3.66H65.34v-3.71c0-.73-.3-1.09-.9-1.09H62.9v4.8H61.83v-5.62h2.88A1.61,1.61,0,0,1,66,168.74Z"/><path class="cls-8" d="M67.72,169.41l-.12-1.16h1.06l.13,1.16v4.46H67.72Z"/><path class="cls-8" d="M69.86,173h1.62v-3.13a.91.91,0,0,0-.17-.63.77.77,0,0,0-.51-.24l-.68-.1.14-.82,1,.16a1.38,1.38,0,0,1,.93.5,1.79,1.79,0,0,1,.32,1.1v4H69.86Z"/><path class="cls-8" d="M77.62,168.25v.88l-1.87,4.74H74.68l1.87-4.8h-3V166.7h1v1.55Z"/><path class="cls-8" d="M29.11,55.4l.15-.67h.92v3.39H29.11Zm3.4-1.08a1,1,0,0,0-.24-.76.87.87,0,0,0-.67-.24H29.15V52.5h2.73a1.69,1.69,0,0,1,1.25.45,1.94,1.94,0,0,1,.45,1.42v3.75H32.51Z"/><path class="cls-8" d="M34.84,53.67l-.11-1.17h1.06l.13,1.17v4.45H34.84Z"/><path class="cls-8" d="M41.54,57.3v.82H37V57.3h2.77v-3a1.06,1.06,0,0,0-.22-.76.9.9,0,0,0-.67-.24H37V52.5h2.15A1.71,1.71,0,0,1,40.4,53a2,2,0,0,1,.44,1.42V57.3Z"/><path class="cls-8" d="M44.38,58.12l-.21-1.23a3.06,3.06,0,0,1-.7.85,2.94,2.94,0,0,1-1,.54l-.4-.85a4,4,0,0,0,1.16-.6,2.67,2.67,0,0,0,.74-.92V54.16a1.25,1.25,0,0,0-.12-.63.57.57,0,0,0-.44-.25l-.62-.09.13-.81,1,.14a1.21,1.21,0,0,1,.86.46,1.8,1.8,0,0,1,.27,1.07V56l.34,2.15Z"/><path class="cls-4" d="M152.05,244.73c6.51-11.25,24.18,1.78.13,18.11v0h0v0C127.91,246.8,145.42,233.56,152.05,244.73Z"/><path class="cls-5" d="M143.45,252.46l-9.37,0a.2.2,0,0,1-.16-.12l-1.28-4.12c-.12-.38-.27-.37-.32,0l-1,7.06c-.09.6-.23.6-.33,0l-.72-5s0-.33-.08-.33-.08.25-.08.25l-.38,2.13a.18.18,0,0,1-.16.13l-17,.05h-.82c-.67,0-2.17.07-2.17.07a.18.18,0,0,1-.16-.13l-.4-2.13s0-.24-.08-.24-.07.32-.07.32l-.7,5c-.09.6-.23.6-.32,0l-1.07-9.07c-.06-.39-.2-.4-.32,0l-1.25,6.15a.18.18,0,0,1-.16.11l-13.52,0"/><rect class="cls-6" x="84.24" y="240.06" width="39.47" height="42" rx="11.66"/><path class="cls-7" d="M95.66,242.81H112.3a8.67,8.67,0,0,1,8.67,8.67v13.59a4.68,4.68,0,0,1-4.68,4.68H91.67A4.68,4.68,0,0,1,87,265.07V251.47A8.67,8.67,0,0,1,95.66,242.81Z"/><rect class="cls-8" x="106.79" y="271.9" width="11.05" height="6.53" rx="2.59"/><rect class="cls-9" x="102.27" y="246.03" width="15.65" height="19.34" rx="3.94"/><line class="cls-10" x1="105.71" y1="249.49" x2="105.71" y2="251.06"/><line class="cls-10" x1="105.71" y1="251.69" x2="105.71" y2="253.26"/><line class="cls-10" x1="108.79" y1="251.25" x2="107.22" y2="251.25"/><line class="cls-10" x1="108.79" y1="249.49" x2="107.22" y2="249.49"/><line class="cls-10" x1="109.03" y1="253.26" x2="107.45" y2="253.26"/><line class="cls-10" x1="109.03" y1="249.49" x2="109.03" y2="251.06"/><line class="cls-10" x1="107.24" y1="251.69" x2="107.24" y2="253.26"/><line class="cls-10" x1="110.54" y1="249.49" x2="110.54" y2="251.06"/><line class="cls-10" x1="112.11" y1="249.49" x2="110.54" y2="249.49"/><line class="cls-10" x1="112.11" y1="253.26" x2="110.54" y2="253.26"/><line class="cls-10" x1="112.32" y1="251.69" x2="112.32" y2="253.26"/><line class="cls-10" x1="112.32" y1="249.49" x2="112.32" y2="251.06"/><line class="cls-10" x1="110.54" y1="251.69" x2="110.54" y2="253.26"/><line class="cls-10" x1="110.54" y1="255.03" x2="110.54" y2="256.6"/><line class="cls-10" x1="112.11" y1="255.03" x2="110.54" y2="255.03"/><line class="cls-10" x1="112.11" y1="258.8" x2="110.54" y2="258.8"/><line class="cls-10" x1="112.32" y1="257.23" x2="112.32" y2="258.8"/><line class="cls-10" x1="112.32" y1="255.03" x2="112.32" y2="256.6"/><line class="cls-10" x1="110.54" y1="257.23" x2="110.54" y2="258.8"/><line class="cls-10" x1="107.3" y1="255.03" x2="107.3" y2="256.6"/><line class="cls-10" x1="108.87" y1="255.03" x2="107.3" y2="255.03"/><line class="cls-10" x1="108.87" y1="256.88" x2="107.3" y2="256.88"/><line class="cls-10" x1="108.87" y1="258.8" x2="107.3" y2="258.8"/><line class="cls-10" x1="109.08" y1="257.23" x2="109.08" y2="258.8"/><line class="cls-10" x1="109.08" y1="255.03" x2="109.08" y2="256.6"/><line class="cls-10" x1="107.3" y1="257.23" x2="107.3" y2="258.8"/><line class="cls-11" x1="111.32" y1="260.55" x2="111.32" y2="261.46"/><line class="cls-11" x1="112.24" y1="260.55" x2="111.32" y2="260.55"/><line class="cls-11" x1="112.24" y1="262.75" x2="111.32" y2="262.75"/><line class="cls-11" x1="112.36" y1="261.83" x2="112.36" y2="262.75"/><line class="cls-11" x1="112.36" y1="260.55" x2="112.36" y2="261.46"/><line class="cls-11" x1="111.32" y1="261.83" x2="111.32" y2="262.75"/><line class="cls-11" x1="109.43" y1="260.55" x2="109.43" y2="261.46"/><line class="cls-11" x1="110.35" y1="260.55" x2="109.43" y2="260.55"/><line class="cls-11" x1="110.35" y1="261.62" x2="109.43" y2="261.62"/><line class="cls-11" x1="110.35" y1="262.75" x2="109.43" y2="262.75"/><line class="cls-11" x1="110.47" y1="261.83" x2="110.47" y2="262.75"/><line class="cls-11" x1="110.47" y1="260.55" x2="110.47" y2="261.46"/><line class="cls-11" x1="109.43" y1="261.83" x2="109.43" y2="262.75"/><text class="cls-12" transform="translate(108.77 276.08)"><tspan class="cls-13">s</tspan><tspan class="cls-14" x="1.42" y="0">t</tspan><tspan x="2.6" y="0">art</tspan></text><circle class="cls-15" cx="91.56" cy="265.94" r="1.51"/><circle class="cls-6" cx="96.21" cy="265.94" r="1.51"/><path class="cls-16" d="M88.59,298.65H68.68c-9.94,49.07,35.2,44.7,35.2,44.7L104,358"/><polygon class="cls-3" points="97.13 350.11 103.95 356.86 110.7 350.03 110.73 355.79 103.98 362.61 97.16 355.86 97.13 350.11"/><text class="cls-34" transform="translate(67.35 265.77)">2</text><path class="cls-8" d="M150.09,314.69a1.08,1.08,0,0,0-.23-.76.89.89,0,0,0-.67-.24h-2v-.82h2.27a1.69,1.69,0,0,1,1.25.45,2,2,0,0,1,.45,1.42v5.75h-1.07Z"/><path class="cls-8" d="M152.48,314l-.12-1.17h1.06l.13,1.17v4.45h-1.07Z"/><path class="cls-8" d="M159.32,317.84a2.11,2.11,0,0,1-1.76.77,3.67,3.67,0,0,1-.86-.1l.11-.82a2.79,2.79,0,0,0,.65.08,1.21,1.21,0,0,0,1.11-.53,3.73,3.73,0,0,0,0-3.11,1.12,1.12,0,0,0-1-.48,1.17,1.17,0,0,0-.79.28,1.38,1.38,0,0,0-.4.73l-.67,3.83H154.7l.72-3.87-.78-1.75h1.11l.45,1.18a1.82,1.82,0,0,1,.64-.94,1.62,1.62,0,0,1,1-.32,1.9,1.9,0,0,1,1.56.7,4.31,4.31,0,0,1-.06,4.35Z"/><path class="cls-8" d="M160.83,317.67h1.62v-3.14a1,1,0,0,0-.17-.62.82.82,0,0,0-.51-.25l-.68-.1.14-.81,1,.15a1.35,1.35,0,0,1,.92.51,1.72,1.72,0,0,1,.33,1.1v4h-2.69Z"/><path class="cls-8" d="M43.71,315.77l.15-.67h.92v3.39H43.71Zm3.39-1.08a1.08,1.08,0,0,0-.23-.76.89.89,0,0,0-.67-.24H43.74v-.82h2.73a1.69,1.69,0,0,1,1.25.45,2,2,0,0,1,.45,1.42v3.75H47.1Z"/><path class="cls-8" d="M49.44,314l-.12-1.17h1.06l.13,1.17v4.45H49.44Z"/><path class="cls-8" d="M56.13,317.67v.82H51.59v-.82h2.78v-3a1.08,1.08,0,0,0-.23-.76.89.89,0,0,0-.67-.24H51.59v-.82h2.15a1.69,1.69,0,0,1,1.25.45,2,2,0,0,1,.45,1.42v2.93Z"/><path class="cls-8" d="M59,318.49l-.22-1.23a3.06,3.06,0,0,1-.69.85,3,3,0,0,1-1,.54l-.39-.85a4.08,4.08,0,0,0,1.16-.6,2.55,2.55,0,0,0,.73-.92v-1.75a1.39,1.39,0,0,0-.11-.63.62.62,0,0,0-.44-.25l-.63-.09.14-.81,1,.14a1.27,1.27,0,0,1,.86.46,1.9,1.9,0,0,1,.26,1.07v1.92l.34,2.15Z"/><path class="cls-16" d="M185.07,188.13v6.13c0,8.46-5.81,15.32-13,15.32H113.73c-4.5,0-8.15,4.31-8.15,9.63v9.31"/><polygon class="cls-3" points="98.8 220.55 105.58 227.34 112.36 220.55 112.36 226.31 105.58 233.09 98.8 226.31 98.8 220.55"/><path class="cls-16" d="M26.09,188.13v6.13c0,8.46,5.8,15.32,13,15.32H97.43c4.5,0,8.15,4.31,8.15,9.63v9.31"/><polygon class="cls-3" points="98.8 220.55 105.58 227.34 112.36 220.55 112.36 226.31 105.58 233.09 98.8 226.31 98.8 220.55"/><path class="cls-16" d="M118.9,298.65h19.92c9.94,49.07-35.2,44.7-35.2,44.7L103.54,358"/><polygon class="cls-3" points="96.8 350.03 103.55 356.86 110.36 350.11 110.33 355.86 103.52 362.61 96.77 355.79 96.8 350.03"/><path class="cls-35" d="M143.81,373.65c3.33-.59,6.61-.77,9.14,1.93a8.29,8.29,0,0,1,2.05,9.15c-1.22,3.71-4.75,6.59-7.92,8.8"/><path class="cls-36" d="M147,393.57a61.53,61.53,0,0,1-18.06,6.18c-2.18.37-4,.6-5.39,2.47"/><path class="cls-37" d="M144,374.3a1.11,1.11,0,0,0,0-.69,1.36,1.36,0,0,0-.47-.53,4.7,4.7,0,0,0-3.57.09c.49,1.21,1,2.4,1.49,3.6A5.07,5.07,0,0,0,144,374.3Z"/><path class="cls-3" d="M141.51,374.66c.26.66.55,1.8-.28,2.13s-1.4-.71-1.66-1.37-.54-1.81.29-2.14S141.25,374,141.51,374.66Z"/><path class="cls-35" d="M135.49,368.49c-1.47-3.06-3.26-5.78-6.92-6.24a8.4,8.4,0,0,0-8.65,3.66c-2.31,3.12-2.58,7.61-2.55,11.46"/><path class="cls-36" d="M117.39,377.45a62.86,62.86,0,0,0,5.35,18.29c1,2,1.8,3.61,1,5.83"/><path class="cls-37" d="M134.83,368.69a1.15,1.15,0,0,1,.59-.37,1.49,1.49,0,0,1,.71.07,4.7,4.7,0,0,1,2,3l-3.81.87A5.12,5.12,0,0,1,134.83,368.69Z"/><path class="cls-3" d="M136,370.93c-.68.17-1.79.6-1.57,1.46s1.39.73,2.07.56,1.79-.6,1.58-1.47S136.69,370.76,136,370.93Z"/><path class="cls-37" d="M121.6,403.05a1.77,1.77,0,0,0,.64.77,2.47,2.47,0,0,0,1,.31,5.87,5.87,0,0,0,4.13-2.56c-1.58-1.1-3.16-2.16-4.78-3.2A6.09,6.09,0,0,0,121.6,403.05Z"/><path class="cls-38" d="M96.58,380.34c-.55.64-.5,1.31-1.19,1.91s-1.91,1-2.59,1.75a3,3,0,0,0-.9,2.1,3.77,3.77,0,0,0,2.44,3.54c1.57.65,3.1.3,4.76.4,2.64.17,5.63.1,7.83,1.76,3.69,2.8,1.4,6.33-1.85,8.24-1.6.93-2.65,1.74-3.19,3.5a4.61,4.61,0,0,0,.13,3.52c1.44,2.69,3.85,2.24,6.39,2.62a4.49,4.49,0,0,1,3.34,2.92c.17.47.29,1,.49,1.43a3.92,3.92,0,0,0,3.6,2.23c2.92-.11,3.72-2.82,4.13-5.16a26.18,26.18,0,0,1,3.22-8.77"/><path class="cls-39" d="M95.87,381.33c-2-.94-3.76-2.9-2.55-5.13s4-1.81,5.94-.8,4,3,2.74,5.23S97.87,382.26,95.87,381.33Z"/><path class="cls-3" d="M96.11,380.55c-1.78-.88-3.4-2.61-2.31-4.62s3.58-1.64,5.35-.72,3.58,2.67,2.46,4.72S97.9,381.43,96.11,380.55Z"/><path class="cls-3" d="M59.55,39.87H58.17V38.25h1.57L60,36.12H58.54V34.5H60.2l.4-3.09h1.45l-.36,3.09h2l.39-3.09h1.45l-.37,3.09H66.6v1.62H64.94l-.26,2.13h1.55v1.62H64.5l-.42,3.5H62.59l.42-3.5H61l-.42,3.5H59.13Zm3.64-1.62.28-2.13h-2l-.27,2.13Z"/></g></g></svg>