<?xml version="1.0" encoding="utf-8"?>
<!-- Generator: Adobe Illustrator 23.0.0, SVG Export Plug-In . SVG Version: 6.00 Build 0)  -->
<svg version="1.1" id="Layer_1" xmlns="http://www.w3.org/2000/svg" xmlns:xlink="http://www.w3.org/1999/xlink" x="0px" y="0px"
	 viewBox="0 0 131.41 16.85" enable-background="new 0 0 131.41 16.85" xml:space="preserve">
<path fill="none" stroke="#9ACFDA" stroke-width="4" stroke-linecap="round" stroke-linejoin="round" stroke-miterlimit="10" d="
	M129.41,4.21c-1.74,1.71-3.72,3.19-5.76,4.52c-6.42,4.19-14.06,6.76-21.79,5.97c-5.14-0.53-9.99-2.54-14.23-5.45
	c-4.35-2.98-9.82-6.94-15.32-4.17c-2.97,1.5-4.99,4.18-6.76,6.91c-0.7-1.52-2.16-2.9-3.27-4.13c-2.28-2.52-4.87-3.85-8.31-3.53
	c-3.48,0.32-6.84,1.79-9.73,3.71c-4.34,2.89-9.28,4.87-14.49,5.34c-7.81,0.7-15.48-2.06-21.85-6.46C5.8,5.48,3.77,3.85,2,2"/>
</svg>
