<?xml version="1.0" encoding="utf-8"?>
<!-- Generator: Adobe Illustrator 23.0.0, SVG Export Plug-In . SVG Version: 6.00 Build 0)  -->
<svg version="1.1" id="Layer_1" xmlns="http://www.w3.org/2000/svg" xmlns:xlink="http://www.w3.org/1999/xlink" x="0px" y="0px"
	 viewBox="0 0 56.97 80.82" enable-background="new 0 0 56.97 80.82" xml:space="preserve">
<g>
	
		<path fill="#F26522" stroke="#F26522" stroke-width="2.7061" stroke-linecap="round" stroke-linejoin="round" stroke-miterlimit="10" d="
		M29.12,35.62c-0.5,2.47-1.72,4.68-3.25,6.66c-1.61,2.08-3.49,2.39-5.26,4.15c-3.49,3.46-9.99,10.64-8.22,16.18
		c0.41,1.28,2.18,2.69,3.16,3.56c2.98,2.67,6.69,4.41,10.37,5.9c6.8,2.75,16.39,9.7,23.94,6.61c4.68-1.91,4.53-9.47,5.13-14.13
		c0.95-7.32,0.93-14.84-0.69-22.05c-0.65-2.9-1.73-5.97-4.13-7.48c-2.4-1.51-6.31-0.25-6.5,2.72c-2.89-3.67-7.57-5.64-12.03-5.06
		c-0.58,0.08-1.19,0.21-1.62,0.62C29.41,33.88,29.29,34.8,29.12,35.62z"/>
	<path fill="#EE755B" d="M36.26,34.67c0.13-0.89,0.53-1.72-0.42-2.28c-0.58-0.35-1.5-0.2-2.07,0.1c-1.05,0.54-1.12,1.52-1.27,2.58
		c-0.23,1.67-0.67,3.19-1.53,4.66c-0.86,1.46-2.09,2.83-2.29,4.58c-0.15,1.33,0.77,2.51-0.5,3.54c-0.55,0.45-1.25,0.67-1.89,0.97
		c-1.14,0.52-2.17,1.28-3.01,2.22c-0.91,1.03-1.58,2.63-0.75,3.72c0.34,0.45,0.87,0.71,1.32,1.07c0.79,0.63,1.32,1.58,1.43,2.59
		c0.22,2.05-1.18,4.24-0.24,6.08c0.54,1.05,1.72,1.63,2.88,1.88c1.16,0.25,2.36,0.25,3.51,0.53c2.54,0.62,4.52,2.53,6.59,4.11
		c0.85,0.65,1.79,1.28,2.86,1.31c1,0.03,1.96-0.49,2.6-1.25c0.64-0.76,0.99-1.73,1.15-2.72c0.32-2.02-0.12-4.09-0.72-6.05
		c-0.36-1.2-0.79-2.4-0.85-3.65c-0.11-2.28,1-4.41,1.86-6.53c0.86-2.11,1.49-4.58,0.47-6.62c-0.55-1.09-1.5-1.92-2.42-2.71
		c-1.4-1.2-2.79-2.64-4.25-3.87C37.52,37.9,36.01,36.43,36.26,34.67z"/>
	
		<path fill="#DD4747" stroke="#DD4747" stroke-width="2.6439" stroke-linecap="round" stroke-linejoin="round" stroke-miterlimit="10" d="
		M35.58,3.21c-0.86-0.66-2.47-0.19-2.88,0.73c-0.53,1.18-0.48,2.54-1.25,3.66c-0.74,1.07-2.43,1.12-2.87-0.18
		C28.09,6,28.26,4.3,27.28,3.05c-0.58-0.74-2.37-0.67-2.78,0.34c-0.26,0.66,0.53,2.06,0.69,2.71c0.48,1.98,0.49,4.05-0.93,5.7
		c-2.15,2.48-4.12,5.34-5.1,8.45c-0.49,1.55-0.77,3.23-0.41,4.84c0.23,1.02,0.95,3.71,1.76,4.33c0.55,0.42,1.26,0.59,1.94,0.78
		c2.44,0.67,4.77,1.68,6.91,2.97c-0.91-0.55,0.96-4.39,1.25-5.01c0.45-0.95,0.8-1.93,0.93-2.98c0.26-2.1-0.7-3.6,1.92-4.43
		c0.9-0.28,1.85-0.27,2.79-0.29c1.42-0.05,2.85-0.21,4.16-0.74c0.86-0.35,6.58-5.9,7.36-4.85c-1.23-1.67-2.5-3-4.73-3.39
		c-0.63-0.11-2.53-0.54-2.94,0.21c1.05-1.95,1.93-4.1,3.19-5.95c1.15-1.68-0.09-1.47-1.89-1.7c-0.13-0.02-0.28-0.03-0.4,0.03
		c-0.12,0.06-0.19,0.19-0.25,0.32c-0.72,1.52-1.55,4.81-4.04,3.89c-1.11-0.41-1.01-1.57-0.91-2.5c0.06-0.62,0.4-1.53,0.12-2.1
		C35.86,3.49,35.73,3.33,35.58,3.21z"/>
	
		<path fill="#A44740" stroke="#A44740" stroke-width="2.7061" stroke-linecap="round" stroke-linejoin="round" stroke-miterlimit="10" d="
		M25.1,5.7c-2.16-0.31-3.96,1.33-5.18,2.87c-1.56,1.98-3.8,4.11-4.43,6.42c-3.14-2.29-3.54-10.28-4.81-13.64
		C9.78,2.29,8.48,2.95,7.07,3.18C6.6,3.26,6.08,3.31,5.74,3.59c-0.48,0.39-0.43,1.04-0.33,1.6c0.45,2.55,2.49,4.92,2.45,7.53
		c-0.05,3.53-2.41,2.32-4.85,4.06c-0.13,0.09-2.3,2.06-1.47,2.17c0.51,0.07,5.54-0.26,5.49-0.34c0.46,0.68-0.01,1.68-0.9,1.9
		c-0.4,0.1-0.88,0.09-1.13,0.36c-0.44,0.47,0.4,1.12,1.11,1.07c0.71-0.05,1.36-0.43,2.07-0.43c1.19,0,2,1.04,2.31,2.02
		c0.79,2.51,1.29,5.08,1.72,7.65c2.55-0.44,5.1-0.88,7.65-1.32c0.36-0.06,0.76-0.15,0.95-0.41c0.25-0.34,0.03-0.78-0.17-1.14
		c-2.79-5.11-0.52-11.12,2.34-16.2c1.08-1.92,2.27-4.04,1.6-6.09c-0.17-0.52-0.02-1.4,0.56-1.18"/>
	<path fill="#CC4746" d="M28.43,21.67c0.12-1.47,0.84-2.98,2.16-3.66c1.3-0.66,2.9-0.4,4.27-0.92c1.58-0.6,2.58-2.14,3.95-3.12
		c1.97-1.41,4.56-1.58,6.98-1.38c0.73,0.06,1.47,0.15,2.12,0.48c0.65,0.33,1.21,0.93,1.29,1.66c0.03,0.25,0,0.51-0.14,0.72
		c-0.26,0.4-0.79,0.5-1.26,0.58c-0.96,0.16-1.94,0.41-2.74,0.97c-1.22,0.85-1.91,2.29-3.1,3.18c-2.43,1.81-6.32,0.86-8.41,3.05
		c-0.64,0.67-1.02,1.56-1.59,2.3c-0.64,0.82-2.47,1.88-3.1,0.5c-0.2-0.43-0.12-1.11-0.19-1.57C28.53,23.52,28.35,22.62,28.43,21.67z
		"/>
	<path fill="#B04F4F" d="M20.46,7.44c1.4-1.47,3.12-2.88,5.16-2.98c0.09,0.79-0.43,1.51-0.96,2.11c-1.85,2.14-4.09,4-5.42,6.49
		c-1.23,2.32-1.58,5.02-1.43,7.64c0.15,2.62,0.78,5.18,1.41,7.73c-0.79,0.44-1.87,0.86-2.51,0.22c-0.25-0.25-0.37-0.6-0.46-0.95
		c-0.64-2.28-1.01-4.62-1.58-6.92c-0.73-2.92-1.78-5.76-2.82-8.58c-0.71-1.91-1.42-3.83-2.13-5.74c-0.51-1.39-0.98-3.1-0.01-4.22
		c0.24-0.28,0.64-0.5,0.97-0.33c0.18,0.1,0.29,0.29,0.37,0.47c1.68,3.51,0.92,8.11,3.56,10.96c0.14,0.15,0.29,0.3,0.49,0.35
		c0.43,0.11,0.83-0.28,1-0.69c0.38-0.89,1.17-1.64,1.73-2.41C18.65,9.5,19.51,8.44,20.46,7.44z"/>
	<path fill="none" stroke="#A44740" stroke-width="1.1202" stroke-miterlimit="10" d="M43.85,39.6c-0.44,1.36,0.47,2.74,1.12,4.03
		c0.94,1.86,1.35,4.03,0.67,5.99c-0.61,1.75-2.07,3.27-2.16,5.11c-0.08,1.64,0.96,3.14,1.38,4.74c0.44,1.67,0.17,3.48-0.73,4.98
		c-0.76,1.28-1.96,2.33-2.55,3.68c-0.89,2.04-0.24,4.34,0.41,6.45c0.03,0.1,0.09,0.23,0.21,0.23s0.12-0.21,0.02-0.17"/>
	
		<path fill="#EE978F" stroke="#EE978F" stroke-width="2.7061" stroke-linecap="round" stroke-linejoin="round" stroke-miterlimit="10" d="
		M43.29,38.86c-1.19-3.29-2.1-6.67-2.7-10.1c1.31-0.16,2.68,0.13,3.8,0.8c0.36,0.21,0.74,0.48,1.16,0.41
		c0.32-0.05,0.57-0.28,0.81-0.48c1.34-1.08,3.33-1.41,4.98-0.81c0.21,0.48-0.23,1-0.71,1.26c-0.48,0.26-1.05,0.4-1.41,0.8
		c-0.36,0.4-0.27,1.18,0.28,1.25c0.39-0.61,0.79-1.25,1.41-1.67c0.61-0.43,1.49-0.61,2.14-0.25c0.66,0.36,0.86,1.37,0.25,1.8
		c-0.66,0.47-1.96,0.22-2.13,0.98c-0.07,0.35,0.19,0.67,0.4,0.98c0.71,1.05,0.7,2.49-0.02,3.54c-2.45-0.99-5.61-0.88-7.62,0.76"/>
	
		<path fill="none" stroke="#A44740" stroke-width="1.1202" stroke-linecap="round" stroke-linejoin="round" stroke-miterlimit="10" d="
		M44.35,53.36c0.11-0.24,0.47-0.12,0.69,0.02c1.1,0.73,2.2,1.54,2.9,2.65c0.83,1.33,1.16,3.14,2.56,3.84"/>
	
		<path fill="#E86978" stroke="#E86978" stroke-width="2.9226" stroke-linecap="round" stroke-linejoin="round" stroke-miterlimit="10" d="
		M39.47,34.19c-0.65-0.29-1.28-0.68-1.71-0.83c-1.68-0.61-3.43-0.94-5.19-0.91c-1.03,0.02-2.57,0.87-3.31-0.33
		c-1.12-1.81,1.45-4.71,1.77-6.43c0.2-1.07,0.01-2.14,0.53-3.08c1.26-2.27,4.78-2.37,6.65-1.39c-0.06-0.03,5.06-3.69,5.64-3.92
		c2.58-1.02,5.55-1.31,8.31-0.74c0.36,0.07,0.76,0.19,0.92,0.49c0.15,0.28,0.01,0.61-0.09,0.91c-0.34,0.97-0.3,2.04,0.11,3
		c-3.68,0.26-8.28,1.03-10.84,3.67c-1.04,1.07-1.06,2.88-0.99,4.38c0.06,1.19,1.12,4.05,0.46,5.02
		C41.23,34.77,40.33,34.57,39.47,34.19z"/>
	
		<path fill="none" stroke="#A44740" stroke-width="1.1202" stroke-linecap="round" stroke-linejoin="round" stroke-miterlimit="10" d="
		M43.24,55.55c-0.49,0.53-1.17,0.89-1.88,1.01c-0.95,0.16-2.02-0.07-2.84,0.44c-0.74,0.47-1.03,1.4-1.59,2.08
		c-1.1,1.32-3.2,1.55-4.16,2.98c-0.07,0.1-0.12,0.23-0.05,0.32s0.26-0.04,0.17-0.11"/>
	
		<path fill="none" stroke="#A44740" stroke-width="1.1202" stroke-linecap="round" stroke-linejoin="round" stroke-miterlimit="10" d="
		M37.09,59.17c-0.43,0.74-0.43,1.71,0.01,2.44"/>
	
		<path fill="none" stroke="#A44740" stroke-width="1.1202" stroke-linecap="round" stroke-linejoin="round" stroke-miterlimit="10" d="
		M44.23,63.78c-0.25,0.41-0.01,0.95,0.34,1.27c0.35,0.32,0.81,0.5,1.18,0.79c1.28,1.02,1.19,2.99,2.06,4.38"/>
	
		<path fill="none" stroke="#A44740" stroke-width="1.1202" stroke-linecap="round" stroke-linejoin="round" stroke-miterlimit="10" d="
		M41.07,69.83c-1.13-0.26-2.3-0.38-3.47-0.33c-0.37,0.01-0.75,0.05-1.06,0.23c-0.32,0.18-0.55,0.56-0.45,0.92"/>
	
		<path fill="none" stroke="#A44740" stroke-width="1.1202" stroke-linecap="round" stroke-linejoin="round" stroke-miterlimit="10" d="
		M17.32,53.21c-0.29,0.56,0.36,1.18,0.98,1.29c0.62,0.12,1.3,0,1.85,0.29c0.73,0.39,0.95,1.33,1.53,1.92
		c0.82,0.83,2.22,0.82,3.07,1.61c0.39,0.36-0.78,0.55-1.03,1.02c-0.55,1-0.37,2.35,0.42,3.17"/>
	
		<path fill="none" stroke="#A44740" stroke-width="1.1202" stroke-linecap="round" stroke-linejoin="round" stroke-miterlimit="10" d="
		M24.47,58.15c1.19-0.38,2.45-0.53,3.69-0.44"/>
	
		<path fill="none" stroke="#A44740" stroke-width="1.1202" stroke-linecap="round" stroke-linejoin="round" stroke-miterlimit="10" d="
		M11.7,63.77c1.16,0.16,2.04-1.04,2.44-2.15c0.59-1.65,0.75-3.41,1.21-5.1c0.45-1.69,1.29-3.4,2.8-4.28
		c0.8-0.47,1.74-0.68,2.53-1.16c1.7-1.02,2.45-3.04,3.42-4.77c0.97-1.73,2.67-3.46,4.62-3.1"/>
	
		<path fill="none" stroke="#A44740" stroke-width="1.1202" stroke-linecap="round" stroke-linejoin="round" stroke-miterlimit="10" d="
		M25.42,44.82c0.57-0.2,1.16,0.39,1.25,0.99c0.09,0.6-0.12,1.2-0.19,1.8c-0.08,0.74,0.06,1.5,0.4,2.15c0.44,0.84,1.21,1.55,1.3,2.5
		c0.08,0.86-0.4,1.85,0.14,2.52"/>
	
		<path fill="#EE978F" stroke="#EE978F" stroke-width="2.7061" stroke-linecap="round" stroke-linejoin="round" stroke-miterlimit="10" d="
		M12.79,31.23c4.04-1.49,11.32-2.39,15.07,0.37c5.09,3.74,0.31,9.22-3.26,11.9c-2.51,1.88-4.81,4.08-6.85,6.53
		c-0.69,0.83-6.5,10.23-6,10.9C7.94,55.84,6.14,49.1,6.86,42.64c0.11-1,0.24-2.14-0.4-2.88c-1.01-1.16-3.1-0.36-4.1-1.53
		c-0.93-1.1,0.08-3.03,1.44-3.36c1.36-0.33,2.73,0.35,3.97,1.02c-1.98-1.69-3.46-4.03-4.19-6.63C5.9,28.13,8,31.73,10.54,31.8
		C11.31,31.82,12.05,31.5,12.79,31.23z"/>
	<path fill="#E57F90" d="M32.04,32.49c-0.31-0.9-1.28-1.48-1.48-2.41c-0.08-0.34-0.04-0.69-0.01-1.03c0.14-1.41,0.17-2.81,0.37-4.21
		c0.23-1.61,0.92-3.35,2.41-4.02c1.67-0.74,3.7,0.15,5.42-0.49c0.74-0.27,1.34-0.8,2-1.24c1.07-0.71,2.3-1.19,3.57-1.38
		c0.35-0.05,0.84,0.05,0.81,0.4c-0.01,0.13-0.11,0.24-0.21,0.34c-0.87,0.79-2.19,0.92-3.08,1.69c-0.75,0.64-1.13,1.67-1.95,2.23
		c-0.8,0.55-1.84,0.53-2.8,0.62c-2.19,0.19-2.93,3.05-2.45,4.93c0.39,1.52,1.37,2.85,1.72,4.4c0.12,0.54,0.36,1.4-0.18,1.79
		c-0.33,0.24-2.86,0.18-3.23,0.06C32.19,33.91,32.27,33.16,32.04,32.49z"/>
	<path fill="#EDA5A2" d="M27.25,37.69c-1.17,1.05-2.54,1.89-3.56,3.09c-0.88,1.02-1.46,2.25-2.22,3.36
		c-0.76,1.11-1.76,2.15-3.07,2.47c0.65-1.1,0.82-2.48,0.46-3.71c-0.19-0.65-0.52-1.28-0.48-1.96c0.08-1.26,1.41-2.12,1.69-3.35
		c0.23-1.05-0.46-2.21-1.49-2.5c-0.88-0.25-1.8,0.08-2.71,0.11c-0.91,0.02-2.01-0.53-1.95-1.43c0.03-0.37,0.25-0.7,0.51-0.98
		c0.98-1.08,2.41-1.62,3.83-1.98c1.66-0.42,3.36-0.64,5.07-0.65c1.34-0.01,2.74,0.13,3.91,0.78C29.96,32.45,29.26,35.89,27.25,37.69
		z"/>
	<path fill="#EDA5A2" d="M47.34,29.66c1-0.7,2.27-1.02,3.48-0.86c0.33,0.04,0.68,0.13,0.92,0.37c0.31,0.3,0.4,0.82,0.8,0.98
		c0.25,0.1,0.54,0.01,0.81-0.03s0.6-0.02,0.74,0.21c0.15,0.25-0.01,0.58-0.24,0.75c-0.52,0.39-1.34,0.32-1.74,0.83
		c-0.6,0.75,0.22,2.05-0.42,2.76c-0.03,0.03-0.07,0.07-0.11,0.08c-0.08,0.03-0.17,0.01-0.25-0.03c-0.65-0.31-0.69-1.27-1.27-1.7
		c-0.38-0.28-0.9-0.25-1.36-0.33c-0.56-0.1-1.14-0.44-1.26-0.99c-0.07-0.3,0.01-0.63-0.1-0.92c-0.22-0.63-1.08-0.72-1.62-1.11
		c0.23-0.29,0.67-0.22,1.03-0.18c0.6,0.06,1.22-0.02,1.79-0.25"/>
	<path fill="#CC4746" d="M37.13,8.1C37,8.28,36.87,8.47,36.87,8.68c-0.01,0.21,0.12,0.42,0.28,0.55c0.17,0.14,0.37,0.21,0.58,0.28
		c0.54,0.17,1.1,0.25,1.66,0.26c0.1,0,0.22-0.01,0.28-0.1c0.03-0.05,0.04-0.12,0.03-0.18c-0.02-0.58-0.2-1.12-0.38-1.67
		c-0.31-0.96-0.39-1.86-0.15-2.85c-0.11,0.47-0.78,1.28-1.07,1.71C37.79,7.16,37.46,7.64,37.13,8.1z"/>
	<path fill="#CC4746" d="M30.33,6.81c0.19-0.39,0.35-0.79,0.49-1.19c-0.08,0.36-0.35,0.69-0.49,1.04c-0.13,0.32-0.22,0.65-0.38,0.95
		c-0.07,0.14-0.14,0.32-0.06,0.46c0.08,0.13,0.25,0.14,0.4,0.15c0.52,0.02,1.04,0.04,1.57,0.06c0.08,0,0.17,0,0.22-0.06
		c0.04-0.05,0.04-0.12,0.03-0.19c-0.05-0.62-0.07-1.24-0.12-1.85c-0.05-0.52-0.27-0.92-0.46-1.4c-0.15-0.38-0.11-0.78-0.13-1.19
		c0.03,0.44-0.39,1.08-0.48,1.53c-0.1,0.5-0.21,0.97-0.4,1.44"/>
</g>
</svg>
