<?xml version="1.0" encoding="utf-8"?>
<!-- Generator: Adobe Illustrator 23.0.0, SVG Export Plug-In . SVG Version: 6.00 Build 0)  -->
<svg version="1.1" id="Layer_1" xmlns="http://www.w3.org/2000/svg" xmlns:xlink="http://www.w3.org/1999/xlink" x="0px" y="0px"
	 viewBox="0 0 24.71 29.97" enable-background="new 0 0 24.71 29.97" xml:space="preserve">
<g>
	<polyline fill="none" stroke="#EEB95B" stroke-width="1.1509" stroke-miterlimit="10" points="8.73,13.5 5.66,14.34 1.63,25.27 	
		"/>
	<path fill="none" stroke="#A44740" stroke-width="1.1509" stroke-miterlimit="10" d="M8.73,13.5c0,0-3.07-0.65-6.14-4.96"/>
	<path fill="none" stroke="#037C99" stroke-width="1.1509" stroke-miterlimit="10" d="M8.73,16.65c0,0-5.62-1.41-8.22-6.07"/>
	<path fill="#841924" d="M23.76,8.91c1.83,5.46,0.98,11.51-2.17,16.36c-0.83,1.27-3.16,4.25-4.97,3.6c-0.6-0.21-1.15-0.81-1.42-1.51
		c-1.17-3.07-1.32-6.56-1.37-9.95c-0.03-1.69-0.03-3.39,0.28-5.04c0.16-0.88,0.39-1.89-0.03-2.62c-0.24-0.42-0.66-0.65-0.87-1.09
		c-0.37-0.77,0.02-1.73,0.11-2.61c0.14-1.38-0.53-2.83-0.05-4.18c1.05-2.99,4.5-1.33,6.08,0.1C21.39,3.81,22.89,6.31,23.76,8.91z"/>
	<circle fill="#841924" cx="14.02" cy="7.71" r="7.71"/>
	<circle fill="#841924" cx="14.02" cy="22.26" r="7.71"/>
	<circle fill="#841924" cx="13.04" cy="14.99" r="4.63"/>
	<path fill="#AF2027" d="M11.36,6.47c2.07,0.87,4.14,1.75,6.21,2.62c0.44,0.19,0.88,0.37,1.35,0.5c0.29,0.08,0.6,0.14,0.9,0.11
		c0.94-0.12,1.53-1.19,1.41-2.13c-0.12-0.94-0.75-1.74-1.43-2.39c-1.39-1.34-3.14-2.5-5.02-2.99c-1.08-0.28-3.16-0.31-3.93,0.66
		C9.9,4.06,9.75,5.79,11.36,6.47z"/>
	<path fill="#AF2027" d="M9.77,15.41c0.21,0.5,0.83,0.66,1.37,0.74c1.64,0.26,3.29,0.52,4.93,0.79c0.34,0.05,0.76,0.08,0.97-0.2
		c0.15-0.2,0.12-0.48-0.01-0.69c-0.12-0.21-0.33-0.36-0.54-0.49C15.68,15.05,8.86,13.18,9.77,15.41z"/>
	<path fill="#AF2027" d="M13.59,27.89c-2.46,0.23-4.28-1.18-5.24-3.24c-0.28-0.6-0.48-1.25-0.61-1.94c-0.37-2.03-0.24-5.85,2.6-5.29
		c0.49,0.1,0.95,0.29,1.42,0.45c2.27,0.77,4.6,0.83,6.97,0.99c0.33,0.02,0.68,0.05,0.97,0.23c1.24,0.79,0.55,2.44,0.04,3.5
		C18.6,24.96,16.23,27.65,13.59,27.89z"/>
	<path fill="#6D1523" d="M9.9,13.11c-1.41-0.52-2.27-1.47-2.89-2.79C6.78,9.84,6.58,8.9,6.69,8.37c0.17-0.8,2,1.01,2.32,1.24
		c0.89,0.65,1.82,1.26,2.78,1.8c1.13,0.63,2.32,1.13,3.52,1.63c0.66,0.27,1.43,0.48,2.03,0.86c-1.2,0.13-2.47-0.13-3.67-0.2
		C12.39,13.63,11.1,13.55,9.9,13.11z"/>
</g>
</svg>
