<?xml version="1.0" encoding="utf-8"?>
<!-- Generator: Adobe Illustrator 23.0.0, SVG Export Plug-In . SVG Version: 6.00 Build 0)  -->
<svg version="1.1" id="Layer_1" xmlns="http://www.w3.org/2000/svg" xmlns:xlink="http://www.w3.org/1999/xlink" x="0px" y="0px"
	 viewBox="0 0 87.5 28.5" enable-background="new 0 0 87.5 28.5" xml:space="preserve">
<g>
	<g>
		
			<rect x="0.38" y="0.38" fill="#EE978F" stroke="#EE978F" stroke-width="0.75" stroke-miterlimit="10" width="86.75" height="3.13"/>
		<rect x="0.38" y="25" fill="#EE978F" stroke="#EE978F" stroke-width="0.75" stroke-miterlimit="10" width="86.75" height="3.13"/>
		<rect y="3.94" fill="#EDC7C3" width="87.5" height="20.69"/>
		<rect y="25.38" fill="#EE978F" width="2.05" height="2.38"/>
		<rect x="85.45" y="25.38" fill="#EE978F" width="2.05" height="2.38"/>
		<rect y="0.75" fill="#EE978F" width="2.05" height="2.38"/>
		<rect x="85.45" y="0.75" fill="#EE978F" width="2.05" height="2.38"/>
	</g>
	<g>
		
			<ellipse transform="matrix(0.2078 -0.9782 0.9782 0.2078 0.9491 25.0469)" fill="#AF2027" cx="15.94" cy="11.94" rx="1.81" ry="2.31"/>
		<path fill="#8E1B26" d="M15.14,11.69c-0.2-0.02-0.38-0.07-0.55-0.13c0.03,0.4,0.57,0.78,1.28,0.86c0.76,0.09,1.43-0.19,1.48-0.62
			c0.04-0.3-0.22-0.59-0.63-0.77C16.61,11.48,15.93,11.78,15.14,11.69z"/>
	</g>
	<g>
		
			<ellipse transform="matrix(0.2078 -0.9782 0.9782 0.2078 13.7351 42.0256)" fill="#AF2027" cx="32.81" cy="12.53" rx="1.81" ry="2.31"/>
		<path fill="#8E1B26" d="M32.02,12.28c-0.2-0.02-0.38-0.07-0.55-0.13c0.03,0.4,0.57,0.78,1.28,0.86c0.76,0.09,1.43-0.19,1.48-0.62
			c0.04-0.3-0.22-0.59-0.63-0.77C33.48,12.08,32.8,12.38,32.02,12.28z"/>
	</g>
	<g>
		
			<ellipse transform="matrix(0.2078 -0.9782 0.9782 0.2078 5.3174 47.4278)" fill="#AF2027" cx="31.94" cy="20.43" rx="1.81" ry="2.31"/>
		<path fill="#8E1B26" d="M31.14,20.18c-0.2-0.02-0.38-0.07-0.55-0.13c0.03,0.4,0.57,0.78,1.28,0.86c0.76,0.09,1.43-0.19,1.48-0.62
			c0.04-0.3-0.22-0.59-0.63-0.77C32.61,19.98,31.93,20.27,31.14,20.18z"/>
	</g>
	<g>
		
			<ellipse transform="matrix(0.2078 -0.9782 0.9782 0.2078 20.0512 65.6199)" fill="#AF2027" cx="50.54" cy="20.43" rx="1.81" ry="2.31"/>
		<path fill="#8E1B26" d="M49.74,20.18c-0.2-0.02-0.38-0.07-0.55-0.13c0.03,0.4,0.57,0.78,1.28,0.86c0.76,0.09,1.43-0.19,1.48-0.62
			c0.04-0.3-0.22-0.59-0.63-0.77C51.21,19.98,50.53,20.27,49.74,20.18z"/>
	</g>
	<g>
		
			<ellipse transform="matrix(0.9758 -0.2186 0.2186 0.9758 -2.1302 9.9602)" fill="#AF2027" cx="43.95" cy="14.61" rx="2.31" ry="1.81"/>
		<path fill="#8E1B26" d="M43.12,14.71c-0.19,0.06-0.38,0.09-0.56,0.11c0.2,0.35,0.84,0.47,1.53,0.25c0.73-0.23,1.22-0.76,1.09-1.18
			c-0.09-0.28-0.45-0.44-0.9-0.44C44.37,13.92,43.88,14.47,43.12,14.71z"/>
	</g>
	<g>
		
			<ellipse transform="matrix(0.2078 -0.9782 0.9782 0.2078 41.2786 66.3618)" fill="#AF2027" cx="61.61" cy="7.7" rx="1.81" ry="2.31"/>
		<path fill="#8E1B26" d="M60.81,7.44c-0.2-0.02-0.38-0.07-0.55-0.13c0.03,0.4,0.57,0.78,1.28,0.86c0.76,0.09,1.43-0.19,1.48-0.62
			c0.04-0.3-0.22-0.59-0.63-0.77C62.28,7.24,61.6,7.54,60.81,7.44z"/>
	</g>
	<g>
		
			<ellipse transform="matrix(0.2078 -0.9782 0.9782 0.2078 25.3334 44.0506)" fill="#AF2027" cx="39.86" cy="6.39" rx="1.81" ry="2.31"/>
		<path fill="#8E1B26" d="M39.07,6.13c-0.2-0.02-0.38-0.07-0.55-0.13c0.03,0.4,0.57,0.78,1.28,0.86c0.76,0.09,1.43-0.19,1.48-0.62
			c0.04-0.3-0.22-0.59-0.63-0.77C40.53,5.93,39.85,6.23,39.07,6.13z"/>
	</g>
	<g>
		
			<ellipse transform="matrix(0.2078 -0.9782 0.9782 0.2078 -8.393 20.262)" fill="#AF2027" cx="8.31" cy="15.31" rx="1.81" ry="2.31"/>
		<path fill="#8E1B26" d="M7.77,15.27c-0.2-0.02-0.38-0.07-0.55-0.13c0.03,0.4,0.57,0.78,1.28,0.86c0.76,0.09,1.43-0.19,1.48-0.62
			c0.04-0.3-0.22-0.59-0.63-0.77C9.23,15.07,8.55,15.37,7.77,15.27z"/>
	</g>
	<g>
		
			<ellipse transform="matrix(0.2078 -0.9782 0.9782 0.2078 12.0789 55.7763)" fill="#AF2027" cx="40.47" cy="20.43" rx="1.81" ry="2.31"/>
		<path fill="#8E1B26" d="M39.93,20.39c-0.2-0.02-0.38-0.07-0.55-0.13c0.03,0.4,0.57,0.78,1.28,0.86c0.76,0.09,1.43-0.19,1.48-0.62
			c0.04-0.3-0.22-0.59-0.63-0.77C41.39,20.19,40.71,20.48,39.93,20.39z"/>
	</g>
	<g>
		
			<ellipse transform="matrix(0.2078 -0.9782 0.9782 0.2078 29.2771 69.662)" fill="#AF2027" cx="57.65" cy="16.76" rx="1.81" ry="2.31"/>
		<path fill="#8E1B26" d="M57.1,16.72c-0.2-0.02-0.38-0.07-0.55-0.13c0.03,0.4,0.57,0.78,1.28,0.86c0.76,0.09,1.43-0.19,1.48-0.62
			c0.04-0.3-0.22-0.59-0.63-0.77C58.57,16.51,57.89,16.81,57.1,16.72z"/>
	</g>
	<g>
		
			<ellipse transform="matrix(0.2078 -0.9782 0.9782 0.2078 45.0726 89.165)" fill="#AF2027" cx="77.58" cy="16.76" rx="1.81" ry="2.31"/>
		<path fill="#8E1B26" d="M77.04,16.72c-0.2-0.02-0.38-0.07-0.55-0.13c0.03,0.4,0.57,0.78,1.28,0.86c0.76,0.09,1.43-0.19,1.48-0.62
			c0.04-0.3-0.22-0.59-0.63-0.77C78.5,16.51,77.82,16.81,77.04,16.72z"/>
	</g>
	<g>
		
			<ellipse transform="matrix(0.2078 -0.9782 0.9782 0.2078 47.3706 98.7099)" fill="#AF2027" cx="84.63" cy="20.11" rx="1.81" ry="2.31"/>
		<path fill="#8E1B26" d="M84.08,20.07c-0.2-0.02-0.38-0.07-0.55-0.13c0.03,0.4,0.57,0.78,1.28,0.86c0.76,0.09,1.43-0.19,1.48-0.62
			c0.04-0.3-0.22-0.59-0.63-0.77C85.55,19.87,84.86,20.16,84.08,20.07z"/>
	</g>
	<g>
		
			<ellipse transform="matrix(0.9496 -0.3135 0.3135 0.9496 -2.3339 2.4858)" fill="#AF2027" cx="6.56" cy="8.5" rx="2.31" ry="1.81"/>
		<path fill="#8E1B26" d="M5.87,8.73C5.69,8.82,5.51,8.88,5.34,8.92c0.25,0.32,0.91,0.33,1.55,0.01C7.57,8.59,7.97,7.99,7.78,7.6
			C7.64,7.33,7.27,7.23,6.82,7.3C6.98,7.75,6.58,8.37,5.87,8.73z"/>
	</g>
	<g>
		
			<ellipse transform="matrix(0.9225 -0.3861 0.3861 0.9225 -6.8436 7.5504)" fill="#AF2027" cx="15.38" cy="20.81" rx="2.31" ry="1.81"/>
		<path fill="#8E1B26" d="M14.67,20.94c-0.18,0.09-0.36,0.15-0.53,0.19c0.25,0.32,0.91,0.33,1.55,0.01
			c0.69-0.34,1.09-0.94,0.89-1.33c-0.13-0.27-0.51-0.37-0.95-0.29C15.78,19.96,15.37,20.58,14.67,20.94z"/>
	</g>
	<g>
		
			<ellipse transform="matrix(0.9225 -0.3861 0.3861 0.9225 -7.2017 3.1711)" fill="#AF2027" cx="4.29" cy="19.51" rx="2.31" ry="1.81"/>
		<path fill="#8E1B26" d="M3.58,19.64c-0.18,0.09-0.36,0.15-0.53,0.19c0.25,0.32,0.91,0.33,1.55,0.01c0.69-0.34,1.09-0.94,0.89-1.33
			c-0.13-0.27-0.51-0.37-0.95-0.29C4.7,18.66,4.29,19.28,3.58,19.64z"/>
	</g>
	<g>
		
			<ellipse transform="matrix(0.9225 -0.3861 0.3861 0.9225 -4.1861 10.7322)" fill="#AF2027" cx="24.63" cy="15.79" rx="2.31" ry="1.81"/>
		<path fill="#8E1B26" d="M23.92,15.93c-0.18,0.09-0.36,0.15-0.53,0.19c0.25,0.32,0.91,0.33,1.55,0.01
			c0.69-0.34,1.09-0.94,0.89-1.33c-0.13-0.27-0.51-0.37-0.95-0.29C25.03,14.96,24.62,15.58,23.92,15.93z"/>
	</g>
	<g>
		
			<ellipse transform="matrix(0.9225 -0.3861 0.3861 0.9225 0.2934 27.5134)" fill="#AF2027" cx="68.64" cy="13.03" rx="2.31" ry="1.81"/>
		<path fill="#8E1B26" d="M67.93,13.17c-0.18,0.09-0.36,0.15-0.53,0.19c0.25,0.32,0.91,0.33,1.55,0.01
			c0.69-0.34,1.09-0.94,0.89-1.33c-0.13-0.27-0.51-0.37-0.95-0.29C69.04,12.2,68.64,12.82,67.93,13.17z"/>
	</g>
	<g>
		
			<ellipse transform="matrix(0.9225 -0.3861 0.3861 0.9225 -2.7951 28.9036)" fill="#AF2027" cx="70.56" cy="21.41" rx="2.31" ry="1.81"/>
		<path fill="#8E1B26" d="M69.85,21.56c-0.18,0.09-0.36,0.15-0.53,0.19c0.25,0.32,0.91,0.33,1.55,0.01
			c0.69-0.34,1.09-0.94,0.89-1.33c-0.13-0.27-0.51-0.37-0.95-0.29C70.96,20.58,70.56,21.2,69.85,21.56z"/>
	</g>
	<g>
		
			<ellipse transform="matrix(0.2378 -0.9713 0.9713 0.2378 48.5178 78.2077)" fill="#AF2027" cx="74.09" cy="8.19" rx="1.81" ry="2.31"/>
		<path fill="#8E1B26" d="M73.43,7.89c-0.2-0.03-0.38-0.09-0.54-0.16c0.01,0.4,0.53,0.81,1.24,0.93c0.76,0.13,1.43-0.11,1.51-0.54
			c0.05-0.29-0.19-0.6-0.59-0.8C74.91,7.76,74.21,8.02,73.43,7.89z"/>
	</g>
	<g>
		
			<ellipse transform="matrix(0.9225 -0.3861 0.3861 0.9225 3.206 32.3433)" fill="#AF2027" cx="82.12" cy="8.19" rx="2.31" ry="1.81"/>
		<path fill="#8E1B26" d="M81.41,8.34c-0.18,0.09-0.36,0.15-0.53,0.19c0.25,0.32,0.91,0.33,1.55,0.01c0.69-0.34,1.09-0.94,0.89-1.33
			c-0.13-0.27-0.51-0.37-0.95-0.29C82.52,7.36,82.12,7.98,81.41,8.34z"/>
	</g>
	<g>
		
			<ellipse transform="matrix(0.9225 -0.3861 0.3861 0.9225 -0.693 20.5413)" fill="#AF2027" cx="50.79" cy="12" rx="2.31" ry="1.81"/>
		<path fill="#8E1B26" d="M50.08,12.14c-0.18,0.09-0.36,0.15-0.53,0.19c0.25,0.32,0.91,0.33,1.55,0.01
			c0.69-0.34,1.09-0.94,0.89-1.33c-0.13-0.27-0.51-0.37-0.95-0.29C51.19,11.17,50.79,11.79,50.08,12.14z"/>
	</g>
	<g>
		
			<ellipse transform="matrix(0.9225 -0.3861 0.3861 0.9225 -1.696 9.8053)" fill="#AF2027" cx="23.56" cy="9.13" rx="2.31" ry="1.81"/>
		<path fill="#8E1B26" d="M22.85,9.4c-0.18,0.09-0.36,0.15-0.53,0.19c0.25,0.32,0.91,0.33,1.55,0.01c0.69-0.34,1.09-0.94,0.89-1.33
			C24.62,8,24.25,7.91,23.8,7.98C23.96,8.43,23.56,9.05,22.85,9.4z"/>
	</g>
</g>
</svg>
