<?xml version="1.0" encoding="utf-8"?>
<!-- Generator: Adobe Illustrator 23.0.0, SVG Export Plug-In . SVG Version: 6.00 Build 0)  -->
<svg version="1.1" id="Layer_1" xmlns="http://www.w3.org/2000/svg" xmlns:xlink="http://www.w3.org/1999/xlink" x="0px" y="0px"
	 viewBox="0 0 47.7 68.96" enable-background="new 0 0 47.7 68.96" xml:space="preserve">
<g>
	<g>
		<g>
			<g>
				<path fill="#F6D2BA" d="M28.38,25.99c0.96,0,1.51,0.68,2.38,1.2c0.69,0.41,1.29,1.01,0.1,1.03c0.01,0,0.47,0.68,0.55,0.76
					c0.26,0.25,0.59,0.42,0.72,0.78c0.14,0.39,0,0.81-0.28,1.07c-0.42,0.39-1.09,0.51-1.63,0.2c-0.86-0.5-4.34-3.74-2.88-4.78
					c0.12-0.09,0.27-0.14,0.41-0.18C27.98,26.02,28.19,25.99,28.38,25.99z"/>
				<path fill="#566345" d="M30.78,16.73c1.08-0.47,2.36-0.97,3.29-1.71c0.84-0.67,1.48-1.84,0.38-2.58
					c-0.83-0.56-1.94-0.37-2.91-0.13c-1.16,0.29-2.38,0.55-3.44,1.1c-1.11,0.58-2.17,1.14-3.2,1.86c-1,0.7-2.56,1.29-2.88,2.6
					c-0.28,1.16,0.07,2.38,0.6,3.62c0.46,1.07,1.24,1.92,1.71,2.98c0.53,1.18,1.38,1.75,2.07,2.77c0.28,0.42,0.35,0.96,0.59,1.37
					c-0.25-0.47,2.57-2.26,2.93-2.44c-0.64-0.63-1.28-0.86-1.76-1.7c-0.74-1.31-1.3-2.77-1.94-4.14c-0.33-0.7-0.61-0.82-0.08-1.37
					c0.29-0.3,1.11-0.48,1.49-0.67C28.69,17.77,29.71,17.19,30.78,16.73z"/>
			</g>
			
				<ellipse transform="matrix(0.0134 -0.9999 0.9999 0.0134 -44.9576 86.4455)" opacity="0.33" fill="#A7A9AC" cx="21.33" cy="66" rx="2.95" ry="21.33"/>
			<path fill="#1A242D" d="M9.83,59.9c-0.28-0.46-0.51-0.9-1.02-1.13C8.16,58.46,7.53,58.71,6.98,59c-0.22,0.12-0.44,0.27-0.55,0.5
				c-0.1,0.21-0.12,0.46-0.12,0.71c0.01,1.15,0.32,2.32,0.9,3.36c0.38,0.68,0.89,1.31,1.56,1.64s1.51,0.25,1.91-0.32
				c0.44-0.62,0.25-1.55,0.04-2.36c-0.1-0.41-0.27-0.8-0.22-1.21c0.01-0.09,0.03-0.19,0.02-0.28c-0.02-0.18-0.23-0.34-0.32-0.49
				C10.07,60.33,9.96,60.11,9.83,59.9z"/>
			<path fill="#1A242D" d="M29.73,56.54c-0.42-0.37-0.78-0.72-1.34-0.8c-0.73-0.11-1.25,0.32-1.69,0.77
				c-0.18,0.18-0.34,0.38-0.37,0.64c-0.04,0.23,0.03,0.48,0.11,0.72c0.37,1.11,1.05,2.16,1.94,2.99c0.58,0.54,1.28,1.01,2.02,1.13
				c0.75,0.12,1.53-0.2,1.74-0.87c0.23-0.73-0.25-1.57-0.71-2.3c-0.23-0.37-0.51-0.69-0.6-1.11c-0.02-0.09-0.03-0.19-0.07-0.28
				c-0.08-0.17-0.33-0.26-0.47-0.38C30.09,56.89,29.92,56.71,29.73,56.54z"/>
			<path fill="#566345" d="M28.78,30.88c0.41,0.5-4.28,3.47-4.61,4.07c-0.76,1.41-0.76,3.74-0.94,5.29
				c-0.29,2.4-0.46,5.18-0.01,7.55c-2.41,1.49-5.03,2.53-7.3,4.28c-2.52,1.95-4.64,4.38-7.32,6.12c-0.29,0.19,1.07,2.73,1.35,2.85
				c1.83,0.83,4.98-2.53,6.6-3.22c2.88-1.23,5.84-2.59,8.39-4.3c0.57-0.38,1.14-0.78,1.66-1.24c3.11-2.79,3.24-7.19,4.61-10.87
				c0.31-0.85,0.67-1.68,1.12-2.46c0.36-0.63,1.45-1.41,1.66-1.93c0.59-1.48-1.1-2.04-2.12-2.77
				C30.62,33.36,29.74,32.04,28.78,30.88z"/>
			<path fill="#63774E" d="M25.38,31.08c0.35-0.38,0.76-0.69,1.2-0.91c0.44-0.21,0.91-0.33,1.39-0.16c0.42,0.16,0.67,0.88,0.94,0.97
				c0.79,0.26,1.18,1.04,1.75,1.65c1.21,1.31,2.8,1.48,4.46,1.82c1.95,0.39,2.98,2.41,4.25,3.72c0.61,0.63,1.23,1.27,1.84,1.9
				c1.93,2,2.68,4.34,1.23,6.82c-1.11,1.91-2.23,3.89-4.03,5.2c-1.37,0.99-2.73,1.99-4.1,2.98c-0.68,0.5-1.37,0.99-2.05,1.49
				c-0.34,0.25-0.68,0.5-1.02,0.74c-0.04,0.03-0.68,0.43-0.54,0.48c-0.35-0.13-0.64-0.4-0.92-0.65c-0.46-0.42-1.61-1.14-1.14-1.85
				c2.47-3.71,5.44-7.08,8.81-9.99c-0.83-0.72-1.89-0.92-2.87-1.36c-1.05-0.47-2.08-1-3.07-1.59c-1.98-1.18-3.82-2.58-5.5-4.16
				c-0.7-0.66-1.39-1.38-1.75-2.28c-0.95-2.38,0.78-4.6,2.1-6.41c0.12-0.17,0.26-0.34,0.45-0.4c0.12-0.03,0.24-0.02,0.35,0
				c0.39,0.06,0.77,0.17,1.14,0.31c0.13,0.49,0.06,0.66,0.42,1.02c0.09,0.55,0.12,0.78,0.57,1.1"/>
			<path fill="#F6D2BA" d="M34.36,18.54c-0.06,0.06-0.14,0.12-0.22,0.13c-0.08,0.01-0.16-0.04-0.22-0.08
				c-0.39-0.26-0.67-0.67-0.89-1.09c-0.41-0.76-0.9-1.82-0.79-2.71c0.07-0.52,0.41-0.69,0.62-1.1c0.11-0.23,0.14-0.56,0.25-0.81
				c0.12-0.28,0.24-0.55,0.36-0.83c0.21-0.48,0.43-0.97,0.51-1.5c0.06-0.4,0.08-1.02-0.19-1.35c-0.22-0.26-0.58-0.31-0.71-0.69
				c-0.54-1.54,0.08-3.66,0.79-5.05c0.37-0.73,0.89-1.42,1.6-1.82c0.55-0.31,1.19-0.44,1.82-0.48c1.14-0.07,2.33,0.14,3.28,0.77
				c1.86,1.23,2.03,2.96,1.79,4.84c-0.06,0.42-0.13,0.86-0.21,1.29c-0.27,1.43-0.75,4.48-2.8,4.19c-0.52-0.07-1.04-0.15-1.56-0.22
				c-0.49-0.07-1.25,0.8-0.61,0.83c0.16,0.05,0.14,0.1,0.19,0.26c0.05,0.15,0.04,0.32,0.03,0.48c-0.05,0.78-0.23,1.63-0.59,2.33
				c-0.3,0.59-0.97,0.76-1.36,1.25C35.08,17.65,34.81,18.12,34.36,18.54z"/>
			<path fill="#FFFFFF" d="M32.63,14.87c-0.13,0.74-0.24,1.49-0.36,2.24c-0.22,1.48-0.43,2.96-0.62,4.44
				c-0.19,1.48-0.37,2.97-0.54,4.45c-0.05,0.39-0.64,4.38-0.51,4.43c1.92,0.65,3.95,0.96,5.97,0.93c0.21-1.3,0.4-2.6,0.56-3.91
				c0.42-3.44,0.68-6.89,0.76-10.36c0.02-0.8,0.02-1.61-0.12-2.41c-0.05-0.29-0.17-0.84-0.39-1.05c-0.09-0.08-0.16-0.12-0.22-0.12
				c-0.34-0.02-0.42,0.71-0.65,0.88c-0.44,0.32-0.97,0.04-1.35-0.28c-0.52-0.44-0.99-1.22-1.55-1.57c-0.36-0.23-0.3-0.33-0.58,0.12
				C32.68,13.25,32.73,14.22,32.63,14.87z"/>
			<path fill="#63774E" d="M32.29,11.82c1.73-0.18,1.84,1.67,2.61,2.87c0.19,0.3,0.4,0.59,0.61,0.88c0.24,0.33,1.5,1.67,1.35,2.13
				c0.25-0.75,0.5-1.51,0.51-2.3c0.01-0.84-0.25-1.68-0.17-2.52c1.46,0.42,2.28,3.49,2.47,4.8c0.21,1.41-0.14,2.84-0.48,4.23
				c-0.79,3.15-1.57,6.31-2.29,9.47c-0.25,1.09-0.51,2.21-1.14,3.14c0.12,0.03,0.26-0.03,0.32-0.14c-0.07,0.22-0.14,0.45-0.22,0.67
				c-0.39-0.22-0.82-0.36-1.26-0.43c-0.76-0.11-1.52,0-2.29-0.01c-1.27-0.03-1.55-0.62-2.46-1.24c-0.92-0.64-2.49-0.79-3.55-1.2
				c0.88-2.43,1.71-4.47,1.28-7.13c-0.29-1.83-0.16-3.63-0.41-5.42c-0.27-1.9-0.17-3.88,0.23-5.75
				C27.83,11.96,30.63,11.99,32.29,11.82z"/>
			<path fill="#6F825A" d="M36.69,19.42c0-0.05,0-0.1,0-0.16c0.01-0.91,0.21-1.55,0.53-2.42c0.05-0.14,0.11-0.29,0.24-0.36
				c-0.23,1.43-0.05,2.85-0.15,4.28c-0.31,4.13-1.35,8.14-1.45,12.29c0,0.04,0,0.08-0.03,0.1c-0.03,0.03-0.07,0.03-0.12,0.04
				c-0.19,0-0.38-0.03-0.55-0.11c-0.04-0.02-0.09-0.04-0.11-0.08c-0.02-0.04-0.02-0.08-0.01-0.12c0.06-0.84,0.31-1.7,0.43-2.54
				c0.2-1.31,0.39-2.62,0.56-3.94c0.17-1.33,0.31-2.66,0.44-3.99c0.22-1.59,0.21-3.06-0.02-4.65c-0.04-0.26-0.08-0.53-0.04-0.8
				c0.31,0.33,0.51,0.75,0.57,1.19c0.07-0.51,0.21-1.02,0.43-1.49"/>
			<path fill="#938C6C" d="M27.12,28.9c-0.12,0.24-0.19,0.53-0.34,0.75c-0.06,0.09-0.36,0.35-0.24,0.47
				c0.14,0.14,0.28,0.27,0.43,0.39c0.48,0.38,1.07,0.62,1.61,0.87c0.66,0.3,1.35,0.57,2.04,0.81c1.35,0.47,2.76,0.81,4.18,1.02
				c0.47,0.07,1.11,0.32,1.49-0.01c0.34-0.29,0.45-1.68,0.52-2.12c-0.36,0.08-0.78,0.18-1.18,0.17c-0.55-0.02-1.1-0.1-1.65-0.21
				c-2.27-0.44-4.13-1.35-6.01-2.52c-0.14-0.09-0.28-0.31-0.47-0.28C27.32,28.29,27.18,28.77,27.12,28.9z"/>
			<path fill="#D2B26D" d="M42.19,2.44c-0.39-0.63-0.94-1.25-1.57-1.65c-0.18-0.11-2.21-1.07-2.14-0.59
				c0.01,0.05,0.04,0.1,0.07,0.14c0.09,0.12,0.13,0.27,0.13,0.42C38.48,0.3,37.92,0.12,37.42,0c-0.21,1.26-1.92,0.95-2.75,1.48
				c-0.73,0.47-1.32,1.15-1.65,1.96c-0.79,1.9-0.19,3.93,0.17,5.87c0.05,0.28,0.09,0.61,0.23,0.85c0.2,0.33,0.59,0.46,0.92,0.27
				c0.5-0.3-0.04,0.37,0.45,0.06c0.08-0.05,0.15-0.13,0.22-0.2c0.36-0.41,0.7-0.85,1.1-1.22c0.33-0.31,0.37-0.44,0.07-0.85
				c-0.25-0.35-0.36-0.81-0.29-1.23c0.02-0.12,0.06-0.24,0.15-0.33c0.19-0.17,0.51-0.07,0.71,0.09c0.61,0.48,0.61,0.63,0.94-0.18
				c0.19-0.46,1.76-0.89,2.26-1.16c0.64-0.34,1.52,0,2.19-0.29C43.13,4.69,42.62,3.13,42.19,2.44z"/>
			<g>
				<path fill="#F6D2BA" d="M41.16,19.72c0-0.96,0.68-1.51,1.2-2.38c0.41-0.69,1.01-1.29,1.03-0.1c0-0.01,0.68-0.47,0.76-0.55
					c0.25-0.26,0.42-0.59,0.78-0.72c0.39-0.14,0.81,0,1.07,0.28c0.39,0.42,0.51,1.09,0.2,1.63c-0.5,0.86-3.74,4.34-4.78,2.88
					c-0.09-0.12-0.14-0.27-0.18-0.41C41.18,20.12,41.16,19.91,41.16,19.72z"/>
				<path fill="#6F825A" d="M31.89,17.32c-0.47-1.08-0.97-2.36-1.71-3.29c-0.67-0.84-1.84-1.48-2.58-0.38
					c-0.56,0.83-0.37,1.94-0.13,2.91c0.29,1.16,0.55,2.38,1.1,3.44c0.58,1.11,1.14,2.17,1.86,3.2c0.7,1,1.29,2.56,2.6,2.88
					c1.16,0.28,2.38-0.07,3.62-0.6c1.07-0.46,1.92-1.24,2.98-1.71c1.18-0.53,1.75-1.38,2.77-2.07c0.42-0.28,0.96-0.35,1.37-0.59
					c-0.47,0.25-2.26-2.57-2.44-2.93c-0.63,0.64-0.86,1.28-1.7,1.76c-1.31,0.74-2.77,1.3-4.14,1.94c-0.7,0.33-0.82,0.61-1.37,0.08
					c-0.3-0.29-0.48-1.11-0.67-1.49C32.93,19.41,32.36,18.39,31.89,17.32z"/>
			</g>
		</g>
	</g>
	<g>
		
			<line fill="none" stroke="#EF5B5B" stroke-width="2.4306" stroke-linecap="round" stroke-linejoin="round" stroke-miterlimit="10" x1="10.56" y1="9.66" x2="46.41" y2="45.5"/>
		
			<line fill="none" stroke="#EF5B5B" stroke-width="2.4306" stroke-linecap="round" stroke-linejoin="round" stroke-miterlimit="10" x1="46.41" y1="9.66" x2="10.56" y2="45.5"/>
	</g>
</g>
</svg>
