<?xml version="1.0" encoding="utf-8"?>
<!-- Generator: Adobe Illustrator 23.0.0, SVG Export Plug-In . SVG Version: 6.00 Build 0)  -->
<svg version="1.1" id="Layer_1" xmlns="http://www.w3.org/2000/svg" xmlns:xlink="http://www.w3.org/1999/xlink" x="0px" y="0px"
	 viewBox="0 0 60.86 58.81" enable-background="new 0 0 60.86 58.81" xml:space="preserve">
<g>
	<circle fill="#9ACFDA" cx="34.02" cy="33.16" r="25.65"/>
	<g>
		<g>
			<g>
				<path fill="#BCBEC0" d="M8.03,24.4c-0.21-0.6-0.39-1.23-0.33-1.88c0.05-0.66,0.44-1.26,0.93-1.68c0.97-0.85,2.26-1.33,2.83-2.39
					c0.57-1.07,0.21-2.37-0.23-3.51c-0.46-1.15-1.04-2.39-0.97-3.78c0.04-0.68,0.3-1.42,0.83-1.91C11.6,8.77,12.16,8.47,12.37,8
					c0.22-0.46,0.16-1.05-0.06-1.58c-0.22-0.54-0.58-1-1.02-1.44c-0.43-0.44-0.92-0.87-1.35-1.39C9.72,3.35,9.52,3.06,9.36,2.74
					C9.2,2.43,9.08,2.04,9.12,1.63C9.14,1.43,9.2,1.2,9.36,1c0.15-0.2,0.39-0.33,0.61-0.37c0.44-0.07,0.75,0,1.1,0.08
					c0.34,0.09,0.68,0.23,0.99,0.47c0.31,0.23,0.57,0.68,0.5,1.14l-0.02,0.12l-0.08,0.08c-0.74,0.77-1.78,0.97-2.66,1.11
					c-0.9,0.14-1.79,0.23-2.52,0.63C6.58,4.62,6.09,5.4,6.03,6.19C5.94,7,6.48,7.75,7.26,8.01c0.38,0.13,0.8,0.14,1.15-0.03
					c0.36-0.15,0.64-0.47,0.61-0.83C9,6.78,8.72,6.42,8.43,6.1c-0.31-0.33-0.62-0.67-0.9-1.03c-0.57-0.71-1.08-1.52-1.3-2.42
					C6,1.76,6.08,0.77,6.59,0c-0.45,0.8-0.45,1.76-0.2,2.61c0.25,0.86,0.78,1.6,1.37,2.27c0.3,0.34,0.62,0.65,0.94,0.97
					c0.31,0.33,0.67,0.71,0.74,1.27C9.5,7.7,9.06,8.19,8.61,8.39c-0.47,0.23-1.02,0.24-1.5,0.09C6.62,8.33,6.19,8.03,5.88,7.62
					C5.57,7.2,5.43,6.67,5.45,6.16c0.04-1.02,0.64-1.98,1.54-2.45c0.88-0.48,1.84-0.57,2.72-0.72c0.88-0.14,1.73-0.35,2.27-0.93
					l-0.09,0.2c0.06-0.37-0.44-0.72-0.99-0.85c-0.26-0.06-0.59-0.1-0.78-0.06C9.94,1.38,9.87,1.47,9.84,1.7
					c-0.04,0.46,0.28,0.99,0.64,1.45c0.38,0.47,0.84,0.89,1.29,1.35c0.46,0.46,0.9,1.02,1.15,1.67C13.19,6.8,13.3,7.6,12.96,8.3
					C12.6,9,11.93,9.31,11.54,9.71c-0.41,0.38-0.61,0.92-0.66,1.5c-0.08,1.19,0.39,2.36,0.83,3.56c0.21,0.61,0.39,1.24,0.46,1.9
					c0.06,0.66-0.01,1.37-0.37,1.97c-0.73,1.22-2.09,1.59-3.04,2.37c-0.49,0.38-0.87,0.91-0.95,1.53
					C7.73,23.15,7.86,23.79,8.03,24.4z"/>
			</g>
			<g>
				<path fill="#BCBEC0" d="M9.06,24c-0.73,0.09-1.44-0.34-1.88-0.93c-0.46-0.59-0.64-1.36-0.65-2.09c0-1.48,0.57-2.86,0.57-4.23
					c0.04-1.35-0.71-2.61-1.81-3.35c-0.54-0.37-1.19-0.59-1.76-0.47c-0.55,0.08-1,0.64-1.01,1.16C2.48,14.6,3,14.95,3.58,14.83
					c0.58-0.09,0.97-0.58,1.04-1.2c0.08-0.62-0.12-1.26-0.48-1.82c-0.36-0.57-0.84-1.08-1.3-1.64c-0.92-1.12-1.72-2.35-2.26-3.7
					C0.06,5.11-0.18,3.61,0.15,2.21C-0.01,3.63,0.3,5.06,0.9,6.32C1.49,7.6,2.32,8.76,3.26,9.8c0.47,0.52,1,1.03,1.4,1.67
					c0.42,0.63,0.7,1.42,0.61,2.23c-0.04,0.41-0.19,0.82-0.46,1.16c-0.28,0.35-0.69,0.57-1.11,0.65c-0.42,0.08-0.89,0.04-1.29-0.23
					c-0.4-0.26-0.64-0.75-0.62-1.22c0.05-0.91,0.74-1.67,1.62-1.82c0.85-0.14,1.64,0.18,2.27,0.61c1.24,0.86,2.13,2.37,2,3.91
					c-0.08,1.51-0.71,2.83-0.78,4.22c-0.05,0.69,0.06,1.39,0.45,1.97C7.71,23.53,8.33,24,9.06,24z"/>
			</g>
			<g>
				<path fill="#E6E7E8" d="M12.48,27.13l33.73,15.53l1.8-3.91L14.28,23.22c0,0,0.1,0.82-0.54,2.2
					C13.09,26.84,12.48,27.13,12.48,27.13z"/>
				<path fill="#FFFFFF" d="M49.31,44.09l-3.91-1.8c0,0,0.67-0.4,1.28-1.71c0.55-1.19,0.52-2.2,0.52-2.2l3.91,1.8l-0.9,1.96
					L49.31,44.09z"/>
				<path fill="#EEB95B" d="M59.04,48.57l-10.52-4.84c0,0,0.74-0.64,1.27-1.78c0.58-1.26,0.53-2.13,0.53-2.13l10.52,4.84
					c0,0,0.15,0.6-0.55,2.12C59.68,48.13,59.04,48.57,59.04,48.57z"/>
				
					<ellipse transform="matrix(0.4183 -0.9083 0.9083 0.4183 -15.0946 26.7118)" fill="#EE755B" cx="13.31" cy="25.14" rx="2.15" ry="0.62"/>
				<path fill="#A7A9AC" d="M10.01,25.79l2.24,1.24c0,0,0.71-0.57,1.27-1.78c0.64-1.39,0.53-2.13,0.53-2.13l-2.49-1.03
					c-0.65-0.17-1.34,0.13-1.65,0.73c-0.06,0.11-0.13,0.61-0.19,0.75c-0.09,0.2-0.17,0.38-0.22,0.54
					C9.28,24.69,9.47,25.46,10.01,25.79z"/>
				<path fill="#BCBEC0" d="M12.22,27.01c0,0,0.71-0.57,1.27-1.78c0.64-1.39,0.53-2.13,0.53-2.13l-1.08-0.5
					c-0.4,0.15-0.42,1.19-0.8,2c-0.5,1.09-1.05,1.49-0.81,1.92L12.22,27.01z"/>
			</g>
		</g>
		<g>
			
				<line fill="none" stroke="#EF5B5B" stroke-width="2.4306" stroke-linecap="round" stroke-linejoin="round" stroke-miterlimit="10" x1="18.05" y1="18.73" x2="53.82" y2="54.65"/>
			
				<line fill="none" stroke="#EF5B5B" stroke-width="2.4306" stroke-linecap="round" stroke-linejoin="round" stroke-miterlimit="10" x1="53.89" y1="18.8" x2="17.97" y2="54.57"/>
		</g>
	</g>
</g>
</svg>
