<?xml version="1.0" encoding="utf-8"?>
<!-- Generator: Adobe Illustrator 23.0.0, SVG Export Plug-In . SVG Version: 6.00 Build 0)  -->
<svg version="1.1" id="Layer_1" xmlns="http://www.w3.org/2000/svg" xmlns:xlink="http://www.w3.org/1999/xlink" x="0px" y="0px"
	 viewBox="0 0 37.87 64.13" enable-background="new 0 0 37.87 64.13" xml:space="preserve">
<g>
	
		<ellipse transform="matrix(0.0134 -0.9999 0.9999 0.0134 -42.8111 79.611)" opacity="0.33" fill="#A5B3B8" cx="18.94" cy="61.5" rx="2.62" ry="18.94"/>
	<g>
		<path fill="#F6D2BA" d="M20.96,6.09c0.24-1.65,0.12-3.18-1.51-4.29c-0.83-0.57-1.88-0.77-2.89-0.73
			c-0.56,0.03-1.13,0.13-1.62,0.39c-0.64,0.35-1.1,0.94-1.44,1.58c-0.65,1.22-1.23,3.08-0.77,4.44c0.16,0.48,1.25,0.94,1.02,1.4
			c-0.32,0.63-0.58,1.12-0.95,1.71c-0.99,1.55-1.06,3.21-0.24,4.82c0.19,0.37,0.43,0.73,0.77,0.97c0.06,0.04,0.13,0.08,0.2,0.08
			c0.08,0,0.14-0.06,0.2-0.11c0.63-0.57,0.98-1.17,1.45-1.83c0.36-0.5,1.02-0.91,1-1.6c-0.01-0.27-0.13-0.52-0.2-0.78
			c-0.5-1.84,1.08-1.44,2.24-1.26c1.8,0.29,2.27-2.4,2.53-3.65C20.83,6.84,20.91,6.46,20.96,6.09z"/>
		<path fill="#BCBEC0" d="M14.59,9.33c0.54-0.06,1.07-0.33,1.45-0.74c0.35-0.38,0.65-1.19,0.36-1.67c-0.21-0.35-0.36-0.78-0.26-1.2
			c0.07-0.28,0.32-0.54,0.61-0.5c0.43,0.06,0.5,0.53,0.69,0.83c0.44,0.69,1.03,0.07,1.53-0.1c0.17-0.06,0.36-0.07,0.54-0.08
			c0.42-0.02,0.85-0.04,1.27-0.06c0.06,0,0.12,0,0.16,0.04c0.04,0.04,0.03,0.11,0.02,0.16c-0.03,0.17-0.05,0.35-0.08,0.52
			c1.13-1.22,1.5-3.29,0.19-4.52c-0.44-0.42-0.98-0.66-1.41-1.1c-0.87-0.88-2.78-1.09-3.93-0.77c-1.8,0.49-2.97,2.09-3.57,3.78
			c-0.18,0.51-0.29,1.06-0.36,1.6c-0.13,0.94-0.22,2.08,0.2,2.96c0.19,0.39,0.58,0.68,1.02,0.72c0.45,0.04,0.92,0.15,1.38,0.14
			C14.46,9.34,14.52,9.34,14.59,9.33z"/>
		<path d="M13.11,1.73c-0.01-0.04-0.03-0.08-0.04-0.12c0.24-0.03,0.48,0.05,0.71,0.12c0.15,0.05,0.29,0.09,0.42,0.18
			c0.41,0.26,0.52,0.85,0.32,1.29c-0.2,0.44-0.64,0.74-1.1,0.87c-0.09,0.03-0.19,0.04-0.29,0.04c-0.35-0.02-0.6-0.39-0.62-0.74
			s0.12-0.69,0.27-1.01c0.1-0.23,0.21-0.46,0.31-0.69c0,0.01,0,0.01-0.01,0.02"/>
		<path fill="#A7A9AC" d="M12.25,6.58c0.1-0.37,0.23-0.72,0.42-1.07c0.58-1.09,1.57-2.26,0.97-3.55C13.11,0.83,11.21,0.52,10.2,1
			C9.15,1.49,8.36,2.48,8.1,3.61C7.98,4.16,7.95,4.74,8.06,5.29c0.11,0.6,0.33,1.25-0.09,1.8C7.62,7.55,6.98,7.67,6.61,8.1
			c-0.5,0.59-0.32,1.56-0.83,2.14c-0.33,0.37-0.89,0.51-1.14,0.94c-0.28,0.47-0.29,1.21-0.37,1.74c0.03-0.21,1.07-0.57,1.27-0.59
			c0.35-0.03,0.75,0.14,1.11,0.19c0.87,0.11,1.93,0.19,2.61-0.47c0.52-0.51,0.64-1.33,1.18-1.83c0.4-0.37,0.98-0.52,1.32-0.94
			c0.45-0.56,0.25-1.32,0.34-1.98C12.14,7.05,12.19,6.81,12.25,6.58z"/>
	</g>
	<path fill="#808285" d="M12.64,46.05c1.18-0.04,2.35-0.12,3.52-0.26c0.61-0.07,1.29-0.19,1.66-0.66c0.24-0.3,0.3-0.7,0.35-1.08
		c0.34-2.94-0.07-5.95-1.19-8.71c-0.27-0.65-0.61-1.33-1.24-1.69c-0.77-0.43-1.8-0.24-2.51,0.28c-0.71,0.51-1.16,1.29-1.5,2.08
		c-1.44,3.38-1.14,7.41,0.81,10.55"/>
	<path fill="#754C29" d="M15.07,57.86c-0.44,0.01-0.83-0.01-1.2,0.26c-0.48,0.36-0.56,0.95-0.58,1.5c-0.01,0.22,0.01,0.45,0.12,0.64
		c0.1,0.17,0.27,0.3,0.44,0.41c0.79,0.51,1.74,0.79,2.69,0.82c0.62,0.01,1.27-0.09,1.76-0.46s0.78-1.03,0.55-1.59
		c-0.25-0.61-0.97-0.88-1.61-1.09c-0.33-0.1-0.66-0.15-0.93-0.38c-0.06-0.05-0.12-0.11-0.19-0.14c-0.13-0.06-0.33,0.03-0.47,0.03
		C15.47,57.87,15.27,57.86,15.07,57.86z"/>
	<path fill="#8B5E3C" d="M8.93,57.86c-0.49,0.01-0.94-0.01-1.35,0.26c-0.54,0.36-0.63,0.95-0.66,1.5c-0.01,0.22,0.01,0.45,0.13,0.64
		c0.11,0.17,0.3,0.3,0.5,0.41c0.9,0.51,1.96,0.79,3.03,0.82c0.7,0.01,1.44-0.09,1.99-0.46c0.56-0.36,0.88-1.03,0.63-1.59
		c-0.28-0.61-1.09-0.88-1.82-1.09c-0.37-0.1-0.74-0.15-1.05-0.38c-0.07-0.05-0.13-0.11-0.21-0.14c-0.15-0.06-0.37,0.03-0.53,0.03
		C9.37,57.87,9.15,57.86,8.93,57.86z"/>
	<path fill="#0F2849" d="M10.29,29c0.07,0.38,0.11,0.76,0.11,1.13c0,0.8,0.01,1.61,0.06,2.41c0.1,1.7,0.08,3.41,2.39,3.16
		c0.03,0,0.07-0.01,0.09,0.01c0.02,0.02,0.03,0.06,0.03,0.09c0,1.14,0,2.25,0,3.4c0.02,1.7,0.03,3.41,0.07,5.11
		c0.11,4.56,0.23,9.12,0.35,13.66c0.6,0.54,1.09,0.29,1.81,0.3c0.23,0,2.73,0.1,2.69-0.21c-0.28-2.19-0.04-4.3,0.03-6.48
		c0.07-2.3,0.08-4.61,0.03-6.91c-0.14-6.21-0.84-12.29-1.77-18.42c-0.02-0.12-0.04-0.25-0.12-0.34c-0.07-0.09-0.18-0.13-0.28-0.18
		c-1.51-0.61-3.14-0.94-4.76-0.95c-0.32,0-0.66,0.02-0.91,0.22c-0.34,0.28-0.36,0.79-0.33,1.24C9.84,27.16,10.12,28.09,10.29,29z"/>
	<path fill="#0F2849" d="M9.1,27.62c-0.42-0.35-1.09-0.15-1.44,0.28c-1.23,1.49-0.67,4.66-0.71,6.48c-0.06,2.62-0.12,5.23-0.17,7.85
		c-0.06,2.7,0,5.41,0.11,8.11c0.06,1.39,0.13,2.78,0.21,4.17c0.04,0.68,0.08,1.35,0.12,2.03c0.02,0.35-0.12,1.57,0.16,1.81
		c0.07,0.06,0.17,0.08,0.27,0.09c1.13,0.15,2.2,0.15,3.33,0.07c0.17-0.01,0.35-0.03,0.48-0.14c0.15-0.13,0.17-0.34,0.18-0.54
		c0.34-5.79,0.6-11.51,0.7-17.31c0.04-2.46,0.31-4.92,0.14-7.37c-0.07-1.03-0.17-2.07-0.55-3.02c-0.52-1.27-1.56-2.3-2.82-2.77"/>
	<path fill="#EEB95B" d="M16.4,11.35c0.01,0-1.03,2.08-1.11,2.21c-0.46,0.82-0.9,0.95-1.41,0.13c-0.37-0.61-0.71-1.26-0.84-1.97
		c-0.06-0.33-0.04-0.78-0.25-1.05c-0.32,0.43-0.39,1.32-0.53,1.85c-0.17,0.65-0.32,1.29-0.48,1.94c-0.31,1.28-0.6,2.57-0.87,3.86
		c-0.28,1.29-0.54,2.58-0.8,3.88c-0.07,0.34-0.89,3.81-0.77,3.86c1.64,0.71,3.4,1.14,5.18,1.26c0.28-1.13,0.54-2.26,0.78-3.39
		c0.63-2.99,1.11-6.01,1.43-9.05c0.12-1.13,0.19-2.19-0.16-3.3C16.55,11.49,16.5,11.37,16.4,11.35z"/>
	<path fill="#F6D2BA" d="M25.79,28.6c0.3,0.87,1.08,1.4,1.43,2.24c0.27,0.63,0.72,1.21,0.91,0.16c-0.01,0.05,0.38,0.33,0.42,0.37
		c0.21,0.16,0.43,0.3,0.63,0.48c0.09,0.09,0.21,0.18,0.32,0.14c0.05-0.02,0.09-0.06,0.12-0.11c0.13-0.16,0.26-0.34,0.25-0.54
		c0-0.04-0.01-0.07,0-0.11c0.01-0.03,0.03-0.06,0.05-0.09c0.16-0.25,0.11-0.59-0.01-0.87c-0.02-0.04-0.03-0.08-0.03-0.12
		c0-0.04,0.02-0.08,0.04-0.13c0.07-0.18,0.09-0.38,0.04-0.56c-0.09-0.36-0.45-0.63-0.72-0.86c-0.31-0.26-0.63-0.5-0.97-0.72
		c-0.69-0.46-1.42-0.84-2.15-1.22C25.64,27.23,25.58,27.99,25.79,28.6z"/>
	<path fill="#EDC7C3" d="M27.65,27.2c0.06,0.13,0.12,0.28,0.1,0.42c-0.03,0.2-0.21,0.34-0.38,0.46c-0.48,0.34-0.97,0.65-1.48,0.93
		c-0.81-0.67-1.62-1.34-2.43-2.01c-0.73-0.61-1.47-1.21-2.11-1.92c-0.67-0.74-1.22-1.57-1.77-2.39c-0.64-0.96-1.29-1.93-1.88-2.92
		c-0.47-0.79-1.21-1.69-1.33-2.6c-0.17-1.25-0.44-2.52-0.23-3.79c0.05-0.3,0.13-0.62,0.32-0.85c0.19-0.24,0.54-0.38,0.82-0.26
		c0.76,0.32,1.27,1.63,1.59,2.31c0.57,1.19,1.33,2.29,1.85,3.51c0.66,1.55,1.36,3.2,2.62,4.37C24.81,23.84,26.78,25.34,27.65,27.2z"
		/>
	<path fill="#EEDDC4" d="M17.18,12.23c0.32,0.37,0.57,0.81,0.71,1.18c0.28,0.73,0.62,1.59,0.64,2.38c0.03,0.96-0.21,1.89-0.43,2.81
		c-1.01,4.27-0.6,8.72,0.03,13.01c0.32,2.16,0.7,4.31,1.01,6.48c0.28,1.97,0.08,4.07-0.12,6.05c-0.03,0.29-0.07,0.58-0.21,0.83
		c-0.25,0.44-0.77,0.63-1.25,0.8c-0.49,0.17-1.14,0.29-1.44-0.13c-0.14-0.2-0.15-0.46-0.16-0.7c-0.02-1.11,0.03-2.21,0.02-3.32
		c-0.03-3.19-0.49-6.35-0.72-9.52c-0.1-1.38-0.59-2.61-0.66-4c-0.07-1.44,0.11-2.88,0.38-4.29c0.51-2.68,1.45-5.27,1.13-8
		c-0.08-0.66-0.29-1.32-0.35-1.97c-0.08-0.82,0.02-1.6-0.12-2.44C16.24,11.38,16.77,11.75,17.18,12.23z"/>
	<path fill="#EEDDC4" d="M13.25,15.84c0.14-1.34,0.16-2.67-0.15-3.97c-0.27-1.15-0.87-1.61-2.1-1.42c-1.03,0.16-1.99,0.76-2.64,1.55
		c-1.07,1.3-1.49,3.01-1.87,4.65c-0.86,3.68-1.74,7.24-1.72,11.05c0.02,2.34,0.49,4.65,0.39,7c-0.13,3.22-0.25,6.44-0.34,9.67
		c-0.01,0.25-0.01,0.51,0.06,0.75c0.37,1.22,3.97,0.93,5.07,1c0.28,0.02,3.96,0.31,3.96,0.01c-0.09-1.06-0.18-2.13-0.26-3.19
		c-0.19-2.48-0.33-4.97-0.46-7.45c-0.1-2.11,0.08-4.42-0.53-6.44c-0.62-2.05-0.46-4.58-0.35-6.7
		C12.43,20.23,13.01,18.02,13.25,15.84z"/>
	<g>
		<path fill="#F6D2BA" d="M11.77,23.8c0.94-0.1,1.78,0.39,2.72,0.36c0.71-0.02,1.44,0.14,0.55,0.78c0.01-0.01,0.67,0.3,0.77,0.33
			c0.31,0.07,0.64,0.03,0.9,0.26c0.28,0.24,0.37,0.66,0.28,1.02c-0.14,0.54-0.59,0.99-1.14,1.02c-2.13,0.11-4.01-1.27-5.75-2.6
			C10.42,24.26,11.11,23.87,11.77,23.8z"/>
		<path fill="#EDC7C3" d="M9.13,10.64c-1.86,1.28-2.86,3.46-3.65,5.58C4.82,18,4.25,19.82,3.77,21.67
			c-0.06,0.23-0.12,0.48-0.06,0.71c0.07,0.28,0.3,0.48,0.52,0.66c1.35,1.08,2.87,1.66,4.41,2.39c1.18,0.56,2.51,0.79,3.64,1.46
			c0.51-0.78,0.94-1.61,1.28-2.48c0.07-0.17,0.13-0.37,0.04-0.53c-0.05-0.1-0.15-0.17-0.25-0.23c-1.34-0.84-2.71-1.62-4.1-2.38
			c-1.22-0.67-1.19-1.45-0.58-2.48c0.57-0.96,1.14-1.91,1.7-2.87c0.45-0.76,0.91-1.53,1.16-2.38c0.33-1.11,0.77-2.7-0.45-3.32
			c-1.51-0.77-2.99,0.93-3.45,2.16"/>
	</g>
	<g>
		<path fill="#8B5E3C" d="M29.58,29.84L28.9,60.96c0,0.16-0.14,0.3-0.31,0.29c-0.16,0-0.29-0.13-0.29-0.29l-0.68-31.11
			c-0.01-0.54,0.42-0.99,0.96-1c0.54-0.01,0.99,0.42,1,0.96C29.58,29.81,29.58,29.83,29.58,29.84z"/>
	</g>
	<g>
		<path fill="#F6D2BA" d="M28.85,31.07c0.07-0.11,0.01-0.26-0.1-0.33c-0.1-0.07-0.24-0.09-0.36-0.1c-0.11-0.01-0.23-0.02-0.34,0
			c-0.05,0.01-0.1,0.04-0.15,0.03c-0.06-0.01-0.1-0.06-0.17-0.06c-0.04,0-0.08,0.01-0.11,0.03c-0.08,0.03-0.15,0.08-0.2,0.15
			c-0.06,0.09-0.06,0.2-0.04,0.3c0.03,0.13,0.12,0.37,0.26,0.42c0.1,0.04,0.21-0.01,0.31-0.06c0.26-0.12,0.54-0.21,0.82-0.27"/>
		<path fill="#F6D2BA" d="M29.28,29.6c-0.07,0.06-0.14,0.14-0.14,0.23c-0.01,0.17,0.17,0.29,0.32,0.36
			c-0.12,0.06-0.21,0.2-0.21,0.34c0,0.14,0.07,0.28,0.2,0.35c-0.12,0.11-0.18,0.28-0.2,0.45c-0.01,0.17,0.02,0.33,0.06,0.49
			c0.02,0.06,0.04,0.13,0.09,0.16c0.06,0.03,0.14,0.01,0.19-0.04c0.05-0.05,0.07-0.11,0.09-0.18c0.13-0.43,0.08-0.88,0.12-1.33
			c0.01-0.16,0.04-0.33,0.04-0.49c0-0.13-0.03-0.37-0.15-0.45C29.58,29.41,29.38,29.53,29.28,29.6z"/>
	</g>
</g>
</svg>
