<?xml version="1.0" encoding="utf-8"?>
<!-- Generator: Adobe Illustrator 23.0.0, SVG Export Plug-In . SVG Version: 6.00 Build 0)  -->
<svg version="1.1" id="Layer_1" xmlns="http://www.w3.org/2000/svg" xmlns:xlink="http://www.w3.org/1999/xlink" x="0px" y="0px"
	 viewBox="0 0 27.91 60.59" enable-background="new 0 0 27.91 60.59" xml:space="preserve">
<g>
	
		<rect x="-16.34" y="16.34" transform="matrix(4.488302e-11 1 -1 4.488302e-11 44.2495 16.3383)" fill="#0F2849" width="60.59" height="27.91"/>
	<g>
		<g>
			<polygon fill="#C3D7DC" points="2.11,36.58 2.1,32.91 13.96,43.51 25.82,32.91 25.83,36.55 13.96,47.16 			"/>
		</g>
		<g>
			<polygon fill="#C3D7DC" points="2.11,41.62 2.1,37.96 13.96,48.56 25.82,37.96 25.83,41.61 13.96,52.21 			"/>
		</g>
		<g>
			<polygon fill="#C3D7DC" points="2.11,46.67 2.1,43.01 13.96,53.6 25.82,43.01 25.83,46.65 13.96,57.25 			"/>
		</g>
		<g>
			<polygon fill="#C3D7DC" points="17.06,30.22 15.49,33.08 13.92,35.94 12.23,33.15 10.54,30.36 13.8,30.29 			"/>
			<polygon fill="#C3D7DC" points="10.85,33.99 14.11,33.92 17.38,33.85 15.68,31.06 13.99,28.27 12.42,31.13 			"/>
		</g>
	</g>
</g>
</svg>
