<?xml version="1.0" encoding="utf-8"?>
<!-- Generator: Adobe Illustrator 23.0.0, SVG Export Plug-In . SVG Version: 6.00 Build 0)  -->
<svg version="1.1" id="Layer_1" xmlns="http://www.w3.org/2000/svg" xmlns:xlink="http://www.w3.org/1999/xlink" x="0px" y="0px"
	 viewBox="0 0 9.45 49.98" enable-background="new 0 0 9.45 49.98" xml:space="preserve">
<g>
	<defs>
		<rect id="SVGID_746_" x="0" y="0.03" width="9.45" height="49.91"/>
	</defs>
	<clipPath id="SVGID_2_">
		<use xlink:href="#SVGID_746_"  overflow="visible"/>
	</clipPath>
	<rect x="0" y="0.03" clip-path="url(#SVGID_2_)" fill="#009AC4" width="9.45" height="49.91"/>
	<g clip-path="url(#SVGID_2_)">
		<path fill="#0F2849" d="M4.28,5.42l-5,0c-0.25,0-0.45-0.2-0.45-0.45l0-0.03c0-0.25,0.2-0.45,0.45-0.45l5,0
			c0.25,0,0.45,0.2,0.45,0.45l0,0.03C4.74,5.21,4.53,5.42,4.28,5.42z"/>
		<path fill="#0F2849" d="M4.28,10.74l-5,0c-0.25,0-0.45-0.2-0.45-0.45l0-0.03c0-0.25,0.2-0.45,0.45-0.45l5,0
			c0.25,0,0.45,0.2,0.45,0.45l0,0.03C4.73,10.54,4.53,10.74,4.28,10.74z"/>
		<path fill="#0F2849" d="M5.57,16.07l-6.3,0c-0.25,0-0.45-0.2-0.45-0.45l0-0.03c0-0.25,0.2-0.45,0.45-0.45l6.3,0
			c0.25,0,0.45,0.2,0.45,0.45l0,0.03C6.02,15.87,5.82,16.07,5.57,16.07z"/>
		<path fill="#0F2849" d="M4.28,21.4l-5,0c-0.25,0-0.45-0.2-0.45-0.45l0-0.03c0-0.25,0.2-0.45,0.45-0.45l5,0
			c0.25,0,0.45,0.2,0.45,0.45l0,0.03C4.73,21.19,4.53,21.4,4.28,21.4z"/>
		<path fill="#0F2849" d="M4.27,26.72l-5,0c-0.25,0-0.45-0.2-0.45-0.45l0-0.03c0-0.25,0.2-0.45,0.45-0.45l5,0
			c0.25,0,0.45,0.2,0.45,0.45l0,0.03C4.72,26.52,4.52,26.72,4.27,26.72z"/>
		<path fill="#0F2849" d="M5.73,32.05l-6.46,0c-0.25,0-0.45-0.2-0.45-0.45l0-0.03c0-0.25,0.2-0.45,0.45-0.45l6.46,0
			c0.25,0,0.45,0.2,0.45,0.45l0,0.03C6.18,31.85,5.98,32.05,5.73,32.05z"/>
		<path fill="#0F2849" d="M4.27,37.37l-5,0c-0.25,0-0.45-0.2-0.45-0.45l0-0.03c0-0.25,0.2-0.45,0.45-0.45l5,0
			c0.25,0,0.45,0.2,0.45,0.45l0,0.03C4.72,37.17,4.52,37.37,4.27,37.37z"/>
	</g>
	
		<rect x="6.72" y="0.03" transform="matrix(1 2.701874e-03 -2.701874e-03 1 0.0675 -0.0226)" clip-path="url(#SVGID_2_)" fill="#C3D7DC" width="3.34" height="49.91"/>
</g>
</svg>
