<?xml version="1.0" encoding="utf-8"?>
<!-- Generator: Adobe Illustrator 23.0.0, SVG Export Plug-In . SVG Version: 6.00 Build 0)  -->
<svg version="1.1" id="Layer_1" xmlns="http://www.w3.org/2000/svg" xmlns:xlink="http://www.w3.org/1999/xlink" x="0px" y="0px"
	 viewBox="0 0 41.94 62.36" enable-background="new 0 0 41.94 62.36" xml:space="preserve">
<g>
	<g>
		<g>
			<g>
				<path fill="#F6D2BA" d="M25.66,23.5c0.87,0,1.37,0.61,2.15,1.09c0.62,0.37,1.17,0.91,0.09,0.93c0.01,0,0.42,0.61,0.5,0.69
					c0.23,0.23,0.54,0.38,0.65,0.71c0.12,0.35,0,0.73-0.25,0.97c-0.38,0.35-0.99,0.46-1.47,0.18c-0.77-0.45-3.92-3.38-2.6-4.32
					c0.11-0.08,0.24-0.13,0.37-0.16C25.3,23.53,25.49,23.5,25.66,23.5z"/>
				<path fill="#566345" d="M27.83,15.12c0.98-0.43,2.14-0.88,2.98-1.54c0.76-0.6,1.34-1.66,0.35-2.33
					c-0.75-0.51-1.75-0.34-2.63-0.12c-1.05,0.26-2.16,0.5-3.11,1c-1,0.52-1.96,1.03-2.9,1.68c-0.9,0.63-2.32,1.16-2.6,2.35
					c-0.25,1.05,0.06,2.15,0.54,3.27c0.41,0.97,1.12,1.74,1.55,2.69c0.47,1.07,1.25,1.58,1.87,2.5c0.26,0.38,0.31,0.87,0.53,1.24
					c-0.22-0.43,2.32-2.04,2.65-2.2c-0.58-0.57-1.16-0.78-1.59-1.54c-0.67-1.19-1.18-2.51-1.75-3.74c-0.3-0.63-0.55-0.74-0.07-1.24
					c0.26-0.27,1-0.44,1.35-0.61C25.94,16.07,26.86,15.54,27.83,15.12z"/>
			</g>
			
				<ellipse transform="matrix(0.0134 -0.9999 0.9999 0.0134 -40.6493 78.1613)" opacity="0.33" fill="#A7A9AC" cx="19.28" cy="59.68" rx="2.66" ry="19.28"/>
			<path fill="#1A242D" d="M8.89,54.16c-0.26-0.42-0.46-0.81-0.92-1.03c-0.59-0.28-1.16-0.05-1.66,0.22
				c-0.2,0.11-0.39,0.24-0.5,0.45c-0.09,0.19-0.11,0.42-0.11,0.64c0.01,1.04,0.29,2.1,0.82,3.04c0.34,0.61,0.81,1.19,1.41,1.48
				c0.6,0.29,1.36,0.22,1.73-0.29c0.4-0.56,0.23-1.4,0.04-2.13c-0.09-0.37-0.24-0.72-0.2-1.1c0.01-0.08,0.03-0.17,0.02-0.26
				c-0.02-0.16-0.21-0.3-0.29-0.44C9.1,54.55,9,54.35,8.89,54.16z"/>
			<path fill="#1A242D" d="M26.88,51.12c-0.38-0.33-0.71-0.65-1.21-0.73c-0.66-0.1-1.13,0.29-1.53,0.69
				c-0.16,0.16-0.3,0.35-0.34,0.58c-0.03,0.21,0.03,0.44,0.1,0.65c0.33,1,0.95,1.95,1.75,2.7c0.52,0.49,1.16,0.91,1.83,1.02
				c0.67,0.11,1.38-0.18,1.57-0.78c0.21-0.66-0.23-1.42-0.64-2.08c-0.21-0.33-0.46-0.63-0.54-1c-0.02-0.08-0.03-0.17-0.06-0.25
				c-0.07-0.15-0.3-0.23-0.42-0.34C27.21,51.43,27.05,51.27,26.88,51.12z"/>
			<path fill="#566345" d="M26.02,27.92c0.37,0.45-3.87,3.14-4.16,3.68c-0.69,1.27-0.69,3.38-0.85,4.79
				c-0.26,2.17-0.42,4.68-0.01,6.82c-2.18,1.35-4.55,2.28-6.6,3.87c-2.28,1.76-4.2,3.96-6.62,5.53C7.52,52.78,8.74,55.08,9,55.2
				c1.66,0.75,4.5-2.28,5.96-2.91c2.61-1.12,5.28-2.35,7.58-3.88c0.52-0.35,1.03-0.7,1.5-1.12c2.81-2.52,2.93-6.5,4.17-9.83
				c0.28-0.77,0.61-1.52,1.01-2.23c0.32-0.57,1.31-1.28,1.5-1.75c0.54-1.34-1-1.84-1.92-2.51C27.68,30.16,26.89,28.97,26.02,27.92z"
				/>
			<path fill="#63774E" d="M22.95,28.1c0.32-0.34,0.68-0.63,1.09-0.82c0.4-0.19,0.82-0.3,1.25-0.14c0.38,0.14,0.6,0.8,0.85,0.88
				c0.71,0.24,1.07,0.94,1.58,1.49c1.1,1.19,2.53,1.34,4.03,1.64c1.76,0.35,2.7,2.17,3.84,3.36c0.56,0.57,1.11,1.15,1.67,1.72
				c1.75,1.81,2.42,3.92,1.11,6.17c-1.01,1.73-2.01,3.52-3.64,4.71c-1.23,0.9-2.47,1.8-3.7,2.7c-0.62,0.45-1.23,0.9-1.85,1.35
				c-0.31,0.22-0.61,0.45-0.92,0.67c-0.03,0.02-0.61,0.39-0.48,0.43c-0.32-0.12-0.58-0.36-0.83-0.59c-0.42-0.38-1.46-1.03-1.03-1.67
				c2.23-3.35,4.92-6.4,7.97-9.03c-0.75-0.65-1.71-0.84-2.59-1.23c-0.95-0.42-1.88-0.9-2.77-1.44c-1.79-1.06-3.46-2.33-4.97-3.76
				c-0.64-0.6-1.26-1.25-1.58-2.06c-0.86-2.15,0.7-4.16,1.9-5.79c0.11-0.15,0.23-0.31,0.41-0.36c0.1-0.03,0.21-0.01,0.32,0
				c0.35,0.06,0.7,0.15,1.03,0.28c0.12,0.44,0.05,0.6,0.38,0.92c0.08,0.5,0.11,0.71,0.51,1"/>
			<path fill="#F6D2BA" d="M31.07,16.76c-0.06,0.05-0.12,0.11-0.2,0.12c-0.07,0.01-0.14-0.03-0.2-0.07c-0.35-0.24-0.6-0.6-0.81-0.98
				c-0.37-0.69-0.82-1.65-0.71-2.45c0.06-0.47,0.37-0.63,0.56-0.99c0.1-0.21,0.13-0.51,0.23-0.73c0.11-0.25,0.22-0.5,0.33-0.75
				c0.19-0.44,0.39-0.88,0.46-1.35c0.06-0.36,0.07-0.92-0.18-1.22c-0.2-0.24-0.52-0.28-0.64-0.62c-0.49-1.39,0.08-3.31,0.72-4.56
				c0.34-0.66,0.8-1.28,1.45-1.64c0.5-0.28,1.08-0.39,1.65-0.43c1.03-0.06,2.11,0.13,2.97,0.69c1.68,1.11,1.83,2.68,1.61,4.37
				c-0.05,0.38-0.12,0.77-0.19,1.17c-0.25,1.29-0.68,4.05-2.53,3.79c-0.47-0.07-0.94-0.13-1.41-0.2c-0.45-0.06-1.13,0.72-0.55,0.75
				c0.14,0.04,0.13,0.09,0.17,0.23c0.04,0.14,0.04,0.29,0.03,0.44c-0.05,0.71-0.21,1.47-0.53,2.1c-0.27,0.54-0.87,0.69-1.23,1.13
				C31.72,15.95,31.48,16.38,31.07,16.76z"/>
			<path fill="#FFFFFF" d="M29.5,13.44c-0.11,0.67-0.22,1.35-0.32,2.02c-0.2,1.34-0.39,2.68-0.56,4.02
				c-0.17,1.34-0.33,2.68-0.49,4.03c-0.04,0.36-0.58,3.96-0.46,4.01c1.73,0.59,3.57,0.87,5.4,0.84c0.19-1.17,0.36-2.35,0.5-3.53
				c0.38-3.11,0.61-6.23,0.68-9.36c0.02-0.73,0.02-1.46-0.11-2.18c-0.05-0.26-0.15-0.76-0.35-0.95c-0.08-0.07-0.14-0.1-0.2-0.11
				c-0.31-0.02-0.38,0.64-0.59,0.79c-0.4,0.29-0.88,0.04-1.22-0.25c-0.47-0.4-0.9-1.1-1.4-1.42c-0.33-0.21-0.27-0.3-0.53,0.11
				C29.54,11.98,29.6,12.86,29.5,13.44z"/>
			<path fill="#63774E" d="M29.2,10.69c1.57-0.16,1.66,1.51,2.36,2.59c0.17,0.27,0.36,0.53,0.55,0.79c0.22,0.3,1.36,1.51,1.22,1.93
				c0.22-0.68,0.45-1.37,0.46-2.08c0.01-0.76-0.23-1.52-0.16-2.28c1.32,0.38,2.06,3.15,2.24,4.34c0.19,1.28-0.13,2.57-0.44,3.82
				c-0.71,2.85-1.42,5.71-2.07,8.56c-0.22,0.99-0.46,2-1.03,2.84c0.11,0.03,0.24-0.02,0.29-0.12c-0.06,0.2-0.13,0.4-0.19,0.61
				c-0.35-0.2-0.74-0.33-1.14-0.39c-0.68-0.1-1.38,0-2.07-0.01c-1.15-0.03-1.4-0.56-2.22-1.13c-0.83-0.57-2.25-0.71-3.21-1.08
				c0.8-2.2,1.54-4.05,1.16-6.44c-0.26-1.66-0.15-3.28-0.37-4.9c-0.24-1.72-0.15-3.5,0.21-5.2C25.16,10.82,27.7,10.84,29.2,10.69z"
				/>
			<path fill="#6F825A" d="M33.17,17.56c0-0.05,0-0.09,0-0.14c0.01-0.82,0.19-1.4,0.48-2.19c0.05-0.13,0.1-0.26,0.22-0.33
				c-0.21,1.3-0.04,2.57-0.14,3.87c-0.28,3.73-1.22,7.36-1.31,11.11c0,0.03,0,0.07-0.03,0.09C32.37,30,32.33,30,32.29,30
				c-0.17,0-0.34-0.03-0.5-0.1c-0.04-0.02-0.08-0.04-0.1-0.08c-0.02-0.03-0.02-0.07-0.01-0.11c0.05-0.76,0.28-1.54,0.39-2.3
				c0.18-1.19,0.35-2.37,0.51-3.56c0.15-1.2,0.28-2.41,0.39-3.61c0.2-1.44,0.19-2.76-0.02-4.2c-0.04-0.24-0.07-0.48-0.04-0.72
				c0.28,0.3,0.46,0.68,0.51,1.07c0.06-0.47,0.19-0.92,0.39-1.35"/>
			<path fill="#938C6C" d="M24.52,26.13c-0.11,0.22-0.17,0.48-0.31,0.68c-0.06,0.08-0.32,0.32-0.22,0.42
				c0.13,0.12,0.25,0.24,0.39,0.36c0.43,0.34,0.96,0.56,1.45,0.78c0.6,0.27,1.22,0.52,1.84,0.73c1.22,0.42,2.49,0.73,3.78,0.92
				c0.42,0.06,1.01,0.29,1.35-0.01c0.31-0.26,0.4-1.52,0.47-1.91c-0.32,0.07-0.71,0.17-1.06,0.15c-0.5-0.02-1-0.09-1.49-0.19
				c-2.05-0.4-3.74-1.22-5.43-2.27c-0.13-0.08-0.26-0.28-0.42-0.26C24.7,25.57,24.57,26.01,24.52,26.13z"/>
			<path fill="#D2B26D" d="M38.15,2.21c-0.35-0.57-0.85-1.13-1.42-1.49c-0.16-0.1-2-0.97-1.94-0.53c0.01,0.05,0.04,0.09,0.07,0.13
				c0.08,0.11,0.12,0.25,0.12,0.38C34.8,0.27,34.29,0.11,33.83,0c-0.19,1.14-1.74,0.86-2.49,1.34c-0.66,0.42-1.19,1.04-1.49,1.77
				c-0.71,1.72-0.17,3.55,0.15,5.31c0.05,0.25,0.08,0.55,0.21,0.77c0.18,0.3,0.53,0.42,0.83,0.24c0.45-0.27-0.03,0.33,0.41,0.06
				c0.08-0.05,0.14-0.12,0.2-0.18c0.32-0.37,0.64-0.77,0.99-1.11c0.3-0.28,0.33-0.4,0.07-0.77c-0.23-0.32-0.32-0.73-0.26-1.11
				c0.02-0.11,0.05-0.22,0.13-0.3c0.17-0.16,0.46-0.06,0.64,0.08c0.55,0.44,0.55,0.57,0.85-0.16c0.17-0.42,1.59-0.8,2.05-1.05
				c0.58-0.31,1.37,0,1.98-0.26C39,4.25,38.54,2.83,38.15,2.21z"/>
			<g>
				<path fill="#F6D2BA" d="M37.21,17.83c0-0.87,0.61-1.37,1.09-2.15c0.37-0.62,0.91-1.17,0.93-0.09c0-0.01,0.61-0.42,0.69-0.5
					c0.23-0.23,0.38-0.54,0.71-0.65c0.35-0.12,0.73,0,0.97,0.25c0.35,0.38,0.46,0.99,0.18,1.47c-0.45,0.77-3.38,3.92-4.32,2.6
					c-0.08-0.11-0.13-0.24-0.16-0.37C37.24,18.19,37.21,18,37.21,17.83z"/>
				<path fill="#6F825A" d="M28.83,15.66c-0.43-0.98-0.88-2.14-1.54-2.98c-0.6-0.76-1.66-1.34-2.33-0.35
					c-0.51,0.75-0.34,1.75-0.12,2.63c0.26,1.05,0.5,2.16,1,3.11c0.52,1,1.03,1.96,1.68,2.9c0.63,0.9,1.16,2.32,2.35,2.6
					c1.05,0.25,2.15-0.06,3.27-0.54c0.97-0.41,1.74-1.12,2.69-1.55c1.07-0.47,1.58-1.25,2.5-1.87c0.38-0.26,0.87-0.31,1.24-0.53
					c-0.43,0.22-2.04-2.32-2.2-2.65c-0.57,0.58-0.78,1.16-1.54,1.59c-1.19,0.67-2.51,1.18-3.74,1.75c-0.63,0.3-0.74,0.55-1.24,0.07
					c-0.27-0.26-0.44-1-0.61-1.35C29.78,17.55,29.26,16.63,28.83,15.66z"/>
			</g>
		</g>
	</g>
</g>
</svg>
