<?xml version="1.0" encoding="utf-8"?>
<!-- Generator: Adobe Illustrator 23.0.0, SVG Export Plug-In . SVG Version: 6.00 Build 0)  -->
<svg version="1.1" id="Layer_1" xmlns="http://www.w3.org/2000/svg" xmlns:xlink="http://www.w3.org/1999/xlink" x="0px" y="0px"
	 viewBox="0 0 67.67 49.1" enable-background="new 0 0 67.67 49.1" xml:space="preserve">
<g>
	<g>
		<g>
			<path fill="#D1D3D4" d="M15.6,43.25L3.36,31c-0.9-0.9-0.95-2.28-0.11-3.02L26.83,7.26c0.78-0.68,2.03-0.56,2.87,0.27l9.38,9.38
				c0.83,0.83,0.95,2.09,0.27,2.87L18.63,43.36C17.89,44.2,16.51,44.15,15.6,43.25z"/>
			
				<ellipse transform="matrix(0.7071 -0.7071 0.7071 0.7071 -22.9679 17.786)" fill="#D1D3D4" cx="9.99" cy="36.62" rx="2.6" ry="10.04"/>
		</g>
		<g>
			<defs>
				<path id="SVGID_762_" d="M18.63,43.36l20.72-23.58c0.68-0.78,0.56-2.03-0.27-2.87l-9.38-9.38c-0.83-0.83-2.09-0.95-2.87-0.27
					L3.24,27.97c-0.53,0.46-0.7,1.18-0.54,1.87c-0.41,1.37,1.86,5.02,5.44,8.61c3.59,3.59,7.23,5.86,8.61,5.44
					C17.45,44.06,18.17,43.89,18.63,43.36z"/>
			</defs>
			<clipPath id="SVGID_2_">
				<use xlink:href="#SVGID_762_"  overflow="visible"/>
			</clipPath>
			<polygon clip-path="url(#SVGID_2_)" fill="#F1F2F2" points="20.21,13.07 2.29,28.92 0,39.56 16.19,49.1 23.42,41.58 33.54,26.39 
							"/>
		</g>
		<polygon fill="#FFFFFF" points="20.21,13.07 21.25,17.73 28.55,25.03 33.54,26.39 31.66,21.78 24.5,14.62 		"/>
		<path fill="#FFFFFF" d="M29.34,10.11L4.12,33.62l3.33,4.11C7.45,37.74,8.79,31.18,29.34,10.11z"/>
		<path fill="#FFFFFF" d="M36.13,16.9l-3.1,3.37l-1.94,2.11L12.77,42.34l2.02,1.16C14.79,43.5,27.95,24.89,36.13,16.9z"/>
		<g>
			<g>
				<path fill="#808285" d="M39.21,18.49l-11.1-11.1c-0.86-0.86-0.86-2.25,0-3.11l3.19-3.19c0.86-0.86,2.25-0.86,3.11,0l11.1,11.1
					c0.86,0.86,0.86,2.25,0,3.11l-3.19,3.19C41.46,19.35,40.07,19.35,39.21,18.49z"/>
				
					<ellipse transform="matrix(0.7071 -0.7071 0.7071 0.7071 1.5748 27.9519)" fill="#808285" cx="34.53" cy="12.07" rx="2.68" ry="9.64"/>
			</g>
			
				<ellipse transform="matrix(0.7071 -0.7071 0.7071 0.7071 6.5766 30.0237)" fill="#A7A9AC" cx="39.53" cy="7.07" rx="2.68" ry="9.64"/>
		</g>
		<path fill="#BCBEC0" d="M39.51,10.71L37.59,1.9c0,0,3.34,2.33,4.34,3.79l-0.46,6.56C41.47,12.25,40.73,11.99,39.51,10.71z"/>
		<g>
			
				<ellipse transform="matrix(0.7071 -0.7071 0.7071 0.7071 4.9107 32.1462)" fill="#D1D3D4" cx="41.26" cy="10.15" rx="0.19" ry="0.58"/>
			
				<ellipse transform="matrix(0.7071 -0.7071 0.7071 0.7071 6.2679 30.7044)" fill="#D1D3D4" cx="40.2" cy="7.79" rx="0.19" ry="0.58"/>
			
				<ellipse transform="matrix(0.7071 -0.7071 0.7071 0.7071 5.8276 28.796)" fill="#D1D3D4" cx="37.67" cy="7.36" rx="0.19" ry="0.58"/>
			
				<ellipse transform="matrix(0.7071 -0.7071 0.7071 0.7071 7.1566 28.0763)" fill="#D1D3D4" cx="37.47" cy="5.4" rx="0.19" ry="0.58"/>
			
				<ellipse transform="matrix(0.7071 -0.7071 0.7071 0.7071 7.1647 26.3297)" fill="#D1D3D4" cx="35.37" cy="4.52" rx="0.19" ry="0.58"/>
			
				<ellipse transform="matrix(0.7071 -0.7071 0.7071 0.7071 8.6177 25.2983)" fill="#D1D3D4" cx="34.85" cy="2.25" rx="0.19" ry="0.58"/>
			
				<ellipse transform="matrix(0.7071 -0.7071 0.7071 0.7071 8.7771 26.9976)" fill="#D1D3D4" cx="36.98" cy="2.9" rx="0.19" ry="0.58"/>
			
				<ellipse transform="matrix(0.7071 -0.7071 0.7071 0.7071 8.144 29.2756)" fill="#D1D3D4" cx="39.41" cy="4.81" rx="0.19" ry="0.58"/>
			
				<ellipse transform="matrix(0.7071 -0.7071 0.7071 0.7071 7.1161 31.757)" fill="#D1D3D4" cx="41.89" cy="7.29" rx="0.19" ry="0.58"/>
			
				<ellipse transform="matrix(0.7071 -0.7071 0.7071 0.7071 5.8191 33.0023)" fill="#D1D3D4" cx="42.75" cy="9.48" rx="0.19" ry="0.58"/>
			
				<ellipse transform="matrix(0.7071 -0.7071 0.7071 0.7071 5.2302 35.1857)" fill="#D1D3D4" cx="45.09" cy="11.28" rx="0.19" ry="0.58"/>
			
				<ellipse transform="matrix(0.7071 -0.7071 0.7071 0.7071 4.185 34.2729)" fill="#D1D3D4" cx="43.46" cy="12.08" rx="0.19" ry="0.58"/>
		</g>
		<g>
			
				<ellipse transform="matrix(0.7071 -0.7071 0.7071 0.7071 5.015 32.115)" fill="#6D6E71" cx="41.27" cy="10" rx="0.19" ry="0.58"/>
			
				<ellipse transform="matrix(0.7071 -0.7071 0.7071 0.7071 6.3723 30.6732)" fill="#6D6E71" cx="40.21" cy="7.64" rx="0.19" ry="0.58"/>
			
				<ellipse transform="matrix(0.7071 -0.7071 0.7071 0.7071 5.932 28.7648)" fill="#6D6E71" cx="37.69" cy="7.22" rx="0.19" ry="0.58"/>
			
				<ellipse transform="matrix(0.7071 -0.7071 0.7071 0.7071 7.2609 28.0451)" fill="#6D6E71" cx="37.48" cy="5.26" rx="0.19" ry="0.58"/>
			
				<ellipse transform="matrix(0.7071 -0.7071 0.7071 0.7071 7.2691 26.2985)" fill="#6D6E71" cx="35.38" cy="4.37" rx="0.19" ry="0.58"/>
			
				<ellipse transform="matrix(0.7071 -0.7071 0.7071 0.7071 8.7221 25.2671)" fill="#6D6E71" cx="34.86" cy="2.11" rx="0.19" ry="0.58"/>
			
				<ellipse transform="matrix(0.7071 -0.7071 0.7071 0.7071 8.8814 26.9664)" fill="#6D6E71" cx="36.99" cy="2.76" rx="0.19" ry="0.58"/>
			
				<ellipse transform="matrix(0.7071 -0.7071 0.7071 0.7071 8.2483 29.2444)" fill="#6D6E71" cx="39.43" cy="4.67" rx="0.19" ry="0.58"/>
			
				<ellipse transform="matrix(0.7071 -0.7071 0.7071 0.7071 7.2205 31.7259)" fill="#6D6E71" cx="41.91" cy="7.15" rx="0.19" ry="0.58"/>
			
				<ellipse transform="matrix(0.7071 -0.7071 0.7071 0.7071 5.9235 32.9711)" fill="#6D6E71" cx="42.76" cy="9.34" rx="0.19" ry="0.58"/>
			
				<ellipse transform="matrix(0.7071 -0.7071 0.7071 0.7071 5.3346 35.1546)" fill="#6D6E71" cx="45.1" cy="11.14" rx="0.19" ry="0.58"/>
			
				<ellipse transform="matrix(0.7071 -0.7071 0.7071 0.7071 4.2893 34.2418)" fill="#6D6E71" cx="43.48" cy="11.94" rx="0.19" ry="0.58"/>
		</g>
		<path fill="#939598" d="M39.51,10.71l1.96,1.54l-4.4,5.41c-1.29-0.68-2.56-1.95-2.56-1.95L39.51,10.71z"/>
	</g>
	<g>
		<g>
			<g>
				<g>
					<g opacity="0.85">
						<g>
							<path fill="#FFFFFF" d="M41.84,12.5c-0.03-0.02-0.04,0.03-0.07,0.05l-0.08-0.15c-0.03,0.07,0.14,0.03,0.18-0.13
								C41.8,12.32,41.85,12.43,41.84,12.5z"/>
							<path fill="#FFFFFF" d="M51.35,11.69L51.35,11.69l-0.1,0.04C51.24,11.72,51.32,11.69,51.35,11.69z"/>
							<path fill="#FFFFFF" d="M51.3,11.75c0.1,0,0,0-0.03,0L51.2,11.8l0.12,0.02l0.04-0.03l-0.04,0.03
								c0.04,0.02,0.1-0.03,0.15-0.04c0.04-0.06-0.05-0.06-0.13-0.05l0.03-0.02c0.12-0.01,0.1,0.06,0.12,0.19
								c-0.03,0.05-0.1,0.08-0.15,0.11c-0.2-0.06-0.17-0.18-0.09-0.25L51.3,11.75z"/>
							<polygon opacity="0.3" fill="#FFFFFF" points="51.2,11.88 51.22,11.85 51.3,11.86 							"/>
							<path fill="#FFFFFF" d="M42.41,18.35c0.03,0.22-0.15,0.29-0.31,0.27c-0.07-0.11-0.21-0.14-0.28-0.25
								c0.03-0.01,0.24-0.09,0.1-0.22c-0.01,0.16-0.18-0.01-0.25-0.11l0.12,0.07c0.06-0.12-0.05-0.19-0.03-0.33l0.12,0.07l0.04-0.18
								C42.08,17.89,42.33,18.03,42.41,18.35z"/>
							<path fill="#FFFFFF" d="M49.4,14.93c0.13,0.22,0.36,0.35,0.17,0.62c-0.14,0.1-0.31-0.03-0.4-0.11l-0.14-0.31l0.04,0.01
								l0.08-0.18l0.04,0.01l0.03-0.12C49.26,14.94,49.39,15.01,49.4,14.93z"/>
							<path opacity="0.3" fill="#FFFFFF" d="M49.48,15.26c0.04-0.06-0.04-0.12-0.04-0.17c0.05,0.01,0.09,0.05,0.12,0.08
								c-0.01,0.13-0.18,0.11-0.24,0.16c-0.12-0.04-0.09-0.24-0.17-0.26C49.29,15.24,49.39,15.01,49.48,15.26z"/>
							<path opacity="0.3" fill="#FFFFFF" d="M49.38,15.31c-0.02-0.02-0.05-0.04-0.07-0.01l-0.04,0.02l-0.03-0.06l0.04-0.02
								l0.02,0.04l0.07-0.11L49.38,15.31z"/>
							<path fill="#FFFFFF" d="M42.82,19.41c0,0.07-0.1,0.07-0.15,0.11c-0.17-0.04-0.22-0.22-0.3-0.38c0.1,0.06,0.06,0.15,0.2,0.18
								l0.1-0.14c-0.08-0.02-0.16-0.09-0.13-0.16C42.68,19.11,42.83,19.23,42.82,19.41z"/>
							<path fill="#FFFFFF" d="M51.02,15.65l-0.07,0.1l-0.17-0.1c0.03,0.02,0.05,0.04,0.07,0.01l0.02-0.06l-0.19-0.05
								c0.06-0.06-0.02-0.1-0.02-0.14l0.04,0.09l0.05-0.03l-0.01,0.05l0.17,0l-0.15-0.3C50.86,15.36,51.02,15.46,51.02,15.65z"/>
							<path fill="#FFFFFF" d="M52.15,32.83c0.23-0.1-0.08-0.23-0.07-0.35c0.11,0.01,0.09,0.24,0.26,0.18
								c0.01-0.1-0.04-0.27-0.18-0.32l-0.02-0.02c0.22,0.04,0.38,0.46,0.67,0.33c-0.05-0.06-0.02-0.2,0.08-0.18
								c0.19,0.19,0.43,0.11,0.63,0.27l-0.02-0.13c0.18,0.11,0.33,0.34,0.5,0.51c0.07-0.3,0.3,0.27,0.43,0.08
								c-0.03,0.21,0.03,0.41,0.18,0.4c0.08,0.3,0.13,0.74-0.11,0.97c-0.05,0.2-0.18,0.11-0.37,0.25l0-0.07
								c-0.06,0.04-0.2,0.01-0.18,0.13c-0.11-0.07-0.24-0.12-0.36-0.08c-0.11,0.1-0.32,0.1-0.38-0.02c-0.06-0.01-0.08,0.03-0.1,0.05
								c-0.06-0.06-0.11-0.1-0.19-0.09c-0.31-0.16-0.57-0.43-0.99-0.49l0.12,0.04l0.04-0.13l-0.38-0.03
								c0.12-0.07,0.36,0.01,0.39-0.15c-0.01-0.15-0.17-0.16-0.25-0.23l0.13,0.03c0.01-0.17-0.28-0.17-0.3-0.37
								c0.29,0,0.27-0.19,0.23-0.4l-0.26-0.29C51.77,32.84,51.99,32.93,52.15,32.83z"/>
							<path fill="#FFFFFF" d="M50.71,17.6c-0.03-0.03-0.07-0.01-0.11,0.01c-0.07,0.1,0,0.17,0.02,0.26l0.11-0.01
								c0.06-0.11-0.11-0.08-0.01-0.19c0.18-0.01,0.11,0.21,0.17,0.32c-0.14,0.17-0.27-0.03-0.31-0.14
								c-0.12-0.11-0.02-0.24-0.04-0.37C50.56,17.52,50.71,17.51,50.71,17.6z"/>
							<path fill="#FFFFFF" d="M51.32,19.88c0.02,0.19-0.08,0.43-0.2,0.43c-0.06,0.07-0.15,0.02-0.19,0.03
								c0.06,0.17,0.02,0.42-0.23,0.42c-0.51-0.34-0.38-0.99-0.38-1.31l0.14,0.04l-0.01-0.16C50.86,19.39,51.16,19.54,51.32,19.88z"
								/>
							<path fill="#FFFFFF" d="M49.17,21.05l-0.04-0.06c0.08,0.08,0.2,0.07,0.31,0.11c0.02-0.06,0.04-0.11-0.01-0.17l-0.04-0.01
								c0.07,0,0.13,0.22,0.25,0.06l0-0.05c0.12,0.31,0.41,0.2,0.53,0.48c0.37,0.05,0.24,0.48,0.36,0.65
								c-0.11,0.05-0.08,0.19-0.12,0.29l-0.52,0.33c-0.11-0.07-0.25-0.06-0.42-0.08c0.02,0.2-0.02,0.46-0.14,0.6
								c-0.22,0.3-0.45-0.01-0.7,0.04c0-0.18-0.18-0.29-0.31-0.37l-0.09-0.03c0.3-0.02-0.01-0.36-0.04-0.53l-0.06-0.09
								c0.08,0.02,0.13,0.13,0.22,0.08l-0.13-0.22c0.04,0.03,0.07,0.09,0.14,0.09l0.05-0.12c0.02,0.06,0.08,0.04,0.12,0.05
								c0.05-0.01,0.04-0.08,0.05-0.12l0.13,0.07c0.03-0.12-0.01-0.22,0.14-0.26l-0.13-0.34l0.12,0.05
								c0.03-0.07,0.02-0.14-0.03-0.19l-0.04-0.01l0.13,0.01l-0.1-0.24C48.91,21.03,49.12,21.3,49.17,21.05z"/>
							<path fill="#FFFFFF" d="M44.15,24.34l0.02-0.11c0.22,0.14,0.64,0.12,0.85,0.51c0.15,0.22,0.13,0.41,0.17,0.69
								c-0.25,0.31-0.51,0.26-0.87,0.17c-0.04-0.21-0.41-0.42-0.51-0.63l-0.06-0.02l0.15,0.05l-0.15-0.55
								C43.88,24.45,44.01,24.34,44.15,24.34z"/>
							<polygon opacity="0.3" fill="#FFFFFF" points="48.75,21.92 48.78,21.91 48.83,22 48.81,22.01 							"/>
							<path fill="#FFFFFF" d="M50.67,23.15c-0.02,0.02-0.07,0.01-0.09,0c0.07,0,0.13-0.16,0.02-0.17
								C50.66,23,50.76,23.1,50.67,23.15z"/>
							<path fill="#FFFFFF" d="M51.26,24.31l0.02-0.05c-0.02-0.04,0.16,0.11,0.21-0.01c0.41,0.18-0.11,0.72,0.45,0.78
								c-0.05,0.29,0.23,0.5,0,0.75c-0.2,0.16-0.45,0.04-0.63-0.08l-0.26-0.23c0.06-0.02,0.04-0.1,0-0.13l-0.09-0.12
								c0.23-0.03-0.06-0.22,0.01-0.36L51,24.89c0.17-0.15-0.07-0.28,0.03-0.46L51,24.3C51.08,24.23,51.17,24.31,51.26,24.31z"/>
							<path fill="#FFFFFF" d="M52.01,28.84c-0.03-0.11,0.15,0.12,0.14-0.07c0.11,0.13,0.23,0,0.33,0.07l0-0.04
								c0.08,0.27,0.42-0.08,0.51,0.38c0.28,0.01,0.07,0.36,0.23,0.45c-0.06,0.35-0.15,0.45-0.46,0.57
								c-0.28,0.03-0.13-0.04-0.46-0.04l-0.16-0.03c0.14-0.21-0.33,0-0.21-0.25c-0.09-0.09-0.21-0.09-0.28-0.22
								c0.05,0.02,0.09-0.01,0.11-0.03c0.01-0.11-0.09-0.17-0.13-0.24l0.1-0.04l-0.06-0.19c0.04,0.03,0.08,0,0.11-0.03l-0.05-0.12
								C51.82,28.84,52.02,29.12,52.01,28.84z"/>
							<polygon opacity="0.3" fill="#FFFFFF" points="52.3,29.61 52.11,29.42 52.23,29.52 							"/>
						</g>
					</g>
				</g>
			</g>
		</g>
	</g>
	<g>
		<g>
			<g>
				<g>
					<g opacity="0.85">
						<g>
							<path fill="#FFFFFF" d="M67.52,42.08c0.03,0.02,0.04-0.03,0.06-0.05l0.09,0.13c0.02-0.06-0.12-0.02-0.14,0.12
								C67.57,42.23,67.52,42.14,67.52,42.08z"/>
							<path fill="#FFFFFF" d="M59.14,43.11L59.14,43.11l0.08-0.04C59.24,43.08,59.17,43.12,59.14,43.11z"/>
							<path fill="#FFFFFF" d="M59.18,43.03c-0.08,0,0,0,0.03,0l0.06-0.04l-0.1-0.01l-0.03,0.02l0.03-0.02
								c-0.03-0.01-0.09,0.03-0.13,0.04c-0.04,0.05,0.04,0.04,0.12,0.05l-0.02,0.02c-0.11,0-0.09-0.06-0.1-0.14
								c0.03-0.03,0.09-0.07,0.14-0.09c0.16,0.01,0.13,0.11,0.07,0.19L59.18,43.03z"/>
							<polygon opacity="0.3" fill="#FFFFFF" points="59.27,42.93 59.25,42.95 59.18,42.95 							"/>
							<path fill="#FFFFFF" d="M66.58,36.8c-0.05-0.19,0.1-0.27,0.24-0.27c0.07,0.09,0.2,0.1,0.28,0.2c-0.02,0.01-0.2,0.1-0.06,0.21
								c-0.01-0.15,0.16-0.01,0.23,0.08l-0.11-0.06c-0.04,0.12,0.07,0.18,0.07,0.31l-0.11-0.06l-0.01,0.17
								C66.93,37.2,66.69,37.08,66.58,36.8z"/>
							<path fill="#FFFFFF" d="M60.82,40.49c-0.13-0.17-0.34-0.26-0.21-0.52c0.11-0.1,0.28-0.01,0.36,0.06l0.15,0.25l-0.03-0.01
								l-0.06,0.16L61,40.43l-0.01,0.1C60.94,40.46,60.82,40.42,60.82,40.49z"/>
							<path opacity="0.3" fill="#FFFFFF" d="M60.72,40.22c-0.03,0.06,0.05,0.1,0.05,0.14c-0.05,0-0.08-0.04-0.11-0.06
								c-0.01-0.11,0.15-0.12,0.2-0.16c0.11,0.02,0.1,0.19,0.17,0.21C60.89,40.22,60.82,40.42,60.72,40.22z"/>
							<path opacity="0.3" fill="#FFFFFF" d="M60.81,40.16c0.02,0.01,0.05,0.03,0.06,0l0.03-0.02l0.03,0.05l-0.03,0.02l-0.02-0.03
								l-0.05,0.1L60.81,40.16z"/>
							<path fill="#FFFFFF" d="M66.12,35.93c-0.01-0.06,0.08-0.07,0.12-0.11c0.15,0.02,0.21,0.15,0.29,0.28
								c-0.09-0.04-0.06-0.12-0.19-0.13l-0.08,0.13c0.07,0.01,0.14,0.06,0.12,0.12C66.27,36.17,66.13,36.09,66.12,35.93z"/>
							<path fill="#FFFFFF" d="M59.32,40l0.05-0.1L59.54,40c-0.03-0.02-0.05-0.03-0.07-0.01l-0.01,0.06l0.17,0.03
								c-0.04,0.06,0.03,0.09,0.04,0.13l-0.05-0.08l-0.04,0.03l0-0.05l-0.15,0.01l0.16,0.26C59.5,40.26,59.34,40.18,59.32,40z"/>
							<path fill="#FFFFFF" d="M60.25,24.84c-0.22,0.02-0.01,0.19-0.06,0.28c-0.08-0.03,0.01-0.2-0.15-0.2
								c-0.04,0.07-0.06,0.21,0.04,0.28l0.01,0.02c-0.16-0.09-0.15-0.44-0.43-0.41c0.02,0.06-0.05,0.15-0.13,0.11
								c-0.09-0.19-0.3-0.2-0.41-0.37l-0.03,0.11c-0.11-0.14-0.14-0.35-0.22-0.53c-0.16,0.21-0.13-0.29-0.31-0.19
								c0.1-0.15,0.13-0.31,0.02-0.36c0.05-0.25,0.19-0.59,0.46-0.68c0.12-0.14,0.19-0.02,0.38-0.07l-0.02,0.05
								c0.07-0.01,0.16,0.05,0.2-0.04c0.06,0.08,0.14,0.16,0.25,0.16c0.13-0.04,0.29,0.02,0.28,0.12c0.04,0.03,0.07,0,0.1-0.01
								c0.02,0.06,0.05,0.1,0.11,0.12c0.17,0.2,0.28,0.46,0.59,0.61l-0.08-0.06l-0.08,0.08L61.04,24c-0.12,0.02-0.27-0.09-0.36,0.02
								c-0.04,0.11,0.07,0.16,0.11,0.23l-0.09-0.06c-0.07,0.12,0.16,0.19,0.1,0.34c-0.23-0.07-0.28,0.08-0.32,0.24l0.11,0.28
								C60.55,24.92,60.41,24.81,60.25,24.84z"/>
							<path fill="#FFFFFF" d="M59.36,38.12c0.03,0.03,0.07,0.01,0.1-0.01c0.05-0.09-0.02-0.16-0.04-0.25l-0.1,0.01
								c-0.04,0.11,0.11,0.08,0.03,0.18c-0.16,0.01-0.12-0.2-0.18-0.31c0.12-0.16,0.25,0.03,0.29,0.13c0.12,0.1,0.04,0.23,0.07,0.35
								C59.5,38.2,59.37,38.21,59.36,38.12z"/>
							<path fill="#FFFFFF" d="M58.69,35.95c-0.02-0.18,0.07-0.4,0.17-0.39c0.06-0.06,0.13-0.01,0.17-0.02
								c-0.06-0.16-0.02-0.39,0.2-0.37c0.46,0.33,0.34,0.92,0.35,1.22l-0.13-0.04l0.01,0.15C59.11,36.44,58.84,36.28,58.69,35.95z"
								/>
							<path fill="#FFFFFF" d="M60.61,34.97l0.03,0.06c-0.07-0.07-0.17-0.07-0.27-0.11c-0.02,0.05-0.04,0.1,0.01,0.15l0.04,0.01
								c-0.06,0-0.11-0.2-0.22-0.06l0,0.05c-0.11-0.27-0.37-0.19-0.46-0.45c-0.32-0.07-0.19-0.44-0.29-0.6
								c0.1-0.04,0.08-0.16,0.12-0.25l0.48-0.25c0.1,0.07,0.21,0.07,0.36,0.09c-0.01-0.18,0.05-0.4,0.16-0.52
								c0.22-0.24,0.39,0.03,0.61,0c-0.01,0.15,0.14,0.25,0.25,0.32l0.08,0.03c-0.26,0.01-0.02,0.3,0.01,0.45l0.04,0.08
								c-0.07-0.02-0.11-0.12-0.19-0.07l0.11,0.19c-0.03-0.03-0.06-0.07-0.12-0.08l-0.05,0.1c-0.01-0.05-0.07-0.04-0.1-0.05
								c-0.04,0.01-0.04,0.07-0.05,0.1l-0.11-0.06c-0.03,0.11,0,0.19-0.13,0.22l0.11,0.3l-0.1-0.05c-0.03,0.06-0.02,0.12,0.02,0.17
								l0.04,0.01l-0.11-0.01l0.09,0.21C60.83,34.99,60.65,34.75,60.61,34.97z"/>
							<path fill="#FFFFFF" d="M65.1,32.2l-0.03,0.09c-0.18-0.1-0.54-0.07-0.67-0.37c-0.11-0.17-0.06-0.31-0.08-0.53
								c0.25-0.24,0.46-0.2,0.75-0.14c0.01,0.16,0.3,0.31,0.36,0.47l0.05,0.01l-0.12-0.03l0.08,0.41
								C65.33,32.1,65.21,32.19,65.1,32.2z"/>
							<polygon opacity="0.3" fill="#FFFFFF" points="60.99,34.21 60.96,34.23 60.92,34.15 60.94,34.13 							"/>
							<path fill="#FFFFFF" d="M59.38,33.02c0.02-0.01,0.06,0,0.08,0c-0.07-0.01-0.13,0.13-0.03,0.15
								C59.38,33.16,59.3,33.06,59.38,33.02z"/>
							<path fill="#FFFFFF" d="M58.99,31.94l-0.02,0.04c0.02,0.04-0.13-0.11-0.18-0.01c-0.34-0.22,0.19-0.61-0.29-0.75
								c0.09-0.25-0.12-0.47,0.12-0.66c0.2-0.11,0.39,0.03,0.53,0.17l0.18,0.23c-0.05,0.01-0.05,0.08-0.02,0.11l0.06,0.12
								c-0.21,0,0.02,0.19-0.06,0.31l-0.02-0.04c-0.17,0.11,0.02,0.25-0.09,0.4l0.01,0.11C59.14,32.03,59.06,31.95,58.99,31.94z"/>
							<path fill="#FFFFFF" d="M59.19,27.98c0,0.1-0.1-0.13-0.13,0.03c-0.06-0.13-0.19-0.04-0.26-0.13l-0.01,0.03
								c0-0.24-0.37-0.03-0.32-0.43c-0.23-0.07,0.04-0.31-0.07-0.42c0.15-0.27,0.25-0.33,0.54-0.35c0.24,0.04,0.09,0.06,0.37,0.14
								l0.13,0.06c-0.17,0.14,0.27,0.07,0.1,0.25c0.05,0.09,0.15,0.12,0.17,0.23c-0.04-0.02-0.08-0.01-0.1,0
								c-0.04,0.08,0.03,0.15,0.05,0.22l-0.1,0.01l0,0.17c-0.03-0.03-0.06-0.01-0.1,0l0.02,0.1C59.35,28.02,59.25,27.76,59.19,27.98
								z"/>
							<polygon opacity="0.3" fill="#FFFFFF" points="59.14,27.3 59.25,27.49 59.18,27.38 							"/>
						</g>
					</g>
				</g>
			</g>
		</g>
	</g>
</g>
</svg>
