<?xml version="1.0" encoding="utf-8"?>
<!-- Generator: Adobe Illustrator 23.0.0, SVG Export Plug-In . SVG Version: 6.00 Build 0)  -->
<svg version="1.1" id="Layer_1" xmlns="http://www.w3.org/2000/svg" xmlns:xlink="http://www.w3.org/1999/xlink" x="0px" y="0px"
	 viewBox="0 0 66.44 10.67" enable-background="new 0 0 66.44 10.67" xml:space="preserve">
<g>
	<ellipse fill="#FFFFFF" cx="3.45" cy="5.43" rx="3.45" ry="5.24"/>
	<path fill="#E6E7E8" d="M13.35,2.37l-10.8,0c0,0-1.07,0.71-1.07,3.05c0,1.81,1.07,2.85,1.07,2.85l10.8,0
		C15.08,6.54,15.07,3.91,13.35,2.37z"/>
	<ellipse fill="#FFFFFF" cx="12.7" cy="5.43" rx="3.45" ry="5.24"/>
	<path fill="#F26522" d="M45.6,1.26l-32.8,0c0,0-1.92,1.32-1.92,4.06c0,2.95,1.92,4.07,1.92,4.07l32.8,0L45.6,1.26z"/>
	<ellipse fill="#FFFFFF" cx="45.6" cy="5.43" rx="2.77" ry="5.24"/>
	<path fill="#E6E7E8" d="M45.92,9.39c0,0,3.18-0.24,5.16-4.03c-1.98-3.66-5.16-3.58-5.16-3.58S42.54,5.37,45.92,9.39z"/>
	<g>
		<polygon fill="#FFFFFF" points="50.42,5.05 64.45,5.36 50.42,5.68 		"/>
	</g>
	<g>
		<defs>
			<path id="SVGID_744_" d="M45.6,1.26l-32.8,0c0,0-1.92,1.32-1.92,4.06c0,2.95,1.92,4.07,1.92,4.07l32.8,0L45.6,1.26z"/>
		</defs>
		<clipPath id="SVGID_2_">
			<use xlink:href="#SVGID_744_"  overflow="visible"/>
		</clipPath>
		<g clip-path="url(#SVGID_2_)">
			<path fill="none" stroke="#EEDDC4" stroke-width="0.63" stroke-miterlimit="10" d="M36.46,0.32c-0.11-0.01-1.92,2.27-1.46,4.4"/>
			<path fill="none" stroke="#EEDDC4" stroke-width="0.63" stroke-miterlimit="10" d="M32.68,0.47c-0.11-0.01-2.08,2.14-1.61,4.27"
				/>
			<path fill="none" stroke="#EEDDC4" stroke-width="0.63" stroke-miterlimit="10" d="M28.87,0.49c-0.11-0.01-2.11,1.95-1.65,4.08"
				/>
			<path fill="none" stroke="#EEDDC4" stroke-width="0.63" stroke-miterlimit="10" d="M25.24,0.46c-0.11-0.01-2.33,1.84-1.86,3.97"
				/>
			<path fill="none" stroke="#EEDDC4" stroke-width="0.63" stroke-miterlimit="10" d="M21.61,0.41C21.5,0.4,19.63,2.1,20.09,4.23"/>
			<path fill="none" stroke="#EEDDC4" stroke-width="0.63" stroke-miterlimit="10" d="M34.24,0.74c0,0-1.08,1.09-1.01,2.63"/>
			<path fill="none" stroke="#EEDDC4" stroke-width="0.63" stroke-miterlimit="10" d="M30.29,0.72c0,0-1.08,1.09-1.01,2.63"/>
			<path fill="none" stroke="#EEDDC4" stroke-width="0.63" stroke-miterlimit="10" d="M26.82,0.3c0,0-1.56,1.28-1.49,2.81"/>
			<path fill="none" stroke="#EEDDC4" stroke-width="0.63" stroke-miterlimit="10" d="M23.17,0.35c0,0-1.35,1.11-1.27,2.65"/>
		</g>
	</g>
	<path fill="#F26522" d="M64.2,5.51c0.72,0.15,1.38,0.57,1.82,1.16c0.29,0.38,0.49,0.87,0.4,1.34c-0.09,0.47-0.56,0.88-1.03,0.79
		c-0.38-0.08-0.65-0.44-0.76-0.82c-0.11-0.37-0.11-0.77-0.17-1.16c-0.11-0.64-0.42-1.25-0.88-1.71"/>
</g>
</svg>
