<?xml version="1.0" encoding="utf-8"?>
<!-- Generator: Adobe Illustrator 23.0.0, SVG Export Plug-In . SVG Version: 6.00 Build 0)  -->
<svg version="1.1" id="Layer_1" xmlns="http://www.w3.org/2000/svg" xmlns:xlink="http://www.w3.org/1999/xlink" x="0px" y="0px"
	 viewBox="0 0 87.75 37.51" enable-background="new 0 0 87.75 37.51" xml:space="preserve">
<g>
	<g>
		
			<rect x="0.5" y="0.38" fill="#EE978F" stroke="#EE978F" stroke-width="0.75" stroke-miterlimit="10" width="86.75" height="3.13"/>
		<rect x="0.13" y="3.94" fill="#EDC7C3" width="87.5" height="20.69"/>
		<rect x="0.13" y="0.75" fill="#EE978F" width="2.05" height="2.38"/>
		<rect x="85.58" y="0.75" fill="#EE978F" width="2.05" height="2.38"/>
		<path fill="#EE978F" stroke="#EE978F" stroke-miterlimit="10" d="M0.5,28.12c0,0,8.41,0,8.88,0c2.55,0,4.74,0.08,7.19,0.69
			c2.84,0.71,5.17,2.05,7.71,3.46c8.19,4.56,18.24,6.22,27.11,3.21c2.18-0.74,4.25-1.74,6.32-2.73c2.24-1.08,4.47-2.15,6.71-3.23
			c4.84-2.33,9.97-1.41,15.24-1.41c2.53,0,5.06,0,7.59,0V25c-1.75,0-3.49,0-5.24,0c-2,0-3.99,0-5.99,0c-1.96,0-3.46-0.12-5.32-0.64
			c-3.45-0.97-6.38-3.26-8.74-5.88c-1.18-1.31-2.36-2.63-3.63-3.86c-2.48-2.41-5.35-4.53-8.79-5.29c-3.03-0.67-6.14-0.63-9.07,0.48
			c-2.49,0.94-4.71,2.5-6.83,4.08c-3.8,2.83-7.52,5.82-11.66,8.14c-2.23,1.25-4.47,2.22-6.94,2.83C13.6,25.22,0.5,24.97,0.5,24.97
			V28.12z"/>
		<rect x="0.13" y="25.38" fill="#EE978F" width="2.05" height="2.38"/>
		<rect x="85.58" y="25.38" fill="#EE978F" width="2.05" height="2.38"/>
	</g>
	<g>
		
			<ellipse transform="matrix(0.2078 -0.9782 0.9782 0.2078 -0.906 24.2175)" fill="#AF2027" cx="14.5" cy="12.67" rx="1.81" ry="2.31"/>
		<path fill="#8E1B26" d="M13.7,12.42c-0.2-0.02-0.38-0.07-0.55-0.13c0.03,0.4,0.57,0.78,1.28,0.86c0.76,0.09,1.43-0.19,1.48-0.62
			c0.04-0.3-0.22-0.59-0.63-0.77C15.17,12.21,14.49,12.51,13.7,12.42z"/>
	</g>
	<g>
		
			<ellipse transform="matrix(0.2078 -0.9782 0.9782 0.2078 6.6625 37.2373)" fill="#AF2027" cx="26.32" cy="14.51" rx="1.81" ry="2.31"/>
		<path fill="#8E1B26" d="M25.53,14.25c-0.2-0.02-0.38-0.07-0.55-0.13c0.03,0.4,0.57,0.78,1.28,0.86c0.76,0.09,1.43-0.19,1.48-0.62
			c0.04-0.3-0.22-0.59-0.63-0.77C26.99,14.05,26.31,14.35,25.53,14.25z"/>
	</g>
	<g>
		
			<ellipse transform="matrix(0.2078 -0.9782 0.9782 0.2078 -13.5507 25.9723)" fill="#AF2027" cx="9.26" cy="21.35" rx="1.81" ry="2.31"/>
		<path fill="#8E1B26" d="M8.46,21.1c-0.2-0.02-0.38-0.07-0.55-0.13c0.03,0.4,0.57,0.78,1.28,0.86c0.76,0.09,1.43-0.19,1.48-0.62
			c0.04-0.3-0.22-0.59-0.63-0.77C9.93,20.9,9.25,21.19,8.46,21.1z"/>
	</g>
	<g>
		
			<ellipse transform="matrix(0.2078 -0.9782 0.9782 0.2078 7.7779 24.9515)" fill="#AF2027" cx="19.29" cy="7.67" rx="1.81" ry="2.31"/>
		<path fill="#8E1B26" d="M18.5,7.42c-0.2-0.02-0.38-0.07-0.55-0.13c0.03,0.4,0.57,0.78,1.28,0.86c0.76,0.09,1.43-0.19,1.48-0.62
			c0.04-0.3-0.22-0.59-0.63-0.77C19.96,7.22,19.28,7.52,18.5,7.42z"/>
	</g>
	<g>
		
			<ellipse transform="matrix(0.9758 -0.2186 0.2186 0.9758 -1.283 7.5334)" fill="#AF2027" cx="33.41" cy="9.57" rx="2.31" ry="1.81"/>
		<path fill="#8E1B26" d="M32.58,9.67c-0.19,0.06-0.38,0.09-0.56,0.11c0.2,0.35,0.84,0.47,1.53,0.25c0.73-0.23,1.22-0.76,1.09-1.18
			c-0.09-0.28-0.45-0.44-0.9-0.44C33.83,8.87,33.33,9.43,32.58,9.67z"/>
	</g>
	<g>
		
			<ellipse transform="matrix(0.2078 -0.9782 0.9782 0.2078 36.1752 60.0606)" fill="#AF2027" cx="55.17" cy="7.7" rx="1.81" ry="2.31"/>
		<path fill="#8E1B26" d="M54.37,7.44c-0.2-0.02-0.38-0.07-0.55-0.13c0.03,0.4,0.57,0.78,1.28,0.86c0.76,0.09,1.43-0.19,1.48-0.62
			c0.04-0.3-0.22-0.59-0.63-0.77C55.84,7.24,55.16,7.54,54.37,7.44z"/>
	</g>
	<g>
		
			<ellipse transform="matrix(0.2078 -0.9782 0.9782 0.2078 25.4325 44.1729)" fill="#AF2027" cx="39.99" cy="6.39" rx="1.81" ry="2.31"/>
		<path fill="#8E1B26" d="M39.19,6.13c-0.2-0.02-0.38-0.07-0.55-0.13c0.03,0.4,0.57,0.78,1.28,0.86c0.76,0.09,1.43-0.19,1.48-0.62
			c0.04-0.3-0.22-0.59-0.63-0.77C40.66,5.93,39.98,6.23,39.19,6.13z"/>
	</g>
	<g>
		
			<ellipse transform="matrix(0.2078 -0.9782 0.9782 0.2078 2.0567 17.0469)" fill="#AF2027" cx="11.55" cy="7.25" rx="1.81" ry="2.31"/>
		<path fill="#8E1B26" d="M11.01,7.21c-0.2-0.02-0.38-0.07-0.55-0.13c0.03,0.4,0.57,0.78,1.28,0.86c0.76,0.09,1.43-0.19,1.48-0.62
			c0.04-0.3-0.22-0.59-0.63-0.77C12.47,7.01,11.79,7.31,11.01,7.21z"/>
	</g>
	<g>
		
			<ellipse transform="matrix(0.2078 -0.9782 0.9782 0.2078 -4.1138 33.9494)" fill="#AF2027" cx="18.9" cy="19.51" rx="1.81" ry="2.31"/>
		<path fill="#8E1B26" d="M18.36,19.47c-0.2-0.02-0.38-0.07-0.55-0.13c0.03,0.4,0.57,0.78,1.28,0.86c0.76,0.09,1.43-0.19,1.48-0.62
			c0.04-0.3-0.22-0.59-0.63-0.77C19.82,19.27,19.14,19.57,18.36,19.47z"/>
	</g>
	<g>
		
			<ellipse transform="matrix(0.2078 -0.9782 0.9782 0.2078 -7.9277 17.2155)" fill="#AF2027" cx="6.66" cy="13.5" rx="1.81" ry="2.31"/>
		<path fill="#8E1B26" d="M6.12,13.46c-0.2-0.02-0.38-0.07-0.55-0.13c0.03,0.4,0.57,0.78,1.28,0.86c0.76,0.09,1.43-0.19,1.48-0.62
			c0.04-0.3-0.22-0.59-0.63-0.77C7.59,13.26,6.9,13.56,6.12,13.46z"/>
	</g>
	<g>
		
			<ellipse transform="matrix(0.2078 -0.9782 0.9782 0.2078 39.1516 85.5368)" fill="#AF2027" cx="72.38" cy="18.6" rx="1.81" ry="2.31"/>
		<path fill="#8E1B26" d="M71.84,18.56c-0.2-0.02-0.38-0.07-0.55-0.13c0.03,0.4,0.57,0.78,1.28,0.86c0.76,0.09,1.43-0.19,1.48-0.62
			c0.04-0.3-0.22-0.59-0.63-0.77C73.3,18.36,72.62,18.65,71.84,18.56z"/>
	</g>
	<g>
		
			<ellipse transform="matrix(0.2078 -0.9782 0.9782 0.2078 47.2914 97.9663)" fill="#AF2027" cx="84.13" cy="19.79" rx="1.81" ry="2.31"/>
		<path fill="#8E1B26" d="M83.58,19.75c-0.2-0.02-0.38-0.07-0.55-0.13c0.03,0.4,0.57,0.78,1.28,0.86c0.76,0.09,1.43-0.19,1.48-0.62
			c0.04-0.3-0.22-0.59-0.63-0.77C85.05,19.55,84.37,19.84,83.58,19.75z"/>
	</g>
	<g>
		
			<ellipse transform="matrix(0.9496 -0.3135 0.3135 0.9496 -2.1903 1.7733)" fill="#AF2027" cx="4.42" cy="7.7" rx="2.31" ry="1.81"/>
		<path fill="#8E1B26" d="M3.73,7.93C3.55,8.01,3.37,8.08,3.19,8.12C3.44,8.43,4.1,8.45,4.74,8.13c0.69-0.34,1.09-0.94,0.89-1.33
			C5.5,6.53,5.12,6.43,4.68,6.5C4.84,6.95,4.44,7.57,3.73,7.93z"/>
	</g>
	<g>
		
			<ellipse transform="matrix(0.9225 -0.3861 0.3861 0.9225 -5.8827 6.4927)" fill="#AF2027" cx="13.22" cy="17.89" rx="2.31" ry="1.81"/>
		<path fill="#8E1B26" d="M12.51,18.02c-0.18,0.09-0.36,0.15-0.53,0.19c0.25,0.32,0.91,0.33,1.55,0.01
			c0.69-0.34,1.09-0.94,0.89-1.33c-0.13-0.27-0.51-0.37-0.95-0.29C13.62,17.04,13.22,17.66,12.51,18.02z"/>
	</g>
	<g>
		
			<ellipse transform="matrix(0.9225 -0.3861 0.3861 0.9225 -7.0163 2.6846)" fill="#AF2027" cx="3.18" cy="18.81" rx="2.31" ry="1.81"/>
		<path fill="#8E1B26" d="M2.47,18.93c-0.18,0.09-0.36,0.15-0.53,0.19c0.25,0.32,0.91,0.33,1.55,0.01c0.69-0.34,1.09-0.94,0.89-1.33
			c-0.13-0.27-0.51-0.37-0.95-0.29C3.58,17.96,3.17,18.58,2.47,18.93z"/>
	</g>
	<g>
		
			<ellipse transform="matrix(0.9225 -0.3861 0.3861 0.9225 1.473 26.2269)" fill="#AF2027" cx="66.03" cy="9.45" rx="2.31" ry="1.81"/>
		<path fill="#8E1B26" d="M65.32,9.59c-0.18,0.09-0.36,0.15-0.53,0.19c0.25,0.32,0.91,0.33,1.55,0.01c0.69-0.34,1.09-0.94,0.89-1.33
			c-0.13-0.27-0.51-0.37-0.95-0.29C66.43,8.62,66.03,9.24,65.32,9.59z"/>
	</g>
	<g>
		
			<ellipse transform="matrix(0.2378 -0.9713 0.9713 0.2378 45.6257 83.117)" fill="#AF2027" cx="75.77" cy="12.49" rx="1.81" ry="2.31"/>
		<path fill="#8E1B26" d="M75.11,12.18c-0.2-0.03-0.38-0.09-0.54-0.16c0.01,0.4,0.53,0.81,1.24,0.93c0.76,0.13,1.43-0.11,1.51-0.54
			c0.05-0.29-0.19-0.6-0.59-0.8C76.59,12.06,75.89,12.32,75.11,12.18z"/>
	</g>
	<g>
		
			<ellipse transform="matrix(0.9225 -0.3861 0.3861 0.9225 3.3704 33.1152)" fill="#AF2027" cx="84.13" cy="8.17" rx="2.31" ry="1.81"/>
		<path fill="#8E1B26" d="M83.42,8.31c-0.18,0.09-0.36,0.15-0.53,0.19c0.25,0.32,0.91,0.33,1.55,0.01c0.69-0.34,1.09-0.94,0.89-1.33
			c-0.13-0.27-0.51-0.37-0.95-0.29C84.53,7.34,84.12,7.96,83.42,8.31z"/>
	</g>
	<g>
		
			<ellipse transform="matrix(0.9225 -0.3861 0.3861 0.9225 -1.1645 11.3765)" fill="#AF2027" cx="27.74" cy="8.59" rx="2.31" ry="1.81"/>
		<path fill="#8E1B26" d="M27.03,8.73c-0.18,0.09-0.36,0.15-0.53,0.19c0.25,0.32,0.91,0.33,1.55,0.01C28.73,8.59,29.13,8,28.93,7.6
			c-0.13-0.27-0.51-0.37-0.95-0.29C28.14,7.76,27.74,8.38,27.03,8.73z"/>
	</g>
	<g>
		
			<ellipse transform="matrix(0.9225 -0.3861 0.3861 0.9225 -3.438 9.2044)" fill="#AF2027" cx="21.2" cy="13.16" rx="2.31" ry="1.81"/>
		<path fill="#8E1B26" d="M20.49,13.44c-0.18,0.09-0.36,0.15-0.53,0.19c0.25,0.32,0.91,0.33,1.55,0.01
			c0.69-0.34,1.09-0.94,0.89-1.33c-0.13-0.27-0.51-0.37-0.95-0.29C21.6,12.46,21.19,13.08,20.49,13.44z"/>
	</g>
	<path fill="#EEB95B" d="M29.94,31.98c3.43,1.43,6.99,2.51,10.58,2.68c3.21,0.15,6.37-0.78,9.41-1.82c2.9-0.99,5.69-2.24,8.33-3.8
		c2.39-1.41,5.2-2.42,7.76-3.53c-0.74,0.32-3.39-2.27-3.82-2.8c-0.96-1.18-1.92-2.4-2.92-3.58c-2.09-2.44-4.29-4.89-7.05-6.58
		c-1.79-1.1-4.11-1.55-6.18-1.75c-2.27-0.22-4.55,0.44-6.56,1.5c-2.02,1.05-3.81,2.48-5.59,3.9c-2.55,2.04-5.04,4.17-7.73,6.05
		c-1.26,0.88-2.55,1.73-3.88,2.5c-1.22,0.71-2.46,1.67-3.91,1.61c1.37,0.06,2.48,1.19,3.64,1.79
		C24.53,29.46,27.19,30.83,29.94,31.98z"/>
	<path fill="#EFBE78" d="M31.61,18.63c-0.06-0.22-0.34-0.3-0.55-0.23c-0.21,0.07-0.36,0.25-0.5,0.43c-0.48,0.61-0.96,1.41-0.64,2.11
		c0.37,0.8,1.45,0.87,2.32,0.94c1.16,0.1,2.46,0.54,2.91,1.62c0.43,1.04-0.09,2.19-0.44,3.25c-0.32,0.97-0.51,1.98-0.56,3
		c-0.02,0.39,0,0.83,0.26,1.13c0.35,0.41,1,0.39,1.53,0.25c0.53-0.14,1.07-0.36,1.6-0.22c1.28,0.34,1.49,2.48,2.81,2.63
		c0.77,0.08,1.39-0.62,1.75-1.3c0.08-0.15,0.16-0.31,0.16-0.48c0-0.29-0.22-0.53-0.45-0.71c-0.52-0.41-1.16-0.66-1.71-1.03
		s-1.05-0.94-1.04-1.61c0.01-1.1,1.24-1.7,2.25-2.15c0.66-0.3,1.31-0.65,1.79-1.2s0.75-1.31,0.54-2.01c-0.21-0.69-0.98-1.22-1.67-1
		c-0.58,0.18-0.98,0.81-1.59,0.87c-0.64,0.06-1.17-0.59-1.19-1.22c-0.02-0.64,0.33-1.23,0.73-1.73c0.4-0.5,0.87-0.95,1.16-1.52
		c0.44-0.86,0.43-1.91,0.12-2.83c-0.08-0.22-0.18-0.46-0.39-0.56c-0.28-0.14-0.63,0.02-0.84,0.26s-0.32,0.54-0.49,0.81
		c-0.35,0.53-0.95,0.89-1.59,0.93c-0.23,0.02-0.48-0.02-0.64-0.18c-0.26-0.27-0.14-0.71,0.04-1.04c0.46-0.8,1.24-1.7,0.79-2.51
		c-0.59,0.29-1.11,0.7-1.64,1.1c-2.19,1.67-4.37,3.35-6.56,5.02"/>
	<path fill="#EFBE78" d="M47.43,32.2c0.72,0.2,1.48-0.32,1.85-0.97c0.38-0.65,0.5-1.41,0.74-2.12c0.25-0.73,0.65-1.43,1.26-1.89
		s1.48-0.64,2.18-0.32c0.61,0.28,1.16,0.93,1.81,0.76c0.2-0.05,0.37-0.18,0.53-0.31c0.91-0.74,1.66-1.68,2.18-2.73
		c0.24-0.48,0.61-1.08,1.14-0.96c0.19,0.05,0.34,0.18,0.52,0.25c0.37,0.14,0.79-0.05,1.05-0.35c0.26-0.3,0.38-0.68,0.5-1.06
		c0.35,0.56,0.69,1.12,1.04,1.68c0.08,0.12,0.15,0.25,0.18,0.39c0.09,0.55-0.58,0.88-1.12,0.98s-1.23,0.26-1.34,0.8
		c-0.07,0.35,0.15,0.75-0.02,1.06c-0.08,0.16-0.25,0.25-0.4,0.34c-1.82,1.03-3.64,2.06-5.46,3.09c-1.29,0.73-2.62,1.47-4.09,1.61
		c-0.69,0.07-1.42,0-2.05,0.29c-0.26,0.12-0.51,0.29-0.79,0.28c-0.28-0.01-0.55-0.35-0.37-0.57c0.27-0.32,0.77,0.22,1.17,0.09"/>
	<path fill="#EFBE78" d="M50.82,15.2c-0.38,0.37-0.75,0.74-1.13,1.11c-0.53,0.52-1.08,1.07-1.32,1.77s-0.06,1.61,0.59,1.96
		c0.81,0.44,1.78-0.15,2.51-0.71c0.12-0.09,0.26-0.19,0.41-0.18c0.24,0.02,0.38,0.28,0.49,0.5c0.45,0.96,1.16,1.79,2.03,2.4
		c0.1,0.07,0.22,0.14,0.35,0.14c0.13,0,0.24-0.08,0.34-0.15c0.68-0.51,1.23-1.19,1.58-1.96c0.07-0.15,0.14-0.31,0.27-0.4
		c0.51-0.35,1.11,0.59,1.71,0.43c0.27-0.52-0.01-1.15-0.33-1.64c-1.09-1.66-2.65-2.95-4.19-4.2c-0.58-0.48-1.4-0.97-2.03-0.57
		c-0.64,0.4-0.75,1.55-1.5,1.58c-0.13,0-0.27-0.03-0.39,0.02c-0.12,0.05-0.16,0.26-0.03,0.3"/>
	<path fill="#EFBE78" d="M25.16,24.55c-1.52-0.29-3.17,0.57-3.81,1.98c-0.02,0.04-0.04,0.09-0.02,0.14c0.02,0.04,0.06,0.06,0.1,0.08
		c0.63,0.29,1.3,0.47,1.98,0.55c0.66,0.07,1.4,0.08,1.86,0.55c0.28,0.29,0.4,0.71,0.6,1.06c0.24,0.42,0.62,0.75,0.99,1.07
		c0.38,0.33,0.78,0.67,1.26,0.81c0.48,0.14,1.08,0.03,1.36-0.39c0.35-0.53,0.05-1.23-0.26-1.78c-0.31-0.55-0.63-1.23-0.33-1.78
		c0.21-0.38,0.68-0.6,0.77-1.03c0.06-0.29-0.09-0.58-0.23-0.83c-0.2-0.36-0.41-0.72-0.74-0.97c-0.33-0.25-0.8-0.35-1.15-0.13
		c-0.26,0.16-0.42,0.46-0.69,0.59c-0.21,0.1-0.46,0.09-0.69,0.07c-0.33-0.02-0.66-0.05-0.99-0.07"/>
</g>
</svg>
