<?xml version="1.0" encoding="utf-8"?>
<!-- Generator: Adobe Illustrator 23.0.0, SVG Export Plug-In . SVG Version: 6.00 Build 0)  -->
<svg version="1.1" id="Layer_1" xmlns="http://www.w3.org/2000/svg" xmlns:xlink="http://www.w3.org/1999/xlink" x="0px" y="0px"
	 viewBox="0 0 87.75 37.51" enable-background="new 0 0 87.75 37.51" xml:space="preserve">
<g>
	<g>
		
			<rect x="0.52" y="0.41" fill="#EE978F" stroke="#EE978F" stroke-width="0.75" stroke-miterlimit="10" width="86.75" height="3.13"/>
		
			<rect x="0.52" y="25.03" fill="#EE978F" stroke="#EE978F" stroke-width="0.75" stroke-miterlimit="10" width="86.75" height="3.13"/>
		<rect x="0.14" y="3.97" fill="#EDC7C3" width="87.5" height="20.69"/>
		<rect x="0.14" y="25.41" fill="#EE978F" width="2.05" height="2.38"/>
		<rect x="85.6" y="25.41" fill="#EE978F" width="2.05" height="2.38"/>
		<rect x="0.14" y="0.78" fill="#EE978F" width="2.05" height="2.38"/>
		<rect x="85.6" y="0.78" fill="#EE978F" width="2.05" height="2.38"/>
	</g>
	<g>
		
			<ellipse transform="matrix(0.2078 -0.9782 0.9782 0.2078 1.0325 25.2123)" fill="#AF2027" cx="16.08" cy="11.97" rx="1.81" ry="2.31"/>
		<path fill="#8E1B26" d="M15.29,11.72c-0.2-0.02-0.38-0.07-0.55-0.13c0.03,0.4,0.57,0.78,1.28,0.86c0.76,0.09,1.43-0.19,1.48-0.62
			c0.04-0.3-0.22-0.59-0.63-0.77C16.75,11.52,16.07,11.81,15.29,11.72z"/>
	</g>
	<g>
		
			<ellipse transform="matrix(0.2078 -0.9782 0.9782 0.2078 13.8185 42.191)" fill="#AF2027" cx="32.96" cy="12.56" rx="1.81" ry="2.31"/>
		<path fill="#8E1B26" d="M32.16,12.31c-0.2-0.02-0.38-0.07-0.55-0.13c0.03,0.4,0.57,0.78,1.28,0.86c0.76,0.09,1.43-0.19,1.48-0.62
			c0.04-0.3-0.22-0.59-0.63-0.77C33.63,12.11,32.95,12.41,32.16,12.31z"/>
	</g>
	<g>
		
			<ellipse transform="matrix(0.2078 -0.9782 0.9782 0.2078 5.4008 47.5933)" fill="#AF2027" cx="32.08" cy="20.46" rx="1.81" ry="2.31"/>
		<path fill="#8E1B26" d="M31.29,20.21c-0.2-0.02-0.38-0.07-0.55-0.13c0.03,0.4,0.57,0.78,1.28,0.86c0.76,0.09,1.43-0.19,1.48-0.62
			c0.04-0.3-0.22-0.59-0.63-0.77C32.75,20.01,32.07,20.3,31.29,20.21z"/>
	</g>
	<g>
		
			<ellipse transform="matrix(0.2078 -0.9782 0.9782 0.2078 20.1346 65.7854)" fill="#AF2027" cx="50.68" cy="20.46" rx="1.81" ry="2.31"/>
		<path fill="#8E1B26" d="M49.89,20.21c-0.2-0.02-0.38-0.07-0.55-0.13c0.03,0.4,0.57,0.78,1.28,0.86c0.76,0.09,1.43-0.19,1.48-0.62
			c0.04-0.3-0.22-0.59-0.63-0.77C51.35,20.01,50.67,20.3,49.89,20.21z"/>
	</g>
	<g>
		
			<ellipse transform="matrix(0.9758 -0.2186 0.2186 0.9758 -2.1335 9.9924)" fill="#AF2027" cx="44.09" cy="14.64" rx="2.31" ry="1.81"/>
		<path fill="#8E1B26" d="M43.27,14.74c-0.19,0.06-0.38,0.09-0.56,0.11c0.2,0.35,0.84,0.47,1.53,0.25c0.73-0.23,1.22-0.76,1.09-1.18
			c-0.09-0.28-0.45-0.44-0.9-0.44C44.52,13.95,44.02,14.5,43.27,14.74z"/>
	</g>
	<g>
		
			<ellipse transform="matrix(0.2078 -0.9782 0.9782 0.2078 41.3619 66.5273)" fill="#AF2027" cx="61.75" cy="7.73" rx="1.81" ry="2.31"/>
		<path fill="#8E1B26" d="M60.96,7.48c-0.2-0.02-0.38-0.07-0.55-0.13c0.03,0.4,0.57,0.78,1.28,0.86c0.76,0.09,1.43-0.19,1.48-0.62
			c0.04-0.3-0.22-0.59-0.63-0.77C62.42,7.28,61.74,7.57,60.96,7.48z"/>
	</g>
	<g>
		
			<ellipse transform="matrix(0.2078 -0.9782 0.9782 0.2078 25.4168 44.2161)" fill="#AF2027" cx="40.01" cy="6.42" rx="1.81" ry="2.31"/>
		<path fill="#8E1B26" d="M39.21,6.16c-0.2-0.02-0.38-0.07-0.55-0.13c0.03,0.4,0.57,0.78,1.28,0.86c0.76,0.09,1.43-0.19,1.48-0.62
			c0.04-0.3-0.22-0.59-0.63-0.77C40.68,5.96,40,6.26,39.21,6.16z"/>
	</g>
	<g>
		
			<ellipse transform="matrix(0.2078 -0.9782 0.9782 0.2078 -8.3096 20.4275)" fill="#AF2027" cx="8.46" cy="15.34" rx="1.81" ry="2.31"/>
		<path fill="#8E1B26" d="M7.91,15.3c-0.2-0.02-0.38-0.07-0.55-0.13c0.03,0.4,0.57,0.78,1.28,0.86c0.76,0.09,1.43-0.19,1.48-0.62
			c0.04-0.3-0.22-0.59-0.63-0.77C9.38,15.1,8.7,15.4,7.91,15.3z"/>
	</g>
	<g>
		
			<ellipse transform="matrix(0.2078 -0.9782 0.9782 0.2078 12.1623 55.9418)" fill="#AF2027" cx="40.62" cy="20.46" rx="1.81" ry="2.31"/>
		<path fill="#8E1B26" d="M40.07,20.42c-0.2-0.02-0.38-0.07-0.55-0.13c0.03,0.4,0.57,0.78,1.28,0.86c0.76,0.09,1.43-0.19,1.48-0.62
			c0.04-0.3-0.22-0.59-0.63-0.77C41.54,20.22,40.86,20.52,40.07,20.42z"/>
	</g>
	<g>
		
			<ellipse transform="matrix(0.2078 -0.9782 0.9782 0.2078 29.3605 69.8274)" fill="#AF2027" cx="57.79" cy="16.79" rx="1.81" ry="2.31"/>
		<path fill="#8E1B26" d="M57.24,16.75c-0.2-0.02-0.38-0.07-0.55-0.13c0.03,0.4,0.57,0.78,1.28,0.86c0.76,0.09,1.43-0.19,1.48-0.62
			c0.04-0.3-0.22-0.59-0.63-0.77C58.71,16.55,58.03,16.84,57.24,16.75z"/>
	</g>
	<g>
		
			<ellipse transform="matrix(0.2078 -0.9782 0.9782 0.2078 45.156 89.3305)" fill="#AF2027" cx="77.73" cy="16.79" rx="1.81" ry="2.31"/>
		<path fill="#8E1B26" d="M77.18,16.75c-0.2-0.02-0.38-0.07-0.55-0.13c0.03,0.4,0.57,0.78,1.28,0.86c0.76,0.09,1.43-0.19,1.48-0.62
			c0.04-0.3-0.22-0.59-0.63-0.77C78.65,16.55,77.97,16.84,77.18,16.75z"/>
	</g>
	<g>
		
			<ellipse transform="matrix(0.2078 -0.9782 0.9782 0.2078 47.454 98.8754)" fill="#AF2027" cx="84.77" cy="20.14" rx="1.81" ry="2.31"/>
		<path fill="#8E1B26" d="M84.22,20.1c-0.2-0.02-0.38-0.07-0.55-0.13c0.03,0.4,0.57,0.78,1.28,0.86c0.76,0.09,1.43-0.19,1.48-0.62
			c0.04-0.3-0.22-0.59-0.63-0.77C85.69,19.9,85.01,20.2,84.22,20.1z"/>
	</g>
	<g>
		
			<ellipse transform="matrix(0.9496 -0.3135 0.3135 0.9496 -2.3364 2.5325)" fill="#AF2027" cx="6.71" cy="8.53" rx="2.31" ry="1.81"/>
		<path fill="#8E1B26" d="M6.02,8.76C5.84,8.85,5.66,8.91,5.48,8.95c0.25,0.32,0.91,0.33,1.55,0.01c0.69-0.34,1.09-0.94,0.89-1.33
			C7.79,7.36,7.41,7.26,6.97,7.33C7.13,7.78,6.72,8.41,6.02,8.76z"/>
	</g>
	<g>
		
			<ellipse transform="matrix(0.9225 -0.3861 0.3861 0.9225 -6.8445 7.6083)" fill="#AF2027" cx="15.52" cy="20.84" rx="2.31" ry="1.81"/>
		<path fill="#8E1B26" d="M14.81,20.97c-0.18,0.09-0.36,0.15-0.53,0.19c0.25,0.32,0.91,0.33,1.55,0.01
			c0.69-0.34,1.09-0.94,0.89-1.33c-0.13-0.27-0.51-0.37-0.95-0.29C15.92,19.99,15.52,20.61,14.81,20.97z"/>
	</g>
	<g>
		
			<ellipse transform="matrix(0.9225 -0.3861 0.3861 0.9225 -7.2026 3.2291)" fill="#AF2027" cx="4.44" cy="19.55" rx="2.31" ry="1.81"/>
		<path fill="#8E1B26" d="M3.73,19.67c-0.18,0.09-0.36,0.15-0.53,0.19c0.25,0.32,0.91,0.33,1.55,0.01c0.69-0.34,1.09-0.94,0.89-1.33
			c-0.13-0.27-0.51-0.37-0.95-0.29C4.84,18.69,4.43,19.32,3.73,19.67z"/>
	</g>
	<g>
		
			<ellipse transform="matrix(0.9225 -0.3861 0.3861 0.9225 -4.187 10.7901)" fill="#AF2027" cx="24.77" cy="15.82" rx="2.31" ry="1.81"/>
		<path fill="#8E1B26" d="M24.06,15.97c-0.18,0.09-0.36,0.15-0.53,0.19c0.25,0.32,0.91,0.33,1.55,0.01
			c0.69-0.34,1.09-0.94,0.89-1.33c-0.13-0.27-0.51-0.37-0.95-0.29C25.17,14.99,24.77,15.61,24.06,15.97z"/>
	</g>
	<g>
		
			<ellipse transform="matrix(0.9225 -0.3861 0.3861 0.9225 0.2925 27.5714)" fill="#AF2027" cx="68.79" cy="13.06" rx="2.31" ry="1.81"/>
		<path fill="#8E1B26" d="M68.08,13.2c-0.18,0.09-0.36,0.15-0.53,0.19c0.25,0.32,0.91,0.33,1.55,0.01c0.69-0.34,1.09-0.94,0.89-1.33
			c-0.13-0.27-0.51-0.37-0.95-0.29C69.19,12.23,68.78,12.85,68.08,13.2z"/>
	</g>
	<g>
		
			<ellipse transform="matrix(0.9225 -0.3861 0.3861 0.9225 -2.796 28.9615)" fill="#AF2027" cx="70.7" cy="21.44" rx="2.31" ry="1.81"/>
		<path fill="#8E1B26" d="M69.99,21.59c-0.18,0.09-0.36,0.15-0.53,0.19c0.25,0.32,0.91,0.33,1.55,0.01
			c0.69-0.34,1.09-0.94,0.89-1.33c-0.13-0.27-0.51-0.37-0.95-0.29C71.1,20.61,70.7,21.23,69.99,21.59z"/>
	</g>
	<g>
		
			<ellipse transform="matrix(0.2378 -0.9713 0.9713 0.2378 48.5971 78.3712)" fill="#AF2027" cx="74.23" cy="8.22" rx="1.81" ry="2.31"/>
		<path fill="#8E1B26" d="M73.58,7.92c-0.2-0.03-0.38-0.09-0.54-0.16c0.01,0.4,0.53,0.81,1.24,0.93c0.76,0.13,1.43-0.11,1.51-0.54
			c0.05-0.29-0.19-0.6-0.59-0.8C75.05,7.79,74.35,8.05,73.58,7.92z"/>
	</g>
	<g>
		
			<ellipse transform="matrix(0.9225 -0.3861 0.3861 0.9225 3.2051 32.4013)" fill="#AF2027" cx="82.27" cy="8.22" rx="2.31" ry="1.81"/>
		<path fill="#8E1B26" d="M81.56,8.37c-0.18,0.09-0.36,0.15-0.53,0.19c0.25,0.32,0.91,0.33,1.55,0.01c0.69-0.34,1.09-0.94,0.89-1.33
			c-0.13-0.27-0.51-0.37-0.95-0.29C82.67,7.39,82.26,8.01,81.56,8.37z"/>
	</g>
	<g>
		
			<ellipse transform="matrix(0.9225 -0.3861 0.3861 0.9225 -0.6939 20.5993)" fill="#AF2027" cx="50.94" cy="12.03" rx="2.31" ry="1.81"/>
		<path fill="#8E1B26" d="M50.23,12.17c-0.18,0.09-0.36,0.15-0.53,0.19c0.25,0.32,0.91,0.33,1.55,0.01
			c0.69-0.34,1.09-0.94,0.89-1.33c-0.13-0.27-0.51-0.37-0.95-0.29C51.34,11.2,50.93,11.82,50.23,12.17z"/>
	</g>
	<g>
		
			<ellipse transform="matrix(0.9225 -0.3861 0.3861 0.9225 -1.697 9.8633)" fill="#AF2027" cx="23.71" cy="9.16" rx="2.31" ry="1.81"/>
		<path fill="#8E1B26" d="M23,9.43c-0.18,0.09-0.36,0.15-0.53,0.19c0.25,0.32,0.91,0.33,1.55,0.01C24.7,9.29,25.1,8.69,24.9,8.3
			c-0.13-0.27-0.51-0.37-0.95-0.29C24.11,8.46,23.7,9.08,23,9.43z"/>
	</g>
</g>
</svg>
