<?xml version="1.0" encoding="utf-8"?>
<!-- Generator: Adobe Illustrator 23.0.0, SVG Export Plug-In . SVG Version: 6.00 Build 0)  -->
<svg version="1.1" id="Layer_1" xmlns="http://www.w3.org/2000/svg" xmlns:xlink="http://www.w3.org/1999/xlink" x="0px" y="0px"
	 viewBox="0 0 83.36 50.14" enable-background="new 0 0 83.36 50.14" xml:space="preserve">
<g>
	<ellipse fill="#D1D3D4" cx="32.6" cy="44.76" rx="32.6" ry="5.38"/>
	<g>
		<g>
			<path fill="#63774E" d="M59.61,8.35c0.82-1.35,0.95-3.07,0.48-4.59S58.58,0.95,57.31,0c0.16,1.07-0.16,2.21-0.87,3.03
				c-0.43-0.71-1.19-1.2-2.02-1.3c0.45,0.63,0.91,1.29,0.98,2.06c0.05,0.58-0.12,1.15-0.25,1.71c-0.51,2.3-0.15,4.79,1,6.85
				c-0.65-0.77-1.31-1.55-2.16-2.1c-0.84-0.55-1.9-0.86-2.87-0.59c0.24,0.14,0.49,0.28,0.73,0.42c-0.93-0.12-1.87-0.24-2.8-0.36
				c0.41,0.66,0.98,1.22,1.64,1.63c-0.53,0.01-1.06,0.14-1.53,0.37c0.14,0.61,0.89,0.82,1.51,0.94c1.61,0.32,2.99,0.86,4.63,0.88
				c0.66,0.01,1.38,0.04,1.86,0.49C55.45,12.4,58.9,9.51,59.61,8.35z"/>
		</g>
		<g>
			<defs>
				<path id="SVGID_770_" d="M76.27,41.54c-3.22-8.97-7.71-17.49-13.29-25.22c-0.79-1.09-1.63-2.19-2.81-2.83
					c-1.18-0.63-2.79-0.67-3.74,0.28c-0.7,0.7-1.09,1.66-0.91,2.63s0.76,1.81,1.32,2.62c6.23,8.87,13.2,17.22,20.8,24.94"/>
			</defs>
			<clipPath id="SVGID_2_">
				<use xlink:href="#SVGID_770_"  overflow="visible"/>
			</clipPath>
			<g clip-path="url(#SVGID_2_)">
				<path fill="#F26522" d="M76.27,41.54c-3.22-8.97-7.71-17.49-13.29-25.22c-0.79-1.09-1.63-2.19-2.81-2.83
					c-1.18-0.63-2.79-0.67-3.74,0.28c-0.7,0.7-1.09,1.66-0.91,2.63s0.76,1.81,1.32,2.62c6.23,8.87,13.2,17.22,20.8,24.94"/>
			</g>
			<path clip-path="url(#SVGID_2_)" fill="#EE755B" d="M61.55,14.91c3.24,2.86,5.39,6.72,7.47,10.5c1.85,3.36,3.71,6.72,5.33,10.2
				c0.59,1.25,1.15,2.55,1.27,3.93c-1.24-0.65-2.24-1.68-3.15-2.75c-2.9-3.41-5.07-7.37-7.15-11.33c-1.08-2.06-2.14-4.13-3.01-6.29
				c-0.66-1.64-1.26-3.41-2.61-4.57c-0.31-0.26-1.77-1.31-0.62-1.15C60,13.57,60.88,14.31,61.55,14.91z"/>
			<g clip-path="url(#SVGID_2_)">
				<path fill="#EEB95B" d="M65.94,20.69c-1.08-0.45-2.29-0.59-3.45-0.4c-0.78,0.13-1.69,0.62-1.62,1.41"/>
			</g>
			<g clip-path="url(#SVGID_2_)">
				<path fill="#EEB95B" d="M70.57,28.43c-1.66-1.03-3.54-1.09-4.49-0.14"/>
			</g>
			<g clip-path="url(#SVGID_2_)">
				<path fill="#EEB95B" d="M68.65,24.91c-1.82-0.87-4.17-0.47-5.61,0.95"/>
			</g>
			<g clip-path="url(#SVGID_2_)">
				<path fill="#EEB95B" d="M63.68,15.81c-1.82-0.87-4.17-0.47-5.61,0.95"/>
			</g>
		</g>
		<path fill="#6F825A" d="M55.46,3.52c0.41,0.44,0.75,0.94,1.03,1.48c0.55-0.97,0.85-2.07,0.87-3.18c1.07,1.06,1.18,2.79,0.71,4.22
			c-0.47,1.43-1.43,2.63-2.32,3.84c-0.08-1-0.03-1.96-0.17-2.92C55.47,6.29,55.9,4,55.46,3.52z"/>
	</g>
	<g>
		<g>
			<path fill="#6C3E98" d="M28.1,8.88c-4.67,1.55-7.48,6.35-10.65,10.25c-2.01,2.47-4.3,4.69-6.21,7.24s-3.46,5.54-3.62,8.74
				c-0.17,3.2,1.31,6.6,4.11,7.91c1.23,0.58,2.62,0.72,3.98,0.73c1.81,0.01,3.68-0.23,5.28-1.14c2.5-1.43,3.94-4.26,4.79-7.07
				c0.86-2.81,1.28-5.77,2.47-8.45c1.01-2.28,2.54-4.29,3.72-6.49s2.01-4.77,1.44-7.19s-2.96-4.45-5.3-3.81
				c-0.61,0.17-1.23,0.99-0.72,1.35"/>
		</g>
		<g>
			<path fill="#63774E" d="M33.95,19.05c0.08,0.1,0.17,0.2,0.25,0.31c0.11-1.4,0.55-2.72,0.54-4.14c-0.01-1.27-0.57-1.96-1.04-3.08
				c-0.38-0.88,0.04-1.56,0.17-2.5c0.18-1.23,0.16-2.73-1.51-1.99c-0.56,0.25-0.74,0.85-1.32,1.06c-0.5,0.19-1.12,0.03-1.7-0.04
				c-1.09-0.13-2.25,0.35-3.19,0.65c-0.6,0.19-1.14,0.47-1.72,0.69c-0.96,0.36-2.03,0.57-3.13,0.61c0.16-0.01,1.11,0.92,1.37,1.03
				c0.59,0.27,1.19,0.29,1.86,0.4c-0.64,1.07-1.28,2.14-1.92,3.21c1.14-0.5,2.38-0.86,3.67-1.08c0.04,1,0.06,2.07-0.63,2.84
				c1.1-0.36,2.05-0.97,2.73-1.74c0.9,0.91,1.3,2.1,1.07,3.16c1.36-0.09,2.39-1.14,2.21-2.25c0.03,0.22,1.16,1.18,1.35,1.49
				C33.32,18.17,33.6,18.61,33.95,19.05z"/>
		</g>
		<path fill="#805CA6" d="M13.72,29.02c-0.57,2.51-0.42,5.25,0.81,7.52c0.38,0.7,0.86,1.38,0.91,2.17c0.08,1.08-0.76,2.11-1.8,2.42
			c-1.04,0.31-2.21-0.04-3.04-0.73s-1.36-1.71-1.63-2.76c-0.33-1.24-0.33-2.56-0.01-3.8c0.3-1.16,0.87-2.22,1.43-3.28
			c1.75-3.28,3.55-6.63,6.27-9.17c-0.37,0.68-0.45,1.47-0.78,2.18C15.05,25.32,14.15,27.11,13.72,29.02z"/>
		<path fill="#6F825A" d="M22.45,11.09c1.3-0.29,2.64-0.4,3.97-0.34c-0.91,0.64-1.7,1.47-2.28,2.42c0.98-0.57,2.02-1.04,3.1-1.39
			c-0.29,0.74-0.32,1.57-0.1,2.33c0.34-0.76,0.27-1.67,0.67-2.4c0.3-0.55,0.82-0.94,1.33-1.3c0.63-0.46,1.29-0.93,2.05-1.09
			c-1.38,0.28-2.93-0.11-4.35,0.16C25.32,9.77,23.78,10.31,22.45,11.09z"/>
	</g>
	<g>
		<path fill="#AF2027" d="M40.03,16.54c2.26-1.85,5.74-2.01,8.16-0.38c0.27,0.18,0.53,0.38,0.85,0.45c0.18,0.04,0.37,0.03,0.56,0.03
			c1.62-0.02,3.46,0.56,4.11,2.05c0.49,1.12,0.15,2.48-0.61,3.43s-1.88,1.56-3.03,1.98c-4.23,1.55-8.91,0.9-13.37,0.23
			c-0.51-0.08-1.03-0.16-1.5-0.37c-1.57-0.72-3.28-4.1-2.01-5.54c0.79-0.9,2.1-1.5,3.23-1.81c0.6-0.16,1.22-0.26,1.85-0.27
			C38.52,16.34,39.9,16.64,40.03,16.54z"/>
		<g>
			<path fill="#DD4747" d="M48.53,18.34c0.19-0.11,0.38-0.22,0.57-0.32c-0.15-0.43-0.66-0.7-1.1-0.6c-0.1,0.02-0.2,0.06-0.3,0.04
				c-0.2-0.04-0.26-0.28-0.38-0.44c-0.5-0.66-1.59-0.18-2.19-0.93c-0.42-0.53-0.56-1.6-0.59-2.26c-0.03-0.51,0.03-4.52,0.46-4.74
				c-0.7,0.34-1.23,0.96-1.91,1.34c-0.62,0.35-0.69,0.13-1.09,0.67c-0.53,0.73-0.55,2.03-0.82,2.89c-0.26,0.83-0.52,1.72-0.25,2.55
				c-0.19,0.42-1.23,0.82-1.66,0.67c-0.43-0.16-0.93-0.37-1.32-0.14c-0.4,0.24-0.46,0.76-0.82,1.04c-0.25,0.2-1.33,0.29-1.15,0.8
				c0.1,0.3,0.54,0.2,0.83,0.09c0.46-0.17,1.08-0.14,1.3,0.29c0.07,0.14,0.09,0.31,0.2,0.43c0.08,0.08,0.19,0.13,0.31,0.15
				c0.76,0.17,1.52-0.3,2.29-0.33c0.54-0.02,1.08,0.17,1.48,0.53c0.19,0.17,0.36,0.38,0.59,0.5c0.7,0.37,1.54-0.24,2.32-0.14
				c0.35,0.04,0.68,0.23,1.03,0.18c0.84-0.11,1.02-1.37,1.81-1.7c0.27-0.11,0.6-0.1,0.83-0.27c0.24-0.18,0.19-0.68-0.1-0.64"/>
		</g>
		<g>
			<defs>
				<path id="SVGID_772_" d="M55.76,22.63c-0.26-1.91-1.09-3.75-2.92-4.6c-0.36-0.17-0.99-0.04-1.4-0.03c-0.23,0-0.46,0.1-0.67,0.19
					c-0.45,0.19-0.89,0.38-1.34,0.57c-0.37,0.16-0.75,0.32-1.08,0.56c-1.83,1.35-0.31,2.89-0.65,4.56c0.29-1.95-0.06-3.85-1.97-4.54
					c-1.14-0.41-2.58-1.06-3.81-1.09c-1.88-0.04-3.53,0.29-4.57,1.92c-0.44,0.69-0.98,1.3-1.61,1.82c0.64-0.53,1.07-2.11,1.65-2.83
					c-0.51,0.51-1.1,0.09-1.66-0.15c-5.78-2.48-5.36,5.87-4.66,8.93c0.67,2.93,1.47,5.83,2.39,8.69c0.49,1.53,1.05,3.1,2.17,4.25
					c1.53,1.59,4.06,2.13,6.11,1.31c1.07-0.43,2.03-1.2,3.18-1.28c1.92-0.14,3.93,1.67,5.59,0.69c0.46-0.27,0.78-0.72,1.07-1.17
					c1.49-2.3,3.7-7.29,4.41-11.94c0.27-1.8,0.02-4.02-0.22-5.84C55.76,22.64,55.76,22.64,55.76,22.63z"/>
			</defs>
			<clipPath id="SVGID_3_">
				<use xlink:href="#SVGID_772_"  overflow="visible"/>
			</clipPath>
			<g clip-path="url(#SVGID_3_)">
				<path fill="#EF5B5B" d="M55.76,22.63c-0.26-1.91-1.09-3.75-2.92-4.6c-0.36-0.17-0.99-0.04-1.4-0.03c-0.23,0-0.46,0.1-0.67,0.19
					c-0.45,0.19-0.89,0.38-1.34,0.57c-0.37,0.16-0.75,0.32-1.08,0.56c-1.83,1.35-0.31,2.89-0.65,4.56c0.29-1.95-0.06-3.85-1.97-4.54
					c-1.14-0.41-2.58-1.06-3.81-1.09c-1.88-0.04-3.53,0.29-4.57,1.92c-0.44,0.69-0.98,1.3-1.61,1.82c0.64-0.53,1.07-2.11,1.65-2.83
					c-0.51,0.51-1.1,0.09-1.66-0.15c-5.78-2.48-5.36,5.87-4.66,8.93c0.67,2.93,1.47,5.83,2.39,8.69c0.49,1.53,1.05,3.1,2.17,4.25
					c1.53,1.59,4.06,2.13,6.11,1.31c1.07-0.43,2.03-1.2,3.18-1.28c1.92-0.14,3.93,1.67,5.59,0.69c0.46-0.27,0.78-0.72,1.07-1.17
					c1.49-2.3,3.7-7.29,4.41-11.94c0.27-1.8,0.02-4.02-0.22-5.84C55.76,22.64,55.76,22.64,55.76,22.63z"/>
			</g>
			<path clip-path="url(#SVGID_3_)" fill="#DD4747" d="M47.32,21.93c-0.02-0.09-0.03-0.18-0.03-0.28c-0.04-0.97,0.22-1.91,1.12-2.4
				c0.94-0.5,2.19-0.31,2.95,0.44c0.55,0.54,0.82,1.3,0.91,2.07s-0.01,1.53-0.11,2.29c-0.33,2.52-0.74,5.06-1.58,7.46
				c-0.27,0.77-0.58,1.52-0.89,2.28c-0.62,1.5-1.25,3.01-1.87,4.51c-0.46,1.11-1.1,2.38-2.29,2.59c0.87-3.22,1.75-6.46,1.92-9.79
				c0.1-2-0.05-4,0.04-6c0.03-0.67,0.18-1.43,0.09-2.1C47.52,22.63,47.38,22.3,47.32,21.93z"/>
			<path clip-path="url(#SVGID_3_)" fill="#DD4747" d="M37.33,21.62c-0.81,5.84,1.17,11.84,4.59,16.64c0.25,0.35,0.51,0.7,0.83,0.98
				c0.59,0.53,1.39,0.83,1.84,1.49c0.04,0.07,0.09,0.14,0.08,0.22c-0.01,0.16-0.18,0.24-0.33,0.29c-0.91,0.33-1.9,0.66-2.84,0.41
				c-0.96-0.26-1.65-1.07-2.22-1.89c-0.42-0.6-0.94-1.25-1.15-1.95c-0.26-0.88-0.48-1.77-0.69-2.67c-0.4-1.76-0.72-3.54-0.94-5.33
				c-0.18-1.45-0.3-2.9-0.36-4.36c-0.03-0.7-0.1-1.44-0.04-2.13c0.05-0.6,0.26-1.22,0.43-1.81c0.25-0.84,0.64-2.07,1.49-2.48
				c0.16,0.34-0.17,0.7-0.3,1.01C37.5,20.54,37.4,21.09,37.33,21.62z"/>
		</g>
		<path fill="#6F825A" d="M44.29,9.61c0.02,0.02-0.04,0.04-0.04,0.01c-0.01-0.03,0.02-0.05,0.04-0.07c0.32-0.24,0.63-0.47,0.95-0.71
			c-0.3,1-0.37,2.02-0.71,2.99c-0.01,0.04-0.03,0.07-0.06,0.09c-0.06,0.04-0.14,0-0.17-0.07s-0.02-0.14-0.01-0.21
			c-0.04,0.06-0.07,0.13-0.11,0.19c-0.04-0.05-0.09-0.1-0.13-0.15c-0.17,0.48-0.66,3.17-1.5,1.67c-0.02,0.04-0.16,0.37-0.18,0.37
			c-0.2-0.2-0.28-0.49-0.23-0.76c-0.22,0.4-0.39,0.83-0.51,1.27c-0.24,0.13-0.53-0.12-0.56-0.39c-0.05-0.51,0.32-1.4,0.48-1.91
			c0.14-0.44,0.31-1.23,0.74-1.49c0.77-0.45,1.54-0.9,2.31-1.35c-0.22,1.66-0.43,3.32-0.65,4.98"/>
	</g>
	<g>
		<g>
			<path fill="#B0CEB2" d="M58.82,37.34l23.56,0.68c-0.01,0.38,0.18,0.7,0.38,1.02c0.81,1.24,0.79,2.98-0.05,4.2
				c-0.41,0.61-1.21,1.15-1.88,0.84l-21.88-0.64c-0.01,0.26-0.05,0.52-0.07,0.78c-5.9,1.41-11.77,2.79-17.68,4.1
				c-0.57,0.13-1.21,0.24-1.7-0.08c-0.02-0.55-0.04-1.1-0.06-1.64c0-0.08,0-0.16,0.03-0.22c0.05-0.08,0.15-0.12,0.24-0.15
				c1.06-0.34,2.13-0.68,3.19-1.02c-0.01-0.19,0.05-0.4,0.07-0.58c-0.68-0.22-1.59,0.27-2.27,0.4c-1.13,0.22-2.3,0.33-3.44,0.48
				c-0.2,0.03-0.41,0.05-0.6-0.01c-0.44-0.15-0.6-0.67-0.71-1.13c-0.04-0.17-0.08-0.36-0.01-0.52c0.11-0.29,0.46-0.39,0.76-0.45
				c0.68-0.13,1.35-0.26,2.03-0.4c-0.69,0.15-1.45,0.28-2.15,0.2c-0.06-1.04-0.13-2.8,1.42-2.66c0.33,0.03,0.8,0.05,0.84-0.28
				c0.1-0.84-1.68,0.05-1.94,0.07c-0.5,0.04-1.2-0.24-1.68-0.38c-0.2-0.58-0.39-1.17-0.36-1.78s0.35-1.24,0.92-1.47
				c0.34-0.14,0.72-0.11,1.08-0.08c2.74,0.2,5.41,0.36,8.16,0.38c-1.92-0.25-3.78-0.09-5.71-0.28c-0.06-0.01-0.12-0.01-0.17-0.05
				c-0.13-0.09-0.08-0.29-0.01-0.44c0.41-0.93,1.03-3.28,1.84-3.88c0.91-0.67,2.72,0.05,3.67,0.32c4.99,1.43,10.39,1.81,14.9,4.4
				c-0.23-0.09-0.46-0.17-0.69-0.26"/>
		</g>
		<g>
			<path fill="#1CA36D" d="M64.09,40.16c-5.56,0.41-11.22,0.81-16.67-0.4c-1.58-0.35-3.16-0.84-4.78-0.86
				c-0.42-0.01-0.84,0.02-1.23-0.12c-1.06-0.38-1.78-1.89-2.86-1.57c1.7,1.36,3.08,3.12,3.99,5.1c3.71-0.75,7.49-1.39,11.27-1.12
				c1.65,0.12,3.51,0.34,4.76-0.73c-4.33,2.87-9.83,3.14-15.02,3.28c0.48,0.35,0.32,1.14-0.08,1.57c-0.4,0.43-0.98,0.68-1.4,1.09"/>
		</g>
		<g>
			<path fill="#1CA36D" d="M59.7,40.43c0.12-0.21,0.25-0.42,0.37-0.64c-3.26,2.17-6.51,4.34-9.77,6.51
				c-1.18,0.79-2.38,1.58-3.68,2.14c0.29,0.28,0.58,0.55,0.87,0.83c3.12-1.46,6.25-2.91,9.37-4.37c2.07-0.96,4.24-1.95,6.52-1.85
				c-0.1,0.11-0.28,0.15-0.41,0.08"/>
		</g>
		<path fill="#0D9662" d="M52.93,37.48c0.47,0.11,1.03,0.35,1.05,0.83c0.02,0.51-0.59,0.78-1.09,0.9c-2.11,0.52-4.26,0.98-6.43,1.01
			c-1.83,0.03-3.7-0.26-5.36-1.04c-0.52-0.24-1.88-0.82-1.81-1.56c0.08-0.84,1.47-0.62,2.1-0.66
			C45.23,36.69,49.15,36.58,52.93,37.48z"/>
		<g>
			<path fill="#1CA36D" d="M60.64,39.65c-3.22-0.09-6.42-0.63-9.48-1.63c-0.6-0.19-1.2-0.41-1.7-0.77
				c-0.38-0.28-0.71-0.64-1.15-0.83c-0.36-0.16-0.78-0.18-1.13-0.35c-0.52-0.26-0.83-0.8-1.11-1.31c-0.04-0.07-0.08-0.14-0.07-0.22
				c0.01-0.12,0.14-0.2,0.25-0.26c1.05-0.51,2.33-0.54,3.4-0.08"/>
		</g>
		<path fill="#0D9662" d="M64.9,37.25c0.31,0.35,0.79,0.59,0.92,1.03c0.09,0.29,0,0.61-0.17,0.87c-0.29,0.44-0.79,0.71-1.3,0.83
			c-0.51,0.12-1.05,0.11-1.58,0.09c-0.41-0.01-0.84-0.03-1.18-0.26c-0.23-0.16-0.39-0.4-0.57-0.62c-0.54-0.67-1.29-1.16-2.12-1.4
			c0.05-0.33,0.49-0.42,0.82-0.41c1.41,0.01,2.82,0.09,4.23,0.24c0.19,0.02,0.39,0.04,0.56,0.13c0.49,0.23,0.66,0.86,0.59,1.39
			c-0.08,0.53-0.34,1.02-0.5,1.53c-0.14,0.46-0.23,0.98-0.6,1.28c-0.39,0.32-1,0.27-1.38-0.05c-0.38-0.33-0.52-0.88-0.4-1.37
			c0.07-0.31,0.22-0.68,0-0.91"/>
		<g>
			<path fill="#1CA36D" d="M64.96,37.08c0.25,0.49,0.5,0.98,0.75,1.47c0.1,0.19,0.19,0.41,0.09,0.6c-0.07,0.13-0.21,0.2-0.35,0.26
				c-0.7,0.32-1.39,0.63-2.09,0.95c0.27,0.1,0.55,0.2,0.75,0.39c0.21,0.2,0.33,0.52,0.21,0.78c-0.16,0.34-0.66,0.49-0.68,0.86
				c0.54-0.18,1.26-0.29,1.55,0.2c0.06,0.1,0.1,0.23,0.2,0.29c0.09,0.05,0.19,0.05,0.3,0.04c0.33-0.03,0.66-0.05,0.98-0.08
				c-0.13,0.18-0.14,0.43-0.04,0.62"/>
		</g>
		<path fill="#0D9662" d="M36.02,36.12c-0.21-0.02-0.42-0.04-0.61,0.04c-0.21,0.09-0.35,0.29-0.45,0.5
			c-0.36,0.74-0.3,1.67,0.13,2.37c0.03,0.05,0.07,0.1,0.13,0.13c0.09,0.03,0.19-0.03,0.26-0.09c1.29-1.06,1.96-2.12,3.72-2.36
			C38.27,36.28,37.04,36.24,36.02,36.12z"/>
		<path fill="#0D9662" d="M40.99,42.66c-0.56,0.05-5.16,2.28-5.01,1.14C36.09,42.89,40.24,42.72,40.99,42.66z"/>
		<path fill="#1CA36D" d="M40.43,46.15c-0.35,0.17-0.69,0.38-0.91,0.7c-0.22,0.32-0.3,0.76-0.1,1.09c0.06,0.1,0.14,0.18,0.25,0.22
			c0.21,0.06,0.43-0.11,0.52-0.31c0.09-0.2,0.08-0.43,0.12-0.65c0.12-0.8,0.85-1.5,1.67-1.56C41.44,45.75,40.92,45.91,40.43,46.15z"
			/>
		<path fill="#0D9662" d="M41.47,39.75c-1.13,0.63-2.64,0.8-3.89,1.01c0.43-0.41,1.26-0.58,1.85-0.73
			C39.97,39.9,41.02,40,41.47,39.75z"/>
		<path fill="#1CA36D" d="M41.74,31.48c0.26,0.42,0.31,0.95,0.23,1.44c-0.01,0.05-0.02,0.09-0.03,0.14
			c-0.12,0.53-0.38,1.02-0.63,1.5c-0.58,1.1-1.11,2.05-1.12,0.26C40.18,34.48,41.28,30.71,41.74,31.48z"/>
	</g>
</g>
</svg>
