<?xml version="1.0" encoding="utf-8"?>
<!-- Generator: Adobe Illustrator 23.0.0, SVG Export Plug-In . SVG Version: 6.00 Build 0)  -->
<svg version="1.1" id="Layer_1" xmlns="http://www.w3.org/2000/svg" xmlns:xlink="http://www.w3.org/1999/xlink" x="0px" y="0px"
	 viewBox="0 0 17.5 30.93" enable-background="new 0 0 17.5 30.93" xml:space="preserve">
<g>
	<polygon fill="#BCBEC0" points="15.87,28.52 1.7,28.52 0.07,2.97 17.5,2.97 	"/>
	<ellipse fill="#E6E7E8" cx="8.78" cy="2.97" rx="8.71" ry="2.97"/>
	<ellipse fill="#939598" cx="8.78" cy="28.52" rx="7.05" ry="2.4"/>
	<g>
		<defs>
			<path id="SVGID_766_" d="M8.78,0C3.97,0,0.07,1.33,0.07,2.97L1.7,28.52h0.03c0,1.33,3.16,2.4,7.05,2.4s7.05-1.08,7.05-2.4h0.03
				L17.5,2.97C17.5,1.33,13.6,0,8.78,0z"/>
		</defs>
		<clipPath id="SVGID_2_">
			<use xlink:href="#SVGID_766_"  overflow="visible"/>
		</clipPath>
		<polygon opacity="0.76" clip-path="url(#SVGID_2_)" fill="#C3D7DC" points="0.69,13.64 16.97,13.92 16.97,33.46 0.07,35.04 
			-2.71,27.14 		"/>
	</g>
	<ellipse fill="#E7F6FC" cx="8.78" cy="14.18" rx="7.75" ry="2.64"/>
	<ellipse fill="#C3D7DC" cx="8.5" cy="13.92" rx="7.26" ry="2.47"/>
	<ellipse fill="#BCBEC0" cx="8.78" cy="2.97" rx="8.19" ry="2.79"/>
	<g>
		<defs>
			<path id="SVGID_768_" d="M8.78,0C3.97,0,0.07,1.33,0.07,2.97L1.7,28.52h0.03c0,1.33,3.16,2.4,7.05,2.4s7.05-1.08,7.05-2.4h0.03
				L17.5,2.97C17.5,1.33,13.6,0,8.78,0z"/>
		</defs>
		<clipPath id="SVGID_3_">
			<use xlink:href="#SVGID_768_"  overflow="visible"/>
		</clipPath>
		<g clip-path="url(#SVGID_3_)">
			<path fill="#C3D7DC" d="M0.12,3.54l1.61,25.52c0,0,4.15,4.03,3.85,2.87C0.73,13.26,6.49,5.64,6.49,5.64S1.99,5.5,0.12,3.54z"/>
		</g>
	</g>
</g>
</svg>
