<svg xmlns="http://www.w3.org/2000/svg" xmlns:xlink="http://www.w3.org/1999/xlink" viewBox="0 0 17.17644 30.72559"><defs><style>.b318adc0-a5fe-404c-ab75-d20aaa625536{fill:none;}.e9ee9b17-2470-460a-8dcb-072c75dbec35{isolation:isolate;}.affb7e18-7df5-4fcb-a80b-7a7cb31ade2d,.e15f6725-5866-49cf-882b-cff09b523c69{fill:#a7a9ac;}.affb7e18-7df5-4fcb-a80b-7a7cb31ade2d{opacity:0.33;mix-blend-mode:multiply;}.a8fa72da-455d-4cc1-8005-ecba9a7e8891{fill:#af2027;}.aedd817d-07ec-47a5-8dd0-90a3ab0db314{fill:#ec2429;}.afb32c47-a4ac-4560-9865-15849f12a1d2{fill:#e86978;}.bf46d03e-f9c1-4055-9b89-c60327086f42{clip-path:url(#e58955e5-99ff-4b2b-853a-980228da85d7);}.b55447a8-22d8-4ed9-aa5c-ab8bb5bb546c{fill:#c3d7dc;}</style><clipPath id="e58955e5-99ff-4b2b-853a-980228da85d7"><rect class="b318adc0-a5fe-404c-ab75-d20aaa625536" x="-101.48535" y="272.68029" width="235.49085" height="29.6666"/></clipPath></defs><title>Artboard 30</title><g class="e9ee9b17-2470-460a-8dcb-072c75dbec35"><g id="e0b10758-67d7-4e93-bd36-ae68f81faa8b" data-name="Layer 1"><ellipse class="affb7e18-7df5-4fcb-a80b-7a7cb31ade2d" cx="6.03728" cy="26.32451" rx="2.94625" ry="6.86413" transform="translate(-19.51391 17.57436) rotate(-58.17906)"/><polygon class="e15f6725-5866-49cf-882b-cff09b523c69" points="6.643 15.93 0.642 22.725 4.75 14.643 6.643 15.93"/><ellipse class="a8fa72da-455d-4cc1-8005-ecba9a7e8891" cx="6.95044" cy="12.862" rx="4.95871" ry="6.17247" transform="translate(-7.64368 11.99525) rotate(-58.21501)"/><path class="aedd817d-07ec-47a5-8dd0-90a3ab0db314" d="M8.88585,14.14a4.277,4.277,0,0,1-3.94128-2.44228l4.6402-7.48826,3.94129,2.44227Z"/><ellipse class="afb32c47-a4ac-4560-9865-15849f12a1d2" cx="12.35122" cy="4.20946" rx="4.00511" ry="4.98546" transform="translate(3.30177 13.61051) rotate(-64.91155)"/><g class="bf46d03e-f9c1-4055-9b89-c60327086f42"><polygon class="b55447a8-22d8-4ed9-aa5c-ab8bb5bb546c" points="101.248 302.347 -101.49 302.347 -101.364 -0.742 -92.451 -7.288 -71.621 -25.629 133.554 -25.629 134.005 276.447 101.248 302.347"/></g></g></g></svg>