<svg id="a6e8539e-e7cb-4dca-b88c-f72db4c33375" data-name="Layer 1" xmlns="http://www.w3.org/2000/svg" xmlns:xlink="http://www.w3.org/1999/xlink" viewBox="0 0 237.01818 31.74279"><defs><style>.aa73b805-cb2d-4190-901f-6ae243c108cb,.b13693f6-be25-4d9b-ace3-361317e01421{fill:none;}.f20d8160-604d-48a6-9f58-a698f6a055a6{clip-path:url(#f8cf079c-ec23-49a5-b464-705852495901);}.fdcd461f-493e-4604-81d5-79e2168ea789{fill:#eaccca;}.a8107aa1-45c6-4d50-b5f5-50ebec0743a5{clip-path:url(#f84ab27f-d71f-4508-9791-0fe08b2c07cb);}.e2e8791f-c9c9-4c25-895e-d16779d03627{fill:#b0ceb2;}.b029549c-d4d6-4d47-91c9-30fd330bcf6d{clip-path:url(#a0b37187-cae8-47c8-94e5-9b4e13c76346);}.ebf89d6b-b9b6-4303-9af9-da7c9f2a398f{fill:#eeddc4;}.b13693f6-be25-4d9b-ace3-361317e01421{stroke:#ee755b;stroke-linecap:round;stroke-linejoin:round;stroke-width:2px;}</style><clipPath id="f8cf079c-ec23-49a5-b464-705852495901"><rect class="aa73b805-cb2d-4190-901f-6ae243c108cb" x="-108.78746" y="233.66897" width="235.49085" height="29.6666"/></clipPath><clipPath id="f84ab27f-d71f-4508-9791-0fe08b2c07cb"><rect class="aa73b805-cb2d-4190-901f-6ae243c108cb" x="-106.7449" y="173.39414" width="235.49085" height="29.6666"/></clipPath><clipPath id="a0b37187-cae8-47c8-94e5-9b4e13c76346"><rect class="aa73b805-cb2d-4190-901f-6ae243c108cb" x="-106.7449" y="108.73721" width="235.49085" height="29.6666"/></clipPath></defs><title>Artboard 62</title><g class="f20d8160-604d-48a6-9f58-a698f6a055a6"><polygon class="fdcd461f-493e-4604-81d5-79e2168ea789" points="93.946 263.336 -108.792 263.336 -108.666 -39.753 -99.753 -46.3 -78.923 -64.641 126.252 -64.641 126.703 237.436 93.946 263.336"/></g><g class="a8107aa1-45c6-4d50-b5f5-50ebec0743a5"><polygon class="e2e8791f-c9c9-4c25-895e-d16779d03627" points="95.989 203.061 -106.75 203.061 -106.623 -100.028 -97.711 -106.574 -76.88 -124.916 128.295 -124.916 128.746 177.161 95.989 203.061"/></g><g class="b029549c-d4d6-4d47-91c9-30fd330bcf6d"><polygon class="ebf89d6b-b9b6-4303-9af9-da7c9f2a398f" points="95.989 138.404 -106.75 138.404 -106.623 -164.685 -97.711 -171.231 -76.88 -189.572 128.295 -189.572 128.746 112.504 95.989 138.404"/></g><path class="b13693f6-be25-4d9b-ace3-361317e01421" d="M1,20.273l72.49607.10609a.53139.53139,0,0,0,.47746-.35008l3.897-12.488c.36024-1.15438.79651-1.11964.96948.07721l3.08933,21.37591c.26109,1.80659.70486,1.80907.98616.00552l2.19476-15.18234s.11811-.98543.2228-.9888c.10866-.0035.24517.74282.24517.74282L86.75,20.02946a.52344.52344,0,0,0,.48523.39023l47.50686.14071.04315.00013,51.58184.22291a.52344.52344,0,0,0,.48752-.38736l1.20994-6.45105s.14091-.74549.24955-.74135c.10467.004.217.9901.217.9901l2.105,15.195c.27063,1.80518.71441,1.80532.98617.00031L194.8559,1.91829c.18-1.1958.61651-1.228.96992-.07148l3.80511,18.62432a.53139.53139,0,0,0,.47538.3529l35.91186.10609"/></svg>