<svg id="acd4b9d3-ab59-492a-a931-162bfa29f0ea" data-name="Layer 1" xmlns="http://www.w3.org/2000/svg" xmlns:xlink="http://www.w3.org/1999/xlink" viewBox="0 0 45.34174 45.59043"><defs><style>.b4291703-a0da-4acc-aeb7-64f4eaab1477,.e2c4b02a-9eaf-451a-aef7-904d0531e6f4,.f0a21a54-79e2-421c-ad69-e98bb2e41b6d,.f4392526-5093-4e44-a73c-2668efe53fbc{fill:none;}.bfeacaeb-fb5e-48e9-8d75-85b9e301261a{clip-path:url(#ad1af5b2-c2eb-4ee6-b315-da3e20897cf7);}.bcb77369-7415-4551-b1f6-69e5d3197ee2{fill:#eeddc4;}.bf6e858a-bed1-4cb2-8f0b-5f2b3f0d54b5{fill:#fff;}.e2c4b02a-9eaf-451a-aef7-904d0531e6f4,.f0a21a54-79e2-421c-ad69-e98bb2e41b6d,.f4392526-5093-4e44-a73c-2668efe53fbc{stroke:#fff;stroke-miterlimit:10;}.f4392526-5093-4e44-a73c-2668efe53fbc{stroke-width:1.47213px;}.f0a21a54-79e2-421c-ad69-e98bb2e41b6d{stroke-width:1.63679px;}.e2c4b02a-9eaf-451a-aef7-904d0531e6f4{stroke-width:1.7405px;}</style><clipPath id="ad1af5b2-c2eb-4ee6-b315-da3e20897cf7"><rect class="b4291703-a0da-4acc-aeb7-64f4eaab1477" x="-130.36733" y="298.75205" width="235.49085" height="29.6666"/></clipPath></defs><title>Artboard 52</title><g class="bfeacaeb-fb5e-48e9-8d75-85b9e301261a"><polygon class="bcb77369-7415-4551-b1f6-69e5d3197ee2" points="72.366 328.419 -130.372 328.419 -130.246 25.33 -121.333 18.783 -100.502 0.442 104.672 0.442 105.123 302.519 72.366 328.419"/></g><path class="bf6e858a-bed1-4cb2-8f0b-5f2b3f0d54b5" d="M8.46472,12.68823a5.83688,5.83688,0,1,0,6.551,5.81493,3.58353,3.58353,0,0,0-.07361-.88328A27.003,27.003,0,0,1,8.46472,12.68823Z"/><path class="f4392526-5093-4e44-a73c-2668efe53fbc" d="M6.47734,10.48a8.46872,8.46872,0,1,0,11.18822,8.244C11.11456,16.58939,6.47734,10.48,6.47734,10.48Z"/><path class="bf6e858a-bed1-4cb2-8f0b-5f2b3f0d54b5" d="M35.40478,12.68823a5.80239,5.80239,0,1,1-6.551,5.74133,3.58349,3.58349,0,0,1,.07361-.88328A26.49792,26.49792,0,0,0,35.40478,12.68823Z"/><path class="f4392526-5093-4e44-a73c-2668efe53fbc" d="M37.39216,10.48a8.46872,8.46872,0,1,1-11.18822,8.244C32.75494,16.58939,37.39216,10.48,37.39216,10.48Z"/><path class="f4392526-5093-4e44-a73c-2668efe53fbc" d="M6.47734,10.48s6.69821,8.90641,15.45741,8.90641c7.43428,0,11.77708-5.29968,22.15563-15.97265"/><path class="f4392526-5093-4e44-a73c-2668efe53fbc" d="M21.78754,13.79234a4.10385,4.10385,0,0,0-4.122,4.26918,1.92423,1.92423,0,0,0,.22082.58886,10.78025,10.78025,0,0,0,4.122.66246,15.20217,15.20217,0,0,0,4.19558-.58886,2.03776,2.03776,0,0,0,.07361-.66246A4.46655,4.46655,0,0,0,21.78754,13.79234Z"/><path class="f4392526-5093-4e44-a73c-2668efe53fbc" d="M13.61719,12.68823s7.6551-7.7287,16.63512,0"/><path class="f0a21a54-79e2-421c-ad69-e98bb2e41b6d" d="M10.67292,9.52314s10.59937-10.30494,22.52366,0"/><path class="e2c4b02a-9eaf-451a-aef7-904d0531e6f4" d="M7.65505,6.72609s13.83806-13.1756,28.265,0"/><polygon class="bf6e858a-bed1-4cb2-8f0b-5f2b3f0d54b5" points="19.727 23.288 24.29 23.288 21.935 26.968 19.727 23.288"/><path class="bf6e858a-bed1-4cb2-8f0b-5f2b3f0d54b5" d="M42.471,2.82493l2.87066-.88328-.58885,2.94427C44.75284,4.95953,44.09037,3.04575,42.471,2.82493Z"/><path class="bf6e858a-bed1-4cb2-8f0b-5f2b3f0d54b5" d="M3.09143,40.87961a1.09137,1.09137,0,0,1,.07361.51525V44.1183H2.64979V41.39486q0-.88329-1.1041-.88329H.29438v-.44163c.44164,0,.88328-.07361,1.32492-.07361a3.267,3.267,0,0,1,.95688.14721A1.12831,1.12831,0,0,1,3.09143,40.87961ZM.80962,44.1183H.29438V41.61568H.80962Z"/><path class="bf6e858a-bed1-4cb2-8f0b-5f2b3f0d54b5" d="M4.858,40.14354c.14722,0,.29443-.0736.51525-.0736a.797.797,0,0,1,.44164.0736c.14721.07361.29443.07361.368.14721s.22082.14722.29443.22082.14721.22082.22082.29443.07361.22082.14721.29443a1.62062,1.62062,0,0,1,.07361.58885v1.0305a3.18758,3.18758,0,0,1-.07361.368,1.24352,1.24352,0,0,1-.14721.368.57466.57466,0,0,1-.29443.29442,1.6085,1.6085,0,0,1-.368.22082,1.25256,1.25256,0,0,1-.51525.07361H5.00521c-.14722,0-.22082-.07361-.29443-.07361H4.63717v-.44164a3.69452,3.69452,0,0,0,.88328.14722.66357.66357,0,0,0,.368-.07361c.0736,0,.22082-.0736.22082-.14721.0736-.07361.14721-.14722.14721-.22082.07361-.07361.07361-.14721.14721-.22082a.2704.2704,0,0,0,.07361-.22082,3.18758,3.18758,0,0,1,.07361-.368V41.8365a1.82746,1.82746,0,0,0-.07361-.66246c0-.0736-.07361-.14721-.14721-.22082s-.07361-.14721-.14722-.22082-.14721-.0736-.29442-.14721a1.62068,1.62068,0,0,0-.58886-.07362.93357.93357,0,0,0-.44164.07361c-.14721,0-.22082.07361-.29443.07361l-.0736.0736v-.44164a.07208.07208,0,0,0,.0736-.0736A.76137.76137,0,0,1,4.858,40.14354Z"/><path class="bf6e858a-bed1-4cb2-8f0b-5f2b3f0d54b5" d="M7.87587,40.14354h.73606a1.43487,1.43487,0,0,1,.58886.07361,1.04613,1.04613,0,0,1,.44164.14721,1.01623,1.01623,0,0,1,.29443.22082,1.10694,1.10694,0,0,1,.29442.80967V44.1183H9.716V41.39485c0-.51524-.368-.80967-1.10411-.80967H7.87587Z"/><path class="bf6e858a-bed1-4cb2-8f0b-5f2b3f0d54b5" d="M14.35326,40.14354v.368a.86588.86588,0,0,0-.66246.88329V44.1183h-.51525V41.39486a.66357.66357,0,0,1,.07361-.368c0-.0736.0736-.14721.0736-.22082q.11041-.22081.22082-.22082h-2.061v-.368h2.87066Z"/><path class="bf6e858a-bed1-4cb2-8f0b-5f2b3f0d54b5" d="M18.40163,40.87961a1.09137,1.09137,0,0,1,.07361.51525V44.1183H17.96V41.39486c0-.51525-.368-.80968-1.1041-.80968H15.60457v-.44164c.44164,0,.88328-.0736,1.32492-.0736a3.26666,3.26666,0,0,1,.95689.14721A.975.975,0,0,1,18.40163,40.87961ZM16.11982,44.1183h-.51525V41.61568h.51525Z"/><path class="bf6e858a-bed1-4cb2-8f0b-5f2b3f0d54b5" d="M22.89164,40.87961a1.09151,1.09151,0,0,1,.0736.51525V44.1183H22.45V41.39486c0-.51525-.368-.80968-1.1041-.80968H20.09458v-.44164c.44164,0,.88328-.0736,1.32492-.0736a3.26666,3.26666,0,0,1,.95689.14721C22.59721,40.29076,22.74442,40.58518,22.89164,40.87961ZM20.53622,44.1183H20.021V41.61568h.51524Z"/><path class="bf6e858a-bed1-4cb2-8f0b-5f2b3f0d54b5" d="M28.33854,44.1183a.44258.44258,0,0,1-.29443-.0736v-.44164h.22082c.29443,0,.44164-.14721.44164-.51525V40.51158l-.44164.0736v-.44164a10.8947,10.8947,0,0,1,1.47213-.0736,2.74519,2.74519,0,0,1,.88328.14721.82419.82419,0,0,1,.51525.58886,1.09133,1.09133,0,0,1,.07361.51524V44.0447H30.694V41.32125c0-.51524-.368-.80967-1.1041-.80967H29.0746v2.57624a1.09888,1.09888,0,0,1-.22082.73606C28.92739,44.0447,28.633,44.1183,28.33854,44.1183Z"/><path class="bf6e858a-bed1-4cb2-8f0b-5f2b3f0d54b5" d="M32.90215,42.79338V40.21715h.51525v2.061l-.368.51525Z"/><path class="bf6e858a-bed1-4cb2-8f0b-5f2b3f0d54b5" d="M34.88953,42.79338V40.21715h.51525v2.061l-.368.51525Z"/><path class="bf6e858a-bed1-4cb2-8f0b-5f2b3f0d54b5" d="M36.58249,40.14354h.73606a1.43492,1.43492,0,0,1,.58886.07361,1.04613,1.04613,0,0,1,.44164.14721,1.01623,1.01623,0,0,1,.29443.22082,1.107,1.107,0,0,1,.29442.80967V44.1183h-.51524V41.39485c0-.51524-.368-.80967-1.10411-.80967h-.73606Z"/><path class="bf6e858a-bed1-4cb2-8f0b-5f2b3f0d54b5" d="M42.54463,43.97109v.07361h-.51524v-.07361a1.82941,1.82941,0,0,1,.0736-.58885,3,3,0,0,0,.14722-.51525c.0736-.22082.14721-.51525.22082-.80967l.44163-1.47214h-2.429v-.368h2.87067v.29442l-.44164,1.54574c-.07361.22082-.07361.368-.14722.44164,0,.14722-.0736.22082-.0736.368s-.07361.22082-.07361.29443-.0736.22081-.0736.29442ZM41.0725,45.59044h-.51525V41.76289h.51525Z"/><path class="bf6e858a-bed1-4cb2-8f0b-5f2b3f0d54b5" d="M3.09143,40.87961a1.09137,1.09137,0,0,1,.07361.51525V44.1183H2.64979V41.39486q0-.88329-1.1041-.88329H.29438v-.44163c.44164,0,.88328-.07361,1.32492-.07361a3.267,3.267,0,0,1,.95688.14721A1.12831,1.12831,0,0,1,3.09143,40.87961ZM.80962,44.1183H.29438V41.61568H.80962Z"/><path class="bf6e858a-bed1-4cb2-8f0b-5f2b3f0d54b5" d="M4.858,40.14354c.14722,0,.29443-.0736.51525-.0736a.797.797,0,0,1,.44164.0736c.14721.07361.29443.07361.368.14721s.22082.14722.29443.22082.14721.22082.22082.29443.07361.22082.14721.29443a1.62062,1.62062,0,0,1,.07361.58885v1.0305a3.18758,3.18758,0,0,1-.07361.368,1.24352,1.24352,0,0,1-.14721.368.57466.57466,0,0,1-.29443.29442,1.6085,1.6085,0,0,1-.368.22082,1.25256,1.25256,0,0,1-.51525.07361H5.00521c-.14722,0-.22082-.07361-.29443-.07361H4.63717v-.44164a3.69452,3.69452,0,0,0,.88328.14722.66357.66357,0,0,0,.368-.07361c.0736,0,.22082-.0736.22082-.14721.0736-.07361.14721-.14722.14721-.22082.07361-.07361.07361-.14721.14721-.22082a.2704.2704,0,0,0,.07361-.22082,3.18758,3.18758,0,0,1,.07361-.368V41.8365a1.82746,1.82746,0,0,0-.07361-.66246c0-.0736-.07361-.14721-.14721-.22082s-.07361-.14721-.14722-.22082-.14721-.0736-.29442-.14721a1.62068,1.62068,0,0,0-.58886-.07362.93357.93357,0,0,0-.44164.07361c-.14721,0-.22082.07361-.29443.07361l-.0736.0736v-.44164a.07208.07208,0,0,0,.0736-.0736A.76137.76137,0,0,1,4.858,40.14354Z"/><path class="bf6e858a-bed1-4cb2-8f0b-5f2b3f0d54b5" d="M7.87587,40.14354h.73606a1.43487,1.43487,0,0,1,.58886.07361,1.04613,1.04613,0,0,1,.44164.14721,1.01623,1.01623,0,0,1,.29443.22082,1.10694,1.10694,0,0,1,.29442.80967V44.1183H9.716V41.39485c0-.51524-.368-.80967-1.10411-.80967H7.87587Z"/><path class="bf6e858a-bed1-4cb2-8f0b-5f2b3f0d54b5" d="M14.35326,40.14354v.368a.86588.86588,0,0,0-.66246.88329V44.1183h-.51525V41.39486a.66357.66357,0,0,1,.07361-.368c0-.0736.0736-.14721.0736-.22082q.11041-.22081.22082-.22082h-2.061v-.368h2.87066Z"/><path class="bf6e858a-bed1-4cb2-8f0b-5f2b3f0d54b5" d="M18.40163,40.87961a1.09137,1.09137,0,0,1,.07361.51525V44.1183H17.96V41.39486c0-.51525-.368-.80968-1.1041-.80968H15.60457v-.44164c.44164,0,.88328-.0736,1.32492-.0736a3.26666,3.26666,0,0,1,.95689.14721A.975.975,0,0,1,18.40163,40.87961ZM16.11982,44.1183h-.51525V41.61568h.51525Z"/><path class="bf6e858a-bed1-4cb2-8f0b-5f2b3f0d54b5" d="M22.89164,40.87961a1.09151,1.09151,0,0,1,.0736.51525V44.1183H22.45V41.39486c0-.51525-.368-.80968-1.1041-.80968H20.09458v-.44164c.44164,0,.88328-.0736,1.32492-.0736a3.26666,3.26666,0,0,1,.95689.14721C22.59721,40.29076,22.74442,40.58518,22.89164,40.87961ZM20.53622,44.1183H20.021V41.61568h.51524Z"/><path class="bf6e858a-bed1-4cb2-8f0b-5f2b3f0d54b5" d="M28.33854,44.1183a.44258.44258,0,0,1-.29443-.0736v-.44164h.22082c.29443,0,.44164-.14721.44164-.51525V40.51158l-.44164.0736v-.44164a10.8947,10.8947,0,0,1,1.47213-.0736,2.74519,2.74519,0,0,1,.88328.14721.82419.82419,0,0,1,.51525.58886,1.09133,1.09133,0,0,1,.07361.51524V44.0447H30.694V41.32125c0-.51524-.368-.80967-1.1041-.80967H29.0746v2.57624a1.09888,1.09888,0,0,1-.22082.73606C28.92739,44.0447,28.633,44.1183,28.33854,44.1183Z"/><path class="bf6e858a-bed1-4cb2-8f0b-5f2b3f0d54b5" d="M32.90215,42.79338V40.21715h.51525v2.061l-.368.51525Z"/><path class="bf6e858a-bed1-4cb2-8f0b-5f2b3f0d54b5" d="M34.88953,42.79338V40.21715h.51525v2.061l-.368.51525Z"/><path class="bf6e858a-bed1-4cb2-8f0b-5f2b3f0d54b5" d="M36.58249,40.14354h.73606a1.43492,1.43492,0,0,1,.58886.07361,1.04613,1.04613,0,0,1,.44164.14721,1.01623,1.01623,0,0,1,.29443.22082,1.107,1.107,0,0,1,.29442.80967V44.1183h-.51524V41.39485c0-.51524-.368-.80967-1.10411-.80967h-.73606Z"/><path class="bf6e858a-bed1-4cb2-8f0b-5f2b3f0d54b5" d="M42.54463,43.97109v.07361h-.51524v-.07361a1.82941,1.82941,0,0,1,.0736-.58885,3,3,0,0,0,.14722-.51525c.0736-.22082.14721-.51525.22082-.80967l.44163-1.47214h-2.429v-.368h2.87067v.29442l-.44164,1.54574c-.07361.22082-.07361.368-.14722.44164,0,.14722-.0736.22082-.0736.368s-.07361.22082-.07361.29443-.0736.22081-.0736.29442ZM41.0725,45.59044h-.51525V41.76289h.51525Z"/><path class="bf6e858a-bed1-4cb2-8f0b-5f2b3f0d54b5" d="M3.09143,40.87961a1.09137,1.09137,0,0,1,.07361.51525V44.1183H2.64979V41.39486q0-.88329-1.1041-.88329H.29438v-.44163c.44164,0,.88328-.07361,1.32492-.07361a3.267,3.267,0,0,1,.95688.14721A1.12831,1.12831,0,0,1,3.09143,40.87961ZM.80962,44.1183H.29438V41.61568H.80962Z"/><path class="bf6e858a-bed1-4cb2-8f0b-5f2b3f0d54b5" d="M4.858,40.14354c.14722,0,.29443-.0736.51525-.0736a.797.797,0,0,1,.44164.0736c.14721.07361.29443.07361.368.14721s.22082.14722.29443.22082.14721.22082.22082.29443.07361.22082.14721.29443a1.62062,1.62062,0,0,1,.07361.58885v1.0305a3.18758,3.18758,0,0,1-.07361.368,1.24352,1.24352,0,0,1-.14721.368.57466.57466,0,0,1-.29443.29442,1.6085,1.6085,0,0,1-.368.22082,1.25256,1.25256,0,0,1-.51525.07361H5.00521c-.14722,0-.22082-.07361-.29443-.07361H4.63717v-.44164a3.69452,3.69452,0,0,0,.88328.14722.66357.66357,0,0,0,.368-.07361c.0736,0,.22082-.0736.22082-.14721.0736-.07361.14721-.14722.14721-.22082.07361-.07361.07361-.14721.14721-.22082a.2704.2704,0,0,0,.07361-.22082,3.18758,3.18758,0,0,1,.07361-.368V41.8365a1.82746,1.82746,0,0,0-.07361-.66246c0-.0736-.07361-.14721-.14721-.22082s-.07361-.14721-.14722-.22082-.14721-.0736-.29442-.14721a1.62068,1.62068,0,0,0-.58886-.07362.93357.93357,0,0,0-.44164.07361c-.14721,0-.22082.07361-.29443.07361l-.0736.0736v-.44164a.07208.07208,0,0,0,.0736-.0736A.76137.76137,0,0,1,4.858,40.14354Z"/><path class="bf6e858a-bed1-4cb2-8f0b-5f2b3f0d54b5" d="M7.87587,40.14354h.73606a1.43487,1.43487,0,0,1,.58886.07361,1.04613,1.04613,0,0,1,.44164.14721,1.01623,1.01623,0,0,1,.29443.22082,1.10694,1.10694,0,0,1,.29442.80967V44.1183H9.716V41.39485c0-.51524-.368-.80967-1.10411-.80967H7.87587Z"/><path class="bf6e858a-bed1-4cb2-8f0b-5f2b3f0d54b5" d="M14.35326,40.14354v.368a.86588.86588,0,0,0-.66246.88329V44.1183h-.51525V41.39486a.66357.66357,0,0,1,.07361-.368c0-.0736.0736-.14721.0736-.22082q.11041-.22081.22082-.22082h-2.061v-.368h2.87066Z"/><path class="bf6e858a-bed1-4cb2-8f0b-5f2b3f0d54b5" d="M18.40163,40.87961a1.09137,1.09137,0,0,1,.07361.51525V44.1183H17.96V41.39486c0-.51525-.368-.80968-1.1041-.80968H15.60457v-.44164c.44164,0,.88328-.0736,1.32492-.0736a3.26666,3.26666,0,0,1,.95689.14721A.975.975,0,0,1,18.40163,40.87961ZM16.11982,44.1183h-.51525V41.61568h.51525Z"/><path class="bf6e858a-bed1-4cb2-8f0b-5f2b3f0d54b5" d="M22.89164,40.87961a1.09151,1.09151,0,0,1,.0736.51525V44.1183H22.45V41.39486c0-.51525-.368-.80968-1.1041-.80968H20.09458v-.44164c.44164,0,.88328-.0736,1.32492-.0736a3.26666,3.26666,0,0,1,.95689.14721C22.59721,40.29076,22.74442,40.58518,22.89164,40.87961ZM20.53622,44.1183H20.021V41.61568h.51524Z"/><path class="bf6e858a-bed1-4cb2-8f0b-5f2b3f0d54b5" d="M28.33854,44.1183a.44258.44258,0,0,1-.29443-.0736v-.44164h.22082c.29443,0,.44164-.14721.44164-.51525V40.51158l-.44164.0736v-.44164a10.8947,10.8947,0,0,1,1.47213-.0736,2.74519,2.74519,0,0,1,.88328.14721.82419.82419,0,0,1,.51525.58886,1.09133,1.09133,0,0,1,.07361.51524V44.0447H30.694V41.32125c0-.51524-.368-.80967-1.1041-.80967H29.0746v2.57624a1.09888,1.09888,0,0,1-.22082.73606C28.92739,44.0447,28.633,44.1183,28.33854,44.1183Z"/><path class="bf6e858a-bed1-4cb2-8f0b-5f2b3f0d54b5" d="M32.90215,42.79338V40.21715h.51525v2.061l-.368.51525Z"/><path class="bf6e858a-bed1-4cb2-8f0b-5f2b3f0d54b5" d="M34.88953,42.79338V40.21715h.51525v2.061l-.368.51525Z"/><path class="bf6e858a-bed1-4cb2-8f0b-5f2b3f0d54b5" d="M36.58249,40.14354h.73606a1.43492,1.43492,0,0,1,.58886.07361,1.04613,1.04613,0,0,1,.44164.14721,1.01623,1.01623,0,0,1,.29443.22082,1.107,1.107,0,0,1,.29442.80967V44.1183h-.51524V41.39485c0-.51524-.368-.80967-1.10411-.80967h-.73606Z"/><path class="bf6e858a-bed1-4cb2-8f0b-5f2b3f0d54b5" d="M42.54463,43.97109v.07361h-.51524v-.07361a1.82941,1.82941,0,0,1,.0736-.58885,3,3,0,0,0,.14722-.51525c.0736-.22082.14721-.51525.22082-.80967l.44163-1.47214h-2.429v-.368h2.87067v.29442l-.44164,1.54574c-.07361.22082-.07361.368-.14722.44164,0,.14722-.0736.22082-.0736.368s-.07361.22082-.07361.29443-.0736.22081-.0736.29442ZM41.0725,45.59044h-.51525V41.76289h.51525Z"/><path class="bf6e858a-bed1-4cb2-8f0b-5f2b3f0d54b5" d="M3.09143,40.87961a1.09137,1.09137,0,0,1,.07361.51525V44.1183H2.64979V41.39486q0-.88329-1.1041-.88329H.29438v-.44163c.44164,0,.88328-.07361,1.32492-.07361a3.267,3.267,0,0,1,.95688.14721A1.12831,1.12831,0,0,1,3.09143,40.87961ZM.80962,44.1183H.29438V41.61568H.80962Z"/><path class="bf6e858a-bed1-4cb2-8f0b-5f2b3f0d54b5" d="M4.858,40.14354c.14722,0,.29443-.0736.51525-.0736a.797.797,0,0,1,.44164.0736c.14721.07361.29443.07361.368.14721s.22082.14722.29443.22082.14721.22082.22082.29443.07361.22082.14721.29443a1.62062,1.62062,0,0,1,.07361.58885v1.0305a3.18758,3.18758,0,0,1-.07361.368,1.24352,1.24352,0,0,1-.14721.368.57466.57466,0,0,1-.29443.29442,1.6085,1.6085,0,0,1-.368.22082,1.25256,1.25256,0,0,1-.51525.07361H5.00521c-.14722,0-.22082-.07361-.29443-.07361H4.63717v-.44164a3.69452,3.69452,0,0,0,.88328.14722.66357.66357,0,0,0,.368-.07361c.0736,0,.22082-.0736.22082-.14721.0736-.07361.14721-.14722.14721-.22082.07361-.07361.07361-.14721.14721-.22082a.2704.2704,0,0,0,.07361-.22082,3.18758,3.18758,0,0,1,.07361-.368V41.8365a1.82746,1.82746,0,0,0-.07361-.66246c0-.0736-.07361-.14721-.14721-.22082s-.07361-.14721-.14722-.22082-.14721-.0736-.29442-.14721a1.62068,1.62068,0,0,0-.58886-.07362.93357.93357,0,0,0-.44164.07361c-.14721,0-.22082.07361-.29443.07361l-.0736.0736v-.44164a.07208.07208,0,0,0,.0736-.0736A.76137.76137,0,0,1,4.858,40.14354Z"/><path class="bf6e858a-bed1-4cb2-8f0b-5f2b3f0d54b5" d="M7.87587,40.14354h.73606a1.43487,1.43487,0,0,1,.58886.07361,1.04613,1.04613,0,0,1,.44164.14721,1.01623,1.01623,0,0,1,.29443.22082,1.10694,1.10694,0,0,1,.29442.80967V44.1183H9.716V41.39485c0-.51524-.368-.80967-1.10411-.80967H7.87587Z"/><path class="bf6e858a-bed1-4cb2-8f0b-5f2b3f0d54b5" d="M14.35326,40.14354v.368a.86588.86588,0,0,0-.66246.88329V44.1183h-.51525V41.39486a.66357.66357,0,0,1,.07361-.368c0-.0736.0736-.14721.0736-.22082q.11041-.22081.22082-.22082h-2.061v-.368h2.87066Z"/><path class="bf6e858a-bed1-4cb2-8f0b-5f2b3f0d54b5" d="M18.40163,40.87961a1.09137,1.09137,0,0,1,.07361.51525V44.1183H17.96V41.39486c0-.51525-.368-.80968-1.1041-.80968H15.60457v-.44164c.44164,0,.88328-.0736,1.32492-.0736a3.26666,3.26666,0,0,1,.95689.14721A.975.975,0,0,1,18.40163,40.87961ZM16.11982,44.1183h-.51525V41.61568h.51525Z"/><path class="bf6e858a-bed1-4cb2-8f0b-5f2b3f0d54b5" d="M22.89164,40.87961a1.09151,1.09151,0,0,1,.0736.51525V44.1183H22.45V41.39486c0-.51525-.368-.80968-1.1041-.80968H20.09458v-.44164c.44164,0,.88328-.0736,1.32492-.0736a3.26666,3.26666,0,0,1,.95689.14721C22.59721,40.29076,22.74442,40.58518,22.89164,40.87961ZM20.53622,44.1183H20.021V41.61568h.51524Z"/><path class="bf6e858a-bed1-4cb2-8f0b-5f2b3f0d54b5" d="M28.33854,44.1183a.44258.44258,0,0,1-.29443-.0736v-.44164h.22082c.29443,0,.44164-.14721.44164-.51525V40.51158l-.44164.0736v-.44164a10.8947,10.8947,0,0,1,1.47213-.0736,2.74519,2.74519,0,0,1,.88328.14721.82419.82419,0,0,1,.51525.58886,1.09133,1.09133,0,0,1,.07361.51524V44.0447H30.694V41.32125c0-.51524-.368-.80967-1.1041-.80967H29.0746v2.57624a1.09888,1.09888,0,0,1-.22082.73606C28.92739,44.0447,28.633,44.1183,28.33854,44.1183Z"/><path class="bf6e858a-bed1-4cb2-8f0b-5f2b3f0d54b5" d="M32.90215,42.79338V40.21715h.51525v2.061l-.368.51525Z"/><path class="bf6e858a-bed1-4cb2-8f0b-5f2b3f0d54b5" d="M34.88953,42.79338V40.21715h.51525v2.061l-.368.51525Z"/><path class="bf6e858a-bed1-4cb2-8f0b-5f2b3f0d54b5" d="M36.58249,40.14354h.73606a1.43492,1.43492,0,0,1,.58886.07361,1.04613,1.04613,0,0,1,.44164.14721,1.01623,1.01623,0,0,1,.29443.22082,1.107,1.107,0,0,1,.29442.80967V44.1183h-.51524V41.39485c0-.51524-.368-.80967-1.10411-.80967h-.73606Z"/><path class="bf6e858a-bed1-4cb2-8f0b-5f2b3f0d54b5" d="M42.54463,43.97109v.07361h-.51524v-.07361a1.82941,1.82941,0,0,1,.0736-.58885,3,3,0,0,0,.14722-.51525c.0736-.22082.14721-.51525.22082-.80967l.44163-1.47214h-2.429v-.368h2.87067v.29442l-.44164,1.54574c-.07361.22082-.07361.368-.14722.44164,0,.14722-.0736.22082-.0736.368s-.07361.22082-.07361.29443-.0736.22081-.0736.29442ZM41.0725,45.59044h-.51525V41.76289h.51525Z"/><path class="bf6e858a-bed1-4cb2-8f0b-5f2b3f0d54b5" d="M1.91372,32.26762H4.49v.95689L3.8275,35.50632h0l-.44164,1.91377H1.91372l.44164-1.98738.58886-1.98738H.368v-2.2082H1.91372Z"/><path class="bf6e858a-bed1-4cb2-8f0b-5f2b3f0d54b5" d="M6.25652,31.67877h1.1041c-.14721.80967-.29443,1.54574-.368,2.28181H5.59406V33.887A10.15178,10.15178,0,0,1,6.25652,31.67877Zm1.98738,0H9.348c-.14721.80967-.29442,1.54574-.368,2.28181H7.65505L7.58144,33.887Q8.02309,32.34122,8.2439,31.67877Z"/><path class="bf6e858a-bed1-4cb2-8f0b-5f2b3f0d54b5" d="M10.82014,35.80074V32.34123h1.54574v2.35541l-.88328,1.1041Z"/><path class="bf6e858a-bed1-4cb2-8f0b-5f2b3f0d54b5" d="M16.267,32.26762c.22082,0,.44164-.0736.66246-.0736a1.62088,1.62088,0,0,1,.58886.0736,3.58822,3.58822,0,0,1,.51524.22082,1.082,1.082,0,0,1,.368.44164,3.82366,3.82366,0,0,1,.29442,1.76656A3.04616,3.04616,0,0,1,18.1072,36.684a2.15422,2.15422,0,0,1-1.69295.73607,3.69433,3.69433,0,0,1-.88328-.14721,1.6029,1.6029,0,0,1-.66246-.51525,1.679,1.679,0,0,1-.44164-.88328,2.861,2.861,0,0,1-.14722-1.1041V32.26762h1.54574v2.50263c0,.95688.22082,1.47213.66246,1.47213a.55352.55352,0,0,0,.51525-.368,2.19932,2.19932,0,0,0,.14721-1.1041,3.58581,3.58581,0,0,0-.14721-1.1041.49284.49284,0,0,0-.51525-.29443H16.267Z"/><path class="bf6e858a-bed1-4cb2-8f0b-5f2b3f0d54b5" d="M24.511,32.34123a9.88764,9.88764,0,0,1,1.39853-.07361,3.59755,3.59755,0,0,1,.95688.07361c.22082.0736.44164.0736.58886.22082a.73482.73482,0,0,1,.368.29443,1.60886,1.60886,0,0,1,.22082.368c.0736.14721.0736.29443.14721.44164V37.4937H26.64558V34.255c0-.51524-.29442-.73606-.80967-.73606a9.88911,9.88911,0,0,0-1.39853.0736V32.34123Z"/><path class="bf6e858a-bed1-4cb2-8f0b-5f2b3f0d54b5" d="M31.65084,37.42009H30.1051V32.26762h1.54574Z"/><path class="bf6e858a-bed1-4cb2-8f0b-5f2b3f0d54b5" d="M37.39216,32.26762v1.1041a.72836.72836,0,0,0-.51524.368,1.38659,1.38659,0,0,0-.14722.58885v3.09148H35.184V34.32861a1.05454,1.05454,0,0,1,.368-.80967H33.123V32.34123h4.26919Z"/><path class="bf6e858a-bed1-4cb2-8f0b-5f2b3f0d54b5" d="M40.042,32.26762a1.06381,1.06381,0,0,1,.14722.51525h.0736l.22082-.22082c.07361-.07361.22082-.14722.29443-.22082s.22082-.07361.368-.14721a1.43492,1.43492,0,0,1,.58886-.07361,1.38674,1.38674,0,0,1,.58885.14721,1.84514,1.84514,0,0,1,.51525.29443,1.18648,1.18648,0,0,1,.29443.51525,3.71014,3.71014,0,0,1,.22082,1.39853v2.87066h-2.429v-1.1777h.88328v-1.693A1.26534,1.26534,0,0,0,41.735,33.887c-.0736-.14722-.0736-.22082-.14721-.29443a.57308.57308,0,0,0-.51525-.22082.55641.55641,0,0,0-.29443.07361c-.0736,0-.14721.0736-.22082.14721-.14721.14721-.22082.22082-.22082.29443v.0736l-.14721,3.45951H38.64348l.29443-3.2387v-.51524a4.16809,4.16809,0,0,0-.22082-1.32492H40.042Z"/></svg>