<?xml version="1.0" encoding="utf-8"?>
<!-- Generator: Adobe Illustrator 23.0.0, SVG Export Plug-In . SVG Version: 6.00 Build 0)  -->
<svg version="1.1" id="baebdfd5-2f51-4f5e-b9bb-c48ef70d308c"
	 xmlns="http://www.w3.org/2000/svg" xmlns:xlink="http://www.w3.org/1999/xlink" x="0px" y="0px" viewBox="0 0 88.6 124.5"
	 style="enable-background:new 0 0 88.6 124.5;" xml:space="preserve">
<style type="text/css">
	.st0{fill:#FFFFFF;}
	.st1{fill:#EB2828;}
	.st2{fill:#262D1A;}
	.st3{fill:#AD2C27;}
	.st4{fill:#EC3B32;}
	.st5{fill:#EE4B3F;}
	.st6{fill:#FBE5DD;}
	.st7{fill:#AE322C;}
	.st8{fill:#B34E40;}
	.st9{fill:#B74E43;}
	.st10{fill:#B65749;}
	.st11{fill:#C06B5B;}
	.st12{fill:#E0B3A9;}
	.st13{fill:#BC6354;}
	.st14{fill:#BB5E4F;}
	.st15{fill:#B85A4B;}
	.st16{fill:#B55143;}
	.st17{fill:#B65446;}
	.st18{fill:#B04136;}
	.st19{fill:#C67466;}
	.st20{fill:#A52926;}
	.st21{fill:#CA7E71;}
	.st22{clip-path:url(#SVGID_2_);fill:#262D1A;}
	.st23{clip-path:url(#SVGID_2_);fill:#AE322C;}
	.st24{clip-path:url(#SVGID_2_);fill:#AD2C27;}
	.st25{clip-path:url(#SVGID_2_);fill:#F8F0ED;}
	.st26{clip-path:url(#SVGID_2_);fill:#F6EAE7;}
	.st27{clip-path:url(#SVGID_2_);fill:#B74E43;}
	.st28{clip-path:url(#SVGID_2_);fill:#D39086;}
	.st29{clip-path:url(#SVGID_2_);fill:#E8C8C1;}
	.st30{clip-path:url(#SVGID_2_);fill:#B34E40;}
	.st31{clip-path:url(#SVGID_2_);fill:#C06B5B;}
	.st32{clip-path:url(#SVGID_2_);fill:#BC6354;}
	.st33{clip-path:url(#SVGID_2_);fill:#B85A4B;}
	.st34{clip-path:url(#SVGID_2_);fill:#BB5E4F;}
	.st35{clip-path:url(#SVGID_2_);fill:#B55143;}
	.st36{clip-path:url(#SVGID_2_);fill:#B65446;}
	.st37{clip-path:url(#SVGID_2_);fill:#B65749;}
	.st38{clip-path:url(#SVGID_2_);fill:#B04136;}
	.st39{clip-path:url(#SVGID_2_);fill:#A52926;}
	.st40{clip-path:url(#SVGID_2_);fill:#CA7E71;}
	.st41{clip-path:url(#SVGID_2_);fill:#C67466;}
	.st42{fill:none;stroke:#AD2C27;stroke-width:0.5;stroke-miterlimit:10;}
	.st43{fill:#FEF5F2;}
</style>
<path class="st0" d="M2,2.3h84.6v1.4c0,17.4,0.1,34.8,0,52.2c-0.2,9.2-2,18.2-5.5,26.7c-4.3,10.8-11,20.5-19.5,28.5
	c-4.8,4.6-10.2,8.6-16.1,11.7c-0.6,0.3-1.2,0.3-1.8,0c-6.8-3.7-12.9-8.4-18.3-13.9C17,100.6,10.7,90.4,6.8,79.2
	c-2.5-7-4.1-14.4-4.6-21.9C1.9,52.6,2,47.8,2,43.1C2,29.9,2,16.7,2,3.5C2,3.1,2,2.8,2,2.3z"/>
<path class="st1" d="M2,2.1h84.6v1.4c0,17.4,0.1,34.8,0,52.2c-0.2,9.2-2,18.2-5.5,26.7c-4.3,10.8-11,20.5-19.5,28.5
	c-4.8,4.6-10.2,8.6-16.1,11.7c-0.6,0.3-1.2,0.3-1.8,0c-6.8-3.7-12.9-8.4-18.3-13.9C17,100.4,10.7,90.2,6.8,79
	c-2.5-7-4.1-14.4-4.6-21.9C1.9,52.4,2,47.6,2,42.9C2,29.7,2,16.5,2,3.3C2,2.9,2,2.6,2,2.1z M26.6,21.9c-1.7,0.2-3.4,0.3-5.1,0.5
	c1.8,1,3.5,1.9,5.3,2.9c-0.3,0.4-0.8,1-1.6,1.5c-0.9,0.6-1.8,0.7-2.3,0.8c4,0.8,7.1,0.7,9.3,0.5c2.9-0.3,5-1,9-1.3
	c1.1-0.1,3.2-0.2,5.8,0.3c0.6,0.1,1.1,0.2,1.4,0.3c-0.4,0.2-0.8,0.4-1.2,0.7c-0.5,0-1.1,0-1.6,0c0,2.4,0,4.7,0,7.1
	c-0.1,0.3-0.2,0.6-0.4,0.9c-0.1-0.3-0.2-0.6-0.3-0.9c0-2.4,0-4.7,0-7.1c-1.1,0-2.2,0-3.3,0c0,1.9,0,3.9,0,5.8
	c-6.1,0-12.2,0.1-18.3,0.1c-0.1,0-0.1,0.1-0.2,0.1c0,0.4,0,0.8,0,1.2c-0.2,0-0.5,0-0.7,0c0,0.3,0,0.7-0.1,1
	c-0.4,0.1-0.8,0.1-1.2,0.2c0,0.4,0,0.9,0,1.3c-0.3,0.1-0.6,0.1-0.9,0.2c0,13.3,0,26.7,0.1,40c0.2,0,0.4,0,0.8,0c4,0,7-0.2,8.4-0.2
	c4.1-0.1,8.1-0.3,12.2-0.4v12.3h2.8c0-4.2,0-8.3,0-12.4h1.2v12.6l2.9-0.3l0.1-0.1c0-0.1,0-0.1-0.1-0.2v-3.4h0.5
	c1.8-2.4,2.7-5.4,2.8-8.4l0.3-0.1c6,0.1,12,0.3,18,0.4c0-2,0-4-0.1-6c-0.1-11.3-0.1-22.6,0-33.7c-0.3,0-0.6,0-0.9,0
	c0-0.5-0.1-1-0.1-1.4c-0.4,0-0.7,0-1.1-0.1c0-0.4-0.1-0.8-0.1-1.1c-0.4,0-0.7-0.1-1.1-0.1c-0.1-0.5-0.1-1-0.2-1.5
	c-3.7,0-7.5,0-11.2,0.1c0-0.8,0.3-5.5-1.4-8c-0.2-0.3-0.5-0.7-1-1.2c-1.3-1.1-2.9-1.1-3.6-1.2c-2.4-0.1-7.5-0.4-14.2-0.6
	c-0.3-0.3-0.9-0.7-1.7-1c-0.8-0.3-1.4-0.4-1.9-0.4c-0.1,0.2-0.3,0.7-0.7,1.1c-0.6,0.5-1.2,0.6-1.6,0.6c-0.4,0-1.2,0.1-2-0.3
	C27,22.6,26.7,22.1,26.6,21.9z M48.2,114.1c0-0.9,0-1.8,0.1-2.7c0.1,0,0.1-0.1,0.2-0.1c0.1,0.4,0.3,0.8,0.4,1.3
	c0.1,0.6,0.2,1.1,0.2,1.5c0.3-0.9,0.9-3.1,0.1-5.7c-0.5-1.8-1.4-3-2-3.7l1.1-0.5v-2.1l-2.6,0.7c-0.4-0.6-0.9-1.2-1.3-1.8
	c1.3-0.4,2.7-0.8,4-1.2v-2.2l-5.6,1.6c-0.4-0.6-0.7-1.3-1.1-2.2c-0.3-0.8-0.5-1.6-0.6-2.2c-1.4-0.6-2.7-1.1-4.1-1.7
	c0.3,4.1,2.3,8,5.5,10.6v2.3l2.4-0.6l1.5,1.7l-3.9,1.2v2.2l5-1.4c0.1,0.2,0.3,0.4,0.4,0.7c0.2,0.4,0.4,0.8,0.4,1.1
	c-2,0.8-4,1.7-6,2.5c0,0.2,0,0.4,0,0.6c-0.5,0-1.1,0.1-1.6,0.1c0,0.3,0,0.6,0,1c2.9,0,5.8,0,8.7,0c0-0.3,0-0.7,0-1
	C48.9,114.1,48.5,114.1,48.2,114.1z M44.6,8.4c-3.5,4.3-2.8,9.1-2.8,13.8h2.8V8.4z M48.7,22.2c-0.1-4.8,0.7-9.6-2.8-13.7v13.7H48.7z
	 M41.2,85.4c-2.4,1.4-3.9,3.8-4.2,6.5l4.2-2.5V85.4z M20,26.2c1.6-0.3,3.2-0.6,4.7-0.9l-6.7-0.5c0.8,0.7,0.7,1.8,0.1,2.2
	c-0.4,0.3-1,0.3-1.6-0.1c0.3,0.7,1,1.2,1.7,1.2C19.2,28.1,20,27.3,20,26.2z M50.5,93.1H39.9c0.6,0.4,1.2,0.8,1.8,1.2
	c1.2-0.2,2.3-0.5,3.5-0.7c1.1,0.2,2.2,0.3,3.3,0.5C49.2,93.8,49.8,93.5,50.5,93.1z M42.4,97.1l5.9-1.7l-0.1-0.5h-5.8V97.1z
	 M50.7,91.6c-0.6-0.5-1.3-0.9-1.9-1.4c-1.2,0.2-2.4,0.5-3.6,0.7c-1.2-0.2-2.3-0.4-3.5-0.6c-0.6,0.4-1.2,0.8-1.8,1.2
	C43.5,91.6,47.1,91.6,50.7,91.6z"/>
<title>Artboard 2</title>
<path class="st2" d="M55.8,101.3c1.1,1.6,1.3,2.7,0.8,5.9c1.9-0.7,3.8-0.9,5.5,0.3c-1,2.9-4.2,4.4-7.1,3.3c-0.2-0.1-0.4-0.2-0.6-0.3
	c-1.2-0.6-1.4-1.8-1.6-2.9C52.5,105.1,53.7,102.6,55.8,101.3z"/>
<path class="st2" d="M78.7,67.1c1.3-1.7,2.7-3,4.9-2.9c0.9,3.2-2.5,7.2-5.7,6.8c-0.3-0.1-0.5-0.2-0.8-0.3c-2.7-2-3.4-5.7-1.6-8.5
	C77.4,63.1,78.2,64.9,78.7,67.1z"/>
<path class="st2" d="M4,17.1c1.9,0.4,3.1,1.5,4.3,4c0.6-1.9,2.1-3.4,4-4c1.7,2.6-0.4,6.8-3.9,8C4.7,24,2.9,20.7,4,17.1z"/>
<path class="st2" d="M14.5,62.6c1.9,2.7,1.3,6.4-1.2,8.5c-0.5,0.3-1,0.5-1.5,0.4c-3.2-0.2-5.6-3-5.4-6.2c0-0.1,0-0.1,0-0.2
	c1.7-0.3,3.1,0.4,5.1,2.5C11.8,65.7,12.5,63.8,14.5,62.6z"/>
<path class="st2" d="M62.9,99.7c1.8-1.2,3.5-1.9,5.6-1.2c-0.4,3.1-3.3,5.3-6.4,4.9c-0.2,0-0.5-0.1-0.7-0.1c-0.2-0.1-0.4-0.2-0.6-0.3
	c-2.4-1.9-2.1-7,0.5-8.9C62.7,95.6,63,97.5,62.9,99.7z"/>
<path class="st2" d="M76.7,34.5c2,0.5,3.5,2,4.2,3.9c0.6-2,2.1-3.6,4.1-4.3c1.5,3.1-0.6,7.6-3.9,8.2c-0.2,0-0.4,0-0.6,0
	C77.5,41.6,75.4,37.4,76.7,34.5z"/>
<path class="st2" d="M12.5,44.2c1.3,3-0.6,7-3.5,7.9c-0.4,0.1-0.8,0.1-1.2-0.1c-3.2-1.2-4.8-4.7-3.7-7.9c2.2,0.6,3.4,2.1,4.2,4.1
	C9,46.3,10.5,44.9,12.5,44.2z"/>
<path class="st2" d="M17.1,71.3c2.2,2.3,1.8,7.2-0.9,8.7c-0.8,0.3-1.6,0.4-2.4,0.2c-2.7-0.6-4.6-3.1-4.5-5.8c2-0.2,4,0.6,5.3,2.3
	C14.5,74.6,15.5,72.6,17.1,71.3z"/>
<path class="st2" d="M34.6,107.1c-0.1-1.3-0.2-2.7-0.2-4c0.1-0.7,0.3-1.3,0.6-1.9c3,1.3,4.4,6,2.6,8.5c-0.9,1.3-4,1.8-5.9,0.7
	c-1.1-0.8-2.1-1.7-3-2.6C30.4,106.5,32.7,106.3,34.6,107.1z"/>
<path class="st2" d="M4.1,35c2,0.6,3.6,2.1,4.2,4.1c0.7-1.9,2.2-3.4,4.1-4c1.4,2.9-0.6,7.2-3.6,7.8c-0.7,0-1.5-0.2-2.1-0.6
	C4.2,40.9,3.1,37.8,4.1,35z"/>
<path class="st2" d="M68,91.8c1.7-1,3.3-1.9,5.4-1.1c-0.1,3.3-4.3,6.2-7.2,4.8c-0.8-0.5-1.4-1.3-1.7-2.2c-1-2.4-0.4-5.1,1.5-6.8
	C67.6,87.9,67.9,89.7,68,91.8c-0.1,0-0.1,0-0.2,0.1L68,91.8z"/>
<path class="st2" d="M76.8,43.7c2.2,0.4,3.4,1.9,4.4,3.8c0.6-2,2.1-3.5,4.1-4.2c0.6,1.5,0.6,3.3-0.1,4.8c-0.8,1.8-2.1,3.4-4.1,3.4
	s-3.3-1.6-4.1-3.4C76.5,46.6,76.4,45.1,76.8,43.7z"/>
<path class="st2" d="M28.2,99.8c-0.2-2.3,0.1-4.1,1.6-5.7c2.6,1.9,3,6.6,0.8,8.8c-0.2,0.2-0.4,0.3-0.6,0.4c-2.9,1-6.1-0.6-7.1-3.6
	c-0.1-0.3-0.2-0.6-0.2-0.9C24.6,98,26.3,98.6,28.2,99.8z"/>
<path class="st2" d="M4.1,25.4c2,0.6,3.5,2.1,4.2,4.1c1.4-2.6,2.5-3.5,4.2-3.8c1.3,2.8-0.7,7.1-3.7,7.7c-0.9,0-1.7-0.2-2.4-0.7
	C4.1,31.1,3.1,28.1,4.1,25.4z"/>
<path class="st2" d="M70.4,78.4c1.5,1.5,2.2,3.6,1.9,5.7c1.7-1.3,3.5-2,5.5-1.4c-0.3,3.1-3.1,5.4-6.3,5.1c-0.3,0-0.5-0.1-0.8-0.1
	c-0.3-0.1-0.6-0.3-0.8-0.5C67.8,84.5,68,80.7,70.4,78.4z"/>
<path class="st2" d="M72.9,70.8c1.6,1,1.9,1.6,3,4.9c0.7-0.6,1.6-1.2,2.4-1.6c0.9-0.3,1.8-0.5,2.7-0.7c0.5,3.6-3.2,7.1-6.3,6.2
	c-1-0.5-1.8-1.3-2.2-2.3C71.3,75.3,71.5,72.7,72.9,70.8z"/>
<path class="st2" d="M12.5,54.4c1.6,2.8,0.1,7.2-2.8,8.2c-0.7,0.1-1.4,0-2.1-0.3c-2.7-1.1-4.2-4.1-3.4-7c2.2,0.3,3.5,1.6,4.6,3.5
	C9.3,56.9,10.7,55.2,12.5,54.4z"/>
<path class="st2" d="M76.1,16.6c2.1,0.5,3.3,1.9,4.3,3.8c0.6-2,2.1-3.5,4.1-4.2c1.3,3.1-0.2,6.7-3.3,8c-0.1,0-0.2,0.1-0.3,0.1
	c-0.3,0.1-0.6,0.1-0.9,0C76.9,23.5,75,19.6,76.1,16.6z"/>
<path class="st2" d="M12.8,83.3c1.9-0.6,4-0.1,5.5,1.1c-0.3-2.1,0.3-4.1,1.7-5.7c2.5,2.2,2.8,6,0.8,8.6c-0.5,0.4-1,0.7-1.7,0.8
	C16.1,88.6,13.2,86.4,12.8,83.3C12.8,83.4,12.8,83.3,12.8,83.3z"/>
<path class="st2" d="M17.4,91.1c2-0.7,3.8-0.1,5.6,1.2c-0.3-2,0.3-4.1,1.7-5.6c2.6,1.8,2.9,7,0.5,8.8c-1.2,0.8-2.7,0.8-4,0.2
	C19.1,95,17.7,93.2,17.4,91.1z"/>
<path class="st2" d="M84.7,24.6c1.5,3-0.6,7.5-3.8,8.1c-0.4,0.1-0.8,0-1.2-0.2c-2.9-1.2-4.4-4.4-3.5-7.4c1.6,0,2.9,1.1,4.4,3.5
	C81.3,26.8,82.8,25.3,84.7,24.6z"/>
<path class="st2" d="M81,58.1c0.8-1.9,2.5-3.3,4.5-3.7c0.9,3.2-0.9,6.5-4.1,7.5c-0.1,0-0.2,0-0.3,0.1c-0.3,0.1-0.6,0.1-0.9,0
	c-3-0.9-4.7-5.4-3.1-8C78.9,54.4,80,55.6,81,58.1z"/>
<path class="st2" d="M8.3,7.2c2.5,2.2,2.5,6.4,0.1,9C5.6,14.4,5.6,9.5,8.3,7.2z"/>
<path class="st2" d="M80.3,15.5c-2.6-2.3-2.7-6.3-0.4-8.9L80,6.5C82.7,8.3,82.9,13,80.3,15.5z"/>
<path class="st3" d="M45.1,77.3c-0.1,0-0.2,0-0.3,0c-8.2,0.2-16.5,0.5-24.7,0.7c0-13.4,0-26.8,0-40.2c0.3,0,0.6,0,1,0
	c0-0.5,0-1.1,0.1-1.6c0.1,0,0.3,0,0.4,0c0,0.7,0,1.4,0,2.1h-0.3h-0.7c0.2,12.5,0.2,25,0,37.7c0,0.5,0,1,0,1.6
	c8.2-0.2,16.5-0.4,24.7-0.6C45.1,77,45.1,77.1,45.1,77.3z"/>
<path class="st3" d="M21.5,36.1c0.3,0,0.6,0,0.8-0.1c0-0.3,0-0.6,0-0.8c0.3,0,0.5,0,0.8,0c0-0.5,0-0.9,0-1.4c0.2,0,0.3,0,0.5,0
	c0,0.3,0,0.7,0,1.1c0,0.3,0,0.5,0,0.7c-0.3,0-0.7,0-1,0.1v39.8c7.5-0.1,14.9-0.2,22.4-0.3c0,0.1,0,0.2,0,0.3
	c-7.6,0.1-15.2,0.2-22.8,0.4c0-0.5,0-1,0-1.4c0-17.3-0.1-23.9,0-36.1c0-0.4,0-0.9,0-1.5c-0.3,0-0.5,0-0.8,0
	C21.5,36.5,21.5,36.3,21.5,36.1z"/>
<path class="st4" d="M49,33.9V28c-0.6,0-1.2,0-1.8,0c0.4-0.2,0.8-0.4,1.2-0.7c0.4,0.1,1,0.5,1.5,1.1c0.3,0.5,0.5,0.9,0.6,1.6
	c0.1,1.2,0.2,2.4,0.2,3.6C50,33.8,49.5,33.8,49,33.9z"/>
<path class="st3" d="M42.2,33.8c0.1,0.1,0.2,0.2,0.4,0.3c0.4,0.3,0.8,0.4,0.8,0.4c0,0-0.3-0.1-0.6-0.1c0,0-0.4-0.1-0.9-0.1
	c-0.7-0.1-1.2,0-1.3,0c-5.7,0-11.4,0-17.1,0c-0.1-0.2-0.1-0.3-0.2-0.5c5.4,0,10.8,0,16.2,0C40.5,33.7,41.3,33.8,42.2,33.8z"/>
<path class="st1" d="M49.2,77.3c0,2.9,0,5.7,0,8.6c-0.2,0-0.3,0-0.5,0c0-2.8,0-5.7,0-8.5C48.8,77.3,49,77.3,49.2,77.3z"/>
<path class="st4" d="M46.6,27.9h-0.2H46.6z"/>
<path class="st5" d="M49,89.6v-0.2C49,89.4,49.1,89.5,49,89.6C49.1,89.5,49,89.6,49,89.6z"/>
<path class="st1" d="M34.6,107.1L34.6,107.1L34.6,107.1L34.6,107.1z"/>
<path class="st6" d="M45.9,75.5v0.4h-0.1h-0.1L45.9,75.5z"/>
<path class="st7" d="M45.5,76.4c-8.1,0.1-16.3,0.3-24.4,0.4c0-12.9,0-25.7,0-38.6c0.1,0,0.3,0,0.4,0c0.1,12.7,0.1,25.4,0.2,38.1
	c7.9-0.1,15.9-0.3,23.8-0.4C45.5,76.1,45.5,76.2,45.5,76.4z"/>
<path class="st8" d="M21.6,77.7h1.7H21.6z"/>
<path class="st8" d="M21.1,38.3c-0.2,0-0.4,0-0.7,0C20.7,38.3,20.9,38.3,21.1,38.3z"/>
<path class="st8" d="M20.7,77.7h0.5H20.7z"/>
<path class="st9" d="M41.5,77h0.2H41.5z"/>
<path class="st10" d="M53.5,77.1H55H53.5z"/>
<path class="st3" d="M23.4,74.7c0-13.1,0-26.3-0.1-39.4c0.1,0,0.3,0,0.4,0c0,13.1,0.1,26.3,0.1,39.4C23.6,74.7,23.5,74.7,23.4,74.7z
	"/>
<path class="st3" d="M66.9,74.5c0-13.1,0-26.3-0.1-39.4c0.1,0,0.3,0,0.4,0c0,13.1,0.1,26.3,0.1,39.4C67.2,74.5,67,74.5,66.9,74.5z"
	/>
<path class="st11" d="M24.9,75.4c0.5,0,1,0,1.5,0C25.9,75.3,25.4,75.4,24.9,75.4z"/>
<path class="st12" d="M51.6,77h0.5H51.6z"/>
<path class="st3" d="M23.4,74.7c0-0.2,0-0.4,0-0.6c7.3-0.1,14.5-0.1,21.8-0.2c0,0.2,0,0.4,0,0.7C37.9,74.6,30.7,74.7,23.4,74.7z"/>
<path class="st13" d="M40.2,49.9l-2.6-0.1v-0.4h2.6V49.9z"/>
<path class="st13" d="M40.2,66.1h-2.7v-0.3h2.6L40.2,66.1z"/>
<path class="st14" d="M40.2,47.1h-2.6v-0.3h2.6V47.1z"/>
<path class="st13" d="M37.5,45.3h2.6v0.3h-2.6V45.3z"/>
<path class="st15" d="M40.1,55.3h-2.6V55h2.6V55.3z"/>
<path class="st15" d="M37.5,68.3l2.6,0.1v0.3h-2.7L37.5,68.3z"/>
<path class="st14" d="M40.1,59.6l-2.6-0.1v-0.4h2.6V59.6z"/>
<path class="st14" d="M37.5,61.7h2.6V62h-2.6V61.7z"/>
<path class="st15" d="M40.1,58h-2.6v-0.4h2.6V58z"/>
<ellipse class="st14" cx="38.8" cy="38.9" rx="1.9" ry="0.2"/>
<path class="st16" d="M37.3,69.8H40C39.8,70.5,38.7,70.6,37.3,69.8z"/>
<path class="st15" d="M37.6,56.4h2.5v0.3h-2.5V56.4z"/>
<path class="st17" d="M37.6,50.6h2.5v0.3h-2.6L37.6,50.6z"/>
<path class="st15" d="M37.5,53.7c0.1,0,0.2-0.1,0.3-0.1c0.8,0,1.6,0.1,2.3,0.4h-2.6V53.7z"/>
<path class="st14" d="M40.1,60.7l-2.6-0.1v-0.4h2.6V60.7z"/>
<path class="st17" d="M37.6,52l2.5,0.1v0.4l-2.5-0.1V52z"/>
<path class="st11" d="M28.3,54h-2v-0.3h2V54z"/>
<path class="st10" d="M37.6,47.9l2.6,0.1v0.3h-2.6V47.9z"/>
<path class="st15" d="M40.1,64.9l-2.6-0.1v-0.4h2.6V64.9z"/>
<path class="st11" d="M41.1,59.7l2,0.3L43,60.5l-2-0.4L41.1,59.7z"/>
<path class="st15" d="M37.6,71l2.6,0.1v0.3h-2.6V71z"/>
<path class="st14" d="M41.1,66.9l2,0.3L43,67.7l-2-0.3L41.1,66.9z"/>
<path class="st10" d="M37.6,62.9h2.6v0.3h-2.6V62.9z"/>
<path class="st10" d="M41.1,65.5l2,0.3L43,66.2l-2-0.4L41.1,65.5z"/>
<path class="st17" d="M41.1,69.7L43,70v0.5l-2-0.3L41.1,69.7z"/>
<path class="st10" d="M26.2,45.2h2v0.3h-2V45.2z"/>
<path class="st15" d="M41.1,41.1l1.9,0.4v0.4l-2-0.3L41.1,41.1z"/>
<path class="st14" d="M26.3,42.4l2,0.2V43l-2-0.1V42.4z"/>
<path class="st8" d="M40.1,42.9h-2.6v-0.3h2.6V42.9z"/>
<path class="st13" d="M26.3,66.9l2,0.1v0.3h-2V66.9z"/>
<path class="st14" d="M28.2,41.7l-2-0.1v-0.3h2V41.7z"/>
<path class="st17" d="M41.2,58.2l1.9,0.4L43,59.1l-1.9-0.4L41.2,58.2z"/>
<path class="st14" d="M28.3,49.8l-2-0.1v-0.4h2V49.8z"/>
<path class="st13" d="M28.3,65.9h-2v-0.3h2V65.9z"/>
<path class="st10" d="M41.1,71.1l1.9,0.4v0.4l-1.9-0.3V71.1z"/>
<ellipse class="st15" cx="27.2" cy="46.8" rx="1.4" ry="0.2"/>
<path class="st14" d="M43,64.7l-2-0.3l0.1-0.4l2,0.3L43,64.7z"/>
<path class="st10" d="M42.9,61.8l-1.8-0.3l0.1-0.4l1.9,0.3L42.9,61.8z"/>
<path class="st8" d="M41.1,68.3l1.9,0.4v0.4l-1.9-0.3V68.3z"/>
<path class="st13" d="M28.3,48.2h-2v-0.3h2V48.2z"/>
<path class="st13" d="M26.3,39.8h2v0.3h-2V39.8z"/>
<path class="st16" d="M41.2,39.7l1.9,0.4L43,40.5l-1.9-0.3L41.2,39.7z"/>
<path class="st16" d="M42.9,43.4L41.1,43l0.1-0.4l1.9,0.4L42.9,43.4z"/>
<path class="st15" d="M43,44.8l-1.9-0.3l0.1-0.4l1.9,0.3L43,44.8z"/>
<path class="st14" d="M42.9,63.3L41,62.9l0.1-0.4l1.9,0.3L42.9,63.3z"/>
<path class="st14" d="M26.3,62.8h1.9v0.3h-2L26.3,62.8z"/>
<path class="st14" d="M26.3,54.7l2,0.1v0.3h-2V54.7z"/>
<path class="st10" d="M41.2,38.4l1.9,0.4L43,39.2l-1.9-0.3L41.2,38.4z"/>
<path class="st10" d="M41.1,56.8l1.9,0.3v0.5l-1.9-0.3V56.8z"/>
<path class="st18" d="M39,67.2c0.3,0,0.5,0,0.8-0.1c0.1,0,0.2,0.1,0.4,0.1l0,0l-0.1,0.2h-2.5v-0.3l0.9-0.1L39,67.2z"/>
<path class="st13" d="M31,49.5l-1.5,0.3l-0.1-0.4l1.5-0.3L31,49.5z"/>
<path class="st13" d="M31,69.9l-1.5,0.3l-0.1-0.5l1.5-0.3L31,69.9z"/>
<path class="st17" d="M34.9,62.8l1.5,0.2v0.4l-1.5-0.1V62.8z"/>
<path class="st11" d="M31,48.1l-1.5,0.3l-0.1-0.5l1.5-0.3L31,48.1z"/>
<path class="st13" d="M29.4,57.5l1.6-0.3l0.1,0.4L29.5,58L29.4,57.5z"/>
<path class="st11" d="M34.9,39.8l1.5,0.2v0.4l-1.5-0.2V39.8z"/>
<path class="st17" d="M28.2,39l-2-0.1v-0.3h2V39z"/>
<path class="st17" d="M28.3,70h-1.9v-0.2h2L28.3,70z"/>
<path class="st11" d="M34.9,41.2l1.5,0.2v0.5l-1.5-0.2V41.2z"/>
<path class="st15" d="M26.3,43.8l1.9,0.1v0.3h-1.9V43.8z"/>
<path class="st10" d="M41.1,55.4l1.9,0.3v0.4l-1.9-0.3V55.4z"/>
<path class="st16" d="M28.2,71.3h-2V71h2V71.3z"/>
<path class="st8" d="M26.3,68.3h2v0.3h-2V68.3z"/>
<path class="st10" d="M43,46.2l-1.9-0.3l0.1-0.4l1.9,0.4L43,46.2z"/>
<path class="st17" d="M41.1,46.9l1.9,0.3v0.4l-1.9-0.3V46.9z"/>
<path class="st9" d="M26.3,51.9l2,0.1v0.3h-2V51.9z"/>
<path class="st9" d="M43,53.3L41.1,53l0.1-0.4l1.9,0.3L43,53.3z"/>
<path class="st8" d="M43,54.8l-1.9-0.4l0.1-0.4l1.9,0.4L43,54.8z"/>
<path class="st11" d="M31,55.1l-1.5,0.2l-0.1-0.4l1.5-0.3L31,55.1z"/>
<path class="st14" d="M28.2,50.9h-2v-0.3h2V50.9z"/>
<path class="st16" d="M28.2,58l-2-0.1v-0.3h2V58z"/>
<path class="st13" d="M30.9,59.2l-1.5,0.2V59l1.5-0.2V59.2z"/>
<ellipse class="st10" cx="27.3" cy="59.1" rx="1.4" ry="0.2"/>
<path class="st16" d="M28.3,60.5h-2v-0.3h2V60.5z"/>
<path class="st15" d="M29.4,61.6l1.5-0.2l0.1,0.4L29.5,62L29.4,61.6z"/>
<path class="st8" d="M28.3,61.9h-2v-0.3h2V61.9z"/>
<path class="st17" d="M28.2,64.6h-2v-0.3h2V64.6z"/>
<path class="st10" d="M29.4,65.6l1.5-0.2l0.1,0.4l-1.5,0.3L29.4,65.6z"/>
<path class="st13" d="M31,68.6l-1.5,0.2l-0.1-0.4L31,68V68.6z"/>
<path class="st10" d="M34.9,50.5l1.5,0.2v0.4L34.9,51V50.5z"/>
<path class="st16" d="M34.9,38.6l1.5,0.1v0.4L34.8,39L34.9,38.6z"/>
<path class="st8" d="M41.2,48.3l1.9,0.4L43,49l-1.9-0.3L41.2,48.3z"/>
<path class="st14" d="M36.3,44.5l-1.5-0.2v-0.4l1.5,0.1V44.5z"/>
<path class="st8" d="M36.3,64.8l-1.4-0.2v-0.4l1.5,0.1L36.3,64.8z"/>
<path class="st17" d="M43,51.9l-1.9-0.3l0.1-0.4l1.9,0.3L43,51.9z"/>
<path class="st17" d="M31,45.4l-1.5,0.3l-0.1-0.4l1.5-0.3L31,45.4z"/>
<path class="st10" d="M29.4,67l1.5-0.2l0.1,0.4l-1.5,0.3L29.4,67z"/>
<path class="st16" d="M34.9,57.6h1.5v0.3h-1.5V57.6z"/>
<path class="st17" d="M36.3,43.1l-1.4-0.2l0.1-0.4l1.4,0.2L36.3,43.1z"/>
<path class="st17" d="M34.9,58.9l1.5,0.2v0.4l-1.5-0.2V58.9z"/>
<path class="st15" d="M31,52.2l-1.5,0.2V52l1.5-0.2V52.2z"/>
<path class="st13" d="M31,50.8L29.5,51l-0.1-0.4l1.5-0.3L31,50.8z"/>
<path class="st15" d="M31,60.4l-1.5,0.2l-0.1-0.4l1.5-0.3L31,60.4z"/>
<path class="st10" d="M34.9,69.7l1.5,0.2l-0.1,0.4l-1.5-0.2L34.9,69.7z"/>
<path class="st17" d="M43,50.5l-1.9-0.3l0.1-0.4l1.9,0.3L43,50.5z"/>
<path class="st8" d="M34.9,61.5l1.5,0.2v0.4L34.8,62L34.9,61.5z"/>
<path class="st16" d="M31,53.8L29.5,54l-0.1-0.4l1.5-0.3L31,53.8z"/>
<path class="st17" d="M29.4,41.3l1.5-0.2l0.1,0.4l-1.5,0.3L29.4,41.3z"/>
<path class="st8" d="M34.9,70.9l1.5,0.2v0.4L35,71.3L34.9,70.9z"/>
<path class="st10" d="M34.9,60.1l1.5,0.2v0.4l-1.5-0.2V60.1z"/>
<path class="st15" d="M33.5,45.6l-1.2-0.2V45l1.2,0.1V45.6z"/>
<path class="st17" d="M34.9,68.2l1.5,0.2v0.4l-1.5-0.1V68.2z"/>
<path class="st10" d="M36.3,67.6l-1.5-0.1v-0.4l1.5,0.1V67.6z"/>
<path class="st10" d="M32.4,61.4l1.2,0.2l0,0.4l-1.2-0.1L32.4,61.4z"/>
<path class="st8" d="M36.2,49.9l-1.4-0.2v-0.4l1.4,0.1V49.9z"/>
<path class="st16" d="M30.9,46.9L29.5,47v-0.4l1.5-0.2L30.9,46.9z"/>
<path class="st15" d="M33.5,56.7l-1.1-0.2v-0.4l1.2,0.1L33.5,56.7z"/>
<path class="st17" d="M38.3,44.1h1.8v0.3h-1.8V44.1z"/>
<path class="st14" d="M29.5,44l1.5-0.2l0.1,0.4l-1.5,0.3L29.5,44z"/>
<path class="st17" d="M31,38.8L29.5,39l-0.1-0.4l1.5-0.2L31,38.8z"/>
<path class="st15" d="M31,42.7L29.5,43l-0.1-0.4l1.5-0.3L31,42.7z"/>
<path class="st10" d="M29.5,39.9l1.5-0.2V40l-1.5,0.3V39.9z"/>
<path class="st17" d="M36.3,55.4l-1.4-0.2v-0.4l1.5,0.1L36.3,55.4z"/>
<path class="st10" d="M33.5,66l-1.2-0.2v-0.4l1.2,0.1V66z"/>
<path class="st17" d="M38.4,39.9h1.7v0.4c-0.6,0-1.2,0-1.7,0V39.9z"/>
<path class="st14" d="M32.4,57.3l1.2,0.2l-0.1,0.4l-1.2-0.1L32.4,57.3z"/>
<path class="st10" d="M34.9,47.8l1.4,0.2v0.4l-1.4-0.1V47.8z"/>
<path class="st17" d="M36.3,45.8l-1.4-0.2v-0.4l1.5,0.1L36.3,45.8z"/>
<path class="st15" d="M32.4,58.8l1.2,0.1v0.4l-1.2-0.1V58.8z"/>
<path class="st16" d="M33.5,52.4l-1.2-0.1v-0.4l1.2,0.1V52.4z"/>
<path class="st16" d="M36.3,54.1L34.8,54v-0.4l1.4,0.1L36.3,54.1z"/>
<path class="st14" d="M32.4,60l1.2,0.1v0.4l-1.2-0.1V60z"/>
<path class="st16" d="M36.2,52.6l-1.3-0.2V52l1.4,0.2L36.2,52.6z"/>
<path class="st10" d="M34.9,46.6l1.5,0.2l-0.1,0.4L34.8,47L34.9,46.6z"/>
<path class="st17" d="M36.3,66.2L34.8,66v-0.4l1.5,0.1V66.2z"/>
<path class="st8" d="M29.5,71l1.5-0.2l0.1,0.4l-1.5,0.2L29.5,71z"/>
<path class="st16" d="M33.5,55.3l-1.1-0.2v-0.4l1.2,0.1L33.5,55.3z"/>
<path class="st15" d="M32.4,66.8l1.2,0.2v0.4l-1.2-0.1V66.8z"/>
<path class="st14" d="M33.5,47l-1.2-0.2l0.1-0.4l1.2,0.2L33.5,47z"/>
<path class="st15" d="M32.4,50.4l1.2,0.1v0.4l-1.2-0.1V50.4z"/>
<path class="st17" d="M38.7,41.4h1.5v0.4c-0.5,0-1,0-1.5,0V41.4z"/>
<path class="st18" d="M30.4,56.5l-0.9,0.1l-0.1-0.4l1.4-0.1l-0.1,0.4H30.4z"/>
<path class="st17" d="M32.4,53.4l1.2,0.1v0.4l-1.2-0.1V53.4z"/>
<path class="st17" d="M32.4,70.8l1.2,0.1v0.3h-1.2V70.8z"/>
<path class="st16" d="M32.4,49.5l1.1-0.4l0.1,0.4l-0.5,0.2L32.4,49.5z"/>
<path class="st11" d="M28.1,56.3c-0.1,0.2-0.1,0.5-0.2,0.4c-0.5,0-1-0.1-1.5-0.2l1-0.3h0.5L28.1,56.3z"/>
<path class="st17" d="M31,63.1l-1.4,0.2l-0.1-0.4l1.5-0.2V63.1z"/>
<path class="st10" d="M32.4,42.3l1.1,0.2v0.4l-1.2-0.1L32.4,42.3z"/>
<path class="st14" d="M35.8,56.7h-0.9v-0.4l1.4,0.3L35.8,56.7z"/>
<path class="st16" d="M29.5,64.3l1.5-0.2l0.1,0.4l-1.4,0.2L29.5,64.3z"/>
<path class="st8" d="M32.4,64.1l1.2,0.2l-0.1,0.4l-1.2-0.1L32.4,64.1z"/>
<path class="st8" d="M32.4,48.1l1.1-0.4l0.1,0.4l-0.4,0.1L32.4,48.1z"/>
<path class="st16" d="M33.5,38.9l-1.1-0.1v-0.4l1.1,0.1V38.9z"/>
<path class="st16" d="M32.4,39.6l1.1,0.1v0.4L32.4,40V39.6z"/>
<path class="st17" d="M32.4,62.7l1.2,0.2v0.4l-1.2-0.1V62.7z"/>
<path class="st8" d="M32.4,41.1l1.2,0.2v0.4l-1.1-0.1L32.4,41.1z"/>
<path class="st9" d="M33.5,44.3l-1.1-0.1v-0.4l1.1,0.1V44.3z"/>
<path class="st11" d="M33.4,68.3l0.2,0.3l-1.1-0.1L33.4,68.3z"/>
<path class="st18" d="M38.7,41.4l-0.1,0.4c-0.4-0.1-0.7-0.1-1.1-0.2v-0.4L38.7,41.4z"/>
<path class="st19" d="M33.4,69.7l0.2,0.4c-0.2,0-0.5,0-0.7-0.1L33.4,69.7z"/>
<path class="st20" d="M33.4,69.7L32.8,70l-0.4-0.2v-0.2L33.4,69.7z"/>
<path class="st18" d="M38.4,39.9v0.4c-0.3,0-0.6-0.1-0.9-0.1v-0.3C37.5,39.9,38.4,39.9,38.4,39.9z"/>
<path class="st7" d="M27.4,56.2l-1,0.3l0,0c0-0.1,0-0.2,0-0.3H27.4z"/>
<path class="st20" d="M33.4,68.3l-0.9,0.2L33.4,68.3z"/>
<path class="st8" d="M35.8,56.7l0.5-0.2L35.8,56.7z"/>
<path class="st21" d="M32.4,49.5l0.7,0.2L32.4,49.5z"/>
<path class="st21" d="M32.4,48.1l0.7,0.2L32.4,48.1z"/>
<path class="st8" d="M37.6,44.1h0.6v0.3h-0.6V44.1z"/>
<path class="st19" d="M39,67.2l-0.6-0.1L39,67.2z"/>
<path class="st11" d="M30.4,56.5h0.4H30.4z"/>
<path class="st11" d="M26.4,56.2c0,0.1,0,0.2,0,0.3c-0.1,0-0.1-0.1-0.1-0.1L26.4,56.2z"/>
<path class="st19" d="M40.1,67.5l0.1-0.2L40.1,67.5z"/>
<path class="st19" d="M40.1,67.2c-0.1,0-0.2-0.1-0.4-0.1C39.9,67.2,40,67.2,40.1,67.2z"/>
<path class="st7" d="M28.1,56.3h-0.2C27.9,56.2,28,56.2,28.1,56.3z"/>
<path class="st13" d="M23.3,76.5h-0.7H23.3z"/>
<path class="st13" d="M24.3,76.5h-0.6H24.3z"/>
<path class="st11" d="M34.3,75.6h0.3H34.3z"/>
<path class="st13" d="M22.1,76.5h-0.3H22.1z"/>
<path class="st19" d="M40.9,75.1h-0.3H40.9z"/>
<path class="st19" d="M50.4,75.1c-0.3,0-0.5,0-0.8,0C49.9,75.1,50.2,75.1,50.4,75.1z"/>
<path class="st12" d="M49.7,75.5h1H49.7z"/>
<path class="st18" d="M24.1,48.2"/>
<path class="st18" d="M24.4,34"/>
<path class="st3" d="M21.3,38.5"/>
<path class="st18" d="M24.8,74.6"/>
<path class="st18" d="M42.4,74.5"/>
<path class="st3" d="M23.5,36"/>
<path class="st3" d="M22.2,35.7"/>
<path class="st3" d="M48.8,33.9c0,0.1,0.1,0.3,0.1,0.4c-0.3,0-1.3-0.1-2.2,0.5c-0.5,0.3-0.7,0.7-0.8,0.8c-0.4,0.6-0.4,1.2-0.4,1.4
	c0,1.1,0.1,17.6,0.2,40.2c-0.3,0-0.5,0-0.8,0c0.1-22.5,0.1-39-0.1-40.2c-0.1-1.1-0.7-1.8-0.7-1.8c-0.3-0.3-0.6-0.5-0.8-0.6
	c-0.4-0.1-0.9-0.3-1.3-0.4c0-0.2,0-0.3,0-0.5c0.4,0,1.6,0.2,2.5,1.1c0.3,0.3,0.5,0.6,0.6,0.8c0.1-0.2,0.1-0.4,0.3-0.6
	c0,0,0.2-0.3,0.4-0.5C46.4,34.2,47.4,33.9,48.8,33.9z"/>
<path class="st0" d="M29.6,22.8c-0.2,0-0.4,0-0.5,0v-2.4c0.3,0,0.7,0,1.1,0.2c0.2,0.1,0.5,0.2,0.8,0.6c0.2,0.2,0.3,0.3,0.3,0.5
	C31.3,22.2,30.4,22.8,29.6,22.8z"/>
<path class="st1" d="M30.7,22.7"/>
<path class="st0" d="M27.6,21.2c0.4-0.4,0.8-0.6,1-0.7v2.3c-0.1,0-0.5,0-0.9-0.3c-0.4-0.3-0.5-0.7-0.5-0.8
	C27.3,21.5,27.4,21.4,27.6,21.2z"/>
<g>
	<defs>
		
			<rect id="SVGID_1_" x="44.7" y="33.7" transform="matrix(-1 -4.488644e-11 4.488644e-11 -1 115.1549 111.1)" width="25.8" height="43.7"/>
	</defs>
	<clipPath id="SVGID_2_">
		<use xlink:href="#SVGID_1_"  style="overflow:visible;"/>
	</clipPath>
	<path class="st22" d="M15,62.3c1.8,2.8,1.1,6.5-1.6,8.5c-0.3,0.1-0.5,0.2-0.8,0.3c-3.2,0.4-6.6-3.6-5.7-6.8
		c2.2-0.1,3.6,1.2,4.9,2.9C12.3,65,13.1,63.2,15,62.3z"/>
	<path class="st22" d="M10,42.4c-0.2,0-0.4,0-0.6,0c-3.3-0.6-5.4-5.1-3.9-8.2c2,0.7,3.5,2.3,4.1,4.3c0.7-1.9,2.2-3.4,4.2-3.9
		C15.1,37.5,13,41.7,10,42.4z"/>
	<path class="st22" d="M13.5,48.2c-0.8,1.8-2.1,3.4-4.1,3.4S6.1,50,5.3,48.2c-0.7-1.5-0.7-3.3-0.1-4.8c2,0.7,3.5,2.2,4.1,4.2
		c1-1.9,2.2-3.4,4.4-3.8C14.1,45.2,14,46.7,13.5,48.2z"/>
	<path class="st22" d="M18,77.4c-0.4,1-1.2,1.8-2.2,2.3c-3.1,0.9-6.8-2.6-6.3-6.2c0.9,0.2,1.8,0.4,2.7,0.7c0.8,0.4,1.7,1,2.4,1.6
		c1.1-3.3,1.4-3.9,3-4.9C19,72.8,19.2,75.4,18,77.4z"/>
	<path class="st22" d="M13.4,54.1c1.6,2.6-0.1,7.1-3.1,8c-0.3,0.1-0.6,0.1-0.9,0C9.3,62,9.2,62,9.1,62c-3.2-1-5-4.3-4.1-7.5
		c2,0.4,3.7,1.8,4.5,3.7C10.5,55.7,11.6,54.5,13.4,54.1z"/>
	<path class="st23" d="M41.7,34.3l0.7,0.3l-0.5,0.2c-0.1,0.1-0.1,0-0.2,0h-0.5l-1.5-0.1h-0.3c-4.7,0-9.5,0-14.3,0
		c-0.5,0.1-0.9,0.1-1.3,0.2v1.2c0.1,0.6,0.1,1.1,0.1,1.7c0,11.9,0,23.8,0,35.7c0,0.4,0,0.9,0,1.3l-0.2,0.4c-0.1,0-0.1,0-0.2,0
		l-0.1-1.4c0-12.2,0-24.5,0-36.8c0-0.2-0.2-0.5-0.4-0.7l-0.2,0.8l-0.2,0.3h-0.3l-0.6,0.1v0.4v0.3v0.4v4.6v1.1c0,1.5,0,2.9,0,4.4v1.1
		v2.9V55v2.9v2.8v2.9v4v2.9v2.3v1.7l-0.1,2v0.6c-0.2-0.4-0.3-0.9-0.3-1.3c0-12,0-24,0-36c0-0.5-0.1-0.9-0.2-1.4
		c0-0.2,0.1-0.3,0.2-0.5c0-0.4-0.1-0.8-0.1-1.2l1-0.4l-0.1-0.2l1.1-1.3l0.2-1c3.8,0,7.6,0,11.4,0c1.7,0,3.4,0,5.1,0L41.7,34.3z"/>
	<path class="st24" d="M20.5,39.1c0,12.3,0,24.7,0,37c0,0.5,0,0.9,0,1.3h6.7h0.3h0.7h1.7l5.5-0.2h1.5h1v0.4
		C32,77.8,26.1,78,20.2,78.2V38c0.4-0.1,0.8-0.1,1.1-0.2c0,0.2-0.1,0.3-0.2,0.5C20.9,38.6,20.5,38.9,20.5,39.1z"/>
	<path class="st24" d="M51,33.7c5.4,0,10.8,0,16.2,0c-0.1,0.2-0.1,0.3-0.2,0.5c-10.7,0.1-16.3,0.1-17.1,0c-0.1,0-0.5,0-1.1,0
		c-0.6,0-1,0.1-1,0.1c-0.3,0.1-0.6,0.1-0.6,0.1c0,0,0.4-0.1,0.8-0.4c0.2-0.1,0.3-0.2,0.4-0.3C49.3,33.8,50.1,33.7,51,33.7z"/>
	<path class="st25" d="M37.2,47l0.4,0.2l2.1,0.1l0.1-0.3l-0.5-0.2h-0.8h-0.7h-0.5L37.2,47L37.2,47z M26.2,56.6l0.7,0.1h0.6
		c0,0.1,0.1,0,0.1,0v-0.4h-1.7l-0.2,0.1l0.2,0.2l0,0L26.2,56.6z M33,68.7l-0.2-0.3l-0.9,0.2L33,68.7z M38.3,42.6L37,42.5v0.4
		l1.1,0.2h1.2l0.5-0.4h-0.7L38.3,42.6z M34.3,56.3v0.4l0.9,0.1l0.6,0.1l0.1-0.2l-0.6-0.3L34.3,56.3z M29.4,42.6L29,42.8l0.1,0.2
		l1.4-0.2v-0.2L30,42.4L29.4,42.6z M30.5,56.5v-0.3l-1.4,0.1v0.3l0.5,0.1l0.3-0.1L30.5,56.5z M37.2,71L37,71.4l0.7,0.1h0.6L37.2,71z
		 M32.4,67.4l0.6,0.1l-0.1-0.4l-1,0.3H32.4z M27.6,50.6h-1.8v0.3l1.1,0.1h0.7L27.6,50.6z M39.6,44.5v-0.4h-2.5v0.2l0.6,0.2H39.6z
		 M25.9,62l1.9,0.1v-0.4l-1.2-0.1h-0.7V62z M39.7,64.8v-0.3l-2.5-0.1l-0.1,0.2l0.5,0.2l0.3,0.1L39.7,64.8z M37.9,48h-0.8v0.6
		l2.5-0.4l-0.5-0.1h-0.6L37.9,48z M39.6,56.3H37v0.4l2.6,0.2v-0.5V56.3z M39.7,70.3v-0.4h-2.6v0.4H39.7z M37.1,49.3v0.5l2.5,0.2
		v-0.5L37.1,49.3z M37,59.1v0.4l2.6,0.2v-0.6C39.6,59.1,37,59.1,37,59.1z M37,65.8v0.4l2.6,0.1v-0.5H37z M37.1,55.3h2.5V55l-2.5-0.1
		v0.5V55.3z M37.1,62h2.6v-0.3l-2.6-0.1v0.5V62z M37.1,39h2.6v-0.3l-2.6-0.1v0.5V39z M39.6,45.7v-0.3h-2.5v0.3H39.6z M37,67.1v0.4
		l2.6,0.2v-0.5L37,67.1z M37.1,57.7V58h2.5v-0.3H37.1z M39.5,69v-0.4L37,68.4v0.5L39.5,69z M42.5,60.6l0.1-0.4l-2-0.5l-0.1,0.5
		L42.5,60.6z M39.6,60.8v-0.4l-2.5-0.2v0.5L39.6,60.8z M37.1,50.7v0.4l2.5,0.1v-0.5H37.1z M37.1,52.1v0.4l2.5,0.2v-0.5L37.1,52.1z
		 M39.6,53.7h-2.5v0.4l2.5,0.2v-0.5V53.7z M42.5,67.7l0.1-0.4l-2-0.4l-0.1,0.5L42.5,67.7z M42.4,70.6l0.1-0.4l-1.8-0.4l-0.1,0.5
		L42.4,70.6z M40.6,41.4l-0.1,0.4l1.9,0.3l0.1-0.5L40.6,41.4z M39.6,63.4v-0.3h-2.5v0.3H39.6z M42.5,40.6l0.1-0.4l-1.9-0.4l-0.1,0.4
		L42.5,40.6z M39.6,41.8v-0.3l-2.5-0.1v0.4L39.6,41.8z M42.5,72l0.1-0.4l-1.9-0.4l-0.1,0.5L42.5,72z M25.8,65.6v0.5l2,0.1v-0.5
		L25.8,65.6z M25.8,49.4v0.4l2,0.1v-0.5H25.8z M25.8,44v0.4l1.9,0.1V44H25.8z M25.8,45.1v0.5h2v-0.3L25.8,45.1z M25.8,41.3v0.3h2
		v-0.3H25.8z M27.8,67.6v-0.5l-2-0.1v0.5L27.8,67.6z M37.1,40.1v0.3l2.5,0.1v-0.4C39.6,40.1,37.1,40.1,37.1,40.1z M27.8,40h-2v0.3
		l2,0.1v-0.5V40z M27.8,55.2v-0.3l-2-0.1v0.4L27.8,55.2z M27.8,47v-0.3l-2-0.1V47C25.8,47,27.8,47,27.8,47z M25.8,47.9v0.4h2V48
		L25.8,47.9z M42.5,61.9l0.1-0.4l-1.9-0.4l-0.1,0.5L42.5,61.9z M27.8,63.4V63h-2v0.3L27.8,63.4z M42.5,44.9l0.1-0.4l-1.9-0.4
		l-0.1,0.4L42.5,44.9z M40.6,62.7l-0.1,0.4l1.9,0.3l0.1-0.4L40.6,62.7z M25.8,42.4v0.5l2,0.2v-0.5L25.8,42.4z M42.4,43.4l0.1-0.4
		l-1.8-0.4l-0.1,0.5L42.4,43.4z M42.4,69.2l0.1-0.4l-1.9-0.4l-0.1,0.4L42.4,69.2z M27.8,70.3v-0.4h-2v0.3L27.8,70.3z M42.5,39.3
		l0.1-0.4l-1.9-0.4L40.6,39L42.5,39.3z M27.8,53.9v-0.3l-2-0.1l0.1,0.5L27.8,53.9z M42.4,46.3l0.1-0.4l-1.9-0.3V46L42.4,46.3z
		 M40.7,65.5l-0.1,0.4l1.9,0.4l0.1-0.4L40.7,65.5z M42.4,47.7l0.1-0.4l-1.8-0.4l-0.1,0.5L42.4,47.7z M42.4,59.2l0.1-0.4l-1.9-0.5
		l-0.1,0.5L42.4,59.2z M30.6,49.7l-0.1-0.5l-1.6,0.2l0.1,0.5L30.6,49.7z M35.8,42l0.1-0.4l-1.5-0.3l-0.1,0.5L35.8,42z M25.8,57.5V58
		l2,0.1v-0.5L25.8,57.5z M35.8,63.5l0.1-0.4l-1.5-0.2v0.5L35.8,63.5z M40.6,64l-0.1,0.4l1.9,0.4l0.1-0.5L40.6,64z M25.8,71.1v0.4
		l2,0.1v-0.5H25.8z M27.8,38.8h-2v0.3l2,0.1v-0.5V38.8z M29,48v0.4l1.5-0.1v-0.5L29,48z M25.8,52.1v0.3h2v-0.3H25.8z M35.9,58.1
		v-0.4l-1.5-0.2V58L35.9,58.1z M27.8,59.4v-0.3l-2-0.1v0.4C25.8,59.4,27.8,59.4,27.8,59.4z M25.8,60.3v0.3h2v-0.3H25.8z M27.8,64.7
		v-0.3h-2v0.3H27.8z M28.9,68.4l0.1,0.4l1.6-0.2l-0.1-0.5L28.9,68.4z M27.8,68.7v-0.3h-2v0.3H27.8z M40.6,54.1v0.3
		c0.3,0.1,0.6,0.1,0.9,0.2c0.3,0.1,0.7,0.1,1,0.2l0.1-0.4L40.6,54.1z M29,65.6V66l1.5-0.1v-0.4L29,65.6z M28.9,69.9l0.1,0.4l1.5-0.2
		v-0.5L28.9,69.9z M30.6,62l-0.1-0.5l-1.6,0.3l0.2,0.4L30.6,62z M34.4,38.7l-0.1,0.4l1.5,0.2l0.1-0.5L34.4,38.7z M34.4,39.9
		l-0.1,0.4l1.5,0.2l0.1-0.4L34.4,39.9z M40.7,52.6L40.6,53l1.9,0.4l0.1-0.4L40.7,52.6z M42.4,49.2l0.1-0.4l-1.8-0.5l-0.1,0.5
		L42.4,49.2z M30.5,45.5v-0.4l-1.6,0.2l0.1,0.5L30.5,45.5z M35.8,64.9l0.1-0.3l-1.4-0.3l-0.1,0.4L35.8,64.9z M42.5,57.7l0.1-0.4
		l-1.9-0.4l-0.1,0.5L42.5,57.7z M40.7,55.5l-0.1,0.4l1.9,0.4l0.1-0.5L40.7,55.5z M30.5,52.3v-0.4l-1.6,0.2l0.1,0.4L30.5,52.3z
		 M34.4,69.9l-0.1,0.4l1.5,0.2l0.1-0.5L34.4,69.9z M29,57.6V58l1.5-0.1v-0.5L29,57.6z M35.8,59.6v-0.4L34.3,59v0.4L35.8,59.6z
		 M40.6,51.2l-0.1,0.4l1.9,0.4l0.1-0.4L40.6,51.2z M40.7,49.8l-0.1,0.4l1.9,0.4l0.1-0.4L40.7,49.8z M30.5,60.5v-0.4l-1.4,0.1v0.5
		L30.5,60.5z M34.4,61.7v0.4l1.5,0.2v-0.5L34.4,61.7z M30.5,59.3v-0.5L29,59.1l0.2,0.4L30.5,59.3z M30.5,53.9v-0.4L29,53.6l0.1,0.5
		L30.5,53.9z M35.8,69v-0.4l-1.5-0.2v0.4L35.8,69z M35.8,71.7l0.1-0.4l-1.5-0.2v0.4L35.8,71.7z M35.8,44.6l0.1-0.4L34.5,44l-0.1,0.5
		L35.8,44.6z M34.4,52.1l-0.1,0.4l1.5,0.2l0.1-0.4L34.4,52.1z M30.5,55.2v-0.4L29,55l0.1,0.4L30.5,55.2z M28.9,50.6L29,51l1.5-0.2
		l-0.1-0.4L28.9,50.6z M30.6,41.6l-0.1-0.4L29,41.3l0.1,0.5L30.6,41.6z M31.9,69.7l-0.1,0.4l1.2,0.2l0.1-0.5L31.9,69.7z M35.7,60.8
		l0.1-0.4l-1.4-0.2l-0.1,0.4L35.7,60.8z M35.7,51.4l0.1-0.4l-1.4-0.3v0.4L35.7,51.4z M35.9,50v-0.4l-1.5-0.2v0.5L35.9,50z M33,48.4
		l0.1-0.4L32,47.7l-0.1,0.5L33,48.4z M34.4,45.3l-0.1,0.4l1.5,0.2l0.1-0.5L34.4,45.3z M31.9,61.5l-0.1,0.4l1.2,0.2l0.1-0.4
		L31.9,61.5z M28.9,71.1l0.1,0.4l1.5-0.1v-0.5L28.9,71.1z M30.5,46.9v-0.4L29,46.8l0.1,0.4L30.5,46.9z M33,45.7l0.1-0.4l-1.2-0.2
		v0.5L33,45.7z M33.1,56.8l0.1-0.4L32,56.2l-0.1,0.4L33.1,56.8z M35.8,43.1v-0.4l-1.4-0.1V43L35.8,43.1z M33,60.7l0.1-0.4l-1.2-0.2
		l-0.1,0.4L33,60.7z M34.4,54.9l-0.1,0.4l1.5,0.2l0.1-0.4L34.4,54.9z M32,65.4l-0.1,0.4l1.1,0.3l0.1-0.4L32,65.4z M35.8,66.3
		l0.1-0.4l-1.5-0.2l-0.1,0.4L35.8,66.3z M28.9,39.9l0.1,0.4l1.5-0.2v-0.4L28.9,39.9z M29,44.1v0.4l1.5-0.2v-0.5L29,44.1z M30.5,67.4
		V67l-1.4,0.2v0.4L30.5,67.4z M32,58.9l-0.1,0.4l1.1,0.2l0.1-0.5L32,58.9z M31.8,51.9v0.4l1.2,0.1V52L31.8,51.9z M35.8,48.6l0.1-0.4
		L34.5,48l-0.1,0.4L35.8,48.6z M35.7,67.7l0.1-0.4l-1.4-0.2v0.4L35.7,67.7z M33.1,55.4l0.1-0.4L32,54.8l-0.1,0.4L33.1,55.4z
		 M34.4,46.7l-0.1,0.4l1.5,0.3l0.1-0.5L34.4,46.7z M33.1,58.1l0.1-0.4L32,57.5l-0.1,0.4L33.1,58.1z M33,47.3l0.1-0.4L32,46.6
		L31.9,47L33,47.3z M35.7,54.2l0.1-0.4l-1.4-0.2v0.5L35.7,54.2z M31.9,53.5l-0.1,0.4l1.2,0.2l0.1-0.5L31.9,53.5z M33.1,49.8l0.1-0.4
		L32,49.2l-0.1,0.4L33.1,49.8z M32,50.4l-0.1,0.4L33,51l0.1-0.4L32,50.4z M30.5,38.9v-0.4l-1.4,0.1v0.5L30.5,38.9z M29,63l0.1,0.4
		l1.4-0.2l-0.1-0.5L29,63z M32,42.4l-0.1,0.4L33,43l0.1-0.4L32,42.4z M30.5,64.6v-0.4l-1.4,0.2v0.4L30.5,64.6z M32,41.2l-0.1,0.4
		l1.1,0.2l0.1-0.4L32,41.2z M33,39.1l0.1-0.4L32,38.5l-0.1,0.4L33,39.1z M32,39.7l-0.1,0.4l1.2,0.2v-0.4L32,39.7z M32,62.7l-0.1,0.4
		l1.1,0.2l0.1-0.4L32,62.7z M31.9,70.9l-0.1,0.4l1.2,0.2l0.1-0.4L31.9,70.9z M31.9,64.2l-0.1,0.4l1.2,0.2l0.1-0.4L31.9,64.2z
		 M33.1,44.4v-0.3l-1.2-0.2v0.4L33.1,44.4z M38.5,71.2v0.3h1.1v-0.4L38.5,71.2z"/>
	<path class="st26" d="M21.7,49.1c0-0.3,0-0.7,0-1.1c0-1.5,0-2.9,0-4.4c0-0.3,0-0.7,0-1.1c0-1.5,0-3.1,0-4.6v-0.4v-0.3v-0.4l0.6-0.1
		l0,0c0,12.6,0,25.1,0,37.6c0,0.4,0.1,0.9,0.2,1.3l7.2-0.1h0.6h0.5c0.6,0.2,1.2,0.3,1.8,0.5c-0.2,0-0.5,0-0.7,0l-2.7,0.1
		c-2.1,0-4.3,0.1-6.4,0.1c-0.4,0-0.8,0-1.2-0.1l0.1-2c0-0.5,0-1.1,0-1.7c0-0.7,0-1.5,0-2.3c0-0.9,0-1.9,0-2.9c0-1.3,0-2.7,0-4
		c0-0.9,0-1.9,0-2.9c0-0.9,0-1.9,0-2.8s0-1.9,0-2.9c0-0.7,0-1.5,0-2.3C21.7,51.3,21.7,50.3,21.7,49.1z"/>
	<path class="st27" d="M22.5,75.8c-0.1-0.4-0.2-0.9-0.2-1.3c0-12.6,0-25.1,0-37.6h0.3c0.1,0,0.1,0,0.2,0c0,12.8,0,25.6,0,38.4
		L22.5,75.8z"/>
	<path class="st28" d="M21.7,38.1c0,1.5,0,3.1,0,4.6C21.7,41.1,21.7,39.6,21.7,38.1z"/>
	<path class="st28" d="M21.7,43.8c0,1.5,0,2.9,0,4.4C21.7,46.7,21.7,45.3,21.7,43.8z"/>
	<path class="st28" d="M21.7,60.4c0,0.9,0,1.9,0,2.9C21.7,62.3,21.7,61.4,21.7,60.4z"/>
	<path class="st28" d="M21.7,54.7c0,0.9,0,1.9,0,2.9C21.7,56.6,21.7,55.6,21.7,54.7z"/>
	<path class="st28" d="M21.7,67.4c0,0.9,0,1.9,0,2.9C21.7,69.3,21.7,68.3,21.7,67.4z"/>
	<path class="st28" d="M21.7,49.4c0,0.9,0,1.9,0,2.9C21.7,51.3,21.7,50.3,21.7,49.4z"/>
	<path class="st28" d="M21.7,72.7c0,0.5,0,1.1,0,1.7C21.7,73.8,21.7,73.2,21.7,72.7z"/>
	<path class="st29" d="M23.3,74.8l-0.1-1.4L23.3,74.8z"/>
	<path class="st30" d="M23.6,34.5c0,0.4,0,0.8,0,1.2C23.6,35.3,23.7,34.9,23.6,34.5z"/>
	<path class="st31" d="M22.3,36.9L21.7,37L22.3,36.9z"/>
	<path class="st30" d="M41.5,34.4H41H41.5z"/>
	<path class="st28" d="M21.7,37.3v0.3V37.3z"/>
	<path class="st32" d="M22.8,36.6v0.3c-0.1,0-0.1,0-0.2,0L22.8,36.6z"/>
	<path class="st30" d="M39.6,34.3h-0.3H39.6z"/>
	<path class="st31" d="M39.7,57l-2.6-0.2v-0.4h2.5L39.7,57z"/>
	<path class="st33" d="M37.1,69.9h2.6v0.4h-2.6V69.9z"/>
	<path class="st34" d="M39.6,50.1l-2.5-0.2v-0.5l2.5,0.1V50.1z"/>
	<path class="st34" d="M39.6,59.7L37,59.5v-0.4h2.6V59.7z"/>
	<path class="st32" d="M39.7,66.3l-2.6-0.1v-0.4h2.5L39.7,66.3z"/>
	<path class="st32" d="M37.2,55l2.5,0.1v0.3h-2.6L37.2,55z"/>
	<path class="st35" d="M37.1,61.7l2.6,0.1v0.3h-2.6V61.7z"/>
	<path class="st34" d="M37.1,38.7l2.6,0.1v0.3h-2.6V38.7z"/>
	<path class="st34" d="M37.2,45.4h2.5v0.3h-2.6L37.2,45.4z"/>
	<path class="st32" d="M39.7,67.8l-2.6-0.2v-0.4h2.5L39.7,67.8z"/>
	<ellipse class="st36" cx="38.3" cy="57.9" rx="1.8" ry="0.2"/>
	<path class="st35" d="M37.1,68.4l2.5,0.2V69L37,68.9L37.1,68.4z"/>
	<path class="st31" d="M40.6,59.6l2,0.5l-0.1,0.5l-2-0.4L40.6,59.6z"/>
	<path class="st37" d="M37.1,60.2l2.5,0.2v0.4l-2.5-0.1V60.2z"/>
	<path class="st35" d="M39.6,51.2l-2.5-0.1v-0.4h2.5V51.2z"/>
	<path class="st36" d="M39.6,52.8l-2.5-0.2v-0.4h2.5V52.8z"/>
	<path class="st34" d="M39.6,54.4l-2.5-0.2v-0.4h2.5V54.4z"/>
	<path class="st32" d="M40.6,66.9l2,0.4l-0.1,0.4l-2-0.3L40.6,66.9z"/>
	<path class="st35" d="M40.6,69.8l1.9,0.4v0.4l-1.9-0.3V69.8z"/>
	<path class="st33" d="M42.4,42l-1.9-0.3l0.1-0.4l1.9,0.3L42.4,42z"/>
	<path class="st36" d="M37.1,63.1h2.5v0.3h-2.5V63.1z"/>
	<path class="st35" d="M40.7,39.8l1.9,0.4l-0.1,0.4l-1.9-0.4L40.7,39.8z"/>
	<path class="st33" d="M37.1,41.4l2.5,0.1v0.3h-2.5V41.4z"/>
	<path class="st36" d="M40.7,71.2l1.9,0.4L42.5,72l-1.9-0.3L40.7,71.2z"/>
	<path class="st34" d="M27.8,66.2l-2-0.1v-0.5l2,0.1L27.8,66.2z"/>
	<path class="st34" d="M27.8,49.9l-2-0.1v-0.4h2L27.8,49.9z"/>
	<path class="st33" d="M27.7,44.4l-1.9-0.1v-0.4l1.9,0.1L27.7,44.4z"/>
	<path class="st35" d="M27.8,45.7h-2v-0.5l2,0.1L27.8,45.7z"/>
	<path class="st34" d="M27.8,41.6h-2v-0.3h2L27.8,41.6z"/>
	<path class="st32" d="M25.8,67l2,0.1v0.5l-2-0.1V67z"/>
	<path class="st36" d="M39.6,40.5l-2.5-0.1v-0.3h2.5V40.5z"/>
	<path class="st32" d="M27.8,40.3l-2-0.1v-0.3h2L27.8,40.3z"/>
	<path class="st33" d="M25.8,54.8l2,0.1v0.3h-2V54.8z"/>
	<path class="st35" d="M25.8,46.6l2,0.1V47h-2V46.6z"/>
	<path class="st32" d="M27.8,48.3h-2v-0.4l2,0.1L27.8,48.3z"/>
	<path class="st36" d="M40.7,61.2l1.9,0.4L42.5,62l-1.9-0.4L40.7,61.2z"/>
	<path class="st34" d="M25.8,63h2v0.4l-2-0.1V63z"/>
	<path class="st33" d="M40.7,44.1l1.9,0.4l-0.1,0.4l-1.9-0.4L40.7,44.1z"/>
	<path class="st30" d="M38.5,48.1h0.6l0.5,0.1l-2.5,0.4V48h0.8L38.5,48.1z"/>
	<path class="st37" d="M42.5,63.4l-2-0.4l0.1-0.4l1.9,0.4V63.4z"/>
	<path class="st37" d="M27.8,43.2l-2-0.2v-0.5l2,0.1L27.8,43.2z"/>
	<path class="st36" d="M40.6,42.6l1.9,0.4v0.4l-1.9-0.3V42.6z"/>
	<path class="st30" d="M40.6,68.5l1.9,0.3l-0.1,0.3l-1.9-0.3L40.6,68.5z"/>
	<path class="st38" d="M37.5,64.9c-0.2-0.1-0.3-0.1-0.5-0.2l0.1-0.2l2.5,0.1v0.3h-1.7C37.8,64.8,37.7,64.8,37.5,64.9z"/>
	<path class="st36" d="M25.8,69.9h2v0.4l-2-0.1V69.9z"/>
	<path class="st36" d="M40.7,38.6l1.9,0.4l-0.1,0.4L40.6,39L40.7,38.6z"/>
	<path class="st37" d="M25.8,53.6l2,0.1V54h-1.9L25.8,53.6z"/>
	<path class="st34" d="M40.6,45.5l1.9,0.4v0.4L40.6,46V45.5z"/>
	<path class="st37" d="M42.5,66.3l-1.9-0.4l0.1-0.4l1.9,0.4L42.5,66.3z"/>
	<path class="st36" d="M40.6,46.9l1.9,0.4v0.4l-1.9-0.3V46.9z"/>
	<path class="st36" d="M40.6,58.4l1.9,0.4l-0.1,0.3l-1.9-0.3L40.6,58.4z"/>
	<path class="st32" d="M28.8,49.3l1.6-0.2l0.1,0.5L29,49.9L28.8,49.3z"/>
	<path class="st31" d="M34.4,41.3l1.5,0.3L35.8,42l-1.5-0.2L34.4,41.3z"/>
	<path class="st35" d="M27.8,58.1l-2-0.1v-0.5l2,0.1L27.8,58.1z"/>
	<path class="st32" d="M34.4,62.8l1.5,0.3v0.5l-1.5-0.2V62.8z"/>
	<path class="st30" d="M42.4,64.8l-1.9-0.4l0.1-0.4l1.9,0.3L42.4,64.8z"/>
	<path class="st36" d="M27.8,71.5l-2-0.1V71l2,0.1L27.8,71.5z"/>
	<path class="st36" d="M27.8,39.1l-2-0.1v-0.3h2L27.8,39.1z"/>
	<path class="st32" d="M30.5,48.3L29,48.4V48l1.5-0.2V48.3z"/>
	<path class="st35" d="M27.8,52.4h-2v-0.3h2L27.8,52.4z"/>
	<path class="st33" d="M34.4,57.5l1.5,0.2v0.4L34.4,58V57.5z"/>
	<path class="st37" d="M25.8,59l2,0.1v0.3h-2V59z"/>
	<path class="st35" d="M27.8,60.6h-2v-0.3h2L27.8,60.6z"/>
	<path class="st36" d="M25.8,64.4h2v0.3h-2V64.4z"/>
	<path class="st32" d="M30.7,68.6l-1.6,0.2L29,68.4l1.5-0.3L30.7,68.6z"/>
	<path class="st30" d="M25.8,68.4h2v0.3h-2V68.4z"/>
	<path class="st30" d="M42.5,54.8c-0.3-0.1-0.7-0.1-1-0.2c-0.3-0.1-0.6-0.1-0.9-0.2l0.1-0.4l1.9,0.4L42.5,54.8z"/>
	<path class="st37" d="M30.5,66L29,66.1v-0.4l1.5-0.2V66z"/>
	<path class="st37" d="M30.5,70.1l-1.4,0.1L29,69.8l1.5-0.2V70.1z"/>
	<path class="st37" d="M28.9,61.7l1.5-0.2l0.1,0.5l-1.4,0.2L28.9,61.7z"/>
	<path class="st35" d="M35.8,39.2L34.3,39l0.1-0.4l1.5,0.2L35.8,39.2z"/>
	<path class="st36" d="M35.8,40.5l-1.5-0.2l0.1-0.4l1.5,0.2L35.8,40.5z"/>
	<path class="st27" d="M42.5,53.5l-1.9-0.4l0.1-0.4l1.9,0.3L42.5,53.5z"/>
	<path class="st30" d="M40.6,48.3l1.9,0.5l-0.1,0.4l-1.8-0.4V48.3z"/>
	<path class="st36" d="M29,45.3l1.5-0.2v0.4L29,45.8V45.3z"/>
	<path class="st30" d="M34.5,64.3l1.4,0.3l-0.1,0.3l-1.4-0.2L34.5,64.3z"/>
	<path class="st37" d="M40.7,56.9l1.9,0.4l-0.1,0.4l-1.9-0.3L40.7,56.9z"/>
	<path class="st36" d="M42.5,56.3l-1.9-0.4l0.1-0.4l1.9,0.3L42.5,56.3z"/>
	<path class="st33" d="M28.9,52.1l1.5-0.2l0.1,0.4L29,52.5L28.9,52.1z"/>
	<path class="st34" d="M35.8,70.4l-1.5-0.2l0.1-0.4l1.5,0.2L35.8,70.4z"/>
	<path class="st23" d="M38.4,47l0.7-0.2l0.5,0.2l-0.1,0.3l-2.1-0.1c-0.1-0.1-0.2-0.1-0.3-0.2l0,0c0.1,0,0.1-0.1,0.1-0.2h0.5L38.4,47
		z"/>
	<path class="st33" d="M30.5,57.9L29,58v-0.4l1.5-0.2V57.9z"/>
	<path class="st37" d="M34.3,59l1.5,0.2v0.4l-1.5-0.2V59z"/>
	<path class="st30" d="M42.5,52l-2-0.3l0.1-0.4l1.9,0.3V52z"/>
	<path class="st30" d="M42.5,50.6l-1.9-0.4l0.1-0.4l1.9,0.4L42.5,50.6z"/>
	<path class="st37" d="M29.1,60.3l1.5-0.2v0.4l-1.5,0.2V60.3z"/>
	<path class="st35" d="M35.9,62.3l-1.5-0.2v-0.4l1.5,0.1V62.3z"/>
	<path class="st36" d="M26.6,61.6l1.2,0.1v0.4l-2-0.2l0.1-0.3H26.6z"/>
	<path class="st32" d="M28.9,59.2l1.5-0.3l0.1,0.4l-1.3,0.2L28.9,59.2z"/>
	<path class="st36" d="M28.9,53.7l1.5-0.2l0.1,0.4l-1.4,0.2L28.9,53.7z"/>
	<path class="st35" d="M34.3,68.4l1.5,0.2V69l-1.5-0.2V68.4z"/>
	<path class="st30" d="M34.4,71.1l1.5,0.2l-0.1,0.4l-1.4-0.2V71.1z"/>
	<path class="st34" d="M34.5,44.1l1.4,0.2l-0.1,0.4l-1.4-0.2L34.5,44.1z"/>
	<path class="st35" d="M35.8,52.6l-1.5-0.2l0.1-0.4l1.5,0.3L35.8,52.6z"/>
	<path class="st35" d="M29,55l1.5-0.2v0.4l-1.4,0.2L29,55z"/>
	<path class="st37" d="M30.5,50.8l-1.4,0.3l-0.2-0.5l1.5-0.2L30.5,50.8z"/>
	<path class="st37" d="M29,41.4l1.5-0.2l0.1,0.4l-1.5,0.2L29,41.4z"/>
	<path class="st37" d="M33,70.3l-1.2-0.2l0.1-0.4l1.2,0.1L33,70.3z"/>
	<path class="st36" d="M37.9,44.1h1.7v0.4h-1.9L37.9,44.1z"/>
	<path class="st36" d="M34.4,60.2l1.4,0.2l-0.1,0.4l-1.4-0.2L34.4,60.2z"/>
	<path class="st32" d="M26.9,51l-1.1-0.1v-0.3h1.8V51L26.9,51z"/>
	<path class="st37" d="M34.5,50.6l1.4,0.3l-0.1,0.4l-1.4-0.2L34.5,50.6z"/>
	<path class="st36" d="M34.3,49.4l1.5,0.2V50l-1.4-0.1L34.3,49.4z"/>
	<path class="st36" d="M32.1,47.7l1.1,0.3l-0.1,0.4l-1.2-0.2L32.1,47.7z"/>
	<path class="st36" d="M35.8,45.8l-1.5-0.2l0.1-0.4l1.5,0.2L35.8,45.8z"/>
	<path class="st37" d="M33.1,62.1l-1.3-0.2l0.1-0.4l1.2,0.2V62.1z"/>
	<path class="st30" d="M30.5,71.4l-1.4,0.1L29,71.1l1.5-0.2V71.4z"/>
	<path class="st35" d="M29,46.7l1.5-0.2v0.4l-1.4,0.3L29,46.7z"/>
	<path class="st33" d="M31.9,45.2l1.2,0.2L33,45.8l-1.1-0.2L31.9,45.2z"/>
	<path class="st33" d="M32,56.2l1.2,0.2l-0.1,0.4l-1.2-0.2L32,56.2z"/>
	<path class="st36" d="M34.4,42.6l1.4,0.1v0.4L34.4,43V42.6z"/>
	<path class="st37" d="M31.9,60l1.2,0.2L33,60.6l-1.2-0.1L31.9,60z"/>
	<path class="st36" d="M35.8,55.5l-1.5-0.2l0.1-0.4l1.5,0.2L35.8,55.5z"/>
	<path class="st37" d="M33,66.1l-1.2-0.2l0.1-0.4l1.2,0.2L33,66.1z"/>
	<path class="st35" d="M34.4,65.7l1.5,0.2l-0.1,0.4l-1.5-0.2L34.4,65.7z"/>
	<path class="st36" d="M30.5,40.1l-1.4,0.2L29,39.9l1.5-0.2V40.1z"/>
	<path class="st33" d="M30.5,44.3L29,44.4V44l1.5-0.2V44.3z"/>
	<path class="st30" d="M29.1,67.1l1.4-0.1v0.4l-1.4,0.2V67.1z"/>
	<path class="st34" d="M32.9,59.5l-1.1-0.2l0.1-0.4l1.2,0.1L32.9,59.5z"/>
	<path class="st34" d="M33.1,52.4l-1.2-0.1v-0.4L33,52L33.1,52.4z"/>
	<path class="st34" d="M34.5,48l1.4,0.2l-0.1,0.4l-1.4-0.2L34.5,48z"/>
	<path class="st37" d="M34.5,67l1.4,0.2l-0.1,0.4l-1.4-0.1L34.5,67z"/>
	<path class="st35" d="M32,54.8l1.2,0.2l-0.1,0.4l-1.2-0.2L32,54.8z"/>
	<path class="st37" d="M35.8,47.4l-1.5-0.3l0.1-0.4l1.5,0.2L35.8,47.4z"/>
	<path class="st33" d="M32,57.4l1.2,0.2L33.1,58l-1.2-0.1L32,57.4z"/>
	<path class="st34" d="M32.1,46.5l1.1,0.3l-0.1,0.4L31.9,47L32.1,46.5z"/>
	<path class="st37" d="M34.5,53.6l1.4,0.2l-0.1,0.4l-1.4-0.1L34.5,53.6z"/>
	<path class="st36" d="M33,54.1l-1.2-0.2l0.1-0.4l1.2,0.1L33,54.1z"/>
	<path class="st35" d="M32,49.2l1.2,0.2l-0.1,0.4l-1.2-0.2L32,49.2z"/>
	<path class="st30" d="M31.9,67.4l1-0.3l0.1,0.4l-0.6-0.1H31.9z"/>
	<path class="st30" d="M37.7,71.5L37,71.4l0.2-0.4l1.1,0.5H37.7z"/>
	<path class="st33" d="M33,51.1l-1.1-0.2l0.1-0.4l1.1,0.1L33,51.1z"/>
	<path class="st30" d="M29,38.7l1.4-0.2l0.1,0.4l-1.4,0.2L29,38.7z"/>
	<path class="st35" d="M30.5,63.2l-1.4,0.2L29,63l1.4-0.3L30.5,63.2z"/>
	<path class="st38" d="M27.6,56.9C27.6,56.9,27.6,56.9,27.6,56.9h-0.7l-0.7-0.1c-0.1-0.1-0.2-0.1-0.3-0.1l0,0v-0.3h1.7L27.6,56.9z"
		/>
	<path class="st30" d="M29.5,56.7l-0.5,0v-0.3l1.4-0.2l0.1,0.3l-0.6,0.1L29.5,56.7z"/>
	<path class="st35" d="M33,43l-1.1-0.2l0.1-0.4l1.1,0.2L33,43z"/>
	<path class="st35" d="M29,64.4l1.4-0.2l0.1,0.4l-1.4,0.2L29,64.4z"/>
	<path class="st35" d="M38.2,43.1L37.1,43v-0.4l1.3,0.1L38.2,43.1z"/>
	<path class="st30" d="M33,41.8l-1.1-0.2l0.1-0.4l1.1,0.2L33,41.8z"/>
	<path class="st35" d="M32,38.5l1.1,0.2L33,39.1l-1.1-0.2L32,38.5z"/>
	<path class="st35" d="M33.1,40.4l-1.2-0.2l0.1-0.4l1.1,0.1L33.1,40.4z"/>
	<path class="st36" d="M33,63.3l-1.1-0.2l0.1-0.4l1.1,0.2L33,63.3z"/>
	<path class="st30" d="M33,71.5l-1.2-0.2l0.1-0.4l1.2,0.2L33,71.5z"/>
	<path class="st30" d="M33,64.8l-1.2-0.2l0.1-0.4l1.2,0.2L33,64.8z"/>
	<path class="st27" d="M31.9,43.9l1.1,0.2v0.3l-1.1-0.1V43.9z"/>
	<path class="st33" d="M39.6,71.5h-1.1v-0.3l1.1-0.1V71.5z"/>
	<path class="st38" d="M30,42.3l0.5,0.2v0.2l-1.4,0.2L29,42.7l0.4-0.2L30,42.3z"/>
	<path class="st34" d="M35.3,56.9l-0.9-0.1v-0.4h0.9V56.9z"/>
	<path class="st39" d="M39.2,42.7l0.2,0.4h-1.2l0.2-0.4H39.2z"/>
	<path class="st33" d="M36,56.8L35.9,57l-0.6-0.1v-0.5L36,56.8z"/>
	<path class="st27" d="M37.1,44.3v-0.2h0.8l-0.2,0.4L37.1,44.3z"/>
	<path class="st31" d="M32.8,68.4l0.2,0.3l-1.1-0.1L32.8,68.4z"/>
	<path class="st39" d="M32.8,68.4l-0.9,0.2L32.8,68.4z"/>
	<path class="st35" d="M39.9,42.7l-0.5,0.4l-0.3-0.4H39.9z"/>
	<path class="st39" d="M26.6,61.6h-0.7H26.6z"/>
	<path class="st23" d="M26.9,51h0.7H26.9z"/>
	<path class="st33" d="M38.4,46.8c0,0.1,0,0.1,0,0.2c-0.2-0.1-0.5-0.1-0.7-0.2H38.4z"/>
	<path class="st40" d="M39.1,46.8c-0.2,0.1-0.5,0.1-0.7,0.2c0-0.1,0-0.1,0-0.2H39.1z"/>
	<path class="st40" d="M38.5,48.1L37.9,48L38.5,48.1z"/>
	<path class="st40" d="M31.9,67.3l0.5,0.1L31.9,67.3z"/>
	<path class="st40" d="M39.6,48.2l-0.5-0.1L39.6,48.2z"/>
	<path class="st31" d="M26.9,56.8h0.6H26.9z"/>
	<path class="st33" d="M37.7,71.5h0.6H37.7z"/>
	<path class="st31" d="M27.6,56.8v-0.4V56.8z"/>
	<path class="st41" d="M30,42.4l-0.6,0.1L30,42.4z"/>
	<path class="st31" d="M29.6,56.7l0.3-0.1L29.6,56.7z"/>
	<path class="st31" d="M25.7,56.4l0.2-0.1v0.3L25.7,56.4z"/>
	<path class="st33" d="M37.1,47c0.1,0.1,0.2,0.1,0.3,0.2C37.4,47.1,37.3,47.1,37.1,47z"/>
	<path class="st33" d="M37.3,46.8c0,0.1-0.1,0.1-0.1,0.2L37.3,46.8z"/>
	<path class="st31" d="M25.9,56.6c0.1,0.1,0.2,0.1,0.3,0.1C26.1,56.7,26,56.6,25.9,56.6z"/>
	<path class="st37" d="M37.6,64.8c0.1,0.1,0.2,0.1,0.3,0.1C37.8,64.8,37.7,64.8,37.6,64.8z"/>
	<path class="st32" d="M50.3,49.5h2.6v0.4L50.3,50V49.5z"/>
	<path class="st32" d="M50.4,65.9H53v0.3h-2.7L50.4,65.9z"/>
	<path class="st34" d="M50.3,46.9h2.6v0.3h-2.6V46.9z"/>
	<path class="st32" d="M53,45.7h-2.6v-0.3H53V45.7z"/>
	<path class="st33" d="M50.4,55.1H53v0.3h-2.6V55.1z"/>
	<path class="st33" d="M53.1,68.8h-2.7v-0.3l2.6-0.1L53.1,68.8z"/>
	<path class="st34" d="M50.4,59.2H53v0.4l-2.6,0.1V59.2z"/>
	<path class="st34" d="M53,62.1h-2.6v-0.3H53V62.1z"/>
	<path class="st33" d="M50.4,57.7H53v0.4h-2.6V57.7z"/>
	<ellipse class="st34" cx="51.7" cy="39" rx="1.9" ry="0.2"/>
	<path class="st35" d="M50.5,69.9h2.7C51.8,70.7,50.7,70.6,50.5,69.9z"/>
	<path class="st33" d="M52.9,56.8h-2.5v-0.3h2.5V56.8z"/>
	<path class="st36" d="M53,51h-2.6v-0.3h2.5L53,51z"/>
	<path class="st33" d="M53,54.1h-2.6c0.7-0.3,1.5-0.4,2.3-0.4c0.1,0,0.2,0.1,0.3,0.1V54.1z"/>
	<path class="st34" d="M50.4,60.3H53v0.4l-2.6,0.1V60.3z"/>
	<path class="st36" d="M52.9,52.5l-2.5,0.1v-0.4l2.5-0.1V52.5z"/>
	<path class="st37" d="M52.9,48.4h-2.6v-0.3l2.6-0.1V48.4z"/>
	<path class="st33" d="M50.4,64.5H53v0.4L50.4,65V64.5z"/>
	<path class="st31" d="M49.5,60.2l-2,0.4l-0.1-0.5l2-0.3L49.5,60.2z"/>
	<path class="st33" d="M52.9,71.5h-2.6v-0.3l2.6-0.1V71.5z"/>
	<path class="st34" d="M49.5,67.5l-2,0.3l-0.1-0.5l2-0.3L49.5,67.5z"/>
	<path class="st37" d="M52.9,63.3h-2.6V63h2.6V63.3z"/>
	<path class="st37" d="M49.5,65.9l-2,0.4l-0.1-0.4l2-0.3L49.5,65.9z"/>
	<path class="st36" d="M49.5,70.3l-2,0.3v-0.5l1.9-0.3L49.5,70.3z"/>
	<path class="st33" d="M49.5,41.7l-2,0.3v-0.4l1.9-0.4L49.5,41.7z"/>
	<path class="st30" d="M50.4,42.7H53V43h-2.6V42.7z"/>
	<path class="st36" d="M49.4,58.8l-1.9,0.4l-0.1-0.5l1.9-0.4L49.4,58.8z"/>
	<path class="st37" d="M49.4,71.7L47.5,72v-0.4l1.9-0.4V71.7z"/>
	<path class="st34" d="M47.4,64.4l2-0.3l0.1,0.4l-2,0.3L47.4,64.4z"/>
	<path class="st37" d="M47.4,61.5l1.9-0.3l0.1,0.4l-1.8,0.3L47.4,61.5z"/>
	<path class="st30" d="M49.4,68.9l-1.9,0.3v-0.4l1.9-0.4V68.9z"/>
	<path class="st35" d="M49.4,40.3l-1.9,0.3l-0.1-0.4l1.9-0.4L49.4,40.3z"/>
	<path class="st35" d="M47.4,43.1l1.9-0.4l0.1,0.4l-1.8,0.4L47.4,43.1z"/>
	<path class="st33" d="M47.4,44.5l1.9-0.3l0.1,0.4l-1.9,0.3L47.4,44.5z"/>
	<path class="st34" d="M47.5,62.9l1.9-0.3l0.1,0.4l-1.9,0.4L47.5,62.9z"/>
	<path class="st37" d="M49.4,39l-1.9,0.3l-0.1-0.4l1.9-0.4L49.4,39z"/>
	<path class="st37" d="M49.4,57.4l-1.9,0.3v-0.5l1.9-0.3V57.4z"/>
	<path class="st38" d="M52,67.1l0.9,0.1v0.3h-2.5l-0.1-0.2l0,0c0.2,0,0.3-0.1,0.4-0.1c0.3,0.1,0.5,0.1,0.8,0.1L52,67.1z"/>
	<path class="st32" d="M59.6,49.2l1.5,0.3L61,49.9l-1.5-0.3L59.6,49.2z"/>
	<path class="st32" d="M59.6,69.5l1.5,0.3L61,70.3L59.5,70L59.6,69.5z"/>
	<path class="st36" d="M55.6,63.4l-1.5,0.1v-0.4l1.5-0.2V63.4z"/>
	<path class="st31" d="M59.6,47.7l1.5,0.3L61,48.5l-1.5-0.3L59.6,47.7z"/>
	<path class="st32" d="M61,58.1l-1.6-0.4l0.1-0.4l1.6,0.3L61,58.1z"/>
	<path class="st31" d="M55.6,40.3l-1.5,0.2v-0.4l1.5-0.2V40.3z"/>
	<path class="st31" d="M55.6,41.8L54.1,42v-0.5l1.5-0.2V41.8z"/>
	<path class="st37" d="M49.4,55.9l-1.9,0.3v-0.4l1.9-0.3V55.9z"/>
	<path class="st37" d="M47.4,46l1.9-0.4l0.1,0.4l-1.9,0.3L47.4,46z"/>
	<path class="st36" d="M49.4,47.4l-1.9,0.3v-0.4l1.9-0.3V47.4z"/>
	<path class="st27" d="M47.4,53l1.9-0.3l0.1,0.4l-1.9,0.3L47.4,53z"/>
	<path class="st30" d="M47.4,54.5l1.9-0.4l0.1,0.4l-1.9,0.4L47.4,54.5z"/>
	<path class="st31" d="M59.6,54.7l1.5,0.3L61,55.4l-1.5-0.2L59.6,54.7z"/>
	<path class="st32" d="M59.6,58.9l1.5,0.2v0.4l-1.5-0.2V58.9z"/>
	<path class="st33" d="M61,62.1l-1.5-0.2l0.1-0.4l1.5,0.2L61,62.1z"/>
	<path class="st37" d="M61,66.2l-1.5-0.3l0.1-0.4l1.5,0.2L61,66.2z"/>
	<path class="st32" d="M59.5,68.1l1.6,0.4L61,68.9l-1.5-0.2V68.1z"/>
	<path class="st37" d="M55.6,51.1l-1.5,0.1v-0.4l1.5-0.2V51.1z"/>
	<path class="st35" d="M55.7,39.1l-1.6,0.1v-0.4l1.5-0.1L55.7,39.1z"/>
	<path class="st30" d="M49.4,48.8l-1.9,0.3l-0.1-0.3l1.9-0.4L49.4,48.8z"/>
	<path class="st34" d="M54.2,44.1l1.5-0.1v0.4l-1.5,0.2V44.1z"/>
	<path class="st30" d="M54.1,64.4l1.5-0.1v0.4l-1.4,0.2L54.1,64.4z"/>
	<path class="st36" d="M47.4,51.6l1.9-0.3l0.1,0.4L47.5,52L47.4,51.6z"/>
	<path class="st36" d="M59.6,45.1l1.5,0.3L61,45.8l-1.5-0.3L59.6,45.1z"/>
	<path class="st37" d="M61,67.6l-1.5-0.3l0.1-0.4l1.5,0.2L61,67.6z"/>
	<path class="st35" d="M55.6,58h-1.5v-0.3h1.5V58z"/>
	<path class="st36" d="M54.1,42.8l1.4-0.2l0.1,0.4l-1.4,0.2L54.1,42.8z"/>
	<path class="st36" d="M55.6,59.4l-1.5,0.2v-0.4l1.5-0.2V59.4z"/>
	<path class="st33" d="M59.5,51.9l1.5,0.2v0.4l-1.5-0.2V51.9z"/>
	<path class="st32" d="M59.6,50.4l1.5,0.3L61,51.1l-1.5-0.2L59.6,50.4z"/>
	<path class="st33" d="M59.6,60l1.5,0.3L61,60.7l-1.5-0.2L59.6,60z"/>
	<path class="st37" d="M55.7,70.2l-1.5,0.2L54.1,70l1.5-0.2L55.7,70.2z"/>
	<path class="st36" d="M47.4,50.2l1.9-0.3l0.1,0.4l-1.9,0.3L47.4,50.2z"/>
	<path class="st30" d="M55.7,62.1l-1.6,0.1v-0.4l1.5-0.2L55.7,62.1z"/>
	<path class="st35" d="M59.6,53.4l1.5,0.3L61,54.1l-1.5-0.2L59.6,53.4z"/>
	<path class="st36" d="M61,41.9l-1.5-0.3l0.1-0.4l1.5,0.2L61,41.9z"/>
	<path class="st30" d="M55.5,71.4l-1.4,0.2v-0.4l1.5-0.2L55.5,71.4z"/>
	<path class="st37" d="M55.6,60.6l-1.5,0.2v-0.4l1.5-0.2V60.6z"/>
	<path class="st33" d="M57,45.2l1.2-0.1v0.4L57,45.7V45.2z"/>
	<path class="st36" d="M55.6,68.8l-1.5,0.1v-0.4l1.5-0.2V68.8z"/>
	<path class="st37" d="M54.2,67.3l1.5-0.1v0.4l-1.5,0.1V67.3z"/>
	<path class="st37" d="M58.1,62l-1.2,0.1l0-0.4l1.2-0.2L58.1,62z"/>
	<path class="st30" d="M54.3,49.5l1.4-0.1v0.4L54.3,50V49.5z"/>
	<path class="st35" d="M59.5,46.5l1.5,0.2v0.4L59.6,47L59.5,46.5z"/>
	<path class="st33" d="M56.9,56.3l1.2-0.1v0.4L57,56.8L56.9,56.3z"/>
	<path class="st36" d="M52.2,44.5h-1.8v-0.3h1.8V44.5z"/>
	<path class="st34" d="M60.9,44.6l-1.5-0.3l0.1-0.4l1.5,0.2L60.9,44.6z"/>
	<path class="st36" d="M59.6,38.5l1.5,0.2L61,39.1l-1.5-0.2L59.6,38.5z"/>
	<path class="st33" d="M59.6,42.4l1.5,0.3L61,43.1l-1.5-0.3L59.6,42.4z"/>
	<path class="st37" d="M61,40.4l-1.5-0.3v-0.3L61,40V40.4z"/>
	<path class="st36" d="M54.1,55l1.5-0.1v0.4l-1.4,0.2L54.1,55z"/>
	<path class="st37" d="M57,65.6l1.2-0.1v0.4L57,66.1V65.6z"/>
	<path class="st36" d="M52.1,40.4c-0.5,0-1.1,0-1.7,0V40h1.7V40.4z"/>
	<path class="st34" d="M58.2,57.9L57,58l-0.1-0.4l1.2-0.2L58.2,57.9z"/>
	<path class="st37" d="M55.6,48.4l-1.4,0.1v-0.4l1.4-0.2V48.4z"/>
	<path class="st36" d="M54.1,45.4l1.5-0.1v0.4l-1.4,0.2L54.1,45.4z"/>
	<path class="st33" d="M58.1,59.3l-1.2,0.1V59l1.2-0.1V59.3z"/>
	<path class="st35" d="M57,52.1l1.2-0.1v0.4L57,52.5V52.1z"/>
	<path class="st35" d="M54.3,53.8l1.4-0.1v0.4l-1.5,0.1L54.3,53.8z"/>
	<path class="st34" d="M58.1,60.5l-1.2,0.1v-0.4l1.2-0.1V60.5z"/>
	<path class="st35" d="M54.2,52.3l1.4-0.2v0.4l-1.3,0.2L54.2,52.3z"/>
	<path class="st37" d="M55.7,47.1l-1.5,0.2l-0.1-0.4l1.5-0.2L55.7,47.1z"/>
	<path class="st36" d="M54.2,65.8l1.5-0.1v0.4l-1.5,0.2V65.8z"/>
	<path class="st30" d="M60.9,71.5l-1.5-0.2l0.1-0.4l1.5,0.2L60.9,71.5z"/>
	<path class="st35" d="M56.9,54.9l1.2-0.1v0.4L57,55.4L56.9,54.9z"/>
	<path class="st33" d="M58.1,67.4l-1.2,0.1v-0.4l1.2-0.2V67.4z"/>
	<path class="st34" d="M56.9,46.7l1.2-0.2l0.1,0.4L57,47.1L56.9,46.7z"/>
	<path class="st33" d="M58.1,50.9L56.9,51v-0.4l1.2-0.1V50.9z"/>
	<path class="st36" d="M51.8,41.9c-0.5,0-1,0-1.5,0v-0.4h1.5V41.9z"/>
	<path class="st38" d="M59.8,56.6l-0.1-0.4l1.4,0.1L61,56.7l-0.9-0.1H59.8z"/>
	<path class="st36" d="M58.1,53.9L56.9,54v-0.4l1.2-0.1V53.9z"/>
	<path class="st36" d="M58.1,71.3h-1.2V71l1.2-0.1V71.3z"/>
	<path class="st35" d="M57.4,49.8l-0.5-0.2l0.1-0.4l1.1,0.4L57.4,49.8z"/>
	<path class="st36" d="M59.5,62.8L61,63l-0.1,0.4l-1.4-0.2V62.8z"/>
	<path class="st37" d="M58.2,42.9L57,43v-0.4l1.1-0.2L58.2,42.9z"/>
	<path class="st34" d="M54.2,56.7l1.4-0.3v0.4h-0.9L54.2,56.7z"/>
	<path class="st35" d="M60.8,64.8l-1.4-0.2l0.1-0.4l1.5,0.2L60.8,64.8z"/>
	<path class="st30" d="M58.2,64.7L57,64.8l-0.1-0.4l1.2-0.2L58.2,64.7z"/>
	<path class="st30" d="M57.3,48.3l-0.4-0.1l0.1-0.4l1.1,0.4L57.3,48.3z"/>
	<path class="st35" d="M57,38.6l1.1-0.1v0.4L57,39V38.6z"/>
	<path class="st35" d="M58.1,40.1L57,40.2v-0.4l1.1-0.1V40.1z"/>
	<path class="st36" d="M58.1,63.3l-1.2,0.1V63l1.2-0.2V63.3z"/>
	<path class="st30" d="M58,41.7l-1.1,0.1v-0.4l1.2-0.2L58,41.7z"/>
	<path class="st27" d="M57,44l1.1-0.1v0.4L57,44.4V44z"/>
	<path class="st31" d="M58,68.6l-1.1,0.1l0.2-0.3L58,68.6z"/>
	<path class="st38" d="M53,41.3v0.4c-0.4,0.1-0.7,0.1-1.1,0.2l-0.1-0.4L53,41.3z"/>
	<path class="st41" d="M57.6,70.1c-0.2,0.1-0.5,0.1-0.7,0.1l0.2-0.4L57.6,70.1z"/>
	<path class="st39" d="M58.1,69.7v0.2l-0.4,0.2l-0.6-0.3L58.1,69.7z"/>
	<path class="st38" d="M53,40v0.3c-0.3,0-0.6,0.1-0.9,0.1V40C52.1,40,53,40,53,40z"/>
	<path class="st39" d="M58,68.6l-0.9-0.2L58,68.6z"/>
	<path class="st30" d="M54.2,56.6l0.5,0.2L54.2,56.6z"/>
	<path class="st40" d="M57.4,49.8l0.7-0.2L57.4,49.8z"/>
	<path class="st40" d="M57.4,48.4l0.7-0.2L57.4,48.4z"/>
	<path class="st30" d="M52.9,44.5h-0.6v-0.3h0.6V44.5z"/>
	<path class="st41" d="M52.1,67.2l-0.6,0.1L52.1,67.2z"/>
	<path class="st31" d="M59.7,56.6h0.4H59.7z"/>
	<path class="st41" d="M50.3,67.4l0.1,0.2L50.3,67.4z"/>
	<path class="st41" d="M50.8,67.2c-0.2,0-0.3,0.1-0.4,0.1C50.5,67.3,50.6,67.3,50.8,67.2z"/>
	<path class="st24" d="M45.4,76.8c8.2,0.2,16.5,0.4,24.7,0.6c0-0.5,0-1,0-1.6c-0.2-12.7-0.2-25.2,0-37.7h-0.7H69c0-0.7,0-1.3,0-2
		c0.1,0,0.3,0,0.4,0c0,0.5,0.1,1,0.1,1.5c0.3,0,0.6,0,1,0c0,13.4,0,26.8,0,40.2c-8.2-0.2-16.5-0.5-24.7-0.7c-0.1,0-0.2,0-0.3,0
		C45.4,77.1,45.4,77,45.4,76.8z"/>
	<path class="st24" d="M69,36.8c-0.3,0-0.5,0-0.8,0c0,0.6,0,1.1,0,1.5c0.1,12.2,0,18.8,0,36.1c0,0.4,0,0.9,0,1.4
		c-7.6-0.1-15.2-0.2-22.8-0.4c0-0.1,0-0.2,0-0.3c7.5,0.1,14.9,0.2,22.4,0.3V35.7c-0.3,0-0.7,0-1-0.1c0-0.2,0-0.5,0-0.7
		c0-0.4,0-0.7,0-1.1c0.2,0,0.3,0,0.5,0c0,0.5,0,0.9,0,1.4c0.3,0,0.5,0,0.8,0c0,0.3,0,0.6,0,0.8c0.3,0,0.6,0,0.8,0.1
		C69,36.4,69,36.6,69,36.8z"/>
	<path class="st23" d="M45.3,76c7.9,0.2,15.7,0.3,23.6,0.5C68.9,63.7,69,50.9,69,38.1c0.1,0,0.3,0,0.4,0c0,13,0,25.8,0,38.8
		c-8.1-0.1-16.1-0.3-24.2-0.4C45.3,76.3,45.3,76.1,45.3,76z"/>
	<path class="st23" d="M45.4,74.7c0-0.2,0-0.4,0-0.7c7.3,0.1,14.5,0.1,21.8,0.2c0,0.2,0,0.4,0,0.6C59.9,74.8,52.6,74.7,45.4,74.7z"
		/>
	<path class="st31" d="M62.2,53.8h2v0.3h-2V53.8z"/>
	<path class="st37" d="M64.3,45.6h-2v-0.3h2V45.6z"/>
	<path class="st34" d="M64.2,43l-2,0.1v-0.4l2-0.2V43z"/>
	<path class="st32" d="M64.2,67.4h-2v-0.3l2-0.1V67.4z"/>
	<path class="st34" d="M62.3,41.4h2v0.3l-2,0.1V41.4z"/>
	<path class="st34" d="M62.2,49.4h2v0.4l-2,0.1V49.4z"/>
	<path class="st32" d="M62.2,65.7h2V66h-2V65.7z"/>
	<ellipse class="st33" cx="63.3" cy="46.9" rx="1.4" ry="0.2"/>
	<path class="st32" d="M62.2,48h2v0.3h-2V48z"/>
	<path class="st32" d="M64.2,40.2h-2v-0.3h2V40.2z"/>
	<path class="st34" d="M64.3,63.2h-2v-0.3h1.9L64.3,63.2z"/>
	<path class="st34" d="M64.2,55.2h-2v-0.3l2-0.1V55.2z"/>
	<path class="st36" d="M62.3,38.7h2V39l-2,0.1V38.7z"/>
	<path class="st36" d="M62.1,69.9h2v0.2h-1.9L62.1,69.9z"/>
	<path class="st33" d="M64.2,44.3h-1.9V44l1.9-0.1V44.3z"/>
	<path class="st35" d="M62.3,71.1h2v0.3h-2V71.1z"/>
	<path class="st30" d="M64.2,68.7h-2v-0.3h2V68.7z"/>
	<path class="st27" d="M64.2,52.4h-2v-0.3l2-0.1V52.4z"/>
	<path class="st34" d="M62.3,50.7h2V51h-2V50.7z"/>
	<path class="st35" d="M62.3,57.7h2V58l-2,0.1V57.7z"/>
	<ellipse class="st37" cx="63.2" cy="59.2" rx="1.4" ry="0.2"/>
	<path class="st35" d="M62.2,60.3h2v0.3h-2V60.3z"/>
	<path class="st30" d="M62.2,61.7h2V62h-2V61.7z"/>
	<path class="st36" d="M62.3,64.4h2v0.3h-2V64.4z"/>
	<path class="st31" d="M62.6,56.3h0.5l1,0.3c-0.5,0.1-1,0.2-1.5,0.2c-0.1,0.1-0.1-0.2-0.2-0.4L62.6,56.3z"/>
	<path class="st23" d="M64.1,56.3c0,0.1,0,0.2,0,0.3l0,0l-1-0.3H64.1z"/>
</g>
<path class="st42" d="M45.2,77c8.4,0.2,16.7,0.4,25.1,0.6c0-0.4,0-0.7,0-1.1"/>
<path class="st1" d="M19.6,42.9"/>
<line class="st43" x1="29" y1="23.3" x2="29" y2="23.3"/>
<path class="st1" d="M110.6,47.4"/>
<path class="st1" d="M48.6,111.9"/>
<path class="st1" d="M120.3,39.5"/>
</svg>
