<svg xmlns="http://www.w3.org/2000/svg" xmlns:xlink="http://www.w3.org/1999/xlink" viewBox="0 0 101.5 25.25136"><defs><style>.abebfdb3-755e-420a-899c-4cb9539e5a8b,.b540f125-d6a7-45e3-895e-0c00a77b99d4{fill:none;}.a7efe712-70a0-4855-93c1-5bd24f77db71{isolation:isolate;}.fd2488ba-5f19-4443-a6e4-96a6e7b0f3d1{clip-path:url(#bded113b-5940-482e-b479-4fbe40792b8f);}.ac3f27cf-dc0d-40e4-99e3-117d055477da{fill:#e86978;opacity:0.8;mix-blend-mode:hard-light;}.abebfdb3-755e-420a-899c-4cb9539e5a8b{stroke:#ee755b;stroke-linecap:round;stroke-linejoin:round;stroke-width:2px;}</style><clipPath id="bded113b-5940-482e-b479-4fbe40792b8f"><rect class="b540f125-d6a7-45e3-895e-0c00a77b99d4" x="-206.12604" y="329.92401" width="235.49085" height="29.6666"/></clipPath></defs><title>Artboard 19</title><g class="a7efe712-70a0-4855-93c1-5bd24f77db71"><g id="bebac45a-6d14-49c6-9626-e8bc285c6717" data-name="Layer 1"><g class="fd2488ba-5f19-4443-a6e4-96a6e7b0f3d1"><rect class="ac3f27cf-dc0d-40e4-99e3-117d055477da" x="-0.02807" y="11.71323" width="25.95366" height="82.57981" transform="translate(-33.68627 24.68042) rotate(-45)"/></g><path class="abebfdb3-755e-420a-899c-4cb9539e5a8b" d="M.75,14.02152l13.6822.05263a.52238.52238,0,0,0,.46934-.34414l3.8308-12.27576c.35412-1.13476.783-1.10061.953.07591l3.03683,21.01268c.25666,1.77589.69289,1.77833.9694.00542L25.849,7.6239s.1161-.96868.219-.972c.10682-.00344.241.73019.241.73019l1.1519,6.34835a.51453.51453,0,0,0,.477.3836l72.31206.13832"/></g></g></svg>