<svg  preserveAspectRatio="none" id="Layer_1" data-name="Layer 1" xmlns="http://www.w3.org/2000/svg" viewBox="0 0 215.65 307.46"><defs><style>.cls-1{fill:#009ac4;}.cls-2{fill:#f1f2f2;}.cls-3,.cls-5,.cls-6{fill:none;}.cls-3{stroke:#e6e7e8;stroke-width:2.95px;}.cls-3,.cls-5{stroke-miterlimit:10;}.cls-4{fill:#bcbec0;}.cls-5{stroke:#bcbec0;stroke-width:1.11px;}.cls-6{stroke:#414042;stroke-linejoin:round;stroke-width:4.42px;}.cls-7{fill:#d1d3d4;}</style></defs><title>Artboard 10</title><rect class="cls-1" width="215.65" height="307.46" rx="9.4"/><polygon class="cls-2" points="203.79 293.39 47.47 293.39 10.16 255.96 10.16 15.29 203.79 15.29 203.79 293.39"/><path class="cls-3" d="M144.52,19.33V13.22a2.36,2.36,0,0,0-2.35-2.36H72.73a2.36,2.36,0,0,0-2.35,2.36v6.11"/><rect class="cls-4" x="72.45" y="6.11" width="70.19" height="7.53"/><polyline class="cls-5" points="78 27.44 98.04 27.44 99.59 26.72 114.83 26.72 115.82 27.44 142.63 27.44"/><polyline class="cls-6" points="70.38 17.84 70.38 27.44 80.02 27.44"/><polyline class="cls-6" points="144.52 17.84 144.52 27.44 134.87 27.44"/><rect class="cls-2" x="72.45" y="6.46" width="70.19" height="2.26"/><polygon class="cls-7" points="47.47 293.08 28.91 274.52 10.35 255.96 47.47 255.96 47.47 293.08"/></svg>