<svg id="Layer_1" data-name="Layer 1" xmlns="http://www.w3.org/2000/svg" viewBox="0 0 18 19.47"><defs><style>.cls-1{fill:#0f2849;}</style></defs><title>Artboard 12</title><path class="cls-1" d="M2.58,13.86a1.59,1.59,0,0,1,1.06.55l2.12,2.12-.61.61L3.3,19l-.15.15L0,16l.61-.61,1-1A1.39,1.39,0,0,1,2.58,13.86Zm2.11,2.81L3,15a.84.84,0,0,0-.56-.3.68.68,0,0,0-.51.24L1,15.81,3.3,18.06Z"/><path class="cls-1" d="M4,13.28l-.73-.59.6-.6.74.58.86.86.35.37-.49.71Z"/><path class="cls-1" d="M4.53,11.4l.6-.6,3,2.38A1.72,1.72,0,0,0,8,10.54l-.15-.16A1.17,1.17,0,0,0,7.2,10a1,1,0,0,0-.71.27l-.3.26-.43-.51.35-.32a1.77,1.77,0,0,1,1.13-.5,1.56,1.56,0,0,1,1.14.48l.17.15a2.33,2.33,0,0,1,.85,2.07,4.52,4.52,0,0,1-1.26,2.32Z"/><path class="cls-1" d="M10.28,7.71a.91.91,0,0,0-.56-.31.73.73,0,0,0-.51.25l-1.05,1L7.7,8.23,8.89,7a1.39,1.39,0,0,1,1-.45,1.51,1.51,0,0,1,1.05.55L13,9.25l-.61.61Z"/><path class="cls-1" d="M13.3,8.06l1-1a1.16,1.16,0,0,0,.38-.84,1.36,1.36,0,0,0-.48-.94l-.38-.38A1.74,1.74,0,0,0,13,4.36a.91.91,0,0,0-.79.3l-.51.51.44.69a2,2,0,0,0,.19.25.47.47,0,0,0,.36.16.93.93,0,0,0,.46-.17l.28.49a1.35,1.35,0,0,1-.87.42,1,1,0,0,1-.74-.34,2,2,0,0,1-.27-.33l-.75-1.19,1.08-1.08a1.53,1.53,0,0,1,1.26-.51,2.25,2.25,0,0,1,1.36.73l.33.33a2,2,0,0,1,.7,1.43,1.82,1.82,0,0,1-.6,1.32L13.77,8.52Z"/><path class="cls-1" d="M15.84.09l.5.51L18,4.33l-.61.61L15.69,1.16,14,2.87,12.65,1.52,13.2,1l.88.87Z"/></svg>