<svg  preserveAspectRatio="none" id="Layer_1" data-name="Layer 1" xmlns="http://www.w3.org/2000/svg" xmlns:xlink="http://www.w3.org/1999/xlink" viewBox="0 0 233.76 436.75"><defs><style>.cls-1,.cls-23,.cls-24,.cls-25{fill:none;}.cls-2{clip-path:url(#clip-path);}.cls-3{fill:#c49a6c;}.cls-4{clip-path:url(#clip-path-2);}.cls-5{opacity:0.34;}.cls-6{fill:#8b5e3c;}.cls-7{fill:#a97c50;}.cls-8{clip-path:url(#clip-path-3);}.cls-9{clip-path:url(#clip-path-4);}.cls-10{clip-path:url(#clip-path-5);}.cls-11{clip-path:url(#clip-path-6);}.cls-12{clip-path:url(#clip-path-7);}.cls-13{fill:#bcbec0;}.cls-14{fill:#e6e7e8;}.cls-15{fill:#9acfda;}.cls-16,.cls-18{fill:#3c2415;}.cls-16{stroke:#c3d7dc;stroke-width:6px;}.cls-16,.cls-23,.cls-24{stroke-miterlimit:10;}.cls-17{fill:#c3d7dc;}.cls-19{fill:#4e7582;stroke:#4e7582;stroke-width:2.66px;}.cls-19,.cls-20,.cls-25{stroke-linejoin:round;}.cls-20{fill:#231f20;stroke:#231f20;stroke-width:3.28px;}.cls-21{fill:#009ac4;}.cls-22{fill:#f1f2f2;}.cls-23{stroke:#e6e7e8;stroke-width:2.95px;}.cls-24{stroke:#bcbec0;stroke-width:1.11px;}.cls-25{stroke:#414042;stroke-width:4.42px;}</style><clipPath id="clip-path"><rect class="cls-1" width="233.76" height="436.8"/></clipPath><clipPath id="clip-path-2"><rect class="cls-1" x="-259.99" y="183.39" width="493.75" height="57.59"/></clipPath><clipPath id="clip-path-3"><rect class="cls-1" x="-105.57" y="109.65" width="493.75" height="46.63"/></clipPath><clipPath id="clip-path-4"><rect class="cls-1" x="-22.88" y="36.48" width="493.75" height="57.59"/></clipPath><clipPath id="clip-path-5"><rect class="cls-1" x="-162.89" y="368.09" width="493.75" height="71.13"/></clipPath><clipPath id="clip-path-6"><rect class="cls-1" x="-40.44" y="325.65" width="493.75" height="57.59"/></clipPath><clipPath id="clip-path-7"><rect class="cls-1" y="251.7" width="493.75" height="71.13"/></clipPath></defs><title>Artboard 34</title><g class="cls-2"><rect class="cls-3" width="233.76" height="438.39"/><g class="cls-4"><rect class="cls-3" x="-259.99" y="183.39" width="493.75" height="57.59"/><g class="cls-5"><path class="cls-3" d="M233.76,183.39h-23.2c-1.63,0-3.35,0-5.12,0-32,7-64-6.14-95.81-.06-1.61,0-3.21,0-4.81,0H91.7c-33.22,8.33-65.22-3.49-98.22-.86-9,0-19-1.32-28,.85H-56.88a9.68,9.68,0,0,1-2,.31,5.78,5.78,0,0,1-2.27,0,10,10,0,0,1-2-.31H-68.8c-18.17,2.91-37.14,2.92-56.4,1.94-2.14-.11-4.29-.23-6.43-.37-8.89-1.11-16.89,6.77-24.89,2.83-23-9.19-47-11.82-71.34-6.37q-3.12.24-6.21.6c-24.74,2.77-48.29,10.19-69.45,26.78,11,18.38,37,6.56,43.47,29.71.06,1.57.06,2.47.06,2.47s1,0,3,0c18.44.69,29.44-20.31,45.44-25.57,2,0,5-1.31,5,1.32,1,10.5,0,27.57,12.22,23.94l5.89,0,23.57-.09c2,0,3.92,0,5.9,0,6.42-.19,11.42-.19,17.64,0,2,0,3.91,0,5.87,0q26.46.08,52.83.4c2.08,0,4.13-.08,6.24-.15,17.84,3.49,33.84-20.14,48.84-8.33,6,3.94,14,6.57,21.39,8.55h2c.61.64,2.61.64,4,0H13.37c4.11-2,7.11-.66,11.5,0,.6,0,1.22,0,1.85,0H56.43a41.32,41.32,0,0,0,4.54.46q7.59.1,15.4.1c1.77,0,3.54,0,5.38-.1,18.73-6.38,37.73-10.32,56.94-.46h20.53c4.7-2.47,8.68-2.35,13-1.3,1.45.35,2.93.81,4.49,1.3,16.76.64,33.76,9.84,50.76,11.15,12,0,16-13.13,18-24.95,0-3.94-7-6.56-10-10.5-1-2.63-2-6.57-1.15-8.65,0-.62,0-1.23,0-1.84a88.08,88.08,0,0,0-.54-9.44V183.39Z"/><path class="cls-6" d="M181.2,209.54c-1.72-.74-4.72-4.68-6.72-3.37-3,0,4,2.63,1,5.25-6,2.63-13,2.63-20,5.26,2-3.94,8-2.63,8-6.57,1-5.25-4-2.63-6-5.25,3-1.31,6,1.31,8,2.62,1,2.63-3,3.94-4,6.57,4-2.63,8,0,12-3.94-11-15.76-29-11.82-44-13.13,5,0,9,2.63,14,1.31h-3c6,1.32,13,0,19,3.94-17-9.19-35-1.31-52-1.31,7-5.25,16-6.57,24-6.57-11,0-23,0-32,9.2,32-22.33,72-10.51,99,18.38-2,0-2-1.31-3-2.63,1,1.32,2,2.63,2,3.94-5-2.62-10-7.88-14.25-12.19Z"/><path class="cls-6" d="M116.14,207.79c-2.66,1-4.66,3.63-7.66,5,0-1.32,0-3.94-1-3.94-4,0-14,1.31-12,10.5l1-1.31c-2,6.56-9,7.88-12,13.13h1a47.29,47.29,0,0,0-10.9.84c-1.68,0-3.36-.14-5-.31-8.42-.86-16.93-3.32-25.06-5.78,8.13,2.46,16.25,4.92,24.38,5.14a39.63,39.63,0,0,0,4.87-.16c3.75-1,6.75-1,10.75-2.36-3-1.31-7-1.31-10-1.8-1.5-.41-3-.86-4.5-1.34-7.5-2.35-15-5.23-22.5-6,9.63,2.3,19.25,5.6,28.88,8.15,1.41.35,2.83.68,4.27,1a16.71,16.71,0,0,1-5.15,1.16c-8.33.48-16.67-4.81-25-3.71,6,0,13,1.31,19,1.31-18-6.56-36-5.25-54-1.31,6-2.63,11-6.57,17-9.19-4-3.94-10-1.32-11-5.26-1-2.62,2-9.19,7-7.87-5,2.62-9-6.57-14-5.26,6,1.32,13,1.32,19,3.94-3-1.31-5,2.63-8,1.32a7.21,7.21,0,0,0,5-1.32c-1,5.25-5,1.32-7,3.94,0-1.31,2-1.31,2-2.62,0,1.31,1,1.31,1,2.62-7-1.31-12,5.25-18,6.57-1,1.31-4,1.31-5,0-1-2.63,2-5.26,3-6.57-28-9.19-53,18.38-81,17.72-2.15.2-4.2.32-6.27.44-13.63.35-27.22,0-40.79-.39-1.94-.05-3.88-.11-5.79-.12-9.1.73-17.1,3.36-26.1,3.36,9,1.31,17-2.63,26.3-1l5.9.4c9.83.61,19.69,1,29.52,1.07,2,0,3.93,0,5.89,0,26.39,3.44,48.39-17.57,73.39-21.51,6-1.31,16-1.31,13,10.51,9,2.62,15-5.26,23-9.2-1,1.32-2,1.32-3,2.63,3,3.94,7,2.63,10,6.57-5,1.31-10,6.56-15,9.19a14.83,14.83,0,0,1,4-3.94c-3,0-5,1.31-7,3.94,20-2.63,41-3.94,61,2.62-9-2.62-17-2.62-26-2.62,6,2.62,13,0,19,3.94-7-3.94-16-1.32-23-5.26a51.14,51.14,0,0,0,32.1,8.18,47.55,47.55,0,0,0,4.9-.67c4-.94,8-.94,12-4.88-3,0-5,1.31-8,2.63,5-3.94,10-6.57,14-13.13-1,0-3,1.31-4,1.31,2-9.19,10-5.25,14-9.19,0,1.31,0,2.62-1,2.62a12.18,12.18,0,0,0,8.18-3.37A3.88,3.88,0,0,0,116.14,207.79Z"/><path class="cls-7" d="M-21.95,195.25c10.43,1.73,21.43-3.52,31.43.42h-2c-7-5.26-15-2.63-22-1.32,1-1.31,3-1.31,5-1.31-13-2.63-25,2.63-38,2.63,17-2.63,33-6.57,50-5.26-17,0-35,2.63-52,3.37l-1.8-.25A45.56,45.56,0,0,0-62,193.32c-1.22.13-2.45.31-3.69.55-17.89,1.15-35.43,1.57-53.12,1.71l-5.9,0c-3.8,0-6.8,0-10.8,1.36-7,2.63-10,18.38-16,14.44-23-18.38-49-26.26-73-11.81,8-3.94,17-5.26,26-7.88a83.88,83.88,0,0,0-17,5.25c16-5.25,37-7.88,50,9.19-3-5.25-7-7.88-11-10.5,4,3.94,11,5.25,12,13.13,0,3.94-6,1.31-4,5.25,1,2.63,5,2.63,8,3.94h-4c4,0,7,3.94,11,2.63-6,0-12-2.63-18-3.94,7,6.56,15,3.94,23,6.56-3,1.31-6-1.31-9-1.31q6,2,12-3.94c-1,0-1,1.31-2,1.31,9-2.62,14-15.75,24.43-13.62l5.54-.74c16.6-2.22,33.16-4.43,50-6.65-17.14,7.51-35.3,8.31-53.4,10.07-1.8.18-3.61.36-5.36.68-5.24-.24-9.24,3.7-13.24,7.64,4-3.94,9-2.63,14.28-3.66,1.41.06,2.84.11,4.3.08a37.41,37.41,0,0,0,4.42-.36c-1.5,0-3.25,0-5-.17a18,18,0,0,1-5-1.07,96.65,96.65,0,0,1,10.54-2.2c16-2.52,32.29-2.32,48.17-3.79,1.77-.16,3.53-.35,5.31-.58,21.94-4,42.94-11.89,64.94-8-3-1.31-5,2.63-8,1.31,8,1.32,15,0,23,2.63-6,0-13-2.63-19-3.94,2,0,5-2.63,7-1.31-9,0-18,0-26.95-.25A3.09,3.09,0,0,1-21.95,195.25Z"/><path class="cls-7" d="M195.42,218.33a11.37,11.37,0,0,1,2.06,2.29c-30-31.52-73-38.08-108-18.39-3,1.32-4,7.88-2,14.45-2,0-4,0-5-1.32,0-1.31,1-3.94,1-5.25a18.92,18.92,0,0,1-3,5.24,26.94,26.94,0,0,1-5.67.57c-16.77,0-32.16-14.34-48.36-8.44,1,0,3-1.31,4-1.31l-1-1.31c8,6.56,19,2.62,27,9.19-3-2.63-6,0-9-2.63,7.5,2,16.25,8.21,24.5,10.67a23.59,23.59,0,0,0,4.92.95c2.58-1.11,6.58-1.11,9.58-2.42,6-5.26,9-14.45,17-15.76,0,1.31-1,1.31-1,2.62a58.68,58.68,0,0,1,36-7.87h-27c21-10.51,45-9.2,65,5.25-4-3.94-9-3.94-13-6.57,4,5.26,10,5.26,12,13.13-1-2.62-2-5.25-4-6.56,11,0,17,13.13,25.9,16C196.12,219.26,195.53,218.49,195.42,218.33Z"/><path class="cls-7" d="M244.59,230.42c-.11-1.93.89-3.24.89-4.55-5-5.25-12,1.31-18-3.94,1,7.88,9,13.13,5,22.32-2,5.25-7,3.94-12,3.94,3-1.31,6-1.31,7-5.25-1,1.31-4-2.63-4,2.62l1,1.32c-17-1.32-33-10.51-49-18.39,16,2.63,30,15.76,47,17.07-27-7.87-51-27.57-79-14.44,9,2.63,17,0,26-3.94,8-3.94,15,2.63,22,6.57-6-2.63-11-7.88-18-5.26-2,1.32-1,3.94,0,3.94,19,2.63,36,18.39,56,14.45,4,0,7-6.57,6-11.82-2,0-1,3.94-3,3.94,4-1.31-4-7.88,2-7.88,0,1.31-1,1.31-1,2.63,3-6.57,9-3.94,13-6.57a23.6,23.6,0,0,0-2.53,3.76A4.37,4.37,0,0,0,244.59,230.42Z"/></g></g><g class="cls-8"><rect class="cls-3" x="-105.57" y="109.65" width="493.75" height="46.63"/><g class="cls-5"><path class="cls-3" d="M388.18,109.65H365c-1.64,0-3.35,0-5.12,0-32,5.67-64-5-95.81,0-1.62,0-3.21,0-4.82,0H246.11c-33.21,6.74-65.21-2.83-98.21-.7-9,0-19-1.06-28,.69H97.54a13.08,13.08,0,0,1-2,.24,7.2,7.2,0,0,1-2.27,0,11.19,11.19,0,0,1-2-.25H85.62C67.45,112,48.48,112,29.21,111.22l-6.43-.29C13.9,110,5.9,116.4-2.1,113.21a145.38,145.38,0,0,0-71.35-5.16q-3.1.21-6.2.49c-24.74,2.25-48.29,8.25-69.45,21.68,11,14.89,37,5.32,43.47,24.06.06,1.27.06,2,.06,2s1,0,3,0c18.45.56,29.45-16.45,45.45-20.7,2,0,5-1.06,5,1.06,1,8.51,0,22.33,12.21,19.39l5.9,0q11.79-.06,23.56-.08h5.9c6.43-.15,11.43-.15,17.65,0,2,0,3.91,0,5.87,0q26.45.06,52.83.32c2.07,0,4.12-.06,6.24-.12,17.84,2.83,33.84-16.31,48.84-6.74,6,3.19,14,5.32,21.39,6.92h2c.62.52,2.62.52,4,0h13.52c4.11-1.59,7.11-.53,11.5,0,.59,0,1.22,0,1.85,0h29.7c1.52.2,3,.32,4.54.37q7.6.09,15.4.09c1.78,0,3.55,0,5.39-.09,18.73-5.16,37.73-8.35,56.94-.37h20.52a20.74,20.74,0,0,1,13-1.05c1.44.28,2.92.65,4.48,1.05,16.77.52,33.77,8,50.77,9,12,0,16-10.63,18-20.2,0-3.19-7-5.32-10-8.51-1-2.12-2-5.31-1.16-7,0-.5,0-1,0-1.48a57.89,57.89,0,0,0-.54-7.65V109.65Z"/><path class="cls-6" d="M270.55,129.4c-2.65.82-4.65,2.95-7.65,4,0-1.06,0-3.19-1-3.19-4,0-14,1.07-12,8.51l1-1.07c-2,5.32-9,6.38-12,10.64h1A58.33,58.33,0,0,0,229,149c-1.67,0-3.35-.11-5-.25C215.54,148,207,146,198.9,144c8.12,2,16.25,4,24.37,4.17,1.63,0,3.25,0,4.88-.13,3.75-.85,6.75-.85,10.75-1.91-3-1.06-7-1.06-10-1.46-1.5-.33-3-.7-4.5-1.08-7.5-1.91-15-4.24-22.5-4.9,9.62,1.86,19.25,4.53,28.87,6.6,1.42.28,2.83.55,4.28.78a19.8,19.8,0,0,1-5.15.94c-8.34.39-16.67-3.89-25-3,6,0,13,1.07,19,1.07-18-5.32-36-4.26-54-1.07,6-2.12,11-5.31,17-7.44-4-3.19-10-1.06-11-4.25-1-2.13,2-7.44,7-6.38-5,2.13-9-5.32-14-4.25,6,1.06,13,1.06,19,3.19-3-1.07-5,2.12-8,1.06a8.58,8.58,0,0,0,5-1.06c-1,4.25-5,1.06-7,3.19,0-1.07,2-1.07,2-2.13,0,1.06,1,1.06,1,2.13-7-1.07-12,4.25-18,5.31-1,1.07-4,1.07-5,0-1-2.12,2-4.25,3-5.31-28-7.45-53,14.88-81.06,14.34-2.15.16-4.19.26-6.27.36-13.62.28-27.21,0-40.79-.31-1.94-.05-3.87-.09-5.79-.1C17.9,143,9.9,145.11.9,145.11c9,1.06,17-2.13,26.29-.83,2,.12,3.93.23,5.9.33q14.76.75,29.53.87c2,0,3.93,0,5.89,0,26.39,2.79,48.39-14.22,73.39-17.41,6-1.07,16-1.07,13,8.5,9,2.13,15-4.25,23-7.44-1,1.06-2,1.06-3,2.13,3,3.19,7,2.12,10,5.31-5,1.06-10,5.32-15,7.44a14.1,14.1,0,0,1,4-3.19,8.86,8.86,0,0,0-7,3.19c20-2.12,41-3.19,61,2.13-9-2.13-17-2.13-26-2.13,6,2.13,13,0,19,3.19-7-3.19-16-1.06-23-4.25A60.72,60.72,0,0,0,230,149.6c1.62-.11,3.23-.28,4.9-.55,4-.75,8-.75,12-3.94-3,0-5,1.06-8,2.12,5-3.19,10-5.31,14-10.63-1,0-3,1.06-4,1.06,2-7.44,10-4.25,14-7.44,0,1.07,0,2.13-1,2.13a13.78,13.78,0,0,0,8.18-2.73A3,3,0,0,0,270.55,129.4Z"/><path class="cls-6" d="M90.16,121.09c-19,2.12-38,3.39-56.91,5-1.89.17-3.78.33-5.63.57C16.9,128.1,10.9,138.73.9,139.79c5-2.13,9-3.19,13-7.44-5,5.31-16,8.5-19,2.13-10-20.2-36-19.14-54-14.89,5-1.06,11-2.12,16-3.19-11,2.13-22,4.25-32,8.51,2-1.07,4-1.07,6-2.13-5,1.06-9,3.19-14,3.19,1,0,3,0,4-1.06a56.84,56.84,0,0,1-6.43-.26c-1.82-.34-3.64-.61-5.47-.79-14.62-1.46-29.5,2.11-43.1,6.36h4c-5,3.19-9,0-14-1.06,14,4.78,29.25,6.64,44.75,7.18,1.94.06,3.88.11,5.82.13,25.43-5.18,53.43-30.7,78.43-8.37-3-5.32-8-6.38-13-8.51,5,2.13,13,3.19,12,8.51-1,4.25-12,2.12-12,9.56a21.49,21.49,0,0,0,4,1.07c-1-1.07-3-2.13-2-3.19a3.54,3.54,0,0,1,3-1.06c1,1.06-2,3.18,4,3.18-1-1.06-3-2.12-4-3.18,1,0,2-1.07,3-1.07-2,0-3,2.13-2,3.19a51,51,0,0,0,33,5.32c-4-3.19-8,1.06-12-1.07,3,0,7,0,10-2.12h-3c9-2.13,15-10.63,24.56-10.59,1.91-.2,3.82-.42,5.73-.63,17.18-2,34.33-4.18,51.85-6.2C88.84,121.24,89.53,121.17,90.16,121.09Z"/><path class="cls-7" d="M132.46,119.26c10.44,1.39,21.44-2.86,31.44.33h-2c-7-4.25-15-2.12-22-1.06,1-1.06,3-1.06,5-1.06-13-2.13-25,2.12-38,2.12,17-2.12,33-5.31,50-4.25-17,0-35,2.13-52,2.73l-1.79-.2a54.62,54.62,0,0,0-10.71-.17c-1.22.1-2.45.24-3.7.44-17.88.93-35.42,1.27-53.11,1.39l-5.91,0a39.23,39.23,0,0,0-10.79,1.09c-7,2.13-10,14.89-16,11.7-23-14.88-49-21.26-73-9.57,8-3.19,17-4.25,26-6.38a100.66,100.66,0,0,0-17,4.25c16-4.25,37-6.37,50,7.45-3-4.26-7-6.38-11-8.51,4,3.19,11,4.25,12,10.63,0,3.19-6,1.07-4,4.26,1,2.12,5,2.12,8,3.18h-4c4,0,7,3.19,11,2.13-6,0-12-2.13-18-3.19,7,5.32,15,3.19,23,5.32-3,1.06-6-1.07-9-1.07q6,1.6,12-3.19c-1,0-1,1.07-2,1.07,9-2.13,14-12.76,24.43-11l5.54-.6c16.59-1.79,33.15-3.59,50-5.38-17.15,6.07-35.31,6.72-53.4,8.15-1.81.14-3.62.29-5.36.55-5.24-.2-9.24,3-13.24,6.18,4-3.19,9-2.12,14.28-3,1.4.05,2.84.09,4.29.06a41.86,41.86,0,0,0,4.43-.29c-1.5,0-3.25,0-5-.13a21.46,21.46,0,0,1-5-.87c3.46-.77,7-1.33,10.53-1.78,16-2,32.3-1.87,48.17-3.07,1.77-.13,3.54-.28,5.32-.47,21.94-3.25,42.94-9.62,64.94-6.44-3-1.06-5,2.13-8,1.07,8,1.06,15,0,23,2.12-6,0-13-2.12-19-3.19,2,0,5-2.12,7-1.06-9,0-18,0-27-.19Z"/><path class="cls-7" d="M349.83,137.94a10.4,10.4,0,0,1,2.07,1.85c-30-25.51-73-30.83-108-14.88-3,1.06-4,6.38-2,11.69-2,0-4,0-5-1.06,0-1.06,1-3.19,1-4.25a14.82,14.82,0,0,1-3,4.24,34.22,34.22,0,0,1-5.67.46c-16.76,0-32.15-11.61-48.35-6.83,1,0,3-1.06,4-1.06l-1-1.07c8,5.32,19,2.13,27,7.45-3-2.13-6,0-9-2.13,7.5,1.59,16.25,6.64,24.5,8.64a28.54,28.54,0,0,0,4.91.76c2.59-.9,6.59-.9,9.59-2,6-4.25,9-11.69,17-12.76,0,1.07-1,1.07-1,2.13a70.22,70.22,0,0,1,36-6.38h-27c21-8.5,45-7.44,65,4.25-4-3.19-9-3.19-13-5.31,4,4.25,10,4.25,12,10.63-1-2.13-2-4.25-4-5.32,11,0,17,10.63,25.9,12.93C350.54,138.69,350,138.07,349.83,137.94Z"/></g></g><g class="cls-9"><rect class="cls-3" x="-22.88" y="36.48" width="493.75" height="57.59"/><g class="cls-5"><path class="cls-3" d="M470.87,36.48h-23.2c-1.64,0-3.35,0-5.12,0-32,7-64-6.13-95.81,0l-4.82,0H328.8c-33.21,8.33-65.21-3.49-98.21-.86-9,0-19-1.31-28,.85H180.23a10.61,10.61,0,0,1-2,.3,5.78,5.78,0,0,1-2.27,0,10,10,0,0,1-2-.3h-5.69c-18.17,2.9-37.14,2.91-56.41,1.93l-6.43-.36c-8.88-1.12-16.88,6.76-24.88,2.82-23-9.19-47-11.81-71.35-6.37q-3.11.26-6.2.6C-21.7,37.88-45.25,45.3-66.41,61.88c11,18.39,37,6.57,43.47,29.72.06,1.57.06,2.47.06,2.47s1,0,3-.06c18.45.7,29.45-20.31,45.45-25.56,2,0,5-1.31,5,1.31,1,10.51,0,27.58,12.21,23.95l5.9,0q11.79-.08,23.56-.1c2,0,3.93,0,5.9,0,6.43-.19,11.43-.19,17.65,0,2,0,3.91,0,5.87,0q26.44.07,52.83.4c2.07,0,4.12-.07,6.24-.14,17.84,3.49,33.84-20.15,48.84-8.33,6,3.94,14,6.56,21.39,8.55h2c.62.64,2.62.64,4,0h13.52c4.11-2,7.11-.66,11.5,0,.59,0,1.22,0,1.85,0h29.7a39.2,39.2,0,0,0,4.54.45c5.07.07,10.21.12,15.4.11,1.78,0,3.55,0,5.39-.1,18.73-6.39,37.73-10.32,56.94-.46h20.52c4.7-2.48,8.69-2.35,13-1.3,1.44.35,2.92.8,4.48,1.3,16.77.64,33.77,9.83,50.77,11.14,12,0,16-13.13,18-24.94,0-3.94-7-6.57-10-10.51-1-2.62-2-6.56-1.16-8.64,0-.62,0-1.23,0-1.84a87.93,87.93,0,0,0-.54-9.44V36.48Z"/><path class="cls-6" d="M353.24,60.87c-2.65,1-4.65,3.64-7.65,4.95,0-1.31,0-3.94-1-3.94-4,0-14,1.32-12,10.51l1-1.32c-2,6.57-9,7.88-12,13.14h1a47.42,47.42,0,0,0-10.91.84c-1.67,0-3.35-.14-5-.31-8.42-.86-16.94-3.33-25.06-5.79,8.12,2.46,16.25,4.93,24.37,5.14a39.78,39.78,0,0,0,4.88-.15c3.75-1,6.75-1,10.75-2.36-3-1.31-7-1.31-10-1.81-1.5-.41-3-.86-4.5-1.33-7.5-2.36-15-5.23-22.5-6,9.62,2.3,19.25,5.6,28.87,8.15,1.42.35,2.83.68,4.28,1a16.27,16.27,0,0,1-5.15,1.16c-8.34.49-16.67-4.8-25-3.71,6,0,13,1.32,19,1.32-18-6.57-36-5.26-54-1.32,6-2.62,11-6.56,17-9.19-4-3.94-10-1.31-11-5.25-1-2.63,2-9.19,7-7.88-5,2.63-9-6.57-14-5.25,6,1.31,13,1.31,19,3.94-3-1.32-5,2.62-8,1.31a7.25,7.25,0,0,0,5-1.31c-1,5.25-5,1.31-7,3.94,0-1.32,2-1.32,2-2.63,0,1.31,1,1.31,1,2.63-7-1.32-12,5.25-18,6.56-1,1.32-4,1.32-5,0-1-2.62,2-5.25,3-6.56-28-9.2-53,18.38-81.06,17.72-2.15.19-4.19.31-6.27.43-13.62.35-27.21,0-40.79-.38-1.94-.06-3.87-.11-5.79-.12-9.09.73-17.09,3.36-26.09,3.36,9,1.31,17-2.63,26.29-1,2,.14,3.93.28,5.9.4q14.76.93,29.53,1.08c2,0,3.93,0,5.89,0,26.39,3.45,48.39-17.56,73.39-21.5,6-1.32,16-1.32,13,10.5,9,2.63,15-5.25,23-9.19-1,1.31-2,1.31-3,2.63,3,3.94,7,2.62,10,6.56-5,1.31-10,6.57-15,9.19a15.12,15.12,0,0,1,4-3.94c-3,0-5,1.32-7,3.94,20-2.62,41-3.94,61,2.63-9-2.63-17-2.63-26-2.63,6,2.63,13,0,19,3.94-7-3.94-16-1.31-23-5.25a51.12,51.12,0,0,0,32.09,8.17,45,45,0,0,0,4.9-.67c4-.93,8-.93,12-4.87-3,0-5,1.31-8,2.62,5-3.94,10-6.56,14-13.13-1,0-3,1.31-4,1.31,2-9.19,10-5.25,14-9.19,0,1.32,0,2.63-1,2.63a12.18,12.18,0,0,0,8.18-3.37A3.52,3.52,0,0,0,353.24,60.87Z"/><path class="cls-6" d="M172.85,50.6c-19,2.62-38,4.19-56.91,6.19-1.89.2-3.78.41-5.63.7C99.59,59.26,93.59,72.39,83.59,73.7c5-2.63,9-3.94,13-9.19-5,6.56-16,10.5-19,2.63-10-25-36-23.64-54-18.39,5-1.31,11-2.62,16-3.94-11,2.63-22,5.25-32,10.51,2-1.32,4-1.32,6-2.63-5,1.31-9,3.94-14,3.94,1,0,3,0,4-1.31A46.26,46.26,0,0,1-2.84,55a49.37,49.37,0,0,0-5.47-1c-14.62-1.81-29.5,2.6-43.1,7.85h4c-5,3.94-9,0-14-1.31,14,5.91,29.25,8.21,44.75,8.86,1.94.08,3.88.14,5.82.17,25.43-6.4,53.43-37.92,78.43-10.34-3-6.57-8-7.88-13-10.51,5,2.63,13,3.94,12,10.51-1,5.25-12,2.62-12,11.81a18.39,18.39,0,0,0,4,1.32c-1-1.32-3-2.63-2-3.94a3.16,3.16,0,0,1,3-1.31c1,1.31-2,3.93,4,3.93-1-1.31-3-2.62-4-3.93,1,0,2-1.32,3-1.32a2.6,2.6,0,0,0-2,3.94c10,6.57,22,9.19,33,6.57-4-3.94-8,1.31-12-1.32,3,0,7,0,10-2.62h-3c9-2.63,15-13.13,24.56-13.08l5.73-.78c17.18-2.4,34.33-5.16,51.85-7.65C171.53,50.79,172.22,50.7,172.85,50.6Z"/><path class="cls-7" d="M215.15,48.34c10.44,1.72,21.44-3.53,31.44.41h-2c-7-5.25-15-2.62-22-1.31,1-1.31,3-1.31,5-1.31-13-2.63-25,2.62-38,2.62,17-2.62,33-6.56,50-5.25-17,0-35,2.63-52,3.37l-1.79-.25a45.57,45.57,0,0,0-10.71-.21c-1.22.13-2.45.31-3.7.54-17.88,1.16-35.42,1.57-53.11,1.72l-5.91,0c-3.79,0-6.79,0-10.79,1.35-7,2.63-10,18.39-16,14.45-23-18.38-49-26.26-73-11.82,8-3.94,17-5.25,26-7.88a85.16,85.16,0,0,0-17,5.25c16-5.25,37-7.87,50,9.2-3-5.26-7-7.88-11-10.51,4,3.94,11,5.25,12,13.13,0,3.94-6,1.32-4,5.26,1,2.62,5,2.62,8,3.93h-4c4,0,7,3.94,11,2.63-6,0-12-2.63-18-3.94,7,6.57,15,3.94,23,6.57-3,1.31-6-1.32-9-1.32q6,2,12-3.94c-1,0-1,1.32-2,1.32,9-2.63,14-15.76,24.43-13.63l5.54-.73c16.59-2.22,33.15-4.44,50-6.65-17.15,7.5-35.31,8.31-53.4,10.07-1.81.17-3.62.36-5.36.68-5.24-.25-9.24,3.69-13.24,7.63,4-3.94,9-2.62,14.28-3.65,1.4,0,2.84.1,4.29.07a35.41,35.41,0,0,0,4.43-.36c-1.5,0-3.25,0-5-.16a18.65,18.65,0,0,1-5-1.07,94.68,94.68,0,0,1,10.53-2.21c16-2.51,32.3-2.31,48.17-3.78,1.77-.17,3.54-.36,5.32-.59,21.94-4,42.94-11.88,64.94-7.95-3-1.31-5,2.63-8,1.32,8,1.31,15,0,23,2.62-6,0-13-2.62-19-3.94,2,0,5-2.62,7-1.31-9,0-18,0-27-.24Z"/></g></g><g class="cls-10"><rect class="cls-3" x="-162.89" y="368.09" width="493.75" height="71.13"/><g class="cls-5"><path class="cls-3" d="M330.86,368.09h-23.2c-1.63,0-3.34,0-5.11,0-32,8.64-64-7.58-95.82-.07-1.61,0-3.21,0-4.81,0H188.8c-33.22,10.29-65.22-4.3-98.22-1.06-9,0-19-1.62-28,1.05H40.22a8.7,8.7,0,0,1-2,.38,4.79,4.79,0,0,1-2.26,0,8.29,8.29,0,0,1-2-.38H28.31c-18.17,3.59-37.15,3.6-56.41,2.39-2.14-.14-4.29-.29-6.43-.45-8.89-1.38-16.89,8.35-24.89,3.49-23-11.35-47-14.6-71.34-7.87-2.08.21-4.15.45-6.21.74-24.74,3.43-48.29,12.59-69.45,33.08,11,22.7,37,8.11,43.47,36.7.06,1.94.06,3.05.06,3.05s1,0,3-.07c18.44.86,29.44-25.09,45.44-31.57,2,0,5-1.63,5,1.62,1,13,0,34.06,12.22,29.57l5.89,0q11.79-.09,23.57-.12c2,0,3.92,0,5.9,0,6.42-.24,11.42-.24,17.64,0h5.87q26.46.11,52.83.5c2.08-.06,4.13-.1,6.24-.18,17.84,4.31,33.84-24.89,48.84-10.29,6,4.86,14,8.11,21.39,10.56h2c.61.79,2.61.79,4,0h13.52c4.1-2.44,7.1-.82,11.49,0,.6,0,1.22.05,1.85.05h29.71a32.16,32.16,0,0,0,4.54.56q7.6.14,15.4.13c1.77,0,3.55,0,5.38-.12,18.73-7.89,37.73-12.75,56.94-.57h20.53c4.7-3.06,8.68-2.91,13-1.61,1.45.44,2.93,1,4.49,1.61,16.76.79,33.76,12.14,50.76,13.77,12,0,16-16.22,18-30.82,0-4.86-7-8.11-10-13-1-3.25-2-8.11-1.15-10.68,0-.77,0-1.52,0-2.27,0-3.75-.18-7.46-.53-11.66,0-.64,0-1.27,0-1.88Z"/><path class="cls-6" d="M278.31,400.38c-1.73-.91-4.73-5.78-6.73-4.16-3,0,4,3.25,1,6.49-6,3.24-13,3.24-20,6.49,2-4.87,8-3.25,8-8.11,1-6.49-4-3.24-6-6.49,3-1.62,6,1.62,8,3.25,1,3.24-3,4.86-4,8.1,4-3.24,8,0,12-4.86-11-19.46-29-14.6-44-16.22,5,0,9,3.24,14,1.62h-3c6,1.62,13,0,19,4.87-17-11.35-35-1.62-52-1.62,7-6.49,16-8.11,24-8.11-11,0-23,0-32,11.35,32-27.57,72-13,99,22.7-2,0-2-1.62-3-3.24,1,1.62,2,3.24,2,4.87-5-3.25-10-9.73-14.24-15.06Z"/><path class="cls-6" d="M213.24,398.22c-2.66,1.25-4.66,4.49-7.66,6.11,0-1.62,0-4.86-1-4.86-4,0-14,1.62-12,13l1-1.62c-2,8.11-9,9.73-12,16.22h1a38.45,38.45,0,0,0-10.9,1,47.7,47.7,0,0,1-5-.39c-8.42-1.06-16.93-4.1-25.06-7.14,8.13,3,16.25,6.08,24.38,6.35a31.74,31.74,0,0,0,4.87-.19c3.75-1.29,6.75-1.29,10.75-2.92-3-1.62-7-1.62-10-2.23-1.5-.5-3-1.06-4.5-1.64-7.5-2.92-15-6.47-22.5-7.48,9.63,2.84,19.25,6.92,28.88,10.07,1.42.43,2.83.84,4.28,1.19a13.91,13.91,0,0,1-5.16,1.43c-8.33.6-16.66-5.93-25-4.58,6,0,13,1.62,19,1.62-18-8.11-36-6.49-54-1.62,6-3.24,11-8.11,17-11.35-4-4.87-10-1.62-11-6.49-1-3.24,2-11.35,7-9.73-5,3.24-9-8.11-14-6.49,6,1.62,13,1.62,19,4.87-3-1.62-5,3.24-8,1.62a6.24,6.24,0,0,0,5-1.62c-1,6.49-5,1.62-7,4.86,0-1.62,2-1.62,2-3.24,0,1.62,1,1.62,1,3.24-7-1.62-12,6.49-18,8.11a3.18,3.18,0,0,1-5,0c-1-3.24,2-6.48,3-8.11-28-11.35-53,22.71-81,21.89-2.15.24-4.2.39-6.27.54-13.62.43-27.22,0-40.79-.47-1.94-.07-3.88-.14-5.79-.15-9.1.9-17.1,4.14-26.1,4.14,9,1.62,17-3.24,26.3-1.25q2.94.27,5.9.49c9.83.76,19.7,1.21,29.52,1.34,2,0,3.93,0,5.9,0,26.38,4.26,48.38-21.69,73.38-26.56,6-1.62,16-1.62,13,13,9,3.24,15-6.49,23-11.35-1,1.62-2,1.62-3,3.24,3,4.86,7,3.24,10,8.11-5,1.62-10,8.11-15,11.35a17.32,17.32,0,0,1,4-4.87c-3,0-5,1.63-7,4.87,20-3.24,41-4.87,61,3.24-9-3.24-17-3.24-26-3.24,6,3.24,13,0,19,4.87-7-4.87-16-1.63-23-6.49A43.87,43.87,0,0,0,172.68,429a36.1,36.1,0,0,0,4.9-.83c4-1.15,8-1.15,12-6-3,0-5,1.62-8,3.25,5-4.87,10-8.11,14-16.22-1,0-3,1.62-4,1.62,2-11.35,10-6.49,14-11.35,0,1.62,0,3.24-1,3.24a11.13,11.13,0,0,0,8.18-4.16A2.78,2.78,0,0,0,213.24,398.22Z"/><path class="cls-6" d="M32.84,385.53c-19,3.24-38,5.18-56.9,7.65-1.89.25-3.78.51-5.63.87-10.73,2.17-16.73,18.39-26.73,20,5-3.24,9-4.86,13-11.35-5,8.11-16,13-19,3.24-10-30.81-36-29.19-54-22.7,5-1.62,11-3.24,16-4.87-11,3.25-22,6.49-32,13,2-1.62,4-1.62,6-3.25-5,1.63-9,4.87-14,4.87,1,0,3,0,4-1.62a37.87,37.87,0,0,1-6.42-.39,42.53,42.53,0,0,0-5.47-1.21c-14.63-2.23-29.51,3.22-43.11,9.71h4c-5,4.86-9,0-14-1.62,14,7.29,29.25,10.13,44.75,10.94q2.91.15,5.83.21c25.42-7.91,53.42-46.83,78.42-12.78-3-8.11-8-9.73-13-13,5,3.24,13,4.86,12,13-1,6.49-12,3.25-12,14.6,0,0,3,1.62,4,1.62-1-1.62-3-3.24-2-4.86a2.92,2.92,0,0,1,3-1.63c1,1.63-2,4.87,4,4.87-1-1.62-3-3.24-4-4.87,1,0,2-1.62,3-1.62-2,0-3,3.25-2,4.87,10,8.11,22,11.35,33,8.11-4-4.87-8,1.62-12-1.63,3,0,7,0,10-3.24h-3c9-3.24,15-16.22,24.57-16.14l5.73-1c17.17-3,34.33-6.36,51.85-9.45C31.53,385.77,32.22,385.65,32.84,385.53Z"/><path class="cls-7" d="M75.15,382.74c10.43,2.13,21.43-4.36,31.43.51h-2c-7-6.49-15-3.24-22-1.62,1-1.62,3-1.62,5-1.62-13-3.25-25,3.24-38,3.24,17-3.24,33-8.11,50-6.49-17,0-35,3.25-52,4.16l-1.8-.3a36.19,36.19,0,0,0-10.71-.26,32.58,32.58,0,0,0-3.69.67C13.52,382.46-4,383-21.72,383.15l-5.9.05c-3.8.05-6.8.05-10.8,1.67-7,3.24-10,22.71-16,17.84-23-22.7-49-32.44-73-14.6,8-4.86,17-6.48,26-9.73a73.62,73.62,0,0,0-17,6.49c16-6.49,37-9.73,50,11.35-3-6.48-7-9.73-11-13,4,4.86,11,6.49,12,16.22,0,4.86-6,1.62-4,6.48,1,3.25,5,3.25,8,4.87h-4c4,0,7,4.86,11,3.24-6,0-12-3.24-18-4.86,7,8.11,15,4.86,23,8.11-3,1.62-6-1.63-9-1.63q6,2.44,12-4.86c-1,0-1,1.62-2,1.62,9-3.24,14-19.46,24.44-16.82l5.53-.92c16.6-2.73,33.16-5.47,50-8.21-17.14,9.27-35.3,10.26-53.39,12.44-1.81.22-3.62.45-5.37.84-5.24-.3-9.24,4.56-13.24,9.43,4-4.87,9-3.25,14.28-4.52,1.41.07,2.84.13,4.3.1a29.44,29.44,0,0,0,4.42-.45,43.94,43.94,0,0,1-5-.2,15.26,15.26,0,0,1-4.95-1.32,79.08,79.08,0,0,1,10.53-2.73c16-3.1,32.29-2.85,48.17-4.67q2.66-.3,5.32-.72c21.93-4.95,42.93-14.68,64.93-9.82-3-1.62-5,3.24-8,1.62,8,1.62,15,0,23,3.25-6,0-13-3.25-19-4.87,2,0,5-3.24,7-1.62-9,0-18,0-26.95-.3C75.41,382.87,75.26,382.79,75.15,382.74Z"/><path class="cls-7" d="M292.52,411.25a13.37,13.37,0,0,1,2.06,2.81c-30-38.92-73-47-108-22.7-3,1.62-4,9.73-2,17.84-2,0-4,0-5-1.62,0-1.63,1-4.87,1-6.49a25.37,25.37,0,0,1-3,6.47,22.3,22.3,0,0,1-5.67.71c-16.77-.06-32.16-17.72-48.36-10.42,1,0,3-1.63,4-1.63l-1-1.62c8,8.11,19,3.25,27,11.35-3-3.24-6,0-9-3.24,7.5,2.43,16.25,10.14,24.5,13.18a19.5,19.5,0,0,0,4.92,1.16c2.58-1.37,6.58-1.37,9.58-3,6-6.48,9-17.84,17-19.46,0,1.62-1,1.62-1,3.25,11-8.11,24-11.36,36-9.74h-27c21-13,45-11.35,65,6.49-4-4.86-9-4.86-13-8.11,4,6.49,10,6.49,12,16.22-1-3.24-2-6.49-4-8.11,11,0,17,16.22,25.9,19.73C293.22,412.39,292.64,411.44,292.52,411.25Z"/></g></g><g class="cls-11"><rect class="cls-3" x="-40.44" y="325.65" width="493.75" height="57.59"/><g class="cls-5"><path class="cls-3" d="M453.3,325.65H430.11c-1.64,0-3.35,0-5.12,0-32,7-64-6.13-95.82-.05-1.61,0-3.2,0-4.81,0H311.24C278,334,246,322.17,213,324.79c-9,0-19-1.31-28,.85H162.67a10.61,10.61,0,0,1-2,.3,5.78,5.78,0,0,1-2.27,0,10,10,0,0,1-2-.3h-5.69c-18.17,2.9-37.14,2.91-56.41,1.93l-6.43-.36C79,326.1,71,334,63,330c-23-9.19-47-11.81-71.35-6.37q-3.11.25-6.21.6c-24.73,2.78-48.29,10.2-69.44,26.78,11,18.39,37,6.57,43.47,29.72.06,1.57.06,2.47.06,2.47s1,0,3-.06C-19,383.88-8,362.87,8,357.62c2,0,5-1.31,5,1.31,1,10.51,0,27.58,12.21,23.95l5.9,0q11.79-.07,23.56-.09c2,0,3.93,0,5.9,0,6.43-.19,11.43-.19,17.65,0h5.87q26.44.09,52.83.4c2.07,0,4.12-.07,6.24-.14C161,386.51,177,362.87,192,374.69c6,3.94,14,6.56,21.39,8.55h2c.62.64,2.62.64,4,0h13.52c4.11-2,7.11-.66,11.5,0,.59,0,1.21,0,1.85,0H276a39.2,39.2,0,0,0,4.54.45c5.07.07,10.21.12,15.4.11,1.77,0,3.55,0,5.39-.1,18.73-6.38,37.73-10.32,56.93-.46h20.53c4.7-2.47,8.69-2.35,13-1.3,1.44.35,2.92.8,4.48,1.3,16.77.64,33.77,9.83,50.77,11.15,12,0,16-13.14,18-24.95,0-3.94-7-6.57-10-10.51-1-2.62-2-6.56-1.16-8.64,0-.62,0-1.23,0-1.84a88.08,88.08,0,0,0-.54-9.44c0-.52,0-1,0-1.52Z"/><path class="cls-6" d="M335.68,350c-2.65,1-4.65,3.64-7.65,4.95,0-1.31,0-3.94-1-3.94-4,0-14,1.32-12,10.51l1-1.32c-2,6.57-9,7.88-12,13.14h1a47.42,47.42,0,0,0-10.91.84c-1.67,0-3.35-.14-5-.31-8.42-.86-16.94-3.32-25.06-5.79,8.12,2.47,16.25,4.93,24.37,5.15a41.88,41.88,0,0,0,4.88-.16c3.75-1.05,6.75-1.05,10.75-2.36-3-1.31-7-1.31-10-1.81-1.5-.41-3-.86-4.5-1.33-7.5-2.36-15-5.23-22.5-6.05,9.62,2.3,19.25,5.6,28.87,8.15,1.42.35,2.83.68,4.28,1a16.27,16.27,0,0,1-5.15,1.16c-8.34.49-16.67-4.8-25-3.71,6,0,13,1.32,19,1.32-18-6.57-36-5.26-54-1.32,6-2.62,11-6.56,17-9.19-4-3.94-10-1.31-11-5.25-1-2.63,2-9.19,7-7.88-5,2.63-9-6.56-14-5.25,6,1.31,13,1.31,19,3.94-3-1.32-5,2.62-8,1.31a7.25,7.25,0,0,0,5-1.31c-1,5.25-5,1.31-7,3.94,0-1.32,2-1.32,2-2.63,0,1.31,1,1.31,1,2.63-7-1.32-12,5.25-18,6.56-1,1.32-4,1.32-5,0-1-2.62,2-5.25,3-6.56-28-9.19-53,18.38-81.06,17.72-2.15.19-4.2.31-6.27.44-13.62.34-27.21,0-40.79-.39-1.94-.05-3.88-.11-5.79-.12C83,366.81,75,369.44,66,369.44c9,1.31,17-2.63,26.29-1,2,.14,3.93.28,5.9.4q14.76.93,29.53,1.08c2,0,3.93,0,5.89,0C160,373.38,182,352.37,207,348.43c6-1.32,16-1.32,13,10.5,9,2.63,15-5.25,23-9.19-1,1.31-2,1.31-3,2.63,3,3.94,7,2.62,10,6.56-5,1.31-10,6.57-15,9.19a15.12,15.12,0,0,1,4-3.94c-3,0-5,1.32-7,3.94,20-2.62,41-3.94,61,2.63-9-2.63-17-2.63-26-2.63,6,2.63,13,0,19,3.94-7-3.94-16-1.31-23-5.25A51.12,51.12,0,0,0,295.12,375a42.63,42.63,0,0,0,4.9-.67c4-.93,8-.93,12-4.87-3,0-5,1.31-8,2.62,5-3.94,10-6.56,14-13.13-1,0-3,1.31-4,1.31,2-9.19,10-5.25,14-9.19,0,1.32,0,2.63-1,2.63a12.14,12.14,0,0,0,8.17-3.37A3.15,3.15,0,0,0,335.68,350Z"/><path class="cls-6" d="M155.29,339.77c-19,2.62-38,4.19-56.91,6.2-1.89.2-3.78.4-5.63.69C82,348.43,76,361.56,66,362.87c5-2.63,9-3.94,13-9.19-5,6.56-16,10.5-19,2.63-10-24.95-36-23.64-54-18.39,5-1.31,11-2.62,16-3.94-11,2.63-22,5.26-32,10.51,2-1.32,4-1.32,6-2.63-5,1.31-9,3.94-14,3.94,1,0,3,0,4-1.31a47.74,47.74,0,0,1-6.43-.31,47.19,47.19,0,0,0-5.47-1c-14.62-1.81-29.5,2.6-43.1,7.85h4c-5,3.94-9,0-14-1.31,14,5.91,29.25,8.21,44.75,8.86,1.93.09,3.88.14,5.82.17C-3,352.37,25,320.85,50,348.43c-3-6.57-8-7.88-13-10.51,5,2.63,13,3.94,12,10.51-1,5.25-12,2.62-12,11.81a18.39,18.39,0,0,0,4,1.32c-1-1.32-3-2.63-2-3.94a3.16,3.16,0,0,1,3-1.31c1,1.31-2,3.93,4,3.93-1-1.31-3-2.62-4-3.93,1,0,2-1.32,3-1.32a2.6,2.6,0,0,0-2,3.94c10,6.57,22,9.19,33,6.57-4-3.94-8,1.31-12-1.32,3,0,7,0,10-2.62H71c9-2.63,15-13.13,24.56-13.07l5.73-.79c17.18-2.4,34.33-5.16,51.85-7.65C154,340,154.66,339.87,155.29,339.77Z"/><path class="cls-7" d="M197.59,337.51C208,339.24,219,334,229,337.92h-2c-7-5.25-15-2.62-22-1.31,1-1.31,3-1.31,5-1.31-13-2.63-25,2.62-38,2.62,17-2.62,33-6.56,50-5.25-17,0-35,2.63-52,3.37l-1.79-.25a45.65,45.65,0,0,0-10.72-.21c-1.21.13-2.44.31-3.69.55-17.88,1.15-35.42,1.56-53.11,1.71l-5.91,0c-3.79,0-6.79,0-10.79,1.36-7,2.62-10,18.38-16,14.44C45,335.3,19,327.42-5,341.86c8-3.94,17-5.25,26-7.88a84.56,84.56,0,0,0-17,5.26c16-5.26,37-7.88,50,9.19-3-5.26-7-7.88-11-10.51,4,3.94,11,5.25,12,13.13,0,3.94-6,1.32-4,5.26,1,2.62,5,2.62,8,3.93H55c4,0,7,3.94,11,2.63-6,0-12-2.63-18-3.94,7,6.57,15,3.94,23,6.57-3,1.31-6-1.32-9-1.32q6,2,12-3.94c-1,0-1,1.32-2,1.32,9-2.63,14-15.76,24.43-13.63l5.53-.73c16.6-2.22,33.16-4.44,50-6.65-17.15,7.5-35.31,8.31-53.4,10.07-1.81.17-3.62.36-5.36.68C88,351.05,84,355,80,358.93c4-3.94,9-2.62,14.28-3.65,1.4.05,2.84.1,4.29.07A35.56,35.56,0,0,0,103,355c-1.5,0-3.25,0-5-.16a18.65,18.65,0,0,1-5-1.07,94.2,94.2,0,0,1,10.53-2.21c16-2.51,32.29-2.31,48.17-3.78,1.77-.17,3.54-.36,5.32-.58,21.94-4,42.94-11.89,64.94-7.95-3-1.32-5,2.62-8,1.31,8,1.31,15,0,23,2.62-6,0-13-2.62-19-3.93,2,0,5-2.63,7-1.32-9,0-18,0-27-.24Z"/></g></g><g class="cls-12"><rect class="cls-3" y="251.7" width="493.75" height="71.13"/><g class="cls-5"><path class="cls-3" d="M493.75,251.7h-23.2c-1.64,0-3.35,0-5.12,0-32,8.65-64-7.57-95.81-.06-1.62,0-3.21,0-4.82,0H351.69c-33.22,10.29-65.22-4.31-98.22-1.06-9,0-19-1.63-28,1H203.11a9,9,0,0,1-2,.37,4.59,4.59,0,0,1-2.27,0,8,8,0,0,1-2-.38h-5.69c-18.17,3.59-37.14,3.6-56.4,2.39-2.15-.13-4.29-.28-6.44-.44-8.88-1.38-16.88,8.35-24.88,3.48-23-11.35-47-14.59-71.34-7.87q-3.12.31-6.21.74c-24.74,3.43-48.29,12.6-69.45,33.08,11,22.71,37,8.11,43.47,36.7.06,1.94.06,3.05.06,3.05s1,0,3-.06c18.44.86,29.44-25.09,45.44-31.58,2,0,5-1.62,5,1.62,1,13,0,34.06,12.21,29.58l5.9-.05q11.79-.09,23.57-.11c2,0,3.92,0,5.89,0,6.43-.23,11.43-.23,17.65,0,2,0,3.91,0,5.87,0q26.46.09,52.83.49c2.08-.06,4.12-.09,6.24-.18,17.84,4.31,33.84-24.88,48.84-10.29,6,4.87,14,8.11,21.39,10.56h2c.62.8,2.62.8,4,0h13.52c4.11-2.44,7.11-.81,11.5,0,.6,0,1.22,0,1.85,0h29.71a32.24,32.24,0,0,0,4.53.57c5.07.08,10.21.14,15.41.13,1.77,0,3.54,0,5.38-.13,18.73-7.88,37.73-12.75,56.94-.57h20.53c4.69-3.05,8.68-2.9,13-1.6,1.44.43,2.93,1,4.48,1.6,16.77.8,33.77,12.15,50.77,13.77,12,0,16-16.22,18-30.81,0-4.87-7-8.11-10-13-1-3.24-2-8.11-1.15-10.67,0-.77,0-1.52,0-2.27,0-3.75-.18-7.47-.54-11.66V251.7Z"/><path class="cls-6" d="M376.13,281.83c-2.66,1.25-4.66,4.5-7.66,6.12,0-1.62,0-4.87-1-4.87-4,0-14,1.62-12,13l1-1.63c-2,8.11-9,9.74-12,16.22h1a38.55,38.55,0,0,0-10.91,1,50.29,50.29,0,0,1-5-.38c-8.42-1.06-16.94-4.1-25.06-7.14,8.12,3,16.25,6.08,24.37,6.35a33.2,33.2,0,0,0,4.88-.2c3.75-1.29,6.75-1.29,10.75-2.91-3-1.62-7-1.62-10-2.23-1.5-.51-3-1.07-4.5-1.65-7.5-2.91-15-6.46-22.5-7.47,9.62,2.83,19.25,6.91,28.87,10.06,1.42.43,2.83.84,4.28,1.2a13.91,13.91,0,0,1-5.15,1.43c-8.33.6-16.67-5.94-25-4.58,6,0,13,1.62,19,1.62-18-8.11-36-6.49-54-1.62,6-3.25,11-8.11,17-11.36-4-4.86-10-1.62-11-6.48-1-3.25,2-11.36,7-9.73-5,3.24-9-8.11-14-6.49,6,1.62,13,1.62,19,4.86-3-1.62-5,3.25-8,1.63a6.21,6.21,0,0,0,5-1.63c-1,6.49-5,1.63-7,4.87,0-1.62,2-1.62,2-3.24,0,1.62,1,1.62,1,3.24-7-1.62-12,6.49-18,8.11a3.18,3.18,0,0,1-5,0c-1-3.25,2-6.49,3-8.11-28-11.35-53,22.7-81.06,21.88-2.15.25-4.19.4-6.27.55-13.62.43-27.21,0-40.78-.48-1.94-.07-3.88-.14-5.8-.15-9.09.9-17.09,4.15-26.09,4.15,9,1.62,17-3.25,26.3-1.26,2,.18,3.93.35,5.89.5q14.76,1.14,29.53,1.33c2,0,3.93,0,5.89,0,26.39,4.25,48.39-21.7,73.39-26.56,6-1.62,16-1.62,13,13,9,3.25,15-6.48,23-11.35-1,1.62-2,1.62-3,3.24,3,4.87,7,3.25,10,8.11-5,1.62-10,8.11-15,11.36a17,17,0,0,1,4-4.87c-3,0-5,1.62-7,4.87,20-3.25,41-4.87,61,3.24-9-3.24-17-3.24-26-3.24,6,3.24,13,0,19,4.86-7-4.86-16-1.62-23-6.49,9.8,7.95,21.07,11.13,32.09,10.1a36.5,36.5,0,0,0,4.91-.83c4-1.16,8-1.16,12-6-3,0-5,1.62-8,3.24,5-4.86,10-8.11,14-16.22-1,0-3,1.62-4,1.62,2-11.35,10-6.48,14-11.35,0,1.62,0,3.25-1,3.25a11.15,11.15,0,0,0,8.18-4.17A3.89,3.89,0,0,0,376.13,281.83Z"/><path class="cls-6" d="M195.73,269.15c-19,3.23-38,5.17-56.9,7.65-1.9.25-3.79.5-5.63.86-10.73,2.18-16.73,18.4-26.73,20,5-3.25,9-4.87,13-11.35-5,8.1-16,13-19,3.24-10-30.81-36-29.19-54-22.71,5-1.62,11-3.24,16-4.86-11,3.24-22,6.49-32,13,2-1.62,4-1.62,6-3.24-5,1.62-9,4.87-14,4.87,1,0,3,0,4-1.63a39,39,0,0,1-6.43-.38,42.16,42.16,0,0,0-5.47-1.21c-14.62-2.23-29.5,3.22-43.1,9.7h4c-5,4.87-9,0-14-1.62,14,7.3,29.25,10.14,44.75,11q2.91.15,5.82.21c25.43-7.92,53.43-46.84,78.43-12.78-3-8.11-8-9.73-13-13,5,3.25,13,4.87,12,13-1,6.49-12,3.24-12,14.59,0,0,3,1.63,4,1.63-1-1.63-3-3.25-2-4.87a2.92,2.92,0,0,1,3-1.62c1,1.62-2,4.86,4,4.86-1-1.62-3-3.24-4-4.86,1,0,2-1.62,3-1.62-2,0-3,3.24-2,4.86,10,8.11,22,11.36,33,8.11-4-4.86-8,1.62-12-1.62,3,0,7,0,10-3.24h-3c9-3.25,15-16.22,24.57-16.15l5.72-1c17.18-3,34.33-6.37,51.85-9.45C194.42,269.38,195.1,269.27,195.73,269.15Z"/><path class="cls-7" d="M238,266.35c10.44,2.14,21.44-4.35,31.44.51h-2c-7-6.48-15-3.24-22-1.62,1-1.62,3-1.62,5-1.62-13-3.24-25,3.24-38,3.24,17-3.24,33-8.1,50-6.48-17,0-35,3.24-52,4.16l-1.8-.31A36.89,36.89,0,0,0,198,264c-1.22.16-2.45.38-3.7.67-17.88,1.43-35.42,1.94-53.11,2.12l-5.9.05c-3.8.05-6.8.05-10.8,1.68-7,3.24-10,22.7-16,17.84-23-22.71-49-32.44-73-14.6,8-4.87,17-6.49,26-9.73a72.72,72.72,0,0,0-17,6.49c16-6.49,37-9.73,50,11.35-3-6.49-7-9.73-11-13,4,4.87,11,6.49,12,16.22,0,4.87-6,1.62-4,6.49,1,3.24,5,3.24,8,4.86h-4c4,0,7,4.87,11,3.25-6,0-12-3.25-18-4.87,7,8.11,15,4.87,23,8.11-3,1.62-6-1.62-9-1.62q6,2.43,12-4.87c-1,0-1,1.63-2,1.63,9-3.25,14-19.46,24.43-16.83l5.54-.91c16.6-2.74,33.15-5.48,50-8.21-17.14,9.27-35.31,10.26-53.4,12.43-1.81.22-3.61.45-5.36.84-5.24-.3-9.24,4.57-13.24,9.43,4-4.86,9-3.24,14.28-4.51,1.4.07,2.84.13,4.29.09a29.41,29.41,0,0,0,4.43-.44,41.86,41.86,0,0,1-5-.21,15.07,15.07,0,0,1-5-1.32A79.83,79.83,0,0,1,144,283.7c16-3.11,32.3-2.86,48.17-4.67,1.77-.21,3.54-.44,5.32-.73,21.94-4.95,42.94-14.68,64.94-9.81-3-1.63-5,3.24-8,1.62,8,1.62,15,0,23,3.24-6,0-13-3.24-19-4.86,2,0,5-3.25,7-1.63-9,0-18,0-27-.29Z"/></g></g><polygon class="cls-13" points="359.35 124.48 205.96 186.59 149.12 26.83 270.32 -7.73 359.35 124.48"/><polygon class="cls-14" points="355.01 99.11 218.22 192.26 128.88 48.14 240.02 -11.27 355.01 99.11"/><circle class="cls-7" cx="72.84" cy="150.5" r="36.26"/><circle class="cls-15" cx="54.11" cy="136.17" r="39.06"/><circle class="cls-16" cx="51.52" cy="132.08" r="35.69"/><path class="cls-17" d="M90.31,141h10.31a6,6,0,0,1,6,6v0a6,6,0,0,1-6,6H90.31a0,0,0,0,1,0,0V141a0,0,0,0,1,0,0Z" transform="translate(50.29 -23.25) rotate(18.02)"/><path class="cls-15" d="M51.52,168.14a36.07,36.07,0,1,1,36.07-36.06A36.11,36.11,0,0,1,51.52,168.14Z"/><path class="cls-17" d="M51.52,98.51A33.57,33.57,0,1,1,18,132.08,33.61,33.61,0,0,1,51.52,98.51m0-5a38.57,38.57,0,1,0,38.57,38.57A38.56,38.56,0,0,0,51.52,93.51Z"/><path class="cls-18" d="M84.74,133.22a32,32,0,0,1-32,32c-17.67,0-29.26-12.43-29.26-30.11a32,32,0,0,1,32-32C73.15,103.11,84.74,115.54,84.74,133.22Z"/><path class="cls-7" d="M108.77,42.4H121.2a0,0,0,0,1,0,0v64.48a6.21,6.21,0,0,1-6.21,6.21h0a6.21,6.21,0,0,1-6.21-6.21V42.4A0,0,0,0,1,108.77,42.4Z" transform="translate(253.1 63.96) rotate(140.24)"/><path class="cls-7" d="M149.05,118.68l-3.49-8.75-3.48-8.75a41.27,41.27,0,0,0-5.26,2.9,39.57,39.57,0,0,0-3.71,4.56l8,5Z"/><path class="cls-19" d="M100.21,42.63h12.42a0,0,0,0,1,0,0v64.48a6.21,6.21,0,0,1-6.21,6.21h0a6.21,6.21,0,0,1-6.21-6.21V42.63a0,0,0,0,1,0,0Z" transform="translate(237.4 62.1) rotate(136.86)"/><path class="cls-20" d="M142.84,116.84l-4-8.53-4-8.53a42.21,42.21,0,0,0-5.08,3.2,40.52,40.52,0,0,0-3.44,4.78l8.26,4.54Z"/><rect class="cls-7" x="12.2" y="193.12" width="215.65" height="307.46" rx="9.4"/><rect class="cls-21" x="9.06" y="195.91" width="215.65" height="307.46" rx="9.4"/><polygon class="cls-22" points="212.85 489.3 56.53 489.3 19.22 451.87 19.22 211.2 212.85 211.2 212.85 489.3"/><path class="cls-23" d="M153.57,215.24v-6.11a2.35,2.35,0,0,0-2.35-2.35H81.79a2.36,2.36,0,0,0-2.36,2.35v6.11"/><rect class="cls-13" x="81.5" y="202.02" width="70.19" height="7.53"/><polyline class="cls-24" points="87.05 223.35 107.09 223.35 108.65 222.63 123.89 222.63 124.88 223.35 151.69 223.35"/><polyline class="cls-25" points="79.43 213.75 79.43 223.35 89.08 223.35"/><polyline class="cls-25" points="153.57 213.75 153.57 223.35 143.93 223.35"/><rect class="cls-22" x="81.5" y="202.37" width="70.19" height="2.26"/></g></svg>