<svg id="fe62cfdc-3e35-461b-8e1d-aebd38dfd657" data-name="Layer 1" xmlns="http://www.w3.org/2000/svg" xmlns:xlink="http://www.w3.org/1999/xlink" viewBox="0 0 137.65009 196.94335"><defs><style>.a7556450-8693-4849-964a-8ea09d1b1999{fill:#a97c50;}.a98bdcc0-6002-404f-bfa8-82da994c1c4f{fill:#566345;}.b3b4cbe8-a007-4fd3-b3b7-2911d3189ea5{fill:#63774e;}.e4a98bbf-353b-4151-8a77-0afce0bdead8{fill:#dbae95;}.adc30b7e-71d1-4d9c-81e1-e2375c3aa2b6{fill:#fff;}.a25c0554-c5f3-4518-84a4-0d24de70bc0b{fill:url(#a6e975bf-0f5c-41f2-a599-dc4b0ab0738d);}.f602c859-d1d3-4d0c-8066-d9cb412b59eb{fill:#6f825a;}.e9563a7a-8f61-480b-b311-e9fa2767dca2{fill:#938c6c;}</style><radialGradient id="a6e975bf-0f5c-41f2-a599-dc4b0ab0738d" cx="50.80222" cy="50.75015" r="71.54861" gradientUnits="userSpaceOnUse"><stop offset="0" stop-color="#1ca36d" stop-opacity="0.8"/><stop offset="1" stop-color="#f6d2ba" stop-opacity="0"/></radialGradient></defs><title>Artboard 23 copy 6</title><path class="a7556450-8693-4849-964a-8ea09d1b1999" d="M45.41071,57.94482c-1.4933,5.837-4.01388,11.69884-8.70253,15.48267.70254,3.10277,3.30578,5.4981,6.21817,6.77822a30.74,30.74,0,0,0,9.301,1.94825,18.19791,18.19791,0,0,0,7.05541-.19607,6.71734,6.71734,0,0,0,4.44468-3.20122l-.14079,1.59746c.03233-.36637,4.61522-.60682,5.07-.65554A8.19368,8.19368,0,0,0,73.651,77.88581c1.6305-1.55253,2.00846-3.9944,2.051-6.24541a32.04768,32.04768,0,0,0-13.76771-26.614c-1.99281-1.35494-4.31155-2.5156-6.70718-2.25458a4.59549,4.59549,0,0,1-1.69866.05181c-1.23319-.33632-1.90682-2.69536-3.22561-2.57077-1.52346.14391-1.73163,2.9322-2.01551,4.09706C47.19019,48.85183,46.55957,53.45411,45.41071,57.94482Z"/><path class="a98bdcc0-6002-404f-bfa8-82da994c1c4f" d="M29.77654,107.93255c1.389-1.09005,2.29789-5.46967,2.99611-7.13112.99957-2.37852,2.10386-4.69321,3.19272-7.02983.7495-1.60836,1.13-3.358,1.97274-4.911,1.18409-2.1821,2.8288-4.16379,4.092-6.315a1.09288,1.09288,0,0,0,.21067-.63525c-.03922-.3946-.46326-.61228-.82459-.77564a26.13147,26.13147,0,0,1-4.28058-2.644c-2.3711-1.68435-5.34832-4.67139-8.05507-5.49843-1.52506,2.92041-3.65715,5.718-5.38238,8.55779a152.23586,152.23586,0,0,0-8.47772,16.983l-6.483,14.47369a13.00767,13.00767,0,0,0-1.45971,4.92542c-.05214,2.41827,1.2322,4.64466,2.55067,6.67256,1.36509,2.09962,3.01684,4.29344,5.444,4.91048a8.73847,8.73847,0,0,0,3.58705-.01017,47.94221,47.94221,0,0,0,9.21007-2.85691l18.63826-7.18638a55.18257,55.18257,0,0,0,9.54692-4.39749,13.81264,13.81264,0,0,0,3.81814-3.29805,17.34251,17.34251,0,0,0,2.15208-4.32274,75.70809,75.70809,0,0,0,4.299-15.1836,30.14473,30.14473,0,0,0,.53594-7.72835c-.32758-2.8872-1.42068-2.28252-3.44189-1.03913A233.37728,233.37728,0,0,0,38.5106,100.823C35.62313,103.22923,32.73333,105.6122,29.77654,107.93255Z"/><path class="a98bdcc0-6002-404f-bfa8-82da994c1c4f" d="M94.88469,200.49732c-.99075.96962-.8472,6.22716-1.02726,7.54572-.71981,5.2711-1.508,10.537-2.506,15.77645-.77206,4.05775-.98876,8.94775-3.06161,12.61458-2.21,3.9094-5.85554,6.40345-7.907,10.43983-2.73719,5.38555-4.66471,11.41286-6.63079,17.11388A244.46963,244.46963,0,0,0,64.60587,298.502a39.16746,39.16746,0,0,0-.91165,8.44559,53.59663,53.59663,0,0,0,.96816,7.189A103.8544,103.8544,0,0,1,62.37361,358.504a104.02347,104.02347,0,0,1-8.3325,21.19874c-1.242,2.35636-3.10505,7.48656-5.22508,9.06548-4.37359,3.25672-19.0185.72353-23.73519-.97038a168.09953,168.09953,0,0,0,5.51539-18.19637A155.35275,155.35275,0,0,0,34.7184,322.4398c-.59042-8.87562-1.13955-16.42142.2509-25.31322q3.69365-23.62054,8.56571-47.029c3.4863-16.74044,4.96981-33.0585,7.45392-50.04032a7.902,7.902,0,0,1,1.41676-4.10645c3.80255-4.44483,13.86426,1.06185,17.85787,2.28305C78.16263,200.64831,86.72023,200.15636,94.88469,200.49732Z"/><path class="b3b4cbe8-a007-4fd3-b3b7-2911d3189ea5" d="M99.26709,186.62747c13.34024-14.62766,26.42608,18.18123,28.19282,27.20713,2.03876,10.41562-.853,20.5711-.52949,30.91462.34072,10.89321-3.76426,33.25005,3.45935,41.7799,3.67789,4.343,10.58579,7.69774,15.02929,11.52591a167.846,167.846,0,0,1,14.34165,13.92743c17.0616,18.66879,30.29992,41.56,36.67442,66.11992-3.15036.87571-6.19065,3.39723-9.502,4.55973-3.94152,1.38372-8.09927,2.17386-11.65722,4.48413,5.13777-3.33609-24.0003-36.53743-26.7769-39.58659-8.20772-9.01344-16.4875-18.178-27.21664-23.81949-9.707-5.104-19.4367-11.598-24.23745-21.85311a62.47707,62.47707,0,0,1-3.73765-11.90133c-3.53229-14.58755-8.686-27.81693-13.98266-41.84924-1.84249-4.88128-3.69057-6.84132-7.22308-10.18883-3.5649-3.37821-5.49412-8.11737-7.50042-12.55482a211.49924,211.49924,0,0,1-11.702-32.85212A41.55638,41.55638,0,0,1,73.62209,197.452"/><path class="e4a98bbf-353b-4151-8a77-0afce0bdead8" d="M48.65053,38.11747C50.2708,28.006,53.83266,19.223,65.39528,15.70846c5.94036-1.80559,12.43986-1.06394,18.27224,1.06484a22.95665,22.95665,0,0,1,8.76062,5.28758c3.09461,3.19636,4.7224,7.55956,5.53445,11.93379,1.544,8.317,1.52788,20.31433-3.65224,27.476C93.05444,63.207,91.104,62.92,89.556,63.951c-1.95031,1.299-2.81237,4.5765-3.09807,6.73733a33.47959,33.47959,0,0,0,.34537,8.57253c.2056,1.6224.41691,3.2442.6168,4.86731.18063,1.46671-.17355,3.23182.06881,4.59719.42812,2.41184,1.95867,3.86154,1.51142,6.64744-.768,4.78348-4.98091,9.5376-8.269,12.87732a15.85648,15.85648,0,0,1-6.30612,4.27544,1.99009,1.99009,0,0,1-1.2915.07821,2.15934,2.15934,0,0,1-.96679-1.00747,48.30646,48.30646,0,0,1-5.48677-13.47025C65.984,95.22311,65.5476,92.125,66.428,89.21078c.65908-2.18169,2.10431-3.92217,2.4276-6.22084.48289-3.4334-.23909-9.831-4.51509-10.4668l-8.45381-1.257c-11.10789-1.65163-8.89539-18.25081-8.11043-26.10194C48.01486,42.77756,48.28265,40.41327,48.65053,38.11747Z"/><path class="adc30b7e-71d1-4d9c-81e1-e2375c3aa2b6" d="M67.20921,85.38071c1.19306.09077,1.36819,1.74684,1.65034,2.59072.49494,1.48032,1.308,2.922,1.94626,4.34763.64487,1.4404,1.50005,3.05808,3.045,3.38031a4.78343,4.78343,0,0,0,3.40252-1.04078A60.99223,60.99223,0,0,0,84.61864,88.591c.36112-.31894,5.04652-4.7937,5.29681-4.28053,1.68534,3.45542.56178,8.02239.66192,11.73527q.16573,6.14376.233,12.28964c.092,8.11052.06629,16.222-.03308,24.33233-.09941,8.11449-.2732,16.22787-.47237,24.34046-.05284,2.15241.12371,24.04209-.626,24.18337a96.15216,96.15216,0,0,1-32.78534.47585q-.23026-10.70664-.053-21.41688.46608-28.178,3.74333-56.21585a66.94683,66.94683,0,0,1,2.45488-12.84785c.49033-1.519,1.53978-4.39417,2.87139-5.33007A2.06487,2.06487,0,0,1,67.20921,85.38071Z"/><path class="a25c0554-c5f3-4518-84a4-0d24de70bc0b" d="M48.65053,38.11747C50.2708,28.006,53.83266,19.223,65.39528,15.70846c5.94036-1.80559,12.43986-1.06394,18.27224,1.06484a22.95665,22.95665,0,0,1,8.76062,5.28758c3.09461,3.19636,4.7224,7.55956,5.53445,11.93379,1.544,8.317,1.52788,20.31433-3.65224,27.476C93.05444,63.207,91.104,62.92,89.556,63.951c-1.95031,1.299-2.81237,4.5765-3.09807,6.73733a33.47959,33.47959,0,0,0,.34537,8.57253c.2056,1.6224.41691,3.2442.6168,4.86731.18063,1.46671-.17355,3.23182.06881,4.59719.42812,2.41184,1.95867,3.86154,1.51142,6.64744-.768,4.78348-4.98091,9.5376-8.269,12.87732a15.85648,15.85648,0,0,1-6.30612,4.27544,1.99009,1.99009,0,0,1-1.2915.07821,2.15934,2.15934,0,0,1-.96679-1.00747,48.30646,48.30646,0,0,1-5.48677-13.47025C65.984,95.22311,65.5476,92.125,66.428,89.21078c.65908-2.18169,2.10431-3.92217,2.4276-6.22084.48289-3.4334-.23909-9.831-4.51509-10.4668l-8.45381-1.257c-11.10789-1.65163-8.89539-18.25081-8.11043-26.10194C48.01486,42.77756,48.28265,40.41327,48.65053,38.11747Z"/><path class="b3b4cbe8-a007-4fd3-b3b7-2911d3189ea5" d="M114.90187,87.66148A89.01388,89.01388,0,0,0,94.675,79.9055c-2.3374-.582-5.09319-.97715-6.91166.6025a7.92986,7.92986,0,0,0-1.98944,3.66975c-.00008,6.02233-3.76535,10.63417-7.13759,15.12056-2.95649,3.93328-4.62266,8.05741-6.56322,12.47278a144.27226,144.27226,0,0,1-2.33267-16.396c-.34257-2.993,1.35606-18.23552-5.50936-11.9095a16.57763,16.57763,0,0,0-3.26309,5.1905,31.81613,31.81613,0,0,0-1.99854,7.5916c-1.6007,10.15154-11.179,16.74759-9.74984,27.771.5831,4.49755,2.79285,8.41455,3.333,12.878.64586,5.33727,2.57893,10.39206,2.89918,15.8191.36524,6.18951-1.74223,11.5039-2.313,17.51368q-1.05987,11.15883-1.41022,22.37016c-.0614,1.9592.02778,4.22191,1.56893,5.43313,1.4598,1.14728,3.54538.81315,5.37109.47549,9.91767-1.83424,19.3798-.28235,29.21746-1.04229a162.99332,162.99332,0,0,0,23.58872-3.72083c-4.57064-21.57373.42392-42.59344,1.23178-64.09775L114.26169,88.247"/><path class="a7556450-8693-4849-964a-8ea09d1b1999" d="M85.71367,65.91836c-2.78663-1.80111-5.61143-4.29761-6.98563-7.25369-1.34793-2.89955-1.63709-8.16495.98456-10.46581a10.132,10.132,0,0,0,3.72061-6.53324c.1316-1.758-.89426-3.738-2.63166-4.03728-2.65416-.45722-3.91474,2.20505-5.583,3.62047-3.85068,3.26711-6.19064-1.47593-8.78122-3.40712a11.79685,11.79685,0,0,0-3.028-1.46043c-2.56186-.94648-5.2122-1.67361-7.82054-2.47856A19.23836,19.23836,0,0,0,51.77664,32.654a2.66382,2.66382,0,0,0-1.71246.59487c-.26237.19972-1.111,1.65861-1.26248,1.67282-1.40831.13211-1.98283-5.7916-2.06641-6.84511a22.46609,22.46609,0,0,1,.59808-7.346A16.88851,16.88851,0,0,1,56.18449,9.54344c3.36562-1.62752,12.13517-.78638,15.48511-2.56572,6.69469-3.5559,18.29893-1.2748,24.48326,2.70543,9.67268,6.22534,13.57623,17.73644,14.00568,28.74943.18217,4.67186-.07512,10.35135-1.871,14.72917-1.693,4.12691-6.55878,8.44376-10.54677,10.39966-1.49344.73245-3.10167,1.23674-4.51781,2.10931a11.36891,11.36891,0,0,1-2.75819,1.54943,4.87837,4.87837,0,0,1-3.70991-.65889C86.41034,66.35815,86.0623,66.1437,85.71367,65.91836Z"/><path class="f602c859-d1d3-4d0c-8066-d9cb412b59eb" d="M71.831,119.09162q.05216-.44144.1065-.87925c.63389-5.10709.06774-8.87371-1.01952-14.01575a3.68762,3.68762,0,0,0-1.04237-2.22838c.15494,8.2219-1.89861,16.01692-2.39507,24.11749-1.4355,23.42275,1.09557,46.76207-1.464,70.12072a.89715.89715,0,0,0,.07848.60421.86238.86238,0,0,0,.60214.29146,6.92773,6.92773,0,0,0,3.03518-.17371,1.16949,1.16949,0,0,0,.66555-.38424,1.23956,1.23956,0,0,0,.16587-.64423c.31034-4.76938-.3591-9.79473-.40025-14.59933-.06437-7.51767-.12875-15.036-.03913-22.55381.09048-7.58849.3383-15.17424.66462-22.75607a93.12632,93.12632,0,0,1,3.617-26.06019,16.14717,16.14717,0,0,0,.8123-4.44862,12.13956,12.13956,0,0,0-3.93417,6.22224,30.09106,30.09106,0,0,0-1.19165-8.71207"/><path class="f602c859-d1d3-4d0c-8066-d9cb412b59eb" d="M71.66223,198.369a228.6309,228.6309,0,0,0,2.27533,28.57108c-4.46512-8.97656-5.614-19.18432-6.69464-29.15168a4.268,4.268,0,0,1,.07323-1.86133,2.61855,2.61855,0,0,1,3.77036-1.07646,3.98651,3.98651,0,0,1,1.5406,3.97023"/><path class="e9563a7a-8f61-480b-b311-e9fa2767dca2" d="M111.9423,181.72761a32.69741,32.69741,0,0,0,1.06988,4.35048c.2382.55889,1.56067,2.24782.81375,2.74151a29.37381,29.37381,0,0,1-2.6994,1.66832,42.529,42.529,0,0,1-9.43269,3.01991q-5.76328,1.42512-11.68371,2.30466a127.38194,127.38194,0,0,1-23.32379,1.29873,58.9268,58.9268,0,0,1-8.05071-.54663c-2.05156-.36038-5.78039-1.5989-6.92149-3.20866a4.29519,4.29519,0,0,1-.4156-3.06321c.26124-2.2721.43522-4.599.62829-6.83133.51425.03463,6.40115.67385,6.40115.78419,1.99788.37536,3.82359,1.307,5.84537,1.60042a59.88271,59.88271,0,0,0,8.99089.54133c12.52049-.08752,23.39626-3.08259,34.55729-7.44693.83622-.32733,1.82284-1.39853,2.776-1.04559C111.45566,178.24959,111.7529,180.97578,111.9423,181.72761Z"/><path class="a98bdcc0-6002-404f-bfa8-82da994c1c4f" d="M70.01916,138.00208a70.80231,70.80231,0,0,0,11.57109.08191c2.81977-.12536,5.71483.23406,8.4731-.53354-2.32693.64758-4.3871,2.12945-6.58249,3.03336a73.21352,73.21352,0,0,1-8.19376,3.09071c-5.31985,1.47624-10.90555,1.6625-16.3929,1.744a6.45794,6.45794,0,0,1-2.33055-.25208c-2.00287-.735-2.75137-3.1302-3.18318-5.21951-.36549-1.76839-.50531-3.62209-.972-5.36163-.46619-1.73776-1.12375-3.45838-1.66983-5.17647a3.6714,3.6714,0,0,1-.218-1.00247c2.90522,2.82263,5.65388,6.171,9.72366,7.26266a83.2098,83.2098,0,0,0,9.55837,2.30427Q69.91163,137.98908,70.01916,138.00208Z"/><path class="e4a98bbf-353b-4151-8a77-0afce0bdead8" d="M83.83333,166.68308c-2.568-4.52113-7.238-5.33119-12.01589-8.0253-3.78954-2.13721-8.21748-3.4005-5.1252,2.27244-.03535-.065-4.46374-.40814-5.07439-.58242-1.88183-.53709-3.58572-1.67082-5.6206-1.31511a5.51774,5.51774,0,0,0-4.30679,4.18038,7.56741,7.56741,0,0,0,3.40939,8.23526c4.63867,2.71579,29.25145,10.509,30.26948.85541a6.747,6.747,0,0,0-.2634-2.41789A13.3353,13.3353,0,0,0,83.83333,166.68308Z"/><path class="f602c859-d1d3-4d0c-8066-d9cb412b59eb" d="M128.63307,110.03745a95.20413,95.20413,0,0,1,5.81535,18.23751c1.55741,7.63621,2.83352,15.32943,3.7474,23.05094,1.70693,14.42212-22.671,18.71705-33.38924,21.40072-7.75634,1.94207-16.02024,1.91757-23.57222,4.48934-2.28418-4.78835-3.16568-6.55938-4.31124-11.67229a3.35461,3.35461,0,0,1,.29966-2.973,4.10691,4.10691,0,0,1,1.76049-1.00168c3.54584-1.30147,40.38739-11.97272,39.65886-15.07128-2.78789-11.85743-7.97221-23.118-12.76317-34.39321-2.77243-6.52172-8.53364-13.40626-8.49387-20.80105.03329-6.12558,5.38432-7.60452,10.52945-6.49942,8.44057,1.813,13.35666,9.994,16.948,17.13463C126.19845,104.59478,127.46546,107.29268,128.63307,110.03745Z"/><path class="e4a98bbf-353b-4151-8a77-0afce0bdead8" d="M29.51483,78.68207c-1.64372-4.93288.87736-8.94654,2.06991-14.30043.94556-4.24668,2.9678-8.38348,5.11717-2.29048-.02465-.06972,2.68193-3.59149,2.96077-4.162.85928-1.75823,1.156-3.78321,2.78136-5.05812a5.51774,5.51774,0,0,1,5.98825-.406,7.56744,7.56744,0,0,1,3.84223,8.04244c-1.08333,5.2649-11.75059,28.77517-19.60835,23.07566a6.74719,6.74719,0,0,1-1.62139-1.81291A13.33529,13.33529,0,0,1,29.51483,78.68207Z"/><path class="a98bdcc0-6002-404f-bfa8-82da994c1c4f" d="M28.91314,72.162c4.179,3.15708,10.591,2.336,14.35376,5.97917a1.41043,1.41043,0,0,1,.42765.61957,1.51778,1.51778,0,0,1-.12875.888c-1.889,5.17255-5.171,9.65663-8.18057,14.21744a13.8893,13.8893,0,0,1-2.137,2.71648,4.67471,4.67471,0,0,1-3.11137,1.33244,7.49179,7.49179,0,0,0-.02941-2.71952,19.53669,19.53669,0,0,0-.97226-1.84285c-.654-1.36257-1.33582-2.71159-2.02717-4.05552-.99635-1.93686-1.95709-3.92154-3.07582-5.7922C22.82626,81.47323,27.93225,74.403,28.91314,72.162Z"/><path class="a7556450-8693-4849-964a-8ea09d1b1999" d="M79.00877,51.38622c-1.18024,1.47539-1.20788,3.41663-1.405,5.472-.62538,6.52236,1.1923,14.022-2.78316,19.79172-.08609.12493,6.58594,2.27206,7.22872,2.4039a36.98721,36.98721,0,0,0,8.00642.71316c4.76284-.07436,9.3605-.96842,12.2578-5.14269a4.52406,4.52406,0,0,1-.89474,3.20185,46.8929,46.8929,0,0,0,9.77927-2.61765,21.16232,21.16232,0,0,0,7.99293-4.71356c-.18037.18285-2.04741-3.21217-2.13778-3.57475-.33953-1.36234-.52644-2.769-.87876-4.16505-1.83523-7.27217-2.44611-14.66993-3.98524-22.04644-.9956-4.77157-2.04818-11.60881-5.20064-15.45611-.62459.19721-.66863.60132-1.07536,1.0741-4.24259,4.92091-7.62,10.558-12.06374,15.298a34.41649,34.41649,0,0,1-8.57615,6.68756c-1.67033.91652-3.79875,1.06822-5.35274,2.20669A4.75513,4.75513,0,0,0,79.00877,51.38622Z"/></svg>