<svg id="f8b53817-02f1-4af7-985d-4f2fb10a14a9" data-name="Layer 1" xmlns="http://www.w3.org/2000/svg" viewBox="0 0 137.65009 196.94335"><defs><style>.ae878a11-7251-4d59-acc1-ef2ad629fc23{fill:#566345;}.e1647528-3604-4fde-b941-f2e49a82b4b2{fill:#603913;}.b576f62a-60fd-4cee-9463-bb868014d813{fill:#fff;}.fa690fb8-aec7-470a-a5c6-9d85b0d8cc0a{fill:#63774e;}.f76664c9-aa3a-47d4-bcd2-b0a9bb0e33da{fill:#6f825a;}.bc7fa475-eced-413e-89cd-96bbc71fc6d7{fill:#231f20;}</style></defs><title>Artboard 23 copy 5</title><path class="ae878a11-7251-4d59-acc1-ef2ad629fc23" d="M54.63507,106.56021c.329-5.47309,1.75974-9.26556,4.26031-14.11277,2.603-5.04573,5.56184-9.89681,8.34729-14.84157-11.69112-.11209-22.14724,2.59091-27.40627,14.06905q-6.448,14.0732-12.4808,28.33175c-3.729,8.81338-9.09465,16.45571-13.72734,24.88171-1.52865,2.77921-3.00165,5.08353-3.71955,8.22349a3.07518,3.07518,0,0,0,.01777,1.92766,3.052,3.052,0,0,0,1.40227,1.28846c2.4678,1.37667,5.2358,1.42105,7.7164,2.5408,1.9768.89234,4.4641,2.28864,6.72251,1.65156,7.65278-2.1737,12.80426-9.98949,16.59963-16.45123,3.82029-6.50417,9.59673-13.61734,10.195-21.28468C52.99,117.3027,54.30874,111.9882,54.63507,106.56021Z"/><path class="e1647528-3604-4fde-b941-f2e49a82b4b2" d="M71.0519,5.49377A33.18245,33.18245,0,0,0,49.57246,13.901c-7.2409,6.27121-9.11022,16.5838-9.4924,25.67977-.33092,7.87567-.95261,21.5267,3.90517,28.27549,3.11863,4.33248,14.26376,6.20709,18.9749,4.93617,1.64883-.44481,3.62557-.63008,4.86339.54644A5.047,5.047,0,0,1,68.885,75.04754c1.52067,3.5205,1.69791,6.4797-.33124,9.86778A35.36761,35.36761,0,0,0,63.9559,97.64151c-.38381,2.47877-.35672,5.37639,1.51788,7.043,1.797,1.59754,4.53227,1.38623,6.88506.89062a45.08345,45.08345,0,0,0,15.90825-6.74541,16.46219,16.46219,0,0,0,4.17583-3.73395c3.94817-5.37682,2.27163-12.36128.76878-18.22656-4.0071-15.63891,3.01078-32.2063.72121-48.18723-.39165-2.73363-1.05315-5.42037-1.7136-8.10178-.56958-2.31246-.8265-5.07828-2.2028-6.97216A18.77444,18.77444,0,0,0,84.46925,9.1597,26.781,26.781,0,0,0,71.0519,5.49377Z"/><path class="b576f62a-60fd-4cee-9463-bb868014d813" d="M67.22853,82.19726c1.316.12455,1.61459,2.11836,2.31359,3.00006a10.66109,10.66109,0,0,0,3.84374,2.68879,12.83289,12.83289,0,0,0,8.83128.72444c1.1407-.33273,12.67332-6.35473,12.28254-7.195,1.94563,4.18365.49653,9.63885.53461,14.0963q.06306,7.3761.00787,14.75258c-.0689,9.73458-.27908,19.4677-.57762,29.1978-.2987,9.7351-.68661,19.46722-1.105,29.19784-.111,2.58171-.38307,28.853-1.2858,29.006a115.40141,115.40141,0,0,1-39.35257-.15379q-.03963-12.85294.40988-25.70119,1.18224-33.803,5.73475-67.37566a80.34767,80.34767,0,0,1,3.22987-15.363c.622-1.812,1.94485-5.2389,3.56347-6.33253A2.47826,2.47826,0,0,1,67.22853,82.19726Z"/><path class="fa690fb8-aec7-470a-a5c6-9d85b0d8cc0a" d="M114.04454,79.32387c-2.36014-1.00965-4.6626-2.18853-7.06685-3.09237-3.81769-1.43519-8.2383-2.12662-11.87946-.2891a14.8334,14.8334,0,0,0-6.42584,5.9088c-3.69355,7.25914-7.3687,14.5427-11.19688,21.73057-1.04968,1.9709-2.2787,3.89144-3.23862,5.90484-.66322,1.39108-.8894,3.07585-1.74238,4.34919-1.77877-6.23978-1.83325-13.159-2.45-19.59384-.23793-2.48249-.52348-4.96133-.69048-7.4501-.08407-1.25285-.14441-2.50795-.15-3.76383-.00344-.77483.51821-3.18657.1362-3.79456-2.79-4.44035-17.0918,2.06225-19.82179,3.99415-6.13789,4.34349-5.60786,9.09834-4.79181,15.453,1.07391,8.36273.95337,17.39223,1.40394,25.85133,1.206,22.64124,1.64182,45.35455,1.48725,67.96058A37.00032,37.00032,0,0,0,49.154,204.50833a15.918,15.918,0,0,0,2.59689,5.33219c1.10693,1.212,2.59309,1.3711,3.99869,2.23317,1.67216,1.02631,2.891,2.48092,4.445,3.64991,6.72608,5.0596,21.54211,1.89178,29.368,1.43191,9.05907-.53214,19.64717-1.0391,28.21819-4.0607-.19743-3.74092-1.79822-6.82327-2.46161-10.40588-.89749-4.84692-.07506-10.52244.24969-15.40919.67435-10.14725,2.08112-20.2299,2.78464-30.37509,1.38465-19.96712,10.97215-37.9442,11.548-58.1125.15033-5.265-.18478-13.35575-5.55067-16.17916-1.8656-.98164-4.01353-1.23488-6.05148-1.77419A31.01782,31.01782,0,0,1,114.04454,79.32387Z"/><path class="f76664c9-aa3a-47d4-bcd2-b0a9bb0e33da" d="M72.02939,122.75216q.07234-.52856.14723-1.05274c.87356-6.11443.27747-10.64685-.91356-16.84128a4.42575,4.42575,0,0,0-1.20157-2.69707c.00416,9.86962-2.63241,19.17815-3.40723,28.88777-2.24041,28.07532.28087,56.13821-3.307,84.11175a1.07669,1.07669,0,0,0,.08083.72677,1.035,1.035,0,0,0,.71611.36306,8.31453,8.31453,0,0,0,3.646-.14135,1.40352,1.40352,0,0,0,.80715-.44636,1.48759,1.48759,0,0,0,.21328-.7694c.47786-5.71636-.21437-11.76152-.15753-17.5279.08895-9.02254.17791-18.04583.45166-27.06519.27633-9.10411.74141-18.20144,1.30061-27.29234a111.76951,111.76951,0,0,1,4.91652-31.192,19.38011,19.38011,0,0,0,1.07309-5.32034,14.56983,14.56983,0,0,0-4.85851,7.37964,36.11527,36.11527,0,0,0-1.23737-10.48072"/><path class="e1647528-3604-4fde-b941-f2e49a82b4b2" d="M35.338,169.13711c5.815,1.88583,11.32978,4.46123,16.93255,6.72807,4.261,1.72353,8.194,4.58117,1.38746,5.86127.0779-.01471,3.23151,3.47245,3.774,3.8665,1.67168,1.21433,3.73394,1.87113,4.748,3.82456a6.11293,6.11293,0,0,1-.7585,6.478,8.16364,8.16364,0,0,1-9.183,2.76562c-12.85434-4.9514-20.74673-17.67285-27.91474-29.75762C27.94736,165.786,31.26032,167.81469,35.338,169.13711Z"/><path class="f76664c9-aa3a-47d4-bcd2-b0a9bb0e33da" d="M106.41163,99.45113a30.21228,30.21228,0,0,1,1.57873-11.491c.71058-2.31349.80973-7.518,3.08372-8.94742,1.90767-1.19829,8.64232,1.82272,10.73,2.37417,7.08341,1.87108,11.0328,11.11063,12.63325,17.67437,1.20511,4.94256,2.25715,9.95557,3.256,14.99783,1.62987,8.22785,3.11809,16.53361,4.89859,24.73836a479.17246,479.17246,0,0,1,9.07722,59.89319c.89709,10.26771,1.54876,20.59221,1.694,30.90034.15127,10.73506-7.52073,9.99559-16.76273,12.74736-1.10672.32941-2.38543.63681-3.34764-.00153-.98241-.65175-1.18136-1.9858-1.29216-3.15953a708.559,708.559,0,0,0-13.68395-86.86365c-2.35574-10.61714-4.04484-21.06792-6.7542-31.65646C109.80077,113.92859,106.78069,106.43348,106.41163,99.45113Z"/><path class="f76664c9-aa3a-47d4-bcd2-b0a9bb0e33da" d="M40.225,165.32249c-.67173-.95375-1.36325-1.97092-1.97466-2.95295-.81406-1.30751-1.67384-2.53717-2.56675-3.79374-.65421-.92066-1.56582-1.51867-2.25756-2.4071-1.15175-1.47928-3.55357-2.00715-5.28487-2.599l-10.71628-3.66348c-1.71354-.5858-3.7053-1.14564-5.24164-.187-3.14539,1.96267-2.33093,7.67789-1.00746,10.31906,1.89146,3.77469,5.083,6.68218,7.61981,9.99994A52.08822,52.08822,0,0,0,30.4391,181.61048a29.761,29.761,0,0,0,2.66069,1.98115c1.42035.75787,2.039.35364,2.75706-.5174.359-.43553.74285-.98775,1.26416-1.56977q4.02567-4.49454,8.38609-8.67347C43.45535,170.579,41.97131,167.802,40.225,165.32249Z"/><path class="bc7fa475-eced-413e-89cd-96bbc71fc6d7" d="M44.93992,12.2245a31.12058,31.12058,0,0,1,10.089-8.93908C56.14558,2.7025,68.57243-1.90764,67.931.89852a2.06192,2.06192,0,0,1-.51075.79265,4.36206,4.36206,0,0,0-.97851,2.41644c1.427-2.67087,4.84027-3.42,7.83263-3.88432.60943,7.55345,10.82979,6.53221,15.44683,10.103a25.62219,25.62219,0,0,1,8.75358,12.34329c3.6952,11.6-.84017,23.23326-3.93191,34.48646a15.03852,15.03852,0,0,1-1.80647,4.89285,3.91684,3.91684,0,0,1-5.52259,1.11363c-2.77138-1.99953.03975,2.17868-2.70476.1437A5.8748,5.8748,0,0,1,83.3367,62.005c-1.90859-2.6002-3.71612-5.335-5.84288-7.76163-1.76841-2.01774-1.929-2.78975.00217-5.06a9.93492,9.93492,0,0,0,2.32388-7.11606,3.23675,3.23675,0,0,0-.70247-1.99881c-1.04151-1.11983-2.958-.67505-4.23553.17641-3.81542,2.543-3.89111,3.4267-5.42448-1.52582-.869-2.80685-9.91857-6.11514-12.75109-7.94467-3.61544-2.33335-8.92472-.75292-12.76085-2.77479C38.2909,25.01936,42.07028,16.08287,44.93992,12.2245Z"/></svg>