<svg id="fa832dc4-0ca6-47ac-9e84-accd2813d3f9" data-name="Layer 1" xmlns="http://www.w3.org/2000/svg" xmlns:xlink="http://www.w3.org/1999/xlink" viewBox="0 0 137.65009 196.94335"><defs><style>.b9151e44-1fff-449d-813e-29f343e81388{fill:none;}.e666123c-31ed-4c65-bb80-a8f524ce9157{clip-path:url(#b654829c-ee5a-42ac-9fc0-007490381f1f);}.aa351e10-794c-49c4-b108-96dde5b146a2{fill:#a97c50;}.ab2bca5e-046e-4c1a-a8f2-1a7e36ada955{fill:#566345;}.a2bfe816-425b-4e78-ac31-192a33b54521{fill:#63774e;}.b50dcf96-b90d-498a-9bae-2659be5d2cf2{fill:#dbae95;}.bb98a9e9-ba1f-4a71-a86c-8b977e6d5e66{fill:#fff;}.e38498dd-4256-4a4a-82af-495768d52a88{fill:url(#a7fc25b7-767e-4ccf-9ac7-9dad5e759118);}.bf2ebbe9-fd29-404d-b06b-d5faf7cca150{fill:#6f825a;}.b0488624-0976-42a3-ad8b-9931b609ef5b{fill:#938c6c;}.b470a43b-18c9-42fb-941c-4f738f971a99{fill:#c3d7dc;}</style><clipPath id="b654829c-ee5a-42ac-9fc0-007490381f1f"><rect class="b9151e44-1fff-449d-813e-29f343e81388" x="-2.09795" y="5.73419" width="139.84599" height="191.20916"/></clipPath><radialGradient id="a7fc25b7-767e-4ccf-9ac7-9dad5e759118" cx="64.3993" cy="54.37545" r="48.36597" gradientUnits="userSpaceOnUse"><stop offset="0" stop-color="#ef5b5b" stop-opacity="0.8"/><stop offset="1" stop-color="#f6d2ba" stop-opacity="0"/></radialGradient></defs><title>Artboard 23 copy 2</title><g class="e666123c-31ed-4c65-bb80-a8f524ce9157"><path class="aa351e10-794c-49c4-b108-96dde5b146a2" d="M108.65017,71.42459a29.29222,29.29222,0,0,0-2.06516-6.761c-3.08235-6.93414-8.60663-14.573-4.31876-22.24312,3.72256-6.65886,15.50907-7.67315,21.53314-4.25516a23.85141,23.85141,0,0,1,11.63609,16.95278,25.92912,25.92912,0,0,1-.48412,10.35944c-.95692,3.65267-2.57875,7.51972-.24654,11.10143,1.89509,2.9104,5.78054,3.9722,7.81592,6.78626,2.796,3.86568,1.23972,9.73052,4.122,13.53228,1.84641,2.43542,5.21339,3.551,6.57549,6.28679,1.51178,3.03646,1.24118,7.53641,1.441,10.83936-.07747-1.28031-6.298-4.01443-7.54532-4.203-2.16154-.32679-4.67584.54373-6.8635.66357-5.361.29367-11.95206.294-15.80635-4.09482-2.96141-3.37212-3.32963-8.47632-6.3753-11.77253-2.27068-2.45747-5.79176-3.62586-7.671-6.39415-2.47339-3.64344-.91609-8.23061-1.20037-12.28267A41.36379,41.36379,0,0,0,108.65017,71.42459Z"/><path class="ab2bca5e-046e-4c1a-a8f2-1a7e36ada955" d="M64.7214,112.61643c1.31554-.96008,1.70959-2.71779,2.0087-4.31871.36256-1.94055,4.06853-24.09789,4.49245-24.10141-2.70728.02249-5.18025.32911-7.63109-.75778A58.56974,58.56974,0,0,1,56.863,79.5232a83.01379,83.01379,0,0,1-12.91939-9.93814A51.30748,51.30748,0,0,1,37.5493,62.952c-1.961-2.67239-.44313-3.94082,1.33662-6.54473,2.06309-3.01858,4.456-5.79339,6.71222-8.6656q3.00043-3.81965,6.25471-7.43045c1.72307-1.91158,4.52791-3.79746,4.55911-6.61305a6.49044,6.49044,0,0,1-3.65319-1.555c-2.41385-1.82814-6.26363-7.31757-9.37027-7.48028-3.03382-.1589-7.23554,4.75145-9.2632,6.6447C28.08247,36.94988,23.021,43.52144,18.06078,50.106a28.21424,28.21424,0,0,0-3.5496,5.571c-2.42762,5.57723-.96125,12.23537,2.2757,17.38522a68.58291,68.58291,0,0,0,22.45353,21.9679C48.1064,100.23291,58.01425,104.52123,64.7214,112.61643Z"/><path class="ab2bca5e-046e-4c1a-a8f2-1a7e36ada955" d="M101.04931,202.20477c-.99076.96962-.8472,6.22716-1.02726,7.54572-.71981,5.2711-1.508,10.537-2.506,15.77645-.77207,4.05775-.98876,8.94775-3.06162,12.61458-2.21,3.9094-5.85553,6.40345-7.907,10.43983-2.73719,5.38555-4.6647,11.41286-6.63079,17.11388a244.46824,244.46824,0,0,0-9.14616,34.51421,39.16746,39.16746,0,0,0-.91165,8.44559,53.59661,53.59661,0,0,0,.96815,7.189,103.8544,103.8544,0,0,1-2.28876,44.36739,104.02408,104.02408,0,0,1-8.33251,21.19874c-1.24194,2.35636-3.105,7.48656-5.22508,9.06548-4.37358,3.25672-19.01849.72353-23.73518-.97038a168.104,168.104,0,0,0,5.51539-18.19637A155.35306,155.35306,0,0,0,40.883,324.14725c-.59043-8.87563-1.13955-16.42142.2509-25.31322q3.69364-23.62054,8.5657-47.029c3.4863-16.74044,4.96981-33.0585,7.45392-50.04032a7.90219,7.90219,0,0,1,1.41676-4.10645c3.80256-4.44483,13.86426,1.06184,17.85788,2.28305C84.32725,202.35576,92.88484,201.86381,101.04931,202.20477Z"/><path class="a2bfe816-425b-4e78-ac31-192a33b54521" d="M105.4317,188.33492c13.34024-14.62766,26.42609,18.18123,28.19282,27.20713,2.03876,10.41562-.853,20.5711-.52948,30.91462.34072,10.89321-3.76426,33.25005,3.45934,41.7799,3.67789,4.343,10.58579,7.69774,15.0293,11.52591a167.846,167.846,0,0,1,14.34165,13.92743c17.0616,18.66879,30.29992,41.56,36.67442,66.11992-3.15037.87571-6.19066,3.39723-9.502,4.55973-3.94152,1.38372-8.09927,2.17386-11.65722,4.48413,5.13777-3.33609-24.0003-36.53743-26.7769-39.58659-8.20772-9.01344-16.48751-18.178-27.21664-23.81949-9.707-5.104-19.4367-11.598-24.23745-21.85311a62.47709,62.47709,0,0,1-3.73766-11.90133c-3.53229-14.58755-8.686-27.81693-13.98266-41.84924-1.84249-4.88128-3.69056-6.84132-7.22308-10.18883-3.5649-3.37821-5.49411-8.11737-7.50041-12.55482a211.50031,211.50031,0,0,1-11.702-32.85212,41.55642,41.55642,0,0,1,20.72306,4.91129"/><path class="b50dcf96-b90d-498a-9bae-2659be5d2cf2" d="M54.81514,39.82492c1.62027-10.11151,5.18214-18.89452,16.74476-22.409,5.94036-1.80559,12.43986-1.06394,18.27223,1.06484a22.95665,22.95665,0,0,1,8.76062,5.28758c3.09461,3.19636,4.72241,7.55956,5.53445,11.93379,1.544,8.317,1.52789,20.31433-3.65224,27.476-1.2559,1.73633-3.20633,1.44931-4.75432,2.48032-1.9503,1.299-2.81236,4.57651-3.09807,6.73734a33.47959,33.47959,0,0,0,.34538,8.57253c.20559,1.6224.4169,3.2442.6168,4.86731.18063,1.46671-.17355,3.23182.06881,4.59719.42811,2.41184,1.95867,3.86154,1.51141,6.64744-.768,4.78348-4.9809,9.5376-8.269,12.87732a15.85654,15.85654,0,0,1-6.30612,4.27544,1.99013,1.99013,0,0,1-1.29151.07821,2.15927,2.15927,0,0,1-.96678-1.00747,48.30649,48.30649,0,0,1-5.48678-13.47025c-.69625-2.903-1.1326-6.00111-.25224-8.91528.65909-2.18169,2.10432-3.92217,2.42761-6.22084.48288-3.4334-.23909-9.831-4.5151-10.4668l-8.4538-1.257c-11.1079-1.65163-8.8954-18.25081-8.11044-26.10194C54.17947,44.485,54.44726,42.12072,54.81514,39.82492Z"/><path class="bb98a9e9-ba1f-4a71-a86c-8b977e6d5e66" d="M73.37382,87.08816c1.19306.09077,1.36819,1.74684,1.65034,2.59072.49494,1.48032,1.308,2.922,1.94627,4.34763.64486,1.4404,1.50005,3.05808,3.045,3.38031A4.78345,4.78345,0,0,0,83.41793,96.366a60.993,60.993,0,0,0,7.36533-6.06755c.36111-.31894,5.04651-4.7937,5.29681-4.28053,1.68534,3.45542.56178,8.02239.66192,11.73527q.16572,6.14376.233,12.28964c.092,8.11052.06629,16.222-.03308,24.33233-.09942,8.11449-.27321,16.22787-.47237,24.34046-.05285,2.15241.12371,24.04209-.626,24.18337a96.15222,96.15222,0,0,1-32.78535.47585q-.23027-10.70664-.053-21.41688.46608-28.178,3.74333-56.21585A66.9453,66.9453,0,0,1,69.20341,92.8943c.49032-1.519,1.53977-4.39417,2.87139-5.33007A2.06487,2.06487,0,0,1,73.37382,87.08816Z"/><path class="e38498dd-4256-4a4a-82af-495768d52a88" d="M54.81514,39.82492c1.62027-10.11151,5.18214-18.89452,16.74476-22.409,5.94036-1.80559,12.43986-1.06394,18.27223,1.06484a22.95665,22.95665,0,0,1,8.76062,5.28758c3.09461,3.19636,4.72241,7.55956,5.53445,11.93379,1.544,8.317,1.52789,20.31433-3.65224,27.476-1.2559,1.73633-3.20633,1.44931-4.75432,2.48032-1.9503,1.299-2.81236,4.57651-3.09807,6.73734a33.47959,33.47959,0,0,0,.34538,8.57253c.20559,1.6224.4169,3.2442.6168,4.86731.18063,1.46671-.17355,3.23182.06881,4.59719.42811,2.41184,1.95867,3.86154,1.51141,6.64744-.768,4.78348-4.9809,9.5376-8.269,12.87732a15.85654,15.85654,0,0,1-6.30612,4.27544,1.99013,1.99013,0,0,1-1.29151.07821,2.15927,2.15927,0,0,1-.96678-1.00747,48.30649,48.30649,0,0,1-5.48678-13.47025c-.69625-2.903-1.1326-6.00111-.25224-8.91528.65909-2.18169,2.10432-3.92217,2.42761-6.22084.48288-3.4334-.23909-9.831-4.5151-10.4668l-8.4538-1.257c-11.1079-1.65163-8.8954-18.25081-8.11044-26.10194C54.17947,44.485,54.44726,42.12072,54.81514,39.82492Z"/><path class="a2bfe816-425b-4e78-ac31-192a33b54521" d="M121.06649,89.36893a89.01388,89.01388,0,0,0-20.22688-7.756c-2.3374-.582-5.0932-.97715-6.91167.6025a7.92993,7.92993,0,0,0-1.98943,3.66975c-.00008,6.02233-3.76536,10.63417-7.1376,15.12056-2.95648,3.93328-4.62265,8.05741-6.56322,12.47278a144.27451,144.27451,0,0,1-2.33267-16.396c-.34257-2.993,1.35606-18.23552-5.50936-11.9095a16.5776,16.5776,0,0,0-3.26308,5.1905,31.81615,31.81615,0,0,0-1.99855,7.5916c-1.60069,10.15154-11.179,16.74759-9.74984,27.771.58311,4.49755,2.79285,8.41455,3.333,12.878.64586,5.33727,2.57894,10.39206,2.89918,15.8191.36524,6.18951-1.74223,11.5039-2.313,17.51368q-1.05987,11.15883-1.41022,22.37016c-.0614,1.95919.02778,4.22191,1.56894,5.43313,1.45979,1.14728,3.54537.81315,5.37109.47549,9.91766-1.83424,19.37979-.28235,29.21746-1.04229a162.99318,162.99318,0,0,0,23.58871-3.72083c-4.57064-21.57373.42392-42.59344,1.23179-64.09775l1.55524-41.40047"/><path class="aa351e10-794c-49c4-b108-96dde5b146a2" d="M91.87828,67.62581c-2.78663-1.80111-5.61142-4.29761-6.98563-7.25369-1.34792-2.89955-1.63708-8.165.98456-10.46581a10.132,10.132,0,0,0,3.72062-6.53324c.1316-1.758-.89427-3.738-2.63166-4.03729-2.65416-.45721-3.91474,2.20506-5.583,3.62048-3.85069,3.26711-6.19065-1.47593-8.78122-3.40712a11.79652,11.79652,0,0,0-3.028-1.46043c-2.56186-.94648-5.2122-1.67361-7.82054-2.47856a19.23845,19.23845,0,0,0-3.81222-1.24872,2.66376,2.66376,0,0,0-1.71246.59487c-.26237.19972-1.111,1.65861-1.26248,1.67282-1.4083.13211-1.98283-5.7916-2.06641-6.84511a22.46636,22.46636,0,0,1,.59808-7.346,16.88849,16.88849,0,0,1,8.85113-11.18714c3.36561-1.62752,12.13517-.78638,15.48511-2.56572,6.69468-3.5559,18.29893-1.2748,24.48325,2.70543C111.99015,17.61594,115.89371,29.127,116.32315,40.14c.18218,4.67186-.07512,10.35135-1.871,14.72917-1.69295,4.12691-6.55877,8.44376-10.54676,10.39966-1.49344.73245-3.10167,1.23674-4.51781,2.10931a11.36916,11.36916,0,0,1-2.7582,1.54943,4.87834,4.87834,0,0,1-3.7099-.65889C92.575,68.0656,92.22692,67.85115,91.87828,67.62581Z"/><path class="bf2ebbe9-fd29-404d-b06b-d5faf7cca150" d="M77.99564,120.79907q.05216-.44144.1065-.87925c.63388-5.10709.06774-8.87371-1.01953-14.01575a3.68751,3.68751,0,0,0-1.04237-2.22838c.15494,8.2219-1.89861,16.01692-2.39507,24.11749-1.4355,23.42275,1.09558,46.76207-1.464,70.12072a.89709.89709,0,0,0,.07849.60421.86234.86234,0,0,0,.60213.29146,6.92772,6.92772,0,0,0,3.03518-.17371,1.16942,1.16942,0,0,0,.66555-.38424,1.23947,1.23947,0,0,0,.16587-.64423c.31035-4.76938-.3591-9.79473-.40024-14.59933-.06438-7.51767-.12876-15.036-.03913-22.55381.09047-7.58849.33829-15.17424.66462-22.75607a93.12558,93.12558,0,0,1,3.617-26.06019,16.14753,16.14753,0,0,0,.81229-4.44862,12.13961,12.13961,0,0,0-3.93416,6.22224,30.09174,30.09174,0,0,0-1.19165-8.71207"/><path class="bf2ebbe9-fd29-404d-b06b-d5faf7cca150" d="M77.82685,200.07646a228.6271,228.6271,0,0,0,2.27533,28.57108c-4.46513-8.97656-5.614-19.18432-6.69465-29.15168a4.26812,4.26812,0,0,1,.07324-1.86133,2.61854,2.61854,0,0,1,3.77035-1.07646,3.98649,3.98649,0,0,1,1.5406,3.97023"/><path class="b0488624-0976-42a3-ad8b-9931b609ef5b" d="M118.10691,183.43506a32.699,32.699,0,0,0,1.06989,4.35048c.2382.55889,1.56067,2.24782.81375,2.74151a29.374,29.374,0,0,1-2.69941,1.66832,42.52881,42.52881,0,0,1-9.43269,3.01991q-5.76327,1.42512-11.68371,2.30466A127.38184,127.38184,0,0,1,72.851,198.81867a58.9268,58.9268,0,0,1-8.05071-.54663c-2.05156-.36038-5.78039-1.5989-6.92148-3.20866a4.29521,4.29521,0,0,1-.41561-3.06322c.26125-2.27209.43522-4.599.62829-6.83132.51426.03463,6.40116.67385,6.40116.78419,1.99787.37536,3.82359,1.307,5.84537,1.60042a59.88271,59.88271,0,0,0,8.99089.54133c12.52048-.08752,23.39625-3.08259,34.55728-7.44693.83622-.32733,1.82284-1.39853,2.776-1.04559C117.62028,179.957,117.91752,182.68323,118.10691,183.43506Z"/><path class="ab2bca5e-046e-4c1a-a8f2-1a7e36ada955" d="M76.18377,139.70953a70.80232,70.80232,0,0,0,11.57109.08191c2.81978-.12536,5.71484.23406,8.4731-.53354-2.32693.64758-4.38709,2.12945-6.58249,3.03336a73.21262,73.21262,0,0,1-8.19375,3.09071c-5.31985,1.47624-10.90555,1.6625-16.3929,1.744a6.458,6.458,0,0,1-2.33056-.25208c-2.00287-.735-2.75137-3.1302-3.18318-5.21951-.36548-1.76839-.50531-3.62209-.972-5.36163-.46619-1.73776-1.12374-3.45838-1.66982-5.17647a3.671,3.671,0,0,1-.218-1.00247c2.90521,2.82263,5.65388,6.171,9.72365,7.26266a83.21046,83.21046,0,0,0,9.55838,2.30427Q76.07625,139.69653,76.18377,139.70953Z"/><path class="b50dcf96-b90d-498a-9bae-2659be5d2cf2" d="M89.998,168.39053c-2.568-4.52113-7.238-5.33119-12.01589-8.0253-3.78954-2.13721-8.21748-3.4005-5.1252,2.27244-.03535-.065-4.46375-.40814-5.0744-.58242-1.88183-.53709-3.58571-1.67082-5.6206-1.31511a5.51775,5.51775,0,0,0-4.30679,4.18038,7.56743,7.56743,0,0,0,3.40939,8.23526c4.63868,2.71579,29.25145,10.509,30.26949.85541a6.747,6.747,0,0,0-.26341-2.41789A13.3353,13.3353,0,0,0,89.998,168.39053Z"/><path class="bf2ebbe9-fd29-404d-b06b-d5faf7cca150" d="M134.79768,111.7449a95.20342,95.20342,0,0,1,5.81535,18.23751c1.55741,7.63621,2.83353,15.32943,3.74741,23.05094,1.70693,14.42212-22.67106,18.71705-33.38925,21.40072-7.75634,1.94207-16.02023,1.91757-23.57221,4.48934-2.28419-4.78835-3.16568-6.55938-4.31124-11.67229a3.35458,3.35458,0,0,1,.29965-2.973,4.107,4.107,0,0,1,1.76049-1.00168c3.54585-1.30147,40.38739-11.97272,39.65887-15.07128-2.7879-11.85743-7.97222-23.118-12.76318-34.39321-2.77242-6.52172-8.53364-13.40626-8.49386-20.80105.03328-6.12558,5.38432-7.60452,10.52944-6.49942,8.44058,1.813,13.35666,9.994,16.948,17.13463C132.36307,106.30223,133.63008,109.00013,134.79768,111.7449Z"/><path class="b50dcf96-b90d-498a-9bae-2659be5d2cf2" d="M47.99809,35.78908c5.1549.67987,8.61853-2.55564,13.64973-4.74046,3.99078-1.73262,7.6698-4.50163,1.28-5.45831.07312.011,3.01865-3.31351,3.52607-3.69534,1.5637-1.17668,3.49586-1.85147,4.43992-3.68887a5.51776,5.51776,0,0,0-.73531-5.95679A7.56745,7.56745,0,0,0,61.534,9.99955c-4.9645,2.06072-26.0294,16.987-18.945,23.62328a6.74683,6.74683,0,0,0,2.08714,1.24875A13.3353,13.3353,0,0,0,47.99809,35.78908Z"/><path class="b470a43b-18c9-42fb-941c-4f738f971a99" d="M70.94972,45.76732c-.36009,1.57834-.7015,3.36476-.02544,4.77744a.89866.89866,0,0,0,.39135.46393c.37351.159.73532-.29805.87959-.75071a6.84886,6.84886,0,0,0,.04013-2.9326c-.13595-1.03024-.04983-2.6774-.8565-3.14744A10.12005,10.12005,0,0,0,70.94972,45.76732Z"/><path class="b470a43b-18c9-42fb-941c-4f738f971a99" d="M84.19858,70.16627c-.62707,1.51465-1.256,3.23864-.59774,4.74a.97925.97925,0,0,0,.423.51776c.43738.21235.93354-.18865,1.16346-.61707a5.60109,5.60109,0,0,0,.39687-2.906c-.04386-1.04282.2567-2.66578-.6729-3.25021A8.6665,8.6665,0,0,0,84.19858,70.16627Z"/><path class="b470a43b-18c9-42fb-941c-4f738f971a99" d="M104.39253,116.45812c-.05921,2.36-.04257,5.01664,1.16691,6.90971a1.28612,1.28612,0,0,0,.61133.5845c.51222.14771.855-.59222.92385-1.27807a11.44827,11.44827,0,0,0-.68529-4.24686c-.43049-1.459-.735-3.85832-1.87306-4.36043A16.55351,16.55351,0,0,0,104.39253,116.45812Z"/><path class="b470a43b-18c9-42fb-941c-4f738f971a99" d="M127.48494,139.3837c-.01771,2.08474.03,4.43257,1.03624,6.121a1.13543,1.13543,0,0,0,.50383.52438c.41774.13711.68654-.51234.73359-1.11752a11.08122,11.08122,0,0,0-.611-3.76169c-.36826-1.29484-.64635-3.419-1.57673-3.87733A15.83269,15.83269,0,0,0,127.48494,139.3837Z"/><path class="b470a43b-18c9-42fb-941c-4f738f971a99" d="M47.34824,138.05723c-1.28169,1.98255-2.65341,4.2577-2.60914,6.50371a1.28613,1.28613,0,0,0,.21663.81758c.35993.39323,1.03841-.05919,1.45492-.60841a11.44815,11.44815,0,0,0,1.63086-3.98067c.39387-1.46932,1.38576-3.67513.67679-4.6972A16.55466,16.55466,0,0,0,47.34824,138.05723Z"/><path class="b470a43b-18c9-42fb-941c-4f738f971a99" d="M31.04858,99.6273c-.71544,1.843-1.42575,3.93822-.5652,5.72588a1.19208,1.19208,0,0,0,.53718.61049c.544.24229,1.13832-.25577,1.40514-.77868a6.62434,6.62434,0,0,0,.3838-3.5114c-.09074-1.25434.22041-3.21781-.94047-3.893A10.302,10.302,0,0,0,31.04858,99.6273Z"/><path class="b470a43b-18c9-42fb-941c-4f738f971a99" d="M18.34142,155.45914c-.71544,1.84305-1.42575,3.93822-.56519,5.72588a1.19212,1.19212,0,0,0,.53717.61048c.544.2423,1.13833-.25576,1.40514-.77867a6.62437,6.62437,0,0,0,.38381-3.5114c-.09074-1.25434.2204-3.21781-.94047-3.893A10.30274,10.30274,0,0,0,18.34142,155.45914Z"/><path class="b470a43b-18c9-42fb-941c-4f738f971a99" d="M8.57325,53.53009c-1.561,2.50361-3.25459,5.36907-3.54672,8.08981a1.66114,1.66114,0,0,0,.09148.97489c.29634.44914,1.0334-.152,1.52647-.85032a19.26908,19.26908,0,0,0,2.20427-4.95408c.6083-1.81255,1.91675-4.56456,1.37007-5.74945A26.97885,26.97885,0,0,0,8.57325,53.53009Z"/><path class="ab2bca5e-046e-4c1a-a8f2-1a7e36ada955" d="M44.86226,23.81771c2.579,4.5585,8.78877,6.35484,10.79255,11.19383a1.4104,1.4104,0,0,1,.146.73852,1.51785,1.51785,0,0,1-.47126.76363A34.235,34.235,0,0,1,36.5237,46.59526c.547-.0953-.50978-13.20675-.6504-14.31073C35.57476,29.94068,43.07116,25.48381,44.86226,23.81771Z"/></g></svg>