<svg xmlns="http://www.w3.org/2000/svg" xmlns:xlink="http://www.w3.org/1999/xlink" viewBox="0 0 137.65009 196.94335"><defs><style>.af7583a7-c01f-47de-bed8-df3f18db7f43{fill:none;}.f9bd521f-d851-4df9-92af-1295b50bb71d{isolation:isolate;}.a66458d6-63fa-4fb9-a4d6-1062266ae973{clip-path:url(#b3ca0b02-aadd-49a6-9312-462c8846412c);}.b41d5c6f-bac2-421f-954d-703216c60f89{fill:#a7a9ac;opacity:0.33;mix-blend-mode:multiply;}.e61ac001-2f1a-4651-92e2-65753beed89c{fill:#1a242d;}.a046bf93-11aa-4163-a2e9-0a90580cb872{fill:#566345;}.b68bc052-e8bf-41d4-a518-c9ed39cb5ab1{fill:#63774e;}.a22ce7dd-0060-4efe-afd0-00ba74d7c0bc{clip-path:url(#a576d1d9-a6ef-482a-8cc5-9f7ff172827d);}.b847ea09-1ef0-42d6-bdc7-c453e33d2aa1{fill:#f6d2ba;}.af999a2d-03c3-4e04-a3c5-b62a47f35792{fill:#fff;}.a28676ea-0fbd-44b5-a674-e5887e2f1c7b{fill:#6f825a;}.f79c9530-d2cf-4145-8d74-1f5fcf3e40e4{fill:url(#b9d504a7-f6bc-49f6-bd3c-b1d1bd9e2047);}.b84c86a8-c385-42a8-9187-806d8010b40d{fill:#3c2415;}</style><clipPath id="b3ca0b02-aadd-49a6-9312-462c8846412c"><rect class="af7583a7-c01f-47de-bed8-df3f18db7f43" x="14.69022" y="-437.50313" width="107.15794" height="196.7554"/></clipPath><clipPath id="a576d1d9-a6ef-482a-8cc5-9f7ff172827d"><rect class="af7583a7-c01f-47de-bed8-df3f18db7f43" x="30.49215" y="0.4096" width="107.15794" height="196.7554"/></clipPath><linearGradient id="b9d504a7-f6bc-49f6-bd3c-b1d1bd9e2047" x1="82.67761" y1="31.75581" x2="71.71354" y2="85.67824" gradientUnits="userSpaceOnUse"><stop offset="0" stop-color="#4d7582" stop-opacity="0.7"/><stop offset="1" stop-color="#fff" stop-opacity="0"/></linearGradient></defs><title>Artboard 23 copy</title><g class="f9bd521f-d851-4df9-92af-1295b50bb71d"><g id="b074ce1d-3eb5-4dfc-990d-398886023097" data-name="Layer 1"><g class="a66458d6-63fa-4fb9-a4d6-1062266ae973"><ellipse class="b41d5c6f-bac2-421f-954d-703216c60f89" cx="63.62363" cy="29.90498" rx="111.75287" ry="27.43758"/><path class="e61ac001-2f1a-4651-92e2-65753beed89c" d="M52.20167,6.66647c3.16091.0315,6.01317-.11056,8.69329,1.87344,3.49425,2.58668,4.0898,6.89382,4.28312,10.88485a8.45587,8.45587,0,0,1-.83242,4.66572,9.36391,9.36391,0,0,1-3.182,2.96879,38.10765,38.10765,0,0,1-19.45817,6.036c-4.5009.13245-9.2225-.61788-12.82062-3.24543s-5.71691-7.47482-4.08481-11.55c1.77991-4.44425,6.98207-6.44575,11.63821-7.96236,2.35635-.76752,4.77435-1.13063,6.71-2.76016a7.08341,7.08341,0,0,1,1.35619-1.02925c.95034-.46964,2.36256.17142,3.41031.18433C49.3427,6.75,50.77248,6.65222,52.20167,6.66647Z"/><path class="e61ac001-2f1a-4651-92e2-65753beed89c" d="M99.825,6.41209c3.57241.02931,6.7961-.11474,9.82377,1.8674,3.94737,2.58426,4.61745,6.891,4.83317,10.88192a7.623,7.623,0,0,1-.944,4.66631,10.20472,10.20472,0,0,1-3.59838,2.971,47.17213,47.17213,0,0,1-21.99563,6.04959c-5.087.13558-10.42274-.61147-14.48747-3.23653s-6.456-7.47087-4.60858-11.54723c2.01473-4.44551,7.89555-6.45063,13.15893-7.97048,2.66365-.76916,5.3967-1.134,7.58545-2.76484A8.00565,8.00565,0,0,1,91.12564,6.299c1.07439-.4703,2.67.16978,3.85416.182C96.59372,6.49761,98.2097,6.39884,99.825,6.41209Z"/><path class="a046bf93-11aa-4163-a2e9-0a90580cb872" d="M90.07951-219.18622c-.99841,1.29646.035,7.41812.04162,8.989.02648,6.27966-.02787,12.56452-.33092,18.83723-.27488,5.68977-.00934,12.31972-2.35292,17.58769-2.17255,4.88354-6.58077,5.1081-9.26554,8.86048-3.23749,4.52489-2.71424,15.69261-3.47016,21.26616a369.45,369.45,0,0,0-3.13179,44.262c-.61888,35.60233-1.26528,71.243-1.97654,106.70979-4.3457,4.261-7.87489,2.33472-13.124,2.44118-1.648.03343-19.82231.894-19.55062-1.54493,1.90533-17.1038.07481-33.57018-.47866-50.626q-.87539-26.9761-.48374-53.97229.42843-28.21722,2.26917-56.38063c1.20635-18.42336,4.30934-37.0998,3.9762-55.5328q-.05555-3.07353-.03369-6.14786c.01048-1.47585.07919-3.085.97623-4.20082a5.05531,5.05531,0,0,1,4.09453-1.4578c4.62616-.00355,9.11207,1.59424,13.68965,2.31754C70.55872-216.25661,80.4803-218.24056,90.07951-219.18622Z"/><path class="b68bc052-e8bf-41d4-a518-c9ed39cb5ab1" d="M99.46645-229.82459c14.14332-12.772,14.25988,15.29844,15.4887,24.11233,2.14145,15.35983,3.23244,30.84849,3.87844,46.337.33307,7.986.54762,15.98587.17439,23.97006-1.298,27.766-1.55559,55.07232-2.47231,82.84341-.35877,10.86875-.82277,21.73342-1.326,32.59584q-.36738,7.92927-.757,15.85738c-.13161,2.70767.95626,12.25742-1.08747,14.10415a3.59807,3.59807,0,0,1-1.95594.70046,106.08905,106.08905,0,0,1-24.18989.64466,5.53819,5.53819,0,0,1-3.46715-1.08661c-1.08045-1.00833-1.24227-2.67551-1.33189-4.18-2.694-45.22478-4.82871-89.88246-5.81823-135.12252-.14436-6.60124-.54975-13.18568-.80279-19.78219-.14024-3.6577.681-9.39134-2.024-12.38811-2.91135-3.22536-8.90611-3.3861-12.25111-6.85035-5.47975-5.67511-6.82362-14.55608-9.96773-21.52971a167.75087,167.75087,0,0,1-9.4613-26.876,7.3474,7.3474,0,0,1,1.17144-6.59417,9.3148,9.3148,0,0,1,1.64249-1.46135l3.5537-2.6911c5.4314-.01211,11.09733-.66526,16.52873-.67737,11.4889-.02561,23.03372-.05551,34.37861-1.869"/></g><g class="a22ce7dd-0060-4efe-afd0-00ba74d7c0bc"><path class="a046bf93-11aa-4163-a2e9-0a90580cb872" d="M53.60422,156.14241c1.827-.96141,2.34009-14.2816,2.62334-16.556.73235-5.88053.92147-11.77854,1.49074-17.6648.36368-3.76053,1.5544-7.26651,1.62547-11.05048,0-10.55519,2.657-19.96657,4.88465-30.35094C53.032,83.887,43.85129,89.57483,42.24035,102.09721q-1.97517,15.35353-3.49874,30.76065c-.94184,9.52335-3.79432,18.41484-5.71389,27.83571a35.21452,35.21452,0,0,0-1.00152,8.83361,35.9759,35.9759,0,0,0,2.58387,10.23445,11.98458,11.98458,0,0,0,1.4408,3.03955c2.074,2.84323,6.89955,2.96628,10.004,2.00566,3.58517-1.10937,5.13717-2.97556,9.10008-3.535,4.63127-.65375,9.25809-1.18243,13.7326-2.61992a80.03464,80.03464,0,0,0,28.25818-16c7.51393-6.61309,13.97683-15.15485,15.32554-25.07316-5.44154-2.24859-11.39081-4.53635-17.06621-2.96907a26.74683,26.74683,0,0,0-5.24857,2.29851Z"/><path class="b847ea09-1ef0-42d6-bdc7-c453e33d2aa1" d="M79.96449,6.1625a33.18243,33.18243,0,0,0-21.47944,8.40721c-7.24091,6.27121-9.11022,16.5838-9.49241,25.67977-.33091,7.87567-.95261,21.5267,3.90518,28.27549,3.11862,4.33248,14.26376,6.20709,18.9749,4.93617,1.64882-.44481,3.62556-.63008,4.86339.54644a5.04735,5.04735,0,0,1,1.06146,1.70869c1.52067,3.5205,1.69791,6.4797-.33124,9.86778a35.36763,35.36763,0,0,0-4.59785,12.72619c-.38381,2.47877-.35671,5.37639,1.51789,7.043,1.797,1.59754,4.53227,1.38623,6.88505.89062a45.08358,45.08358,0,0,0,15.90826-6.74541,16.46253,16.46253,0,0,0,4.17583-3.73395c3.94817-5.37682,2.27162-12.36128.76877-18.22656-4.00709-15.63891,3.01078-32.2063.72121-48.18723-.39164-2.73363-1.05315-5.42037-1.7136-8.10178-.56958-2.31246-.82649-5.07828-2.2028-6.97216a18.77444,18.77444,0,0,0-5.54726-4.44831A26.781,26.781,0,0,0,79.96449,6.1625Z"/><path class="af999a2d-03c3-4e04-a3c5-b62a47f35792" d="M76.14111,82.866c1.316.12455,1.61459,2.11836,2.3136,3.00006a10.66092,10.66092,0,0,0,3.84374,2.68879,12.83287,12.83287,0,0,0,8.83127.72444c1.1407-.33273,12.67332-6.35473,12.28255-7.195,1.94563,4.18365.49652,9.63885.53461,14.0963q.063,7.3761.00787,14.75258c-.06891,9.73457-.27909,19.4677-.57763,29.1978-.29869,9.7351-.6866,19.46722-1.105,29.19784-.111,2.58171-.38306,28.853-1.28579,29.006A115.40147,115.40147,0,0,1,61.6338,198.181q-.03961-12.85295.40988-25.70119,1.18224-33.803,5.73475-67.37566a80.34843,80.34843,0,0,1,3.22987-15.363c.622-1.812,1.94486-5.23891,3.56347-6.33253A2.47828,2.47828,0,0,1,76.14111,82.866Z"/><path class="b68bc052-e8bf-41d4-a518-c9ed39cb5ab1" d="M122.95712,79.99259c-2.36013-1.00964-4.6626-2.18852-7.06685-3.09236-3.81769-1.43519-8.2383-2.12662-11.87945-.2891a14.83337,14.83337,0,0,0-6.42585,5.9088c-3.69354,7.25914-7.36869,14.5427-11.19688,21.73057-1.04968,1.9709-2.2787,3.89144-3.23861,5.90484-.66322,1.39108-.8894,3.07585-1.74238,4.34919-1.77877-6.23978-1.83326-13.159-2.45-19.59384-.23794-2.48249-.52348-4.96133-.69049-7.4501-.08407-1.25285-.1444-2.50795-.15-3.76383-.00344-.77483.5182-3.18657.13619-3.79456-2.79-4.44035-17.09179,2.06225-19.82179,3.99414-6.13788,4.3435-5.60786,9.09835-4.79181,15.453,1.07392,8.36273.95337,17.39223,1.40394,25.85133,1.206,22.64124,1.64183,45.35455,1.48726,67.96058a37,37,0,0,0,1.53605,12.01581,15.91784,15.91784,0,0,0,2.5969,5.33219c1.10693,1.212,2.59308,1.3711,3.99869,2.23317,1.67215,1.02631,2.891,2.48092,4.445,3.64991,6.72608,5.0596,21.54212,1.89178,29.368,1.43191,9.05907-.53214,19.64718-1.0391,28.21819-4.0607-.19743-3.74092-1.79822-6.82328-2.4616-10.40588-.89749-4.84692-.07506-10.52244.24969-15.40919.67434-10.14725,2.08111-20.2299,2.78463-30.37509,1.38466-19.96712,10.97215-37.9442,11.548-58.1125.15033-5.265-.18477-13.35575-5.55066-16.17916-1.8656-.98164-4.01354-1.23488-6.05149-1.77419A31.01748,31.01748,0,0,1,122.95712,79.99259Z"/><path class="a28676ea-0fbd-44b5-a674-e5887e2f1c7b" d="M80.942,123.42089q.07235-.52855.14724-1.05274c.87356-6.11443.27747-10.64685-.91356-16.84128a4.4258,4.4258,0,0,0-1.20157-2.69707c.00416,9.86962-2.63241,19.17815-3.40724,28.88777-2.2404,28.07532.28088,56.1382-3.307,84.11175a1.07669,1.07669,0,0,0,.08082.72677,1.035,1.035,0,0,0,.71612.36306,8.31453,8.31453,0,0,0,3.646-.14135,1.40355,1.40355,0,0,0,.80715-.44636,1.48779,1.48779,0,0,0,.21328-.76941c.47785-5.71635-.21438-11.76151-.15753-17.52789.08894-9.02254.1779-18.04583.45165-27.06519.27633-9.10411.74142-18.20144,1.30062-27.29234a111.76914,111.76914,0,0,1,4.91651-31.192,19.37937,19.37937,0,0,0,1.07309-5.32034,14.56983,14.56983,0,0,0-4.85851,7.37964,36.11571,36.11571,0,0,0-1.23736-10.48073"/><path class="b847ea09-1ef0-42d6-bdc7-c453e33d2aa1" d="M94.37586,127.40519c1.35516-2.55171,2.54973-4.85546,2.78834-5.32073a4.83261,4.83261,0,0,1,.88557-1.33916,2.4566,2.4566,0,0,1,2.89112-.23014,6.96578,6.96578,0,0,1,2.1617,2.28615,1.20353,1.20353,0,0,0,.583.54908,1.34958,1.34958,0,0,0,.75373-.12335,3.54275,3.54275,0,0,1,4.34356,3.24736,3.09393,3.09393,0,0,0,.3765,1.749c.21869.25327.549.36285.75229.63208a2.07024,2.07024,0,0,1,.09486,1.6446c-1.17715,5.26073-2.15644,8.71244-5.31353,12.9505-5.16594,6.93475-13.05476,17.49148-21.12238,9.50328-4.95319-4.90444.30831-12.89857,2.39882-18.45483a5.23977,5.23977,0,0,1,1.35722-2.31093,1.35455,1.35455,0,0,1,2.1168.30182,4.71177,4.71177,0,0,1,.10637,1.62177,1.55576,1.55576,0,0,0,.33746,1.10415C90.063,135.4096,92.39156,131.14157,94.37586,127.40519Z"/><path class="a28676ea-0fbd-44b5-a674-e5887e2f1c7b" d="M115.32421,100.11986a30.21267,30.21267,0,0,1,1.57873-11.491c.71059-2.31349.80974-7.518,3.08372-8.94742,1.90767-1.19829,8.64233,1.82272,10.73,2.37417,7.08341,1.87108,11.0328,11.11063,12.63325,17.67437,1.20512,4.94256,2.25715,9.95557,3.256,14.99783,1.62987,8.22785,3.11808,16.53361,4.89859,24.73836a479.17428,479.17428,0,0,1,9.07721,59.89319c.8971,10.26771,1.54877,20.59221,1.694,30.90034.15126,10.73506-7.52074,9.99559-16.76273,12.74736-1.10672.32941-2.38544.63681-3.34765-.00153-.98241-.65175-1.18135-1.98581-1.29215-3.15953a708.559,708.559,0,0,0-13.684-86.86365c-2.35573-10.61714-4.04483-21.06793-6.75419-31.65646C118.71336,114.59731,115.69328,107.10221,115.32421,100.11986Z"/><path class="a28676ea-0fbd-44b5-a674-e5887e2f1c7b" d="M94.34319,153.66058a151.80946,151.80946,0,0,1-12.293-8.91976,78.66612,78.66612,0,0,0-22.43773,8.55842c-8.68386,4.94212-18.45427,10.38665-18.98449,21.44251-.03967.82708-.452,10.06076-.89482,9.97542,5.82356,1.12233,11.32561-2.36585,16.57058-4.27533a81.54325,81.54325,0,0,0,13.946-6.66081C72.51648,172.42943,95.31051,154.2911,94.34319,153.66058Z"/><path class="f79c9530-d2cf-4145-8d74-1f5fcf3e40e4" d="M79.96449,6.1625a33.18243,33.18243,0,0,0-21.47944,8.40721c-7.24091,6.27121-9.11022,16.5838-9.49241,25.67977-.33091,7.87567-.95261,21.5267,3.90518,28.27549,3.11862,4.33248,14.26376,6.20709,18.9749,4.93617,1.64882-.44481,3.62556-.63008,4.86339.54644a5.04735,5.04735,0,0,1,1.06146,1.70869c1.52067,3.5205,1.69791,6.4797-.33124,9.86778a35.36763,35.36763,0,0,0-4.59785,12.72619c-.38381,2.47877-.35671,5.37639,1.51789,7.043,1.797,1.59754,4.53227,1.38623,6.88505.89062a45.08358,45.08358,0,0,0,15.90826-6.74541,16.46253,16.46253,0,0,0,4.17583-3.73395c3.94817-5.37682,2.27162-12.36128.76877-18.22656-4.00709-15.63891,3.01078-32.2063.72121-48.18723-.39164-2.73363-1.05315-5.42037-1.7136-8.10178-.56958-2.31246-.82649-5.07828-2.2028-6.97216a18.77444,18.77444,0,0,0-5.54726-4.44831A26.781,26.781,0,0,0,79.96449,6.1625Z"/><path class="b84c86a8-c385-42a8-9187-806d8010b40d" d="M53.8525,12.89323a31.12078,31.12078,0,0,1,10.089-8.93908c1.11668-.58292,13.54354-5.19306,12.90214-2.3869a2.06206,2.06206,0,0,1-.51076.79265,4.36214,4.36214,0,0,0-.97851,2.41644c1.427-2.67087,4.84028-3.42,7.83264-3.88432.60942,7.55345,10.82978,6.53221,15.44683,10.103a25.62211,25.62211,0,0,1,8.75357,12.34329c3.69521,11.6-.84017,23.23326-3.93191,34.48646a15.03807,15.03807,0,0,1-1.80647,4.89285,3.91683,3.91683,0,0,1-5.52258,1.11363c-2.77138-1.99953.03975,2.17868-2.70476.1437a5.8748,5.8748,0,0,1-1.17238-1.30129c-1.9086-2.6002-3.71613-5.335-5.84289-7.76163-1.76841-2.01774-1.929-2.78975.00218-5.06a9.93492,9.93492,0,0,0,2.32387-7.11606A3.23668,3.23668,0,0,0,88.03,40.73724c-1.04152-1.11983-2.958-.675-4.23553.17641-3.81543,2.543-3.89111,3.4267-5.42449-1.52582-.869-2.80685-9.91857-6.11514-12.75109-7.94467-3.61544-2.33335-8.92471-.75292-12.76085-2.77479C47.20349,25.68809,50.98286,16.7516,53.8525,12.89323Z"/></g></g></g></svg>