<svg xmlns="http://www.w3.org/2000/svg" xmlns:xlink="http://www.w3.org/1999/xlink" viewBox="0 0 137.65009 196.94335"><defs><style>.abd35a1f-2392-4462-8ed0-000326e305aa{fill:none;}.a8580e15-0d67-414b-9e75-80bb54ada9ec{isolation:isolate;}.a115632a-eb47-47a4-a70a-188e47207e1f{clip-path:url(#a7f6c88f-9b40-4cd8-a07f-ae6a1cf4fff4);}.bac5e392-2d7f-4806-977a-a7313468f1be{fill:#a7a9ac;opacity:0.33;mix-blend-mode:multiply;}.b475c2d8-4cee-441d-876e-89184bfe3b77{clip-path:url(#e29dd780-3c80-443c-b26a-26e66969c1c2);}.be132d8a-1290-4e0d-8d4d-aee5facc7f39{fill:#3c2415;}.fc96216d-0fa0-4a84-a8a2-3a8e8bedfb48{fill:#566345;}.e940896e-eff8-49af-86ff-f406fd1ebb88{fill:#63774e;}.adfd8cd0-4297-4cdc-82bb-baa648b185b0{fill:#f6d2ba;}.ab70fb0c-4c4e-4b2f-b4f6-a2eda433e80d{fill:url(#af1de1ce-c7b7-406e-9371-f5848f326d72);}.a4f2a14f-9b4f-46a9-bad9-a73281203d77{fill:#fff;}.ffadc35d-1e1d-4f2a-b5c5-68268fa660b9{fill:#6f825a;}.b7fbbd55-c0f5-48d3-8264-8f2ed958e6e7{fill:#938c6c;}</style><clipPath id="a7f6c88f-9b40-4cd8-a07f-ae6a1cf4fff4"><rect class="abd35a1f-2392-4462-8ed0-000326e305aa" x="16.37732" y="-458.43602" width="109.24063" height="209.01071"/></clipPath><clipPath id="e29dd780-3c80-443c-b26a-26e66969c1c2"><rect class="abd35a1f-2392-4462-8ed0-000326e305aa" x="34.71654" width="102.93355" height="196.94335"/></clipPath><radialGradient id="af1de1ce-c7b7-406e-9371-f5848f326d72" cx="61.74752" cy="65.21205" r="28.34828" gradientUnits="userSpaceOnUse"><stop offset="0" stop-color="#fff" stop-opacity="0.8"/><stop offset="0.29701" stop-color="#fefaf7" stop-opacity="0.82194"/><stop offset="0.63018" stop-color="#fbece1" stop-opacity="0.88629"/><stop offset="0.97969" stop-color="#f6d4bd" stop-opacity="0.99267"/><stop offset="1" stop-color="#f6d2ba"/></radialGradient></defs><title>Artboard 23 copy 4</title><g class="a8580e15-0d67-414b-9e75-80bb54ada9ec"><g id="f30a354c-94bb-4ce9-b4b0-e1dc55d4f94d" data-name="Layer 1"><g class="a115632a-eb47-47a4-a70a-188e47207e1f"><ellipse class="bac5e392-2d7f-4806-977a-a7313468f1be" cx="46.91963" cy="-9.1493" rx="96.83421" ry="15.67617"/></g><g class="b475c2d8-4cee-441d-876e-89184bfe3b77"><path class="be132d8a-1290-4e0d-8d4d-aee5facc7f39" d="M107.73292,35.95032a30.30133,30.30133,0,0,0-1.07142-7.23392c-2.08525-7.5677-6.55988-16.23233-.99266-23.41794,4.83324-6.23826,17.04608-5.46087,22.6819-1.03693a24.673,24.673,0,0,1,9.29233,19.1331,26.8221,26.8221,0,0,1-2.0904,10.52233c-1.54131,3.589-3.79577,7.295-1.96163,11.31791,1.49037,3.26891,5.30137,4.95335,6.95008,8.14533,2.26482,4.38481-.23021,10.14443,2.13274,14.47715,1.51372,2.77556,4.7861,4.43513,5.75814,7.44341,1.07886,3.33884.10914,7.90026-.195,11.30969.1179-1.32158-5.82415-5.07623-7.07106-5.46121-2.16076-.66712-4.86673-.16381-7.123-.37808-5.52913-.52511-12.27127-1.53969-15.53809-6.6226-2.51-3.90541-2.10073-9.1833-4.70864-13.02405-1.94432-2.86344-5.36619-4.60079-6.86227-7.72191-1.96905-4.10781.33031-8.56031.66346-12.749A42.78731,42.78731,0,0,0,107.73292,35.95032Z"/><path class="fc96216d-0fa0-4a84-a8a2-3a8e8bedfb48" d="M50.96224,153.56416c-.963,11.80264-1.806,23.61505-2.64932,35.42674l-2.53073,35.44387a2.73423,2.73423,0,0,0,.34529,1.93364,2.6979,2.6979,0,0,0,1.76574.75368,103.779,103.779,0,0,0,15.56062,1.23972,3.72854,3.72854,0,0,0,2.57088-.6436,3.80152,3.80152,0,0,0,.88515-2.6727q1.6251-25.53378,3.25021-51.06755a112.76975,112.76975,0,0,1,6.82486-33.50185,13.00815,13.00815,0,0,0,.32956-5.43254q-.879-11.10882-1.83782-22.21118c-.53957-6.23194,1.0067-12.193.84184-18.50167-.02963-1.13371-.40143-2.603-1.53322-2.67534a2.37372,2.37372,0,0,0-1.435.58428c-4.03425,2.82311-5.81114,6.17987-7.983,10.43683-3.22746,6.326-6.32613,12.71871-9.24651,19.19247-3.06457,6.79339-3.52947,12.92861-4.19081,20.34084Q51.4236,147.88512,50.96224,153.56416Z"/><path class="e940896e-eff8-49af-86ff-f406fd1ebb88" d="M109.87293,196.69125c14.32452-12.79741,22.33566,21.80863,22.82853,31.07734.56875,10.69582-3.431,20.45481-4.45391,30.84312-1.33688,13.577-3.74621,27.30572-3.49553,40.97069.32121,17.50991-.07927,35.03678-.75035,52.53192-.36529,9.52309-.82276,19.04209-1.31466,28.559q-.35907,6.947-.73762,13.893c-.128,2.37224.78063,10.74619-1.019,12.355a3.15326,3.15326,0,0,1-1.71736.60468,92.97179,92.97179,0,0,1-21.20168.45171,4.85343,4.85343,0,0,1-3.03333-.96847c-.94212-.8887-1.07613-2.35048-1.14763-3.66935-2.1492-39.64507-3.81087-78.79054-4.46626-118.441-.09561-5.78564-.42005-11.55776-.6109-17.33913-.145-4.3914.52391-8.54586-2.778-11.79618-3.65814-3.601-7.20051-6.83258-10.20348-11.19906a66.23625,66.23625,0,0,1-7.2106-13.7146c-1.79069-4.64978-2.2078-9.68186-4.34474-14.151-1.45092-3.03442-3.50122-5.9833-3.49284-9.39574"/><path class="adfd8cd0-4297-4cdc-82bb-baa648b185b0" d="M54.31113,47.50681c.83195-10.5605,3.77611-19.91223,15.407-24.49517,5.97542-2.35451,12.73867-2.1289,18.92908-.41767A23.74735,23.74735,0,0,1,98.119,27.31939c3.456,3.03912,5.49639,7.40305,6.69653,11.846,2.28192,8.44773,3.26045,20.81965-1.48679,28.63384-1.151,1.89452-3.18588,1.76036-4.69651,2.95186-1.90324,1.50116-2.52026,4.95217-2.63562,7.20393a34.63306,34.63306,0,0,0,1.06719,8.81061c.34657,1.65582.699,3.31055,1.03973,4.96758.30791,1.49737.08912,3.34677.45228,4.73453.64149,2.45136,2.33992,3.81921,2.10983,6.72889-.39508,4.996-4.34476,10.24751-7.4581,13.96388a16.40261,16.40261,0,0,1-6.14769,4.93154,2.05865,2.05865,0,0,1-1.3252.18777,2.23362,2.23362,0,0,1-1.08043-.95863A49.97048,49.97048,0,0,1,77.87936,107.887c-.95871-2.93553-1.66562-6.09389-.99959-9.17175.49862-2.30424,1.84445-4.21875,1.98713-6.61576.21312-3.58028-1.062-10.117-5.52377-10.41794l-8.8211-.59488C52.93153,80.305,53.836,63.00584,53.99415,54.84533,54.04222,52.36462,54.12223,49.90456,54.31113,47.50681Z"/><path class="ab70fb0c-4c4e-4b2f-b4f6-a2eda433e80d" d="M86.089,122.21011a1.14029,1.14029,0,0,1-.32129-.04395,2.137,2.137,0,0,1-1.01758-.91308,49.72771,49.72771,0,0,1-6.75879-13.40235c-.83105-2.5459-1.69531-5.88183-.99609-9.11035a17.31265,17.31265,0,0,1,.91406-2.73145,12.51613,12.51613,0,0,0,1.0752-3.90234c.19629-3.30273-.92188-10.22461-5.63379-10.542l-8.82129-.59473C53.54893,80.22866,53.89952,64.43179,54.089,55.94448l.02344-1.09765c.03906-2.042.11035-4.72071.31543-7.33106.73828-9.36523,3.13672-19.58887,15.333-24.39453a25.99969,25.99969,0,0,1,9.57032-1.72559,34.95309,34.95309,0,0,1,9.28515,1.31153,23.366,23.366,0,0,1,9.42481,4.70117c3.02539,2.65918,5.26562,6.626,6.66113,11.78711,2.36035,8.74023,3.21289,20.82812-1.47461,28.542a4.77763,4.77763,0,0,1-2.706,1.91211,7.40234,7.40234,0,0,0-1.96289,1.00879c-2.22852,1.75781-2.61524,6.02441-2.67969,7.291a34.75035,34.75035,0,0,0,1.06933,8.84082l.33985,1.61719q.353,1.67431.70019,3.34961a14.12763,14.12763,0,0,1,.19825,2.25977,11.90376,11.90376,0,0,0,.25488,2.48144,12.18827,12.18827,0,0,0,1.00976,2.44434,7.36469,7.36469,0,0,1,1.09668,4.24414c-.39355,4.97656-4.42968,10.31543-7.43066,13.89844a16.03972,16.03972,0,0,1-6.10156,4.89746A2.54639,2.54639,0,0,1,86.089,122.21011Z"/><path class="adfd8cd0-4297-4cdc-82bb-baa648b185b0" d="M79.33116,21.27749v.23535a34.82583,34.82583,0,0,1,9.2539,1.30811A23.27581,23.27581,0,0,1,97.964,27.49624c3.00684,2.64453,5.23633,6.59131,6.624,11.73047,2.3545,8.71582,3.207,20.7666-1.46093,28.45068a4.68766,4.68766,0,0,1-2.64747,1.86231,7.494,7.494,0,0,0-1.99316,1.02636c-2.26758,1.78858-2.65918,6.09864-2.72559,7.377a34.89787,34.89787,0,0,0,1.07227,8.87109l.34766,1.65576q.34863,1.65454.69238,3.31055a13.94414,13.94414,0,0,1,.19531,2.24023,11.92419,11.92419,0,0,0,.25977,2.50684,12.18583,12.18583,0,0,0,1.01855,2.46777,7.27666,7.27666,0,0,1,1.084,4.18262c-.39063,4.94141-4.41309,10.26025-7.4043,13.83105a15.915,15.915,0,0,1-6.05566,4.86475,2.448,2.448,0,0,1-.88184.21973,1.01218,1.01218,0,0,1-.28809-.03955,2.05,2.05,0,0,1-.9541-.86914,49.59914,49.59914,0,0,1-6.74414-13.3711c-.82617-2.53125-1.68555-5.84717-.99219-9.04883a17.26317,17.26317,0,0,1,.90821-2.71289,12.58865,12.58865,0,0,0,1.084-3.93847c.19824-3.34034-.94433-10.34327-5.74414-10.667l-8.82129-.59472c-10.86816-.7334-10.51855-16.45655-10.33105-24.90381l.02343-1.09815c.03907-2.041.11133-4.71777.31543-7.32421.73536-9.33008,3.123-19.51319,15.25879-24.29444a25.89257,25.89257,0,0,1,9.52735-1.71826v-.23535m0,0a26.15645,26.15645,0,0,0-9.61328,1.73437C58.087,27.59438,55.14268,36.94643,54.31065,47.507c-.18848,2.39746-.26856,4.85742-.31641,7.33838-.1582,8.16064-1.0625,25.45947,10.52735,26.24121l8.82129.59473c4.46191.30127,5.7373,6.83789,5.52441,10.418-.14258,2.397-1.48926,4.31152-1.9873,6.61572-.666,3.07812.041,6.23633.999,9.17187a49.98752,49.98752,0,0,0,6.77539,13.43457,2.23437,2.23437,0,0,0,1.08008.9585,1.25224,1.25224,0,0,0,.35449.04883,2.6581,2.6581,0,0,0,.9707-.23682,16.39788,16.39788,0,0,0,6.14746-4.93164c3.11328-3.71631,7.06348-8.96777,7.458-13.96387.23047-2.90966-1.46777-4.27734-2.10937-6.72851-.36328-1.3877-.14453-3.23731-.45215-4.73486-.34082-1.65674-.69336-3.31153-1.04-4.96729a34.67345,34.67345,0,0,1-1.06738-8.81055c.11621-2.25195.73242-5.70312,2.63574-7.2041,1.51074-1.1914,3.5459-1.05713,4.69629-2.95166,4.748-7.81445,3.76953-20.18652,1.4873-28.63428-1.20019-4.44287-3.24023-8.80664-6.69629-11.8457a23.75379,23.75379,0,0,0-9.47168-4.72558,35.14859,35.14859,0,0,0-9.3164-1.31641Z"/><path class="a4f2a14f-9b4f-46a9-bad9-a73281203d77" d="M76.41914,94.59954c1.23416.0939,1.41532,1.807,1.70719,2.68.512,1.53131,1.35308,3.02266,2.0133,4.49738.66708,1.49,1.55172,3.16342,3.14986,3.49675a4.9482,4.9482,0,0,0,3.51972-1.07664,63.09258,63.09258,0,0,0,7.619-6.27654c.37355-.32992,5.22034-4.95882,5.47926-4.428,1.74339,3.57444.58113,8.29871.68472,12.13949q.17144,6.35538.241,12.713c.09517,8.38989.06858,16.78077-.03422,25.17045-.10284,8.394-.28262,16.78683-.48864,25.17886-.05466,2.22655.128,24.87021-.64753,25.01636a99.46439,99.46439,0,0,1-33.91462.49224q-.2382-11.07543-.05482-22.15458.48213-29.14862,3.87226-58.15219a69.25211,69.25211,0,0,1,2.53944-13.29039c.50721-1.57135,1.59281-4.54552,2.9703-5.51366A2.136,2.136,0,0,1,76.41914,94.59954Z"/><path class="e940896e-eff8-49af-86ff-f406fd1ebb88" d="M125.75457,96.95887A92.08012,92.08012,0,0,0,104.831,88.93574c-2.41791-.602-5.26863-1.01081-7.14973.62326a8.20288,8.20288,0,0,0-2.058,3.79615c-.00008,6.22976-3.895,11.00046-7.38344,15.64138-3.05832,4.06876-4.78189,8.33494-6.78929,12.9024-1.29286-5.53129-1.76778-11.324-2.41345-16.96448-.51-4.4556-1.44994-9.72011-.60583-14.16884.095-.50065-4.63663,1.43245-5.09287,1.85284a17.14869,17.14869,0,0,0-3.37548,5.36929,32.91237,32.91237,0,0,0-2.06739,7.8531c-1.65582,10.5012-11.56407,17.32445-10.08566,28.72758.60318,4.65246,2.889,8.70438,3.44777,13.32159.6681,5.52111,2.66776,10.75,2.999,16.364.37782,6.40271-1.80224,11.90015-2.39271,18.11693q-1.09638,11.54321-1.45879,23.1407c-.06352,2.02667.02873,4.36733,1.623,5.62027,1.51008,1.18679,3.6675.84116,5.5561.49187,10.25927-1.89742,20.04732-.29208,30.22384-1.07819a168.60689,168.60689,0,0,0,24.40122-3.849c-4.72807-22.31683.43853-44.06055,1.27422-66.30558l1.60881-42.8265"/><path class="be132d8a-1290-4e0d-8d4d-aee5facc7f39" d="M94.83346,73.09839c-3.02273-1.626-6.14249-3.96587-7.80465-6.89994-1.63038-2.87795-2.36529-8.2832.14707-10.87311a10.48093,10.48093,0,0,0,3.29446-7.04512c-.01012-1.82362-1.23214-3.78009-3.04842-3.94461-2.77467-.25129-3.85364,2.59838-5.45636,4.19621-3.69949,3.68817-6.50568-1.00835-9.337-2.78475a12.20292,12.20292,0,0,0-3.24333-1.25469c-2.72008-.76343-5.51319-1.29335-8.26945-1.907-1.23207-.2743-2.7834-.98995-4.03441-.97135a2.75545,2.75545,0,0,0-1.7164.75542c-.254.22769-1.008,1.80237-1.163,1.82959-1.44116.253-2.52491-5.80733-2.69848-6.88669a23.24011,23.24011,0,0,1,.00735-7.62415,17.47023,17.47023,0,0,1,8.19857-12.26939c3.33533-1.95733,12.44751-1.81744,15.75409-3.93,6.608-4.22185,18.76253-2.83232,25.46942.75877,10.49,5.61671,15.46985,17.16217,16.82616,28.4822.57536,4.80211.78116,10.67965-.70746,15.34263-1.40331,4.39575-6.06246,9.25052-10.01229,11.59807-1.47915.87912-3.09559,1.53249-4.48341,2.54968a11.76067,11.76067,0,0,1-2.71549,1.82643,5.04638,5.04638,0,0,1-3.88-.37166C95.58829,73.49408,95.21164,73.30182,94.83346,73.09839Z"/><path class="ffadc35d-1e1d-4f2a-b5c5-68268fa660b9" d="M81.20016,129.47161q.05394-.45664.11016-.90954c.65572-5.283.07008-9.17936-1.05464-14.49851a3.81454,3.81454,0,0,0-1.07827-2.30513c.16028,8.5051-1.964,16.56861-2.47757,24.9482-1.48494,24.22954,1.13331,48.37278-1.51441,72.536a.928.928,0,0,0,.08119.625.89208.89208,0,0,0,.62288.3015,7.1662,7.1662,0,0,0,3.13972-.1797,1.20974,1.20974,0,0,0,.68848-.39746,1.28234,1.28234,0,0,0,.17158-.66642c.321-4.93367-.37147-10.13211-.414-15.10221-.06659-7.77661-.13319-15.55387-.04048-23.33067.09359-7.84987.34995-15.69691.68751-23.53989A96.33378,96.33378,0,0,1,83.86389,119.995a16.70342,16.70342,0,0,0,.84027-4.60186,12.55774,12.55774,0,0,0-4.06967,6.43656,31.12743,31.12743,0,0,0-1.2327-9.01215"/><path class="b7fbbd55-c0f5-48d3-8264-8f2ed958e6e7" d="M120.42727,187.51268a35.08519,35.08519,0,0,0,.63275,4.57979c.1806.5977,1.32035,2.45982.53628,2.899a28.90155,28.90155,0,0,1-2.82242,1.46771,40.82127,40.82127,0,0,1-9.59014,2.23494c-3.87917.622-7.79984,1.0523-11.73951,1.28945a120.76716,120.76716,0,0,1-23.11505-.8266,55.87376,55.87376,0,0,1-7.8822-1.31c-1.98719-.56151-5.54244-2.183-6.51109-3.9468a4.61914,4.61914,0,0,1-.11266-3.19334c.47778-2.31577.87486-4.69607,1.28159-6.97723.50352.08339,6.244,1.28795,6.23328,1.40158,1.93281.572,3.642,1.70085,5.60633,2.19064a56.77447,56.77447,0,0,0,8.80941,1.39175c12.34932,1.07161,23.35943-1.00385,34.78345-4.463.856-.25953,1.93228-1.27119,2.83753-.81927C120.28482,183.88554,120.31349,186.7208,120.42727,187.51268Z"/><path class="fc96216d-0fa0-4a84-a8a2-3a8e8bedfb48" d="M79.32588,149.03344a73.24064,73.24064,0,0,0,11.96965.08473c2.9169-.12968,5.91169.24212,8.765-.55192-2.40709.66989-4.53821,2.2028-6.80923,3.13784a75.73174,75.73174,0,0,1-8.476,3.19717c-5.50309,1.52709-11.28119,1.71977-16.95755,1.80406a6.68016,6.68016,0,0,1-2.41083-.26076c-2.07186-.76029-2.84614-3.238-3.29282-5.39929-.37808-1.82931-.52272-3.74686-1.00546-5.54631-.48225-1.79762-1.16246-3.57751-1.72735-5.35477a3.79811,3.79811,0,0,1-.22549-1.037c3.00528,2.91986,5.84862,6.38356,10.05858,7.51283a86.07541,86.07541,0,0,0,9.88761,2.38363Q79.21465,149.02,79.32588,149.03344Z"/><path class="ffadc35d-1e1d-4f2a-b5c5-68268fa660b9" d="M108.65955,123.08134c.703-6.59855,1.20905-14.27831,3.59865-20.51382,2.1541-5.62094,7.35385-11.03,13.1792-6.40437,4.40435,3.49748,5.26707,9.74954,5.61192,15.36308.41072,6.68556,1.04906,13.69552-.1212,20.25612-4.14785,23.25326-4.75063,48.07278-5.56307,71.76985-.24456,7.13383-.412,14.38892-2.61853,21.17733l-14.50577,1.23177c-.9971-17.35918.0618-34.737.53815-52.09414C109.243,156.95668,106.87575,139.82506,108.65955,123.08134Z"/></g></g></g></svg>