<svg id="Layer_1" data-name="Layer 1" xmlns="http://www.w3.org/2000/svg" xmlns:xlink="http://www.w3.org/1999/xlink" viewBox="0 0 137.65 196.94"><defs><style>.cls-1,.cls-12{fill:none;}.cls-2{clip-path:url(#clip-path);}.cls-3{fill:#566345;}.cls-4{fill:#a97c50;}.cls-5{fill:#fff;}.cls-6{fill:#63774e;}.cls-7{fill:#6f825a;}.cls-8{fill:#3c2415;}.cls-9{clip-path:url(#clip-path-2);}.cls-10{fill:#af2027;}.cls-11{fill:#eeddc4;}.cls-12{stroke:#9acfda;stroke-miterlimit:10;}</style><clipPath id="clip-path"><rect class="cls-1" x="-5.89" y="-4.64" width="143.89" height="201.59"/></clipPath><clipPath id="clip-path-2"><path class="cls-1" d="M53.62,60a2.13,2.13,0,0,0,1.6,1.25,14.63,14.63,0,0,0,2.1.18A7.5,7.5,0,0,1,61,62.75c1.19.83,2.16,2,3.52,2.52a3.84,3.84,0,0,0,2.2.13,1.45,1.45,0,0,0,1-.6A1.3,1.3,0,0,0,67,63.16a9.67,9.67,0,0,0-1.86-.62c-1.8-.64-3-2.47-4.76-3.12a7.87,7.87,0,0,0-2-.38C57.41,58.94,52.84,57.69,53.62,60Z"/></clipPath></defs><title>Artboard 23</title><g class="cls-2"><path class="cls-3" d="M58.84,157a112.39,112.39,0,0,0,2.41-29.55c-.36-7-1.18-14.15-1.34-21.13-.07-2.92,2.22-25.24,4.67-26-11.2,3.37-20.38,9-22,21.58q-2,15.35-3.5,30.76c-.94,9.52-3.79,18.41-5.71,27.83a35.22,35.22,0,0,0-1,8.84c.18,3.5,1.43,11.5,4.6,13.64,3.55,2.39,10-.62,12.57-3.14,3.1-3.05,4.78-7.22,6.15-11.34A111.85,111.85,0,0,0,58.84,157Z"/><path class="cls-4" d="M80.32,5.94a33.15,33.15,0,0,0-21.48,8.41C51.6,20.62,49.73,30.93,49.34,40c-.33,7.87-1,21.52,3.91,28.27,3.12,4.34,14.26,6.21,19,4.94,1.65-.45,3.63-.63,4.87.55a5,5,0,0,1,1.06,1.7c1.52,3.53,1.7,6.48-.33,9.87a35.37,35.37,0,0,0-4.6,12.73c-.38,2.48-.36,5.37,1.52,7s4.53,1.39,6.88.89a45.11,45.11,0,0,0,15.91-6.74,16.25,16.25,0,0,0,4.18-3.74c4-5.37,2.27-12.36.77-18.22-4-15.64,3-32.21.72-48.19-.39-2.73-1.06-5.42-1.72-8.1-.57-2.32-.82-5.08-2.2-7a18.6,18.6,0,0,0-5.55-4.45A26.78,26.78,0,0,0,80.32,5.94Z"/><path class="cls-5" d="M76.49,82.64c1.32.13,1.62,2.12,2.32,3a10.57,10.57,0,0,0,3.84,2.69,12.88,12.88,0,0,0,8.83.73c1.14-.34,12.68-6.36,12.28-7.2,1.95,4.19.5,9.64.54,14.1q.06,7.38,0,14.75c-.07,9.74-.28,19.47-.58,29.2s-.69,19.47-1.11,29.2c-.11,2.58-.38,28.85-1.28,29A115.29,115.29,0,0,1,62,198q0-12.86.41-25.7a675.49,675.49,0,0,1,5.73-67.38,80.56,80.56,0,0,1,3.23-15.36c.62-1.81,2-5.24,3.56-6.33A2.48,2.48,0,0,1,76.49,82.64Z"/><path class="cls-6" d="M123.31,79.77c-2.36-1-4.66-2.19-7.07-3.09-3.82-1.44-8.24-2.13-11.88-.29a14.8,14.8,0,0,0-6.42,5.91c-3.7,7.26-7.37,14.54-11.2,21.73-1,2-2.28,3.89-3.24,5.9-.66,1.39-.89,3.08-1.74,4.35C80,108,79.93,101.12,79.31,94.69c-.24-2.48-.52-5-.69-7.45-.09-1.25-.15-2.51-.15-3.76,0-.78.52-3.19.13-3.8-2.79-4.44-17.09,2.06-19.82,4C52.65,88,53.18,92.77,54,99.13c1.08,8.36.95,17.39,1.41,25.85,1.2,22.64,1.64,45.35,1.48,68a37,37,0,0,0,1.54,12,15.84,15.84,0,0,0,2.6,5.33c1.1,1.21,2.59,1.37,4,2.23,1.68,1,2.9,2.48,4.45,3.65,6.73,5.06,21.54,1.89,29.37,1.43,9.06-.53,19.64-1,28.22-4.06-.2-3.74-1.8-6.82-2.47-10.4-.89-4.85-.07-10.53.25-15.41.68-10.15,2.08-20.23,2.79-30.38,1.38-20,11-37.94,11.55-58.11.15-5.27-.19-13.36-5.55-16.18-1.87-1-4-1.23-6.06-1.77A32.09,32.09,0,0,1,123.31,79.77Z"/><path class="cls-7" d="M81.29,123.2l.15-1c.87-6.12.28-10.65-.91-16.84a4.45,4.45,0,0,0-1.2-2.7c0,9.87-2.64,19.18-3.41,28.89-2.24,28.07.28,56.13-3.31,84.11a1.1,1.1,0,0,0,.08.72,1,1,0,0,0,.72.37,8.44,8.44,0,0,0,3.64-.14,1.39,1.39,0,0,0,.81-.45,1.57,1.57,0,0,0,.22-.77c.47-5.72-.22-11.76-.16-17.53.09-9,.18-18,.45-27.06s.74-18.2,1.3-27.3a111.64,111.64,0,0,1,4.92-31.19,19.5,19.5,0,0,0,1.07-5.32,14.58,14.58,0,0,0-4.86,7.38,36,36,0,0,0-1.24-10.48"/><path class="cls-4" d="M17.11,111.41c-.37-2.87-.67-5.45-.73-6a4.74,4.74,0,0,0-.35-1.56,2.46,2.46,0,0,0-2.62-1.24A6.9,6.9,0,0,0,10.58,104a1.24,1.24,0,0,1-.74.31,1.31,1.31,0,0,1-.66-.38A3.55,3.55,0,0,0,4,105.44c-.26.55-.46,1.23-1,1.5-.29.16-.64.14-.92.32a2.1,2.1,0,0,0-.68,1.51c-.76,5.34-1.06,8.91.39,14,2.38,8.32,6,21,16.39,16.37,6.37-2.84,4.28-12.18,4.29-18.11a5.25,5.25,0,0,0-.45-2.64,1.36,1.36,0,0,0-2.09-.47,4.66,4.66,0,0,0-.67,1.48,1.57,1.57,0,0,1-.71.91C18.31,120.42,17.64,115.6,17.11,111.41Z"/><path class="cls-7" d="M115.68,99.9a30.2,30.2,0,0,1,1.57-11.49c.72-2.32.81-7.52,3.09-9,1.91-1.2,8.64,1.82,10.73,2.37,7.08,1.88,11,11.11,12.63,17.68,1.21,4.94,2.26,9.95,3.26,15,1.63,8.22,3.12,16.53,4.9,24.73a480.54,480.54,0,0,1,9.07,59.9c.9,10.27,1.55,20.59,1.7,30.9.15,10.73-7.52,10-16.77,12.75-1.1.32-2.38.63-3.34,0s-1.18-2-1.29-3.16a709.73,709.73,0,0,0-13.69-86.86c-2.35-10.62-4-21.07-6.75-31.66C119.07,114.38,116.05,106.88,115.68,99.9Z"/><path class="cls-7" d="M17.71,164c3.67,7.14,7.65,15,15.2,18.76,3.8,1.88,8.23,3.27,12.21,1.09,6.77-3.7,3.44-13.38,1-19.14-3.41-7.94-9.31-13.38-14.33-20.24-.6-.82-9.5-13.07-8.21-13.44a6.45,6.45,0,0,0-2,1.06l-.38.28c-2.28,1.7-4.52,3.56-6.9,5.11-1.38.89-4.77,1.39-5.35,3.15s1.32,3,1.95,4.36c.78,1.74.82,3.63,1.37,5.52A77.17,77.17,0,0,0,17.71,164Z"/><path class="cls-8" d="M54.2,12.67A31.22,31.22,0,0,1,64.29,3.73c1.12-.58,13.55-5.19,12.91-2.38a2.13,2.13,0,0,1-.52.79,4.35,4.35,0,0,0-1,2.41c1.42-2.67,4.84-3.42,7.83-3.88C84.15,8.22,94.37,7.2,99,10.77a25.68,25.68,0,0,1,8.75,12.35c3.69,11.6-.84,23.23-3.93,34.48A15.15,15.15,0,0,1,102,62.5a3.91,3.91,0,0,1-5.52,1.11c-2.77-2,0,2.18-2.71.14a6,6,0,0,1-1.17-1.3c-1.91-2.6-3.71-5.33-5.84-7.76-1.77-2-1.93-2.79,0-5.06a9.9,9.9,0,0,0,2.32-7.12,3.15,3.15,0,0,0-.7-2c-1-1.12-3-.68-4.23.17-3.82,2.54-3.89,3.43-5.43-1.52-.87-2.81-9.92-6.12-12.75-8-3.61-2.33-8.92-.75-12.76-2.77C47.56,25.47,51.33,16.53,54.2,12.67Z"/><g class="cls-9"><path class="cls-5" d="M61.23,60.83c2,1.08,3.69,2.93,6,3.3a1.34,1.34,0,0,0,1.19-.23,1.06,1.06,0,0,0,.13-1.17,3.1,3.1,0,0,0-.82-.95,26.67,26.67,0,0,0-6.41-4.59,9.52,9.52,0,0,0-7.67-.39c-.86.38-1.58,1.14-1,2.09.48.77,1,.55,1.79.52A14,14,0,0,1,61.23,60.83Z"/></g><path class="cls-10" d="M53.42,60a2.73,2.73,0,0,0,1.41,1.93,8.76,8.76,0,0,0,2.89.53,10.81,10.81,0,0,1,3.91.82c1,.56,1.7,1.58,2.86,2a3.84,3.84,0,0,0,2.2.13c2.24-.52.39-2.89-.67-3.64A15.58,15.58,0,0,0,58.4,59c-1.28-.13-2.65-.67-3.94-.38A1.16,1.16,0,0,0,53.42,60Z"/><path class="cls-11" d="M56,60.46a3,3,0,0,1,0-.52.76.76,0,0,0-.33-.57A1.58,1.58,0,0,0,54.42,59a1,1,0,0,0-1.26-.32.78.78,0,0,0-.2,1.2,2,2,0,0,0-.74.82.7.7,0,0,0,.35.93c.32.09.76-.1,1,.17a1,1,0,0,1,.1.24.66.66,0,0,0,.6.43c.16,0,.33,0,.47,0s.16.21.24.32a1.44,1.44,0,0,0,.94.44.34.34,0,0,0,.31,0c.06-.06.06-.16.1-.24s.33-.13.49,0a2.63,2.63,0,0,0,.44.3c.91.32,1.48-1.39,1.09-2C57.79,60.5,56.19,61.23,56,60.46Z"/><path class="cls-11" d="M64.41,64.52c.12.15.15.41.35.44s.24-.08.34-.17a2,2,0,0,1,.61-.46.88.88,0,0,1,.73,0,.69.69,0,0,1,.3.75.66.66,0,0,1-.67.45c-.1,0-.21,0-.27,0a.24.24,0,0,0,0,.14l-.12,1a.41.41,0,0,1-.1.29.42.42,0,0,1-.33.1,1.69,1.69,0,0,1-.71-.08.61.61,0,0,1-.42-.53.38.38,0,0,1,.49-.35.81.81,0,0,1-.9.12,1.42,1.42,0,0,1-.3-.25c-.4-.42-.69-.65-.28-1.14C63.28,64.63,64.14,64.19,64.41,64.52Z"/><path class="cls-11" d="M58.58,61.74c.21-.2.61-.27.77,0,0,.09.07.19.12.27a.33.33,0,0,0,.26.13,1.54,1.54,0,0,0,.35-.1.52.52,0,0,1,.56.43.85.85,0,0,1-.23.72.51.51,0,0,1-.55.18.87.87,0,0,1-.27-.33c-.08-.12-.22-.23-.35-.18S59.1,63,59,63a.52.52,0,0,1-.65-.07C57.91,62.49,58.16,62.11,58.58,61.74Z"/><path class="cls-11" d="M57.46,65c.24,0,.34.31.25.53s-.26.41-.27.64a.59.59,0,0,0,.68.53,1,1,0,0,0,.69-.64c0-.08,0-.17,0-.24s-.19-.1-.27-.17-.06-.4.08-.56.31-.33.27-.54a.41.41,0,0,0-.43-.29,1.21,1.21,0,0,0-.54.19,2.62,2.62,0,0,1-2,.36c-.14,0-.2.23-.13.36a.45.45,0,0,0,.38.19,3.4,3.4,0,0,0,.45,0,2.46,2.46,0,0,1,1.1.33"/><path class="cls-11" d="M49.73,60.92a3,3,0,0,0-.74,1A1.22,1.22,0,0,0,49.07,63a.77.77,0,0,0,1.07.19,2.16,2.16,0,0,0-.44.76.76.76,0,0,0,.22.81,1.61,1.61,0,0,0,.82.15,2.29,2.29,0,0,1,1.3.49,15.64,15.64,0,0,0,2-1.5,1.13,1.13,0,0,0-1.16-.1.3.3,0,0,0,.49-.2c0-.16-.14-.32-.09-.47a.49.49,0,0,1,.25-.24A1.37,1.37,0,0,0,54,61.07C52.7,59.23,51.21,59.52,49.73,60.92Z"/><path class="cls-12" d="M110,70.71a2.8,2.8,0,0,1,3.41-.2,8.2,8.2,0,0,1,2.41,2.75,8.52,8.52,0,0,1,2.75-.89,2.91,2.91,0,0,1,2.61,1c.15.19.27.42.5.5a1,1,0,0,0,.77-.16c1.48-.7,3.41-.86,4.65.22.73.63,1.41,1.71,2.33,1.43.22-.07.46-.2.65-.09s-.13.49-.18.27"/><path class="cls-12" d="M115.1,66.84a5.35,5.35,0,0,1,4-.28,6.76,6.76,0,0,0,1.23.39,6.41,6.41,0,0,0,1.51-.08,5.73,5.73,0,0,1,4,1.21"/><path class="cls-12" d="M46.73,81.88c-.26-.36-.83-.2-1.23,0-2.21,1.11-4.64,2.47-5.29,4.85a4.77,4.77,0,0,1-.37,1.18,4.75,4.75,0,0,1-.79.83,5.22,5.22,0,0,0-1.54,4.58,3.32,3.32,0,0,0-1.75,3.86c.27,1.17,1,2.5.22,3.44a1,1,0,0,0,.75.42"/><path class="cls-12" d="M41.58,80.89a5.76,5.76,0,0,0-4.29,4.26,7.29,7.29,0,0,0-2.36,1.23A2.08,2.08,0,0,0,34,88c0,.31.17.61.18.93,0,.7-.66,1.19-1,1.77s-.16,1.7.53,1.55"/><path class="cls-12" d="M7.34,160.29a9.23,9.23,0,0,0,2.21,6.54,2.71,2.71,0,0,0,.18,2.88,6.87,6.87,0,0,0,2.3,2,3.19,3.19,0,0,1,1,.75,4,4,0,0,1,.5,1.12,6.51,6.51,0,0,0,2.81,3.35"/><path class="cls-12" d="M3.7,165.13A6.6,6.6,0,0,0,5,170.37a3.14,3.14,0,0,0,1.84,3.94"/></g></svg>