<svg id="b2c74ce6-1ff3-4335-af9e-521a9f29c2bc" data-name="Layer 1" xmlns="http://www.w3.org/2000/svg" viewBox="0 0 137.65009 196.94335"><defs><style>.a795adab-f1cf-478a-b49d-e5243528cb11{fill:#3c2415;}.a4a5ffa3-27c4-4e63-8ebd-7318489481e1{fill:#566345;}.e976976d-f3e0-4634-8e6e-7a1d4be0ba5f{fill:#a97c50;}.aca5831c-5db8-45de-920c-8cd8ffb682a1{fill:#fff;}.b209e09c-889b-4aba-8ae5-315b79d97b33{fill:#63774e;}.f0121f66-e539-4e71-94b5-3d90297b0e3b{fill:#6f825a;}.a95c7c14-2827-49ee-9461-41e56e043162{fill:#af2027;}.bded2be3-3f80-4a89-879c-de8414869c4c{fill:#7f1822;}.a5f95307-78fa-44df-a84e-8513445f2945{fill:#8b5e3c;}</style></defs><title>Artboard 23 copy 7</title><path class="a795adab-f1cf-478a-b49d-e5243528cb11" d="M106.782,33.34539C98.89335,25.78547,94.13339,13.40457,100.90547,4.664c5.12941-6.62045,18.09053-5.79542,24.07166-1.10041a26.18489,26.18489,0,0,1,9.8617,20.30578c-.01084,10.12778-6.80442,18.641-17.81829,15.64132A24.73851,24.73851,0,0,1,106.782,33.34539Z"/><path class="a4a5ffa3-27c4-4e63-8ebd-7318489481e1" d="M51.52763,167.63145c-1.022,12.52583-1.9166,25.062-2.81165,37.59746l-2.6858,37.61563a2.90178,2.90178,0,0,0,.36645,2.05212,2.86323,2.86323,0,0,0,1.87394.79986,110.138,110.138,0,0,0,16.51406,1.31568,3.957,3.957,0,0,0,2.72841-.683,4.03446,4.03446,0,0,0,.93938-2.83647q1.72468-27.09832,3.44936-54.19663a119.67931,119.67931,0,0,1,7.243-35.55461,13.80522,13.80522,0,0,0,.34975-5.76541q-.9329-11.78949-1.95043-23.57214c-.57263-6.61379,1.06838-12.94016.89342-19.63532-.03144-1.20318-.426-2.76255-1.62716-2.83927a2.51914,2.51914,0,0,0-1.52294.62009c-4.28144,2.99608-6.1672,6.55853-8.47215,11.07633-3.42522,6.71358-6.71374,13.498-9.81306,20.36844-3.25235,7.20965-3.74575,13.7208-4.44761,21.5872Q52.01726,161.60445,51.52763,167.63145Z"/><path class="e976976d-f3e0-4634-8e6e-7a1d4be0ba5f" d="M55.08171,55.07563c.88294-11.20759,4.00749-21.13233,16.351-25.99607,6.34155-2.49878,13.5192-2.25935,20.08892-.44327a25.20232,25.20232,0,0,1,10.05216,5.015c3.66779,3.22533,5.83317,7.85665,7.10685,12.57186,2.42174,8.96535,3.46023,22.09534-1.5779,30.38832-1.22148,2.01062-3.38108,1.86823-4.98428,3.13273-2.01986,1.59315-2.67468,5.25562-2.79711,7.64534A36.755,36.755,0,0,0,100.45394,96.74c.36781,1.75728.74181,3.5134,1.10344,5.272.32678,1.58911.09458,3.55183.48,5.02462.6808,2.60156,2.48329,4.05323,2.2391,7.1412-.41928,5.30213-4.611,10.8754-7.91507,14.81948A17.40771,17.40771,0,0,1,89.837,134.231a2.18485,2.18485,0,0,1-1.4064.19928,2.37064,2.37064,0,0,1-1.14664-1.01737,53.03254,53.03254,0,0,1-7.18993-14.2574c-1.01745-3.11539-1.76768-6.46727-1.06084-9.73373.52918-2.44542,1.95747-4.47725,2.1089-7.02113.22617-3.79966-1.12707-10.737-5.86224-11.05628l-9.3616-.63132c-12.30069-.82954-11.34079-19.18868-11.173-27.84922C54.79633,60.23109,54.88125,57.62029,55.08171,55.07563Z"/><path class="aca5831c-5db8-45de-920c-8cd8ffb682a1" d="M78.54436,105.05388c1.30978.09965,1.502,1.91773,1.81179,2.84417.54336,1.62514,1.436,3.20787,2.13667,4.773.708,1.58131,1.64679,3.35725,3.34286,3.711a5.25133,5.25133,0,0,0,3.73538-1.1426,66.95809,66.95809,0,0,0,8.08587-6.66113c.39645-.35014,5.54022-5.26266,5.815-4.69928,1.85021,3.79345.61673,8.8072.72667,12.88331q.18194,6.7448.25576,13.49192c.101,8.904.07278,17.809-.03631,26.71272-.10915,8.90832-.29994,17.81542-.51859,26.72165-.058,2.363.13581,26.39409-.6872,26.5492a105.55881,105.55881,0,0,1-35.99269.5224q-.2528-11.75406-.05818-23.51206.51168-30.93465,4.10953-61.71537A73.49562,73.49562,0,0,1,73.966,111.428c.5383-1.66763,1.69041-4.824,3.1523-5.85149A2.26685,2.26685,0,0,1,78.54436,105.05388Z"/><path class="b209e09c-889b-4aba-8ae5-315b79d97b33" d="M130.90273,107.55778A97.722,97.722,0,0,0,108.69708,99.043c-2.56606-.63891-5.59145-1.07274-7.58782.66145a8.70564,8.70564,0,0,0-2.18406,4.02875c-.00008,6.61148-4.13371,11.67449-7.83585,16.59978-3.24571,4.31807-5.07489,8.84565-7.20529,13.693-1.37207-5.87022-1.8761-12.01792-2.56133-18.004-.54129-4.7286-1.53879-10.31569-.643-15.037.10082-.53133-4.92073,1.52022-5.40492,1.96638a18.19943,18.19943,0,0,0-3.58232,5.69827,34.92916,34.92916,0,0,0-2.19406,8.33429c-1.75728,11.14464-12.27264,18.386-10.70365,30.48781.64015,4.93753,3.06607,9.23773,3.659,14.13785.709,5.85941,2.83123,11.40871,3.18281,17.36667.401,6.795-1.91267,12.62931-2.53933,19.227q-1.16355,12.25048-1.54817,24.5586c-.06741,2.15086.03049,4.63494,1.72242,5.96465,1.6026,1.25951,3.89221.8927,5.89653.522,10.8879-2.01368,21.27569-.31,32.07576-1.14425a178.93708,178.93708,0,0,0,25.89636-4.08484c-5.01777-23.68425.4654-46.76028,1.3523-70.36833l1.70738-45.45062"/><path class="a795adab-f1cf-478a-b49d-e5243528cb11" d="M98.087,82.23529c-3.20795-1.72565-6.51887-4.20888-8.28288-7.32273-1.73027-3.05429-2.51021-8.79074.15609-11.53933,1.898-1.95662,3.51221-4.615,3.49633-7.47681-.01075-1.93535-1.30765-4.0117-3.23522-4.18631-2.94468-.26668-4.08976,2.7576-5.79068,4.45333-3.92618,3.91416-6.90431-1.07014-9.90916-2.95538a12.95073,12.95073,0,0,0-3.44206-1.33157c-2.88675-.81021-5.851-1.3726-8.77616-2.02384-1.30756-.29111-2.95394-1.05061-4.2816-1.03087a2.92432,2.92432,0,0,0-1.82157.80171c-.26953.24164-1.06976,1.91281-1.23427,1.94169-1.52947.26854-2.67963-6.16316-2.86383-7.30865a24.664,24.664,0,0,1,.00781-8.09131A18.54062,18.54062,0,0,1,60.81071,23.144c3.53969-2.07726,13.2102-1.92879,16.71938-4.17081,7.01293-4.48053,19.91219-3.00587,27.03.80526,11.13277,5.96086,16.41773,18.21375,17.85715,30.2274.61062,5.09635.829,11.334-.75081,16.28273-1.4893,4.66508-6.43392,9.81733-10.62577,12.30872-1.56979.933-3.28527,1.62639-4.75813,2.7059a12.48068,12.48068,0,0,1-2.88188,1.93834,5.35556,5.35556,0,0,1-4.11772-.39443C98.88807,82.65522,98.48833,82.45118,98.087,82.23529Z"/><path class="f0121f66-e539-4e71-94b5-3d90297b0e3b" d="M83.61832,142.06268q.05726-.48462.11692-.96527c.6959-5.60671.07437-9.74181-1.11926-15.38689a4.04834,4.04834,0,0,0-1.14434-2.44637c.17009,9.02624-2.08436,17.58382-2.62938,26.47686-1.57593,25.71417,1.20275,51.33674-1.6072,76.98053a.98487.98487,0,0,0,.08616.66332.94672.94672,0,0,0,.66105.32,7.60528,7.60528,0,0,0,3.3321-.1907,1.2838,1.2838,0,0,0,.73066-.42182,1.36069,1.36069,0,0,0,.18209-.70725c.34071-5.236-.39422-10.75294-.43939-16.02757-.07068-8.25311-.14135-16.5069-.043-24.76021.09932-8.33087.37139-16.65871.72964-24.98226a102.23648,102.23648,0,0,1,3.97086-28.60962,17.72642,17.72642,0,0,0,.89176-4.88383,13.32715,13.32715,0,0,0-4.319,6.83095,33.035,33.035,0,0,0-1.30823-9.56435"/><path class="a4a5ffa3-27c4-4e63-8ebd-7318489481e1" d="M81.6292,162.82312a77.72812,77.72812,0,0,0,12.70308.08993c3.09563-.13763,6.27391.25695,9.302-.58574-2.55457.71093-4.81628,2.33777-7.22645,3.3301a80.37426,80.37426,0,0,1-8.99533,3.39307c-5.84029,1.62067-11.97243,1.82515-17.9966,1.91461a7.08976,7.08976,0,0,1-2.55854-.27674c-2.19881-.80688-3.02054-3.43642-3.49459-5.73013-.40124-1.94139-.55475-3.97643-1.06707-5.88615-.5118-1.90776-1.23368-3.79671-1.83318-5.68287a4.03,4.03,0,0,1-.23931-1.10055c3.18942,3.09877,6.207,6.7747,10.6749,7.97316a91.34906,91.34906,0,0,0,10.49345,2.52969Q81.51117,162.80884,81.6292,162.82312Z"/><path class="f0121f66-e539-4e71-94b5-3d90297b0e3b" d="M112.76024,135.28085c.74606-7.00286,1.28313-15.15319,3.81916-21.77077,2.28609-5.96535,7.80444-11.70584,13.98672-6.79679,4.67423,3.71179,5.5898,10.34693,5.95579,16.30443.43588,7.09521,1.11334,14.5347-.12862,21.49729-4.402,24.67805-5.04172,51.01835-5.90394,76.16742-.25955,7.57094-.43724,15.27057-2.779,22.47493l-15.39459,1.30724c-1.05819-18.42283.06559-36.86542.57113-55.28611C113.37944,171.23184,110.86715,153.05052,112.76024,135.28085Z"/><path class="a95c7c14-2827-49ee-9461-41e56e043162" d="M71.75826,83.66084c-5.80624-1.861-9.592-4.90436-11.52923-5.38347-.71161-.176-2.202-.95876-2.40892-.63638-.208.324.67465,1.4208,1.033,1.84424a4.19547,4.19547,0,0,0,.57679.5805,5.56637,5.56637,0,0,0,.84534.52313,9.43791,9.43791,0,0,0,2.04048.92591,10.23637,10.23637,0,0,1,1.754.77655c1.41906.65832,2.96658.96567,4.43186,1.49781a11.57069,11.57069,0,0,0,2.35778.67286C71.27986,84.51684,72.427,84.21679,71.75826,83.66084Z"/><path class="bded2be3-3f80-4a89-879c-de8414869c4c" d="M69.12948,81.07234c.56789.16933,1.08753.83107,1.52606,1.19517a5.11093,5.11093,0,0,1,.75527.77634c.09639.122.46928.84075.58339.86183A18.64431,18.64431,0,0,1,66.07145,81.522c-.9181-.53455-1.80652-1.11527-2.69826-1.692a17.02346,17.02346,0,0,0-2.89482-1.22768c-.5576-.22581-1.17556-.27556-1.715-.49989-1.44213-.59978-.50873-1.50013.59886-1.62629a1.92345,1.92345,0,0,1,1.74292.67508,1.26113,1.26113,0,0,0,.31281.38,1.0254,1.0254,0,0,0,.64262.08348,4.26812,4.26812,0,0,1,2.11035.1647c.88242.39125,1.69035,1.06662,2.54611,1.522C67.59375,79.768,68.13706,80.77642,69.12948,81.07234Z"/><path class="a5f95307-78fa-44df-a84e-8513445f2945" d="M66.71224,73.52342a22.77443,22.77443,0,0,1,5.06121,8.0811l-.33976-.28827"/></svg>