<svg  preserveAspectRatio="none" id="Layer_1" data-name="Layer 1" xmlns="http://www.w3.org/2000/svg" xmlns:xlink="http://www.w3.org/1999/xlink" viewBox="0 0 215.85 185.27"><defs><style>.cls-1,.cls-5,.cls-7,.cls-8{fill:none;}.cls-2{clip-path:url(#clip-path);}.cls-3{fill:#009ac4;}.cls-4{fill:#f1f2f2;}.cls-5{stroke:#e6e7e8;stroke-width:2.95px;}.cls-5,.cls-7{stroke-miterlimit:10;}.cls-6{fill:#bcbec0;}.cls-7{stroke:#bcbec0;stroke-width:1.11px;}.cls-8{stroke:#414042;stroke-linejoin:round;stroke-width:4.42px;}.cls-9{fill:#d1d3d4;}</style><clipPath id="clip-path"><rect class="cls-1" width="215.49" height="185.27"/></clipPath></defs><title>Artboard 8</title><g class="cls-2"><rect class="cls-3" x="0.2" y="1.08" width="215.65" height="307.46" rx="9.4"/><polygon class="cls-4" points="204.27 294.47 47.95 294.47 10.64 257.04 10.64 48.15 29.06 34.79 42.37 16.37 204.27 16.37 204.27 294.47"/><path class="cls-5" d="M144.72,20.41V14.3A2.35,2.35,0,0,0,142.37,12H72.93a2.35,2.35,0,0,0-2.35,2.35v6.11"/><rect class="cls-6" x="72.65" y="7.19" width="70.19" height="7.53"/><polyline class="cls-7" points="78.2 28.52 98.24 28.52 99.79 27.8 115.03 27.8 116.02 28.52 142.84 28.52"/><polyline class="cls-8" points="70.58 18.92 70.58 28.52 80.22 28.52"/><polyline class="cls-8" points="144.72 18.92 144.72 28.52 135.07 28.52"/><rect class="cls-4" x="72.65" y="7.54" width="70.19" height="2.26"/><polygon class="cls-9" points="42.5 16.29 26.57 32.22 10.64 48.15 42.5 48.15 42.5 16.29"/></g></svg>