<svg id="Layer_1" data-name="Layer 1" xmlns="http://www.w3.org/2000/svg" xmlns:xlink="http://www.w3.org/1999/xlink" viewBox="0 0 233.76 136.26"><defs><style>.cls-1{fill:none;}.cls-2{clip-path:url(#clip-path);}.cls-3{fill:#c49a6c;}.cls-4{clip-path:url(#clip-path-2);}.cls-5{opacity:0.34;}.cls-6{fill:#8b5e3c;}.cls-7{fill:#a97c50;}.cls-8{clip-path:url(#clip-path-3);}</style><clipPath id="clip-path"><rect class="cls-1" width="233.76" height="136.26"/></clipPath><clipPath id="clip-path-2"><rect class="cls-1" x="-165.95" y="74.66" width="493.75" height="71.13"/></clipPath><clipPath id="clip-path-3"><rect class="cls-1" x="-0.25" y="5.97" width="493.75" height="57.59"/></clipPath></defs><title>Artboard 32</title><g class="cls-2"><rect class="cls-3" width="233.76" height="136.85"/><g class="cls-4"><rect class="cls-3" x="-165.95" y="74.66" width="493.75" height="71.13"/><g class="cls-5"><path class="cls-3" d="M327.8,74.66H304.6c-1.64,0-3.35,0-5.12,0-32,8.65-64-7.57-95.81-.06-1.62,0-3.21,0-4.82,0H185.74C152.52,85,120.52,70.36,87.52,73.61c-9,0-19-1.62-28,1H37.16a9,9,0,0,1-2,.37,4.59,4.59,0,0,1-2.27,0,8.53,8.53,0,0,1-2-.37H25.24c-18.17,3.59-37.14,3.61-56.4,2.39-2.15-.13-4.29-.28-6.44-.44-8.88-1.38-16.88,8.35-24.88,3.48-23-11.35-47-14.59-71.34-7.87q-3.12.32-6.21.74c-24.74,3.43-48.29,12.6-69.45,33.08,11,22.71,37,8.11,43.47,36.71.06,1.93.06,3,.06,3s1,0,3-.06c18.44.86,29.44-25.09,45.44-31.58,2,0,5-1.62,5,1.62,1,13,0,34.06,12.21,29.58l5.9,0q11.79-.09,23.57-.11c2,0,3.92,0,5.89,0,6.43-.23,11.43-.23,17.65,0,1.95,0,3.91,0,5.87,0q26.46.09,52.83.49c2.08,0,4.12-.09,6.24-.18,17.84,4.31,33.84-24.88,48.84-10.28,6,4.86,14,8.1,21.39,10.55h2c.62.8,2.62.8,4,0h13.52c4.11-2.44,7.11-.81,11.5,0,.6,0,1.22,0,1.85,0h29.71a32.24,32.24,0,0,0,4.53.57c5.07.08,10.21.14,15.41.13,1.77,0,3.54-.05,5.38-.13,18.73-7.88,37.73-12.75,56.94-.57h20.53c4.69-3,8.68-2.9,13-1.6,1.44.43,2.93,1,4.48,1.6,16.77.8,33.77,12.15,50.77,13.77,12,0,16-16.22,18-30.81,0-4.87-7-8.11-10-13-1-3.24-2-8.11-1.15-10.67,0-.77,0-1.52,0-2.27,0-3.75-.18-7.47-.54-11.66V74.66Z"/><path class="cls-6" d="M275.24,107c-1.72-.92-4.72-5.78-6.72-4.16-3,0,4,3.24,1,6.49-6,3.24-13,3.24-20,6.48,2-4.86,8-3.24,8-8.11,1-6.48-4-3.24-6-6.48,3-1.62,6,1.62,8,3.24,1,3.24-3,4.87-4,8.11,4-3.24,8,0,12-4.87-11-19.46-29-14.59-44-16.21,5,0,9,3.24,14,1.62h-3c6,1.62,13,0,19,4.86-17-11.35-35-1.62-52-1.62,7-6.49,16-8.11,24-8.11-11,0-23,0-32,11.36,32-27.57,72-13,99,22.7-2,0-2-1.62-3-3.24,1,1.62,2,3.24,2,4.86-5-3.24-10-9.73-14.25-15.06C276.59,108.19,275.91,107.56,275.24,107Z"/><path class="cls-6" d="M210.18,104.79c-2.66,1.25-4.66,4.5-7.66,6.12,0-1.62,0-4.87-1-4.87-4,0-14,1.62-12,13l1-1.62c-2,8.1-9,9.73-12,16.21h1a38.55,38.55,0,0,0-10.91,1,50.29,50.29,0,0,1-5-.38c-8.42-1.06-16.94-4.1-25.06-7.14,8.12,3,16.25,6.08,24.37,6.35a33.2,33.2,0,0,0,4.88-.2c3.75-1.29,6.75-1.29,10.75-2.91-3-1.62-7-1.62-10-2.23q-2.25-.76-4.5-1.65c-7.5-2.91-15-6.46-22.5-7.47,9.62,2.84,19.25,6.92,28.87,10.06,1.42.43,2.83.84,4.28,1.2a13.91,13.91,0,0,1-5.15,1.43c-8.33.6-16.67-5.94-25-4.58,6,0,13,1.62,19,1.62-18-8.11-36-6.49-54-1.62,6-3.25,11-8.11,17-11.36-4-4.86-10-1.62-11-6.48-1-3.25,2-11.36,7-9.73-5,3.24-9-8.11-14-6.49,6,1.62,13,1.62,19,4.86-3-1.62-5,3.25-8,1.63a6.21,6.21,0,0,0,5-1.63c-1,6.49-5,1.63-7,4.87,0-1.62,2-1.62,2-3.24,0,1.62,1,1.62,1,3.24-7-1.62-12,6.49-18,8.11a3.18,3.18,0,0,1-5,0c-1-3.25,2-6.49,3-8.11-28-11.35-53,22.7-81.06,21.89-2.15.24-4.19.39-6.27.54-13.62.43-27.21,0-40.78-.48-1.94-.07-3.88-.14-5.8-.15-9.09.9-17.09,4.15-26.09,4.15,9,1.62,17-3.25,26.3-1.26,2,.18,3.93.35,5.89.5q14.76,1.14,29.53,1.33c2,0,3.93,0,5.89,0,26.39,4.25,48.39-21.7,73.39-26.56,6-1.62,16-1.62,13,13,9,3.25,15-6.48,23-11.35-1,1.62-2,1.62-3,3.24,3,4.87,7,3.25,10,8.11-5,1.63-10,8.11-15,11.36a17,17,0,0,1,4-4.87c-3,0-5,1.62-7,4.87,20-3.25,41-4.87,61,3.24-9-3.24-17-3.24-26-3.24,6,3.24,13,0,19,4.86-7-4.86-16-1.62-23-6.49,9.8,7.95,21.07,11.13,32.09,10.1a36.5,36.5,0,0,0,4.91-.83c4-1.16,8-1.16,12-6-3,0-5,1.62-8,3.24,5-4.86,10-8.11,14-16.22-1,0-3,1.63-4,1.63,2-11.36,10-6.49,14-11.36,0,1.62,0,3.25-1,3.25a11.17,11.17,0,0,0,8.18-4.16A5.25,5.25,0,0,0,210.18,104.79Z"/><path class="cls-6" d="M29.78,92.11c-19,3.24-38,5.17-56.9,7.65-1.9.25-3.79.5-5.63.86-10.73,2.18-16.73,18.4-26.73,20,5-3.24,9-4.87,13-11.35-5,8.11-16,13-19,3.24-10-30.81-36-29.19-54-22.71,5-1.62,11-3.24,16-4.86-11,3.24-22,6.49-32,13,2-1.62,4-1.62,6-3.24-5,1.62-9,4.87-14,4.87,1,0,3,0,4-1.63a39,39,0,0,1-6.43-.38,42.16,42.16,0,0,0-5.47-1.21c-14.62-2.23-29.5,3.22-43.1,9.7h4c-5,4.87-9,0-14-1.62,14,7.3,29.25,10.14,44.75,11q2.91.15,5.82.21c25.43-7.92,53.43-46.84,78.43-12.78-3-8.11-8-9.73-13-13,5,3.25,13,4.87,12,13-1,6.49-12,3.24-12,14.6,0,0,3,1.62,4,1.62-1-1.62-3-3.25-2-4.87a2.92,2.92,0,0,1,3-1.62c1,1.62-2,4.87,4,4.87-1-1.63-3-3.25-4-4.87,1,0,2-1.62,3-1.62-2,0-3,3.24-2,4.86,10,8.11,22,11.36,33,8.11-4-4.86-8,1.62-12-1.62,3,0,7,0,10-3.24h-3c9-3.25,15-16.22,24.57-16.15l5.72-1c17.18-3,34.33-6.37,51.85-9.45C28.47,92.34,29.15,92.23,29.78,92.11Z"/><path class="cls-7" d="M72.08,89.31c10.44,2.14,21.44-4.35,31.44.51h-2c-7-6.48-15-3.24-22-1.62,1-1.62,3-1.62,5-1.62-13-3.24-25,3.24-38,3.24,17-3.24,33-8.1,50-6.48-17,0-35,3.24-52,4.16l-1.8-.31A36.89,36.89,0,0,0,32,86.93a35.69,35.69,0,0,0-3.7.68C10.45,89-7.09,89.54-24.78,89.72l-5.9,0c-3.8,0-6.8,0-10.8,1.68-7,3.24-10,22.7-16,17.84-23-22.71-49-32.44-73-14.6,8-4.87,17-6.49,26-9.73a72.72,72.72,0,0,0-17,6.49c16-6.49,37-9.73,50,11.35-3-6.49-7-9.73-11-13,4,4.87,11,6.49,12,16.22,0,4.87-6,1.62-4,6.49,1,3.24,5,3.24,8,4.87h-4c4,0,7,4.86,11,3.24-6,0-12-3.24-18-4.87,7,8.11,15,4.87,23,8.11-3,1.62-6-1.62-9-1.62q6,2.43,12-4.86c-1,0-1,1.62-2,1.62,9-3.25,14-19.46,24.43-16.83l5.54-.91c16.6-2.74,33.15-5.47,50-8.21-17.14,9.27-35.31,10.26-53.4,12.43-1.81.22-3.61.45-5.36.84-5.24-.3-9.24,4.57-13.24,9.43,4-4.86,9-3.24,14.28-4.51,1.4.07,2.84.13,4.29.09a29.41,29.41,0,0,0,4.43-.44,43.94,43.94,0,0,1-5-.2,15.33,15.33,0,0,1-5-1.33,81.42,81.42,0,0,1,10.53-2.72c16-3.11,32.3-2.86,48.17-4.67,1.77-.21,3.54-.44,5.32-.72,21.94-5,42.94-14.69,64.94-9.82-3-1.63-5,3.24-8,1.62,8,1.62,15,0,23,3.24-6,0-13-3.24-19-4.86,2,0,5-3.25,7-1.63-9,0-18,0-26.95-.29Z"/><path class="cls-7" d="M289.45,117.82a13.38,13.38,0,0,1,2.07,2.82c-30-38.92-73-47-108-22.71-3,1.63-4,9.73-2,17.84-2,0-4,0-5-1.62,0-1.62,1-4.86,1-6.49a24.92,24.92,0,0,1-3,6.48,22.16,22.16,0,0,1-5.66.7c-16.77-.06-32.16-17.72-48.36-10.42,1,0,3-1.62,4-1.62l-1-1.62c8,8.11,19,3.24,27,11.35-3-3.24-6,0-9-3.24,7.5,2.43,16.25,10.13,24.5,13.17a19.55,19.55,0,0,0,4.91,1.17c2.59-1.37,6.59-1.37,9.59-3,6-6.49,9-17.84,17-19.46,0,1.62-1,1.62-1,3.24a49.78,49.78,0,0,1,36-9.73h-27c21-13,45-11.35,65,6.49-4-4.87-9-4.87-13-8.11,4,6.49,10,6.49,12,16.22-1-3.25-2-6.49-4-8.11,11,0,17,16.22,25.9,19.72C290.16,119,289.57,118,289.45,117.82Z"/></g></g><g class="cls-8"><rect class="cls-3" x="-0.25" y="5.97" width="493.75" height="57.59"/><g class="cls-5"><path class="cls-3" d="M493.49,6H470.3c-1.64,0-3.35,0-5.12,0-32,7-64-6.13-95.82,0l-4.81,0H351.43c-33.22,8.33-65.22-3.48-98.22-.86-9,0-19-1.31-28,.85H202.85a10.35,10.35,0,0,1-2,.3,5.73,5.73,0,0,1-2.26,0,10,10,0,0,1-2-.3h-5.69c-18.17,2.9-37.14,2.91-56.41,1.93l-6.43-.36c-8.89-1.12-16.89,6.76-24.89,2.82-23-9.19-47-11.81-71.34-6.37q-3.12.25-6.21.6C.92,7.37-22.63,14.79-43.79,31.37c11,18.39,37,6.57,43.47,29.72.07,1.57.07,2.47.07,2.47s1,0,3-.06c18.44.7,29.44-20.31,45.44-25.56,2,0,5-1.31,5,1.31,1,10.51,0,27.58,12.22,24l5.9,0q11.79-.07,23.56-.09c2,0,3.93,0,5.9,0,6.42-.19,11.42-.19,17.65,0h5.87q26.44.09,52.82.4c2.08,0,4.13-.07,6.25-.14,17.83,3.49,33.83-20.15,48.83-8.33,6,3.94,14,6.56,21.39,8.55h2c.61.64,2.61.64,4,0h13.52c4.1-2,7.1-.66,11.49,0,.6,0,1.22,0,1.85,0h29.71a39,39,0,0,0,4.54.45c5.07.07,10.2.12,15.4.11,1.77,0,3.55,0,5.39-.1,18.72-6.38,37.72-10.32,56.93-.46H419c4.7-2.47,8.69-2.35,13-1.3,1.44.35,2.92.8,4.48,1.3,16.76.64,33.76,9.83,50.76,11.15,12,0,16-13.14,18-24.95,0-3.94-7-6.57-10-10.51-1-2.62-2-6.56-1.15-8.64,0-.62,0-1.23,0-1.84a85.44,85.44,0,0,0-.53-9.44c0-.52,0-1,0-1.52Z"/><path class="cls-6" d="M375.87,30.36c-2.66,1-4.66,3.64-7.66,5,0-1.31,0-3.94-1-3.94-4,0-14,1.32-12,10.51l1-1.31c-2,6.56-9,7.87-12,13.13h1a47.29,47.29,0,0,0-10.9.84c-1.67,0-3.35-.14-5-.31-8.41-.86-16.93-3.32-25.06-5.79,8.13,2.47,16.25,4.93,24.38,5.15a41.71,41.71,0,0,0,4.87-.16c3.75-1,6.75-1,10.75-2.36-3-1.31-7-1.31-10-1.81-1.5-.41-3-.86-4.5-1.33-7.5-2.36-15-5.23-22.5-6,9.63,2.3,19.25,5.6,28.88,8.15,1.42.35,2.83.68,4.28,1a16.27,16.27,0,0,1-5.16,1.16c-8.33.49-16.66-4.8-25-3.71,6,0,13,1.32,19,1.32-18-6.57-36-5.26-54-1.32,6-2.62,11-6.56,17-9.19-4-3.94-10-1.31-11-5.25-1-2.63,2-9.19,7-7.88-5,2.63-9-6.56-14-5.25,6,1.31,13,1.31,19,3.94-3-1.31-5,2.62-8,1.31a7.25,7.25,0,0,0,5-1.31c-1,5.25-5,1.31-7,3.94,0-1.32,2-1.32,2-2.63,0,1.31,1,1.31,1,2.63-7-1.32-12,5.25-18,6.56-1,1.32-4,1.32-5,0-1-2.62,2-5.25,3-6.56-28-9.19-53,18.38-81,17.72-2.15.19-4.2.31-6.27.44-13.62.34-27.21,0-40.79-.39-1.94-.05-3.88-.11-5.79-.12-9.1.73-17.1,3.36-26.1,3.36,9,1.31,17-2.63,26.3-1,2,.14,3.93.28,5.9.4,9.83.62,19.7,1,29.53,1.08,2,0,3.93,0,5.89,0,26.38,3.45,48.38-17.56,73.38-21.5,6-1.32,16-1.32,13,10.5,9,2.63,15-5.25,23-9.19-1,1.31-2,1.31-3,2.63,3,3.94,7,2.62,10,6.56-5,1.32-10,6.57-15,9.19a15.12,15.12,0,0,1,4-3.94c-3,0-5,1.32-7,3.94,20-2.62,41-3.94,61,2.63-9-2.63-17-2.63-26-2.63,6,2.63,13,0,19,3.94-7-3.94-16-1.31-23-5.25a51.14,51.14,0,0,0,32.1,8.17,42.63,42.63,0,0,0,4.9-.67c4-.93,8-.93,12-4.87-3,0-5,1.31-8,2.62,5-3.94,10-6.56,14-13.13-1,0-3,1.32-4,1.32,2-9.2,10-5.26,14-9.2,0,1.32,0,2.63-1,2.63a12.18,12.18,0,0,0,8.18-3.37A3.15,3.15,0,0,0,375.87,30.36Z"/><path class="cls-6" d="M195.47,20.09c-19,2.62-38,4.19-56.9,6.2-1.89.2-3.78.4-5.63.69-10.73,1.77-16.73,14.9-26.73,16.21,5-2.62,9-3.94,13-9.19-5,6.57-16,10.5-19,2.63-10-25-36-23.64-54-18.39,5-1.31,11-2.62,16-3.94-11,2.63-22,5.26-32,10.51,2-1.31,4-1.31,6-2.63-5,1.32-9,3.94-14,3.94,1,0,3,0,4-1.31a47.52,47.52,0,0,1-6.42-.31,47.19,47.19,0,0,0-5.47-1c-14.63-1.81-29.51,2.6-43.11,7.85h4c-5,3.94-9,0-14-1.31C-24.79,36-9.54,38.27,6,38.92c1.94.09,3.88.14,5.83.17,25.42-6.4,53.42-37.92,78.42-10.34-3-6.57-8-7.88-13-10.51,5,2.63,13,3.94,12,10.51-1,5.25-12,2.62-12,11.82a18.49,18.49,0,0,0,4,1.31c-1-1.31-3-2.63-2-3.94a3.16,3.16,0,0,1,3-1.31c1,1.31-2,3.94,4,3.94-1-1.32-3-2.63-4-3.94,1,0,2-1.32,3-1.32a2.6,2.6,0,0,0-2,3.94c10,6.57,22,9.19,33,6.57-4-3.94-8,1.31-12-1.32,3,0,7,0,10-2.62h-3c9-2.63,15-13.13,24.57-13.07l5.73-.79c17.17-2.4,34.33-5.16,51.85-7.65C194.16,20.28,194.85,20.19,195.47,20.09Z"/><path class="cls-7" d="M237.78,17.83c10.43,1.73,21.43-3.53,31.43.41h-2c-7-5.25-15-2.62-22-1.31,1-1.31,3-1.31,5-1.31-13-2.63-25,2.62-38,2.62,17-2.62,33-6.56,50-5.25-17,0-35,2.63-52,3.37l-1.8-.25a45.56,45.56,0,0,0-10.71-.21c-1.22.13-2.44.31-3.69.55C176.15,17.6,158.6,18,140.91,18.16l-5.9,0c-3.8,0-6.8,0-10.8,1.36-7,2.62-10,18.38-16,14.44-23-18.38-49-26.26-73-11.82,8-3.94,17-5.25,26-7.88a84.56,84.56,0,0,0-17,5.26c16-5.26,37-7.88,50,9.19-3-5.25-7-7.88-11-10.51,4,3.94,11,5.26,12,13.13,0,3.94-6,1.32-4,5.26,1,2.62,5,2.62,8,3.94h-4c4,0,7,3.93,11,2.62-6,0-12-2.62-18-3.94,7,6.57,15,3.94,23,6.57-3,1.31-6-1.32-9-1.32q6,2,12-3.93c-1,0-1,1.31-2,1.31,9-2.63,14-15.76,24.44-13.63l5.53-.73c16.6-2.22,33.16-4.44,50-6.65-17.14,7.5-35.3,8.31-53.39,10.07-1.81.17-3.62.36-5.36.68-5.25-.25-9.25,3.69-13.25,7.63,4-3.94,9-2.62,14.29-3.65,1.4,0,2.84.1,4.29.07a35.4,35.4,0,0,0,4.42-.36c-1.5,0-3.25,0-5-.16a18.58,18.58,0,0,1-5-1.07,93.74,93.74,0,0,1,10.53-2.21c16-2.51,32.29-2.31,48.17-3.78,1.77-.17,3.54-.36,5.32-.58,21.93-4,42.93-11.89,64.93-8-3-1.32-5,2.62-8,1.31,8,1.31,15,0,23,2.63-6,0-13-2.63-19-3.94,2,0,5-2.63,7-1.32-9,0-18,0-26.95-.24Z"/></g></g></g></svg>