<?xml version="1.0" encoding="utf-8"?>
<!-- Generator: Adobe Illustrator 19.1.0, SVG Export Plug-In . SVG Version: 6.00 Build 0)  -->
<svg version="1.1" id="Layer_1" xmlns="http://www.w3.org/2000/svg" xmlns:xlink="http://www.w3.org/1999/xlink" x="0px" y="0px"
	 viewBox="0 0 41.4 39.4" enable-background="new 0 0 41.4 39.4" xml:space="preserve">
<g>
	<path fill="#EC2429" d="M23.8,19.7L36.6,6.9c0.9-0.9,0.9-2.2,0-3.1c-0.9-0.9-2.2-0.9-3.1,0L20.7,16.6L7.9,3.8C7.1,3,5.7,3,4.8,3.8
		C4,4.7,4,6.1,4.8,6.9l12.8,12.8L4.8,32.5c-0.9,0.9-0.9,2.2,0,3.1c0.4,0.4,1,0.6,1.5,0.6s1.1-0.2,1.5-0.6l12.8-12.8l12.8,12.8
		c0.4,0.4,1,0.6,1.5,0.6s1.1-0.2,1.5-0.6c0.9-0.9,0.9-2.2,0-3.1L23.8,19.7z"/>
</g>
</svg>
